<svg width="13" height="10" viewBox="0 0 13 10" fill="none" xmlns="http://www.w3.org/2000/svg">
<path opacity="0.4" d="M6.54492 9.45935L5.49023 6.7406H2.05664L1.00781 9.45935H0L3.35156 0.857788H4.24805L7.57617 9.45935H6.54492ZM5.19141 5.85583L4.18945 3.15466C4.16602 3.08435 4.12695 2.96912 4.07227 2.80896C4.02148 2.6488 3.96875 2.48279 3.91406 2.31091C3.85938 2.13904 3.81445 2.00037 3.7793 1.8949C3.74023 2.05505 3.69727 2.21521 3.65039 2.37537C3.60742 2.53162 3.56445 2.6781 3.52148 2.81482C3.47852 2.94763 3.44141 3.06091 3.41016 3.15466L2.39062 5.85583H5.19141ZM11.5371 2.92029C11.666 2.92029 11.8008 2.9281 11.9414 2.94373C12.082 2.95544 12.207 2.97302 12.3164 2.99646L12.1934 3.8988C12.0879 3.87146 11.9707 3.84998 11.8418 3.83435C11.7129 3.81873 11.5918 3.81091 11.4785 3.81091C11.2207 3.81091 10.9766 3.86365 10.7461 3.96912C10.5195 4.07068 10.3203 4.21912 10.1484 4.41443C9.97656 4.60583 9.8418 4.83826 9.74414 5.11169C9.64648 5.38123 9.59766 5.68201 9.59766 6.01404V9.45935H8.61914V3.03748H9.42773L9.5332 4.22107H9.57422C9.70703 3.98279 9.86719 3.76599 10.0547 3.57068C10.2422 3.37146 10.459 3.21326 10.7051 3.09607C10.9551 2.97888 11.2324 2.92029 11.5371 2.92029Z" fill="white"/>
</svg>
