<svg width="13" height="10" viewBox="0 0 13 10" fill="none" xmlns="http://www.w3.org/2000/svg">
<path opacity="0.4" d="M4.94141 9.45935H0.171875V0.892944H4.94141V1.77185H1.16797V4.54333H4.72461V5.41052H1.16797V8.58044H4.94141V9.45935ZM9.73438 2.92029C10.4961 2.92029 11.0723 3.10779 11.4629 3.48279C11.8535 3.85388 12.0488 4.45154 12.0488 5.27576V9.45935H11.0879V5.34021C11.0879 4.80505 10.9648 4.40466 10.7188 4.13904C10.4766 3.87341 10.1035 3.7406 9.59961 3.7406C8.88867 3.7406 8.38867 3.94177 8.09961 4.34412C7.81055 4.74646 7.66602 5.33044 7.66602 6.09607V9.45935H6.69336V3.03748H7.47852L7.625 3.96326H7.67773C7.81445 3.73669 7.98828 3.54724 8.19922 3.3949C8.41016 3.23865 8.64648 3.12146 8.9082 3.04333C9.16992 2.9613 9.44531 2.92029 9.73438 2.92029Z" fill="white"/>
</svg>
