<svg width="11" height="10" viewBox="0 0 11 10" fill="none" xmlns="http://www.w3.org/2000/svg">
<path opacity="0.4" d="M4.94141 9.45935H0.171875V0.892944H4.94141V1.77185H1.16797V4.54333H4.72461V5.41052H1.16797V8.58044H4.94141V9.45935ZM10.8477 7.70154C10.8477 8.11169 10.7441 8.4574 10.5371 8.73865C10.334 9.01599 10.041 9.22498 9.6582 9.3656C9.2793 9.50623 8.82617 9.57654 8.29883 9.57654C7.84961 9.57654 7.46094 9.54138 7.13281 9.47107C6.80469 9.40076 6.51758 9.30115 6.27148 9.17224V8.27576C6.5332 8.40466 6.8457 8.52185 7.20898 8.62732C7.57227 8.73279 7.94336 8.78552 8.32227 8.78552C8.87695 8.78552 9.2793 8.69568 9.5293 8.51599C9.7793 8.3363 9.9043 8.09216 9.9043 7.78357C9.9043 7.60779 9.85352 7.45349 9.75195 7.32068C9.6543 7.18396 9.48828 7.0531 9.25391 6.9281C9.01953 6.79919 8.69531 6.65857 8.28125 6.50623C7.87109 6.34998 7.51562 6.19568 7.21484 6.04333C6.91797 5.88708 6.6875 5.69763 6.52344 5.47498C6.36328 5.25232 6.2832 4.96326 6.2832 4.60779C6.2832 4.06482 6.50195 3.6488 6.93945 3.35974C7.38086 3.06677 7.95898 2.92029 8.67383 2.92029C9.06055 2.92029 9.42188 2.95935 9.75781 3.03748C10.0977 3.11169 10.4141 3.21326 10.707 3.34216L10.3789 4.12146C10.1133 4.00818 9.83008 3.91248 9.5293 3.83435C9.22852 3.75623 8.92188 3.71716 8.60938 3.71716C8.16016 3.71716 7.81445 3.79138 7.57227 3.93982C7.33398 4.08826 7.21484 4.29138 7.21484 4.54919C7.21484 4.74841 7.26953 4.91248 7.37891 5.04138C7.49219 5.17029 7.67188 5.29138 7.91797 5.40466C8.16406 5.51794 8.48828 5.65076 8.89062 5.8031C9.29297 5.95154 9.64062 6.10583 9.93359 6.26599C10.2266 6.42224 10.4512 6.61365 10.6074 6.84021C10.7676 7.06287 10.8477 7.34998 10.8477 7.70154Z" fill="white"/>
</svg>
