<svg width="224" height="50" viewBox="0 0 224 50" fill="none" xmlns="http://www.w3.org/2000/svg">
<g clip-path="url(#clip0_3281_2860)">
<path d="M79.0781 31.8301V18.6762H85.4643C86.4051 18.6762 87.2282 18.8292 87.9338 19.1374C88.6394 19.4337 89.1842 19.8519 89.5682 20.3943C89.9521 20.9367 90.1441 21.5651 90.1441 22.2795C90.1441 22.9199 89.9641 23.4862 89.6066 23.9784C89.2466 24.4707 88.7906 24.81 88.2338 24.9939V25.1779C88.901 25.3619 89.4458 25.7323 89.8681 26.2866C90.3001 26.841 90.5185 27.4885 90.5185 28.2269C90.5185 28.9652 90.3217 29.5888 89.9257 30.1289C89.5298 30.6713 88.9658 31.0894 88.2362 31.3857C87.5066 31.682 86.6595 31.8301 85.6923 31.8301H79.0829H79.0781ZM84.9267 24.0716C85.5339 24.0716 86.0283 23.9306 86.4123 23.6463C86.7963 23.3619 86.9882 22.994 86.9882 22.5376C86.9882 22.0812 86.7963 21.7132 86.4123 21.4289C86.0283 21.1445 85.5339 21.0036 84.9267 21.0036H82.162V24.0716H84.9267ZM85.0563 29.5028C85.7235 29.5028 86.2755 29.3499 86.7075 29.0417C87.1394 28.7215 87.3578 28.3153 87.3578 27.823C87.3578 27.3308 87.1418 26.9485 86.7075 26.6403C86.2755 26.3201 85.7235 26.16 85.0563 26.16H82.1596V29.5028H85.0563ZM93.0888 21.0609C92.6065 21.0609 92.2105 20.9128 91.9009 20.6165C91.5913 20.3082 91.4377 19.9211 91.4377 19.4528C91.4377 18.9845 91.5913 18.6022 91.9009 18.3083C92.2105 18 92.6065 17.8471 93.0888 17.8471C93.5712 17.8471 93.9672 18 94.2768 18.3083C94.5864 18.6046 94.74 18.9869 94.74 19.4528C94.74 19.9188 94.5864 20.3082 94.2768 20.6165C93.9672 20.9128 93.5712 21.0609 93.0888 21.0609ZM94.4616 31.8301H91.7137V22.3703H94.4616V31.8301ZM99.9646 32.1264C99.0118 32.1264 98.2511 31.8182 97.6823 31.2017C97.1135 30.5852 96.8279 29.78 96.8279 28.7812V24.3655H95.4912V22.3703H96.9023L97.4399 19.3764H99.5926L99.5734 22.3703H101.745V24.3655H99.5734V28.6713C99.5734 29.0775 99.6838 29.4049 99.907 29.651C100.142 29.8851 100.452 30.0022 100.836 30.0022C101.121 30.0022 101.448 29.9592 101.82 29.8732V31.8325C101.561 31.9186 101.256 31.9855 100.91 32.0356C100.565 32.0978 100.248 32.1288 99.9622 32.1288L99.9646 32.1264ZM107.476 32.1264C106.473 32.1264 105.583 31.9162 104.803 31.498C104.023 31.0799 103.411 30.4873 102.964 29.725C102.53 28.9604 102.314 28.0859 102.314 27.1014C102.314 26.117 102.53 25.2281 102.964 24.4778C103.396 23.7132 104.004 23.123 104.784 22.7049C105.564 22.2867 106.461 22.0764 107.474 22.0764C108.328 22.0764 109.101 22.2294 109.795 22.5376C110.5 22.8339 111.076 23.2592 111.52 23.8136C111.967 24.3679 112.238 25.0154 112.336 25.7538L109.775 26.0859C109.651 25.5698 109.372 25.1493 108.94 24.8291C108.52 24.4969 108.043 24.3297 107.51 24.3297C106.804 24.3297 106.216 24.5877 105.746 25.1062C105.288 25.6224 105.06 26.289 105.06 27.1014C105.06 27.9138 105.288 28.5805 105.746 29.0966C106.204 29.6151 106.785 29.8732 107.491 29.8732C108.036 29.8732 108.518 29.7131 108.938 29.3929C109.358 29.0608 109.636 28.6426 109.773 28.1361L112.353 28.4491C112.243 29.1874 111.957 29.835 111.499 30.3893C111.052 30.9437 110.476 31.3738 109.773 31.682C109.079 31.9783 108.314 32.1264 107.472 32.1264H107.476ZM118.398 32.1264C117.347 32.1264 116.426 31.9233 115.634 31.5171C114.842 31.099 114.223 30.5136 113.779 29.7609C113.344 28.9963 113.128 28.1098 113.128 27.1014C113.128 26.0931 113.344 25.2114 113.779 24.4587C114.225 23.6941 114.842 23.1111 115.634 22.7025C116.426 22.2843 117.347 22.074 118.398 22.074C119.45 22.074 120.354 22.2843 121.146 22.7025C121.95 23.1087 122.569 23.6941 123.001 24.4587C123.448 25.209 123.671 26.0907 123.671 27.1014C123.671 28.1122 123.448 28.9986 123.001 29.7609C122.569 30.5112 121.95 31.0966 121.146 31.5171C120.354 31.9233 119.438 32.1264 118.398 32.1264ZM118.398 29.7991C119.128 29.7991 119.728 29.5458 120.198 29.0417C120.669 28.5375 120.904 27.8899 120.904 27.1014C120.904 26.3129 120.669 25.6725 120.198 25.1803C119.728 24.6761 119.128 24.4229 118.398 24.4229C117.669 24.4229 117.05 24.6761 116.579 25.1803C116.109 25.6725 115.874 26.3129 115.874 27.1014C115.874 27.8899 116.109 28.5375 116.579 29.0417C117.05 29.5458 117.657 29.7991 118.398 29.7991ZM126.246 21.0609C125.764 21.0609 125.368 20.9128 125.058 20.6165C124.749 20.3082 124.595 19.9211 124.595 19.4528C124.595 18.9845 124.749 18.6022 125.058 18.3083C125.368 18 125.764 17.8471 126.246 17.8471C126.728 17.8471 127.124 18 127.434 18.3083C127.744 18.6046 127.897 18.9869 127.897 19.4528C127.897 19.9188 127.741 20.3082 127.434 20.6165C127.124 20.9128 126.728 21.0609 126.246 21.0609ZM127.619 31.8301H124.871V22.3703H127.619V31.8301ZM129.26 31.8301V22.3703H132.008V23.7013H132.193C132.899 22.6308 133.82 22.0932 134.958 22.0932C135.663 22.0932 136.287 22.2652 136.832 22.6093C137.377 22.9414 137.797 23.4097 138.094 24.0143C138.392 24.6045 138.541 25.2759 138.541 26.0286V31.8301H135.793V26.418C135.793 25.8279 135.632 25.3524 135.311 24.9963C134.989 24.626 134.555 24.442 134.01 24.442C133.465 24.442 132.978 24.6379 132.582 25.0322C132.198 25.4264 132.006 25.9187 132.006 26.5112V31.8325H129.258L129.26 31.8301ZM141.13 32.0524C140.66 32.0524 140.271 31.9114 139.962 31.627C139.664 31.3307 139.515 30.9556 139.515 30.4992C139.515 30.0428 139.664 29.6749 139.962 29.3905C140.271 29.0942 140.66 28.9461 141.13 28.9461C141.601 28.9461 141.985 29.0942 142.282 29.3905C142.58 29.6749 142.729 30.0428 142.729 30.4992C142.729 30.9556 142.58 31.3307 142.282 31.627C141.985 31.9114 141.601 32.0524 141.13 32.0524ZM148.361 32.1264C147.358 32.1264 146.468 31.9162 145.688 31.498C144.908 31.0799 144.296 30.4873 143.849 29.725C143.417 28.9604 143.199 28.0859 143.199 27.1014C143.199 26.117 143.415 25.2281 143.849 24.4778C144.281 23.7132 144.889 23.123 145.669 22.7049C146.449 22.2867 147.346 22.0764 148.361 22.0764C149.216 22.0764 149.988 22.2294 150.682 22.5376C151.388 22.8339 151.964 23.2592 152.408 23.8136C152.854 24.3679 153.125 25.0154 153.224 25.7538L150.663 26.0859C150.538 25.5698 150.26 25.1493 149.828 24.8291C149.408 24.4969 148.93 24.3297 148.397 24.3297C147.692 24.3297 147.104 24.5877 146.633 25.1062C146.175 25.6224 145.947 26.289 145.947 27.1014C145.947 27.9138 146.175 28.5805 146.633 29.0966C147.092 29.6151 147.673 29.8732 148.378 29.8732C148.923 29.8732 149.405 29.7131 149.825 29.3929C150.245 29.0608 150.524 28.6426 150.66 28.1361L153.24 28.4491C153.13 29.1874 152.844 29.835 152.386 30.3893C151.94 30.9437 151.366 31.3738 150.66 31.682C149.967 31.9783 149.201 32.1264 148.359 32.1264H148.361ZM159.283 32.1264C158.232 32.1264 157.308 31.9233 156.519 31.5171C155.727 31.099 155.107 30.5136 154.661 29.7609C154.229 28.9963 154.011 28.1098 154.011 27.1014C154.011 26.0931 154.227 25.2114 154.661 24.4587C155.107 23.6941 155.724 23.1111 156.519 22.7025C157.311 22.2843 158.232 22.074 159.283 22.074C160.334 22.074 161.239 22.2843 162.031 22.7025C162.835 23.1087 163.454 23.6941 163.889 24.4587C164.335 25.209 164.556 26.0907 164.556 27.1014C164.556 28.1122 164.333 28.9986 163.889 29.7609C163.454 30.5112 162.838 31.0966 162.031 31.5171C161.239 31.9233 160.322 32.1264 159.283 32.1264ZM159.283 29.7991C160.013 29.7991 160.613 29.5458 161.083 29.0417C161.554 28.5375 161.789 27.8899 161.789 27.1014C161.789 26.3129 161.554 25.6725 161.083 25.1803C160.613 24.6761 160.013 24.4229 159.283 24.4229C158.554 24.4229 157.935 24.6761 157.464 25.1803C156.994 25.6725 156.759 26.3129 156.759 27.1014C156.759 27.8899 156.994 28.5375 157.464 29.0417C157.935 29.5458 158.542 29.7991 159.283 29.7991ZM165.646 31.8301V22.3703H168.374V23.7753H168.559C168.83 23.2568 169.209 22.8458 169.692 22.5376C170.174 22.2294 170.712 22.0764 171.307 22.0764C171.902 22.0764 172.502 22.2437 173.032 22.5758C173.577 22.896 173.973 23.3261 174.22 23.8685H174.405C174.703 23.3142 175.104 22.8841 175.612 22.5758C176.133 22.2556 176.726 22.0955 177.393 22.0955C178.06 22.0955 178.706 22.2628 179.251 22.5949C179.795 22.9151 180.223 23.3715 180.532 23.9617C180.842 24.5519 180.995 25.2233 180.995 25.976V31.8325H178.247V26.4372C178.247 25.8589 178.079 25.3834 177.746 25.0154C177.412 24.6331 176.985 24.4372 176.464 24.4253C175.932 24.4253 175.492 24.6164 175.147 24.9987C174.813 25.3691 174.645 25.8494 174.645 26.4396V31.8349H171.878V26.4396C171.878 25.8231 171.724 25.338 171.415 24.9796C171.105 24.6092 170.69 24.4253 170.172 24.4253C169.653 24.4253 169.195 24.6092 168.873 24.9796C168.552 25.35 168.391 25.835 168.391 26.4396V31.8349H165.643L165.646 31.8301Z" fill="white"/>
<path d="M60.7511 28.4969C60.1776 30.7882 56.3044 29.5505 55.0469 29.2399L56.0644 25.1805C57.3219 25.4911 61.3487 26.1076 60.7511 28.4969Z" fill="white"/>
<path d="M61.326 22.5554C60.8028 24.6389 57.5776 23.5804 56.5312 23.32L57.4552 19.6381C58.5015 19.8985 61.8707 20.3811 61.326 22.5554Z" fill="white"/>
<path d="M65.5348 10.5733H49.4556C45.8894 10.5733 43 13.4501 43 16.9984V33.0002C43 36.5484 45.8894 39.4253 49.4556 39.4253H65.5348C69.0986 39.4253 71.988 36.5484 71.988 33.0002V16.9984C71.988 13.4501 69.0986 10.5733 65.5348 10.5733ZM64.9852 22.5872C64.7428 24.2239 63.8309 25.0172 62.6213 25.2944C64.2844 26.1569 65.1292 27.4783 64.3228 29.7697C63.3221 32.6131 60.9462 32.8544 57.7856 32.2595L57.02 35.3179L55.1673 34.8567L55.9233 31.8389C55.4409 31.7195 54.9513 31.5928 54.445 31.4566L53.6866 34.4888L51.8339 34.0276L52.6019 30.962L48.8677 30.0254L49.7868 27.9155L51.1356 28.2477C51.6587 28.3791 51.9251 28.047 51.9851 27.8104L54.0658 19.5096C54.1594 19.1345 53.953 18.6256 53.2018 18.4392L51.8555 18.1071L52.3499 16.1358C52.3499 16.1358 55.6473 16.9578 56.0865 17.0581L56.8472 14.0284L58.6999 14.4895L57.956 17.4595C58.4528 17.5718 58.9519 17.6865 59.4391 17.806L60.1783 14.8575L62.031 15.3163L61.2702 18.3484C63.6101 19.1512 65.3188 20.3531 64.9852 22.5872Z" fill="white"/>
</g>
<defs>
<clipPath id="clip0_3281_2860">
<rect width="137.999" height="28.8528" fill="white" transform="translate(43 10.5735)"/>
</clipPath>
</defs>
</svg>
