<svg width="224" height="50" viewBox="0 0 224 50" fill="none" xmlns="http://www.w3.org/2000/svg">
<path d="M119.631 16.4493C121.721 16.4462 121.721 16.4462 123.854 16.4431C124.513 16.4417 124.513 16.4417 125.185 16.4403C125.723 16.4399 125.723 16.4399 125.976 16.4398C126.152 16.4397 126.327 16.4394 126.502 16.4388C126.727 16.4381 126.951 16.4379 127.176 16.4381C127.258 16.438 127.34 16.4378 127.422 16.4375C128.969 16.4305 130.455 16.8435 131.581 17.95C132.004 18.3716 132.305 18.8414 132.552 19.3829C132.579 19.4412 132.579 19.4412 132.607 19.5006C132.872 20.1139 132.956 20.7601 132.956 21.4225C132.956 21.4484 132.956 21.4743 132.956 21.501C132.956 21.8808 132.943 22.2434 132.849 22.6133C132.843 22.6362 132.838 22.6592 132.832 22.6828C132.634 23.4703 132.25 24.1635 131.695 24.7559C131.668 24.7856 131.64 24.8154 131.612 24.846C130.659 25.8389 129.243 26.3396 127.887 26.374C127.757 26.3751 127.626 26.3751 127.496 26.3748C127.445 26.3748 127.394 26.3748 127.344 26.3748C127.21 26.3748 127.076 26.3746 126.941 26.3744C126.815 26.3742 126.689 26.3742 126.562 26.3742C126.194 26.374 125.825 26.3735 125.457 26.3731C124.633 26.3724 123.809 26.3717 122.96 26.371C122.96 28.3399 122.96 30.3088 122.96 32.3373C121.861 32.3373 120.763 32.3373 119.631 32.3373C119.631 27.0942 119.631 21.8512 119.631 16.4493ZM122.96 19.317C122.96 20.7311 122.96 22.1452 122.96 23.6022C123.78 23.6051 123.78 23.6051 124.6 23.607C124.934 23.6076 125.269 23.6083 125.604 23.6096C125.847 23.6106 126.091 23.6113 126.335 23.6115C126.464 23.6116 126.593 23.6119 126.722 23.6126C126.843 23.6133 126.965 23.6135 127.087 23.6134C127.152 23.6134 127.217 23.6139 127.282 23.6145C127.872 23.6125 128.389 23.4705 128.86 23.1077C128.894 23.0833 128.928 23.0588 128.963 23.0336C129.369 22.6454 129.581 22.1284 129.599 21.5726C129.606 20.9712 129.456 20.4266 129.035 19.9816C128.645 19.5869 128.101 19.3362 127.543 19.313C127.509 19.313 127.475 19.313 127.439 19.313C127.4 19.313 127.36 19.313 127.319 19.3129C127.255 19.3131 127.255 19.3131 127.189 19.3133C127.143 19.3133 127.096 19.3133 127.05 19.3133C126.925 19.3132 126.8 19.3134 126.676 19.3137C126.545 19.3139 126.414 19.3139 126.284 19.3139C126.036 19.314 125.789 19.3143 125.542 19.3146C125.208 19.3151 124.873 19.3153 124.539 19.3154C124.013 19.3158 123.486 19.3164 122.96 19.317Z" fill="white"/>
<path d="M73.8604 16.1798C75.9426 16.1366 78.0381 16.7508 79.6763 18.0609C79.6945 18.0752 79.7127 18.0896 79.7314 18.1044C80.1148 18.4094 80.5015 18.7571 80.7971 19.1487C80.7539 19.2453 80.7095 19.3091 80.6312 19.3799C80.6 19.4085 80.6 19.4085 80.5682 19.4378C80.5452 19.4586 80.5222 19.4795 80.4985 19.501C80.2502 19.7307 80.0089 19.9664 79.7699 20.2057C79.7526 20.223 79.7354 20.2403 79.7176 20.2581C79.6112 20.3645 79.505 20.4711 79.3988 20.5777C79.3071 20.6698 79.2153 20.7617 79.1236 20.8536C78.9451 21.0324 78.7667 21.2114 78.5885 21.3903C78.4593 21.3312 78.3801 21.2486 78.2877 21.1431C78.2553 21.1071 78.2228 21.0711 78.1903 21.0352C78.1741 21.0172 78.1579 20.9993 78.1412 20.9808C77.2686 20.0207 75.9644 19.3745 74.6656 19.2806C73.2162 19.2157 71.8533 19.5665 70.7514 20.5515C69.6886 21.5327 69.1886 22.8584 69.1232 24.2851C69.0956 25.5797 69.5457 26.8874 70.4354 27.8376C70.4607 27.8639 70.486 27.8903 70.512 27.9174C70.539 27.9465 70.566 27.9756 70.5938 28.0055C71.4658 28.9175 72.7548 29.4356 74.0063 29.4761C75.5768 29.5055 76.9904 28.9759 78.127 27.8845C78.2527 27.7569 78.3723 27.6242 78.4896 27.4889C78.6211 27.5416 78.7083 27.6338 78.8053 27.7334C78.8228 27.7511 78.8403 27.7687 78.8583 27.7869C78.9141 27.8433 78.9697 27.8999 79.0252 27.9566C79.0804 28.0126 79.1355 28.0686 79.1908 28.1245C79.2251 28.1592 79.2593 28.194 79.2934 28.2288C79.384 28.3207 79.4772 28.4075 79.5749 28.4919C79.7061 28.6055 79.8292 28.7254 79.9514 28.8486C79.9837 28.881 79.9837 28.881 80.0167 28.9141C80.0847 28.9822 80.1524 29.0504 80.2202 29.1186C80.2667 29.1652 80.3131 29.2118 80.3596 29.2584C80.4725 29.3717 80.5854 29.4852 80.6982 29.5987C80.4749 30.0583 79.9729 30.4407 79.5703 30.7413C79.5119 30.7851 79.4543 30.8298 79.3967 30.8746C78.0581 31.9042 76.2349 32.5633 74.5417 32.5722C74.5121 32.5724 74.4826 32.5727 74.4521 32.5729C74.357 32.5735 74.262 32.5737 74.167 32.5738C74.1345 32.5738 74.102 32.5738 74.0685 32.5738C73.5784 32.5733 73.1049 32.5554 72.6218 32.4666C72.5758 32.4589 72.5758 32.4589 72.529 32.4511C71.7156 32.3136 70.9206 32.0422 70.1824 31.6755C70.1585 31.6638 70.1346 31.6521 70.11 31.6401C69.1068 31.1461 68.1721 30.4106 67.4792 29.5327C67.4377 29.4827 67.4377 29.4827 67.3953 29.4316C66.5544 28.4112 66.0209 27.1382 65.798 25.8406C65.7927 25.81 65.7873 25.7795 65.7818 25.7479C65.4269 23.6173 65.9404 21.3798 67.1922 19.6222C67.3763 19.3699 67.5724 19.1339 67.7889 18.9088C67.8604 18.8341 67.9279 18.7581 67.9943 18.679C68.5624 18.0267 69.3556 17.5322 70.1164 17.1379C70.1408 17.1252 70.1651 17.1126 70.1901 17.0996C71.3234 16.5204 72.5887 16.2105 73.8604 16.1798Z" fill="white"/>
<path d="M170.662 21.5025C171.443 22.2199 171.824 23.2061 171.885 24.2545C171.894 24.4981 171.892 24.7417 171.891 24.9854C171.891 25.066 171.891 25.1467 171.891 25.2273C171.891 25.3995 171.891 25.5716 171.89 25.7438C171.889 25.9927 171.889 26.2416 171.889 26.4905C171.889 26.8945 171.888 27.2985 171.887 27.7025C171.886 28.0945 171.886 28.4865 171.885 28.8785C171.885 28.9027 171.885 28.927 171.885 28.952C171.885 29.0736 171.885 29.1953 171.885 29.3169C171.884 30.3229 171.882 31.3289 171.88 32.3349C170.857 32.3349 169.835 32.3349 168.781 32.3349C168.77 32.0956 168.759 31.8563 168.748 31.6097C168.648 31.6696 168.547 31.7294 168.443 31.791C167.039 32.6038 165.325 32.7689 163.764 32.358C163.512 32.2869 163.278 32.1924 163.046 32.0712C163.026 32.0611 163.006 32.051 162.986 32.0406C162.166 31.6144 161.509 30.942 161.209 30.0571C161.009 29.4062 160.964 28.5758 161.167 27.9179C161.185 27.859 161.185 27.859 161.203 27.7989C161.444 27.0751 161.911 26.5145 162.551 26.105C162.584 26.084 162.617 26.063 162.65 26.0413C163.197 25.7094 163.803 25.5244 164.43 25.4127C164.46 25.4073 164.49 25.4019 164.521 25.3964C165.933 25.1563 167.423 25.3152 168.781 25.7424C168.78 25.5877 168.777 25.4331 168.774 25.2784C168.773 25.2261 168.773 25.1737 168.772 25.1214C168.767 24.5343 168.683 23.9795 168.274 23.5277C167.632 22.9208 166.717 22.9135 165.887 22.9348C164.901 22.9692 163.841 23.3596 162.963 23.7877C162.801 23.8642 162.801 23.8642 162.715 23.8609C162.617 23.815 162.596 23.7487 162.549 23.6521C162.531 23.6144 162.512 23.5767 162.493 23.5379C162.473 23.4968 162.454 23.4556 162.434 23.4144C162.413 23.3723 162.393 23.3302 162.372 23.2882C162.31 23.1616 162.249 23.0346 162.189 22.9076C162.171 22.8714 162.154 22.8353 162.136 22.7981C162.074 22.6691 162.012 22.5401 161.951 22.4108C161.85 22.1984 161.746 21.9879 161.638 21.7796C161.59 21.6868 161.562 21.6291 161.562 21.5231C162.483 21.1035 163.441 20.7551 164.43 20.5342C164.463 20.5269 164.495 20.5196 164.528 20.512C166.572 20.0605 169.007 20.0514 170.662 21.5025ZM164.351 28.0124C164.1 28.3473 164.029 28.6968 164.068 29.1046C164.162 29.4895 164.416 29.7797 164.747 29.9843C165.206 30.2394 165.711 30.304 166.229 30.3015C166.289 30.3013 166.289 30.3013 166.351 30.301C166.686 30.2967 167.005 30.2667 167.331 30.1923C167.353 30.1874 167.376 30.1824 167.399 30.1773C167.848 30.0745 168.44 29.882 168.781 29.566C168.8 29.4859 168.8 29.4859 168.796 29.3944C168.796 29.3595 168.796 29.3245 168.796 29.2885C168.795 29.2508 168.795 29.2131 168.794 29.1742C168.794 29.1163 168.794 29.1163 168.794 29.0571C168.793 28.9335 168.791 28.8099 168.789 28.6863C168.789 28.6026 168.788 28.5189 168.788 28.4352C168.786 28.2298 168.784 28.0244 168.781 27.819C168.735 27.7979 168.688 27.7769 168.641 27.7559C168.615 27.7442 168.59 27.7325 168.563 27.7204C168.447 27.6713 168.33 27.6357 168.208 27.6027C168.183 27.5958 168.158 27.5889 168.132 27.5817C167.847 27.5064 167.557 27.4601 167.265 27.4235C167.229 27.4187 167.229 27.4187 167.192 27.4139C166.949 27.3854 166.705 27.3832 166.461 27.3826C166.388 27.3823 166.316 27.3812 166.243 27.3802C165.579 27.3752 164.828 27.5081 164.351 28.0124Z" fill="white"/>
<path d="M144.553 21.5025C145.338 22.2225 145.717 23.2055 145.776 24.2565C145.785 24.5007 145.783 24.7449 145.782 24.9892C145.782 25.0698 145.782 25.1504 145.782 25.2311C145.782 25.4031 145.782 25.5752 145.781 25.7473C145.781 25.996 145.78 26.2448 145.78 26.4936C145.78 26.8974 145.779 27.3012 145.778 27.705C145.778 28.0968 145.777 28.4885 145.776 28.8803C145.776 28.9045 145.776 28.9288 145.776 28.9537C145.776 29.0754 145.776 29.197 145.776 29.3186C145.775 30.324 145.773 31.3295 145.771 32.3349C144.748 32.3349 143.726 32.3349 142.672 32.3349C142.662 32.0956 142.651 31.8563 142.64 31.6097C142.539 31.6696 142.438 31.7294 142.335 31.791C140.93 32.604 139.217 32.7682 137.656 32.3582C137.403 32.2871 137.17 32.19 136.937 32.0712C136.904 32.0549 136.871 32.0387 136.837 32.0219C136.05 31.6147 135.381 30.9141 135.103 30.0632C134.906 29.4055 134.853 28.5826 135.058 27.9179C135.076 27.859 135.076 27.859 135.094 27.7989C135.227 27.4013 135.414 27.0825 135.684 26.7642C135.701 26.7427 135.717 26.7211 135.734 26.6989C136.336 25.9364 137.403 25.5764 138.321 25.4127C138.351 25.4073 138.381 25.4019 138.412 25.3964C139.825 25.1563 141.314 25.3152 142.672 25.7424C142.671 25.5877 142.669 25.4331 142.666 25.2784C142.665 25.2261 142.664 25.1737 142.664 25.1214C142.658 24.5343 142.574 23.9795 142.166 23.5277C141.523 22.9208 140.608 22.9135 139.779 22.9348C138.793 22.9692 137.733 23.3596 136.854 23.7877C136.692 23.8645 136.692 23.8645 136.606 23.86C136.511 23.8168 136.492 23.7593 136.448 23.6665C136.431 23.6318 136.413 23.5971 136.396 23.5614C136.378 23.5238 136.36 23.4861 136.342 23.4473C136.323 23.4087 136.304 23.3702 136.285 23.3304C136.227 23.2117 136.17 23.0926 136.113 22.9735C136.08 22.9052 136.047 22.837 136.015 22.7688C135.969 22.6741 135.924 22.5795 135.879 22.4847C135.77 22.2554 135.658 22.0283 135.541 21.8031C135.454 21.6327 135.454 21.6327 135.454 21.5231C136.374 21.1035 137.333 20.7551 138.321 20.5342C138.354 20.5269 138.386 20.5196 138.42 20.512C140.463 20.0605 142.899 20.0514 144.553 21.5025ZM138.242 28.0124C137.991 28.3473 137.92 28.6968 137.959 29.1046C138.053 29.4895 138.307 29.7797 138.639 29.9843C139.097 30.2394 139.602 30.304 140.12 30.3015C140.18 30.3013 140.18 30.3013 140.242 30.301C140.577 30.2968 140.896 30.2667 141.222 30.1923C141.245 30.1874 141.267 30.1824 141.291 30.1773C141.74 30.0745 142.331 29.882 142.672 29.566C142.692 29.4859 142.692 29.4859 142.687 29.3944C142.687 29.3595 142.687 29.3245 142.687 29.2885C142.687 29.2508 142.686 29.2131 142.685 29.1742C142.685 29.1163 142.685 29.1163 142.685 29.0571C142.684 28.9335 142.682 28.81 142.681 28.6863C142.68 28.6026 142.679 28.5189 142.679 28.4352C142.677 28.2298 142.675 28.0244 142.672 27.819C142.626 27.7979 142.579 27.7769 142.533 27.7559C142.507 27.7442 142.481 27.7325 142.454 27.7204C142.338 27.6713 142.221 27.6357 142.1 27.6027C142.075 27.5958 142.049 27.5889 142.024 27.5817C141.738 27.5064 141.449 27.4601 141.156 27.4235C141.12 27.4187 141.12 27.4187 141.084 27.4139C140.84 27.3854 140.597 27.3832 140.352 27.3826C140.279 27.3823 140.207 27.3812 140.134 27.3802C139.47 27.3752 138.72 27.5081 138.242 28.0124Z" fill="white"/>
<path d="M93.1877 21.8974C93.2668 21.9697 93.3446 22.0434 93.4223 22.1173C93.4535 22.1459 93.4535 22.1459 93.4854 22.1751C94.5159 23.1495 95.125 24.6788 95.1729 26.0798C95.1895 27.0377 95.0926 27.9535 94.7078 28.8417C94.6986 28.8636 94.6894 28.8855 94.6798 28.908C94.4349 29.4815 94.1041 29.9952 93.686 30.4569C93.661 30.4859 93.6359 30.5149 93.6102 30.5447C92.5801 31.7266 91.0157 32.4324 89.4668 32.5665C89.3739 32.5712 89.2811 32.5726 89.1881 32.5732C89.1626 32.5734 89.1371 32.5737 89.1108 32.5739C88.0353 32.5815 88.0353 32.5815 87.522 32.4676C87.4769 32.4578 87.4769 32.4578 87.4309 32.4478C86.2653 32.1859 85.2286 31.6362 84.3575 30.8195C84.3411 30.8042 84.3246 30.7888 84.3077 30.773C83.201 29.7335 82.5827 28.2466 82.5146 26.7388C82.5136 26.704 82.5126 26.6691 82.5116 26.6332C82.5103 26.6031 82.509 26.5731 82.5076 26.5421C82.4667 24.8552 83.139 23.2946 84.2924 22.0833C84.435 21.9381 84.5926 21.8135 84.7531 21.6888C84.7779 21.6677 84.8026 21.6466 84.8282 21.6248C87.1014 19.7013 90.804 19.8459 93.1877 21.8974ZM86.4424 24.0889C85.8729 24.7494 85.5956 25.5598 85.5998 26.4272C85.6 26.4678 85.6002 26.5084 85.6004 26.5502C85.6137 27.5525 86.0215 28.3563 86.7325 29.0515C87.4449 29.6884 88.2657 29.8683 89.1962 29.8369C89.9579 29.7916 90.6598 29.3816 91.1808 28.8417C91.6574 28.3039 91.9508 27.7045 92.0708 26.9958C92.0752 26.9707 92.0795 26.9456 92.084 26.9197C92.2084 26.0304 91.9912 25.0879 91.4628 24.3615C90.9264 23.6513 90.2021 23.1539 89.3102 23.022C88.1943 22.8903 87.211 23.2763 86.4424 24.0889Z" fill="white"/>
<path d="M114.567 21.4774C115.434 22.2794 115.923 23.4329 115.975 24.607C115.981 24.8377 115.98 25.0685 115.979 25.2993C115.979 25.3763 115.979 25.4534 115.979 25.5304C115.979 25.738 115.979 25.9457 115.978 26.1533C115.978 26.3487 115.978 26.5442 115.978 26.7396C115.978 27.1264 115.977 27.5131 115.977 27.8998C115.976 28.2751 115.976 28.6504 115.975 29.0257C115.975 29.0489 115.975 29.0721 115.975 29.096C115.975 29.2124 115.975 29.3288 115.975 29.4452C115.974 30.4083 115.973 31.3714 115.972 32.3345C114.938 32.3345 113.905 32.3345 112.84 32.3345C112.839 31.8282 112.837 31.322 112.835 30.8004C112.834 30.4795 112.833 30.1587 112.832 29.8378C112.83 29.3286 112.828 28.8194 112.826 28.3102C112.825 27.9393 112.824 27.5684 112.822 27.1975C112.822 27.0013 112.821 26.805 112.82 26.6087C112.82 26.4237 112.819 26.2387 112.818 26.0537C112.818 25.9861 112.818 25.9185 112.818 25.8508C112.817 25.0303 112.728 24.2371 112.118 23.6255C111.623 23.1601 110.959 22.984 110.289 22.9979C109.508 23.0512 108.817 23.2917 108.258 23.863C108.24 23.8807 108.221 23.8984 108.201 23.9166C108.055 24.0643 108.001 24.1677 107.997 24.3756C107.998 24.4223 107.998 24.4223 107.999 24.47C107.998 24.5207 107.998 24.5207 107.998 24.5723C107.997 24.6849 107.998 24.7975 107.998 24.9101C107.998 24.991 107.998 25.0719 107.997 25.1528C107.997 25.3268 107.997 25.5007 107.997 25.6747C107.998 25.9262 107.998 26.1776 107.997 26.4291C107.996 26.8372 107.996 27.2453 107.996 27.6533C107.997 28.0496 107.997 28.4459 107.996 28.8422C107.996 28.8667 107.996 28.8911 107.996 28.9163C107.996 29.039 107.996 29.1616 107.995 29.2843C107.994 30.301 107.994 31.3177 107.995 32.3345C106.961 32.3345 105.928 32.3345 104.863 32.3345C104.863 28.4294 104.863 24.5243 104.863 20.5008C105.897 20.5008 106.93 20.5008 107.995 20.5008C108.006 20.7837 108.016 21.0665 108.028 21.3579C108.081 21.3157 108.134 21.2736 108.188 21.2301C108.806 20.7607 109.54 20.4647 110.302 20.336C110.324 20.3322 110.346 20.3284 110.369 20.3245C111.898 20.0721 113.403 20.4578 114.567 21.4774Z" fill="white"/>
<path d="M158.397 21.7877C158.299 21.9705 158.184 22.1285 158.055 22.2904C157.889 22.4999 157.728 22.7116 157.571 22.927C157.416 23.1376 157.261 23.3473 157.103 23.5553C157.085 23.5793 157.067 23.6034 157.048 23.6281C157.031 23.6501 157.015 23.672 156.997 23.6946C156.983 23.7139 156.968 23.7333 156.953 23.7532C156.913 23.7984 156.913 23.7984 156.847 23.8314C156.768 23.7969 156.768 23.7969 156.668 23.7429C156.632 23.7233 156.595 23.7037 156.557 23.6836C156.537 23.673 156.518 23.6625 156.498 23.6517C155.247 22.9791 153.732 22.4317 152.305 22.8342C152.135 22.8897 151.99 22.9641 151.841 23.0611C151.771 23.1062 151.771 23.1062 151.7 23.1368C151.623 23.1818 151.607 23.222 151.573 23.304C151.556 23.3366 151.556 23.3366 151.539 23.3699C151.522 23.4025 151.522 23.4025 151.505 23.4358C151.489 23.4685 151.489 23.4685 151.471 23.5017C151.375 23.716 151.381 23.9429 151.456 24.1631C151.566 24.4099 151.762 24.563 152.002 24.6781C152.535 24.8716 153.121 24.9322 153.68 25.0148C153.721 25.0209 153.721 25.0209 153.764 25.0272C154.021 25.0652 154.279 25.1028 154.536 25.1398C155.728 25.3116 156.943 25.4987 157.869 26.3365C157.9 26.364 157.93 26.3914 157.962 26.4197C158.516 26.9441 158.84 27.666 158.866 28.4303C158.886 29.5372 158.53 30.3669 157.766 31.1656C157.194 31.7221 156.485 32.0726 155.727 32.3028C155.704 32.3096 155.682 32.3165 155.659 32.3235C155.126 32.4832 154.573 32.5703 154.017 32.5732C153.987 32.5734 153.957 32.5737 153.926 32.5739C153.829 32.5745 153.732 32.5747 153.636 32.5747C153.602 32.5748 153.569 32.5748 153.535 32.5748C153.007 32.5742 152.492 32.553 151.969 32.4676C151.934 32.4621 151.899 32.4567 151.864 32.451C150.673 32.2584 149.497 31.8638 148.504 31.1676C148.485 31.1544 148.466 31.1412 148.446 31.1276C148.348 31.0553 148.294 30.9961 148.244 30.8854C148.258 30.8668 148.273 30.8483 148.287 30.8292C148.534 30.5079 148.779 30.1864 149.012 29.8553C149.152 29.6597 149.3 29.47 149.446 29.2795C149.556 29.1364 149.663 28.9936 149.76 28.8417C149.923 28.8988 150.066 28.9869 150.214 29.0745C151.62 29.8948 153.128 30.4001 154.763 30.0335C155.151 29.925 155.54 29.7463 155.77 29.4038C155.899 29.1624 155.906 28.8742 155.831 28.6139C155.7 28.3215 155.465 28.1795 155.178 28.0582C155.057 28.0138 154.935 27.9813 154.81 27.9522C154.785 27.9465 154.761 27.9409 154.736 27.935C154.499 27.8814 154.26 27.8434 154.019 27.8097C153.943 27.799 153.866 27.7879 153.789 27.7768C153.599 27.7491 153.408 27.722 153.218 27.6949C150.077 27.2479 150.077 27.2479 149.13 25.9994C148.583 25.1884 148.466 24.232 148.643 23.2808C148.82 22.4041 149.364 21.6966 150.09 21.1944C150.239 21.0976 150.394 21.0125 150.552 20.9306C150.59 20.9106 150.628 20.8906 150.667 20.87C153.039 19.6757 156.285 20.3508 158.397 21.7877Z" fill="white"/>
<path d="M55.6811 18.3593C55.7705 18.6416 55.8528 18.9222 55.9036 19.2143C55.9074 19.236 55.9112 19.2578 55.9151 19.2802C56.1573 20.7538 55.8367 22.354 54.96 23.576C54.6598 23.9761 54.3294 24.3356 53.9748 24.6871C53.9324 24.7294 53.8901 24.7716 53.8477 24.8139C53.7377 24.9237 53.6275 25.0333 53.5172 25.1428C53.4042 25.2552 53.2913 25.3677 53.1784 25.4803C52.9579 25.7001 52.7373 25.9196 52.5165 26.139C52.6967 26.3587 52.8975 26.5565 53.0991 26.7563C53.1381 26.795 53.177 26.8337 53.216 26.8725C53.2996 26.9557 53.3832 27.0388 53.4669 27.1219C53.5997 27.2537 53.7323 27.3858 53.8648 27.5179C53.9104 27.5632 53.956 27.6086 54.0015 27.654C54.0243 27.6767 54.0471 27.6995 54.0706 27.7229C54.379 28.03 54.6874 28.337 54.9963 28.6436C55.205 28.8509 55.4135 29.0584 55.6217 29.2662C55.7316 29.3758 55.8416 29.4853 55.9519 29.5945C57.2607 30.8906 58.1479 32.3242 58.1638 34.2196C58.1613 34.8813 58.0489 35.4957 57.8568 36.1274C57.7183 36.0733 57.6255 35.9712 57.5229 35.8676C57.5028 35.8476 57.4826 35.8275 57.4619 35.8068C57.3943 35.7395 57.327 35.6719 57.2597 35.6043C57.2114 35.556 57.163 35.5077 57.1146 35.4594C56.9832 35.3281 56.8519 35.1966 56.7207 35.065C56.5833 34.9273 56.4457 34.7898 56.3082 34.6523C56.077 34.4211 55.846 34.1898 55.615 33.9584C55.3484 33.6912 55.0815 33.4242 54.8145 33.1572C54.5301 32.8728 54.2459 32.5884 53.9616 32.3038C53.8799 32.222 53.7981 32.1402 53.7163 32.0584C53.5875 31.9295 53.4587 31.8005 53.33 31.6715C53.2829 31.6243 53.2357 31.5771 53.1885 31.5299C52.777 31.1184 52.777 31.1184 52.6027 30.9136C52.49 30.7855 52.3668 30.6673 52.2455 30.5474C52.2001 30.5023 52.1547 30.4573 52.1093 30.4122C52.061 30.3643 52.0127 30.3164 51.9643 30.2685C51.863 30.1681 51.7619 30.0675 51.6608 29.9669C51.626 29.9323 51.5913 29.8977 51.5565 29.8631C51.5391 29.8458 51.5217 29.8285 51.5038 29.8106C51.2688 29.5769 51.0337 29.3432 50.7982 29.11C50.6388 28.952 50.4797 28.7939 50.3208 28.6355C50.237 28.5519 50.153 28.4685 50.0688 28.3853C49.9747 28.2925 49.8812 28.1991 49.7876 28.1057C49.7602 28.0787 49.7327 28.0518 49.7044 28.024C49.2446 27.5618 48.9524 26.9265 48.9233 26.2709C48.922 26.2486 48.9206 26.2263 48.9193 26.2033C48.8981 25.5227 49.1334 24.8733 49.5969 24.3799C49.8038 24.1633 50.017 23.9526 50.2289 23.7408C50.2876 23.682 50.3463 23.6231 50.405 23.5643C50.5473 23.4218 50.6896 23.2794 50.8319 23.137C50.9476 23.0213 51.0632 22.9057 51.1788 22.79C51.5068 22.4617 51.8349 22.1334 52.1631 21.8053C52.1807 21.7876 52.1983 21.77 52.2165 21.7518C52.2342 21.7342 52.2518 21.7165 52.27 21.6983C52.5571 21.4112 52.8441 21.124 53.1309 20.8366C53.4258 20.5413 53.7207 20.2461 54.0158 19.9511C54.1814 19.7855 54.3469 19.6199 54.5123 19.4542C54.6675 19.2987 54.8228 19.1433 54.9783 18.9881C55.0355 18.931 55.0926 18.8738 55.1496 18.8165C55.2272 18.7387 55.3049 18.6611 55.3827 18.5836C55.4056 18.5606 55.4284 18.5376 55.4519 18.5139C55.483 18.483 55.483 18.483 55.5147 18.4515C55.5416 18.4246 55.5416 18.4246 55.5691 18.3971C55.6152 18.3593 55.6152 18.3593 55.6811 18.3593Z" fill="white"/>
<path d="M181.545 20.2288C181.603 20.229 181.603 20.229 181.662 20.2292C182.664 20.2421 182.664 20.2421 182.925 20.5028C182.928 20.5891 182.929 20.6744 182.929 20.7607C182.929 20.7877 182.929 20.8147 182.929 20.8426C182.929 20.9323 182.929 21.022 182.928 21.1117C182.928 21.1737 182.928 21.2358 182.928 21.2978C182.928 21.4614 182.928 21.625 182.927 21.7886C182.927 21.9554 182.927 22.1222 182.927 22.289C182.926 22.6166 182.926 22.9441 182.925 23.2717C182.886 23.2581 182.846 23.2445 182.805 23.2306C182.752 23.2126 182.699 23.1946 182.646 23.1766C182.621 23.1677 182.595 23.1588 182.568 23.1496C181.712 22.8608 180.747 22.8889 179.926 23.2717C179.447 23.5095 179.046 23.8542 178.739 24.2935C178.711 24.3284 178.711 24.3284 178.682 24.3641C178.446 24.6981 178.476 25.0418 178.479 25.436C178.479 25.5114 178.478 25.5868 178.478 25.6622C178.477 25.8659 178.477 26.0696 178.478 26.2734C178.479 26.4867 178.478 26.6999 178.477 26.9132C178.476 27.2709 178.476 27.6285 178.477 27.9862C178.477 28.3544 178.477 28.7226 178.477 29.0908C178.477 29.1136 178.477 29.1363 178.477 29.1598C178.476 29.2738 178.476 29.3879 178.476 29.502C178.474 30.4468 178.474 31.3916 178.475 32.3364C177.442 32.3364 176.408 32.3364 175.344 32.3364C175.344 28.4313 175.344 24.5262 175.344 20.5028C176.377 20.5028 177.411 20.5028 178.475 20.5028C178.492 21.0902 178.492 21.0902 178.508 21.6895C178.575 21.6154 178.641 21.5412 178.71 21.4649C179.456 20.6599 180.443 20.2234 181.545 20.2288Z" fill="white"/>
<path d="M51.0319 19.0505C51.3831 19.3415 51.5759 19.7167 51.619 20.1671C51.6438 20.6478 51.5051 21.0268 51.1967 21.3908C51.0927 21.5037 50.9849 21.6123 50.8763 21.7208C50.8446 21.7527 50.813 21.7845 50.7813 21.8164C50.6961 21.9023 50.6106 21.9879 50.5251 22.0735C50.4714 22.1272 50.4177 22.181 50.3641 22.2348C50.1762 22.4233 49.9882 22.6116 49.7999 22.7998C49.6258 22.9739 49.452 23.1484 49.2784 23.323C49.1283 23.474 48.978 23.6246 48.8275 23.7751C48.738 23.8646 48.6487 23.9541 48.5596 24.0439C47.349 25.2634 45.9301 26.0479 44.1743 26.073C42.6596 26.0689 41.1941 25.5415 40.1053 24.4722C40.0558 24.4239 40.0054 24.3765 39.9549 24.3291C39.6349 24.0253 39.2121 23.5931 39.0664 23.1708C39.105 23.0748 39.1548 23.0082 39.2274 22.9355C39.2468 22.9159 39.2662 22.8963 39.2862 22.8761C39.3075 22.855 39.3287 22.8339 39.3506 22.8122C39.373 22.7896 39.3954 22.7671 39.4185 22.7439C39.4926 22.6696 39.5669 22.5954 39.6412 22.5213C39.6927 22.4698 39.7442 22.4183 39.7956 22.3667C39.9035 22.2587 40.0115 22.1509 40.1195 22.0432C40.2583 21.9048 40.3968 21.7661 40.5352 21.6273C40.6414 21.5208 40.7477 21.4145 40.8542 21.3083C40.9053 21.2572 40.9564 21.206 41.0074 21.1548C41.0786 21.0835 41.15 21.0124 41.2215 20.9413C41.2427 20.9199 41.2639 20.8985 41.2858 20.8765C41.4322 20.7316 41.4322 20.7316 41.5057 20.7316C41.5169 20.769 41.5281 20.8065 41.5396 20.8451C41.7697 21.589 42.1675 22.1814 42.861 22.569C43.1966 22.7339 43.5706 22.8488 43.9449 22.8741C43.9792 22.8767 43.9792 22.8767 44.0142 22.8793C44.7232 22.9077 45.3937 22.6276 45.9094 22.153C46.1672 21.9128 46.4129 21.66 46.6605 21.4095C46.7558 21.3132 46.8512 21.2171 46.9467 21.121C46.9797 21.0878 47.0126 21.0547 47.0456 21.0215C47.0621 21.0049 47.0785 20.9883 47.0955 20.9713C47.3172 20.7482 47.5386 20.525 47.7596 20.3013C47.9097 20.1495 48.0601 19.9979 48.2108 19.8467C48.2901 19.767 48.3693 19.6872 48.4481 19.6071C48.5361 19.5177 48.6246 19.4289 48.7132 19.3402C48.7386 19.3142 48.764 19.2881 48.7902 19.2613C49.4194 18.6366 50.3026 18.5183 51.0319 19.0505Z" fill="white"/>
<path d="M53.0079 15.1606C53.0286 15.1718 53.0493 15.1829 53.0706 15.1944C53.9757 15.6907 54.7249 16.4679 55.2164 17.3691C54.3789 18.2067 53.5413 19.0443 52.6783 19.9073C52.6565 19.8964 52.6348 19.8855 52.6124 19.8743C52.5922 19.7967 52.575 19.7199 52.5588 19.6415C52.4623 19.2204 52.2688 18.8494 51.9861 18.5228C51.9623 18.4902 51.9385 18.4576 51.914 18.4239C51.5384 17.9838 50.9014 17.7062 50.3379 17.6328C49.5988 17.5831 48.8802 17.7439 48.3065 18.2396C48.249 18.2918 48.1922 18.3448 48.1356 18.3982C48.1036 18.4282 48.1036 18.4282 48.071 18.4589C47.8088 18.7065 47.554 18.9616 47.2992 19.2168C47.2465 19.2695 47.1938 19.3222 47.1411 19.3748C47.0317 19.4842 46.9224 19.5936 46.813 19.7031C46.6735 19.8428 46.5338 19.9824 46.394 20.122C46.2856 20.2303 46.1772 20.3387 46.0689 20.4471C46.0174 20.4986 45.9659 20.5501 45.9144 20.6015C45.8424 20.6734 45.7705 20.7454 45.6987 20.8174C45.6778 20.8383 45.6569 20.8591 45.6354 20.8806C45.5115 21.0051 45.3942 21.1334 45.2802 21.2671C44.9993 21.5811 44.6182 21.7612 44.2016 21.7913C43.7923 21.8069 43.395 21.6747 43.0779 21.4153C42.8328 21.187 42.6159 20.8411 42.5859 20.5003C42.5699 19.9486 42.6504 19.5568 43.0274 19.1328C43.1105 19.0459 43.195 18.9606 43.2802 18.8758C43.3125 18.8433 43.3448 18.8108 43.377 18.7783C43.4638 18.6909 43.5509 18.6038 43.6382 18.5168C43.7115 18.4436 43.7846 18.3703 43.8578 18.2969C44.0307 18.1235 44.204 17.9503 44.3774 17.7772C44.5549 17.6001 44.732 17.4225 44.9089 17.2447C45.0619 17.091 45.2152 16.9375 45.3686 16.7843C45.4598 16.6932 45.5508 16.6021 45.6416 16.5107C47.6338 14.5071 50.4173 13.7574 53.0079 15.1606Z" fill="white"/>
<path d="M98.1738 20.5019C99.2072 20.5019 100.241 20.5019 101.305 20.5019C101.305 24.407 101.305 28.312 101.305 32.3355C100.272 32.3355 99.2385 32.3355 98.1738 32.3355C98.1738 28.4304 98.1738 24.5253 98.1738 20.5019Z" fill="white"/>
<path d="M45.8868 14.6986C45.8398 14.8055 45.7829 14.8766 45.7005 14.9589C45.6753 14.9842 45.6502 15.0095 45.6242 15.0356C45.5965 15.0631 45.5687 15.0907 45.5401 15.1191C45.5107 15.1486 45.4813 15.178 45.451 15.2084C45.3694 15.2902 45.2875 15.3717 45.2057 15.4533C45.1174 15.5412 45.0294 15.6294 44.9413 15.7175C44.7887 15.8702 44.6359 16.0227 44.4831 16.1752C44.2621 16.3956 44.0413 16.6163 43.8205 16.8369C43.4624 17.1949 43.1041 17.5528 42.7457 17.9105C42.3976 18.2581 42.0495 18.6057 41.7015 18.9534C41.68 18.9749 41.6586 18.9963 41.6365 19.0184C41.5289 19.1259 41.4213 19.2334 41.3137 19.3409C40.421 20.2329 39.528 21.1247 38.6349 22.0163C38.6023 22.0055 38.5697 21.9946 38.5361 21.9834C38.5107 21.9234 38.5107 21.9234 38.4927 21.845C38.4858 21.8159 38.479 21.7869 38.472 21.7569C38.4653 21.7263 38.4585 21.6956 38.4516 21.664C38.4447 21.635 38.4379 21.606 38.4308 21.5762C38.3306 21.1388 38.2928 20.7122 38.295 20.2652C38.2951 20.2399 38.2952 20.2145 38.2952 20.1884C38.3023 18.6048 38.9452 17.1907 40.0379 16.0563C41.6007 14.5536 43.8284 14.0973 45.8868 14.6986Z" fill="white"/>
<path d="M100.798 15.8777C101.191 16.1712 101.457 16.5979 101.528 17.0846C101.58 17.5783 101.469 18.0571 101.168 18.4564C100.882 18.7885 100.518 19.024 100.087 19.1175C99.9761 19.1255 99.8649 19.1251 99.7535 19.1257C99.7238 19.1264 99.6942 19.1271 99.6636 19.1278C99.1766 19.1306 98.7738 18.9163 98.4253 18.5848C98.0855 18.2111 97.9295 17.7684 97.9378 17.2669C97.9743 16.7628 98.1742 16.3102 98.5573 15.978C99.2227 15.4454 100.09 15.4046 100.798 15.8777Z" fill="white"/>
</svg>
