<svg width="224" height="50" viewBox="0 0 224 50" fill="none" xmlns="http://www.w3.org/2000/svg">
<path d="M96.6933 18.0456C92.7708 18.4969 89.8636 20.3453 88.8048 23.0789C87.9978 25.1617 88.4577 27.418 90.0285 29.0842C90.7574 29.8566 91.4604 30.3513 92.4844 30.8459C94.0378 31.5749 95.6085 31.922 97.726 31.9914C99.0364 32.0348 100.859 31.9133 100.989 31.7745C101.024 31.7398 101.067 30.4727 101.102 28.9627L101.154 26.2118L100.598 26.6283C99.9042 27.149 99.4009 27.3312 98.455 27.392C97.2747 27.4701 96.3028 27.1577 95.6346 26.4981C95.2354 26.0903 95.0791 25.7171 95.0791 25.1444C95.0878 24.3112 95.5304 23.6777 96.4503 23.2178C97.0838 22.9054 97.7 22.7926 98.5591 22.836C99.4443 22.888 100.199 23.1918 100.798 23.7298L101.154 24.0596L101.137 21.1611L101.11 18.2626L100.546 18.1584C99.7914 18.0109 97.5524 17.9502 96.6933 18.0456Z" fill="white"/>
<path d="M39.8809 24.9441V31.7565H43.8988C46.1899 31.7565 48.3334 31.7131 48.8714 31.661C52.4642 31.2966 54.5903 29.639 54.2085 27.4868C54.1564 27.2005 54.0349 26.7839 53.9221 26.5583C53.6444 25.9682 52.8721 25.2479 52.1865 24.9441C51.8654 24.7966 51.6051 24.6664 51.6051 24.6404C51.6051 24.6144 51.8394 24.4582 52.1344 24.2933C52.794 23.9114 53.2799 23.3734 53.4709 22.792C54.2085 20.579 52.1171 18.6698 48.4722 18.2186C48.0644 18.1752 45.999 18.1318 43.8121 18.1318H39.8809V24.9441ZM47.1445 21.3774C48.0644 21.8547 48.0297 22.7486 47.0751 23.2259C46.8668 23.33 46.5544 23.4255 46.3895 23.4428L46.0857 23.4689L46.0597 22.3928C46.051 21.794 46.051 21.2646 46.0771 21.2039C46.1205 21.0824 46.78 21.1865 47.1445 21.3774ZM47.0837 26.4628C47.7693 26.8099 47.9949 27.374 47.6565 27.8947C47.4743 28.1724 46.7193 28.5456 46.3287 28.5456H46.0424V27.4348C46.0424 26.8186 46.0684 26.2893 46.1031 26.2632C46.1899 26.1764 46.7279 26.2893 47.0837 26.4628Z" fill="white"/>
<path d="M54.7834 18.1925C54.7487 18.2186 54.7227 21.2906 54.7227 25.0049V31.7565H61.8388H68.9548V29.6304V27.5042H65.3534H61.752V22.818V18.1318H58.2981C56.3975 18.1318 54.8094 18.1578 54.7834 18.1925Z" fill="white"/>
<path d="M70.3438 24.9437V31.7565H78.849H87.3542V24.9437V18.1308H78.849H70.3438V24.9437ZM84.3166 24.9437V28.7189H78.849H73.3813V24.9437V21.1684H78.849H84.3166V24.9437Z" fill="white"/>
<path d="M75.6387 23.5118V24.1192H76.5499H77.4611V23.5118V22.9043H76.5499H75.6387V23.5118Z" fill="white"/>
<path d="M80.2971 22.9564C80.2624 22.9911 80.2363 23.2688 80.2363 23.5725V24.1192H81.1909H82.1542L82.1282 23.5291L82.1021 22.9477L81.2256 22.9217C80.7483 22.913 80.3318 22.9217 80.2971 22.9564Z" fill="white"/>
<path d="M75.6387 26.3334V26.8975H78.893H82.1473V26.3334V25.7693H78.893H75.6387V26.3334Z" fill="white"/>
<path d="M102.369 24.9437V31.7565H105.841H109.312V28.4846C109.312 26.6881 109.347 25.2474 109.382 25.2908C109.442 25.3602 110.267 27.9899 111.239 31.2097L111.404 31.7565H115.084C117.114 31.7565 118.772 31.7218 118.772 31.6871C118.772 31.6437 118.165 30.1336 117.427 28.3197C116.689 26.5145 116.082 24.9957 116.082 24.9437C116.082 24.8916 116.611 23.529 117.262 21.9061C117.913 20.2832 118.52 18.773 118.607 18.5387L118.772 18.1308H115.058H111.343L110.406 21.2291C109.885 22.9389 109.425 24.3969 109.39 24.4663C109.347 24.5358 109.312 23.1385 109.312 21.3593V18.1308H105.841H102.369V24.9437Z" fill="white"/>
<path d="M119.656 24.9176L119.682 31.7131L123.171 31.7391L126.668 31.7565L126.686 29.4393L126.712 27.1134H127.84H128.968L128.994 29.4306L129.012 31.7565H132.527H136.042V24.9437V18.1308H132.527H129.012V20.5175V22.9041H127.84H126.668V20.5175V18.1308H123.154H119.639L119.656 24.9176Z" fill="white"/>
<path d="M137.258 24.9441V31.7565H143.029H148.8V29.6304V27.5042H145.806H142.812V27.1571V26.8099H145.806H148.8V24.9441V23.0783H145.806H142.812V22.7312V22.3841H145.806H148.8V20.2579V18.1318H143.029H137.258V24.9441Z" fill="white"/>
<path d="M151.463 24.8829C150.326 28.5887 149.398 31.6524 149.406 31.6871C149.406 31.7305 150.986 31.7565 152.904 31.7565H156.41L156.514 30.9928C156.566 30.5762 156.636 30.1075 156.662 29.9513L156.714 29.6736H157.877C158.519 29.6736 159.04 29.6996 159.048 29.7343C159.057 29.7777 159.118 30.229 159.205 30.7584L159.344 31.7131L162.876 31.7391L166.408 31.7565L166.295 31.392C166.234 31.1837 165.297 28.1201 164.204 24.5705L162.225 18.1308H157.877H153.529L151.463 24.8829ZM158.207 23.6852C158.337 24.6139 158.467 25.5251 158.493 25.6987L158.545 26.0285H157.92C157.486 26.0285 157.304 25.9938 157.304 25.9157C157.295 25.5946 157.877 21.8801 157.92 21.9321C157.946 21.9668 158.076 22.7566 158.207 23.6852Z" fill="white"/>
<path d="M167.283 24.953V31.7746L171.692 31.7312C174.573 31.7051 176.318 31.6617 176.743 31.5923C179.234 31.1757 181.135 30.3426 182.419 29.0841C183.608 27.9212 184.12 26.7148 184.12 25.0919C184.12 22.0717 181.69 19.5115 177.932 18.5741C176.431 18.1923 175.545 18.1315 171.301 18.1315H167.283V24.953ZM175.936 23.0784C176.934 23.5731 177.481 24.5278 177.264 25.4217C177.142 25.9164 176.708 26.4632 176.196 26.7669C175.823 26.9839 174.886 27.2442 174.469 27.2442H174.226V25.0051C174.226 23.7727 174.244 22.74 174.27 22.7139C174.374 22.6098 175.45 22.8441 175.936 23.0784Z" fill="white"/>
</svg>
