<svg width="224" height="50" viewBox="0 0 224 50" fill="none" xmlns="http://www.w3.org/2000/svg">
<g clip-path="url(#clip0_3281_3334)">
<path d="M182.875 11.0168C182.874 13.2458 182.867 15.4736 182.844 17.7026C182.839 18.1433 182.832 18.423 182.764 18.6049C182.648 18.9208 182.351 18.9418 181.573 18.985C171.65 19.5364 163.298 27.0335 161.809 36.7212C161.687 37.5069 161.567 38.2962 161.587 39.0901C161.594 39.3862 161.53 39.5412 161.364 39.6135C161.27 39.6555 161.142 39.6706 160.975 39.6695C156.978 39.6578 152.98 39.673 148.984 39.6753C120.174 39.6858 91.3651 39.6939 62.5571 39.7044C55.6256 39.7068 48.6942 39.7044 41.7627 39.7301C41.1737 39.7324 41.0637 39.5657 41.0649 39.0213C41.0826 29.66 41.085 20.2988 41.0625 10.9376C41.0613 10.3372 41.2257 10.2124 41.8112 10.2124C65.2054 10.2276 88.5996 10.2253 111.993 10.2253C135.386 10.2253 158.702 10.2253 182.056 10.2276C182.446 10.2276 182.654 10.2078 182.764 10.2474C182.923 10.3034 182.877 10.4817 182.875 11.0168Z" stroke="white" stroke-width="2.21594" stroke-miterlimit="10"/>
<path d="M113.934 25.7023C113.608 23.8418 112.038 22.3661 110.169 22.1189C108.725 21.9277 107.343 22.0024 106.079 22.8148C105.947 22.9011 105.685 23.1179 105.65 22.7542C105.595 22.1982 105.206 22.197 104.811 22.176C104.417 22.1551 104.02 22.1772 103.631 22.1294C103.181 22.0735 103.061 22.2215 103.09 22.6621C103.226 24.6159 103.244 26.5731 103.264 28.5315C103.264 30.4887 103.272 32.4459 103.256 34.4031C103.253 34.7808 103.308 34.9789 103.76 34.9358C104.307 34.8834 104.862 34.8764 105.412 34.8845C105.779 34.8904 105.879 34.7435 105.88 34.4031C105.883 33.453 105.913 32.5042 105.942 31.5541C105.963 30.8384 105.971 30.8524 106.623 31.1251C108.006 31.7033 109.449 31.7348 110.822 31.2207C113.302 30.2917 114.383 28.2808 113.934 25.7023ZM110.384 29.1341C109.865 29.6051 109.224 29.6587 108.687 29.6902C108.012 29.6937 107.482 29.5794 106.979 29.3276C106.389 29.0327 106.03 28.5792 105.975 27.9265C105.912 27.1921 105.877 26.4553 106.016 25.7256C106.198 24.7767 106.896 24.054 107.866 23.9491C109.611 23.7602 110.475 24.1554 111.055 25.3258C111.675 26.5789 111.371 28.2424 110.384 29.1341Z" fill="white"/>
<path d="M122.961 27.1932C122.961 26.7269 122.962 26.4274 122.961 26.1278C122.948 23.8022 122.944 21.4778 122.91 19.1534C122.904 18.7465 123.01 18.5938 123.428 18.6416C123.929 18.6987 124.601 18.4283 124.891 18.7617C125.137 19.045 124.97 19.6849 124.968 20.1664C124.957 23.6343 124.933 27.1023 124.938 30.5714C124.938 31.04 124.859 31.2114 124.317 31.2673C123.421 31.3594 122.861 31.1076 122.387 30.3266C120.874 27.8355 119.292 25.384 117.732 22.9198C117.625 22.7507 117.563 22.5386 117.294 22.394C117.294 23.4723 117.294 24.49 117.294 25.5088C117.294 27.2725 117.283 29.035 117.302 30.7987C117.307 31.1962 117.221 31.3396 116.783 31.3011C115.748 31.2091 115.747 31.23 115.741 30.1914C115.72 26.5299 115.706 22.8673 115.664 19.2058C115.659 18.7419 115.794 18.6626 116.25 18.6335C117.16 18.574 117.7 18.9062 118.173 19.6908C119.58 22.0187 121.082 24.2906 122.549 26.5847C122.65 26.7409 122.756 26.8936 122.959 27.1955L122.961 27.1932Z" fill="white"/>
<path d="M141.762 25.5811C141.435 26.5125 141.114 27.4148 140.804 28.3205C140.515 29.1633 140.232 30.0073 139.962 30.8559C139.88 31.11 139.768 31.2173 139.471 31.2254C137.928 31.2709 137.931 31.2814 137.503 29.8616C136.781 27.4719 136.07 25.0775 135.324 22.6948C135.163 22.1796 135.249 22.0141 135.812 21.9989C137.367 21.9581 137.365 21.9395 137.763 23.4211C138.099 24.673 138.436 25.925 138.778 27.1758C138.843 27.4136 138.928 27.6467 139.054 28.0407C139.507 26.6174 139.907 25.3561 140.309 24.096C140.497 23.5062 140.703 22.921 140.872 22.3253C140.944 22.07 141.073 22.0047 141.328 21.9931C142.767 21.9231 142.765 21.9173 143.193 23.2695C143.609 24.5798 144.028 25.8877 144.449 27.1968C144.506 27.374 144.578 27.5465 144.706 27.8915C144.851 27.4369 144.952 27.1396 145.04 26.8401C145.464 25.3911 145.904 23.9468 146.294 22.4885C146.403 22.0817 146.583 21.9569 146.985 21.9919C147.395 22.028 147.81 22.0199 148.224 22.0152C148.555 22.0117 148.62 22.1213 148.515 22.4372C147.581 25.2267 146.659 28.0221 145.739 30.8163C145.649 31.0902 145.478 31.2068 145.194 31.2581C144.18 31.4446 143.792 31.2499 143.475 30.3162C143.008 28.9418 142.559 27.5616 142.094 26.1861C142.028 25.9914 142.012 25.7665 141.765 25.5811H141.762Z" fill="white"/>
<path d="M52.2437 18.7016C53.1012 18.7774 53.9788 18.7203 54.8115 19.0082C55.4549 19.2297 55.5401 19.408 55.3154 20.0503C55.3023 20.0865 55.2811 20.1203 55.2669 20.1564C54.912 21.0936 54.9144 21.082 53.9457 20.8652C52.9096 20.6332 51.87 20.3931 50.796 20.6169C50.1231 20.7579 49.5672 21.0505 49.3992 21.7756C49.2715 22.3258 49.5944 22.8702 50.278 23.2805C50.9226 23.6675 51.6488 23.8564 52.3537 24.0977C53.2503 24.4042 54.1113 24.7761 54.8576 25.3659C56.5573 26.71 56.5892 28.8257 54.9357 30.2246C53.9706 31.0406 52.8197 31.4031 51.5826 31.5104C50.0379 31.6444 48.5169 31.5104 47.0503 30.9765C46.3737 30.7305 46.3335 30.6349 46.5724 29.9413C46.5854 29.9052 46.5949 29.8667 46.6079 29.8306C46.9474 28.8782 47.0136 28.8316 47.9503 29.172C49.1426 29.6056 50.3703 29.6814 51.6145 29.566C52.7689 29.4599 53.3922 28.7803 53.3603 27.7719C53.3484 27.4094 53.1911 27.1483 52.9345 26.9163C52.4448 26.4769 51.8593 26.2087 51.2467 25.9861C50.2875 25.6387 49.3235 25.3018 48.4246 24.8157C46.2744 23.6524 46.1076 21.082 48.0852 19.6598C49.333 18.7634 50.7535 18.585 52.2437 18.7005V18.7016Z" fill="white"/>
<path d="M100.747 26.8395C100.747 28.215 100.732 29.5905 100.756 30.9649C100.763 31.3484 100.651 31.4789 100.264 31.4451C99.9128 31.4148 99.5544 31.4183 99.2019 31.444C98.7217 31.4778 98.3219 31.4789 98.2616 30.8401C98.2238 30.4415 97.9494 30.7434 97.85 30.8075C96.6519 31.5745 95.3296 31.6142 93.98 31.4673C92.4153 31.2959 91.1355 29.9286 91.0374 28.391C90.9191 26.5352 90.8469 24.6782 90.8753 22.8178C90.8836 22.306 91.0953 22.1254 91.5826 22.1475C92.2284 22.1766 93.0374 21.9319 93.4738 22.3049C93.8984 22.6662 93.6087 23.4717 93.6335 24.0802C93.6867 25.338 93.7068 26.597 93.7352 27.8559C93.7612 28.9809 94.5016 29.6768 95.6667 29.6651C97.0138 29.6523 97.8417 28.8783 97.8831 27.5692C97.934 25.9628 97.9872 24.3553 97.9991 22.7478C98.0026 22.306 98.1315 22.1743 98.568 22.207C99.0765 22.2443 99.5934 22.2501 100.102 22.207C100.618 22.1615 100.723 22.3667 100.713 22.8318C100.685 24.1677 100.703 25.5047 100.703 26.8418C100.717 26.8418 100.731 26.8418 100.745 26.8418L100.747 26.8395Z" fill="white"/>
<path d="M73.661 31.065C73.4185 29.0251 73.4989 26.9664 73.3144 24.9218C73.1997 23.6558 72.179 22.5146 70.8981 22.25C70.1458 22.095 69.3806 22.0448 68.3752 22.0099C67.5994 21.9399 66.6875 22.3095 65.7554 22.6184C65.1345 22.8247 65.1854 23.1709 65.3888 23.643C65.7294 24.4357 65.7566 24.459 66.4071 24.2375C67.4551 23.882 68.5148 23.6045 69.6372 23.8727C70.1269 23.9892 70.5007 24.2434 70.6828 24.719C70.8023 25.0314 70.7337 25.2517 70.3469 25.2867C69.9944 25.3193 69.6432 25.3566 69.2919 25.3962C67.953 25.5466 66.6413 25.7926 65.5402 26.6272C63.9127 27.8605 64.0712 30.0008 65.8347 31.0126C67.4125 31.9172 68.9643 31.6339 70.5196 30.9729C70.8117 30.8482 71.1275 30.6046 71.2044 31.1886C71.2269 31.3576 71.4161 31.4159 71.5758 31.4194C72.166 31.4299 72.7562 31.4287 73.3464 31.4299C73.5959 31.4311 73.6906 31.318 73.661 31.065ZM68.0736 29.7595C67.5875 29.6336 67.1925 29.3864 67.0943 28.8689C67.0044 28.3851 67.2457 28.0086 67.6017 27.6997C68.0039 27.3488 68.5136 27.266 69.0151 27.1751C69.4196 27.1017 69.83 27.0632 70.4368 26.9816C70.7715 26.8918 70.891 27.1774 70.891 27.6204C70.8898 29.0635 69.4977 30.1267 68.0736 29.7595Z" fill="white"/>
<path d="M129.2 27.2192C130.024 27.267 130.853 27.232 131.68 27.232H133.511C134.845 27.232 134.989 27.0665 134.814 25.7434C134.797 25.6082 134.787 25.473 134.762 25.3401C134.467 23.7629 133.808 22.3803 132.095 21.991C130.387 21.6028 128.725 21.8126 127.599 23.3794C126.473 24.9461 126.16 26.676 126.822 28.5061C127.35 29.9632 128.319 31.0287 129.945 31.2712C131.035 31.4332 132.147 31.3877 133.233 31.1522C134.338 30.9121 134.431 30.7116 134.137 29.631C134.022 29.2055 133.862 29.0575 133.404 29.2347C132.506 29.5832 131.565 29.6124 130.617 29.4585C129.73 29.3151 128.979 28.6437 128.761 27.7974C128.663 27.4197 128.666 27.1877 129.2 27.2192ZM128.761 25.1699C129.119 24.4809 129.456 23.7827 130.355 23.5985C131.416 23.3805 132.36 23.9237 132.621 24.9461C132.695 25.2363 132.605 25.375 132.297 25.424L130.533 25.4426C130.023 25.4426 129.512 25.4473 129.002 25.4391C128.839 25.4368 128.646 25.3902 128.761 25.1699Z" fill="white"/>
<path d="M86.7755 26.4863C86.7755 27.1834 86.7507 27.8805 86.7826 28.5764C86.8169 29.3318 87.3042 29.7247 88.0694 29.6745C89.4651 29.5836 89.4568 29.5824 89.3965 30.9428C89.3847 31.2028 89.3078 31.3065 89.0523 31.3741C88.0198 31.6469 86.9955 31.6574 85.9748 31.3322C84.8216 30.965 84.2503 30.269 84.1959 29.0777C84.1273 27.5693 84.0835 26.0597 84.0705 24.5513C84.067 24.1071 83.9262 23.9999 83.4945 24.0081C82.4336 24.0279 82.4336 24.0081 82.4336 22.9986C82.4336 22.4227 82.7198 22.1348 83.2923 22.1348C83.8016 22.1348 84.0642 21.8783 84.08 21.3654C84.1052 20.5805 84.5152 20.096 85.3101 19.9118C86.2618 19.6911 86.7376 20.0548 86.7376 21.0029C86.7376 21.7583 87.1299 22.1359 87.9145 22.1359H88.0919C89.5763 22.1359 89.5585 22.1359 89.5372 23.5907C89.5313 23.9766 89.3823 24.036 89.0499 24.0244C88.4609 24.0046 87.8684 24.0489 87.2805 24.0092C86.8193 23.9778 86.7081 24.1514 86.7294 24.5723C86.7613 25.2099 86.7376 25.8499 86.7376 26.4887C86.7507 26.4887 86.7625 26.4887 86.7755 26.4887V26.4863Z" fill="white"/>
<path d="M58.3622 26.7553C58.3622 25.9999 58.3492 25.2433 58.3681 24.4891C58.3764 24.1557 58.303 24.01 57.9163 24.0054C56.7548 23.9902 56.7903 23.9704 56.7406 22.8082C56.7158 22.237 56.8849 22.0342 57.4503 22.1298C57.6028 22.1554 57.7661 22.1204 57.9222 22.1368C58.238 22.1694 58.4142 22.075 58.3645 21.7288C58.3539 21.653 58.3551 21.5726 58.3645 21.4968C58.4189 21.0492 58.1304 20.3917 58.5077 20.1924C59.1452 19.8543 59.9199 19.7319 60.6697 19.6993C60.9903 19.6853 61.0198 19.9627 61.0234 20.2005C61.0328 20.7239 61.0423 21.2473 61.0257 21.7696C61.0175 22.047 61.1133 22.1391 61.3948 22.1379C62.024 22.1379 62.6544 22.1776 63.2836 22.1787C63.6112 22.1787 63.7638 22.2475 63.7686 22.6298C63.7827 23.9727 63.8005 23.9727 62.4297 23.9949C61.4969 24.0104 61.0309 24.4798 61.0317 25.403C61.034 26.43 61.0234 27.457 61.0565 28.4828C61.0872 29.4632 61.4504 29.7546 62.438 29.6672C63.5994 29.5646 63.6763 29.6485 63.6503 30.8282C63.6432 31.1523 63.5178 31.354 63.2056 31.4146C62.1494 31.6197 61.0896 31.6827 60.0665 31.2828C59.0387 30.8818 58.4568 30.1288 58.4272 29.0202C58.4071 28.266 58.4237 27.5106 58.4237 26.7553C58.4036 26.7553 58.3835 26.7553 58.3645 26.7553H58.3622Z" fill="white"/>
<path d="M152.466 21.8642C153.119 21.8723 153.76 21.9096 154.365 22.1976C154.747 22.3794 154.908 22.6219 154.734 23.0275C154.712 23.0812 154.702 23.1395 154.685 23.1942C154.489 23.8292 154.072 24.0304 153.432 23.7981C152.982 23.6349 152.518 23.5626 152.04 23.643C151.683 23.7037 151.412 23.889 151.327 24.2492C151.236 24.6351 151.393 24.9393 151.742 25.127C152.311 25.4324 152.893 25.7145 153.462 26.0222C154.841 26.7706 155.263 27.554 155.08 28.9971C154.935 30.1267 154.142 30.9042 152.763 31.2411C151.554 31.5372 150.384 31.3786 149.242 30.9252C148.9 30.79 148.732 30.6116 148.905 30.2188C149.073 29.8341 148.997 29.2664 149.36 29.0647C149.715 28.8689 150.098 29.3002 150.482 29.4191C151.017 29.5846 151.559 29.6604 152.111 29.5695C152.491 29.5065 152.837 29.3503 152.96 28.9458C153.09 28.5168 152.894 28.1963 152.563 27.9328C152.239 27.674 151.863 27.5062 151.498 27.3162C151.064 27.09 150.623 26.872 150.222 26.5958C149.254 25.9301 148.873 25.0022 149.131 24.0464C149.434 22.9215 150.487 21.9959 151.581 21.9026C151.874 21.8782 152.17 21.8747 152.466 21.8618V21.8642Z" fill="white"/>
<path d="M78.281 23.0257C79.1657 22.4195 79.99 22.0348 80.9433 21.9975C81.8588 21.9625 81.9723 22.0675 81.9664 22.9522C81.9664 22.972 81.9664 22.9907 81.9664 23.0105C81.9546 24.0188 81.9546 24.0235 80.9575 24.0573C79.951 24.0923 78.7257 24.6973 78.7067 26.1148C78.6855 27.6826 78.5743 29.2493 78.5518 30.8172C78.5447 31.2847 78.3886 31.4164 77.9498 31.4036C77.4388 31.3896 76.9243 31.4012 76.4157 31.4467C76.0089 31.484 75.9273 31.3266 75.9296 30.9594C75.9403 29.0803 75.9225 27.2012 75.9225 25.3233C75.9225 24.4513 75.9143 23.577 75.796 22.7132C75.725 22.2015 75.9083 22.0709 76.3921 22.1316C76.7812 22.1805 77.1774 22.1712 77.5713 22.1794C78.0491 22.1887 78.3886 22.3321 78.2833 23.0257H78.281Z" fill="white"/>
<path d="M181.713 18.714C171.542 19.2771 162.982 26.935 161.455 36.8313C161.329 37.6333 161.206 38.44 161.226 39.2514C161.233 39.5533 161.168 39.7119 160.998 39.7865H182.932V18.3258C182.814 18.6487 182.509 18.6697 181.712 18.714H181.713ZM177.962 28.0099C178.36 28.0507 178.664 28.2011 178.661 28.6149C178.659 29.0218 178.413 29.2829 177.986 29.2969C177.555 29.312 177.383 29.0206 177.348 28.6545C177.309 28.2244 177.611 28.0798 177.962 28.0087V28.0099ZM167.576 34.403C167.165 34.3843 166.87 34.0043 166.899 33.5205C166.928 33.0518 167.204 32.7989 167.663 32.7744C168.068 32.7534 168.391 33.1672 168.377 33.6347C168.364 34.0987 168.025 34.4251 167.576 34.4041V34.403ZM171.679 28.9133C171.539 28.9297 171.39 28.9227 171.261 28.9705C170.985 29.0719 170.864 29.3062 170.863 29.579C170.86 29.8203 171.043 29.9147 171.266 29.9299C171.548 29.9486 171.714 30.0616 171.71 30.3682C171.704 30.6702 171.596 30.8625 171.257 30.866C170.936 30.8707 170.873 31.0642 170.869 31.3393C170.857 32.0912 170.82 32.8408 170.803 33.5928C170.786 34.2666 170.792 34.2677 170.042 34.2677C169.51 34.4146 169.411 34.108 169.435 33.5928C169.467 32.9224 169.442 32.2486 169.41 31.5783C169.397 31.2787 169.409 30.9744 169.092 30.7378C168.885 30.5816 168.873 30.1864 169.1 30.0535C169.446 29.8483 169.428 29.5534 169.505 29.2572C169.756 28.299 170.58 27.7732 171.606 27.8688C171.93 27.8991 172.02 28.0507 172.007 28.3293C171.997 28.5811 172.062 28.8702 171.675 28.9157L171.679 28.9133ZM176.455 30.479C175.963 31.9012 175.471 33.3223 174.796 34.6746C174.478 35.3099 174.028 35.838 173.329 36.105C173.122 36.1843 172.851 36.3778 172.721 36.035C172.611 35.7448 172.354 35.4149 172.713 35.1164C173.059 34.8285 173.641 34.6548 173.668 34.2048C173.692 33.7898 173.387 33.3549 173.221 32.9318C172.889 32.0831 172.566 31.2309 172.212 30.3915C172.067 30.0488 172.126 29.9486 172.511 29.9392C173.499 29.9136 173.502 29.8973 173.781 30.8229C173.969 31.4454 174.146 32.0738 174.372 32.8478C174.751 31.9805 174.894 31.2053 175.094 30.4463C175.211 29.9975 176.094 29.7282 176.439 30.0383C176.589 30.1735 176.504 30.3414 176.455 30.4813V30.479ZM178.684 30.402C178.636 30.9709 178.673 31.5468 178.673 32.1192C178.673 32.6916 178.656 33.2652 178.68 33.8364C178.693 34.1698 178.589 34.2829 178.241 34.2747C177.098 34.2456 177.336 34.3552 177.322 33.4237C177.308 32.4165 177.351 31.4081 177.308 30.402C177.281 29.7679 177.711 29.9579 178.031 29.9439C178.356 29.9287 178.732 29.8296 178.684 30.402Z" fill="white"/>
</g>
<defs>
<clipPath id="clip0_3281_3334">
<rect width="141.82" height="29.9152" fill="white" transform="translate(41.0898 10.0424)"/>
</clipPath>
</defs>
</svg>
