<svg width="224" height="50" viewBox="0 0 224 50" fill="none" xmlns="http://www.w3.org/2000/svg">
<path d="M181.911 22.8658L171.217 44.5211H42.0879L53.0492 22.8658H181.911ZM55.188 37.8374H60.936C61.5963 37.8374 62.7379 36.7332 62.8903 36.0408C63.3234 34.0731 61.7674 33.7844 61.6284 33.1213C61.5509 32.7444 62.893 31.8541 62.2593 30.0949C61.9733 29.3009 60.6392 28.4802 59.8666 28.4802H55.188V37.8374ZM69.7585 28.4802C68.2693 28.2155 66.1199 28.6753 64.5452 28.4802V37.8374H65.6146C65.6734 35.1585 64.8312 33.9314 68.1731 34.3458C69.975 34.5704 69.8895 38.4389 72.301 37.8347L70.1648 34.2442C70.5872 33.6935 71.3198 33.7202 71.7368 33.1294C72.9372 31.4317 71.7769 28.8384 69.7638 28.4802H69.7585ZM80.8534 28.4802H73.9024V37.8374H80.8534V36.768H74.9718V33.8271H80.3187V32.7577H75.3728C74.6296 32.7577 75.0734 29.5496 75.2391 29.5496H80.8534V28.4802ZM86.6923 28.5256L85.1016 28.6459L81.3881 37.8374C83.3959 38.4095 82.7302 36.3563 83.6552 35.4286C84.0242 35.0596 87.3393 35.0275 87.8954 35.2067C88.9167 35.5355 88.4542 38.626 90.4753 37.8374L86.6923 28.5256ZM92.8841 28.4802C92.5339 28.3919 91.5474 28.5283 91.5474 28.8812V37.8374H92.8868C93.0098 37.7171 92.7478 35.4205 92.9349 34.811C92.9937 34.6158 94.5096 33.3031 94.6219 33.3005C95.1566 33.2924 97.5707 37.5219 98.0172 37.7785C98.3808 37.9871 99.116 37.7705 99.5652 37.8347L95.8196 32.3514C95.8169 31.6295 98.8861 29.3891 99.3005 28.4802L97.6991 28.6165L92.8841 33.0251V28.4802ZM101.974 37.8374V28.8812C101.974 28.5283 100.987 28.3919 100.637 28.4802V37.8374H101.974ZM110.796 35.6986L105.449 28.6138L103.845 28.4802V37.4363C103.845 37.7892 104.832 37.9256 105.182 37.8374V30.619C107.169 32.8005 108.821 35.3858 110.583 37.7812L112.133 37.8374V28.4802C111.783 28.3919 110.796 28.5283 110.796 28.8812V35.6986ZM122.56 32.7577H118.282C117.905 34.4848 119.285 33.6667 120.568 33.8138C122.734 34.0624 120.587 36.637 118.678 36.7733C113.475 37.1476 113.724 29.1886 118.678 29.5335C120.432 29.6565 120.849 31.4558 122.557 31.151C120.905 26.967 114.2 27.6861 113.735 32.354C113.269 37.0219 117.496 39.8719 121.357 36.768C121.686 36.899 121.373 37.6743 121.49 37.8374C121.522 37.8801 122.522 37.8775 122.557 37.8374C122.723 37.6422 122.592 33.501 122.557 32.7577H122.56ZM130.313 28.4802V37.8374H131.65V30.619L136.997 37.7037L138.601 37.8374V28.8812C138.601 28.5283 137.614 28.3919 137.264 28.4802V35.6986C135.221 33.5598 133.607 30.9424 131.864 28.5363C131.658 28.4213 130.369 28.424 130.313 28.4802ZM147.691 28.4802H140.74V37.7037C140.74 38.3801 142.309 37.8347 142.734 37.824C144.383 37.7812 146.046 37.8855 147.693 37.8347V36.7653H142.213C141.624 36.7653 141.624 33.8245 142.213 33.8245H146.891V32.485C146.308 32.9663 142.068 32.7444 141.937 32.5091C141.667 32.0359 141.689 29.5442 142.213 29.5442H147.693V28.4748L147.691 28.4802ZM151.965 35.6986C151.602 35.6638 151.53 35.3216 151.42 35.0436C151.027 34.0464 149.795 28.8999 149.3 28.6085C148.966 28.4133 148.589 28.4748 148.228 28.4802C148.733 29.6271 150.557 37.4952 150.925 37.808C151.043 37.9095 152.345 37.9443 152.532 37.677C153.345 36.5354 153.96 32.1616 154.644 30.6163C155.008 30.651 155.08 30.9932 155.19 31.2713C155.66 32.461 156.625 36.9204 157.176 37.5727C157.518 37.9764 158.43 38.0753 158.727 37.5032C158.906 37.161 159.053 36.5193 159.192 36.1023C159.515 35.1291 161.614 28.7849 161.323 28.4775C160.972 28.5229 160.462 28.3064 160.227 28.6379C159.585 29.5415 158.403 35.4713 158.112 35.6959C157.759 35.6638 157.671 35.3189 157.564 35.0436C157.093 33.8485 156.139 29.4025 155.58 28.7395C155.323 28.4347 154.404 28.3251 154.139 28.5122C153.832 28.7261 152.294 34.7816 151.963 35.6932L151.965 35.6986ZM169.346 31.1536C169.56 27.4589 162.176 27.4215 162.165 31.02C162.154 34.0624 168.501 33.4395 168.541 35.2895C168.581 37.1396 165.068 37.1449 164.007 36.3616C163.264 35.8135 163.242 34.5623 161.865 34.8965C161.849 39.0698 169.533 39.0404 169.883 35.5382C170.134 33.0358 166.555 32.8433 164.927 32.2337C161.111 30.8034 165.603 28.1674 167.763 30.2046C168.357 30.7633 168.121 31.437 169.348 31.1536H169.346Z" fill="white"/>
<path d="M97.8303 5.75406C101.052 6.31278 101.474 12.2021 97.6967 12.44C97.2262 12.9746 100.84 17.0621 100.37 17.5166C99.1269 18.7169 96.7771 12.972 96.2264 12.972H92.0827V17.1156C92.0827 17.6182 90.7461 17.6182 90.7461 17.1156V5.75406C92.8794 6.01337 95.804 5.40386 97.8303 5.75406ZM97.2957 6.82338C95.82 6.55338 93.6466 7.02121 92.0827 6.82338V11.6353H97.2957C97.5389 11.6353 98.6083 10.9911 98.7847 10.7184C99.6161 9.44321 98.8489 7.10942 97.2957 6.82338Z" fill="white"/>
<path d="M146.7 11.5121C146.7 14.8457 143.997 17.5458 140.666 17.5458C137.336 17.5458 134.633 14.8431 134.633 11.5121C134.633 8.1812 137.333 5.4785 140.666 5.4785C144 5.4785 146.7 8.1812 146.7 11.5121ZM144.123 7.98605C142.412 6.18158 138.771 6.23772 137.124 8.15447C133.785 12.0361 137.614 17.9815 142.618 16.0567C145.609 14.9072 146.227 10.2049 144.123 7.98605Z" fill="white"/>
<path d="M115.341 13.2405V17.1168C115.341 17.6194 114.004 17.6194 114.004 17.1168V5.75531H120.821C121.401 5.75531 122.762 6.99305 123.032 7.55444C123.657 8.84297 123.537 11.15 122.43 12.1792C122.107 12.4787 120.361 13.2432 120.019 13.2432H115.341V13.2405ZM115.341 11.9039C118.246 11.9894 123.013 12.9732 121.965 8.35108C121.831 7.76296 120.735 6.82463 120.286 6.82463H115.341V11.9039Z" fill="white"/>
<path d="M88.6047 14.044C85.632 20.2861 77.0293 17.8267 77.6468 10.6997C78.1628 4.73286 86.4233 3.73037 88.3828 8.51825C88.5138 8.83637 88.6555 9.13043 88.1983 9.22667C87.2974 9.41915 86.9392 8.22953 86.4393 7.78042C84.1055 5.68723 79.7053 6.73783 79.037 9.95381C78.1762 14.0974 81.1141 17.7224 85.3139 15.9634C86.9178 15.2924 86.8724 13.7499 88.602 14.0413L88.6047 14.044Z" fill="white"/>
<path d="M106.252 12.5728L101.707 5.75861C102.266 5.74257 102.691 5.63563 103.172 6.02861C103.899 6.62208 106.468 11.3672 106.917 11.3672C108.299 10.207 109.422 7.05248 110.663 6.02861C111.101 5.66771 111.911 5.59821 112.395 5.8896C111.93 6.84931 107.583 12.1612 107.583 12.5728V17.1174C107.583 17.62 106.246 17.62 106.246 17.1174V12.5728H106.252Z" fill="white"/>
<path d="M133.788 5.75531C133.948 5.91838 133.665 6.82463 133.387 6.82463H129.511V17.1168C129.511 17.6194 128.174 17.6194 128.174 17.1168V6.82463H124.164V5.75531H133.788Z" fill="white"/>
<path d="M56.5254 36.7687V33.8281H60.669C61.0486 33.8281 61.6982 34.9803 61.6153 35.5524C61.5512 35.9935 60.7251 36.7687 60.4017 36.7687H56.5254Z" fill="white"/>
<path d="M56.5254 32.7591V29.5485C58.1454 29.5886 61.5004 28.9737 61.0727 31.5428C60.8053 33.1441 57.715 32.7137 56.5254 32.7591Z" fill="white"/>
<path d="M66.0537 29.5863C67.6496 29.065 71.8841 29.5863 70.764 32.1526C70.1893 33.4652 66.6605 33.7031 65.8665 33.1738C65.4789 32.9145 65.3559 29.8108 66.0537 29.5836V29.5863Z" fill="white"/>
<path d="M87.5373 34.0947H84.332L85.6714 30.0874C86.2996 30.304 87.7004 33.9423 87.54 34.0947H87.5373Z" fill="white"/>
</svg>
