<svg width="224" height="50" viewBox="0 0 224 50" fill="none" xmlns="http://www.w3.org/2000/svg">
<path d="M135.023 14.7938C135.054 14.7938 135.086 14.7938 135.119 14.7938C135.608 14.7942 136.081 14.8157 136.562 14.9124C136.594 14.9186 136.626 14.9244 136.659 14.9306C138.35 15.2561 139.761 16.102 141.014 17.2479C140.907 17.4219 140.785 17.558 140.638 17.6996C140.485 17.8492 140.338 18.0007 140.199 18.1642C140.102 18.2747 139.995 18.3769 139.89 18.4806C139.795 18.5765 139.708 18.6772 139.621 18.7791C139.52 18.8918 139.412 18.9962 139.305 19.102C139.199 19.2093 139.103 19.3217 139.007 19.4374C138.843 19.3173 138.685 19.1929 138.531 19.0611C137.414 18.1459 135.906 17.769 134.486 17.8762C134.059 17.9208 133.647 18.02 133.241 18.1602C133.218 18.1682 133.194 18.1762 133.17 18.1846C132.653 18.3663 132.196 18.6404 131.782 18.9995C131.738 19.0363 131.738 19.0363 131.692 19.0739C130.634 19.9851 130.111 21.3492 129.969 22.7125C129.875 24.1306 130.148 25.5706 131.082 26.6836C132.003 27.7101 133.214 28.1823 134.573 28.2958C134.653 28.2998 134.731 28.3027 134.811 28.3049C134.853 28.3063 134.895 28.3078 134.939 28.3093C136.154 28.3312 137.316 27.9991 138.27 27.2328C138.35 27.1736 138.35 27.1736 138.423 27.1736C138.423 26.3307 138.423 25.4877 138.423 24.6192C137.123 24.6192 135.822 24.6192 134.482 24.6192C134.482 23.6799 134.482 22.7406 134.482 21.7728C136.746 21.7728 139.01 21.7728 141.343 21.7728C141.359 23.4077 141.359 23.4077 141.377 25.0754C141.382 25.4187 141.387 25.7621 141.392 26.1157C141.394 26.5369 141.394 26.5369 141.395 26.7346C141.396 26.8719 141.397 27.0091 141.4 27.1459C141.427 28.4249 141.427 28.4249 141.152 28.7537C141.061 28.8428 140.967 28.9194 140.861 28.9902C140.768 29.0537 140.69 29.1311 140.611 29.2103C138.761 30.8159 136.57 31.3881 134.145 31.2235C132.415 31.0987 130.692 30.5619 129.373 29.3996C129.32 29.3529 129.32 29.3529 129.266 29.3055C127.95 28.137 127.182 26.4942 126.928 24.7652C126.919 24.7002 126.919 24.7002 126.909 24.6342C126.846 24.185 126.842 23.7379 126.844 23.2851C126.844 23.246 126.844 23.2073 126.844 23.1676C126.846 22.6096 126.859 22.0666 126.965 21.5174C126.971 21.4849 126.976 21.4525 126.982 21.4189C127.225 20.0435 127.786 18.6918 128.68 17.6128C128.698 17.5912 128.715 17.5697 128.734 17.5478C129.064 17.1515 129.405 16.8012 129.811 16.4815C129.844 16.4553 129.877 16.429 129.911 16.402C131.374 15.2664 133.193 14.7952 135.023 14.7938Z" fill="#FEFEFE"/>
<path d="M163.054 19.6471C163.079 19.6471 163.103 19.6471 163.129 19.6471C164.668 19.6552 166.086 20.2237 167.173 21.3198C168.301 22.4955 168.731 24.089 168.715 25.6821C168.701 26.3039 168.604 26.911 168.416 27.5036C168.406 27.5321 168.398 27.5606 168.388 27.5901C168.192 28.1955 167.903 28.7581 167.503 29.2551C167.488 29.2748 167.472 29.2942 167.456 29.3142C166.575 30.4173 165.3 31.042 163.91 31.2157C162.592 31.3605 161.114 31.1978 160.023 30.3863C159.903 30.2779 159.782 30.1695 159.658 30.0579C159.646 31.7557 159.634 33.4536 159.622 35.2029C158.646 35.2029 157.671 35.2029 156.666 35.2029C156.666 30.1455 156.666 25.088 156.666 19.8774C157.581 19.8774 158.496 19.8774 159.439 19.8774C159.487 20.2507 159.536 20.6239 159.585 21.0085C159.597 21.0326 159.609 21.0567 159.622 21.0815C159.644 21.0523 159.665 21.0228 159.688 20.9925C160.175 20.4127 160.938 20.0368 161.651 19.8296C161.682 19.8205 161.712 19.8117 161.743 19.8026C162.178 19.6833 162.604 19.6449 163.054 19.6471ZM161.41 22.7965C161.359 22.8195 161.359 22.8195 161.306 22.8429C160.659 23.1636 160.22 23.7679 159.987 24.4385C159.741 25.2683 159.798 26.1426 160.201 26.9154C160.616 27.6295 161.218 28.0685 162 28.3049C162.813 28.5129 163.636 28.3688 164.365 27.9736C165.033 27.5697 165.45 26.941 165.651 26.1948C165.855 25.3588 165.712 24.5141 165.277 23.7817C164.877 23.1381 164.282 22.7681 163.562 22.5776C162.836 22.4101 162.088 22.49 161.41 22.7965Z" fill="#FEFEFE"/>
<path d="M90.9099 15.098C90.9422 15.1034 90.9745 15.1086 91.0078 15.114C92.1481 15.3096 93.2363 15.7238 94.1942 16.3752C94.2159 16.3898 94.2376 16.4044 94.26 16.4193C94.5993 16.6489 94.9097 16.9065 95.2159 17.178C95.2506 17.2087 95.2853 17.2393 95.321 17.2707C95.3957 17.3367 95.4702 17.4032 95.5444 17.4699C95.4964 17.5758 95.4451 17.6513 95.3627 17.733C95.3305 17.7652 95.3305 17.7652 95.2976 17.798C95.264 17.8308 95.264 17.8308 95.2296 17.8644C95.1972 17.8969 95.1972 17.8969 95.1642 17.9297C95.0551 18.0378 94.9442 18.1418 94.8273 18.2414C94.6045 18.4341 94.4011 18.6472 94.1942 18.8566C93.6796 19.3774 93.6796 19.3774 93.4278 19.5865C93.2943 19.5233 93.1972 19.4445 93.0857 19.3471C92.4533 18.8103 91.7117 18.4716 90.9099 18.2728C90.8846 18.2662 90.8594 18.2596 90.8333 18.2531C89.5057 17.9268 87.9558 18.1954 86.79 18.8818C86.5935 19.0041 86.4154 19.1449 86.2389 19.2945C86.1942 19.331 86.1942 19.331 86.1485 19.3682C85.2089 20.1608 84.6888 21.4683 84.5669 22.6682C84.4675 24.068 84.723 25.5116 85.629 26.6221C85.7084 26.7122 85.7903 26.7987 85.874 26.8848C85.9148 26.9297 85.9148 26.9297 85.9564 26.9753C86.8304 27.9055 88.1772 28.2584 89.4137 28.308C89.4455 28.3095 89.4772 28.3109 89.51 28.3124C90.8611 28.3456 92.2556 27.83 93.2819 26.9578C93.308 26.9356 93.3342 26.9137 93.3611 26.8907C93.4201 26.8407 93.4788 26.7896 93.5373 26.7389C93.6863 26.798 93.7856 26.9045 93.8954 27.0169C93.9135 27.0352 93.9316 27.0534 93.9502 27.072C94.048 27.1709 94.141 27.2724 94.2311 27.3782C94.4366 27.6154 94.6645 27.8322 94.8875 28.0526C95.6551 28.812 95.6551 28.812 95.6903 29.0014C95.0028 29.6622 94.2222 30.2081 93.3548 30.607C93.313 30.6263 93.2712 30.6457 93.2281 30.6658C92.2286 31.111 91.1269 31.343 90.0341 31.3733C89.9924 31.3744 89.9924 31.3744 89.9499 31.3759C87.7768 31.4281 85.4844 30.8982 83.8653 29.3688C83.8041 29.3079 83.7441 29.2462 83.6845 29.1838C83.6544 29.1535 83.6243 29.1236 83.5933 29.0926C83.5632 29.0623 83.5331 29.0324 83.5021 29.0014C83.4838 28.9846 83.4656 28.9674 83.4469 28.9499C83.087 28.608 82.8081 28.1843 82.5533 27.7606C82.5384 27.7358 82.5235 27.7114 82.5082 27.6858C81.9853 26.8067 81.6829 25.8423 81.495 24.8413C81.4859 24.7946 81.4859 24.7946 81.4766 24.7468C81.2908 23.7578 81.2973 22.6164 81.495 21.63C81.5022 21.5928 81.5095 21.5556 81.517 21.5172C81.9349 19.4285 83.0389 17.552 84.8197 16.3471C85.0081 16.2245 85.205 16.1165 85.4033 16.0106C85.4663 15.9771 85.5287 15.9428 85.5911 15.9081C87.1423 15.0823 89.1813 14.8126 90.9099 15.098Z" fill="#FEFEFE"/>
<path d="M151.43 20.6702C151.55 20.7786 151.639 20.8808 151.742 21.01C151.778 20.6367 151.814 20.2634 151.851 19.8788C152.791 19.8788 153.73 19.8788 154.698 19.8788C154.698 23.5514 154.698 27.2241 154.698 31.008C153.782 31.008 152.867 31.008 151.924 31.008C151.845 30.611 151.846 30.2071 151.851 29.8039C151.818 29.8302 151.785 29.8564 151.751 29.8838C151.723 29.906 151.723 29.906 151.694 29.9287C151.628 29.9871 151.628 29.9871 151.569 30.071C150.987 30.7654 149.978 31.1131 149.115 31.2634C149.078 31.27 149.041 31.277 149.003 31.2839C147.556 31.4455 145.907 31.1306 144.739 30.2242C144.587 30.1016 144.442 29.9728 144.298 29.8404C144.27 29.8152 144.243 29.7904 144.214 29.7645C143.163 28.7658 142.7 27.2325 142.652 25.816C142.623 24.0601 142.972 22.4374 144.211 21.13C145.999 19.3008 149.466 18.9487 151.43 20.6702ZM146.706 22.9439C146.668 22.972 146.668 22.972 146.628 23.0008C146.055 23.4558 145.751 24.2075 145.648 24.9143C145.587 25.971 145.737 26.8734 146.436 27.7021C146.913 28.217 147.613 28.5574 148.314 28.6078C149.183 28.6384 149.966 28.5227 150.647 27.9429C150.667 27.9283 150.688 27.9137 150.709 27.8988C151.281 27.4646 151.57 26.6789 151.69 25.9973C151.802 25.0052 151.576 24.1086 150.971 23.3168C150.458 22.7053 149.709 22.4082 148.93 22.3349C148.116 22.2703 147.364 22.4593 146.706 22.9439Z" fill="#FEFEFE"/>
<path d="M179.808 20.8764C179.868 20.9315 179.927 20.987 179.986 21.0428C180.028 21.0804 180.028 21.0804 180.069 21.1187C181.128 22.1218 181.517 23.6872 181.559 25.0993C181.58 26.2604 181.58 26.2604 181.482 26.5527C178.689 26.5527 175.895 26.5527 173.017 26.5527C173.306 27.3219 173.625 27.8415 174.366 28.1925C175.508 28.6873 176.775 28.6027 177.918 28.1619C178.301 28.0057 178.61 27.801 178.928 27.5379C178.964 27.5138 179 27.4897 179.038 27.4649C179.664 28.0911 180.29 28.7172 180.935 29.3624C179.992 30.4625 178.646 30.973 177.25 31.2233C177.21 31.2306 177.21 31.2306 177.17 31.2383C175.849 31.4729 174.347 31.2883 173.126 30.749C173.102 30.738 173.077 30.7271 173.051 30.7161C171.789 30.152 170.862 29.1044 170.353 27.8298C169.764 26.2009 169.775 24.2798 170.497 22.6943C170.694 22.2787 170.932 21.9047 171.229 21.5537C171.245 21.5351 171.26 21.5164 171.276 21.4971C172.289 20.3134 173.74 19.7179 175.273 19.5946C176.881 19.4866 178.57 19.7836 179.808 20.8764ZM173.597 23.1508C173.41 23.3705 173.126 23.7361 173.126 24.0349C174.921 24.0349 176.715 24.0349 178.563 24.0349C178.414 23.4361 178.161 22.9399 177.615 22.6119C176.322 21.9277 174.632 22.0871 173.597 23.1508Z" fill="#FEFEFE"/>
<path d="M104.559 20.2433C104.582 20.2546 104.606 20.2659 104.63 20.2779C105.112 20.5148 105.519 20.8231 105.909 21.192C105.941 21.2219 105.974 21.2518 106.007 21.2825C107.029 22.2611 107.619 23.7265 107.661 25.1328C107.661 25.1558 107.662 25.1788 107.663 25.2029C107.708 26.7895 107.248 28.368 106.145 29.5404C105.02 30.7121 103.55 31.2276 101.94 31.2652C100.321 31.278 98.8744 30.7744 97.6991 29.6575C97.6759 29.6367 97.6528 29.6159 97.629 29.5944C96.5957 28.6351 96.1664 27.1018 96.1004 25.7418C96.0409 24.0995 96.5462 22.5421 97.6636 21.3252C98.433 20.5144 99.4243 20.0127 100.509 19.7689C100.548 19.7598 100.548 19.7598 100.588 19.7507C101.901 19.4682 103.359 19.6529 104.559 20.2433ZM100.034 23.053C99.9858 23.0982 99.9858 23.0982 99.9363 23.1442C99.9085 23.1745 99.8806 23.2044 99.8519 23.2354C99.833 23.2544 99.8141 23.2737 99.7946 23.2934C99.2383 23.8835 98.9948 24.7409 99.0073 25.539C99.053 26.4235 99.3344 27.2361 99.9888 27.8582C100.645 28.4238 101.42 28.5384 102.26 28.4899C102.955 28.4125 103.551 28.0604 104.006 27.5346C104.565 26.8062 104.768 25.8717 104.657 24.9679C104.53 24.171 104.132 23.4014 103.472 22.9176C102.449 22.2013 100.976 22.1747 100.034 23.053Z" fill="#FEFEFE"/>
<path d="M123.418 20.7601C124.445 21.6493 124.958 22.8535 125.141 24.1831C125.144 24.208 125.148 24.2324 125.151 24.258C125.187 24.5674 125.182 24.8779 125.181 25.1892C125.181 25.2534 125.181 25.318 125.181 25.3822C125.181 25.5562 125.181 25.7299 125.181 25.904C125.181 26.0861 125.181 26.2681 125.181 26.4502C125.181 26.7947 125.18 27.1391 125.18 27.4832C125.179 27.9488 125.179 28.4148 125.179 28.8804C125.179 29.6135 125.178 30.3465 125.177 31.0796C124.214 31.0796 123.251 31.0796 122.258 31.0796C122.257 30.3995 122.257 30.3995 122.255 29.7058C122.254 29.4179 122.253 29.1296 122.252 28.8417C122.25 28.3852 122.249 27.9284 122.248 27.4719C122.248 27.1391 122.247 26.8064 122.245 26.4736C122.244 26.2977 122.244 26.1218 122.244 25.9459C122.244 25.7799 122.243 25.6139 122.242 25.4479C122.242 25.3873 122.242 25.3267 122.242 25.2665C122.244 24.4378 122.05 23.6705 121.489 23.0392C121 22.5685 120.311 22.4098 119.652 22.4218C119.029 22.4481 118.43 22.7254 117.989 23.1614C117.374 23.8478 117.219 24.6768 117.215 25.5716C117.215 25.631 117.215 25.6905 117.214 25.7496C117.213 25.9102 117.212 26.0707 117.212 26.2313C117.211 26.3991 117.21 26.5674 117.209 26.7352C117.207 27.053 117.205 27.3709 117.204 27.6883C117.201 28.1182 117.199 28.5476 117.197 28.9771C117.193 29.6536 117.19 30.3301 117.186 31.0066C116.211 31.0066 115.235 31.0066 114.23 31.0066C114.23 27.334 114.23 23.6614 114.23 19.8774C115.109 19.8774 115.989 19.8774 116.894 19.8774C116.942 20.2507 116.991 20.624 117.04 21.0086C117.058 21.0808 117.058 21.0808 117.077 21.1545C117.1 21.1319 117.124 21.1093 117.148 21.0863C117.4 20.8495 117.663 20.6503 117.952 20.4612C117.995 20.4321 117.995 20.432 118.038 20.4025C119.621 19.3684 121.985 19.5574 123.418 20.7601Z" fill="#FEFEFE"/>
<path d="M109.191 19.8036C110.167 19.8036 111.142 19.8036 112.147 19.8036C112.147 23.4883 112.147 27.173 112.147 30.9693C111.172 30.9693 110.196 30.9693 109.191 30.9693C109.191 27.2846 109.191 23.5999 109.191 19.8036Z" fill="#FEFEFE"/>
<path d="M111.685 15.5426C112.087 15.8491 112.328 16.2246 112.396 16.7289C112.435 17.3094 112.312 17.775 111.947 18.2323C111.707 18.499 111.326 18.6847 110.969 18.7183C110.397 18.7446 109.935 18.6913 109.485 18.3089C109.203 18.0516 108.998 17.7006 108.967 17.3135C108.952 16.6826 108.993 16.1983 109.444 15.7181C110.034 15.165 111.013 15.1044 111.685 15.5426Z" fill="#FEFEFE"/>
<path d="M57.9621 8.74827C57.1523 8.79621 56.6656 8.84595 56.1328 8.93299C56.0741 8.94185 55.9746 8.95785 55.9108 8.9685C55.3851 9.05021 54.5893 9.23848 53.9925 9.41786C53.6799 9.51377 53.4579 9.58304 53.3797 9.61324C53.3407 9.62744 53.2483 9.6612 53.1754 9.68783C53.0529 9.73223 52.7173 9.85835 52.6338 9.8921C52.4793 9.95426 51.9855 10.1674 51.8701 10.2207C51.6995 10.2988 50.9536 10.6718 50.9287 10.6914C50.9199 10.6985 50.8665 10.7286 50.8133 10.7571C49.1347 11.6718 47.4687 13.043 46.2326 14.5278C46.1313 14.6504 46.0319 14.7694 46.0106 14.7942C45.8187 15.0198 45.4014 15.5917 45.1243 16.0109C44.8063 16.4904 44.6003 16.8332 44.3357 17.3252C44.2486 17.4868 43.8863 18.2168 43.8863 18.2311C43.8863 18.2346 43.8543 18.3057 43.8153 18.3891C43.7762 18.4726 43.7442 18.5454 43.7442 18.5507C43.7442 18.5543 43.7211 18.6094 43.6945 18.6698C43.6661 18.7319 43.5968 18.9007 43.5417 19.0481C43.4849 19.1937 43.4334 19.3305 43.4245 19.35C43.4174 19.3696 43.4014 19.414 43.389 19.4477C43.3766 19.4815 43.3606 19.5259 43.3535 19.5454C43.3268 19.6058 43.1829 20.0516 43.1243 20.247C43.0941 20.35 43.0604 20.4566 43.0515 20.4868C43.016 20.6022 42.8615 21.1972 42.8366 21.3215C42.8259 21.3694 42.81 21.4423 42.8011 21.4815C42.7922 21.5205 42.778 21.588 42.7691 21.6324C42.7602 21.6767 42.7425 21.7726 42.7265 21.8455C42.6412 22.2646 42.5915 22.5861 42.5187 23.1954C42.5098 23.2682 42.4938 23.4404 42.4832 23.5773C42.4725 23.714 42.4565 23.9129 42.4476 24.0195C42.4263 24.2645 42.4263 25.721 42.4476 25.9573C42.4565 26.0548 42.4725 26.2502 42.4832 26.3924C42.4938 26.5345 42.5098 26.7139 42.5205 26.7921C42.5791 27.284 42.5737 27.252 42.6412 27.6623C42.6785 27.8879 42.7212 28.1205 42.7514 28.2663C42.8046 28.5237 42.913 28.9874 42.9645 29.172C42.984 29.2395 43.0071 29.3248 43.016 29.3585C43.0977 29.664 43.3552 30.4686 43.4245 30.6284C43.4316 30.6481 43.4813 30.7724 43.5329 30.9038C43.5826 31.0351 43.6448 31.1862 43.6661 31.2376C43.6892 31.2892 43.7087 31.3353 43.7087 31.3389C43.7087 31.3424 43.7282 31.3887 43.7513 31.4401C43.7744 31.4917 43.8188 31.5947 43.8508 31.6674C43.9787 31.9623 44.3303 32.6551 44.508 32.9659C45.1047 34.0067 45.7743 34.9409 46.5398 35.8059C46.8613 36.1683 47.5682 36.8697 47.9359 37.1914C48.8044 37.9515 49.8133 38.6673 50.7245 39.1682C50.7777 39.1984 50.847 39.2356 50.8754 39.2533C50.9855 39.3191 51.5912 39.6246 51.8078 39.7259C52.0655 39.8448 52.1329 39.875 52.2394 39.9195C52.2999 39.9443 52.3923 39.9851 52.4437 40.0083C52.4953 40.0314 52.5431 40.0509 52.5502 40.0509C52.5591 40.0509 52.5983 40.0668 52.6391 40.0863C52.6783 40.106 52.7226 40.122 52.7368 40.122C52.7492 40.122 52.7669 40.1273 52.774 40.1344C52.7793 40.1415 52.8114 40.1557 52.8433 40.1681C53.3903 40.3688 53.9019 40.5394 54.1967 40.6193C54.4632 40.692 54.7918 40.7773 54.8718 40.795C54.9108 40.8039 55.0546 40.836 55.1915 40.8661C55.3282 40.8963 55.4846 40.9301 55.5378 40.9408C55.5911 40.9514 55.655 40.9638 55.6798 40.9692C55.7597 40.9851 56.0865 41.0385 56.2482 41.0615C56.4525 41.0899 56.7686 41.1325 56.8699 41.1415C57.2713 41.1841 57.5786 41.2071 57.8378 41.216C58.0049 41.2213 58.1557 41.2337 58.1753 41.2428C58.1967 41.2534 58.4045 41.2569 58.6903 41.2516C59.598 41.2373 60.4718 41.1663 61.2035 41.0456C61.2569 41.0367 61.3617 41.0206 61.4346 41.0099C61.5073 40.9993 61.5997 40.9833 61.6388 40.9745C61.6778 40.9656 61.7543 40.9514 61.8075 40.9408C62.0135 40.9016 62.4132 40.8128 62.6779 40.7454C63.0649 40.6459 63.1361 40.6264 63.3972 40.5465C63.5251 40.5055 63.676 40.4594 63.7347 40.4417C64.1432 40.3156 64.818 40.0544 65.2976 39.8377C65.3562 39.8111 65.4397 39.7755 65.4842 39.756C65.5783 39.717 66.4237 39.2925 66.4521 39.2712C66.461 39.2622 66.5144 39.232 66.5675 39.2037C66.7113 39.1255 66.8961 39.0171 67.2282 38.8164C67.4486 38.685 67.9974 38.312 68.2993 38.0918C69.9742 36.8644 71.4395 35.2748 72.5318 33.4969C72.9243 32.8575 73.3275 32.0866 73.5922 31.4632C73.6047 31.433 73.6295 31.3745 73.649 31.33C73.6685 31.2857 73.7307 31.1346 73.7857 30.9926C73.9226 30.6534 73.9137 30.6729 73.9385 30.6018C73.9509 30.5681 73.9669 30.5236 73.9758 30.5041C73.9953 30.4545 74.2139 29.7936 74.2405 29.6959C74.2529 29.6516 74.2689 29.5966 74.2777 29.5716C74.2866 29.5468 74.3043 29.4828 74.3187 29.4296C74.3329 29.3762 74.3577 29.284 74.3737 29.2253C74.4288 29.0211 74.5086 28.7102 74.5229 28.6391C74.569 28.426 74.6526 28.0051 74.6668 27.9288C74.7804 27.2786 74.8426 26.7956 74.8799 26.2859C74.8887 26.1437 74.9047 25.9164 74.9153 25.7797C74.9386 25.4476 74.9386 24.508 74.9153 24.1989C74.9065 24.062 74.8887 23.8347 74.8799 23.6927C74.8621 23.4475 74.8497 23.3143 74.807 22.9556C74.7875 22.7921 74.6792 22.0958 74.6508 21.952C74.6419 21.9077 74.626 21.8242 74.6134 21.7655C74.5708 21.5488 74.5283 21.3605 74.4589 21.0818C74.3772 20.7568 74.3347 20.604 74.2831 20.4246C74.2582 20.3411 74.2316 20.2487 74.2245 20.2203C74.2086 20.1564 73.9972 19.5241 73.9758 19.4743C73.9669 19.4548 73.9509 19.4104 73.9385 19.3767C73.9261 19.3429 73.9102 19.2985 73.9031 19.279C73.896 19.2594 73.8515 19.1475 73.8054 19.0303C73.7591 18.9131 73.7077 18.7834 73.6882 18.7426C73.6703 18.7 73.6543 18.6627 73.6543 18.6573C73.6543 18.6538 73.6348 18.6058 73.61 18.5507C73.5852 18.4975 73.546 18.4087 73.5211 18.3554C73.4963 18.3003 73.4766 18.2541 73.4766 18.2488C73.4766 18.2346 73.1215 17.517 73.038 17.3607C72.8764 17.0623 72.7449 16.8279 72.7112 16.7799C72.6917 16.7551 72.6775 16.7302 72.6775 16.7249C72.6775 16.7107 72.4591 16.3572 72.3596 16.2098C72.3133 16.1388 72.2707 16.073 72.2672 16.0642C72.2566 16.0393 71.9883 15.645 71.8587 15.4692C71.0274 14.3236 69.9795 13.2188 68.8942 12.3414C68.3188 11.8743 67.461 11.2828 66.8926 10.956C66.8606 10.9365 66.8037 10.9045 66.7683 10.8849C66.731 10.8636 66.6564 10.8228 66.603 10.7926C66.5498 10.7642 66.4982 10.734 66.4876 10.7269C66.4787 10.7198 66.3065 10.6292 66.1058 10.5262C65.184 10.0519 64.207 9.6612 63.2462 9.38589C63.0953 9.34149 62.9477 9.29887 62.9176 9.28999C62.8678 9.27578 62.5802 9.20296 62.3048 9.139C62.1486 9.10172 61.7667 9.02178 61.6566 9.00402C61.6085 8.99693 61.5002 8.97739 61.4168 8.96318C61.3333 8.94896 61.2018 8.92765 61.1238 8.91699C61.0456 8.90456 60.9337 8.88857 60.875 8.87971C60.8165 8.87082 60.6851 8.85483 60.5821 8.84417C60.479 8.83352 60.3244 8.81754 60.2356 8.80688C59.8466 8.76603 59.5483 8.75358 58.8325 8.74827C58.4134 8.74472 58.0208 8.74472 57.9621 8.74827ZM59.3031 9.97203C59.5909 9.98623 59.8751 10.0022 59.9336 10.0075C59.9923 10.0129 60.1237 10.0253 60.2267 10.036C60.7135 10.0804 61.5234 10.2082 61.9052 10.3006C61.9443 10.3095 62.0295 10.329 62.097 10.345C63.0259 10.5564 63.9336 10.8619 64.8625 11.2722C65.0134 11.3396 65.7523 11.7055 65.8482 11.7606C65.9069 11.7943 65.9993 11.8476 66.0525 11.876C66.7754 12.2703 67.6438 12.8707 68.3791 13.487C69.9458 14.7996 71.2636 16.4727 72.1695 18.3021C72.3027 18.5703 72.4644 18.9131 72.4644 18.9255C72.4644 18.9291 72.4874 18.9824 72.5158 19.0428C72.5426 19.1049 72.6117 19.2701 72.6686 19.4122C72.7236 19.5543 72.777 19.6857 72.7841 19.7052C72.8319 19.8225 72.8711 19.9397 72.9795 20.2647C73.0451 20.4655 73.1091 20.6644 73.1215 20.7087C73.1339 20.7533 73.1499 20.8082 73.157 20.833C73.2938 21.2772 73.4678 22.0568 73.5495 22.5826C73.5584 22.6413 73.5761 22.7673 73.5922 22.8632C73.6882 23.4955 73.7431 24.2787 73.7431 25.016C73.7431 25.9376 73.6667 26.776 73.4963 27.7423C73.4642 27.9216 73.4394 28.0425 73.3701 28.364C73.3523 28.451 73.2653 28.7902 73.2192 28.9588C73.1428 29.2324 73.1392 29.2484 73.0896 29.4119C73.0273 29.6179 72.8319 30.1933 72.7841 30.3087C72.777 30.3284 72.7236 30.4598 72.6686 30.6018C72.4431 31.1703 72.1002 31.8861 71.825 32.3691C71.8018 32.4082 71.7752 32.4561 71.7645 32.4756C71.4608 33.0226 70.8764 33.8789 70.4235 34.4383C69.6207 35.4312 68.6492 36.3637 67.66 37.0937C67.5426 37.1806 67.4183 37.2712 67.3846 37.2979C67.2958 37.3653 66.7131 37.7472 66.5232 37.8627C66.3473 37.9692 66.3349 37.9763 66.0791 38.1239C65.8748 38.2411 65.2159 38.5785 65.0311 38.6602C64.9638 38.6921 64.8428 38.7455 64.7648 38.781C64.2391 39.0225 63.2089 39.3867 62.5979 39.5464C62.5002 39.5712 62.3919 39.5998 62.3582 39.6087C62.3243 39.6175 62.264 39.6317 62.2249 39.6406C62.1858 39.6494 62.058 39.6778 61.9408 39.7028C61.5997 39.779 61.1947 39.8537 60.9372 39.8893C60.8643 39.9 60.7489 39.9159 60.6796 39.9266C60.4594 39.9567 59.9569 40.0048 59.5608 40.0331C59.2161 40.0562 58.1788 40.0562 57.8467 40.0331C57.2873 39.9922 56.7064 39.9337 56.4525 39.8911C55.5289 39.7365 55.0599 39.6299 54.2767 39.3973C53.9712 39.3049 53.1701 39.0189 52.9517 38.923C52.918 38.9088 52.8646 38.8858 52.8345 38.8716C51.6658 38.3778 50.5344 37.7153 49.5078 36.9267C47.7175 35.5502 46.1811 33.6746 45.1989 31.6674C45.0834 31.433 44.9342 31.1169 44.9342 31.108C44.9342 31.1027 44.9147 31.0584 44.8916 31.0068C44.6731 30.5272 44.3517 29.6214 44.1971 29.0477C44.0781 28.6055 43.9556 28.0904 43.9218 27.8843C43.9147 27.84 43.8881 27.6889 43.8632 27.5469C43.8383 27.4047 43.8099 27.2166 43.7975 27.1295C43.7868 27.0407 43.7709 26.9253 43.762 26.8719C43.7478 26.7831 43.7229 26.5345 43.6732 25.9465C43.6501 25.6731 43.6501 24.325 43.6732 24.0567C43.73 23.4138 43.7478 23.229 43.762 23.1331C43.7709 23.0746 43.7868 22.9627 43.7975 22.8845C43.8934 22.1989 44.0337 21.5329 44.2255 20.8598C44.3676 20.3606 44.6571 19.5347 44.7921 19.2399C44.8117 19.1973 44.8276 19.16 44.8276 19.1546C44.8276 19.128 45.1332 18.4708 45.2681 18.2044C46.3871 16.0127 47.9785 14.1655 49.9874 12.7304C50.323 12.4906 50.9447 12.0945 51.2413 11.9293C51.5734 11.7446 51.6747 11.6913 51.941 11.5563C52.3869 11.3325 52.6444 11.2171 53.1222 11.0253C53.4774 10.8832 53.893 10.7304 54.037 10.6914C54.0671 10.6843 54.2109 10.6399 54.3567 10.5954C54.504 10.5493 54.767 10.4764 54.9427 10.432C55.1186 10.3876 55.2909 10.345 55.3246 10.3343C55.5129 10.2828 56.3725 10.1301 56.7633 10.0804C57.1468 10.0306 57.63 9.99155 58.202 9.96492C58.6496 9.94361 58.7384 9.94361 59.3031 9.97203Z" fill="white"/>
<path d="M57.8265 10.8629C57.7731 10.8718 57.6701 10.8771 57.5992 10.8789C57.5281 10.8806 57.4162 10.8878 57.3504 10.8984C57.2848 10.9073 57.1195 10.9286 56.9828 10.9428C56.7146 10.9748 55.9349 11.1009 55.7395 11.1453C55.7005 11.1542 55.6294 11.1702 55.5796 11.179C55.4429 11.2075 54.7964 11.378 54.6597 11.4206C54.6187 11.433 54.5494 11.4543 54.5051 11.4668C54.3436 11.513 54.0166 11.6249 53.6384 11.7634C53.5886 11.7829 53.5407 11.8042 53.5336 11.8096C53.5283 11.8167 53.5123 11.822 53.4997 11.822C53.4855 11.822 53.4324 11.8415 53.379 11.8664C53.3258 11.8913 53.2777 11.9108 53.2724 11.9108C53.2671 11.9108 53.221 11.9303 53.1694 11.9534C53.0522 12.0067 52.9155 12.0671 52.8355 12.1008C52.7041 12.1577 52.0914 12.4632 51.9474 12.5431C51.864 12.5893 51.7646 12.6444 51.7254 12.6639C51.6864 12.6852 51.5568 12.7616 51.436 12.8344C51.3169 12.9072 51.2032 12.9747 51.1872 12.9854C51.1411 13.0102 50.7362 13.2802 50.5798 13.3886C50.3205 13.5662 49.8391 13.9338 49.6384 14.1043C49.2069 14.472 48.9884 14.6727 48.6528 15.0102C48.1519 15.511 47.6776 16.067 47.2389 16.662C47.1518 16.7792 46.6031 17.6051 46.5498 17.701C46.5356 17.7259 46.4557 17.8609 46.3739 18.003C46.1803 18.3386 45.8162 19.0686 45.6866 19.3795C45.6741 19.4079 45.6475 19.4683 45.6297 19.5127C45.6102 19.5571 45.548 19.7116 45.493 19.859C45.4362 20.0047 45.3829 20.1414 45.374 20.161C45.3562 20.2018 45.1466 20.8465 45.0934 21.0312C45.0561 21.1555 45.0347 21.2337 44.9992 21.3687C44.9886 21.4079 44.9743 21.4593 44.9673 21.4841C44.9601 21.5091 44.9459 21.5676 44.9353 21.6174C44.9246 21.6653 44.898 21.7825 44.8784 21.8749C44.8109 22.168 44.7932 22.2533 44.7719 22.3722C44.7612 22.4363 44.7452 22.5231 44.7363 22.5676C44.7275 22.612 44.7115 22.7114 44.7008 22.7896C44.6902 22.8678 44.6742 22.9833 44.6653 23.0471C44.6227 23.3384 44.5943 23.6173 44.557 24.0952C44.5339 24.3916 44.5463 25.8073 44.5747 26.1465C44.6387 26.9174 44.7754 27.7664 44.9335 28.3668C44.9566 28.4537 44.9761 28.5336 45.0028 28.6508C45.0152 28.6989 45.0294 28.7592 45.0383 28.7842C45.0454 28.809 45.0614 28.864 45.0738 28.9085C45.0862 28.9528 45.1022 29.0079 45.1093 29.0328C45.1182 29.0576 45.1537 29.173 45.1893 29.2904C45.2266 29.4076 45.2621 29.5195 45.271 29.539C45.2781 29.5585 45.2976 29.6101 45.3118 29.6544C45.3811 29.8622 45.5534 30.3151 45.6351 30.5016C45.6493 30.5335 45.6706 30.5869 45.6848 30.617C45.7079 30.6739 45.7256 30.7094 45.8624 31.0131C45.9299 31.1587 46.1075 31.514 46.1928 31.6702C46.2194 31.7183 46.2727 31.8142 46.31 31.8834C46.3455 31.9509 46.4201 32.0788 46.4716 32.1658C46.5231 32.2529 46.5658 32.3275 46.5658 32.3311C46.5658 32.3524 47.1625 33.235 47.3118 33.4375C47.6811 33.9331 47.9724 34.2776 48.4093 34.7342C49.0221 35.3736 49.6012 35.894 50.1801 36.322C50.5443 36.592 50.5674 36.608 50.722 36.7146C50.9048 36.8371 51.3951 37.1497 51.4075 37.1497C51.4128 37.1497 51.452 37.1727 51.4945 37.2031C51.5373 37.2314 51.5763 37.2562 51.5816 37.2562C51.5869 37.2562 51.658 37.2953 51.7396 37.3451C51.8924 37.4339 52.5869 37.7891 52.8107 37.8903C53.015 37.9827 53.4394 38.1621 53.4536 38.1621C53.4625 38.1621 53.5015 38.1781 53.5425 38.1976C53.5815 38.2171 53.6242 38.2331 53.6348 38.2331C53.6437 38.2331 53.6668 38.2403 53.6845 38.251C53.7485 38.2864 54.2173 38.4446 54.6916 38.5902C54.7359 38.6043 55.0184 38.6808 55.2688 38.7464C55.3274 38.7625 55.4092 38.782 55.576 38.8175C55.617 38.8263 55.6862 38.8423 55.7307 38.8512C55.8 38.8673 55.8886 38.885 56.0645 38.9187C56.9864 39.0964 57.9064 39.1691 59.0164 39.1496C59.3434 39.1443 59.7038 39.1301 59.8157 39.1212C60.1655 39.0875 60.3716 39.068 60.4907 39.0501C60.7606 39.0129 61.0023 38.9756 61.0767 38.9613C61.1213 38.9524 61.2083 38.9364 61.2721 38.9258C61.5404 38.8797 61.7784 38.8317 61.9649 38.7838C61.9986 38.7749 62.1105 38.7464 62.2135 38.7215C62.3841 38.679 62.6931 38.5937 62.8263 38.5511C62.9756 38.5049 63.3378 38.3859 63.4479 38.3469C63.638 38.2776 63.7641 38.2313 63.8086 38.2136C63.8299 38.2047 63.8671 38.1887 63.8919 38.1799C63.9169 38.1692 63.9542 38.155 63.9772 38.1462C64.0394 38.1212 64.3627 37.9845 64.4515 37.9455C64.7818 37.7997 65.3946 37.4907 65.6379 37.3469C65.6895 37.3167 65.7338 37.2917 65.7374 37.2917C65.7533 37.2917 66.304 36.9507 66.4851 36.8318C66.7463 36.6576 66.9984 36.4819 67.1067 36.3984C67.1566 36.361 67.256 36.2848 67.3287 36.2296C67.4904 36.1089 67.9007 35.7697 68.1192 35.5778C68.2789 35.4376 69.0428 34.6808 69.1937 34.5122C69.913 33.7146 70.6129 32.7378 71.0764 31.8834C71.1031 31.8337 71.1581 31.7343 71.1991 31.6614C71.3287 31.4234 71.6182 30.8213 71.7142 30.5869C71.7514 30.498 71.7673 30.4573 71.7939 30.3968C71.9557 30.031 72.2255 29.2352 72.3571 28.7485C72.3677 28.7042 72.3855 28.6437 72.3925 28.6154C72.4085 28.5602 72.4991 28.182 72.5417 27.9937C72.5738 27.8446 72.6181 27.6171 72.6573 27.3845C72.7087 27.0754 72.7105 27.0541 72.7638 26.6172C72.8722 25.7326 72.8793 24.4982 72.7816 23.5533C72.7495 23.2354 72.7353 23.1235 72.675 22.7274C72.652 22.5747 72.6145 22.3598 72.5684 22.1325C72.5613 22.0933 72.5328 21.969 72.5062 21.8572C72.4796 21.7453 72.4512 21.6245 72.4441 21.5907C72.4351 21.557 72.4121 21.4646 72.3908 21.3866C72.3695 21.3084 72.3464 21.216 72.3376 21.1823C72.309 21.0703 72.2895 20.9993 72.2255 20.8004C72.1065 20.4273 72.0693 20.3208 72.0534 20.2906C72.0427 20.2729 72.0356 20.2462 72.0356 20.232C72.0356 20.2178 72.0285 20.1912 72.0195 20.1734C72.0106 20.1574 71.9574 20.0224 71.9005 19.8768C71.8455 19.7294 71.7833 19.5748 71.7638 19.5304C71.7461 19.486 71.7195 19.4256 71.7069 19.3972C71.5188 18.9532 71.231 18.3813 70.993 17.9674C70.8615 17.7419 70.8242 17.6779 70.7567 17.5678C70.4512 17.0723 70.0818 16.5554 69.652 16.0226C69.1724 15.4311 68.3465 14.5981 67.7658 14.1221C67.7177 14.083 67.6502 14.0262 67.6147 13.9978C67.5401 13.9338 67.3927 13.8184 67.1333 13.6212C66.947 13.4809 66.4319 13.1275 66.2454 13.0138C65.9239 12.8184 65.693 12.6799 65.6148 12.639C65.5668 12.6124 65.462 12.5555 65.384 12.5129C65.3058 12.4685 65.1228 12.3744 64.9755 12.3033C64.5368 12.0884 64.4017 12.028 63.9985 11.8682C63.8334 11.8007 63.6806 11.7403 63.6611 11.7332C63.5119 11.6728 62.9328 11.4792 62.764 11.4313C62.7197 11.4188 62.6647 11.4028 62.6397 11.3957C62.5367 11.3638 62.1904 11.2714 62.0449 11.2376C61.9968 11.2252 61.9275 11.2092 61.8938 11.2004C61.8601 11.1915 61.8085 11.179 61.7784 11.1737C61.75 11.1684 61.6931 11.1559 61.6541 11.1471C61.4941 11.1133 61.0236 11.0298 60.7571 10.9872C60.5067 10.9481 60.0501 10.9002 59.5937 10.8629C59.3343 10.8433 57.9774 10.8433 57.8265 10.8629ZM57.9649 14.4951C57.9667 15.3832 57.9738 16.1149 57.9827 16.122C57.9899 16.1291 58.0431 16.1273 58.1018 16.1185C58.1603 16.1096 58.2917 16.0989 58.3947 16.0936C58.4978 16.0883 58.6559 16.0794 58.7448 16.0741L58.9098 16.0634L58.9134 14.472L58.9187 12.8788H59.7092H60.4996L60.5049 14.5058L60.5085 16.1345L60.6647 16.154C60.75 16.1664 60.8867 16.1824 60.9702 16.1931C61.2757 16.2304 61.6007 16.2872 61.9204 16.3618C62.3396 16.4595 63.0447 16.6993 63.1158 16.7668C63.1336 16.7845 63.1389 17.0101 63.1371 17.8502C63.1371 18.4346 63.1318 18.9194 63.1265 18.9283C63.1229 18.9354 63.0039 18.8857 62.8653 18.8147C62.4426 18.598 61.9773 18.4079 61.5741 18.2871C61.5012 18.2658 61.4214 18.241 61.3964 18.2339C61.3539 18.2214 61.2704 18.1983 61.1354 18.1628C60.9773 18.1237 60.7287 18.074 60.464 18.0314C59.3451 17.8538 58.2775 17.8946 57.2671 18.1539C56.9864 18.2267 56.8532 18.2712 56.5121 18.4079C55.0432 18.9958 53.7999 20.2604 53.1836 21.7949C53.1357 21.9123 53.0912 22.0242 53.0823 22.0437C53.0752 22.0632 53.0504 22.1343 53.0291 22.2034C53.0079 22.271 52.9846 22.3439 52.9776 22.3634C52.9261 22.493 52.7965 23.0329 52.7485 23.3083C52.6988 23.5943 52.6988 23.596 52.6366 24.1129C52.6064 24.3704 52.6064 25.7273 52.6366 25.969C52.6988 26.4538 52.7236 26.6226 52.7449 26.7415C52.8054 27.0524 52.8072 27.0612 52.8799 27.3366C52.9244 27.5017 53.0185 27.8072 53.0487 27.8871C53.0575 27.9067 53.0912 27.9937 53.1251 28.0825C53.1871 28.2405 53.3152 28.5301 53.3542 28.5976C53.3648 28.6171 53.4056 28.6936 53.4448 28.7663C53.5815 29.0239 53.8302 29.3952 54.0505 29.6721C54.2102 29.8746 54.7751 30.4269 54.9758 30.5798C55.7271 31.1516 56.5371 31.5087 57.4445 31.6685C57.9047 31.7502 58.2119 31.775 58.7501 31.775C59.2776 31.7733 59.7038 31.7449 60.1799 31.6773C60.4161 31.6437 60.8494 31.5566 61.059 31.5034C61.4622 31.3986 61.5794 31.3612 61.9826 31.2085C62.3271 31.0771 62.8956 30.8036 63.0945 30.6739C63.1176 30.658 63.1442 30.6509 63.1548 30.658C63.1672 30.6651 63.1726 30.983 63.1726 31.6366V32.6045L62.9027 32.7343C62.7534 32.8052 62.5759 32.8852 62.5066 32.9136C62.439 32.9403 62.3663 32.9687 62.3467 32.9758C62.274 33.0059 62.0431 33.0859 61.9915 33.1001C61.9631 33.1072 61.9027 33.1249 61.8583 33.141C61.7695 33.1712 61.5048 33.2441 61.3698 33.276C61.322 33.2884 61.2526 33.3043 61.219 33.315C61.0927 33.3471 60.8441 33.395 60.5884 33.4357L60.5173 33.4464L60.5085 35.1427L60.4996 36.8389L59.7216 36.8477C59.2421 36.853 58.9366 36.8495 58.926 36.8389C58.9169 36.83 58.9098 36.2048 58.9098 35.2101V33.5974H58.6524C58.5104 33.5974 58.3167 33.5886 58.2226 33.5779C58.1284 33.5673 58.0325 33.5638 58.0112 33.5691L57.9685 33.5797L57.9649 35.2012L57.9596 36.8211H57.1694H56.3789L56.37 35.0893L56.3612 33.3595L56.2989 33.3434C56.2351 33.3274 56.1374 33.3026 56.0415 33.276C55.9456 33.2494 55.473 33.1001 55.4376 33.0841C55.4181 33.0753 55.3345 33.0416 55.251 33.0113C55.029 32.926 54.4537 32.6419 54.2297 32.505C53.6703 32.1658 53.2494 31.8266 52.7733 31.3399C52.3346 30.8888 51.9671 30.4128 51.6988 29.9475C51.4431 29.5053 51.2601 29.134 51.1323 28.793C51.109 28.7343 51.0842 28.6705 51.0754 28.6508C51.0488 28.5888 50.903 28.1393 50.8729 28.0292C50.8569 27.9707 50.8356 27.8942 50.825 27.8605C50.8161 27.8267 50.8018 27.7664 50.7929 27.7272C50.784 27.6882 50.7681 27.6206 50.7574 27.5763C50.5833 26.8339 50.4679 25.6493 50.4982 24.905C50.523 24.303 50.5266 24.2248 50.5443 24.0329C50.562 23.85 50.6172 23.4308 50.6527 23.207C50.6686 23.1111 50.6881 23.0028 50.7202 22.8375C50.7521 22.6795 50.7592 22.6476 50.7769 22.5765C50.7876 22.5375 50.8035 22.4753 50.8126 22.438C50.8463 22.3011 50.864 22.2338 50.9262 22.026C50.9936 21.8002 51.0523 21.6228 51.0771 21.5641C51.0842 21.5446 51.1002 21.5002 51.1126 21.4664C51.1394 21.3884 51.1536 21.3545 51.1997 21.2497C51.2209 21.2036 51.2371 21.1609 51.2371 21.1573C51.2371 21.1307 51.5211 20.5445 51.6241 20.3563C52.1731 19.3617 53.0132 18.3919 53.91 17.7152C54.0824 17.5856 54.5033 17.3049 54.6382 17.2286C54.7076 17.1913 54.7875 17.1451 54.8159 17.1291C54.9207 17.0669 55.4216 16.82 55.5441 16.7685C55.6135 16.7419 55.7005 16.7046 55.7395 16.6868C55.8425 16.6424 56.1605 16.527 56.2812 16.4879L56.3612 16.463L56.3647 14.6887C56.3683 13.7136 56.3736 12.9037 56.3789 12.8912C56.3842 12.8735 56.553 12.8699 57.1729 12.8735L57.9596 12.8788L57.9649 14.4951ZM60.2865 19.6992C60.5938 19.7187 61.1691 19.7933 61.3273 19.8342C61.3628 19.843 61.4124 19.8501 61.4374 19.8501C61.4622 19.8501 61.5012 19.8572 61.5245 19.8661C61.5475 19.875 61.6131 19.8928 61.6718 19.9034C61.7926 19.9283 62.1424 20.0277 62.3289 20.0899L62.4532 20.1308L62.4587 21.2337C62.4605 21.8944 62.455 22.3368 62.4461 22.3368C62.4373 22.3368 62.3236 22.2816 62.1922 22.2159C62.0626 22.1485 61.908 22.0756 61.8495 22.0543C61.7908 22.0313 61.7268 22.0063 61.7073 21.9974C61.6434 21.9708 61.3539 21.8784 61.2367 21.8483C60.9986 21.7878 61.0023 21.7896 60.7039 21.7346C60.6133 21.7187 60.4533 21.6992 60.1088 21.6653C59.7287 21.6263 59.1781 21.644 58.8121 21.7063C58.4339 21.7719 58.0272 21.9265 57.7234 22.1183C57.2367 22.4274 56.8087 22.9299 56.5672 23.4771C56.5459 23.5232 56.53 23.573 56.53 23.5872C56.53 23.6014 56.5227 23.6173 56.5138 23.6226C56.505 23.628 56.4943 23.651 56.489 23.6723C56.4837 23.6955 56.4589 23.7808 56.434 23.8641C56.2298 24.5214 56.2191 25.5089 56.4073 26.2389C56.6312 27.1057 57.1248 27.7327 57.8531 28.0825C58.0077 28.1572 58.2775 28.2549 58.3859 28.2762C58.4162 28.2815 58.4907 28.2974 58.5547 28.3116C58.7909 28.3632 59.0645 28.381 59.4393 28.3703C59.9418 28.3561 60.2526 28.301 60.5173 28.1767L60.5617 28.1572V27.1643V26.1733L59.5368 26.1697L58.5104 26.1642V25.2229V24.2815H60.7127H62.9151L62.9204 26.9192L62.924 29.5585L62.686 29.6775C62.5545 29.7432 62.4426 29.7964 62.4373 29.7964C62.4319 29.7964 62.3876 29.8126 62.3413 29.8338C62.2952 29.8551 62.2419 29.8782 62.2224 29.887C62.1424 29.9227 61.8406 30.0275 61.7161 30.0629C61.6434 30.0842 61.5635 30.109 61.5386 30.1161C61.5136 30.1252 61.4232 30.1482 61.3344 30.1695C61.2473 30.189 61.1461 30.2138 61.1124 30.2227C61.0537 30.237 60.6097 30.3115 60.3663 30.3472C60.0716 30.3897 59.7269 30.4074 59.1763 30.4074C58.4995 30.4074 58.2758 30.3897 57.7554 30.2902C57.4499 30.2317 57.0557 30.1305 56.9474 30.0807C56.9277 30.0718 56.8745 30.0523 56.8282 30.0381C56.4872 29.928 55.8869 29.5904 55.5441 29.317C55.1801 29.0257 54.7537 28.5372 54.5122 28.1357C54.3363 27.8428 54.1214 27.3667 54.0575 27.1323C54.0487 27.0985 54.0345 27.0453 54.0255 27.0169C53.9882 26.8924 53.9687 26.8162 53.9528 26.7451C53.8905 26.4609 53.8834 26.4094 53.832 26.0222C53.8017 25.7878 53.7946 25.6438 53.7946 25.2051C53.7946 24.612 53.8176 24.3721 53.9171 23.8641C53.9492 23.7008 53.9634 23.6421 54.0272 23.4237C54.038 23.3882 54.0505 23.3366 54.0558 23.3083C54.0611 23.2817 54.0717 23.2549 54.0806 23.2496C54.0895 23.2443 54.0966 23.2283 54.0966 23.2123C54.0966 23.1359 54.3648 22.5464 54.5175 22.2887C54.7359 21.9194 54.9313 21.6653 55.2688 21.319C55.7023 20.8715 56.0929 20.5837 56.6275 20.3119C56.775 20.2391 56.9295 20.1645 56.974 20.1468C57.0183 20.129 57.0699 20.1059 57.0894 20.097C57.1605 20.065 57.7234 19.8857 57.7554 19.8857C57.775 19.8857 57.807 19.8786 57.83 19.8697C57.8531 19.8608 57.9188 19.8448 57.9774 19.8324C58.036 19.8217 58.116 19.8057 58.155 19.7968C58.3522 19.756 58.7182 19.7116 58.9809 19.6974C59.1035 19.6921 59.2065 19.6814 59.2118 19.6779C59.2207 19.6672 60.0663 19.685 60.2865 19.6992Z" fill="white"/>
</svg>
