<svg width="224" height="50" viewBox="0 0 224 50" fill="none" xmlns="http://www.w3.org/2000/svg">
<g clip-path="url(#clip0_3281_2878)">
<path d="M173.499 15.075C173.335 15.0761 173.177 15.1178 173.018 15.152C172.733 15.2135 172.569 15.3987 172.497 15.6649C172.436 15.89 172.422 16.1228 172.422 16.3557C172.422 18.5488 172.422 20.7421 172.422 22.9353C172.422 22.9948 172.423 23.0544 172.421 23.114C172.419 23.1671 172.424 23.2269 172.36 23.2507C172.295 23.2747 172.226 23.2775 172.172 23.2301C172.118 23.1832 172.07 23.1285 172.024 23.0732C171.34 22.2411 170.656 21.4082 169.973 20.5758C169.05 19.4518 168.126 18.3281 167.203 17.2043C167.032 16.9962 166.861 16.7883 166.689 16.5804C166.671 16.5581 166.656 16.5305 166.622 16.5234C166.576 16.5511 166.593 16.5976 166.593 16.6359C166.591 18.3524 166.59 20.0687 166.593 21.7852C166.594 22.052 166.652 22.3055 166.852 22.5073C167.03 22.6864 167.249 22.7719 167.496 22.7952C167.568 22.802 167.641 22.797 167.713 22.8041C167.824 22.815 167.856 22.8492 167.856 22.9474C167.857 23.0453 167.826 23.0748 167.71 23.0836C167.668 23.0868 167.625 23.085 167.583 23.085C166.769 23.085 165.955 23.085 165.141 23.0852C165.111 23.0852 165.081 23.0857 165.051 23.0847C164.893 23.0793 164.853 23.0494 164.855 22.9385C164.857 22.8365 164.895 22.8038 165.04 22.7989C165.18 22.7943 165.315 22.7732 165.45 22.7381C165.778 22.6528 165.957 22.4352 166.034 22.1201C166.072 21.9627 166.083 21.8027 166.082 21.6412C166.081 21.1286 166.082 20.6162 166.082 20.1036C166.082 18.7567 166.079 17.4097 166.085 16.0628C166.085 15.8855 166.051 15.7349 165.921 15.6093C165.878 15.568 165.845 15.5166 165.806 15.4713C165.601 15.2348 165.354 15.0829 165.028 15.0742C164.887 15.0704 164.854 15.0312 164.854 14.9228C164.853 14.8459 164.883 14.7959 164.966 14.7913C165.014 14.7886 165.062 14.7879 165.111 14.7879C165.949 14.7877 166.787 14.7904 167.625 14.785C167.776 14.7841 167.88 14.8267 167.977 14.9487C168.753 15.9226 169.535 16.8907 170.316 17.8609C170.829 18.4998 171.342 19.1396 171.855 19.7785C171.866 19.7919 171.882 19.8016 171.896 19.8134C171.954 19.7923 171.933 19.7434 171.933 19.7077C171.934 18.5873 171.938 17.4668 171.931 16.3464C171.929 16.1154 171.906 15.8834 171.844 15.6567C171.775 15.4039 171.61 15.247 171.37 15.157C171.216 15.0994 171.056 15.0724 170.892 15.0715C170.827 15.0711 170.756 15.0727 170.728 14.9911C170.692 14.8847 170.742 14.8033 170.858 14.7902C170.894 14.7861 170.93 14.7875 170.966 14.7875C171.81 14.7877 172.654 14.7881 173.499 14.7884V15.0745L173.499 15.075Z" fill="white"/>
<path d="M173.499 27.1991C173.134 27.2297 172.854 27.3929 172.637 27.6891C172.322 28.12 172.055 28.5792 171.779 29.0335C171.257 29.891 170.739 30.7511 170.216 31.6075C170.141 31.7295 170.105 31.8514 170.106 31.9943C170.111 32.6259 170.11 33.2575 170.107 33.8889C170.106 34.0685 170.134 34.2451 170.146 34.4231C170.159 34.6002 170.277 34.7124 170.417 34.8036C170.535 34.8808 170.668 34.9176 170.81 34.9198C170.973 34.9223 171.136 34.9194 171.298 34.9262C171.414 34.931 171.441 34.9627 171.443 35.0643C171.444 35.1679 171.416 35.1985 171.305 35.2083C171.257 35.2126 171.208 35.2107 171.16 35.2107C169.774 35.2107 168.388 35.2107 167.002 35.2107C166.96 35.2107 166.917 35.2123 166.875 35.2092C166.756 35.2005 166.729 35.1761 166.726 35.076C166.723 34.9652 166.752 34.9312 166.876 34.9257C167.009 34.9198 167.142 34.9226 167.274 34.9224C167.402 34.9224 167.527 34.904 167.646 34.8568C167.858 34.7725 167.992 34.6197 168.023 34.3939C168.044 34.241 168.064 34.0873 168.063 33.9314C168.06 33.3832 168.062 32.8352 168.064 32.287C168.064 32.1892 168.045 32.1019 167.996 32.0147C167.267 30.7117 166.541 29.4067 165.811 28.104C165.709 27.9219 165.588 27.7507 165.467 27.5798C165.302 27.3488 165.083 27.2261 164.801 27.2041C164.721 27.1978 164.642 27.1953 164.632 27.0858C164.623 26.9676 164.657 26.9223 164.778 26.9125C164.82 26.9091 164.863 26.9109 164.905 26.9109C166.068 26.9109 167.231 26.9109 168.395 26.9109C168.443 26.9109 168.491 26.9089 168.539 26.9132C168.648 26.9228 168.682 26.9576 168.683 27.0558C168.683 27.1536 168.65 27.1891 168.54 27.198C168.474 27.2034 168.408 27.2003 168.341 27.2025C168.269 27.2046 168.197 27.2082 168.127 27.229C167.88 27.302 167.808 27.4351 167.896 27.6766C168.032 28.0545 168.241 28.3975 168.434 28.7478C168.763 29.3439 169.092 29.9399 169.421 30.5358C169.548 30.7652 169.675 30.9942 169.8 31.2179C169.871 31.2248 169.877 31.1719 169.896 31.1402C170.431 30.2558 170.968 29.3725 171.497 28.4846C171.634 28.2543 171.766 28.0182 171.833 27.755C171.884 27.5575 171.831 27.4378 171.65 27.3413C171.476 27.249 171.287 27.2172 171.093 27.2041C171.02 27.1991 170.946 27.1964 170.929 27.1005C170.907 26.979 170.949 26.922 171.076 26.9119C171.1 26.91 171.124 26.9109 171.148 26.9109C171.931 26.9114 172.715 26.9121 173.499 26.9126V27.1987V27.1991Z" fill="white"/>
<path d="M74.8468 11.4997C75.0651 11.6602 75.3101 11.7776 75.5443 11.9118C76.6706 12.5569 77.799 13.198 78.9262 13.8415C79.1514 13.9702 79.1516 13.9782 78.9322 14.1036C77.7844 14.7594 76.6359 15.414 75.4875 16.0688C75.3101 16.1701 75.1286 16.2649 74.9561 16.3739C74.8538 16.4383 74.7715 16.4263 74.6733 16.3698C73.9494 15.9534 73.2232 15.5405 72.4979 15.1265C71.8976 14.7841 71.2971 14.4423 70.6974 14.0994C70.6411 14.0672 70.5509 14.0478 70.5489 13.9822C70.5463 13.9031 70.6438 13.885 70.7034 13.8508C72.0069 13.1044 73.3115 12.3596 74.6158 11.6144C74.6728 11.5819 74.7355 11.5566 74.7748 11.4997H74.8472H74.8468Z" fill="white"/>
<path d="M55.0568 11.4997C55.3283 11.6887 55.6246 11.837 55.9106 12.0018C56.9989 12.6283 58.0904 13.2492 59.1809 13.872C59.1966 13.8809 59.2129 13.8886 59.2281 13.8984C59.3252 13.9612 59.3287 13.9902 59.2333 14.0487C59.0953 14.1337 58.9533 14.2124 58.8124 14.2929C57.602 14.9844 56.3909 15.6745 55.1825 16.3694C55.0736 16.432 54.9886 16.4293 54.8831 16.3689C53.9191 15.8155 52.9533 15.2653 51.9879 14.7145C51.6227 14.506 51.2571 14.2981 50.8911 14.0908C50.7084 13.9874 50.7059 13.9695 50.8819 13.868C51.2826 13.6369 51.6849 13.4084 52.0867 13.179C53.0101 12.6518 53.9338 12.1245 54.8575 11.5974C54.9045 11.5706 54.9531 11.5463 54.9846 11.4997H55.057L55.0568 11.4997Z" fill="white"/>
<path d="M65.3683 38.4985C65.3654 38.4212 65.3604 38.3439 65.3602 38.2666C65.3596 36.8668 65.3629 35.4668 65.3555 34.0669C65.3546 33.8932 65.4157 33.7987 65.5635 33.7152C66.6831 33.0831 67.7985 32.444 68.9152 31.8069C69.0456 31.7325 69.1737 31.6536 69.3064 31.5836C69.3963 31.5362 69.4211 31.5543 69.4294 31.6566C69.4323 31.6922 69.4307 31.728 69.4307 31.7638C69.4307 33.1636 69.4285 34.5636 69.4343 35.9634C69.4351 36.12 69.3868 36.21 69.2467 36.289C68.0284 36.9782 66.8142 37.6749 65.5995 38.3704C65.532 38.409 65.4693 38.4557 65.4043 38.4986H65.3681L65.3683 38.4985Z" fill="white"/>
<path d="M50.5002 14.8618C50.763 14.9699 50.9978 15.1288 51.2431 15.268C52.3041 15.8702 53.3612 16.4792 54.4231 17.08C54.549 17.1514 54.5997 17.2339 54.5991 17.3775C54.5948 18.7004 54.5969 20.0235 54.596 21.3464C54.596 21.5486 54.5772 21.5587 54.3936 21.4541C53.4276 20.9037 52.4622 20.3523 51.4967 19.8009C51.241 19.6549 50.9862 19.5073 50.7299 19.362C50.657 19.3207 50.5848 19.2758 50.5 19.2601V14.8616L50.5002 14.8618Z" fill="white"/>
<path d="M64.9693 11.4997C65.1133 11.62 65.2888 11.6887 65.4494 11.7808C66.705 12.5011 67.9624 13.2187 69.2222 13.9319C69.343 14.0002 69.3991 14.0775 69.3877 14.2148C69.3779 14.333 69.3781 14.4534 69.3877 14.5719C69.3995 14.7196 69.3472 14.8121 69.2113 14.8864C68.7739 15.1258 68.3439 15.3784 67.9107 15.6251C67.0807 16.0978 66.2517 16.5721 65.4188 17.0398C65.2946 17.1096 65.2618 17.1976 65.2622 17.3296C65.2656 18.6461 65.2644 19.9624 65.2642 21.2788C65.2642 21.3384 65.2627 21.398 65.2627 21.4575C65.2627 21.5225 65.2372 21.5726 65.179 21.6052C65.1527 21.6198 65.1274 21.6359 65.1014 21.651C64.9326 21.7477 64.7627 21.7193 64.6381 21.5756C64.6083 21.5413 64.5996 21.5026 64.5987 21.4602C64.5974 21.4067 64.597 21.3531 64.597 21.2994C64.597 20.0187 64.597 18.7381 64.597 17.4574C64.597 17.4037 64.5929 17.3499 64.5974 17.2965C64.6073 17.1799 64.5516 17.1123 64.4511 17.0557C63.8852 16.7383 63.3221 16.4161 62.7584 16.095C62.0433 15.6876 61.3295 15.2782 60.6126 14.8739C60.5014 14.8111 60.4408 14.7366 60.4478 14.6053C60.4556 14.4627 60.452 14.3194 60.4494 14.1766C60.4476 14.0697 60.4943 14.002 60.5891 13.9484C61.3109 13.5406 62.0303 13.1287 62.7504 12.7183C63.3297 12.3882 63.9091 12.0579 64.4885 11.7282C64.6244 11.6513 64.7609 11.576 64.897 11.4997C64.921 11.4997 64.9453 11.4997 64.9693 11.4997ZM68.68 14.4046C68.6223 14.3688 68.5977 14.3523 68.5719 14.3377C67.8941 13.9496 67.2164 13.5615 66.5382 13.1742C66.0478 12.8942 65.5545 12.6188 65.0675 12.3331C64.9568 12.2682 64.8731 12.2753 64.7702 12.3381C64.5806 12.4539 64.3848 12.5596 64.1918 12.67C63.2528 13.2064 62.3136 13.7424 61.3753 14.2801C61.3156 14.3142 61.2161 14.3259 61.2181 14.4076C61.2195 14.4745 61.3102 14.493 61.3659 14.5248C62.5032 15.1743 63.6419 15.8212 64.7776 16.4735C64.8888 16.5374 64.9738 16.5261 65.0775 16.4669C66.131 15.8645 67.1862 15.2653 68.2406 14.6644C68.3801 14.5849 68.5171 14.5012 68.68 14.4046Z" fill="white"/>
<path d="M142.592 14.7886C143.231 14.7886 143.87 14.7886 144.509 14.7886C144.563 14.7886 144.618 14.7895 144.672 14.7915C144.757 14.7945 144.807 14.8323 144.808 14.9224C144.81 15.0196 144.777 15.0618 144.67 15.0695C144.556 15.0777 144.441 15.0765 144.327 15.0777C144.204 15.079 144.088 15.1124 143.98 15.1679C143.803 15.259 143.692 15.4017 143.664 15.5986C143.643 15.7397 143.624 15.8812 143.624 16.0253C143.626 16.788 143.625 17.5507 143.625 18.3134C143.625 18.3372 143.624 18.3612 143.626 18.385C143.633 18.5199 143.645 18.5317 143.788 18.5377C143.818 18.539 143.849 18.5383 143.879 18.5383C144.681 18.5383 145.482 18.5383 146.284 18.5383C146.296 18.5383 146.308 18.5383 146.32 18.5383C146.53 18.5361 146.535 18.5329 146.536 18.3295C146.537 17.835 146.537 17.3403 146.536 16.8458C146.536 16.4826 146.538 16.1197 146.512 15.7565C146.482 15.3459 146.266 15.1126 145.847 15.0806C145.727 15.0713 145.606 15.0745 145.486 15.0697C145.41 15.0666 145.361 15.0323 145.355 14.9509C145.348 14.8539 145.383 14.8052 145.482 14.7931C145.535 14.7865 145.59 14.7886 145.644 14.7886C146.916 14.7884 148.188 14.7884 149.46 14.7886C149.508 14.7886 149.556 14.7868 149.604 14.7917C149.713 14.8027 149.739 14.8366 149.74 14.9394C149.74 15.031 149.69 15.0681 149.605 15.0709C149.473 15.0756 149.34 15.0718 149.208 15.0845C148.906 15.1137 148.673 15.3019 148.62 15.5583C148.597 15.6689 148.577 15.7807 148.579 15.895C148.581 15.9725 148.576 16.05 148.576 16.1274C148.577 18.0522 148.577 19.9768 148.579 21.9015C148.579 21.9965 148.584 22.0922 148.598 22.1863C148.651 22.5578 148.87 22.7607 149.255 22.7936C149.375 22.8038 149.496 22.8007 149.617 22.8057C149.707 22.8095 149.74 22.8616 149.74 22.9474C149.74 23.0367 149.699 23.0804 149.611 23.0832C149.563 23.0848 149.515 23.0861 149.467 23.0861C148.189 23.0861 146.911 23.0861 145.633 23.0861C145.597 23.0861 145.56 23.0872 145.524 23.085C145.394 23.0773 145.357 23.0473 145.355 22.9494C145.352 22.8435 145.391 22.81 145.532 22.8032C145.617 22.7993 145.701 22.7998 145.785 22.7988C145.876 22.7977 145.965 22.7821 146.052 22.756C146.321 22.6753 146.481 22.4907 146.5 22.2126C146.515 21.9811 146.539 21.7501 146.538 21.517C146.533 20.8139 146.536 20.1108 146.536 19.4076C146.536 19.36 146.538 19.3121 146.535 19.2647C146.527 19.1423 146.511 19.1271 146.381 19.1192C146.351 19.1174 146.321 19.1181 146.291 19.1181C145.483 19.1181 144.675 19.1176 143.867 19.1181C143.626 19.1181 143.625 19.1199 143.625 19.3559C143.624 20.1782 143.625 21.0005 143.623 21.8228C143.623 21.9786 143.647 22.1316 143.665 22.2853C143.689 22.4953 143.826 22.6258 144.009 22.7132C144.123 22.7682 144.246 22.7979 144.375 22.7986C144.478 22.7993 144.581 22.7982 144.682 22.8075C144.78 22.8163 144.808 22.8558 144.808 22.9469C144.808 23.0347 144.764 23.0789 144.677 23.0827C144.628 23.0848 144.58 23.0859 144.532 23.0859C143.248 23.0859 141.964 23.0859 140.68 23.0859C140.632 23.0859 140.584 23.0848 140.536 23.0834C140.45 23.0807 140.401 23.0419 140.399 22.9523C140.397 22.8553 140.431 22.8136 140.538 22.8054C140.634 22.7979 140.731 22.7998 140.827 22.7991C140.956 22.798 141.078 22.7696 141.196 22.7213C141.398 22.6388 141.511 22.486 141.544 22.2767C141.567 22.1239 141.583 21.9702 141.583 21.8144C141.582 19.8957 141.582 17.9769 141.582 16.0582C141.582 15.9329 141.576 15.8088 141.558 15.6843C141.506 15.315 141.281 15.1047 140.9 15.0802C140.78 15.0725 140.659 15.0747 140.538 15.0708C140.454 15.0679 140.403 15.0303 140.399 14.9407C140.394 14.8401 140.425 14.801 140.531 14.7917C140.585 14.7868 140.639 14.7891 140.693 14.7891C141.326 14.7891 141.959 14.7891 142.592 14.7891V14.7886Z" fill="white"/>
<path d="M89.8763 18.7024C89.9727 18.7301 90.0691 18.758 90.1657 18.7852C90.4504 18.8653 90.727 18.9652 90.9926 19.0961C91.8254 19.5066 92.2239 20.3249 92.0258 21.2236C91.924 21.6861 91.67 22.0527 91.2994 22.344C90.8486 22.6982 90.3233 22.8791 89.7652 22.9825C89.3909 23.0518 89.0118 23.0809 88.6328 23.0827C87.2945 23.0893 85.9561 23.0854 84.6178 23.0854C84.5756 23.0854 84.5333 23.0866 84.4912 23.0838C84.366 23.075 84.3296 23.041 84.3322 22.9385C84.3343 22.8458 84.3694 22.81 84.4828 22.8014C84.6328 22.7902 84.7833 22.7984 84.9324 22.7655C85.2853 22.6877 85.451 22.5048 85.4742 22.1491C85.4819 22.0303 85.483 21.9108 85.483 21.7917C85.483 19.8549 85.4828 17.9182 85.4812 15.9813C85.4812 15.8447 85.4817 15.7082 85.4524 15.5721C85.4 15.3293 85.2464 15.1897 85.0132 15.123C84.8906 15.0879 84.765 15.0767 84.6379 15.0756C84.5717 15.0751 84.5051 15.0731 84.4392 15.0667C84.3562 15.0584 84.3311 15.0019 84.3322 14.9278C84.3332 14.8527 84.3638 14.801 84.4454 14.7931C84.4874 14.7892 84.5297 14.7879 84.5718 14.7879C85.9222 14.7879 87.2726 14.779 88.623 14.7926C89.1339 14.7977 89.6505 14.8172 90.1449 14.9663C90.9322 15.2037 91.4656 15.7091 91.6451 16.511C91.7929 17.1712 91.5881 17.736 91.0298 18.1538C90.8115 18.3172 90.5648 18.4286 90.3099 18.5227C90.1691 18.5746 90.0257 18.6193 89.8835 18.6671C89.8811 18.6787 89.8788 18.6904 89.8763 18.702V18.7024ZM87.4787 20.5997C87.4787 20.7606 87.4787 20.9214 87.4787 21.0823C87.4787 21.3861 87.4732 21.69 87.4794 21.9938C87.4868 22.3597 87.6988 22.5651 88.0686 22.5801C88.2446 22.5873 88.4186 22.5724 88.5886 22.5297C89.1753 22.3821 89.5906 22.0402 89.7701 21.4596C89.9311 20.9382 89.8934 20.4235 89.6521 19.9292C89.5033 19.6243 89.2798 19.389 88.9698 19.2404C88.8889 19.2015 88.8034 19.1691 88.7165 19.1462C88.3651 19.0541 88.0054 19.0223 87.6431 19.0183C87.5009 19.0167 87.4872 19.0351 87.4801 19.17C87.4776 19.2176 87.479 19.2654 87.479 19.313C87.479 19.742 87.479 20.1709 87.479 20.5999L87.4787 20.5997ZM87.479 16.8898C87.479 17.3662 87.4778 17.8427 87.4797 18.3191C87.4805 18.4884 87.4955 18.5043 87.6677 18.4998C87.9571 18.4925 88.2473 18.4714 88.5244 18.3851C89.0666 18.2166 89.4224 17.869 89.5394 17.3061C89.591 17.0583 89.5881 16.8069 89.5575 16.5588C89.4853 15.9721 89.1056 15.5524 88.5286 15.4009C88.2591 15.3302 87.9826 15.3098 87.7059 15.2994C87.4857 15.2912 87.4799 15.301 87.4794 15.5136C87.4783 15.9721 87.479 16.4309 87.4792 16.8894L87.479 16.8898Z" fill="white"/>
<path d="M148.345 31.0644C148.345 30.4032 148.345 29.7421 148.345 29.0808C148.345 28.6759 148.335 28.2716 148.322 27.8667C148.307 27.438 148.033 27.2579 147.676 27.2088C147.564 27.1935 147.447 27.2038 147.333 27.1994C147.192 27.1938 147.159 27.1639 147.16 27.0519C147.162 26.9424 147.194 26.917 147.34 26.9113C147.377 26.9099 147.413 26.9108 147.449 26.9108C148.636 26.9108 149.823 26.9047 151.01 26.9136C151.528 26.9176 152.044 26.9575 152.552 27.0754C154.143 27.4456 155.11 28.4362 155.483 29.9931C155.677 30.8004 155.658 31.6135 155.417 32.4126C155.053 33.6175 154.284 34.4545 153.076 34.8773C152.581 35.0506 152.073 35.1659 151.543 35.1895C151.217 35.2041 150.893 35.2092 150.568 35.2097C149.531 35.2115 148.495 35.2104 147.458 35.2102C147.404 35.2102 147.35 35.2093 147.296 35.2083C147.21 35.2067 147.161 35.1698 147.16 35.0786C147.16 34.9785 147.19 34.9361 147.296 34.9281C147.421 34.9186 147.548 34.9211 147.675 34.9165C147.811 34.9114 147.934 34.868 148.046 34.7925C148.218 34.6778 148.308 34.5241 148.318 34.3155C148.335 33.9466 148.348 33.578 148.346 33.2087C148.343 32.494 148.345 31.7792 148.345 31.0643L148.345 31.0644ZM150.389 30.8889H150.391C150.391 31.9495 150.391 33.0101 150.391 34.0709C150.391 34.1783 150.396 34.2845 150.422 34.3903C150.449 34.5042 150.516 34.5803 150.621 34.628C150.716 34.6708 150.813 34.6998 150.917 34.7001C151.038 34.7007 151.159 34.708 151.279 34.6973C151.791 34.6511 152.235 34.4692 152.569 34.0634C152.84 33.7331 153.006 33.3533 153.122 32.9484C153.279 32.4052 153.317 31.8467 153.338 31.287C153.356 30.7855 153.313 30.2862 153.225 29.7929C153.132 29.2732 152.969 28.7763 152.664 28.3337C152.331 27.8495 151.888 27.5486 151.287 27.4831C151.076 27.4602 150.866 27.4615 150.656 27.4373C150.4 27.4078 150.389 27.4178 150.389 27.6713C150.389 28.7439 150.389 29.8165 150.389 30.8891L150.389 30.8889Z" fill="white"/>
<path d="M128.533 23.0863C127.912 23.0863 127.291 23.0863 126.67 23.0863C126.622 23.0863 126.573 23.0877 126.525 23.0852C126.388 23.0782 126.36 23.0558 126.356 22.9526C126.352 22.8435 126.376 22.819 126.503 22.7952C126.592 22.7787 126.682 22.766 126.768 22.739C126.974 22.6739 127.04 22.5361 126.967 22.3368C126.916 22.1953 126.833 22.0707 126.749 21.9468C126.459 21.5206 126.115 21.1365 125.797 20.7319C125.445 20.2852 125.084 19.8454 124.728 19.4026C124.72 19.3933 124.715 19.3822 124.706 19.3743C124.642 19.3182 124.614 19.2063 124.502 19.2237C124.4 19.2396 124.269 19.4157 124.267 19.5328C124.264 19.8547 124.265 20.1764 124.265 20.4983C124.266 20.993 124.267 21.4875 124.269 21.9822C124.269 22.0774 124.28 22.1718 124.291 22.2668C124.321 22.5105 124.471 22.6465 124.689 22.73C124.826 22.7826 124.968 22.7977 125.114 22.8005C125.18 22.802 125.249 22.8068 125.276 22.8862C125.314 22.9984 125.267 23.0718 125.146 23.083C125.098 23.0875 125.05 23.0855 125.002 23.0855C123.772 23.0855 122.542 23.0855 121.312 23.0855C121.276 23.0855 121.24 23.0866 121.204 23.0845C121.073 23.0768 121.041 23.0481 121.044 22.944C121.047 22.842 121.08 22.8113 121.209 22.8036C121.293 22.7984 121.378 22.8005 121.462 22.7984C121.535 22.7966 121.606 22.7912 121.677 22.7724C122.019 22.6817 122.171 22.5019 122.194 22.1513C122.202 22.0325 122.203 21.9129 122.203 21.7938C122.203 19.8808 122.203 17.9677 122.203 16.0548C122.203 15.9535 122.195 15.8521 122.198 15.751C122.208 15.2765 121.864 15.1187 121.548 15.0822C121.429 15.0684 121.307 15.0756 121.187 15.0706C121.116 15.0675 121.057 15.0471 121.046 14.9625C121.032 14.8585 121.07 14.8056 121.178 14.7925C121.225 14.7868 121.274 14.7886 121.322 14.7886C122.534 14.7884 123.746 14.7886 124.958 14.7886C125.006 14.7886 125.054 14.7895 125.102 14.7913C125.187 14.7945 125.236 14.8339 125.239 14.923C125.241 15.0189 125.208 15.0614 125.1 15.0707C124.974 15.0817 124.848 15.0865 124.726 15.1241C124.485 15.1983 124.337 15.3502 124.297 15.6023C124.282 15.7028 124.269 15.8029 124.269 15.9043C124.268 16.7804 124.266 17.6564 124.267 18.5325C124.267 18.5825 124.242 18.6512 124.305 18.6757C124.354 18.6948 124.389 18.6406 124.425 18.6114C125.41 17.8257 126.397 17.0415 127.378 16.2517C127.56 16.1056 127.735 15.9472 127.859 15.7456C128.042 15.4493 127.929 15.1949 127.584 15.1146C127.447 15.0829 127.309 15.0827 127.171 15.0729C127.05 15.0643 127.012 15.0217 127.016 14.9213C127.02 14.8446 127.056 14.7979 127.136 14.7927C127.178 14.79 127.221 14.7884 127.263 14.7884C128.197 14.7882 129.132 14.7882 130.066 14.7884C130.102 14.7884 130.138 14.7895 130.175 14.7904C130.259 14.7927 130.31 14.8262 130.311 14.9188C130.313 15.0015 130.286 15.058 130.197 15.0716C130.191 15.0725 130.185 15.0743 130.179 15.0745C129.776 15.0879 129.459 15.2906 129.158 15.5268C128.544 16.0081 127.931 16.4904 127.318 16.9733C126.946 17.2667 126.575 17.5612 126.205 17.8571C126.059 17.9736 126.06 17.9788 126.178 18.1248C127.118 19.289 128.056 20.4546 128.999 21.6167C129.267 21.9468 129.552 22.2613 129.895 22.5209C130.096 22.6735 130.317 22.7701 130.57 22.7975C130.703 22.812 130.735 22.8433 130.737 22.9392C130.738 23.0303 130.707 23.0685 130.612 23.0805C130.559 23.0873 130.504 23.0854 130.45 23.0854C129.811 23.0857 129.172 23.0854 128.533 23.0854L128.533 23.0863Z" fill="white"/>
<path d="M141.836 26.8008C142.424 26.7817 142.981 26.8339 143.518 27.0125C144.793 27.436 145.659 28.2912 146.092 29.5352C146.51 30.7348 146.44 31.9374 145.864 33.0791C145.24 34.314 144.236 35.0806 142.846 35.3178C142.064 35.4513 141.285 35.4239 140.516 35.2214C139.383 34.9228 138.547 34.2463 137.983 33.2371C137.651 32.6429 137.486 32.0022 137.449 31.3245C137.411 30.6482 137.481 29.9864 137.753 29.3645C138.321 28.0697 139.286 27.2198 140.692 26.8931C141.075 26.804 141.466 26.782 141.836 26.8008ZM139.713 31.0869C139.699 31.6431 139.744 32.218 139.865 32.7855C139.968 33.273 140.131 33.738 140.423 34.1508C140.655 34.4791 140.959 34.7104 141.353 34.8203C141.552 34.8759 141.756 34.8833 141.961 34.8831C142.533 34.8827 142.982 34.6491 143.327 34.2027C143.588 33.8651 143.746 33.4808 143.859 33.0766C144.009 32.5393 144.05 31.9865 144.073 31.4333C144.096 30.8793 144.062 30.3261 144.002 29.7753C143.951 29.3115 143.85 28.8596 143.653 28.4314C143.361 27.7938 142.908 27.3512 142.178 27.2576C141.603 27.1839 141.091 27.3222 140.667 27.731C140.25 28.133 140.034 28.6388 139.902 29.1847C139.752 29.8016 139.703 30.4299 139.714 31.0867L139.713 31.0869Z" fill="white"/>
<path d="M106.278 14.6807C106.766 14.6618 107.231 14.7051 107.691 14.8203C108.385 14.9944 108.982 15.3313 109.494 15.8274C110.131 16.4445 110.535 17.1816 110.68 18.0495C110.896 19.3536 110.666 20.5643 109.853 21.6374C109.231 22.4594 108.408 22.9737 107.385 23.1679C106.525 23.3312 105.667 23.3155 104.828 23.0643C103.419 22.6433 102.519 21.6963 102.074 20.3323C101.759 19.3652 101.751 18.3742 102.113 17.4174C102.679 15.9192 103.772 15.0103 105.374 14.7237C105.677 14.6695 105.985 14.668 106.278 14.6807H106.278ZM108.486 18.9457C108.498 18.4825 108.47 18.0014 108.408 17.5224C108.335 16.9619 108.18 16.4291 107.874 15.9428C107.282 15.0003 105.905 14.8219 105.096 15.59C104.757 15.9118 104.549 16.3108 104.407 16.7479C104.197 17.3956 104.148 18.0665 104.122 18.7394C104.104 19.2099 104.137 19.6798 104.195 20.1467C104.267 20.7298 104.407 21.2945 104.701 21.8128C104.916 22.193 105.204 22.4952 105.626 22.651C105.962 22.7748 106.309 22.7904 106.659 22.7399C107.111 22.6746 107.468 22.4506 107.742 22.0912C108.053 21.6829 108.23 21.2175 108.336 20.7235C108.461 20.1442 108.499 19.5569 108.486 18.9459L108.486 18.9457Z" fill="white"/>
<path d="M132.75 26.9107C133.913 26.9107 135.076 26.9107 136.24 26.9107C136.52 26.9107 136.525 26.9159 136.526 27.1876C136.526 27.7657 136.526 28.3438 136.526 28.9217C136.526 28.9693 136.525 29.017 136.523 29.0646C136.519 29.138 136.491 29.1913 136.407 29.1977C136.33 29.2038 136.261 29.1924 136.233 29.1072C136.218 29.0619 136.205 29.0158 136.192 28.97C136.116 28.7123 136.036 28.4551 135.9 28.221C135.677 27.8371 135.36 27.5698 134.912 27.4755C134.865 27.4657 134.817 27.4582 134.769 27.4574C134.498 27.453 134.226 27.448 133.955 27.4492C133.802 27.4499 133.783 27.4739 133.777 27.6288C133.776 27.6585 133.777 27.6884 133.777 27.7183C133.777 29.7862 133.777 31.8539 133.777 33.9218C133.777 34.029 133.784 34.1363 133.782 34.2435C133.774 34.6834 134.065 34.8641 134.432 34.9137C134.55 34.9298 134.673 34.9182 134.793 34.9253C134.924 34.933 134.963 34.9881 134.942 35.1116C134.933 35.1672 134.902 35.1969 134.848 35.2028C134.8 35.2082 134.752 35.21 134.704 35.21C133.402 35.2103 132.1 35.2103 130.798 35.2101C130.761 35.2101 130.725 35.2114 130.689 35.208C130.575 35.1971 130.548 35.169 130.548 35.0663C130.549 34.9641 130.576 34.9334 130.69 34.9257C130.792 34.9189 130.895 34.9199 130.998 34.9192C131.133 34.9182 131.258 34.879 131.379 34.8199C131.535 34.7434 131.628 34.6188 131.671 34.4542C131.704 34.332 131.71 34.2073 131.711 34.0819C131.712 33.5396 131.713 32.9973 131.713 32.455C131.713 30.876 131.713 29.2967 131.713 27.7176C131.713 27.4483 131.712 27.4472 131.445 27.4478C131.198 27.4481 130.95 27.437 130.704 27.465C130.135 27.5295 129.763 27.8562 129.519 28.3484C129.413 28.5635 129.335 28.7882 129.292 29.0247C129.282 29.0814 129.279 29.1459 129.219 29.1813C129.114 29.2437 128.998 29.1825 128.993 29.0577C128.988 28.9149 128.991 28.7716 128.991 28.6286C128.991 28.14 128.991 27.6514 128.991 27.1628C128.991 26.9135 128.994 26.9107 129.241 26.9107C130.411 26.9101 131.58 26.9105 132.75 26.9105V26.9107Z" fill="white"/>
<path d="M139.099 21.2008C139.099 21.4078 139.1 21.615 139.098 21.822C139.098 21.886 139.055 21.9313 139.012 21.9742C138.283 22.7022 137.426 23.1586 136.374 23.2425C135.656 23.2998 134.954 23.2468 134.264 23.0482C133.31 22.7733 132.53 22.2472 131.99 21.4137C131.552 20.7385 131.321 19.9981 131.304 19.1871C131.28 18.0404 131.665 17.0416 132.402 16.1805C133.162 15.2936 134.149 14.7948 135.316 14.6414C136.176 14.5282 136.994 14.6935 137.791 15.0014C137.965 15.0687 138.138 15.1374 138.322 15.1782C138.585 15.2367 138.783 15.1404 138.89 14.8939C138.914 14.8395 138.926 14.7805 138.945 14.7239C138.978 14.6227 139.025 14.5976 139.135 14.6107C139.233 14.6223 139.244 14.6883 139.245 14.7649C139.245 14.8007 139.246 14.8365 139.246 14.8721C139.246 15.6586 139.246 16.4452 139.246 17.2318C139.246 17.2734 139.244 17.3151 139.244 17.3568C139.245 17.4359 139.226 17.4998 139.129 17.5055C139.045 17.5103 138.971 17.4994 138.944 17.4037C138.931 17.3579 138.917 17.3121 138.904 17.2663C138.755 16.766 138.518 16.3145 138.138 15.9473C137.629 15.4541 137.011 15.1855 136.299 15.197C135.361 15.212 134.637 15.638 134.136 16.4188C133.871 16.8319 133.73 17.2981 133.649 17.7755C133.475 18.8012 133.536 19.8174 133.834 20.8165C133.972 21.2799 134.191 21.6983 134.546 22.0427C134.868 22.3557 135.256 22.5328 135.693 22.6053C136.43 22.7274 137.135 22.6298 137.79 22.2608C138.16 22.0526 138.47 21.7699 138.765 21.4693C138.859 21.3724 138.954 21.2754 139.049 21.1784C139.066 21.1859 139.082 21.1934 139.098 21.201L139.099 21.2008Z" fill="white"/>
<path d="M119.705 21.1763C119.717 21.4148 119.72 21.6318 119.704 21.8492C119.7 21.8985 119.662 21.9338 119.628 21.9681C118.904 22.7028 118.045 23.1552 116.994 23.2415C116.283 23.2998 115.586 23.249 114.901 23.0556C113.912 22.7765 113.113 22.229 112.566 21.3616C112.16 20.7191 111.941 20.0135 111.916 19.2494C111.879 18.066 112.277 17.0385 113.043 16.1452C113.552 15.5505 114.197 15.1399 114.935 14.8731C115.515 14.664 116.115 14.5765 116.729 14.6116C117.306 14.6443 117.859 14.7865 118.394 14.9978C118.573 15.0685 118.754 15.134 118.942 15.1791C119.192 15.2392 119.397 15.1372 119.497 14.9023C119.523 14.8424 119.537 14.7774 119.559 14.7157C119.592 14.625 119.638 14.6017 119.74 14.6105C119.836 14.6187 119.857 14.6788 119.856 14.7586C119.855 14.8003 119.856 14.842 119.856 14.8837C119.856 15.6641 119.856 16.4447 119.856 17.2251C119.856 17.2727 119.855 17.3205 119.855 17.3681C119.855 17.4416 119.833 17.4978 119.747 17.5044C119.665 17.5107 119.587 17.5057 119.556 17.411C119.539 17.36 119.527 17.308 119.511 17.2566C119.358 16.7589 119.127 16.3043 118.744 15.9389C118.245 15.4639 117.647 15.1959 116.955 15.197C115.979 15.1984 115.227 15.6324 114.726 16.4572C114.404 16.9863 114.264 17.5789 114.204 18.1902C114.122 19.0164 114.182 19.8316 114.395 20.6349C114.477 20.9471 114.589 21.2475 114.754 21.5284C115.125 22.1585 115.673 22.5199 116.403 22.6181C117.106 22.7128 117.771 22.6113 118.393 22.2641C118.62 22.1374 118.825 21.9819 119.019 21.8112C119.19 21.6608 119.357 21.5065 119.506 21.3339C119.552 21.2808 119.595 21.221 119.704 21.1759L119.705 21.1763Z" fill="white"/>
<path d="M163.3 35.2113C162.727 35.2113 162.155 35.2113 161.582 35.2113C161.534 35.2113 161.485 35.2125 161.437 35.2105C161.293 35.2043 161.262 35.1776 161.264 35.0647C161.266 34.9547 161.295 34.9313 161.445 34.9248C161.523 34.9214 161.602 34.922 161.68 34.9191C161.722 34.9177 161.764 34.9155 161.806 34.9092C162.189 34.8511 162.325 34.6484 162.188 34.2927C162.016 33.8478 161.817 33.4126 161.635 32.9714C161.591 32.8657 161.512 32.8567 161.416 32.8571C160.958 32.8584 160.5 32.8576 160.042 32.8576C159.65 32.8576 159.258 32.8619 158.866 32.8553C158.734 32.8532 158.651 32.8916 158.603 33.0178C158.478 33.3402 158.31 33.6454 158.21 33.978C158.175 34.0939 158.161 34.2109 158.165 34.3308C158.172 34.5851 158.317 34.7735 158.567 34.8395C158.742 34.8858 158.921 34.908 159.102 34.9202C159.17 34.9248 159.234 34.9355 159.251 35.02C159.276 35.1426 159.235 35.1986 159.107 35.21C159.089 35.2116 159.071 35.2113 159.052 35.2113C158.245 35.2113 157.437 35.2118 156.629 35.2105C156.553 35.2105 156.466 35.224 156.437 35.1205C156.409 35.0205 156.446 34.9483 156.551 34.9169C156.667 34.8828 156.783 34.8497 156.889 34.7921C157.079 34.6895 157.223 34.5412 157.343 34.3652C157.577 34.0226 157.749 33.6483 157.92 33.2734C158.267 32.5131 158.61 31.7511 158.954 30.9896C159.392 30.0215 159.83 29.0532 160.268 28.0851C160.445 27.6937 160.624 27.3027 160.802 26.9116C160.817 26.8791 160.832 26.8458 160.853 26.8168C160.914 26.73 161 26.7298 161.053 26.8216C161.1 26.9043 161.137 26.9932 161.175 27.0805C161.68 28.215 162.183 29.35 162.688 30.4843C163.168 31.5641 163.651 32.6428 164.133 33.722C164.252 33.9896 164.392 34.246 164.552 34.4926C164.703 34.7266 164.905 34.8801 165.189 34.9157C165.278 34.927 165.335 34.9604 165.333 35.0611C165.332 35.1669 165.309 35.1978 165.199 35.2082C165.145 35.2132 165.09 35.2111 165.036 35.2111C164.457 35.2111 163.878 35.2111 163.3 35.2111L163.3 35.2113ZM160.153 29.6746C160.111 29.6884 160.101 29.717 160.089 29.7438C159.732 30.5371 159.374 31.3301 159.018 32.1239C158.914 32.3554 158.925 32.3705 159.183 32.371C159.814 32.3726 160.446 32.3715 161.078 32.3714C161.12 32.3714 161.163 32.3719 161.204 32.3662C161.314 32.351 161.329 32.325 161.294 32.2263C161.288 32.2094 161.279 32.1939 161.272 32.1776C160.93 31.397 160.589 30.6162 160.246 29.8361C160.221 29.7787 160.206 29.7127 160.153 29.6746Z" fill="white"/>
<path d="M157.143 23.086C156.565 23.086 155.986 23.086 155.408 23.086C155.353 23.086 155.299 23.0851 155.245 23.0835C155.16 23.0808 155.111 23.0434 155.111 22.952C155.111 22.8487 155.136 22.8153 155.247 22.8054C155.331 22.7979 155.416 22.799 155.5 22.7979C155.616 22.7965 155.729 22.7786 155.837 22.74C156.026 22.6729 156.113 22.5321 156.082 22.3358C156.07 22.2601 156.047 22.1841 156.017 22.1132C155.842 21.6953 155.659 21.28 155.486 20.8612C155.445 20.761 155.381 20.7306 155.279 20.7308C154.411 20.7329 153.543 20.7336 152.675 20.73C152.554 20.7295 152.491 20.7767 152.447 20.8866C152.343 21.1469 152.227 21.4022 152.118 21.6608C152.046 21.8329 152.004 22.0113 152.01 22.1998C152.019 22.463 152.148 22.6378 152.404 22.7135C152.583 22.7666 152.77 22.7825 152.956 22.7985C153.036 22.8053 153.096 22.8276 153.1 22.9226C153.105 23.0341 153.075 23.0735 152.96 23.084C152.918 23.088 152.876 23.0862 152.834 23.0862C152.075 23.0862 151.315 23.0863 150.556 23.0862C150.508 23.0862 150.46 23.0851 150.411 23.0833C150.335 23.0803 150.285 23.0464 150.28 22.9659C150.275 22.8888 150.29 22.8219 150.379 22.7988C150.537 22.7577 150.688 22.7044 150.827 22.6147C151.009 22.4974 151.138 22.3371 151.248 22.1565C151.486 21.7679 151.671 21.3543 151.859 20.9412C152.371 19.811 152.884 18.6808 153.397 17.5504C153.798 16.6646 154.199 15.7786 154.601 14.8928C154.633 14.8221 154.663 14.7497 154.704 14.6844C154.757 14.6008 154.836 14.6014 154.89 14.6849C154.928 14.745 154.955 14.8121 154.984 14.8774C155.647 16.3653 156.309 17.8533 156.971 19.3415C157.301 20.0829 157.63 20.8249 157.961 21.5654C158.071 21.8105 158.196 22.0485 158.335 22.2793C158.499 22.553 158.713 22.7534 159.05 22.7978C159.159 22.8122 159.182 22.8527 159.177 22.9547C159.172 23.052 159.144 23.0822 159.023 23.0837C158.692 23.0878 158.36 23.0858 158.029 23.086C157.734 23.086 157.438 23.086 157.143 23.086ZM154.003 17.5509C153.95 17.5606 153.94 17.598 153.926 17.6295C153.566 18.4294 153.205 19.229 152.846 20.0298C152.752 20.24 152.761 20.2495 152.987 20.2498C153.65 20.2506 154.313 20.2502 154.977 20.25C155.019 20.25 155.061 20.2502 155.103 20.2461C155.156 20.2407 155.176 20.2092 155.16 20.1588C155.149 20.1248 155.136 20.0915 155.122 20.0588C154.783 19.2819 154.445 18.5051 154.105 17.7288C154.077 17.6653 154.057 17.5951 154.003 17.5511L154.003 17.5509Z" fill="white"/>
<path d="M96.6714 23.0857C95.5384 23.0857 94.4053 23.0857 93.2724 23.0857C93.2181 23.0857 93.1636 23.0878 93.1097 23.0837C92.992 23.0746 92.9661 23.0486 92.9648 22.9467C92.9634 22.8432 92.9898 22.8148 93.1038 22.8041C93.1455 22.8001 93.1881 22.8026 93.2302 22.8014C93.3145 22.7989 93.4002 22.8046 93.4829 22.7917C93.8727 22.7307 94.0576 22.5615 94.103 22.2258C94.1175 22.119 94.1246 22.0124 94.1246 21.9054C94.1251 19.9275 94.1253 17.9496 94.1246 15.9717C94.1246 15.8706 94.1191 15.7692 94.1101 15.6684C94.081 15.343 93.9154 15.1559 93.4894 15.0848C93.3659 15.0643 93.2367 15.0789 93.1105 15.0709C92.9864 15.063 92.9523 15.0154 92.9656 14.8979C92.9728 14.8336 93.0066 14.8002 93.0683 14.7946C93.1222 14.7896 93.1765 14.7885 93.2307 14.7885C94.5446 14.7882 95.8584 14.7882 97.1721 14.7885C97.2202 14.7885 97.2685 14.7896 97.3167 14.7912C97.4029 14.7941 97.4502 14.8354 97.452 14.924C97.454 15.0204 97.4194 15.0634 97.3127 15.0702C97.1985 15.0773 97.0838 15.0737 96.9693 15.0748C96.8543 15.0759 96.7427 15.0918 96.6318 15.1271C96.364 15.2122 96.2269 15.3999 96.2021 15.6665C96.1806 15.8975 96.1676 16.13 96.1672 16.3619C96.1643 18.0061 96.1645 19.6505 96.1672 21.2947C96.1676 21.5327 96.1822 21.7708 96.1985 22.0083C96.2228 22.365 96.3816 22.5191 96.741 22.5493C97.2946 22.596 97.849 22.5997 98.4008 22.5395C98.8942 22.4856 99.3032 22.2639 99.62 21.8782C99.9178 21.5155 100.098 21.0949 100.254 20.6616C100.303 20.527 100.347 20.3907 100.392 20.2549C100.415 20.1846 100.46 20.1497 100.538 20.1461C100.677 20.1399 100.71 20.1683 100.695 20.3075C100.623 20.9822 100.549 21.6567 100.476 22.3314C100.457 22.5089 100.443 22.6871 100.425 22.8647C100.405 23.0638 100.384 23.0851 100.179 23.0853C99.0102 23.0862 97.8411 23.0857 96.6718 23.0859L96.6714 23.0857Z" fill="white"/>
<path d="M104.564 27.6265C97.981 27.6265 91.3976 27.6265 84.8142 27.6265C84.7358 27.6265 84.6573 27.6263 84.5792 27.622C84.5088 27.6181 84.4694 27.5796 84.4674 27.5077C84.467 27.4957 84.4658 27.4839 84.4658 27.4719C84.4645 27.1173 84.4383 27.1289 84.7865 27.1289C97.9654 27.1289 111.144 27.1289 124.323 27.1289C124.329 27.1289 124.335 27.1289 124.341 27.1289C124.669 27.1293 124.713 27.1835 124.665 27.5104C124.654 27.5819 124.619 27.6188 124.549 27.6222C124.471 27.626 124.393 27.6263 124.314 27.6263C117.731 27.6263 111.148 27.6263 104.564 27.6263L104.564 27.6265Z" fill="white"/>
<path d="M60.408 33.8575C60.408 33.1547 60.4074 32.4518 60.408 31.749C60.4081 31.5257 60.4257 31.5166 60.6256 31.6305C61.862 32.3362 63.0977 33.0433 64.3361 33.7457C64.4555 33.8135 64.5051 33.8942 64.5047 34.0303C64.5011 35.4419 64.5025 36.8536 64.5022 38.2654C64.5022 38.301 64.5031 38.3373 64.4973 38.3724C64.4832 38.4558 64.4506 38.4767 64.3727 38.437C64.239 38.3688 64.1095 38.2922 63.9792 38.2178C62.8577 37.5775 61.7377 36.9341 60.6127 36.2997C60.4622 36.2147 60.4024 36.1195 60.4043 35.9483C60.4128 35.2514 60.4078 34.5545 60.4078 33.8577L60.408 33.8575Z" fill="white"/>
<path d="M64.9247 27.443C64.8668 27.4392 64.8232 27.405 64.7767 27.3786C64.0929 26.9896 63.4093 26.6003 62.726 26.2102C62.1627 25.8887 61.5996 25.5671 61.0374 25.2436C60.846 25.1334 60.8482 25.1167 61.0365 25.0092C62.0278 24.444 63.0185 23.8783 64.0097 23.3127C64.2548 23.1728 64.5023 23.0369 64.7441 22.8916C64.8642 22.8195 64.9626 22.8127 65.092 22.8875C65.9965 23.4108 66.9058 23.9255 67.8141 24.4424C68.1325 24.6236 68.4519 24.8031 68.7705 24.9838C68.8175 25.0105 68.8635 25.0389 68.9091 25.0679C68.9765 25.1106 68.9651 25.1507 68.9033 25.1879C68.857 25.2157 68.811 25.2441 68.764 25.2709C67.7524 25.849 66.7408 26.4269 65.7293 27.005C65.5102 27.13 65.2917 27.256 65.0723 27.3805C65.0256 27.407 64.98 27.4376 64.9248 27.443H64.9247Z" fill="white"/>
<path d="M160.945 18.938C160.945 17.9552 160.945 16.9725 160.944 15.9897C160.944 15.9063 160.94 15.8229 160.94 15.7396C160.943 15.3109 160.657 15.135 160.314 15.0849C160.19 15.0668 160.062 15.0767 159.935 15.0708C159.867 15.0676 159.803 15.0554 159.787 14.9704C159.765 14.8577 159.804 14.8015 159.922 14.791C159.97 14.7867 160.018 14.7888 160.066 14.7888C161.338 14.7888 162.609 14.7888 163.881 14.7888C163.935 14.7888 163.989 14.7901 164.043 14.7917C164.13 14.7944 164.175 14.8348 164.175 14.925C164.174 15.0275 164.149 15.0626 164.038 15.0704C163.93 15.0781 163.821 15.0763 163.712 15.0778C163.557 15.0797 163.417 15.1325 163.286 15.2098C163.161 15.2839 163.088 15.3987 163.052 15.5361C163.021 15.6519 163.011 15.7703 163.011 15.8902C163.011 16.8016 163.01 17.7128 163.01 18.6242C163.009 19.6606 163.009 20.6971 163.01 21.7334C163.01 21.8584 163.01 21.9837 163.016 22.1085C163.039 22.537 163.279 22.7739 163.712 22.7963C163.826 22.8022 163.941 22.8013 164.055 22.8065C164.134 22.8101 164.172 22.8532 164.174 22.9333C164.176 23.0378 164.151 23.0711 164.042 23.0829C163.994 23.0881 163.946 23.0861 163.897 23.0861C162.62 23.0861 161.342 23.0861 160.065 23.0861C160.017 23.0861 159.968 23.0881 159.92 23.0838C159.81 23.0738 159.784 23.0425 159.783 22.9389C159.782 22.8489 159.826 22.807 159.913 22.8047C159.998 22.8024 160.082 22.802 160.166 22.7999C160.25 22.7979 160.334 22.795 160.417 22.7734C160.759 22.6843 160.916 22.5032 160.936 22.1547C160.947 21.9527 160.946 21.7498 160.946 21.5473C160.947 20.6776 160.947 19.8081 160.947 18.9384C160.946 18.9384 160.945 18.9384 160.944 18.9384L160.945 18.938Z" fill="white"/>
<path d="M79.3363 17.0573C79.3363 17.6946 79.3276 18.3319 79.3414 18.9688C79.3457 19.1699 79.2773 19.2784 79.1033 19.3762C77.9257 20.0391 76.754 20.7124 75.5804 21.3822C75.5283 21.4119 75.4778 21.4447 75.4252 21.4736C75.2763 21.5552 75.2486 21.5405 75.2421 21.3788C75.2412 21.355 75.2417 21.3312 75.2417 21.3074C75.2417 20.0092 75.2439 18.7108 75.2383 17.4126C75.2376 17.2502 75.2884 17.1523 75.4337 17.0702C76.6675 16.3728 77.8973 15.6681 79.129 14.9669C79.1835 14.9359 79.2401 14.8649 79.305 14.9075C79.3649 14.9467 79.3352 15.029 79.3354 15.0921C79.337 15.7471 79.3365 16.4023 79.3365 17.0573H79.3361H79.3363Z" fill="white"/>
<path d="M59.5494 17.0567C59.5494 17.694 59.5407 18.3313 59.5545 18.9682C59.5588 19.1689 59.4917 19.2784 59.3171 19.3759C58.3683 19.9066 57.4266 20.4494 56.4823 20.9878C56.2006 21.1484 55.919 21.3093 55.6366 21.4689C55.48 21.5574 55.4557 21.5442 55.455 21.361C55.4532 20.9083 55.4545 20.4559 55.4545 20.0032C55.4545 19.1398 55.4581 18.2762 55.4512 17.4127C55.4499 17.2497 55.5024 17.1549 55.6482 17.0726C56.7781 16.4351 57.9031 15.7894 59.0295 15.1461C59.1339 15.0865 59.2363 15.0235 59.3421 14.9668C59.3976 14.9371 59.4535 14.8652 59.5183 14.907C59.5787 14.946 59.548 15.0283 59.5483 15.0913C59.5505 15.4427 59.5494 15.7941 59.5494 16.1453C59.5494 16.4491 59.5494 16.7527 59.5494 17.0565V17.0567Z" fill="white"/>
<path d="M74.3841 19.3429C74.3841 20.0041 74.3847 20.6654 74.3839 21.3269C74.3838 21.55 74.3658 21.5594 74.166 21.4455C72.9239 20.737 71.6826 20.027 70.4389 19.3214C70.3299 19.2595 70.2866 19.1815 70.2892 19.0622C70.2931 18.8596 70.2901 18.6571 70.2899 18.4546C70.2899 17.3525 70.2895 16.2502 70.2895 15.1481C70.2895 14.848 70.2946 14.8436 70.5507 14.9897C71.3545 15.4483 72.1569 15.9088 72.9601 16.3683C73.3825 16.61 73.8029 16.8553 74.2293 17.0898C74.3458 17.1539 74.3872 17.2312 74.3863 17.3593C74.3816 18.0205 74.3841 18.6818 74.3841 19.3431V19.3429Z" fill="white"/>
<path d="M64.5005 30.7574C64.5005 31.3532 64.5005 31.9488 64.5005 32.5446C64.5005 32.5922 64.502 32.64 64.4992 32.6876C64.4909 32.8309 64.4658 32.8472 64.3363 32.7742C63.8703 32.5121 63.4061 32.2465 62.9415 31.9818C62.3516 31.6458 61.7619 31.3094 61.1722 30.973C61.1096 30.9373 61.0461 30.9029 60.9853 30.8643C60.8634 30.7871 60.8627 30.7576 60.9928 30.683C61.6234 30.3216 62.2556 29.9625 62.8871 29.6026C63.362 29.3317 63.8363 29.0596 64.3118 28.7901C64.4831 28.693 64.4996 28.7028 64.5001 28.8985C64.5014 29.5181 64.5005 30.1377 64.5007 30.7573L64.5005 30.7574Z" fill="white"/>
<path d="M60.406 27.9381C60.406 27.3251 60.4057 26.712 60.406 26.099C60.406 25.874 60.4169 25.8679 60.6055 25.9756C61.6844 26.5916 62.7636 27.2072 63.8421 27.8239C64.0616 27.9495 64.0594 27.9553 63.8347 28.0835C62.7714 28.6906 61.7088 29.2993 60.6446 29.9047C60.5806 29.941 60.5147 30.0264 60.4379 29.9788C60.3738 29.9392 60.4071 29.8462 60.4069 29.777C60.4051 29.164 60.4058 28.5509 60.4058 27.9379L60.406 27.9381Z" fill="white"/>
<path d="M60.4076 22.2907C60.4076 21.6715 60.4072 21.0523 60.4077 20.4331C60.4079 20.2323 60.4195 20.2254 60.5894 20.3222C61.6749 20.9398 62.7605 21.5577 63.8453 22.1764C64.0664 22.3026 64.0646 22.3067 63.8401 22.4349C62.8077 23.0246 61.7757 23.6151 60.7435 24.2049C60.6757 24.2438 60.6084 24.2837 60.5384 24.318C60.439 24.3669 60.4153 24.3513 60.4077 24.2377C60.405 24.1962 60.4068 24.1543 60.4068 24.1126C60.4068 23.5052 60.4068 22.898 60.4068 22.2906H60.4072L60.4076 22.2907Z" fill="white"/>
<path d="M65.3602 30.7783C65.3602 30.1587 65.3598 29.5391 65.3604 28.9195C65.3605 28.6993 65.3727 28.6935 65.5635 28.8025C66.6279 29.4103 67.6928 30.017 68.7563 30.6264C68.8267 30.6668 68.943 30.6877 68.947 30.7713C68.9513 30.8607 68.8319 30.8792 68.7628 30.9189C67.6999 31.529 66.6351 32.136 65.57 32.7425C65.5149 32.7739 65.457 32.8415 65.3926 32.8025C65.33 32.7646 65.3615 32.6817 65.3613 32.6191C65.3595 32.0054 65.3602 31.3919 65.3602 30.7783Z" fill="white"/>
<path d="M69.4305 27.9456C69.4305 28.565 69.4311 29.1844 69.4302 29.8037C69.4298 30.0257 69.4162 30.033 69.2278 29.925C68.1438 29.3039 67.0599 28.6829 65.976 28.0619C65.9552 28.0499 65.9335 28.0394 65.913 28.0267C65.8047 27.9591 65.8038 27.9381 65.9181 27.8726C66.6789 27.4368 67.4403 27.0017 68.2019 26.5669C68.5514 26.3674 68.9014 26.169 69.2515 25.9704C69.2827 25.9527 69.3133 25.9329 69.3464 25.9193C69.388 25.9021 69.4193 25.9185 69.4244 25.9627C69.4304 26.0157 69.4305 26.0695 69.4305 26.123C69.4309 26.7305 69.4307 27.338 69.4305 27.9455V27.9456Z" fill="white"/>
<path d="M69.3913 20.2454C69.4387 20.2973 69.43 20.3342 69.43 20.3693C69.4299 21.6268 69.4297 22.8842 69.4281 24.1418C69.4281 24.2057 69.457 24.2912 69.3997 24.3277C69.3293 24.3724 69.2669 24.2969 69.207 24.2628C68.152 23.6622 67.0978 23.0599 66.0435 22.4579C66.0017 22.4341 65.9601 22.4099 65.9194 22.3844C65.8043 22.3117 65.804 22.2892 65.9277 22.2185C66.8045 21.7175 67.6819 21.2178 68.559 20.7174C68.7522 20.6072 68.9449 20.4961 69.1381 20.3861C69.2209 20.339 69.3045 20.2936 69.3915 20.2453L69.3913 20.2454Z" fill="white"/>
<path d="M85.7739 32.8015C85.7739 33.0575 85.7716 33.3137 85.7748 33.5697C85.7766 33.7168 85.792 33.7279 85.9434 33.7372C86.0802 33.7456 86.1548 33.8166 86.1674 33.9501C86.1802 34.0868 86.2028 34.0993 86.315 34.0152C86.6724 33.7476 86.9089 33.4094 86.9259 32.951C86.9327 32.7648 86.9143 32.7499 86.7216 32.7471C86.6193 32.7456 86.5165 32.7501 86.4145 32.7442C86.3016 32.7378 86.283 32.7152 86.2737 32.602C86.2718 32.5784 86.2723 32.5544 86.2727 32.5306C86.2757 32.3749 86.2947 32.3499 86.4481 32.349C86.9302 32.3463 87.4121 32.3476 87.8942 32.349C87.9592 32.349 88.0371 32.3404 88.0639 32.4191C88.095 32.5107 88.0993 32.6081 88.0585 32.6982C88.0357 32.7485 87.9787 32.7451 87.9308 32.7456C87.8043 32.7472 87.6775 32.7438 87.5512 32.7485C87.4255 32.7531 87.4022 32.7739 87.4062 32.8997C87.4157 33.2013 87.5297 33.4667 87.7095 33.7069C87.8074 33.8377 87.9262 33.9447 88.0646 34.0331C88.1619 34.0952 88.1641 34.1133 88.0843 34.197C87.8588 34.4337 87.8817 34.4199 87.6527 34.2455C87.5075 34.1347 87.3978 33.9934 87.2947 33.846C87.2707 33.8116 87.2493 33.7755 87.2234 33.7427C87.1878 33.6975 87.1536 33.705 87.1245 33.7513C87.1024 33.7867 87.0804 33.8223 87.0585 33.8579C86.9286 34.0696 86.7524 34.2406 86.5626 34.3981C86.4402 34.4997 86.417 34.4958 86.3041 34.3916C86.2381 34.3308 86.1723 34.2691 86.1122 34.2027C86.0728 34.1589 86.0284 34.1401 85.9713 34.1362C85.817 34.1256 85.779 34.1574 85.7741 34.3126C85.7714 34.4018 85.7721 34.4911 85.7712 34.5806C85.7705 34.6681 85.726 34.7121 85.6372 34.7121C85.625 34.7121 85.6131 34.7126 85.601 34.7132C85.3506 34.7246 85.334 34.709 85.3327 34.462C85.3324 34.4024 85.3349 34.3426 85.3311 34.2834C85.3235 34.1612 85.3054 34.1396 85.1771 34.1372C84.9302 34.1328 84.6831 34.136 84.436 34.1345C84.3821 34.1342 84.3277 34.1315 84.2743 34.1236C84.2218 34.1159 84.1846 34.0825 84.1799 34.0295C84.1681 33.8989 84.1591 33.7697 84.2311 33.6474C84.5493 33.107 84.8631 32.5642 85.1817 32.0241C85.2813 31.8552 85.4932 31.7895 85.6806 31.8573C85.758 31.8852 85.7707 31.9477 85.7714 32.0153C85.7734 32.2059 85.7728 32.3966 85.7734 32.5871C85.7734 32.6585 85.7734 32.7301 85.7734 32.8015H85.7737H85.7739ZM85.332 32.6467C85.2618 32.6612 85.2531 32.6995 85.2359 32.7286C85.1055 32.9487 84.976 33.1691 84.8467 33.3899C84.7985 33.472 84.7506 33.5541 84.7054 33.6379C84.6768 33.6907 84.6857 33.7338 84.756 33.7348C84.912 33.737 85.0679 33.7361 85.2238 33.734C85.2976 33.7329 85.3315 33.6882 85.3316 33.6187C85.3324 33.2992 85.332 32.9797 85.332 32.6467Z" fill="white"/>
<path d="M110.543 34.7403C110.115 34.7403 109.687 34.7415 109.26 34.7396C109.057 34.7387 108.976 34.6132 109.046 34.4209C109.072 34.3488 109.132 34.3452 109.193 34.3449C109.386 34.3438 109.578 34.344 109.771 34.3438C109.898 34.3438 110.024 34.3461 110.151 34.3425C110.299 34.3386 110.324 34.3177 110.327 34.179C110.334 33.8096 110.335 33.8539 110.013 33.8514C109.875 33.8504 109.736 33.8546 109.598 33.8486C109.473 33.8432 109.435 33.8087 109.433 33.6847C109.428 33.399 109.428 33.1131 109.433 32.8273C109.435 32.6869 109.478 32.647 109.617 32.638C109.713 32.632 109.81 32.6354 109.906 32.6352C110.28 32.635 110.653 32.6361 111.027 32.6339C111.096 32.6336 111.188 32.6575 111.217 32.5727C111.253 32.4716 111.254 32.3598 111.214 32.258C111.191 32.1993 111.122 32.2106 111.069 32.2101C110.876 32.2085 110.684 32.2092 110.491 32.209C110.208 32.209 109.925 32.2104 109.641 32.2079C109.573 32.2074 109.483 32.2332 109.448 32.1503C109.411 32.0616 109.418 31.9634 109.447 31.8707C109.459 31.8322 109.499 31.8224 109.535 31.8188C109.583 31.8141 109.632 31.8134 109.68 31.8132C110.246 31.8129 110.812 31.8131 111.378 31.8132C111.421 31.8132 111.463 31.8122 111.505 31.817C111.617 31.8301 111.666 31.8649 111.668 31.9709C111.674 32.2743 111.675 32.5781 111.667 32.8815C111.664 32.9987 111.614 33.0279 111.465 33.0288C111.073 33.0313 110.682 33.0297 110.29 33.03C110.194 33.03 110.098 33.0318 110.001 33.0313C109.911 33.0308 109.872 33.0757 109.87 33.1631C109.861 33.4802 109.886 33.4546 110.132 33.4546C110.584 33.4546 111.036 33.4546 111.488 33.4546C111.536 33.4546 111.584 33.4555 111.632 33.4582C111.704 33.4621 111.741 33.5018 111.745 33.572C111.747 33.6076 111.749 33.6434 111.748 33.679C111.743 33.8235 111.723 33.8464 111.579 33.8495C111.398 33.8534 111.218 33.8505 111.037 33.8509C110.989 33.8509 110.941 33.8521 110.892 33.8536C110.821 33.8559 110.78 33.8913 110.778 33.9638C110.777 34.0411 110.773 34.1187 110.777 34.1958C110.783 34.3209 110.799 34.3391 110.929 34.3413C111.176 34.3452 111.423 34.3427 111.67 34.3431C111.754 34.3431 111.838 34.3404 111.923 34.3449C112.046 34.3517 112.065 34.3731 112.073 34.497C112.075 34.5326 112.073 34.5683 112.071 34.6041C112.069 34.692 112.02 34.7328 111.934 34.7363C111.886 34.7383 111.838 34.7394 111.79 34.7394C111.374 34.7396 110.958 34.7394 110.543 34.7394V34.7403Z" fill="white"/>
<path d="M123.518 33.7407C123.102 33.7407 122.686 33.7409 122.27 33.7407C122.222 33.7407 122.174 33.7406 122.126 33.7363C122.065 33.7307 122.026 33.6992 122.021 33.6347C122.02 33.6109 122.019 33.5871 122.018 33.5633C122.013 33.3682 122.034 33.345 122.228 33.3437C122.499 33.3419 122.77 33.3434 123.042 33.3432C123.084 33.3432 123.126 33.3419 123.168 33.3409C123.251 33.3389 123.285 33.2933 123.286 33.2151C123.289 33.119 123.261 33.0768 123.17 33.0705C123.062 33.0632 122.953 33.0668 122.845 33.0662C122.706 33.0655 122.567 33.0691 122.429 33.0641C122.303 33.0596 122.284 33.0369 122.275 32.9156C122.273 32.8859 122.273 32.856 122.275 32.8263C122.283 32.7014 122.302 32.6818 122.423 32.6712C122.435 32.6701 122.447 32.6707 122.46 32.6701C122.629 32.6627 122.712 32.5726 122.71 32.3998C122.709 32.364 122.707 32.3284 122.706 32.2926C122.704 32.213 122.661 32.1735 122.581 32.1711C122.545 32.1701 122.509 32.1679 122.473 32.1668C122.383 32.1643 122.342 32.1173 122.343 32.0307C122.344 31.9831 122.343 31.9353 122.346 31.8879C122.349 31.8176 122.386 31.7779 122.458 31.7741C122.5 31.7718 122.542 31.7707 122.584 31.7707C123.211 31.7705 123.838 31.7707 124.465 31.7707C124.501 31.7707 124.537 31.7725 124.573 31.7727C124.664 31.7732 124.703 31.8226 124.703 31.908C124.703 31.9377 124.705 31.9675 124.704 31.9972C124.699 32.1407 124.684 32.1557 124.535 32.1686C124.342 32.1853 124.339 32.189 124.336 32.3831C124.336 32.401 124.336 32.4189 124.336 32.4368C124.337 32.6592 124.341 32.6615 124.569 32.6705C124.639 32.6732 124.729 32.6499 124.759 32.736C124.79 32.8258 124.793 32.9256 124.752 33.0151C124.725 33.0716 124.66 33.0645 124.607 33.065C124.42 33.0664 124.233 33.0659 124.046 33.0662C123.998 33.0662 123.95 33.0643 123.902 33.0679C123.788 33.0763 123.761 33.1045 123.763 33.2092C123.764 33.3101 123.791 33.3396 123.91 33.3412C124.193 33.345 124.476 33.3427 124.759 33.3434C124.814 33.3434 124.868 33.3439 124.922 33.3477C124.985 33.3521 125.021 33.3874 125.027 33.4497C125.029 33.4733 125.03 33.4972 125.031 33.521C125.037 33.7128 125.015 33.7395 124.82 33.7402C124.386 33.742 123.952 33.7407 123.518 33.7409L123.518 33.7407ZM123.527 32.1695C123.126 32.1692 123.108 32.1871 123.149 32.5404C123.15 32.5463 123.15 32.5522 123.15 32.5581C123.154 32.6308 123.196 32.6653 123.266 32.6667C123.368 32.6689 123.471 32.6696 123.573 32.6696C123.801 32.6697 123.91 32.5579 123.899 32.3343C123.892 32.1928 123.875 32.1754 123.726 32.1699C123.66 32.1674 123.593 32.1695 123.527 32.1695H123.527Z" fill="white"/>
<path d="M101.87 32.7325C101.87 33.0064 101.872 33.2803 101.869 33.5541C101.867 33.7301 101.848 33.7469 101.67 33.7491C101.628 33.7496 101.586 33.748 101.544 33.7457C101.471 33.7418 101.435 33.7004 101.434 33.6305C101.432 33.5353 101.433 33.4399 101.43 33.3447C101.425 33.1909 101.408 33.1755 101.248 33.1705C101.188 33.1685 101.128 33.1692 101.068 33.1701C100.904 33.1728 100.901 33.1723 100.86 33.3397C100.839 33.4267 100.784 33.4555 100.704 33.4571C100.596 33.4593 100.488 33.4593 100.379 33.4594C100.096 33.4594 99.8129 33.4618 99.5299 33.4582C99.3606 33.456 99.3313 33.4267 99.3302 33.2565C99.3275 32.8399 99.3273 32.423 99.3302 32.0063C99.3313 31.8494 99.3632 31.8174 99.5232 31.8156C99.8906 31.8116 100.258 31.8124 100.625 31.8149C100.806 31.8161 100.814 31.8238 100.866 32.0045C100.884 32.0668 100.919 32.0943 100.98 32.0968C101.028 32.0988 101.076 32.0995 101.125 32.0997C101.402 32.1006 101.404 32.1006 101.431 31.8324C101.439 31.7467 101.473 31.6989 101.563 31.6986C101.575 31.6986 101.587 31.6977 101.599 31.6971C101.849 31.6841 101.869 31.7023 101.87 31.9469C101.871 32.2088 101.87 32.4708 101.87 32.7329V32.7325ZM99.7443 32.6354C99.7443 32.7363 99.7439 32.8373 99.7443 32.9383C99.7447 33.0173 99.7848 33.0599 99.8659 33.0603C100.01 33.0608 100.154 33.0612 100.298 33.0597C100.378 33.059 100.421 33.0164 100.422 32.9379C100.423 32.7359 100.423 32.5341 100.422 32.3321C100.422 32.2528 100.378 32.2119 100.298 32.2115C100.154 32.211 100.01 32.2111 99.8657 32.2111C99.7841 32.2111 99.7445 32.2527 99.7441 32.3323C99.7438 32.4332 99.7441 32.5343 99.7441 32.6352L99.7443 32.6354ZM101.137 32.7758C101.137 32.7745 101.137 32.7733 101.137 32.772C101.197 32.772 101.257 32.7735 101.316 32.7717C101.414 32.7688 101.43 32.7039 101.429 32.6252C101.428 32.5497 101.402 32.4974 101.318 32.4954C101.216 32.4931 101.114 32.4899 101.013 32.4938C100.895 32.4983 100.869 32.525 100.865 32.6246C100.862 32.7357 100.892 32.7674 101.012 32.7753C101.053 32.7779 101.095 32.7756 101.137 32.7756L101.137 32.7758Z" fill="white"/>
<path d="M114.828 32.5851C114.828 32.8053 114.829 33.0256 114.827 33.2458C114.826 33.451 114.809 33.4654 114.597 33.4637C114.573 33.4636 114.549 33.4625 114.525 33.4627C114.436 33.4632 114.391 33.4179 114.39 33.3315C114.388 33.2006 114.39 33.0696 114.387 32.9388C114.383 32.762 114.366 32.7454 114.19 32.74C113.962 32.7331 113.847 32.8399 113.846 33.0605C113.846 33.3467 113.839 33.3541 113.556 33.3544C113.201 33.3548 112.845 33.356 112.49 33.3537C112.305 33.3525 112.284 33.3312 112.283 33.1463C112.281 32.7535 112.281 32.3607 112.283 31.9678C112.284 31.7932 112.304 31.7768 112.483 31.7743C112.691 31.7714 112.714 31.7921 112.72 31.9915C112.721 32.0271 112.722 32.0628 112.722 32.0986C112.722 32.1852 112.763 32.2319 112.853 32.2317C112.998 32.2314 113.142 32.2317 113.287 32.231C113.369 32.2305 113.405 32.1849 113.406 32.1065C113.407 32.0351 113.408 31.9637 113.411 31.8923C113.414 31.8224 113.451 31.7828 113.523 31.7778C113.541 31.7766 113.559 31.7757 113.577 31.7748C113.824 31.7619 113.845 31.7816 113.847 32.0258C113.848 32.2212 113.949 32.318 114.148 32.3164C114.154 32.3164 114.161 32.3164 114.167 32.3164C114.37 32.3133 114.384 32.2999 114.388 32.1056C114.389 32.0222 114.385 31.9389 114.39 31.8557C114.397 31.7229 114.418 31.705 114.553 31.6979C114.571 31.697 114.589 31.6973 114.607 31.6975C114.81 31.6977 114.826 31.7116 114.828 31.9072C114.83 32.1333 114.828 32.3595 114.828 32.5856L114.828 32.5851ZM113.066 32.988V32.9871C113.132 32.9871 113.199 32.9905 113.265 32.9864C113.38 32.9792 113.398 32.9606 113.406 32.8468C113.408 32.8053 113.406 32.7635 113.405 32.7218C113.403 32.6415 113.36 32.6016 113.28 32.601C113.136 32.6001 112.991 32.6003 112.847 32.6014C112.81 32.6017 112.769 32.6078 112.751 32.6411C112.702 32.73 112.71 32.8279 112.735 32.9193C112.757 33.0009 112.839 32.985 112.903 32.9876C112.958 32.99 113.012 32.9882 113.066 32.9882L113.066 32.988Z" fill="white"/>
<path d="M95.8262 32.6035C95.8262 32.8415 95.8284 33.0796 95.8255 33.3175C95.8233 33.5002 95.7976 33.5228 95.6156 33.5253C95.6035 33.5253 95.5916 33.5254 95.5795 33.5253C95.4107 33.521 95.3913 33.504 95.3877 33.3408C95.3848 33.2159 95.3884 33.0909 95.3863 32.966C95.3832 32.796 95.3707 32.7847 95.2005 32.7803C95.1764 32.7795 95.152 32.7828 95.1283 32.7795C94.9528 32.7558 94.8483 32.811 94.7729 32.9889C94.6299 33.3256 94.2224 33.4918 93.828 33.409C93.3487 33.3082 93.0791 32.8778 93.1819 32.3772C93.2738 31.9302 93.713 31.6408 94.1685 31.7191C94.467 31.7705 94.6772 31.9345 94.7949 32.2015C94.8548 32.3373 94.9308 32.3883 95.0793 32.3847C95.3865 32.377 95.3866 32.3841 95.387 32.082C95.387 32.0047 95.3845 31.927 95.3886 31.8499C95.3955 31.7231 95.4141 31.7057 95.5361 31.6955C95.7993 31.6733 95.8257 31.6971 95.8264 31.9608C95.8269 32.175 95.8264 32.3892 95.8264 32.6035H95.826H95.8262ZM94.0239 33.0282C94.1428 33.0447 94.2464 32.9833 94.3291 32.8787C94.4465 32.73 94.4548 32.5634 94.4047 32.3899C94.3398 32.1652 94.0994 32.0469 93.8762 32.1272C93.715 32.1852 93.6269 32.3185 93.6187 32.5162C93.6104 32.7155 93.6406 32.8971 93.845 32.9987C93.8946 33.0234 93.9487 33.0259 94.0239 33.0282Z" fill="white"/>
<path d="M107.572 35.0735C107.252 35.0735 106.933 35.0751 106.614 35.0728C106.437 35.0715 106.401 35.0388 106.396 34.865C106.391 34.6865 106.391 34.5077 106.396 34.3292C106.402 34.1429 106.446 34.1029 106.64 34.1018C107.067 34.0995 107.495 34.1011 107.922 34.1007C107.977 34.1007 108.031 34.1 108.085 34.0975C108.159 34.0941 108.192 34.0537 108.193 33.9821C108.195 33.9027 108.161 33.8578 108.077 33.8561C108.017 33.8549 107.957 33.8538 107.897 33.8536C107.463 33.8535 107.029 33.8545 106.596 33.8527C106.415 33.852 106.334 33.7193 106.409 33.5549C106.426 33.5184 106.453 33.4981 106.491 33.4949C106.539 33.4908 106.587 33.4894 106.635 33.4894C107.225 33.489 107.816 33.489 108.406 33.4894C108.454 33.4894 108.502 33.4899 108.55 33.4947C108.619 33.5015 108.666 33.5422 108.667 33.6094C108.672 33.8474 108.672 34.0855 108.669 34.3235C108.669 34.4006 108.616 34.4416 108.542 34.4498C108.482 34.4564 108.422 34.4577 108.362 34.4578C107.958 34.4585 107.555 34.458 107.151 34.4584C107.103 34.4584 107.055 34.4589 107.007 34.4625C106.933 34.468 106.903 34.5126 106.902 34.5822C106.902 34.6505 106.928 34.699 107.003 34.7051C107.057 34.7096 107.111 34.7099 107.165 34.7099C107.593 34.7103 108.021 34.7099 108.448 34.7101C108.496 34.7101 108.545 34.7083 108.593 34.7117C108.719 34.7205 108.739 34.7414 108.746 34.8609C108.757 35.0373 108.727 35.0713 108.547 35.0726C108.222 35.0747 107.897 35.0731 107.572 35.0731V35.0735Z" fill="white"/>
<path d="M113.772 35.073C113.464 35.073 113.157 35.0742 112.85 35.0724C112.636 35.0714 112.616 35.0497 112.614 34.8327C112.612 34.6837 112.611 34.5348 112.614 34.3858C112.617 34.194 112.642 34.1675 112.834 34.1666C113.244 34.1645 113.654 34.1661 114.064 34.1657C114.13 34.1657 114.197 34.1652 114.263 34.1621C114.334 34.1589 114.374 34.1221 114.375 34.0492C114.375 33.9784 114.341 33.9362 114.268 33.9317C114.214 33.9285 114.16 33.9279 114.105 33.9278C113.677 33.9274 113.249 33.9286 112.821 33.927C112.635 33.9263 112.555 33.805 112.624 33.6345C112.642 33.5901 112.676 33.5699 112.721 33.5667C112.769 33.5633 112.818 33.5628 112.866 33.5628C113.426 33.5624 113.987 33.5624 114.548 33.5626C114.59 33.5626 114.632 33.5629 114.674 33.5647C114.766 33.5688 114.824 33.6125 114.825 33.7072C114.827 33.9217 114.827 34.1362 114.825 34.3505C114.824 34.4461 114.767 34.4904 114.675 34.4922C114.537 34.4949 114.398 34.4949 114.259 34.4951C113.946 34.4954 113.632 34.4951 113.319 34.4956C113.271 34.4956 113.222 34.4967 113.175 34.5031C113.118 34.5107 113.095 34.5495 113.095 34.6044C113.096 34.6599 113.123 34.6962 113.179 34.7024C113.233 34.7084 113.288 34.7096 113.342 34.7096C113.776 34.7101 114.21 34.7098 114.644 34.7101C114.692 34.7101 114.74 34.7105 114.788 34.7143C114.859 34.72 114.896 34.7597 114.898 34.8309C114.898 34.8606 114.9 34.8905 114.899 34.9202C114.892 35.0435 114.873 35.0662 114.749 35.0712C114.622 35.0762 114.496 35.073 114.369 35.0732C114.17 35.0732 113.971 35.0732 113.772 35.0732L113.772 35.073Z" fill="white"/>
<path d="M117.526 35.0749C117.207 35.0749 116.887 35.0765 116.568 35.0743C116.38 35.0731 116.35 35.0429 116.345 34.8539C116.341 34.711 116.341 34.5678 116.345 34.4251C116.35 34.2374 116.381 34.2063 116.569 34.2054C117.009 34.2036 117.449 34.2048 117.889 34.2045C117.943 34.2045 117.998 34.2038 118.052 34.1993C118.109 34.1946 118.136 34.1601 118.137 34.1037C118.137 34.0481 118.112 34.0112 118.054 34.0059C118 34.0009 117.946 34.0001 117.892 34.0001C117.44 33.9996 116.988 34.001 116.535 33.9985C116.38 33.9976 116.348 33.9645 116.345 33.8273C116.341 33.6845 116.375 33.6418 116.52 33.6412C117.153 33.6386 117.786 33.638 118.419 33.6418C118.59 33.6429 118.623 33.684 118.626 33.8611C118.629 34.01 118.628 34.159 118.626 34.3081C118.623 34.4981 118.595 34.5279 118.407 34.5301C118.148 34.533 117.889 34.531 117.629 34.5312C117.448 34.5312 117.268 34.5312 117.087 34.5313C117.045 34.5313 117.002 34.5319 116.96 34.5349C116.899 34.5394 116.858 34.5669 116.856 34.634C116.854 34.7008 116.891 34.7324 116.955 34.7366C117.003 34.7398 117.051 34.7401 117.099 34.7401C117.533 34.7403 117.967 34.7401 118.401 34.7403C118.449 34.7403 118.498 34.7385 118.546 34.7417C118.671 34.7503 118.697 34.78 118.696 34.9114C118.695 35.0396 118.67 35.0717 118.539 35.0733C118.201 35.077 117.863 35.0745 117.526 35.0745V35.0752L117.526 35.0749Z" fill="white"/>
<path d="M107.528 33.2134C107.112 33.2134 106.697 33.2134 106.281 33.2134C106.233 33.2134 106.185 33.2125 106.137 33.2095C106.074 33.2057 106.036 33.1724 106.032 33.1094C106.028 33.0561 106.029 33.0024 106.031 32.9491C106.035 32.8869 106.071 32.8505 106.134 32.8461C106.188 32.8421 106.242 32.8416 106.297 32.8416C106.832 32.8412 107.368 32.8416 107.904 32.8412C107.958 32.8412 108.013 32.8402 108.067 32.8386C108.135 32.8366 108.182 32.8056 108.192 32.7353C108.215 32.5824 108.238 32.4294 108.258 32.2761C108.266 32.2095 108.228 32.1764 108.164 32.1718C108.116 32.1682 108.067 32.1682 108.019 32.1682C107.556 32.168 107.092 32.1682 106.629 32.1678C106.575 32.1678 106.52 32.1675 106.466 32.1635C106.396 32.1583 106.357 32.1195 106.355 32.0483C106.354 31.9948 106.353 31.9413 106.355 31.8878C106.358 31.8171 106.395 31.7783 106.468 31.7746C106.51 31.7724 106.552 31.7712 106.594 31.7712C107.226 31.771 107.858 31.771 108.49 31.7708C108.509 31.7708 108.527 31.7703 108.545 31.7712C108.703 31.7783 108.751 31.8275 108.733 31.9819C108.711 32.1828 108.683 32.3832 108.657 32.5838C108.653 32.6133 108.646 32.6425 108.643 32.672C108.633 32.8058 108.654 32.8307 108.786 32.8402C108.81 32.842 108.834 32.8404 108.858 32.8416C109.022 32.8493 109.044 32.8726 109.042 33.0329C109.04 33.1853 109.02 33.2111 108.865 33.212C108.419 33.2146 107.973 33.2128 107.528 33.2128V33.2132V33.2134Z" fill="white"/>
<path d="M94.7078 35.0714C94.4127 35.0714 94.1175 35.0737 93.8225 35.0705C93.6501 35.0685 93.6206 35.0399 93.6193 34.8715C93.6164 34.5142 93.6164 34.1571 93.6197 33.7998C93.6209 33.654 93.6436 33.6363 93.7877 33.6293C93.8178 33.6279 93.848 33.6281 93.878 33.6291C94.0263 33.6345 94.0419 33.6492 94.0555 33.7925C94.0735 33.9854 94.0735 33.987 94.2711 33.9877C94.5782 33.9889 94.8854 33.9897 95.1926 33.9872C95.3651 33.9857 95.3746 33.9739 95.3888 33.8064C95.403 33.6424 95.408 33.6374 95.5685 33.6284C95.7401 33.6189 95.8262 33.7014 95.8268 33.876C95.8273 34.1679 95.8268 34.4595 95.8268 34.7513C95.8268 34.781 95.8272 34.8109 95.8262 34.8406C95.8194 35.0376 95.789 35.0698 95.5931 35.0712C95.298 35.0732 95.0028 35.0717 94.7078 35.0717V35.0714ZM94.7058 34.7028V34.7024C94.8803 34.7024 95.0549 34.706 95.2295 34.7012C95.3637 34.6974 95.389 34.6638 95.3881 34.521C95.3874 34.3865 95.3677 34.3595 95.2356 34.3582C94.8986 34.3548 94.5614 34.355 94.2244 34.358C94.081 34.3593 94.058 34.3877 94.0567 34.5271C94.0556 34.6699 94.0784 34.6983 94.2181 34.7019C94.3805 34.7058 94.5432 34.7028 94.7056 34.7028H94.7058Z" fill="white"/>
<path d="M123.532 33.9495C123.839 33.9495 124.146 33.9476 124.453 33.9504C124.632 33.952 124.662 33.983 124.664 34.1608C124.667 34.3988 124.667 34.6369 124.663 34.8751C124.661 35.03 124.627 35.0651 124.469 35.0658C123.843 35.0683 123.217 35.0685 122.591 35.0652C122.43 35.0644 122.388 35.0209 122.385 34.8602C122.38 34.6223 122.38 34.3841 122.384 34.1462C122.387 33.9828 122.421 33.952 122.592 33.9504C122.905 33.9478 123.218 33.9497 123.531 33.9497L123.532 33.9495ZM123.54 34.3228V34.3233C123.353 34.3233 123.167 34.3197 122.981 34.3245C122.849 34.3279 122.824 34.3628 122.825 34.506C122.826 34.6405 122.846 34.6681 122.977 34.6693C123.337 34.6727 123.698 34.6727 124.058 34.6697C124.201 34.6684 124.22 34.6439 124.22 34.4983C124.221 34.3517 124.202 34.3267 124.062 34.3236C123.888 34.3199 123.713 34.3228 123.539 34.3228H123.54Z" fill="white"/>
<path d="M117.482 32.9037C117.114 32.9037 116.748 32.9037 116.381 32.9037C116.268 32.9037 116.246 32.8845 116.237 32.7705C116.225 32.6235 116.255 32.5719 116.36 32.5583C116.378 32.556 116.397 32.5585 116.414 32.556C116.494 32.5444 116.602 32.5934 116.643 32.4998C116.689 32.3964 116.672 32.2782 116.65 32.1667C116.643 32.135 116.615 32.1191 116.584 32.1139C116.554 32.1089 116.524 32.1084 116.494 32.1062C116.324 32.0935 116.297 32.0678 116.304 31.9216C116.31 31.7921 116.334 31.7726 116.511 31.7717C116.842 31.7701 117.173 31.7711 117.504 31.7711C117.829 31.7711 118.154 31.7695 118.479 31.7722C118.641 31.7736 118.672 31.8087 118.664 31.9606C118.658 32.0719 118.638 32.0921 118.525 32.1046C118.501 32.1073 118.477 32.1057 118.453 32.1075C118.429 32.1095 118.401 32.1068 118.382 32.1177C118.25 32.1921 118.317 32.3182 118.307 32.4231C118.3 32.4981 118.338 32.5489 118.421 32.5526C118.487 32.5557 118.554 32.5526 118.62 32.5605C118.714 32.5718 118.735 32.6067 118.735 32.7256C118.735 32.8442 118.713 32.8824 118.619 32.8899C118.511 32.8983 118.402 32.8947 118.294 32.8949C118.023 32.8954 117.753 32.8949 117.482 32.8949V32.9035L117.482 32.9037ZM117.506 32.1069V32.1061C117.464 32.1061 117.422 32.1061 117.38 32.1061C117.1 32.1066 117.085 32.1234 117.107 32.3991C117.118 32.527 117.139 32.5498 117.274 32.5544C117.399 32.5587 117.525 32.5569 117.651 32.5558C117.856 32.5541 117.885 32.5235 117.888 32.3161C117.888 32.3043 117.888 32.2923 117.888 32.2805C117.883 32.1359 117.863 32.1141 117.722 32.1077C117.65 32.1043 117.578 32.1071 117.506 32.1071V32.1069Z" fill="white"/>
<path d="M100.746 33.7054C100.953 33.6968 101.17 33.7385 101.382 33.8135C101.515 33.8605 101.628 33.9357 101.725 34.0371C101.942 34.2636 101.946 34.5916 101.737 34.8276C101.576 35.0081 101.362 35.0818 101.136 35.129C100.825 35.194 100.515 35.1802 100.206 35.106C100.052 35.0689 99.9101 35.0072 99.7854 34.9095C99.4705 34.6632 99.473 34.2126 99.7903 33.9693C100.015 33.7972 100.34 33.7056 100.746 33.7054ZM100.713 34.0693C100.546 34.0763 100.359 34.0912 100.193 34.188C99.9701 34.3186 99.9683 34.5667 100.199 34.6807C100.535 34.8464 100.882 34.8507 101.224 34.6873C101.339 34.6324 101.422 34.5436 101.413 34.4086C101.403 34.2756 101.313 34.1965 101.193 34.1509C101.045 34.0951 100.891 34.0718 100.713 34.0693H100.713Z" fill="white"/>
<path d="M121.811 32.8458C121.811 33.1732 121.811 33.5008 121.81 33.8282C121.81 33.8921 121.819 33.9733 121.735 33.9903C121.636 34.0103 121.529 34.0288 121.437 33.9695C121.387 33.9373 121.399 33.8727 121.398 33.8201C121.397 33.6058 121.398 33.3915 121.397 33.1771C121.397 33.1295 121.399 33.0818 121.396 33.0344C121.389 32.9172 121.362 32.8896 121.261 32.8889C121.158 32.8882 121.127 32.9154 121.123 33.0299C121.118 33.1786 121.122 33.3276 121.12 33.4765C121.118 33.6586 121.103 33.6725 120.928 33.6767C120.7 33.682 120.682 33.6666 120.682 33.4387C120.681 32.9445 120.681 32.4504 120.683 31.9562C120.683 31.8827 120.656 31.7841 120.754 31.7551C120.856 31.7245 120.969 31.7206 121.072 31.7639C121.123 31.785 121.119 31.8431 121.119 31.8906C121.121 32.0335 121.118 32.1765 121.123 32.3192C121.127 32.428 121.163 32.4543 121.269 32.4527C121.348 32.4515 121.394 32.4185 121.395 32.3362C121.396 32.2232 121.396 32.1101 121.397 31.9968C121.398 31.9433 121.395 31.8895 121.4 31.8362C121.409 31.7256 121.429 31.7086 121.546 31.6989C121.558 31.698 121.57 31.6984 121.582 31.698C121.787 31.6925 121.81 31.7122 121.811 31.9172C121.812 32.2267 121.811 32.5364 121.811 32.846H121.811V32.8458Z" fill="white"/>
<path d="M104.122 32.6814C104.114 33.0202 103.99 33.302 103.67 33.4562C103.351 33.6103 103.03 33.5915 102.724 33.4018C102.63 33.3433 102.563 33.2609 102.504 33.1698C102.229 32.747 102.332 31.9199 103.094 31.7945C103.593 31.7124 104.138 32.0408 104.123 32.6814H104.122ZM103.677 32.6926C103.677 32.6037 103.673 32.5389 103.653 32.4758C103.599 32.3067 103.486 32.2044 103.307 32.1813C103.121 32.1575 102.977 32.2309 102.879 32.3854C102.765 32.5658 102.799 32.8785 102.946 33.0361C103.093 33.1948 103.35 33.2084 103.514 33.0669C103.637 32.9614 103.683 32.8257 103.677 32.6928V32.6926Z" fill="white"/>
<path d="M119.789 31.8115C119.939 31.8115 120.09 31.8068 120.24 31.8129C120.379 31.8185 120.425 31.8619 120.428 31.9997C120.434 32.2375 120.434 32.4758 120.429 32.7136C120.425 32.8549 120.389 32.8844 120.237 32.8885C120.099 32.8923 119.96 32.888 119.822 32.8905C119.663 32.8932 119.641 32.9134 119.639 33.0424C119.638 33.1793 119.664 33.2058 119.83 33.2065C120.022 33.2075 120.214 33.2124 120.406 33.18C120.557 33.1546 120.592 33.1773 120.609 33.2811C120.636 33.4552 120.601 33.5312 120.463 33.5525C120.093 33.6094 119.719 33.6096 119.346 33.6013C119.251 33.5992 119.202 33.5462 119.201 33.4546C119.199 33.1988 119.196 32.9429 119.201 32.6871C119.204 32.5652 119.241 32.5321 119.369 32.5271C119.52 32.5214 119.67 32.5271 119.821 32.5236C119.971 32.5198 120.039 32.4051 119.977 32.2686C119.949 32.2071 119.894 32.2065 119.84 32.2056C119.701 32.2037 119.563 32.2056 119.424 32.2037C119.22 32.2006 119.138 32.0782 119.208 31.8872C119.231 31.8245 119.281 31.8122 119.337 31.8118C119.488 31.8106 119.638 31.8113 119.789 31.8115H119.789Z" fill="white"/>
<path d="M88.8136 32.3627C88.8136 32.5233 88.8098 32.684 88.8148 32.8447C88.8184 32.959 88.8403 32.9758 88.9545 32.9855C88.9724 32.9871 88.9907 32.9849 89.0086 32.9869C89.0836 32.9948 89.1804 32.9572 89.2247 33.0372C89.275 33.1279 89.2548 33.2349 89.2374 33.3344C89.2278 33.39 89.1781 33.4066 89.1283 33.4111C89.0625 33.417 88.9961 33.4172 88.9301 33.421C88.859 33.4249 88.8193 33.4621 88.8159 33.5331C88.8136 33.5807 88.8127 33.6283 88.8125 33.6759C88.8121 34.0806 88.8134 34.4851 88.8112 34.8897C88.8108 34.9632 88.8364 35.0621 88.7374 35.0884C88.6343 35.1158 88.5225 35.1206 88.4187 35.077C88.3904 35.0652 88.3801 35.0317 88.3781 35.0013C88.3749 34.9539 88.3733 34.9063 88.3733 34.8587C88.3731 33.8888 88.3729 32.9189 88.3733 31.949C88.3733 31.6984 88.398 31.6773 88.6567 31.6959C88.7803 31.7046 88.806 31.724 88.8096 31.8449C88.8148 32.0174 88.8108 32.19 88.8108 32.3625H88.8132L88.8136 32.3627Z" fill="white"/>
<path d="M104.942 33.3979C104.942 33.8803 104.943 34.3626 104.942 34.845C104.941 35.0964 104.916 35.118 104.658 35.1051C104.509 35.0978 104.486 35.0749 104.478 34.9217C104.475 34.8564 104.477 34.7908 104.477 34.7253C104.477 33.8023 104.477 32.8793 104.477 31.9562C104.477 31.7016 104.48 31.7 104.74 31.6975C104.936 31.6957 104.941 31.6981 104.941 31.8972C104.943 32.3974 104.942 32.8977 104.942 33.3979H104.942Z" fill="white"/>
<path d="M91.0051 31.7693C91.0232 31.7693 91.0412 31.7686 91.0593 31.7693C91.2113 31.776 91.2306 31.7947 91.2357 31.9516C91.2384 32.035 91.237 32.1184 91.2366 32.2019C91.2343 32.6462 91.46 32.9605 91.8305 33.1768C92.0467 33.303 92.027 33.2876 91.8862 33.467C91.7645 33.6222 91.7411 33.6265 91.5754 33.5222C91.3971 33.4098 91.2326 33.281 91.1026 33.1119C91.0174 33.001 91.0049 33.0012 90.9242 33.1205C90.7844 33.3273 90.6028 33.4901 90.3974 33.6291C90.2672 33.7173 90.2556 33.7143 90.1353 33.6053C89.9376 33.4261 89.9383 33.4271 90.1599 33.2685C90.3472 33.1344 90.5096 32.9774 90.6218 32.7741C90.716 32.6033 90.7685 32.4227 90.7632 32.2266C90.7607 32.1315 90.7605 32.0359 90.7641 31.9407C90.7699 31.7946 90.7894 31.7765 90.9327 31.7697C90.9568 31.7686 90.981 31.7697 91.0051 31.7697V31.7693Z" fill="white"/>
<path d="M98.9095 32.8317C98.9095 33.123 98.9104 33.4142 98.9091 33.7055C98.9082 33.9064 98.8936 33.9198 98.6957 33.9214C98.6716 33.9216 98.6476 33.9222 98.6235 33.9206C98.4972 33.9118 98.4846 33.8996 98.4678 33.7738C98.4461 33.6132 98.4453 33.6125 98.2791 33.6078C98.255 33.6071 98.231 33.6078 98.2069 33.6075C98.0166 33.6037 97.9439 33.4974 98.0061 33.3173C98.0246 33.2636 98.0636 33.2435 98.1152 33.2414C98.1933 33.2382 98.2718 33.2418 98.3495 33.2344C98.4466 33.2255 98.4674 33.1904 98.4665 33.073C98.4658 32.9927 98.4468 32.9306 98.3495 32.9288C98.2773 32.9276 98.2053 32.9254 98.1331 32.9251C98.0446 32.9245 97.9998 32.8818 97.9992 32.7941C97.9991 32.7703 97.9974 32.7465 97.9983 32.7229C98.0032 32.5893 98.0233 32.5672 98.1554 32.5599C98.2152 32.5565 98.2756 32.5572 98.3357 32.5576C98.4265 32.5583 98.4663 32.5121 98.4663 32.4252C98.4663 32.2468 98.4652 32.0684 98.4683 31.8902C98.4714 31.7156 98.4895 31.6999 98.6689 31.6974C98.7049 31.6968 98.7411 31.6988 98.7771 31.699C98.8672 31.6995 98.9075 31.7469 98.9081 31.833C98.9082 31.8745 98.9099 31.9162 98.9099 31.9577C98.9099 32.249 98.9099 32.5402 98.9099 32.8315L98.9095 32.8317Z" fill="white"/>
<path d="M120.591 34.4448C120.438 34.664 120.255 34.8137 120.042 34.9309C119.937 34.9892 119.823 35.0291 119.712 35.0748C119.621 35.1122 119.548 35.0944 119.489 35.0179C119.474 34.9991 119.456 34.9828 119.441 34.9647C119.307 34.8119 119.31 34.7958 119.499 34.7336C119.631 34.6901 119.756 34.6332 119.877 34.5656C120.127 34.4257 120.287 34.2217 120.341 33.939C120.372 33.7771 120.377 33.7766 120.538 33.7716C120.556 33.771 120.574 33.7712 120.592 33.7712C120.806 33.7708 120.809 33.7703 120.852 33.9719C120.91 34.2494 121.084 34.4364 121.322 34.5736C121.442 34.6427 121.569 34.6965 121.702 34.7395C121.888 34.7999 121.887 34.8019 121.762 34.9601C121.751 34.9742 121.74 34.9891 121.729 35.0027C121.638 35.1096 121.615 35.1184 121.48 35.0744C121.129 34.9603 120.823 34.7819 120.592 34.4448H120.591Z" fill="white"/>
<path d="M92.2458 32.9411C92.2458 32.5964 92.2445 32.2514 92.2467 31.9066C92.247 31.8383 92.2244 31.7469 92.3078 31.7177C92.4154 31.68 92.5348 31.6769 92.6419 31.7249C92.6957 31.749 92.6864 31.8179 92.6868 31.8709C92.6881 32.061 92.6864 32.2514 92.6882 32.4416C92.69 32.6362 92.708 32.6518 92.9042 32.6631C92.973 32.667 93.0596 32.6395 93.0969 32.7223C93.1345 32.8059 93.1231 32.8975 93.1025 32.9851C93.0936 33.0229 93.0618 33.0433 93.0243 33.0506C92.995 33.0563 92.965 33.059 92.935 33.061C92.7708 33.0718 92.6885 33.1566 92.6879 33.3154C92.6873 33.5414 92.6888 33.7673 92.6873 33.9931C92.6861 34.1976 92.6692 34.2125 92.4581 34.211C92.4462 34.211 92.4341 34.2112 92.4221 34.2107C92.2702 34.2042 92.2479 34.1856 92.2469 34.0291C92.2443 33.6664 92.246 33.3038 92.246 32.9411H92.2458Z" fill="white"/>
<path d="M97.1145 33.784C96.9318 33.7936 96.7556 33.7598 96.5901 33.6805C96.4164 33.5973 96.3004 33.4716 96.2918 33.269C96.2825 33.0595 96.359 32.8917 96.5503 32.796C96.9233 32.609 97.3088 32.6038 97.6801 32.7874C98.0542 32.9724 98.0609 33.4358 97.706 33.6535C97.5249 33.7646 97.3245 33.7929 97.1147 33.7841L97.1145 33.784ZM97.1262 32.9942C97.0363 32.9948 96.9459 32.9935 96.865 33.0411C96.7887 33.0858 96.7342 33.1452 96.7425 33.2406C96.75 33.3268 96.8024 33.3821 96.8793 33.4116C97.0418 33.4737 97.2069 33.4734 97.3699 33.4134C97.4551 33.3821 97.5099 33.3179 97.5103 33.2261C97.5108 33.1341 97.4544 33.0738 97.3715 33.0368C97.2934 33.0017 97.2107 32.9935 97.1262 32.9944V32.9942Z" fill="white"/>
<path d="M97.7444 33.9946C98.0339 33.9946 98.3231 33.9944 98.6125 33.9948C98.6607 33.9948 98.7091 33.9955 98.7571 33.9998C98.8466 34.0078 98.9056 34.0518 98.9061 34.1465C98.9076 34.4265 98.9072 34.7065 98.9061 34.9867C98.9058 35.0661 98.8618 35.1062 98.7817 35.108C98.7515 35.1087 98.7214 35.1101 98.6912 35.1103C98.481 35.1114 98.4664 35.0976 98.4638 34.8888C98.4624 34.7696 98.4666 34.6503 98.4615 34.5313C98.4566 34.4173 98.4371 34.3982 98.3199 34.3939C98.1874 34.3891 98.0547 34.3919 97.9221 34.3919C97.5605 34.3919 97.1987 34.393 96.837 34.3907C96.7683 34.3903 96.6798 34.4152 96.6449 34.3311C96.6078 34.2418 96.608 34.1422 96.6449 34.052C96.6724 33.9851 96.7451 33.996 96.8041 33.9956C97.0212 33.994 97.2381 33.9948 97.4552 33.9948C97.5516 33.9948 97.648 33.9948 97.7446 33.9948L97.7444 33.9946Z" fill="white"/>
<path d="M91.6726 35.037C91.3658 35.037 91.0588 35.039 90.752 35.0363C90.5769 35.0347 90.5463 35.007 90.5438 34.8433C90.54 34.5935 90.5402 34.3436 90.5438 34.0938C90.5458 33.9489 90.5675 33.931 90.7122 33.9238C90.7422 33.9224 90.7725 33.9226 90.8025 33.9236C90.966 33.9292 90.9837 33.9465 90.9872 34.1149C90.9895 34.2398 90.9848 34.3648 90.9897 34.4895C90.9944 34.6135 91.0141 34.6346 91.1406 34.6377C91.339 34.6425 91.5376 34.6397 91.7363 34.6398C92.0252 34.64 92.3139 34.6391 92.6028 34.6409C92.667 34.6413 92.7392 34.6302 92.778 34.7028C92.8064 34.7556 92.7969 34.9631 92.7636 34.9978C92.7162 35.0472 92.6523 35.0363 92.5935 35.0365C92.2867 35.0377 91.9797 35.037 91.6729 35.037H91.6726Z" fill="white"/>
<path d="M117.493 33.4621C117.06 33.4621 116.627 33.463 116.194 33.4617C116 33.4612 115.969 33.4275 115.981 33.2467C115.989 33.1254 116.009 33.1041 116.133 33.0969C116.205 33.0928 116.278 33.0953 116.35 33.0953C117.137 33.0953 117.925 33.0953 118.713 33.0953C118.749 33.0953 118.785 33.0948 118.821 33.0957C118.99 33.0998 119.015 33.1234 119.017 33.2758C119.018 33.4318 118.992 33.4605 118.828 33.4612C118.383 33.4631 117.938 33.4619 117.493 33.4619V33.4621Z" fill="white"/>
<path d="M102.726 34.4208C102.592 34.4208 102.489 34.4245 102.387 34.4199C102.251 34.4138 102.231 34.3921 102.225 34.2608C102.223 34.2193 102.226 34.1775 102.228 34.1359C102.23 34.0644 102.269 34.0288 102.341 34.0239C102.467 34.0154 102.593 33.9967 102.719 33.9978C103.244 34.0021 103.767 33.9867 104.286 33.9064C104.414 33.8867 104.433 33.9076 104.441 34.0331C104.454 34.2324 104.428 34.2707 104.223 34.3057C103.962 34.3506 103.699 34.3889 103.434 34.3891C103.187 34.3891 102.942 34.4415 102.726 34.4208H102.726Z" fill="white"/>
<path d="M97.0825 32.5349C96.8423 32.5349 96.6022 32.536 96.362 32.5342C96.2974 32.5338 96.2187 32.5429 96.1978 32.4601C96.1775 32.3801 96.1652 32.2926 96.2117 32.2177C96.243 32.1672 96.3067 32.1738 96.3602 32.1733C96.5342 32.1719 96.7084 32.1722 96.8826 32.1722C97.1889 32.1722 97.495 32.1706 97.8012 32.1731C97.9857 32.1746 98.0147 32.2069 98.0047 32.3798C97.9975 32.5073 97.9772 32.5313 97.839 32.5333C97.5869 32.537 97.3347 32.5344 97.0825 32.5344V32.5347V32.5349Z" fill="white"/>
<path d="M87.1614 32.1024C87.0352 32.1024 86.9089 32.1067 86.783 32.101C86.6656 32.0956 86.6439 32.0627 86.6426 31.9222C86.6414 31.7802 86.664 31.7397 86.7752 31.7374C87.0335 31.7319 87.292 31.7319 87.5502 31.7367C87.6685 31.739 87.6897 31.7741 87.6906 31.9147C87.6915 32.063 87.6683 32.0961 87.5399 32.1013C87.414 32.1065 87.2875 32.1024 87.1614 32.1024Z" fill="white"/>
<path d="M97.1289 32.0248C97.0086 32.0248 96.8881 32.0291 96.768 32.0235C96.643 32.0176 96.6224 31.9886 96.6211 31.8512C96.6199 31.7049 96.643 31.6709 96.7753 31.6682C97.0159 31.6635 97.2565 31.6634 97.497 31.6685C97.6217 31.6712 97.6425 31.7031 97.6441 31.8403C97.6457 31.9863 97.6224 32.0181 97.4898 32.0239C97.3697 32.0291 97.2492 32.0249 97.1289 32.0249V32.0248Z" fill="white"/>
</g>
<defs>
<clipPath id="clip0_3281_2878">
<rect width="123" height="27" fill="white" transform="translate(50.5 11.5)"/>
</clipPath>
</defs>
</svg>
