<svg width="224" height="50" viewBox="0 0 224 50" fill="none" xmlns="http://www.w3.org/2000/svg">
<path d="M143.291 17.116C144.158 17.116 145.025 17.116 145.919 17.116C146.07 17.4107 146.221 17.7054 146.377 18.009C146.798 18.8277 146.798 18.8277 147.222 19.6445C147.242 19.683 147.262 19.7214 147.283 19.761C147.418 20.0187 147.568 20.2652 147.725 20.5102C147.742 20.4758 147.759 20.4415 147.777 20.4061C148.152 19.6508 148.535 18.901 148.93 18.1561C149.11 17.8129 149.291 17.4696 149.477 17.116C150.362 17.116 151.248 17.116 152.16 17.116C152.16 19.9342 152.16 22.7525 152.16 25.6562C151.491 25.6562 150.823 25.6562 150.134 25.6562C150.116 23.94 150.098 22.2237 150.079 20.4554C149.353 21.9057 149.353 21.9057 148.649 23.3662C148.616 23.4365 148.581 23.5063 148.547 23.5759C148.005 23.5759 147.463 23.5759 146.904 23.5759C146.619 23.0539 146.353 22.5266 146.099 21.9884C145.865 21.4912 145.618 21.0026 145.371 20.5102C145.353 22.2084 145.335 23.9066 145.317 25.6562C144.648 25.6562 143.98 25.6562 143.291 25.6562C143.291 22.8379 143.291 20.0197 143.291 17.116Z" fill="white"/>
<path d="M56.8448 23.4281C56.8449 23.4265 56.8438 23.4248 56.8438 23.4232C56.8831 23.4271 56.9306 23.432 56.9883 23.432C57.0845 23.4844 57.1846 23.5302 57.2842 23.5755C57.7111 23.9792 57.8684 24.5932 57.8975 25.1615C57.9243 26.6862 57.5764 28.1539 56.9561 29.5423C56.9391 29.5808 56.9219 29.6199 56.9044 29.6595C56.5176 30.515 55.9866 31.3012 55.3682 32.0062C55.3272 32.0533 55.2855 32.1003 55.2432 32.1488C55.1221 32.2854 54.9993 32.4204 54.8751 32.5541C54.8417 32.5904 54.8079 32.6269 54.7735 32.6644C54.2909 33.1696 53.7044 33.5927 53.1231 33.9769C53.0463 34.028 53.0462 34.0283 52.9678 34.0804C51.8157 34.819 50.529 35.2843 49.1817 35.5101C49.1261 35.5197 49.0701 35.5295 49.0128 35.5394C48.7425 35.5718 48.4761 35.5764 48.2042 35.5785C48.1468 35.5789 48.0894 35.579 48.0303 35.5794C47.9089 35.5802 47.7875 35.581 47.6661 35.5814C47.5442 35.582 47.4218 35.5827 47.2999 35.5843C44.5214 35.6214 41.9907 34.55 39.9991 32.6224C39.0346 31.6729 38.3313 30.5515 37.7901 29.3167C37.7692 29.2695 37.7482 29.2219 37.7266 29.1732C37.5954 28.8631 37.4673 28.5471 37.5528 28.2074C37.6766 27.9824 37.7899 27.8218 38.0128 27.681H38.1202C38.1677 27.7817 38.2226 27.8791 38.2852 27.972C39.6649 28.0192 40.8442 27.2609 41.918 26.4642C42.0456 26.3691 42.1741 26.2746 42.3028 26.181C43.0584 25.6351 43.7979 25.0734 44.4757 24.432C44.7198 24.2 44.96 23.9632 45.2315 23.763C45.4587 23.6226 45.6886 23.5893 45.9503 23.6468C46.1894 23.8859 46.2427 24.2109 46.2432 24.5365C46.2425 24.5783 46.2411 24.6189 46.2403 24.6595C46.2398 24.7994 46.2401 24.9395 46.2384 25.0794C46.2371 25.1793 46.236 25.2794 46.2354 25.3792C46.2344 25.6423 46.2329 25.9053 46.2305 26.1683C46.2266 26.5973 46.2229 27.0264 46.2208 27.4554C46.2201 27.6063 46.2185 27.7576 46.2169 27.9085C46.2158 28.0038 46.2155 28.0994 46.2149 28.1947C46.2147 28.2402 46.2142 28.2843 46.2139 28.3285C46.2088 28.6501 46.2408 28.9222 46.3331 29.2318C46.4533 29.4633 46.5844 29.6208 46.8204 29.7416C47.2312 29.8757 47.6434 29.7751 48.0303 29.6146C48.0566 29.5884 48.0828 29.5621 48.085 29.5599C48.085 29.5599 48.294 29.4047 48.4171 29.2992C48.4531 29.2611 48.4885 29.2238 48.5235 29.1869C48.5594 29.1494 48.5941 29.1129 48.629 29.0765C48.7074 28.9941 48.7878 28.9129 48.8682 28.8324C48.9655 28.7353 49.0624 28.6378 49.1592 28.5404C49.2663 28.4326 49.3733 28.3248 49.4805 28.2171C49.539 28.1584 49.5978 28.0991 49.6563 28.0404C50.016 27.6778 50.3775 27.3208 50.7598 26.9818C50.8304 26.9193 50.9002 26.856 50.9698 26.7923C52.4471 25.4192 54.5026 23.4284 56.6466 23.4183C56.7139 23.4218 56.7794 23.4247 56.8448 23.4281ZM42.6046 15.4652C46.3235 13.6327 50.9398 14.0788 54.1055 16.8167C54.274 16.9674 54.4385 17.1222 54.6016 17.2787C54.631 17.3066 54.6602 17.3349 54.6905 17.3636C55.7309 18.3555 57.1649 20.082 57.2598 21.5736C57.2093 21.893 57.0318 22.1072 56.7911 22.3158H56.6817C56.6835 22.3278 56.6857 22.3399 56.6876 22.3519C56.6827 22.3309 56.6793 22.3163 56.6788 22.3138H56.6241C56.5171 22.1297 56.4506 22.0734 56.2462 22.0082C55.0676 21.9332 55.0673 21.9335 52.3614 23.9447C52.3223 23.9738 52.2842 24.0023 52.2462 24.0306C51.9876 24.222 51.7297 24.414 51.4737 24.6087C51.4387 24.6354 51.4042 24.662 51.3702 24.6878C51.0003 24.9675 50.6405 25.2503 50.3028 25.5687C50.0106 25.8457 49.7203 26.1689 49.3448 26.3294C49.1104 26.377 48.9306 26.3752 48.7217 26.2542C48.4372 25.5101 48.4371 25.5095 48.463 24.7005C48.4653 24.6055 48.4672 24.5104 48.4688 24.4154C48.4727 24.1645 48.4772 23.9133 48.4825 23.6625C48.4912 23.2528 48.4989 22.8427 48.5059 22.433C48.5084 22.2891 48.5107 22.1452 48.5137 22.0013C48.5157 21.9106 48.5179 21.8196 48.5196 21.7289C48.5204 21.6858 48.5208 21.6437 48.5216 21.6019C48.525 21.4621 48.526 21.3238 48.5235 21.1839C48.4548 20.83 48.3144 20.5518 48.0206 20.3353C47.3161 19.9089 46.6233 20.4342 46.13 20.9369C45.8568 21.2208 45.5868 21.5066 45.2882 21.764C45.1067 21.9197 44.9365 22.0831 44.7686 22.2533C43.221 23.8304 41.4125 25.5803 39.3126 26.3871C39.2612 26.4049 39.211 26.4224 39.1612 26.4398C38.7752 26.5743 38.4335 26.6206 38.0245 26.6097C37.983 26.6078 37.9427 26.6058 37.9024 26.6039C37.9027 26.598 37.903 26.5922 37.9034 26.5863C37.8661 26.5852 37.8285 26.5845 37.7901 26.5834C37.5415 26.504 37.4004 26.3562 37.2462 26.1488C36.5228 24.7446 36.9603 22.8755 37.4102 21.4398C38.2868 18.8515 40.1694 16.6977 42.6046 15.4652Z" fill="white"/>
<path d="M112.357 17.1177C113.468 17.1127 113.468 17.1127 114.602 17.1075C114.834 17.106 115.066 17.1045 115.305 17.1029C115.593 17.1022 115.593 17.1022 115.729 17.1021C115.822 17.1018 115.915 17.1012 116.007 17.1004C116.908 17.0926 117.898 17.1034 118.619 17.7221C119.092 18.2147 119.22 18.7874 119.212 19.4528C119.18 19.9553 118.984 20.4138 118.615 20.7639C118.538 20.8275 118.459 20.8889 118.379 20.9499C118.361 20.986 118.343 21.0222 118.325 21.0594C118.392 21.0746 118.392 21.0746 118.462 21.0902C118.926 21.2811 119.209 21.6545 119.42 22.0996C119.655 22.6736 119.688 23.4116 119.476 23.9992C119.19 24.633 118.791 25.0817 118.16 25.3843C117.639 25.5789 117.144 25.6668 116.59 25.6642C116.543 25.6642 116.496 25.6642 116.448 25.6642C116.298 25.6642 116.148 25.6638 115.998 25.6633C115.905 25.6633 115.812 25.6632 115.719 25.6632C115.375 25.6629 115.031 25.6621 114.688 25.6614C113.919 25.6603 113.15 25.6592 112.357 25.658C112.357 22.8397 112.357 20.0214 112.357 17.1177ZM114.492 18.8148C114.492 19.3568 114.492 19.8988 114.492 20.4572C114.773 20.4622 115.053 20.4666 115.334 20.4692C115.429 20.4703 115.524 20.4718 115.62 20.4737C115.757 20.4764 115.895 20.4776 116.032 20.4786C116.095 20.4803 116.095 20.4803 116.16 20.482C116.465 20.4821 116.702 20.4114 116.956 20.2382C117.144 19.9977 117.149 19.7468 117.139 19.4513C117.112 19.2412 117.049 19.1303 116.901 18.9791C116.604 18.8222 116.37 18.7921 116.038 18.7988C115.971 18.7992 115.971 18.7992 115.903 18.7995C115.762 18.8004 115.622 18.8025 115.481 18.8046C115.385 18.8054 115.29 18.8062 115.194 18.8068C114.96 18.8085 114.726 18.8117 114.492 18.8148ZM114.492 21.9901C114.492 22.6585 114.492 23.3269 114.492 24.0156C114.965 24.019 114.965 24.019 115.447 24.0225C115.595 24.024 115.595 24.024 115.745 24.0255C115.825 24.0258 115.904 24.0261 115.984 24.0263C116.044 24.0272 116.044 24.0272 116.105 24.028C116.536 24.0282 116.948 23.9757 117.284 23.6872C117.516 23.3856 117.482 23.0095 117.449 22.647C117.348 22.3439 117.177 22.1875 116.897 22.0395C116.67 21.9694 116.456 21.9766 116.219 21.9794C116.17 21.9795 116.12 21.9797 116.07 21.9798C115.912 21.9805 115.755 21.9818 115.598 21.9832C115.491 21.9838 115.384 21.9843 115.277 21.9847C115.015 21.9858 114.754 21.988 114.492 21.9901Z" fill="white"/>
<path d="M62.5312 17.116C63.3262 17.116 64.1211 17.116 64.94 17.116C65.441 17.617 65.441 17.617 65.5927 18.0171C65.6863 18.2376 65.8301 18.4095 65.9802 18.5941C66.2198 18.906 66.4443 19.2263 66.6645 19.5521C66.9088 19.9136 67.16 20.2675 67.427 20.6126C67.7286 21.0059 67.9971 21.4134 68.2795 21.8241C68.2976 20.2704 68.3156 18.7167 68.3342 17.116C68.9485 17.116 69.5627 17.116 70.1956 17.116C70.1956 19.9342 70.1956 22.7525 70.1956 25.6562C69.5994 25.6562 69.0032 25.6562 68.389 25.6562C68.1223 25.3229 67.8625 24.9937 67.6157 24.6469C67.365 24.2971 67.112 23.9493 66.8561 23.6033C66.6077 23.2671 66.3612 22.9297 66.1171 22.5905C65.868 22.2447 65.6171 21.9003 65.3643 21.5572C65.3346 21.5169 65.305 21.4766 65.2744 21.4351C65.0188 21.0888 64.7603 20.745 64.5021 20.4007C64.484 22.135 64.4659 23.8693 64.4473 25.6562C63.815 25.6562 63.1827 25.6562 62.5312 25.6562C62.5312 22.8379 62.5312 20.0197 62.5312 17.116Z" fill="white"/>
<path d="M92.3412 18.1292C92.7248 18.4907 93.0298 18.8808 93.2522 19.3603C93.0059 19.4855 92.7594 19.6102 92.5127 19.7346C92.4288 19.7769 92.345 19.8194 92.2612 19.862C92.1408 19.9232 92.0202 19.984 91.8996 20.0446C91.8621 20.0638 91.8246 20.083 91.786 20.1027C91.6255 20.183 91.5181 20.2363 91.3361 20.2363C91.2655 20.1558 91.2655 20.1558 91.1924 20.0446C90.7933 19.4888 90.2945 19.1616 89.6206 19.0458C88.9223 18.9792 88.2642 19.1922 87.7229 19.6341C87.3045 20.0179 87.0326 20.5397 86.9982 21.109C86.9795 21.8842 87.1168 22.4918 87.656 23.0796C88.1879 23.5843 88.7962 23.7128 89.5038 23.7002C90.0699 23.6758 90.5912 23.4711 91.0076 23.083C91.0818 22.9743 91.1549 22.8649 91.2266 22.7545C91.1655 22.7548 91.1044 22.7551 91.0415 22.7554C90.8157 22.7564 90.59 22.757 90.3642 22.7575C90.2663 22.7578 90.1684 22.7582 90.0706 22.7587C89.9302 22.7593 89.7898 22.7596 89.6495 22.7599C89.5834 22.7603 89.5834 22.7603 89.5161 22.7607C89.411 22.7607 89.306 22.7579 89.201 22.7545C89.183 22.7365 89.1649 22.7184 89.1463 22.6998C89.1463 22.1397 89.1463 21.5797 89.1463 21.0027C90.6457 21.0027 92.1452 21.0027 93.6901 21.0027C93.6901 22.3862 93.4227 23.5227 92.4545 24.5444C91.6755 25.2833 90.6666 25.7736 89.5842 25.8203C89.5438 25.8225 89.5034 25.8246 89.4617 25.8269C88.2661 25.8602 87.1933 25.4538 86.2995 24.6706C86.2618 24.6382 86.2242 24.6057 86.1853 24.5722C85.4068 23.8522 84.9143 22.7472 84.855 21.6949C84.8354 21.068 84.8982 20.5028 85.0951 19.9078C85.1116 19.8569 85.128 19.806 85.145 19.7536C85.3619 19.1534 85.7467 18.6616 86.19 18.2107C86.2276 18.1724 86.2653 18.134 86.304 18.0946C88.0081 16.4727 90.6213 16.6734 92.3412 18.1292Z" fill="white"/>
<path d="M162.506 17.116C167.754 17.116 167.754 17.116 168.802 17.9371C168.856 17.9793 168.91 18.0215 168.966 18.065C169.701 18.6836 170.029 19.7256 170.157 20.647C170.264 22.0311 170.053 23.452 169.14 24.5423C168.519 25.2091 167.724 25.546 166.831 25.6562C166.683 25.6608 166.538 25.6632 166.39 25.6624C166.326 25.6624 166.326 25.6624 166.26 25.6625C166.123 25.6624 165.985 25.662 165.847 25.6616C165.762 25.6615 165.676 25.6614 165.591 25.6614C165.275 25.6611 164.96 25.6603 164.644 25.6596C163.939 25.6585 163.233 25.6574 162.506 25.6562C162.506 22.8379 162.506 20.0197 162.506 17.116ZM164.641 18.9226C164.641 20.5666 164.641 22.2106 164.641 23.9044C166.138 23.986 166.138 23.986 167.419 23.3946C168.01 22.689 168.087 21.8925 168.035 21.0029C167.97 20.3674 167.797 19.773 167.317 19.3312C166.549 18.7336 165.573 18.9226 164.641 18.9226Z" fill="white"/>
<path d="M109.183 17.8271C110.149 18.5742 110.724 19.6407 110.906 20.8441C111.034 22.0115 110.688 23.2007 109.963 24.1241C109.221 25.0242 108.16 25.634 106.993 25.7652C105.678 25.8434 104.519 25.5495 103.506 24.6743C102.643 23.9013 102.089 22.8212 102.011 21.6593C102.009 21.6173 102.006 21.5753 102.003 21.532C101.962 20.3809 102.373 19.282 103.127 18.419C103.21 18.3303 103.295 18.2424 103.38 18.1556C103.418 18.1173 103.455 18.0789 103.494 18.0395C105.059 16.5499 107.485 16.637 109.183 17.8271ZM104.64 19.771C104.149 20.3794 104.03 21.0028 104.092 21.7688C104.22 22.4163 104.588 22.9803 105.132 23.3564C105.767 23.7177 106.343 23.839 107.066 23.706C107.737 23.5066 108.235 23.0838 108.581 22.4804C108.875 21.8886 108.901 21.1754 108.718 20.5438C108.455 19.8712 107.985 19.3939 107.335 19.0931C106.354 18.7171 105.348 19.0165 104.64 19.771Z" fill="white"/>
<path d="M154.078 17.116C156.174 17.116 158.269 17.116 160.429 17.116C160.429 17.6941 160.429 18.2722 160.429 18.8678C159.019 18.8678 157.61 18.8678 156.158 18.8678C156.158 19.4098 156.158 19.9518 156.158 20.5102C157.405 20.5102 158.652 20.5102 159.936 20.5102C159.936 21.1244 159.936 21.7387 159.936 22.3715C158.689 22.3715 157.443 22.3715 156.158 22.3715C156.158 22.8593 156.158 23.3471 156.158 23.8496C157.694 23.8496 159.23 23.8496 160.812 23.8496C160.812 24.4458 160.812 25.042 160.812 25.6562C158.59 25.6562 156.368 25.6562 154.078 25.6562C154.078 22.8379 154.078 20.0197 154.078 17.116Z" fill="white"/>
<path d="M178.932 17.116C179.618 17.116 180.305 17.116 181.012 17.116C181.454 18.0632 181.454 18.0632 181.629 18.451C181.65 18.4955 181.67 18.54 181.691 18.5858C181.755 18.7288 181.82 18.8719 181.885 19.0149C181.907 19.0649 181.93 19.1148 181.953 19.1663C182.281 19.8923 182.607 20.6194 182.93 21.3478C183.285 22.1507 183.645 22.9517 184.006 23.7522C184.044 23.8371 184.083 23.9219 184.121 24.0068C184.225 24.2382 184.33 24.4691 184.436 24.6997C184.458 24.7497 184.481 24.7997 184.505 24.8513C184.549 24.948 184.593 25.0447 184.638 25.1412C184.658 25.1847 184.678 25.2282 184.698 25.273C184.716 25.3114 184.734 25.3498 184.752 25.3893C184.79 25.492 184.79 25.492 184.79 25.6562C184.103 25.6562 183.417 25.6562 182.709 25.6562C182.55 25.3158 182.55 25.3158 182.388 24.9685C182.354 24.8977 182.321 24.8268 182.287 24.7539C182.26 24.697 182.234 24.6402 182.207 24.5816C182.18 24.524 182.153 24.4664 182.125 24.407C182.052 24.2328 182.052 24.2328 181.943 23.8496C180.624 23.8677 179.305 23.8858 177.946 23.9044C177.675 24.4644 177.404 25.0245 177.125 25.6015C177.07 25.6562 177.07 25.6562 176.883 25.6624C176.8 25.6624 176.717 25.6621 176.634 25.6616C176.59 25.6615 176.547 25.6614 176.502 25.6613C176.362 25.661 176.222 25.6603 176.082 25.6596C175.987 25.6594 175.892 25.6591 175.798 25.6589C175.565 25.6583 175.332 25.6573 175.1 25.6562C175.185 25.3802 175.297 25.1224 175.417 24.8601C175.447 24.792 175.447 24.792 175.479 24.7226C175.546 24.5741 175.614 24.4257 175.681 24.2773C175.729 24.1733 175.776 24.0692 175.823 23.9652C176.131 23.287 176.441 22.6098 176.751 21.9328C177.044 21.2949 177.33 20.6543 177.613 20.0125C178.043 19.0422 178.487 18.0793 178.932 17.116ZM179.972 19.1963C179.947 19.2551 179.921 19.3138 179.895 19.3744C179.8 19.5945 179.705 19.8146 179.61 20.0346C179.569 20.1295 179.528 20.2244 179.487 20.3193C179.428 20.4564 179.368 20.5935 179.309 20.7306C179.291 20.7724 179.273 20.8142 179.254 20.8572C179.237 20.8977 179.219 20.9382 179.201 20.98C179.184 21.0195 179.167 21.0591 179.15 21.0998C179.112 21.1857 179.073 21.2711 179.034 21.3563C179.004 21.4218 179.004 21.4218 178.973 21.4886C178.955 21.528 178.936 21.5674 178.917 21.608C178.867 21.7212 178.867 21.7212 178.877 21.8788C179.618 21.8788 180.358 21.8788 181.122 21.8788C180.997 21.4984 180.997 21.4984 180.853 21.1291C180.835 21.0853 180.816 21.0415 180.797 20.9964C180.777 20.951 180.758 20.9057 180.738 20.859C180.707 20.7871 180.707 20.7871 180.676 20.7138C180.611 20.5626 180.547 20.4115 180.482 20.2604C180.438 20.1571 180.394 20.0539 180.349 19.9506C180.242 19.6991 180.134 19.4477 180.027 19.1963C180.009 19.1963 179.991 19.1963 179.972 19.1963Z" fill="white"/>
<path d="M124.24 17.116C124.927 17.116 125.613 17.116 126.321 17.116C126.382 17.2605 126.443 17.405 126.506 17.5539C126.798 18.2392 127.105 18.9174 127.412 19.5963C127.707 20.2501 127.999 20.9049 128.29 21.5606C128.503 22.0409 128.717 22.5207 128.933 22.9996C128.966 23.0722 128.966 23.0722 128.999 23.1463C129.105 23.3797 129.21 23.6131 129.316 23.8463C129.587 24.4455 129.845 25.0492 130.098 25.6562C129.394 25.6562 128.689 25.6562 127.963 25.6562C127.611 24.8419 127.611 24.8419 127.5 24.5851C127.471 24.518 127.441 24.4509 127.412 24.3838C127.397 24.3489 127.382 24.314 127.367 24.2781C127.285 24.0896 127.285 24.0896 127.197 23.9044C125.878 23.9044 124.559 23.9044 123.2 23.9044C122.77 24.7714 122.77 24.7714 122.379 25.6562C121.711 25.6562 121.042 25.6562 120.354 25.6562C120.689 24.8703 121.04 24.0937 121.401 23.3193C121.733 22.6048 122.061 21.8885 122.379 21.1671C122.857 20.0835 123.356 19.0102 123.857 17.9371C124.047 17.5307 124.047 17.5307 124.24 17.116ZM125.226 19.251C125.087 19.5635 124.949 19.8762 124.811 20.189C124.764 20.2952 124.717 20.4015 124.67 20.5077C124.602 20.6607 124.534 20.8139 124.467 20.9672C124.446 21.0143 124.425 21.0614 124.403 21.1099C124.373 21.1773 124.373 21.1773 124.343 21.246C124.317 21.3046 124.317 21.3046 124.291 21.3643C124.226 21.5319 124.18 21.7061 124.131 21.8788C124.89 21.8788 125.648 21.8788 126.43 21.8788C126.082 20.9952 125.712 20.1225 125.335 19.251C125.299 19.251 125.263 19.251 125.226 19.251Z" fill="white"/>
<path d="M78.7404 18.0474C78.7727 18.0718 78.8049 18.0962 78.8382 18.1213C79.1945 18.399 79.5553 18.8313 79.7258 19.2517C79.7258 19.3059 79.7258 19.3601 79.7258 19.416C79.4964 19.5348 79.2665 19.6527 79.0362 19.7698C78.9579 19.8098 78.8797 19.85 78.8017 19.8904C78.6895 19.9485 78.5769 20.0058 78.4641 20.0629C78.4293 20.0811 78.3946 20.0994 78.3587 20.1182C78.2175 20.1888 78.1149 20.2398 77.9552 20.2263C77.8324 20.1669 77.7854 20.0939 77.7105 19.9805C77.3761 19.5147 76.9051 19.1933 76.3316 19.0875C75.6097 19.0308 74.9796 19.1655 74.4156 19.635C73.957 20.0648 73.6972 20.5956 73.6491 21.2226C73.6419 21.9083 73.8395 22.4705 74.3061 22.9744C74.7513 23.4257 75.2738 23.6292 75.9039 23.6519C76.5646 23.6396 77.0884 23.4305 77.5465 22.9609C77.7178 22.7743 77.8697 22.6049 77.974 22.3722C78.1971 22.4057 78.3672 22.4789 78.5661 22.5841C78.626 22.6156 78.6859 22.647 78.7476 22.6794C78.8096 22.7124 78.8716 22.7454 78.9355 22.7794C79.0587 22.8443 79.182 22.9093 79.3052 22.9742C79.3597 23.0031 79.4141 23.032 79.4702 23.0618C79.5912 23.1254 79.7127 23.1876 79.8353 23.2481C79.6515 23.6636 79.4223 24.0015 79.1236 24.3431C79.0951 24.3768 79.0666 24.4105 79.0373 24.4453C78.404 25.1393 77.4006 25.5896 76.4772 25.6736C76.2938 25.6808 76.1115 25.6826 75.9279 25.6809C75.8632 25.6804 75.7986 25.68 75.732 25.6795C74.7285 25.6601 73.866 25.3266 73.1017 24.6715C73.0694 24.6471 73.0372 24.6227 73.0039 24.5975C72.148 23.9307 71.6994 22.8144 71.5688 21.77C71.4977 20.5798 71.7943 19.5219 72.5542 18.5948C72.5987 18.537 72.5987 18.537 72.644 18.478C73.3274 17.6322 74.3899 17.1628 75.4489 17.0175C76.6638 16.9369 77.8079 17.2481 78.7404 18.0474Z" fill="white"/>
<path d="M131.082 17.116C131.787 17.116 132.491 17.116 133.217 17.116C133.217 19.3381 133.217 21.5602 133.217 23.8496C134.608 23.8496 135.999 23.8496 137.432 23.8496C137.432 24.4277 137.432 25.0058 137.432 25.6015C135.337 25.6015 133.241 25.6015 131.082 25.6015C131.082 22.8013 131.082 20.001 131.082 17.116Z" fill="white"/>
<path d="M94.8379 17.116C95.5425 17.116 96.247 17.116 96.973 17.116C96.973 19.3381 96.973 21.5602 96.973 23.8496C98.364 23.8496 99.7551 23.8496 101.188 23.8496C101.188 24.4277 101.188 25.0058 101.188 25.6015C99.0927 25.6015 96.997 25.6015 94.8379 25.6015C94.8379 22.8013 94.8379 20.001 94.8379 17.116Z" fill="white"/>
<path d="M171.812 17.116C172.517 17.116 173.222 17.116 173.948 17.116C173.948 19.9342 173.948 22.7525 173.948 25.6562C173.243 25.6562 172.538 25.6562 171.812 25.6562C171.812 22.8379 171.812 20.0197 171.812 17.116Z" fill="white"/>
<path d="M109.674 28.8336C110.098 28.8291 110.523 28.8246 110.96 28.82C111.094 28.818 111.227 28.816 111.364 28.8139C111.471 28.8133 111.577 28.8127 111.684 28.8123C111.739 28.8111 111.793 28.81 111.849 28.8089C112.286 28.8087 112.576 28.8998 112.897 29.1998C113.081 29.486 113.159 29.7648 113.092 30.1031C113.002 30.3972 112.795 30.5962 112.575 30.8045C112.615 30.8158 112.654 30.8271 112.695 30.8387C112.948 30.9626 113.079 31.1169 113.17 31.3787C113.254 31.7445 113.245 32.0559 113.068 32.3921C112.853 32.6604 112.576 32.796 112.247 32.8848C112.045 32.9058 111.844 32.904 111.641 32.9008C111.566 32.9006 111.566 32.9006 111.489 32.9003C111.304 32.8995 111.118 32.8972 110.933 32.8951C110.517 32.8917 110.102 32.8883 109.674 32.8848C109.674 31.5479 109.674 30.211 109.674 28.8336ZM110.55 29.5453C110.55 29.8525 110.55 30.1596 110.55 30.476C110.753 30.4804 110.956 30.4837 111.159 30.4863C111.245 30.4883 111.245 30.4883 111.332 30.4904C111.64 30.4934 111.875 30.4941 112.137 30.3118C112.223 30.1404 112.23 29.9499 112.192 29.7643C112.073 29.6125 112.011 29.5513 111.818 29.5205C111.759 29.5216 111.701 29.5228 111.64 29.524C111.545 29.525 111.545 29.525 111.448 29.5261C111.382 29.5279 111.316 29.5298 111.248 29.5316C111.181 29.5326 111.114 29.5336 111.045 29.5346C110.88 29.5372 110.715 29.5412 110.55 29.5453ZM110.55 31.1329C110.55 31.4762 110.55 31.8195 110.55 32.1731C110.781 32.1775 111.013 32.1808 111.244 32.1834C111.343 32.1854 111.343 32.1854 111.443 32.1875C111.538 32.1883 111.538 32.1883 111.635 32.1891C111.722 32.1904 111.722 32.1904 111.811 32.1918C111.996 32.1704 112.098 32.1188 112.247 32.0089C112.341 31.82 112.329 31.6132 112.302 31.4067C112.181 31.2407 112.113 31.1977 111.918 31.1329C111.813 31.1284 111.708 31.1271 111.603 31.1276C111.511 31.1279 111.511 31.1279 111.417 31.1281C111.354 31.1286 111.29 31.1291 111.224 31.1295C111.159 31.1298 111.095 31.13 111.028 31.1303C110.869 31.1309 110.709 31.1319 110.55 31.1329Z" fill="white"/>
<path d="M62.4238 28.8314C62.6226 28.8314 62.8213 28.8314 63.026 28.8314C63.0487 28.9142 63.0713 28.9971 63.0946 29.0825C63.1788 29.3904 63.2631 29.6983 63.3475 30.0062C63.3839 30.1394 63.4204 30.2726 63.4567 30.4057C63.5091 30.5974 63.5616 30.789 63.6141 30.9806C63.6303 31.0399 63.6465 31.0993 63.6632 31.1605C63.6785 31.2164 63.6939 31.2722 63.7097 31.3298C63.723 31.3787 63.7364 31.4275 63.7502 31.4779C63.7965 31.6372 63.8495 31.7945 63.9019 31.9519C64.2813 30.4072 64.2813 30.4072 64.6684 28.8314C64.9032 28.8314 65.1381 28.8314 65.3801 28.8314C65.5081 29.1995 65.6109 29.5687 65.7041 29.947C65.7184 30.0047 65.7327 30.0623 65.7475 30.1217C65.7929 30.304 65.838 30.4864 65.883 30.6688C65.9139 30.7931 65.9448 30.9175 65.9757 31.0418C66.0511 31.3451 66.1263 31.6485 66.2012 31.9519C66.3293 31.5839 66.4364 31.2124 66.5372 30.8362C66.5528 30.7786 66.5683 30.721 66.5844 30.6616C66.6336 30.4793 66.6826 30.2969 66.7316 30.1145C66.7651 29.9901 66.7987 29.8658 66.8322 29.7414C66.914 29.4381 66.9956 29.1348 67.0772 28.8314C67.2759 28.8314 67.4746 28.8314 67.6794 28.8314C67.5773 29.1972 67.4752 29.563 67.373 29.9287C67.3384 30.0525 67.3038 30.1763 67.2693 30.3C67.0287 31.1626 66.7823 32.0234 66.5297 32.8825C66.3129 32.8825 66.0961 32.8825 65.8728 32.8825C65.7553 32.5406 65.6534 32.1983 65.5627 31.8484C65.5497 31.7987 65.5367 31.749 65.5233 31.6978C65.4961 31.5937 65.4689 31.4895 65.4419 31.3853C65.4005 31.2261 65.3589 31.067 65.3172 30.9079C65.2907 30.8062 65.2641 30.7046 65.2376 30.6029C65.2253 30.5556 65.2129 30.5082 65.2001 30.4595C65.1448 30.2461 65.0913 30.0338 65.0516 29.8168C64.9239 30.1803 64.8216 30.547 64.7276 30.9205C64.7133 30.9769 64.6989 31.0333 64.6841 31.0914C64.6388 31.2698 64.5937 31.4483 64.5486 31.6268C64.5177 31.7485 64.4868 31.8703 64.4559 31.992C64.3806 32.2888 64.3054 32.5856 64.2304 32.8825C63.9956 32.8825 63.7607 32.8825 63.5187 32.8825C63.3838 32.411 63.2491 31.9394 63.1147 31.4677C63.0523 31.2486 62.9898 31.0296 62.9271 30.8106C62.8665 30.5991 62.8062 30.3876 62.7461 30.176C62.7231 30.0954 62.7001 30.0149 62.677 29.9344C62.6445 29.8213 62.6124 29.7081 62.5803 29.5948C62.5619 29.5305 62.5436 29.4662 62.5246 29.3999C62.4777 29.2109 62.448 29.0245 62.4238 28.8314Z" fill="white"/>
<path d="M72.8301 28.8314C73.896 28.8314 74.9619 28.8314 76.06 28.8314C76.06 29.0662 76.06 29.3011 76.06 29.5431C75.2832 29.5431 74.5064 29.5431 73.706 29.5431C73.706 29.8502 73.706 30.1573 73.706 30.4737C74.3925 30.4737 75.079 30.4737 75.7863 30.4737C75.7863 30.6905 75.7863 30.9073 75.7863 31.1307C75.0998 31.1307 74.4133 31.1307 73.706 31.1307C73.706 31.4739 73.706 31.8172 73.706 32.1708C74.4828 32.1708 75.2597 32.1708 76.06 32.1708C76.06 32.4057 76.06 32.6406 76.06 32.8825C74.9942 32.8825 73.9283 32.8825 72.8301 32.8825C72.8301 31.5457 72.8301 30.2088 72.8301 28.8314Z" fill="white"/>
<path d="M144.223 28.613C144.494 28.613 144.765 28.613 145.044 28.613C145.062 29.0466 145.08 29.4802 145.099 29.9269C145.225 29.8546 145.352 29.7824 145.482 29.7079C145.636 29.6855 145.763 29.6737 145.916 29.6771C145.955 29.6777 145.993 29.6783 146.033 29.6789C146.352 29.6922 146.574 29.7496 146.796 29.9816C147.212 30.4859 147.238 31.107 147.179 31.7335C147.106 32.1429 146.997 32.4857 146.674 32.7608C146.352 32.9854 145.971 32.9787 145.591 32.9379C145.358 32.8667 145.162 32.7824 144.989 32.6094C144.971 32.6997 144.953 32.7901 144.934 32.8831C144.699 32.8831 144.465 32.8831 144.223 32.8831C144.223 31.474 144.223 30.0648 144.223 28.613ZM145.153 30.6386C144.995 31.0236 144.957 31.5118 145.116 31.9046C145.253 32.1403 145.253 32.1403 145.487 32.26C145.691 32.283 145.828 32.2953 146.022 32.2193C146.253 32.0161 146.328 31.8164 146.358 31.5145C146.375 31.156 146.377 30.7953 146.139 30.5051C145.96 30.3658 145.825 30.3427 145.597 30.346C145.392 30.3795 145.289 30.4895 145.153 30.6386Z" fill="white"/>
<path d="M125.333 28.613C125.604 28.613 125.875 28.613 126.154 28.613C126.154 30.0221 126.154 31.4313 126.154 32.8831C125.919 32.8831 125.684 32.8831 125.442 32.8831C125.442 32.7928 125.442 32.7025 125.442 32.6094C125.413 32.6285 125.384 32.6477 125.354 32.6674C125.315 32.6923 125.277 32.7172 125.237 32.7428C125.199 32.7676 125.161 32.7924 125.121 32.8179C124.796 32.999 124.353 32.9997 123.999 32.9024C123.677 32.7567 123.448 32.5314 123.305 32.2078C123.115 31.6205 123.101 30.8772 123.362 30.3101C123.486 30.0752 123.644 29.8674 123.886 29.7441C124.075 29.6924 124.262 29.6841 124.457 29.6805C124.494 29.6795 124.531 29.6785 124.569 29.6775C124.888 29.6814 124.971 29.7517 125.278 29.9269C125.296 29.4933 125.314 29.0597 125.333 28.613ZM124.183 30.5291C123.967 30.8418 123.988 31.2815 124.036 31.6443C124.071 31.8341 124.111 31.9796 124.214 32.1441C124.414 32.2673 124.607 32.2918 124.84 32.2809C125.045 32.1961 125.163 32.0871 125.278 31.8977C125.391 31.5497 125.4 31.0813 125.261 30.7412C125.156 30.5627 125.079 30.457 124.895 30.3649C124.605 30.3459 124.416 30.3367 124.183 30.5291Z" fill="white"/>
<path d="M132.994 28.8319C133.301 28.8319 133.608 28.8319 133.925 28.8319C133.973 28.9692 134.021 29.1065 134.071 29.248C134.119 29.3837 134.166 29.5195 134.214 29.6552C134.246 29.7482 134.279 29.8412 134.312 29.9342C134.343 30.0246 134.375 30.1149 134.407 30.2053C134.438 30.2946 134.47 30.3839 134.501 30.4733C134.573 30.6789 134.646 30.8843 134.721 31.089C134.74 31.142 134.74 31.142 134.76 31.196C134.794 31.2899 134.829 31.3837 134.863 31.4775C134.91 31.6239 134.91 31.6239 134.91 31.7881C134.946 31.7881 134.982 31.7881 135.02 31.7881C135.034 31.7186 135.048 31.6491 135.063 31.5776C135.128 31.2851 135.22 31.0053 135.318 30.7223C135.336 30.6696 135.353 30.617 135.372 30.5628C135.41 30.4525 135.447 30.3423 135.485 30.2321C135.544 30.0627 135.601 29.8932 135.659 29.7236C135.696 29.6162 135.732 29.5089 135.769 29.4016C135.787 29.3507 135.804 29.2998 135.822 29.2474C135.838 29.2008 135.854 29.1542 135.871 29.1061C135.885 29.0649 135.899 29.0238 135.913 28.9813C135.95 28.8866 135.95 28.8866 136.005 28.8319C136.153 28.8279 136.299 28.8268 136.447 28.8284C136.488 28.8287 136.53 28.8289 136.572 28.8292C136.675 28.8298 136.778 28.8308 136.881 28.8319C136.767 29.2285 136.636 29.6167 136.495 30.0046C136.474 30.0628 136.453 30.1209 136.431 30.1809C136.365 30.3654 136.298 30.5498 136.231 30.7343C136.187 30.8571 136.142 30.98 136.098 31.1029C136.033 31.2809 135.969 31.4589 135.905 31.6369C135.755 32.0519 135.606 32.4672 135.458 32.883C135.132 32.883 134.807 32.883 134.472 32.883C134.277 32.4222 134.095 31.9585 133.922 31.4889C133.897 31.4212 133.872 31.3536 133.846 31.2838C133.794 31.142 133.742 31.0002 133.69 30.8583C133.623 30.677 133.556 30.4958 133.489 30.3146C133.424 30.1404 133.36 29.9661 133.296 29.7918C133.26 29.6947 133.26 29.6947 133.223 29.5955C133.201 29.5352 133.179 29.4748 133.156 29.4127C133.137 29.3598 133.117 29.307 133.097 29.2525C133.049 29.1056 133.049 29.1056 132.994 28.8319Z" fill="white"/>
<path d="M86.6358 29.6909C86.6808 29.6894 86.7257 29.6878 86.7721 29.6861C87.0968 29.6828 87.336 29.7455 87.6076 29.927C87.8978 30.2173 87.9488 30.5333 87.9587 30.9325C87.9598 30.9698 87.9608 31.007 87.9619 31.0453C87.9652 31.163 87.9677 31.2806 87.9702 31.3983C87.9723 31.4786 87.9745 31.5588 87.9767 31.6391C87.9819 31.8348 87.9865 32.0306 87.9908 32.2263C88.1534 32.2534 88.1534 32.2534 88.3192 32.2811C88.3192 32.4798 88.3192 32.6785 88.3192 32.8833C88.0047 32.9619 87.6912 32.9985 87.3886 32.8662C87.2791 32.7738 87.2791 32.7738 87.1696 32.6095C87.1301 32.6434 87.0906 32.6773 87.0498 32.7122C86.6821 32.9901 86.302 32.9779 85.8557 32.938C85.6034 32.8735 85.4288 32.7637 85.2809 32.548C85.1347 32.2458 85.1548 31.9229 85.2569 31.6104C85.531 31.2215 85.8019 31.0849 86.2693 30.9922C86.5523 30.9547 86.8301 30.9533 87.1149 30.9672C87.0994 30.8873 87.0833 30.8074 87.067 30.7277C87.0581 30.6832 87.0492 30.6388 87.04 30.593C87.0127 30.4643 87.0127 30.4643 86.8959 30.365C86.7805 30.3496 86.7805 30.3496 86.6529 30.3547C86.6101 30.3551 86.5673 30.3554 86.5231 30.3558C86.3934 30.3609 86.3934 30.3609 86.2389 30.4197C86.2028 30.5101 86.1667 30.6004 86.1294 30.6935C85.8765 30.6935 85.6236 30.6935 85.363 30.6935C85.363 30.2411 85.363 30.2411 85.582 29.9818C85.9319 29.712 86.2099 29.6959 86.6358 29.6909ZM86.0909 31.7582C86.0079 31.8426 86.0079 31.8426 85.9994 31.98C86.0239 32.1433 86.0563 32.1806 86.1842 32.2811C86.4353 32.3342 86.6365 32.3009 86.8651 32.1887C87.0136 32.0547 87.0679 31.9809 87.1149 31.7884C87.124 31.6401 87.124 31.6401 87.1149 31.5146C86.7441 31.4915 86.3886 31.5049 86.0909 31.7582Z" fill="white"/>
<path d="M117.514 29.6909C117.582 29.6886 117.582 29.6886 117.651 29.6861C117.977 29.6828 118.217 29.7447 118.49 29.927C118.723 30.1603 118.81 30.3995 118.83 30.7273C118.83 30.799 118.829 30.8707 118.829 30.9445C118.829 30.9829 118.828 31.0214 118.828 31.0609C118.828 31.1825 118.826 31.3041 118.825 31.4257C118.824 31.5086 118.824 31.5915 118.823 31.6744C118.822 31.8766 118.82 32.0788 118.818 32.2811C118.945 32.2811 119.071 32.2811 119.201 32.2811C119.201 32.4617 119.201 32.6424 119.201 32.8285C118.932 32.963 118.73 32.9696 118.435 32.938C118.233 32.8497 118.175 32.794 118.052 32.6095C118.012 32.6434 117.973 32.6773 117.932 32.7122C117.565 32.9895 117.183 32.9793 116.738 32.938C116.477 32.8616 116.27 32.7444 116.136 32.5001C116.037 32.2045 116.042 31.9014 116.142 31.607C116.406 31.2297 116.73 31.0923 117.162 30.9843C117.44 30.9576 117.718 30.9631 117.997 30.9672C117.981 30.8873 117.965 30.8074 117.949 30.7277C117.94 30.6832 117.931 30.6388 117.922 30.593C117.895 30.4643 117.895 30.4643 117.778 30.365C117.663 30.3496 117.663 30.3496 117.535 30.3547C117.492 30.3551 117.449 30.3554 117.405 30.3558C117.275 30.3609 117.275 30.3609 117.121 30.4197C117.085 30.5101 117.049 30.6004 117.011 30.6935C116.759 30.6935 116.506 30.6935 116.245 30.6935C116.245 30.2344 116.245 30.2344 116.464 29.9818C116.808 29.7364 117.107 29.6956 117.514 29.6909ZM117.011 31.6789C116.893 31.8558 116.876 31.9116 116.902 32.1168C116.989 32.2309 117.038 32.2757 117.18 32.3029C117.536 32.2996 117.536 32.2996 117.833 32.1168C117.948 31.8973 117.997 31.7641 117.997 31.5146C117.644 31.4979 117.331 31.5147 117.011 31.6789Z" fill="white"/>
<path d="M79.9443 29.6907C79.9866 29.6898 80.0289 29.6889 80.0725 29.688C80.4314 29.6877 80.6868 29.7606 80.9708 29.9918C81.3654 30.4718 81.3711 30.8801 81.3711 31.5144C80.6846 31.5144 79.9981 31.5144 79.2908 31.5144C79.3988 32.0316 79.3988 32.0316 79.6193 32.2261C79.8564 32.2974 80.0636 32.2949 80.3002 32.2261C80.4847 32.1042 80.4847 32.1042 80.5499 31.7334C80.8209 31.7334 81.0919 31.7334 81.3711 31.7334C81.3461 32.1457 81.2792 32.3778 80.9742 32.6743C80.5115 32.9793 80.0459 32.9848 79.5098 32.9378C79.1724 32.8651 78.9102 32.7305 78.7041 32.4484C78.4893 32.1034 78.4405 31.7287 78.4457 31.3296C78.4462 31.2843 78.4467 31.2389 78.4472 31.1922C78.4589 30.7757 78.5101 30.409 78.7891 30.0831C79.1398 29.7533 79.4766 29.6888 79.9443 29.6907ZM79.455 30.4742C79.4008 30.6368 79.3466 30.7994 79.2908 30.9669C79.6883 30.9669 80.0857 30.9669 80.4952 30.9669C80.4952 30.6296 80.4938 30.5887 80.2762 30.3647C79.9985 30.2259 79.6935 30.2954 79.455 30.4742Z" fill="white"/>
<path d="M92.2566 29.6881C92.2985 29.6867 92.3403 29.6854 92.3834 29.684C92.7845 29.682 93.088 29.8119 93.3755 30.0918C93.7003 30.5052 93.6868 31.013 93.6868 31.5152C93.0003 31.5152 92.3138 31.5152 91.6065 31.5152C91.6773 31.9628 91.6773 31.9628 91.8015 32.1448C92.0455 32.2949 92.3066 32.3001 92.5851 32.2577C92.7701 32.1216 92.7993 31.9508 92.8657 31.7342C93.1366 31.7342 93.4076 31.7342 93.6868 31.7342C93.6543 32.1121 93.5989 32.3696 93.3207 32.6477C92.8648 32.9899 92.3707 32.9791 91.8255 32.9386C91.4953 32.8783 91.2185 32.7019 91.0043 32.4459C90.6882 31.9256 90.6684 31.2473 90.7969 30.6649C90.9148 30.2961 91.1272 30.0367 91.4423 29.8181C91.7165 29.7027 91.964 29.6886 92.2566 29.6881ZM91.716 30.5298C91.6288 30.6924 91.6065 30.7829 91.6065 30.9677C92.004 30.9677 92.4014 30.9677 92.8109 30.9677C92.796 30.5683 92.796 30.5683 92.6809 30.4237C92.3442 30.2036 92.0051 30.281 91.716 30.5298Z" fill="white"/>
<path d="M154.73 29.7633C155.001 29.7633 155.272 29.7633 155.552 29.7633C155.708 30.1095 155.855 30.4578 155.996 30.8103C156.015 30.8571 156.034 30.9039 156.054 30.9521C156.157 31.2102 156.247 31.4651 156.318 31.7341C156.441 31.5499 156.496 31.3684 156.558 31.1586C156.576 31.0988 156.576 31.0988 156.594 31.0378C156.633 30.9107 156.67 30.7835 156.708 30.6563C156.734 30.57 156.76 30.4837 156.786 30.3974C156.849 30.1862 156.912 29.9747 156.975 29.7633C157.264 29.7633 157.553 29.7633 157.851 29.7633C157.563 30.6415 157.274 31.5192 156.958 32.3876C156.937 32.4464 156.916 32.5052 156.894 32.5658C156.708 33.0709 156.498 33.5563 156.044 33.8692C155.853 33.9331 155.699 33.9312 155.497 33.9308C155.429 33.9309 155.361 33.931 155.292 33.9312C155.114 33.9239 155.114 33.9239 154.949 33.8692C154.949 33.6885 154.949 33.5078 154.949 33.3217C154.99 33.317 155.03 33.3123 155.072 33.3074C155.328 33.2705 155.512 33.2388 155.73 33.0925C155.834 32.9244 155.834 32.862 155.801 32.6727C155.737 32.4229 155.635 32.1869 155.538 31.9488C155.515 31.8914 155.492 31.834 155.468 31.7749C155.395 31.5923 155.321 31.41 155.247 31.2277C155.173 31.0446 155.099 30.8615 155.026 30.6782C154.98 30.5643 154.934 30.4506 154.888 30.3369C154.867 30.2856 154.846 30.2342 154.825 30.1813C154.807 30.1361 154.788 30.091 154.77 30.0444C154.73 29.9275 154.73 29.9275 154.73 29.7633Z" fill="white"/>
<path d="M121.44 29.6881C121.478 29.6867 121.516 29.6854 121.556 29.684C121.839 29.6824 121.996 29.749 122.214 29.9276C122.399 30.173 122.494 30.3581 122.494 30.6651C122.494 30.7144 122.494 30.7637 122.494 30.8145C122.493 30.8676 122.493 30.9206 122.493 30.9752C122.493 31.0297 122.493 31.0841 122.492 31.1402C122.492 31.3143 122.491 31.4883 122.491 31.6623C122.49 31.7803 122.49 31.8982 122.49 32.0161C122.489 32.3054 122.488 32.5946 122.487 32.8838C122.216 32.8838 121.945 32.8838 121.666 32.8838C121.665 32.7831 121.665 32.7831 121.663 32.6804C121.659 32.4315 121.654 32.1827 121.649 31.9339C121.647 31.8261 121.645 31.7184 121.643 31.6106C121.641 31.4559 121.637 31.3011 121.634 31.1463C121.633 31.0981 121.633 31.0498 121.632 31.0001C121.631 30.9552 121.63 30.9103 121.629 30.864C121.628 30.8245 121.627 30.7849 121.627 30.7442C121.616 30.6214 121.616 30.6214 121.502 30.475C121.254 30.3923 121.058 30.3983 120.821 30.5058C120.584 30.7309 120.56 30.9783 120.55 31.2971C120.55 31.3574 120.55 31.3574 120.549 31.419C120.548 31.461 120.546 31.5031 120.545 31.5464C120.542 31.6797 120.54 31.813 120.537 31.9463C120.535 32.0371 120.533 32.128 120.531 32.2188C120.525 32.4404 120.521 32.6621 120.516 32.8838C120.246 32.8838 119.975 32.8838 119.695 32.8838C119.695 31.8541 119.695 30.8243 119.695 29.7634C119.93 29.7634 120.165 29.7634 120.407 29.7634C120.443 29.8537 120.479 29.944 120.516 30.0371C120.557 30.0032 120.598 29.9693 120.64 29.9344C120.907 29.7276 121.103 29.6887 121.44 29.6881Z" fill="white"/>
<path d="M130.714 29.8596C130.929 30.0195 131.057 30.17 131.129 30.4353C131.136 30.5859 131.136 30.5859 131.081 30.6954C130.957 30.7027 130.832 30.708 130.708 30.7125C130.604 30.7172 130.604 30.7172 130.498 30.7221C130.438 30.7133 130.377 30.7044 130.315 30.6954C130.215 30.5608 130.215 30.5608 130.15 30.4216C130.023 30.358 129.943 30.3578 129.801 30.3566C129.759 30.3558 129.717 30.3551 129.673 30.3543C129.536 30.3681 129.448 30.4078 129.329 30.4764C129.342 30.5839 129.342 30.5839 129.384 30.6954C129.532 30.7619 129.668 30.8128 129.822 30.8596C129.863 30.8725 129.904 30.8854 129.946 30.8987C130.2 30.9784 130.2 30.9784 130.454 31.0553C130.771 31.1558 130.967 31.2845 131.152 31.5719C131.239 31.8166 131.232 32.0919 131.157 32.3394C131.023 32.6085 130.804 32.7634 130.534 32.8852C130.034 33.0218 129.363 33.019 128.892 32.7947C128.675 32.65 128.515 32.461 128.398 32.2282C128.398 32.1018 128.398 31.9753 128.398 31.845C128.669 31.845 128.94 31.845 129.22 31.845C129.256 31.9534 129.292 32.0618 129.329 32.1735C129.598 32.3283 129.91 32.2941 130.205 32.2282C130.241 32.1921 130.277 32.156 130.315 32.1187C130.297 31.9762 130.297 31.9762 130.26 31.845C130.181 31.8192 130.181 31.8192 130.101 31.7928C129.954 31.7442 129.807 31.6949 129.66 31.6453C129.528 31.6006 129.395 31.5582 129.262 31.5178C128.919 31.4089 128.698 31.2819 128.508 30.9691C128.416 30.6934 128.424 30.4925 128.535 30.2232C128.689 29.9795 128.937 29.8149 129.213 29.7349C129.673 29.6361 130.298 29.6273 130.714 29.8596Z" fill="white"/>
<path d="M140.436 29.6824C140.501 29.6828 140.501 29.6828 140.567 29.6833C140.919 29.6938 141.202 29.7591 141.483 29.9835C141.703 30.2242 141.71 30.3782 141.702 30.6952C141.578 30.7026 141.454 30.7079 141.329 30.7123C141.225 30.7171 141.225 30.7171 141.119 30.7219C141.059 30.7131 140.998 30.7043 140.936 30.6952C140.839 30.5607 140.839 30.5607 140.771 30.4215C140.527 30.3398 140.282 30.3321 140.036 30.4078C139.927 30.495 139.923 30.5618 139.896 30.6952C140.134 30.7775 140.371 30.8558 140.615 30.9198C141.52 31.1611 141.52 31.1611 141.781 31.5917C141.856 31.9434 141.837 32.2023 141.662 32.5151C141.468 32.7855 141.191 32.8653 140.881 32.9398C140.728 32.9555 140.576 32.9581 140.422 32.9569C140.382 32.9566 140.341 32.9564 140.298 32.9562C139.87 32.9474 139.494 32.8756 139.184 32.5566C139.01 32.2872 139.02 32.1901 139.02 31.8449C139.291 31.8449 139.562 31.8449 139.841 31.8449C139.877 31.9533 139.913 32.0617 139.95 32.1733C140.22 32.3282 140.531 32.2939 140.826 32.2281C140.862 32.192 140.898 32.1558 140.936 32.1186C140.918 31.9761 140.918 31.9761 140.881 31.8449C140.843 31.8336 140.806 31.8223 140.767 31.8107C140.595 31.7583 140.423 31.7041 140.251 31.6498C140.192 31.6322 140.133 31.6145 140.073 31.5963C139.693 31.4748 139.39 31.3331 139.129 31.0237C139.037 30.7484 139.041 30.5124 139.139 30.2436C139.439 29.7894 139.923 29.6781 140.436 29.6824Z" fill="white"/>
<path d="M81.752 29.7617C82.041 29.7617 82.3301 29.7617 82.6279 29.7617C82.7029 29.971 82.7779 30.1802 82.8528 30.3895C82.8782 30.4605 82.9036 30.5315 82.929 30.6025C83.0702 30.9961 83.2094 31.3899 83.3396 31.7873C83.3592 31.7279 83.3788 31.6684 83.399 31.6072C83.4716 31.3875 83.5444 31.1679 83.6172 30.9483C83.6488 30.8531 83.6803 30.7578 83.7117 30.6626C83.7568 30.526 83.8021 30.3894 83.8475 30.2529C83.8615 30.2101 83.8756 30.1673 83.8901 30.1231C83.9903 29.8227 83.9903 29.8227 84.0513 29.7617C84.1898 29.7577 84.3268 29.7566 84.4653 29.7583C84.5236 29.7586 84.5236 29.7586 84.5832 29.759C84.6796 29.7597 84.776 29.7607 84.8724 29.7617C84.7607 30.1513 84.6315 30.5317 84.4905 30.9116C84.4702 30.9666 84.4499 31.0215 84.429 31.0782C84.3865 31.1933 84.3439 31.3083 84.3012 31.4234C84.2356 31.6002 84.1704 31.7772 84.1051 31.9542C84.0637 32.0663 84.0222 32.1784 83.9807 32.2905C83.9611 32.3435 83.9416 32.3966 83.9214 32.4513C83.9033 32.5 83.8852 32.5486 83.8666 32.5987C83.8427 32.6632 83.8427 32.6632 83.8183 32.7289C83.7775 32.8274 83.7775 32.8274 83.7228 32.8822C83.5842 32.8862 83.4472 32.8872 83.3088 32.8856C83.2699 32.8854 83.2309 32.8851 83.1908 32.8849C83.0944 32.8842 82.998 32.8832 82.9016 32.8822C82.6582 32.3212 82.4458 31.749 82.233 31.1759C82.1722 31.0124 82.1111 30.849 82.05 30.6855C82.0113 30.5816 81.9726 30.4777 81.9339 30.3737C81.9156 30.3249 81.8973 30.276 81.8785 30.2257C81.8618 30.1807 81.8452 30.1357 81.828 30.0893C81.8133 30.0497 81.7985 30.0101 81.7834 29.9693C81.752 29.8712 81.752 29.8712 81.752 29.7617Z" fill="white"/>
<path d="M69.2599 29.6881C69.3231 29.6861 69.3231 29.6861 69.3875 29.684C69.7025 29.6824 69.9395 29.7486 70.2009 29.9276C70.6348 30.3808 70.6388 30.8461 70.6388 31.4605C69.8981 31.4605 69.1574 31.4605 68.3943 31.4605C68.4638 32.0228 68.4638 32.0228 68.7775 32.3911C69.0725 32.5191 69.2917 32.5102 69.5987 32.4459C69.8274 32.3442 69.9274 32.2319 70.0366 32.0079C70.0547 31.9356 70.0728 31.8634 70.0914 31.7889C70.272 31.7889 70.4527 31.7889 70.6388 31.7889C70.573 32.151 70.5162 32.4538 70.2064 32.689C69.769 32.9744 69.3441 32.9757 68.8322 32.9386C68.5132 32.864 68.2753 32.7082 68.0778 32.4465C67.7578 31.9183 67.7713 31.2121 67.8808 30.6196C68.0075 30.2119 68.2486 29.9525 68.6244 29.7546C68.8377 29.6905 69.0383 29.6884 69.2599 29.6881ZM68.5072 30.4306C68.4228 30.6346 68.4228 30.6346 68.3943 31.0772C68.9543 31.0772 69.5144 31.0772 70.0914 31.0772C70.058 30.601 70.058 30.601 69.8176 30.2561C69.3567 29.9951 68.8661 30.0253 68.5072 30.4306Z" fill="white"/>
<path d="M100.525 29.6881C100.588 29.6861 100.588 29.6861 100.653 29.684C101.018 29.6822 101.293 29.7845 101.575 30.0174C101.599 30.0465 101.623 30.0756 101.648 30.1055C101.672 30.134 101.697 30.1625 101.722 30.1919C101.943 30.5538 101.985 30.8782 101.979 31.2928C101.98 31.3389 101.981 31.385 101.981 31.4325C101.979 31.8866 101.884 32.3012 101.563 32.637C101.201 32.946 100.819 32.9735 100.353 32.9595C99.9995 32.9226 99.6866 32.8341 99.4441 32.5622C99.0573 31.9762 99.0218 31.3013 99.1458 30.6185C99.2742 30.2116 99.5139 29.9525 99.8897 29.7546C100.103 29.6905 100.304 29.6884 100.525 29.6881ZM99.9058 30.3326C99.6352 30.6364 99.647 30.9236 99.6425 31.3099C99.6409 31.3549 99.6394 31.3998 99.6377 31.4461C99.6344 31.7686 99.6933 32.0139 99.8786 32.2816C100.104 32.4774 100.292 32.5503 100.59 32.5554C100.854 32.5082 101.068 32.4348 101.247 32.2303C101.44 31.935 101.425 31.6535 101.429 31.3099C101.43 31.2623 101.432 31.2148 101.433 31.1658C101.437 30.8341 101.38 30.5877 101.193 30.3108C100.845 29.9939 100.244 30.0179 99.9058 30.3326Z" fill="white"/>
<path d="M153.198 28.8878C153.433 28.8878 153.667 28.8878 153.909 28.8878C153.909 29.1769 153.909 29.4659 153.909 29.7637C154.072 29.7637 154.235 29.7637 154.402 29.7637C154.402 29.9805 154.402 30.1973 154.402 30.4207C154.24 30.4207 154.077 30.4207 153.909 30.4207C153.928 31.0169 153.946 31.613 153.964 32.2273C154.109 32.2453 154.253 32.2634 154.402 32.282C154.402 32.4807 154.402 32.6795 154.402 32.8842C154.208 32.9327 154.056 32.9497 153.858 32.9526C153.802 32.9541 153.747 32.9555 153.689 32.9569C153.497 32.9357 153.403 32.8961 153.253 32.7747C153.08 32.5009 153.066 32.2839 153.072 31.9711C153.073 31.9043 153.073 31.9043 153.073 31.8363C153.074 31.6951 153.076 31.554 153.078 31.4129C153.079 31.3169 153.08 31.2208 153.08 31.1247C153.082 30.89 153.085 30.6553 153.088 30.4207C152.962 30.4207 152.835 30.4207 152.705 30.4207C152.705 30.2039 152.705 29.9871 152.705 29.7637C152.832 29.7637 152.958 29.7637 153.088 29.7637C153.124 29.4747 153.161 29.1856 153.198 28.8878Z" fill="white"/>
<path d="M89.0337 28.8878C89.2686 28.8878 89.5034 28.8878 89.7454 28.8878C89.7454 29.1769 89.7454 29.4659 89.7454 29.7637C89.908 29.7637 90.0706 29.7637 90.2381 29.7637C90.2381 29.9805 90.2381 30.1973 90.2381 30.4207C90.0755 30.4207 89.9129 30.4207 89.7454 30.4207C89.7635 31.0169 89.7815 31.613 89.8002 32.2273C89.9447 32.2453 90.0892 32.2634 90.2381 32.282C90.2381 32.4807 90.2381 32.6795 90.2381 32.8842C89.9288 32.9615 89.5487 33.0279 89.2501 32.8855C89.0963 32.7613 88.9916 32.6301 88.9242 32.4463C88.915 32.2895 88.9115 32.1383 88.9135 31.9818C88.9138 31.9148 88.9138 31.9148 88.914 31.8465C88.9146 31.7042 88.916 31.562 88.9174 31.4198C88.9179 31.3232 88.9184 31.2266 88.9189 31.13C88.9201 30.8936 88.922 30.6571 88.9242 30.4207C88.7978 30.4207 88.6713 30.4207 88.541 30.4207C88.541 30.2039 88.541 29.9871 88.541 29.7637C88.6675 29.7637 88.7939 29.7637 88.9242 29.7637C88.9604 29.4747 88.9965 29.1856 89.0337 28.8878Z" fill="white"/>
<path d="M102.722 29.7633C102.885 29.7633 103.048 29.7633 103.215 29.7633C103.216 29.8295 103.217 29.8958 103.218 29.9641C103.223 30.2108 103.227 30.4575 103.232 30.7042C103.235 30.8108 103.236 30.9174 103.238 31.0241C103.241 31.1776 103.244 31.3312 103.247 31.4848C103.248 31.5322 103.248 31.5796 103.249 31.6284C103.255 31.8833 103.275 32.0989 103.379 32.3363C103.592 32.4914 103.839 32.4803 104.091 32.4458C104.287 32.3762 104.434 32.2774 104.565 32.1136C104.667 31.89 104.665 31.6905 104.667 31.4473C104.667 31.3991 104.668 31.3509 104.669 31.3012C104.672 31.1478 104.674 30.9945 104.676 30.8411C104.678 30.7368 104.68 30.6326 104.682 30.5283C104.686 30.2733 104.69 30.0183 104.693 29.7633C104.874 29.7633 105.055 29.7633 105.241 29.7633C105.241 30.793 105.241 31.8228 105.241 32.8838C105.096 32.8838 104.952 32.8838 104.803 32.8838C104.776 32.7212 104.776 32.7212 104.748 32.5553C104.701 32.5982 104.653 32.6411 104.604 32.6853C104.304 32.9572 103.941 32.9631 103.554 32.9552C103.306 32.9315 103.135 32.8779 102.941 32.7195C102.703 32.3988 102.693 32.0741 102.701 31.6879C102.701 31.6326 102.702 31.5774 102.702 31.5204C102.703 31.3453 102.706 31.1702 102.709 30.995C102.71 30.8757 102.711 30.7564 102.712 30.6371C102.714 30.3458 102.718 30.0545 102.722 29.7633Z" fill="white"/>
<path d="M95.4961 28.8328C95.707 28.7945 95.8881 28.7863 96.0983 28.8328C96.2605 28.9702 96.359 29.1399 96.4672 29.3215C96.5843 29.514 96.7098 29.7009 96.8345 29.8886C96.9045 29.9941 96.974 30.1 97.0428 30.2063C97.0908 30.2796 97.0908 30.2796 97.1397 30.3544C97.1685 30.3987 97.1972 30.443 97.2268 30.4887C97.2519 30.5204 97.2769 30.5521 97.3027 30.5847C97.3388 30.5847 97.3749 30.5847 97.4122 30.5847C97.506 30.4661 97.506 30.4661 97.6029 30.3127C97.6406 30.2554 97.6783 30.1981 97.7171 30.139C97.7569 30.0777 97.7967 30.0164 97.8365 29.9551C97.9859 29.7263 98.1364 29.4982 98.2881 29.2708C98.3179 29.2248 98.3476 29.1787 98.3783 29.1313C98.5743 28.8439 98.5743 28.8439 98.7804 28.7901C98.8325 28.7952 98.8845 28.8002 98.9382 28.8055C98.9911 28.8094 99.0441 28.8134 99.0986 28.8174C99.1581 28.8251 99.1581 28.8251 99.2188 28.8328C99.0445 29.1606 98.8542 29.4661 98.6371 29.7669C98.609 29.8074 98.5809 29.8479 98.5519 29.8897C98.4146 30.0865 98.2764 30.2732 98.1134 30.4495C97.509 31.1402 97.6044 32.0158 97.6312 32.884C97.4505 32.884 97.2698 32.884 97.0837 32.884C97.0849 32.8369 97.0861 32.7898 97.0874 32.7412C97.1328 31.5121 97.1328 31.5121 96.5669 30.4665C96.3956 30.2642 96.2554 30.0385 96.1086 29.8183C96.0502 29.7326 95.9917 29.6471 95.933 29.5616C95.9057 29.5218 95.8784 29.482 95.8503 29.441C95.7725 29.3294 95.6924 29.2197 95.6118 29.11C95.4961 28.9423 95.4961 28.9423 95.4961 28.8328Z" fill="white"/>
<path d="M149.584 28.613C149.855 28.613 150.126 28.613 150.405 28.613C150.405 30.0221 150.405 31.4313 150.405 32.8831C150.134 32.8831 149.863 32.8831 149.584 32.8831C149.584 31.474 149.584 30.0648 149.584 28.613Z" fill="white"/>
<path d="M76.8809 28.613C77.1518 28.613 77.4228 28.613 77.702 28.613C77.702 30.0221 77.702 31.4313 77.702 32.8831C77.431 32.8831 77.1601 32.8831 76.8809 32.8831C76.8809 31.474 76.8809 30.0648 76.8809 28.613Z" fill="white"/>
<path d="M115.43 29.7042C115.589 29.7059 115.589 29.7059 115.752 29.7076C115.752 29.9605 115.752 30.2135 115.752 30.4741C115.648 30.4865 115.544 30.4989 115.437 30.5117C115.169 30.556 115.169 30.556 114.948 30.7067C114.814 30.9877 114.813 31.2818 114.804 31.5891C114.803 31.6263 114.802 31.6635 114.8 31.7018C114.797 31.8195 114.794 31.9371 114.79 32.0548C114.788 32.1351 114.786 32.2153 114.783 32.2956C114.777 32.4914 114.772 32.6871 114.766 32.8828C114.496 32.8828 114.225 32.8828 113.945 32.8828C113.945 31.8531 113.945 30.8233 113.945 29.7624C114.18 29.7624 114.415 29.7624 114.657 29.7624C114.693 29.8527 114.729 29.943 114.766 30.0361C114.817 29.97 114.817 29.97 114.869 29.9026C115.049 29.6853 115.157 29.7013 115.43 29.7042Z" fill="white"/>
<path d="M151.285 29.7633C151.556 29.7633 151.827 29.7633 152.106 29.7633C152.106 30.793 152.106 31.8228 152.106 32.8838C151.835 32.8838 151.564 32.8838 151.285 32.8838C151.285 31.854 151.285 30.8242 151.285 29.7633Z" fill="white"/>
<path d="M147.891 29.7633C148.162 29.7633 148.433 29.7633 148.712 29.7633C148.712 30.793 148.712 31.8228 148.712 32.8838C148.441 32.8838 148.17 32.8838 147.891 32.8838C147.891 31.854 147.891 30.8242 147.891 29.7633Z" fill="white"/>
<path d="M142.521 29.7633C142.792 29.7633 143.063 29.7633 143.343 29.7633C143.343 30.793 143.343 31.8228 143.343 32.8838C143.072 32.8838 142.801 32.8838 142.521 32.8838C142.521 31.854 142.521 30.8242 142.521 29.7633Z" fill="white"/>
<path d="M137.432 29.7633C137.703 29.7633 137.974 29.7633 138.253 29.7633C138.253 30.793 138.253 31.8228 138.253 32.8838C137.982 32.8838 137.711 32.8838 137.432 32.8838C137.432 31.854 137.432 30.8242 137.432 29.7633Z" fill="white"/>
<path d="M107.646 29.7087C107.646 29.8532 107.646 29.9977 107.646 30.1467C107.605 30.1553 107.564 30.164 107.522 30.173C107.182 30.2498 107.182 30.2498 106.9 30.4443C106.755 30.7141 106.759 30.9789 106.753 31.28C106.752 31.3259 106.751 31.3718 106.749 31.419C106.746 31.5652 106.743 31.7113 106.739 31.8574C106.737 31.9567 106.735 32.0559 106.732 32.1551C106.726 32.398 106.721 32.641 106.715 32.8839C106.535 32.8839 106.354 32.8839 106.168 32.8839C106.168 31.8542 106.168 30.8244 106.168 29.7634C106.312 29.7634 106.457 29.7634 106.606 29.7634C106.642 29.8357 106.678 29.908 106.715 29.9824C106.757 29.9373 106.799 29.8921 106.842 29.8456C107.08 29.6424 107.35 29.685 107.646 29.7087Z" fill="white"/>
<path d="M185.393 17.6789C185.589 17.6739 185.589 17.6739 185.789 17.6687C185.851 17.6664 185.851 17.6664 185.913 17.6641C186.082 17.662 186.199 17.6711 186.349 17.7499C186.433 17.8432 186.433 17.8432 186.45 18.0314C186.433 18.2264 186.433 18.2264 186.398 18.334C186.372 18.4811 186.411 18.5426 186.484 18.6712C186.597 18.8741 186.597 18.8741 186.597 18.9928C186.313 19.0313 186.313 19.0313 186.159 18.9928C186.064 18.8872 186.004 18.7828 185.94 18.656C185.893 18.5455 185.893 18.5455 185.776 18.5001C185.776 18.6627 185.776 18.8253 185.776 18.9928C185.649 18.9928 185.523 18.9928 185.393 18.9928C185.393 18.5592 185.393 18.1257 185.393 17.6789ZM185.776 17.9527C185.776 18.043 185.776 18.1333 185.776 18.2264C185.848 18.2264 185.92 18.2264 185.995 18.2264C186.013 18.1722 186.031 18.118 186.05 18.0622C186.013 18.026 185.977 17.9899 185.94 17.9527C185.886 17.9527 185.832 17.9527 185.776 17.9527Z" fill="white"/>
<path d="M127.14 28.8314C127.411 28.8314 127.682 28.8314 127.961 28.8314C127.965 28.9877 127.969 29.1438 127.971 29.3001C127.973 29.3439 127.974 29.3877 127.975 29.4328C127.98 29.8072 127.914 30.0609 127.667 30.354C127.475 30.5138 127.335 30.5832 127.085 30.5832C127.068 30.4019 127.068 30.4019 127.085 30.2C127.176 30.1449 127.267 30.0902 127.359 30.0358C127.417 29.89 127.44 29.7534 127.468 29.5978C127.36 29.5978 127.252 29.5978 127.14 29.5978C127.14 29.3449 127.14 29.092 127.14 28.8314Z" fill="white"/>
<path d="M151.285 28.613C151.556 28.613 151.827 28.613 152.106 28.613C152.106 28.8479 152.106 29.0827 152.106 29.3247C151.835 29.3247 151.564 29.3247 151.285 29.3247C151.285 29.0898 151.285 28.855 151.285 28.613Z" fill="white"/>
<path d="M147.891 28.613C148.162 28.613 148.433 28.613 148.712 28.613C148.712 28.8479 148.712 29.0827 148.712 29.3247C148.441 29.3247 148.17 29.3247 147.891 29.3247C147.891 29.0898 147.891 28.855 147.891 28.613Z" fill="white"/>
<path d="M142.521 28.613C142.792 28.613 143.063 28.613 143.343 28.613C143.343 28.8479 143.343 29.0827 143.343 29.3247C143.072 29.3247 142.801 29.3247 142.521 29.3247C142.521 29.0898 142.521 28.855 142.521 28.613Z" fill="white"/>
<path d="M137.432 28.613C137.703 28.613 137.974 28.613 138.253 28.613C138.253 28.8479 138.253 29.0827 138.253 29.3247C137.982 29.3247 137.711 29.3247 137.432 29.3247C137.432 29.0898 137.432 28.855 137.432 28.613Z" fill="white"/>
<path d="M185.952 17.0632C186.663 17.0632 187.239 17.6398 187.239 18.3503C187.239 19.0606 186.663 19.6365 185.952 19.6365C185.242 19.6362 184.666 19.0605 184.666 18.3503C184.666 17.64 185.242 17.0635 185.952 17.0632ZM185.952 17.3894C185.423 17.3894 184.994 17.8183 184.994 18.3474C184.994 18.8764 185.423 19.3054 185.952 19.3054C186.481 19.3054 186.91 18.8764 186.91 18.3474C186.91 17.8183 186.481 17.3895 185.952 17.3894Z" fill="white"/>
<ellipse cx="47.5824" cy="35.2672" rx="2.24455" ry="0.355844" fill="white"/>
</svg>
