<svg width="224" height="50" viewBox="0 0 224 50" fill="none" xmlns="http://www.w3.org/2000/svg">
<g clip-path="url(#clip0_3281_3235)">
<path d="M120.276 15.6984L124.671 27.3952L129.063 15.6984H135.434V16.4294C134.173 16.3753 133.354 16.3943 133.23 17.8109C132.827 22.3618 133.536 27.5165 133.25 32.1318C133.413 33.3452 134.381 33.4563 135.436 33.3875V33.9723H127.087C126.875 32.9914 127.684 33.5498 128.413 33.3218C128.656 33.2457 129.284 32.6405 129.284 32.4373V18.0375L123.353 33.9723L122.988 33.8758L117.128 18.1851V32.1464C117.128 32.6507 118.074 33.2487 118.553 33.3554C119.168 33.4928 119.442 33.101 119.325 33.9738H113.906C113.767 33.0952 114.135 33.5016 114.791 33.3203C115.651 33.0835 115.923 32.3423 116.091 31.5499C115.908 27.2387 116.373 22.679 116.109 18.3971C116.009 16.7671 115.652 16.27 113.905 16.4308V15.6999H120.276V15.6984Z" fill="white"/>
<path d="M149.054 21.0359C149.004 21.2099 148.598 21.3385 148.47 21.2552C148.382 21.1982 148.108 19.6032 147.954 19.2099C147.622 18.3635 147.055 17.6705 146.202 17.3036C145.819 17.1384 144.666 16.8694 144.294 16.8694H141.877V24.179C143.918 24.3632 144.47 22.9247 144.886 21.261C144.953 20.992 145.019 20.0549 145.101 19.9394C145.158 19.859 145.685 19.995 145.685 20.1587V29.442C145.496 29.4157 145.209 29.5355 145.085 29.3572C144.94 29.1496 144.729 27.4903 144.48 26.9158C143.969 25.7389 143.191 25.2287 141.876 25.3486V32.1465C141.876 32.6071 142.87 32.9111 143.266 32.9506C144.218 33.0456 145.905 32.7591 146.765 32.3468C147.969 31.7694 148.544 30.863 149.08 29.6876C149.193 29.4391 149.603 27.6394 150.078 28.1262C150.283 28.3368 149.332 33.2269 149.492 33.974H135.725V33.3892C136.87 33.4623 137.825 33.3073 137.929 32.0062C138.299 27.3646 137.645 22.2288 137.914 17.5346C137.705 16.058 136.458 16.6984 135.868 16.3606C135.568 16.1881 135.795 15.6984 135.946 15.6984H148.834C148.85 15.6984 149.054 15.9016 149.054 15.9177V21.0344V21.0359Z" fill="white"/>
<path d="M151.837 27.3956C151.896 27.3342 152.224 27.3766 152.348 27.5433C152.489 27.7333 152.843 29.4306 153.044 29.9189C153.492 31.0065 154.475 32.2886 155.509 32.8675C159.119 34.8894 161.976 30.7975 158.855 28.2114C157.137 26.786 154.668 26.0682 153.158 24.2496C149.634 20.0027 153.426 13.484 159.159 15.921C159.69 16.1462 160.647 17.0423 161.13 16.2777C161.417 15.8246 161.14 15.2471 161.796 15.4079L161.943 21.5494C161.801 21.5275 161.399 21.5874 161.366 21.5406C161.316 21.4734 161.152 20.2468 161.032 19.9004C160.598 18.6504 159.479 17.1944 158.215 16.7178C155.125 15.5541 153.066 18.7294 155.576 20.9603C157.476 22.6488 160.614 23.4148 162.064 25.7407C164.865 30.2303 160.759 35.8191 155.564 34.1292C154.765 33.869 153.688 32.9333 152.852 33.6C152.391 33.9669 152.629 34.6204 151.837 34.4142C152.023 33.5429 151.593 27.65 151.837 27.3971V27.3956Z" fill="white"/>
<path d="M84.4678 15.6985V20.6691C84.3258 20.6486 83.923 20.7071 83.8908 20.6618C83.8293 20.577 83.573 19.061 83.3694 18.6224C82.5521 16.8491 81.1198 16.776 79.3417 16.8681V32.2914C79.3417 33.1364 80.8444 33.5268 81.5386 33.3879V33.9727H73.1904V33.3879C73.7484 33.5604 75.3873 33.0823 75.3873 32.4376V16.8681C73.3413 16.7818 72.0715 16.9353 71.2601 18.9616C71.1122 19.33 70.8983 20.5975 70.831 20.653C70.7445 20.7232 70.4179 20.6413 70.2598 20.6691V15.6985H84.4664H84.4678Z" fill="white"/>
<path d="M104.386 15.6985V20.8153C104.15 20.827 104.044 20.8679 103.878 20.6647C103.66 20.4001 103.449 19.0157 103.15 18.4674C102.28 16.8783 100.766 16.7614 99.1137 16.8666L99.1079 30.6892C99.3378 31.2827 99.1093 32.2754 99.3993 32.7373C99.8138 33.3981 100.756 33.4376 101.457 33.3879V33.9727H93.1089V33.3879C93.8339 33.5545 95.3058 33.1861 95.3058 32.2914V16.8681C92.6607 16.6415 91.2928 17.6078 90.8036 20.1984C90.6938 20.7831 90.9764 20.8942 90.1797 20.8153V15.6985H104.386Z" fill="white"/>
<path d="M113.464 15.6985C113.594 16.7351 112.891 16.3345 112.226 16.4368C111.617 16.5304 111.357 16.9602 111.28 17.5391C111.541 22.2304 110.891 27.3677 111.261 32.0064C111.365 33.3075 112.32 33.4624 113.466 33.3893V33.9741H105.117V33.3893C106.17 33.458 107.138 33.3469 107.301 32.1335C107.043 27.489 107.686 22.4044 107.32 17.8125C107.273 17.2248 106.969 16.5962 106.331 16.4602C105.694 16.3243 104.983 16.7321 105.116 15.7H113.464V15.6985Z" fill="white"/>
<path d="M69.1612 15.6985C69.3999 15.7716 69.4058 16.2029 69.3809 16.4295C68.3952 16.3301 67.452 16.4456 67.1913 17.5347C67.4594 22.2304 66.8076 27.3633 67.1767 32.0064C67.2807 33.3119 68.2253 33.499 69.3809 33.3893V33.9741H61.0327V33.3893C61.9173 33.4347 63.0055 33.4595 63.1959 32.4055L63.2223 17.3871C63.0202 16.1649 61.6552 16.6356 61.1748 16.3608C60.8745 16.1883 61.1015 15.6985 61.2524 15.6985H69.1612Z" fill="white"/>
<path d="M100.432 36.5331C100.503 36.2963 100.965 36.2334 101.17 36.3825L102.921 39.2375V36.5331C102.921 36.3401 103.462 36.2656 103.654 36.3138V40.9916C103.369 41.0121 103.097 41.018 102.914 40.7797L101.164 37.9218V40.9916H100.432V36.5331Z" fill="white"/>
<path d="M120.936 36.5331C121.007 36.2963 121.469 36.2334 121.674 36.3825L123.425 39.2375V36.5331C123.425 36.3401 123.966 36.2656 124.157 36.3138V40.9917L123.5 40.844L121.668 37.9218V40.9917H120.936V36.5331Z" fill="white"/>
<path d="M77.9861 40.0789C78.1838 39.8816 78.1706 39.3641 78.1677 39.0892H77.2875V38.3569H78.8999C79.1621 39.845 78.4928 41.5437 76.7091 40.9092C75.6473 40.5306 75.6502 38.3481 75.8538 37.4374C76.0574 36.5267 77.2495 36.0282 78.074 36.4755C78.6788 36.803 79.3012 38.1376 78.4064 37.8993C78.0125 37.7941 77.8074 36.534 76.9097 37.1772C76.3825 37.5558 76.3678 40.0482 76.9449 40.2353C77.185 40.3143 77.806 40.2558 77.9846 40.076L77.9861 40.0789Z" fill="white"/>
<path d="M110.244 39.5304C110.604 39.5757 110.475 39.5275 110.55 39.3257C110.648 39.0582 110.92 37.6987 110.988 37.6432C111.065 37.5803 111.333 37.6475 111.471 37.6227L112.291 39.8213C112.311 39.4924 112.609 37.744 112.751 37.6475C112.877 37.5613 113.272 37.6622 113.464 37.63C113.196 38.0583 112.714 40.8767 112.579 40.9864C112.538 41.02 112.187 41.0083 112.09 40.9747C111.806 40.8753 111.409 39.336 111.414 38.9442C110.939 39.0845 110.812 40.8723 110.676 40.9849C110.576 41.0682 110.147 40.9966 110.021 40.846C109.921 40.7276 109.232 38.1343 109.216 37.8478C109.195 37.4838 109.65 37.5759 109.813 37.6929C109.993 37.823 110.22 39.2044 110.244 39.5289V39.5304Z" fill="white"/>
<path d="M133.826 39.6756L134.343 38.2167C134.47 37.8235 134.261 37.4185 134.908 37.6451C135.254 37.7664 135.505 39.8262 135.655 39.8247C135.812 39.544 136.088 37.7226 136.181 37.6437C136.273 37.5647 136.72 37.6627 136.9 37.632C136.696 38.0617 136.148 40.8772 136.015 40.9883C135.974 41.0219 135.624 41.0117 135.526 40.9766C135.15 40.8436 134.947 39.2122 134.778 38.8C134.646 38.8 134.266 40.7179 134.133 40.9094C134 41.1009 133.634 41.0789 133.492 40.8129C133.35 40.5468 132.537 37.7489 132.654 37.6334C133.703 37.4244 133.445 38.9988 133.827 39.6785L133.826 39.6756Z" fill="white"/>
<path d="M87.2495 36.3127H87.9818V37.7745C89.332 37.3286 89.745 38.0654 89.745 39.3094C89.745 41.3662 88.8385 40.9159 87.248 40.9905V36.3127H87.2495ZM88.219 38.3767C87.8558 38.4966 87.7328 40.3531 88.4943 40.3546C89.2559 40.3561 89.4052 37.9864 88.219 38.3767Z" fill="white"/>
<path d="M146.42 36.3124V38.9437C147.128 38.5242 147.17 37.3854 148.178 37.6281C148.364 37.7918 147.295 38.7259 147.296 39.0139C147.297 39.3019 148.494 40.8353 148.324 40.9888C147.363 41.2198 147.227 40.1965 146.858 39.527C146.239 39.7828 146.438 40.4421 146.422 40.9888H145.689V36.311H146.422L146.42 36.3124Z" fill="white"/>
<path d="M93.6939 40.9912C92.7566 40.7544 91.2057 41.5057 91.1896 40.0424C91.1809 39.275 91.484 39.1157 92.1899 38.9782C92.5399 38.9095 93.4464 39.0513 92.8138 38.4344C92.2441 37.8804 91.3405 38.9344 91.3449 38.1377C91.3493 37.341 93.6939 37.4141 93.6939 38.5792V40.9912ZM92.9617 39.5308C90.7283 39.4153 92.4066 41.0993 92.8885 40.1141C92.9807 39.924 92.9734 39.7311 92.9617 39.5308Z" fill="white"/>
<path d="M108.045 39.5297H105.995C106.162 39.9302 106.241 40.4579 106.789 40.4112C107.24 40.3717 107.455 39.8074 107.896 40.4799C107.254 41.3248 105.802 41.1552 105.474 40.1232C104.617 37.4261 108.041 36.4555 108.045 39.5297ZM107.128 38.3997C106.638 37.9304 105.872 38.6833 106.141 38.9449C106.198 38.999 107.095 38.9084 107.311 38.9449C107.377 38.8821 107.212 38.4801 107.127 38.3997H107.128Z" fill="white"/>
<path d="M128.06 37.9726C128.494 38.4053 128.419 38.9652 128.405 39.5309H126.646C126.52 40.0367 126.908 40.4724 127.419 40.3861C127.813 40.3189 127.964 39.8335 128.402 40.4811C126.785 42.0248 125.253 40.0426 126.094 38.322C126.461 37.5706 127.464 37.3791 128.06 37.9741V37.9726ZM127.636 38.3966C127.089 37.8484 126.403 38.7021 126.647 38.9447C126.695 38.993 127.589 38.8556 127.817 39.0909C127.883 39.0149 127.743 38.5033 127.637 38.3966H127.636Z" fill="white"/>
<path d="M140.221 37.965C140.773 38.5687 140.805 40.6153 139.836 40.9237C137.515 41.662 137.425 37.2779 139.597 37.6302C139.754 37.6551 140.116 37.8495 140.221 37.965ZM139.039 38.3758C138.667 38.4986 138.714 39.9516 138.945 40.1899C139.924 41.1971 140.562 37.8714 139.039 38.3758Z" fill="white"/>
<path d="M83.9868 37.6582C86.0356 37.2109 86.1586 40.7778 84.5286 40.9897C82.6101 41.2382 82.6248 37.9564 83.9868 37.6582ZM84.7395 38.3804C84.6634 38.3307 84.1025 38.3263 83.9765 38.3555C83.6924 38.4198 83.4888 40.2135 84.1654 40.3465C85.2404 40.557 84.9431 38.5163 84.7395 38.3818V38.3804Z" fill="white"/>
<path d="M115.368 38.9435C118.629 38.8968 116.626 42.3701 114.492 40.4785C114.932 39.7972 115.191 40.4112 115.733 40.4127C115.886 40.4127 116.365 40.3147 116.4 40.1686C116.421 40.0823 116.414 39.6905 116.395 39.6759C116.119 39.483 114.557 39.8499 114.637 38.5883C114.713 37.3911 116.705 37.4466 116.832 37.9948C117.014 38.774 114.977 37.6294 115.368 38.9435Z" fill="white"/>
<path d="M130.893 36.7514C130.941 37.4501 130.599 37.9325 131.479 37.7761C131.691 38.3828 130.912 38.2936 130.883 38.4486C130.827 38.7351 130.842 40.2188 131.042 40.3372C131.36 40.5243 131.589 40.2027 131.479 40.9907C129.55 41.1456 130.401 39.4791 130.159 38.4573C130.133 38.3448 129.723 38.4179 129.866 37.8667C129.893 37.7659 130.133 37.7922 130.159 37.6796C130.222 37.4063 130.124 37.0437 130.159 36.7528H130.893V36.7514Z" fill="white"/>
<path d="M96.0373 36.3133V40.1871C96.0373 40.3801 96.9321 40.2953 96.6231 40.9911C96.2995 41.0057 95.8484 41.0101 95.5995 40.7704C95.2055 40.3918 95.2201 37.4696 95.2978 36.8176C95.3622 36.2782 95.4969 36.2811 96.0373 36.3133Z" fill="white"/>
<path d="M81.2448 36.3135V40.1873C81.2448 40.3817 82.1397 40.2955 81.8306 40.9913C81.5011 41.0132 80.9314 40.9986 80.7367 40.6946C80.4467 40.2429 80.4291 37.4595 80.5053 36.8193C80.5697 36.2799 80.7044 36.2828 81.2448 36.3149V36.3135Z" fill="white"/>
<path d="M142.318 37.6277C142.847 37.4084 142.934 37.9332 142.974 37.9215C143.126 37.8748 143.271 37.6555 143.574 37.6277C144.201 37.5678 144.758 37.9771 144.074 38.2855C143.687 38.461 142.902 38.1598 142.902 38.7256V40.9914H142.316V37.6292L142.318 37.6277Z" fill="white"/>
<path d="M73.2596 8.97736C73.4485 8.99636 74.0489 9.11039 74.2496 9.16155C75.3538 9.4393 75.3757 11.3207 74.2129 11.6803C74.8353 12.3936 75.0653 13.854 76.2618 13.6552V9.489C76.2618 9.35013 75.8356 9.24487 75.676 9.26826C75.6262 9.23026 75.862 8.97736 75.8956 8.97736H79.3372V10.5854C78.9769 10.4699 79.0985 10.0357 78.9066 9.77259C78.605 9.35744 77.8976 9.3969 77.4334 9.41591V11.3163C78.0733 11.2958 78.0572 11.0064 78.1656 10.5079C78.2213 10.2521 78.0162 10.0796 78.46 10.1468V12.7781C77.9313 12.4214 78.3121 11.5648 77.4348 11.6086C77.4832 11.901 77.366 13.4418 77.4348 13.509C77.5139 13.588 78.4834 13.4944 78.7148 13.3979C79.2728 13.1655 79.2186 12.6495 79.6301 12.3396C79.6579 12.6085 79.6081 13.816 79.4705 13.9329C79.2845 14.0923 75.2103 13.8423 74.5776 13.949C74.1675 13.8716 73.4163 12.3659 73.0823 11.9405C73.0135 11.8528 72.9652 11.5195 72.7499 11.7563C72.6943 11.8177 72.7192 13.2795 72.7675 13.4184C72.892 13.7868 73.4558 13.4535 73.3357 13.9476H71.139C71.0086 13.4842 71.4992 13.7414 71.6603 13.5207C71.7833 13.3541 71.7833 9.57086 71.6603 9.40421C71.4992 9.18348 71.0086 9.44076 71.139 8.97736C71.8273 9.02414 72.5844 8.91158 73.2625 8.97736H73.2596ZM72.747 11.4625C73.6886 11.2169 73.9859 11.3221 73.9274 10.2141C73.8849 9.40568 73.4719 9.41006 72.747 9.41591V11.4625Z" fill="white"/>
<path d="M63.3767 8.97651C63.5188 9.46622 62.9608 9.14608 62.9286 9.34781C62.8451 9.87699 63.0062 10.6094 62.9388 11.1692C63.5173 10.6021 64.2847 10.1986 64.6918 9.48668L64.2554 8.97797C64.522 9.02475 65.7917 8.91072 65.8649 8.97797C66.108 9.1987 65.7404 9.25279 65.6774 9.3098C65.0682 9.8536 64.3389 10.2731 63.8483 10.95C63.8395 11.1005 65.3714 13.2553 65.5676 13.4424C65.8546 13.7172 66.2486 13.5184 66.1578 13.9482H63.8146C63.7062 13.4628 64.2422 13.8444 64.0797 13.3211C63.983 13.0068 63.1995 11.9411 62.8641 11.7554L62.9271 13.5783L63.3753 13.9496H61.18C61.0496 13.4862 61.5402 13.7435 61.7013 13.5228C61.8244 13.3561 61.8244 9.57293 61.7013 9.40628C61.5402 9.18409 61.0496 9.4399 61.18 8.97651H63.3767Z" fill="white"/>
<path d="M70.0621 13.4599C69.0985 14.3604 67.4201 14.1484 66.6791 13.0608C65.7711 11.7306 66.2031 9.4399 67.9034 9.04082C70.5717 8.4137 71.7682 11.8651 70.0606 13.4599H70.0621ZM67.9561 13.4658C68.6825 14.0973 69.4045 13.2962 69.5173 12.5507C69.6389 11.7437 69.715 8.91364 68.3516 9.3288C67.1858 9.68402 67.2356 12.8386 67.9561 13.4672V13.4658Z" fill="white"/>
<path d="M82.4149 13.9473C82.037 13.6287 82.8249 13.6681 82.8513 13.652C82.9963 13.5599 82.8396 12.7019 82.204 12.6244C81.3209 12.5162 80.7717 12.5571 80.9416 13.5775C80.9753 13.7763 81.5332 13.4605 81.3882 13.9473C81.1349 13.9035 79.9604 14.0438 79.9238 13.8742C79.8696 13.6257 80.2093 13.5994 80.3968 13.3261C81.0514 12.3715 81.5113 10.4141 82.0561 9.27241C82.1381 9.09992 82.0356 8.91426 82.3402 8.97858L83.8076 12.7779L84.4651 13.9503C84.1459 13.8918 82.5086 14.0292 82.4149 13.9503V13.9473ZM82.4149 12.1931L81.9023 10.879L81.2433 12.1931H82.4149Z" fill="white"/>
</g>
<defs>
<clipPath id="clip0_3281_3235">
<rect width="101.944" height="32.0934" fill="white" transform="translate(61.0273 8.95334)"/>
</clipPath>
</defs>
</svg>
