<svg width="224" height="50" viewBox="0 0 224 50" fill="none" xmlns="http://www.w3.org/2000/svg">
<path d="M140.79 33.2834H137.238V24.5038C137.238 24.4446 136.802 23.541 136.733 23.4305C135.538 21.5424 132.29 21.6667 131.035 23.4285C130.943 23.5587 130.532 24.2552 130.532 24.3065V33.2834H126.981V22.5308C126.981 21.862 124.698 22.3256 124.613 22.2349L124.702 19.4609C125.016 19.015 127.099 19.0012 127.663 19.086C128.279 19.1788 128.962 19.7785 129.453 19.8614C131.167 20.1573 131.848 19.2675 133.209 19.09C135.948 18.7329 139.14 19.7529 140.241 22.4894C140.33 22.7104 140.792 24.2098 140.792 24.3065V33.2834H140.79Z" fill="white"/>
<path d="M164.266 19.0802V22.1403C164.264 24.4269 164.266 26.027 164.457 27.8658C164.767 30.8213 169.437 31.2691 170.728 28.5997C170.804 28.4419 171.171 27.5265 171.171 27.4653V19.0802H174.525V29.2409C174.525 29.2883 174.788 30.109 174.839 30.1465C175.484 30.6181 176.948 29.9749 177.09 30.1288C176.972 30.8055 177.297 32.3937 176.998 32.8968C176.698 33.3999 174.064 33.3881 173.446 33.2816C173.04 33.2105 172.44 32.7134 171.967 32.593C170.532 32.23 169.934 33.1119 168.693 33.2737C165.77 33.6564 162.786 32.9442 161.421 30.115C161.348 29.965 160.914 28.9154 160.914 28.8464V19.0802H164.268H164.266Z" fill="white"/>
<path d="M103.909 20.0755C103.96 20.0439 104.069 19.9749 104.238 19.8802C106.276 18.732 110.007 18.8011 112.043 19.9078C116.557 22.36 116.835 29.62 112.473 32.2951C110.263 33.6505 106.485 33.7294 104.227 32.4569C99.7443 29.9357 99.5766 22.8375 103.909 20.0755ZM105.337 29.2767C105.828 29.8035 106.842 30.2276 107.561 30.3065C111.049 30.6952 112.319 28.2252 111.99 25.0904C111.66 21.9556 107.036 21.0067 105.168 23.4115C103.994 24.9227 104.023 27.8701 105.337 29.2767Z" fill="white"/>
<path d="M98.6694 27.9541L98.5392 28.4098C98.3301 29.047 98.1565 29.6882 97.8172 30.2642C96.1995 33.0084 92.7589 33.7265 89.7937 33.2748C88.2411 33.038 86.436 31.6689 85.5778 30.3885C84.1909 28.321 84.041 25.7524 84.8597 23.4225C87.0574 17.1647 97.5568 17.6579 98.5669 24.405H95.1144C94.5423 23.0477 93.982 22.2388 92.3347 22.0573C88.6712 21.6509 86.8345 25.3282 88.3615 28.396C89.7681 31.2211 94.1576 31.0968 95.0158 27.956H98.6694V27.9541Z" fill="white"/>
<path d="M157.756 24.4055H154.205C153.836 22.2433 151.69 21.7402 149.78 22.2472C147.044 22.9732 146.399 27.1615 148.184 29.1442C149.52 30.6278 151.498 30.831 153.173 29.7933C153.846 29.375 154.207 28.7102 154.503 27.9566H157.758C157.908 29.7893 156.385 31.5984 154.86 32.4566C152.909 33.5535 149.746 33.6304 147.712 32.7742C142.469 30.5686 142.372 22.1841 147.491 19.7615C151.421 17.9011 157.383 19.5484 157.758 24.4055H157.756Z" fill="white"/>
<path d="M122.049 19.0802H118.488V33.2845H122.049V19.0802Z" fill="white"/>
<path d="M118.747 16.4566C118.085 15.847 117.946 14.4029 118.586 13.742C119.225 13.0811 120.841 12.8838 121.563 13.3454C122.62 14.0201 122.772 15.7819 121.756 16.5177C120.886 17.149 119.562 17.2043 118.745 16.4566H118.747Z" fill="white"/>
<path d="M51.754 10.0473L71.6408 9.99996C74.8704 10.5879 76.867 12.7896 76.867 16.0193C76.867 22.2063 76.867 28.3913 76.867 34.3712C76.5553 37.3936 74.2983 39.9939 71.2442 39.9939C64.9783 39.9939 59.032 39.9998 52.0973 39.9998C49.2898 39.481 47.3387 37.6126 46.873 34.7677L46.8888 15.0466C47.3643 12.4542 49.1675 10.58 51.754 10.0473ZM58.6611 15.1788C58.0022 15.3899 57.3215 15.5931 56.852 16.1317C55.7215 17.4338 56.6566 19.2686 54.8712 20.4642C53.9735 21.0659 52.9654 20.8982 52.0598 21.204C50.227 21.8255 50.2921 24.6921 50.4164 26.2882C50.4854 27.1721 50.8918 27.9178 51.6198 28.4387C52.7404 29.2397 54.0998 28.6892 55.2638 29.727C56.3055 30.6542 55.9484 31.8557 56.3942 32.9369C56.8934 34.1482 57.7378 34.673 58.9985 34.673C62.6957 34.673 66.6612 34.6671 70.6504 34.6671C74.2134 34.0298 74.101 29.1311 70.2617 29.1311C66.6336 29.1311 62.5201 29.143 58.8071 29.143C55.899 29.143 55.6998 25.8542 55.9425 23.5104C56.0608 22.3799 57.1183 21.1034 58.2626 20.8982C62.311 20.8982 66.1285 20.8627 70.2617 20.8627C74.1385 20.8627 74.2943 15.1295 70.2578 15.1295C66.5448 15.1295 62.4017 15.1788 58.6591 15.1788H58.6611Z" fill="white"/>
</svg>
