<svg width="224" height="50" viewBox="0 0 224 50" fill="none" xmlns="http://www.w3.org/2000/svg">
<path fill-rule="evenodd" clip-rule="evenodd" d="M74.1545 24.9928C74.1597 27.9956 73.3414 30.9424 71.7888 33.5127L69.1293 29.7885C69.7661 28.27 70.093 26.6395 70.0907 24.9928C70.0906 24.1559 70.0068 23.3211 69.8406 22.5008C69.8246 22.4228 69.8085 22.3471 69.7901 22.2714V22.2438C69.7695 22.1612 69.7511 22.0763 69.7282 21.9937C69.7052 21.9111 69.6961 21.8583 69.6777 21.7941C69.6364 21.6426 69.5951 21.4889 69.5469 21.3352L69.5056 21.1998L69.4849 21.1332C69.4391 20.9955 69.3909 20.8579 69.3404 20.7179C69.306 20.6215 69.2693 20.5274 69.2325 20.4334C69.1958 20.3393 69.1568 20.2452 69.1178 20.1534C69.0788 20.0616 69.0375 19.9676 68.9962 19.8758C68.9136 19.6922 68.8264 19.5109 68.7323 19.3319C68.6956 19.2539 68.6543 19.1736 68.6107 19.1025C68.6107 19.1025 68.5992 19.0841 68.5946 19.0727C68.59 19.0612 68.5946 19.0727 68.5946 19.0612C68.551 18.9763 68.5028 18.8914 68.4524 18.8065C68.4019 18.7216 68.3537 18.6344 68.2986 18.5472C68.1885 18.3636 68.0692 18.18 67.9498 18.0011C67.2888 17.0237 66.4896 16.1472 65.5772 15.399C65.5061 15.3393 65.4326 15.2819 65.3592 15.2246C65.2858 15.1672 65.1848 15.0869 65.0953 15.0226C65.0058 14.9584 64.9347 14.901 64.8544 14.846C64.7741 14.7909 64.7053 14.7381 64.6249 14.6876C64.5377 14.6257 64.4483 14.5683 64.3565 14.5109L64.1683 14.3916L63.9824 14.2792C62.3874 13.3429 60.6049 12.7716 58.7628 12.6061C56.9207 12.4407 55.0648 12.6853 53.3285 13.3223C52.4107 13.6642 50.4878 14.8138 50.412 14.8666L48.0371 11.5509L48.3446 11.349C49.1485 10.8014 49.9993 10.326 50.887 9.92858C53.1483 8.92031 55.607 8.43235 58.0819 8.50065C60.5569 8.56896 62.9849 9.1918 65.1871 10.3233C65.3432 10.4036 65.4969 10.4862 65.646 10.5711L65.8755 10.7042L66.0912 10.8327L66.3046 10.9612C66.456 11.0552 66.6052 11.1516 66.7635 11.2503L66.9356 11.365L67.1834 11.5371L67.4404 11.7253L67.5804 11.8285C67.6607 11.8905 67.741 11.9501 67.8099 12.0144C68.0187 12.1773 68.2229 12.3448 68.4225 12.5192C68.6222 12.6936 68.8172 12.8703 69.01 13.0516L69.2922 13.3292C69.3863 13.4233 69.4781 13.5174 69.5699 13.6137C69.7442 13.795 69.9117 13.9809 70.077 14.1713C70.1481 14.2517 70.2169 14.3343 70.2835 14.4146C70.35 14.4949 70.4212 14.5798 70.4877 14.6647C70.5542 14.7496 70.5978 14.8001 70.6506 14.8689L70.8112 15.0777L70.9673 15.2911C71.0338 15.3806 71.0981 15.4701 71.16 15.5619C71.222 15.6537 71.2839 15.7455 71.3459 15.8372C71.3803 15.8854 71.4101 15.9336 71.4423 15.9818C71.4744 16.03 71.5088 16.0782 71.5363 16.1287L71.6855 16.3581C71.7566 16.4706 71.8255 16.5876 71.892 16.7C71.9586 16.8125 71.9884 16.8675 72.0343 16.9524C72.0802 17.0373 72.1307 17.1199 72.1765 17.2071L72.188 17.2278C72.1917 17.2366 72.1963 17.2451 72.2018 17.253C72.2049 17.2636 72.2095 17.2736 72.2156 17.2828C72.2208 17.294 72.2269 17.3048 72.2339 17.315L72.3624 17.5651L72.3808 17.5995C72.429 17.6959 72.4771 17.7923 72.523 17.8886C72.5689 17.985 72.6217 18.102 72.6722 18.2076L72.8122 18.4623C72.8512 18.5495 72.8856 18.6344 72.9223 18.7216L73.0118 18.951C73.0531 19.0535 73.0921 19.1568 73.1288 19.2608C73.1415 19.2875 73.1522 19.3151 73.1609 19.3434C73.2045 19.4604 73.2458 19.5729 73.2848 19.6968C73.372 19.9515 73.4524 20.2108 73.5281 20.4724C73.5625 20.594 73.5946 20.7156 73.6267 20.8395C73.6291 20.8485 73.6291 20.858 73.6267 20.8671C73.6956 21.1309 73.7552 21.3971 73.8126 21.6656C73.8401 21.7987 73.8654 21.9318 73.8883 22.0648C73.8883 22.0648 73.8883 22.0993 73.8883 22.1199C73.909 22.2346 73.9273 22.3494 73.9457 22.4687C73.9641 22.588 73.9824 22.7326 74.0031 22.8611V22.8817C74.0214 23.0194 74.0352 23.1594 74.0513 23.2971C74.0765 23.5541 74.0971 23.8111 74.1109 24.0726C74.1453 24.3801 74.1545 24.6853 74.1545 24.9928Z" fill="white"/>
<path d="M69.7153 36.258C68.9646 37.0618 68.1352 37.7882 67.2394 38.4264C66.3437 39.0662 65.3867 39.6158 64.3827 40.067C61.1583 41.5084 57.5569 41.8785 54.1067 41.1231C50.6566 40.3677 47.5393 38.5266 45.2122 35.8697C42.8852 33.2128 41.4708 29.8801 41.1766 26.3605C40.8824 22.8409 41.7238 19.3197 43.5775 16.3133C43.6509 16.1917 43.729 16.0839 43.807 15.9531C43.885 15.8223 43.963 15.7236 44.0364 15.5974C44.321 15.1844 44.6269 14.7867 44.9543 14.4042C45.0162 14.3285 45.0805 14.2528 45.1493 14.1748C45.1799 14.138 45.212 14.1013 45.2457 14.0646C45.3168 13.982 45.3903 13.9017 45.4752 13.8214L45.5601 13.7319L47.9373 17.0866L47.9671 17.1279C47.912 17.1945 47.8569 17.2633 47.8065 17.3344C47.7497 17.4001 47.6969 17.4691 47.6481 17.5409C45.8671 19.9198 44.9958 22.8573 45.1917 25.8225C45.3877 28.7877 46.6379 31.585 48.7165 33.7088C50.7951 35.8325 53.5649 37.1426 56.5252 37.4023C59.4855 37.6619 62.4411 36.854 64.8576 35.1245L63.4809 33.1947L61.1197 29.8905C62.0636 29.213 62.7931 28.2788 63.2216 27.1989C63.5795 26.2857 63.7091 25.299 63.599 24.3244C63.4888 23.3498 63.1424 22.4168 62.5897 21.6065C62.037 20.7963 61.2948 20.1332 60.4276 19.675C59.5604 19.2168 58.5944 18.9773 57.6136 18.9774C57.5287 18.9774 57.4392 18.9774 57.3543 18.9774H57.3428C56.1873 19.03 55.072 19.4175 54.1327 20.0925L51.7761 16.786C52.6821 16.1365 53.6903 15.6432 54.7591 15.3267C55.6899 15.0494 56.6561 14.9087 57.6274 14.909C57.9302 14.909 58.2262 14.9228 58.52 14.948C61.0301 15.1731 63.3653 16.3289 65.0667 18.1882C66.768 20.0475 67.7125 22.4759 67.7144 24.9961C67.7144 27.0924 67.0598 29.1364 65.842 30.8427L67.283 32.8597L69.7153 36.258Z" fill="white"/>
<path fill-rule="evenodd" clip-rule="evenodd" d="M61.1257 29.8763C60.4848 30.3466 59.757 30.685 58.9843 30.8718C58.2117 31.0586 57.4096 31.0902 56.6247 30.9646C55.8397 30.8391 55.0875 30.5589 54.4117 30.1404C53.7359 29.7219 53.1499 29.1734 52.6877 28.5266C52.2255 27.8799 51.8963 27.1478 51.7192 26.3729C51.5422 25.5979 51.5207 24.7956 51.6561 24.0123C51.7916 23.229 52.0812 22.4804 52.5082 21.8099C52.9351 21.1394 53.491 20.5603 54.1435 20.1063L61.1257 29.8763Z" fill="white"/>
<path d="M89.3731 26.5619L91.5896 28.1956C90.1509 30.123 88.4507 30.9628 86.5738 30.9628C85.7767 30.9784 84.9845 30.8349 84.2436 30.5406C83.5027 30.2464 82.8279 29.8073 82.2587 29.2491C81.6895 28.691 81.2373 28.0249 80.9286 27.2898C80.6199 26.5548 80.4609 25.7656 80.4609 24.9684C80.4609 24.1712 80.6199 23.382 80.9286 22.6469C81.2373 21.9119 81.6895 21.2458 82.2587 20.6876C82.8279 20.1295 83.5027 19.6904 84.2436 19.3962C84.9845 19.1019 85.7767 18.9584 86.5738 18.974C88.4828 18.974 90.2152 19.862 91.6561 21.7893L89.4052 23.4391C88.5012 22.2253 87.5696 21.7389 86.5738 21.7389C85.7197 21.7389 84.9006 22.0782 84.2966 22.6821C83.6927 23.286 83.3534 24.1051 83.3534 24.9592C83.3534 25.8133 83.6927 26.6324 84.2966 27.2363C84.9006 27.8403 85.7197 28.1796 86.5738 28.1796C87.5765 28.1796 88.4667 27.7597 89.3731 26.5619Z" fill="white"/>
<path d="M95.6052 23.8122C96.343 23.4436 97.1576 23.2549 97.9824 23.2616L97.3514 25.8199C96.3969 25.8199 95.6052 26.3041 95.6052 26.9029V30.8036H93.0469V23.3923H95.6052V23.8122Z" fill="white"/>
<path d="M100.071 34.2165L101.737 30.1048L99.0039 23.3911H101.576L103.008 26.8856L104.414 23.3911H106.986L102.595 34.2165H100.071Z" fill="white"/>
<path d="M115.898 27.0961C115.897 28.1215 115.49 29.1049 114.766 29.8312C114.408 30.1843 113.983 30.4632 113.517 30.6518C113.05 30.8404 112.551 30.935 112.047 30.9302C111.579 30.9175 111.126 30.7569 110.753 30.4713V34.2252H108.197V23.3905H110.753V23.7393C111.123 23.4493 111.578 23.2881 112.047 23.2804C112.551 23.276 113.05 23.371 113.517 23.56C113.983 23.749 114.408 24.0282 114.766 24.3817C115.486 25.1025 115.892 26.0777 115.898 27.0961ZM113.342 27.0961C113.338 26.8409 113.26 26.5923 113.116 26.3816C112.972 26.1709 112.768 26.0075 112.532 25.912C112.295 25.8166 112.035 25.7932 111.785 25.8449C111.535 25.8967 111.306 26.0212 111.127 26.2028C110.947 26.3844 110.826 26.615 110.777 26.8656C110.729 27.1161 110.755 27.3755 110.853 27.6111C110.952 27.8466 111.118 28.0478 111.33 28.1893C111.543 28.3308 111.792 28.4063 112.047 28.4063C112.392 28.402 112.72 28.2619 112.961 28.0165C113.202 27.771 113.337 27.4402 113.335 27.0961H113.342Z" fill="white"/>
<path d="M117.582 28.0993V25.7681H116.691V23.391H117.582V21.0758H120.138V23.391H121.973V25.7681H120.138V28.0626C120.131 28.1167 120.146 28.1712 120.18 28.2142C120.213 28.2572 120.263 28.2851 120.317 28.292H121.87L122.533 30.7999H120.285C119.929 30.8021 119.577 30.7337 119.248 30.5987C118.92 30.4638 118.621 30.265 118.369 30.0138C118.118 29.7626 117.919 29.4641 117.784 29.1355C117.649 28.8068 117.58 28.4546 117.582 28.0993Z" fill="white"/>
<path d="M131.031 27.0979C131.03 28.1233 130.624 29.1067 129.9 29.8329C129.182 30.5477 128.21 30.9487 127.197 30.948C126.692 30.948 126.192 30.8486 125.726 30.6555C125.26 30.4623 124.836 30.1793 124.479 29.8224C124.122 29.4655 123.839 29.0418 123.646 28.5755C123.453 28.1092 123.354 27.6095 123.354 27.1047C123.354 26.6 123.453 26.1003 123.646 25.634C123.839 25.1677 124.122 24.744 124.479 24.3871C124.836 24.0302 125.26 23.7471 125.726 23.554C126.192 23.3609 126.692 23.2614 127.197 23.2614C128.208 23.2556 129.18 23.6518 129.9 24.3628C130.624 25.0886 131.031 26.0723 131.031 27.0979ZM128.475 27.0979C128.461 26.7662 128.319 26.4527 128.08 26.223C127.84 25.9932 127.521 25.865 127.189 25.865C126.857 25.865 126.538 25.9932 126.298 26.223C126.058 26.4527 125.917 26.7662 125.903 27.0979C125.895 27.2713 125.923 27.4445 125.985 27.6069C126.046 27.7693 126.139 27.9177 126.26 28.043C126.38 28.1683 126.524 28.268 126.684 28.3362C126.843 28.4043 127.015 28.4394 127.189 28.4394C127.362 28.4394 127.534 28.4043 127.694 28.3362C127.854 28.268 127.998 28.1683 128.118 28.043C128.238 27.9177 128.332 27.7693 128.393 27.6069C128.454 27.4445 128.482 27.2713 128.475 27.0979Z" fill="white"/>
<path d="M140.044 27.0962C140.043 28.1218 139.635 29.1052 138.911 29.8312C138.553 30.1848 138.128 30.4639 137.661 30.6526C137.195 30.8412 136.695 30.9356 136.192 30.9303C135.723 30.9167 135.27 30.7562 134.898 30.4714V34.2252H132.342V23.3905H134.905V23.7393C135.275 23.4496 135.729 23.2885 136.199 23.2804C136.702 23.2755 137.202 23.3703 137.668 23.5593C138.135 23.7484 138.56 24.0279 138.918 24.3818C139.635 25.1034 140.04 26.0785 140.044 27.0962ZM137.486 27.0962C137.483 26.8409 137.404 26.5923 137.26 26.3816C137.116 26.1709 136.913 26.0076 136.676 25.9121C136.439 25.8166 136.18 25.7932 135.93 25.845C135.68 25.8967 135.451 26.0212 135.271 26.2028C135.092 26.3844 134.97 26.615 134.922 26.8656C134.873 27.1162 134.9 27.3756 134.998 27.6111C135.096 27.8466 135.262 28.0478 135.475 28.1893C135.687 28.3308 135.937 28.4063 136.192 28.4063C136.363 28.4054 136.532 28.3708 136.69 28.3044C136.848 28.2381 136.991 28.1413 137.111 28.0196C137.231 27.8979 137.326 27.7537 137.39 27.5953C137.455 27.4368 137.487 27.2672 137.486 27.0962Z" fill="white"/>
<path d="M148.781 27.0979C148.78 28.1237 148.373 29.1075 147.647 29.8329C146.931 30.548 145.959 30.9491 144.947 30.9481C144.442 30.9481 143.942 30.8486 143.476 30.6555C143.01 30.4624 142.586 30.1793 142.229 29.8224C141.872 29.4655 141.589 29.0418 141.396 28.5755C141.203 28.1092 141.104 27.6095 141.104 27.1048C141.104 26.6 141.203 26.1003 141.396 25.634C141.589 25.1677 141.872 24.744 142.229 24.3871C142.586 24.0302 143.01 23.7472 143.476 23.554C143.942 23.3609 144.442 23.2615 144.947 23.2615C145.447 23.2584 145.943 23.3541 146.407 23.5431C146.87 23.732 147.292 24.0106 147.647 24.3628C148.007 24.7217 148.292 25.1481 148.487 25.6174C148.681 26.0867 148.781 26.5898 148.781 27.0979ZM146.225 27.0979C146.225 26.7565 146.089 26.4291 145.848 26.1877C145.606 25.9463 145.279 25.8107 144.938 25.8107C144.596 25.8107 144.269 25.9463 144.027 26.1877C143.786 26.4291 143.65 26.7565 143.65 27.0979C143.65 27.4393 143.786 27.7667 144.027 28.0081C144.269 28.2495 144.596 28.3851 144.938 28.3851C145.279 28.3851 145.606 28.2495 145.848 28.0081C146.089 27.7667 146.225 27.4393 146.225 27.0979Z" fill="white"/>
<path d="M150.24 30.8035V18.9409H152.803V30.8035H150.24Z" fill="white"/>
<path d="M155.078 20.9324C155.077 20.741 155.114 20.5513 155.187 20.3743C155.26 20.1973 155.367 20.0364 155.502 19.9009C155.637 19.7655 155.798 19.6582 155.975 19.5851C156.152 19.5121 156.341 19.4748 156.533 19.4754C156.919 19.4754 157.29 19.6289 157.563 19.9022C157.836 20.1754 157.99 20.546 157.99 20.9324C157.99 21.3188 157.836 21.6894 157.563 21.9627C157.29 22.2359 156.919 22.3894 156.533 22.3894C156.341 22.39 156.152 22.3528 155.975 22.2797C155.798 22.2067 155.637 22.0993 155.502 21.9639C155.367 21.8285 155.26 21.6676 155.187 21.4905C155.114 21.3135 155.077 21.1238 155.078 20.9324ZM155.255 23.3921H157.811V30.8034H155.255V23.3921Z" fill="white"/>
<path d="M160.5 28.0993V25.7681H159.609V23.391H160.5V21.0758H163.056V23.391H164.891V25.7681H163.056V28.0626C163.049 28.1167 163.064 28.1712 163.098 28.2142C163.131 28.2572 163.181 28.2851 163.235 28.292H164.788L165.451 30.7999H163.203C162.847 30.8021 162.495 30.7337 162.166 30.5987C161.837 30.4638 161.539 30.265 161.287 30.0138C161.036 29.7626 160.837 29.4641 160.702 29.1355C160.567 28.8068 160.498 28.4546 160.5 28.0993Z" fill="white"/>
<path d="M171.376 23.7398V23.4003H173.951V30.8115H171.376V30.4628C171.02 30.7664 170.566 30.9296 170.098 30.9217C169.587 30.9342 169.078 30.8442 168.601 30.6571C168.125 30.47 167.691 30.1895 167.325 29.8321C166.959 29.4747 166.668 29.0477 166.469 28.5762C166.27 28.1046 166.168 27.5981 166.168 27.0864C166.168 26.5747 166.27 26.0682 166.469 25.5966C166.668 25.1251 166.959 24.698 167.325 24.3407C167.691 23.9833 168.125 23.7028 168.601 23.5157C169.078 23.3286 169.587 23.2386 170.098 23.2511C170.57 23.2514 171.025 23.4254 171.376 23.7398ZM171.376 27.1059C171.372 26.8519 171.292 26.605 171.148 26.3962C171.003 26.1873 170.8 26.0259 170.564 25.9323C170.328 25.8387 170.069 25.817 169.821 25.87C169.572 25.9229 169.345 26.0482 169.168 26.23C168.99 26.4118 168.871 26.6421 168.824 26.8917C168.777 27.1413 168.805 27.3993 168.905 27.633C169.004 27.8667 169.171 28.0657 169.383 28.2051C169.595 28.3444 169.844 28.4178 170.098 28.4161C170.269 28.4134 170.437 28.3771 170.594 28.3093C170.75 28.2416 170.892 28.1436 171.011 28.0211C171.129 27.8986 171.223 27.7539 171.285 27.5953C171.348 27.4367 171.379 27.2673 171.376 27.0967V27.1059Z" fill="white"/>
<path d="M181.847 24.3289C182.514 25.0057 182.886 25.9188 182.882 26.8689V30.8017H180.326V26.8689C180.326 26.5921 180.216 26.3265 180.02 26.1307C179.824 25.9349 179.559 25.8249 179.282 25.8249C179.005 25.8249 178.739 25.9349 178.543 26.1307C178.348 26.3265 178.238 26.5921 178.238 26.8689V30.8017H175.682V23.3905H178.238V23.7392C178.369 23.4318 178.926 23.2803 179.291 23.2803C179.764 23.2766 180.234 23.3662 180.672 23.5442C181.111 23.7222 181.51 23.9849 181.847 24.3174V24.3289Z" fill="white"/>
</svg>
