<svg width="224" height="50" viewBox="0 0 224 50" fill="none" xmlns="http://www.w3.org/2000/svg">
<path d="M77.8321 7.39885C76.157 7.45957 74.7211 7.69411 73.165 8.16082C71.197 8.75135 69.3861 9.65381 67.6884 10.892C66.2871 11.9123 64.9596 13.2315 63.9059 14.6495C62.9737 15.9044 62.1855 17.3331 61.6366 18.7629C61.4771 19.1796 61.47 19.207 61.5188 19.2392C61.5438 19.2547 62.2498 19.257 67.9991 19.2535C71.547 19.2523 74.9866 19.2523 75.6414 19.2535C77.2773 19.2558 78.2643 19.2808 79.3203 19.3475C80.2585 19.4059 80.88 19.5571 81.5455 19.8904C82.3956 20.3166 83.004 20.925 83.4219 21.7656C83.9779 22.8883 84.0446 24.1313 83.6183 25.4183C83.0516 27.1256 81.6634 28.0971 79.4204 28.3519C79.0453 28.3947 78.4238 28.4364 78.1524 28.4364C78.0571 28.4364 78.0048 28.4412 77.9952 28.4507C77.9667 28.4793 77.9809 28.5209 78.044 28.6007C78.0798 28.6448 78.4274 29.0924 78.8167 29.5972C81.105 32.5606 84.1112 36.449 85.1482 37.7884C85.8066 38.6397 86.5198 39.5612 86.7329 39.8362C87.1603 40.3898 87.1615 40.391 87.2568 40.3625C87.4044 40.316 88.3866 39.7064 88.945 39.3136C91.3297 37.6325 93.2799 35.3799 94.5764 32.8058C96.0218 29.9377 96.6326 26.7815 96.3683 23.5431C96.2087 21.5787 95.7015 19.6356 94.8788 17.8283C94.7491 17.545 94.4109 16.8747 94.249 16.5842C93.6918 15.5805 93.0204 14.6066 92.3001 13.7589C90.9023 12.1136 89.1938 10.7122 87.2972 9.65619C86.9639 9.47046 86.246 9.11209 85.8923 8.95613C83.9838 8.11082 81.9372 7.59172 79.9216 7.44171C79.3299 7.39766 78.3917 7.37742 77.8321 7.39885ZM79.1894 11.3635C79.4739 11.3813 79.7847 11.4075 80.0347 11.4361C82.2492 11.6849 84.3375 12.4505 86.2079 13.6982C87.002 14.228 87.6699 14.7769 88.3568 15.465C89.0462 16.1544 89.5724 16.7973 90.107 17.6021C90.8404 18.7082 91.3559 19.7702 91.7714 21.037C91.9072 21.4513 91.975 21.6906 91.9655 21.7275C91.9619 21.743 91.9476 21.762 91.9345 21.7692C91.9191 21.7775 91.6095 21.7811 91.0059 21.7823C90.1403 21.7823 90.0987 21.7823 90.0618 21.7608C90.0022 21.7251 89.9796 21.6811 89.8927 21.4287C89.4772 20.2095 88.9105 19.1392 88.1437 18.12C86.9686 16.558 85.5161 15.3495 83.7969 14.5007C82.498 13.8601 81.2062 13.478 79.8382 13.3291C77.413 13.066 75.145 13.4637 73.0162 14.5257C72.153 14.9567 71.4149 15.4388 70.6791 16.052C70.1112 16.5258 69.5385 17.1009 69.079 17.6617C68.9325 17.8391 68.8885 17.8795 68.8147 17.8998C68.7873 17.9069 68.3849 17.9117 67.7098 17.9117C66.6621 17.9117 66.6466 17.9117 66.6228 17.8879C66.6097 17.8748 66.599 17.8569 66.599 17.8486C66.599 17.8295 66.9324 17.3331 67.0919 17.114C67.9467 15.946 69.0421 14.8519 70.2029 14.009C71.8935 12.7815 73.8568 11.9409 75.8939 11.5718C76.4677 11.4683 77.2285 11.3849 77.8857 11.3516C78.1381 11.3397 78.9096 11.3456 79.1894 11.3635ZM91.8131 29.3841C91.831 29.396 91.8393 29.4139 91.8393 29.4413C91.8393 29.4627 91.7905 29.6246 91.731 29.8008C91.1535 31.5129 90.3082 33.0178 89.1533 34.3893C88.7878 34.8239 88.2318 35.4001 87.827 35.7632C87.3472 36.1942 86.7865 36.6371 86.3198 36.9514C86.1412 37.0729 86.109 37.0836 86.0566 37.0395C86.0364 37.0217 85.8935 36.8193 85.74 36.5883C85.5864 36.3585 85.3792 36.0514 85.2792 35.9073C85.0851 35.6263 85.0649 35.5942 85.0649 35.5585C85.0649 35.5168 85.1101 35.4763 85.2994 35.3453C86.8889 34.25 88.1628 32.8344 89.1022 31.1212C89.3343 30.6961 89.5796 30.1604 89.7546 29.6925C89.801 29.5675 89.8486 29.4532 89.8606 29.4365C89.8725 29.4198 89.901 29.3972 89.9237 29.3865C89.9606 29.3663 90.0308 29.3651 90.8749 29.3651C91.681 29.3651 91.7893 29.3674 91.8131 29.3841Z" fill="white"/>
<path d="M100.094 10.5327L100.098 11.5006L101.423 11.5041L102.747 11.5065V14.8876V18.2687H103.83H104.913V14.8876V11.5065H106.229H107.545V10.5362V9.56595H103.818H100.092L100.094 10.5327Z" fill="white"/>
<path d="M108.701 13.9173V18.2687H109.785H110.868V16.5365V14.8043H112.648H114.428V16.5365V18.2687H115.511H116.594V13.9173V9.56595H115.511H114.428V11.2148V12.8637H112.648H110.868V11.2148V9.56595H109.785H108.701V13.9173Z" fill="white"/>
<path d="M118.211 13.9173V18.2687H121.634H125.056V17.2985V16.3282H122.717H120.378V15.5662V14.8043H122.503H124.628V13.834V12.8637H122.503H120.378V12.1851V11.5065H122.717H125.056V10.5362V9.56595H121.634H118.211V13.9173Z" fill="white"/>
<path d="M104.704 20.4901C104.31 20.5186 104.071 20.5532 103.8 20.6198C102.565 20.9234 101.502 21.702 100.858 22.7747C100.211 23.8533 100.064 25.1165 100.448 26.2987C100.929 27.7738 102.214 28.9583 103.758 29.3464C104.154 29.4465 104.482 29.4869 104.901 29.4869C105.285 29.4881 105.534 29.4619 105.907 29.3822C106.734 29.2036 107.499 28.8012 108.145 28.2023C108.228 28.1238 108.311 28.044 108.326 28.0238L108.355 27.9857L107.619 27.3333C107.214 26.9737 106.863 26.6618 106.839 26.6404L106.796 26.6011L106.643 26.7582C106.559 26.8439 106.447 26.9487 106.395 26.9916C106.088 27.2392 105.716 27.4154 105.329 27.4976C105.22 27.5202 105.169 27.5237 104.907 27.5237C104.627 27.5249 104.6 27.5226 104.457 27.4916C103.964 27.3856 103.526 27.1404 103.175 26.7737C102.704 26.2844 102.448 25.651 102.448 24.9831C102.448 24.5867 102.527 24.2474 102.703 23.8819C103.054 23.1581 103.692 22.6485 104.451 22.4878C104.65 22.4461 105.006 22.4342 105.21 22.464C105.785 22.5473 106.335 22.8569 106.726 23.3152L106.78 23.3795L107.566 22.6795C108.245 22.0759 108.351 21.9782 108.342 21.9592C108.324 21.9247 108.032 21.6592 107.878 21.5377C107.157 20.9615 106.299 20.6079 105.399 20.5139C105.228 20.496 104.818 20.4817 104.704 20.4901Z" fill="white"/>
<path d="M113.303 20.4982C112.147 20.5791 111.078 21.0625 110.265 21.8732C109.872 22.2649 109.61 22.628 109.373 23.1114C108.924 24.0233 108.814 25.0162 109.053 25.9889C109.339 27.1556 110.112 28.1819 111.187 28.8247C112.255 29.4617 113.514 29.6534 114.713 29.3605C116.44 28.939 117.807 27.5759 118.182 25.9008C118.365 25.0853 118.297 24.2269 117.99 23.4447C117.759 22.8578 117.427 22.3542 116.963 21.8911C116.342 21.2696 115.59 20.8434 114.74 20.6315C114.288 20.5184 113.744 20.4684 113.303 20.4982ZM114.055 22.4911C114.703 22.6292 115.27 23.0245 115.646 23.6019C115.746 23.7555 115.876 24.0245 115.932 24.1948C116.032 24.4995 116.063 24.7257 116.054 25.0579C116.044 25.4472 115.97 25.7544 115.803 26.0996C115.49 26.7508 114.92 27.2437 114.242 27.4461C114.017 27.514 113.907 27.5283 113.6 27.5283C113.351 27.5283 113.297 27.5247 113.183 27.5021C112.702 27.4044 112.296 27.1901 111.939 26.8485C111.428 26.358 111.141 25.6877 111.141 24.9865C111.141 24.59 111.224 24.2341 111.402 23.8733C111.758 23.1471 112.423 22.6268 113.177 22.4864C113.364 22.4518 113.353 22.453 113.641 22.4566C113.876 22.4602 113.927 22.4637 114.055 22.4911Z" fill="white"/>
<path d="M119.596 24.9904V29.3418H120.673H121.751V24.9904V20.6391H120.673H119.596V24.9904Z" fill="white"/>
<path d="M123.453 24.9904V29.3418H124.531H125.608L125.61 26.7727L125.614 24.2035L127.507 26.7727L129.4 29.3418H130.481H131.561V24.9904V20.6391H130.483H129.406V23.213C129.406 25.7262 129.406 25.7869 129.383 25.7643C129.371 25.7512 128.516 24.5928 127.483 23.1892L125.606 20.6391H124.529H123.453V24.9904Z" fill="white"/>
<path d="M65.839 20.9363C61.229 20.9422 61.0218 20.9434 60.9921 20.9636C60.9397 20.9982 60.9159 21.0779 60.8349 21.478C60.6123 22.5686 60.523 23.3317 60.492 24.3711C60.4599 25.4641 60.5087 26.4773 60.6373 27.3833C61.0028 29.9705 61.9064 32.3624 63.3435 34.5554C64.9246 36.9688 67.1915 39.0416 69.7798 40.4405C71.8407 41.5549 74.2017 42.2872 76.4829 42.5217C77.1329 42.5884 77.6401 42.6098 78.5366 42.6098C79.5855 42.611 80.1344 42.5741 81.0357 42.4431C82.5084 42.2288 83.861 41.8716 85.1623 41.3525C85.629 41.1656 85.6421 41.1573 85.6076 41.087C85.5849 41.0406 82.7823 37.4129 80.2142 34.1042C76.6329 29.493 75.1184 27.55 74.6815 27.0107C74.585 26.8928 74.5648 26.8595 74.5708 26.8368C74.5839 26.7821 74.6243 26.7773 74.9267 26.794C75.2792 26.813 78.4176 26.8047 78.6854 26.7833C79.6617 26.7082 80.1713 26.5975 80.6392 26.3582C80.8976 26.2261 81.0916 26.0784 81.319 25.8427C81.7405 25.4069 81.9917 24.914 82.0929 24.3294C82.1155 24.2044 82.1191 24.133 82.1203 23.8889C82.1203 23.7103 82.1144 23.5556 82.1048 23.4901C81.962 22.4959 81.5262 21.8209 80.7452 21.3827C80.3594 21.166 79.9201 21.0327 79.37 20.9648C79.0652 20.9267 76.8579 20.922 65.839 20.9363ZM65.8068 22.4126C66.5855 22.4126 66.6009 22.4126 66.6247 22.4364C66.6581 22.4697 66.6545 22.5066 66.6081 22.6959C66.4854 23.1805 66.395 23.7699 66.3426 24.4128C66.3271 24.614 66.3223 24.8116 66.3211 25.3295C66.3211 26.0058 66.3271 26.1368 66.3759 26.6213C66.5545 28.381 67.1177 30.0657 68.0451 31.6099C68.5523 32.4552 69.1369 33.2006 69.862 33.9268C70.8013 34.8662 71.7967 35.5901 72.9527 36.1758C74.2457 36.8307 75.6983 37.2664 77.0603 37.4081C78.2592 37.5319 79.5427 37.4914 80.5725 37.2938C80.6773 37.2748 80.7976 37.2557 80.8404 37.2521C80.9714 37.2426 80.9785 37.2498 81.2321 37.6284C81.3524 37.8081 81.581 38.1487 81.7405 38.3844C82.0536 38.8463 82.0644 38.8666 82.0001 38.9083C81.9334 38.9511 81.2667 39.1011 80.7809 39.1809C80.3499 39.2523 79.7808 39.3166 79.2272 39.3571C78.9474 39.3773 77.9699 39.3773 77.6734 39.3571C76.9115 39.3047 76.2495 39.2178 75.5971 39.0857C73.829 38.7273 72.1348 38.0153 70.6132 36.9926C67.5486 34.9317 65.4163 31.7385 64.69 28.1227C64.4483 26.9178 64.365 25.5034 64.4638 24.2818C64.5174 23.627 64.6638 22.6067 64.7198 22.4971C64.7567 22.4233 64.8162 22.3983 64.9341 22.4066C64.977 22.4102 65.3687 22.4126 65.8068 22.4126Z" fill="white"/>
<path d="M159.724 31.5759C158.58 31.6699 157.531 32.1473 156.723 32.945C156.037 33.6212 155.591 34.4736 155.44 35.3951C155.398 35.6415 155.385 35.8094 155.385 36.0689C155.385 36.3285 155.398 36.4963 155.44 36.7428C155.641 37.9643 156.36 39.0584 157.432 39.7775C158.081 40.212 158.761 40.4596 159.575 40.5596C159.766 40.5834 160.397 40.5787 160.593 40.5537C161.678 40.4108 162.603 39.9691 163.353 39.2358L163.517 39.075L162.73 38.3762L161.942 37.6785L161.862 37.769C161.639 38.0238 161.359 38.2345 161.051 38.3845C160.205 38.7941 159.236 38.6536 158.497 38.0167C157.883 37.4881 157.54 36.6583 157.61 35.8725C157.692 34.9546 158.242 34.1546 159.058 33.7641C160.017 33.3057 161.116 33.5474 161.851 34.3808L161.93 34.4712L162.723 33.7676L163.516 33.0628L163.364 32.9128C162.848 32.4081 162.217 32.0295 161.517 31.8021C161.02 31.6402 160.655 31.5806 160.123 31.5747C159.936 31.5735 159.758 31.5735 159.724 31.5759Z" fill="white"/>
<path d="M100.568 36.0733V40.4247H101.652H102.735V39.0615V37.6984L103.266 37.7007L103.798 37.7043L104.752 39.0639L105.706 40.4235L106.935 40.4247C107.916 40.4247 108.164 40.4211 108.157 40.4092C108.152 40.4021 107.683 39.7318 107.114 38.9222C106.546 38.1127 106.081 37.446 106.081 37.44C106.082 37.4353 106.171 37.3864 106.281 37.3329C107.175 36.8959 107.733 36.1376 107.887 35.1506C107.916 34.9566 107.916 34.4637 107.887 34.2696C107.743 33.341 107.237 32.6136 106.42 32.1588C106.016 31.9338 105.5 31.7826 104.973 31.7338C104.884 31.7267 104.086 31.7219 102.703 31.7219H100.568V36.0733ZM104.604 33.7101C105.119 33.7648 105.504 34.028 105.635 34.4125C105.708 34.6292 105.69 34.9232 105.59 35.1197C105.455 35.3852 105.188 35.5792 104.838 35.6685C104.648 35.7161 104.516 35.7221 103.602 35.7221H102.735V34.7101V33.6982H103.614C104.111 33.6982 104.54 33.7041 104.604 33.7101Z" fill="white"/>
<path d="M109.283 36.0733V40.4247H112.706H116.129V39.4544V38.4841H113.789H111.45V37.7222V36.9602H113.575H115.7V35.9899V35.0197H113.575H111.45V34.3411V33.6625H113.789H116.129V32.6922V31.7219H112.706H109.283V36.0733Z" fill="white"/>
<path d="M117.465 36.0733V40.4247H118.548H119.632V39.0627V37.6996L120.76 37.6948C121.725 37.6912 121.907 37.6876 122.023 37.671C122.638 37.5829 123.128 37.4043 123.554 37.1138C124.162 36.7007 124.566 36.1173 124.731 35.4185C124.791 35.1613 124.804 35.0375 124.804 34.7101C124.804 34.3827 124.791 34.2589 124.731 34.0018C124.453 32.8219 123.484 31.9814 122.161 31.7719C121.858 31.7231 121.796 31.7219 119.599 31.7219H117.465V36.0733ZM121.501 33.7101C122.015 33.7648 122.401 34.028 122.532 34.4125C122.604 34.6292 122.587 34.9232 122.487 35.1197C122.352 35.3852 122.084 35.5792 121.734 35.6685C121.545 35.7161 121.413 35.7221 120.498 35.7221H119.632V34.7101V33.6982H120.51C121.008 33.6982 121.436 33.7041 121.501 33.7101Z" fill="white"/>
<path d="M125.839 34.376C125.842 37.0261 125.842 37.0285 125.869 37.2071C125.942 37.7178 126.066 38.1202 126.277 38.5345C126.81 39.5881 127.825 40.3084 129.066 40.5167C129.365 40.5668 129.5 40.5763 129.895 40.5751C130.3 40.5751 130.482 40.5584 130.812 40.4929C132.082 40.2382 133.076 39.4572 133.568 38.3274C133.715 37.9881 133.813 37.6321 133.874 37.2071C133.9 37.0285 133.9 37.0261 133.903 34.376L133.908 31.7247H132.83H131.752V34.1879C131.752 35.7713 131.747 36.6951 131.74 36.7737C131.694 37.2499 131.529 37.6607 131.257 37.9892C130.924 38.3893 130.415 38.619 129.868 38.6179C128.871 38.6155 128.121 37.8726 128.015 36.7797C128.007 36.6928 128.002 35.8368 128.002 34.1867V31.7247H126.919H125.834L125.839 34.376Z" fill="white"/>
<path d="M135.514 36.0733V40.4247L138.071 40.4211C140.876 40.4175 140.671 40.4223 141.052 40.3473C142.07 40.1449 142.815 39.5532 143.077 38.7401C143.156 38.4972 143.175 38.3686 143.175 38.0793C143.175 37.8055 143.166 37.7377 143.108 37.5103C142.94 36.8519 142.456 36.2888 141.747 35.9292L141.594 35.8507L141.678 35.8042C142.014 35.6233 142.31 35.3399 142.499 35.0232C142.645 34.7744 142.74 34.4815 142.777 34.1637C142.794 34.0101 142.785 33.6946 142.759 33.5553C142.641 32.9148 142.229 32.385 141.598 32.0624C141.3 31.9088 141.004 31.8195 140.573 31.7493C140.459 31.7302 140.24 31.729 137.982 31.7255L135.514 31.7207V36.0733ZM139.663 33.5672C139.841 33.5851 139.962 33.6172 140.108 33.6875C140.215 33.7398 140.246 33.7625 140.334 33.8506C140.492 34.0089 140.552 34.147 140.553 34.353C140.553 34.4768 140.535 34.5601 140.483 34.6685C140.367 34.9113 140.107 35.0875 139.777 35.1447C139.695 35.159 139.503 35.1625 138.673 35.1625H137.669V34.3589V33.5553H138.601C139.154 33.5553 139.585 33.5601 139.663 33.5672ZM140.032 36.8531C140.415 36.8971 140.716 37.0793 140.858 37.3519C140.922 37.4757 140.945 37.5722 140.945 37.7162C140.945 37.8603 140.922 37.9567 140.858 38.0793C140.737 38.3139 140.488 38.4841 140.163 38.5567C140.045 38.5829 140.034 38.5841 138.857 38.5877L137.669 38.5925V37.7174V36.8412H138.797C139.491 36.8412 139.965 36.8459 140.032 36.8531Z" fill="white"/>
<path d="M144.383 36.0733V40.4247H147.556H150.728V39.4544V38.4841H148.633H146.538V35.103V31.7219H145.46H144.383V36.0733Z" fill="white"/>
<path d="M151.896 36.0733V40.4247H152.98H154.063V36.0733V31.7219H152.98H151.896V36.0733Z" fill="white"/>
</svg>
