<svg width="224" height="50" viewBox="0 0 224 50" fill="none" xmlns="http://www.w3.org/2000/svg">
<path d="M62.1514 21.618C60.5772 21.618 59.3104 22.3152 58.4334 23.537V16.7083H54.4531V35.2005H58.4409V33.409C59.3179 34.6533 60.6372 35.3504 62.2488 35.3504C65.7269 35.3504 67.9906 32.6369 67.9906 28.5442C67.9906 24.384 65.6594 21.618 62.1514 21.618ZM61.1844 31.9323C59.5728 31.9323 58.4409 30.5081 58.4409 28.4168C58.4409 26.3704 59.5728 24.9312 61.1844 24.9312C62.8485 24.9312 63.9803 26.3779 63.9803 28.4168C63.9728 30.4931 62.8485 31.9323 61.1844 31.9323Z" fill="white"/>
<path d="M72.1358 15.6444C70.9141 15.6444 70.0371 16.5888 70.0371 17.908C70.0371 19.2572 70.9066 20.2016 72.1358 20.2016C73.3576 20.2016 74.2346 19.2497 74.2346 17.908C74.2346 16.5888 73.3651 15.6444 72.1358 15.6444Z" fill="white"/>
<path d="M70.1348 35.2021H74.1001V21.7693H70.1348V35.2021Z" fill="white"/>
<path d="M84.5422 31.4832C83.9426 31.7605 83.4103 31.9329 82.9981 31.9329C82.2635 31.9629 81.8437 31.5131 81.8437 30.4712V25.2166H85.0969V22.3756H81.8437V18.6576H77.8859V22.3981H76.1543V25.2166H77.8859V31.1458C77.8859 33.9343 79.6174 35.4035 82.0161 35.4035C83.2155 35.4035 84.4373 35.0512 85.3368 34.474L84.5422 31.4832Z" fill="white"/>
<path d="M149.954 20.9358C147.848 20.9583 146.281 22.0227 145.449 24.0991C144.805 22.1277 143.261 20.9358 141.177 20.9358C139.31 20.9658 137.834 21.7903 136.957 23.4544V21.1457H132.879V35.118H136.957V28.1993C136.957 26.3103 137.931 24.9386 139.498 24.8861C140.847 24.8861 141.679 25.8981 141.679 27.5546V35.118H145.779V28.1993C145.779 26.3103 146.724 24.9386 148.275 24.8861C149.625 24.8861 150.479 25.8981 150.479 27.5546V35.1254H154.557V26.3028C154.557 23.0422 152.758 20.9358 149.954 20.9358Z" fill="white"/>
<path d="M163.078 20.9811C159.12 20.9811 156.406 23.8371 156.406 28.1698C156.406 32.42 159.015 35.2685 163.19 35.2685C165.536 35.2685 167.463 34.369 168.76 32.8098L166.601 30.501C165.746 31.4305 164.652 31.9253 163.542 31.9253C162.021 31.9253 160.934 30.9958 160.529 29.3392H169.524C169.794 24.2344 167.568 20.9886 163.078 20.9811ZM165.581 26.9254H160.462C160.716 25.2463 161.698 24.1069 163.115 24.1069C164.584 24.1069 165.581 25.2164 165.581 26.9254Z" fill="white"/>
<path d="M114.806 7.88514C109.237 6.07113 103.405 7.13555 98.9374 10.2539C98.675 10.0665 98.3827 9.91654 98.0604 9.81909C96.3438 9.2569 94.4998 10.1939 93.9376 11.9179C93.6003 12.9449 93.8027 14.0168 94.3949 14.8339C93.4429 16.2206 92.6783 17.7573 92.1311 19.4289C89.1252 28.6713 93.9076 38.5285 103.015 41.8866C103.225 41.9691 103.45 42.0365 103.675 42.104C108.247 43.5957 113.12 43.2134 117.4 41.0396C118.097 40.6798 118.772 40.2825 119.409 39.8477L121.05 41.4968C121.193 41.6468 121.365 41.6093 121.44 41.4069L123.134 36.4521C124.551 34.7355 125.645 32.7491 126.357 30.5678C129.423 21.1079 124.341 11.0034 114.806 7.88514ZM124.881 30.0955C124.296 31.8946 123.419 33.5437 122.31 35.0054L116.883 36.8344C116.688 36.9018 116.65 37.0742 116.793 37.2167L118.299 38.7308C117.782 39.0682 117.25 39.383 116.695 39.6678C112.775 41.6618 108.315 42.0066 104.14 40.6423C95.4143 37.8089 90.7743 28.5514 93.5853 19.9086C94.065 18.4319 94.7397 17.0751 95.5642 15.8458C95.7141 15.9208 95.8716 15.9882 96.029 16.0407C97.7455 16.6029 99.5895 15.6659 100.152 13.9418C100.437 13.0798 100.332 12.1803 99.9493 11.4382C104.027 8.64223 109.297 7.71274 114.334 9.35434C114.529 9.42181 114.731 9.48927 114.926 9.56423C123.262 12.6301 127.632 21.6476 124.881 30.0955Z" fill="white"/>
<path d="M111.797 27.1719C113.034 25.8826 113.881 24.8332 114.338 24.0011C114.796 23.1766 115.036 22.3146 115.036 21.415C115.036 19.7659 114.458 18.4617 113.319 17.5022C112.18 16.5427 110.853 16.063 109.346 16.063C107.832 16.063 106.595 16.3853 105.621 17.0374C104.646 17.6896 103.747 18.6416 102.93 19.9084L106.055 21.7599C107.037 20.1932 108.087 19.4136 109.181 19.4136C109.781 19.4136 110.268 19.6085 110.658 19.9983C111.04 20.3956 111.235 20.8753 111.235 21.46C111.235 22.0372 111.018 22.6444 110.576 23.2665C110.133 23.8962 109.399 24.7282 108.364 25.7777L103.237 31.0323V33.9407H115.568V30.4401H108.664L111.797 27.1719Z" fill="white"/>
</svg>
