<svg width="224" height="50" viewBox="0 0 224 50" fill="none" xmlns="http://www.w3.org/2000/svg">
<g clip-path="url(#clip0_3281_2973)">
<path d="M64.5175 9.57644V16.6135C61.8133 17.1668 59.326 18.9194 58.2239 21.4952C56.0862 26.5053 58.848 32.3784 64.2962 33.3432V40.4246C59.3437 39.7209 54.4398 36.9503 51.9569 32.5156C49.0182 27.2577 49.4475 21.1367 52.6828 16.1311C55.3073 12.0682 59.7022 9.78445 64.5175 9.57644Z" fill="white"/>
<path d="M96.5837 23.1317C96.1588 23.145 95.1941 23.1583 94.84 23.145C94.4859 23.1317 94.7249 23.0919 94.7249 23.0299C94.7028 22.5829 94.9152 21.5119 94.1717 21.2419C93.8841 21.1357 92.636 21.1357 92.2908 21.1756C91.7155 21.2419 91.596 21.6624 91.5606 22.1713C91.5739 23.9106 91.6048 25.7074 91.6181 27.3936C91.6181 27.7432 91.8615 28.053 92.2067 28.115C92.5519 28.177 92.2377 28.1194 92.251 28.1239C92.5785 28.1681 93.7823 28.1681 94.0744 28.0973C95.0259 27.8672 94.6453 26.6059 94.7648 26.1766C94.8134 26.1456 94.84 26.1412 94.8975 26.1323C95.1763 26.0969 96.566 26.1146 96.7298 26.1633C96.8935 26.212 96.743 26.1721 96.743 26.1854C96.743 26.2651 96.743 26.3801 96.743 26.4642C96.7873 28.0176 96.8183 29.8056 94.5391 29.934C93.8132 29.9738 92.3085 30.0092 91.5916 29.9295C90.3391 29.7879 89.569 28.8408 89.4761 27.6193C89.4628 25.6765 89.4318 23.7513 89.4761 21.7332C89.569 20.4011 90.4055 19.4717 91.7553 19.3655C92.5032 19.3079 94.3709 19.2902 95.0436 19.4894C96.1721 19.8213 96.6678 20.7418 96.7386 21.866C96.7519 22.074 96.7475 22.7113 96.7475 23.0388C96.7386 23.0963 96.7961 23.145 96.5837 23.145V23.1317Z" fill="white"/>
<path d="M130.722 25.4107C130.674 25.4594 130.559 25.4594 130.492 25.4683C129.483 25.4771 128.607 25.4683 127.7 25.4683C127.536 25.486 127.434 25.5391 127.412 25.7117C127.412 26.4242 127.412 27.2651 127.412 27.9688C127.434 28.0883 127.496 28.1104 127.607 28.1281C128.647 28.1369 129.921 28.1281 130.975 28.1281C131.209 28.1458 131.369 28.1679 131.395 28.4158C131.413 28.5972 131.417 29.7036 131.373 29.8098C131.329 29.9161 131.209 29.9603 131.112 29.947L125.469 29.9205C125.376 29.8585 125.319 29.7744 125.332 29.6594L125.359 19.5025C125.42 19.4095 125.505 19.352 125.62 19.3653L131.262 19.3918C131.351 19.4494 131.386 19.5069 131.4 19.6087C131.422 19.7857 131.417 20.932 131.364 21.0382C131.311 21.1444 131.32 21.109 131.276 21.1267L127.567 21.1798C127.465 21.1931 127.43 21.2904 127.416 21.3834C127.408 21.8658 127.416 22.8792 127.412 23.3749C127.416 23.4502 127.421 23.5608 127.478 23.6183C127.633 23.7688 129.877 23.698 130.656 23.7157C130.696 23.7334 130.722 23.7644 130.745 23.8042C130.802 23.9281 130.798 24.9859 130.78 25.1894C130.762 25.393 130.771 25.3709 130.722 25.4196V25.4107Z" fill="white"/>
<path d="M114.177 22.4106C114.239 22.4195 114.248 22.3974 114.274 22.3531C114.673 21.7247 114.974 21.5742 115.744 21.5211C117.448 21.4016 118.833 21.9017 118.957 23.8003C118.97 25.7033 118.961 27.7126 118.957 29.6466C118.935 29.8944 118.917 29.9121 118.669 29.9343C118.421 29.9564 117.102 29.9564 117.01 29.9121C116.917 29.8679 116.886 29.7086 116.877 29.6023C116.877 27.8542 116.89 25.8936 116.859 24.0437C116.802 23.3046 115.916 23.2958 115.35 23.3356C114.686 23.3843 114.208 23.7472 114.19 24.3004C114.155 26.0441 114.173 27.8675 114.182 29.6023C114.164 29.7838 114.137 29.9077 113.938 29.9343C113.739 29.9608 112.323 29.9564 112.199 29.9033C112.075 29.8502 112.053 29.7661 112.053 29.5138C112.044 27.1018 112.053 24.473 112.053 22.03C112.053 21.7999 112.075 21.5698 112.345 21.5255C112.628 21.4768 113.496 21.4945 113.805 21.5211C114.115 21.5476 114.182 21.6229 114.182 21.7645V22.4062L114.177 22.4106Z" fill="white"/>
<path d="M168.707 22.4122C168.809 22.4343 168.778 22.3989 168.804 22.3547C169.216 21.7041 169.53 21.5757 170.318 21.5226C171.938 21.4208 173.336 21.8988 173.482 23.7178C173.482 25.7668 173.482 27.7274 173.482 29.6482C173.491 29.8163 173.398 29.9137 173.239 29.9358C173.079 29.9579 171.628 29.9535 171.535 29.9093C171.442 29.865 171.455 29.834 171.424 29.7986L171.38 24.0453C171.309 23.2973 170.402 23.2929 169.827 23.3372C169.256 23.3814 168.879 23.5983 168.747 24.1028C168.614 24.6073 168.702 24.3418 168.707 24.4657C168.733 26.112 168.689 27.9443 168.702 29.6039C168.694 29.7057 168.671 29.8606 168.57 29.9137C168.468 29.9668 167.052 29.9579 166.866 29.9358C166.574 29.9004 166.6 29.719 166.578 29.4711L166.6 21.7882C166.649 21.5846 166.76 21.5403 166.954 21.5226C167.273 21.4961 168.118 21.4828 168.415 21.5271C168.711 21.5713 168.707 21.6775 168.707 21.766V22.4078V22.4122Z" fill="white"/>
<path d="M79.235 9.7974C79.7838 9.85494 80.2972 10.24 80.4919 10.7533C80.6866 11.2667 80.545 13.1565 80.5406 13.931C80.5273 15.626 80.5494 17.3122 80.4742 19.0028C78.5579 15.5508 75.8184 12.4838 72.3841 10.4967L71.0254 9.7974H79.235Z" fill="white"/>
<path d="M80.5413 39.0755C80.4794 39.6021 80.0766 40.1022 79.5854 40.2881C79.0941 40.474 77.3725 40.3412 76.629 40.3368C74.8632 40.3235 73.1018 40.3368 71.3359 40.2704C74.7658 38.3718 77.8018 35.6589 79.7978 32.2688L80.5413 30.8216V39.0755Z" fill="white"/>
<path d="M151.113 21.5249C151.188 21.5426 151.338 21.6842 151.356 21.7683C151.4 21.994 151.383 22.7951 151.356 23.0518C151.33 23.3085 151.347 23.2332 151.299 23.2819C151.17 23.4102 150.02 23.2952 149.741 23.3394C149.462 23.3837 149.573 23.3793 149.546 23.4545L149.537 27.296C149.537 27.3756 149.542 27.4553 149.559 27.535C149.732 28.3449 150.577 28.0306 151.192 28.1192C151.436 28.1546 151.502 28.2564 151.529 28.4909C151.555 28.7255 151.564 29.4557 151.529 29.6814C151.498 29.8673 151.418 29.9116 151.245 29.9293C150.847 29.9691 150.099 29.9602 149.692 29.9293C146.453 29.6903 147.639 25.6275 147.413 23.4899C147.351 23.1668 146.377 23.4678 146.262 23.2598C146.147 23.0518 146.191 21.994 146.222 21.8126C146.253 21.6311 146.373 21.5205 146.461 21.5205H147.346C147.395 21.5205 147.408 21.4143 147.417 21.37C147.475 20.8655 147.355 20.237 147.417 19.7281C147.439 19.5334 147.51 19.4626 147.705 19.4404C147.9 19.4183 149.05 19.3962 149.298 19.4404C149.546 19.4847 149.542 19.6396 149.542 19.7281V21.4541C149.542 21.4674 149.595 21.4984 149.608 21.5205C150.037 21.5824 150.719 21.4364 151.113 21.5205V21.5249Z" fill="white"/>
<path d="M74.3442 29.093C72.5917 27.1369 70.4231 25.4507 67.75 25.0436C69.9982 24.6231 72.0916 23.499 73.614 21.7907L74.3442 20.817V29.093Z" fill="white"/>
<path d="M142.893 21.5358C143.097 21.4916 144.252 21.496 144.473 21.527C144.695 21.558 144.717 21.6421 144.752 21.7792L144.765 29.6038C144.761 29.6968 144.739 29.8959 144.646 29.9269H142.84C142.712 29.9136 142.677 29.7853 142.65 29.6791L142.637 21.943C142.637 21.766 142.699 21.5757 142.893 21.5358Z" fill="white"/>
<path d="M107.928 21.5353C108.189 21.4866 109.189 21.491 109.463 21.5308C109.738 21.5707 109.715 21.5884 109.746 21.7344L109.76 29.736C109.76 29.8467 109.711 29.913 109.6 29.9307C109.406 29.9661 108.074 29.9661 107.879 29.9307C107.684 29.8953 107.817 29.913 107.79 29.8909C107.72 29.8422 107.68 29.7581 107.68 29.6696V21.8096C107.684 21.6326 107.764 21.5618 107.932 21.5353H107.928Z" fill="white"/>
<path d="M155.42 21.6271L155.468 29.8146C155.437 29.9119 155.371 29.9252 155.278 29.9341C154.773 30.0005 154.118 29.881 153.596 29.9341C153.486 29.9119 153.393 29.8057 153.393 29.6951L153.406 21.7377C153.437 21.574 153.583 21.543 153.729 21.5297C154.061 21.4943 154.818 21.4943 155.145 21.5297C155.247 21.543 155.335 21.5828 155.42 21.6315V21.6271Z" fill="white"/>
<path d="M126.526 35.8654V33.2321C126.526 33.2277 126.588 33.1657 126.592 33.1657H127.367V37.6357H126.637C126.614 37.6357 126.491 37.4852 126.473 37.4454L125.11 34.936V37.5693C125.11 37.5737 125.048 37.6357 125.043 37.6357H124.291C124.287 37.6357 124.225 37.5737 124.225 37.5693V33.2321C124.225 33.2277 124.287 33.1657 124.291 33.1657H124.999C125.123 33.1657 126.07 35.1086 126.207 35.3653C126.296 35.5291 126.398 35.7371 126.526 35.8654Z" fill="white"/>
<path d="M132.303 34.0954C132.37 34.1175 132.396 34.3211 132.41 34.3875C132.538 35.1221 132.578 35.8789 132.68 36.618C132.759 36.6047 132.755 36.5295 132.773 36.4675C132.989 35.786 133.034 34.9274 133.228 34.2237C133.242 34.1839 133.259 34.1352 133.295 34.1131C133.375 34.0688 134.114 34.0733 134.158 34.1352L134.689 36.6136C134.72 36.6136 134.742 36.4498 134.751 36.41C134.857 35.7683 134.866 34.8389 135.025 34.2503C135.039 34.2016 135.096 34.091 135.131 34.091H135.928C136.052 34.091 135.91 34.5778 135.893 34.6752C135.702 35.6577 135.459 36.6313 135.247 37.6049C135.22 37.6448 134.397 37.6492 134.291 37.6315C134.184 37.6138 134.184 37.6005 134.158 37.543L133.737 35.1531L133.228 37.5872C133.175 37.6581 132.233 37.6581 132.162 37.5872L131.432 34.091C131.648 34.1352 132.118 34.0334 132.295 34.091L132.303 34.0954Z" fill="white"/>
<path d="M106.698 35.955C106.574 35.9329 106.158 36.0037 106.096 35.9152C106.069 35.8045 106.038 35.2026 106.144 35.2026H107.583V36.8622C107.583 37.1189 107.207 37.4818 106.963 37.5704C106.609 37.6943 105.37 37.6898 105.047 37.4995C104.719 37.3048 104.6 36.964 104.573 36.6011C104.525 35.9683 104.507 34.6981 104.582 34.0829C104.657 33.4678 105.02 33.2199 105.529 33.1712C105.998 33.1226 106.976 33.1004 107.322 33.4589C107.667 33.8174 107.587 33.8838 107.587 33.9457V34.6096C107.587 34.614 107.525 34.676 107.521 34.676H106.813C106.653 34.676 106.729 34.2157 106.68 34.1006C106.565 33.8439 105.68 33.8661 105.534 34.0564C105.388 34.2467 105.472 34.2245 105.467 34.2998C105.414 34.8176 105.419 35.9461 105.467 36.4684C105.516 36.9906 105.485 36.6764 105.538 36.7516C105.702 36.9906 106.711 36.9109 106.711 36.6852V35.955H106.698Z" fill="white"/>
<path d="M156.491 34.0955C156.509 34.1132 156.478 34.3832 156.491 34.4496C156.752 33.976 157.744 33.9982 158.124 34.2549C158.275 34.3566 158.527 34.6886 158.527 34.87V37.5697C158.527 37.5741 158.465 37.6361 158.461 37.6361H157.708C157.704 37.6361 157.642 37.5741 157.642 37.5697V35.0913C157.642 34.7904 156.828 34.7727 156.624 35.0028C156.58 35.0559 156.491 35.3037 156.491 35.3568V37.6361H155.65V34.0955C155.77 34.1177 156.46 34.0646 156.491 34.0955Z" fill="white"/>
<path d="M97.8027 34.0967V36.5529C97.8027 37.0265 98.9534 36.9867 98.9534 36.5087V34.1631C98.9534 34.1587 99.0153 34.0967 99.0198 34.0967H99.7721C99.7765 34.0967 99.8385 34.1587 99.8385 34.1631V37.5708C99.8385 37.5753 99.7765 37.6372 99.7721 37.6372H99.0198C98.9357 37.6372 98.9489 37.354 98.9534 37.2832C98.8649 37.3451 98.8383 37.4514 98.7321 37.5222C98.5197 37.6638 98.0815 37.6594 97.8293 37.6328C97.3955 37.5885 97.099 37.3451 96.9839 36.9291C96.8689 36.5131 96.8733 34.8756 96.9176 34.3357C96.9618 33.7957 96.9441 34.1764 96.9618 34.0923H97.8027V34.0967Z" fill="white"/>
<path d="M171.428 34.0949C171.525 34.1259 171.49 34.356 171.495 34.449C171.583 34.387 171.61 34.2808 171.716 34.21C172.043 33.9931 172.959 34.0595 173.243 34.3605C173.526 34.6614 173.486 34.7765 173.486 34.8252V37.6354H172.645V35.2677C172.645 34.803 171.995 34.7411 171.685 34.9269C171.623 34.9623 171.495 35.1349 171.495 35.1792V37.5691C171.495 37.5735 171.433 37.6354 171.428 37.6354H170.676C170.671 37.6354 170.609 37.5735 170.609 37.5691V34.1613C170.609 34.1569 170.671 34.0949 170.676 34.0949C170.835 34.0949 171.322 34.0639 171.428 34.0949Z" fill="white"/>
<path d="M90.4332 33.1657L91.2741 34.9803L92.0043 33.1657H92.9116C92.9293 33.1657 92.9868 33.2366 92.978 33.272L91.6945 35.976V37.5693C91.6945 37.5737 91.6326 37.6357 91.6281 37.6357H90.8758C90.8713 37.6357 90.8094 37.5737 90.8094 37.5693V36.0203C90.4465 35.175 90.0039 34.2456 89.5613 33.418C89.5304 33.3295 89.5127 33.2587 89.5259 33.1657H90.4332Z" fill="white"/>
<path d="M150.604 34.0963V34.7823C150.604 34.831 150.498 34.8443 150.453 34.8531C150.219 34.8797 149.338 34.7823 149.232 34.9151C149.17 34.9903 149.183 35.07 149.223 35.1541C149.334 35.3886 150.413 35.7825 150.67 36.141C150.927 36.495 150.905 37.1456 150.551 37.4333C150.475 37.4952 150.179 37.6413 150.095 37.6413H148.302C148.249 37.5351 148.214 36.9332 148.325 36.9332H149.608C149.825 36.9332 150.011 36.7252 149.851 36.5127C149.674 36.2782 148.811 35.9772 148.524 35.7161C148.236 35.455 148.143 34.4769 148.656 34.2202C149.17 33.9635 148.962 34.1052 148.984 34.1052H150.599L150.604 34.0963Z" fill="white"/>
<path d="M137.748 36.9286C137.978 36.8976 138.128 36.7427 137.991 36.517C137.854 36.2913 136.947 35.9417 136.708 35.7514C136.247 35.3796 136.243 34.4414 136.818 34.1891C137.394 33.9369 138.252 34.0519 138.588 34.0962C138.925 34.1404 138.69 34.0962 138.721 34.1404C138.752 34.1847 138.761 34.791 138.699 34.8308C138.606 34.8972 137.703 34.822 137.482 34.853C137.261 34.8839 137.274 34.9105 137.292 35.0388C137.34 35.4018 138.703 35.747 138.907 36.34C139.111 36.933 138.907 37.4022 138.389 37.5659C138.066 37.6677 136.911 37.6765 136.548 37.6367C136.185 37.5969 136.398 37.6146 136.398 37.5659V36.9242C136.814 36.8799 137.345 36.9817 137.748 36.9242V36.9286Z" fill="white"/>
<path d="M163.842 33.2109C163.842 33.2109 163.895 33.2065 163.913 33.233C163.93 33.2596 163.926 33.3171 163.926 33.3215V34.0518C163.926 34.0739 163.944 34.096 163.97 34.096H164.572C164.634 34.096 164.683 34.1447 164.683 34.2067V34.8085C164.683 34.8307 164.665 34.8528 164.638 34.8528H163.997C163.948 34.8528 163.935 34.959 163.926 35.0033C163.895 35.2644 163.886 36.4062 163.939 36.6319C164.023 37.0125 164.603 36.8222 164.736 36.9107C164.869 36.9992 164.753 36.9284 164.753 36.9417C164.762 37.1187 164.855 37.6011 164.66 37.6365C164.466 37.672 163.855 37.6454 163.634 37.5569C162.687 37.1851 163.165 35.7114 163.041 34.9192C162.983 34.7422 162.558 34.9723 162.514 34.7377C162.47 34.5032 162.505 34.1403 162.563 34.1004C162.62 34.0606 163.045 34.1491 163.045 34.0296V33.3215C163.045 33.2596 163.094 33.2109 163.156 33.2109H163.846H163.842Z" fill="white"/>
<path d="M152.461 33.2106V33.9851C152.461 33.9984 152.519 34.0515 152.506 34.0957H153.191C153.28 34.0957 153.284 34.7419 153.24 34.8083C153.147 34.941 152.545 34.7242 152.47 34.9676C152.426 35.1269 152.439 36.1581 152.461 36.375C152.51 36.9547 152.806 36.8839 153.302 36.8839V37.6363H152.439C152.178 37.6363 151.784 37.3043 151.687 37.0609C151.501 36.5918 151.656 34.9278 151.576 34.8481C151.496 34.7684 151.142 34.9233 151.094 34.7773C151.045 34.6312 151.076 34.1842 151.107 34.14C151.173 34.0471 151.545 34.1267 151.576 34.1002C151.607 34.0736 151.527 33.3434 151.62 33.215H152.461V33.2106Z" fill="white"/>
<path d="M142.894 18.3494C143.115 18.3007 144.182 18.3095 144.434 18.3405C144.686 18.3715 144.744 18.4467 144.766 18.6282C144.806 18.9291 144.802 19.832 144.766 20.1373C144.731 20.4427 144.638 20.4471 144.434 20.4693C144.208 20.4958 143.031 20.5002 142.859 20.4471C142.699 20.3984 142.655 20.2391 142.642 20.0886C142.606 19.7789 142.606 19.0265 142.642 18.7167C142.659 18.5485 142.713 18.3892 142.894 18.3494Z" fill="white"/>
<path d="M107.929 18.3477C108.203 18.299 109.128 18.3035 109.425 18.3389C109.721 18.3743 109.734 18.3876 109.757 18.5823C109.796 18.8788 109.796 19.9277 109.757 20.2242C109.717 20.5207 109.597 20.4455 109.425 20.4676C109.088 20.503 108.442 20.4942 108.097 20.4676C107.858 20.4499 107.712 20.4543 107.676 20.18C107.641 19.9056 107.632 18.8832 107.676 18.5911C107.721 18.299 107.774 18.3831 107.929 18.3566V18.3477Z" fill="white"/>
<path d="M153.648 18.3477C153.932 18.2946 154.839 18.3034 155.144 18.3388C155.45 18.3743 155.454 18.4185 155.476 18.6708C155.507 19.0293 155.516 19.8303 155.476 20.1799C155.445 20.4543 155.295 20.4543 155.056 20.4676C154.702 20.4941 154.073 20.503 153.728 20.4676C153.383 20.4322 153.423 20.4056 153.396 20.1799C153.37 19.9542 153.352 18.8832 153.396 18.5911C153.423 18.4318 153.493 18.3831 153.648 18.3566V18.3477Z" fill="white"/>
<path d="M120.949 32.7687H121.768C121.772 32.7687 121.834 32.8307 121.834 32.8351V37.5705C121.834 37.575 121.772 37.6369 121.768 37.6369H121.016C121.011 37.6369 120.949 37.575 120.949 37.5705V32.7687Z" fill="white"/>
<path d="M109.267 32.7687H108.426V37.6369H109.267V32.7687Z" fill="white"/>
<path d="M101.474 34.0963C101.491 34.114 101.46 34.3839 101.474 34.4503C101.646 34.3264 101.73 34.1627 101.956 34.114C102.182 34.0653 102.58 34.052 102.58 34.1627V34.8486H101.894C101.673 34.8486 101.474 35.154 101.474 35.3576V37.6368H100.633V34.0963C100.752 34.1184 101.443 34.0653 101.474 34.0963Z" fill="white"/>
<path d="M166.228 34.0978H165.387V37.6383H166.228V34.0978Z" fill="white"/>
<path d="M154.808 37.6383H153.967V34.0978H154.741C154.746 34.0978 154.808 34.1597 154.808 34.1641V37.6383Z" fill="white"/>
<path d="M154.8 32.777C154.889 32.8655 154.884 33.5116 154.791 33.609C154.698 33.7064 154.07 33.6754 153.99 33.609C153.91 33.5426 153.897 32.8699 153.968 32.7814C154.039 32.6929 154.72 32.6929 154.804 32.7726L154.8 32.777Z" fill="white"/>
<path d="M165.399 32.7775C165.483 32.6934 166.156 32.6845 166.236 32.7863C166.315 32.8881 166.307 33.5387 166.214 33.6139C166.121 33.6892 165.483 33.6803 165.413 33.6139C165.342 33.5475 165.315 32.8704 165.404 32.7819L165.399 32.7775Z" fill="white"/>
<path d="M140.326 18.547C140.291 18.3655 140.118 18.3478 139.963 18.3345C139.631 18.308 138.866 18.2947 138.547 18.339C138.463 18.3522 138.255 18.4363 138.255 18.5337V22.4061C138.197 22.4238 138.184 22.3884 138.158 22.3486C137.565 21.4812 136.71 21.459 135.71 21.521C134.073 21.6272 133.387 22.5212 133.294 24.1056C133.241 25.0704 133.241 26.3715 133.294 27.3408C133.347 28.3498 133.67 29.3589 134.688 29.7527C135.431 30.0404 137.326 30.0935 137.914 29.4828C138.073 29.3058 138.189 29.0181 138.25 29.0889V29.7749C138.25 29.8059 138.392 29.9165 138.45 29.9298C138.675 29.974 139.839 29.9652 140.087 29.9298C140.246 29.9076 140.339 29.8103 140.331 29.6421L140.317 18.5425L140.326 18.547ZM138.259 26.9026C138.224 27.4337 138.056 27.9869 137.463 28.0975C137.193 28.1507 136.303 28.1507 136.033 28.1064C135.622 28.0356 135.458 27.7346 135.422 27.3452C135.44 26.3096 135.422 25.1501 135.427 24.0746C135.471 23.7515 135.644 23.4506 135.985 23.3931C136.259 23.3488 137.277 23.3488 137.538 23.4108C137.764 23.4639 137.989 23.6675 138.096 23.871C138.326 24.3225 138.299 26.314 138.255 26.8982L138.259 26.9026Z" fill="white"/>
<path d="M164.371 23.0976C163.743 21.3362 161.627 21.4203 160.069 21.5398C158.719 21.6416 157.741 22.3895 157.644 23.8057C157.569 24.8856 157.564 26.6249 157.644 27.7047C157.724 28.7802 158.396 29.6388 159.459 29.8733C160.087 30.0105 162.34 30.0061 162.937 29.8069C163.995 29.4529 164.486 28.5545 164.552 27.4835C164.614 26.5319 164.663 23.912 164.375 23.0976H164.371ZM162.464 27.3905C162.375 28.2889 161.375 28.2181 160.671 28.1694C160.1 28.1296 159.773 28.019 159.72 27.395C159.702 26.3505 159.689 25.2308 159.733 24.1288C159.729 24.0049 159.746 23.881 159.795 23.7659C159.901 23.5136 160.096 23.3986 160.423 23.3587C160.773 23.3145 161.623 23.3101 161.946 23.403C162.331 23.5181 162.437 23.7836 162.468 24.1642C162.539 24.9653 162.543 26.6072 162.468 27.395L162.464 27.3905Z" fill="white"/>
<path d="M105.507 23.7597C105.428 21.4008 102.878 21.4008 101.073 21.538C99.5414 21.6531 98.6961 22.4807 98.6031 24.0252C98.5412 24.99 98.4925 27.6189 98.7934 28.4421C99.0545 29.1546 99.6609 29.6768 100.391 29.8538C101.024 30.0043 102.591 29.991 103.277 29.9379C104.157 29.8671 104.874 29.3936 105.246 28.6678C105.414 28.3358 105.494 27.9685 105.498 27.5968C105.507 26.2956 105.498 24.9812 105.512 23.7597H105.507ZM103.467 27.256C103.409 27.9641 103.157 28.119 102.476 28.1677C101.98 28.2031 100.913 28.2606 100.754 27.672C100.59 27.0613 100.63 25.0343 100.679 24.335C100.719 23.7818 100.812 23.4278 101.422 23.3525C101.759 23.3083 102.639 23.2994 102.945 23.3968C103.37 23.5296 103.44 23.8925 103.467 24.2908C103.524 25.0918 103.529 26.4594 103.467 27.256Z" fill="white"/>
<path d="M144.189 34.2058C144.163 33.8739 144.048 33.5419 143.76 33.3516C143.693 33.3074 143.384 33.1657 143.326 33.1657H141.246C141.233 33.1879 141.18 33.2189 141.18 33.2321V37.5693C141.18 37.5737 141.242 37.6357 141.246 37.6357H143.326C143.716 37.6357 144.109 37.1666 144.167 36.7948C144.26 36.2239 144.233 34.8077 144.189 34.2014V34.2058ZM143.3 36.5071C143.291 36.5868 143.269 36.7196 143.211 36.7727C143.189 36.7948 142.946 36.8833 142.923 36.8833H142.127C142.122 36.8833 142.06 36.8213 142.06 36.8169V33.9624H143.1C143.229 33.9624 143.286 34.1881 143.3 34.2943C143.353 34.8077 143.353 35.9893 143.3 36.5071Z" fill="white"/>
<path d="M116.616 35.2238C116.594 34.8521 116.51 34.5069 116.191 34.2767C115.868 34.0422 114.903 33.9891 114.633 34.29C114.585 34.3476 114.558 34.4007 114.532 34.4538V32.8384C114.532 32.834 114.47 32.772 114.465 32.772H113.646V37.5739C113.646 37.5783 113.708 37.6402 113.713 37.6402H115.749C115.935 37.6402 116.324 37.3791 116.426 37.211C116.674 36.8215 116.643 35.7062 116.612 35.2238H116.616ZM115.678 36.6002C115.678 36.6356 115.673 36.6754 115.656 36.7109C115.603 36.8215 115.47 36.8835 115.35 36.8835C115.35 36.8835 114.89 36.8835 114.58 36.8702C114.554 36.8702 114.536 36.8481 114.532 36.8215C114.518 36.317 114.518 35.6708 114.532 35.1973C114.545 34.7237 114.532 35.1707 114.536 35.1574C114.611 34.8432 115.116 34.7813 115.421 34.8521C115.554 34.8831 115.651 35.0025 115.656 35.1397C115.665 35.5381 115.673 36.2373 115.678 36.5958V36.6002Z" fill="white"/>
<path d="M118.051 34.0978C118.033 34.0978 117.772 34.1996 117.732 34.2217C117.502 34.3367 117.312 34.6067 117.259 34.859C117.183 35.2352 117.192 36.284 117.228 36.6912C117.298 37.5144 118.042 37.7711 118.781 37.6206C119.007 37.5763 119.126 37.448 119.263 37.2842C119.263 37.3551 119.246 37.6383 119.33 37.6383H120.104V34.0978H118.046H118.051ZM119.224 36.5983C119.224 36.8771 118.33 37.0187 118.17 36.7222C118.13 36.6425 118.122 36.554 118.113 36.4699C118.086 36.1734 118.077 35.4741 118.117 35.1909C118.144 35.0139 118.25 34.8546 118.445 34.8546H119.219V36.6027L119.224 36.5983Z" fill="white"/>
<path d="M162.046 34.0978H160.055C159.723 34.0978 159.338 34.4872 159.249 34.797C159.147 35.1422 159.147 36.6337 159.258 36.9744C159.51 37.7401 160.758 37.8994 161.227 37.2842C161.227 37.3772 161.196 37.6073 161.294 37.6383C161.4 37.6693 161.887 37.6383 162.046 37.6383C162.205 37.6383 162.113 37.5763 162.113 37.5719V34.1641C162.113 34.1597 162.051 34.0978 162.046 34.0978ZM161.232 36.4035C161.232 36.4611 161.223 36.5186 161.201 36.5717C161.103 36.8373 160.825 36.9081 160.541 36.8859C160.223 36.8638 160.108 36.7886 160.077 36.4655C160.059 36.2973 160.046 35.66 160.05 35.2263C160.05 35.0095 160.227 34.8368 160.444 34.8413C160.754 34.8413 161.139 34.8501 161.139 34.8501C161.188 34.8501 161.227 34.89 161.227 34.9386C161.232 35.3591 161.249 35.9964 161.227 36.4035H161.232Z" fill="white"/>
<path d="M130.957 36.9017C130.36 36.7158 128.846 37.3177 129.05 36.2644H130.931C130.935 36.2644 130.997 36.2025 130.997 36.198V34.8703C130.997 34.8305 130.82 34.4765 130.776 34.4278C130.444 34.0339 129.545 34.0427 129.072 34.0959C128.758 34.1313 128.404 34.3304 128.275 34.6269C128.12 34.981 128.12 36.3485 128.178 36.7645C128.24 37.2336 128.598 37.5877 129.072 37.6408C129.271 37.6629 130.878 37.6762 130.957 37.6231C131.024 37.5789 131.024 36.9548 130.957 36.9106V36.9017ZM129.74 34.8482C130.276 34.8925 130.081 35.2377 130.112 35.6448H129.05C129.005 35.0164 129.054 34.7863 129.74 34.8482Z" fill="white"/>
<path d="M147.682 36.8841H146.022C145.783 36.8841 145.686 36.446 145.779 36.2646H147.66C147.664 36.2646 147.726 36.2026 147.726 36.1982V34.9147C147.726 34.689 147.43 34.3217 147.226 34.2199C146.881 34.0429 145.81 34.034 145.451 34.1889C145.124 34.3305 144.929 34.6536 144.894 35.0032C144.854 35.4104 144.849 36.4062 144.903 36.8045C144.956 37.1585 145.332 37.6365 145.708 37.6365H147.655C147.766 37.6365 147.726 36.9859 147.677 36.8841H147.682ZM146.469 34.8483C147.005 34.8926 146.81 35.2378 146.841 35.645H145.779C145.73 35.0121 145.779 34.7864 146.469 34.8483Z" fill="white"/>
<path d="M96.2561 35.0025C96.2207 34.6175 95.9728 34.2723 95.6011 34.1528C95.3178 34.0643 94.5123 34.0643 94.207 34.1086C93.1669 34.259 93.2776 35.6177 93.3307 36.4232C93.4104 37.6978 94.1981 37.7332 95.3045 37.6402C95.7515 37.6004 96.1675 37.3172 96.2428 36.8525C96.3047 36.4807 96.2915 35.4008 96.2561 35.0025ZM95.3267 36.764C95.2249 36.9233 94.53 36.9189 94.3796 36.8303C94.2822 36.7728 94.2734 36.6976 94.2601 36.5958C94.238 36.3966 94.238 35.1043 94.2911 34.9893C94.3884 34.7813 95.1718 34.799 95.309 34.945C95.3621 34.9981 95.3621 35.1043 95.3665 35.1751C95.3842 35.3831 95.3886 36.6622 95.3222 36.764H95.3267Z" fill="white"/>
<path d="M169.822 34.7281C169.716 34.4493 169.49 34.2369 169.202 34.1528C168.91 34.0643 168.167 34.0643 167.853 34.1086C167.485 34.1572 167.162 34.4051 167.043 34.7591C166.928 35.1043 166.945 36.1975 166.976 36.6002C167.06 37.7022 168.007 37.7155 168.906 37.6402C169.317 37.6048 169.672 37.4013 169.818 37.0029C169.95 36.6533 169.95 35.0778 169.818 34.7281H169.822ZM169.017 36.5914C168.95 37.0162 167.985 36.972 167.888 36.6622C167.839 36.5073 167.839 35.33 167.87 35.1353C167.897 34.9671 168.003 34.883 168.167 34.8565C168.397 34.8167 168.915 34.7945 168.999 35.0645C169.048 35.2194 169.048 36.3966 169.017 36.5914Z" fill="white"/>
<path d="M112.84 34.7331C112.733 34.4543 112.508 34.2419 112.22 34.1578C111.928 34.0693 111.184 34.0693 110.87 34.1135C110.503 34.1622 110.18 34.4101 110.06 34.7641C109.945 35.1093 109.963 36.2024 109.994 36.6052C110.078 37.7072 111.025 37.7205 111.923 37.6452C112.335 37.6098 112.689 37.4062 112.835 37.0079C112.968 36.6583 112.968 35.0828 112.835 34.7331H112.84ZM112.03 36.5963C111.963 37.0212 110.999 36.9769 110.901 36.6671C110.852 36.5122 110.852 35.335 110.883 35.1403C110.91 34.9721 111.016 34.888 111.18 34.8615C111.41 34.8216 111.928 34.7995 112.012 35.0695C112.061 35.2244 112.061 36.4016 112.03 36.5963Z" fill="white"/>
<path d="M90.8094 36.0203C90.4465 35.175 89.9818 34.2589 89.5613 33.418C89.5304 33.3295 89.5127 33.2587 89.5259 33.1657" fill="white"/>
<path d="M90.8086 36.0206C90.5121 35.2948 89.981 34.2592 89.5605 33.4183L90.8086 36.0206Z" fill="white"/>
</g>
<defs>
<clipPath id="clip0_3281_2973">
<rect width="129.239" height="31.9998" fill="white" transform="translate(47.3809 9.00017)"/>
</clipPath>
</defs>
</svg>
