<svg width="224" height="50" viewBox="0 0 224 50" fill="none" xmlns="http://www.w3.org/2000/svg">
<g clip-path="url(#clip0_3281_3097)">
<path d="M39.6016 23.7638C39.6879 23.2637 39.7556 22.7596 39.8642 22.2641C40.3498 20.0496 41.3601 18.0979 42.9073 16.4204C44.8724 14.2902 47.2916 12.965 50.1614 12.4412C50.5326 12.3737 50.5705 12.4014 50.5711 12.7698C50.5728 13.7971 50.5676 14.8238 50.5746 15.851C50.5764 16.0768 50.5086 16.1813 50.2688 16.2472C46.5498 17.2692 44.2246 19.635 43.5003 23.3826C42.9715 26.1197 43.6952 28.6143 45.5401 30.7318C47.5548 33.0444 50.159 34.0342 53.2255 33.828C54.614 33.7345 55.9091 33.3025 57.098 32.5854C57.3133 32.4554 57.4464 32.4681 57.6221 32.6454C58.3639 33.3926 59.1139 34.1312 59.8726 34.8611C60.0594 35.0406 60.0722 35.14 59.8452 35.2959C58.0195 36.546 56.0089 37.3036 53.7992 37.5439C53.7327 37.5514 53.6685 37.5745 53.6031 37.5906H51.2114C51.0018 37.5571 50.7923 37.5179 50.5822 37.4902C45.5915 36.8365 41.2579 33.0334 40.0031 28.2135C39.8239 27.5252 39.7206 26.8248 39.6016 26.1261C39.6016 25.3384 39.6016 24.5514 39.6016 23.7638Z" fill="white"/>
<path d="M134.207 29.6926C134.339 29.2844 134.473 28.8767 134.603 28.4679C135.843 24.5482 137.082 20.6285 138.322 16.7088C138.443 16.3242 138.577 15.9425 138.685 15.5545C138.741 15.3553 138.837 15.2704 139.052 15.2756C139.528 15.2877 140.005 15.2883 140.48 15.2756C140.697 15.2698 140.789 15.3616 140.85 15.5539C141.637 18.0554 142.431 20.5546 143.222 23.0549C143.911 25.2348 144.598 27.4146 145.287 29.5945C145.304 29.6458 145.332 29.6938 145.382 29.8023C145.508 29.4201 145.616 29.0967 145.72 28.7722C147.136 24.364 148.553 19.9558 149.964 15.5458C150.028 15.3449 150.13 15.2733 150.339 15.2762C151.019 15.2854 151.7 15.2785 152.38 15.2796C152.75 15.2802 152.759 15.2918 152.647 15.6325C151.958 17.7216 151.268 19.8108 150.579 21.9C149.202 26.0692 147.823 30.2372 146.456 34.4092C146.374 34.6581 146.254 34.7412 146 34.7302C145.583 34.7129 145.163 34.7083 144.746 34.7314C144.47 34.747 144.355 34.6384 144.275 34.3872C143.439 31.7402 142.593 29.0961 141.748 26.452C141.125 24.5031 140.501 22.5548 139.877 20.606C139.848 20.517 139.813 20.4299 139.772 20.3173C139.659 20.4287 139.651 20.5575 139.615 20.6689C138.176 25.2105 136.74 29.7527 135.302 34.2948C135.166 34.725 135.163 34.7245 134.699 34.7245C134.291 34.7245 133.882 34.7164 133.474 34.7274C133.268 34.7331 133.162 34.6627 133.096 34.4611C131.816 30.564 130.53 26.6686 129.245 22.7731C128.465 20.4102 127.682 18.0485 126.902 15.6856C126.771 15.2871 126.777 15.2791 127.189 15.2785C127.84 15.2773 128.492 15.2912 129.143 15.2721C129.416 15.264 129.537 15.3576 129.618 15.6122C130.473 18.3037 131.339 20.9917 132.202 23.6809C132.801 25.5466 133.4 27.4123 133.999 29.278C134.043 29.4143 134.091 29.5488 134.137 29.6845C134.16 29.6868 134.183 29.6892 134.207 29.6915V29.6926Z" fill="white"/>
<path d="M82.3495 34.9547C77.5654 35.0044 73.3077 31.6898 72.3563 26.9963C71.6945 23.7326 72.4911 20.8037 74.7288 18.3005C76.4704 16.3516 78.6877 15.2475 81.3019 15.0102C84.2919 14.7394 86.9171 15.6356 89.1502 17.6255C89.4864 17.9252 89.4788 17.9338 89.1683 18.2404C88.7218 18.6816 88.2683 19.117 87.8311 19.5674C87.67 19.7337 87.5656 19.7158 87.4022 19.5686C85.8765 18.1896 84.073 17.4915 82.0075 17.5648C78.3311 17.6959 75.3965 20.34 74.8666 23.7435C74.388 26.815 75.4782 29.294 78.0229 31.1112C80.6838 33.0104 84.5645 32.8077 87.0432 30.6943C87.2317 30.5338 87.3922 30.241 87.6239 30.2525C87.8697 30.2647 88.015 30.569 88.2018 30.7468C88.5659 31.0933 88.9126 31.4571 89.2786 31.8007C89.4397 31.952 89.4245 32.0559 89.2716 32.1985C87.7535 33.6202 85.964 34.5014 83.9003 34.8363C83.3633 34.9235 82.8223 34.9824 82.3495 34.9541V34.9547Z" fill="white"/>
<path d="M178.991 29.0243C177.348 29.0243 175.706 29.0295 174.063 29.0191C173.799 29.0173 173.754 29.0924 173.813 29.3326C174.264 31.1717 175.848 32.4466 177.764 32.5119C178.556 32.539 179.336 32.4986 180.089 32.2185C180.719 31.9841 181.264 31.6278 181.725 31.1451C181.84 31.025 181.922 30.9586 182.074 31.1197C182.504 31.5764 182.944 32.0239 183.396 32.4599C183.563 32.621 183.551 32.7203 183.396 32.8802C182.192 34.1153 180.718 34.7886 179.001 34.9653C177.175 35.1529 175.473 34.8042 173.967 33.7435C172.221 32.5142 171.253 30.8362 171.08 28.7119C170.928 26.844 171.363 25.1417 172.544 23.6676C173.87 22.0145 175.621 21.1634 177.762 21.097C179.52 21.0421 181.093 21.5202 182.386 22.7183C183.618 23.8587 184.229 25.3011 184.366 26.9554C184.415 27.5421 184.409 28.1206 184.32 28.7032C184.281 28.9602 184.17 29.0318 183.92 29.0306C182.277 29.022 180.634 29.026 178.992 29.026L178.991 29.0243ZM177.782 26.8642C179.025 26.8642 180.268 26.8653 181.512 26.8624C181.657 26.8624 181.848 26.9098 181.796 26.639C181.602 25.6406 181.158 24.7878 180.306 24.1861C179.396 23.5435 178.37 23.4031 177.282 23.5394C175.561 23.7548 174.258 24.8628 173.832 26.4923C173.735 26.863 173.735 26.8636 174.111 26.8642C175.335 26.8642 176.559 26.8642 177.782 26.8642Z" fill="white"/>
<path d="M98.0679 21.1469C101.866 21.0632 105.309 24.0865 105.132 28.3415C104.978 32.0773 101.982 35.1024 97.8653 35.0204C94.2563 34.9488 90.8778 31.9786 91.0429 27.7248C91.1877 23.9999 94.422 21.0285 98.0679 21.1469ZM93.7462 28.0193C93.7556 28.3253 93.755 28.6307 93.8081 28.9362C94.4331 32.5393 98.3923 33.339 100.622 31.7395C101.893 30.8272 102.427 29.539 102.426 27.9973C102.424 25.4879 100.359 23.083 97.0179 23.7493C95.137 24.1246 93.6639 25.8973 93.7462 28.0193Z" fill="white"/>
<path d="M116.859 23.0041C117.504 22.2875 118.187 21.773 119.013 21.4693C122.757 20.0933 125.857 22.5214 126.32 25.6937C126.349 25.894 126.369 26.0933 126.369 26.2948C126.369 28.963 126.369 31.6318 126.369 34.3C126.369 34.7112 126.368 34.7123 125.943 34.7129C125.321 34.714 124.699 34.7019 124.077 34.7181C123.796 34.725 123.712 34.6257 123.713 34.352C123.72 31.8183 123.723 29.284 123.71 26.7498C123.702 25.1977 122.649 23.8916 121.108 23.6C118.901 23.1825 117.16 24.4528 116.903 26.4876C116.874 26.7174 116.86 26.9455 116.86 27.1759C116.86 29.5566 116.86 31.9367 116.86 34.3174C116.86 34.7268 116.859 34.7279 116.439 34.7279C115.817 34.7279 115.195 34.7181 114.573 34.7291C114.33 34.7331 114.256 34.6442 114.256 34.4098C114.261 30.1767 114.261 25.9437 114.256 21.7107C114.256 21.4791 114.326 21.3833 114.571 21.3873C115.232 21.3983 115.893 21.3966 116.554 21.3879C116.777 21.385 116.869 21.4635 116.862 21.6899C116.851 22.0999 116.859 22.5098 116.859 23.0029L116.859 23.0041Z" fill="white"/>
<path d="M65.2711 24.9394C65.2577 27.6275 64.4744 30.0753 62.9196 32.284C62.7748 32.489 62.6855 32.5017 62.5069 32.3215C61.7523 31.5605 60.9889 30.8075 60.2185 30.062C60.0509 29.9003 60.0206 29.7813 60.1519 29.5729C61.1284 28.0178 61.5614 26.3132 61.4645 24.4936C61.3513 22.3692 60.5675 20.5029 59.1154 18.9213C57.8932 17.5902 56.3944 16.709 54.6353 16.2644C54.3866 16.2015 54.2851 16.1027 54.2892 15.8383C54.3032 14.8017 54.2939 13.7652 54.2962 12.7287C54.2968 12.4128 54.344 12.373 54.6575 12.4307C58.073 13.0619 60.8074 14.7688 62.8577 17.5325C64.1843 19.3203 64.9384 21.3367 65.2069 23.5328C65.2361 23.7707 65.2582 24.0097 65.2693 24.2488C65.2798 24.4786 65.2717 24.709 65.2717 24.9394H65.2711Z" fill="white"/>
<path d="M163.648 22.7424C163.719 22.6772 163.749 22.657 163.77 22.6298C164.467 21.755 165.381 21.2562 166.495 21.1291C167.988 20.9588 169.336 21.2637 170.426 22.3625C170.695 22.6344 170.698 22.6362 170.427 22.907C169.998 23.3377 169.564 23.7644 169.143 24.2033C169.004 24.3482 168.909 24.3471 168.759 24.2171C167.792 23.3828 166.681 23.3764 165.556 23.7748C164.428 24.1744 163.9 25.0763 163.712 26.2023C163.655 26.5441 163.647 26.8888 163.647 27.2341C163.649 29.5946 163.648 31.9556 163.647 34.3161C163.647 34.7272 163.645 34.7278 163.225 34.7278C162.613 34.7278 162.001 34.7272 161.388 34.7255C161.007 34.7243 161 34.7191 161 34.3352C161 31.5809 161 28.8266 161 26.0724C161 24.6427 161 23.2124 161 21.7828C161 21.4011 161.01 21.3924 161.39 21.3919C162.041 21.3907 162.692 21.3976 163.343 21.389C163.57 21.3861 163.657 21.4721 163.65 21.6944C163.639 22.0259 163.647 22.3579 163.647 22.7424H163.648Z" fill="white"/>
<path d="M157.34 28.0787C157.34 30.1516 157.34 32.2245 157.34 34.2974C157.34 34.7264 157.338 34.727 156.904 34.727C156.272 34.727 155.64 34.716 155.009 34.7293C154.749 34.7351 154.646 34.6589 154.646 34.3892C154.652 30.1666 154.652 25.944 154.647 21.7207C154.647 21.4725 154.732 21.3818 154.987 21.3864C155.657 21.3986 156.328 21.4037 156.998 21.3847C157.308 21.376 157.344 21.5256 157.343 21.7727C157.338 23.8745 157.34 25.9763 157.34 28.0781L157.34 28.0787Z" fill="white"/>
<path d="M110.563 28.0801C110.563 30.1628 110.563 32.2461 110.563 34.3289C110.563 34.7256 110.562 34.7273 110.162 34.7273C109.54 34.7273 108.918 34.7267 108.295 34.725C107.915 34.7238 107.909 34.7186 107.909 34.3329C107.908 31.3575 107.909 28.3821 107.909 25.4061C107.909 24.1872 107.915 22.9682 107.904 21.7493C107.901 21.4722 107.997 21.3798 108.275 21.3867C108.906 21.4017 109.538 21.3908 110.17 21.3919C110.56 21.3925 110.563 21.3954 110.563 21.7747C110.564 23.8771 110.563 25.9789 110.563 28.0813V28.0801Z" fill="white"/>
<path d="M154.348 17.1262C154.354 16.2225 155.075 15.5314 156.016 15.5297C156.947 15.5279 157.689 16.2508 157.694 17.1632C157.698 18.1101 156.954 18.8325 155.986 18.8198C155.042 18.8071 154.342 18.0841 154.348 17.1268V17.1262Z" fill="white"/>
<path d="M110.912 17.1891C110.908 18.1194 110.181 18.8278 109.24 18.8192C108.301 18.8105 107.581 18.0997 107.57 17.1718C107.56 16.2566 108.298 15.5296 109.237 15.5296C110.197 15.5296 110.915 16.2404 110.911 17.1897L110.912 17.1891Z" fill="white"/>
</g>
<defs>
<clipPath id="clip0_3281_3097">
<rect width="144.798" height="25.1822" fill="white" transform="translate(39.6016 12.4088)"/>
</clipPath>
</defs>
</svg>
