<svg width="224" height="50" viewBox="0 0 224 50" fill="none" xmlns="http://www.w3.org/2000/svg">
<path d="M63.8127 9.75403C63.6483 10.3058 64.0745 17.4172 63.6918 17.4172H48.503V32.5824H63.8127V40.2456H40.7676V9.75403H63.8127Z" fill="white"/>
<path d="M183.231 26.5318V27.2578H176.462C176.057 29.7591 178.993 31.6353 180.369 29.1122L180.531 29.0324L182.868 29.1937L183.067 29.3139C181.661 33.0961 175.493 33.2163 173.976 29.4639C172.814 26.5907 173.462 22.2221 176.911 21.3743C179.973 20.6217 182.495 21.9736 183.047 25.142L183.23 26.531L183.231 26.5318ZM180.492 25.4832C180.433 22.1672 176.441 22.1269 176.463 25.4832H180.492Z" fill="white"/>
<path d="M148.338 21.5309L145.569 21.8422C144.974 20.2403 143.648 20.0169 142.09 20.1572C140.824 20.2718 139.546 21.2623 140.501 22.5601C141.64 24.108 146.677 23.4297 148.192 25.9117C149.157 27.4934 148.87 29.7834 147.409 30.966C144.821 33.0632 137.126 32.7365 136.734 28.3065L139.502 27.9129C140.123 29.827 141.993 30.1013 143.775 29.9093C145.065 29.7705 146.393 28.9042 145.681 27.4571C144.698 25.4575 137.998 26.6287 137.416 22.7449C136.973 19.787 138.748 18.4085 141.46 18.0729C144.178 17.7373 148.001 18.1334 148.339 21.5301L148.338 21.5309Z" fill="white"/>
<path d="M109.177 21.3716L109.258 22.984C110.375 20.8505 113.795 20.5125 115.342 22.3387C116.927 24.2101 116.928 28.6981 115.529 30.6743C114.041 32.774 110.505 32.7199 109.258 30.4065L109.338 36.1327H106.518L106.438 21.3716H109.177ZM111.09 23.1655C108.19 23.6535 108.79 31.9367 112.424 29.9855C114.149 29.0595 114.379 22.6113 111.09 23.1655Z" fill="white"/>
<path d="M85.5671 21.9359L83.0387 22.5756C81.9574 19.7516 77.4775 19.5257 76.1634 22.2424C75.5002 23.6129 75.4704 25.8916 75.9563 27.3217C77.1383 30.8023 82.0509 30.6563 83.1991 27.2532L85.7235 28.1526C84.3416 33.1012 76.4139 33.4787 73.8001 29.4803C72.1903 27.0177 72.2136 22.4183 74.1232 20.1194C76.8216 16.8712 84.5293 17.1898 85.5671 21.9359Z" fill="white"/>
<path d="M166.307 30.3251V31.8577C166.307 31.9327 164.944 32.0989 164.821 32.1037C163.406 32.1578 162.489 31.6827 162.358 30.1646C160.424 33.383 155.059 32.8249 155.601 28.3586C155.802 26.6969 157.48 25.5661 159.096 25.5661H161.956V24.2351C161.956 23.7858 161.394 23.1696 160.93 23.0849C159.71 22.8639 159.138 23.3551 158.925 24.5223L156.108 24.361C156.275 21.3845 159.944 20.765 162.278 21.4128C165.712 22.3654 164.599 26.0089 164.774 28.674C164.853 29.8807 164.842 30.5034 166.308 30.3243L166.307 30.3251ZM161.956 27.0986H160.627C159.462 27.0986 158.444 27.4842 158.487 28.8329C158.542 30.6147 160.55 30.48 161.427 29.3515C161.544 29.2007 161.957 28.4102 161.957 28.2691V27.0994L161.956 27.0986Z" fill="white"/>
<path d="M129.226 21.2324C133.351 20.8065 135.7 23.0933 135.45 27.2208C135.215 31.0805 131.946 32.8768 128.356 31.9774C123.265 30.7014 123.403 21.8342 129.226 21.2332V21.2324ZM129.789 23.1675C126.355 23.5555 127.209 32.0992 131.233 29.9359C133.069 28.9486 133.321 22.7682 129.789 23.1675Z" fill="white"/>
<path d="M97.0506 21.3703C97.4503 21.5131 99.343 28.546 99.7096 29.4374L102.087 21.3703H105.068L100.836 32.6614C100.004 34.5618 99.1141 36.0646 96.8121 36.1355C96.6445 36.1404 94.9952 36.0613 94.9952 35.9702V33.9536C96.846 34.39 97.808 33.5205 98.2891 31.8145L94.2297 21.693L94.1895 21.3703H97.0498H97.0506Z" fill="white"/>
<path d="M121.666 18.9492V21.3691H123.6V23.305H121.666V29.3143C121.666 30.2444 123.129 30.2581 123.761 30.0806V31.8552C123.761 31.9673 121.716 32.1859 121.546 32.1851C120.214 32.1754 118.846 31.4608 118.846 29.9596V23.305H117.557V21.3691H119.007L119.813 18.9492H121.666Z" fill="white"/>
<path d="M170.416 18.9492V21.3691H172.35V23.305H170.416V29.3143C170.416 30.2444 171.879 30.2581 172.511 30.0806V31.8552C172.511 31.9673 170.466 32.1859 170.296 32.1851C168.964 32.1754 167.596 31.4608 167.596 29.9596V23.305H166.307V21.3691H167.757L168.563 18.9492H170.416Z" fill="white"/>
<path d="M153.658 17.498H150.838V32.0172H153.658V17.498Z" fill="white"/>
<path d="M93.7882 21.2912V23.7111C92.7053 23.4264 91.5982 23.4054 90.9528 24.4621C90.8053 24.7041 90.4846 25.6026 90.4846 25.8486V31.8983L90.3638 32.0193H87.6646L87.584 21.3719H90.2429L90.4444 23.3893C90.9262 21.7139 91.9777 20.8331 93.7882 21.2912Z" fill="white"/>
</svg>
