<svg width="224" height="50" viewBox="0 0 224 50" fill="none" xmlns="http://www.w3.org/2000/svg">
<g clip-path="url(#clip0_3281_3196)">
<mask id="mask0_3281_3196" style="mask-type:luminance" maskUnits="userSpaceOnUse" x="41" y="10" width="142" height="30">
<path d="M182.397 10.861H41.6016V39.0565H182.397V10.861Z" fill="white"/>
</mask>
<g mask="url(#mask0_3281_3196)">
<path d="M63.7422 22.2853C64.3782 22.2063 64.778 21.8604 65.1124 21.3716C65.8359 20.3125 66.6315 19.2977 67.3321 18.2259C67.8147 17.4875 68.1967 16.6875 68.6056 15.9064C68.8456 15.4483 68.7514 14.9919 68.4023 14.7218C68.0294 14.4343 67.4059 14.4059 67.0502 14.7257C66.1776 15.5084 65.1468 16.0557 64.1249 16.6211C63.4923 16.9718 62.8999 17.3738 62.4386 17.9472C61.9904 17.1653 61.3241 16.708 60.4228 16.5793C60.3203 16.5625 60.216 16.5582 60.1122 16.5666C59.6075 16.6227 59.2289 16.4482 58.9315 16.0462C58.0424 14.845 56.397 14.6894 55.2793 15.694C55.1445 15.8236 55.0211 15.9638 54.9106 16.1133C54.6402 16.4592 54.3091 16.614 53.8371 16.5801C52.9358 16.5169 52.2319 16.9031 51.7001 17.5941C51.6591 17.6478 51.628 17.7079 51.5919 17.7647C51.5559 17.8216 51.519 17.8769 51.4682 17.9543C50.5545 16.8194 49.2009 16.2958 48.0201 15.5392C47.512 15.2071 47.0219 14.8501 46.5517 14.4698C46.1313 14.1365 45.6733 14.1831 45.3865 14.6278C45.2615 14.8139 45.1882 15.0279 45.1739 15.2492C45.1595 15.4706 45.2045 15.6917 45.3045 15.8914C45.947 17.3059 46.8073 18.594 47.7489 19.8402C48.1586 20.3867 48.5683 20.9388 48.9698 21.4924C49.2697 21.9047 49.6843 22.1361 50.1989 22.234C50.0817 22.4622 49.9531 22.6707 49.8621 22.8942C49.6589 23.4076 49.4647 23.9209 49.2885 24.4461C49.1738 24.7849 48.9976 25.0574 48.6691 25.2454C48.1153 25.5687 47.6867 26.0581 47.4489 26.6385C46.8753 27.9447 46.9024 29.2447 47.6046 30.498C47.7931 30.833 48.0963 31.1172 48.3823 31.3897C48.6281 31.6203 48.7789 31.8588 48.7772 32.1954C48.7715 33.4732 48.7772 34.7502 48.7772 36.028C48.7835 36.6423 48.592 37.2433 48.2291 37.7483C47.8661 38.2531 47.3497 38.6372 46.7508 38.8474C46.1575 39.0702 45.5077 39.1124 44.8888 38.9682C44.2699 38.8241 43.7118 38.5005 43.2896 38.0411C42.1752 36.832 41.6016 35.4318 41.6016 33.7985C41.6136 28.2876 41.6152 22.776 41.6065 17.264C41.6065 14.1468 43.7796 11.5856 46.9597 10.9751C47.3684 10.9005 47.7836 10.864 48.1995 10.8661C54.0447 10.8593 59.8899 10.8593 65.7351 10.8661C67.3283 10.8602 68.8697 11.4108 70.074 12.416C71.2783 13.4213 72.0641 14.8131 72.2856 16.3337C72.3244 16.6138 72.343 16.8961 72.3413 17.1787C72.3446 22.8239 72.3446 28.4692 72.3413 34.1144C72.3413 35.2714 72.1569 36.3953 71.5063 37.4015C70.5434 38.8917 68.4941 39.4691 66.9601 38.6762C66.0653 38.2132 65.636 37.4251 65.4434 36.509C65.1894 35.3007 65.2017 34.0694 65.1763 32.8429C65.1689 32.5088 65.1656 32.1747 65.1763 31.8406C65.1767 31.7984 65.1863 31.7566 65.2043 31.718C65.2225 31.6794 65.2485 31.6447 65.2812 31.6163C66.189 31.0635 66.648 30.2328 66.807 29.2471C66.9913 28.1067 66.8372 27.0097 66.1079 26.0556C65.8728 25.7674 65.5918 25.5169 65.2754 25.3132C64.9477 25.089 64.7223 24.8394 64.6478 24.4445C64.5146 23.7878 64.2651 23.1581 63.9103 22.5831C63.8578 22.4907 63.8078 22.3959 63.7422 22.2853Z" fill="white"/>
<path d="M125.021 29.1107C124.986 28.6518 124.932 28.2041 124.921 27.7555C124.891 26.4783 124.869 25.2004 124.862 23.9234C124.85 21.5595 124.85 19.1965 124.846 16.8326C124.846 16.1708 125.121 15.9054 125.803 15.9054H127.807C128.444 15.9054 128.74 16.1929 128.74 16.8137C128.74 18.8598 128.74 20.9061 128.74 22.9527V32.8749C128.74 32.9578 128.74 33.0415 128.74 33.1251C128.716 33.6426 128.4 33.9362 127.859 33.9379C126.914 33.9379 125.968 33.9268 125.023 33.9427C124.338 33.9544 123.834 33.6906 123.511 33.1142C123.164 32.4981 122.824 31.8789 122.485 31.2589C121.022 28.5965 119.547 25.9445 118.116 23.2647C117.682 22.4528 117.363 21.5824 117.01 20.7326C116.935 20.5518 116.862 20.4633 116.635 20.5478C116.673 20.994 116.717 21.4482 116.748 21.9031C116.778 22.358 116.806 22.8374 116.807 23.3042C116.812 26.5282 116.812 29.752 116.807 32.976C116.807 33.6789 116.535 33.9387 115.801 33.9387C115.124 33.9387 114.448 33.9387 113.772 33.9387C113.198 33.9387 112.891 33.6346 112.891 33.0825C112.891 27.8288 112.891 22.5755 112.891 17.3223C112.891 16.388 113.368 15.9197 114.343 15.9086C115.133 15.8991 115.922 15.9086 116.711 15.9086C117.217 15.9086 117.642 16.08 117.904 16.4978C118.284 17.1035 118.642 17.7251 118.983 18.3506C120.385 20.9009 121.791 23.4495 123.171 26.0115C123.68 26.9593 124.127 27.9363 124.584 28.9077C124.678 29.0981 124.775 29.1881 125.021 29.1107Z" fill="white"/>
<path d="M157.599 23.332H157.237C157.135 24.0002 157.056 24.6628 156.93 25.3168C156.579 27.1332 156.207 28.9497 155.843 30.7663C155.71 31.4289 155.576 32.0922 155.448 32.7565C155.314 33.453 154.774 33.9174 154.038 33.9261C153.016 33.938 151.99 33.9364 150.969 33.9261C150.268 33.919 149.801 33.5486 149.619 32.8994C148.621 29.3159 147.622 25.7339 146.622 22.1537C146.425 21.4468 146.755 21.0266 147.51 21.0258C148.212 21.0258 148.914 21.0258 149.617 21.0258C150.108 21.0258 150.399 21.2525 150.499 21.7106C151.1 24.4601 151.7 27.2101 152.298 29.9606C152.393 30.4006 152.434 30.8515 152.492 31.2986C152.509 31.4289 152.531 31.5141 152.704 31.5141C152.876 31.5141 152.894 31.4352 152.919 31.3017C153.356 29.0223 153.797 26.7438 154.242 24.4661C154.383 23.7364 154.541 23.0098 154.683 22.28C154.852 21.4184 155.339 21.0258 156.24 21.0251C157.047 21.0251 157.853 21.0251 158.659 21.0251C159.434 21.0251 159.964 21.4381 160.11 22.1679C160.644 24.8463 161.174 27.525 161.699 30.2039C161.77 30.564 161.839 30.925 161.904 31.2867C161.925 31.4043 161.926 31.5118 162.107 31.5133C162.288 31.515 162.305 31.4249 162.325 31.2993C162.415 30.7133 162.488 30.125 162.607 29.5436C162.82 28.4798 163.055 27.4191 163.287 26.3593C163.623 24.8254 163.965 23.2933 164.303 21.7596C164.415 21.247 164.684 21.0258 165.219 21.0251C165.938 21.0251 166.658 21.0251 167.378 21.0251C168.02 21.0251 168.372 21.4594 168.207 22.0518C167.202 25.6942 166.191 29.3349 165.175 32.9737C165.011 33.5517 164.527 33.9214 163.864 33.927C162.815 33.9421 161.765 33.9421 160.716 33.927C160.011 33.9166 159.487 33.4751 159.352 32.8054C158.853 30.3572 158.349 27.9135 157.872 25.4605C157.742 24.7694 157.692 24.0586 157.599 23.332Z" fill="white"/>
<path d="M81.1119 24.9034C81.1119 22.1886 81.1119 19.4744 81.1119 16.7607C81.1119 16.1549 81.3676 15.8753 81.9944 15.8556C84.1249 15.7869 86.2556 15.7087 88.3861 15.6818C89.4553 15.6624 90.519 15.8335 91.5237 16.1865C93.1847 16.7765 94.1459 17.9722 94.6704 19.5526C95.0613 20.7372 95.2137 21.9654 95.2808 23.1998C95.3842 25.0788 95.3572 26.9552 95.035 28.8184C94.8597 29.8277 94.577 30.8055 94.023 31.6907C93.2119 32.9861 91.9638 33.6471 90.4658 33.9449C89.1465 34.2078 87.8117 34.1976 86.4776 34.1597C84.9789 34.1163 83.4801 34.0507 81.9822 33.9938C81.4086 33.9725 81.1094 33.6724 81.1094 33.1211C81.1105 30.3816 81.1113 27.6424 81.1119 24.9034ZM83.8095 24.9034V26.8328C83.8095 28.2545 83.8095 29.6742 83.8095 31.0922C83.8095 31.5811 84.1103 31.9348 84.5732 31.9396C85.9508 31.9538 87.3322 31.9996 88.7065 31.9317C90.0807 31.8638 91.1706 31.2816 91.7507 30.0086C91.8844 29.7188 91.9941 29.4194 92.0785 29.1129C92.4268 27.8091 92.4882 26.4742 92.4939 25.1371C92.5021 23.6508 92.4678 22.1644 92.0785 20.7143C91.877 19.9601 91.5589 19.2603 90.9428 18.7256C90.2667 18.138 89.4342 17.8972 88.5558 17.8687C87.3175 17.8284 86.0761 17.8837 84.8379 17.8521C84.1332 17.8348 83.7988 18.2344 83.8053 18.8662C83.8235 20.877 83.8095 22.8902 83.8095 24.9034Z" fill="white"/>
<path d="M139.105 28.6297C138.402 28.6297 137.7 28.6297 136.998 28.6297C136.319 28.6297 135.966 29.1367 136.195 29.7527C136.534 30.664 137.27 31.0652 138.204 31.1331C139.042 31.1865 139.883 31.1974 140.722 31.1654C141.623 31.1394 142.525 31.0565 143.42 30.9973C143.885 30.9673 144.217 31.1797 144.322 31.6188C144.41 32.0014 144.475 32.3885 144.518 32.7781C144.559 33.1398 144.34 33.417 143.952 33.5512C143.008 33.8774 142.025 34.0321 141.034 34.1334C139.809 34.2701 138.574 34.2896 137.346 34.1917C136.462 34.1127 135.599 33.9548 134.779 33.6074C133.356 33.0079 132.455 31.9631 132.068 30.5352C131.483 28.4342 131.505 26.2191 132.13 24.129C132.649 22.3868 133.916 21.3831 135.724 20.9779C137.14 20.662 138.575 20.6376 140.015 20.7473C140.891 20.8145 141.751 20.9606 142.564 21.3002C143.937 21.8688 144.704 22.8922 144.877 24.3011C144.953 24.8973 144.948 25.5006 144.86 26.0954C144.65 27.449 143.842 28.2167 142.423 28.4764C141.92 28.5617 141.411 28.6118 140.901 28.6266C140.303 28.6502 139.703 28.6297 139.105 28.6297ZM138.266 26.4728V26.4358C138.872 26.4358 139.479 26.4611 140.084 26.4279C140.615 26.3987 140.889 26.1539 140.99 25.6492C141.046 25.3545 141.064 25.0542 141.043 24.7553C141.003 24.0958 140.648 23.6788 139.984 23.5272C139.103 23.3217 138.183 23.3347 137.309 23.5651C137.051 23.6251 136.813 23.7489 136.618 23.9243C136.424 24.0997 136.281 24.3207 136.202 24.5657C136.104 24.8592 136.029 25.159 135.976 25.4628C135.862 26.0694 136.216 26.4674 136.86 26.4722C137.329 26.4768 137.797 26.4745 138.266 26.4745V26.4728Z" fill="white"/>
<path d="M174.211 31.4322C175.208 31.4045 176.204 31.3808 177.2 31.3453C177.407 31.3348 177.613 31.3034 177.813 31.2513C178.305 31.1313 178.51 30.8809 178.542 30.4015C178.571 29.9458 178.4 29.6292 177.939 29.491C177.073 29.2312 176.192 29.0172 175.317 28.7865C174.397 28.5496 173.466 28.3483 172.559 28.0758C171.727 27.8255 170.963 27.4195 170.522 26.6542C170.309 26.2647 170.156 25.8477 170.066 25.4159C169.925 24.7511 169.918 24.0663 170.046 23.399C170.261 22.1607 171.056 21.4247 172.27 21.074C173.522 20.7107 174.815 20.642 176.106 20.6973C177.716 20.766 179.321 20.9106 180.928 21.0235C181.014 21.0323 181.1 21.0455 181.184 21.063C181.672 21.1514 181.928 21.487 181.872 21.9617C181.838 22.2428 181.809 22.5256 181.776 22.8075C181.718 23.3011 181.407 23.5704 180.889 23.5648C179.867 23.5546 178.841 23.5277 177.821 23.5277C176.801 23.5277 175.794 23.5498 174.78 23.5696C174.64 23.5792 174.503 23.6058 174.37 23.6485C174.074 23.7275 173.911 23.9194 173.854 24.2132C173.734 24.8371 173.915 25.2146 174.542 25.3931C175.571 25.6861 176.618 25.9158 177.656 26.1891C178.547 26.426 179.454 26.6298 180.317 26.9417C181.666 27.4289 182.345 28.4359 182.39 29.8116C182.413 30.3865 182.374 30.9619 182.275 31.5293C182.036 32.8631 181.122 33.5866 179.803 33.8986C178.485 34.2104 177.144 34.2341 175.798 34.2143C174.247 34.2004 172.697 34.0965 171.158 33.9032C170.476 33.8132 170.215 33.5265 170.283 32.8687C170.309 32.6191 170.327 32.3688 170.365 32.1215C170.435 31.6312 170.734 31.3942 171.249 31.395C172.237 31.395 173.226 31.395 174.214 31.395L174.211 31.4322Z" fill="white"/>
<path d="M59.1689 24.6457C60.1571 25.2293 61.1272 25.2396 62.0868 24.5383C62.2359 24.9822 62.1532 25.3802 61.923 25.7624C61.5036 26.4585 61.2794 27.2478 61.2724 28.0527C61.2654 28.8575 61.4757 29.6503 61.8827 30.3531C62.195 30.9059 62.1416 31.5077 61.7049 31.9784C61.2682 32.4491 60.8422 32.9648 60.3448 33.3865C58.6076 34.8633 56.3634 35.0687 54.3313 33.9891C53.423 33.5134 52.6138 32.8799 51.9444 32.1206C51.7381 31.8866 51.6137 31.5958 51.5887 31.2897C51.5637 30.9836 51.6394 30.6778 51.8051 30.4156C52.6901 29.0256 52.6876 27.5946 52.0247 26.132C51.9796 26.0325 51.9264 25.937 51.8748 25.8405C51.6093 25.3479 51.6183 24.8653 51.946 24.3646C52.3359 24.7868 52.876 25.0526 53.4595 25.1093C54.0511 25.1709 54.5853 25.0059 55.081 24.6876C55.2736 25.7933 56.3445 26.2575 57.3957 26.2055C58.3159 26.1589 58.9911 25.5832 59.1689 24.6457ZM56.8919 30.3429C57.3228 30.3341 57.7005 30.1612 58.0456 29.9094C58.593 29.5089 58.9862 28.9797 59.3263 28.4167C59.356 28.3521 59.3691 28.2814 59.3642 28.2109C59.3594 28.1403 59.3367 28.0718 59.2984 28.0116C59.2238 27.9279 59.0132 27.8932 58.8888 27.9247C57.5827 28.2445 56.2138 28.2407 54.9098 27.9137C54.7262 27.8694 54.582 27.9018 54.5083 28.0417C54.4493 28.1584 54.4083 28.3574 54.4722 28.446C54.7925 28.8978 55.144 29.3284 55.5243 29.7348C55.6974 29.9203 55.9081 30.0698 56.1432 30.1745C56.3783 30.279 56.6331 30.3363 56.8919 30.3429Z" fill="white"/>
<path d="M99.1671 23.7131V16.8246C99.1671 16.1928 99.4588 15.9084 100.116 15.9068C100.428 15.9068 100.74 15.9013 101.053 15.9068C101.259 15.9061 101.457 15.9831 101.605 16.1214C101.754 16.2596 101.84 16.4482 101.846 16.6469C101.852 16.7259 101.846 16.8143 101.846 16.8972C101.846 21.2648 101.846 25.6318 101.846 29.9982C101.84 30.1736 101.848 30.3493 101.87 30.5235C102.007 31.3686 102.546 31.7784 103.548 31.7815C105.514 31.7885 107.481 31.7885 109.448 31.7815C109.721 31.7815 109.964 31.8337 110.152 32.0367C110.398 32.3061 110.474 33.1646 110.271 33.4686C110.199 33.5834 110.096 33.6779 109.974 33.7428C109.852 33.8078 109.714 33.841 109.575 33.839C107.998 33.8769 106.421 33.9219 104.844 33.9496C104.038 33.9638 103.23 33.9764 102.426 33.9346C101.215 33.8745 100.19 33.4488 99.5972 32.3431C99.3028 31.7728 99.1556 31.1422 99.1678 30.5053C99.1657 28.2402 99.1654 25.9761 99.1671 23.7131Z" fill="white"/>
<path d="M125.021 29.1107C124.986 28.6518 124.932 28.2041 124.921 27.7555C124.891 26.4783 124.869 25.2004 124.862 23.9234C124.85 21.5595 124.85 19.1965 124.846 16.8326C124.846 16.1708 125.121 15.9054 125.803 15.9054H127.807C128.444 15.9054 128.74 16.1929 128.74 16.8137C128.74 18.8598 128.74 20.9061 128.74 22.9527V32.8749C128.74 32.9578 128.74 33.0415 128.74 33.1251C128.716 33.6426 128.4 33.9362 127.859 33.9379C126.914 33.9379 125.968 33.9268 125.023 33.9427C124.338 33.9544 123.834 33.6906 123.511 33.1142C123.164 32.4981 122.824 31.8789 122.485 31.2589C121.022 28.5965 119.547 25.9445 118.116 23.2647C117.682 22.4528 117.363 21.5824 117.01 20.7326C116.935 20.5518 116.862 20.4633 116.635 20.5478C116.673 20.994 116.717 21.4482 116.748 21.9031C116.778 22.358 116.806 22.8374 116.807 23.3042C116.812 26.5282 116.812 29.752 116.807 32.976C116.807 33.6789 116.535 33.9387 115.801 33.9387C115.124 33.9387 114.448 33.9387 113.772 33.9387C113.198 33.9387 112.891 33.6346 112.891 33.0825C112.891 27.8288 112.891 22.5755 112.891 17.3223C112.891 16.388 113.368 15.9197 114.343 15.9086C115.133 15.8991 115.922 15.9086 116.711 15.9086C117.217 15.9086 117.642 16.08 117.904 16.4978C118.284 17.1035 118.642 17.7251 118.983 18.3506C120.385 20.9009 121.791 23.4495 123.171 26.0115C123.68 26.9593 124.127 27.9363 124.584 28.9077C124.678 29.0981 124.775 29.1881 125.021 29.1107Z" fill="white"/>
<path d="M157.599 23.332H157.237C157.135 24.0002 157.056 24.6628 156.93 25.3168C156.579 27.1332 156.207 28.9497 155.843 30.7663C155.71 31.4289 155.576 32.0922 155.448 32.7565C155.314 33.453 154.774 33.9174 154.038 33.9261C153.016 33.938 151.99 33.9364 150.969 33.9261C150.268 33.919 149.801 33.5486 149.619 32.8994C148.621 29.3159 147.622 25.7339 146.622 22.1537C146.425 21.4468 146.755 21.0266 147.51 21.0258C148.212 21.0258 148.914 21.0258 149.617 21.0258C150.108 21.0258 150.399 21.2525 150.499 21.7106C151.1 24.4601 151.7 27.2101 152.298 29.9606C152.393 30.4006 152.434 30.8515 152.492 31.2986C152.509 31.4289 152.531 31.5141 152.704 31.5141C152.876 31.5141 152.894 31.4352 152.919 31.3017C153.356 29.0223 153.797 26.7438 154.242 24.4661C154.383 23.7364 154.541 23.0098 154.683 22.28C154.852 21.4184 155.339 21.0258 156.24 21.0251C157.047 21.0251 157.853 21.0251 158.659 21.0251C159.434 21.0251 159.964 21.4381 160.11 22.1679C160.644 24.8463 161.174 27.525 161.699 30.2039C161.77 30.564 161.839 30.925 161.904 31.2867C161.925 31.4043 161.926 31.5118 162.107 31.5133C162.288 31.515 162.305 31.4249 162.325 31.2993C162.415 30.7133 162.488 30.125 162.607 29.5436C162.82 28.4798 163.055 27.4191 163.287 26.3593C163.623 24.8254 163.965 23.2933 164.303 21.7596C164.415 21.247 164.684 21.0258 165.219 21.0251C165.938 21.0251 166.658 21.0251 167.378 21.0251C168.02 21.0251 168.372 21.4594 168.207 22.0518C167.202 25.6942 166.191 29.3349 165.175 32.9737C165.011 33.5517 164.527 33.9214 163.864 33.927C162.815 33.9421 161.765 33.9421 160.716 33.927C160.011 33.9166 159.487 33.4751 159.352 32.8054C158.853 30.3572 158.349 27.9135 157.872 25.4605C157.742 24.7694 157.692 24.0586 157.599 23.332Z" fill="white"/>
<path d="M81.1119 24.9034C81.1119 22.1886 81.1119 19.4744 81.1119 16.7607C81.1119 16.1549 81.3676 15.8753 81.9944 15.8556C84.1249 15.7869 86.2556 15.7087 88.3861 15.6818C89.4553 15.6624 90.519 15.8335 91.5237 16.1865C93.1847 16.7765 94.1459 17.9722 94.6704 19.5526C95.0613 20.7372 95.2137 21.9654 95.2808 23.1998C95.3842 25.0788 95.3572 26.9552 95.035 28.8184C94.8597 29.8277 94.577 30.8055 94.023 31.6907C93.2119 32.9861 91.9638 33.6471 90.4658 33.9449C89.1465 34.2078 87.8117 34.1976 86.4776 34.1597C84.9789 34.1163 83.4801 34.0507 81.9822 33.9938C81.4086 33.9725 81.1094 33.6724 81.1094 33.1211C81.1105 30.3816 81.1113 27.6424 81.1119 24.9034ZM83.8095 24.9034V26.8328C83.8095 28.2545 83.8095 29.6742 83.8095 31.0922C83.8095 31.5811 84.1103 31.9348 84.5732 31.9396C85.9508 31.9538 87.3322 31.9996 88.7065 31.9317C90.0807 31.8638 91.1706 31.2816 91.7507 30.0086C91.8844 29.7188 91.9941 29.4194 92.0785 29.1129C92.4268 27.8091 92.4882 26.4742 92.4939 25.1371C92.5021 23.6508 92.4678 22.1644 92.0785 20.7143C91.877 19.9601 91.5589 19.2603 90.9428 18.7256C90.2667 18.138 89.4342 17.8972 88.5558 17.8687C87.3175 17.8284 86.0761 17.8837 84.8379 17.8521C84.1332 17.8348 83.7988 18.2344 83.8053 18.8662C83.8235 20.877 83.8095 22.8902 83.8095 24.9034Z" fill="white"/>
<path d="M139.105 28.6297C138.402 28.6297 137.7 28.6297 136.998 28.6297C136.319 28.6297 135.966 29.1367 136.195 29.7527C136.534 30.664 137.27 31.0652 138.204 31.1331C139.042 31.1865 139.883 31.1974 140.722 31.1654C141.623 31.1394 142.525 31.0565 143.42 30.9973C143.885 30.9673 144.217 31.1797 144.322 31.6188C144.41 32.0014 144.475 32.3885 144.518 32.7781C144.559 33.1398 144.34 33.417 143.952 33.5512C143.008 33.8774 142.025 34.0321 141.034 34.1334C139.809 34.2701 138.574 34.2896 137.346 34.1917C136.462 34.1127 135.599 33.9548 134.779 33.6074C133.356 33.0079 132.455 31.9631 132.068 30.5352C131.483 28.4342 131.505 26.2191 132.13 24.129C132.649 22.3868 133.916 21.3831 135.724 20.9779C137.14 20.662 138.575 20.6376 140.015 20.7473C140.891 20.8145 141.751 20.9606 142.564 21.3002C143.937 21.8688 144.704 22.8922 144.877 24.3011C144.953 24.8973 144.948 25.5006 144.86 26.0954C144.65 27.449 143.842 28.2167 142.423 28.4764C141.92 28.5617 141.411 28.6118 140.901 28.6266C140.303 28.6502 139.703 28.6297 139.105 28.6297ZM138.266 26.4728V26.4358C138.872 26.4358 139.479 26.4611 140.084 26.4279C140.615 26.3987 140.889 26.1539 140.99 25.6492C141.046 25.3545 141.064 25.0542 141.043 24.7553C141.003 24.0958 140.648 23.6788 139.984 23.5272C139.103 23.3217 138.183 23.3347 137.309 23.5651C137.051 23.6251 136.813 23.7489 136.618 23.9243C136.424 24.0997 136.281 24.3207 136.202 24.5657C136.104 24.8592 136.029 25.159 135.976 25.4628C135.862 26.0694 136.216 26.4674 136.86 26.4722C137.329 26.4768 137.797 26.4745 138.266 26.4745V26.4728Z" fill="white"/>
<path d="M174.211 31.4322C175.208 31.4045 176.204 31.3808 177.2 31.3453C177.407 31.3348 177.613 31.3034 177.813 31.2513C178.305 31.1313 178.51 30.8809 178.542 30.4015C178.571 29.9458 178.4 29.6292 177.939 29.491C177.073 29.2312 176.192 29.0172 175.317 28.7865C174.397 28.5496 173.466 28.3483 172.559 28.0758C171.727 27.8255 170.963 27.4195 170.522 26.6542C170.309 26.2647 170.156 25.8477 170.066 25.4159C169.925 24.7511 169.918 24.0663 170.046 23.399C170.261 22.1607 171.056 21.4247 172.27 21.074C173.522 20.7107 174.815 20.642 176.106 20.6973C177.716 20.766 179.321 20.9106 180.928 21.0235C181.014 21.0323 181.1 21.0455 181.184 21.063C181.672 21.1514 181.928 21.487 181.872 21.9617C181.838 22.2428 181.809 22.5256 181.776 22.8075C181.718 23.3011 181.407 23.5704 180.889 23.5648C179.867 23.5546 178.841 23.5277 177.821 23.5277C176.801 23.5277 175.794 23.5498 174.78 23.5696C174.64 23.5792 174.503 23.6058 174.37 23.6485C174.074 23.7275 173.911 23.9194 173.854 24.2132C173.734 24.8371 173.915 25.2146 174.542 25.3931C175.571 25.6861 176.618 25.9158 177.656 26.1891C178.547 26.426 179.454 26.6298 180.317 26.9417C181.666 27.4289 182.345 28.4359 182.39 29.8116C182.413 30.3865 182.374 30.9619 182.275 31.5293C182.036 32.8631 181.122 33.5866 179.803 33.8986C178.485 34.2104 177.144 34.2341 175.798 34.2143C174.247 34.2004 172.697 34.0965 171.158 33.9032C170.476 33.8132 170.215 33.5265 170.283 32.8687C170.309 32.6191 170.327 32.3688 170.365 32.1215C170.435 31.6312 170.734 31.3942 171.249 31.395C172.237 31.395 173.226 31.395 174.214 31.395L174.211 31.4322Z" fill="white"/>
<path d="M63.7422 22.2853C64.3782 22.2063 64.778 21.8604 65.1124 21.3716C65.8359 20.3125 66.6315 19.2977 67.3321 18.2259C67.8147 17.4875 68.1967 16.6875 68.6056 15.9064C68.8456 15.4483 68.7514 14.9919 68.4023 14.7218C68.0294 14.4343 67.4059 14.4059 67.0502 14.7257C66.1776 15.5084 65.1468 16.0557 64.1249 16.6211C63.4923 16.9718 62.8999 17.3738 62.4386 17.9472C61.9904 17.1653 61.3241 16.708 60.4228 16.5793C60.3203 16.5625 60.216 16.5582 60.1122 16.5666C59.6075 16.6227 59.2289 16.4482 58.9315 16.0462C58.0424 14.845 56.397 14.6894 55.2793 15.694C55.1445 15.8236 55.0211 15.9638 54.9106 16.1133C54.6402 16.4592 54.3091 16.614 53.8371 16.5801C52.9358 16.5169 52.2319 16.9031 51.7001 17.5941C51.6591 17.6478 51.628 17.7079 51.5919 17.7647C51.5559 17.8216 51.519 17.8769 51.4682 17.9543C50.5545 16.8194 49.2009 16.2958 48.0201 15.5392C47.512 15.2071 47.0219 14.8501 46.5517 14.4698C46.1313 14.1365 45.6733 14.1831 45.3865 14.6278C45.2615 14.8139 45.1882 15.0279 45.1739 15.2492C45.1595 15.4706 45.2045 15.6917 45.3045 15.8914C45.947 17.3059 46.8073 18.594 47.7489 19.8402C48.1586 20.3867 48.5683 20.9388 48.9698 21.4924C49.2697 21.9047 49.6843 22.1361 50.1989 22.234C50.0817 22.4622 49.9531 22.6707 49.8621 22.8942C49.6589 23.4076 49.4647 23.9209 49.2885 24.4461C49.1738 24.7849 48.9976 25.0574 48.6691 25.2454C48.1153 25.5687 47.6867 26.0581 47.4489 26.6385C46.8753 27.9447 46.9024 29.2447 47.6046 30.498C47.7931 30.833 48.0963 31.1172 48.3823 31.3897C48.6281 31.6203 48.7789 31.8588 48.7772 32.1954C48.7715 33.4732 48.7772 34.7502 48.7772 36.028C48.7835 36.6423 48.592 37.2433 48.2291 37.7483C47.8661 38.2531 47.3497 38.6372 46.7508 38.8474C46.1575 39.0702 45.5077 39.1124 44.8888 38.9682C44.2699 38.8241 43.7118 38.5005 43.2896 38.0411C42.1752 36.832 41.6016 35.4318 41.6016 33.7985C41.6136 28.2876 41.6152 22.776 41.6065 17.264C41.6065 14.1468 43.7796 11.5856 46.9597 10.9751C47.3684 10.9005 47.7836 10.864 48.1995 10.8661C54.0447 10.8593 59.8899 10.8593 65.7351 10.8661C67.3283 10.8602 68.8697 11.4108 70.074 12.416C71.2783 13.4213 72.0641 14.8131 72.2856 16.3337C72.3244 16.6138 72.343 16.8961 72.3413 17.1787C72.3446 22.8239 72.3446 28.4692 72.3413 34.1144C72.3413 35.2714 72.1569 36.3953 71.5063 37.4015C70.5434 38.8917 68.4941 39.4691 66.9601 38.6762C66.0653 38.2132 65.636 37.4251 65.4434 36.509C65.1894 35.3007 65.2017 34.0694 65.1763 32.8429C65.1689 32.5088 65.1656 32.1747 65.1763 31.8406C65.1767 31.7984 65.1863 31.7566 65.2043 31.718C65.2225 31.6794 65.2485 31.6447 65.2812 31.6163C66.189 31.0635 66.648 30.2328 66.807 29.2471C66.9913 28.1067 66.8372 27.0097 66.1079 26.0556C65.8728 25.7674 65.5918 25.5169 65.2754 25.3132C64.9477 25.089 64.7223 24.8394 64.6478 24.4445C64.5146 23.7878 64.2651 23.1581 63.9103 22.5831C63.8578 22.4907 63.8078 22.3959 63.7422 22.2853Z" fill="white"/>
<path d="M59.1689 24.6457C60.1571 25.2293 61.1272 25.2396 62.0868 24.5383C62.2359 24.9822 62.1532 25.3802 61.923 25.7624C61.5036 26.4585 61.2794 27.2478 61.2724 28.0527C61.2654 28.8575 61.4757 29.6503 61.8827 30.3531C62.195 30.9059 62.1416 31.5077 61.7049 31.9784C61.2682 32.4491 60.8422 32.9648 60.3448 33.3865C58.6076 34.8633 56.3634 35.0687 54.3313 33.9891C53.423 33.5134 52.6138 32.8799 51.9444 32.1206C51.7381 31.8866 51.6137 31.5958 51.5887 31.2897C51.5637 30.9836 51.6394 30.6778 51.8051 30.4156C52.6901 29.0256 52.6876 27.5946 52.0247 26.132C51.9796 26.0325 51.9264 25.937 51.8748 25.8405C51.6093 25.3479 51.6183 24.8653 51.946 24.3646C52.3359 24.7868 52.876 25.0526 53.4595 25.1093C54.0511 25.1709 54.5853 25.0059 55.081 24.6876C55.2736 25.7933 56.3445 26.2575 57.3957 26.2055C58.3159 26.1589 58.9911 25.5832 59.1689 24.6457ZM56.8919 30.3429C57.3228 30.3341 57.7005 30.1612 58.0456 29.9094C58.593 29.5089 58.9862 28.9797 59.3263 28.4167C59.356 28.3521 59.3691 28.2814 59.3642 28.2109C59.3594 28.1403 59.3367 28.0718 59.2984 28.0116C59.2238 27.9279 59.0132 27.8932 58.8888 27.9247C57.5827 28.2445 56.2138 28.2407 54.9098 27.9137C54.7262 27.8694 54.582 27.9018 54.5083 28.0417C54.4493 28.1584 54.4083 28.3574 54.4722 28.446C54.7925 28.8978 55.144 29.3284 55.5243 29.7348C55.6974 29.9203 55.9081 30.0698 56.1432 30.1745C56.3783 30.279 56.6331 30.3363 56.8919 30.3429Z" fill="white"/>
<path d="M99.1671 23.7131V16.8246C99.1671 16.1928 99.4588 15.9084 100.116 15.9068C100.428 15.9068 100.74 15.9013 101.053 15.9068C101.259 15.9061 101.457 15.9831 101.605 16.1214C101.754 16.2596 101.84 16.4482 101.846 16.6469C101.852 16.7259 101.846 16.8143 101.846 16.8972C101.846 21.2648 101.846 25.6318 101.846 29.9982C101.84 30.1736 101.848 30.3493 101.87 30.5235C102.007 31.3686 102.546 31.7784 103.548 31.7815C105.514 31.7885 107.481 31.7885 109.448 31.7815C109.721 31.7815 109.964 31.8337 110.152 32.0367C110.398 32.3061 110.474 33.1646 110.271 33.4686C110.199 33.5834 110.096 33.6779 109.974 33.7428C109.852 33.8078 109.714 33.841 109.575 33.839C107.998 33.8769 106.421 33.9219 104.844 33.9496C104.038 33.9638 103.23 33.9764 102.426 33.9346C101.215 33.8745 100.19 33.4488 99.5972 32.3431C99.3028 31.7728 99.1556 31.1422 99.1678 30.5053C99.1657 28.2402 99.1654 25.9761 99.1671 23.7131Z" fill="white"/>
</g>
</g>
<defs>
<clipPath id="clip0_3281_3196">
<rect width="140.795" height="28.2756" fill="white" transform="translate(41.6016 10.8622)"/>
</clipPath>
</defs>
</svg>
