<svg width="426" height="148" viewBox="0 0 426 148" fill="none" xmlns="http://www.w3.org/2000/svg">
<path d="M99.6927 48.9343C109.797 41.7925 119.35 35.0431 129.248 28.041C131.37 31.0799 133.273 33.8794 135.261 36.6257C136.552 38.4012 135.967 39.5184 134.317 40.6554C127.405 45.4366 120.554 50.2908 113.689 55.1384C113.13 55.5308 112.698 56.1026 112.558 57.3262C122.05 54.7594 131.543 52.1926 141.554 49.4862C142.758 54.1676 143.896 58.5963 145.127 63.3641C136.266 65.8245 127.791 68.1785 119.316 70.5324C119.376 70.8849 119.43 71.2373 119.489 71.5964C128.037 72.3212 136.585 73.0394 145.885 73.8307C145.419 78.9709 144.96 84.0446 144.481 89.3244C137.989 88.819 131.955 88.3469 125.922 87.8748C125.782 88.2206 125.636 88.5597 125.496 88.9055C130.884 91.4856 136.273 94.0656 142.053 96.8319C138.448 108.695 131.789 118.59 122.855 127.507C106.099 110.756 89.4618 94.1255 72.6719 77.3417L77.3816 72.6337C85.3508 80.6 93.3732 88.6195 101.722 96.9649C107.795 89.4308 110.123 81.2584 109.717 72.3079C109.312 63.3907 105.706 55.6571 99.6927 48.921V48.9343Z" fill="white"/>
<path d="M89.9922 41.4871C96.8638 31.5724 103.562 21.8905 110.547 11.8096C113.767 14.1569 116.847 16.3978 120.199 18.8316C113.228 28.8992 106.476 38.6477 99.6843 48.4626C96.3849 46.082 93.3648 43.9142 89.9988 41.4871H89.9922Z" fill="white"/>
<path d="M78.2188 37.9572C81.2654 26.3468 84.2921 14.8163 87.4319 2.85352C90.8178 3.79777 94.1638 4.73537 97.8092 5.75277C94.7093 17.5892 91.6893 29.0931 88.616 40.8232C85.1902 39.8789 81.9572 38.9879 78.2188 37.9572Z" fill="white"/>
<path d="M75.5691 37.7563C72.1899 37.9757 69.3361 38.1619 66.0433 38.3814C64.9258 26.3721 63.8082 14.3428 62.6641 2.06749C65.877 1.80151 68.8239 1.55547 72.1766 1.26953C73.3141 13.5116 74.4316 25.5342 75.5691 37.7496V37.7563Z" fill="white"/>
<path d="M39.0391 9.6019C41.7332 8.38501 44.0281 7.35431 46.6025 6.19727C51.8776 17.3421 57.0397 28.2542 62.3015 39.3725C59.787 40.483 57.4188 41.5336 54.7048 42.7306C49.5427 31.8118 44.3874 20.913 39.0391 9.6019Z" fill="white"/>
<path d="M50.1868 45.7301L45.5237 50.3916C36.9492 41.8201 28.4744 33.3485 19.7734 24.6507C21.2236 23.2011 22.7203 21.7049 24.4366 19.9893C33.0111 28.5607 41.4926 37.039 50.1868 45.7301Z" fill="white"/>
<path d="M5.74219 45.4972C6.5737 43.7484 7.31873 42.1857 8.26998 40.2041C19.5386 45.3709 30.5878 50.4446 41.7966 55.5848C40.9318 57.4135 40.2001 58.9695 39.2887 60.8912C28.0799 55.751 17.0108 50.6707 5.74219 45.4972Z" fill="white"/>
<path d="M37.277 80.5205C37.6761 82.2228 37.9755 83.5062 38.348 85.1154C26.5339 88.3538 14.7663 91.5856 2.76591 94.8772C2.32687 93.3411 1.9477 92.0045 1.46875 90.3421C13.4492 87.0571 25.2367 83.8254 37.2704 80.5205H37.277Z" fill="white"/>
<path d="M36.7728 72.6476C24.4997 71.6435 12.4062 70.6593 0 69.6486C0.106434 68.0128 0.192911 66.6363 0.305997 64.9473C12.7188 65.958 24.8922 66.9488 37.2717 67.9596C37.0855 69.7018 36.9391 71.0783 36.7728 72.6476Z" fill="white"/>
<path d="M54.9762 145.049C53.7589 144.736 52.8342 144.497 51.5703 144.171C54.6635 132.388 57.7036 120.791 60.8167 108.928C61.9609 109.167 62.8722 109.353 64.2559 109.646C61.1626 121.449 58.1226 133.046 54.9762 145.049Z" fill="white"/>
<path d="M76.8428 110.804C77.9603 122.846 79.0579 134.703 80.1888 146.898C79.0513 146.985 78.0401 147.064 76.6964 147.164C75.5656 134.955 74.468 123.039 73.3438 110.897C74.6808 110.864 75.7385 110.83 76.8494 110.804H76.8428Z" fill="white"/>
<path d="M31.9604 134.55C29.9847 133.852 28.6011 133.134 30.1044 130.98C36.6567 121.604 43.1958 112.221 49.8545 102.672C50.7725 103.197 51.5974 103.669 52.8214 104.368C45.8367 114.468 38.9717 124.396 31.9604 134.544V134.55Z" fill="white"/>
<path d="M41.7249 92.9551C42.4766 94.0456 43.0154 94.8303 43.6873 95.8144C33.596 102.956 23.6977 109.965 13.6065 117.107C12.9812 116.189 12.449 115.411 11.6641 114.254C21.6555 107.172 31.5339 100.17 41.7249 92.9551Z" fill="white"/>
<path d="M84.3121 73.786C84.3121 79.7926 79.4607 84.6619 73.4763 84.6619C67.4919 84.6619 62.6406 79.7926 62.6406 73.786C62.6406 67.7794 67.4919 62.9102 73.4763 62.9102C79.4607 62.9102 84.3121 67.7794 84.3121 73.786Z" fill="white"/>
<path d="M388.37 100.005V83.943L374.641 62.1035H379.941L390.808 80.1264H390.914L401.94 62.1035H407.029L393.141 84.049V100.005H388.37Z" fill="white"/>
<path d="M344.523 66.2912V62.1035H374.526V66.2912H361.91V100.005H357.139V66.2912H344.523Z" fill="white"/>
<path d="M337.078 100.005V62.1035H341.849V100.005H337.078Z" fill="white"/>
<path d="M304.406 100.005V62.1035H322.111C325.433 62.1035 328.119 63.0577 330.168 64.966C332.253 66.8743 333.296 69.3833 333.296 72.4932C333.296 77.3346 331.105 80.4621 326.723 81.8757V82.0347C328.596 82.7061 329.921 83.7663 330.698 85.2152C331.511 86.6287 332.006 88.7844 332.183 91.6822C332.536 96.5236 333.119 99.2271 333.932 99.7925V100.005H328.79C328.401 99.6865 328.119 99.015 327.942 97.9902C327.801 96.9654 327.624 94.8097 327.412 91.5232C327.235 88.7667 326.546 86.8231 325.345 85.6923C324.178 84.5614 322.305 83.996 319.726 83.996H309.177V100.005H304.406ZM309.177 66.2382V80.1264H320.415C323.03 80.1264 325.009 79.5256 326.352 78.3241C327.695 77.0872 328.366 75.3733 328.366 73.1823C328.366 70.8146 327.765 69.0653 326.564 67.9344C325.362 66.8036 323.401 66.2382 320.68 66.2382H309.177Z" fill="white"/>
<path d="M285.524 100.588C281.107 100.588 277.573 99.5451 274.923 97.4601C272.308 95.3751 271 92.1416 271 87.7596V62.1035H275.771V87.2825C275.771 93.4315 279.075 96.506 285.683 96.506C292.08 96.506 295.278 93.4315 295.278 87.2825V62.1035H300.049V87.7596C300.049 92.1063 298.706 95.3398 296.02 97.4601C293.37 99.5451 289.871 100.588 285.524 100.588Z" fill="white"/>
<path d="M252.5 100.746C247.164 100.746 242.87 98.9085 239.619 95.2333C236.368 91.558 234.742 86.8226 234.742 81.027C234.742 75.3021 236.35 70.5844 239.566 66.8738C242.817 63.1278 247.199 61.2549 252.712 61.2549C257.023 61.2549 260.504 62.3681 263.155 64.5944C265.805 66.8208 267.395 69.7362 267.925 73.3408H263.261C262.801 70.9378 261.635 69.0118 259.762 67.5629C257.925 66.114 255.539 65.3895 252.606 65.3895C248.542 65.3895 245.362 66.8561 243.065 69.7892C240.767 72.687 239.619 76.433 239.619 81.027C239.619 85.6918 240.803 89.4554 243.171 92.3178C245.574 95.1449 248.736 96.5585 252.659 96.5585C256.052 96.5585 258.667 95.569 260.504 93.59C262.377 91.611 263.437 89.1196 263.685 86.1158H268.403C268.367 87.9888 267.925 89.9148 267.077 91.8938C266.265 93.8374 265.187 95.463 263.844 96.7705C261.123 99.421 257.341 100.746 252.5 100.746Z" fill="white"/>
<path d="M206.094 100.005V62.1035H232.863V66.2912H210.865V78.2711H230.849V82.2997H210.865V95.6048H233.499V100.005H206.094Z" fill="white"/>
<path d="M188.816 100.746C183.727 100.746 179.805 99.4911 177.048 96.982C174.327 94.4729 172.86 91.2041 172.648 87.1755H177.313C177.949 93.6778 181.854 96.929 189.028 96.929C191.749 96.929 193.922 96.3282 195.548 95.1267C197.209 93.8899 198.039 92.1229 198.039 89.8259C198.039 88.801 197.845 87.8999 197.456 87.1224C197.068 86.345 196.591 85.7089 196.025 85.2141C195.495 84.7194 194.682 84.26 193.587 83.8359C192.491 83.4119 191.466 83.0761 190.512 82.8288C189.593 82.5814 188.321 82.281 186.696 81.9276C184.752 81.5035 183.144 81.0795 181.872 80.6554C180.6 80.196 179.327 79.5776 178.055 78.8001C176.783 78.0227 175.829 77.0332 175.193 75.8316C174.592 74.5948 174.292 73.1105 174.292 71.3789C174.292 68.2691 175.458 65.8307 177.79 64.0638C180.158 62.2615 183.285 61.3604 187.173 61.3604C195.689 61.3604 200.478 65.3006 201.538 73.1812H197.032C196.679 70.4955 195.672 68.4811 194.011 67.1383C192.35 65.7601 190.106 65.0709 187.279 65.0709C184.664 65.0709 182.579 65.601 181.024 66.6612C179.504 67.7214 178.744 69.2233 178.744 71.1669C178.744 72.015 178.903 72.7748 179.221 73.4463C179.575 74.0824 180.017 74.6301 180.547 75.0895C181.112 75.5136 181.837 75.9023 182.72 76.2557C183.639 76.6091 184.54 76.9095 185.423 77.1569C186.307 77.3689 187.385 77.5986 188.657 77.846C190.424 78.1994 191.873 78.5351 193.004 78.8531C194.135 79.1358 195.389 79.5776 196.767 80.1783C198.145 80.7791 199.206 81.4682 199.948 82.2457C200.725 83.0231 201.379 84.048 201.909 85.3202C202.475 86.557 202.757 88.0059 202.757 89.6668C202.757 93.1301 201.467 95.8512 198.888 97.8301C196.343 99.7738 192.986 100.746 188.816 100.746Z" fill="white"/>
<path d="M375.203 51.2399V13.3389H381.299L393.597 44.8259H393.703L405.895 13.3389H412.097V51.2399H407.538V20.0709H407.432C406.761 22.0499 406.195 23.6402 405.736 24.8417L395.346 51.2399H391.689L381.299 24.8417L379.603 20.0709H379.497V51.2399H375.203Z" fill="white"/>
<path d="M356.321 51.823C351.904 51.823 348.37 50.7805 345.719 48.6955C343.104 46.6105 341.797 43.377 341.797 38.9949V13.3389H346.568V38.5179C346.568 44.6668 349.872 47.7413 356.48 47.7413C362.877 47.7413 366.075 44.6668 366.075 38.5179V13.3389H370.845V38.9949C370.845 43.3416 369.503 46.5751 366.817 48.6955C364.166 50.7805 360.668 51.823 356.321 51.823Z" fill="white"/>
<path d="M309.812 17.5265V13.3389H339.815V17.5265H327.199V51.2399H322.429V17.5265H309.812Z" fill="white"/>
<path d="M277.57 51.2399V13.3389H282.606L299.887 39.6841L302.643 44.5608H302.749V13.3389H307.202V51.2399H302.325L284.938 24.8417L282.129 20.1239H282.023V51.2399H277.57Z" fill="white"/>
<path d="M242.289 51.2399L256.23 13.3389H261.584L275.578 51.2399H270.384L266.355 39.6841H251.247L247.166 51.2399H242.289ZM257.131 23.0924L252.626 35.8144H265.03L260.683 23.0924L258.987 17.7386H258.881C258.209 19.8589 257.626 21.6435 257.131 23.0924Z" fill="white"/>
<path d="M227.212 51.823C222.794 51.823 219.261 50.7805 216.61 48.6955C213.995 46.6105 212.688 43.377 212.688 38.9949V13.3389H217.458V38.5179C217.458 44.6668 220.762 47.7413 227.371 47.7413C233.767 47.7413 236.965 44.6668 236.965 38.5179V13.3389H241.736V38.9949C241.736 43.3416 240.393 46.5751 237.707 48.6955C235.057 50.7805 231.558 51.823 227.212 51.823Z" fill="white"/>
<path d="M206.468 54.4199L200.584 49.7552C197.863 51.2747 194.735 52.0345 191.201 52.0345C185.582 52.0345 181.077 50.1792 177.684 46.4686C174.327 42.758 172.648 38.0226 172.648 32.2624C172.648 26.5021 174.327 21.7667 177.684 18.0561C181.077 14.3455 185.582 12.4902 191.201 12.4902C196.82 12.4902 201.308 14.3455 204.666 18.0561C208.058 21.7667 209.754 26.5021 209.754 32.2624C209.754 38.588 207.793 43.6062 203.87 47.3168L208.906 51.3454L206.468 54.4199ZM191.201 47.8469C193.286 47.8469 195.177 47.4935 196.873 46.7867L193.057 43.7122L195.495 40.6377L200.319 44.5073C203.358 41.6449 204.878 37.5632 204.878 32.2624C204.878 27.6683 203.676 23.9224 201.273 21.0246C198.87 18.0915 195.513 16.6249 191.201 16.6249C186.89 16.6249 183.533 18.0915 181.13 21.0246C178.727 23.9224 177.525 27.6683 177.525 32.2624C177.525 36.8564 178.727 40.6024 181.13 43.5002C183.533 46.398 186.89 47.8469 191.201 47.8469Z" fill="white"/>
<path d="M420.476 8.23596e-07C423.526 0.00165034 426.004 2.49078 426 5.5494C425.995 8.58741 423.507 11.0642 420.461 11.0621C417.411 11.0605 414.933 8.57132 414.938 5.5127C414.942 2.47469 417.43 -0.0016487 420.476 8.23596e-07ZM420.457 9.98249C422.917 9.98662 424.912 8.00595 424.92 5.55229C424.927 3.08172 422.943 1.08374 420.479 1.07961C418.019 1.07549 416.025 3.05615 416.017 5.50981C416.01 7.98038 417.993 9.97837 420.457 9.98249Z" fill="white"/>
<path d="M421.527 5.71434C421.947 5.93455 422.143 6.28425 422.267 6.67972C422.447 7.25664 422.542 7.85665 422.745 8.4278C422.782 8.53295 422.744 8.58656 422.633 8.58656C422.337 8.58698 422.042 8.58656 421.747 8.58656C421.593 8.58656 421.556 8.46945 421.525 8.35646C421.412 7.93871 421.305 7.51974 421.195 7.10117C421.174 7.02158 421.157 6.94034 421.132 6.86199C420.966 6.33167 420.691 6.12136 420.134 6.11929C419.561 6.11723 419.645 6.05043 419.641 6.60838C419.637 7.1853 419.635 7.76263 419.642 8.33955C419.644 8.52594 419.575 8.60017 419.388 8.5911C419.161 8.58038 418.934 8.58327 418.708 8.58986C418.55 8.5944 418.482 8.52924 418.484 8.37171C418.489 8.11769 418.485 7.86325 418.484 7.60922C418.484 6.0496 418.484 4.48998 418.484 2.93036C418.484 2.60128 418.5 2.58932 418.826 2.55468C419.627 2.47055 420.427 2.4054 421.225 2.57983C421.985 2.74602 422.456 3.21985 422.56 3.93574C422.662 4.64009 422.338 5.26154 421.678 5.62856C421.637 5.65124 421.596 5.67434 421.525 5.71351L421.527 5.71434ZM419.641 4.31884C419.641 4.56544 419.64 4.81246 419.642 5.05906C419.642 5.13577 419.645 5.23103 419.744 5.23268C420.179 5.24134 420.628 5.31969 421.023 5.05535C421.315 4.86071 421.45 4.57905 421.426 4.22977C421.401 3.85368 421.226 3.58398 420.857 3.45367C420.496 3.32583 420.129 3.35016 419.76 3.39511C419.647 3.40872 419.642 3.49284 419.641 3.57821C419.64 3.82481 419.641 4.07182 419.641 4.31843V4.31884Z" fill="white"/>
<path d="M395.948 130.652V121.116L387.797 108.15H390.944L397.396 118.851H397.459L404.005 108.15H407.026L398.78 121.179V130.652H395.948Z" fill="white"/>
<path d="M371.016 130.652L379.293 108.15H382.471L390.779 130.652H387.695L385.304 123.792H376.334L373.911 130.652H371.016ZM379.828 113.941L377.153 121.494H384.517L381.936 113.941L380.929 110.762H380.866C380.467 112.021 380.121 113.081 379.828 113.941Z" fill="white"/>
<path d="M353.664 130.652V108.15H361.847C365.141 108.15 367.627 109.168 369.305 111.203C370.984 113.238 371.823 115.997 371.823 119.48C371.823 122.942 370.952 125.669 369.211 127.662C367.469 129.656 364.941 130.652 361.626 130.652H353.664ZM356.496 128.166H361.532C366.462 128.166 368.928 125.271 368.928 119.48C368.928 113.563 366.536 110.605 361.752 110.605H356.496V128.166Z" fill="white"/>
<path d="M339.653 131.092C336.632 131.092 334.303 130.347 332.667 128.858C331.051 127.368 330.181 125.427 330.055 123.035H332.824C333.202 126.896 335.52 128.826 339.779 128.826C341.395 128.826 342.685 128.469 343.65 127.756C344.636 127.022 345.129 125.973 345.129 124.609C345.129 124.001 345.014 123.466 344.783 123.004C344.552 122.542 344.269 122.165 343.933 121.871C343.619 121.577 343.136 121.305 342.486 121.053C341.835 120.801 341.227 120.602 340.66 120.455C340.115 120.308 339.36 120.13 338.395 119.92C337.241 119.668 336.286 119.416 335.531 119.164C334.775 118.892 334.02 118.525 333.265 118.063C332.509 117.601 331.943 117.014 331.565 116.301C331.209 115.566 331.03 114.685 331.03 113.657C331.03 111.811 331.723 110.363 333.107 109.314C334.513 108.244 336.37 107.709 338.678 107.709C343.734 107.709 346.577 110.048 347.206 114.727H344.531C344.322 113.133 343.724 111.937 342.738 111.139C341.751 110.321 340.419 109.912 338.741 109.912C337.188 109.912 335.95 110.227 335.027 110.856C334.125 111.486 333.674 112.377 333.674 113.531C333.674 114.035 333.768 114.486 333.957 114.884C334.167 115.262 334.429 115.587 334.744 115.86C335.08 116.112 335.51 116.343 336.034 116.552C336.58 116.762 337.115 116.941 337.639 117.087C338.164 117.213 338.804 117.35 339.559 117.497C340.608 117.706 341.468 117.906 342.14 118.094C342.811 118.262 343.556 118.525 344.374 118.881C345.192 119.238 345.822 119.647 346.262 120.109C346.724 120.57 347.112 121.179 347.427 121.934C347.762 122.668 347.93 123.528 347.93 124.515C347.93 126.571 347.164 128.186 345.633 129.361C344.122 130.515 342.129 131.092 339.653 131.092Z" fill="white"/>
<path d="M321.208 131.092C318.187 131.092 315.858 130.347 314.221 128.858C312.606 127.368 311.735 125.427 311.609 123.035H314.379C314.756 126.896 317.075 128.826 321.334 128.826C322.949 128.826 324.24 128.469 325.205 127.756C326.191 127.022 326.684 125.973 326.684 124.609C326.684 124.001 326.569 123.466 326.338 123.004C326.107 122.542 325.824 122.165 325.488 121.871C325.173 121.577 324.691 121.305 324.04 121.053C323.39 120.801 322.782 120.602 322.215 120.455C321.67 120.308 320.914 120.13 319.949 119.92C318.795 119.668 317.841 119.416 317.085 119.164C316.33 118.892 315.575 118.525 314.819 118.063C314.064 117.601 313.498 117.014 313.12 116.301C312.763 115.566 312.585 114.685 312.585 113.657C312.585 111.811 313.277 110.363 314.662 109.314C316.068 108.244 317.925 107.709 320.232 107.709C325.289 107.709 328.132 110.048 328.761 114.727H326.086C325.876 113.133 325.278 111.937 324.292 111.139C323.306 110.321 321.974 109.912 320.295 109.912C318.743 109.912 317.505 110.227 316.582 110.856C315.68 111.486 315.229 112.377 315.229 113.531C315.229 114.035 315.323 114.486 315.512 114.884C315.722 115.262 315.984 115.587 316.299 115.86C316.634 116.112 317.064 116.343 317.589 116.552C318.134 116.762 318.669 116.941 319.194 117.087C319.718 117.213 320.358 117.35 321.114 117.497C322.163 117.706 323.023 117.906 323.694 118.094C324.366 118.262 325.11 118.525 325.929 118.881C326.747 119.238 327.376 119.647 327.817 120.109C328.279 120.57 328.667 121.179 328.981 121.934C329.317 122.668 329.485 123.528 329.485 124.515C329.485 126.571 328.719 128.186 327.188 129.361C325.677 130.515 323.684 131.092 321.208 131.092Z" fill="white"/>
<path d="M295.016 130.652V108.15H310.909V110.637H297.848V117.749H309.713V120.141H297.848V128.04H311.286V130.652H295.016Z" fill="white"/>
<path d="M274.453 130.652V108.15H277.443L287.702 123.792L289.339 126.687H289.402V108.15H292.045V130.652H289.15L278.828 114.98L277.16 112.179H277.097V130.652H274.453Z" fill="white"/>
<path d="M256.133 130.652V108.15H272.026V110.637H258.965V117.749H270.83V120.141H258.965V128.04H272.403V130.652H256.133Z" fill="white"/>
<path d="M236.805 130.652V108.15H247.316C249.288 108.15 250.883 108.717 252.1 109.85C253.338 110.983 253.956 112.472 253.956 114.319C253.956 117.193 252.656 119.05 250.054 119.889V119.984C251.166 120.382 251.953 121.012 252.414 121.872C252.897 122.711 253.191 123.991 253.296 125.711C253.505 128.586 253.852 130.191 254.334 130.526V130.652H251.281C251.051 130.463 250.883 130.065 250.778 129.456C250.694 128.848 250.589 127.568 250.463 125.617C250.358 123.98 249.949 122.826 249.236 122.155C248.543 121.484 247.431 121.148 245.9 121.148H239.637V130.652H236.805ZM239.637 110.605V118.851H246.309C247.862 118.851 249.036 118.494 249.834 117.781C250.631 117.046 251.03 116.029 251.03 114.728C251.03 113.322 250.673 112.284 249.96 111.612C249.246 110.941 248.082 110.605 246.466 110.605H239.637Z" fill="white"/>
<path d="M215.859 130.652L224.136 108.15H227.315L235.623 130.652H232.539L230.147 123.792H221.178L218.755 130.652H215.859ZM224.671 113.941L221.996 121.494H229.36L226.78 113.941L225.773 110.762H225.71C225.311 112.021 224.965 113.081 224.671 113.941Z" fill="white"/>
<path d="M196.025 130.652L190.203 108.15H193.161L196.718 122.784L197.567 126.592H197.63C197.987 124.998 198.302 123.708 198.574 122.722L202.634 108.15H205.687L209.621 122.722L210.533 126.592H210.596C210.953 124.977 211.247 123.708 211.478 122.784L215.223 108.15H218.087L211.824 130.652H209.117L204.995 114.791L204.176 111.36H204.113C203.799 112.766 203.515 113.91 203.264 114.791L198.858 130.652H196.025Z" fill="white"/>
<path d="M172.648 130.652L180.925 108.15H184.104L192.412 130.652H189.328L186.936 123.792H177.967L175.544 130.652H172.648ZM181.46 113.941L178.785 121.494H186.15L183.569 113.941L182.562 110.762H182.499C182.1 112.021 181.754 113.081 181.46 113.941Z" fill="white"/>
</svg>
