<svg width="224" height="50" viewBox="0 0 224 50" fill="none" xmlns="http://www.w3.org/2000/svg">
<g clip-path="url(#clip0_3281_3453)">
<path d="M117.551 39.8792C117.551 36.0714 117.551 32.2635 117.554 28.4566C117.554 27.7594 117.557 27.7565 118.239 27.7565C120.336 27.7575 122.434 27.7469 124.531 27.7671C126.309 27.7844 127.899 28.9805 128.335 30.5849C128.792 32.2693 128.211 33.8063 126.687 34.8252C126.367 35.039 126.353 35.1921 126.531 35.507C127.257 36.784 127.957 38.0755 128.667 39.3621C128.681 39.3881 128.711 39.4074 128.742 39.4382C128.921 39.3881 128.933 39.2061 128.991 39.0751C130.415 35.8624 131.833 32.6468 133.252 29.4322C133.446 28.994 133.657 28.5626 133.836 28.1186C133.951 27.8345 134.14 27.744 134.429 27.7526C134.874 27.7671 135.321 27.7863 135.763 27.7478C136.232 27.7074 136.478 27.8875 136.661 28.3247C137.221 29.6662 137.819 30.9913 138.406 32.3213C139.418 34.6162 140.433 36.9092 141.445 39.2042C141.54 39.4218 141.667 39.6308 141.673 39.8792H138.622C138.352 39.233 138.073 38.5917 137.82 37.9397C137.696 37.618 137.521 37.4611 137.156 37.4659C135.812 37.4832 134.467 37.4803 133.123 37.4678C132.791 37.4649 132.594 37.5805 132.473 37.8935C132.214 38.5599 131.933 39.2186 131.661 39.8802H125.654C124.974 38.5608 124.291 37.2434 123.615 35.9202C123.481 35.6553 123.284 35.5716 122.999 35.5773C122.316 35.5908 121.632 35.6043 120.95 35.5735C120.514 35.5542 120.412 35.7353 120.418 36.1378C120.433 37.385 120.416 38.6331 120.411 39.8802H117.551V39.8792ZM122.641 32.9675V32.9646C123.197 32.9646 123.752 32.9733 124.306 32.9627C125.058 32.9473 125.533 32.4792 125.56 31.7502C125.59 30.9307 125.214 30.4607 124.435 30.376C123.218 30.2431 121.995 30.3403 120.776 30.3143C120.501 30.3085 120.422 30.4588 120.425 30.7063C120.43 31.2966 120.441 31.8879 120.42 32.4783C120.407 32.8625 120.569 32.9839 120.929 32.9723C121.499 32.955 122.07 32.9675 122.641 32.9675ZM135.193 31.5721C135.153 31.5721 135.113 31.573 135.073 31.574C134.655 32.6025 134.236 33.632 133.817 34.6605C133.742 34.8464 133.76 34.9726 134.001 34.9716C134.76 34.9706 135.52 34.9716 136.28 34.9716C136.471 34.9716 136.543 34.8926 136.466 34.7029C136.041 33.6599 135.617 32.616 135.193 31.5721Z" fill="white"/>
<path d="M142.623 39.8794C142.612 39.7205 142.593 39.5616 142.593 39.4017C142.591 35.7402 142.591 32.0788 142.593 28.4182C142.593 27.7624 142.599 27.7566 143.264 27.7566C145.487 27.7566 147.71 27.746 149.934 27.7682C150.846 27.7769 151.688 28.061 152.378 28.6889C153.698 29.8888 153.763 31.5789 152.548 32.8839C152.401 33.0418 152.208 33.1574 152.53 33.3403C154.445 34.4267 154.543 37.5045 152.624 39.0521C152.084 39.4884 151.464 39.6945 150.823 39.8794H142.624H142.623ZM147.821 37.3755C147.821 37.3755 147.821 37.3678 147.821 37.3649C148.487 37.3649 149.154 37.3822 149.819 37.3601C150.42 37.3389 150.812 37.0365 150.977 36.5319C151.263 35.6603 150.665 34.8475 149.667 34.8234C148.415 34.7926 147.161 34.8196 145.908 34.8109C145.606 34.809 145.474 34.9274 145.479 35.2346C145.487 35.7932 145.492 36.3527 145.477 36.9113C145.467 37.2696 145.627 37.389 145.964 37.3813C146.583 37.3668 147.202 37.3774 147.82 37.3774L147.821 37.3755ZM147.57 32.4649C148.125 32.4649 148.679 32.4755 149.233 32.4621C150.017 32.4428 150.43 32.0499 150.431 31.3468C150.432 30.6775 150.068 30.3183 149.29 30.3019C148.166 30.2788 147.041 30.2981 145.917 30.2904C145.623 30.2885 145.474 30.3954 145.48 30.7074C145.488 31.1533 145.489 31.6001 145.48 32.047C145.473 32.3532 145.606 32.4755 145.908 32.4688C146.462 32.4572 147.017 32.4649 147.571 32.4649H147.57Z" fill="white"/>
<path d="M103.629 39.8796C104.461 37.9795 105.288 36.0775 106.125 34.1794C106.994 32.208 107.886 30.2473 108.739 28.2692C108.916 27.8599 109.148 27.7145 109.57 27.7492C109.949 27.78 110.336 27.7896 110.712 27.7472C111.205 27.6923 111.452 27.9023 111.645 28.3462C112.91 31.2594 114.2 34.1611 115.478 37.0685C115.888 38.0027 116.287 38.9416 116.691 39.8787H113.545C113.258 39.1535 112.968 38.4302 112.686 37.7031C112.609 37.5048 112.471 37.4634 112.275 37.4634C110.833 37.4691 109.39 37.4691 107.948 37.4634C107.754 37.4634 107.613 37.5009 107.537 37.7012C107.256 38.4283 106.967 39.1525 106.68 39.8787H103.629V39.8796ZM110.113 31.6177C110.074 31.6495 110.022 31.6697 110.007 31.7063C109.602 32.6944 109.198 33.6834 108.799 34.6725C108.691 34.9392 108.862 34.971 109.06 34.972C109.742 34.9729 110.424 34.9643 111.106 34.9768C111.452 34.9835 111.526 34.8554 111.394 34.5444C111.06 33.7508 110.742 32.9505 110.406 32.158C110.329 31.975 110.304 31.7554 110.114 31.6177H110.113Z" fill="white"/>
<path d="M159.783 39.8793C161.484 36.0281 163.192 32.1788 164.879 28.3208C165.067 27.8913 165.309 27.7035 165.777 27.7478C166.187 27.7864 166.603 27.7758 167.014 27.7498C167.386 27.7266 167.591 27.8721 167.74 28.2149C168.585 30.1602 169.444 32.0998 170.306 34.0374C171.116 35.8586 171.934 37.6758 172.749 39.494C172.822 39.8224 172.696 39.8985 172.368 39.8879C171.478 39.859 170.588 39.8783 169.699 39.8783C169.493 39.104 169.086 38.4087 168.829 37.6546C168.762 37.4582 168.607 37.4639 168.441 37.4639C167.014 37.4678 165.586 37.4745 164.159 37.462C163.895 37.4601 163.752 37.54 163.658 37.7866C163.392 38.4867 163.11 39.182 162.835 39.8783H159.783V39.8793ZM166.278 31.4324C165.8 32.5948 165.371 33.633 164.946 34.674C164.859 34.8869 164.968 34.9697 165.169 34.9706C165.898 34.9706 166.626 34.9716 167.355 34.9706C167.543 34.9706 167.679 34.9167 167.587 34.6865C167.168 33.6426 166.748 32.6006 166.278 31.4334V31.4324Z" fill="white"/>
<path d="M155.781 39.8793C155.772 38.8402 155.758 37.8011 155.756 36.761C155.752 33.9778 155.754 31.1937 155.756 28.4105C155.756 27.7672 155.768 27.7575 156.386 27.7546C156.957 27.7518 157.532 27.7806 158.101 27.746C158.582 27.7171 158.648 27.9665 158.647 28.3604C158.64 30.9519 158.643 33.5435 158.643 36.135C158.643 37.3831 158.642 38.6303 158.641 39.8784H155.781V39.8793Z" fill="white"/>
<path d="M73.0684 34.0664C72.847 33.867 72.8021 33.6581 72.722 33.4703C70.4444 28.1369 68.1668 22.8027 65.894 17.4674C65.0668 15.5259 65.2566 12.6782 67.5428 11.0757C69.6277 9.61477 72.3298 9.82857 74.1962 11.5919C75.7076 13.0201 76.0043 14.7632 75.7047 16.7297C75.0196 21.2329 74.3708 25.7419 73.7038 30.2479C73.5283 31.4334 73.3432 32.618 73.159 33.8025C73.1476 33.8757 73.1103 33.9441 73.0674 34.0664H73.0684Z" fill="white"/>
<path d="M72.3988 37.0316C71.6164 36.5164 70.9103 36.0638 70.2166 35.5919C66.0584 32.7663 61.903 29.9369 57.7467 27.1075C54.9901 25.2305 54.5264 21.544 56.8078 19.146C59.1426 16.6932 63.7465 16.9984 65.3552 20.6243C67.6795 25.8623 69.9523 31.1243 72.2452 36.3768C72.3196 36.5472 72.4179 36.7138 72.3978 37.0307L72.3988 37.0316Z" fill="white"/>
<path d="M80.8262 36.8881C81.1916 36.0435 81.5532 35.197 81.9235 34.3544C83.8976 29.8666 85.8937 25.3885 87.845 20.8901C89.4108 17.2806 93.8905 16.4447 96.5841 19.2924C98.2596 21.0634 98.3541 23.8996 96.8217 25.8546C96.4019 26.3891 95.9105 26.8263 95.3523 27.2047C91.6225 29.7298 87.8994 32.2646 84.1715 34.7925C83.0942 35.5225 82.0084 36.24 80.9264 36.9632C80.893 36.9382 80.8596 36.9132 80.8262 36.8881Z" fill="white"/>
<path d="M79.875 39.5945C79.9532 39.3971 80.1116 39.3393 80.2395 39.2536C84.6162 36.3221 88.9987 33.4012 93.3668 30.4572C94.1664 29.9179 94.9651 29.4171 95.9288 29.2428C97.6978 28.9231 99.1958 29.4961 100.461 30.7066C102.356 32.521 102.641 35.517 101.078 37.6184C100.114 38.9146 98.818 39.688 97.1358 39.686C91.6093 39.6774 86.0828 39.6831 80.5563 39.6802C80.3406 39.6802 80.1145 39.7351 79.875 39.5955V39.5945Z" fill="white"/>
<path d="M64.3671 39.6798C61.684 39.6798 59.0009 39.6798 56.3168 39.6798C53.6824 39.6798 51.609 37.774 51.2674 35.1478C50.8848 32.2105 53.2378 29.2915 56.335 29.1499C57.4418 29.0989 58.4599 29.46 59.3845 30.0812C63.0169 32.5196 66.6504 34.9561 70.2848 37.3916C71.2094 38.0118 72.1425 38.6185 73.0643 39.2436C73.1921 39.3302 73.4555 39.3745 73.3782 39.5903C73.3209 39.7482 73.0938 39.6779 72.9412 39.6779C70.0835 39.6817 67.2248 39.6808 64.3671 39.6808V39.6798Z" fill="white"/>
<path d="M80.2479 34.077C80.0018 33.7467 80.0485 33.4251 80.0046 33.1381C79.3253 28.6686 78.6583 24.1972 77.9942 19.7258C77.8988 19.0825 78.1287 18.5278 78.54 18.0482C79.1325 17.3586 79.8567 16.853 80.7021 16.5208C80.8242 16.4726 81.0198 16.4755 81.0227 16.2887C81.0246 16.1337 80.8739 16.0508 80.7613 15.9671C80.4951 15.7706 80.1869 15.7061 79.8615 15.7061C79.226 15.7061 78.5906 15.6868 77.956 15.7109C77.5429 15.7263 77.395 15.5751 77.4026 15.1562C77.4437 12.9055 79.1697 10.7483 81.3433 10.2591C84.2783 9.5975 87.1265 11.3262 87.7238 14.1806C87.948 15.2544 87.9108 16.3436 87.4633 17.3818C85.6237 21.648 83.786 25.9162 81.9492 30.1835C81.5132 31.1956 81.0847 32.2107 80.6487 33.2219C80.5313 33.4934 80.3987 33.7573 80.2489 34.0761L80.2479 34.077Z" fill="white"/>
<path d="M129.354 19.902C129.354 18.1599 129.36 16.4168 129.35 14.6746C129.348 14.301 129.449 14.1219 129.86 14.1247C132.051 14.1411 134.243 14.1296 136.433 14.1459C137.211 14.1517 137.938 14.3771 138.581 14.8297C140.059 15.8698 140.251 17.6341 139.028 18.9669C138.854 19.1557 138.741 19.2529 139.041 19.4619C140.677 20.5993 140.872 22.8557 139.525 24.3667C138.614 25.3885 137.433 25.6485 136.166 25.6629C134.086 25.6861 132.006 25.6629 129.926 25.6755C129.496 25.6783 129.343 25.5185 129.348 25.0822C129.365 23.3555 129.355 21.6297 129.355 19.903L129.354 19.902ZM134.334 23.2438C134.872 23.2438 135.411 23.2505 135.95 23.2419C136.934 23.2264 137.503 22.8066 137.535 22.0843C137.568 21.3553 136.979 20.841 136.002 20.816C134.863 20.788 133.722 20.815 132.581 20.8015C132.247 20.7977 132.132 20.9354 132.142 21.258C132.156 21.7674 132.16 22.2788 132.141 22.7883C132.126 23.1523 132.286 23.2592 132.623 23.2486C133.193 23.2303 133.764 23.2438 134.333 23.2428L134.334 23.2438ZM134.278 16.5747C134.278 16.5747 134.278 16.567 134.278 16.5632C134.057 16.5632 133.834 16.5584 133.613 16.5632C131.843 16.6123 132.184 16.2059 132.146 18.1329C132.146 18.1493 132.148 18.1647 132.146 18.1811C132.137 18.4382 132.254 18.5644 132.515 18.5624C133.686 18.5557 134.858 18.5692 136.029 18.5393C136.586 18.5249 136.964 18.078 136.965 17.5339C136.966 17.0081 136.566 16.5988 135.987 16.5786C135.417 16.5584 134.847 16.5738 134.277 16.5738L134.278 16.5747Z" fill="white"/>
<path d="M119.542 19.2424C119.417 19.4677 119.462 19.6459 119.461 19.8154C119.458 21.5431 119.46 23.2698 119.459 24.9975C119.459 25.6322 119.422 25.6659 118.778 25.6688C118.222 25.6716 117.667 25.663 117.11 25.6688C116.798 25.6726 116.653 25.5561 116.654 25.2181C116.662 21.6673 116.661 18.1176 116.656 14.5668C116.656 14.2664 116.765 14.1132 117.072 14.1315C117.088 14.1315 117.104 14.1315 117.12 14.1306C118.891 14.0458 118.898 14.04 120.019 15.423C121.284 16.9831 122.535 18.5557 123.793 20.1216C123.891 20.242 123.956 20.398 124.133 20.4529C124.264 20.2998 124.202 20.1168 124.203 19.9521C124.208 18.209 124.218 16.4659 124.198 14.7228C124.192 14.2577 124.356 14.0988 124.808 14.1219C125.378 14.1517 125.952 14.1431 126.522 14.1248C126.897 14.1123 127.017 14.2673 127.016 14.6352C127.008 18.1532 127.008 21.6721 127.016 25.1901C127.016 25.5493 126.874 25.6871 126.538 25.6668C126.49 25.6639 126.441 25.6601 126.394 25.6688C125.163 25.898 124.355 25.3943 123.621 24.3706C122.358 22.6121 120.933 20.973 119.541 19.2405L119.542 19.2424Z" fill="white"/>
<path d="M103.668 19.8653C103.672 16.616 106.011 14.0794 109.259 13.8309C111.382 13.6681 113.263 14.3201 114.949 15.6048C115.241 15.8273 115.249 15.9891 114.988 16.2443C114.602 16.6228 114.234 17.0243 113.885 17.4384C113.642 17.7274 113.471 17.7428 113.151 17.4972C112.102 16.6911 110.932 16.1875 109.57 16.3444C108.059 16.5178 107.002 17.4818 106.668 18.9716C106.201 21.0547 107.357 23.0356 109.284 23.4035C110.651 23.6645 111.856 23.2186 112.957 22.427C113.15 22.2883 113.351 22.1458 113.506 21.9686C113.772 21.6662 113.972 21.6845 114.23 21.9879C114.601 22.4251 115.006 22.8324 115.405 23.2446C115.562 23.4064 115.626 23.5249 115.415 23.7107C113.166 25.6879 110.624 26.5161 107.695 25.6147C105.418 24.9136 103.843 22.791 103.706 20.3931C103.697 20.2178 103.681 20.0425 103.669 19.8663L103.668 19.8653Z" fill="white"/>
<path d="M141.145 19.851C141.202 16.3927 143.716 13.8165 147.165 13.7857C149.109 13.7684 150.881 14.3886 152.425 15.6155C152.684 15.8216 152.728 15.9689 152.475 16.2174C152.078 16.6084 151.703 17.0235 151.337 17.4443C151.103 17.712 150.925 17.7275 150.625 17.5002C149.571 16.6999 148.405 16.1885 147.044 16.3426C145.515 16.516 144.5 17.4405 144.137 18.964C143.648 21.0105 144.818 23.03 146.741 23.3998C148.162 23.6733 149.409 23.2014 150.525 22.3414C151.391 21.674 151.379 21.6634 152.114 22.4666C152.372 22.7488 152.642 23.0203 152.91 23.2929C153.046 23.4306 153.072 23.55 152.91 23.6925C150.694 25.6331 148.185 26.5008 145.284 25.6552C142.762 24.9204 141.101 22.5292 141.145 19.85L141.145 19.851Z" fill="white"/>
</g>
<defs>
<clipPath id="clip0_3281_3453">
<rect width="121.543" height="29.782" fill="white" transform="translate(51.2285 10.109)"/>
</clipPath>
</defs>
</svg>
