<svg width="224" height="50" viewBox="0 0 224 50" fill="none" xmlns="http://www.w3.org/2000/svg">
<mask id="mask0_3281_3486" style="mask-type:luminance" maskUnits="userSpaceOnUse" x="50" y="10" width="124" height="30">
<path d="M173.2 10.3122H50.8008V39.688H173.2V10.3122Z" fill="white"/>
</mask>
<g mask="url(#mask0_3281_3486)">
<path d="M65.357 10.3314C57.3178 10.3314 50.8008 16.9073 50.8008 25.0193C50.8008 33.1311 57.3178 39.7071 65.357 39.7071C73.3963 39.7071 79.9134 33.1311 79.9134 25.0193C79.9134 16.9073 73.3963 10.3314 65.357 10.3314ZM65.0632 21.0885L61.5932 19.2672V30.7349L65.0632 28.9206V32.7982L60.6713 35.0938C60.4246 35.2224 60.1556 35.2868 59.8867 35.2868C59.5789 35.2868 59.2711 35.2028 58.9994 35.0364C58.4906 34.7244 58.1801 34.1663 58.1801 33.5662V16.4891C58.1801 15.8932 58.4851 15.3392 58.9869 15.0259C59.4888 14.7126 60.1154 14.6818 60.645 14.9475L65.0618 17.2165V21.0871L65.0632 21.0885ZM77.0063 26.5566L67.4961 31.5281V18.4908L69.6948 19.6658C70.5099 20.0576 70.8898 20.8773 70.8898 21.5095V25.8768L75.437 23.5001C76.2729 23.0622 77.3029 23.3924 77.7368 24.2373C78.1707 25.0808 77.8435 26.1201 77.0063 26.558V26.5566Z" fill="white"/>
<path d="M111.727 27.5338C111.378 28.3549 110.892 29.0767 110.268 29.6964C109.644 30.3175 108.901 30.8071 108.038 31.168C107.174 31.5289 106.234 31.7093 105.221 31.7093C104.207 31.7093 103.277 31.5331 102.429 31.1806C101.582 30.8281 100.846 30.3469 100.223 29.7342C99.5992 29.1229 99.1182 28.4053 98.7772 27.5841C98.4361 26.763 98.2656 25.8832 98.2656 24.9431C98.2656 24.0031 98.4361 23.1246 98.7772 22.3021C99.1182 21.481 99.6034 20.7592 100.236 20.1395C100.866 19.5198 101.611 19.033 102.466 18.6805C103.321 18.328 104.256 18.1517 105.271 18.1517C106.285 18.1517 107.218 18.328 108.075 18.6805C108.93 19.033 109.671 19.5142 110.293 20.1269C110.917 20.7396 111.398 21.4558 111.739 22.2769C112.08 23.0981 112.251 23.9793 112.251 24.918C112.251 25.8565 112.076 26.7127 111.727 27.5338ZM108.499 23.459C108.325 23.0057 108.079 22.6127 107.765 22.2769C107.449 21.9412 107.074 21.6727 106.643 21.4726C106.21 21.2712 105.738 21.1705 105.222 21.1705C104.706 21.1705 104.213 21.2712 103.789 21.4726C103.364 21.674 103.004 21.9384 102.705 22.2643C102.405 22.5917 102.172 22.9862 102.007 23.4464C101.841 23.908 101.758 24.3892 101.758 24.8928C101.758 25.3964 101.845 25.9027 102.02 26.3643C102.194 26.826 102.44 27.2289 102.755 27.5715C103.071 27.9157 103.443 28.1842 103.876 28.3759C104.309 28.5689 104.773 28.6655 105.272 28.6655C105.771 28.6655 106.261 28.5647 106.693 28.3633C107.126 28.1618 107.494 27.8947 107.802 27.559C108.11 27.2233 108.345 26.826 108.512 26.3643C108.678 25.9027 108.762 25.4215 108.762 24.918C108.762 24.4143 108.674 23.9122 108.499 23.459Z" fill="white"/>
<path d="M114.212 13.2217C114.626 12.8693 115.134 12.693 115.732 12.693C116.331 12.693 116.841 12.8693 117.265 13.2217C117.69 13.5743 117.9 14.0765 117.9 14.7311C117.9 15.3858 117.689 15.8418 117.265 16.2027C116.841 16.5636 116.331 16.7441 115.732 16.7441C115.134 16.7441 114.628 16.5636 114.212 16.2027C113.796 15.8418 113.588 15.3522 113.588 14.7311C113.588 14.0779 113.796 13.5743 114.212 13.2217ZM117.526 31.4068H113.987V18.4535H117.526V31.4068Z" fill="white"/>
<path d="M129.651 18.4917C130.2 18.7182 130.668 19.0372 131.059 19.447C131.45 19.8583 131.757 20.3689 131.981 20.9816C132.206 21.5943 132.318 22.2854 132.318 23.0561V31.4058H128.754V24.1878C128.754 23.6688 128.687 23.2324 128.554 22.8798C128.421 22.5273 128.251 22.2377 128.043 22.0126C127.835 21.7859 127.586 21.6181 127.295 21.509C127.005 21.3999 126.709 21.3453 126.411 21.3453C126.113 21.3453 125.808 21.3956 125.502 21.4963C125.194 21.5971 124.919 21.7608 124.679 21.9874C124.438 22.214 124.239 22.5078 124.08 22.8672C123.923 23.2281 123.843 23.6688 123.843 24.1878V31.4058H120.279V18.4539L123.869 20.1899C124.301 19.6359 124.84 19.1589 125.489 18.756C126.137 18.3532 126.918 18.1517 127.832 18.1517C128.496 18.1517 129.102 18.2651 129.651 18.4917Z" fill="white"/>
<path d="M138.895 31.405H135.355V13.0201H138.895V31.4064V31.405Z" fill="white"/>
<path d="M142.165 13.2544C142.579 12.9019 143.087 12.7256 143.686 12.7256C144.285 12.7256 144.795 12.9019 145.219 13.2544C145.643 13.6069 145.854 14.1091 145.854 14.7637C145.854 15.4184 145.642 15.8745 145.219 16.2353C144.795 16.5962 144.285 16.7767 143.686 16.7767C143.087 16.7767 142.581 16.5962 142.165 16.2353C141.749 15.8745 141.541 15.3849 141.541 14.7637C141.541 14.1105 141.749 13.6069 142.165 13.2544ZM145.48 31.4394H141.94V18.4861H145.48V31.4394Z" fill="white"/>
<path d="M155.419 31.5966H152.105L146.895 18.593H150.659L153.8 27.3707L156.965 18.593H160.654L155.419 31.5966Z" fill="white"/>
<path d="M169.532 28.4051C169.941 28.2204 170.329 28.0022 170.696 27.7505C171.064 27.4987 171.405 27.2231 171.717 26.9237C172.031 26.6244 172.298 26.3195 172.514 26.0089L173.212 28.9688C172.914 29.299 172.593 29.6011 172.247 29.8725C171.902 30.1453 171.535 30.3845 171.148 30.5887C170.761 30.7943 170.372 30.9734 169.981 31.1272C169.59 31.2812 169.192 31.407 168.789 31.5036C167.835 31.733 166.927 31.7777 166.066 31.6406C165.205 31.5036 164.415 31.2098 163.694 30.7622C162.973 30.3145 162.36 29.7256 161.854 28.994C161.348 28.2624 160.982 27.4161 160.755 26.4523C160.536 25.5221 160.484 24.6213 160.604 23.7483C160.721 22.8755 160.987 22.0753 161.395 21.3479C161.804 20.6205 162.357 19.9966 163.055 19.4749C163.752 18.9545 164.562 18.5824 165.482 18.3614C166.453 18.1278 167.352 18.1054 168.182 18.2943C169.013 18.4831 169.759 18.8202 170.42 19.3084C171.081 19.7952 171.645 20.4107 172.11 21.1521C172.576 21.8935 172.937 22.7076 173.198 23.593L164.897 27.9407C165.291 28.38 165.772 28.6835 166.342 28.8472C166.91 29.0122 167.549 29.0094 168.262 28.8387C168.699 28.7338 169.121 28.5898 169.53 28.4051H169.532ZM164.067 25.6074L169.395 22.7762C169.051 22.1173 168.581 21.6277 167.985 21.3045C167.387 20.9828 166.725 20.9087 165.998 21.0836C165.496 21.2038 165.09 21.4179 164.778 21.7257C164.466 22.0333 164.236 22.3943 164.086 22.8097C163.936 23.2251 163.862 23.6658 163.86 24.1317C163.859 24.5975 163.91 25.0507 164.014 25.4913L164.067 25.6074Z" fill="white"/>
<path d="M91.8563 31.7421C90.5227 31.7421 89.3346 31.4525 88.2921 30.8748C87.2496 30.2971 86.4372 29.4955 85.8563 28.4688C85.2755 27.442 84.9844 26.274 84.9844 24.9633C84.9844 23.6526 85.2755 22.4622 85.8563 21.4451C86.4372 20.4282 87.2413 19.6294 88.2658 19.0517C89.2916 18.474 90.4714 18.1845 91.8036 18.1845C93.1359 18.1845 94.256 18.5034 95.3165 19.1413C96.3757 19.7791 97.1451 20.7024 97.6247 21.9096L94.4446 23.0482C94.2047 22.5474 93.8332 22.1474 93.33 21.8452C92.8253 21.5431 92.2653 21.392 91.6511 21.392C91.037 21.392 90.4631 21.5431 89.9848 21.8452C89.5065 22.1474 89.1294 22.5656 88.8564 23.1C88.5833 23.6344 88.446 24.2555 88.446 24.9633C88.446 25.671 88.5833 26.2866 88.8564 26.8125C89.1294 27.3385 89.5149 27.7568 90.0098 28.0673C90.5047 28.3778 91.0689 28.5331 91.7024 28.5331C92.336 28.5331 92.8766 28.3695 93.3812 28.0421C93.8859 27.7148 94.2574 27.2826 94.4973 26.7482L97.7024 27.8868C97.2061 29.1109 96.4326 30.0606 95.3817 30.7335C94.3309 31.4063 93.1553 31.7421 91.8563 31.7421Z" fill="white"/>
</g>
</svg>
