<svg width="224" height="50" viewBox="0 0 224 50" fill="none" xmlns="http://www.w3.org/2000/svg">
<g clip-path="url(#clip0_3281_3529)">
<path d="M94.9392 30.063V32.5945H84.2608V30.063H88.0964V19.937H84.2608V17.4055H94.9392V19.937H91.1036V30.063H94.9392ZM76.8044 17.4055H73.8586L71.7414 29.4301H71.7107L69.2559 18.2795C69.1025 17.526 68.857 17.3452 68.1205 17.3452H66.4942C65.7885 17.3452 65.5123 17.526 65.3589 18.2795L62.9041 29.4301H62.8427L60.7562 17.4055H57.5956L60.6334 31.8411C60.7562 32.474 61.0016 32.6247 61.7074 32.6247H63.794C64.4997 32.6247 64.7452 32.474 64.8679 31.811L67.1693 21.3534H67.2307L69.5321 31.811C69.6855 32.474 69.9003 32.6247 70.606 32.6247H72.6619C73.3984 32.6247 73.6131 32.474 73.7359 31.8411L76.8044 17.4055ZM78.4 36H56V14H78.4V36ZM115.345 28.7069C115.356 30.0071 115.448 31.3054 115.621 32.5945H118.689C118.597 31.7808 118.505 30.4247 118.444 28.4959C118.382 26.5671 117.646 25.9041 116.05 25.6027V25.5425C117.83 25.2712 118.597 24.4274 118.597 21.7452C118.597 19.5151 118.229 18.7014 117.615 18.0986C117.002 17.4959 116.357 17.4356 115.161 17.4356H105.74V32.5945H108.932V26.6877H113.35C114.271 26.6877 114.639 26.7479 114.884 26.989C115.13 27.2301 115.314 27.5014 115.345 28.7069ZM108.932 24.2164V19.9973H113.995C114.7 19.9973 114.915 20.0575 115.038 20.1781C115.161 20.2986 115.467 20.7205 115.467 22.0466C115.467 23.3726 115.253 23.7945 115.007 24.0055C114.762 24.2164 114.67 24.2164 113.964 24.2164H108.932ZM123.2 36H100.8V14H123.2V36ZM150.54 17.4055V32.5945H158.15C160.329 32.5945 161.525 32.2932 162.477 31.4795C163.428 30.6658 164.103 28.7671 164.103 25.0301C164.103 21.2932 163.581 19.5151 162.477 18.5808C161.372 17.6466 160.359 17.4658 158.15 17.4658H150.54V17.4055ZM160.942 25C160.942 28.2548 160.666 29.0986 160.083 29.5507C159.5 30.0027 159.071 30.0027 157.935 30.0027H153.731V19.9973H157.935C159.101 19.9973 159.592 20.0575 160.083 20.4493C160.574 20.8411 160.942 21.7452 160.942 25.0301M168 36H145.6V14H168V36ZM127.312 19.937V17.4055H140.476V22.2877H137.714V19.937H132.375V23.5534H136.609V25.9945H132.375V30.063H137.837V27.411H140.629V32.5945H127.312V30.063H129.398V19.937H127.312Z" fill="white"/>
</g>
<defs>
<clipPath id="clip0_3281_3529">
<rect width="112" height="22" fill="white" transform="translate(56 14)"/>
</clipPath>
</defs>
</svg>
