<svg width="224" height="50" viewBox="0 0 224 50" fill="none" xmlns="http://www.w3.org/2000/svg">
<mask id="mask0_3281_3471" style="mask-type:luminance" maskUnits="userSpaceOnUse" x="42" y="10" width="140" height="30">
<path d="M181.65 10.9915H42.3516V39.0081H181.65V10.9915Z" fill="white"/>
</mask>
<g mask="url(#mask0_3281_3471)">
<path d="M48.0388 24.9998L44.9009 28.1376L41.707 24.9998L44.9009 21.8059L48.0388 24.9998ZM55.7153 17.3232L61.1505 22.7584L64.3445 19.5645L55.7153 10.9915L47.1422 19.5645L50.3362 22.7584L55.7153 17.3232ZM66.5298 21.8059L63.3919 24.9998L66.5858 28.1936L69.7236 24.9998L66.5298 21.8059ZM55.7153 32.6763L50.2801 27.241L47.0862 30.4349L55.7153 39.0081L64.2884 30.4349L61.1505 27.241L55.7153 32.6763ZM55.7153 28.1376L58.9092 24.9437L55.7153 21.8059L52.5215 24.9998L55.7153 28.1376ZM89.1111 28.4738C89.1111 26.3445 87.9904 25.3359 86.2534 24.6635C87.3741 24.0472 88.2706 23.0946 88.2706 21.3576V21.3015C88.2706 18.8922 86.3094 17.3232 83.2276 17.3232H76.0554V32.6763H83.3397C86.8137 32.6763 89.1111 31.2754 89.1111 28.4738ZM84.8525 21.9179C84.8525 23.0946 83.9 23.5429 82.4432 23.5429H79.3053V20.2929H82.6673C84.0681 20.2929 84.8525 20.8533 84.8525 21.9179ZM85.7491 28.0256C85.7491 29.1462 84.8525 29.7065 83.3957 29.7065H79.3613V26.3445H83.2837C84.9646 26.3445 85.7491 26.9609 85.7491 28.0256ZM96.1713 32.6763V17.3232H92.7532V32.6763H96.1713ZM114.326 32.6763V17.3232H110.964V26.7928L103.792 17.3232H100.654V32.6763H104.016V22.9265L111.468 32.6763H114.326ZM133.041 32.6763L126.429 17.2111H123.292L116.68 32.6763H120.154L121.554 29.2022H128.055L129.455 32.6763H133.041ZM126.877 26.2324H122.787L124.86 21.2455L126.877 26.2324ZM149.178 32.6763V17.3232H145.817V26.7928L138.645 17.3232H135.507V32.6763H138.869V22.9265L146.321 32.6763H149.178ZM166.605 30.2108L164.419 28.0256C163.187 29.1462 162.123 29.8186 160.385 29.8186C157.752 29.8186 155.903 27.6333 155.903 24.9998V24.9437C155.903 22.3101 157.752 20.1808 160.385 20.1808C161.898 20.1808 163.131 20.8533 164.308 21.9179L166.493 19.4524C165.092 18.0516 163.355 17.099 160.441 17.099C155.735 17.099 152.429 20.6852 152.429 25.0558V24.9998C152.429 29.4263 155.79 32.9004 160.33 32.9004C163.243 32.9565 165.036 31.8918 166.605 30.2108ZM181.006 32.6763V29.6505H172.656V26.4005H179.885V23.3748H172.656V20.2369H180.893V17.2111H169.295V32.5642L181.006 32.6763Z" fill="white"/>
</g>
</svg>
