<svg width="224" height="50" viewBox="0 0 224 50" fill="none" xmlns="http://www.w3.org/2000/svg">
<path d="M61.5829 6.90121C54.283 6.94684 47.6904 11.3723 44.9301 18.1475C42.1698 24.9227 43.7438 32.7016 48.945 37.8571C54.1461 43.0126 61.925 44.5182 68.6773 41.6895C75.4297 38.8608 79.7868 32.2453 79.764 24.9227C79.7183 14.9311 71.5973 6.8784 61.5829 6.90121ZM68.1527 40.4349C61.9022 43.0582 54.7164 41.6439 49.903 36.899C45.0898 32.1313 43.6298 24.9455 46.1847 18.695C48.7397 12.4217 54.8305 8.33836 61.5829 8.29274C70.8445 8.24712 78.3725 15.6838 78.4181 24.9227C78.4409 31.6978 74.4032 37.8115 68.1527 40.4349Z" fill="white"/>
<path d="M100.137 22.7065C99.7716 21.2465 98.8363 20.1971 96.9885 20.1971C94.2739 20.1971 93.1561 22.5924 93.1561 25.0104C93.1561 27.4285 94.2967 29.8238 96.9885 29.8238C98.9504 29.8238 100.023 28.3638 100.205 26.5161H102.372C102.19 29.55 100.045 31.626 96.9885 31.626C93.2018 31.626 90.9434 28.6148 90.9434 25.0104C90.9434 21.4062 93.2018 18.395 96.9885 18.395C99.84 18.4177 102.076 19.9918 102.349 22.7065H100.137ZM103.695 26.7442C103.695 23.9382 105.383 21.9308 108.303 21.9308C111.223 21.9308 112.911 23.9382 112.911 26.7442C112.911 29.55 111.223 31.5803 108.303 31.5803C105.383 31.5803 103.695 29.55 103.695 26.7442ZM110.904 26.7442C110.904 25.1701 110.105 23.5276 108.303 23.5276C106.501 23.5276 105.703 25.1701 105.703 26.7442C105.703 28.3182 106.501 29.9835 108.303 29.9835C110.105 29.9835 110.904 28.341 110.904 26.7442ZM114.645 18.6915H116.653V20.6077H114.645V18.6915ZM114.645 22.1818H116.653V31.3293H114.645V22.1818ZM118.865 22.1818H120.782V23.5276L120.827 23.5733C121.42 22.5695 122.493 21.9308 123.679 21.9537C125.663 21.9537 126.918 23.0258 126.918 25.0561V31.3293H124.911V25.5807C124.865 24.1436 124.317 23.5276 123.131 23.5276C121.785 23.5276 120.919 24.5771 120.919 25.9229V31.3293H118.911V22.1818H118.865ZM140.331 31.3293H138.917L138.575 29.8466C137.389 31.1925 136.317 31.626 134.765 31.626C130.979 31.626 128.72 28.6148 128.72 25.0104C128.72 21.4062 130.979 18.395 134.765 18.395C137.526 18.395 139.852 19.855 140.172 22.7065H138.004C137.799 21.0411 136.339 20.1971 134.742 20.1971C132.027 20.1971 130.91 22.5924 130.91 25.0104C130.91 27.4285 132.051 29.8238 134.742 29.8238C137.001 29.8694 138.255 28.5007 138.279 26.3564H134.925V24.6682H140.309L140.331 31.3293ZM144.027 27.2688C144.027 28.706 144.803 29.9835 146.49 29.9835C147.654 29.9835 148.361 29.4816 148.726 28.4551H150.643C150.209 30.4625 148.498 31.5803 146.49 31.5803C143.616 31.5803 142.02 29.5728 142.02 26.767C142.02 24.1664 143.731 21.9308 146.445 21.9308C149.319 21.9308 151.098 24.5314 150.757 27.2688H144.027ZM148.726 25.9458C148.658 24.6682 147.791 23.5276 146.422 23.5276C145.054 23.5276 144.072 24.577 144.004 25.9458H148.726ZM158.467 25.2385C158.307 24.1208 157.486 23.5276 156.368 23.5276C155.319 23.5276 153.859 24.0752 153.859 26.8582C153.859 28.3867 154.52 29.9835 156.277 29.9835C157.44 29.9835 158.261 29.2079 158.444 27.8848H160.452C160.087 30.2572 158.627 31.5575 156.254 31.5575C153.379 31.5575 151.806 29.5273 151.806 26.8354C151.806 24.1436 153.312 21.908 156.323 21.908C158.444 21.908 160.246 22.9802 160.452 25.2158H158.467V25.2385ZM162.186 18.6915H164.193V25.8773L167.842 22.1818H170.329L166.816 25.5351L170.648 31.3293H168.185L165.379 26.881L164.17 28.0445V31.3293H162.163V18.6915H162.186ZM171.196 26.7442C171.196 23.9382 172.884 21.9308 175.804 21.9308C178.724 21.9308 180.412 23.9382 180.412 26.7442C180.412 29.55 178.724 31.5803 175.804 31.5803C172.884 31.5803 171.196 29.55 171.196 26.7442ZM178.427 26.7442C178.427 25.1701 177.629 23.5276 175.827 23.5276C174.025 23.5276 173.226 25.1701 173.226 26.7442C173.226 28.3182 174.025 29.9835 175.827 29.9835C177.629 29.9835 178.427 28.341 178.427 26.7442Z" fill="white"/>
<path d="M61.7207 16.0715C62.5647 16.1399 65.6209 17.1208 66.3964 17.6683C65.735 15.7748 63.5454 15.5239 61.7207 16.0715Z" fill="white"/>
<path d="M61.5807 20.9033C61.5807 21.8157 61.0333 22.6598 60.1666 23.002C59.3227 23.3442 58.3419 23.1617 57.6805 22.5001C57.0191 21.8386 56.8366 20.8805 57.1787 20.0136C57.5208 19.1696 58.3648 18.5993 59.2771 18.5993C60.5543 18.6221 61.5807 19.6486 61.5807 20.9033Z" fill="white"/>
<path d="M70.1462 19.0099C68.9374 18.6678 67.6829 18.1659 66.4056 17.664C66.3372 17.3447 66.0408 16.9569 65.4706 16.455C64.6494 15.725 63.0756 15.7478 61.73 16.0672C60.2474 15.725 58.7649 15.5881 57.3508 15.9303C50.9714 17.6914 50.1046 20.8417 49.8948 24.6263C49.58 28.4085 49.3703 31.2691 47.9082 34.522C50.9189 39.3583 58.1034 43.0766 64.6266 41.4798C64.6266 41.4729 64.6267 41.4637 64.6244 41.4569C64.6244 41.4569 64.6244 41.4569 64.6266 41.4569C64.6266 41.4569 64.6267 41.4524 64.622 41.4478C63.9379 36.5546 68.2121 31.7801 70.6024 29.3437C71.1612 28.7712 72.0119 28.0024 72.8011 27.1903C75.9304 24.2612 76.5462 20.7573 70.1462 19.0099ZM70.8761 23.3898C71.2638 23.4126 71.5831 23.7092 71.5831 24.097C71.5831 24.7129 70.8305 25.0323 70.3971 24.5989C69.9638 24.1654 70.2603 23.4126 70.8761 23.3898ZM60.5211 23.8689C59.3123 24.3707 57.921 24.097 56.9859 23.1617C56.0507 22.2264 55.777 20.8349 56.2788 19.6259C56.7806 18.4168 57.9666 17.6184 59.2667 17.6184C60.1334 17.6184 60.9545 17.9605 61.5475 18.5537C62.1861 19.1924 62.5283 20.0136 62.5283 20.8805C62.5283 22.1808 61.73 23.367 60.5211 23.8689ZM71.3322 27.4276C70.3287 27.9066 69.3023 28.2716 68.2303 28.5682C67.1583 28.8419 66.0408 29.0472 64.9231 28.956C63.7827 28.8647 62.6423 28.4769 61.8897 27.6328L61.9352 27.5873C62.8476 28.1803 63.9195 28.3857 64.9688 28.4312C66.0408 28.4541 67.1127 28.3857 68.1619 28.1803C69.2111 27.9522 70.2603 27.6328 71.2638 27.2222C72.2035 26.8367 73.125 26.3896 73.9506 25.7714C73.9985 25.7304 74.0464 25.6893 74.0921 25.6482H74.1149C74.0601 25.6916 74.0053 25.7304 73.9506 25.7714C73.1614 26.4603 72.2582 26.9759 71.3322 27.4276Z" fill="white"/>
</svg>
