<svg width="224" height="50" viewBox="0 0 224 50" fill="none" xmlns="http://www.w3.org/2000/svg">
<path fill-rule="evenodd" clip-rule="evenodd" d="M70.2877 43.6519C71.3772 43.8467 72.4988 43.9482 73.6443 43.9482C78.7192 43.9482 83.3282 41.9529 86.7293 38.7039C83.9013 38.2396 80.0918 37.5624 80.0872 37.2831C80.0805 36.9063 87.9239 35.6684 89.466 35.4285C89.6957 35.0807 89.9143 34.7248 90.1212 34.3614C87.35 33.9013 83.8987 33.275 83.8943 33.0092C83.889 32.7161 88.6343 31.9019 91.4682 31.4418C92.1951 29.4308 92.5913 27.2617 92.5913 25C92.5913 14.5353 84.1084 6.05193 73.6443 6.05193C68.5666 6.05193 63.9555 8.04943 60.5537 11.3015C63.393 11.7717 67.2835 12.4644 67.2789 12.7298C67.272 13.1396 59.0772 14.4055 57.8041 14.5996C57.5798 14.9405 57.3662 15.2891 57.1637 15.6449C59.9519 16.1113 63.4763 16.7512 63.4718 17.0037C63.4665 17.3185 58.6281 18.1387 55.8089 18.5899C55.0893 20.592 54.6973 22.7503 54.6973 25C54.6973 27.2972 55.1059 29.4987 55.8547 31.5361C56.4176 31.2751 57.0444 30.8932 57.7125 30.5183C56.4717 30.3699 55.8132 30.113 55.8132 30.113C57.7203 29.6752 60.8884 28.4742 60.8884 28.4742C61.049 28.3617 61.2095 28.2492 61.3581 28.205C62.6309 27.3737 63.6868 26.5746 64.5259 25.8075C65.5739 25.8514 66.9312 25.7388 68.1476 24.8272C67.3245 25.1043 65.3771 24.9721 65.3771 24.9721C63.4657 24.6352 62.6103 23.4989 62.8392 23.3985C65.4129 22.3742 67.6694 21.1532 67.6694 21.1532C68.1671 20.3259 70.1423 17.507 72.6157 17.4503C73.3908 17.4463 74.0773 17.1451 74.6634 16.6149L78.1925 13.366C78.1925 13.366 80.1481 13.8516 80.2167 16.2568C80.2974 18.5938 78.5187 19.899 78.7637 20.5052C79.0208 21.0432 81.6104 19.5291 81.6104 19.5291C81.6104 19.5291 82.193 21.8138 81.0689 22.601C79.9447 23.388 77.3995 27.4439 76.7213 30.4917C76.5529 31.4473 76.3401 32.2545 76.1273 33.0616C76.1556 33.6999 75.9673 36.7637 74.8713 38.1894L74.6865 37.2418C73.6629 39.4543 72.4504 41.141 71.1255 42.667C70.814 43.0323 70.5368 43.3588 70.2877 43.6519ZM72.1762 19.9671L72.6337 18.5695L73.4688 18.2242C73.1078 20.2722 72.1762 19.9671 72.1762 19.9671Z" fill="white"/>
<path fill-rule="evenodd" clip-rule="evenodd" d="M103.934 15.2434C103.934 18.5076 106.251 20.9555 109.688 20.9555C112.557 20.9555 114.107 19.108 114.107 19.108L112.726 17.1371C112.726 17.1371 111.467 18.4921 109.81 18.4921C107.785 18.4921 106.711 16.8139 106.711 15.1819C106.711 13.5959 107.708 12.0408 109.81 12.0408C111.329 12.0408 112.557 13.1649 112.557 13.1649L113.8 11.1325C113.8 11.1325 112.403 9.57738 109.688 9.57738C106.389 9.57738 103.934 12.0408 103.934 15.2434ZM115.733 20.7707H118.418V17.0601H119.676L121.625 20.7707H124.617L122.484 16.9216C122.223 16.4597 122.07 16.2596 122.07 16.2596V16.2287C123.159 15.6744 123.712 14.3966 123.712 13.2264C123.712 11.6252 122.929 10.5012 121.686 10.0241C121.211 9.8392 120.674 9.76222 119.554 9.76222H115.733V20.7707ZM118.418 14.7506V12.0717H119.323C120.674 12.0717 120.981 12.5645 120.981 13.3958C120.981 14.2733 120.443 14.7506 119.584 14.7506H118.418ZM128.514 20.7707H131.199V16.2596L134.821 9.76222H131.767L130.54 12.4105C130.187 13.1649 129.88 13.9963 129.88 13.9963H129.849C129.849 13.9963 129.542 13.1649 129.189 12.4105L127.947 9.76222H124.893L128.514 16.2596V20.7707ZM136.048 20.7707H138.733V17.368H140.605C142.738 17.368 144.18 15.7668 144.18 13.5498C144.18 11.3328 142.738 9.76222 140.605 9.76222H136.048V20.7707ZM138.733 15.0586V12.0717H140.099C140.989 12.0717 141.449 12.6721 141.449 13.5498C141.449 14.4273 140.989 15.0586 140.053 15.0586H138.733ZM147.878 20.7707H150.563V12.0717H153.893V9.76222H144.549V12.0717H147.878V20.7707ZM154.491 15.1973C154.491 18.4306 156.915 20.9555 160.23 20.9555C163.544 20.9555 165.968 18.4306 165.968 15.1973C165.968 12.0408 163.544 9.57738 160.23 9.57738C156.915 9.57738 154.491 12.0408 154.491 15.1973ZM157.268 15.1973C157.268 13.3958 158.588 12.0408 160.23 12.0408C161.871 12.0408 163.191 13.3958 163.191 15.1973C163.191 17.0755 161.871 18.4921 160.23 18.4921C158.588 18.4921 157.268 17.0755 157.268 15.1973Z" fill="white"/>
<path fill-rule="evenodd" clip-rule="evenodd" d="M113.474 27.6089C114.445 28.4375 114.931 29.7099 114.931 31.4264C114.931 33.1432 114.432 34.399 113.435 35.1945C112.437 35.9897 110.915 36.3874 108.868 36.3874H107.025V40.2646H103.934V26.3663H108.828C110.955 26.3663 112.503 26.7805 113.474 27.6089ZM111.206 33.0769C111.576 32.6593 111.76 32.0496 111.76 31.2475C111.76 30.4456 111.519 29.8757 111.037 29.5375C110.555 29.1996 109.805 29.0307 108.788 29.0307H107.025V33.7032H109.105C110.136 33.7032 110.836 33.4945 111.206 33.0769ZM127.196 40.2646L125.908 37.2623H120.102L118.815 40.2646H115.525L121.509 26.3663H124.501L130.485 40.2646H127.196ZM123.015 30.502L121.272 34.5382H124.739L123.015 30.502ZM142.573 26.3663H145.664V40.2646H142.573L135.974 31.5559V40.2646H132.883V26.3663H135.776L142.573 35.3137V26.3663ZM149.864 26.3663H152.956V40.2646H149.864V26.3663ZM163.517 37.5207C165.036 37.5207 166.278 36.9176 167.242 35.7113L169.224 37.7594C167.652 39.5357 165.799 40.4236 163.666 40.4236C161.532 40.4236 159.775 39.7478 158.395 38.3957C157.014 37.0436 156.324 35.3369 156.324 33.2756C156.324 31.2143 157.028 29.4946 158.434 28.116C159.841 26.7373 161.562 26.0481 163.596 26.0481C165.868 26.0481 167.77 26.9163 169.303 28.6528L167.381 30.8401C166.403 29.6204 165.188 29.0107 163.735 29.0107C162.572 29.0107 161.578 29.3917 160.753 30.1541C159.927 30.9162 159.514 31.9435 159.514 33.2359C159.514 34.5284 159.904 35.5655 160.683 36.3476C161.463 37.1297 162.407 37.5207 163.517 37.5207Z" fill="white"/>
</svg>
