<svg width="224" height="50" viewBox="0 0 224 50" fill="none" xmlns="http://www.w3.org/2000/svg">
<path d="M55.6757 27.6878C55.1967 27.9806 54.6378 28.0338 54.212 27.7943C53.6798 27.4749 53.3605 26.7564 53.3605 25.7717V22.7645C53.3605 21.3275 52.8016 20.2896 51.8435 20.0235C50.2202 19.5444 48.996 21.5404 48.5436 22.2855L45.6694 26.8895V21.221C45.6428 19.917 45.2171 19.1452 44.4187 18.9058C43.8864 18.7461 43.0881 18.8259 42.3163 19.9969L35.9027 30.2693C35.0511 28.6459 34.5987 26.8362 34.5987 25C34.5987 18.7993 39.5752 13.7696 45.6694 13.7696C51.7637 13.7696 56.7402 18.7993 56.7402 25V25.0266V25.0532C56.7934 26.2508 56.4209 27.2088 55.6757 27.6878ZM59.1885 25V24.9734V24.9468C59.1619 17.4155 53.0943 11.268 45.6694 11.268C38.218 11.268 32.1504 17.4155 32.1504 25C32.1504 32.5579 38.218 38.732 45.6694 38.732C49.1025 38.732 52.3492 37.428 54.8507 35.0595C55.3564 34.5805 55.383 33.8087 54.9039 33.3031C54.4516 32.7974 53.6798 32.7708 53.1741 33.2233C53.1741 33.2233 53.1741 33.2233 53.1475 33.2499C51.125 35.1659 48.4106 36.257 45.6162 36.257C42.3429 36.257 39.4155 34.82 37.393 32.5313L43.1679 23.2702V27.5548C43.1679 29.604 43.9662 30.2693 44.6315 30.4555C45.2969 30.6418 46.3081 30.5088 47.3993 28.7789L50.5661 23.6428C50.6726 23.4831 50.7525 23.3234 50.8589 23.217V25.825C50.8589 27.741 51.6306 29.2846 52.9612 30.0297C54.1588 30.7216 55.6757 30.6418 56.9265 29.8701C58.47 28.8588 59.295 27.1023 59.1885 25ZM78.0301 20.3162C78.3495 20.5025 78.6422 20.9549 78.6422 21.3541C78.6422 21.9928 78.11 22.525 77.4979 22.525C77.3382 22.525 77.2052 22.4718 77.0721 22.4452C76.3535 21.913 75.4487 21.567 74.4907 21.567C72.2286 21.567 70.6851 23.4032 70.6851 25.6919C70.6851 27.9806 72.2553 29.7902 74.4907 29.7902C75.6084 29.7902 76.6197 29.3378 77.3648 28.6193C77.5511 28.4862 77.7906 28.4063 78.0301 28.4063C78.6422 28.4063 79.1212 28.8854 79.1212 29.4975C79.1212 29.8967 78.8817 30.2427 78.589 30.4289C77.4979 31.3603 76.0342 31.9724 74.5173 31.9724C71.0576 31.9724 68.2368 29.1249 68.2368 25.6121C68.2368 22.0992 71.0576 19.2517 74.5173 19.2517C75.7947 19.2251 77.0188 19.6243 78.0301 20.3162ZM84.3639 22.9775C86.7324 22.9775 88.7017 24.9734 88.7017 27.4483C88.7017 29.8967 86.7058 31.9991 84.3639 31.9991C81.8887 31.9991 79.8398 29.9233 79.8398 27.4483C79.8398 24.9734 81.8887 22.9775 84.3639 22.9775ZM84.3372 29.7902C85.3752 29.7902 86.2532 28.8056 86.2532 27.4749C86.2532 26.1443 85.3752 25.2928 84.3372 25.2928C83.2193 25.2928 82.288 26.1177 82.288 27.4749C82.288 28.7789 83.2193 29.7902 84.3372 29.7902ZM90.1923 30.6152V24.3347C90.1923 23.6428 90.7243 23.0839 91.4162 23.0839C92.0815 23.0839 92.6402 23.6428 92.6402 24.3347V30.6152C92.6402 31.3071 92.0815 31.866 91.4162 31.866C90.7509 31.866 90.1923 31.2805 90.1923 30.6152ZM90.0056 20.7154C90.0056 19.8904 90.6443 19.2517 91.4162 19.2517C92.2142 19.2517 92.8535 19.917 92.8535 20.7154C92.8535 21.5138 92.2142 22.1524 91.4162 22.1524C90.6176 22.1258 90.0056 21.4871 90.0056 20.7154ZM97.324 27.2088V30.6152C97.324 31.3071 96.7653 31.866 96.1 31.866C95.4347 31.866 94.876 31.3071 94.876 30.6152V24.042C94.876 23.5097 95.3014 23.0839 95.834 23.0839C96.366 23.0839 96.7653 23.5363 96.7653 24.042C97.7499 23.1105 98.6279 22.9775 99.4532 22.9775C101.902 22.9775 102.992 24.8137 102.992 26.9161V30.6152C102.992 31.3071 102.434 31.866 101.768 31.866C101.103 31.866 100.544 31.3071 100.544 30.6152V27.2088C100.544 26.1443 100.411 25.2395 98.8679 25.2395C97.7766 25.2395 97.324 26.1443 97.324 27.2088ZM110.923 28.5128C110.63 28.5128 110.444 28.3797 110.284 28.1935L107.437 25.1064V30.6152C107.437 31.3071 106.878 31.866 106.213 31.866C105.548 31.866 104.988 31.3071 104.988 30.6152V19.7041C105.068 19.5178 105.255 19.3848 105.441 19.3848C105.654 19.3848 105.84 19.5711 105.973 19.7041L110.524 24.8137C110.657 24.9734 110.817 25.0532 110.923 25.0532C111.003 25.0532 111.189 24.9734 111.322 24.8137L115.873 19.7041C116.006 19.5711 116.166 19.3848 116.405 19.3848C116.618 19.3848 116.804 19.5178 116.858 19.7041V30.6152C116.858 31.3071 116.325 31.866 115.633 31.866C114.968 31.866 114.409 31.3071 114.409 30.6152V25.1064L111.562 28.1935C111.349 28.3797 111.163 28.5128 110.923 28.5128ZM122.685 29.7902C123.777 29.7902 124.708 28.8056 124.708 27.4749C124.708 26.1443 123.75 25.2661 122.685 25.2661C121.621 25.2661 120.743 26.1709 120.743 27.4749C120.743 28.7523 121.595 29.7902 122.685 29.7902ZM125.294 30.908L125.241 30.6152C124.761 31.5467 123.245 31.9724 122.287 31.9724C119.998 31.9724 118.295 29.8967 118.295 27.4217C118.295 24.9734 120.024 22.9509 122.419 22.9509C122.819 22.9509 124.203 23.0573 125.267 24.3081L125.321 24.0153C125.321 23.4831 125.719 23.0573 126.252 23.0573C126.784 23.0573 127.21 23.5097 127.21 24.0153V30.8814C127.21 31.4136 126.784 31.8394 126.252 31.8394C125.693 31.866 125.294 31.4136 125.294 30.908ZM133.943 25.2395H133.677C132.133 25.3194 131.84 26.1976 131.84 27.2088V30.6152C131.84 31.3071 131.282 31.866 130.616 31.866C129.951 31.866 129.392 31.3071 129.392 30.6152V24.042C129.392 23.5097 129.818 23.0839 130.35 23.0839C130.882 23.0839 131.282 23.5363 131.282 24.042C132.186 23.1903 132.932 23.0041 133.677 22.9775H133.916C134.502 22.9775 135.034 23.4831 135.034 24.1218C135.06 24.7073 134.528 25.2395 133.943 25.2395ZM143.39 30.0297C143.496 30.216 143.576 30.4023 143.576 30.6152C143.576 31.2539 142.991 31.8394 142.352 31.8394C141.927 31.8394 141.554 31.52 141.261 31.1475L138.44 27.8741V30.5886C138.44 31.2805 137.881 31.8394 137.216 31.8394C136.551 31.8394 135.992 31.2805 135.992 30.5886V20.609C135.992 19.917 136.524 19.3582 137.216 19.3582C137.908 19.3582 138.44 19.917 138.44 20.609V26.8362L141.261 23.7226C141.554 23.4032 141.9 23.0573 142.326 23.0573C142.938 23.0573 143.496 23.6162 143.496 24.2549C143.496 24.4411 143.443 24.6541 143.337 24.8137L141.101 27.2621L143.39 30.0297ZM148.18 25.2661C147.515 25.2661 146.424 25.6121 146.424 26.65H149.964C149.937 25.6121 148.819 25.2661 148.18 25.2661ZM151.374 28.2201H146.424C146.424 29.6838 147.834 29.9233 148.446 29.9233C148.899 29.9233 149.538 29.8434 150.043 29.604C150.203 29.4975 150.442 29.4176 150.682 29.4176C151.214 29.4176 151.667 29.8701 151.667 30.4289C151.667 30.8015 151.427 31.1208 151.134 31.3071C150.389 31.866 149.405 31.9991 148.473 31.9991C145.998 31.9991 143.949 30.6684 143.949 27.5548C143.949 25.1064 145.2 22.9775 148.127 22.9775C150.495 22.9775 152.279 24.521 152.332 27.2621C152.332 27.7677 151.906 28.2201 151.374 28.2201ZM158.186 31.9724H157.521C155.659 31.9724 154.567 31.1475 154.567 28.2467V25.2395H153.929C153.343 25.2395 152.837 24.7073 152.837 24.1218C152.837 23.4831 153.37 22.9775 153.929 22.9775H154.567V20.6622C154.567 19.9703 155.099 19.4114 155.791 19.4114C156.457 19.4114 157.016 19.9703 157.016 20.6622V22.9775H158.027C158.612 22.9775 159.118 23.4831 159.118 24.1218C159.118 24.7073 158.586 25.2395 158.027 25.2395H157.016V27.7677C157.016 29.4442 157.096 29.7902 157.84 29.7902H158.186C158.772 29.7902 159.278 30.2693 159.278 30.8814C159.278 31.4668 158.772 31.9724 158.186 31.9724ZM170.029 20.3162C170.349 20.5025 170.641 20.9549 170.641 21.3541C170.641 21.9928 170.109 22.525 169.497 22.525C169.337 22.525 169.204 22.4718 169.071 22.4452C168.353 21.913 167.448 21.567 166.489 21.567C164.228 21.567 162.684 23.4032 162.684 25.6919C162.684 27.9806 164.254 29.7902 166.489 29.7902C167.607 29.7902 168.619 29.3378 169.364 28.6193C169.55 28.4862 169.79 28.4063 170.029 28.4063C170.641 28.4063 171.12 28.8854 171.12 29.4975C171.12 29.8967 170.881 30.2427 170.588 30.4289C169.497 31.3603 168.033 31.9724 166.516 31.9724C163.057 31.9724 160.236 29.1249 160.236 25.6121C160.236 22.0992 163.057 19.2517 166.516 19.2517C167.794 19.2251 169.045 19.6243 170.029 20.3162ZM176.23 29.7902C177.321 29.7902 178.252 28.8056 178.252 27.4749C178.252 26.1443 177.294 25.2661 176.23 25.2661C175.139 25.2661 174.287 26.1709 174.287 27.4749C174.287 28.7523 175.165 29.7902 176.23 29.7902ZM178.838 30.908L178.785 30.6152C178.306 31.5467 176.789 31.9724 175.831 31.9724C173.542 31.9724 171.839 29.8967 171.839 27.4217C171.839 24.9734 173.568 22.9509 175.964 22.9509C176.363 22.9509 177.747 23.0573 178.811 24.3081L178.864 24.0153C178.864 23.4831 179.263 23.0573 179.796 23.0573C180.328 23.0573 180.754 23.5097 180.754 24.0153V30.8814C180.754 31.4136 180.328 31.8394 179.796 31.8394C179.237 31.866 178.838 31.4136 178.838 30.908ZM187.434 29.7902C188.525 29.7902 189.376 28.7523 189.376 27.4749C189.376 26.1443 188.498 25.2661 187.434 25.2661C186.342 25.2661 185.411 26.1443 185.411 27.4749C185.411 28.8056 186.342 29.7902 187.434 29.7902ZM185.411 31.2539V34.3675C185.411 35.0595 184.853 35.6183 184.187 35.6183C183.522 35.6183 182.963 35.0595 182.963 34.3675V24.042C182.963 23.5097 183.389 23.0839 183.921 23.0839C184.453 23.0839 184.853 23.5363 184.853 24.1484C185.757 23.217 186.874 22.9775 187.726 22.9775C190.095 22.9775 191.852 24.9734 191.852 27.4483C191.852 29.8967 190.175 31.9991 187.86 31.9991C187.141 31.9725 186.076 31.7595 185.411 31.2539Z" fill="white"/>
</svg>
