<svg width="224" height="50" viewBox="0 0 224 50" fill="none" xmlns="http://www.w3.org/2000/svg">
<path d="M69.2266 17.6449L73.3698 27.907H72.2757L71.0748 24.8231H66.3781L65.1028 27.907H64.0508L68.4044 17.6449H69.2298H69.2266ZM70.7414 24.0148L68.7605 18.9537L66.7212 24.0148H70.7414Z" fill="white"/>
<path d="M78.6642 24.8225C78.6706 25.2049 78.758 25.5811 78.9199 25.9324C79.0623 26.2277 79.2727 26.4889 79.5349 26.6972C79.81 26.9054 80.1272 27.0578 80.4639 27.1355C80.8555 27.2319 81.2601 27.2785 81.6647 27.2723C82.0564 27.2754 82.4481 27.2256 82.8268 27.1199C83.1602 27.0298 83.4742 26.8837 83.7558 26.694C84.0115 26.5231 84.2219 26.2992 84.3708 26.0381C84.5197 25.7738 84.5941 25.4785 84.5877 25.1801C84.6038 24.8412 84.5067 24.5054 84.3093 24.2225C84.1183 23.9707 83.8723 23.7624 83.5875 23.6101C83.267 23.436 82.9239 23.3023 82.5678 23.2153C82.1826 23.1158 81.791 23.0132 81.3961 22.9137C81.0012 22.8143 80.6095 22.6961 80.2243 22.5656C79.8586 22.4474 79.5154 22.2733 79.2047 22.0526C78.9037 21.835 78.6577 21.5583 78.4829 21.2381C78.2854 20.8495 78.1883 20.4236 78.2045 19.9915C78.1916 19.5718 78.3016 19.1552 78.5282 18.7946C78.7386 18.4713 79.017 18.1977 79.3471 17.9863C79.6805 17.7749 80.0528 17.6164 80.4412 17.5262C80.8232 17.4329 81.2181 17.3832 81.613 17.3832C82.4286 17.3614 83.2379 17.5355 83.9694 17.8868C84.6783 18.2785 85.1994 18.9189 85.426 19.6744L84.4808 20.1625C84.319 19.5656 83.9273 19.0464 83.3868 18.7138C82.8494 18.4153 82.2377 18.263 81.6162 18.2754C81.3346 18.2754 81.0562 18.3127 80.7843 18.3842C80.5092 18.4526 80.2502 18.5614 80.0107 18.7075C79.7841 18.8474 79.5931 19.0309 79.4475 19.2485C79.3018 19.4692 79.2274 19.7272 79.2306 19.9915C79.2144 20.3241 79.3115 20.6505 79.509 20.9241C79.7032 21.1666 79.946 21.3656 80.2276 21.5086C80.5513 21.6733 80.8944 21.7977 81.2472 21.8847C81.6324 21.9811 82.024 22.0775 82.4189 22.1739C82.8138 22.2702 83.2055 22.3821 83.5907 22.5034C83.9565 22.6184 84.2996 22.7863 84.6103 23.0008C84.9113 23.2122 85.1573 23.4858 85.3321 23.7998C85.5296 24.179 85.6267 24.6018 85.6105 25.0246C85.6688 25.9168 85.2836 26.7811 84.5747 27.3593C83.8853 27.8971 82.9142 28.1676 81.6647 28.1676C81.1663 28.1707 80.671 28.121 80.1855 28.0184C79.7615 27.9251 79.3601 27.7604 79.0008 27.5272C78.6512 27.2971 78.3566 26.9956 78.1398 26.6474C77.8938 26.2402 77.7255 25.7925 77.6445 25.3293L78.6642 24.8257V24.8225Z" fill="white"/>
<path d="M91.5873 24.8225C91.5938 25.2049 91.6812 25.5811 91.843 25.9324C91.9854 26.2277 92.1958 26.4889 92.458 26.6972C92.7332 26.9054 93.0504 27.0578 93.387 27.1355C93.7787 27.2319 94.1833 27.2785 94.5879 27.2723C94.9796 27.2754 95.3712 27.2256 95.7499 27.1199C96.0833 27.0298 96.3973 26.8837 96.6789 26.694C96.9346 26.5231 97.145 26.2992 97.2939 26.0381C97.4428 25.7738 97.5173 25.4785 97.5108 25.1801C97.527 24.8412 97.4299 24.5054 97.2324 24.2225C97.0415 23.9707 96.7955 23.7624 96.5106 23.6101C96.1902 23.436 95.8471 23.3023 95.491 23.2153C95.1058 23.1158 94.7141 23.0132 94.3192 22.9137C93.9243 22.8143 93.5327 22.6961 93.1475 22.5656C92.7817 22.4474 92.4386 22.2733 92.1279 22.0526C91.8268 21.835 91.5808 21.5583 91.406 21.2381C91.2086 20.8495 91.1115 20.4236 91.1277 19.9915C91.1147 19.5718 91.2248 19.1552 91.4514 18.7946C91.6618 18.4713 91.9401 18.1977 92.2703 17.9863C92.6037 17.7749 92.9759 17.6164 93.3644 17.5262C93.7463 17.4329 94.1412 17.3832 94.5361 17.3832C95.3518 17.3614 96.161 17.5355 96.8926 17.8868C97.6014 18.2785 98.1226 18.9189 98.3492 19.6744L97.404 20.1625C97.2421 19.5656 96.8505 19.0464 96.3099 18.7138C95.7726 18.4153 95.1608 18.263 94.5393 18.2754C94.2577 18.2754 93.9794 18.3127 93.7075 18.3842C93.4323 18.4526 93.1734 18.5614 92.9338 18.7075C92.7073 18.8474 92.5163 19.0309 92.3706 19.2485C92.225 19.4692 92.1473 19.7272 92.1538 19.9915C92.1376 20.3241 92.2347 20.6505 92.4321 20.9241C92.6263 21.1666 92.8691 21.3656 93.1507 21.5086C93.4744 21.6733 93.8175 21.7977 94.1703 21.8847C94.5555 21.9811 94.9472 22.0775 95.3421 22.1739C95.737 22.2702 96.1287 22.3821 96.5138 22.5034C96.8796 22.6184 97.2227 22.7863 97.5335 23.0008C97.8313 23.2122 98.0773 23.4858 98.2521 23.7998C98.4495 24.179 98.5466 24.6018 98.5304 25.0246C98.5887 25.9168 98.2035 26.7811 97.4946 27.3593C96.8052 27.8971 95.8341 28.1676 94.5847 28.1676C94.0862 28.1707 93.5909 28.121 93.1054 28.0184C92.6814 27.9251 92.28 27.7604 91.9207 27.5272C91.5711 27.2971 91.2766 26.9956 91.0597 26.6474C90.8137 26.2402 90.6454 25.7925 90.5645 25.3293L91.5873 24.8257V24.8225Z" fill="white"/>
<path d="M111.817 24.5769C111.827 25.1054 111.733 25.6308 111.538 26.1251C111.367 26.5541 111.095 26.9396 110.742 27.2505C110.383 27.5614 109.959 27.7945 109.496 27.9344C108.444 28.2391 107.321 28.2391 106.269 27.9344C105.806 27.7945 105.382 27.5614 105.023 27.2505C104.673 26.9396 104.398 26.5541 104.226 26.1251C104.032 25.6308 103.938 25.1054 103.948 24.5769V17.6443H104.968V24.5489C104.955 24.9811 105.032 25.4132 105.201 25.8173C105.469 26.464 106.042 26.952 106.745 27.1292C107.486 27.322 108.269 27.322 109.01 27.1292C109.713 26.952 110.286 26.4671 110.554 25.8173C110.72 25.4132 110.8 24.9842 110.787 24.5489V17.6443H111.807V24.5769H111.817Z" fill="white"/>
<path d="M117.613 17.6446H122.339C122.825 17.6322 123.307 17.7161 123.757 17.8902C124.123 18.0332 124.453 18.254 124.725 18.5306C124.974 18.7949 125.165 19.1058 125.281 19.4477C125.401 19.7866 125.459 20.141 125.463 20.4985C125.515 21.2602 125.207 22.0001 124.621 22.5161C123.964 23.0135 123.161 23.2902 122.326 23.3089L125.748 27.9068H124.456L121.064 23.3524H118.633V27.9068H117.613V17.6415V17.6446ZM118.633 22.4571H121.799C122.245 22.4695 122.692 22.4104 123.119 22.2767C123.417 22.1804 123.692 22.0249 123.922 21.8166C124.11 21.6425 124.249 21.428 124.327 21.1887C124.401 20.9648 124.44 20.7317 124.44 20.4954C124.466 19.9669 124.265 19.4508 123.883 19.0685C123.514 18.7141 122.873 18.5338 121.964 18.5338H118.633V22.4539V22.4571Z" fill="white"/>
<path d="M130.533 17.6446H137.528V18.54H131.553V22.171H136.942V23.0664H131.553V27.0145H137.842V27.9068H130.536V17.6415L130.533 17.6446Z" fill="white"/>
<path d="M151.336 17.6441H155.537C156.029 17.6379 156.521 17.7125 156.988 17.8679C157.389 18.0047 157.764 18.2099 158.091 18.4741C158.402 18.7291 158.667 19.0306 158.878 19.3664C159.092 19.7052 159.266 20.069 159.396 20.4482C159.525 20.8275 159.619 21.2192 159.674 21.614C159.729 21.9995 159.755 22.3881 159.755 22.7767C159.749 23.355 159.677 23.9301 159.538 24.4897C159.399 25.0834 159.15 25.6461 158.803 26.156C158.447 26.6689 157.975 27.0979 157.421 27.4088C156.758 27.7601 156.01 27.9311 155.253 27.9062H151.336V17.6441ZM152.356 27.0109H155.191C155.774 27.0296 156.35 26.899 156.865 26.6347C157.305 26.3985 157.68 26.0658 157.959 25.6617C158.24 25.2482 158.441 24.7912 158.551 24.3062C158.671 23.8026 158.732 23.2866 158.732 22.7705C158.732 22.2793 158.674 21.7881 158.567 21.3063C158.467 20.8213 158.279 20.3581 158.014 19.9384C157.755 19.5311 157.402 19.1861 156.984 18.9311C156.508 18.6545 155.958 18.5146 155.401 18.5332H152.356V27.0078V27.0109Z" fill="white"/>
<path d="M165.139 17.6446H172.13V18.54H166.158V22.171H171.548V23.0664H166.158V27.0145H172.448V27.9068H165.139V17.6415V17.6446Z" fill="white"/>
<path d="M177.789 17.6443H184.752V18.5396H178.809V21.9717H184.12V22.864H178.809V27.9096H177.789V17.6474V17.6443Z" fill="white"/>
<path d="M190.07 17.6443H191.09V27.9064H190.07V17.6443Z" fill="white"/>
<path d="M58 42.5845V43H42.7561V42.5845C43.7662 42.5845 44.5058 41.8748 44.9748 40.4573C45.1732 39.863 45.2734 39.2417 45.2714 38.6166C45.2513 37.578 45.0409 36.5509 44.6501 35.5815L43.0808 31.8982L42.8924 31.4847H42.9185L36.1884 15.6879L36 15.1436L39.4592 7H39.8941L52.3782 36.3316C53.0677 37.9511 54.0177 39.4552 55.1901 40.7939C56.2503 41.9883 57.1863 42.5845 57.998 42.5826L58 42.5845Z" fill="white"/>
<path d="M39 33.501C34.0293 33.501 29.999 37.753 29.999 43C29.999 37.753 25.9727 33.501 21 33.501C25.9707 33.501 29.999 29.247 29.999 24C29.999 29.247 34.0273 33.501 39 33.501Z" fill="white"/>
<path d="M197.874 13.429H196.935V16.0591H196.365V13.429H195.43V13H197.877V13.429H197.874Z" fill="white"/>
<path d="M202.393 13V16.0591H201.823L201.839 13.6528H201.83L200.881 16.0591H200.431L199.538 13.6528H199.528L199.544 16.0591H199.004V13H199.787L200.674 15.4124H200.687L201.613 13H202.396H202.393Z" fill="white"/>
<path d="M64.0469 34.0214H66.7173V34.3322H65.5585V37.5747H65.2057V34.3322H64.0469V34.0214Z" fill="white"/>
<path d="M68.4863 34.0214H68.8391V35.5882H71.0532V34.0214H71.406V37.5716H71.0532V35.896H68.8391V37.5716H68.4863V34.0214Z" fill="white"/>
<path d="M73.459 34.0214H75.8802V34.3322H73.8118V35.5882H75.6762V35.8991H73.8118V37.2669H75.987V37.5778H73.459V34.0214Z" fill="white"/>
<path d="M80.2402 34.0214H80.619L81.7778 37.0338L82.956 34.0214H83.3185L81.9331 37.5716H81.6224L80.2402 34.0214Z" fill="white"/>
<path d="M84.957 34.0214H87.3782V34.3322H85.3099V35.5882H87.1743V35.8991H85.3099V37.2669H87.4883V37.5778H84.9603V34.0214H84.957Z" fill="white"/>
<path d="M89.3353 34.0216H90.9731C91.1415 34.0185 91.3098 34.0465 91.4651 34.1055C91.5914 34.1553 91.7047 34.233 91.7985 34.3263C91.8859 34.4164 91.9507 34.5252 91.9895 34.6434C92.0316 34.7615 92.051 34.8827 92.051 35.0071C92.0704 35.2713 91.9636 35.5263 91.7597 35.7066C91.5331 35.8775 91.2547 35.977 90.9634 35.9832L92.1481 37.575H91.7014L90.5264 35.9988H89.6849V37.575H89.332V34.0216H89.3353ZM89.6881 35.6879H90.7854C90.9408 35.691 91.0961 35.6724 91.2418 35.6257C91.3454 35.5915 91.4392 35.5387 91.5202 35.4672C91.5849 35.4081 91.6335 35.3335 91.6594 35.2496C91.6852 35.1718 91.6982 35.091 91.6982 35.0102C91.7079 34.8268 91.6367 34.6496 91.5072 34.5159C91.3195 34.3729 91.08 34.3076 90.8437 34.3325H89.6913V35.6879H89.6881Z" fill="white"/>
<path d="M93.8672 34.0214H94.22V37.5716H93.8672V34.0214Z" fill="white"/>
<path d="M96.2539 34.0214H98.6622V34.3322H96.6067V35.5198H98.4453V35.8307H96.6067V37.5778H96.2539V34.0245V34.0214Z" fill="white"/>
<path d="M100.506 34.0214H100.859V37.5716H100.506V34.0214Z" fill="white"/>
<path d="M105.456 35.0194C105.42 34.9044 105.375 34.7955 105.316 34.6898C105.265 34.5966 105.193 34.5126 105.109 34.4443C105.019 34.3759 104.915 34.323 104.805 34.2919C104.666 34.2546 104.52 34.236 104.378 34.2391C104.19 34.236 104.005 34.2733 103.834 34.351C103.682 34.4256 103.549 34.5344 103.449 34.6681C103.342 34.8173 103.261 34.9821 103.219 35.1593C103.164 35.3676 103.138 35.5821 103.141 35.7966C103.135 36.0391 103.167 36.2816 103.238 36.5178C103.29 36.695 103.384 36.8598 103.507 36.9997C103.62 37.1209 103.759 37.2111 103.918 37.2701C104.083 37.3292 104.258 37.3572 104.436 37.3541C104.679 37.3696 104.922 37.2981 105.113 37.152C105.281 37.0028 105.407 36.81 105.475 36.5986L105.812 36.7727C105.711 37.0556 105.511 37.2981 105.248 37.4567C104.98 37.5997 104.676 37.6712 104.368 37.6619C104.158 37.6619 103.95 37.6277 103.753 37.5593C103.562 37.4909 103.387 37.379 103.251 37.2328C103.096 37.065 102.983 36.8691 102.915 36.6546C102.827 36.3779 102.785 36.0857 102.792 35.7966C102.785 35.5044 102.827 35.2152 102.921 34.9386C102.992 34.724 103.112 34.5282 103.267 34.3603C103.403 34.2142 103.575 34.1023 103.763 34.0339C103.947 33.9655 104.145 33.9313 104.345 33.9313C104.514 33.9313 104.679 33.9468 104.844 33.981C104.986 34.0121 105.122 34.065 105.245 34.1396C105.368 34.2142 105.475 34.3106 105.566 34.4225C105.666 34.5531 105.75 34.6961 105.815 34.8453L105.462 35.0163L105.456 35.0194Z" fill="white"/>
<path d="M108.988 34.0214L110.422 37.5716H110.043L109.629 36.5053H108.004L107.564 37.5716H107.201L108.706 34.0214H108.991H108.988ZM109.512 36.2255L108.826 34.4752L108.12 36.2255H109.512Z" fill="white"/>
<path d="M111.365 34.0214H114.036V34.3322H112.877V37.5747H112.524V34.3322H111.365V34.0214Z" fill="white"/>
<path d="M115.789 34.0214H116.142V37.5716H115.789V34.0214Z" fill="white"/>
<path d="M118.072 35.7969C118.072 35.5638 118.105 35.3306 118.169 35.1068C118.228 34.8923 118.328 34.6902 118.464 34.5099C118.597 34.3358 118.765 34.1928 118.962 34.0871C119.412 33.8757 119.937 33.8757 120.387 34.0871C120.584 34.1897 120.752 34.3358 120.885 34.5099C121.021 34.6902 121.118 34.8923 121.18 35.1068C121.309 35.5575 121.309 36.0332 121.18 36.484C121.121 36.6985 121.021 36.9005 120.885 37.0808C120.752 37.2549 120.584 37.3979 120.387 37.5036C119.937 37.7181 119.412 37.7181 118.962 37.5036C118.765 37.401 118.597 37.2549 118.464 37.0808C118.331 36.9005 118.231 36.6985 118.169 36.484C118.105 36.2601 118.072 36.0301 118.072 35.7969ZM118.425 35.7969C118.425 35.9834 118.448 36.17 118.496 36.3534C118.542 36.5306 118.616 36.6985 118.72 36.8539C118.82 37 118.953 37.1244 119.108 37.2145C119.458 37.4011 119.885 37.4011 120.235 37.2145C120.39 37.1244 120.523 37 120.623 36.8539C120.727 36.7016 120.801 36.5337 120.846 36.3534C120.94 35.9897 120.94 35.6073 120.846 35.2435C120.804 35.0663 120.727 34.8954 120.623 34.743C120.523 34.5969 120.39 34.4726 120.235 34.3824C119.885 34.1959 119.458 34.1959 119.108 34.3824C118.953 34.4726 118.82 34.5969 118.72 34.743C118.616 34.8954 118.538 35.0663 118.496 35.2435C118.451 35.4239 118.425 35.6104 118.425 35.7969Z" fill="white"/>
<path d="M123.213 34.0214H123.562L125.676 37.0027H125.686V34.0214H126.039V37.5716H125.689L123.575 34.5903H123.566V37.5716H123.213V34.0214Z" fill="white"/>
<path d="M133.441 35.1344C133.269 34.8297 132.93 34.6494 132.567 34.6712C132.308 34.6619 132.056 34.7614 131.878 34.9417C131.68 35.1841 131.59 35.4919 131.615 35.7966C131.599 36.0888 131.683 36.3779 131.855 36.6204C132.026 36.8287 132.292 36.9437 132.567 36.9251C132.658 36.9251 132.745 36.9126 132.832 36.8878C132.923 36.8629 133.01 36.8256 133.088 36.7727C133.169 36.7199 133.237 36.6515 133.289 36.5738C133.347 36.4867 133.38 36.3841 133.389 36.2816H132.567V35.5914H134.166V37.5717H133.447V37.2515C133.321 37.3883 133.166 37.494 132.991 37.5624C132.794 37.637 132.583 37.6743 132.373 37.6712C132.12 37.6774 131.868 37.6277 131.638 37.5313C131.434 37.4442 131.256 37.3106 131.114 37.1458C130.968 36.9717 130.861 36.7727 130.796 36.5582C130.722 36.3157 130.686 36.0639 130.69 35.8121C130.69 35.5572 130.725 35.3054 130.803 35.0598C130.874 34.8391 130.987 34.6339 131.143 34.4598C131.298 34.2888 131.492 34.152 131.709 34.0619C131.959 33.9624 132.23 33.9158 132.499 33.9189C132.842 33.9126 133.182 33.9904 133.49 34.1427C133.787 34.295 134.033 34.5251 134.205 34.8049L133.441 35.1282V35.1344Z" fill="white"/>
<path d="M139.671 35.7966C139.671 36.0391 139.629 36.2815 139.545 36.5085C139.464 36.7292 139.341 36.9313 139.179 37.1085C139.017 37.2857 138.816 37.4256 138.593 37.5188C138.088 37.724 137.518 37.724 137.013 37.5188C136.79 37.4225 136.589 37.2826 136.428 37.1085C136.266 36.9344 136.143 36.7292 136.062 36.5085C135.893 36.0484 135.893 35.5448 136.062 35.0815C136.143 34.8608 136.266 34.6587 136.428 34.4815C136.589 34.3075 136.79 34.1644 137.013 34.0712C137.518 33.8691 138.088 33.8691 138.593 34.0712C138.816 34.1676 139.017 34.3075 139.179 34.4815C139.341 34.6556 139.464 34.8608 139.545 35.0815C139.629 35.3116 139.674 35.551 139.671 35.7935V35.7966ZM138.745 35.7966C138.745 35.6567 138.729 35.5199 138.693 35.3862C138.661 35.2587 138.606 35.1344 138.528 35.0256C138.454 34.9199 138.354 34.8297 138.234 34.7676C138.101 34.6992 137.949 34.665 137.797 34.6712C137.667 34.6712 137.541 34.6929 137.421 34.7365C137.308 34.78 137.204 34.8484 137.123 34.9354C137.033 35.038 136.965 35.1562 136.926 35.2836C136.874 35.4515 136.852 35.6225 136.855 35.7966C136.855 35.9302 136.871 36.0608 136.9 36.1914C136.929 36.322 136.981 36.4432 137.052 36.5551C137.127 36.6639 137.224 36.7572 137.344 36.8225C137.483 36.894 137.641 36.9313 137.8 36.9251C138.091 36.9344 138.366 36.8007 138.528 36.5644C138.606 36.4556 138.661 36.3313 138.693 36.2038C138.729 36.0701 138.745 35.9334 138.745 35.7966Z" fill="white"/>
<path d="M141.523 34.0214H142.449V36.8255H143.896V37.5747H141.523V34.0245V34.0214Z" fill="white"/>
<path d="M145.686 34.0214H147.119C147.378 34.0214 147.637 34.0525 147.887 34.1208C148.107 34.1799 148.311 34.2887 148.482 34.4348C148.654 34.5872 148.786 34.7768 148.867 34.9882C149.049 35.5136 149.049 36.0825 148.867 36.611C148.786 36.8224 148.657 37.012 148.482 37.1644C148.311 37.3105 148.107 37.4193 147.887 37.4783C147.637 37.5467 147.378 37.5809 147.119 37.5778H145.686V34.0245V34.0214ZM146.611 36.8255H147.142C147.294 36.8286 147.443 36.8037 147.582 36.7447C147.696 36.6949 147.796 36.6203 147.874 36.5239C147.951 36.4276 148.003 36.3157 148.036 36.1975C148.1 35.9333 148.1 35.6597 148.036 35.3954C148.006 35.2773 147.951 35.1654 147.874 35.069C147.796 34.9727 147.696 34.898 147.579 34.8514C147.44 34.7955 147.288 34.7675 147.139 34.7706H146.615V36.8255H146.611Z" fill="white"/>
<path d="M153.958 36.5115C154.107 36.6421 154.272 36.7509 154.45 36.8379C154.632 36.9188 154.829 36.9592 155.03 36.9561C155.101 36.9561 155.172 36.9499 155.243 36.9374C155.321 36.925 155.399 36.9032 155.47 36.869C155.538 36.8379 155.599 36.7944 155.651 36.7416C155.7 36.6887 155.726 36.6172 155.722 36.5457C155.726 36.4649 155.687 36.3872 155.619 36.3374C155.525 36.2815 155.418 36.2442 155.308 36.2317L154.538 36.1105C154.246 36.0825 153.968 35.9644 153.748 35.7778C153.567 35.61 153.469 35.3737 153.479 35.1312C153.473 34.9416 153.518 34.7519 153.605 34.5778C153.683 34.4286 153.8 34.2981 153.939 34.2017C154.085 34.1022 154.25 34.0307 154.421 33.9872C154.606 33.9405 154.797 33.9157 154.991 33.9188C155.298 33.9188 155.599 33.9778 155.881 34.0929C156.163 34.2079 156.415 34.382 156.622 34.6027L155.92 35.0846C155.677 34.7986 155.311 34.6307 154.929 34.6369C154.871 34.6369 154.813 34.6462 154.758 34.6618C154.696 34.6773 154.641 34.6991 154.586 34.7302C154.534 34.7582 154.492 34.7986 154.457 34.8421C154.369 34.9602 154.395 35.125 154.518 35.2089C154.521 35.2089 154.525 35.2151 154.531 35.2151C154.651 35.2773 154.784 35.3177 154.92 35.3333L155.272 35.3892C155.447 35.4172 155.622 35.4545 155.79 35.5012C155.942 35.5416 156.085 35.6037 156.218 35.6846C156.337 35.7561 156.438 35.8556 156.509 35.9737C156.583 36.1043 156.622 36.2535 156.616 36.4027C156.625 36.6297 156.567 36.8535 156.451 37.0524C156.347 37.2141 156.201 37.3447 156.03 37.4379C155.858 37.5312 155.674 37.5934 155.48 37.6214C155.295 37.6524 155.111 37.668 154.923 37.668C154.622 37.668 154.321 37.6151 154.042 37.5063C153.741 37.3758 153.473 37.1861 153.256 36.9467L153.962 36.5115H153.958Z" fill="white"/>
<path d="M158.16 34.0214H161.018V34.7084H160.054V37.5716H159.128V34.7084H158.163V34.0214H158.16Z" fill="white"/>
<path d="M163.377 34.0214H164.332L165.73 37.5716H164.737L164.549 37.012H163.183L162.995 37.5716H162.008L163.374 34.0214H163.377ZM164.329 36.3561L163.872 34.8887H163.863L163.406 36.3561H164.332H164.329Z" fill="white"/>
<path d="M167.4 34.0214H168.336L169.682 36.2908H169.692V34.0214H170.534V37.5716H169.608L168.252 35.3364H168.242V37.5716H167.4V34.0214Z" fill="white"/>
<path d="M172.523 34.0214H173.957C174.216 34.0214 174.475 34.0525 174.725 34.1208C174.945 34.1799 175.149 34.2887 175.32 34.4348C175.492 34.5872 175.624 34.7768 175.705 34.9882C175.887 35.5136 175.887 36.0825 175.705 36.611C175.624 36.8224 175.495 37.012 175.32 37.1644C175.149 37.3105 174.945 37.4193 174.725 37.4783C174.475 37.5467 174.216 37.5809 173.957 37.5778H172.523V34.0245V34.0214ZM173.446 36.8255H173.977C174.129 36.8286 174.278 36.8037 174.417 36.7447C174.53 36.6949 174.631 36.6203 174.708 36.5239C174.786 36.4276 174.838 36.3157 174.87 36.1975C174.935 35.9333 174.935 35.6597 174.87 35.3954C174.841 35.2773 174.786 35.1654 174.708 35.069C174.631 34.9727 174.53 34.898 174.414 34.8514C174.275 34.7955 174.122 34.7675 173.974 34.7706H173.449V36.8255H173.446Z" fill="white"/>
<path d="M178.719 34.0214H179.674L181.072 37.5716H180.078L179.891 37.012H178.525L178.337 37.5716H177.35L178.716 34.0214H178.719ZM179.67 36.3561L179.214 34.8887H179.204L178.748 36.3561H179.674H179.67Z" fill="white"/>
<path d="M182.742 34.0214H184.59C184.943 34.0027 185.289 34.1022 185.571 34.3043C185.826 34.5312 185.959 34.8545 185.93 35.1871C185.933 35.4048 185.862 35.6162 185.723 35.7871C185.58 35.9612 185.386 36.0856 185.166 36.1447L186.014 37.5716H184.978L184.25 36.2939H183.664V37.5716H182.738V34.0214H182.742ZM183.667 35.6379H184.515C184.645 35.641 184.774 35.6006 184.875 35.5198C185.053 35.3084 185.053 35.0068 184.875 34.7954C184.774 34.7177 184.645 34.6742 184.515 34.6773H183.667V35.6348V35.6379Z" fill="white"/>
<path d="M187.764 34.0214H189.198C189.457 34.0214 189.716 34.0524 189.968 34.1208C190.188 34.1799 190.392 34.2887 190.564 34.4348C190.735 34.5872 190.868 34.7768 190.949 34.9882C191.13 35.5136 191.13 36.0825 190.949 36.611C190.868 36.8224 190.738 37.012 190.564 37.1643C190.392 37.3105 190.188 37.4193 189.968 37.4783C189.719 37.5467 189.46 37.5809 189.198 37.5778H187.764V34.0245V34.0214ZM188.689 36.8255H189.22C189.372 36.8286 189.521 36.8037 189.661 36.7447C189.774 36.6949 189.874 36.6203 189.952 36.5239C190.029 36.4276 190.085 36.3156 190.114 36.1975C190.178 35.9333 190.178 35.6597 190.114 35.3954C190.085 35.2773 190.029 35.1654 189.952 35.069C189.874 34.9726 189.774 34.898 189.657 34.8514C189.518 34.7954 189.366 34.7675 189.217 34.7706H188.693V36.8255H188.689Z" fill="white"/>
</svg>
