<svg width="224" height="50" viewBox="0 0 224 50" fill="none" xmlns="http://www.w3.org/2000/svg">
<g clip-path="url(#clip0_3275_2861)">
<path d="M92.8322 26.0405C92.774 28.1795 90.9867 30.0937 88.8203 30.4448C88.3995 30.5129 87.9781 30.5654 87.5491 30.5672C85.265 30.5141 83.4611 29.5764 82.1393 27.756C81.8401 27.3449 81.8612 27.0644 82.1841 26.8332C82.5377 26.5796 82.9131 26.649 83.197 27.045C84.3039 28.5869 85.8257 29.3209 87.7435 29.2984C89.9496 29.2734 91.5776 27.7204 91.5654 25.65C91.5533 23.4928 89.7641 21.5325 87.659 21.3694C86.5592 21.2844 85.5316 21.9804 85.0143 23.1611C84.6332 24.0301 84.7892 24.9366 85.4926 25.4882C86.2587 26.0898 87.1609 26.2454 88.1111 26.0211C88.4264 25.9468 88.695 25.7394 88.7468 25.3889C88.7992 25.0309 88.5715 24.8054 88.2927 24.6267C87.9705 24.4199 87.6117 24.3418 87.2287 24.3668C87.0081 24.3818 86.8776 24.4505 86.8949 24.7117C86.9224 25.1259 86.6647 25.3995 86.2727 25.4232C85.9166 25.4451 85.6691 25.2065 85.623 24.7979C85.5258 23.9339 86.1154 23.2536 87.1034 23.0893C88.1246 22.92 89.4623 23.6215 89.8811 24.5468C90.3537 25.59 89.752 26.7783 88.5313 27.195C87.4084 27.5785 86.3424 27.3218 85.3193 26.8582C83.5397 26.0511 82.9629 23.8939 84.1107 22.0835C85.3481 20.1318 87.613 19.5808 89.7628 20.7291C91.9012 21.8723 92.8955 23.6921 92.8322 26.0405Z" fill="white"/>
<path d="M97.1736 25.6051C97.0163 24.3544 96.5418 23.1893 95.8844 22.1079C94.8377 20.3836 93.4219 18.9524 91.9972 17.5324C91.8425 17.3781 91.65 17.2562 91.4652 17.1344C89.9158 16.1111 88.2066 15.9918 86.4417 16.3591C84.3059 16.8033 82.5257 17.8635 81.0531 19.4384C79.4621 21.1389 78.62 23.1224 78.5938 25.5388C78.6104 25.785 78.6308 26.138 78.6583 26.4903C78.6718 26.6558 78.6973 26.8208 78.7204 26.9857C79.1302 29.8632 80.6534 31.9791 83.2924 33.3148C84.9511 34.1544 86.7154 34.4031 88.5615 34.1325C91.3354 33.7259 93.7557 32.6438 95.6248 30.5516C96.889 29.1366 97.4063 27.4636 97.1736 25.6051ZM93.4155 30.0025C92.2933 31.0502 90.9051 31.5299 89.4394 31.8667C88.6727 32.0428 87.8958 32.1865 87.1131 32.2315C86.2237 32.2821 85.354 32.0984 84.524 31.7817C82.9989 31.2007 81.8172 30.2074 80.9207 28.878C80.287 27.9384 79.8969 26.9245 79.9136 25.3645C79.9986 23.8009 80.6234 22.0198 82.0692 20.5804C83.5335 19.1229 85.3112 18.2683 87.4066 18.0909C88.7265 17.9791 89.8525 18.4401 90.8277 19.276C92.8215 20.9846 94.1407 23.1287 94.8396 25.6007C95.3236 27.3099 94.7219 28.7837 93.4155 30.0025Z" fill="white"/>
<path d="M97.5285 32.5332C95.8531 35.2102 93.4245 36.802 90.281 37.3792C90.2183 37.3905 90.1563 37.4067 90.0943 37.4211C89.2553 37.5779 88.4055 37.626 87.5557 37.6828C86.0018 37.7865 84.5336 37.4517 83.1089 36.8769C80.2512 35.7237 78.0176 33.8982 76.6339 31.1563C75.9823 29.865 75.6402 28.4863 75.4496 27.0669C75.4164 26.8195 75.3908 26.5709 75.3531 26.3241C75.2923 25.9218 75.3825 25.8062 75.7981 25.73C76.0162 25.69 76.2233 25.7393 76.4292 25.7768C76.6339 25.8137 76.6652 25.9799 76.6786 26.1604C76.726 26.8026 76.7471 27.4486 76.898 28.0796C77.1793 29.2578 77.8559 30.2392 78.5618 31.1994C79.5351 32.5214 80.7634 33.5734 82.2527 34.3012C83.3577 34.8416 84.5426 35.1608 85.7754 35.3139C87.2283 35.4944 88.6619 35.4126 90.086 35.099C92.466 34.5198 94.5116 33.3604 96.2643 31.6948C96.7132 31.2682 97.1013 31.2906 97.4882 31.7698C97.6877 32.0178 97.7101 32.2434 97.5285 32.5332Z" fill="white"/>
<path d="M99.8246 27.8122C99.6494 28.2738 99.4537 28.3894 98.9831 28.2926C98.6576 28.2257 98.4076 27.9321 98.5086 27.5585C98.7938 26.499 98.4076 25.5419 98.0968 24.5773C97.4874 22.6869 96.7041 20.8659 95.4911 19.2603C94.2556 17.6267 92.634 16.4578 90.7259 15.6632C87.982 14.588 85.2797 14.7229 82.6196 15.9393C80.6309 16.8489 79.0732 18.237 77.9171 20.055C77.7611 20.3005 77.6671 20.5822 77.5302 20.8396C77.3441 21.1888 77.1843 21.2476 76.8044 21.1345C75.8632 20.854 75.766 20.6341 76.1439 19.7351C76.9573 17.7978 78.4286 16.4647 80.2389 15.4314C81.9136 14.4756 83.7265 13.9014 85.6295 13.6166C87.3502 13.3592 89.0806 13.3342 90.8001 13.679C92.0898 13.9146 93.2779 14.3681 94.3445 15.1403C96.6587 16.8158 98.1697 19.0292 99.0451 21.6855C99.3872 22.7225 99.7965 23.7427 99.9666 24.8254C100.124 25.8262 100.197 26.8307 99.8246 27.8122Z" fill="white"/>
<path d="M104.07 26.253C104.002 24.4331 103.492 22.7064 102.72 21.044C101.904 19.2854 101.021 17.5599 100.115 15.8469C99.2513 14.2139 98.0716 12.802 96.5331 11.7144C95.3693 10.891 94.1498 10.1444 92.9048 9.44475C91.8676 8.86126 90.7237 8.57264 89.5228 8.52453C88.1735 8.47081 86.8396 8.64073 85.5224 8.875C82.9902 9.3248 80.653 10.2838 78.5108 11.6719C75.2899 13.7591 72.7654 16.4492 71.1904 19.9295C70.567 21.3076 70.1775 22.752 70.0925 24.2645C70.0317 25.3471 70.2434 26.3948 70.5292 27.4337C71.3349 30.3587 72.5115 33.1168 74.3742 35.5632C75.8533 37.5055 77.668 39.0429 80.0199 39.8957C81.9658 40.601 83.982 40.9321 85.8025 40.8778C88.2209 40.9109 90.34 40.636 92.3575 39.8801C95.6186 38.6581 98.4297 36.7521 100.849 34.3007C103.061 32.0598 104.185 29.3766 104.07 26.253ZM100.921 26.1593C100.801 27.7023 100.507 29.2085 99.9739 30.6635C99.3223 32.4415 98.2551 33.9471 96.7946 35.1903C95.1084 36.6265 93.3198 37.9059 91.2218 38.7156C89.7536 39.2822 88.2464 39.6521 86.5986 39.514C84.943 39.4959 83.3124 39.1354 81.7528 38.4732C79.9413 37.7048 78.4578 36.4978 77.136 35.0928C74.905 32.7214 73.5986 29.9039 73.0666 26.7477C72.4457 23.0625 73.3198 19.749 75.8239 16.8902C76.6468 15.9513 77.622 15.1785 78.7148 14.5525C80.7508 13.3868 82.9646 12.7289 85.2851 12.3959C86.7393 12.1873 88.1972 12.0336 89.6743 12.1254C90.8925 12.201 92.0403 12.514 93.1241 13.0425C96.2184 14.5506 98.4392 16.8783 99.8441 19.9551C100.746 21.9317 101.09 24.0008 100.921 26.1593Z" fill="white"/>
<path d="M143.554 25.5088C143.554 26.2785 143.533 27.0494 143.56 27.8178C143.588 28.6493 144.145 29.2653 144.904 29.3702C145.928 29.5114 146.395 29.2428 146.746 28.3113C146.768 28.2526 146.788 28.1939 146.809 28.1352C147.309 26.7402 147.548 25.2964 147.608 23.8264C147.664 22.4652 147.685 21.1001 147.291 19.7707C147.057 18.978 146.785 18.1914 146.135 17.6211C144.853 16.4972 142.826 16.4916 141.511 17.5892C141.212 17.8391 140.923 18.1008 140.635 18.3645C140.514 18.4757 140.448 18.4757 140.343 18.332C139.493 17.1713 138.272 16.9682 136.937 17.1225C136.154 17.2125 135.503 17.6086 134.925 18.1096C134.712 18.2939 134.692 18.2102 134.655 18.0034C134.611 17.7616 134.529 17.5311 134.368 17.3274C133.745 16.5378 132.485 16.3273 131.497 16.8377C131.051 17.0682 130.848 17.3799 130.895 17.8916C130.999 19.0198 131.069 20.1512 131.14 21.2826C131.261 23.223 131.368 25.1646 131.49 27.105C131.511 27.4461 131.538 27.7934 131.626 28.122C131.844 28.9392 132.556 29.3752 133.596 29.3727C134.455 29.3702 134.97 28.9723 135.17 28.1595C135.321 27.5473 135.324 26.922 135.334 26.2991C135.355 25.1652 135.349 24.0314 135.359 22.8969C135.363 22.4502 135.464 22.0291 135.773 21.6811C136.207 21.1939 136.883 21.1801 137.332 21.6512C137.686 22.0216 137.73 22.4952 137.739 22.9624C137.765 24.3662 137.739 25.7706 137.858 27.1718C137.881 27.4511 137.9 27.7322 137.947 28.009C138.081 28.8017 138.727 29.2134 139.773 29.1847C140.637 29.1616 141.192 28.6818 141.304 27.8515C141.443 26.8176 141.416 25.7762 141.44 24.7373C141.46 23.8858 141.483 23.0318 141.735 22.2059C141.855 21.8142 142.216 21.5618 142.617 21.5737C142.992 21.5849 143.315 21.8386 143.418 22.2215C143.48 22.4521 143.536 22.6863 143.567 22.9225C143.679 23.7833 143.588 24.6461 143.553 25.5082L143.554 25.5088Z" fill="white"/>
<path d="M129.617 19.2228C129.617 18.5937 129.621 18.1252 129.615 17.6573C129.611 17.2843 129.439 16.985 129.112 16.8064C128.164 16.2872 126.704 16.3222 125.923 17.4373C125.482 18.0683 125.457 18.7843 125.45 19.5014C125.435 20.9808 125.329 22.452 125.061 23.9089C124.989 24.2968 124.96 24.6948 124.814 25.0659C124.649 25.4844 124.356 25.7755 123.878 25.803C123.399 25.8305 123.076 25.5775 122.86 25.1783C122.734 24.9453 122.659 24.696 122.646 24.4336C122.598 23.436 122.556 22.4383 122.511 21.4406C122.464 20.3804 122.416 19.3203 122.368 18.2601C122.344 17.7447 122.221 17.2587 121.785 16.9276C121.118 16.4215 120.37 16.3228 119.589 16.634C118.781 16.9557 118.311 17.5504 118.229 18.405C118.142 19.3059 118.075 20.2092 118.096 21.1151C118.133 22.7063 118.185 24.2987 118.672 25.8349C119.196 27.4898 120.272 28.6555 121.982 29.1978C123.041 29.5339 124.122 29.4708 125.203 29.2796C126.838 28.991 127.977 28.0908 128.668 26.6308C129.34 25.2102 129.56 23.6921 129.66 22.1503C129.727 21.1201 129.562 20.0918 129.617 19.2216L129.617 19.2228Z" fill="white"/>
<path d="M159.24 28.2457C158.834 27.3774 158.587 26.4671 158.564 25.5107C158.544 24.7104 158.559 23.9095 158.559 23.1086H158.557C158.557 22.2453 158.574 21.3813 158.552 20.5185C158.531 19.6795 158.375 18.8599 157.903 18.1402C157.158 17.002 156.076 16.4041 154.698 16.3247C153.231 16.2404 151.832 16.4528 150.584 17.2706C150.167 17.5436 149.848 17.8959 149.715 18.3863C149.419 19.4746 150.188 20.3923 151.231 20.183C151.458 20.1381 151.675 20.0437 151.894 19.9638C152.361 19.7926 152.819 19.5927 153.315 19.5121C154.309 19.3509 154.87 19.8651 154.804 20.8459C154.789 21.0664 154.716 21.1514 154.484 21.1614C153.555 21.2026 152.646 21.3563 151.779 21.698C150.057 22.3758 148.851 23.4903 148.582 25.3683C148.241 27.7472 150.165 29.7526 152.75 29.5302C153.658 29.4521 154.441 29.061 155.176 28.5737C155.423 28.4107 155.551 28.4282 155.743 28.6549C156.462 29.5077 157.705 29.8088 158.754 29.414C159.439 29.156 159.546 28.8973 159.24 28.2457ZM154.839 24.9841C154.626 25.7912 153.922 26.3247 153.2 26.326C152.606 26.3341 152.235 26.1717 152.047 25.7356C151.866 25.3164 151.989 24.9335 152.286 24.6167C152.744 24.1276 153.321 23.8683 154.009 23.8839C154.58 23.897 154.983 24.4374 154.839 24.9841Z" fill="white"/>
<path d="M108.389 21.6999C108.412 21.6999 108.434 21.6999 108.457 21.6999C108.457 22.9793 108.449 24.2594 108.46 25.5388C108.469 26.6358 108.778 27.6191 109.625 28.3975C110.371 29.0822 111.268 29.4027 112.266 29.5077C113.471 29.6345 114.67 29.5883 115.831 29.2453C116.81 28.9561 117.542 28.3776 117.758 27.3274C117.975 26.2716 117.356 25.5126 116.256 25.4963C115.935 25.4913 115.621 25.5294 115.308 25.6032C114.71 25.7437 114.122 25.938 113.492 25.8974C112.967 25.8637 112.75 25.6769 112.648 25.179C112.606 24.9722 112.605 24.766 112.602 24.5586C112.581 22.6032 112.623 20.6466 112.528 18.6925C112.491 17.9365 112.203 17.2731 111.541 16.8233C110.923 16.4035 110.216 16.3335 109.494 16.4191C108.801 16.5015 108.481 16.8539 108.403 17.5511C108.388 17.6854 108.39 17.821 108.389 17.9565C108.389 19.2047 108.389 20.4523 108.389 21.7005L108.389 21.6999Z" fill="white"/>
<path d="M112.372 38.1138C112.442 38.1963 112.499 38.2706 112.564 38.3381C113.325 39.1328 114.811 38.8972 115.248 37.9095C115.367 37.6428 115.436 37.361 115.479 37.0712C115.595 36.2921 115.538 35.5144 115.47 34.7372C115.443 34.4292 115.243 34.2474 114.955 34.2524C114.679 34.2574 114.474 34.4523 114.468 34.7641C114.46 35.2214 114.482 35.6787 114.486 36.1366C114.489 36.5826 114.525 37.0343 114.333 37.4579C114.115 37.9414 113.552 38.0014 113.236 37.5791C113.094 37.3898 113.032 37.1711 112.982 36.9468C112.829 36.2696 112.852 35.5831 112.856 34.8965C112.859 34.4798 112.66 34.2505 112.301 34.2474C111.973 34.2449 111.793 34.4479 111.788 34.8621C111.783 35.2882 111.806 35.7149 111.802 36.141C111.799 36.5776 111.787 37.0143 111.595 37.4241C111.481 37.6653 111.298 37.8008 111.026 37.8065C110.742 37.8121 110.544 37.6709 110.416 37.431C110.346 37.3004 110.319 37.158 110.292 37.0143C110.166 36.3396 110.301 35.6649 110.281 34.9902C110.265 34.4867 110.112 34.2655 109.78 34.2518C109.463 34.2387 109.293 34.4217 109.254 34.9202C109.181 35.863 109.101 36.81 109.408 37.7346C109.585 38.2669 109.928 38.6249 110.505 38.7542C111.266 38.9247 111.886 38.7167 112.371 38.1132L112.372 38.1138Z" fill="white"/>
<path d="M159.325 38.3026C159.329 37.2624 159.327 36.2223 159.327 35.1815H159.279V32.061C159.279 31.9142 159.283 31.7624 159.186 31.6418C159.031 31.4494 158.832 31.3369 158.572 31.4206C158.309 31.5062 158.173 31.6918 158.181 31.9629C158.202 32.6801 158.227 33.3973 158.256 34.1144C158.263 34.2869 158.247 34.3881 158.017 34.3437C157.69 34.2813 157.357 34.3331 157.035 34.4018C156.131 34.5942 155.514 35.2464 155.434 36.0792C155.286 37.5935 156.542 38.7212 158.093 38.4663C158.233 38.4438 158.36 38.3738 158.468 38.5669C158.609 38.8186 158.88 38.8674 159.139 38.7868C159.373 38.7143 159.323 38.4825 159.325 38.3026ZM158.213 37.5173C157.52 37.6816 156.479 37.3049 156.502 36.3716C156.515 35.8218 156.934 35.4145 157.571 35.3283C158.232 35.239 158.274 35.2739 158.274 35.9205V36.449C158.286 36.449 158.298 36.4497 158.309 36.4497C158.309 36.7402 158.311 37.0313 158.309 37.3224C158.308 37.398 158.341 37.4873 158.214 37.5173H158.213Z" fill="white"/>
<path d="M127.702 36.1435C127.576 34.9115 126.743 34.1431 125.296 34.1075C124.584 34.1013 123.823 34.3524 123.412 35.1877C123.051 35.9236 122.985 36.7051 123.221 37.4942C123.33 37.8602 123.551 38.1595 123.881 38.3819C124.528 38.8167 125.246 38.8792 125.987 38.7598C126.917 38.6099 127.484 38.0695 127.671 37.1649C127.741 36.8282 127.737 36.4883 127.702 36.1435ZM126.606 36.792C126.563 37.4635 126.131 37.8896 125.455 37.9308C124.788 37.9714 124.297 37.5891 124.165 36.9388C124.106 36.6483 124.106 36.3634 124.166 36.0742C124.333 35.2558 125.072 34.8509 125.879 35.1289C126.358 35.2939 126.52 35.67 126.594 36.1079C126.615 36.2303 126.609 36.3565 126.615 36.4808H126.606C126.606 36.5846 126.612 36.6889 126.606 36.792H126.606Z" fill="white"/>
<path d="M136.352 34.9091C136.352 34.5461 136.348 34.2557 136.354 33.9658C136.357 33.7527 136.244 33.6478 136.047 33.5916C135.595 33.4629 135.31 33.6515 135.304 34.1126C135.285 35.4851 135.322 36.857 135.386 38.2283C135.391 38.3301 135.413 38.4363 135.452 38.5306C135.55 38.768 135.728 38.8967 136.003 38.8468C136.392 38.7762 136.545 38.63 136.545 38.3226C136.547 37.6779 136.542 37.0332 136.547 36.3885C136.553 35.775 136.763 35.5213 137.366 35.3777C137.489 35.3483 137.615 35.3296 137.74 35.3052C138 35.2546 138.269 35.2402 138.514 35.129C138.695 35.0472 138.803 34.9047 138.791 34.7117C138.778 34.5174 138.652 34.3881 138.459 34.335C138.254 34.2788 138.046 34.2513 137.829 34.2769C137.302 34.3394 136.822 34.5087 136.352 34.9085L136.352 34.9091Z" fill="white"/>
<path d="M147.881 38.3688C147.875 38.3332 147.865 38.2819 147.858 38.2307C147.551 36.1591 147.369 34.0782 147.381 31.9835C147.381 31.911 147.386 31.8366 147.375 31.7654C147.332 31.4824 147.128 31.3019 146.862 31.305C146.595 31.3081 146.401 31.493 146.368 31.7823C146.359 31.8648 146.365 31.9485 146.365 32.0316C146.364 33.5521 146.462 35.0671 146.629 36.5777C146.699 37.2074 146.794 37.8352 146.888 38.4618C146.931 38.7448 147.156 38.9141 147.421 38.8923C147.687 38.8704 147.883 38.6536 147.88 38.3681L147.881 38.3688Z" fill="white"/>
<path d="M71.582 7.44989C71.5808 7.6017 71.6505 7.80911 71.7867 7.98653C72.4894 8.90175 73.3316 9.67266 74.3189 10.2899C74.5779 10.4517 74.8285 10.4236 75.0575 10.2418C75.2838 10.0619 75.3657 9.83009 75.2685 9.54709C75.209 9.37404 75.1029 9.23098 74.9724 9.11041C74.2799 8.47194 73.7306 7.72727 73.2433 6.93324C73.0093 6.55154 72.6614 6.43784 72.1966 6.55966C71.8244 6.65711 71.607 6.94824 71.582 7.44989Z" fill="white"/>
<path d="M92.2897 3.9334C92.291 3.47797 91.9297 3.05191 91.5167 2.98569C91.1304 2.92384 90.6809 3.21309 90.5466 3.63728C90.2614 4.53875 90.0382 5.45522 89.8618 6.38294C89.8419 6.48664 89.8515 6.58785 89.8861 6.68906C89.9954 7.01204 90.248 7.19633 90.6016 7.20445C90.9591 7.21257 91.2538 7.02641 91.3785 6.67594C91.674 5.8438 91.9566 5.0073 92.2412 4.17079C92.2712 4.08333 92.2789 3.989 92.2897 3.9334Z" fill="white"/>
<path d="M66.494 27.1825C65.8073 27.2175 65.1691 27.2431 64.5316 27.2862C64.1716 27.3106 63.8103 27.348 63.4733 27.4942C63.0685 27.6704 62.9093 28.0127 63.0461 28.4069C63.2149 28.893 63.6267 29.0754 64.3001 28.9854C65.3232 28.8486 66.2984 28.5007 67.3164 28.3376C67.615 28.2895 67.7768 28.0309 67.7493 27.7391C67.7173 27.4061 67.5069 27.1956 67.1795 27.1844C66.9353 27.1762 66.6897 27.1825 66.494 27.1825Z" fill="white"/>
<path d="M88.946 45.4681C89.0483 44.7047 88.8092 43.9707 88.6033 43.2316C88.4843 42.8049 88.1863 42.6787 87.7701 42.8755C87.4842 43.0111 87.3308 43.2397 87.3122 43.539C87.2553 44.4511 87.1952 45.3632 87.1683 46.2765C87.153 46.7982 87.6179 47.1249 88.1262 46.9937C88.2292 46.9675 88.3302 46.9325 88.4351 46.9156C88.7964 46.8581 88.9255 46.6145 88.9434 46.2978C88.9588 46.0285 88.9466 45.758 88.9466 45.4681H88.946Z" fill="white"/>
<path d="M65.3386 22.2909C66.0515 22.3152 66.5836 22.0579 67.1367 21.8823C67.3694 21.8086 67.5312 21.6637 67.5434 21.4188C67.5555 21.1807 67.4161 21.0158 67.2102 20.8965C67.0632 20.8109 66.9039 20.8065 66.7466 20.819C65.9332 20.8834 65.1621 20.7541 64.4261 20.398C64.1696 20.2743 63.8755 20.2568 63.6485 20.4742C63.245 20.8603 63.2341 21.758 63.9119 21.9798C64.4133 22.1441 64.8929 22.3933 65.3392 22.2909H65.3386Z" fill="white"/>
<path d="M69.5389 15.3301C69.961 15.3433 70.1567 15.1527 70.1503 14.836C70.1445 14.5405 69.9412 14.3899 69.7039 14.2837C69.0542 13.9926 68.4621 13.6115 67.9007 13.1842C67.6347 12.9818 67.391 12.7513 67.1206 12.5564C66.8168 12.3383 66.4741 12.3352 66.2304 12.5158C65.9689 12.71 65.866 13.0861 65.9791 13.4191C66.0495 13.6259 66.1818 13.7815 66.3666 13.8983C67.1014 14.3618 67.8725 14.756 68.6923 15.0546C68.9999 15.1671 69.3164 15.2577 69.5396 15.3301H69.5389Z" fill="white"/>
<path d="M82.3379 6.71835C82.3367 6.00116 82.1263 5.31272 82.0399 4.6074C82.0227 4.46497 81.9741 4.3244 81.9287 4.18696C81.7778 3.72904 81.2969 3.49539 80.809 3.63783C80.3831 3.76215 80.2137 4.12012 80.3518 4.61053C80.5494 5.30959 80.7508 6.00741 80.9471 6.7071C81.013 6.942 81.1179 7.15315 81.295 7.32558C81.5591 7.58234 81.9594 7.56047 82.1915 7.27997C82.329 7.1138 82.3111 6.90951 82.3373 6.71897L82.3379 6.71835Z" fill="white"/>
<path d="M97.0797 44.1231C97.3924 44.1156 97.6744 44.0301 97.8304 43.7452C97.9762 43.479 97.9404 43.2135 97.7748 42.9524C97.4729 42.477 97.1929 41.9878 96.8917 41.5118C96.6979 41.2057 96.5477 40.8664 96.2414 40.6384C96.0073 40.4647 95.7573 40.4191 95.5028 40.5747C95.2483 40.7303 95.1735 40.9608 95.2483 41.2475C95.4836 42.149 95.9191 42.9661 96.3757 43.7714C96.5163 44.0194 96.7785 44.1319 97.0797 44.1225V44.1231Z" fill="white"/>
<path d="M73.1843 42.0121C73.5449 42.0021 73.8429 41.8834 74.0642 41.6479C74.5495 41.1306 75.0611 40.6352 75.4831 40.0642C75.7063 39.7619 75.7152 39.5076 75.5176 39.3033C75.2849 39.0622 75.0157 39.0403 74.6857 39.2421C73.9625 39.6844 73.3 40.1998 72.6842 40.777C72.4585 40.9888 72.3683 41.2181 72.4732 41.5017C72.5826 41.7966 72.9055 42.009 73.1849 42.0121H73.1843Z" fill="white"/>
<path d="M67.209 34.9271C67.202 35.4756 67.7814 35.831 68.3191 35.6011C69.1108 35.2619 69.7899 34.7734 70.3551 34.1318C70.6122 33.84 70.6499 33.6551 70.4683 33.4127C70.3161 33.2103 69.9996 33.1366 69.7189 33.314C69.1242 33.6901 68.4809 33.9344 67.8063 34.1287C67.4207 34.2399 67.2142 34.5585 67.2097 34.9264L67.209 34.9271Z" fill="white"/>
<path d="M79.0898 44.4193C79.0898 44.8666 79.2714 45.0952 79.5931 45.1896C79.9103 45.2827 80.2735 45.1552 80.4404 44.8553C80.7083 44.3737 80.959 43.882 81.2077 43.3904C81.3318 43.1455 81.317 42.8962 81.1137 42.6975C80.8995 42.4889 80.5989 42.4533 80.3796 42.6176C79.7229 43.1105 79.3936 43.8295 79.0905 44.4187L79.0898 44.4193Z" fill="white"/>
<path d="M101.156 8.87364C101.153 8.55316 101.013 8.33888 100.751 8.22268C100.441 8.08461 100.138 8.13209 99.9005 8.37449C99.504 8.77993 99.1197 9.196 98.7405 9.61706C98.5397 9.84009 98.5423 10.0881 98.7175 10.3311C98.9144 10.6054 99.3409 10.6691 99.6568 10.4242C100.105 10.0756 100.528 9.69515 100.951 9.3172C101.086 9.19662 101.161 9.03107 101.156 8.87364Z" fill="white"/>
<path d="M160.694 16.2179C160.694 16.4241 160.694 16.5547 160.694 16.6852C160.694 16.7889 160.676 16.902 160.837 16.907C160.991 16.912 161.001 16.8158 160.999 16.7015C160.996 16.4322 160.998 16.1623 160.998 15.8931C160.998 15.8112 161.013 15.7144 160.908 15.6832C160.807 15.6538 160.72 15.695 160.655 15.775C160.55 15.9043 160.447 16.0343 160.327 16.1823C160.204 16.028 160.092 15.8912 159.984 15.7519C159.928 15.6794 159.862 15.6357 159.767 15.6576C159.66 15.6825 159.656 15.7656 159.656 15.8525C159.658 16.1323 159.656 16.4122 159.657 16.6921C159.657 16.7852 159.646 16.8833 159.793 16.887C159.952 16.8914 159.957 16.7914 159.957 16.6815C159.957 16.5528 159.957 16.4241 159.957 16.2579C160.215 16.5045 160.46 16.4911 160.693 16.2179H160.694Z" fill="white"/>
<path d="M159.371 15.7975C159.373 15.7256 159.336 15.6688 159.244 15.6682C158.937 15.6657 158.63 15.6657 158.324 15.6682C158.243 15.6682 158.177 15.6981 158.176 15.7931C158.175 15.8862 158.235 15.933 158.317 15.9187C158.684 15.8549 158.642 16.0936 158.636 16.3135C158.631 16.4684 158.636 16.624 158.635 16.7789C158.635 16.8701 158.649 16.9438 158.77 16.9401C158.888 16.937 158.905 16.862 158.906 16.7727C158.907 16.5971 158.918 16.4203 158.905 16.2454C158.888 16.0355 158.927 15.8974 159.189 15.9362C159.283 15.9499 159.356 15.918 159.372 15.7981L159.371 15.7975Z" fill="white"/>
<path d="M104.07 26.253C104.002 24.4331 103.492 22.7064 102.72 21.044C101.904 19.2854 101.021 17.5599 100.115 15.8469C99.2513 14.2139 98.0716 12.802 96.5331 11.7144C95.3693 10.891 94.1498 10.1444 92.9048 9.44475C91.8676 8.86126 90.7237 8.57264 89.5228 8.52453C88.1735 8.47081 86.8396 8.64073 85.5224 8.875C82.9902 9.3248 80.653 10.2838 78.5108 11.6719C75.2899 13.7591 72.7654 16.4492 71.1904 19.9295C70.567 21.3076 70.1775 22.752 70.0925 24.2645C70.0317 25.3471 70.2434 26.3948 70.5292 27.4337C71.3349 30.3587 72.5115 33.1168 74.3742 35.5632C75.8533 37.5055 77.668 39.0429 80.0199 39.8957C81.9658 40.601 83.982 40.9321 85.8025 40.8778C88.2209 40.9109 90.34 40.636 92.3575 39.8801C95.6186 38.6581 98.4297 36.7521 100.849 34.3007C103.061 32.0598 104.185 29.3766 104.07 26.253ZM100.921 26.1593C100.801 27.7023 100.507 29.2085 99.9739 30.6635C99.3223 32.4415 98.2551 33.9471 96.7946 35.1903C95.1084 36.6265 93.3198 37.9059 91.2218 38.7156C89.7536 39.2822 88.2464 39.6521 86.5986 39.514C84.943 39.4959 83.3124 39.1354 81.7528 38.4732C79.9413 37.7048 78.4578 36.4978 77.136 35.0928C74.905 32.7214 73.5986 29.9039 73.0666 26.7477C72.4457 23.0625 73.3198 19.749 75.8239 16.8902C76.6468 15.9513 77.622 15.1785 78.7148 14.5525C80.7508 13.3868 82.9646 12.7289 85.2851 12.3959C86.7393 12.1873 88.1972 12.0336 89.6743 12.1254C90.8925 12.201 92.0403 12.514 93.1241 13.0425C96.2184 14.5506 98.4392 16.8783 99.8441 19.9551C100.746 21.9317 101.09 24.0008 100.921 26.1593Z" fill="white"/>
<path d="M143.555 25.5088C143.59 24.6467 143.681 23.7839 143.569 22.9231C143.538 22.6869 143.481 22.4526 143.42 22.2221C143.317 21.8392 142.994 21.5849 142.619 21.5743C142.218 21.5624 141.857 21.8154 141.737 22.2065C141.484 23.0324 141.462 23.8864 141.442 24.7379C141.418 25.7768 141.445 26.8182 141.306 27.8521C141.194 28.6824 140.639 29.1622 139.775 29.1853C138.729 29.2134 138.083 28.8023 137.949 28.0096C137.902 27.7334 137.883 27.4523 137.86 27.1724C137.741 25.7712 137.768 24.3668 137.741 22.963C137.732 22.4958 137.688 22.0222 137.334 21.6518C136.885 21.1807 136.209 21.1945 135.775 21.6817C135.465 22.0297 135.365 22.4508 135.361 22.8974C135.35 24.0313 135.357 25.1658 135.336 26.2997C135.326 26.9219 135.323 27.5479 135.172 28.1601C134.972 28.9729 134.457 29.3708 133.598 29.3733C132.558 29.3758 131.846 28.9398 131.628 28.1226C131.54 27.794 131.513 27.4467 131.492 27.1056C131.371 25.1652 131.263 23.2236 131.142 21.2832C131.071 20.1524 131.002 19.021 130.897 17.8922C130.85 17.3811 131.053 17.0688 131.499 16.8382C132.487 16.3278 133.747 16.539 134.37 17.328C134.531 17.5317 134.613 17.7616 134.657 18.004C134.694 18.2108 134.714 18.2945 134.927 18.1102C135.505 17.6085 136.156 17.2131 136.939 17.1231C138.274 16.9694 139.495 17.1719 140.345 18.3326C140.451 18.4763 140.517 18.4763 140.637 18.3651C140.925 18.1021 141.214 17.8397 141.513 17.5898C142.828 16.4922 144.855 16.4978 146.137 17.6217C146.787 18.192 147.059 18.9786 147.293 19.7713C147.687 21.1007 147.666 22.4658 147.61 23.827C147.55 25.297 147.311 26.7408 146.811 28.1358C146.79 28.1945 146.77 28.2538 146.748 28.3119C146.397 29.2434 145.93 29.512 144.906 29.3708C144.147 29.2659 143.59 28.6499 143.562 27.8184C143.535 27.0494 143.556 26.2791 143.556 25.5094L143.555 25.5088Z" fill="white"/>
<path d="M129.617 19.2228C129.563 20.093 129.727 21.1207 129.66 22.1515C129.561 23.6933 129.34 25.2114 128.668 26.632C127.976 28.092 126.838 28.9922 125.203 29.2808C124.121 29.472 123.041 29.5351 121.982 29.199C120.272 28.6567 119.196 27.491 118.672 25.8361C118.186 24.3005 118.133 22.7075 118.096 21.1163C118.075 20.2105 118.142 19.3071 118.229 18.4063C118.311 17.5516 118.782 16.9569 119.589 16.6352C120.37 16.3241 121.118 16.4228 121.785 16.9288C122.221 17.2599 122.344 17.7459 122.368 18.2613C122.416 19.3215 122.463 20.3816 122.511 21.4418C122.556 22.4395 122.598 23.4372 122.646 24.4349C122.659 24.6972 122.734 24.9465 122.86 25.1795C123.076 25.5787 123.399 25.8317 123.878 25.8043C124.355 25.7768 124.649 25.4863 124.814 25.0671C124.96 24.696 124.99 24.2974 125.061 23.9101C125.329 22.4532 125.435 20.982 125.45 19.5027C125.457 18.7848 125.482 18.0689 125.923 17.4386C126.703 16.3234 128.163 16.2885 129.112 16.8076C129.439 16.9863 129.611 17.2855 129.615 17.6585C129.621 18.127 129.617 18.5956 129.617 19.224L129.617 19.2228Z" fill="white"/>
<path d="M159.24 28.2457C158.834 27.3774 158.587 26.4671 158.564 25.5107C158.544 24.7104 158.559 23.9095 158.559 23.1086H158.557C158.557 22.2453 158.574 21.3813 158.552 20.5185C158.531 19.6795 158.375 18.8599 157.903 18.1402C157.158 17.002 156.076 16.4041 154.698 16.3247C153.231 16.2404 151.832 16.4528 150.584 17.2706C150.167 17.5436 149.848 17.8959 149.715 18.3863C149.419 19.4746 150.188 20.3923 151.231 20.183C151.458 20.1381 151.675 20.0437 151.894 19.9638C152.361 19.7926 152.819 19.5927 153.315 19.5121C154.309 19.3509 154.87 19.8651 154.804 20.8459C154.789 21.0664 154.716 21.1514 154.484 21.1614C153.555 21.2026 152.646 21.3563 151.779 21.698C150.057 22.3758 148.851 23.4903 148.582 25.3683C148.241 27.7472 150.165 29.7526 152.75 29.5302C153.658 29.4521 154.441 29.061 155.176 28.5737C155.423 28.4107 155.551 28.4282 155.743 28.6549C156.462 29.5077 157.705 29.8088 158.754 29.414C159.439 29.156 159.546 28.8973 159.24 28.2457ZM154.839 24.9841C154.626 25.7912 153.922 26.3247 153.2 26.326C152.606 26.3341 152.235 26.1717 152.047 25.7356C151.866 25.3164 151.989 24.9335 152.286 24.6167C152.744 24.1276 153.321 23.8683 154.009 23.8839C154.58 23.897 154.983 24.4374 154.839 24.9841Z" fill="white"/>
<path d="M108.387 21.6998C108.387 20.4516 108.387 19.2041 108.387 17.9559C108.387 17.8209 108.386 17.6847 108.401 17.5504C108.479 16.8538 108.799 16.5009 109.492 16.4184C110.214 16.3328 110.92 16.4028 111.539 16.8226C112.201 17.2724 112.489 17.9359 112.526 18.6918C112.621 20.6459 112.58 22.6026 112.6 24.5579C112.602 24.766 112.603 24.9721 112.646 25.1783C112.748 25.6762 112.965 25.863 113.49 25.8967C114.12 25.9373 114.708 25.743 115.306 25.6025C115.62 25.5288 115.933 25.4907 116.254 25.4957C117.354 25.5119 117.974 26.2709 117.756 27.3267C117.54 28.3763 116.808 28.9554 115.829 29.2446C114.667 29.5876 113.469 29.6338 112.264 29.507C111.266 29.4021 110.369 29.081 109.623 28.3969C108.776 27.6185 108.466 26.6352 108.458 25.5381C108.447 24.2587 108.455 22.9786 108.455 21.6992C108.432 21.6992 108.41 21.6992 108.387 21.6992L108.387 21.6998Z" fill="white"/>
<path d="M112.371 38.1139C111.886 38.7173 111.266 38.9248 110.505 38.7548C109.927 38.6255 109.585 38.2675 109.408 37.7353C109.102 36.8113 109.181 35.8636 109.254 34.9209C109.292 34.423 109.463 34.2393 109.78 34.2524C110.112 34.2662 110.265 34.4873 110.28 34.9909C110.301 35.6649 110.165 36.3403 110.292 37.015C110.319 37.1593 110.345 37.3017 110.415 37.4317C110.544 37.6716 110.742 37.8127 111.026 37.8071C111.298 37.8015 111.481 37.6659 111.594 37.4248C111.786 37.015 111.798 36.5777 111.802 36.1416C111.806 35.7155 111.783 35.2889 111.788 34.8628C111.793 34.4492 111.972 34.2456 112.301 34.2481C112.66 34.2506 112.859 34.4805 112.856 34.8972C112.852 35.5831 112.829 36.2703 112.981 36.9475C113.032 37.1718 113.094 37.3904 113.235 37.5797C113.551 38.002 114.115 37.9421 114.333 37.4585C114.524 37.0343 114.489 36.5833 114.485 36.1372C114.482 35.6799 114.459 35.222 114.468 34.7647C114.474 34.453 114.679 34.2581 114.955 34.2531C115.243 34.2481 115.443 34.4292 115.47 34.7379C115.537 35.5156 115.595 36.2928 115.479 37.0718C115.436 37.3617 115.366 37.6434 115.248 37.9102C114.81 38.8985 113.325 39.1334 112.564 38.3388C112.499 38.2713 112.442 38.1963 112.371 38.1145L112.371 38.1139Z" fill="white"/>
<path d="M159.325 38.3026C159.329 37.2624 159.327 36.2223 159.327 35.1815H159.279V32.061C159.279 31.9142 159.283 31.7624 159.186 31.6418C159.031 31.4494 158.832 31.3369 158.572 31.4206C158.309 31.5062 158.173 31.6918 158.181 31.9629C158.202 32.6801 158.227 33.3973 158.256 34.1144C158.263 34.2869 158.247 34.3881 158.017 34.3437C157.69 34.2813 157.357 34.3331 157.035 34.4018C156.131 34.5942 155.514 35.2464 155.434 36.0792C155.286 37.5935 156.542 38.7212 158.093 38.4663C158.233 38.4438 158.36 38.3738 158.468 38.5669C158.609 38.8186 158.88 38.8674 159.139 38.7868C159.373 38.7143 159.323 38.4825 159.325 38.3026ZM158.213 37.5173C157.52 37.6816 156.479 37.3049 156.502 36.3716C156.515 35.8218 156.934 35.4145 157.571 35.3283C158.232 35.239 158.274 35.2739 158.274 35.9205V36.449C158.286 36.449 158.298 36.4497 158.309 36.4497C158.309 36.7402 158.311 37.0313 158.309 37.3224C158.308 37.398 158.341 37.4873 158.214 37.5173H158.213Z" fill="white"/>
<path d="M127.702 36.1435C127.576 34.9115 126.743 34.1431 125.296 34.1075C124.584 34.1013 123.823 34.3524 123.412 35.1877C123.051 35.9236 122.985 36.7051 123.221 37.4942C123.33 37.8602 123.551 38.1595 123.881 38.3819C124.528 38.8167 125.246 38.8792 125.987 38.7598C126.917 38.6099 127.484 38.0695 127.671 37.1649C127.741 36.8282 127.737 36.4883 127.702 36.1435ZM126.606 36.792C126.563 37.4635 126.131 37.8896 125.455 37.9308C124.788 37.9714 124.297 37.5891 124.165 36.9388C124.106 36.6483 124.106 36.3634 124.166 36.0742C124.333 35.2558 125.072 34.8509 125.879 35.1289C126.358 35.2939 126.52 35.67 126.594 36.1079C126.615 36.2303 126.609 36.3565 126.615 36.4808H126.606C126.606 36.5846 126.612 36.6889 126.606 36.792H126.606Z" fill="white"/>
<path d="M136.352 34.9091C136.822 34.5092 137.302 34.3399 137.829 34.2775C138.046 34.2518 138.253 34.2793 138.459 34.3356C138.652 34.388 138.778 34.5174 138.791 34.7123C138.803 34.9047 138.695 35.0477 138.514 35.1296C138.269 35.2408 138 35.2552 137.74 35.3058C137.615 35.3301 137.489 35.3489 137.366 35.3782C136.763 35.5219 136.553 35.7755 136.547 36.389C136.541 37.0337 136.547 37.6785 136.545 38.3232C136.544 38.6305 136.392 38.7767 136.003 38.8473C135.728 38.8973 135.551 38.7686 135.452 38.5312C135.413 38.4369 135.391 38.3307 135.386 38.2288C135.322 36.8576 135.285 35.4857 135.304 34.1132C135.31 33.6521 135.595 33.4634 136.047 33.5921C136.244 33.6484 136.358 33.7533 136.354 33.9663C136.348 34.2562 136.352 34.5467 136.352 34.9097L136.352 34.9091Z" fill="white"/>
<path d="M147.88 38.3688C147.884 38.6543 147.687 38.8711 147.421 38.893C147.155 38.9148 146.93 38.7455 146.888 38.4625C146.794 37.8353 146.7 37.2081 146.629 36.5783C146.462 35.0678 146.364 33.5528 146.365 32.0322C146.365 31.9491 146.359 31.8648 146.368 31.783C146.401 31.4937 146.595 31.3088 146.862 31.3057C147.128 31.3025 147.332 31.4831 147.375 31.7661C147.386 31.8373 147.381 31.9117 147.381 31.9841C147.368 34.0788 147.551 36.1598 147.858 38.2314C147.865 38.2826 147.874 38.3338 147.881 38.3694L147.88 38.3688Z" fill="white"/>
<path d="M71.582 7.44989C71.6063 6.94824 71.8244 6.65711 72.1966 6.55966C72.6614 6.43784 73.0093 6.55154 73.2433 6.93324C73.7306 7.72789 74.2799 8.47194 74.9724 9.11041C75.1029 9.23098 75.209 9.37404 75.2685 9.54709C75.3657 9.83009 75.2845 10.0619 75.0575 10.2418C74.8285 10.4236 74.5779 10.4517 74.3189 10.2899C73.3316 9.67203 72.4894 8.90175 71.7867 7.98653C71.6505 7.80911 71.5808 7.6017 71.582 7.44989Z" fill="white"/>
<path d="M92.2897 3.9334C92.2789 3.989 92.2712 4.08333 92.2412 4.17079C91.9566 5.00667 91.674 5.84318 91.3785 6.67594C91.2538 7.02703 90.9591 7.2132 90.6016 7.20445C90.248 7.19633 89.996 7.01204 89.8861 6.68905C89.8515 6.58722 89.8419 6.48664 89.8618 6.38294C90.0389 5.45522 90.2621 4.53875 90.5466 3.63728C90.6809 3.21309 91.1298 2.92384 91.5167 2.98569C91.9297 3.05191 92.291 3.47735 92.2897 3.9334Z" fill="white"/>
<path d="M66.494 27.1825C66.6897 27.1825 66.9353 27.1756 67.1795 27.1843C67.5063 27.1956 67.7173 27.4061 67.7493 27.7391C67.7774 28.0308 67.615 28.2895 67.3164 28.3376C66.299 28.5013 65.3238 28.8486 64.3001 28.9854C63.6267 29.0754 63.2149 28.893 63.0461 28.4069C62.9093 28.0127 63.0685 27.6704 63.4733 27.4942C63.8096 27.3474 64.1709 27.3105 64.5316 27.2862C65.1685 27.2437 65.8066 27.2181 66.494 27.1825Z" fill="white"/>
<path d="M88.9466 45.4681C88.9466 45.758 88.9588 46.0285 88.9434 46.2978C88.9255 46.6145 88.7964 46.8581 88.4351 46.9156C88.3309 46.9325 88.2292 46.9668 88.1262 46.9937C87.6179 47.1249 87.153 46.7982 87.1683 46.2765C87.1952 45.3632 87.2547 44.4511 87.3122 43.539C87.3308 43.2397 87.4842 43.0111 87.7701 42.8755C88.1863 42.6787 88.485 42.8049 88.6033 43.2316C88.8092 43.9707 89.0483 44.7041 88.946 45.4681H88.9466Z" fill="white"/>
<path d="M65.339 22.2909C64.8927 22.3933 64.4124 22.1434 63.9117 21.9798C63.2346 21.758 63.2448 20.8603 63.6483 20.4742C63.8753 20.2574 64.1694 20.2743 64.4259 20.398C65.1619 20.754 65.933 20.8827 66.7464 20.819C66.9044 20.8065 67.0636 20.8115 67.21 20.8965C67.4159 21.0164 67.5553 21.1814 67.5432 21.4188C67.531 21.663 67.3692 21.8086 67.1365 21.8823C66.584 22.0578 66.052 22.3146 65.3384 22.2909H65.339Z" fill="white"/>
<path d="M69.5376 15.3303C69.3145 15.2584 68.9986 15.1672 68.6904 15.0548C67.8706 14.7562 67.0994 14.3619 66.3647 13.8984C66.1799 13.7816 66.0475 13.626 65.9772 13.4192C65.864 13.0863 65.967 12.7102 66.2285 12.5159C66.4721 12.3353 66.8149 12.3378 67.1186 12.5565C67.3897 12.7514 67.6334 12.9819 67.8987 13.1843C68.4602 13.6117 69.0517 13.9921 69.702 14.2839C69.9392 14.3901 70.1426 14.5412 70.1483 14.8361C70.1547 15.1529 69.959 15.3434 69.537 15.3303H69.5376Z" fill="white"/>
<path d="M82.3392 6.71841C82.313 6.90957 82.3309 7.11386 82.1935 7.27941C81.9607 7.55991 81.5604 7.58177 81.2969 7.32501C81.1198 7.15259 81.0143 6.94143 80.9491 6.70654C80.7528 6.00684 80.5513 5.30903 80.3538 4.60996C80.2156 4.11955 80.3851 3.76159 80.811 3.63727C81.2989 3.49483 81.7804 3.72848 81.9306 4.1864C81.976 4.32384 82.024 4.4644 82.0419 4.60684C82.1282 5.31215 82.3386 6.0006 82.3399 6.71778L82.3392 6.71841Z" fill="white"/>
<path d="M97.0797 44.1231C96.7779 44.1318 96.5163 44.02 96.3757 43.772C95.9184 42.9667 95.4836 42.1496 95.2483 41.2481C95.1735 40.9613 95.2483 40.7308 95.5028 40.5753C95.7579 40.4191 96.008 40.4653 96.2414 40.639C96.5483 40.8664 96.6979 41.2062 96.8917 41.5123C97.1929 41.9884 97.4729 42.4769 97.7748 42.953C97.9404 43.2141 97.9762 43.4796 97.8304 43.7457C97.6744 44.0306 97.3924 44.1162 97.0797 44.1237V44.1231Z" fill="white"/>
<path d="M73.1849 42.0121C72.9055 42.0096 72.5826 41.7972 72.4732 41.5017C72.3683 41.2181 72.4585 40.9888 72.6842 40.777C73.3 40.1998 73.9631 39.6844 74.6857 39.2421C75.0157 39.0403 75.2849 39.0622 75.5176 39.3033C75.7152 39.5076 75.7063 39.7619 75.4831 40.0642C75.0611 40.6352 74.5495 41.1306 74.0642 41.6479C73.8429 41.8834 73.5449 42.0021 73.1843 42.0121H73.1849Z" fill="white"/>
<path d="M67.2077 34.9272C67.2122 34.5586 67.4187 34.2406 67.8043 34.1294C68.4789 33.9345 69.1222 33.6909 69.7169 33.3148C69.9976 33.1373 70.3142 33.2104 70.4664 33.4135C70.648 33.6559 70.6102 33.8408 70.3532 34.1325C69.7879 34.7741 69.1088 35.2627 68.3172 35.6019C67.78 35.8324 67.2007 35.4763 67.2071 34.9278L67.2077 34.9272Z" fill="white"/>
<path d="M79.0905 44.4193C79.3936 43.8308 79.7229 43.1111 80.3796 42.6182C80.5989 42.4539 80.8988 42.4895 81.1137 42.6982C81.3177 42.8962 81.3318 43.1455 81.2077 43.391C80.959 43.8827 80.7089 44.3743 80.4404 44.856C80.2735 45.1552 79.9103 45.2833 79.5931 45.1902C79.2714 45.0959 79.0898 44.8672 79.0898 44.4199L79.0905 44.4193Z" fill="white"/>
<path d="M101.155 8.87364C101.161 9.03107 101.086 9.19662 100.951 9.3172C100.528 9.69515 100.105 10.0756 99.6566 10.4242C99.3413 10.6697 98.9148 10.6054 98.7172 10.3311C98.5427 10.0881 98.5395 9.84009 98.7403 9.61706C99.1195 9.196 99.5038 8.77931 99.9002 8.37449C100.137 8.13209 100.44 8.08461 100.751 8.22268C101.013 8.33888 101.152 8.55316 101.155 8.87364Z" fill="white"/>
<path d="M160.693 16.2179C160.46 16.4911 160.214 16.5045 159.957 16.2579C159.957 16.4241 159.957 16.5528 159.957 16.6815C159.957 16.7914 159.952 16.8914 159.793 16.887C159.646 16.8833 159.658 16.7852 159.657 16.6921C159.656 16.4122 159.657 16.1323 159.656 15.8525C159.656 15.7656 159.66 15.6825 159.767 15.6576C159.862 15.6357 159.927 15.6794 159.984 15.7519C160.091 15.8918 160.204 16.028 160.327 16.1823C160.446 16.0343 160.55 15.9037 160.655 15.775C160.72 15.6957 160.807 15.6538 160.908 15.6832C161.013 15.7138 160.998 15.8106 160.998 15.8931C160.998 16.163 160.996 16.4322 160.999 16.7015C161 16.8164 160.99 16.912 160.837 16.907C160.676 16.902 160.694 16.7889 160.694 16.6852C160.694 16.5547 160.694 16.4235 160.694 16.2179H160.693Z" fill="white"/>
<path d="M159.372 15.7975C159.356 15.9181 159.283 15.95 159.189 15.9356C158.928 15.8969 158.889 16.0356 158.905 16.2448C158.918 16.4198 158.907 16.5966 158.906 16.7721C158.906 16.8621 158.888 16.9364 158.77 16.9395C158.649 16.9427 158.634 16.8696 158.635 16.7784C158.636 16.6234 158.631 16.4679 158.636 16.3129C158.642 16.093 158.684 15.8538 158.317 15.9181C158.235 15.9325 158.175 15.8856 158.176 15.7925C158.177 15.6976 158.243 15.6682 158.324 15.6676C158.63 15.6651 158.937 15.6651 159.244 15.6676C159.336 15.6682 159.373 15.7251 159.371 15.7969L159.372 15.7975Z" fill="white"/>
<path d="M97.1736 25.6051C97.0163 24.3544 96.5418 23.1893 95.8844 22.1079C94.8377 20.3836 93.4219 18.9524 91.9972 17.5324C91.8425 17.3781 91.65 17.2562 91.4652 17.1344C89.9158 16.1111 88.2066 15.9918 86.4417 16.3591C84.3059 16.8033 82.5257 17.8635 81.0531 19.4384C79.4621 21.1389 78.62 23.1224 78.5938 25.5388C78.6104 25.785 78.6308 26.138 78.6583 26.4903C78.6718 26.6558 78.6973 26.8208 78.7204 26.9857C79.1302 29.8632 80.6534 31.9791 83.2924 33.3148C84.9511 34.1544 86.7154 34.4031 88.5615 34.1325C91.3354 33.7259 93.7557 32.6438 95.6248 30.5516C96.889 29.1366 97.4063 27.4636 97.1736 25.6051ZM93.4155 30.0025C92.2933 31.0502 90.9051 31.5299 89.4394 31.8667C88.6727 32.0428 87.8958 32.1865 87.1131 32.2315C86.2237 32.2821 85.354 32.0984 84.524 31.7817C82.9989 31.2007 81.8172 30.2074 80.9207 28.878C80.287 27.9384 79.8969 26.9245 79.9136 25.3645C79.9986 23.8009 80.6234 22.0198 82.0692 20.5804C83.5335 19.1229 85.3112 18.2683 87.4066 18.0909C88.7265 17.9791 89.8525 18.4401 90.8277 19.276C92.8215 20.9846 94.1407 23.1287 94.8396 25.6007C95.3236 27.3099 94.7219 28.7837 93.4155 30.0025Z" fill="white"/>
<path d="M90.0943 37.4211C89.2553 37.5779 88.4055 37.626 87.5557 37.6828C86.0018 37.7865 84.5336 37.4517 83.1089 36.8769C80.2512 35.7237 78.0176 33.8982 76.6339 31.1563C75.9823 29.865 75.6402 28.4863 75.4496 27.0669C75.4164 26.8195 75.3908 26.5709 75.3531 26.3241C75.2923 25.9218 75.3825 25.8062 75.7981 25.73C76.0162 25.69 76.2233 25.7393 76.4292 25.7768C76.6339 25.8137 76.6652 25.9799 76.6786 26.1604C76.726 26.8026 76.7471 27.4486 76.898 28.0796C77.1793 29.2578 77.8559 30.2392 78.5618 31.1994C79.5351 32.5214 80.7634 33.5734 82.2527 34.3012C83.3577 34.8416 84.5426 35.1608 85.7754 35.3139C87.2283 35.4944 88.6619 35.4126 90.086 35.099C90.0885 35.873 90.0911 36.647 90.0943 37.4211Z" fill="white"/>
<path d="M99.8253 27.8122C99.6501 28.2739 99.4544 28.3894 98.9838 28.2926C98.6583 28.2258 98.4083 27.9321 98.5093 27.5586C98.7945 26.499 98.4083 25.542 98.0975 24.5774C97.4881 22.687 96.7048 20.8659 95.4917 19.2603C94.2563 17.6267 92.6347 16.4578 90.7266 15.6632C90.8302 15.0047 90.7138 14.3381 90.8007 13.6791C92.0905 13.9146 93.2786 14.3681 94.3452 15.1403C96.6594 16.8158 98.1704 19.0292 99.0458 21.6855C99.3879 22.7226 99.7971 23.7427 99.9672 24.8254C100.125 25.8262 100.198 26.8308 99.8253 27.8122Z" fill="white"/>
<path d="M90.7259 15.6632C87.982 14.588 85.2797 14.7229 82.6196 15.9393C80.6309 16.8489 79.0732 18.237 77.9171 20.055C77.7611 20.3005 77.6671 20.5822 77.5302 20.8396C77.3441 21.1888 77.1843 21.2476 76.8044 21.1345C75.8632 20.854 75.766 20.6341 76.1439 19.7351C76.9573 17.7978 78.4286 16.4647 80.2389 15.4314C81.9136 14.4756 83.7265 13.9014 85.6295 13.6166C87.3502 13.3592 89.0806 13.3342 90.8001 13.679C90.7131 14.3381 90.8295 15.0047 90.7259 15.6632Z" fill="white"/>
<path d="M97.5285 32.5332C95.8531 35.2102 93.4245 36.802 90.281 37.3792C90.2183 37.3905 90.1563 37.4067 90.0943 37.4211C90.0911 36.647 90.0885 35.873 90.0859 35.099C92.466 34.5198 94.5116 33.3604 96.2643 31.6948C96.7132 31.2682 97.1013 31.2906 97.4882 31.7698C97.6877 32.0178 97.7101 32.2433 97.5285 32.5332Z" fill="white"/>
<path d="M92.8322 26.0405C92.774 28.1795 90.9867 30.0937 88.8203 30.4448C88.3995 30.5129 87.9781 30.5654 87.5491 30.5672C85.265 30.5141 83.4611 29.5764 82.1393 27.756C81.8401 27.3449 81.8612 27.0644 82.1841 26.8332C82.5377 26.5796 82.9131 26.649 83.197 27.045C84.3039 28.5869 85.8257 29.3209 87.7435 29.2984C89.9496 29.2734 91.5776 27.7204 91.5654 25.65C91.5533 23.4928 89.7641 21.5325 87.659 21.3694C86.5592 21.2844 85.5316 21.9804 85.0143 23.1611C84.6332 24.0301 84.7892 24.9366 85.4926 25.4882C86.2587 26.0898 87.1609 26.2454 88.1111 26.0211C88.4264 25.9468 88.695 25.7394 88.7468 25.3889C88.7992 25.0309 88.5715 24.8054 88.2927 24.6267C87.9705 24.4199 87.6117 24.3418 87.2287 24.3668C87.0081 24.3818 86.8776 24.4505 86.8949 24.7117C86.9224 25.1259 86.6647 25.3995 86.2727 25.4232C85.9166 25.4451 85.6691 25.2065 85.623 24.7979C85.5258 23.9339 86.1154 23.2536 87.1034 23.0893C88.1246 22.92 89.4623 23.6215 89.8811 24.5468C90.3537 25.59 89.752 26.7783 88.5313 27.195C87.4084 27.5785 86.3424 27.3218 85.3193 26.8582C83.5397 26.0511 82.9629 23.8939 84.1107 22.0835C85.3481 20.1318 87.613 19.5808 89.7628 20.7291C91.9012 21.8723 92.8955 23.6921 92.8322 26.0405Z" fill="white"/>
</g>
<defs>
<clipPath id="clip0_3275_2861">
<rect width="98" height="44.0449" fill="white" transform="translate(63 2.97752)"/>
</clipPath>
</defs>
</svg>
