<svg width="224" height="50" viewBox="0 0 224 50" fill="none" xmlns="http://www.w3.org/2000/svg">
<g clip-path="url(#clip0_3275_3145)">
<path d="M184.996 32.8676C184.879 33.0134 184.725 33.0634 184.541 33.0579C183.631 33.0306 182.722 33.0445 181.812 33.0512C181.438 33.0538 181.333 32.9437 181.333 32.5624C181.333 30.9585 181.336 29.3549 181.341 27.751C181.342 27.3017 181.467 26.8747 181.595 26.4489C181.706 26.0795 181.815 25.7091 181.921 25.3385C181.985 25.1157 181.92 25.0138 181.697 24.9676C181.549 24.9371 181.407 24.9673 181.267 25.0048C181.136 25.0402 181.097 25.1457 181.101 25.2758C181.116 25.7013 181.084 26.1251 181.044 26.5483C180.9 28.0563 180.537 29.4972 179.706 30.7865C178.821 32.1592 177.556 32.9437 175.937 33.1682C174.866 33.3169 173.797 33.3428 172.735 33.1087C170.432 32.601 168.834 31.2309 167.877 29.1007C167.506 28.2759 167.323 27.3967 167.213 26.5012C167.137 25.8869 167.085 25.2711 167.107 24.6522C167.213 21.7991 168.375 19.5103 170.784 17.9178C171.979 17.128 173.315 16.7409 174.747 16.6723C176.408 16.5927 177.979 16.9299 179.452 17.6895C181.276 18.6294 182.364 20.1525 182.881 22.1078C182.996 22.5435 182.856 22.714 182.404 22.6908C181.63 22.651 180.856 22.6736 180.083 22.6725C179.947 22.6725 179.812 22.6809 179.676 22.6757C179.394 22.6649 179.282 22.5775 179.19 22.3077C179.171 22.2528 179.155 22.197 179.139 22.1415C178.829 21.0872 178.122 20.4223 177.081 20.1281C175.971 19.8147 174.849 19.7938 173.728 20.0938C172.365 20.4584 171.495 21.3323 171.123 22.6768C170.666 24.3243 170.68 25.9781 171.17 27.6203C171.606 29.0795 172.644 29.8983 174.163 30.0375C174.808 30.0964 175.44 30.0717 176.062 29.9082C177.278 29.5884 178.04 28.8242 178.284 27.5773C178.308 27.455 178.316 27.3278 178.315 27.2032C178.312 26.9282 178.211 26.8131 177.935 26.7948C177.723 26.7806 177.509 26.7928 177.296 26.7957C176.561 26.8059 175.826 26.7736 175.09 26.8059C174.711 26.8224 174.592 26.6909 174.593 26.3049C174.594 25.7155 174.595 25.1262 174.593 24.5372C174.591 24.1422 174.684 24.0419 175.089 24.0419C176.347 24.0414 177.605 24.0446 178.864 24.0469C180.248 24.0495 181.632 24.053 183.016 24.055C183.357 24.0556 183.692 24.0934 184.011 24.2197C184.541 24.4291 184.856 24.8122 184.939 25.3792C184.946 25.4265 184.944 25.4762 184.993 25.5047L184.996 32.8685L184.996 32.8676Z" fill="white"/>
<path d="M39.0059 24.4042C39.0346 24.4048 39.0634 24.4056 39.0921 24.4062C38.9533 24.579 39.1053 24.7509 39.0937 24.9231C39.0545 24.9289 39.0252 24.949 39.006 24.9835C39.006 24.7907 39.0059 24.5973 39.0059 24.4042Z" fill="white"/>
<path d="M54.7493 9.25514C54.9203 9.23888 55.0914 9.23888 55.2616 9.25544C55.6268 9.30104 55.9449 9.45906 56.2296 9.68359C56.381 9.80297 56.5216 9.93717 56.6591 10.0731C57.4845 10.889 58.3071 11.7076 59.1352 12.5209C59.9804 13.3511 61.2033 13.3302 62.0053 12.491C62.4734 12.001 62.9651 11.538 63.4669 11.0837C63.7323 10.8434 63.9704 10.5768 64.1951 10.2971C64.5468 9.85933 64.958 9.49769 65.5313 9.38557C66.4152 9.21274 67.1533 9.49536 67.7577 10.1405C68.247 10.6628 68.7378 11.1836 69.2602 11.673C69.5496 11.944 69.8448 12.2093 70.1417 12.4715C70.9736 13.2064 71.0773 14.2957 70.3828 15.1639C70.2025 15.3893 69.9919 15.5921 69.7872 15.7972C69.1179 16.4679 68.4448 17.1348 67.7731 17.8032C67.5393 18.0358 67.3262 18.2839 67.1674 18.5758C66.8472 19.1652 66.8439 19.7545 67.1578 20.3462C67.2993 20.6132 67.4876 20.845 67.6989 21.0599C68.4441 21.8189 69.1891 22.5782 69.9321 23.3398C70.1753 23.5894 70.4037 23.8517 70.5955 24.1442C70.8684 24.5604 70.9263 25.0034 70.7583 25.471C70.5943 25.9282 70.3748 26.3416 70.0052 26.6852C69.2263 27.4091 68.4786 28.166 67.7166 28.9079C67.4945 29.1243 67.2532 29.3166 66.9804 29.4679C66.5619 29.7003 66.1207 29.7581 65.6641 29.6201C65.2057 29.4816 64.7978 29.2614 64.4569 28.9073C63.6655 28.0856 62.8722 27.265 62.0459 26.4772C62.0037 26.4371 61.9613 26.3976 61.9192 26.3578C61.2036 25.6842 60.3702 25.6049 59.537 26.1327C59.2001 26.3462 58.9129 26.621 58.6199 26.8874C57.796 27.6359 57.0501 28.4614 56.2771 29.2602C56.0215 29.5243 55.7625 29.7848 55.5038 30.0457C55.4495 30.1006 55.3926 30.1537 55.3322 30.2017C55.092 30.3919 54.9119 30.3948 54.685 30.1953C54.533 30.0614 54.3947 29.9112 54.2535 29.7654C53.1703 28.6468 52.0531 27.5616 50.9458 26.4671C50.7523 26.2756 50.5387 26.1092 50.2927 25.9901C49.7235 25.7142 49.1565 25.7179 48.5931 26.0087C48.341 26.1388 48.1276 26.3178 47.9272 26.5164C47.0694 27.3678 46.2113 28.2189 45.3501 29.0668C44.9249 29.4854 44.4225 29.7198 43.8116 29.6858C43.3701 29.6611 42.975 29.5057 42.6493 29.2175C41.8959 28.5515 41.1721 27.8535 40.4945 27.1099C40.3588 26.9609 40.2042 26.8275 40.0569 26.696C39.5188 26.2149 39.241 25.6087 39.0923 24.9241C39.1042 24.751 38.9519 24.579 39.0907 24.4062C39.1624 24.1433 39.341 23.9527 39.5323 23.7753C40.3396 23.0256 41.1501 22.279 41.9063 21.477C42.158 21.2101 42.3938 20.9278 42.6467 20.6617C43.3448 19.9282 43.1859 18.893 42.6843 18.2781C42.3534 17.8726 41.9954 17.4941 41.5788 17.174C41.5253 17.133 41.4654 17.0956 41.4248 17.0436C40.9816 16.4777 40.4313 16.0156 39.931 15.5052C39.761 15.3318 39.6024 15.1503 39.4797 14.9408C39.0691 14.2402 39.086 13.548 39.5305 12.868C39.7064 12.5988 39.9402 12.3803 40.1682 12.1575C40.8593 11.4822 41.5597 10.8161 42.2107 10.1013C42.3272 9.97348 42.4607 9.85933 42.5946 9.74895C43.2419 9.21622 43.9826 9.17265 44.7617 9.34693C44.8059 9.35681 44.8486 9.38818 44.8837 9.41868C45.088 9.59616 45.3111 9.75795 45.4878 9.96012C45.7714 10.2843 46.1203 10.5428 46.3833 10.8879C46.4917 11.0299 46.666 11.1206 46.7851 11.2565C47.1672 11.6919 47.5821 12.0939 48.0049 12.4887C48.3143 12.7774 48.6606 12.9993 49.0778 13.0914C49.6198 13.2114 50.111 13.0763 50.5649 12.7751C50.8576 12.5811 51.0929 12.3225 51.34 12.0788C52.0624 11.3663 52.7794 10.6482 53.4993 9.9334C53.8492 9.58599 54.2473 9.32457 54.7493 9.25514ZM56.9948 19.4359C57.005 19.6767 57.0083 19.8783 57.0458 20.0793C57.3234 21.5607 58.6204 22.9375 60.5401 22.8396C61.56 22.7877 62.4185 22.388 63.0523 21.5854C63.6978 20.7677 63.886 19.8179 63.7237 18.7995C63.6497 18.3359 63.4747 17.9045 63.1708 17.5403C62.7701 17.0601 62.2872 16.6814 61.7288 16.3932C60.7422 15.884 58.9019 16.1419 58.099 16.9808C57.4166 17.6942 56.9922 18.4785 56.9948 19.4359ZM48.8767 17.5987C48.875 17.5987 48.8732 17.5987 48.8715 17.5987C48.8715 17.8499 48.871 18.1009 48.8717 18.3522C48.8736 18.9366 48.8498 18.9578 48.275 18.9549C47.6847 18.952 47.0942 18.9497 46.5039 18.9601C46.1551 18.9662 45.9762 19.1376 45.9673 19.4374C45.9572 19.7694 46.1147 19.9361 46.4764 19.9718C46.5531 19.9794 46.6312 19.9762 46.7085 19.9762C47.2891 19.9762 47.8698 19.9744 48.4504 19.9756C48.8022 19.9762 48.8719 20.0468 48.8729 20.4023C48.8745 21.0013 48.8727 21.6002 48.8752 22.1992C48.8755 22.3049 48.8761 22.4141 48.9011 22.5155C48.9593 22.7505 49.1493 22.8838 49.3956 22.8806C49.644 22.8774 49.8162 22.7421 49.869 22.4951C49.893 22.3824 49.9096 22.2657 49.9104 22.1507C49.9134 21.5906 49.9101 21.0303 49.9087 20.4703C49.9087 20.4026 49.9011 20.3346 49.9072 20.2678C49.9249 20.0729 50.0007 19.9974 50.2002 19.9768C50.2769 19.9689 50.355 19.973 50.4323 19.973C50.9839 19.9739 51.5355 19.9739 52.0871 19.977C52.2138 19.9776 52.3393 19.971 52.4607 19.9361C52.7192 19.8617 52.8542 19.6456 52.8114 19.3813C52.7683 19.1141 52.5763 18.9656 52.239 18.9589C51.8422 18.9508 51.4455 18.954 51.0487 18.9537C50.7777 18.9537 50.5067 18.9624 50.2359 18.9546C50.007 18.9479 49.9271 18.8625 49.9067 18.6362C49.9024 18.5883 49.9035 18.5398 49.9038 18.4916C49.9059 17.9313 49.9066 17.3712 49.9123 16.8109C49.9137 16.6642 49.8994 16.5204 49.857 16.3819C49.7971 16.1867 49.6573 16.0804 49.4537 16.0595C49.1144 16.0243 48.8983 16.198 48.8802 16.5556C48.8625 16.9024 48.8766 17.251 48.8767 17.5987Z" fill="white"/>
<path d="M159.943 24.0554C161.163 24.0554 162.382 24.0554 163.602 24.0554C163.873 24.0554 164.143 24.0601 164.411 24.1129C165.1 24.2489 165.587 24.7397 165.707 25.4304C165.744 25.6401 165.762 25.8507 165.762 26.0645C165.762 28.1906 165.765 30.3164 165.767 32.4425C165.767 32.9836 165.687 33.0562 165.143 33.0533C164.34 33.049 163.536 33.0519 162.733 33.0516C162.626 33.0516 162.52 33.0556 162.413 33.049C162.194 33.0353 162.099 32.9485 162.065 32.7359C162.056 32.6789 162.058 32.6203 162.058 32.5625C162.059 31.1517 162.06 29.7407 162.062 28.33C162.063 27.6108 162.153 26.9065 162.394 26.2242C162.494 25.9425 162.568 25.652 162.652 25.3651C162.725 25.1202 162.641 24.9976 162.383 24.979C162.287 24.9721 162.188 24.9747 162.093 24.9889C161.896 25.0183 161.818 25.1077 161.829 25.3014C161.856 25.8338 161.807 26.3628 161.746 26.8891C161.624 27.93 161.379 28.9411 160.936 29.8964C160.339 31.1848 159.458 32.1985 158.125 32.7716C157.542 33.0222 156.932 33.1524 156.303 33.2221C155.83 33.2746 155.357 33.2854 154.883 33.2764C151.705 33.2154 149.125 31.2139 148.273 28.1514C148.008 27.1969 147.884 26.2239 147.856 25.2352C147.828 24.2439 147.896 23.2616 148.211 22.3185C149.2 19.3637 151.151 17.427 154.268 16.8362C156.088 16.4912 157.905 16.6341 159.616 17.3933C161.725 18.3297 163.088 19.9263 163.631 22.1878C163.649 22.2622 163.666 22.3397 163.665 22.4152C163.663 22.5703 163.598 22.6415 163.442 22.6676C163.376 22.6787 163.307 22.6787 163.24 22.6787C162.301 22.6772 161.362 22.6758 160.423 22.6726C160.064 22.6714 160.037 22.6511 159.937 22.3098C159.572 21.0646 158.764 20.2964 157.481 20.0411C156.531 19.852 155.581 19.8235 154.631 20.0385C153.292 20.3414 152.405 21.1611 151.949 22.4376C151.556 23.537 151.471 24.6784 151.566 25.8368C151.62 26.4833 151.72 27.1208 151.934 27.736C152.429 29.1543 153.425 29.9211 154.926 30.0416C155.638 30.0988 156.341 30.0416 157.023 29.8438C158.337 29.463 158.947 28.5019 159.061 27.2788C159.089 26.9794 158.95 26.8266 158.651 26.7912C158.575 26.7822 158.496 26.7845 158.419 26.7874C157.549 26.8208 156.678 26.7897 155.808 26.7955C155.412 26.7981 155.306 26.693 155.324 26.2928C155.35 25.7328 155.368 25.1734 155.318 24.614C155.309 24.5178 155.317 24.4225 155.344 24.3273C155.389 24.1698 155.489 24.0801 155.647 24.0542C155.713 24.0432 155.782 24.0365 155.849 24.0365C157.214 24.0357 158.579 24.0357 159.944 24.0357C159.944 24.0426 159.944 24.0493 159.944 24.0563L159.943 24.0554Z" fill="white"/>
<path d="M116.888 16.923C117.827 16.923 118.766 16.9131 119.704 16.9256C120.682 16.9386 121.657 16.9898 122.615 17.2105C123.278 17.3633 123.923 17.5718 124.506 17.9262C125.873 18.7575 126.554 19.9837 126.48 21.578C126.414 23.0146 125.702 24.0338 124.341 24.5694C123.844 24.7649 123.329 24.8886 122.802 24.9717C122.417 25.0324 122.213 25.4553 122.391 25.807C122.441 25.9034 122.53 25.9432 122.628 25.9534C122.743 25.9653 122.859 25.9624 122.976 25.9627C123.614 25.9641 124.253 25.9647 124.892 25.9653C125.117 25.9653 125.335 26.0042 125.547 26.0751C126.194 26.2912 126.54 26.7507 126.618 27.417C126.683 27.9654 126.664 28.5169 126.666 29.0673C126.671 30.2268 126.666 31.3863 126.665 32.5455C126.665 32.5841 126.666 32.6228 126.664 32.6614C126.651 32.946 126.557 33.0427 126.274 33.0445C125.712 33.0483 125.151 33.0451 124.589 33.0459C124.192 33.0465 123.795 33.052 123.399 33.0494C123.069 33.0474 122.968 32.9492 122.965 32.6132C122.96 31.9658 122.963 31.3183 122.963 30.6712C122.964 29.8016 122.967 28.9323 122.968 28.0627C122.968 27.9662 122.97 27.8689 122.962 27.7731C122.942 27.5459 122.854 27.4489 122.634 27.3903C122.52 27.3598 122.404 27.3653 122.289 27.3667C121.292 27.3772 120.295 27.3926 119.299 27.3943C118.631 27.3958 117.964 27.3775 117.296 27.3685C117.229 27.3676 117.16 27.365 117.093 27.3696C116.784 27.392 116.676 27.4948 116.663 27.7989C116.654 27.9918 116.665 28.1852 116.666 28.3784C116.669 29.7406 116.671 31.1031 116.674 32.4653C116.674 32.4944 116.676 32.5234 116.675 32.5522C116.664 32.9353 116.546 33.0558 116.165 33.0552C115.545 33.0541 114.926 33.0445 114.306 33.0427C114.035 33.0419 113.764 33.0552 113.493 33.0552C113.094 33.0552 112.969 32.9347 112.965 32.5403C112.961 32.1249 112.968 31.7093 112.967 31.2939C112.966 26.9171 112.965 22.54 112.963 18.1632C112.963 17.912 112.957 17.6607 112.961 17.4098C112.967 17.0133 113.069 16.9096 113.461 16.9087C114.603 16.9064 115.745 16.9079 116.887 16.9079C116.887 16.9128 116.887 16.9174 116.887 16.9224L116.888 16.923ZM116.661 22.1197C116.661 22.1197 116.664 22.1197 116.665 22.1197C116.665 22.3512 116.666 22.583 116.665 22.8145C116.664 23.1427 116.654 23.4709 116.665 23.7988C116.673 24.0623 116.782 24.1572 117.045 24.1697C117.103 24.1723 117.161 24.1697 117.219 24.168C117.902 24.143 118.587 24.1967 119.27 24.1154C119.556 24.0814 119.85 24.1183 120.14 24.1154C120.545 24.1116 120.952 24.127 121.355 24.0579C121.737 23.9926 122.096 23.868 122.342 23.5604C122.827 22.9551 122.989 22.2687 122.729 21.5237C122.476 20.7964 121.94 20.3753 121.191 20.2254C120.783 20.1438 120.366 20.1232 119.951 20.1191C119.003 20.1101 118.056 20.115 117.108 20.1159C116.742 20.1159 116.663 20.1943 116.662 20.5562C116.661 21.0773 116.662 21.5987 116.662 22.1197H116.661Z" fill="white"/>
<path d="M96.2773 22.6029C96.2908 20.8837 96.2606 19.1642 96.2697 17.4447C96.27 17.3675 96.2691 17.2893 96.2809 17.2135C96.3096 17.0308 96.3994 16.9428 96.585 16.9193C96.6805 16.9074 96.7781 16.9097 96.8748 16.9097C97.6974 16.9091 98.52 16.9117 99.3428 16.9083C99.8926 16.9059 99.9583 16.9661 99.9582 17.524C99.9576 20.3161 99.9538 23.1082 99.9566 25.9006C99.9574 26.5478 99.9852 27.1946 100.126 27.8301C100.357 28.8772 100.939 29.6103 102.013 29.8859C102.255 29.9481 102.505 29.987 102.754 30.0175C103.519 30.1116 104.279 30.0765 105.033 29.9118C106.044 29.691 106.691 29.0834 106.971 28.0909C107.151 27.4543 107.203 26.8002 107.203 26.1417C107.201 23.3206 107.199 20.4994 107.197 17.6782C107.197 17.5624 107.193 17.4459 107.202 17.3306C107.225 17.0517 107.342 16.9318 107.622 16.9123C107.776 16.9016 107.931 16.9141 108.086 16.9141C108.792 16.9135 109.499 16.912 110.205 16.9115C110.322 16.9115 110.438 16.9056 110.554 16.9152C110.776 16.9338 110.886 17.0369 110.917 17.2562C110.93 17.3416 110.927 17.4296 110.927 17.5165C110.926 19.1203 110.942 20.7242 110.919 22.3278C110.898 23.8442 110.96 25.3604 110.91 26.8763C110.884 27.6582 110.827 28.4372 110.613 29.1967C110.12 30.9536 108.975 32.0902 107.275 32.6958C106.275 33.0516 105.239 33.2148 104.182 33.2889C103.051 33.3685 101.941 33.2555 100.846 32.9851C99.9848 32.7727 99.1715 32.4483 98.4429 31.9328C97.3102 31.1311 96.6604 30.03 96.4009 28.6806C96.2703 28.0015 96.2823 27.3157 96.28 26.6306C96.2753 25.2881 96.2778 23.9453 96.2773 22.6029Z" fill="white"/>
<path d="M128.927 24.9895C128.927 22.5352 128.926 20.0806 128.925 17.6263C128.925 17.5394 128.924 17.4523 128.928 17.3654C128.945 17.0486 129.059 16.9309 129.37 16.9103C129.437 16.9059 129.505 16.9074 129.573 16.9074C132.448 16.9094 135.323 16.912 138.199 16.9135C138.76 16.9135 139.321 16.9094 139.883 16.9086C139.98 16.9086 140.077 16.9094 140.173 16.9202C140.357 16.9408 140.468 17.0445 140.511 17.2272C140.541 17.3518 140.539 17.4761 140.531 17.6016C140.487 18.2287 140.481 18.8557 140.533 19.4828C140.539 19.5499 140.541 19.6185 140.534 19.6853C140.505 19.972 140.377 20.1041 140.087 20.1149C139.769 20.1268 139.449 20.1204 139.129 20.1201C137.203 20.1189 135.276 20.1166 133.35 20.1166C133.234 20.1166 133.117 20.1198 133.003 20.1393C132.768 20.1796 132.692 20.2647 132.662 20.5023C132.652 20.5883 132.653 20.676 132.653 20.7629C132.653 21.9032 132.652 23.0435 132.654 24.1838C132.655 24.6851 132.734 24.7455 133.235 24.7118C134.008 24.6598 134.781 24.6218 135.553 24.5791C136.693 24.5161 137.833 24.4507 138.97 24.3589C139.183 24.3418 139.396 24.3331 139.609 24.3392C139.87 24.3467 139.968 24.451 139.99 24.7139C139.996 24.7906 139.996 24.8684 139.993 24.9457C139.97 25.6218 139.968 26.298 139.994 26.9742C139.996 27.0128 139.995 27.0514 139.995 27.0901C139.987 27.4479 139.872 27.5719 139.507 27.5946C138.531 27.6553 137.556 27.7105 136.581 27.7703C135.461 27.8391 134.341 27.908 133.221 27.9835C132.774 28.0137 132.646 28.1583 132.647 28.6077C132.649 29.8639 132.654 31.1201 132.661 32.3763C132.664 32.9578 132.553 33.0632 131.966 33.0562C131.162 33.0466 130.359 33.0493 129.555 33.0461C129.459 33.0458 129.361 33.0487 129.265 33.0388C129.061 33.0176 128.968 32.934 128.947 32.7298C128.929 32.5671 128.933 32.4016 128.933 32.2374C128.932 29.8218 128.931 27.4058 128.931 24.9901H128.926L128.927 24.9895Z" fill="white"/>
<path d="M87.5338 16.9089C89.6729 16.9089 91.8121 16.9089 93.9516 16.9089C94.0483 16.9089 94.1453 16.9066 94.242 16.9104C94.5827 16.9232 94.6955 17.0272 94.697 17.3696C94.6989 17.7556 94.6763 18.1416 94.6724 18.5279C94.669 18.8561 94.6656 19.1846 94.6988 19.5123C94.7038 19.5602 94.7018 19.609 94.7003 19.6572C94.6888 20.0034 94.5759 20.1187 94.216 20.1199C93.103 20.1231 91.9897 20.1208 90.8767 20.1193C90.5766 20.119 90.2766 20.1106 89.9766 20.1141C89.5656 20.119 89.3963 20.2808 89.3828 20.6953C89.3733 20.9846 89.3818 21.275 89.3891 21.5646C89.4438 23.7767 89.3785 25.9885 89.3897 28.2003C89.3962 29.5041 89.3692 30.8082 89.4161 32.1121C89.4231 32.3041 89.4371 32.4981 89.3963 32.6898C89.3414 32.9474 89.2488 33.0409 88.9862 33.0496C88.7158 33.0586 88.4445 33.0427 88.1736 33.0438C87.5735 33.0462 86.9734 33.0528 86.3733 33.0569C86.2862 33.0575 86.1988 33.0592 86.1122 33.0502C85.8674 33.0252 85.7404 32.9123 85.713 32.6703C85.6923 32.4885 85.6937 32.3041 85.6937 32.1205C85.696 28.2749 85.6995 24.4296 85.7027 20.584C85.7027 20.5358 85.7047 20.487 85.7 20.4391C85.6779 20.2189 85.6134 20.1498 85.3979 20.1234C85.3215 20.1141 85.2433 20.1164 85.1658 20.1167C83.7719 20.1199 82.378 20.1234 80.9845 20.1266C80.9168 20.1266 80.8488 20.126 80.7814 20.1199C80.5311 20.0964 80.4192 19.9924 80.3846 19.7414C80.3726 19.656 80.3746 19.5674 80.3804 19.4812C80.4249 18.8248 80.425 18.1686 80.3819 17.5125C80.3807 17.4933 80.3813 17.4739 80.381 17.4544C80.3733 16.9996 80.4583 16.9095 80.9135 16.9092C83.1206 16.9081 85.3275 16.9087 87.5346 16.9087L87.5338 16.9089Z" fill="white"/>
<path d="M50.2833 36.0423C50.2892 35.3775 50.5644 34.8271 51.0354 34.3757C51.5304 33.9011 52.0534 33.4556 52.5444 32.9775C53.1327 32.4047 53.6995 31.8099 54.2773 31.2264C54.4199 31.0823 54.5616 30.9353 54.7184 30.8078C54.9486 30.6202 55.1096 30.6306 55.3402 30.8218C55.3847 30.8586 55.4257 30.9002 55.4658 30.942C56.5858 32.1183 57.7517 33.2485 58.9075 34.3894C59.1077 34.5869 59.2881 34.8009 59.438 35.0391C59.7754 35.5753 59.8369 36.1353 59.58 36.7223C59.4241 37.079 59.2256 37.4048 58.9451 37.6811C58.4149 38.203 57.8916 38.7322 57.364 39.2571C57.1329 39.4868 56.8794 39.6901 56.6549 39.9318C56.3463 40.2641 55.9485 40.4955 55.5119 40.6489C55.0237 40.8203 54.5616 40.7631 54.116 40.5162C53.9205 40.4078 53.7427 40.2742 53.5826 40.1188C52.7371 39.2969 51.892 38.4746 51.05 37.6491C50.8579 37.4609 50.69 37.246 50.5212 37.04C50.3402 36.819 50.3154 36.5059 50.2839 36.2166C50.2778 36.1594 50.283 36.101 50.283 36.0429L50.2833 36.0423Z" fill="white"/>
<path d="M145.1 30.763C145.098 32.2418 144.042 33.2769 142.537 33.2684C140.977 33.2594 140.014 32.1672 140.03 30.7172C140.047 29.2445 141.08 28.2275 142.579 28.2327C144.039 28.2379 145.103 29.3058 145.1 30.763Z" fill="white"/>
<path d="M62.781 19.4793C62.7701 20.8146 61.7119 21.8514 60.367 21.845C59.0351 21.8386 57.9768 20.7739 58.0032 19.4343C58.0269 18.2209 58.8937 17.0735 60.4169 17.0828C61.7128 17.0909 62.792 18.1823 62.7813 19.4793H62.781Z" fill="white"/>
</g>
<defs>
<clipPath id="clip0_3275_3145">
<rect width="145.99" height="31.516" fill="white" transform="matrix(1 0 0.000301956 1 39 9.24182)"/>
</clipPath>
</defs>
</svg>
