<svg width="224" height="50" viewBox="0 0 224 50" fill="none" xmlns="http://www.w3.org/2000/svg">
<g clip-path="url(#clip0_3275_2765)">
<path d="M79.0867 37.2484V42.9149C79.9118 43.0846 80.7421 43.2695 81.5792 43.4188C81.8628 43.4697 81.9533 43.5817 81.938 43.8565C81.9175 44.2298 81.9328 44.6047 81.9328 45.0017H71.0778C71.0778 44.5606 71.059 44.128 71.0932 43.7021C71.1 43.6105 71.2828 43.4901 71.4041 43.4561C72.0789 43.2678 72.7605 43.1032 73.4576 42.9268V23.6843H70.6985C70.6985 23.1957 70.6866 22.7393 70.7088 22.2846C70.7122 22.2015 70.8386 22.0827 70.9309 22.0522C73.0971 21.3702 75.2599 20.6729 77.4432 20.0469C77.9199 19.9094 78.4717 20.0265 79.0354 20.0265V22.5171C79.2473 22.3847 79.3839 22.3033 79.5155 22.2168C80.8104 21.3634 82.1686 20.6339 83.7044 20.3217C86.2892 19.7958 88.8227 20.9851 90.1911 23.3382C90.9753 24.6853 91.3016 26.1596 91.3751 27.6967C91.4673 29.6257 91.223 31.4936 90.198 33.1783C88.7373 35.579 86.6001 36.9939 83.7711 37.2195C82.3206 37.3349 80.8548 37.2484 79.3959 37.2535C79.3002 37.2535 79.2046 37.2535 79.0867 37.2535V37.2484ZM79.1345 35.4704C79.729 35.4704 80.2791 35.5247 80.8156 35.4602C82.7973 35.2227 84.2562 34.2641 84.9925 32.3555C85.7613 30.3603 85.7733 28.3601 85.0916 26.3411C84.6013 24.8889 83.6019 24.0134 82.1105 23.6843C81.2478 23.4943 80.385 23.5316 79.5172 23.6945C79.1943 23.7556 79.1294 23.8998 79.1311 24.1984C79.1413 27.8273 79.1379 31.4546 79.1379 35.0836V35.4704H79.1345Z" fill="white"/>
<path d="M106.223 37.4129V27.0825C106.077 27.2963 105.995 27.4083 105.922 27.5253C103.911 30.7013 101.897 33.8773 99.8982 37.0618C99.7257 37.3366 99.5446 37.4282 99.2268 37.4231C98.1437 37.4045 97.0623 37.4163 95.9792 37.4163C95.8425 37.4163 95.7041 37.4163 95.5179 37.4163V23.8048C94.3972 23.7199 93.3004 23.6368 92.1456 23.5486C92.1456 23.0617 92.1336 22.5917 92.1575 22.1235C92.1609 22.0454 92.3027 21.9318 92.4001 21.9063C94.2862 21.4092 96.1637 20.8697 98.0685 20.4625C98.8322 20.2997 99.6624 20.4354 100.52 20.4354V31.29L100.611 31.3138C100.694 31.195 100.781 31.078 100.86 30.9541C102.989 27.5542 105.119 24.156 107.237 20.7509C107.398 20.4914 107.571 20.3964 107.875 20.4015C109.04 20.4184 110.205 20.4082 111.43 20.4082V33.2139C111.461 33.2224 111.493 33.2309 111.524 33.2394C111.982 32.6303 112.441 32.0212 112.899 31.4105C113.763 30.2585 114.64 29.1116 115.484 27.9461C115.632 27.7391 115.726 27.4439 115.728 27.1894C115.749 25.2485 115.745 23.3077 115.731 21.3668C115.73 21.0682 115.827 20.8799 116.059 20.7017C117.168 19.8552 118.762 19.7601 119.804 20.4948C120.908 21.2735 121.362 22.8157 120.841 24.2578C120.64 24.8142 120.353 25.3656 119.992 25.8322C117.059 29.6308 114.1 33.4107 111.143 37.1924C111.066 37.2908 110.928 37.4045 110.818 37.4045C109.303 37.418 107.786 37.4146 106.224 37.4146L106.223 37.4129Z" fill="white"/>
<path d="M132.05 21.7926C130.786 21.9182 129.761 22.4017 128.948 23.2992C128.158 24.1678 127.77 25.2214 127.624 26.3666C127.42 27.9512 127.511 29.5137 128.049 31.0305C129.055 33.8603 131.355 35.109 134.271 34.3133C135.313 34.0283 136.285 33.4939 137.286 33.0646C137.462 32.9883 137.623 32.8746 137.853 32.7406C137.853 33.7212 137.858 34.6475 137.845 35.5739C137.845 35.6519 137.727 35.7571 137.64 35.7995C135.229 36.9566 132.75 37.8591 130.01 37.7217C128.133 37.6284 126.318 37.2959 124.753 36.1761C122.702 34.7069 121.656 32.6235 121.355 30.1957C121.009 27.3981 121.788 24.8889 123.698 22.7699C124.801 21.5466 126.276 20.963 127.82 20.5406C130.058 19.9264 132.305 19.7958 134.537 20.5626C135.52 20.9002 136.403 21.4109 137.091 22.2015C138.239 23.5214 138.101 25.4369 136.791 26.5973C136.405 26.94 135.95 27.0774 135.45 27.1351C134.358 27.2624 133.326 27.0893 132.349 26.5804C132.123 26.4616 132.04 26.3123 132.041 26.0544C132.055 24.799 132.048 23.5418 132.048 22.2863C132.048 22.137 132.048 21.9877 132.048 21.7977L132.05 21.7926Z" fill="white"/>
<path d="M131.904 10.2305C131.651 10.6428 131.414 11.0296 131.176 11.4181C130.454 12.5972 129.74 13.7814 129 14.9504C128.909 15.0946 128.685 15.2422 128.523 15.2422C122.605 15.2575 116.688 15.2541 110.77 15.2541C110.715 15.2541 110.662 15.2456 110.566 15.2354C110.631 15.1065 110.677 14.9945 110.741 14.8927C111.653 13.4201 112.564 11.9458 113.491 10.4816C113.577 10.3459 113.783 10.2034 113.934 10.2034C119.865 10.1898 125.798 10.1915 131.73 10.1932C131.767 10.1932 131.807 10.2085 131.906 10.2271L131.904 10.2305Z" fill="white"/>
<path d="M132.166 9.95398C132.318 9.70289 132.444 9.49251 132.574 9.28044C133.392 7.94694 134.204 6.61004 135.038 5.28672C135.123 5.15099 135.331 5.01188 135.483 5.01188C141.371 4.9983 147.258 5 153.145 5C153.186 5 153.227 5.01018 153.302 5.02036C153.251 5.12894 153.211 5.22904 153.158 5.32065C152.294 6.77291 151.424 8.22178 150.562 9.67405C150.449 9.86237 150.341 9.98452 150.078 9.98452C144.162 9.97434 138.248 9.97604 132.331 9.97434C132.304 9.97434 132.277 9.96755 132.164 9.95228L132.166 9.95398Z" fill="white"/>
</g>
<defs>
<clipPath id="clip0_3275_2765">
<rect width="82.6087" height="40" fill="white" transform="translate(70.6953 5)"/>
</clipPath>
</defs>
</svg>
