<svg width="224" height="50" viewBox="0 0 224 50" fill="none" xmlns="http://www.w3.org/2000/svg">
<g clip-path="url(#clip0_3275_3238)">
<path d="M41.4663 26.0989C39.1197 26.0989 36.7731 26.0937 34.4265 26.104C34.0979 26.104 33.6204 25.9551 33.5023 26.3762C33.3893 26.7869 33.7744 27.0539 34.1082 27.2542C34.7757 27.6496 35.4894 27.8652 36.2802 27.8601C39.2122 27.8498 42.1441 27.8601 45.0761 27.8601C46.7346 27.8601 46.786 27.9166 46.7654 29.6111C46.7654 29.76 46.7654 29.9038 46.7552 30.0527C46.6935 30.6432 46.5344 30.8229 45.9233 30.8434C45.1326 30.8742 44.3418 30.8537 43.5511 30.8537C42.2622 30.8537 40.9683 30.8434 39.6794 30.8383C39.5305 30.8383 39.3867 30.8383 39.2378 30.8486C39.0633 30.864 38.8681 30.8691 38.786 31.0591C38.6833 31.285 38.8322 31.4545 38.976 31.5982C39.1146 31.7471 39.2686 31.8909 39.433 32.009C40.2597 32.6201 41.1891 32.9384 42.216 32.9487C43.4176 32.9538 44.6191 32.9435 45.8206 32.9538C46.8989 32.9641 47.0838 33.1592 47.0992 34.258C47.1197 35.6034 46.9503 35.7779 45.5947 35.7831C44.3059 35.7831 43.0119 35.7523 41.7231 35.7882C39.9002 35.8396 38.4317 35.0283 37.1069 33.914C36.4702 33.38 36.1159 32.6098 35.8437 31.8293C35.6332 31.2234 35.3046 30.8794 34.6371 30.7253C33.3174 30.4172 32.2237 29.6573 31.3662 28.6149C30.2212 27.2337 29.8514 25.6111 30.0517 23.8447C30.1031 23.4031 30.3701 23.1618 30.8117 23.131C31.1043 23.1104 31.397 23.1053 31.6897 23.1053C35.4124 23.1053 39.1403 23.1053 42.863 23.1053C43.5665 23.1053 44.2699 23.131 44.9683 22.9923C45.4971 22.8896 46.0106 23.1053 46.5395 23.1002C47.8027 23.0899 49.0607 23.095 50.3238 23.1053C50.8116 23.1053 51.2584 22.9975 51.6589 22.7407C53.4047 21.6059 55.2686 20.6714 57.0658 19.6188C57.759 19.2131 57.7744 18.9923 57.0966 18.6021C55.397 17.6213 53.682 16.6663 51.9926 15.6701C51.4484 15.3466 50.976 15.3569 50.4317 15.6701C48.3418 16.8563 46.329 18.1708 44.1878 19.2696C43.6281 19.5572 43.1557 19.6239 42.6319 19.285C42.2622 19.0437 41.8771 18.828 41.5331 18.561C41.0247 18.1605 41.0299 17.8062 41.5742 17.4519C42.216 17.0411 42.8835 16.6663 43.5408 16.2863C45.3431 15.2491 47.1454 14.2067 48.9631 13.19C49.5485 12.8614 50.1801 12.6098 50.7757 12.2966C51.1813 12.0809 51.5254 12.122 51.9259 12.3531C54.3906 13.7651 56.8707 15.1515 59.3457 16.5584C60.0851 16.9795 60.8039 17.4262 61.5433 17.8473C62.0928 18.1605 62.2725 18.6329 62.2673 19.2439C62.2519 21.7343 62.2673 24.2298 62.2622 26.7202C62.2622 27.8601 62.4111 28.9898 62.293 30.1348C62.2211 30.8331 61.9747 31.2799 61.3893 31.6136C59.4073 32.7484 57.4304 33.8986 55.4535 35.0437C54.0055 35.8755 52.5523 36.7022 51.1043 37.534C50.976 37.6059 50.8579 37.6932 50.7243 37.7497C50.139 37.9962 49.7898 37.8113 49.7795 37.1695C49.759 35.8498 49.7333 34.5251 49.8258 33.2157C49.9131 32.0398 49.9387 30.8845 49.8206 29.7086C49.7333 28.8357 49.7847 27.9525 49.7641 27.0745C49.7436 26.217 49.6512 26.1143 48.7885 26.1091C46.3546 26.0989 43.9208 26.1091 41.4869 26.1091L41.4663 26.0989ZM59.243 25.6778C59.243 24.6817 59.2584 23.6907 59.243 22.6945C59.2276 21.9192 59.0376 21.8011 58.3392 22.1605C56.5729 23.0745 54.9451 24.2247 53.2609 25.2773C52.9066 25.4981 52.7423 25.8062 52.7423 26.2272C52.7423 28.1579 52.732 30.0886 52.7475 32.0193C52.7526 32.7382 52.9477 32.846 53.6152 32.5122C55.3148 31.6598 56.9272 30.6483 58.5806 29.7138C59.0632 29.4365 59.2635 29.036 59.2532 28.4814C59.2327 27.5469 59.2532 26.6072 59.2532 25.6727L59.243 25.6778Z" fill="white"/>
<path d="M103.945 24.4661C103.976 25.1644 103.894 25.9397 103.719 26.7202C103.268 28.7177 101.912 29.8576 100.146 30.6381C100.063 30.674 99.9813 30.7202 99.8992 30.7305C98.5025 30.8691 97.1059 31.0078 95.7297 30.5508C94.4512 30.1246 93.5166 29.2619 92.7053 28.235C92.5051 27.9834 92.3459 27.6958 92.2638 27.3826C91.8222 25.6933 91.627 23.9885 92.0224 22.2581C92.2484 21.262 92.7053 20.389 93.3421 19.6086C94.215 18.5354 95.473 18.33 96.731 18.2016C97.5731 18.1195 98.4358 18.1143 99.2779 18.2016C100.823 18.3505 102.189 18.9564 103.042 20.3223C103.617 21.2465 103.904 22.3094 103.951 23.4134C103.966 23.7369 103.951 24.0604 103.951 24.4763L103.945 24.4661ZM100.248 24.2401C100.382 23.2902 99.8786 22.443 99.437 21.5906C99.1803 21.0976 98.6976 20.8563 98.1328 20.8255C97.0853 20.769 96.1559 21.3646 95.8376 22.3711C95.4216 23.6804 95.3806 25.0001 95.776 26.3454C96.043 27.244 96.6694 27.701 97.491 27.9269C98.4974 28.2042 99.7041 27.4956 99.9505 26.484C100.12 25.7754 100.264 25.0566 100.248 24.2401Z" fill="white"/>
<path d="M68.5622 24.4301C68.5622 22.8486 68.5622 21.2671 68.5622 19.6856C68.5622 19.4494 68.5519 19.2132 68.5827 18.9821C68.6495 18.4635 68.8446 18.2222 69.3632 18.2016C71.679 18.1041 73.9948 18.063 76.2182 18.8794C77.5737 19.3775 78.1796 21.0874 77.4967 22.484C77.2605 22.9616 76.9473 23.3878 76.5519 23.7369C76.2233 24.0245 76.213 24.1939 76.5827 24.4712C78.4621 25.8935 78.2721 28.7947 76.2182 29.986C75.2939 30.52 74.2926 30.8281 73.2092 30.8281C72.3311 30.8281 71.4531 30.8281 70.575 30.8281C70.2823 30.8281 69.9897 30.8127 69.7021 30.7664C68.7573 30.6073 68.5725 30.3967 68.5673 29.4365C68.5571 27.7677 68.5673 26.0989 68.5673 24.4301H68.5622ZM72.9576 28.0245C73.0089 28.0245 73.127 28.0245 73.2451 28.0039C73.8921 27.9064 74.3953 27.3467 74.3748 26.7562C74.3491 26.1041 73.7329 25.6471 72.8446 25.6111C72.29 25.5906 72.1925 25.7087 72.0384 26.6021C72.0179 26.7151 71.9871 26.8281 71.9717 26.9462C71.8587 27.778 72.0693 28.0193 72.9576 28.0193V28.0245ZM71.8998 22.0784C71.8998 22.0784 71.8895 22.0784 71.8844 22.0784C71.8844 22.2838 71.869 22.4892 71.8844 22.6894C71.9049 22.8845 72.0487 23.0335 72.2387 23.0078C72.7573 22.9462 73.3016 22.9872 73.7894 22.7562C74.1283 22.5919 74.3645 22.3505 74.2721 21.9243C74.1334 21.3133 73.2965 20.7947 72.5314 20.846C72.059 20.8768 71.9511 21.0771 71.8998 21.9911C71.8998 22.0219 71.8998 22.0476 71.8998 22.0784Z" fill="white"/>
<path d="M123.1 22.8999C123.505 22.7459 123.634 22.4327 123.808 22.1708C124.46 21.1644 125.107 20.1528 125.739 19.131C126.124 18.5046 126.648 18.1605 127.397 18.1708C128.014 18.1811 128.63 18.1451 129.241 18.1862C129.723 18.217 129.857 18.4635 129.677 18.9051C129.58 19.1464 129.431 19.3672 129.282 19.588C128.573 20.6304 127.895 21.6933 127.141 22.6997C126.622 23.398 126.54 24.0604 126.956 24.8152C127.408 25.6368 127.788 26.4994 128.286 27.2902C128.758 28.0347 129.153 28.8204 129.59 29.5803C130.047 30.3813 129.795 30.8024 128.892 30.8332C128.393 30.8486 127.895 30.8332 127.397 30.8332C126.648 30.8332 126.165 30.5046 125.847 29.7857C125.415 28.7947 124.871 27.855 124.358 26.8999C124.178 26.561 123.957 26.2067 123.474 26.3608C123.038 26.5046 122.961 26.8845 122.956 27.2851C122.945 28.045 122.956 28.8101 122.94 29.57C122.92 30.3916 122.75 30.5764 121.939 30.751C121.39 30.8691 120.83 30.8743 120.275 30.8024C119.675 30.7254 119.459 30.4892 119.433 29.873C119.408 29.2003 119.433 28.5277 119.433 27.8499C119.433 25.1541 119.433 22.4584 119.433 19.7626C119.433 19.5007 119.423 19.2337 119.459 18.9718C119.526 18.4584 119.726 18.2376 120.25 18.2016C120.835 18.1605 121.42 18.1605 122.006 18.1913C122.673 18.2273 122.904 18.4481 122.93 19.1156C122.966 20.0501 122.93 20.9898 122.951 21.9295C122.951 22.2376 122.863 22.5713 123.1 22.8999Z" fill="white"/>
<path d="M112.563 30.828C110.945 31.0129 109.569 30.4892 108.342 29.4519C107.9 29.0771 107.572 28.6612 107.361 28.1323C106.673 26.407 106.339 24.6252 106.827 22.8075C107.407 20.6406 108.989 18.4224 111.597 18.1143C112.973 17.9551 114.283 18.0784 115.577 18.4584C116.434 18.71 116.557 19.0437 116.296 19.9218C116.26 20.0347 116.224 20.1426 116.188 20.2555C115.808 21.3595 115.623 21.4725 114.529 21.1438C113.836 20.9385 113.133 20.9282 112.439 21.0155C111.541 21.1336 110.961 21.7446 110.699 22.5713C110.288 23.855 110.303 25.1747 110.699 26.4686C111.017 27.5058 112.136 28.1323 113.292 27.9577C113.872 27.8704 114.437 27.7112 115.012 27.5931C115.818 27.4288 116.044 27.5931 116.1 28.3788C116.224 30.1297 116.1 30.2889 114.396 30.7254C113.79 30.8794 113.174 30.8024 112.563 30.8229V30.828Z" fill="white"/>
<path d="M85.2613 30.8332C84.296 30.8332 83.3255 30.8486 82.3602 30.8332C81.4051 30.8127 81.1022 30.5148 81.0868 29.5546C81.0765 28.7639 81.0251 27.9731 81.1792 27.1875C81.2459 26.8383 81.2151 26.4892 81.1638 26.14C81.1176 25.7908 81.0868 25.4417 81.0816 25.0925C81.0713 23.3107 81.0765 21.5238 81.0816 19.7421C81.0816 19.4494 81.097 19.1567 81.1432 18.8691C81.21 18.4892 81.4411 18.2068 81.8416 18.1965C82.5142 18.1759 83.1869 18.1811 83.8595 18.2222C84.3011 18.2478 84.5271 18.5611 84.563 18.9924C84.6349 19.8961 84.8249 20.7844 84.7735 21.7035C84.6811 23.3672 84.83 25.036 84.6092 26.7048C84.486 27.6548 84.717 27.855 85.6567 27.8653C86.4475 27.8756 87.2382 27.855 88.029 27.8653C89.2613 27.8807 89.4975 28.1272 89.4975 29.3852C89.4975 29.4417 89.4975 29.5033 89.4975 29.5598C89.4667 30.5559 89.2254 30.8178 88.2446 30.8383C87.2485 30.8589 86.2523 30.8383 85.2562 30.8383L85.2613 30.8332Z" fill="white"/>
<path d="M165.702 24.3942C165.702 22.6946 165.692 20.9949 165.702 19.2953C165.707 18.3249 165.861 18.1811 166.837 18.1759C167.776 18.1759 168.716 18.1349 169.65 18.1965C170.744 18.2632 171.776 18.5405 172.618 19.3313C173.219 19.8961 173.46 20.5534 173.481 21.3647C173.507 22.6843 173.091 23.7729 172.028 24.5944C171.268 25.1798 171.263 25.2311 171.72 26.1195C172.238 27.1413 172.926 28.0604 173.538 29.0257C173.743 29.3492 173.969 29.6573 174.082 30.027C174.22 30.4943 174.041 30.7664 173.568 30.8435C172.947 30.9462 172.469 30.6535 172.151 29.9141C171.663 28.7793 170.986 27.7472 170.395 26.6689C169.953 25.8576 169.271 25.5136 168.398 25.4417C167.509 25.3698 167.15 25.6779 167.134 26.5713C167.119 27.4802 167.134 28.389 167.124 29.2979C167.124 29.6214 167.124 29.95 166.98 30.2478C166.831 30.5456 166.641 30.8229 166.251 30.7562C165.912 30.6997 165.779 30.4224 165.743 30.1143C165.712 29.8524 165.712 29.5854 165.712 29.3236C165.712 27.6804 165.712 26.0424 165.712 24.3993L165.702 24.3942ZM167.129 21.8268C167.129 21.8268 167.16 21.8268 167.176 21.8268C167.176 22.3813 167.155 22.941 167.181 23.4905C167.201 23.9012 167.391 24.2555 167.848 24.2915C168.839 24.3685 169.835 24.4096 170.77 23.9269C171.715 23.434 171.946 22.597 171.879 21.6368C171.812 20.7331 171.443 20.045 170.529 19.6702C169.65 19.3107 168.793 19.5469 167.93 19.5932C167.324 19.624 167.181 19.7883 167.145 20.4147C167.114 20.882 167.14 21.3492 167.14 21.8165L167.129 21.8268Z" fill="white"/>
<path d="M147.916 18.1862C148.989 18.0578 150.011 18.2786 151.022 18.597C152.501 19.0591 153.225 20.0142 153.24 21.5752C153.24 21.8987 153.256 22.2222 153.225 22.5405C153.143 23.434 152.748 24.1631 152.008 24.6817C151.002 25.3903 149.923 25.8114 148.65 25.7652C146.812 25.6984 146.868 25.7035 146.878 27.5367C146.878 28.1785 146.894 28.8255 146.884 29.4673C146.884 29.6984 146.868 29.9397 146.796 30.1554C146.673 30.5302 146.278 30.7151 145.877 30.6535C145.492 30.5919 145.343 30.3351 145.312 29.9808C145.302 29.837 145.297 29.6881 145.302 29.5444C145.405 26.2992 145.246 23.054 145.292 19.8088C145.292 19.6034 145.287 19.398 145.312 19.1926C145.389 18.5713 145.697 18.2376 146.329 18.1914C146.853 18.1503 147.382 18.1811 147.911 18.1811L147.916 18.1862ZM146.899 21.9551C146.899 21.9551 146.899 21.9551 146.904 21.9551C146.904 22.5097 146.878 23.0694 146.909 23.624C146.95 24.2401 147.176 24.4558 147.782 24.502C148.162 24.5328 148.542 24.5123 148.922 24.502C150.843 24.4198 151.669 23.5418 151.644 21.6265C151.628 20.5893 151.233 20.0707 150.252 19.7831C149.364 19.5161 148.455 19.6086 147.551 19.624C147.13 19.6291 146.909 19.891 146.899 20.3017C146.884 20.8563 146.899 21.4109 146.899 21.9706V21.9551Z" fill="white"/>
<path d="M137.055 18.1708C137.743 18.2067 138.544 18.0835 139.309 18.3813C139.627 18.5045 140.048 18.5456 139.91 19.0642C139.786 19.5264 139.37 19.7882 138.898 19.6804C138.415 19.5674 137.938 19.4083 137.455 19.3004C136.906 19.1772 136.346 19.1875 135.807 19.3775C135.144 19.6085 134.544 19.9372 134.415 20.6971C134.266 21.5495 134.415 22.3402 135.175 22.8948C135.653 23.244 136.182 23.5058 136.747 23.6701C137.779 23.968 138.631 24.6047 139.566 25.0925C139.802 25.2157 139.981 25.416 140.1 25.6624C140.669 26.8486 140.413 28.5174 139.509 29.4416C138.626 30.3402 137.573 30.8434 136.295 30.8383C135.622 30.8383 134.944 30.8383 134.272 30.8383C133.825 30.8383 133.394 30.7459 132.993 30.5559C132.551 30.3505 132.397 30.0116 132.495 29.5546C132.587 29.1387 132.844 28.923 133.255 29.0514C134.236 29.3595 135.232 29.2414 136.223 29.2568C136.454 29.2568 136.695 29.2568 136.926 29.2106C138.405 28.9384 138.877 28.2144 138.503 26.5764C138.343 25.873 137.65 25.4776 136.972 25.2362C136.197 24.959 135.468 24.5841 134.723 24.2401C133.655 23.7472 133.08 22.8486 132.721 21.7959C132.377 20.7947 133.029 19.3364 134.071 18.6945C134.631 18.3505 135.227 18.1246 135.899 18.1605C136.248 18.1811 136.603 18.1605 137.055 18.1605V18.1708Z" fill="white"/>
<path d="M189.441 18.1759C190.642 18.1759 191.844 18.1657 193.045 18.1759C193.733 18.1862 193.985 18.3454 193.995 18.7151C194.006 19.1207 193.672 19.3826 193.051 19.4083C192.496 19.434 191.931 19.3929 191.382 19.4545C190.473 19.5572 190.221 19.8293 190.175 20.7485C190.057 23.0899 190.124 25.4263 190.314 27.7626C190.38 28.5636 190.293 29.3441 190.165 30.1246C190.098 30.5097 189.887 30.7716 189.477 30.8075C189.081 30.8435 188.799 30.6586 188.614 30.3197C188.47 30.0527 188.434 29.76 188.439 29.4673C188.46 27.2132 188.306 24.9539 188.547 22.6997C188.635 21.8884 188.429 21.072 188.547 20.2504C188.614 19.7831 188.327 19.5418 187.787 19.4699C187.14 19.3826 186.504 19.4596 185.862 19.5777C185.117 19.7164 184.83 19.5777 184.753 19.1053C184.66 18.5559 185.015 18.1965 185.744 18.1862C186.976 18.1657 188.208 18.1811 189.441 18.1811V18.1708V18.1759Z" fill="white"/>
<path d="M180.495 24.3171C180.495 25.8678 180.495 27.4237 180.495 28.9744C180.495 29.2363 180.495 29.5084 180.423 29.7549C180.32 30.1502 179.955 30.3402 179.534 30.294C179.154 30.2529 178.964 30.0321 178.918 29.6676C178.908 29.5803 178.898 29.493 178.898 29.4057C178.964 27.3569 178.733 25.3081 178.78 23.2645C178.81 21.9192 178.913 20.579 178.913 19.2286C178.913 19.1413 178.913 19.054 178.929 18.9667C179.006 18.484 179.237 18.2427 179.642 18.2119C180.074 18.1811 180.361 18.4327 180.448 18.9564C180.495 19.2132 180.489 19.4802 180.489 19.742C180.489 21.2671 180.489 22.787 180.489 24.312L180.495 24.3171Z" fill="white"/>
<path d="M159.925 26.0065C159.925 27.1772 159.925 28.3531 159.925 29.5238C159.925 29.8781 159.92 30.2529 159.53 30.4327C159.206 30.5816 158.857 30.6843 158.529 30.4532C158.2 30.2221 158.144 29.8678 158.21 29.5084C158.39 28.4866 158.313 27.4596 158.318 26.4378C158.333 24.2401 158.323 22.0424 158.333 19.8447C158.333 19.5264 158.333 19.1978 158.405 18.8845C158.508 18.3916 158.832 18.1708 159.283 18.2067C159.704 18.2427 159.874 18.4532 159.92 18.9975C159.93 19.1156 159.93 19.2337 159.925 19.3467C159.864 20.4558 159.787 21.5495 159.9 22.6689C160.013 23.7728 159.925 24.8922 159.925 26.0065Z" fill="white"/>
</g>
<defs>
<clipPath id="clip0_3275_3238">
<rect width="164" height="25.6945" fill="white" transform="translate(30 12.1528)"/>
</clipPath>
</defs>
</svg>
