<svg width="224" height="50" viewBox="0 0 224 50" fill="none" xmlns="http://www.w3.org/2000/svg">
<path d="M182.983 15.7353H178.594L174.492 34.2636H178.881L182.983 15.7353Z" fill="white"/>
<path d="M202.001 15.7351H197.611L193.51 34.2634H197.899L202.001 15.7351Z" fill="white"/>
<path d="M187.375 15.7351L193.514 34.2634H189.125L182.986 15.7351H187.375Z" fill="white"/>
<path d="M78.8156 29.8755L81.946 15.736H77.5572L73.4551 34.2643H96.8629L97.8342 29.8755H78.8156Z" fill="white"/>
<path d="M102.815 15.736L98.7129 34.2643H115.04C118.95 34.2643 122.822 31.094 123.688 27.1837L120.271 22.7949H124.66C125.523 18.8965 123.062 15.7364 119.164 15.7364H102.815V15.736ZM116.034 29.8755H104.074L104.67 27.1837H119.299L119.295 27.2058C118.968 28.6802 117.508 29.8755 116.034 29.8755ZM120.271 22.7949H105.641L106.232 20.1252H118.193C119.667 20.1252 120.597 21.3205 120.271 22.7949Z" fill="white"/>
<path d="M172.646 34.264L174.213 27.1833L170.796 22.7945H175.185C176.048 18.8961 173.587 15.736 169.689 15.736H153.34L149.238 34.264H153.627L155.195 27.1833H169.825L168.257 34.264H172.646ZM170.796 22.7945H156.166L156.757 20.1248H168.718C170.192 20.1248 171.123 21.3201 170.796 22.7945Z" fill="white"/>
<path d="M128.073 15.736L123.971 34.2643H147.378L151.48 15.736H128.073ZM143.961 29.8755H129.331L131.49 20.1252H146.12L143.961 29.8755Z" fill="white"/>
<path d="M63.537 15.736H58.6825L47.2656 34.2643H51.6544L63.537 15.736H68.3912L71.6042 34.2643H67.2154L63.537 15.736Z" fill="white"/>
<path d="M45.1208 15.736L43.5558 22.8058H28.9259L30.4909 15.736H26.1021L22 34.2643H26.3892L28.9259 22.8058L32.343 27.1949H42.5841L41.0187 34.2643H45.4078L49.5096 15.736H45.1208Z" fill="white"/>
</svg>
