<svg width="224" height="50" viewBox="0 0 224 50" fill="none" xmlns="http://www.w3.org/2000/svg">
<path d="M48.9975 34.7497H47.0546L44.7307 32.5833V31.4719L47.1372 29.1386V25.444L50.2816 23.3606L53.8639 26.1115L48.9975 34.7497ZM40.9575 28.917L41.3136 25.444L40.137 22.333H47.083L45.9348 25.444L46.2625 28.917H43.5825H40.9575ZM42.5435 32.5833L40.2196 34.778H38.25L33.3561 26.1115L36.965 23.3889L40.137 25.444V29.1386L42.5435 31.4719V32.5833ZM38.2233 15.9159H48.97L50.255 21.4723H36.9659L38.2233 15.9159ZM43.61 9L29.9648 17V33L43.61 41L57.256 33V17L43.61 9Z" fill="white"/>
<path d="M72.5661 32.4223C68.9563 32.4223 66.3047 29.562 66.3047 26.0334C66.3047 22.5048 68.9838 19.5615 72.5936 19.5615C74.89 19.5615 76.3126 20.4223 77.4341 21.6723L75.7114 23.5615C74.8633 22.6443 73.9611 22.0343 72.5661 22.0343C70.5423 22.0343 69.0655 23.8114 69.0655 25.9778C69.0655 28.1998 70.5707 29.9778 72.7037 29.9778C74.0153 29.9778 74.9726 29.3395 75.8473 28.4505L77.5158 30.1446C76.3126 31.4503 74.9184 32.4223 72.5661 32.4223ZM82.7933 32.4223H80.004V19.5889H82.7933V22.5887C83.5587 20.756 84.9538 19.4777 87.0868 19.5889V22.5887H86.9234C84.4893 22.5887 82.7933 24.1998 82.7933 27.4777V32.4223ZM101.662 19.5333L95.5087 35.867H92.6928L94.0328 32.4223L88.7545 19.5333H91.7355L95.3177 29.0614L98.7632 19.5333H101.662ZM109.865 22.006C107.979 22.006 106.338 23.5615 106.338 25.9787C106.338 28.3958 108.006 29.9504 109.865 29.9504C111.78 29.9504 113.338 28.4232 113.338 25.9778C113.338 23.5324 111.752 22.006 109.865 22.006ZM110.495 32.3949C108.498 32.3949 107.24 31.3664 106.392 30.2276V35.867H103.604V19.5333H106.393V21.8392C107.295 20.5618 108.553 19.5333 110.495 19.5333C113.366 19.5333 116.155 21.8392 116.155 25.9504C116.155 30.0616 113.393 32.3949 110.495 32.3949ZM122.253 22.2276V28.2837C122.253 29.3669 122.8 29.8109 123.757 29.8109H124.851V32.3393H122.937C120.913 32.3393 119.464 31.422 119.464 28.7286V22.2276H117.933V19.8114H119.464V16.4223H122.253V19.8114H124.85V22.2276H122.253ZM133.628 22.006C131.386 22.006 129.964 23.7831 129.964 25.9504C129.964 28.1451 131.495 29.9495 133.656 29.9495C135.898 29.9495 137.32 28.1724 137.32 26.006C137.375 23.8114 135.816 22.006 133.628 22.006ZM133.628 32.4231C129.937 32.4231 127.203 29.5611 127.203 26.0334C127.203 22.4783 129.964 19.5615 133.683 19.5615C137.402 19.5615 140.136 22.4218 140.136 25.9778C140.136 29.4781 137.402 32.4231 133.628 32.4231ZM166.744 22.006C164.502 22.006 163.08 23.7831 163.08 25.9504C163.08 28.1451 164.611 29.9495 166.771 29.9495C169.014 29.9495 170.435 28.1724 170.435 26.006C170.463 23.8114 168.932 22.006 166.744 22.006ZM166.744 32.4231C163.052 32.4231 160.317 29.5611 160.317 26.0334C160.317 22.4783 163.08 19.5615 166.799 19.5615C170.518 19.5615 173.252 22.4218 173.252 25.9778C173.252 29.4781 170.49 32.4231 166.744 32.4231ZM189.769 19.5333C192.422 19.5333 194.035 21.2283 194.035 24.2563V32.3949H191.246V25.117C191.246 23.1448 190.343 22.1173 188.784 22.1173C187.28 22.1173 186.187 23.2005 186.187 25.1718V32.4223H183.398V25.117C183.398 23.2005 182.468 22.1173 180.936 22.1173C179.404 22.1173 178.339 23.2834 178.339 25.2V32.4223H175.549V19.5615H178.339V21.6723C179.132 20.5891 180.171 19.5615 182.03 19.5615C183.78 19.5615 184.984 20.4223 185.64 21.7279C186.651 20.3949 187.937 19.5333 189.769 19.5333ZM142.57 29.6723L143.774 28.9776H143.937L145.169 29.6723L145.25 29.8109V31.2561L145.169 31.3947L143.938 32.0894H143.774L142.57 31.3947L142.489 31.2561V29.8109L142.57 29.6723ZM153.7 32.3949C150.09 32.311 147.493 29.3942 147.548 25.8665C147.603 22.3388 150.337 19.4503 153.973 19.5333C156.27 19.5889 157.692 20.4779 158.786 21.7562L157.036 23.6171C156.216 22.6999 155.313 22.0334 153.919 22.006C151.895 21.9778 150.391 23.701 150.364 25.8948C150.309 28.1168 151.786 29.9222 153.919 29.9504C155.232 29.9778 156.216 29.3669 157.091 28.4779L158.731 30.1994C157.501 31.5059 156.079 32.4505 153.7 32.3949Z" fill="white"/>
</svg>
