<svg width="224" height="50" viewBox="0 0 224 50" fill="none" xmlns="http://www.w3.org/2000/svg">
<g clip-path="url(#clip0_3275_3201)">
<mask id="mask0_3275_3201" style="mask-type:luminance" maskUnits="userSpaceOnUse" x="26" y="11" width="172" height="28">
<path d="M197.717 11.5822H26.2109L26.219 38.2426H197.725L197.717 11.5822Z" fill="white"/>
</mask>
<g mask="url(#mask0_3275_3201)">
<path d="M37.6632 17.3119C36.6364 17.7144 35.5971 18.1027 34.7117 18.8129C31.0968 21.713 30.7567 26.998 33.9942 30.3668C37.0294 33.5263 42.359 33.3707 45.3261 30.0501C46.7157 28.4954 48.1358 26.9675 49.5469 25.4307C49.8044 25.1498 50.0173 24.9047 49.6575 24.5272C47.8088 22.5861 46.2052 20.4034 44.1383 18.6841C41.6043 16.5766 38.5734 15.9719 35.3478 16.1025C32.1704 16.2331 29.557 17.5284 27.4555 19.9401C27.2729 19.5751 27.4929 19.3586 27.5984 19.1368C31.5533 10.7979 42.8884 9.06247 49.1468 15.8395C50.4819 17.2851 51.8277 18.7199 53.1235 20.1977C53.6049 20.7469 53.9019 20.7255 54.3794 20.1977C56.0355 18.3657 57.5395 16.3708 59.4462 14.7911C63.3061 11.594 67.7123 10.737 72.4288 12.4402C77.3207 14.2061 80.1986 17.8325 81.1036 22.9314C81.9029 27.4291 78.5712 31.739 73.7356 32.6479C72.1827 32.9395 70.6763 32.9323 69.8819 32.6282C69.8925 32.3133 70.1734 32.3849 70.3416 32.3276C74.0696 31.0699 76.2798 27.4703 75.665 23.6488C75.0789 20.008 71.8506 17.1724 68.1042 17.1348C66.0074 17.1133 64.0898 17.8075 62.6053 19.3353C61.0064 20.9777 59.5023 22.7149 57.9534 24.4074C57.6977 24.6883 57.4777 24.9334 57.8392 25.3109C59.7112 27.2699 61.356 29.4454 63.4158 31.2238C65.191 32.7552 67.2844 33.5263 69.6246 33.6533C72.2402 33.7947 74.8147 33.7482 77.1598 32.3312C78.2366 31.68 79.1684 30.8642 80.0323 29.9195C80.2328 30.2594 80.0074 30.4724 79.9055 30.6888C75.9792 39.0295 64.612 40.7828 58.3607 34.0129C57.0256 32.5674 55.6816 31.1307 54.384 29.6547C53.9151 29.1216 53.6199 29.0894 53.1281 29.6351C51.5167 31.4295 50.0359 33.3635 48.1936 34.9236C44.3106 38.2083 39.8542 39.1261 35.0733 37.3764C30.092 35.548 27.2874 31.8195 26.3412 26.6044C25.6978 23.0548 27.6007 20.8757 30.1245 18.931C32.2226 17.3155 34.5894 16.7573 37.1854 17.0078C37.3536 17.0239 37.5558 16.9988 37.6632 17.3119Z" fill="white"/>
<path d="M87.0681 34.1093L87.0625 15.7185H91.0036L91.0092 34.1093H87.0681Z" fill="white"/>
<path d="M103.067 34.4475C101.824 34.4475 100.654 34.2006 99.5586 33.7051C98.4636 33.2095 97.5027 32.5243 96.6741 31.6495C95.8455 30.7747 95.1976 29.7603 94.7286 28.6082C94.2595 27.4561 94.0248 26.2235 94.0244 24.9104C94.024 23.5973 94.2579 22.3503 94.7263 21.2C95.1947 20.0479 95.842 19.0371 96.67 18.1659C97.4981 17.2946 98.4586 16.6113 99.5533 16.1175C100.648 15.6219 101.816 15.3751 103.061 15.3751C104.55 15.3751 105.92 15.7185 107.173 16.4055C108.425 17.0925 109.463 18.0102 110.286 19.157L106.766 21.048C106.31 20.522 105.762 20.1016 105.123 19.7867C104.485 19.4718 103.796 19.3144 103.061 19.3144C102.325 19.3144 101.701 19.4593 101.084 19.7474C100.467 20.0372 99.9231 20.4361 99.4545 20.9496C98.986 21.4612 98.6212 22.0552 98.3584 22.7296C98.0956 23.4041 97.9653 24.1304 97.9655 24.9104C97.9657 25.6904 98.0966 26.4042 98.3597 27.0786C98.6229 27.7531 98.9881 28.347 99.4569 28.8587C99.9258 29.3703 100.468 29.7746 101.087 30.068C101.704 30.3614 102.363 30.5081 103.064 30.5081C103.799 30.5081 104.486 30.3489 105.127 30.0287C105.765 29.7085 106.312 29.2827 106.768 28.7478L110.29 30.6656C109.467 31.8034 108.43 32.7193 107.178 33.4117C105.926 34.104 104.555 34.4493 103.067 34.4493L103.067 34.4475Z" fill="white"/>
<path d="M112.658 34.1062L112.652 15.7154H119.588C120.595 15.7154 121.508 15.9712 122.327 16.4847C123.147 16.9963 123.797 17.6797 124.278 18.5349C124.76 19.3882 125.001 20.3239 125.002 21.34C125.002 22.3562 124.755 23.3151 124.26 24.1648C123.765 25.0146 123.107 25.6926 122.284 26.2007C121.461 26.7088 120.563 26.9628 119.592 26.9628H116.597L116.599 34.1098H112.658L112.658 34.1062ZM116.596 23.0199H119.145C119.496 23.0199 119.814 22.9304 120.104 22.7497C120.394 22.5708 120.624 22.3311 120.8 22.0341C120.975 21.7372 121.062 21.408 121.062 21.0484C121.062 20.6888 120.974 20.3614 120.799 20.0627C120.624 19.7657 120.391 19.526 120.103 19.3471C119.813 19.1682 119.494 19.0769 119.144 19.0769H116.594L116.596 23.0181L116.596 23.0199Z" fill="white"/>
<path d="M146.183 34.1071H143.333L137.524 26.1336L136.145 27.7884L136.147 34.1071H133.939L133.934 15.7163H136.141L136.144 24.3607L143.379 15.7163H146.256L138.969 24.4L146.183 34.1089L146.183 34.1071Z" fill="white"/>
<path d="M153.083 34.4486C151.874 34.4486 150.773 34.1373 149.779 33.5165C148.784 32.8957 147.991 32.0603 147.4 31.0137C146.81 29.9672 146.512 28.8097 146.512 27.5395C146.512 26.577 146.681 25.6772 147.023 24.8399C147.364 24.0045 147.834 23.2674 148.434 22.6323C149.033 21.9972 149.732 21.4999 150.528 21.1421C151.324 20.7825 152.174 20.6036 153.077 20.6036C154.286 20.6036 155.387 20.9149 156.382 21.5357C157.377 22.1582 158.169 22.9937 158.76 24.0456C159.351 25.0958 159.648 26.2622 159.648 27.5395C159.649 28.4948 159.479 29.3876 159.138 30.2194C158.796 31.0513 158.326 31.7848 157.727 32.4199C157.128 33.055 156.43 33.5523 155.638 33.9101C154.845 34.2697 153.994 34.4486 153.083 34.4486ZM153.082 32.2428C153.905 32.2428 154.648 32.0263 155.31 31.5916C155.971 31.1586 156.492 30.5844 156.873 29.8706C157.253 29.1568 157.443 28.3804 157.443 27.5395C157.442 26.6987 157.247 25.8937 156.857 25.1745C156.467 24.4571 155.944 23.8828 155.287 23.4535C154.631 23.0241 153.895 22.8094 153.08 22.8094C152.264 22.8094 151.516 23.0259 150.86 23.4606C150.203 23.8936 149.683 24.4696 149.297 25.1888C148.912 25.9062 148.719 26.6915 148.719 27.5395C148.72 28.3875 148.917 29.2104 149.311 29.9242C149.704 30.638 150.234 31.2034 150.901 31.6184C151.567 32.0352 152.293 32.2428 153.082 32.2428Z" fill="white"/>
<path d="M161.848 34.1074L161.844 20.9708H164.051L164.052 22.6131C164.515 21.9995 165.102 21.5111 165.812 21.1479C166.522 20.7847 167.291 20.6023 168.123 20.6023C168.631 20.6023 169.121 20.6685 169.594 20.7991L168.701 23.0067C168.342 22.8922 167.991 22.8367 167.651 22.8367C166.995 22.8367 166.392 22.9959 165.845 23.3162C165.297 23.6364 164.861 24.0675 164.537 24.6096C164.214 25.1535 164.051 25.7563 164.051 26.4219L164.053 34.1074H161.846H161.848Z" fill="white"/>
<path d="M176.31 34.4474C175.1 34.4474 174 34.1361 173.005 33.5153C172.01 32.8946 171.217 32.0591 170.627 31.0125C170.036 29.966 169.739 28.8085 169.738 27.5383C169.738 26.5759 169.908 25.676 170.249 24.8387C170.591 24.0033 171.061 23.2662 171.66 22.6311C172.259 21.996 172.959 21.4987 173.755 21.1409C174.551 20.7813 175.4 20.6024 176.304 20.6024C177.293 20.6024 178.202 20.801 179.03 21.1999C179.859 21.5989 180.567 22.1517 181.16 22.8619C181.75 23.5721 182.194 24.3951 182.488 25.3307C182.782 26.2682 182.889 27.27 182.811 28.3398H172.091C172.197 29.084 172.442 29.7477 172.827 30.3291C173.212 30.9124 173.706 31.3739 174.305 31.7156C174.905 32.0573 175.574 32.2326 176.309 32.2416C177.098 32.2416 177.81 32.0376 178.45 31.6315C179.089 31.2236 179.606 30.6655 179.999 29.957L182.246 30.483C181.721 31.6476 180.928 32.6012 179.869 33.34C178.811 34.0807 177.623 34.4492 176.31 34.4492L176.31 34.4474ZM172.026 26.6045H180.592C180.522 25.8692 180.286 25.1965 179.881 24.5883C179.478 23.98 178.965 23.4916 178.344 23.1231C177.721 22.7546 177.043 22.5721 176.308 22.5721C175.573 22.5721 174.898 22.751 174.285 23.1106C173.671 23.4702 173.167 23.9532 172.768 24.5615C172.369 25.1697 172.123 25.8513 172.026 26.6045Z" fill="white"/>
<path d="M195.513 20.9716H197.721L197.725 34.1082H195.517L195.425 31.888C195.014 32.6501 194.447 33.2673 193.725 33.7396C193.002 34.2119 192.142 34.4499 191.143 34.4499C190.145 34.4499 189.277 34.2674 188.436 33.9042C187.596 33.5411 186.853 33.0366 186.209 32.3943C185.564 31.7503 185.063 31.0079 184.703 30.167C184.344 29.3262 184.164 28.4192 184.164 27.4478C184.164 26.4764 184.339 25.6266 184.689 24.7947C185.04 23.9628 185.528 23.2329 186.154 22.6068C186.78 21.9806 187.504 21.4904 188.327 21.1362C189.15 20.782 190.035 20.6049 190.98 20.6049C192.014 20.6049 192.919 20.8482 193.699 21.3348C194.48 21.8214 195.109 22.4493 195.591 23.2204L195.512 20.9734L195.513 20.9716ZM191.103 32.3084C191.971 32.3084 192.721 32.0956 193.355 31.6716C193.99 31.2476 194.48 30.6715 194.826 29.9434C195.171 29.2171 195.344 28.4156 195.344 27.539C195.343 26.6624 195.168 25.8377 194.817 25.1149C194.466 24.3922 193.974 23.8197 193.339 23.3939C192.703 22.9699 191.957 22.757 191.099 22.757C190.24 22.757 189.444 22.9717 188.734 23.4011C188.026 23.8304 187.462 24.4065 187.046 25.1292C186.629 25.852 186.422 26.6553 186.422 27.539C186.422 28.4228 186.637 29.2278 187.067 29.9488C187.496 30.6715 188.065 31.2458 188.776 31.6698C189.486 32.0938 190.261 32.3067 191.102 32.3067L191.103 32.3084Z" fill="white"/>
</g>
</g>
<defs>
<clipPath id="clip0_3275_3201">
<rect width="171.57" height="26.8358" fill="white" transform="matrix(1 0 0.000301956 1 26.2109 11.5822)"/>
</clipPath>
</defs>
</svg>
