<svg width="224" height="50" viewBox="0 0 224 50" fill="none" xmlns="http://www.w3.org/2000/svg">
<g clip-path="url(#clip0_3275_2840)">
<path fill-rule="evenodd" clip-rule="evenodd" d="M63.8941 39.952L62.6812 38.7918C61.8009 39.2409 60.8031 39.4842 59.5315 39.4842C57.5752 39.4842 56.2058 38.8854 55.0515 37.7813C53.4082 36.2094 53.4082 34.2444 53.4082 31.6433C53.4082 29.0421 53.4082 27.0772 55.0515 25.5053C56.2058 24.4012 57.5752 23.8211 59.5315 23.8211C61.5074 23.8211 62.8573 24.4012 64.0115 25.5053C65.6548 27.0772 65.6548 29.0421 65.6548 31.6433C65.6548 33.7953 65.6548 35.4982 64.7354 36.9018L65.9092 38.0246L63.8941 39.952ZM59.8445 36.0784L58.8272 35.1053L60.8423 33.1778L61.6052 33.9263C61.6835 33.4023 61.7031 32.6912 61.7031 31.6433C61.7031 28.8363 61.4683 28.3123 61.1162 27.8632C60.8227 27.4889 60.2554 27.1895 59.5315 27.1895C58.8077 27.1895 58.2403 27.4889 57.9469 27.8632C57.5948 28.3123 57.36 28.8363 57.36 31.6433C57.36 34.469 57.5948 34.9556 57.9469 35.4047C58.2403 35.7789 58.8077 36.0971 59.5315 36.0971C59.6489 36.0971 59.7663 36.0971 59.8445 36.0784Z" fill="white"/>
<path d="M69.293 38.4924C68.2366 37.4819 68.0605 36.3778 68.0605 35.1614V27.7134H71.7776V34.6749C71.7776 36.0222 72.7753 36.2842 73.2644 36.2842C73.7535 36.2842 74.7512 36.0222 74.7512 34.6749V27.7134H78.4682V39.3532H74.849V38.3988C74.1056 39.1099 72.9905 39.4842 72.0123 39.4842C70.8581 39.4842 69.9386 39.1099 69.2735 38.4737L69.293 38.4924Z" fill="white"/>
<path fill-rule="evenodd" clip-rule="evenodd" d="M81.5408 38.4176C80.8365 37.7439 80.4844 36.7708 80.4844 35.6854C80.4844 33.945 81.7169 32.317 84.6905 32.317H87.0772V32.0176C87.0772 30.9509 86.549 30.5579 85.2578 30.5579C84.4166 30.5579 83.908 30.8199 83.3211 31.3813L81.0126 29.1731C82.2646 27.9942 83.3797 27.5825 85.4339 27.5825C88.9162 27.5825 90.7942 28.9673 90.7942 31.793V39.3532H87.175V38.3988C86.4316 39.11 85.7469 39.4468 84.4557 39.4468C83.2428 39.4468 82.2255 39.0538 81.5408 38.4176ZM86.7055 36.1719C86.999 35.91 87.0772 35.5731 87.0772 34.9743V34.6749H85.3165C84.4557 34.6749 84.0253 35.0304 84.0253 35.6293C84.0253 36.1719 84.4557 36.5836 85.3556 36.5836C85.9621 36.5836 86.3142 36.4901 86.7055 36.1719Z" fill="white"/>
<path d="M93.3965 27.7135H97.0157V28.6678C97.7591 27.9567 98.8742 27.5825 99.8328 27.5825C100.987 27.5825 101.926 27.9567 102.572 28.5743C103.609 29.5661 103.804 30.6702 103.804 31.9053V39.3532H100.087V32.3918C100.087 31.0445 99.0894 30.7825 98.6003 30.7825C98.0917 30.7825 97.094 31.0445 97.094 32.3918V39.3532H93.3965V27.7135Z" fill="white"/>
<path d="M110.533 39.3532C107.834 39.3532 106.758 37.5006 106.758 35.9099V30.8947H105.643V28.1626H106.758V24.8316H110.455V28.1626H112.392V30.8947H110.455V35.648C110.455 36.0971 110.709 36.3591 111.218 36.3591H112.392V39.3532H110.533Z" fill="white"/>
<path d="M115.795 38.4924C114.758 37.4819 114.582 36.3778 114.582 35.1614V27.7134H118.299V34.6749C118.299 36.0222 119.277 36.2842 119.786 36.2842C120.275 36.2842 121.273 36.0222 121.273 34.6749V27.7134H124.99V39.3532H121.37V38.3988C120.627 39.1099 119.512 39.4842 118.534 39.4842C117.38 39.4842 116.46 39.1099 115.795 38.4737V38.4924Z" fill="white"/>
<path d="M127.787 27.7135H131.406V28.6678C132.15 27.9567 133.265 27.5825 134.243 27.5825C135.436 27.5825 136.415 27.9567 137.197 28.8176C138.253 27.9193 139.232 27.5825 140.64 27.5825C141.794 27.5825 142.89 27.9567 143.555 28.5743C144.592 29.5661 144.885 30.6702 144.885 31.9053V39.3532H141.168V32.3918C141.168 31.0445 140.19 30.7825 139.682 30.7825C139.193 30.7825 138.195 31.0445 138.195 32.3918V39.3532H134.478V32.3918C134.478 31.0445 133.48 30.7825 132.991 30.7825C132.502 30.7825 131.504 31.0445 131.504 32.3918V39.3532H127.787V27.7135Z" fill="white"/>
<path fill-rule="evenodd" clip-rule="evenodd" d="M154.199 23.952C156.86 23.952 158.855 25.4491 158.855 27.9754C158.855 29.5848 157.897 30.9322 156.351 31.4374C158.092 32.0175 159.11 33.3649 159.11 35.1427C159.11 37.8936 157.212 39.3532 154.375 39.3532H148.271V23.952H154.199ZM149.504 24.9813V30.9509H154.062C156.019 30.9509 157.642 30.0901 157.642 27.9754C157.642 25.8421 156.019 24.9813 154.062 24.9813H149.504ZM149.504 31.9988V38.3053H154.238C156.429 38.3053 157.877 37.145 157.877 35.1427C157.877 33.1591 156.429 31.9988 154.238 31.9988H149.504Z" fill="white"/>
<path fill-rule="evenodd" clip-rule="evenodd" d="M170.709 32.2047V39.3532H169.555V38.3053C168.616 39.2035 167.775 39.4842 166.229 39.4842C164.605 39.4842 163.725 39.2222 163.021 38.5298C162.493 38.0246 162.219 37.276 162.219 36.4901C162.219 34.5813 163.647 33.4772 166.014 33.4772H169.555V32.317C169.555 30.6515 168.714 29.7532 166.484 29.7532C164.938 29.7532 164.175 30.1275 163.471 31.0819L162.63 30.3895C163.549 29.1544 164.684 28.7801 166.464 28.7801C169.359 28.7801 170.709 30.0152 170.709 32.2047ZM166.151 34.3754C164.292 34.3754 163.373 35.0678 163.373 36.4713C163.373 37.8749 164.234 38.4924 166.229 38.4924C167.227 38.4924 168.146 38.4175 168.929 37.7064C169.34 37.3322 169.555 36.6585 169.555 35.7041V34.3754H166.151Z" fill="white"/>
<path d="M182.154 29.9029L181.391 30.6327C180.55 30.0526 179.533 29.7532 178.32 29.7532C176.52 29.7532 175.542 30.4643 175.542 31.7556C175.542 32.8596 176.226 33.3649 177.772 33.5146L179.533 33.6643C181.332 33.8327 182.721 34.3567 182.721 36.3778C182.721 38.2865 181.039 39.4842 178.359 39.4842C176.461 39.4842 175.053 38.9977 173.938 37.9871L174.74 37.2199C175.581 38.062 176.774 38.5111 178.3 38.5111C180.452 38.5111 181.587 37.7813 181.587 36.3778C181.587 35.2737 180.961 34.7684 179.513 34.6374L177.694 34.4877C175.503 34.3006 174.407 33.4023 174.407 31.7556C174.407 29.9403 175.953 28.7801 178.32 28.7801C179.846 28.7801 181.176 29.1918 182.154 29.8842V29.9029Z" fill="white"/>
<path fill-rule="evenodd" clip-rule="evenodd" d="M194.264 33.8702V34.3754H186.693C186.693 37.0328 187.906 38.4924 190.254 38.4924C191.525 38.4924 192.328 38.1181 193.247 37.2199L194.108 37.8749C193.012 38.9415 191.995 39.4842 190.176 39.4842C187.163 39.4842 185.539 37.6129 185.539 34.1322C185.539 30.6515 187.163 28.7988 189.902 28.7988C192.641 28.7988 194.264 30.6702 194.264 33.8702ZM187.085 31.5123C186.791 32.1485 186.772 32.4854 186.693 33.4959H193.11C193.051 32.4854 193.032 32.1485 192.738 31.5123C192.269 30.4082 191.173 29.7719 189.902 29.7719C188.65 29.7719 187.593 30.4456 187.085 31.5123Z" fill="white"/>
<path d="M199.135 36.6211C199.135 37.8187 199.526 38.3801 200.798 38.3801H201.6V39.3532H200.602C198.822 39.3532 197.98 38.2866 197.98 36.6398V23.952H199.135V36.6211Z" fill="white"/>
<g clip-path="url(#clip1_3275_2840)">
<path d="M54.7653 22.2887C53.7448 22.3051 52.7486 22.1417 51.7655 21.8993C51.564 21.8492 51.4795 21.9006 51.3854 22.0594C50.7637 23.1063 50.1157 24.1386 49.3264 25.0821C48.6022 25.9471 47.7991 26.7331 46.7856 27.3016C45.4542 28.0481 44.0481 28.2088 42.57 27.7964C41.2338 27.4235 40.0555 26.764 38.954 25.9695C38.4466 25.6032 37.9744 25.1993 37.5285 24.7665C36.5676 23.8329 35.7465 22.7999 35.0694 21.6634C34.3992 20.5388 33.8703 19.3608 33.5574 18.0985C33.3753 17.3613 33.2797 16.6168 33.3331 15.8625C33.4466 14.2576 34.5322 13.2312 36.1543 13.0566C36.8563 12.9808 37.5271 13.0908 38.1897 13.276C39.7592 13.7147 41.1847 14.4539 42.5963 15.2182C44.3126 16.1471 46.0136 17.1017 47.7687 17.9674C48.56 18.3575 49.3666 18.7178 50.1586 19.1065C50.4134 19.2317 50.4196 19.2205 50.5567 18.9623C51.3985 17.3771 52.2272 15.7854 53.2657 14.3044C53.85 13.471 54.5008 12.6929 55.3385 12.0723C56.0475 11.5465 56.8395 11.2158 57.7444 11.2178C58.8625 11.2204 59.813 11.6263 60.5677 12.4136C61.3611 13.241 61.7578 14.2372 61.8838 15.3394C62.0499 16.7934 61.6816 18.1328 60.8134 19.3226C59.6579 20.9051 58.0531 21.8598 56.0572 22.2083C55.8453 22.2452 55.63 22.2722 55.4147 22.2854C55.1987 22.2985 54.9813 22.288 54.7653 22.288V22.2887ZM36.5517 15.1885C35.7347 15.1865 35.491 15.6721 35.5291 16.2703C35.5831 17.1235 35.806 17.951 36.119 18.7554C36.4388 19.5789 36.8604 20.3511 37.3499 21.0936C37.8255 21.8143 38.3725 22.4824 38.988 23.0984C39.8471 23.9581 40.8247 24.6795 41.9331 25.2244C42.6261 25.565 43.3378 25.8654 44.1554 25.8232C44.6027 25.8002 45.0243 25.7126 45.4259 25.5301C46.1943 25.1802 46.7877 24.6288 47.327 24.0187C48.083 23.1629 48.6832 22.2076 49.2738 21.2464C49.3382 21.1423 49.3243 21.0982 49.2087 21.0455C48.3544 20.6587 47.5028 20.2648 46.6623 19.851C45.0271 19.0466 43.4389 18.1624 41.8431 17.2921C40.7693 16.7064 39.692 16.1247 38.5428 15.678C37.9024 15.429 37.253 15.2162 36.5524 15.1892L36.5517 15.1885ZM52.6004 19.878C52.7742 19.9248 52.9272 19.9815 53.085 20.0058C53.8867 20.1323 54.6912 20.1929 55.5047 20.1C56.6512 19.9689 57.6114 19.4748 58.4242 18.7211C59.1013 18.0933 59.5132 17.3251 59.6296 16.4205C59.7383 15.5785 59.5873 14.7919 59.0757 14.0896C58.5578 13.3787 57.671 13.189 56.962 13.6232C56.4386 13.9433 56.0115 14.3709 55.6452 14.8374C54.8809 15.8111 54.2544 16.8685 53.6673 17.947C53.317 18.5907 52.9583 19.2304 52.6004 19.878Z" fill="white"/>
</g>
</g>
<defs>
<clipPath id="clip0_3275_2840">
<rect width="179.2" height="32" fill="white" transform="translate(22.4004 9)"/>
</clipPath>
<clipPath id="clip1_3275_2840">
<rect width="28.6047" height="16.8" fill="white" transform="translate(33.3184 11.2178)"/>
</clipPath>
</defs>
</svg>
