<svg width="224" height="50" viewBox="0 0 224 50" fill="none" xmlns="http://www.w3.org/2000/svg">
<path d="M87.5723 25.0001L76.9297 43.4347H55.6436L45 25.0001L55.6436 6.56554H76.9297L87.5723 25.0001ZM68.334 19.2355C67.9611 19.2226 67.7639 19.3727 67.5967 19.6769C67.1636 20.4573 66.7126 21.2292 66.2109 22.0997L66.207 22.0958C65.7096 21.2296 65.2768 20.4443 64.8008 19.6896C64.6893 19.5181 64.4231 19.3554 64.2217 19.3468C63.3256 19.3125 62.4293 19.3125 61.5332 19.3468C61.3445 19.3554 61.0951 19.5055 60.9922 19.6642C60.5506 20.363 60.1435 21.0877 59.749 21.8165C59.6804 21.9452 59.6761 22.1814 59.749 22.3058C60.2577 23.1964 60.7688 24.0854 61.2793 24.9747H58.0186L56.3457 27.8692L58.0186 30.7628H61.3633L62.9902 27.9454C63.4504 28.7393 63.9118 29.5325 64.376 30.3243C64.4789 30.4958 64.7575 30.6507 64.959 30.6593C65.808 30.6979 66.6529 30.6679 67.502 30.6808C67.7978 30.6851 67.9909 30.599 68.1367 30.3204C68.4368 29.746 68.7709 29.1883 69.0967 28.631C69.2382 28.3865 69.4019 28.1542 69.582 27.8712C70.1051 28.7802 70.5765 29.6167 71.0781 30.4357C71.1681 30.5814 71.3953 30.7232 71.5625 30.7276C72.4716 30.7619 73.381 30.7447 74.29 30.7618C74.573 30.7704 74.7271 30.6631 74.8643 30.4103C75.2502 29.6899 75.6447 28.9778 76.082 28.296C76.2879 27.9744 76.2582 27.7473 76.0781 27.4386C74.5601 24.8272 73.0509 22.2152 71.5586 19.5909C71.4 19.3167 71.2196 19.2351 70.9238 19.2394C70.062 19.2522 69.1958 19.2655 68.334 19.2355Z" fill="white"/>
<mask id="mask0_3275_2974" style="mask-type:luminance" maskUnits="userSpaceOnUse" x="92" y="18" width="88" height="14">
<path d="M179.001 18.1331H92.9512V31.945H179.001V18.1331Z" fill="white"/>
</mask>
<g mask="url(#mask0_3275_2974)">
<path d="M99.3262 24.516C100.351 22.5177 101.277 20.8711 102.049 19.1559C102.735 17.6293 103.992 18.2425 104.999 18.2811C106.054 18.324 105.604 19.3617 105.613 19.9577C105.656 23.4611 105.6 26.9688 105.656 30.4721C105.668 31.4927 105.308 31.7585 104.365 31.7242C103.503 31.6899 102.855 31.7242 102.894 30.5021C102.975 28.1737 102.92 25.8367 102.654 23.4225C101.582 25.3907 100.505 27.359 99.3134 29.5416C98.1384 27.3504 97.0921 25.3993 96.0458 23.444C95.9472 23.4568 95.84 23.4697 95.7413 23.4825C95.7413 25.7595 95.6813 28.0408 95.7671 30.3177C95.81 31.4798 95.3897 31.7414 94.322 31.7414C93.2757 31.7414 92.9841 31.3941 92.9969 30.3606C93.0484 26.8573 92.9969 23.3496 93.0355 19.8462C93.0398 19.2845 92.641 18.3111 93.623 18.2854C94.5964 18.2639 95.8142 17.6336 96.5046 19.0144C97.3708 20.7467 98.2756 22.462 99.3348 24.516H99.3262Z" fill="white"/>
<path d="M178.726 22.6652C178.082 19.9294 176.281 18.3642 173.516 18.2399C172.143 18.1798 170.767 18.2656 169.395 18.2056C168.494 18.167 168.177 18.5057 168.198 19.4148C168.241 21.263 168.211 23.1111 168.211 24.9636C168.211 26.8632 168.228 28.7628 168.203 30.6624C168.19 31.4172 168.447 31.743 169.227 31.7173C170.501 31.6701 171.779 31.7173 173.057 31.7002C176.264 31.6444 178.164 30.045 178.82 26.8289C179.103 25.4396 179.056 24.0502 178.73 22.6695L178.726 22.6652ZM175.784 27.1419C175.329 28.7199 172.825 29.7705 171.397 28.9729C171.071 28.7928 171.063 28.5098 171.063 28.2182C171.058 26.0227 171.063 23.823 171.058 21.6317C171.058 21.1558 171.264 20.9499 171.745 20.8556C174.446 20.3325 175.917 21.5203 175.964 24.3161C175.968 24.5648 175.964 24.8135 175.964 25.0622C175.964 25.7612 175.977 26.4558 175.78 27.1419H175.784Z" fill="white"/>
<path d="M116.996 29.627C116.194 29.1167 116.383 28.4606 116.362 27.8045C116.327 26.7025 116.362 25.5962 116.319 24.4941C116.284 23.4864 115.851 22.6631 115.032 22.0757C113.493 20.9693 110.5 21.0551 109.037 22.2772C108.66 22.5945 107.931 22.9461 108.519 23.5593C108.977 24.0439 109.432 25.0644 110.405 24.1339C111.031 23.5293 111.833 23.4521 112.622 23.7051C113.326 23.9281 113.617 24.5327 113.54 25.2403C113.459 26.0121 112.811 25.7505 112.374 25.7634C111.383 25.7891 110.405 25.8663 109.488 26.2737C108.18 26.8526 107.554 28.0018 107.777 29.4254C107.995 30.8276 108.793 31.6467 110.208 31.8439C111.709 32.054 112.922 31.6166 113.763 30.2659C114.205 30.7462 114.44 31.3594 115.071 31.5266C115.774 31.7153 116.627 32.0412 117.121 31.4108C117.451 30.9863 117.545 29.97 116.996 29.6227V29.627ZM113.596 28.3791C113.544 29.4683 112.922 29.8671 111.971 29.8971C111.186 29.9228 110.62 29.657 110.611 28.7222C110.607 27.7917 111.066 27.44 112.524 27.4186C113.013 27.3972 113.647 27.3629 113.596 28.3748V28.3791Z" fill="white"/>
<path d="M139.248 21.5101C135.826 20.5839 133.189 22.7794 133.172 26.9088C133.24 28.4997 133.635 30.3007 135.479 31.2826C137.31 32.256 139.184 32.1145 140.972 31.124C141.444 30.8624 142.378 30.6437 141.701 29.7389C141.246 29.13 140.951 28.2124 139.827 29.1558C138.691 30.1077 137.035 29.7861 136.418 28.7784C135.835 27.835 136.088 27.3333 137.194 27.3119C138.618 27.2862 140.046 27.3076 141.469 27.299C141.911 27.299 142.306 27.3033 142.426 26.6601C142.812 24.5589 141.306 22.0718 139.252 21.5144L139.248 21.5101ZM137.786 25.781C137.263 25.3994 136.225 26.2313 136.174 25.0949C136.122 24.0615 136.851 23.4998 137.885 23.4869C138.892 23.474 139.501 24.083 139.471 25.0349C139.428 26.3685 138.3 25.3351 137.786 25.781Z" fill="white"/>
<path d="M162.676 31.7066C162.135 31.7066 161.586 31.7709 161.055 31.6895C160.476 31.6037 159.55 32.1654 159.477 30.9648C159.425 30.12 159.267 29.1767 160.63 29.3096C161.076 29.3525 161.188 28.9966 161.188 28.6063C161.188 26.1578 161.188 23.7051 161.188 21.2523C161.188 20.832 160.982 20.5662 160.562 20.6134C159.258 20.7549 159.477 19.8329 159.472 19.0482C159.464 17.959 160.274 18.2506 160.849 18.2335C162.127 18.2035 163.405 18.2335 164.682 18.2206C165.291 18.212 165.802 18.3064 165.707 19.0911C165.634 19.6957 166.089 20.6434 164.884 20.5876C164.086 20.549 164.035 21.0422 164.035 21.6468C164.039 23.8466 164.035 26.0506 164.035 28.2504C164.035 28.825 164.035 29.3911 164.85 29.3396C166.042 29.2667 165.647 30.1844 165.712 30.8061C165.81 31.7109 165.231 31.7366 164.588 31.7195C163.949 31.7023 163.31 31.7195 162.671 31.7195L162.676 31.7066Z" fill="white"/>
<path d="M127.001 26.7426V24.6414C127.001 24.2083 126.937 23.8396 126.388 23.8224C125.595 23.7967 125.629 23.2092 125.629 22.6432C125.629 22.0772 125.642 21.5626 126.435 21.5068C127.473 21.4382 127.314 20.5592 127.263 19.9074C127.173 18.7282 127.889 18.8139 128.665 18.7882C129.493 18.7582 129.994 18.9254 129.879 19.9245C129.767 20.8808 129.776 21.7255 131.174 21.5797C131.911 21.5025 131.744 22.2401 131.753 22.6989C131.765 23.1792 131.847 23.8567 131.109 23.7795C129.827 23.6509 129.814 24.4142 129.857 25.3447C129.896 26.1894 129.883 27.0428 129.857 27.8961C129.831 28.7837 129.767 29.5856 131.071 29.5341C131.916 29.5041 131.585 30.3188 131.645 30.8077C131.723 31.4166 131.478 31.6653 130.826 31.7253C128.258 31.9526 127.031 30.8677 126.997 28.2434C126.993 27.7417 126.997 27.2443 126.997 26.7426H127.001Z" fill="white"/>
<path d="M119.74 26.9075C119.74 26.1571 119.745 25.4109 119.74 24.6605C119.736 24.3089 119.732 23.8672 119.273 23.8672C118.304 23.8672 118.39 23.2283 118.347 22.5551C118.295 21.7575 118.647 21.5774 119.346 21.4616C120.105 21.333 120.062 20.5611 120.011 19.9908C119.912 18.8931 120.491 18.803 121.344 18.7859C122.21 18.7687 122.648 19.0046 122.536 19.9565C122.416 20.9728 122.558 21.7403 123.891 21.5645C124.646 21.4659 124.56 22.122 124.547 22.6065C124.535 23.1211 124.706 23.8758 123.857 23.7858C122.48 23.6357 122.476 24.4633 122.528 25.4452C122.562 26.1399 122.528 26.8432 122.536 27.5421C122.545 28.4984 122.236 29.5832 123.866 29.5661C124.612 29.5575 124.247 30.4323 124.316 30.9254C124.393 31.4914 124.093 31.6715 123.544 31.7273C121.074 31.9974 119.813 30.9168 119.749 28.4083C119.736 27.9066 119.749 27.4092 119.749 26.9118H119.74V26.9075Z" fill="white"/>
<path d="M147.219 23.2827C147.747 22.6952 147.948 22.4122 148.201 22.1978C148.746 21.7347 149.492 21.2501 150.067 21.6618C150.701 22.1163 150.35 23.0554 150.294 23.7758C150.251 24.3504 149.719 24.1832 149.355 24.2261C147.494 24.4619 147.331 24.6463 147.318 26.5845C147.314 27.9867 147.275 29.3932 147.327 30.7954C147.365 31.8546 146.675 31.7645 146.053 31.6959C145.427 31.6316 144.436 32.1547 144.436 30.8383C144.436 28.0339 144.445 25.2295 144.428 22.4208C144.419 21.2244 145.285 21.6146 145.899 21.5374C146.881 21.4131 147.61 21.5932 147.219 23.2913V23.2827Z" fill="white"/>
<path d="M154.584 27.211H153.405C151.895 27.2067 151.376 26.4349 151.822 24.9641C151.959 24.5181 152.238 24.4538 152.59 24.4495C153.919 24.4409 155.244 24.4624 156.574 24.4452C157.77 24.428 157.363 25.3328 157.414 25.946C157.47 26.6064 157.517 27.3011 156.501 27.2239C155.866 27.1767 155.223 27.2153 154.58 27.2153L154.584 27.211Z" fill="white"/>
</g>
</svg>
