<svg width="224" height="50" viewBox="0 0 224 50" fill="none" xmlns="http://www.w3.org/2000/svg">
<g clip-path="url(#clip0_3275_2996)">
<mask id="mask0_3275_2996" style="mask-type:luminance" maskUnits="userSpaceOnUse" x="43" y="7" width="138" height="36">
<path d="M180.833 7.22397H43L43.0107 42.7472H180.844L180.833 7.22397Z" fill="white"/>
</mask>
<g mask="url(#mask0_3275_2996)">
<path d="M70.4016 22.7255C71.3175 23.5031 72.3208 23.9252 73.2528 24.4512C73.8958 24.8132 74.2255 25.2402 74.1721 25.9918C74.0008 28.4204 74.0437 30.8539 74.0445 33.2873C74.0446 33.7955 73.8028 34.0698 73.3954 34.3052C70.2855 36.1088 67.1838 37.9254 64.0788 39.7339C62.4913 40.6592 60.8893 41.5602 59.3133 42.5066C58.8118 42.8069 58.3848 42.8345 57.8864 42.5277C57.0128 41.9871 56.1247 41.4693 55.2268 40.9693C54.8208 40.7436 54.66 40.44 54.668 39.9855C54.6856 38.9855 54.6609 37.9838 54.6736 36.9838C54.6815 36.3945 54.4494 36.3312 53.99 36.6039C53.1541 37.1023 52.3036 37.5764 51.4758 38.0861C51.062 38.341 50.7129 38.3556 50.2794 38.0975C48.0955 36.7971 45.9019 35.5146 43.6954 34.2565C43.2083 33.9789 43.0215 33.6364 43.0164 33.0877C42.9742 27.6266 43.0846 22.1671 43.1543 16.7076C43.1607 16.2563 43.3132 15.9495 43.719 15.7222C44.615 15.2222 45.4979 14.6946 46.376 14.1637C46.8143 13.8991 47.2071 13.8845 47.6585 14.167C48.3908 14.6264 49.1572 15.0306 49.9073 15.4625C50.6607 15.8959 50.7841 15.8358 50.7952 14.9917C50.8063 14.0988 50.8157 13.2059 50.7976 12.3147C50.7861 11.7919 51.0084 11.4738 51.4596 11.2156C53.6654 9.95426 55.8599 8.67665 58.0478 7.38442C58.426 7.16039 58.7247 7.17825 59.0949 7.39254C63.1184 9.72374 67.1467 12.0436 71.1751 14.365C71.948 14.8098 72.7111 15.2758 73.5018 15.6881C73.9678 15.9316 74.1741 16.2677 74.1677 16.7839C74.1551 17.8115 74.1602 18.8391 74.1638 19.8667C74.1639 20.3473 73.9611 20.6654 73.531 20.9041C72.5003 21.4771 71.4907 22.0908 70.4032 22.7272L70.4016 22.7255ZM70.0876 20.4349C70.0876 20.3262 70.0875 20.219 70.0875 20.1102C70.0775 19.1881 70.225 18.344 69.09 17.7336C65.7843 15.9527 62.5645 14.0128 59.3236 12.1134C58.8252 11.8212 58.3933 11.7627 57.8918 12.0712C57.1322 12.5387 56.3482 12.964 55.5853 13.4251C54.8809 13.8504 54.8793 13.9089 55.6197 14.3358C57.4691 15.4024 59.3298 16.4495 61.1791 17.516C63.9199 19.094 66.6558 20.6784 69.3885 22.271C69.8691 22.5518 70.1288 22.5648 70.0913 21.8944C70.0636 21.409 70.0861 20.9219 70.086 20.4349H70.0876ZM70.0887 29.5714C70.0886 29.1396 70.0934 28.7061 70.0884 28.2743C70.0784 27.3912 70.0329 27.3668 69.2489 27.8181C66.6974 29.2873 64.1475 30.7565 61.5976 32.2256C59.632 33.3571 57.6599 34.4789 55.6992 35.6218C54.9623 36.052 54.9753 36.1867 55.7222 36.625C56.3749 37.0082 57.0504 37.354 57.6804 37.7712C58.3234 38.1965 58.8575 38.1527 59.531 37.7501C62.4055 36.0325 65.2833 34.315 68.2325 32.7305C69.5814 32.0065 70.5633 31.2727 70.0904 29.5714H70.0887ZM50.7868 25.021H50.7982C50.7974 22.37 50.7998 19.719 50.7942 17.0664C50.7923 16.2433 50.7014 16.2011 49.9823 16.6248C49.2844 17.0371 48.5995 17.4771 47.8772 17.8424C47.2669 18.1508 47.0559 18.5778 47.0626 19.2596C47.0962 22.7223 47.1524 26.1866 47.0544 29.6477C47.0143 31.0584 47.2954 32.0487 48.716 32.5422C49.1657 32.6997 49.5522 33.0341 49.9776 33.2727C50.705 33.6818 50.7878 33.6364 50.7892 32.8101C50.7933 30.2126 50.7892 27.6152 50.7885 25.0178L50.7868 25.021ZM54.7397 24.646C54.7922 26.4918 54.6678 28.5178 54.8421 30.5406C54.9138 31.3685 54.9593 31.4237 55.6653 31.0178C58.9181 29.1493 62.1626 27.2662 65.417 25.3993C65.9007 25.1217 66.011 24.9415 65.433 24.6103C62.1304 22.7174 58.8457 20.7937 55.5497 18.8911C54.9083 18.5209 54.7476 18.6183 54.743 19.3651C54.7305 21.0664 54.7391 22.7677 54.7397 24.646Z" fill="white"/>
<path d="M81.1139 23.9033C81.113 20.9488 81.1462 17.9942 81.095 15.0412C81.0735 13.7831 81.5392 13.2685 82.8217 13.288C86.2682 13.3399 89.7163 13.2328 93.1612 13.335C97.8463 13.4747 100.596 17.4568 99.0908 21.8709C98.8134 22.6826 98.9824 23.1209 99.5296 23.7215C101.454 25.8335 101.779 28.3173 100.699 30.8953C99.6446 33.4116 97.554 34.6681 94.8819 34.7281C90.8364 34.8207 86.786 34.7346 82.7373 34.7671C81.5392 34.7768 81.0862 34.2801 81.1037 33.0934C81.1466 30.03 81.1164 26.9667 81.1155 23.9033H81.1139ZM86.4208 24.0511C86.4213 25.5852 86.4331 27.1193 86.4173 28.6518C86.4079 29.5625 86.7197 30.1226 87.7327 30.1144C89.9227 30.0966 92.1143 30.1193 94.3058 30.0885C95.465 30.0722 95.9307 29.3839 95.9482 28.2719C95.9689 27.0965 95.5077 26.353 94.269 26.3076C93.066 26.2637 91.8582 26.2995 90.6537 26.2751C89.3744 26.2475 87.518 23.4569 87.9787 22.2783C88.1929 21.7313 88.6815 21.8351 89.0971 21.8238C90.2465 21.7962 91.3991 21.8319 92.5468 21.7881C93.7709 21.741 94.2609 21.0007 94.2752 19.8384C94.291 18.6176 93.7178 17.9991 92.4937 17.9958C90.9596 17.9909 89.4255 18.012 87.893 17.9796C86.8557 17.9569 86.3899 18.4082 86.4097 19.4504C86.4394 20.9829 86.4187 22.517 86.4192 24.0511H86.4208Z" fill="white"/>
<path d="M119.247 34.7535C117.221 34.7535 115.195 34.7405 113.17 34.7584C112.039 34.7681 111.586 34.4288 111.948 33.1788C112.83 30.1349 112.783 30.122 115.947 30.1203C118.629 30.1203 121.312 30.0992 123.994 30.1252C125.33 30.1382 126.234 29.7778 126.239 28.2128C126.243 26.6787 125.426 26.2372 124.041 26.2696C122.072 26.3151 120.1 26.3118 118.129 26.2664C113.933 26.1674 111.605 23.8037 111.617 19.7079C111.627 15.8263 114.088 13.3815 118.149 13.3166C121.434 13.263 124.719 13.3312 128.003 13.2922C129.401 13.276 129.694 13.8214 129.314 15.1137C128.484 17.9481 128.502 17.9773 125.484 17.979C123.239 17.979 120.995 17.9887 118.75 17.9822C117.547 17.979 116.721 18.354 116.726 19.7501C116.73 21.1007 117.378 21.7923 118.72 21.8021C120.855 21.8167 122.991 21.7858 125.126 21.8232C129.058 21.8913 131.518 24.2615 131.557 27.9758C131.598 31.9434 129.093 34.6236 125.159 34.7438C123.19 34.8038 121.218 34.7535 119.247 34.7551L119.247 34.7535Z" fill="white"/>
<path d="M138.776 23.4288C141.179 20.6398 143.369 18.2891 145.329 15.7599C146.759 13.9157 148.359 12.8719 150.741 13.2923C151.573 13.4401 152.781 12.88 153.174 13.6852C153.585 14.5294 152.42 15.1219 151.896 15.7583C149.914 18.1658 147.887 20.5408 145.8 22.8574C145.015 23.7291 144.986 24.3265 145.788 25.2113C148.175 27.8461 150.48 30.5571 152.812 33.2439C153.089 33.562 153.542 33.8689 153.313 34.3543C153.094 34.8202 152.567 34.7406 152.14 34.7488C151.21 34.7682 150.275 34.7017 149.349 34.7731C148.083 34.8705 147.174 34.39 146.368 33.4224C144.515 31.1919 142.593 29.0182 140.689 26.8298C140.163 26.2243 139.606 25.6464 138.775 24.7421C138.776 27.7 138.705 30.2519 138.803 32.7958C138.862 34.3267 138.271 34.7991 136.799 34.7861C133.675 34.7585 133.674 34.8169 133.673 31.6578C133.671 26.2373 133.713 20.8184 133.642 15.3995C133.622 13.8784 134.034 13.2388 135.661 13.2696C138.768 13.328 138.77 13.2501 138.772 16.4336C138.773 18.6025 138.773 20.7729 138.774 23.4321L138.776 23.4288Z" fill="white"/>
<path d="M170.247 17.9773C167.727 17.9773 165.662 17.901 163.607 18.0001C161.677 18.0926 161.714 16.8945 161.694 15.5455C161.674 14.1883 161.787 13.2354 163.589 13.2679C168.737 13.3588 173.89 13.349 179.039 13.2744C180.757 13.25 180.864 14.1883 180.832 15.4708C180.8 16.7565 181.002 18.1137 179.008 17.9887C177.917 17.9205 176.813 18.0407 175.722 17.966C174.372 17.8751 173.883 18.4092 173.903 19.7696C173.964 23.9871 173.941 28.2064 173.913 32.4256C173.909 33.1967 174.255 34.3055 173.229 34.5717C171.869 34.924 170.408 35.0149 169.05 34.4386C168.625 34.2584 168.641 33.6918 168.639 33.2535C168.633 29.0343 168.646 24.8167 168.627 20.5975C168.622 19.6024 169.378 19.0699 170.248 17.9757L170.247 17.9773Z" fill="white"/>
<path d="M154.764 23.9313C154.764 21.0303 154.808 18.1276 154.742 15.2266C154.711 13.8419 155.161 13.272 156.622 13.2737C160.057 13.2769 160.057 13.2169 160.058 16.6601C160.059 21.9702 160.067 27.282 160.056 32.5921C160.052 34.5856 159.881 34.735 157.906 34.761C155.814 34.7902 154.767 33.7533 154.765 31.6505C154.764 29.0774 154.764 26.5044 154.763 23.9313H154.764Z" fill="white"/>
<path d="M108.556 24.1698C108.557 27.1228 108.517 30.0757 108.576 33.0271C108.601 34.3079 108.09 34.7462 106.84 34.7771C103.426 34.8583 103.426 34.8989 103.425 31.4361C103.423 26.0789 103.467 20.7201 103.396 15.3629C103.374 13.7963 103.905 13.108 105.473 13.3012C105.527 13.3077 105.582 13.3012 105.637 13.3012C107.58 13.286 108.552 14.2303 108.554 16.134C108.554 18.8126 108.555 21.4912 108.556 24.1714L108.556 24.1698Z" fill="white"/>
<path d="M56.6377 24.9414C56.6374 24.0778 56.6404 23.2141 56.6369 22.3521C56.6351 21.8537 56.8088 21.7109 57.2715 21.982C58.8091 22.8781 60.3549 23.7628 61.9006 24.646C62.3212 24.8862 62.3018 25.1135 61.9073 25.3424C60.3475 26.2531 58.7845 27.1606 57.223 28.0665C56.7913 28.3165 56.637 28.1346 56.6385 27.6931C56.6415 26.7759 56.6379 25.8586 56.6377 24.9414Z" fill="white"/>
</g>
</g>
<defs>
<clipPath id="clip0_3275_2996">
<rect width="137.989" height="35.5524" fill="white" transform="matrix(1 0 0.000301956 1 43 7.22397)"/>
</clipPath>
</defs>
</svg>
