<svg width="224" height="50" viewBox="0 0 224 50" fill="none" xmlns="http://www.w3.org/2000/svg">
<g clip-path="url(#clip0_3444_5291)">
<path d="M64.4996 37.0739C64.6801 35.4983 64.8035 33.9131 65.0574 32.3504C65.2429 31.2057 64.9289 30.3696 64.049 29.6804C62.8495 28.7399 61.6619 27.7821 60.4951 26.7991C59.1602 25.6744 59.1709 24.3133 60.512 23.1899C61.6532 22.2347 62.8032 21.2884 63.9757 20.3744C64.885 19.6658 65.2566 18.8297 65.0461 17.6245C64.7804 16.103 64.6425 14.5551 64.5077 13.013C64.3743 11.4877 65.3908 10.4661 66.8748 10.6219C68.3374 10.7759 69.7989 10.9582 71.2509 11.192C72.374 11.373 73.2595 11.1121 73.9614 10.1395C74.8155 8.95554 75.7299 7.81668 76.6248 6.66365C77.8274 5.11448 79.1817 5.1119 80.3624 6.64948C81.2742 7.83665 82.2023 9.01158 83.091 10.2174C83.712 11.06 84.5029 11.3704 85.5031 11.2339C86.9608 11.0355 88.4204 10.8545 89.8793 10.6703C91.6691 10.4448 92.653 11.5141 92.4067 13.3789C92.2137 14.8398 92.0727 16.3079 91.8803 17.7688C91.7324 18.8948 92.104 19.7386 92.9946 20.4175C94.1759 21.3187 95.3227 22.2701 96.4608 23.2286C97.7599 24.3224 97.7568 25.6635 96.452 26.7566C95.3396 27.688 94.2235 28.6182 93.0629 29.4839C92.0896 30.2099 91.7224 31.1213 91.8897 32.3291C92.0921 33.7888 92.2425 35.2555 92.4211 36.719C92.633 38.4576 91.6534 39.5088 89.9752 39.3123C88.5144 39.1416 87.0535 38.9658 85.5977 38.7564C84.5104 38.6006 83.6663 38.9213 83.0014 39.8489C82.1723 41.0058 81.2899 42.1228 80.4213 43.2494C79.1297 44.9242 77.8587 44.9145 76.5477 43.2236C75.6992 42.1292 74.8212 41.0554 74.0222 39.9236C73.3033 38.9059 72.4022 38.6205 71.2296 38.8176C69.8152 39.0553 68.3876 39.2215 66.9606 39.3697C65.4233 39.5294 64.4482 38.5954 64.499 37.0733L64.4996 37.0739ZM79.2701 16.8728C77.8374 16.7195 77.6826 17.4647 77.6946 18.5373C77.7409 22.7287 77.7466 26.9215 77.6977 31.113C77.6845 32.2525 77.8143 33.0847 79.2813 32.9546C79.2813 33.8674 79.2293 34.6944 79.3108 35.508C79.3371 35.7721 79.7131 35.9988 79.9287 36.243C80.0879 35.9885 80.3649 35.7431 80.3843 35.4771C80.4445 34.6622 80.4062 33.8403 80.4062 32.8605C82.0588 33.2316 82.0118 32.2048 82.0062 31.1271C81.9861 27.0484 81.9993 22.9696 82.0005 18.8909C82.0005 17.7396 81.471 16.999 80.4119 16.6692C80.4119 16.0141 80.472 15.3294 80.3862 14.6646C80.3448 14.3432 80.0283 14.0591 79.8366 13.7577C79.6473 14.072 79.3384 14.369 79.2951 14.7033C79.2093 15.3635 79.2694 16.0438 79.2694 16.8721L79.2701 16.8728ZM74.1061 20.851C74.1061 19.8371 74.15 19.0068 74.0798 18.1868C74.0579 17.9318 73.7276 17.7044 73.539 17.4647C73.361 17.7121 73.0727 17.9408 73.0288 18.2107C72.9461 18.7266 72.9894 19.2664 73.005 19.7953C73.0226 20.4033 73.0107 20.8787 72.1897 20.9612C71.8983 20.9908 71.449 21.5995 71.4371 21.9564C71.3681 23.9971 71.3825 26.0422 71.4389 28.0842C71.4477 28.4069 71.8124 28.9911 72.0149 28.9918C73.094 28.9969 73.0458 29.6888 73.0151 30.4431C72.995 30.9339 72.9649 31.4363 73.0483 31.9136C73.0878 32.1404 73.3829 32.3195 73.5622 32.5204C73.7339 32.3098 74.0253 32.1153 74.0535 31.886C74.1268 31.2895 74.1068 30.6775 74.0817 30.0733C74.056 29.4607 74.1688 29.0607 74.8983 29.0523C75.6447 29.0446 75.7349 28.4604 75.733 27.8446C75.7293 26.1421 75.6898 24.4377 75.7493 22.7371C75.7888 21.6073 75.6584 20.7267 74.1055 20.8504L74.1061 20.851Z" fill="white"/>
<path d="M137.641 36.622C139.557 36.6665 141.427 36.8327 142.552 34.6683C141.795 34.8448 141.188 35.0729 140.568 35.1167C137.665 35.3228 134.759 33.3523 134.435 30.3957C134.085 27.2001 134.356 23.9317 134.356 20.6323H137.723C137.723 21.2765 137.718 21.9052 137.724 22.5339C137.744 24.6892 137.696 26.8484 137.812 28.9985C137.894 30.5187 138.873 31.4102 140.205 31.465C141.492 31.5178 142.726 30.5438 142.879 29.1183C143.038 27.6213 142.996 26.1005 143.018 24.59C143.037 23.3075 143.022 22.0243 143.022 20.6568H146.603C146.62 21.0433 146.652 21.4433 146.653 21.8433C146.656 25.3997 146.661 28.956 146.654 32.513C146.644 37.4382 143.166 40.7381 138.39 40.3233C138.126 40.3008 137.69 39.9768 137.674 39.7655C137.598 38.7613 137.64 37.7474 137.64 36.6227L137.641 36.622Z" fill="white"/>
<path d="M121.726 17.9894C121.086 19.0651 120.475 20.0912 119.867 21.1154C115.884 18.781 113.083 18.9318 111.015 21.5509C109.14 23.9252 109.174 27.0867 111.098 29.338C113.287 31.8998 116.084 32.0241 119.856 29.671C120.479 30.7229 121.101 31.7755 121.713 32.808C118.706 36.2291 112.57 36.119 108.975 32.6412C104.993 28.7885 104.864 22.3896 108.689 18.4319C112.22 14.7783 118.447 14.5258 121.726 17.9894H121.726Z" fill="white"/>
<path d="M159.03 13.5885V17.1713C156.747 17.3278 153.907 16.598 153.778 20.5132H158.057V24.19H153.8V34.8339H150.239V24.3156C149.608 24.2615 149.11 24.2196 148.535 24.1706V20.6471C149.074 20.6001 149.571 20.5563 150.133 20.5074C150.204 18.2329 150.883 16.285 152.697 14.8698C154.58 13.4005 156.728 13.4732 159.031 13.5879L159.03 13.5885Z" fill="white"/>
<path d="M132.813 20.6343V24.266C131.881 24.266 131.008 24.2518 130.136 24.2686C128.095 24.3079 127.091 25.3379 127.079 27.4262C127.065 29.8733 127.076 32.3198 127.076 34.8301H123.533V20.7509C123.969 20.653 124.665 21.1314 125.619 22.1861C127.679 20.3026 130.199 20.5525 132.813 20.6337L132.813 20.6343Z" fill="white"/>
<path d="M160.328 34.8075V20.662H163.807V34.8075H160.328Z" fill="white"/>
<path d="M164.501 16.7636C164.502 18.0609 163.397 19.2024 162.121 19.2217C160.786 19.2416 159.666 18.0931 159.686 16.725C159.705 15.4083 160.808 14.3094 162.098 14.3216C163.375 14.3332 164.499 15.4759 164.5 16.7642L164.501 16.7636Z" fill="white"/>
</g>
<defs>
<clipPath id="clip0_3444_5291">
<rect width="105" height="39" fill="white" transform="translate(59.5 5.5)"/>
</clipPath>
</defs>
</svg>
