<svg width="224" height="50" viewBox="0 0 224 50" fill="none" xmlns="http://www.w3.org/2000/svg">
<g clip-path="url(#clip0_3275_3222)">
<path d="M92.4239 21.9939V16.2697C93.8052 16.2697 95.102 16.2241 96.3926 16.2876C97.1079 16.3213 98.714 18.2294 98.714 18.9263C98.7181 23.8861 98.7181 28.8459 98.714 33.8057C98.714 34.5602 97.0708 36.4345 96.2977 36.4703C95.0422 36.5259 93.7805 36.4861 92.4074 36.4861C92.4074 34.7568 92.3579 33.1425 92.428 31.5343C92.4651 30.6924 92.1765 30.1166 91.558 29.5488C89.9437 28.0656 88.3913 26.5209 86.8121 25.004C86.6513 24.8511 86.4719 24.7161 86.14 24.4401V36.4822C84.7422 36.4822 83.4475 36.5338 82.159 36.4623C81.3962 36.4186 79.8066 34.4768 79.8066 33.7342C79.8025 28.84 79.8005 23.9477 79.8066 19.0534C79.8066 17.9137 81.5693 16.3928 82.7383 16.236C85.1648 15.9143 86.9956 16.6569 88.513 18.5253C89.5788 19.8357 90.921 20.9357 92.1394 22.129C92.2342 22.0833 92.3291 22.0396 92.426 21.9939H92.4239Z" fill="white"/>
<path d="M134.582 26.4196C134.611 26.4772 134.625 26.5586 134.673 26.5904C136.39 27.7023 136.765 29.3046 136.507 31.157C136.45 31.58 136.427 32.0287 136.512 32.4436C136.846 34.0876 136.054 35.2253 134.778 36.1486C134.549 36.3134 134.24 36.4722 133.968 36.4722C129.335 36.4861 124.703 36.4762 120.068 36.4683C120.006 36.4683 119.946 36.4226 119.816 36.373V16.2598C120.132 16.2598 120.46 16.2598 120.785 16.2598C125.041 16.2598 129.298 16.2578 133.553 16.2598C134.854 16.2598 136.491 17.8502 136.495 19.107C136.499 20.3956 136.427 21.6902 136.518 22.9728C136.59 23.9874 136.33 24.7756 135.468 25.3713C135.106 25.6215 134.757 25.8915 134.4 26.1516C134.46 26.2409 134.518 26.3303 134.578 26.4196H134.582ZM130.255 20.2725C128.914 20.2725 127.725 20.2427 126.541 20.3023C126.356 20.3122 126.061 20.7093 126.038 20.9476C125.816 23.2719 126.913 24.4096 129.329 24.3607C129.432 24.3587 129.568 24.3984 129.63 24.3507C129.852 24.178 130.215 23.9834 130.226 23.7829C130.283 22.671 130.255 21.5551 130.255 20.2705V20.2725ZM126.022 28.4071C126.022 29.652 126.001 30.7997 126.043 31.9453C126.049 32.122 126.329 32.4337 126.492 32.4377C127.712 32.4794 128.933 32.4615 130.17 32.4615V28.4071H126.022Z" fill="white"/>
<path d="M100.873 36.4921V16.2598C101.292 16.2598 101.659 16.2598 102.026 16.2598C106.18 16.2598 110.334 16.2598 114.488 16.2598C115.995 16.2598 117.634 17.8125 117.634 19.24C117.636 24.035 117.638 28.828 117.64 33.623C117.64 34.8243 115.927 36.4901 114.678 36.4901C110.115 36.4941 105.553 36.4901 100.873 36.4901V36.4921ZM107.208 20.3341V32.4059H111.276V20.3341H107.208Z" fill="white"/>
<path d="M71.3898 36.5139V28.4766H67.2191V36.502C65.8213 36.502 64.4957 36.5636 63.1804 36.4782C62.3887 36.4266 60.9043 34.4986 60.9043 33.7025C60.9043 28.84 60.9043 23.9794 60.9105 19.1169C60.9105 17.9693 62.6278 16.2876 63.8009 16.2876C67.4748 16.2836 71.1507 16.2836 74.8245 16.2876C75.9419 16.2876 77.6943 17.9614 77.6964 19.0316C77.7026 23.9596 77.7026 28.8876 77.6964 33.8156C77.6964 34.8521 75.9708 36.502 74.8925 36.51C73.7689 36.5179 72.6454 36.51 71.3919 36.51L71.3898 36.5139ZM69.3488 20.072C68.4953 20.9059 67.6397 21.7418 66.8171 22.5439C67.6335 23.3361 68.4891 24.1681 69.2704 24.9245C70.1281 24.1184 70.9981 23.3024 71.8908 22.4645C71.0682 21.6901 70.2394 20.9098 69.3488 20.072Z" fill="white"/>
<path d="M138.65 26.4057C138.65 23.9596 138.648 21.5154 138.65 19.0693C138.65 17.88 140.312 16.2618 141.543 16.2598C145.215 16.2558 148.887 16.2558 152.556 16.2598C153.688 16.2598 155.42 17.9098 155.422 18.9958C155.428 23.9199 155.426 28.842 155.422 33.766C155.422 34.7786 153.682 36.4842 152.637 36.4862C148.932 36.4941 145.225 36.4921 141.52 36.4862C140.38 36.4842 138.667 34.8402 138.661 33.7402C138.65 31.2941 138.659 28.8499 138.659 26.4038H138.648L138.65 26.4057ZM144.996 20.3241V32.402H149.089V20.3241H144.996Z" fill="white"/>
<path d="M163.849 36.4861C162.478 36.4861 161.216 36.5258 159.958 36.4703C159.21 36.4385 157.544 34.5225 157.542 33.7938C157.536 32.4377 157.602 31.0796 157.521 29.7275C157.466 28.7883 157.695 28.0517 158.486 27.4898C158.899 27.196 159.294 26.8822 159.649 26.6142C159.492 26.3045 159.472 26.1853 159.402 26.1397C157.715 25.0238 157.262 23.4513 157.532 21.5869C157.587 21.1977 157.602 20.7828 157.53 20.3996C157.233 18.829 157.86 17.6457 159.146 16.7462C159.455 16.5298 159.841 16.3015 160.202 16.2836C161.362 16.2241 162.529 16.2618 163.845 16.2618C163.845 17.6278 163.989 18.9561 163.81 20.2427C163.552 22.0873 164.461 23.2329 165.97 24.2415C167.067 23.3024 168.324 22.5181 168.081 20.6875C167.896 19.2917 168.044 17.8542 168.044 16.2856C169.45 16.2856 170.813 16.1963 172.155 16.3174C172.98 16.3908 174.351 18.4161 174.353 19.2599C174.353 20.5167 174.291 21.7755 174.373 23.0284C174.435 23.9675 174.192 24.6942 173.406 25.2641C173 25.5599 172.633 25.9074 172.316 26.1734C172.398 26.4157 172.4 26.503 172.444 26.5328C174.2 27.6943 174.637 29.3383 174.361 31.2682C174.301 31.6892 174.274 32.1419 174.365 32.5529C174.742 34.2505 173.71 35.267 172.522 36.2082C172.33 36.361 172.04 36.4683 171.792 36.4742C170.594 36.502 169.397 36.4861 168.046 36.4861C168.046 35.1201 167.906 33.7938 168.079 32.5052C168.324 30.6726 167.471 29.4952 165.904 28.5064C164.853 29.4436 163.558 30.198 163.812 32.0426C164.005 33.4642 163.851 34.9295 163.851 36.4861H163.849Z" fill="white"/>
<path d="M52.4739 20.2666C51.1998 20.2666 50.037 20.2427 48.8784 20.2904C48.6743 20.2983 48.3197 20.6021 48.3114 20.7828C48.2599 21.9304 48.2846 23.082 48.2846 24.3785C49.6783 24.3785 50.9689 24.3785 52.2615 24.3785C53.1893 24.3785 54.1232 24.446 55.0427 24.3607C56.2343 24.2495 57.1105 24.6049 57.9207 25.4726C58.5166 26.1079 58.8196 26.7016 58.7949 27.5633C58.7392 29.6123 58.7784 31.6653 58.7743 33.7164C58.7722 34.8263 57.0837 36.4862 55.9436 36.4881C52.2327 36.4961 48.5217 36.4961 44.8128 36.4901C43.8005 36.4901 42.0399 34.8342 42.0255 33.8732C42.009 32.7574 42.0214 31.6415 42.0214 30.4105C43.8459 30.4105 45.5529 30.4085 47.262 30.4125C47.563 30.4125 47.864 30.4423 48.2578 30.4641V32.3682H52.4615V28.3754C50.8988 28.3754 49.3649 28.3754 47.8331 28.3754C47.2146 28.3754 46.5858 28.3059 45.9797 28.3893C44.6314 28.5759 43.6397 28.1351 42.7553 27.1404C42.2461 26.5666 41.9842 26.0543 42.0007 25.3038C42.0461 23.1872 42.011 21.0687 42.0234 18.9521C42.0296 17.9078 43.749 16.2638 44.8293 16.2638C48.5403 16.2578 52.2512 16.2578 55.9601 16.2638C57.0507 16.2658 58.7578 17.9098 58.7701 18.9561C58.7825 20.0104 58.7722 21.0667 58.7722 22.2183H52.5625C52.5337 21.6028 52.5069 21.0151 52.4718 20.2666H52.4739Z" fill="white"/>
<path d="M178.217 30.0233C176.993 28.838 175.739 27.6248 174.535 26.4574C175.809 25.2502 177.094 24.035 178.347 22.8497C179.469 23.9636 180.741 25.2244 181.998 26.4732C180.842 27.5593 179.553 28.7705 178.217 30.0233Z" fill="white"/>
<path d="M69.1082 37.739C69.1927 37.8006 69.3082 37.8681 69.401 37.9554C70.5988 39.0792 71.7925 40.205 72.9511 41.299C71.6007 42.5995 70.3266 43.8246 69.1041 44.998C67.8856 43.8087 66.6012 42.5559 65.3828 41.3645C66.5476 40.2308 67.8156 38.9978 69.1103 37.737L69.1082 37.739Z" fill="white"/>
<path d="M109.535 9.5766C110.791 9.38997 111.047 9.5766 111.059 10.6567C111.069 11.5145 111.067 12.3702 111.063 13.2279C111.055 14.3617 110.878 14.5086 109.54 14.4034C109.509 13.8117 109.476 13.2061 109.439 12.535H107.965C107.934 13.1565 107.905 13.7402 107.878 14.3101C106.715 14.6079 106.377 14.3895 106.363 13.3391C106.35 12.4496 106.356 11.5581 106.363 10.6686C106.371 9.55675 106.608 9.38004 107.868 9.58852C107.899 10.1584 107.932 10.7441 107.967 11.4033H109.434C109.47 10.7838 109.505 10.1742 109.538 9.5766H109.535Z" fill="white"/>
<path d="M115.5 10.4621H113.599C113.57 10.7997 113.545 11.0757 113.513 11.4589H115.551V12.4476H113.62C113.574 12.7872 113.539 13.0631 113.49 13.4384C114.224 13.4741 114.89 13.5059 115.537 13.5357C115.566 13.6548 115.611 13.7303 115.593 13.7799C115.321 14.4709 114.16 14.7389 112.694 14.4669C111.981 14.3339 111.925 13.8375 111.933 13.2736C111.948 12.3841 111.935 11.4946 111.942 10.6031C111.942 10.4065 111.894 10.1683 111.989 10.0194C112.653 8.97499 113.727 9.58652 114.611 9.50313C114.956 9.47136 115.345 9.87244 115.714 10.075C115.642 10.202 115.57 10.3291 115.498 10.4582L115.5 10.4621Z" fill="white"/>
<path d="M102.303 10.5177C101.701 10.4701 101.268 10.4363 100.835 10.4026L100.67 10.1286C100.963 9.91016 101.28 9.47732 101.544 9.5071C102.853 9.65403 104.354 8.91741 105.474 10.0194C105.467 10.1325 105.461 10.2477 105.455 10.3609C104.975 10.4145 104.496 10.4681 103.876 10.5356C103.876 11.4648 103.946 12.4218 103.841 13.359C103.797 13.7481 103.416 14.3736 103.121 14.4113C102.429 14.5026 102.288 13.9189 102.301 13.3292C102.319 12.4119 102.305 11.4926 102.305 10.5157L102.303 10.5177Z" fill="white"/>
<path d="M115.201 5V7.67448H112.393V5H115.201Z" fill="white"/>
</g>
<defs>
<clipPath id="clip0_3275_3222">
<rect width="140" height="40" fill="white" transform="translate(42 5)"/>
</clipPath>
</defs>
</svg>
