<svg width="224" height="50" viewBox="0 0 224 50" fill="none" xmlns="http://www.w3.org/2000/svg">
<path d="M44.0949 15.9271V20.7272H42.5335V15.9271H40.972V20.7272H39.4105V15.9271H37.8491V20.7272H30.0417V15.9271H28.4803V20.7272V22.3272H44.0949V23.9273H42.5335H40.972H26.9188V15.9271H25.3573V23.9273H23.7958V15.9271H22.2344V23.9273V25.5273V33.5275H23.7958V28.7274H25.3573V33.5275H26.9188V28.7274H28.4803V33.5275H30.0417V28.7274H37.8491V33.5275H39.4105V28.7274V27.1273H26.9188H25.3573H23.7958V25.5273H25.3573H26.9188H40.972V33.5275H42.5335V25.5273H44.0949V33.5275H45.6564V25.5273V23.9273V22.3272V20.7272V15.9271H44.0949Z" fill="white"/>
<path d="M150.032 26.9402H145.719V32.8291H150.032V26.9402Z" fill="white"/>
<path d="M68.1124 16.6299V22.5187H55.1786V16.6299H50.8652V32.8275H55.1786V26.9386H68.1124V32.8275H72.4258V16.6299H68.1124Z" fill="white"/>
<path d="M150.011 16.6301H145.704V22.519H132.77V16.6301H128.457V32.8278H132.77V26.9389H145.704L150.011 22.519V16.6301Z" fill="white"/>
<path d="M95.421 16.6301H76.7402V32.8278H81.0536V26.9389H93.9874V32.8278H98.3008V16.6301H95.4273H95.421ZM81.0473 22.519V21.0435H93.9811V22.519H81.0473Z" fill="white"/>
<path d="M124.148 21.0435V16.6301H106.901H105.467H102.594V32.8278H105.467H106.901H124.148V28.4079H106.901V21.0435H124.148Z" fill="white"/>
<path d="M175.893 21.0435V16.6301H158.645H157.206H154.332V32.8278H157.206H158.645H175.893V28.4079H158.645V26.9389H175.893V22.519H158.645V21.0435H175.893Z" fill="white"/>
<path d="M197.452 16.6301V26.9389L184.518 16.6301H180.205V32.8278H184.518V22.519L197.452 32.8278H201.766V16.6301H197.452Z" fill="white"/>
</svg>
