<svg width="224" height="50" viewBox="0 0 224 50" fill="none" xmlns="http://www.w3.org/2000/svg">
<path d="M76.4869 19.7748C76.4575 23.4678 75.5823 26.9731 74.144 30.3501C72.907 33.2528 71.2268 35.8657 69.031 38.1295C68.071 39.1197 66.9969 39.9804 65.8277 40.7081C64.8768 41.3005 63.8219 41.0345 63.2011 40.0998C62.6538 39.2766 62.854 38.1271 63.7258 37.5382C68.001 34.6502 70.3369 30.4433 71.7752 25.627C72.4547 23.3507 72.76 21.0187 72.6289 18.6401C72.5679 17.5281 72.3745 16.4389 71.9505 15.4031C71.0957 13.3132 69.429 12.4446 67.2445 12.9665C65.5394 13.3735 64.0808 14.2865 62.7715 15.4031C58.1322 19.3586 55.1426 24.3297 53.8864 30.3284C53.6377 31.5143 53.5574 32.7184 53.7507 33.9282C54.0175 35.5973 55.0533 36.0191 56.3875 34.9947C57.5747 34.0817 58.3346 32.8287 59.0255 31.5371C60.146 29.4416 60.9318 27.2233 61.15 24.8413C61.2665 23.5679 61.2812 22.2842 60.9397 21.0301C60.8651 20.7561 60.916 20.5593 61.0935 20.3319C61.7855 19.4439 62.5951 18.6731 63.3843 17.8783C63.6444 17.6168 63.771 17.7088 63.9044 17.992C64.5783 19.4247 64.9583 20.9403 65.0148 22.515C65.2081 27.8976 63.4341 32.6184 60.0917 36.7605C59.1204 37.9646 57.88 38.8696 56.3276 39.247C53.7597 39.8713 51.365 38.6138 50.4174 36.1317C49.8589 34.6684 49.7322 33.1516 49.8781 31.6041C50.4401 25.6247 53.0441 20.5548 56.7844 16.0011C58.7281 13.635 60.9781 11.6237 63.719 10.2183C65.1312 9.48952 66.6271 8.99834 68.218 8.97787C71.0538 8.94262 73.2644 10.1376 74.7783 12.5719C75.7507 14.1364 76.1782 15.8772 76.3907 17.6885C76.4721 18.382 76.4857 19.0767 76.4857 19.7748H76.4869Z" fill="white"/>
<path d="M103.861 20.311C103.016 21.7674 102.204 23.1649 101.392 24.5622C100.052 26.8692 98.7098 29.1739 97.3778 31.4854C97.1969 31.8003 97.024 32.0187 96.6033 32.0142C96.2008 32.0095 96.0391 31.7958 95.8661 31.4979C93.7585 27.8811 91.6441 24.2689 89.5308 20.6555C89.4754 20.5611 89.4132 20.4701 89.3409 20.3564C89.247 20.5338 89.2888 20.6896 89.2888 20.8374C89.2855 25.1011 89.2866 29.3649 89.2866 33.6286C89.2866 34.2347 89.2843 34.2347 88.6692 34.237C88.4294 34.237 88.1886 34.2381 87.949 34.237C87.396 34.2336 87.3847 34.2256 87.3847 33.6582C87.3847 29.2239 87.3847 24.7896 87.3847 20.3553C87.3847 19.1899 87.3949 18.0244 87.3791 16.859C87.3734 16.485 87.5136 16.3678 87.8766 16.3667C88.9835 16.3633 88.9869 16.3485 89.5489 17.3104C91.7956 21.1581 94.0389 25.0068 96.2833 28.8555C96.3263 28.9294 96.3692 29.0022 96.4134 29.075C96.6508 29.4661 96.6678 29.4672 96.8882 29.0852C97.4921 28.0414 98.0958 26.9965 98.6985 25.9527C100.416 22.9795 102.146 20.0131 103.839 17.025C104.122 16.5236 104.432 16.328 105.003 16.3588C105.932 16.4088 105.828 16.3269 105.828 17.1967C105.83 22.6396 105.829 28.0835 105.828 33.5263C105.828 33.9986 105.586 34.2351 105.103 34.2358C104.835 34.2358 104.566 34.2268 104.298 34.2358C104.046 34.2449 103.934 34.1255 103.935 33.8811C103.935 33.7389 103.931 33.5968 103.931 33.4547C103.931 29.2625 103.931 25.0693 103.929 20.8772C103.929 20.7123 103.969 20.5407 103.858 20.3098L103.861 20.311Z" fill="white"/>
<path d="M181.096 31.3383C178.483 34.6003 173.532 34.1865 171.148 31.875C168.789 29.5884 168.65 25.1575 170.985 22.6709C173.253 20.2548 178.69 19.7011 181.18 23.1417C181.18 22.4799 181.194 21.8886 181.173 21.2997C181.161 20.9359 181.286 20.7745 181.66 20.8005C181.983 20.8221 182.309 20.8097 182.635 20.8063C182.875 20.8029 183.012 20.8995 182.999 21.1576C182.999 21.1712 182.999 21.1861 182.999 21.1997C182.995 25.2201 183.009 29.2406 182.977 33.2598C182.969 34.2979 182.742 35.3201 182.29 36.2695C181.653 37.6054 180.584 38.4821 179.193 38.8641C176.416 39.6247 173.712 39.4053 171.154 37.9965C170.859 37.834 170.6 37.6054 170.326 37.4076C170.13 37.2667 170.096 37.1119 170.25 36.9061C170.504 36.5662 170.67 36.058 171.001 35.9079C171.361 35.7453 171.664 36.2706 172.009 36.4673C173.929 37.5645 175.969 37.8465 178.104 37.3746C179.644 37.0347 180.582 36.05 180.933 34.4912C181.16 33.4815 181.078 32.4662 181.095 31.3395L181.096 31.3383ZM171.203 27.137C171.105 29.8454 173.082 32.0205 176.172 32.0444C179.042 32.0659 181.162 29.9977 181.169 27.2133C181.176 24.3901 179.089 22.3742 176.161 22.3742C173.232 22.3742 171.201 24.3253 171.203 27.1382V27.137Z" fill="white"/>
<path d="M41.0011 29.6404C41.1481 26.2226 42.1884 23.0959 44.0642 20.2522C45.6901 17.7884 47.7887 15.8475 50.464 14.5786C52.0718 13.8168 53.7792 13.4757 55.5487 13.4268C55.6346 13.4245 55.7297 13.4223 55.7783 13.503C55.8438 13.6121 55.7523 13.6929 55.69 13.7611C54.5696 14.9879 53.5847 16.3193 52.6529 17.6928C52.5625 17.827 52.4325 17.9089 52.29 17.9759C48.8799 19.5553 46.8412 22.3307 45.5861 25.7792C45.0931 27.1344 44.8432 28.5409 44.8331 29.9906C44.8252 31.1345 43.9726 32.0077 42.9064 32.0042C41.8299 32.0019 41.0102 31.1311 41 29.9804C41 29.8667 41 29.753 41 29.6393L41.0011 29.6404Z" fill="white"/>
<path d="M117.226 28.1007C115.558 28.1007 113.891 28.1007 112.223 28.1007C111.632 28.1007 111.599 28.1439 111.73 28.7465C112.219 30.9898 113.967 32.4963 116.273 32.6475C117.937 32.7567 119.45 32.3997 120.656 31.1512C120.835 30.9659 120.977 30.9534 121.138 31.1638C121.259 31.3206 121.391 31.4685 121.522 31.6185C122.005 32.1689 122.008 32.1711 121.462 32.6873C120.501 33.5958 119.331 34.0779 118.05 34.2666C116.394 34.5111 114.776 34.3576 113.274 33.5515C111.427 32.5611 110.283 31.0239 109.911 28.9489C109.527 26.8079 109.882 24.8067 111.251 23.0763C112.431 21.5845 114.003 20.8057 115.904 20.7125C117.948 20.6124 119.73 21.2047 121.117 22.7681C122.379 24.1905 122.836 25.8971 122.781 27.771C122.77 28.112 122.548 28.1007 122.313 28.1007C120.616 28.0995 118.922 28.1007 117.226 28.1007ZM116.286 26.6817C117.712 26.6817 119.139 26.6794 120.564 26.684C120.81 26.684 120.991 26.651 120.938 26.3349C120.693 24.8841 120.004 23.696 118.725 22.9682C116.295 21.5845 112.43 22.3941 111.728 26.1575C111.635 26.6544 111.651 26.6817 112.176 26.6817C113.545 26.6828 114.915 26.6817 116.285 26.6817H116.286Z" fill="white"/>
<path d="M144.903 32.4815C143.992 33.5002 142.901 34.0835 141.613 34.2746C140.237 34.478 138.876 34.4087 137.603 33.7629C136.192 33.0477 135.423 31.6822 135.511 30.2996C135.636 28.3156 136.811 27.3582 138.28 26.8977C138.97 26.6816 139.687 26.602 140.412 26.6009C141.726 26.5986 143.04 26.5918 144.352 26.6055C144.694 26.6089 144.855 26.5065 144.826 26.1461C144.794 25.7368 144.826 25.3161 144.749 24.9159C144.449 23.3514 143.325 22.4748 141.587 22.3861C139.888 22.2986 138.339 22.7067 136.977 23.7505C136.755 23.9199 136.637 23.8699 136.517 23.6504C136.366 23.3775 136.215 23.1035 136.038 22.8465C135.871 22.6044 135.923 22.4532 136.151 22.2849C137.053 21.6186 138.062 21.1865 139.143 20.9296C140.395 20.6317 141.667 20.6112 142.927 20.8431C145.226 21.265 146.669 22.9739 146.699 25.3604C146.734 28.1723 146.707 30.9852 146.718 33.797C146.719 34.1279 146.61 34.2632 146.278 34.2438C145.954 34.2245 145.628 34.2279 145.304 34.2438C145.008 34.2575 144.896 34.121 144.901 33.8391C144.907 33.3876 144.903 32.9351 144.903 32.4838V32.4815ZM141.981 28.079C141.201 28.1086 140.24 28.0142 139.286 28.1904C138.276 28.377 137.546 29.0728 137.396 30.0074C137.232 31.0307 137.709 31.9505 138.658 32.4326C139.595 32.9079 140.598 32.9011 141.599 32.7805C142.508 32.6714 143.305 32.2735 143.94 31.6026C144.37 31.1501 144.775 30.6589 144.817 29.9948C144.847 29.5003 144.815 29.0012 144.827 28.5043C144.835 28.1973 144.714 28.0688 144.404 28.0733C143.655 28.0847 142.906 28.0767 141.979 28.0767L141.981 28.079Z" fill="white"/>
<path d="M155.31 34.3836C153.444 34.3507 151.785 34.0232 150.269 33.1284C149.624 32.7475 149.612 32.7282 149.99 32.0938C150.155 31.8163 150.225 31.399 150.523 31.3069C150.808 31.2183 151.051 31.5741 151.324 31.7129C153.169 32.6498 155.103 32.9443 157.121 32.4621C158.172 32.2109 158.71 31.5116 158.725 30.5873C158.737 29.8914 158.404 29.4366 157.817 29.125C157.026 28.7055 156.149 28.6145 155.292 28.4394C154.422 28.2609 153.538 28.145 152.693 27.8471C150.993 27.249 150.168 26.2359 150.137 24.6851C150.106 23.0864 151.001 21.7391 152.604 21.1786C155.097 20.3053 157.525 20.6032 159.871 21.7675C160.107 21.8846 160.181 22.0199 160.028 22.2678C159.842 22.5691 159.677 22.8852 159.52 23.2024C159.41 23.4241 159.278 23.4423 159.082 23.3161C157.691 22.4281 156.147 22.2712 154.556 22.3906C153.891 22.4406 153.263 22.6168 152.705 23.0432C151.808 23.7299 151.661 25.44 153.053 26.0631C154.048 26.5088 155.111 26.6532 156.164 26.8533C157.095 27.0295 158.007 27.2513 158.879 27.6515C161.202 28.718 161.027 31.8709 159.445 33.1125C158.508 33.8481 157.43 34.1733 156.279 34.312C155.914 34.3563 155.546 34.3678 155.31 34.3836Z" fill="white"/>
<path d="M126.648 27.0021C126.648 25.425 126.637 24.1459 126.655 22.8667C126.661 22.4972 126.55 22.3574 126.172 22.3779C125.664 22.4052 125.155 22.3779 124.647 22.3858C124.4 22.3903 124.297 22.2914 124.275 22.0401C124.161 20.8156 124.169 20.8019 125.377 20.8019C126.225 20.8019 126.649 20.3805 126.649 19.5377C126.649 19.1261 126.656 18.7133 126.649 18.3017C126.645 18.0265 126.732 17.8742 127.038 17.8867C127.419 17.9026 127.802 17.9003 128.182 17.8867C128.461 17.8776 128.556 18.005 128.552 18.271C128.544 18.9668 128.564 19.6638 128.545 20.3596C128.536 20.6906 128.646 20.8122 128.982 20.8066C130.028 20.7906 131.074 20.8122 132.118 20.7951C132.488 20.7895 132.618 20.9225 132.611 21.2909C132.587 22.6018 132.737 22.3619 131.536 22.3801C130.716 22.3926 129.896 22.4086 129.078 22.3722C128.629 22.3528 128.539 22.52 128.542 22.935C128.559 25.3647 128.548 27.7945 128.552 30.2254C128.556 32.363 130.312 33.4022 132.212 32.3959C132.299 32.3494 132.391 32.3061 132.467 32.2436C132.701 32.0515 132.862 32.081 132.971 32.3767C133.025 32.5222 133.107 32.6574 133.175 32.7985C133.495 33.4567 133.507 33.5057 132.831 33.8286C131.389 34.5176 129.909 34.587 128.46 33.8775C127.38 33.3488 126.858 32.3869 126.723 31.2168C126.549 29.7161 126.701 28.2072 126.647 27.0009L126.648 27.0021Z" fill="white"/>
<path d="M165.704 27.5279C165.704 29.5882 165.696 31.6496 165.712 33.7098C165.716 34.1226 165.581 34.2749 165.177 34.2397C164.868 34.2135 164.554 34.2192 164.244 34.2385C163.904 34.2601 163.803 34.1021 163.803 33.7837C163.807 29.6053 163.808 25.4279 163.803 21.2494C163.803 20.9185 163.928 20.7855 164.255 20.8025C164.58 20.8196 164.907 20.8242 165.231 20.8025C165.611 20.7764 165.712 20.9435 165.711 21.3051C165.698 23.3802 165.706 25.4552 165.706 27.5302L165.704 27.5279Z" fill="white"/>
<path d="M164.787 15.3452C165.578 15.3497 166.125 15.8796 166.115 16.6311C166.105 17.41 165.543 17.9591 164.76 17.9557C163.988 17.9523 163.427 17.3815 163.432 16.605C163.436 15.8637 164 15.3406 164.787 15.344V15.3452Z" fill="white"/>
</svg>
