<svg width="224" height="50" viewBox="0 0 224 50" fill="none" xmlns="http://www.w3.org/2000/svg">
<path fill-rule="evenodd" clip-rule="evenodd" d="M96.9288 6.67604C96.9288 6.75309 96.9288 6.83014 96.9288 6.90719C96.9288 7.52358 97.1269 7.67768 97.7433 7.58962C98.0735 7.53459 98.4147 7.51258 98.756 7.49056C99.9227 7.3915 99.9667 7.35848 99.9337 6.16971C99.9337 6.11468 99.9337 6.07065 99.9337 6.01561C99.9007 5.67439 99.7356 5.47627 99.3724 5.50929C98.7339 5.56432 98.0955 5.59734 97.4571 5.67439C97.1269 5.71842 96.9178 5.93856 96.9288 6.3018C96.9288 6.42287 96.9288 6.55496 96.9288 6.67604ZM106.164 21.8438C105.668 23.2527 105.184 24.6616 104.678 26.1256C105.734 26.0375 106.736 25.9494 107.782 25.8614C107.264 24.4855 106.758 23.1536 106.263 21.8328L106.164 21.8438ZM83.192 25.8063C83.6212 25.7733 84.0285 25.7623 84.4247 25.7183C84.9861 25.6522 85.5475 25.5972 86.0978 25.4761C86.5821 25.3771 86.9344 25.0579 87.0664 24.5736C87.3086 23.704 87.0775 23.0436 86.1308 22.9995C85.1512 22.9555 84.1716 23.0546 83.1809 23.0876V25.8063H83.192ZM93.7587 25.1129C94.5072 25.0469 95.2447 25.0138 95.9602 24.9038C96.4555 24.8157 96.9618 24.6726 97.4131 24.4415C97.8974 24.1993 98.0625 23.5499 97.9084 22.9335C97.7873 22.4602 97.3581 22.0749 96.8297 22.0749C95.8061 22.086 94.7934 22.163 93.7587 22.207V25.1129ZM86.4831 27.2483C85.7346 27.1822 84.9751 27.2593 84.2266 27.2813C83.8854 27.2923 83.5332 27.3363 83.192 27.3694V30.3853C84.0395 30.3193 84.843 30.2862 85.6465 30.1762C86.0868 30.1101 86.5381 29.967 86.9234 29.7689C87.5397 29.4387 87.6608 28.8333 87.5838 28.1949C87.5067 27.6445 87.1875 27.3033 86.4831 27.2483ZM137.138 20.534C137.633 20.7321 138.172 20.8201 138.701 20.9302C140.022 21.2164 141.43 21.2824 142.355 22.4932V18.9709C142.333 18.9709 142.322 18.9709 142.3 18.9599C142.234 19.1471 142.168 19.3452 142.08 19.5323C141.772 20.1817 140.803 20.3688 140.451 19.6424C140.363 19.4773 140.286 19.2902 140.165 19.1581C139.911 18.8939 139.669 18.5307 139.339 18.4206C138.47 18.1234 137.611 18.2665 136.896 18.8719C136.279 19.4112 136.389 20.2258 137.138 20.534ZM119.647 18.6407C118.106 18.7728 116.499 18.9159 114.859 19.059C116.411 21.2714 117.93 23.4508 119.449 25.6302C119.482 25.6192 119.504 25.6192 119.537 25.6082V25.212C119.537 23.5169 119.526 21.8218 119.537 20.1267C119.548 19.6424 119.603 19.1581 119.647 18.6407ZM99.5925 9.60392C99.5595 9.2627 99.3283 9.04256 98.9871 9.07558C98.6129 9.1086 98.2386 9.14162 97.8644 9.20767C97.4241 9.28472 97.325 9.42781 97.325 9.86809C97.325 11.266 97.325 12.6529 97.325 14.0508C97.325 15.4707 97.325 16.8906 97.325 18.3105C97.325 18.6848 97.5012 18.8719 97.8424 18.8609C98.1836 18.8389 98.5138 18.7838 98.855 18.7618C99.4714 18.7288 99.6035 18.3986 99.6035 17.8592C99.5925 15.1955 99.6035 12.5428 99.6035 9.8791C99.5925 9.78003 99.5925 9.69198 99.5925 9.60392ZM125.998 26.786C126.725 26.7089 127.418 26.6209 128.123 26.5658C129.367 26.4778 130.06 25.7513 130.401 24.6286C130.754 23.5059 130.765 22.3611 130.478 21.2274C130.192 20.0827 129.466 19.5433 128.288 19.5543C127.661 19.5543 127.022 19.6204 126.395 19.6204C126.054 19.6204 125.965 19.7414 125.976 20.0606C125.987 22.174 125.987 24.2874 125.987 26.4007C125.976 26.5328 125.987 26.6429 125.998 26.786ZM133.516 15.4597C134.716 15.6688 135.872 15.4047 137.006 15.0744C138.194 14.7222 137.952 14.6232 137.963 13.7646C137.974 13.1042 137.787 13.0051 137.127 13.1372C136.268 13.3133 135.399 13.4674 134.529 13.5555C133.902 13.6215 133.483 13.1592 133.483 12.5318C133.483 11.9484 133.483 11.3651 133.483 10.7817C133.483 10.2643 133.527 9.73601 133.472 9.22968C133.395 8.45919 134.023 7.75473 134.936 7.77674C135.74 7.79876 136.554 7.78775 137.358 7.79876C137.776 7.79876 137.952 7.62265 137.963 7.20438C137.963 6.98424 137.952 6.7751 137.963 6.55496C137.985 6.20273 137.831 6.01561 137.49 5.94957C136.301 5.69641 135.09 5.71842 133.924 5.9936C132.328 6.36784 131.238 7.68869 131.205 9.20767C131.172 10.3964 131.183 11.5852 131.205 12.774C131.249 14.1829 132.151 15.2175 133.516 15.4597ZM86.9123 19.103C86.9123 19.6534 87.1105 19.8295 87.6608 19.7965C87.914 19.7745 88.1672 19.7414 88.4093 19.7194C88.9707 19.6864 89.1798 19.4883 89.1798 18.9269C89.1798 16.9897 89.1798 15.0524 89.1798 13.1152C89.1798 12.4437 89.6531 11.8824 90.2695 11.8163C90.7318 11.7723 91.1941 11.7173 91.6564 11.6733C92.4049 11.5962 92.9002 12.0365 92.9002 12.785C92.9002 13.0932 92.9002 13.3904 92.9002 13.6986C92.9002 15.3276 92.9002 16.9677 92.9002 18.5967C92.9002 19.125 93.1534 19.3232 93.6707 19.2571C93.8908 19.2241 94.122 19.2131 94.3531 19.1911C94.9695 19.1361 95.2117 18.9159 95.1897 18.3215C95.1566 17.3419 95.1787 16.3733 95.1787 15.3936C95.1787 14.447 95.1787 13.4894 95.1787 12.5428C95.1787 11.1779 94.3862 10.1102 93.0433 9.85708C91.7334 9.60392 90.4126 9.725 89.1688 10.1763C87.892 10.6386 87.0334 11.5742 86.9344 13.0051C86.8683 14.0728 86.9013 15.1515 86.8903 16.2302C86.9013 17.1768 86.9013 18.1344 86.9123 19.103ZM82.5315 18.1124C82.5315 18.1894 82.3334 18.3215 82.2123 18.3325C81.4859 18.4096 80.7484 18.4646 80.0219 18.5086C79.3615 18.5527 78.9322 18.2665 78.8331 17.7161C78.7341 17.1328 79.0863 16.5384 79.6807 16.3733C79.9889 16.2852 80.3301 16.2852 80.6493 16.2412C80.9575 16.2082 81.2767 16.1751 81.5959 16.1421C81.8931 16.1201 82.2013 16.1091 82.5535 16.0871C82.5425 16.7805 82.5535 17.452 82.5315 18.1124ZM84.788 19.2131C84.788 17.3529 84.788 15.4927 84.788 13.6325C84.788 13.3463 84.788 13.0491 84.7219 12.763C84.4247 11.5412 83.313 10.6386 82.0472 10.6826C81.1226 10.7156 80.187 10.8477 79.2734 11.0128C78.4369 11.1669 78.3708 11.31 78.3708 12.1576C78.3708 12.2566 78.3708 12.3557 78.3708 12.4658C78.3929 12.906 78.569 13.0381 78.9983 12.9721C79.7467 12.851 80.4952 12.796 81.2327 12.6419C82.0582 12.4658 82.7517 13.2032 82.4765 14.1498C81.8381 14.2049 81.1777 14.2819 80.5282 14.326C79.4716 14.392 78.5029 14.6342 77.6554 15.3276C76.3896 16.3733 76.1254 18.2995 77.1491 19.4883C77.9636 20.4349 79.0643 20.578 80.22 20.4679C81.4638 20.3578 82.7076 20.2147 83.9514 20.1157C84.6449 20.0386 84.788 19.9176 84.788 19.2131ZM145.217 12.6199C144.545 12.6859 143.896 12.7409 143.247 12.796C142.971 12.818 142.685 12.884 142.421 12.851C141.882 12.796 141.518 12.3777 141.496 11.8604C141.474 11.3651 141.926 10.7487 142.432 10.6826C143.346 10.5615 144.259 10.4955 145.217 10.4074V12.6199ZM147.473 7.63365C147.462 6.3018 146.45 5.2121 145.129 5.04699C144.072 4.9039 143.048 5.11303 142.025 5.33317C141.056 5.55331 141.056 5.58634 141.067 6.57697C141.067 6.65402 141.067 6.73107 141.067 6.80812C141.089 7.22639 141.309 7.35848 141.728 7.29243C142.553 7.16035 143.39 7.03927 144.226 6.96222C144.435 6.94021 144.689 7.07229 144.865 7.20438C145.272 7.50157 145.25 7.96387 145.206 8.45919C144.589 8.51422 143.995 8.55825 143.401 8.61328C142.597 8.69033 141.794 8.74537 141.067 9.14162C139.757 9.84608 139.097 11.0569 139.251 12.5208C139.394 13.8527 140.814 14.9093 142.366 14.7883C143.863 14.6782 145.36 14.5241 146.857 14.392C147.308 14.348 147.473 14.1719 147.473 13.7096C147.484 11.6843 147.484 9.65896 147.473 7.63365ZM101.673 17.9143C101.673 17.9363 101.684 17.9693 101.684 17.9913C101.706 18.3215 101.904 18.4646 102.212 18.4426C102.553 18.4206 102.895 18.3766 103.236 18.3546C103.764 18.3105 103.918 18.1454 103.918 17.6171C103.918 15.7018 103.918 13.7866 103.918 11.8824C103.918 11.0899 104.403 10.5285 105.151 10.4625C105.558 10.4295 105.955 10.4074 106.362 10.3854C107.308 10.3304 107.661 10.6606 107.661 11.6072C107.661 13.4344 107.661 15.2506 107.661 17.0777C107.661 17.1988 107.65 17.3309 107.672 17.452C107.716 17.7602 107.859 17.9363 108.2 17.9143C108.53 17.8812 108.849 17.8592 109.18 17.8372C109.697 17.8042 109.917 17.5841 109.917 17.0557C109.917 15.1515 109.917 13.2583 109.917 11.354C109.917 10.4845 110.423 9.96715 111.282 9.92313C111.623 9.91212 111.964 9.8791 112.306 9.83507C113.241 9.73601 113.682 10.1213 113.682 11.0569C113.682 12.6529 113.682 14.2489 113.682 15.8449C113.682 16.1862 113.682 16.5274 113.693 16.8686C113.704 17.2098 113.88 17.3859 114.221 17.3639C114.617 17.3419 115.002 17.3309 115.388 17.2759C115.773 17.2208 115.916 17.0117 115.916 16.5714C115.916 14.5461 115.905 12.5208 115.916 10.4955C115.927 9.20767 115.013 8.34911 114.001 8.0189C113.285 7.78775 112.559 7.88682 111.821 7.93085C110.721 7.99689 109.664 8.173 108.849 8.89947C108.398 8.74537 108.024 8.52523 107.65 8.49221C106.934 8.43717 106.219 8.44818 105.503 8.51422C104.942 8.56926 104.37 8.65731 103.852 8.86645C102.575 9.37277 101.717 10.2974 101.684 11.7283C101.651 13.7866 101.684 15.8559 101.673 17.9143ZM123.742 13.3353C124.116 13.3463 124.369 13.6105 124.369 13.9847C124.358 14.414 124.028 14.7222 123.577 14.7112C123.225 14.7002 122.972 14.447 122.972 14.0838C122.983 13.6655 123.324 13.3243 123.742 13.3353ZM126.153 13.1042C126.483 13.1152 126.78 13.4124 126.78 13.7316C126.791 14.1168 126.395 14.5241 126.01 14.5131C125.668 14.5131 125.349 14.1939 125.36 13.8527C125.36 13.4784 125.767 13.0932 126.153 13.1042ZM116.642 8.26106C116.929 8.22804 117.193 8.07394 117.38 7.99689C118.15 8.70134 118.921 9.40579 119.768 10.1763C119.218 10.3634 118.789 10.5065 118.371 10.6496C118.095 10.2313 117.809 10.1102 117.424 10.2203C117.116 10.3084 116.863 10.6496 116.841 10.9798C116.819 11.332 116.973 11.5632 117.281 11.6953C117.655 11.8494 117.963 11.6953 118.404 11.1229C118.756 11.288 119.119 11.4641 119.493 11.6182C119.702 11.6953 119.735 11.8274 119.746 12.0255C119.757 12.3557 119.779 12.6859 119.868 12.9941C120.528 15.5257 122.839 16.9346 125.415 16.4723C128.376 15.944 130.721 12.884 129.994 9.73601C129.433 7.27042 127.242 5.96058 124.997 6.13669C123.995 6.21374 123.06 6.54395 122.234 7.13833C122.069 7.25941 121.948 7.28143 121.772 7.13833C121.486 6.90719 121.177 6.72007 120.891 6.52194C121.078 5.90554 121.012 5.63036 120.671 5.39922C120.385 5.2121 119.989 5.24512 119.691 5.47627C119.416 5.69641 119.284 6.1477 119.416 6.4669C119.57 6.84114 119.846 6.95121 120.517 6.87416C120.594 7.36948 120.671 7.8648 120.759 8.41516C119.746 8.07394 118.811 7.76574 117.886 7.43553C117.798 7.40251 117.71 7.25941 117.677 7.14934C117.534 6.57697 117.16 6.32381 116.587 6.42287C116.092 6.51093 115.74 7.00625 115.795 7.5456C115.817 7.96387 116.191 8.31609 116.642 8.26106ZM141.882 26.1145C140.627 27.6776 137.622 28.0188 136.004 27.3033C135.035 26.874 134.287 25.7843 134.32 24.8487C134.331 24.4084 134.65 24.0122 135.068 23.9131C135.553 23.7921 135.883 23.9351 136.136 24.3974C136.301 24.6946 136.444 25.0028 136.598 25.3C136.807 25.6963 137.16 25.9274 137.578 26.0045C138.381 26.1476 139.163 26.0705 139.856 25.5862C140.363 25.234 140.649 24.7497 140.55 24.1333C140.451 23.5279 139.988 23.2637 139.449 23.1426C138.58 22.9555 137.699 22.8124 136.829 22.6033C136.07 22.4272 135.366 22.108 134.903 21.4255C134.298 20.5229 134.408 19.059 135.189 18.2335C135.597 17.8042 136.103 17.474 136.521 17.1438C134.254 17.3419 131.887 17.551 129.51 17.7712C129.532 17.7932 129.543 17.8042 129.543 17.8152C129.609 17.8372 129.664 17.8482 129.73 17.8592C131.183 18.1674 132.074 19.081 132.515 20.4569C132.999 21.9649 132.977 23.4949 132.504 24.9918C131.964 26.7089 130.831 27.8427 129.014 28.1619C128.167 28.305 127.319 28.382 126.461 28.4591C125.899 28.5141 125.327 28.5361 124.755 28.5361C124.248 28.5361 124.017 28.338 123.918 27.8427C123.874 27.6445 123.852 27.4464 123.852 27.2483C123.852 24.7827 123.852 22.3061 123.841 19.8405C123.841 19.2461 123.83 18.6628 124.402 18.2225C123.335 18.3215 122.333 18.4096 121.387 18.4976C121.442 18.9159 121.53 19.3012 121.53 19.6864C121.541 22.196 121.541 24.7056 121.53 27.2153C121.53 27.5014 121.519 27.7986 121.486 28.0848C121.431 28.5801 121.177 28.9214 120.693 29.0865C120.033 29.3066 119.46 29.0865 118.976 28.393C118.095 27.1492 117.237 25.8834 116.367 24.6396C115.839 23.8801 115.322 23.1206 114.727 22.2731V24.5846C114.727 25.9054 114.727 27.2153 114.727 28.5361C114.727 29.2185 114.265 29.6918 113.649 29.6918C113.065 29.6918 112.768 29.3396 112.746 28.5911C112.746 28.4811 112.746 28.36 112.746 28.2499C112.746 25.7513 112.735 23.2637 112.757 20.7651C112.757 20.2698 112.867 19.7745 112.922 19.2571C111.128 19.4112 109.246 19.5763 107.375 19.7414C107.551 20.0717 107.727 20.3688 107.859 20.6881C108.508 22.229 109.158 23.77 109.796 25.311C110.247 26.4117 110.699 27.5124 111.117 28.6352C111.315 29.1525 110.974 29.7139 110.423 29.934C109.884 30.1431 109.466 29.978 109.191 29.4057C108.949 28.8883 108.717 28.349 108.519 27.8096C108.431 27.5675 108.321 27.4794 108.057 27.5014C106.747 27.6225 105.437 27.7216 104.127 27.8317C104.094 27.9417 104.061 28.0408 104.017 28.1509C103.764 28.8113 103.522 29.4607 103.247 30.1101C103.082 30.4954 102.752 30.6495 102.322 30.6385C101.937 30.6275 101.607 30.4623 101.519 30.1211C101.442 29.7909 101.464 29.3947 101.574 29.0755C101.849 28.2279 102.19 27.4024 102.509 26.5658C103.357 24.3644 104.204 22.174 105.052 19.9616C102.928 20.1487 100.748 20.3358 98.4368 20.545C99.9227 21.1614 100.319 22.2841 100.121 23.638C99.9117 25.0469 98.844 25.6853 97.6112 26.1035C97.6332 26.1476 97.6332 26.1806 97.6553 26.1916C98.9431 27.0061 99.7026 28.2169 100.264 29.5818C100.341 29.7799 100.341 30.0551 100.275 30.2642C100.132 30.6935 99.7356 30.8586 99.3283 30.9026C98.855 30.9577 98.5028 30.6825 98.2606 30.3082C97.7873 29.5928 97.3471 28.8553 96.8738 28.1509C96.6206 27.7766 96.3564 27.4024 96.0372 27.0832C95.3988 26.4338 94.5843 26.6759 93.7808 26.6759C93.7808 27.6996 93.7918 28.6792 93.7808 29.6698C93.7808 29.989 93.7587 30.3082 93.7037 30.6054C93.5936 31.1228 93.0763 31.475 92.5039 31.442C92.0086 31.409 91.7224 31.1008 91.6564 30.5064C91.6344 30.3193 91.6234 30.1321 91.6234 29.934C91.6234 27.4244 91.6124 24.9148 91.6344 22.4052C91.6344 21.9759 91.7445 21.5466 91.7995 21.1063C90.5777 21.2164 89.2899 21.3265 87.914 21.4475C89.7742 22.3831 89.8402 24.9698 87.936 26.0155C88.3653 26.3017 88.9376 26.5328 89.3009 26.9511C90.0824 27.8757 89.9723 28.9434 89.455 29.956C88.8386 31.1558 87.7159 31.5631 86.4611 31.7171C85.4484 31.8382 84.4247 31.9593 83.4121 32.0033C82.7407 32.0364 82.0252 32.3225 81.3758 31.8602C81.2657 32.1794 81.4088 32.2675 81.684 32.3335C88.6405 34.1497 95.6079 35.9769 102.564 37.7931C111.678 40.1816 120.803 42.5701 129.917 44.9697C130.17 45.0357 130.302 45.0027 130.434 44.7826C134.386 38.5415 138.348 32.3115 142.3 26.0705C142.399 25.9054 142.432 25.6963 142.498 25.5092C142.19 25.6963 142.047 25.9054 141.882 26.1145Z" fill="white"/>
</svg>
