<svg width="224" height="50" viewBox="0 0 224 50" fill="none" xmlns="http://www.w3.org/2000/svg">
<g clip-path="url(#clip0_3275_3302)">
<mask id="mask0_3275_3302" style="mask-type:luminance" maskUnits="userSpaceOnUse" x="20" y="12" width="185" height="26">
<path d="M203.995 12.2933L20 12.2933L20.0077 37.6837H204.002L203.995 12.2933Z" fill="white"/>
</mask>
<g mask="url(#mask0_3275_3302)">
<path d="M178.884 37.6852C178.304 37.5836 177.722 37.5073 177.158 37.3269C175.491 36.7983 174.07 35.9317 173.155 34.3891C172.857 33.886 172.684 33.337 172.598 32.7601C172.562 32.5289 172.633 32.4247 172.885 32.4298C173.596 32.4399 174.308 32.4323 175.019 32.4349C175.141 32.4349 175.263 32.4298 175.309 32.5899C175.591 33.6242 176.372 34.1833 177.3 34.534C179.297 35.2888 181.272 35.2329 183.175 34.1985C183.498 34.0232 183.775 33.7818 184.011 33.4997C184.321 33.1312 184.509 32.7169 184.491 32.2214C184.478 31.8885 184.491 31.553 184.485 31.2176C184.485 31.1413 184.516 31.0397 184.419 31.0016C184.346 30.9736 184.292 31.0498 184.236 31.0905C183.362 31.7258 182.394 32.1528 181.332 32.3688C177.147 33.2125 173.141 30.3027 172.636 26.1578C172.155 22.206 174.835 18.6405 178.756 18.0408C180.72 17.7409 182.527 18.1831 184.159 19.3242C184.245 19.3826 184.324 19.53 184.436 19.4589C184.533 19.3979 184.477 19.253 184.479 19.1437C184.484 18.8693 184.492 18.5948 184.479 18.3229C184.466 18.0611 184.542 17.9391 184.84 17.9468C185.511 17.9671 186.182 17.9646 186.85 17.9468C187.124 17.9391 187.196 18.0408 187.193 18.3C187.183 19.7511 187.189 21.1997 187.189 22.6508C187.19 25.7232 187.163 28.7957 187.202 31.8681C187.226 33.7436 186.405 35.1363 184.934 36.2011C183.798 37.022 182.508 37.454 181.128 37.6446C181.049 37.6547 180.97 37.6751 180.891 37.6903H178.879L178.884 37.6852ZM184.486 25.2454C184.485 22.6736 182.462 20.6507 179.888 20.6507C177.326 20.6507 175.296 22.6635 175.287 25.215C175.277 27.7461 177.331 29.8148 179.86 29.8198C182.437 29.8224 184.484 27.7969 184.486 25.248L184.486 25.2454Z" fill="white"/>
<path d="M68.7667 37.6864C68.7616 37.5542 68.7565 37.4221 68.7539 37.2925C68.752 31.0256 68.7501 24.7612 68.7482 18.4943C68.7481 18.1351 68.9328 17.9555 69.3021 17.9555C69.912 17.9555 70.5219 17.9631 71.1318 17.953C71.3834 17.9479 71.4749 18.0394 71.4674 18.2884C71.4522 18.6925 71.4651 19.0991 71.4652 19.5693C73.2056 18.2478 75.1216 17.709 77.2386 18.047C79.3684 18.3875 81.0384 19.4854 82.2232 21.2796C84.0639 24.0725 83.6864 27.854 81.4177 30.2377C79.0932 32.68 74.8977 33.5186 71.5169 30.9569C71.4255 31.051 71.4713 31.1679 71.4713 31.2695C71.4694 33.267 71.4725 35.2645 71.4706 37.262C71.4706 37.4043 71.4605 37.5441 71.4529 37.6864H68.7693H68.7667ZM76.0831 20.6519C73.5342 20.6493 71.4636 22.69 71.4618 25.211C71.4601 27.7447 73.5192 29.8159 76.0427 29.821C78.612 29.8235 80.6902 27.7828 80.6919 25.2542C80.6937 22.7027 78.6423 20.6569 76.0806 20.6519H76.0831Z" fill="white"/>
<path d="M85.9618 37.6863C85.9542 37.5541 85.9414 37.4245 85.9414 37.2924C85.9395 31.0051 85.9376 24.7179 85.9357 18.4332C85.9356 18.1147 86.0974 17.9554 86.4209 17.9554C87.0309 17.9554 87.6408 17.9656 88.2507 17.9503C88.5099 17.9452 88.6192 18.0215 88.6066 18.2959C88.5864 18.7 88.6017 19.1041 88.6019 19.5692C90.7412 17.9884 93.0537 17.5259 95.5622 18.3315C97.1634 18.8449 98.4242 19.8411 99.3573 21.2413C101.183 23.986 100.864 27.6709 98.684 30.1182C96.677 32.3724 92.347 33.7548 88.6536 30.9518C88.5672 31.0483 88.6105 31.1652 88.6105 31.2694C88.6086 33.2771 88.6117 35.2847 88.6098 37.2924C88.6098 37.4245 88.5972 37.5541 88.5896 37.6863H85.9669H85.9618ZM93.23 20.6518C90.8945 20.6136 88.6104 22.4688 88.6214 25.249C88.6324 27.9835 90.8591 29.8209 93.2378 29.8183C95.891 29.8158 97.8852 27.5997 97.8438 25.1804C97.8024 22.667 95.7789 20.6467 93.23 20.6492L93.23 20.6518Z" fill="white"/>
<path d="M204.001 26.1249C203.928 26.4231 203.729 26.5722 203.404 26.5722C199.838 26.5722 196.27 26.5722 192.705 26.5722C192.316 26.5722 192.313 26.5722 192.461 26.933C193.783 30.1935 198.104 30.839 200.324 28.0995C200.532 27.8428 200.738 27.7361 201.064 27.7463C201.785 27.7691 202.507 27.7513 203.229 27.7539C203.567 27.7539 203.597 27.7945 203.453 28.0995C202.226 30.6942 200.201 32.191 197.324 32.468C193.987 32.7908 190.968 30.6891 189.856 27.7335C188.282 23.5454 191.007 18.7957 195.432 18.0663C199.472 17.398 203.145 19.924 203.932 23.9088C203.957 24.0385 203.982 24.1655 204.005 24.2951L204.006 26.1198L204.001 26.1249ZM196.707 23.8707C198.046 23.8707 199.385 23.8707 200.724 23.8707C201.116 23.8707 201.128 23.8504 200.976 23.4794C200.264 21.7538 198.586 20.6432 196.698 20.6509C194.797 20.6585 193.115 21.7919 192.427 23.5327C192.3 23.8555 192.308 23.8707 192.658 23.8707C194.008 23.8707 195.357 23.8707 196.707 23.8707Z" fill="white"/>
<path d="M104.923 37.6865C105.014 37.1935 105.258 36.7564 105.439 36.299C105.913 35.102 106.404 33.9126 106.894 32.7233C106.977 32.52 106.977 32.3447 106.893 32.1413C105.039 27.5975 103.191 23.0536 101.342 18.5097C101.097 17.9099 101.07 17.9557 101.715 17.9557C102.386 17.9557 103.057 17.9658 103.725 17.9506C103.972 17.9455 104.086 18.0421 104.173 18.2606C105.541 21.6533 106.917 25.046 108.29 28.4386C108.331 28.5403 108.377 28.6394 108.425 28.7461C108.572 28.6953 108.57 28.5657 108.608 28.4717C109.974 25.1095 111.343 21.7499 112.694 18.3826C112.823 18.0573 112.981 17.9328 113.337 17.9506C114.025 17.9811 114.716 17.9582 115.408 17.9607C115.774 17.9607 115.791 17.9887 115.659 18.314C113.463 23.7219 111.266 29.1324 109.07 34.5404C108.643 35.5925 108.211 36.642 107.782 37.6916H104.915L104.923 37.6865Z" fill="white"/>
<path d="M19.7874 22.4091C19.7865 19.1841 19.7855 15.9592 19.7845 12.7342C19.7844 12.2946 19.7844 12.2946 20.2164 12.2946C21.3143 12.2946 22.4121 12.3048 23.5074 12.287C23.8225 12.2819 23.9039 12.3912 23.9015 12.691C23.892 15.0951 23.8978 17.4967 23.8985 19.9008C23.8986 20.1854 24.0461 20.3286 24.3409 20.3303C30.7628 20.3303 37.1847 20.3303 43.6067 20.3303C43.915 20.3303 44.0691 20.1719 44.069 19.855C44.0683 17.4814 44.0676 15.1104 44.0669 12.7368C44.0668 12.2946 44.0668 12.2946 44.5039 12.2946C45.6221 12.2946 46.7402 12.3022 47.8559 12.2895C48.143 12.287 48.2219 12.3912 48.2194 12.6605C48.2163 19.1613 48.2182 25.6594 48.2253 32.1601C48.2254 32.4473 48.1187 32.5261 47.8493 32.5236C46.7209 32.5134 45.5926 32.521 44.4668 32.5185C44.1034 32.5185 44.0729 32.488 44.0727 32.1144C44.072 29.7001 44.0713 27.2884 44.0706 24.8742C44.0704 24.4371 44.0704 24.4371 43.6333 24.4371C37.2012 24.4371 30.7691 24.4371 24.337 24.4371C24.0473 24.4371 23.9017 24.5811 23.9 24.8691C23.9008 27.2732 23.9015 29.6747 23.9022 32.0788C23.9024 32.5185 23.9024 32.5185 23.4602 32.5185C22.3725 32.5185 21.2848 32.5185 20.1971 32.5185C19.793 32.5185 19.7854 32.5108 19.7853 32.1119C19.7843 28.8767 19.7833 25.6416 19.7824 22.4065L19.7874 22.4091Z" fill="white"/>
<path d="M118.312 22.3982C118.311 19.1758 118.31 15.9508 118.309 12.7284C118.309 12.2913 118.309 12.2913 118.738 12.2913C121.236 12.2913 123.734 12.2913 126.235 12.2913C129.01 12.2939 131.501 14.5887 131.772 17.3486C131.935 19.0157 131.473 20.4718 130.395 21.74C130.23 21.9357 130.324 22.0017 130.477 22.1085C131.799 23.0462 132.61 24.3067 132.877 25.9103C133.269 28.2661 132.047 30.7134 129.926 31.8316C129.044 32.2966 128.112 32.5254 127.118 32.5254C124.335 32.5254 121.552 32.5254 118.77 32.5254C118.32 32.5254 118.32 32.5254 118.32 32.0705C118.319 28.8481 118.318 25.6231 118.317 22.4007L118.312 22.3982ZM124.355 29.8163C125.32 29.8163 126.283 29.8214 127.249 29.8163C129.142 29.8061 130.598 27.9586 130.168 26.1212C129.827 24.6701 128.604 23.7171 127.057 23.7146C125.169 23.7095 123.28 23.7171 121.392 23.707C121.118 23.707 121.021 23.7781 121.024 24.0627C121.034 25.8671 121.035 27.6689 121.025 29.4732C121.025 29.735 121.099 29.8265 121.371 29.8239C122.365 29.8112 123.361 29.8188 124.357 29.8188L124.355 29.8163ZM121.027 17.9788C121.027 18.881 121.038 19.7831 121.023 20.6828C121.018 20.9776 121.112 21.064 121.404 21.0614C122.936 21.0487 124.469 21.0564 126.001 21.0538C126.172 21.0538 126.344 21.0335 126.515 21.0055C128.116 20.7489 129.236 19.3333 129.103 17.7374C128.976 16.1948 127.626 14.9597 126.045 14.9521C124.482 14.9445 122.919 14.9546 121.356 14.9445C121.105 14.9445 121.021 15.0232 121.024 15.2748C121.034 16.177 121.029 17.0766 121.03 17.9788H121.027Z" fill="white"/>
<path d="M167.456 19.5772C167.456 19.4044 167.456 19.2951 167.456 19.1859C167.456 17.6865 167.463 16.1846 167.45 14.6852C167.45 14.3929 167.541 14.2963 167.834 14.304C168.494 14.3218 169.155 14.3192 169.816 14.304C170.085 14.2989 170.172 14.4031 170.167 14.6623C170.154 15.2697 170.164 15.8796 170.165 16.487C170.166 21.6382 170.168 26.787 170.169 31.9382C170.169 32.05 170.169 32.1619 170.164 32.2737C170.164 32.4363 170.075 32.5126 169.915 32.5126C169.173 32.5126 168.431 32.5126 167.692 32.5126C167.526 32.5126 167.46 32.4262 167.463 32.2635C167.468 31.8976 167.463 31.5342 167.462 31.1682C167.462 31.0996 167.468 31.0005 167.429 30.97C167.345 30.9065 167.287 31.0081 167.226 31.0538C166.243 31.7781 165.155 32.2356 163.946 32.4236C161.041 32.8734 158.141 31.5418 156.59 29.0284C153.857 24.5963 156.597 18.7538 161.758 18.0296C163.751 17.75 165.568 18.2151 167.2 19.3942C167.266 19.4425 167.329 19.4883 167.459 19.5798L167.456 19.5772ZM162.852 20.6497C160.333 20.6344 158.27 22.6446 158.215 25.097C158.158 27.6307 160.168 29.7578 162.712 29.8162C165.185 29.8747 167.439 27.9865 167.44 25.2393C167.442 22.4032 165.114 20.6192 162.852 20.6497Z" fill="white"/>
<path d="M63.3744 19.5193C63.3743 19.0924 63.3818 18.668 63.3715 18.2461C63.3663 18.025 63.4451 17.9412 63.6713 17.9437C64.3422 17.9539 65.0131 17.9589 65.684 17.9437C65.9661 17.9361 66.0474 18.0301 66.0475 18.3071C66.0407 21.0238 66.0441 23.7405 66.0449 26.4597C66.0455 28.3453 66.0384 30.231 66.0517 32.1167C66.0518 32.4216 65.9629 32.5284 65.6554 32.5207C65.0251 32.5029 64.3948 32.5029 63.7671 32.5207C63.452 32.5309 63.3529 32.414 63.3757 32.1116C63.3984 31.8092 63.3831 31.5042 63.3754 31.1992C63.3754 31.1154 63.4261 30.9959 63.3219 30.9527C63.2431 30.9222 63.1822 31.0163 63.1187 31.0646C62.2142 31.7355 61.2079 32.17 60.105 32.386C56.1484 33.1561 52.2441 30.4775 51.5466 26.5156C50.8313 22.4469 53.5951 18.6044 57.6687 18.0276C59.6508 17.7455 61.4578 18.208 63.0872 19.3694C63.166 19.4253 63.2295 19.5142 63.3744 19.5193ZM58.7597 20.6502C56.2285 20.64 54.1808 22.6604 54.1358 25.1382C54.0908 27.6109 56.0737 29.7609 58.643 29.8168C61.07 29.8701 63.3566 28.0277 63.3583 25.2297C63.3626 22.4342 61.057 20.6172 58.7597 20.6502Z" fill="white"/>
<path d="M135.571 25.2324C135.57 22.9427 135.57 20.6504 135.569 18.3607C135.569 17.9541 135.569 17.9541 135.973 17.9515C136.634 17.9515 137.295 17.9591 137.953 17.9464C138.189 17.9414 138.286 18.0303 138.278 18.2641C138.268 18.5894 138.273 18.9121 138.278 19.2374C138.278 19.3137 138.243 19.4153 138.327 19.4611C138.416 19.5094 138.472 19.4128 138.533 19.367C139.475 18.6758 140.52 18.2234 141.673 18.0456C144.029 17.6872 146.09 18.3251 147.872 19.8982C148.042 20.0481 148.009 20.1549 147.865 20.2946C147.346 20.7927 146.831 21.2959 146.323 21.8067C146.185 21.9439 146.084 21.9439 145.939 21.8143C144.97 20.9579 143.834 20.6021 142.546 20.658C140.363 20.7521 138.346 22.7063 138.3 24.8843C138.253 27.2045 138.287 29.5247 138.285 31.8475C138.285 31.9593 138.277 32.0711 138.285 32.183C138.31 32.4549 138.178 32.5311 137.922 32.526C137.271 32.5133 136.62 32.5082 135.972 32.526C135.67 32.5337 135.568 32.4422 135.571 32.1321C135.583 29.8322 135.577 27.5298 135.576 25.2299L135.571 25.2324Z" fill="white"/>
<path d="M152.985 25.7581C152.986 27.8775 152.986 29.997 152.987 32.1165C152.987 32.518 152.98 32.5231 152.578 32.5256C151.948 32.5256 151.318 32.5256 150.687 32.5256C150.286 32.5256 150.276 32.5155 150.275 32.1165C150.275 29.2981 150.274 26.4798 150.273 23.6615C150.272 22.2409 150.272 20.8228 150.272 19.4022C150.271 18.9854 150.272 18.9854 150.698 18.9854C151.329 18.9854 151.959 19.0007 152.589 18.9778C152.894 18.9676 152.991 19.0617 152.991 19.3717C152.979 21.5013 152.987 23.631 152.988 25.7606L152.985 25.7581Z" fill="white"/>
<path d="M151.636 17.0145C151.28 17.0145 150.924 17.0094 150.571 17.0145C150.373 17.0196 150.266 16.9561 150.268 16.7401C150.273 16.0209 150.273 15.3017 150.268 14.5825C150.268 14.3817 150.364 14.3156 150.55 14.3156C151.271 14.3156 151.991 14.3156 152.712 14.3156C152.903 14.3156 152.984 14.397 152.982 14.5926C152.977 15.3118 152.977 16.031 152.983 16.7502C152.983 16.951 152.891 17.0171 152.703 17.0145C152.347 17.0094 151.991 17.0145 151.638 17.0145H151.636Z" fill="white"/>
</g>
</g>
<defs>
<clipPath id="clip0_3275_3302">
<rect width="183.992" height="25.4133" fill="white" transform="matrix(1 0 0.000301956 1 20 12.2933)"/>
</clipPath>
</defs>
</svg>
