<svg width="224" height="50" viewBox="0 0 224 50" fill="none" xmlns="http://www.w3.org/2000/svg">
<path d="M151.893 32.8323C151.032 32.8323 150.396 33.4673 150.396 34.3287C150.396 34.787 150.568 35.1901 150.855 35.422C151.087 35.6539 151.429 35.7699 151.777 35.7699H151.893C152.699 35.7699 153.39 35.1349 153.39 34.2735C153.39 33.4673 152.755 32.7771 151.893 32.7771V32.8323Z" fill="white" stroke="white" stroke-width="1.043" stroke-miterlimit="23.9103"/>
<path d="M179.538 14.5164C178.731 14.5164 178.041 15.2066 178.041 16.0128C178.041 16.819 178.731 17.5092 179.538 17.5092C180.344 17.5092 181.034 16.819 181.034 16.0128C181.034 15.2066 180.344 14.5164 179.538 14.5164Z" fill="white" stroke="white" stroke-width="1.043" stroke-miterlimit="23.9103"/>
<path d="M76.432 15.842C75.3937 16.8193 74.8746 18.2605 74.8746 20.1048V20.5631H72.4004V22.4626H74.8746V35.4223H76.8352V22.4626H81.154V20.5631H76.8352V20.1048C76.8352 18.7244 77.1224 17.7415 77.8127 17.1672C78.5031 16.5322 79.4806 16.3058 80.8668 16.4162H81.0988V14.572H80.8668C78.967 14.4008 77.4703 14.8646 76.432 15.842Z" fill="white" stroke="white" stroke-width="1.043" stroke-miterlimit="23.9103"/>
<path d="M90.7736 20.276C86.278 20.276 83.0527 23.556 83.0527 28.0507C83.0527 32.5454 86.3333 35.8254 90.884 35.8254C93.7062 35.8254 96.0699 34.6161 97.3954 32.4847L97.5114 32.2528L95.7827 31.2147L95.6668 31.4466C94.8052 33.0038 92.9606 33.9811 90.884 33.9811C87.7747 33.9811 85.4717 32.0209 85.0685 29.0833H98.0857V28.8514C98.0857 28.7354 98.0857 28.6194 98.0857 28.5035C98.0857 28.3875 98.0857 28.2716 98.0857 28.1004C98.0857 24.3014 95.4956 20.2705 90.7128 20.2705H90.7736V20.276ZM85.0685 27.1286C85.4717 24.191 87.7747 22.1203 90.7736 22.1203C93.5957 22.1203 95.7275 24.1357 96.1307 27.1286H85.0685Z" fill="white" stroke="white" stroke-width="1.043" stroke-miterlimit="23.9103"/>
<path d="M106.267 14.1692L104.307 16.1295V20.5635H101.137V22.463H104.307V31.7341C104.307 33.1753 104.71 34.2079 105.461 34.9036C106.151 35.4779 107.129 35.765 108.399 35.765C108.974 35.765 109.609 35.7098 110.36 35.5938H110.531V33.8655H110.299C108.631 33.9815 107.361 34.0367 106.787 33.5176C106.439 33.1698 106.267 32.6562 106.267 31.7893V22.5237H110.586V20.6242H106.267V14.23V14.1692Z" fill="white" stroke="white" stroke-width="1.043" stroke-miterlimit="23.9103"/>
<path d="M126.663 31.1044C125.74 32.888 123.841 33.9813 121.654 33.9813C118.373 33.9813 115.777 31.3916 115.777 28.0509C115.777 24.7102 118.368 22.1205 121.654 22.1205C123.841 22.1205 125.685 23.2138 126.552 24.9973L126.668 25.2292L128.281 24.2519L128.165 24.0807C127.071 21.7174 124.592 20.2817 121.654 20.2817C117.219 20.2817 113.822 23.6224 113.822 28.0564C113.822 32.4904 117.164 35.8311 121.654 35.8311C124.531 35.8311 127.066 34.3899 128.275 32.0321L128.391 31.8609L126.779 30.8836L126.663 31.1044Z" fill="white" stroke="white" stroke-width="1.043" stroke-miterlimit="23.9103"/>
<path d="M139.908 20.2763C137.776 20.2763 136.108 21.1377 135.009 22.6949V14.1692L133.109 16.1295V35.4226H135.009V27.5927C135.009 24.1968 136.854 22.1206 139.847 22.1206C142.382 22.1206 143.879 23.6778 143.879 26.2675V35.4834H145.839V26.2675C145.839 22.6397 143.536 20.2763 139.963 20.2763H139.908Z" fill="white" stroke="white" stroke-width="1.043" stroke-miterlimit="23.9103"/>
<path d="M170.551 23.2688C169.17 21.3693 167.038 20.276 164.559 20.276C160.24 20.276 156.898 23.6719 156.898 28.0507C156.898 32.4295 160.295 35.8254 164.559 35.8254C166.978 35.8254 169.165 34.7321 170.551 32.8326V35.4831H172.511V20.5632H170.551V23.2136V23.2688ZM164.675 33.9812C161.394 33.9812 158.798 31.3914 158.798 28.0507C158.798 24.71 161.388 22.1203 164.675 22.1203C167.955 22.1203 170.551 24.71 170.551 28.0507C170.551 31.3914 167.955 33.9812 164.675 33.9812Z" fill="white" stroke="white" stroke-width="1.043" stroke-miterlimit="23.9103"/>
<path d="M180.515 20.5634H178.615V35.4778H180.515V20.5634Z" fill="white" stroke="white" stroke-width="1.043" stroke-miterlimit="23.9103"/>
<path d="M45.903 14.572H42.9648V17.5096H45.903V14.572Z" fill="white" stroke="white" stroke-width="1.043" stroke-miterlimit="23.9103"/>
<path d="M52.0651 14.5719H49.127V17.5095H52.0651V14.5719Z" fill="white" stroke="white" stroke-width="1.043" stroke-miterlimit="23.9103"/>
<path d="M58.2936 14.5719H55.3555V17.5095H58.2936V14.5719Z" fill="white" stroke="white" stroke-width="1.043" stroke-miterlimit="23.9103"/>
<path d="M45.903 20.7337H42.9648V23.6713H45.903V20.7337Z" fill="white" stroke="white" stroke-width="1.043" stroke-miterlimit="23.9103"/>
<path d="M52.0651 20.7334H49.127V23.671H52.0651V20.7334Z" fill="white" stroke="white" stroke-width="1.043" stroke-miterlimit="23.9103"/>
<path d="M45.903 26.9567H42.9648V29.8943H45.903V26.9567Z" fill="white" stroke="white" stroke-width="1.043" stroke-miterlimit="23.9103"/>
<path d="M63.0139 15.1514C62.5555 15.1514 62.1523 15.5545 62.1523 16.0128C62.1523 16.4711 62.5555 16.8742 63.0139 16.8742C63.4723 16.8742 63.8755 16.4711 63.8755 16.0128C63.8755 15.5545 63.4723 15.1514 63.0139 15.1514Z" fill="white" stroke="white" stroke-width="1.043" stroke-miterlimit="23.9103"/>
<path d="M63.0139 21.3698C62.5555 21.3698 62.1523 21.7729 62.1523 22.2312C62.1523 22.6895 62.5555 23.0926 63.0139 23.0926C63.4723 23.0926 63.8755 22.6895 63.8755 22.2312C63.8755 21.7729 63.4723 21.3698 63.0139 21.3698Z" fill="white" stroke="white" stroke-width="1.043" stroke-miterlimit="23.9103"/>
<path d="M63.0139 27.5921C62.5555 27.5921 62.1523 27.9952 62.1523 28.4535C62.1523 28.9118 62.5555 29.3149 63.0139 29.3149C63.4723 29.3149 63.8755 28.9118 63.8755 28.4535C63.8755 27.9952 63.4723 27.5921 63.0139 27.5921Z" fill="white" stroke="white" stroke-width="1.043" stroke-miterlimit="23.9103"/>
<path d="M63.0139 33.7542C62.5555 33.7542 62.1523 34.1573 62.1523 34.6156C62.1523 35.0739 62.5555 35.477 63.0139 35.477C63.4723 35.477 63.8755 35.0739 63.8755 34.6156C63.8755 34.1573 63.4723 33.7542 63.0139 33.7542Z" fill="white" stroke="white" stroke-width="1.043" stroke-miterlimit="23.9103"/>
<path d="M56.7912 21.3698C56.3329 21.3698 55.9297 21.7729 55.9297 22.2312C55.9297 22.6895 56.3329 23.0926 56.7912 23.0926C57.2496 23.0926 57.6528 22.6895 57.6528 22.2312C57.6528 21.7729 57.2496 21.3698 56.7912 21.3698Z" fill="white" stroke="white" stroke-width="1.043" stroke-miterlimit="23.9103"/>
<path d="M56.7912 27.5921C56.3329 27.5921 55.9297 27.9952 55.9297 28.4535C55.9297 28.9118 56.3329 29.3149 56.7912 29.3149C57.2496 29.3149 57.6528 28.9118 57.6528 28.4535C57.6528 27.9952 57.2496 27.5921 56.7912 27.5921Z" fill="white" stroke="white" stroke-width="1.043" stroke-miterlimit="23.9103"/>
<path d="M56.7912 33.7542C56.3329 33.7542 55.9297 34.1573 55.9297 34.6156C55.9297 35.0739 56.3329 35.477 56.7912 35.477C57.2496 35.477 57.6528 35.0739 57.6528 34.6156C57.6528 34.1573 57.2496 33.7542 56.7912 33.7542Z" fill="white" stroke="white" stroke-width="1.043" stroke-miterlimit="23.9103"/>
<path d="M50.6291 27.5921C50.1707 27.5921 49.7676 27.9952 49.7676 28.4535C49.7676 28.9118 50.1707 29.3149 50.6291 29.3149C51.0875 29.3149 51.4907 28.9118 51.4907 28.4535C51.4907 27.9952 51.0875 27.5921 50.6291 27.5921Z" fill="white" stroke="white" stroke-width="1.043" stroke-miterlimit="23.9103"/>
<path d="M50.6291 33.7542C50.1707 33.7542 49.7676 34.1573 49.7676 34.6156C49.7676 35.0739 50.1707 35.477 50.6291 35.477C51.0875 35.477 51.4907 35.0739 51.4907 34.6156C51.4907 34.1573 51.0875 33.7542 50.6291 33.7542Z" fill="white" stroke="white" stroke-width="1.043" stroke-miterlimit="23.9103"/>
<path d="M44.4084 33.7542C43.95 33.7542 43.5469 34.1573 43.5469 34.6156C43.5469 35.0739 43.95 35.477 44.4084 35.477C44.8668 35.477 45.27 35.0739 45.27 34.6156C45.2755 34.1573 44.8723 33.7542 44.4084 33.7542Z" fill="white" stroke="white" stroke-width="1.043" stroke-miterlimit="23.9103"/>
</svg>
