<svg width="224" height="50" viewBox="0 0 224 50" fill="none" xmlns="http://www.w3.org/2000/svg">
<g clip-path="url(#clip0_3444_5296)">
<path d="M85.7455 34.9292C81.7525 35.3671 78.1336 33.2029 76.5224 29.5159C74.8926 25.7857 75.7524 21.1415 78.5864 18.3725C82.9354 14.123 90.7411 15.5893 92.8846 21.062C93.0106 21.3833 93.0913 21.7241 93.2263 22.1626C91.8116 22.1626 90.5266 22.1821 89.2437 22.1451C89.0098 22.1384 88.7023 21.9599 88.5647 21.7598C87.3244 19.9466 85.6092 19.5276 83.6453 19.954C81.6511 20.3858 80.445 21.7585 80.04 23.7805C79.8391 24.7814 79.8248 25.88 79.9831 26.891C80.5555 30.5585 84.7726 32.3973 87.752 30.3342C88.6803 29.691 89.2618 28.7978 89.4995 27.5295H83.7739V24.2621H93.4311C94.5448 30.023 90.7217 34.3837 85.7455 34.9292Z" fill="white"/>
<path d="M56.0242 18.8116C54.8472 16.0756 52.7153 14.9857 49.9743 14.9999C47.2146 15.014 45.0104 16.1651 44.0317 18.955C42.6486 22.898 42.6473 26.9401 44.0814 30.8757C45.0646 33.574 47.2081 34.7082 49.8852 34.7507C52.6184 34.7938 54.7716 33.7336 55.9783 31.0117C56.8459 29.0544 56.9706 26.9717 57.0048 24.8675C56.9738 22.7963 56.8576 20.7467 56.0242 18.8116ZM47.5124 20.7864C47.8838 19.4481 48.7792 18.9079 50.0854 18.9267C51.3665 18.9443 52.2089 19.4568 52.5564 20.779C52.9091 22.1228 53.0209 23.5346 53.2334 24.8871C53.0164 26.282 52.913 27.6298 52.5777 28.9109C52.2205 30.2762 51.3523 30.8272 50.0525 30.8319C48.7637 30.8359 47.8599 30.2708 47.5007 28.9318C46.7772 26.2315 46.763 23.4834 47.5124 20.7864Z" fill="white"/>
<path d="M74.6319 34.771C73.0272 34.771 71.6086 34.7946 70.1919 34.7434C69.9981 34.7367 69.7817 34.3803 69.635 34.1453C68.5911 32.4742 67.562 30.7916 66.4392 28.9683C65.5335 30.5815 64.6285 32.0599 63.8616 33.6118C63.4159 34.5151 62.8875 34.9064 61.8984 34.8114C60.8829 34.7138 59.8512 34.7899 58.6587 34.7899C58.9533 34.2753 59.1516 33.9156 59.3615 33.5647C60.8415 31.092 62.3106 28.6113 63.8171 26.1562C64.1543 25.6072 64.1517 25.2024 63.8041 24.6555C62.3125 22.3075 60.8642 19.9291 59.4016 17.5609C59.1522 17.1568 58.9119 16.7466 58.5527 16.1484C60.1439 16.1484 61.5418 16.1195 62.9366 16.1787C63.1568 16.1882 63.403 16.5694 63.5658 16.8274C64.5994 18.4668 65.6123 20.1197 66.7564 21.9687C67.7519 20.1844 68.6757 18.5955 69.5284 16.9668C69.8566 16.3391 70.2378 16.0777 70.9316 16.1154C72.053 16.1754 73.179 16.1316 74.4853 16.1316C74.2514 16.5768 74.1087 16.8833 73.9368 17.1716C72.4264 19.7021 70.9303 22.2421 69.3837 24.7484C69.02 25.3371 69.0433 25.752 69.4038 26.3225C71.1267 29.0545 72.8082 31.8141 74.6319 34.771Z" fill="white"/>
<path d="M124.129 33.5316C121.643 35.5442 117.197 35.4668 114.796 33.3451C113.575 32.2674 112.979 30.8832 113.044 29.0605C114.325 29.0605 115.572 29.039 116.817 29.0868C116.984 29.0929 117.22 29.4236 117.286 29.6479C117.804 31.4167 119.943 32.1091 121.322 30.9344C122.218 30.1719 122.19 28.7386 121.176 28.0926C120.491 27.6555 119.696 27.3975 118.934 27.1018C117.877 26.6916 116.767 26.406 115.747 25.9157C114.035 25.0919 113.114 23.6566 113.066 21.6474C113.017 19.6496 113.696 18.0007 115.378 17.0139C118.073 15.4317 120.852 15.4297 123.536 17.0543C125.087 17.9926 125.811 19.5479 125.813 21.5854C124.516 21.5854 123.265 21.6083 122.016 21.5605C121.837 21.5537 121.561 21.2365 121.515 21.0196C121.156 19.3606 118.957 19.1538 117.995 19.7425C116.962 20.3743 116.889 21.9201 117.935 22.6031C118.589 23.0302 119.36 23.2693 120.092 23.5569C121.119 23.9604 122.191 24.2554 123.186 24.7289C126.647 26.3778 127.137 31.096 124.129 33.5316Z" fill="white"/>
<path d="M163.625 33.725C161.196 35.5335 157 35.3994 154.671 33.4374C153.385 32.3536 152.71 30.9418 152.799 29.1118H156.883C157.585 31.1345 158.271 31.6639 159.922 31.4201C160.789 31.2927 161.49 30.8859 161.672 29.9012C161.853 28.9191 161.415 28.224 160.577 27.8542C159.712 27.4723 158.809 27.1881 157.923 26.8614C157.183 26.5886 156.419 26.3704 155.708 26.0316C153.937 25.1876 152.882 23.7846 152.812 21.6925C152.741 19.527 153.571 17.8142 155.425 16.8415C158.106 15.4331 160.84 15.4601 163.418 17.1399C164.895 18.1018 165.6 19.6085 165.633 21.549H161.47C160.764 19.7459 159.762 19.1283 158.262 19.5317C157.541 19.7257 157.002 20.2073 157.038 20.9469C157.066 21.5241 157.334 22.259 157.743 22.6038C158.303 23.0767 159.091 23.2666 159.795 23.5401C160.795 23.9281 161.827 24.2285 162.808 24.6609C164.479 25.3978 165.616 26.6263 165.811 28.6032C166.021 30.7425 165.3 32.4782 163.625 33.725Z" fill="white"/>
<path d="M178.837 33.6798C176.389 35.5092 172.149 35.4203 169.799 33.4353C168.535 32.3671 167.864 30.9748 167.924 29.0727C169.249 29.0727 170.551 29.0558 171.852 29.0989C171.979 29.103 172.147 29.46 172.208 29.6795C172.703 31.4584 175.031 32.1225 176.318 30.8414C177.116 30.0473 177.019 28.6773 176.031 28.0617C175.367 27.6474 174.607 27.3915 173.872 27.1126C172.869 26.7321 171.819 26.4741 170.847 26.0275C169.026 25.1916 167.978 23.728 167.938 21.5982C167.898 19.4765 168.732 17.7899 170.554 16.8435C173.27 15.4317 176.028 15.4445 178.624 17.1931C180.06 18.1597 180.718 19.6523 180.769 21.5483H176.609C175.868 19.752 174.955 19.1646 173.484 19.5095C172.728 19.6859 172.264 20.148 172.138 20.9563C172.019 21.7275 172.296 22.3431 172.935 22.692C173.57 23.0396 174.26 23.2834 174.935 23.5441C175.965 23.9408 177.024 24.2614 178.036 24.7033C181.996 26.4323 181.707 31.5345 178.837 33.6798Z" fill="white"/>
<path d="M150.578 32.3468C150.521 33.1194 150.566 33.8994 150.566 34.7306H140.053C140.031 34.42 139.993 34.1358 139.993 33.8516C139.989 28.2812 140.005 22.7109 139.973 17.1412C139.968 16.3202 140.198 16.0878 140.979 16.0986C144.116 16.1417 147.253 16.1161 150.559 16.1161C150.559 17.2072 150.605 18.1556 150.522 19.0912C150.505 19.2919 150.026 19.5916 149.753 19.5997C148.151 19.6489 146.547 19.6678 144.946 19.6065C144.135 19.5748 143.91 19.8819 143.958 20.6767C144.014 21.613 143.971 22.5553 143.971 23.6081H149.758V27.0419H143.982C143.982 28.3978 143.953 29.6344 144.017 30.8657C144.025 31.0226 144.513 31.2691 144.783 31.2759C146.385 31.3149 147.99 31.3385 149.59 31.2772C150.399 31.2469 150.636 31.55 150.578 32.3468Z" fill="white"/>
<path d="M138.242 31.3709V34.7238H128.66V16.209H132.562V31.3709H138.242Z" fill="white"/>
<path d="M111.597 34.4484C109.569 28.5257 107.545 22.6018 105.483 16.692C105.392 16.432 104.959 16.1673 104.667 16.143C103.791 16.0703 102.903 16.1774 102.029 16.0986C101.208 16.0252 100.813 16.3047 100.536 17.1419C99.3075 20.8573 98.0039 24.5457 96.7312 28.2449C96.0013 30.3666 95.2771 32.491 94.4902 34.7899C95.0665 34.7899 95.4722 34.7959 95.8772 34.7885C96.7868 34.7723 97.9173 35.0849 98.542 34.6349C99.1564 34.1931 99.2881 32.9854 99.5685 32.0929C99.7307 31.5763 99.9626 31.3614 100.504 31.3715C102.233 31.4052 103.963 31.4039 105.692 31.3715C106.236 31.3614 106.474 31.5824 106.618 32.1037C106.816 32.8264 107.063 33.5384 107.344 34.2308C107.434 34.4544 107.693 34.7528 107.885 34.7602C109.121 34.808 110.359 34.7845 111.6 34.7845C111.6 34.5743 111.617 34.5043 111.597 34.4477V34.4484ZM100.974 27.8515C101.674 25.7473 102.326 23.7832 102.979 21.8191C103.051 21.805 103.124 21.7908 103.195 21.776C103.86 23.7691 104.525 25.7615 105.223 27.8515H100.974Z" fill="white"/>
</g>
<defs>
<clipPath id="clip0_3444_5296">
<rect width="138" height="20" fill="white" transform="translate(43 15)"/>
</clipPath>
</defs>
</svg>
