<svg width="224" height="50" viewBox="0 0 224 50" fill="none" xmlns="http://www.w3.org/2000/svg">
<path d="M26.5475 12.178C26.5255 12.0545 26.649 12.0545 26.7284 12.0236C28.18 11.4809 29.636 10.9382 31.0876 10.3955C35.8704 8.6086 40.6531 6.82168 45.4359 5.03477C45.5506 4.99064 45.6477 4.98623 45.7624 5.03477C51.9791 7.33349 58.1958 9.62781 64.4169 11.9177C64.5581 11.9707 64.6022 12.0236 64.5758 12.178C64.0463 15.2092 63.4154 18.2138 62.6433 21.192C61.8623 24.2099 60.9358 27.1837 59.7357 30.0693C58.5444 32.946 56.7707 35.4124 54.622 37.6361C51.9173 40.4422 48.8862 42.8468 45.6036 44.9338C45.458 45.0264 45.3609 45.0176 45.2241 44.9338C41.84 42.8115 38.703 40.3849 35.9321 37.4993C34.6262 36.136 33.3996 34.7064 32.4774 33.0475C31.4803 31.2561 30.7435 29.3589 30.0949 27.422C29.0757 24.3732 28.3036 21.2582 27.6373 18.1168C27.2314 16.2063 26.8784 14.2826 26.5696 12.3545C26.5608 12.306 26.5563 12.253 26.5519 12.1868L26.5475 12.178ZM28.2815 13.5193C28.2859 13.5546 28.2903 13.5899 28.2991 13.6252C28.6433 15.7739 29.0536 17.9094 29.5345 20.0316C30.2317 23.0937 31.0567 26.116 32.1642 29.0633C33.1437 31.6665 34.5335 34.0005 36.4616 36.0212C39.1177 38.8097 42.1268 41.157 45.4006 43.1645C45.5462 43.2528 45.6477 43.2439 45.7845 43.1557C48.7847 41.2496 51.5379 39.0436 53.9822 36.458C55.1382 35.2315 56.2192 33.9431 57.0928 32.4915C58.1605 30.7134 58.9194 28.7986 59.5724 26.8396C61.0416 22.4407 62.03 17.9315 62.7844 13.3605C62.8197 13.1355 62.7624 13.0693 62.5682 12.9943C56.9648 10.9647 51.3658 8.92628 45.7668 6.88787C45.608 6.83051 45.4756 6.83051 45.3124 6.88787C41.1341 8.48947 36.9558 10.0823 32.7775 11.6795C31.3435 12.2266 29.9052 12.7781 28.4712 13.3252C28.383 13.3605 28.2638 13.3693 28.2815 13.5149V13.5193Z" fill="white"/>
<path d="M49.7059 16.5371C50.7207 16.0915 51.7311 15.6767 52.7768 15.3546C53.9725 14.984 55.1858 14.6752 56.4521 14.6884C56.8492 14.6928 57.2374 14.7502 57.6169 14.8825C58.5787 15.2223 59.0552 16.0518 58.8743 17.0577C58.7376 17.8166 58.3934 18.4828 57.9743 19.1182C57.1668 20.3448 56.1609 21.4037 55.0975 22.4097C54.6034 22.8818 54.0916 23.3362 53.5621 23.7642C53.4342 23.8657 53.4739 23.9142 53.5754 24.0024C54.6828 24.9687 55.7373 25.9923 56.58 27.2012C56.9904 27.7881 57.3389 28.4058 57.4845 29.1161C57.6963 30.153 57.2286 30.9913 56.2271 31.3442C55.5123 31.6001 54.7711 31.6001 54.0298 31.534C52.7106 31.4192 51.4443 31.0751 50.1912 30.6736C49.9486 30.5942 49.953 30.5942 49.9133 30.8589C49.6706 32.4958 49.3309 34.1107 48.7485 35.6637C48.4264 36.5241 48.0469 37.3492 47.4337 38.0507C46.9748 38.5757 46.4321 38.9596 45.6909 38.9419C45.1614 38.9287 44.7202 38.6993 44.3363 38.3551C43.7054 37.7904 43.3083 37.0668 42.973 36.3035C42.3553 34.896 41.9935 33.4091 41.7111 31.9046C41.667 31.6796 41.6185 31.4545 41.592 31.2251C41.5743 31.0663 41.539 31.0398 41.389 31.1016C40.5287 31.4457 39.6506 31.7457 38.755 31.9752C37.8196 32.2134 36.8754 32.3899 35.9003 32.3414C35.6488 32.3281 35.3973 32.2928 35.1547 32.2267C33.9634 31.909 33.4207 31.0001 33.7031 29.7956C33.9149 28.8999 34.387 28.141 34.9208 27.413C35.7459 26.2879 36.7166 25.2996 37.7446 24.3598C37.8858 24.2319 37.8814 24.1789 37.7314 24.0686C36.2003 22.9391 34.7488 21.7169 33.4869 20.2874C32.8427 19.555 32.2559 18.7873 31.8897 17.8696C31.7176 17.4372 31.6117 16.9915 31.6823 16.5239C31.7706 15.8973 32.1191 15.4561 32.6706 15.1693C33.1736 14.909 33.7207 14.8296 34.2767 14.8164C35.6003 14.7899 36.871 15.0811 38.1329 15.4429C39.2756 15.765 40.3875 16.1753 41.4817 16.6342C41.6273 16.6959 41.6935 16.7092 41.7288 16.5106C41.9979 15.0811 42.3465 13.6736 42.9244 12.3367C43.2421 11.6087 43.6127 10.9116 44.1819 10.3424C45.1217 9.40707 46.2644 9.40266 47.2131 10.338C47.8705 10.9866 48.272 11.7984 48.6161 12.6456C49.0926 13.828 49.4059 15.059 49.653 16.3077C49.6662 16.3827 49.6883 16.4577 49.7059 16.5415V16.5371ZM34.5061 15.9238C34.0781 15.9194 33.6545 15.937 33.2574 16.1091C32.8957 16.2591 32.7545 16.4797 32.7677 16.8592C32.7853 17.2342 32.9354 17.5695 33.1118 17.8916C33.4604 18.5402 33.9193 19.1138 34.409 19.6609C35.6709 21.0639 37.1225 22.2464 38.6358 23.3671C38.7285 23.4377 38.7859 23.4333 38.8741 23.3583C39.5492 22.7759 40.2507 22.2288 40.9743 21.7037C41.0978 21.6155 41.1464 21.5184 41.1508 21.3684C41.2037 20.2565 41.314 19.1491 41.4729 18.046C41.4949 17.8828 41.4508 17.821 41.314 17.7637C40.2683 17.3269 39.2094 16.9209 38.1196 16.5944C36.9416 16.2415 35.7503 15.9547 34.5105 15.9282L34.5061 15.9238ZM45.7262 37.8345C45.8982 37.8389 46.0527 37.7771 46.1938 37.6889C46.4189 37.5433 46.5998 37.3492 46.7586 37.133C47.1204 36.652 47.3763 36.1138 47.5969 35.5622C48.2631 33.89 48.6029 32.1384 48.8676 30.3647C48.8853 30.2456 48.8323 30.2015 48.7308 30.1618C47.8219 29.8221 46.9351 29.4382 46.0571 29.0235C45.9556 28.9749 45.8762 28.9749 45.7747 29.0279C44.7864 29.575 43.7804 30.078 42.748 30.5324C42.6333 30.5854 42.6156 30.6383 42.6332 30.7618C42.7391 31.4148 42.8539 32.0634 42.9995 32.7076C43.2907 33.9827 43.6436 35.2402 44.2525 36.4094C44.4599 36.8065 44.6937 37.1859 45.0246 37.4948C45.2232 37.6801 45.4394 37.8301 45.7217 37.8345H45.7262ZM56.3418 15.8003C55.7903 15.8003 55.3093 15.8709 54.8284 15.9679C53.1562 16.3032 51.5811 16.9209 50.0324 17.6092C49.9089 17.6622 49.9 17.7372 49.9133 17.8475C50.0854 18.9902 50.2089 20.1418 50.2707 21.2978C50.2795 21.4346 50.3368 21.514 50.4516 21.5934C51.109 22.0434 51.7531 22.5155 52.3708 23.0185C52.5297 23.1509 52.6179 23.1244 52.7591 23.0053C53.4871 22.3876 54.2063 21.7522 54.8814 21.0772C55.7417 20.2168 56.558 19.3167 57.1933 18.2711C57.4713 17.8166 57.7184 17.3489 57.7845 16.8062C57.8375 16.3783 57.6787 16.1003 57.2771 15.9459C56.9551 15.8223 56.6197 15.8003 56.3418 15.8091V15.8003ZM45.6732 10.7484C45.3335 10.7616 45.0732 10.9866 44.8393 11.2513C44.4952 11.6352 44.2481 12.0852 44.0363 12.5485C43.3833 13.978 43.0348 15.4958 42.748 17.0313C42.7215 17.1636 42.7877 17.2077 42.8892 17.2519C43.7716 17.6578 44.6408 18.0858 45.4923 18.549C45.607 18.6108 45.6909 18.6108 45.8056 18.549C46.5998 18.0858 47.4116 17.6534 48.2323 17.2386C48.647 17.0313 48.6602 17.0268 48.5676 16.568C48.2808 15.134 47.9234 13.7221 47.2836 12.3985C47.041 11.8999 46.763 11.419 46.3394 11.044C46.1586 10.8851 45.96 10.7572 45.6688 10.7528L45.6732 10.7484ZM36.4474 31.2428C38.1373 31.1236 39.7168 30.5721 41.2743 29.9588C41.3493 29.9279 41.4067 29.9015 41.3934 29.7912C41.2478 28.6881 41.1684 27.5763 41.1111 26.4644C41.1111 26.385 41.0846 26.3365 41.014 26.2923C40.3125 25.8599 39.6153 25.4143 38.9403 24.9378C38.8476 24.8716 38.7947 24.8893 38.7197 24.9599C38.5697 25.1055 38.4152 25.2422 38.2608 25.3834C37.1931 26.3938 36.1783 27.4483 35.3885 28.697C35.1238 29.1161 34.8899 29.5529 34.7796 30.0427C34.6384 30.6648 34.8635 31.0354 35.4812 31.1678C35.7988 31.2339 36.1209 31.2604 36.4474 31.2383V31.2428ZM54.4931 30.453C55.1064 30.453 55.5299 30.4442 55.927 30.2721C56.3241 30.1 56.4741 29.8176 56.4035 29.3897C56.3462 29.0279 56.2006 28.7014 56.0197 28.3925C55.1505 26.9189 53.9151 25.7805 52.6532 24.6687C52.565 24.5937 52.5076 24.6201 52.4326 24.6819C51.7884 25.1849 51.131 25.6746 50.456 26.1379C50.3766 26.1909 50.3413 26.2526 50.3368 26.3497C50.2927 27.3336 50.2265 28.3131 50.1207 29.2926C50.103 29.4514 50.1604 29.5044 50.2971 29.5441C50.5928 29.6279 50.884 29.7338 51.1796 29.8221C52.3267 30.1574 53.4827 30.4353 54.4975 30.453H54.4931ZM49.2515 23.848C49.2515 23.848 49.2294 23.848 49.2162 23.848C49.2162 23.3318 49.2118 22.8112 49.2162 22.2949C49.2162 22.1273 49.1544 22.039 49.022 21.9508C47.9764 21.2625 46.9086 20.6095 45.8232 19.9918C45.7085 19.9256 45.6291 19.9256 45.5144 19.9918C44.4378 20.6448 43.3877 21.3331 42.3597 22.0611C42.2626 22.1273 42.2141 22.1979 42.2097 22.3214C42.1567 23.4068 42.1788 24.4922 42.1832 25.5776C42.1832 25.7055 42.2582 25.7496 42.3465 25.8026C43.4407 26.4512 44.5614 27.0556 45.6997 27.6248C45.8188 27.6866 45.9159 27.691 46.0394 27.6248C47.0807 27.0248 48.0999 26.3894 49.1014 25.7276C49.2162 25.6526 49.2647 25.5643 49.2603 25.4276C49.2559 24.9025 49.2603 24.3775 49.2603 23.8524L49.2515 23.848ZM44.7025 28.3616C43.851 27.9337 43.0701 27.4969 42.2626 27.0468C42.2891 27.8498 42.3773 28.5955 42.4479 29.3455C42.4612 29.4647 42.5274 29.4205 42.5803 29.3941C42.7303 29.3279 42.8803 29.2573 43.0303 29.1867C43.5686 28.922 44.1113 28.6528 44.7025 28.3616ZM46.7851 19.2638C47.5881 19.7227 48.3382 20.1903 49.1147 20.6801C49.0617 19.8594 48.9647 19.0917 48.8676 18.324C48.8544 18.2314 48.8367 18.174 48.722 18.2314C48.0822 18.5579 47.4469 18.8888 46.7851 19.2638ZM42.3023 20.7507C43.0303 20.2565 43.723 19.8021 44.429 19.3609C44.5261 19.2991 44.4775 19.2638 44.4113 19.2285C43.8334 18.9417 43.2554 18.6549 42.6774 18.3725C42.5891 18.3284 42.545 18.3505 42.5362 18.452C42.4435 19.1976 42.3597 19.9477 42.3068 20.7507H42.3023ZM49.1985 26.9939C48.4749 27.4395 47.8131 27.8542 47.1072 28.291C47.6322 28.5116 48.1131 28.7146 48.5941 28.9176C49.0044 29.0852 49.0132 29.0852 49.0573 28.6572C49.1103 28.1234 49.15 27.5851 49.1985 26.9939ZM41.0581 23.0141C40.6037 23.3803 40.1845 23.7156 39.7698 24.051C39.6771 24.126 39.7565 24.1569 39.8051 24.1922C39.9727 24.3069 40.136 24.4172 40.3036 24.5275C40.5463 24.6863 40.789 24.8407 41.0581 25.0128V23.0141ZM50.3677 24.8407C50.7957 24.5187 51.1619 24.2363 51.537 23.9671C51.6649 23.8745 51.6296 23.8259 51.5281 23.7509C51.1707 23.4862 50.8178 23.2171 50.4604 22.9523C50.4295 22.9303 50.3986 22.8906 50.3633 22.9126V24.8407H50.3677Z" fill="white"/>
<path d="M46.9835 24.0208C46.9835 24.7268 46.4496 25.2739 45.7701 25.2695C45.0995 25.2651 44.5612 24.6915 44.5745 23.9988C44.5877 23.3149 45.1304 22.7546 45.7834 22.7546C46.4496 22.7546 46.9835 23.3193 46.9835 24.0208Z" fill="white"/>
<path d="M179.122 25.8603C179.122 24.445 179.099 23.0298 179.128 21.6145C179.15 20.3191 179.984 19.7713 180.937 20.5417C181.536 21.0267 181.844 20.8613 182.363 20.5988C184.572 19.486 186.558 19.8569 188.224 21.6602C188.629 22.0996 188.732 22.2822 189.291 21.5917C190.484 20.1194 192.236 19.6286 194.096 20.1593C195.882 20.6672 197.041 21.8257 197.292 23.7717C197.583 25.9915 197.378 28.2114 197.452 30.4313C197.475 31.1047 197.189 31.4471 196.47 31.4756C195.586 31.5099 195.494 30.9906 195.5 30.3115C195.506 28.4911 195.569 26.6706 195.466 24.8559C195.317 22.2137 192.955 20.9069 190.741 22.1909C189.662 22.8129 189.32 23.8458 189.303 25.0157C189.28 26.7334 189.28 28.4511 189.291 30.1688C189.291 30.8993 189.188 31.4699 188.253 31.4814C187.22 31.4928 187.322 30.7908 187.317 30.1289C187.311 28.4625 187.328 26.7962 187.3 25.1241C187.265 22.9499 186.175 21.7344 184.281 21.7115C182.42 21.683 181.216 22.9099 181.125 25.0385C181.056 26.6535 181.114 28.2742 181.079 29.8892C181.068 30.5854 181.382 31.527 180.098 31.4699C178.882 31.4186 179.15 30.5055 179.139 29.7979C179.111 28.4854 179.128 27.1728 179.128 25.8546H179.122V25.8603Z" fill="white"/>
<path d="M115.517 24.4344C115.323 26.5687 114.69 28.5261 112.949 29.8957C112.225 30.4664 112.185 30.8316 112.847 31.4137C113.452 31.9501 114 32.5493 114.559 33.1371C114.764 33.3482 115.038 33.5822 114.895 33.9132C114.713 34.3298 114.296 34.2157 113.96 34.1928C113.235 34.1415 112.738 33.6621 112.35 33.1485C111.323 31.7789 110.09 31.3737 108.333 31.4879C104.909 31.7161 102.192 29.4905 101.331 26.1693C100.486 22.9279 101.976 19.4297 104.875 17.8775C107.853 16.2796 111.523 16.913 113.766 19.3783C115.078 20.8221 115.363 22.5912 115.529 24.4344H115.517ZM108.19 18.6878C105.023 18.7049 102.963 20.9819 102.974 24.4401C102.986 27.7728 105.188 30.0155 108.424 29.9927C111.432 29.9699 113.64 27.5446 113.606 24.2975C113.572 20.9534 111.369 18.6707 108.19 18.6878Z" fill="white"/>
<path d="M142.025 25.6977C142.025 27.2613 142.042 28.825 142.014 30.3829C142.008 30.8736 141.996 31.4443 141.26 31.4671C140.735 31.4843 140.25 31.4843 140.102 30.7995C139.913 29.9149 139.468 30.3087 139.023 30.6054C136.472 32.2889 133.899 32.0207 131.947 29.875C130.092 27.8377 130.024 24.1113 131.793 21.8742C133.322 19.9397 136.45 19.4946 138.824 20.887C139.388 21.218 139.953 21.9998 140.244 20.6074C140.353 20.0938 141.021 20.2535 141.454 20.2935C142.048 20.3506 142.122 20.8185 142.128 21.2979C142.128 22.7588 142.128 24.2254 142.128 25.6863C142.093 25.6863 142.065 25.6863 142.031 25.6863L142.025 25.6977ZM136.341 30.0005C138.584 29.9777 140.142 28.2258 140.102 25.7605C140.062 23.3922 138.493 21.7316 136.29 21.7259C133.921 21.7259 132.489 23.2952 132.501 25.8746C132.512 28.4027 134.019 30.0177 136.347 30.0005H136.341Z" fill="white"/>
<path d="M94.6486 26.612C93.4845 26.612 92.3203 26.6349 91.1619 26.6063C90.2716 26.5835 90.1404 26.9887 90.3801 27.742C91.1048 30.0132 94.3747 30.892 96.1381 29.2656C96.4291 28.9917 96.6346 28.6208 96.9313 28.3526C97.4392 27.8903 98.1582 27.8732 98.6148 28.2099C99.1626 28.6094 98.5805 29.1173 98.3351 29.4939C97.0968 31.4056 94.5288 32.1646 91.9722 31.4227C89.6496 30.7494 88.183 28.4496 88.2629 25.6248C88.3428 22.7772 89.855 20.7912 92.4059 20.1692C94.8997 19.5586 97.4963 20.6372 98.6376 22.7886C98.8259 23.1424 98.9743 23.5247 99.0656 23.9128C99.642 26.2982 99.3909 26.612 96.9313 26.612C96.1723 26.612 95.4133 26.612 94.6543 26.612H94.6486ZM93.7013 25.0655C94.506 25.0655 95.3163 25.0199 96.1153 25.0769C97.4221 25.1625 97.4221 24.5234 97.0112 23.5989C96.3663 22.1608 95.1508 21.7043 93.6956 21.71C92.2005 21.7157 91.1048 22.372 90.4885 23.7815C90.1175 24.6375 90.1917 25.1226 91.2817 25.0712C92.0863 25.0313 92.891 25.0655 93.6956 25.0598L93.7013 25.0655Z" fill="white"/>
<path d="M68.4013 24.2814C68.4013 22.3126 68.4355 20.3438 68.3842 18.375C68.3613 17.4848 68.6238 17.0967 69.5769 17.1252C71.3973 17.1823 73.2177 17.1481 75.0381 17.1424C75.6202 17.1424 76.208 17.1024 76.1738 17.947C76.1452 18.7859 75.5232 18.7003 74.9697 18.7003C73.8055 18.7003 72.6413 18.6946 71.4829 18.7003C71.0378 18.7003 70.4214 18.6261 70.3815 19.2196C70.2902 20.4237 70.2959 21.6392 70.3644 22.849C70.3986 23.4482 70.9921 23.4026 71.4429 23.4026C72.453 23.414 73.4631 23.4197 74.4789 23.4083C75.0324 23.4083 75.489 23.4596 75.5289 24.173C75.5803 25.029 75.0096 25.0119 74.4332 25.0176C73.4231 25.0176 72.4074 25.0404 71.3973 25.0176C70.6383 25.0004 70.2445 25.2915 70.313 26.0847C70.313 26.1361 70.313 26.1874 70.313 26.2388C70.4157 30.8498 69.6396 29.8625 73.8626 29.9824C74.3705 29.9995 74.8726 29.9938 75.3805 29.9824C75.9569 29.9767 76.2137 30.2563 76.1795 30.8212C76.1509 31.3063 75.8941 31.5403 75.3977 31.5403C73.3261 31.5289 71.2489 31.5403 69.1774 31.5289C68.3328 31.5289 68.407 30.9011 68.407 30.3476C68.407 28.3274 68.407 26.3073 68.407 24.2871L68.4013 24.2814Z" fill="white"/>
<path d="M128.128 25.8762C128.128 27.2915 128.14 28.7067 128.123 30.122C128.123 30.607 128.242 31.2234 127.592 31.3946C127.078 31.5258 126.462 31.6913 126.182 30.9551C125.931 30.2989 125.606 30.6869 125.252 30.8695C121.258 32.9354 117.965 30.9723 117.942 26.5154C117.936 24.849 117.942 23.177 117.936 21.5106C117.936 20.8886 117.879 20.2666 118.809 20.2551C119.711 20.2437 119.74 20.8087 119.74 21.465C119.74 23.1827 119.671 24.9061 119.785 26.6181C119.928 28.7238 120.961 29.8652 122.593 29.9964C124.539 30.1448 126.051 28.8722 126.137 26.8977C126.211 25.1343 126.171 23.3596 126.171 21.5905C126.171 20.8772 126.217 20.2551 127.181 20.2666C128.163 20.2837 128.145 20.9571 128.145 21.6362C128.145 23.0514 128.145 24.4667 128.145 25.8819C128.145 25.8819 128.14 25.8819 128.134 25.8819L128.128 25.8762Z" fill="white"/>
<path d="M145.115 25.825C145.115 24.3584 145.115 22.8918 145.115 21.4309C145.115 20.9687 145.104 20.4665 145.68 20.3352C146.114 20.2382 146.719 20.0955 146.93 20.5578C147.318 21.391 147.672 21.0314 148.197 20.7461C151.803 18.7773 155.285 20.8317 155.319 24.9348C155.33 26.6525 155.33 28.3702 155.319 30.0879C155.313 30.7156 155.49 31.4575 154.434 31.486C153.379 31.5089 153.51 30.7955 153.51 30.145C153.504 28.53 153.527 26.9093 153.493 25.2943C153.447 22.9318 152.328 21.7048 150.297 21.7277C148.305 21.7505 147.158 23.0288 147.101 25.3514C147.061 27.0177 147.084 28.6841 147.084 30.3561C147.084 30.9496 147.05 31.4632 146.239 31.4918C145.423 31.5203 145.149 31.0752 145.138 30.379C145.121 28.861 145.138 27.3487 145.138 25.8307C145.138 25.8307 145.132 25.8307 145.127 25.8307L145.115 25.825Z" fill="white"/>
<path d="M175.974 25.8881C175.974 27.3547 175.974 28.8156 175.974 30.2822C175.974 30.7216 176.071 31.2752 175.484 31.4121C175.016 31.5206 174.451 31.6575 174.188 31.007C173.823 30.111 173.384 30.7844 173.013 30.967C170.564 32.1768 168.219 31.7717 166.707 29.9056C165.908 28.924 165.874 27.7427 165.805 26.6071C165.702 24.8951 165.782 23.1774 165.771 21.4597C165.771 20.7692 165.925 20.2613 166.764 20.267C167.608 20.2784 167.723 20.8149 167.723 21.4939C167.711 23.2117 167.7 24.9294 167.728 26.6471C167.762 28.6273 168.795 29.8428 170.513 30.0026C172.436 30.1795 173.777 29.1694 174.006 27.0751C174.2 25.2775 174.114 23.4513 174.148 21.6366C174.16 20.9746 174.051 20.2784 175.078 20.2784C176.134 20.2784 175.974 21.0203 175.98 21.6537C175.991 23.069 175.98 24.4785 175.98 25.8938H175.974V25.8881Z" fill="white"/>
<path d="M78.9942 20.2366C79.7475 20.1168 80.1355 20.676 80.5464 21.3038C81.8666 23.3201 83.1696 23.3201 84.4555 21.3038C84.7237 20.8872 84.8892 20.345 85.4827 20.288C85.8707 20.248 86.333 20.0825 86.624 20.442C86.9322 20.8244 86.4871 21.0869 86.3216 21.3551C85.6311 22.4736 84.952 23.6035 84.1759 24.6536C83.571 25.4696 83.5424 26.143 84.1473 26.9648C84.8949 27.9806 85.5512 29.0591 86.196 30.1434C86.4243 30.5257 87.1205 31.0393 86.5327 31.3988C85.9906 31.7298 85.1403 31.7641 84.6438 31.0165C84.056 30.132 83.4796 29.2474 82.9204 28.3458C82.4639 27.6096 82.0587 27.5982 81.6193 28.3572C81.1627 29.1447 80.672 29.9094 80.2154 30.6912C79.9187 31.2048 79.5649 31.5529 78.9086 31.5415C78.1439 31.5301 77.8129 31.3247 78.3037 30.5771C79.1083 29.3559 79.8844 28.1118 80.7404 26.9248C81.2712 26.1944 81.2426 25.6066 80.7347 24.8818C79.8902 23.6834 79.1597 22.4166 78.3379 21.201C77.8186 20.4306 78.1382 20.2366 78.9942 20.2366Z" fill="white"/>
<path d="M158.844 26.3134C158.844 25.406 158.896 24.493 158.827 23.5913C158.77 22.838 158.913 22.0049 157.8 21.6682C157.246 21.497 157.212 20.544 157.84 20.3899C158.976 20.1045 158.924 19.3513 158.918 18.5409C158.918 17.8618 159.033 17.3197 159.883 17.3311C160.79 17.3425 160.824 17.9988 160.739 18.6037C160.556 19.9562 161.098 20.4469 162.428 20.2815C162.953 20.213 163.666 20.1673 163.701 20.972C163.735 21.8736 162.993 21.8508 162.394 21.788C161.15 21.6568 160.67 22.1247 160.745 23.403C160.836 24.9609 160.802 26.536 160.75 28.0996C160.71 29.2866 161.178 29.9143 162.394 29.9428C162.982 29.96 163.758 29.8458 163.689 30.7646C163.626 31.6491 162.845 31.4665 162.268 31.4722C159.786 31.5065 158.964 30.7132 158.918 28.2822C158.907 27.6259 158.918 26.9697 158.918 26.3134C158.89 26.3134 158.867 26.3134 158.839 26.3134H158.844Z" fill="white"/>
</svg>
