<svg width="224" height="50" viewBox="0 0 224 50" fill="none" xmlns="http://www.w3.org/2000/svg">
<mask id="mask0_3275_3029" style="mask-type:alpha" maskUnits="userSpaceOnUse" x="83" y="0" width="58" height="50">
<path d="M93.1103 6.63547H94.6962L95.2343 6.72043L95.5742 6.83371L96.1122 7.08859L96.5087 7.37179L96.7636 7.59835L97.0751 7.99484L97.33 8.44796L97.5566 8.95772L97.6982 9.55244L97.7265 9.80733V10.3737L97.5849 11.3083L97.4999 11.7048L97.3583 12.0163L97.6415 11.7614L97.9531 11.5349L98.3779 11.1667L98.7177 10.9401L99.1142 10.6853L99.7939 10.3454L100.219 10.1755L100.898 9.97725L101.465 9.86397L101.946 9.80733L102.626 9.77901L103.391 9.83565L104.183 9.97725L104.835 10.1755L105.43 10.4304L105.883 10.6569L106.336 10.9118L106.874 11.28L107.242 11.5632L107.525 11.8181L107.837 12.1296L108.092 12.4411L108.375 12.8093L108.63 13.2057L108.913 13.7155L109.253 14.4235L109.423 14.9333L109.536 15.4714L109.621 16.151L109.649 16.6608V17.1706L109.621 17.8219L109.508 18.6149L109.366 19.153L109.14 19.7477L108.913 20.2008L108.601 20.7672L108.148 21.362L107.808 21.7584L107.412 22.1832L107.1 22.4381L106.732 22.7496L106.251 23.0612L105.6 23.401L104.948 23.6842L104.183 23.9108L103.504 24.0524L102.966 24.109H102.286L101.521 24.0241L100.927 23.8825L100.162 23.6842L99.9355 23.6276H99.7939L100.275 24.0807L100.728 24.4489L101.097 24.7604L101.89 25.5533L102.201 25.9498L102.484 26.318L102.767 26.7428L103.192 27.5641L103.475 28.1588L103.759 28.8951L103.929 29.4615L104.155 30.6227L104.268 31.4439L104.325 32.0953V32.6617L104.268 33.2847L104.155 33.9928L103.957 34.8707L103.787 35.4088L103.391 36.5132L103.022 37.3062L102.852 37.5894L102.796 37.6744L102.654 37.6177L102.343 37.3629L101.861 36.9097L101.153 36.2017L100.927 36.0035L100.672 35.7486L100.445 35.5504L100.105 35.2105L99.8788 35.0123L99.5673 34.7291L99.4257 34.5875L99.3124 34.3326L99.3407 34.0777L99.4257 33.7379L99.5956 32.7183L99.6239 32.4068V31.8404L99.5673 31.3307L99.3974 30.6227L99.1991 30.0562L98.8876 29.4049L98.4345 28.7252L98.123 28.3854L97.9247 28.1588L97.6415 27.9039L97.1884 27.5641L96.622 27.2242L96.1972 27.026L95.5458 26.7711L94.8945 26.6012L94.413 26.5162L94.1015 26.4879H93.2802L92.5722 26.6012L91.9775 26.7711L91.5527 26.941L91.0713 27.1959L90.7314 27.4225L90.25 27.7623L89.8535 28.1022L89.5986 28.3287L89.3437 28.6402L89.0322 29.065L88.749 29.5465L88.5508 29.9713L88.2676 30.8209L88.0976 31.5855L88.041 32.067V32.4635L88.126 33.1148L88.2392 33.6812L88.4941 34.4459L88.8056 35.1539L89.0039 35.4654L89.372 35.9468L89.6836 36.2867L89.9101 36.5132L90.3066 36.8248L90.8447 37.1929L91.5527 37.5611L92.2607 37.816L92.7705 37.9576L93.3085 38.0425L93.6767 38.0709H94.0166L94.7812 37.9859L95.6308 37.7877L96.0839 37.6461L96.4521 37.6177L96.7636 37.816L97.1601 38.2125L97.3867 38.4107L97.8964 38.9205L98.123 39.1187L98.4345 39.4302L98.6611 39.6285L99.1425 40.0249L99.5673 40.3931L99.8505 40.648L99.7939 40.7613L99.5956 40.9878L99.1425 41.271L98.6894 41.5259L98.2363 41.7525L97.5566 42.0357L96.6786 42.3189L95.9423 42.4888L95.1494 42.6021L94.413 42.6587H93.082L92.2041 42.5738L91.3545 42.4322L90.5615 42.2339L89.7685 41.9507L88.9472 41.5542L88.3808 41.2427L87.6728 40.7613L87.3613 40.5347L86.9931 40.2232L86.7099 39.9683L86.4834 39.7701L86.1435 39.4019L85.8037 39.0054L85.5205 38.6373L85.2373 38.2408L84.8125 37.5894L84.5293 37.0796L84.1894 36.2584L83.8779 35.4654L83.6514 34.7857L83.4531 33.9928L83.3682 33.4263L83.3398 33.0299V31.8687L83.3965 31.0758L83.5098 30.4527L83.793 29.2916L83.9629 28.7818L84.3877 27.7623L84.7275 27.0543L85.0107 26.5729L85.4072 26.0065L85.6621 25.6666L85.8887 25.3834L86.2285 24.9869L86.4267 24.7887L86.625 24.5621L86.9931 24.2223L87.3896 23.9108L87.956 23.5143L88.4092 23.2311L88.9472 22.9196L89.6836 22.5514L90.4199 22.2682L91.0429 22.0983L91.8925 21.9284L92.8271 21.8151L93.2802 21.7868H94.4414L95.291 21.8717L95.829 21.9567L96.622 22.1549L97.7831 22.5797L98.1796 22.7496L97.9531 22.4664L97.6982 22.1549L97.415 21.9L97.2167 21.6735L96.9335 21.362L96.7353 21.1354L96.4804 20.7956L96.2255 20.3424L95.999 19.8327L95.7158 19.0397L95.5458 18.4167L95.4326 17.737L95.4042 17.4255V16.6042L95.4892 15.8962L95.6025 15.3581L95.829 14.6218L96.1406 13.8854L96.3671 13.4323L96.5087 13.1208L96.1972 13.319L95.6591 13.6022L95.0644 13.8288L94.4697 13.9704L93.9599 14.027L93.4218 13.9987L92.9687 13.9138L92.5439 13.7722L92.0908 13.5456L91.7793 13.3473L91.4111 13.0075L91.1845 12.7809L90.873 12.3845L90.5332 11.8181L90.3632 11.4216L90.25 11.0251L90.1933 10.7419L90.165 10.4587V10.0056L90.25 9.41084L90.3349 9.04268L90.5332 8.56124L90.788 8.10812L91.0429 7.76827L91.2978 7.48507L91.4961 7.28683L91.8925 7.03195L92.4023 6.80539L92.9404 6.66379L93.1103 6.63547ZM93.705 8.13644L93.2802 8.2214L92.9404 8.363L92.6289 8.56124L92.3173 8.87276L92.0908 9.24092L91.9492 9.52412L91.8359 10.0056L91.8076 10.4304L91.8642 10.8269L91.9775 11.1101L92.2041 11.4216L92.5439 11.7614L92.9121 12.0446L93.1953 12.1862L93.705 12.2995H94.2148L94.6396 12.1862L94.9794 12.0446L95.3759 11.7614L95.5458 11.6198L95.8007 11.2517L95.9423 10.9401L96.0273 10.6569L96.0556 10.4304V9.94893L95.9706 9.55244L95.8574 9.26924L95.6308 8.9294L95.4326 8.70284L95.0927 8.44796L94.6396 8.2214L94.413 8.16476L94.1582 8.13644H93.705ZM102.144 13.0358L101.606 13.1208L101.21 13.2341L100.785 13.404L100.474 13.6022L100.105 13.8854L99.5673 14.4235L99.1991 14.905L98.9443 15.3581L98.7177 15.9528L98.6327 16.4342L98.6044 16.6891V17.3688L98.6894 17.9635L98.831 18.3883L99.0575 18.8415L99.3124 19.2379L99.6523 19.6344L99.8505 19.861L100.247 20.1725L100.615 20.3991L101.153 20.654L101.635 20.7956L102.144 20.8805L102.683 20.9088L103.221 20.8522L103.929 20.6823L104.495 20.4274L104.807 20.2291L105.146 19.9743L105.486 19.6344L105.741 19.3229L106.053 18.8415L106.279 18.36L106.421 17.8219L106.477 17.4538V16.6608L106.421 16.1794L106.279 15.6413L105.968 14.9899L105.713 14.6218L105.401 14.2536L105.175 14.027L104.778 13.7155L104.41 13.4889L103.929 13.2624L103.391 13.1208L102.711 13.0358H102.144Z" fill="#0D6EB4"/>
<path d="M93.1074 6.63547H94.6933L95.2314 6.72043L95.5713 6.83371L96.1093 7.08859L96.5058 7.37179L96.7607 7.59835L97.0722 7.99484L97.3271 8.44796L97.5537 8.95772L97.6953 9.55245L97.7236 9.80733V10.3737L97.582 11.3083L97.497 11.7048L97.3554 12.0163L97.6386 11.7614L97.9502 11.5349L98.375 11.1667L98.7148 10.9401L99.1113 10.6853L99.791 10.3454L100.216 10.1755L100.895 9.97725L101.462 9.86397L101.943 9.80733L102.623 9.77901L103.388 9.83565L104.181 9.97725L104.832 10.1755L105.427 10.4304L105.88 10.6569L106.333 10.9118L106.871 11.28L107.239 11.5632L107.522 11.8181L107.834 12.1296L108.089 12.4411L108.372 12.8093L108.627 13.2057L108.91 13.7155L109.25 14.4235L109.42 14.9333L109.533 15.4714L109.618 16.151L109.646 16.6608V17.1706L109.618 17.8219L109.505 18.6149L109.363 19.153L109.137 19.7477L108.91 20.2008L108.599 20.7672L108.145 21.362L107.806 21.7584L107.409 22.1832L107.098 22.4381L106.729 22.7496L106.248 23.0612L105.597 23.401L104.945 23.6842L104.181 23.9108L103.501 24.0524L102.963 24.109H102.283L101.519 24.0241L100.924 23.8825L100.159 23.6842L100.216 23.5709L100.102 23.5143L99.8193 23.316L99.3662 23.0895L98.9414 22.8346L98.4882 22.5514L98.1767 22.3815L97.8086 22.1832L97.6953 22.1549L97.4121 21.9L97.2138 21.6735L96.9306 21.362L96.7324 21.1354L96.4775 20.7956L96.2226 20.3424L95.9961 19.8327L95.7129 19.0397L95.5429 18.4167L95.4297 17.737L95.4013 17.4255V16.6042L95.4863 15.8962L95.5996 15.3581L95.8261 14.6218L96.1377 13.8854L96.3642 13.4323L96.5058 13.1208L96.1943 13.319L95.6562 13.6022L95.0615 13.8288L94.4668 13.9704L93.957 14.027L93.4189 13.9987L92.9658 13.9138L92.541 13.7722L92.0879 13.5456L91.7764 13.3473L91.4082 13.0075L91.1816 12.7809L90.8701 12.3845L90.5303 11.8181L90.3604 11.4216L90.2471 11.0251L90.1904 10.7419L90.1621 10.4587V10.0056L90.2471 9.41084L90.332 9.04268L90.5303 8.56124L90.7852 8.10812L91.04 7.76827L91.2949 7.48507L91.4932 7.28683L91.8896 7.03195L92.3994 6.80539L92.9375 6.66379L93.1074 6.63547ZM93.7021 8.13644L93.2773 8.2214L92.9375 8.363L92.626 8.56124L92.3144 8.87276L92.0879 9.24092L91.9463 9.52413L91.833 10.0056L91.8047 10.4304L91.8613 10.8269L91.9746 11.1101L92.2012 11.4216L92.541 11.7614L92.9092 12.0446L93.1924 12.1862L93.7021 12.2995H94.2119L94.6367 12.1862L94.9765 12.0446L95.373 11.7614L95.5429 11.6198L95.7978 11.2517L95.9394 10.9401L96.0244 10.6569L96.0527 10.4304V9.94893L95.9677 9.55245L95.8545 9.26924L95.6279 8.9294L95.4297 8.70284L95.0898 8.44796L94.6367 8.2214L94.4101 8.16476L94.1553 8.13644H93.7021ZM102.142 13.0358L101.603 13.1208L101.207 13.2341L100.782 13.404L100.471 13.6022L100.102 13.8854L99.5644 14.4235L99.1962 14.905L98.9414 15.3581L98.7148 15.9528L98.6298 16.4342L98.6015 16.6891V17.3688L98.6865 17.9635L98.8281 18.3883L99.0546 18.8415L99.3095 19.2379L99.6494 19.6344L99.8476 19.861L100.244 20.1725L100.612 20.3991L101.15 20.654L101.632 20.7956L102.142 20.8805L102.68 20.9088L103.218 20.8522L103.926 20.6823L104.492 20.4274L104.804 20.2292L105.143 19.9743L105.483 19.6344L105.738 19.3229L106.05 18.8415L106.276 18.36L106.418 17.8219L106.475 17.4538V16.6608L106.418 16.1794L106.276 15.6413L105.965 14.9899L105.71 14.6218L105.398 14.2536L105.172 14.027L104.775 13.7155L104.407 13.4889L103.926 13.2624L103.388 13.1208L102.708 13.0358H102.142Z" fill="#5DBCE7"/>
<path d="M93.7627 21.815H94.8105L95.7168 21.9283L96.623 22.1548L97.7842 22.5796L98.1806 22.7496L97.9541 22.4664L97.7558 22.2115V22.1548L97.8974 22.2115L98.1806 22.3531L98.4922 22.523L98.9453 22.8062L99.4267 23.0894L99.9648 23.3726L100.22 23.5709L100.248 23.6558H100.05L99.7949 23.6275L100.276 24.0806L100.729 24.4488L101.098 24.7603L101.891 25.5533L102.202 25.9497L102.485 26.3179L102.769 26.7427L103.193 27.564L103.477 28.1587L103.76 28.895L103.93 29.4614L104.156 30.6226L104.269 31.4439L104.326 32.0952V32.6616L104.269 33.2847L104.156 33.9927L103.958 34.8706L103.788 35.4087L103.392 36.5132L103.023 37.3061L102.853 37.5893L102.797 37.6743L102.655 37.6176L102.344 37.3628L101.862 36.9096L101.154 36.2016L100.928 36.0034L100.673 35.7485L100.446 35.5503L100.106 35.2104L99.8799 35.0122L99.5683 34.729L99.4267 34.5874L99.3134 34.3325L99.3418 34.0776L99.4267 33.7378L99.5967 32.7183L99.625 32.4067V31.8403L99.5683 31.3306L99.3984 30.6226L99.2002 30.0562L98.8886 29.4048L98.4355 28.7251L98.124 28.3853L97.9258 28.1587L97.6426 27.9038L97.1894 27.564L96.623 27.2242L96.1982 27.0259L95.5469 26.771L94.8955 26.6011L94.4141 26.5161L93.9893 26.4595L93.791 26.4029V25.6665L93.8477 24.6753L93.791 22.8062V22.1832L93.7344 21.8433L93.7627 21.815Z" fill="#0D6EB4"/>
<path d="M120.41 26.4595L122.336 26.5728L122.364 26.6011L122.336 27.4791L122.308 31.8404V37.5894L122.138 37.6743L121.543 37.731L120.807 37.7026L120.212 37.5894L119.985 37.4478L119.787 37.2212L119.561 36.853L119.192 36.2583L118.796 35.6069L118.569 35.2671L118.173 34.6441L117.89 34.2193L117.465 33.5396L117.068 32.9165L115.652 30.7925L115.397 30.5093L115.171 30.2828L115.114 30.2544L115.143 30.6509L115.171 33.1431L115.199 37.646L115.058 37.7026H113.557L113.33 37.6743L113.302 37.6177V29.1499L113.273 26.5162L113.358 26.4879L113.585 26.5162H114.944L115.143 26.6011L115.397 26.941L115.794 27.5923L116.134 28.1304L116.417 28.5552L116.842 29.2349L117.635 30.5376L118.428 31.7837L118.711 32.2368L119.051 32.7749L119.277 33.1714L119.674 33.8511L119.957 34.3609L120.297 34.8423L120.325 34.8706L120.353 34.5308V28.6968L120.382 26.4879L120.41 26.4595Z" fill="white"/>
<path d="M94.9189 31.6437L95.3154 31.672L95.6269 31.7853L96.0517 32.0402L96.4482 32.3517L96.7314 32.5783L97.0146 32.8332L97.2412 33.0314L97.5244 33.2863L97.751 33.4845L97.9775 33.7111L98.1758 33.9376L98.4306 34.1642L99.4785 35.212L99.79 35.4669L100.158 35.8068L100.611 36.2316L100.894 36.4865L101.234 36.798L101.546 37.0529L101.971 37.421L102.424 37.7892L102.905 38.2706L103.188 38.4972L103.585 38.837L103.896 39.1202L104.123 39.3185L104.548 39.7433L104.831 40.1114L105.029 40.5362L105.058 40.6495V41.2159L104.916 41.6407L104.661 42.0089L104.463 42.2071L104.095 42.462L103.698 42.6036L103.415 42.6603H102.849L102.509 42.547L102.056 42.2638L101.687 41.9522L101.291 41.6124L100.838 41.1876L100.385 40.7345L100.158 40.5362L99.8183 40.2247L99.2519 39.6583L99.0254 39.4601L98.6855 39.1486L98.2324 38.7237L97.9209 38.4405L97.6094 38.1857L97.2129 37.8458L96.9297 37.6193L96.5615 37.3077L96.2783 37.0529L95.9951 36.7697L95.7969 36.5431L95.5986 36.3449L95.2871 36.09L94.9473 35.7785L94.7207 35.5802L94.3525 35.2404L94.0693 34.9855L93.8711 34.7589L93.6445 34.5324L93.4463 34.2492L93.248 33.7677V33.3146L93.333 32.9464L93.6162 32.4084L93.8711 32.1252L94.0693 31.9552L94.5225 31.7287L94.9189 31.6437Z" fill="#0C93D3"/>
<path d="M126.415 28.8651H127.604L128.171 28.9501L128.652 29.0917L129.105 29.3466L129.417 29.6015L129.7 29.8847L129.955 30.2245L130.153 30.536L130.465 31.1308L130.691 31.7538L130.833 32.4052L130.861 32.6034L130.918 33.5663L130.861 33.6229L130.748 33.6513L128.511 33.6796H125.339L124.716 33.6513L124.829 34.5858L124.942 35.0106L125.197 35.4071L125.565 35.8319L125.849 36.1151L126.245 36.3417L126.698 36.4549H127.463L127.916 36.3133L128.397 36.0585L128.737 35.7469L128.936 35.4921L129.19 35.0956L129.332 34.954L129.644 34.869H130.578L130.691 34.954V35.2372L130.55 35.6903L130.323 36.1434L130.04 36.5116L129.785 36.7948L129.53 37.0497L129.162 37.3329L128.879 37.5028L128.567 37.6444L127.973 37.786L127.548 37.8426H126.415L125.735 37.7577L125.254 37.6161L124.829 37.3895L124.404 37.0213L124.206 36.8231L123.895 36.3983L123.668 36.0018L123.498 35.662L123.3 35.0673L123.187 34.5009L123.102 33.8495V32.83L123.243 31.9804L123.47 31.2724L123.725 30.7343L123.951 30.3944L124.263 29.9979L124.489 29.7714L124.886 29.4599L125.197 29.2616L125.735 29.0067L126.188 28.8935L126.415 28.8651ZM126.84 30.1396L126.415 30.2245L126.075 30.3661L125.764 30.5927L125.537 30.7909L125.282 31.1024L125.112 31.329L124.942 31.6688L124.829 31.952L124.801 32.3485L124.914 32.3768H128.907L129.162 32.3202L129.219 32.2919L129.162 31.9804L128.964 31.4423L128.737 31.0175L128.482 30.706L128.171 30.4511L127.718 30.2245L127.236 30.1396H126.84Z" fill="white"/>
<path d="M93.1074 6.63547H94.6933L95.2314 6.72043L95.5713 6.83371L96.1093 7.08859L96.5058 7.37179L96.7607 7.59835L97.0722 7.99484L97.3271 8.44796L97.5537 8.95772L97.6953 9.55245L97.7236 9.80733V10.3737L97.582 11.3083L97.497 11.7048L97.3554 11.988V12.1013H97.2988L97.2422 12.2145L96.874 12.696L96.5908 13.0358L96.5341 13.1208L96.4209 13.1774L95.9677 13.4323L95.5146 13.6589L94.9765 13.8571L94.2969 13.9987L93.7588 14.027L93.2207 13.9704L92.6826 13.8288L92.1728 13.6022L91.8613 13.404L91.5498 13.1491L91.1816 12.7809L90.8701 12.3845L90.5303 11.8181L90.3604 11.4216L90.2471 11.0251L90.1904 10.7419L90.1621 10.4587V10.0056L90.2471 9.41084L90.332 9.04268L90.5303 8.56124L90.7852 8.10812L91.04 7.76827L91.2949 7.48507L91.4932 7.28683L91.8896 7.03195L92.3994 6.80539L92.9375 6.66379L93.1074 6.63547ZM93.7021 8.13644L93.2773 8.2214L92.9375 8.363L92.626 8.56124L92.3144 8.87276L92.0879 9.24092L91.9463 9.52412L91.833 10.0056L91.8047 10.4304L91.8613 10.8269L91.9746 11.1101L92.2012 11.4216L92.541 11.7614L92.9092 12.0446L93.1924 12.1862L93.7021 12.2995H94.2119L94.6367 12.1862L94.9765 12.0446L95.373 11.7614L95.5429 11.6198L95.7978 11.2517L95.9394 10.9401L96.0244 10.6569L96.0527 10.4304V9.94893L95.9677 9.55245L95.8545 9.26924L95.6279 8.9294L95.4297 8.70284L95.0898 8.44796L94.6367 8.2214L94.4101 8.16476L94.1553 8.13644H93.7021Z" fill="#83CBEE"/>
<path d="M132.359 26.9992L134.144 27.0559L134.342 27.1125L134.37 28.8684L135.248 28.84H135.673L135.729 28.8967V30.2561L135.645 30.341L135.531 30.3693L135.163 30.3977H134.342V32.1252L134.37 34.5607L134.398 35.8634L134.427 36.09L134.653 36.1466L135.503 36.2599L135.701 36.3166L135.729 36.3732V37.591L135.645 37.7892L135.475 37.8742L135.22 37.9308L134.512 37.9025L134.002 37.8459L133.492 37.7326L133.039 37.506L132.812 37.3078L132.671 37.1379L132.529 36.7414L132.444 36.3732L132.388 35.6935L132.359 34.6457L132.331 30.4543L132.246 30.426L130.83 30.341L130.773 30.2844L130.717 29.1516V28.925H132.331V27.0276L132.359 26.9992Z" fill="white"/>
<path d="M93.7627 21.815H94.8105L95.7168 21.9283L96.623 22.1548L97.4726 22.4664V22.523L97.5859 22.5796L97.8125 22.7496L98.2373 23.0611L98.6054 23.2877L98.8603 23.4293L99.0586 23.5992L99.0869 23.6841V23.9673L98.9736 24.1089L98.747 24.2789L98.5488 24.3638L98.2656 24.5904L97.8974 24.9019L97.8125 24.9869L97.5859 25.1851L97.3877 25.4117H97.331L97.2744 25.5249L97.0762 25.7232L96.9346 25.9781L96.708 26.2896L96.5947 26.4878L96.5664 26.6011L96.4814 26.7144L96.4248 26.856V26.941L96.3398 27.0542L96.1982 27.0259L95.5469 26.771L94.8955 26.6011L94.4141 26.5161L93.9893 26.4595L93.791 26.4029V25.6665L93.8477 24.6753L93.791 22.8062V22.1832L93.7344 21.8433L93.7627 21.815Z" fill="#0C4473"/>
<path d="M129.361 20.7088H130.324L130.409 20.7655L130.466 21.6434L130.522 22.4647V23.0877L130.494 23.1444L130.437 24.1356H129.418L128.54 24.0506L128.342 23.9657V23.2576L128.313 23.116L128.087 23.0594L128.002 23.2293L127.974 23.5692L127.889 23.6541L127.577 23.7108L127.124 23.7391H126.671L125.255 23.6824L124.604 23.5975L124.434 23.4842L124.462 23.2576L124.49 23.201L124.887 23.2293L125.51 23.286H125.793L125.595 23.0877L125.396 22.8328L125.113 22.5496L124.972 22.4364L124.887 22.2948V21.7L124.915 21.1053L124.943 21.0204L125.255 20.9637L125.736 20.9354H126.388L126.841 20.9637L127.039 21.0487V22.0682L126.926 22.4364L126.728 22.7762L126.501 23.0594L126.359 23.286L126.331 23.3709L127.067 23.3992H127.605L127.775 23.3709L127.86 23.0594L127.974 22.493L128.059 21.4452L128.087 20.8504L128.115 20.7938L129.361 20.7088ZM128.54 20.992L128.455 21.077L128.398 21.2469L128.342 21.8983L128.313 22.7196L128.398 22.8612L128.512 23.0028L128.653 23.3992L128.738 23.4559L128.767 23.116V22.8328L128.682 22.6346V21.9549L128.738 21.3602L128.823 21.077L128.738 20.992H128.54ZM129.56 20.992L129.248 21.077L129.163 21.1336L129.106 21.3602L129.05 21.9549L129.021 22.1815L129.39 22.2381V22.1815L129.503 22.1248V21.4735L129.588 21.2469L129.645 21.1903L129.786 21.2186L129.814 21.3885L129.843 22.0682L130.098 22.1532L130.069 22.2664L129.588 22.4647L129.56 22.5213L129.645 22.8045L129.786 22.9461L129.871 23.0877L129.786 23.3709L129.645 23.5975L129.56 23.6258L129.503 22.8895L129.39 22.3231L129.191 22.2664L128.937 22.3231L128.908 22.3797V22.6346L128.965 22.7762V23.5408L129.22 23.7108L129.729 23.8241L130.126 23.8524L130.239 23.7957L130.268 23.6541V23.1444L130.239 22.2098L130.211 21.785L130.239 21.3885V21.077L130.069 21.0204L129.814 20.992H129.56ZM125.765 21.2469L125.595 21.3319L125.51 21.4452L125.453 21.7567V22.1248L125.538 22.3514L125.736 22.5496L125.935 22.578L126.161 22.4647L126.274 22.3231L126.303 22.2381V21.5584L126.218 21.4168L126.048 21.2752L125.991 21.2469H125.765Z" fill="white"/>
<path d="M106.647 31.104H111.009L111.037 31.1323L111.065 33.0581L110.952 33.1147H107.469L106.647 33.0864L106.591 33.0581L106.562 32.9731V32.4067L106.591 31.3306L106.647 31.104Z" fill="white"/>
<path d="M117.07 20.7954L117.495 20.8238L117.58 20.8804L119.279 20.8238H119.619L119.704 20.9087L119.676 21.1919L119.647 21.645L119.591 23.4859L120.186 23.4009L120.412 23.3443L120.582 23.4292L120.61 23.4009L120.639 23.2027V22.2964L120.695 22.0415V21.0503L120.554 21.0786L120.44 21.4468L120.384 22.0698L120.044 22.1548L119.931 22.1265V22.0698H119.874L119.902 21.9566L120.129 21.7017L120.186 21.3618L120.355 21.107L120.497 20.9937L120.724 20.8804L121.403 20.9087L121.913 20.937L122.253 20.9087H122.621L122.649 20.9654L122.678 21.4751L122.734 21.4468L122.819 21.73L122.904 22.0982L122.933 23.0894V23.7974L122.395 23.7691L121.743 23.7124L121.573 23.6558L121.517 23.5991L121.545 23.2876L121.658 22.5796L121.63 22.353L121.517 22.2398L121.347 22.2681L121.177 22.3814L121.148 22.523V23.5991L120.695 23.6558L120.639 23.5991L120.61 23.6558L119.846 23.7691L119.534 23.7974L119.393 23.9673L119.279 24.0239H119.109L119.024 23.939L118.939 23.7124V23.0894L118.968 22.7212V22.0132L118.939 21.645L118.883 21.4751L118.77 21.4468H118.26L118.033 21.5601L117.948 21.7017L117.863 22.7212L117.807 23.0044V23.1177L117.92 23.0327L118.062 23.0611L118.146 23.146L118.09 23.2876L117.92 23.4009L117.722 23.4292L117.467 23.2876L117.325 23.146L117.24 22.9195V22.4097L117.325 21.9849V21.2486L117.269 20.9937L117.212 20.8804L117.07 20.8238V20.7954ZM121.573 21.0503L121.233 21.0786L121.177 21.1353L121.12 22.0415L121.148 22.2964L121.29 22.2398L121.488 22.0982L121.573 21.8433L121.63 21.4751L121.658 21.0503H121.573ZM121.97 21.0786L121.941 21.2486L121.913 22.1831V22.5796L121.856 22.9478V23.231L121.998 23.3159L122.225 23.2876L122.366 23.146L122.395 23.0894V21.7866L122.366 21.2486L122.338 21.0786H121.97Z" fill="white"/>
<path d="M97.4727 22.4947L97.6426 22.523L98.1523 22.7495L98.1807 22.8345L98.2939 22.8628L98.3789 23.0044L98.8887 23.2876L99.1152 23.4575L99.3984 23.6275L99.9931 24.0239L100.305 24.1939L100.503 24.4488V24.5054L100.588 24.5337V24.5904H100.673L100.701 24.732H100.758L100.871 24.9585L100.729 25.2417L100.531 25.27L100.361 25.355L100.106 25.3833L99.8799 25.5532L99.7666 25.6665H99.6816L99.625 25.7798L99.5117 25.8364L99.4267 25.8648L99.2851 26.0347L99.1719 26.1196L99.0586 26.148L98.8887 26.2896L98.7754 26.4595H98.7187L98.6904 26.6294L98.6055 26.7427H98.5488L98.4922 26.9409L98.3506 27.1675L98.2373 27.2808L98.1807 27.4224L98.2373 27.479L98.0391 27.7056L98.0957 27.7339L97.9541 27.9038V27.9605L97.8408 28.0171L97.6992 27.9605L97.2744 27.6206L96.6797 27.2524L96.3398 27.0825L96.3965 26.9409L96.4248 26.7993L96.5664 26.5161L96.6514 26.3179L96.8496 26.063L96.9629 25.8931L97.0762 25.6948L97.3027 25.4683L97.501 25.2417L97.7559 24.9868L97.8691 24.9585L97.9258 24.8452L98.3223 24.5054L98.5488 24.3355L98.832 24.1939L99.0303 24.0239L99.0586 23.9673V23.6841L98.9736 23.5425L98.6904 23.3443L98.3789 23.1743L98.0391 22.9478L97.7559 22.7212L97.4727 22.523V22.4947Z" fill="#125F9B"/>
<path d="M125.736 20.9354H126.388L126.841 20.9637L127.039 21.0487V22.0682L126.926 22.4364L126.728 22.7762L126.501 23.0594L126.359 23.286L126.331 23.3709L127.067 23.3993L127.436 23.4559L127.464 23.5125L127.747 23.5409L127.832 23.4842H127.917L127.945 23.4276V23.6258L127.775 23.6825L127.124 23.7391H126.671L125.255 23.6825L124.604 23.5975L124.434 23.4842L124.462 23.2577L124.49 23.201L124.887 23.2293L125.51 23.286H125.793L125.595 23.0877L125.396 22.8329L125.113 22.5497L124.972 22.4364L124.887 22.2948V21.7001L124.915 21.1053L124.943 21.0204L125.255 20.9637L125.736 20.9354ZM125.765 21.2469L125.595 21.3319L125.51 21.4452L125.453 21.7567V22.1249L125.538 22.3514L125.736 22.5497L125.935 22.578L126.161 22.4647L126.274 22.3231L126.303 22.2381V21.5585L126.218 21.4169L126.048 21.2753L125.991 21.2469H125.765Z" fill="white"/>
<path d="M115.565 20.8221H115.792L115.962 20.9071L116.075 20.8788L116.302 20.8505L116.245 20.9071L115.934 20.9637L115.962 22.0399L115.905 22.7762L115.849 23.1444L115.82 23.5126L115.934 23.5409H116.217L116.302 23.4559L116.358 23.1727V22.5497L116.245 21.955V21.6717L116.33 21.5301L116.472 21.5018L116.642 21.7001L116.698 21.87V22.7196L116.585 23.2294L116.387 23.7108L116.245 23.8524L116.047 23.9374H115.849L115.509 23.8241L115.367 23.7108L115.339 23.6258L115.367 23.201L115.48 22.4364L115.509 22.0682V21.5868L115.395 21.2753L115.226 21.1903L115.084 21.162L114.971 21.077L114.744 21.3885L114.631 21.5585L114.546 21.8417L114.518 22.4364L114.603 22.7762L114.518 22.9178L114.319 22.9745L113.838 23.0594L113.696 23.201L113.555 23.3143L113.441 23.3426L113.385 23.286V23.0028L113.441 22.8046L113.81 22.578L113.866 22.5214L113.923 22.2382L113.951 21.6434L113.866 21.4735L113.555 21.2469L113.413 21.0204V20.9071L113.979 20.9354L114.319 20.9637L114.461 20.9354H114.999L115.141 20.8788L115.565 20.8221Z" fill="white"/>
<path d="M117.07 20.7954L117.495 20.8238L117.58 20.8804L119.279 20.8238H119.619L119.704 20.9087L119.676 21.1919L119.647 21.645L119.591 23.2593H119.562L119.534 23.0044L119.449 23.3443V23.5142L119.393 23.6558L119.336 23.6841H119.166L119.138 23.5708L118.996 23.5425L118.968 23.7124H118.939V23.0894L118.968 22.7212V22.0132L118.939 21.645L118.883 21.4751L118.77 21.4468H118.26L118.033 21.5601L117.948 21.7017L117.863 22.7212L117.807 23.0044V23.1177L117.92 23.0327L118.062 23.0611L118.146 23.146L118.09 23.2876L117.92 23.4009L117.722 23.4292L117.467 23.2876L117.325 23.146L117.24 22.9195V22.4097L117.325 21.9849V21.2486L117.269 20.9937L117.212 20.8804L117.07 20.8238V20.7954Z" fill="white"/>
<path d="M93.2812 21.7884H94.4424V21.8167L93.7627 21.845L93.8193 22.2415V22.9212L93.876 24.677L93.8193 25.6965V26.4045L93.9893 26.4329V26.4612H93.083L93.0547 26.3196L93.083 26.2346L93.1113 25.5833L93.168 24.9602V24.4505L93.1963 23.5725L93.168 23.4876V22.1848L93.0547 21.8733L93.2812 21.7884Z" fill="#125F9B"/>
<path d="M135.255 20.7688H135.481L135.566 20.7971L135.595 20.8538V22.468L135.566 22.553L135.085 22.4963L134.66 22.468L134.604 22.4114L134.575 22.2414L134.547 21.052H134.377L134.349 21.0803L134.32 21.2786V21.76L134.349 22.1565V22.468L134.065 22.4963L134.009 22.4397L133.98 21.675L133.867 21.5618L133.584 21.4202L133.301 21.1936L133.272 21.052L133.159 21.0803L133.074 20.9954L133.018 20.8821V20.7971L133.244 20.8254L133.301 20.8538H133.896L134.83 20.8254L134.887 20.7971L135.255 20.7688ZM134.802 20.9104L134.745 20.9387V21.137L134.83 21.2502L134.858 21.3635L134.887 22.2131L134.915 22.2698H134.972L135 22.383L135.113 22.3547L135.17 22.1565V21.1936L135.085 21.0237L134.915 20.9104H134.802Z" fill="white"/>
<path d="M116.365 21.5018L116.507 21.5301L116.648 21.7001L116.705 21.87V22.7196L116.592 23.2293L116.394 23.7108L116.252 23.8524L116.054 23.9373H115.855L115.516 23.8241L115.374 23.7108L115.346 23.6258L115.374 23.201L115.487 22.4364L115.544 21.6434L115.657 21.7001V21.6434L115.771 21.5868L115.912 21.785L115.969 21.7284V22.0399L115.912 22.7762L115.855 23.1444L115.827 23.5125L115.94 23.5409H116.224L116.309 23.4559L116.365 23.1727V22.5497L116.252 21.9549V21.6717L116.337 21.5301L116.365 21.5018Z" fill="white"/>
<path d="M135.252 22.8879H135.479L135.45 23.9641V24.2756L135.422 24.3606L135.309 24.3323L135.28 24.3039L135.252 24.1057L134.997 23.9924L134.544 23.8791L133.609 23.7658L133.298 23.6809L133.213 23.5676L133.156 23.2561V23.0862L133.383 23.1145L133.864 23.1711L134.204 23.1994L134.289 23.2278V23.2844L134.346 23.2561H134.544L134.686 23.341L134.799 23.4543L134.771 23.1994L134.827 23.1145H135.025L135.139 23.2561L135.224 23.7942H135.337L135.365 23.7375V23.2561L135.337 23.0295L135.252 22.9446V22.8879Z" fill="white"/>
<path d="M128.202 20.882H128.259L128.287 20.9953L128.202 21.8733V22.6662L128.287 22.7795L128.344 22.7229L128.429 22.8645L128.542 23.0061L128.684 23.4025L128.712 23.4309L128.74 23.1193V22.8361L128.655 22.6379V22.5813H128.712V22.4397L128.74 22.4963L128.882 22.383H128.91L128.967 22.7229L128.995 22.7795V23.5441L129.222 23.6857L129.731 23.799L130.213 23.8273L130.185 23.884L129.958 23.9123L129.93 23.9406L129.533 23.9689H129.165L128.74 23.9406L128.485 23.8273L128.4 23.6857L128.344 23.2609L128.315 23.1193L128.089 23.0627L128.004 23.2326L127.976 23.5725L127.919 23.4875L127.749 23.5725L127.466 23.5441L127.381 23.4875L127.154 23.4592V23.4309L127.607 23.4025L127.777 23.3742L127.862 23.0627L127.976 22.4963L128.061 21.4485L128.117 21.3352L128.146 21.1086H128.202V20.882Z" fill="white"/>
<path d="M124.49 23.201L124.887 23.2293L125.51 23.2859H125.935L125.991 23.3143H126.246L126.331 23.2859V23.3709L127.067 23.3992L127.436 23.4559L127.464 23.5125L127.747 23.5408L127.832 23.4842H127.917L127.945 23.4275V23.6258L127.775 23.6824L127.124 23.7391H126.671L125.255 23.6824L124.604 23.5975L124.434 23.4842L124.462 23.2576L124.49 23.201Z" fill="white"/>
<path d="M120.668 22.2083H120.725V22.6614L120.753 22.718L120.866 22.6897L120.979 22.4065L121.149 22.3499V23.5959L120.696 23.6526L120.64 23.5959L120.611 23.6526L119.847 23.7659L119.535 23.7942L119.394 23.9641L119.28 24.0207H119.11L119.025 23.9358L118.969 23.7942V23.3694H118.997V23.5393L119.139 23.5676L119.167 23.6809L119.365 23.6243L119.422 23.511V23.3127L119.535 22.8313H119.563L119.592 23.4827L120.187 23.3977L120.413 23.3411L120.583 23.426L120.611 23.3977L120.64 23.1995V22.2932L120.668 22.2083Z" fill="white"/>
<path d="M120.839 21.2753L120.98 21.3319L121.065 21.5302L121.122 21.7284H121.15V22.2948L121.462 22.0966L121.547 21.8417L121.575 21.7001L121.632 21.7284L121.858 21.7001L121.887 21.6435L121.915 21.3603H121.943V22.578L121.887 22.9462V23.2294L121.915 23.286L121.773 23.2294L121.575 23.2011L121.604 22.9179L121.66 22.4647L121.575 22.2665L121.405 22.2382L121.15 22.3798L120.98 22.4081L120.896 22.7196L120.811 22.7479L120.697 22.7196V22.0399L120.726 21.3886H120.782L120.839 21.2753Z" fill="white"/>
<path d="M126.245 21.0754H126.755V21.1603H126.812L126.868 21.2736L126.896 21.7267L126.868 22.2365L126.783 22.3781V22.4347H126.727V22.5197H126.67V22.6047H126.613L126.585 22.6896H126.528L126.5 22.7746H126.443L126.415 22.8312L126.273 22.8879H126.104V22.8312H126.047L126.075 22.6896L126.16 22.4914L126.104 22.4631L126.245 22.3215L126.33 22.0099L126.387 21.5851L126.302 21.3586L126.188 21.217L126.245 21.0754Z" fill="white"/>
<path d="M129.646 21.162L129.788 21.1904L129.845 21.3886V22.0683L130.071 22.0966L130.128 22.1533L130.1 22.2665L129.731 22.4365L129.59 22.4931L129.675 22.8046L129.816 22.9462L129.901 23.0878L129.816 23.371L129.646 23.6259H129.562L129.533 23.5693L129.477 22.8896L129.363 22.3232L129.193 22.2949L128.938 22.3232L128.854 22.2665L128.882 22.1533L128.967 22.1249L129.023 21.9833L129.052 22.0966L129.023 22.1816H129.25L129.392 22.2382V22.1816L129.477 22.1249V21.4736L129.562 21.247L129.646 21.162Z" fill="white"/>
<path d="M122.847 22.0949H122.903L122.932 23.0861V23.7941L122.394 23.7658L121.742 23.7092L121.572 23.6525L121.516 23.5959L121.544 23.2844L121.601 23.1145L121.629 23.1994H121.799L121.855 23.2561L122.139 23.2844L122.309 23.1994L122.394 23.0295L122.563 23.1711L122.648 23.1994L122.733 22.9445L122.818 22.4914L122.847 22.0949Z" fill="white"/>
<path d="M135.252 20.7688H135.479L135.563 20.7971L135.592 20.8538V22.468L135.563 22.553L135.082 22.4963L135.11 22.2698L135.139 22.1565V21.1936L135.054 21.0237L134.855 20.8821L134.884 20.7971L135.252 20.7688Z" fill="white"/>
<path d="M97.7539 22.1549L97.8955 22.2115L98.1787 22.3531L98.4902 22.5231L98.9434 22.8063L99.4248 23.0895L99.9629 23.3727L100.218 23.5709L100.246 23.6559H100.048L99.793 23.6276L99.9346 23.7975L99.708 23.6842L99.623 23.5992L99.2266 23.3727L99.0566 23.2311L98.8018 23.0895L98.4619 22.8912L98.3486 22.9196L98.1787 22.8346L98.1504 22.7213L97.8672 22.3531L97.7539 22.2115V22.1549Z" fill="#0E93D3"/>
<path d="M122.621 20.9954H122.649L122.678 21.4768L122.734 21.4485L122.819 21.7317L122.876 21.9583L122.848 22.4963L122.706 23.176L122.621 23.2327L122.451 23.1194L122.395 23.0344V21.9583H122.451L122.508 21.7883L122.564 21.7034L122.593 21.5618L122.621 20.9954Z" fill="white"/>
<path d="M128.202 20.882H128.259L128.287 20.9953L128.202 21.8733V22.6662L128.287 22.7795L128.344 22.7229L128.429 22.8645L128.542 23.0061L128.57 23.2326L128.457 23.2893L128.344 23.2609L128.315 23.1193L128.089 23.0627L128.004 23.2326L127.976 23.5725L127.919 23.4875L127.749 23.5725L127.466 23.5441L127.381 23.4875L127.154 23.4592V23.4309L127.607 23.4025L127.777 23.3742L127.862 23.0627L127.976 22.4963L128.061 21.4485L128.117 21.3352L128.146 21.1086H128.202V20.882Z" fill="white"/>
<path d="M120.665 22.2083H120.722V22.6614L120.75 22.718L120.863 22.6897L120.977 22.4065L121.146 22.3499V23.5959L120.693 23.6526L120.637 23.4827V22.2932L120.665 22.2083Z" fill="white"/>
<path d="M120.839 21.2753L120.98 21.3319L121.065 21.5302L121.122 21.7284H121.15V22.2948L121.235 22.2665L121.179 22.3798L120.98 22.4081L120.896 22.7196L120.811 22.7479L120.697 22.7196V22.0399L120.726 21.3886H120.782L120.839 21.2753Z" fill="white"/>
<path d="M133.183 21.1353L133.324 21.2485L133.409 21.5034L133.466 21.8716L133.579 21.8999L133.721 22.0415L133.692 22.2398L133.579 22.353L133.437 22.4097H133.098V21.5601H133.126V22.1548H133.183L133.154 21.1636L133.183 21.1353Z" fill="white"/>
<path d="M115.735 21.5885L115.876 21.7302L115.905 21.7868L115.961 21.7302V22.0419L115.933 22.4386L115.876 22.4669L115.848 22.6369H115.791L115.763 22.7219L115.593 22.7786H115.48L115.451 22.6936L115.536 21.6452L115.65 21.7018V21.6452L115.735 21.5885Z" fill="white"/>
<path d="M116.363 21.5018L116.505 21.5301L116.646 21.7001L116.675 21.785L116.646 22.2098L116.562 22.3231L116.533 22.578L116.505 22.6913H116.448L116.42 22.7762L116.25 21.9549V21.6717L116.335 21.5301L116.363 21.5018Z" fill="white"/>
<path d="M118.487 21.815H118.544L118.572 21.9566L118.601 22.6363L118.686 22.8912L118.346 23.1177H118.289L118.317 22.7496V22.1265L118.402 21.9283L118.487 21.815Z" fill="white"/>
<path d="M119.535 22.8344H119.564L119.592 23.5145V23.6845L119.649 23.7412L119.507 23.8262L119.394 23.9678L119.28 24.0245H119.11L119.025 23.9395L118.969 23.7978V23.3728H118.997V23.5428L119.139 23.5712L119.167 23.6845L119.365 23.6278L119.422 23.5145V23.3161L119.535 22.8344Z" fill="white"/>
<path d="M116.669 21.8683H116.697V22.7179L116.584 23.2277L116.527 23.3693L116.499 23.3126L116.386 23.2843L116.357 23.3693L116.386 22.6046L116.442 22.6896H116.499L116.471 22.6046L116.499 22.5763L116.527 22.2931H116.584L116.669 21.8683Z" fill="white"/>
<path d="M129.643 21.162L129.784 21.1904L129.813 21.2187V21.9554L129.643 21.9271V21.9838H129.558L129.529 22.0688L129.473 21.9271V21.4737L129.558 21.2471L129.643 21.162Z" fill="white"/>
<path d="M122.763 20.8489H123.046V21.1604L122.961 22.1799H122.933L122.819 21.5569L122.763 20.9905L122.734 20.8772L122.763 20.8489Z" fill="#0C0F11"/>
<path d="M114.803 22.5214H115.001L115.086 22.6348V22.8332L115.001 23.0882L114.831 23.0599L114.661 22.9465L114.633 22.7765L114.661 22.6348L114.803 22.5214Z" fill="white"/>
<path d="M120.189 21.3618L120.217 21.4185H120.274L120.245 21.6169H120.33L120.387 21.7302V22.0702L120.047 22.1552L119.934 22.1269V22.0702H119.877L119.905 21.9569L120.132 21.7019L120.189 21.3618Z" fill="white"/>
<path d="M118.286 21.2486H118.655L118.853 21.3336L118.881 21.4186L118.258 21.4469L118.116 21.5036H118.031L118.088 21.3336L118.145 21.2769L118.286 21.2486Z" fill="white"/>
<path d="M120.577 20.9621L120.634 21.0188L120.521 21.1321L120.436 21.4438L120.379 21.7272L120.322 21.7555V21.6138H120.237L120.266 21.4155H120.209L120.237 21.2455L120.436 21.0188L120.577 20.9621Z" fill="white"/>
<path d="M117.919 23.0344L118.061 23.0628L118.146 23.1478L118.089 23.2895L117.919 23.4029L117.721 23.4312L117.664 23.4029V23.2612L117.919 23.0344Z" fill="white"/>
<path d="M117.07 20.7954L117.495 20.8238L117.58 20.8804L117.778 20.9087L117.722 20.9654L117.608 20.9937L117.467 21.1353L117.382 21.1636V21.3052L117.325 21.2486L117.269 20.9937L117.212 20.8804L117.07 20.8238V20.7954Z" fill="white"/>
<path d="M119.277 20.8221H119.617L119.702 20.9072L119.674 21.1905L119.646 21.6439L119.589 21.6722L119.561 21.2188L119.504 20.9922L119.447 20.9638V20.8788H119.164L119.277 20.8221Z" fill="white"/>
<path d="M125.847 23.2877L125.988 23.316H126.243L126.328 23.2877V23.3726H126.498V23.4009L126.187 23.4293V23.4859H125.195V23.4576L125.79 23.4009V23.316L125.847 23.2877Z" fill="white"/>
<path d="M83.1426 31.044H83.1709L83.1992 31.3272V32.46L83.1426 32.4317L83.1143 32.2052L83.0859 31.7237L83.1143 31.4122L83.1426 31.044Z" fill="#83CBEE"/>
<path d="M132.953 24.054H133.265L133.378 24.1107L133.35 24.2241L133.18 24.3091L133.01 24.2807L132.896 24.1674V24.0823L132.953 24.054Z" fill="#090B0D"/>
<path d="M135.25 22.8879H135.477L135.448 23.653L135.42 23.9647L135.392 23.8797L135.25 23.8513L135.363 23.738V23.2563L135.335 23.0296L135.25 22.9446V22.8879Z" fill="white"/>
<path d="M119.591 23.4875L119.96 23.5159L119.875 23.5727L119.903 23.6863L119.846 23.7715H119.619L119.562 23.6863V23.5159L119.591 23.4875Z" fill="white"/>
<path d="M117.892 21.6751H117.92L117.892 22.4118L117.863 22.7235L117.807 22.8935L117.75 22.8085L117.807 22.2702L117.835 21.7885L117.892 21.6751Z" fill="white"/>
<path d="M114.407 21.0754H114.605L114.662 21.1038L114.605 21.2742L114.492 21.3594L114.35 21.331L114.293 21.2742V21.1606H114.35L114.378 21.1038L114.407 21.0754Z" fill="white"/>
<path d="M114.803 22.5214H115.002L115.087 22.6349V22.8336L115.059 22.7484L114.917 22.72L114.831 22.7484L114.775 22.6065L114.69 22.6917L114.633 22.7768L114.661 22.6349L114.803 22.5214Z" fill="white"/>
<path d="M128.482 23.0012H128.539L128.567 23.2276L128.454 23.2842L128.341 23.2559L128.312 23.0861L128.341 23.0578H128.482V23.0012Z" fill="white"/>
<path d="M129.024 21.9816L129.052 22.0952V22.1804L129.223 22.2088L129.166 22.2656L128.939 22.3224L128.854 22.2656L128.882 22.152L128.967 22.1236L129.024 21.9816Z" fill="white"/>
<path d="M133.805 20.8489L133.918 20.9055L133.947 20.9622H133.522L133.352 20.9055V20.8772L133.805 20.8489Z" fill="#2C3439"/>
<path d="M99.3379 34.3291L99.4796 34.4425L99.6497 34.7259L99.7064 34.8393L99.4796 34.6692L99.3379 34.4141V34.3291Z" fill="#1296D4"/>
<path d="M117.835 22.268H117.863V22.7215L117.807 22.8916L117.75 22.8065L117.807 22.2964L117.835 22.268Z" fill="white"/>
<path d="M83.1436 31.044H83.1719L83.2003 31.3275V31.6676L83.1436 31.6959L83.1152 31.4125L83.1436 31.044Z" fill="#68C0E9"/>
<path d="M133.944 20.9954L134.227 21.0237L134.171 21.0803L134.029 21.052L134.001 21.1652L133.803 21.1369L133.831 21.0803L133.916 21.052L133.944 20.9954Z" fill="white"/>
<path d="M114.092 21.1086L114.205 21.137V21.4494L114.12 21.4778L114.092 21.1086Z" fill="white"/>
<path d="M98.0684 22.548L98.2665 22.6046L98.3231 22.7744L98.1816 22.7461L98.0684 22.6046V22.548Z" fill="#177DBF"/>
<path d="M133.098 21.5619H133.126V22.1569H133.183L133.126 22.4119H133.098V21.5619Z" fill="white"/>
<path d="M115.481 20.9954H115.793L115.821 21.0522L115.708 21.0806H115.452L115.424 21.0238L115.481 20.9954Z" fill="white"/>
<path d="M120.836 20.9954L121.205 21.0238L121.233 21.109L121.177 21.1374L120.836 21.0522V20.9954Z" fill="white"/>
<path d="M135.42 23.5142H135.449L135.42 23.9682L135.392 23.8831L135.25 23.8547L135.364 23.7412L135.392 23.5425L135.42 23.5142Z" fill="#30393E"/>
<path d="M133.437 21.815L133.465 21.8718L133.522 21.9002L133.437 22.1558L133.352 22.2126L133.437 21.815Z" fill="white"/>
<path d="M99.6797 23.5409L99.8778 23.5692L99.7929 23.6258L99.9344 23.7956L99.708 23.6824L99.6797 23.5409Z" fill="#3DABDE"/>
<path d="M117.352 23.1144L117.635 23.2842V23.3408L117.493 23.3125L117.352 23.171V23.1144Z" fill="white"/>
<path d="M134.968 22.3548L135.081 22.3831V22.468H134.656V22.4397H134.939L134.968 22.3548Z" fill="#334248"/>
<path d="M120.58 20.9621L120.637 21.0192L120.495 21.1334L120.466 21.0763L120.295 21.219L120.352 21.1048L120.495 20.9907L120.58 20.9621Z" fill="white"/>
<path d="M132.731 22.748H132.788L132.817 22.9464L132.703 22.9181V22.7763L132.731 22.748Z" fill="white"/>
<path d="M83 32.7766H83.0282V33.0024H83V32.7766Z" fill="#83CBEE"/>
<path d="M83 33.2564L83.0568 33.37L83 33.4268V33.2564Z" fill="#83CBEE"/>
<path d="M83 32.4634H83.0291V32.6087H83V32.4634Z" fill="#83CBEE"/>
<path d="M132.756 22.548L132.815 22.607L132.756 22.6364V22.548Z" fill="white"/>
<path d="M127.998 23.6275H128.054L128.026 23.6837L127.998 23.6275Z" fill="#5DBCE7"/>
</mask>
<g mask="url(#mask0_3275_3029)">
<rect x="80.7266" y="0.313583" width="74.8419" height="49.0767" fill="white"/>
</g>
</svg>
