<svg width="224" height="50" viewBox="0 0 224 50" fill="none" xmlns="http://www.w3.org/2000/svg">
<path d="M90.3436 24.788L90.3437 25.1978C89.983 38.7913 74.8018 46.8187 63.4206 38.8185C53.2874 31.6953 54.2128 16.1791 65.0009 10.1628C76.2436 3.89297 90.1481 12.0118 90.3436 24.788ZM89.6878 24.9885C89.685 15.936 82.3441 8.59756 73.2913 8.59756C64.2384 8.59756 56.9012 15.936 56.9039 24.9885C56.9066 34.041 64.2476 41.3794 73.3004 41.3794C82.3533 41.3794 89.6898 34.041 89.687 24.9885H89.6878Z" fill="white" stroke="white" stroke-miterlimit="10"/>
<path d="M72.0605 26.3557C72.0288 26.2091 71.773 25.9313 71.6432 25.8178L67.5214 23.4279C66.9494 22.8678 67.7207 22.1279 68.0316 21.6342L68.2453 21.5664C69.965 22.8074 73.6995 23.7942 73.9729 26.2187C74.1576 27.8569 74.1345 31.655 73.9809 33.3212C73.8605 34.6367 73.0388 34.6654 71.9708 34.2269C70.8939 33.7855 66.2333 31.0382 65.5801 30.2453C65.3302 29.9424 65.0707 29.5857 64.9983 29.1893C64.751 27.8333 64.8463 23.6217 64.9586 22.1191C65.021 21.2783 65.2035 20.5936 65.8512 20.0107C66.4988 19.4278 71.395 16.5965 72.1651 16.3636C73.3007 16.021 74.1917 16.1403 75.1971 16.7365C75.2708 16.8419 74.3269 17.3637 74.1972 17.441C72.2152 18.6201 69.4269 19.8375 67.6467 21.125C67.2614 21.4035 66.9947 21.6681 66.9064 22.1582C66.7019 23.2864 66.7553 27.0426 66.8699 28.2732C66.8884 28.4707 66.8767 28.6675 66.977 28.8488C68.4977 30.0633 70.3013 31.0279 72.0629 31.8827L72.0613 26.3557H72.0605Z" fill="white"/>
<path d="M74.5154 25.2666C74.4711 24.9969 74.1806 24.5216 73.961 24.3197C72.8125 23.2666 70.3345 22.4641 69.007 21.4943C68.8949 21.4125 68.7365 21.3594 68.7828 21.1744C68.8484 20.9091 72.9106 18.6453 73.4669 18.352C74.5147 17.7993 75.2979 17.2959 76.5648 17.6202C77.1331 17.7661 79.7601 19.3387 80.2908 19.7632C81.1187 20.4257 81.5367 21.041 81.6174 22.1221C81.7506 23.9033 81.7743 27.0559 81.6194 28.8201C81.5863 29.1989 81.515 29.5548 81.3212 29.8857C80.7371 30.8813 76.5327 33.157 75.2933 33.8187C75.1401 33.9005 74.4614 34.2882 74.3833 34.2042L74.645 31.9432C75.5328 31.1194 79.0955 29.6926 79.5352 28.7825C79.6627 28.518 79.6817 28.2851 79.7082 28.0006C79.8257 26.742 79.8608 23.4825 79.688 22.2776C79.6415 21.9541 79.5854 21.7647 79.3436 21.5304C79.0399 21.2356 76.11 19.5207 75.7761 19.4927C75.0266 19.4294 73.4455 20.946 72.6047 21.1066C72.4979 21.2474 74.6244 22.338 74.833 22.4928C77.368 24.3705 76.399 27.431 76.5421 30.1569C76.4729 30.3596 74.8659 31.339 74.518 31.339L74.5162 25.2659L74.5154 25.2666Z" fill="white"/>
<path d="M164.867 34.6763L164.862 19.7592H167.154L167.159 34.6763H164.867ZM166.027 17.273C165.58 17.273 165.195 17.1209 164.871 16.8166C164.554 16.5123 164.395 16.1465 164.395 15.7192C164.395 15.2918 164.553 14.926 164.871 14.6217C165.194 14.3174 165.579 14.1653 166.026 14.1653C166.473 14.1653 166.855 14.3174 167.172 14.6217C167.496 14.926 167.658 15.2918 167.658 15.7192C167.658 16.1465 167.496 16.5123 167.173 16.8166C166.856 17.1209 166.474 17.273 166.027 17.273Z" fill="white"/>
<path d="M149.125 34.6761L149.119 14.7866H161.045L161.046 16.9232H151.528L151.53 23.6436H160.154L160.155 25.7802H151.531L151.534 34.6761H149.125Z" fill="white"/>
<path d="M145.071 24.7318C145.072 26.8296 144.694 28.6424 143.937 30.1704C143.18 31.6983 142.141 32.8767 140.82 33.7054C139.5 34.5342 137.991 34.9485 136.295 34.9485C134.599 34.9485 133.09 34.5342 131.769 33.7054C130.448 32.8767 129.409 31.6983 128.651 30.1704C127.893 28.6424 127.513 26.8296 127.513 24.7318C127.512 22.6341 127.89 20.8213 128.647 19.2933C129.404 17.7653 130.443 16.587 131.764 15.7583C133.084 14.9295 134.593 14.5152 136.289 14.5152C137.985 14.5152 139.494 14.9295 140.815 15.7583C142.136 16.587 143.175 17.7653 143.933 19.2933C144.691 20.8213 145.071 22.6341 145.071 24.7318ZM142.741 24.7318C142.74 23.0096 142.451 21.5561 141.875 20.3713C141.305 19.1865 140.531 18.2898 139.553 17.6812C138.582 17.0726 137.494 16.7683 136.29 16.7683C135.085 16.7683 133.995 17.0726 133.017 17.6812C132.046 18.2898 131.273 19.1865 130.697 20.3713C130.128 21.5561 129.843 23.0096 129.844 24.7318C129.844 26.454 130.129 27.9076 130.7 29.0924C131.276 30.2772 132.05 31.1739 133.021 31.7825C133.999 32.3911 135.09 32.6954 136.295 32.6954C137.499 32.6954 138.586 32.3911 139.557 31.7825C140.535 31.1739 141.308 30.2772 141.878 29.0924C142.453 27.9076 142.741 26.454 142.741 24.7318Z" fill="white"/>
<path d="M123.473 14.7866L123.479 34.6761H121.148L110.305 19.0597H110.111L110.116 34.6761H107.707L107.701 14.7866H110.032L120.914 30.4418H121.108L121.103 14.7866H123.473Z" fill="white"/>
<path d="M102.867 14.7866L102.873 34.6761H100.465L100.459 14.7866H102.867Z" fill="white"/>
</svg>
