<svg width="224" height="50" viewBox="0 0 224 50" fill="none" xmlns="http://www.w3.org/2000/svg">
<path d="M102.632 39.0583C99.8749 39.0583 97.5084 38.4396 95.5298 37.2021C93.5513 35.9646 92.0304 34.2992 90.966 32.2049C89.9016 30.1118 89.3694 27.7864 89.3694 25.2301C89.3694 22.6738 89.9146 20.3496 91.0062 18.2553C92.0978 16.1622 93.6459 14.4957 95.6517 13.2582C97.6574 12.0207 100.011 11.4019 102.712 11.4019C105.632 11.4019 108.163 12.1161 110.305 13.5434C112.446 14.9706 114.023 16.8139 115.032 19.0709H111.675C110.857 17.6295 109.717 16.4875 108.258 15.6448C106.797 14.8021 105.03 14.3802 102.957 14.3802C100.774 14.3802 98.8909 14.8634 97.3085 15.8286C95.7262 16.7939 94.5175 18.0927 93.6861 19.7238C92.8535 21.355 92.4372 23.1912 92.4372 25.2301C92.4372 27.2691 92.8464 29.0711 93.6648 30.7164C94.4832 32.3617 95.6765 33.6675 97.2459 34.6328C98.8152 35.598 100.691 36.0812 102.874 36.0812C104.511 36.0812 106.06 35.7277 107.52 35.0205C108.979 34.3134 110.166 33.2939 111.08 31.961C111.995 30.6292 112.452 29.024 112.452 27.1477H102.547V24.3733H115.277V38.7318H112.452V33.9598C111.879 34.8308 111.142 35.6522 110.242 36.4277C109.341 37.2032 108.256 37.835 106.987 38.3241C105.718 38.8132 104.265 39.0583 102.628 39.0583H102.632ZM128.467 39.0583C126.474 39.0583 124.735 38.5892 123.248 37.6511C121.76 36.713 120.608 35.4425 119.79 33.8372C118.971 32.2332 118.562 30.4653 118.562 28.5348C118.562 26.6043 118.971 24.8023 119.79 23.2112C120.608 21.6201 121.761 20.3555 123.248 19.4174C124.734 18.4793 126.474 18.0102 128.467 18.0102C130.158 18.0102 131.611 18.3366 132.826 18.9896C134.039 19.6425 135.029 20.5264 135.793 21.6414V18.3378H138.863V38.733H135.793V35.4696C135.029 36.5574 134.039 37.4272 132.826 38.0801C131.611 38.733 130.158 39.0595 128.467 39.0595V39.0583ZM128.876 36.284C130.404 36.284 131.693 35.9304 132.744 35.2232C133.794 34.5161 134.593 33.5709 135.139 32.3888C135.684 31.2055 135.958 29.9208 135.958 28.5337C135.958 27.1465 135.684 25.8277 135.139 24.6585C134.593 23.4894 133.794 22.5512 132.744 21.8441C131.693 21.1369 130.404 20.7834 128.876 20.7834C127.348 20.7834 126.079 21.1369 124.987 21.8441C123.896 22.5512 123.063 23.4894 122.491 24.6585C121.917 25.8277 121.631 27.1194 121.631 28.5337C121.631 29.948 121.917 31.2055 122.491 32.3888C123.064 33.5721 123.896 34.5173 124.987 35.2232C126.078 35.9304 127.375 36.284 128.876 36.284ZM143.299 38.7318V10.1786H146.37V38.7318H143.299ZM148.481 38.7318L156.381 28.2084L148.973 18.3366H152.903L158.183 26.0457L163.422 18.3366H167.351L159.943 28.2084L167.883 38.7318H163.953L158.182 30.4111L152.369 38.7318H148.481ZM178.054 39.0583C175.98 39.0583 174.165 38.5892 172.61 37.6511C171.055 36.713 169.848 35.4425 168.988 33.8372C168.128 32.2332 167.699 30.4653 167.699 28.5348C167.699 26.6043 168.108 24.8023 168.926 23.2112C169.745 21.6201 170.918 20.3555 172.446 19.4174C173.974 18.4793 175.775 18.0102 177.849 18.0102C179.924 18.0102 181.758 18.4793 183.273 19.4174C184.788 20.3555 185.954 21.6201 186.772 23.2112C187.591 24.8023 188 26.5761 188 28.5348V29.7582H170.849C171.012 30.9556 171.402 32.0493 172.017 33.0417C172.63 34.0352 173.456 34.8237 174.493 35.4071C175.53 35.9917 176.731 36.284 178.095 36.284C179.542 36.284 180.756 35.9646 181.738 35.3258C182.721 34.687 183.483 33.8643 184.03 32.8578H187.386C186.677 34.6799 185.551 36.1685 184.01 37.3246C182.468 38.4808 180.483 39.0583 178.054 39.0583ZM170.891 26.9025H184.807C184.534 25.1629 183.797 23.7074 182.596 22.5383C181.395 21.3691 179.813 20.7845 177.848 20.7845C175.884 20.7845 174.307 21.3691 173.121 22.5383C171.934 23.7074 171.19 25.1629 170.891 26.9025ZM68.2142 13.6777L39.121 30.417L66.1505 10.538C67.0564 9.87213 68.3419 10.1397 68.9037 11.1108C69.424 12.0101 69.1154 13.1592 68.213 13.6789L68.2142 13.6777ZM72.3712 28.166C71.9809 27.4918 71.1164 27.262 70.4399 27.6509L51.1793 38.7318L71.6924 30.1695C72.4776 29.8419 72.7958 28.9014 72.37 28.166H72.3712ZM82.089 13.3112C81.2742 11.9052 79.4399 11.4703 78.0775 12.3601L36 39.8291L80.9099 17.2488C82.3646 16.5169 82.9039 14.7172 82.089 13.3112Z" fill="white"/>
</svg>
