<svg width="224" height="50" viewBox="0 0 224 50" fill="none" xmlns="http://www.w3.org/2000/svg">
<path d="M105.46 14.3661H101.379L101.385 34.0966H105.466L105.46 14.3661Z" fill="white"/>
<path d="M175.923 14.3667H171.842L171.848 34.0972H175.929L175.923 14.3667Z" fill="white"/>
<path d="M111.909 19.2977H107.828L107.833 34.0966H111.914L111.909 19.2977Z" fill="white"/>
<path d="M109.49 13.3411C113.294 12.7253 112.808 18.4318 109.102 17.2743C107.19 16.6777 107.392 13.6812 109.49 13.3411Z" fill="white"/>
<path d="M124.371 31.525C123.854 31.4125 124.024 31.61 123.891 31.8047C122.64 33.6466 121.411 34.1156 119.132 33.8605C111.434 32.9979 112.496 18.476 120.364 19.1027C122.179 19.2467 122.842 20.171 123.876 21.3861C124.009 21.5425 123.869 21.7907 124.368 21.6577L124.368 19.3002H128.128L128.45 19.6225L128.455 34.4214C128.455 35.882 127.466 37.6127 126.314 38.5014C123.203 40.9041 115.31 40.5667 114.493 35.8161L118.208 35.3814C119.23 37.7594 124.374 37.4344 124.374 34.6353L124.373 31.525H124.371ZM119.073 29.9506C119.323 30.2002 120.035 30.5732 120.383 30.6802C125.633 32.2916 125.848 20.8389 120.061 22.6135C117.798 23.3075 117.567 28.4475 119.074 29.952L119.073 29.9506Z" fill="white"/>
<path d="M99.8808 34.0964H95.3702L94.0592 29.6132L86.9072 29.5789L85.4892 34.0964H80.9786L87.7625 14.3521L93.1097 14.5784L99.8808 34.0964ZM87.8484 26.3767H92.7896L90.5301 19.0835C90.0981 18.9944 90.2243 19.2481 90.1106 19.5114C89.2088 21.5918 88.838 24.2743 87.8498 26.3767H87.8484Z" fill="white"/>
<path d="M144.352 34.0989H140.271L140.268 24.3399C140.268 24.2028 139.611 23.2154 139.403 23.0577C138.416 22.3048 136.817 22.3843 135.86 23.1564C135.547 23.4088 134.897 24.4565 134.897 24.7692L134.9 34.0989H130.819L130.815 19.3H134.681L134.684 21.8741C136.43 19.2122 139.827 18.089 142.521 20.1599C143.079 20.5891 144.349 22.4392 144.349 23.0549L144.352 34.1003L144.352 34.0989Z" fill="white"/>
<path d="M151.438 34.0982L158.404 14.3526L163.432 14.3965L170.126 34.0982H165.938L164.35 29.7221L157.224 29.6891L155.627 34.0982H151.439H151.438ZM163.25 26.3785L160.778 18.8701L158.31 26.3785H163.251H163.25Z" fill="white"/>
<path d="M53.4754 13.725H48.9648L48.9713 34.9572H53.4818L53.4754 13.725Z" fill="white"/>
<path d="M70.0154 13.7261H65.7188L65.7252 34.9583H70.0218L70.0154 13.7261Z" fill="white"/>
<path d="M60.554 13.7303L56.1797 14.2241L58.5245 34.9421L62.8988 34.4483L60.554 13.7303Z" fill="white"/>
</svg>
