<svg width="224" height="50" viewBox="0 0 224 50" fill="none" xmlns="http://www.w3.org/2000/svg">
<path d="M78.707 32.0477V11.9998H82.7368V32.0477H78.707Z" fill="white"/>
<path d="M31.7483 37.9986H23.1094V17.9507H31.4012C35.4311 17.9507 37.7786 20.1477 37.7786 23.5821C37.7786 25.806 36.2704 27.2434 35.2266 27.7223C36.473 28.2845 38.0674 29.5516 38.0674 32.2274C38.0674 35.9712 35.4311 37.9986 31.7483 37.9986ZM31.082 21.4426H27.1392V26.0606H31.0811C32.7912 26.0606 33.7479 25.1316 33.7479 23.7507C33.7479 22.3725 32.792 21.4426 31.082 21.4426ZM31.3421 29.5803H27.1401V34.5086H31.3439C33.1705 34.5086 34.0385 33.3823 34.0385 32.0301C34.0385 30.6787 33.1687 29.5803 31.3439 29.5803H31.3421ZM50.3586 29.7775V37.9986H46.3575V29.7775L40.1531 17.9507H44.5309L48.3867 26.032L52.1843 17.9507H56.5611L50.3586 29.7775ZM67.9861 37.9986H59.3472V17.9507H67.6382C71.668 17.9507 74.0165 20.1477 74.0165 23.5821C74.0165 25.806 72.5082 27.2434 71.4644 27.7223C72.7109 28.2845 74.3052 29.5516 74.3052 32.2274C74.3052 35.9712 71.6689 37.9986 67.9861 37.9986ZM67.3199 21.4426H63.377V26.0606H67.3199C69.0299 26.0606 69.9867 25.1316 69.9867 23.7507C69.9867 22.3725 69.0299 21.4426 67.3199 21.4426ZM67.5799 29.5803H63.3761V34.5086H67.5799C69.4074 34.5086 70.2754 33.3823 70.2754 32.0301C70.2754 30.6787 69.4074 29.5803 67.5799 29.5803ZM95.7303 21.4435V38.0004H91.7005V21.4426H86.3095V17.9507H101.123V21.4426L95.7303 21.4435Z" fill="white"/>
<path d="M135.246 32.7089H134.218V21.9655H135.246C137.26 21.9655 139.466 22.4177 140.439 23.3221C141.549 24.3499 142.083 25.6654 142.083 27.3372C142.083 28.9953 141.549 30.2971 140.439 31.3112C139.891 31.8045 139.288 32.1608 138.644 32.38C137.931 32.5856 136.342 32.7089 135.246 32.7089ZM134.259 17.416H129.504V37.2584H134.218C137.753 37.2584 146.825 36.9021 146.825 27.3372C146.811 24.3225 145.523 17.416 134.259 17.416ZM177.657 21.6229C182.056 21.6229 183.878 24.3773 183.878 24.3773V18.7863L183.344 18.4985C181.59 17.553 179.754 17.0597 177.862 17.0597C174.423 17.0597 171.573 18.2793 169.408 20.6774C167.64 22.6369 166.749 24.898 166.749 27.4057C166.749 30.2012 167.818 32.6267 169.942 34.6137C172.052 36.5732 174.656 37.5736 177.643 37.5736C179.63 37.5736 181.549 37.094 183.344 36.1347L183.892 35.847V30.5575C183.892 30.5575 181.069 33.0241 177.684 33.0241C176.026 33.0241 174.656 32.4896 173.505 31.4071C172.354 30.3108 171.792 28.9953 171.792 27.3783C171.792 25.7476 172.354 24.4047 173.505 23.281C174.642 22.1573 175.999 21.6229 177.657 21.6229Z" fill="white"/>
<path d="M194.654 21.6233C199.052 21.6233 200.875 24.3776 200.875 24.3776V18.7867L200.341 18.4989C198.587 17.5534 196.75 17.0601 194.859 17.0601C191.42 17.0601 188.583 18.2797 186.404 20.6777C184.65 22.6373 183.76 24.8984 183.76 27.4061C183.76 30.2016 184.829 32.627 186.939 34.614C189.063 36.5736 191.653 37.5739 194.64 37.5739C196.627 37.5739 198.545 37.0943 200.341 36.1351L200.889 35.8473V30.5578C200.889 30.5578 198.066 33.0244 194.681 33.0244C193.023 33.0244 191.653 32.49 190.515 31.4074C189.364 30.3112 188.802 28.9957 188.802 27.3787C188.802 25.748 189.364 24.405 190.515 23.2814C191.625 22.1577 192.996 21.6233 194.654 21.6233ZM156.751 28.4612L151.982 17.4164H147.062V37.2588H151.982V28.9271L155.805 37.2588H157.573L161.492 28.9683V37.2588H166.466V17.4164H161.807L156.751 28.4612Z" fill="white"/>
<line x1="115.794" y1="18.5594" x2="115.794" y2="37.5736" stroke="white" stroke-width="0.956113"/>
</svg>
