<svg width="224" height="50" viewBox="0 0 224 50" fill="none" xmlns="http://www.w3.org/2000/svg">
<path d="M135.145 13.3343C136.722 13.3973 137.902 13.7976 138.609 15.0158C138.795 15.3347 138.883 15.8022 138.79 16.1425C138.745 16.3098 138.188 16.3827 137.853 16.4213C137.307 16.4828 136.834 16.407 136.5 15.8394C136.204 15.3375 134.876 15.216 134.441 15.6078C134.269 15.7622 134.097 16.1196 134.168 16.2812C134.285 16.55 134.563 16.8317 134.838 16.9361C135.692 17.2578 136.597 17.4479 137.445 17.7797C138.548 18.2115 139.255 19.361 139.142 20.3662C139.01 21.5358 138.088 22.5681 136.959 22.8641C135.521 23.2416 134.132 23.1915 132.825 22.4409C132.1 22.0234 131.677 21.38 131.541 20.5507C131.464 20.0774 131.606 19.7929 132.117 19.7886C132.846 19.7814 133.577 19.6127 133.997 20.5578C134.291 21.2212 135.857 21.2656 136.42 20.748C136.824 20.3776 136.79 19.7857 136.282 19.5812C135.529 19.2767 134.74 19.0551 133.956 18.8263C132.538 18.4116 131.698 17.5252 131.682 16.3899C131.663 15.1102 132.477 14.0778 133.888 13.636C134.365 13.4873 134.863 13.4001 135.143 13.3343H135.145Z" fill="white"/>
<path d="M102.036 18.2181C102.036 19.4792 102.016 20.7417 102.045 22.0029C102.058 22.6091 101.833 22.8994 101.206 22.8593C101.013 22.8464 100.818 22.845 100.627 22.8579C100.025 22.8965 99.8127 22.6062 99.833 22.0386C99.8591 21.3022 99.8214 20.563 99.8446 19.8252C99.8591 19.3548 99.7169 19.116 99.1944 19.1318C98.3729 19.1561 97.5515 19.1475 96.73 19.1289C96.2874 19.1189 96.1248 19.3134 96.1306 19.728C96.1394 20.513 96.1176 21.2994 96.1335 22.0844C96.1452 22.6348 95.8839 22.8708 95.344 22.8522C95.1031 22.845 94.8607 22.845 94.6198 22.8493C94.1728 22.8565 93.9464 22.6491 93.9464 22.2045C93.9493 19.5621 93.9362 16.9198 93.9595 14.2789C93.9667 13.3524 94.7432 13.6412 95.2628 13.5826C95.7664 13.5254 96.1205 13.7199 96.1248 14.2847C96.1306 15.0696 96.1365 15.856 96.1306 16.641C96.1263 17.14 96.3222 17.3774 96.8694 17.3516C97.6168 17.3159 98.3671 17.3202 99.116 17.3473C99.6443 17.3674 99.8649 17.1658 99.8504 16.6439C99.8301 15.8832 99.8649 15.1197 99.8417 14.359C99.8156 13.514 100.416 13.554 100.978 13.5483C101.538 13.5426 102.058 13.5826 102.043 14.3619C102.02 15.6473 102.038 16.9327 102.038 18.2181H102.042H102.036Z" fill="white"/>
<path d="M112.907 22.3212C112.907 23.1505 112.916 23.8353 112.905 24.5202C112.89 25.3438 112.729 25.4825 111.845 25.4882C110.924 25.4925 110.7 25.3181 110.699 24.5202C110.691 22.0223 110.69 19.5244 110.704 17.0265C110.707 16.579 110.542 16.0256 111.189 15.824C111.944 15.5896 112.6 15.8126 112.951 16.3817C113.433 16.1758 113.894 15.8669 114.392 15.7869C115.756 15.5667 116.906 16.2759 117.408 17.5741C118.005 19.1155 117.929 20.6111 116.935 21.978C116.169 23.0304 114.614 23.2934 113.497 22.6214C113.359 22.5385 113.208 22.4742 112.907 22.3226V22.3212ZM115.591 19.3857C115.46 18.9668 115.434 18.5164 115.201 18.2276C114.95 17.9173 114.51 17.5956 114.144 17.5856C113.815 17.577 113.356 17.913 113.163 18.2233C112.669 19.0111 112.754 19.8633 113.221 20.6554C113.635 21.356 114.752 21.3589 115.135 20.6483C115.344 20.2622 115.44 19.8161 115.591 19.3857Z" fill="white"/>
<path d="M170.433 16.4169C170.433 15.712 170.426 15.1215 170.434 14.531C170.447 13.6459 170.591 13.5144 171.513 13.5144C172.459 13.5144 172.636 13.6731 172.637 14.5753C172.642 16.9817 172.642 19.3895 172.63 21.7959C172.629 22.1791 172.767 22.7324 172.209 22.7968C171.616 22.8654 170.899 23.1857 170.445 22.4422C170.424 22.4079 170.368 22.3936 170.356 22.5265C169.645 22.6753 168.931 22.9612 168.225 22.9426C166.953 22.9083 165.953 21.9189 165.686 20.4862C165.455 19.2523 165.477 18.0126 166.279 16.9245C167.217 15.652 168.58 15.3817 169.954 16.1939C170.056 16.2539 170.167 16.2939 170.434 16.4183L170.433 16.4169ZM170.562 19.4167C170.449 19.0221 170.373 18.6746 170.25 18.3443C170.07 17.8625 169.749 17.5479 169.179 17.5422C168.612 17.5365 168.301 17.8439 168.076 18.31C167.69 19.1093 167.767 19.8857 168.188 20.6363C168.585 21.3484 169.706 21.3755 170.106 20.6621C170.323 20.2774 170.417 19.8256 170.562 19.4167Z" fill="white"/>
<path d="M153.737 20.1C153.737 20.8149 153.731 21.5284 153.737 22.2433C153.742 22.6851 153.519 22.9496 153.088 22.9182C152.556 22.8781 152.03 22.7352 151.498 22.6708C151.334 22.6508 151.144 22.7108 150.985 22.7809C150.18 23.1384 149.377 23.2342 148.527 22.9082C147.698 22.5907 147.134 21.8601 147.083 20.9464C147.038 20.1171 147.54 19.2607 148.35 18.9647C148.93 18.7531 149.554 18.6602 150.163 18.5258C150.419 18.4686 150.704 18.4871 150.938 18.3856C151.102 18.3141 151.319 18.0739 151.296 17.9495C151.266 17.7937 151 17.5549 150.859 17.5706C150.453 17.615 150.004 17.6836 149.673 17.8966C149.16 18.2269 148.186 18.3785 147.723 17.9867C147.572 17.8595 147.488 17.4005 147.592 17.2804C148.023 16.7899 148.47 16.2337 149.039 15.9549C150.261 15.3587 152.749 15.4559 153.521 17.2089C153.641 17.4834 153.713 17.798 153.726 18.0982C153.756 18.7631 153.734 19.4308 153.734 20.0986L153.737 20.1ZM150.009 21.3725C150.788 21.3539 151.424 20.8363 151.37 20.3774C151.354 20.2473 151.07 20.0528 150.907 20.0514C150.058 20.0471 149.376 20.4403 149.508 20.8449C149.589 21.0951 149.907 21.2696 150.01 21.3711L150.009 21.3725Z" fill="white"/>
<path d="M158.046 19.3547C157.933 17.3944 159.139 16.282 160.347 15.8516C161.715 15.364 163.313 15.8244 164.21 16.9411C164.794 17.6675 164.981 18.5096 164.911 19.4219C164.875 19.9037 164.557 19.9895 164.157 19.9909C163.093 19.9938 162.029 19.9909 160.965 20.0109C160.768 20.0152 160.572 20.1153 160.376 20.1725C160.454 20.4099 160.472 20.7001 160.624 20.8746C161.104 21.425 161.969 21.4808 162.582 20.9403C163.174 20.417 163.814 20.5957 164.431 20.6987C164.911 20.7788 164.791 21.1705 164.63 21.4965C164.085 22.5946 162.506 23.2824 161.078 23.0407C159.025 22.6947 158.038 21.4937 158.048 19.3547H158.046ZM161.547 18.5139V18.5182C161.739 18.5182 161.936 18.5482 162.119 18.5096C162.303 18.471 162.473 18.3624 162.649 18.2851C162.556 18.1064 162.485 17.7919 162.366 17.7733C161.856 17.6932 161.326 17.6517 160.817 17.7046C160.668 17.7204 160.556 18.0936 160.428 18.3023C160.634 18.3724 160.836 18.4639 161.049 18.5068C161.209 18.5397 161.382 18.5139 161.55 18.5139H161.547Z" fill="white"/>
<path d="M122.942 19.9996C122.361 19.9996 121.781 19.9925 121.202 20.0025C120.731 20.011 120.685 20.2555 120.874 20.6187C121.229 21.3065 122.218 21.5839 122.863 21.0548C123.396 20.6173 123.942 20.5844 124.55 20.6302C125.244 20.6816 125.432 21.0534 125.035 21.6282C124.553 22.3231 123.907 22.7677 123.048 22.9465C121.614 23.2439 120.315 23.0208 119.353 21.8984C118.376 20.7588 118.25 19.4234 118.71 17.9993C119.531 15.4599 122.795 15.1325 124.35 16.5795C125.177 17.3487 125.355 18.3367 125.396 19.3748C125.413 19.8237 125.112 19.9967 124.685 19.9939C124.104 19.991 123.524 19.9939 122.945 19.9939V20.001L122.942 19.9996ZM123.11 18.4726C123.058 17.6418 122.572 17.4946 121.968 17.4974C121.347 17.5017 120.949 17.7662 120.818 18.4726H123.11Z" fill="white"/>
<path d="M106.454 20.2485C106.723 19.3777 106.994 18.5069 107.258 17.6333C107.328 17.406 107.36 17.1672 107.435 16.9413C107.811 15.8231 108.238 15.5901 109.425 15.8031C109.953 15.8989 109.953 16.2564 109.828 16.611C109 18.9673 108.18 21.3294 107.296 23.6657C106.81 24.9526 105.647 25.6389 104.351 25.5417C103.936 25.5102 103.43 25.4587 103.456 24.9297C103.482 24.4178 103.483 23.8001 104.244 23.6614C105.225 23.4827 105.353 23.201 105.026 22.296C104.348 20.4157 103.694 18.5269 103.041 16.6367C102.82 15.999 102.955 15.8317 103.65 15.8003C104.948 15.7388 105.055 15.8403 105.379 17.0757C105.654 18.128 105.982 19.1675 106.287 20.2127C106.342 20.2241 106.398 20.2356 106.453 20.247L106.454 20.2485Z" fill="white"/>
<path d="M96.3219 34.026C96.5294 33.2639 96.7369 32.5018 96.9459 31.7411C97.1912 30.846 97.4452 29.9524 97.6774 29.053C97.7848 28.6384 97.9633 28.3853 98.4553 28.371C98.9821 28.3553 99.1969 28.6327 99.3116 29.0631C99.686 30.4657 100.05 31.8712 100.432 33.2739C100.509 33.5541 100.637 33.8215 100.74 34.0946C100.802 34.0875 100.865 34.0803 100.925 34.0746C101.111 33.3554 101.294 32.6362 101.484 31.9184C101.747 30.929 102.028 29.9438 102.275 28.9501C102.393 28.4797 102.679 28.3081 103.123 28.4082C103.673 28.5326 103.489 28.9172 103.393 29.2632C102.796 31.4451 102.226 33.6356 101.583 35.8032C101.493 36.1078 101.087 36.461 100.77 36.5282C100.235 36.6425 100.06 36.135 99.9415 35.7175C99.5148 34.229 99.107 32.7348 98.689 31.245C98.6512 31.112 98.5946 30.9833 98.3987 30.8303C98.1012 31.8584 97.8008 32.885 97.5091 33.9159C97.3276 34.5579 97.2217 35.227 96.9663 35.8376C96.8429 36.1321 96.4568 36.4967 96.1825 36.5024C95.9155 36.5081 95.4757 36.1421 95.393 35.859C94.7501 33.6642 94.1739 31.4523 93.5847 29.2432C93.5019 28.9329 93.3263 28.5555 93.827 28.4225C94.2769 28.3038 94.56 28.484 94.6804 28.9487C95.0563 30.3999 95.4511 31.8469 95.8386 33.2953C95.9024 33.5355 95.9692 33.7743 96.0345 34.0131C96.1303 34.0188 96.2261 34.0245 96.3204 34.0303L96.3219 34.026Z" fill="white"/>
<path d="M143.297 15.6051C144.921 15.6794 145.963 16.34 146.49 17.6912C146.754 18.3675 146.551 18.6649 145.8 18.7049C145.156 18.7392 144.599 18.7092 144.194 18.0401C144.031 17.7698 143.425 17.5639 143.098 17.6411C142.755 17.7226 142.34 18.1416 142.256 18.4847C142.12 19.0424 142.126 19.6829 142.268 20.2391C142.353 20.5723 142.769 20.9226 143.12 21.0641C143.557 21.24 143.996 21.0656 144.3 20.6166C144.651 20.0961 145.779 19.823 146.282 20.1676C146.462 20.2906 146.577 20.7095 146.514 20.9383C146.083 22.4982 144.439 23.4062 142.742 23.0716C140.976 22.7227 140.034 21.719 139.792 19.926C139.549 18.1316 140.275 16.6789 141.838 15.9697C142.285 15.7666 142.808 15.7223 143.295 15.6051H143.297Z" fill="white"/>
<path d="M112.252 30.8799C114.302 29.6316 116.373 30.6554 116.559 32.7601C116.637 33.658 116.675 34.5559 116.16 35.3924C115.385 36.6521 114.057 37.0238 112.746 36.3332C112.575 36.2431 112.256 36.2917 112.067 36.3904C111.466 36.7078 111.032 36.542 111.025 35.88C111.002 33.5951 111.021 31.3088 111.022 29.024C111.022 28.6336 111.175 28.3777 111.609 28.3705C112.074 28.3634 112.249 28.635 112.252 29.0525C112.254 29.6102 112.252 30.1664 112.252 30.877V30.8799ZM112.269 33.445C112.282 34.759 112.805 35.4853 113.761 35.5168C114.714 35.5482 115.305 34.8591 115.385 33.6237C115.463 32.4098 114.918 31.5004 114.05 31.4003C112.905 31.2688 112.254 32.0151 112.269 33.4435V33.445Z" fill="white"/>
<path d="M138.442 33.9446C137.934 33.9446 137.428 33.9374 136.921 33.9475C136.468 33.956 136.394 34.1862 136.565 34.5623C136.957 35.4187 138.359 35.7276 139.102 35.1128C139.213 35.0213 139.313 34.8382 139.419 34.8368C139.745 34.8325 140.108 34.8282 140.381 34.9698C140.474 35.0184 140.44 35.566 140.294 35.7619C139.15 37.2832 136.333 36.973 135.46 35.2257C134.802 33.9117 134.849 32.5991 135.711 31.3695C136.483 30.2685 137.734 29.9254 139.121 30.4344C140.327 30.8762 140.803 32.143 140.779 33.2697C140.774 33.4942 140.371 33.8517 140.104 33.9017C139.567 34.0018 138.999 33.9317 138.443 33.9317C138.443 33.9374 138.443 33.9417 138.443 33.9475L138.442 33.9446ZM136.419 32.7922C137.314 32.7922 138.056 32.7893 138.799 32.7922C139.351 32.795 139.414 32.5419 139.182 32.1144C138.866 31.531 138.348 31.3466 137.725 31.441C137.039 31.5453 136.668 31.9929 136.419 32.7922Z" fill="white"/>
<path d="M122.368 32.3257C122.607 32.5859 122.937 32.8461 123.14 33.1807C123.916 34.4618 123.209 35.9703 121.593 36.5537C120.223 37.047 118.484 36.4422 117.915 35.2197C117.808 34.9895 117.959 34.6449 117.989 34.3518C118.31 34.419 118.809 34.3818 118.921 34.5691C119.436 35.4356 120.205 35.4928 121.056 35.3798C121.675 35.2983 122.076 34.9609 122.112 34.3117C122.15 33.6383 121.761 33.2408 121.156 33.052C120.863 32.9605 120.506 33.0478 120.233 32.9305C119.996 32.8276 119.69 32.5502 119.689 32.3486C119.687 32.1412 120.003 31.9153 120.211 31.7309C120.281 31.668 120.443 31.7009 120.565 31.6994C121.12 31.6866 121.635 31.4935 121.728 30.9388C121.793 30.5484 121.694 30.0151 121.452 29.7163C121.047 29.2173 120.401 29.2759 119.857 29.5433C119.574 29.6834 119.404 30.0337 119.13 30.2067C118.861 30.3754 118.523 30.4398 118.215 30.5498C118.17 30.231 117.988 29.8464 118.104 29.6033C118.549 28.6782 119.404 28.3179 120.401 28.2393C122.063 28.1077 123.395 29.3803 123.085 30.883C122.98 31.3906 122.613 31.8467 122.365 32.3257H122.368Z" fill="white"/>
<path d="M157.084 18.2254C157.084 19.5108 157.065 20.7976 157.092 22.083C157.105 22.7064 156.836 22.9595 156.23 22.9252C156.158 22.9209 156.085 22.9252 156.013 22.9266C154.841 22.9395 154.775 22.878 154.772 21.7399C154.767 19.3578 154.751 16.9771 154.782 14.5965C154.786 14.2347 154.946 13.6328 155.167 13.5656C155.66 13.4154 156.251 13.4726 156.773 13.5799C156.927 13.6113 157.068 14.0903 157.075 14.3677C157.107 15.6531 157.09 16.9399 157.09 18.2254H157.084Z" fill="white"/>
<path d="M128.485 16.0405C129.298 15.9289 129.912 15.7931 130.526 15.7917C130.695 15.7917 131 16.1834 131.013 16.4079C131.052 17.1371 130.507 17.6519 129.772 17.6919C129.074 17.7305 128.589 18.2138 128.573 18.9516C128.55 19.9725 128.537 20.9962 128.573 22.0171C128.598 22.7106 128.298 22.9751 127.627 22.9193C127.388 22.8993 127.102 22.9808 126.915 22.8793C126.666 22.7435 126.321 22.4761 126.315 22.2588C126.27 20.3113 126.273 18.3611 126.321 16.4136C126.327 16.1992 126.691 15.8417 126.92 15.8145C127.517 15.7459 128.196 15.5815 128.483 16.039L128.485 16.0405Z" fill="white"/>
<path d="M130.953 36.8663C130.571 36.5103 130.208 36.3259 130.099 36.0456C129.35 34.1154 128.655 32.1651 127.941 30.2219C127.826 29.9102 127.674 29.6086 127.584 29.2897C127.493 28.9651 127.268 28.5505 127.792 28.3903C128.256 28.2488 128.662 28.3803 128.847 28.8808C129.136 29.6629 129.421 30.4464 129.697 31.2328C130.019 32.1522 130.32 33.0802 130.651 33.9967C130.696 34.1225 130.861 34.2083 130.97 34.3127C131.053 34.2083 131.169 34.1154 131.211 33.9967C131.793 32.3595 132.362 30.7181 132.945 29.0824C133.015 28.8865 133.114 28.6134 133.27 28.5519C133.556 28.4404 133.905 28.4104 134.208 28.4575C134.286 28.4704 134.395 28.9265 134.327 29.1253C133.874 30.4521 133.379 31.7662 132.892 33.0816C132.536 34.041 132.205 35.0119 131.794 35.947C131.655 36.2644 131.302 36.4932 130.95 36.8649L130.953 36.8663Z" fill="white"/>
<path d="M162.595 33.4929C162.703 31.2109 164.34 29.8655 166.428 30.4002C167.625 30.7076 168.594 32.3062 168.207 33.4415C168.141 33.6373 167.745 33.8261 167.492 33.8389C166.552 33.8876 165.608 33.8547 164.665 33.8675C164.061 33.8761 163.901 34.1478 164.16 34.6825C164.597 35.5833 166 35.835 166.776 35.1501C166.884 35.0557 166.98 34.8713 167.084 34.8698C167.373 34.8641 167.679 34.8942 167.939 35.0043C167.997 35.0286 167.964 35.4861 167.845 35.6577C166.762 37.2205 163.977 36.9431 163.119 35.1744C162.865 34.6511 162.765 34.0563 162.594 33.4944L162.595 33.4929ZM165.485 32.8252V32.8324C165.775 32.8324 166.064 32.8366 166.354 32.8324C166.994 32.8195 167.142 32.5864 166.823 32.0517C166.491 31.4955 165.933 31.2309 165.347 31.4268C164.89 31.5798 164.517 31.993 164.135 32.3233C164.113 32.3419 164.324 32.7666 164.475 32.8038C164.793 32.8824 165.145 32.8281 165.483 32.8281L165.485 32.8252Z" fill="white"/>
<path d="M141.682 33.417C141.682 32.632 141.681 31.8456 141.682 31.0606C141.684 30.4787 142.073 30.1084 142.549 30.3371C143.197 30.6474 143.673 30.39 144.225 30.2127C145.194 29.9025 146.514 30.6245 146.747 31.594C146.863 32.0787 146.979 32.5762 146.988 33.071C147.007 34.0218 146.962 34.9726 146.921 35.9235C146.903 36.3495 146.683 36.7356 146.216 36.6112C145.968 36.5454 145.663 36.1522 145.643 35.8877C145.569 34.9169 145.614 33.9374 145.596 32.9623C145.579 31.9671 145.135 31.431 144.364 31.4395C143.602 31.4481 143.118 32.0172 143.1 32.9594C143.083 33.9117 143.103 34.864 143.081 35.8162C143.071 36.2294 143.013 36.6713 142.425 36.6455C141.875 36.6226 141.686 36.2538 141.679 35.7733C141.669 34.9884 141.676 34.202 141.676 33.417C141.678 33.417 141.679 33.417 141.681 33.417H141.682Z" fill="white"/>
<path d="M107.484 33.865C106.978 33.865 106.47 33.8679 105.963 33.865C105.455 33.8622 105.313 34.0709 105.521 34.5385C105.976 35.558 107.32 35.8682 108.187 35.1419C108.242 35.0961 108.288 35.0404 108.34 34.9903C108.671 34.6643 109.085 34.6214 109.342 34.9703C109.462 35.1347 109.353 35.6094 109.185 35.8082C108.29 36.8662 106.426 36.9849 105.307 36.1027C103.73 34.8588 103.798 31.9348 105.432 30.7652C106.233 30.1904 107.576 30.1132 108.385 30.6036C109.396 31.217 109.751 32.1793 109.724 33.2774C109.719 33.4776 109.327 33.7935 109.076 33.8364C108.561 33.9237 108.018 33.8622 107.487 33.8622V33.865H107.484ZM105.491 32.8184C106.358 32.8184 107.217 32.8356 108.075 32.8113C108.523 32.7984 108.48 32.4895 108.353 32.1979C108.092 31.5945 107.423 31.2856 106.663 31.4015C106.011 31.5015 105.581 31.9891 105.493 32.8184H105.491Z" fill="white"/>
<path d="M155.761 36.1879C154.404 36.9743 153.27 36.8085 152.576 35.5988C152.407 35.3014 152.311 34.9268 152.299 34.5851C152.261 33.4183 152.279 32.2502 152.272 31.082C152.269 30.6488 152.377 30.3199 152.91 30.3342C153.406 30.3471 153.584 30.6316 153.584 31.0791C153.584 32.0557 153.57 33.0337 153.594 34.0103C153.617 34.9983 153.938 35.3686 154.697 35.3643C155.54 35.36 156.03 34.8525 156.045 33.9359C156.06 33.0066 156.058 32.0772 156.048 31.1478C156.044 30.6831 156.151 30.3356 156.714 30.3457C157.276 30.3557 157.37 30.7174 157.369 31.1721C157.361 32.6491 157.39 34.1275 157.342 35.6045C157.332 35.9291 157.142 36.4052 156.895 36.5196C156.665 36.6269 156.248 36.3466 155.761 36.1879Z" fill="white"/>
<path d="M171.753 36.6665C170.771 36.6608 170.049 36.412 169.572 35.74C169.433 35.5441 169.377 35.1109 169.501 34.9493C169.756 34.619 170.109 34.6991 170.431 35.0022C171.147 35.6785 171.715 35.8072 172.357 35.4126C172.573 35.2796 172.826 34.9822 172.816 34.772C172.805 34.5647 172.521 34.2945 172.292 34.1901C171.903 34.0128 171.466 33.9327 171.044 33.8326C170.004 33.5853 169.35 32.8804 169.39 32.0368C169.431 31.196 170.138 30.5197 171.17 30.3481C172.102 30.1937 172.975 30.2938 173.579 31.0988C173.723 31.2904 173.665 31.6293 173.701 31.8995C173.403 31.8781 173.093 31.8995 172.811 31.8237C172.371 31.705 171.952 31.4091 171.521 31.4019C171.234 31.3976 170.942 31.768 170.652 31.971C170.88 32.2369 171.058 32.5973 171.348 32.7474C171.743 32.9519 172.237 32.959 172.662 33.1191C173.755 33.5281 174.096 33.9799 174.052 34.8578C174.013 35.6499 173.483 36.2462 172.517 36.5393C172.221 36.6294 171.901 36.6422 171.755 36.6651L171.753 36.6665Z" fill="white"/>
<path d="M150.747 36.6737C149.509 36.6809 148.689 35.9388 148.649 34.9436C148.613 34.04 148.632 33.1349 148.632 32.2298C148.632 31.8395 148.652 31.4692 148.111 31.3648C147.972 31.3376 147.799 31.0588 147.793 30.8901C147.787 30.7228 147.943 30.434 148.08 30.3982C148.529 30.2838 148.645 30.0179 148.636 29.6133C148.625 29.1457 148.809 28.8211 149.343 28.8211C149.861 28.8211 149.995 29.1586 149.992 29.5818C149.989 30.0565 150.137 30.331 150.693 30.3611C150.887 30.3711 151.066 30.6785 151.253 30.8501C151.054 31.0402 150.864 31.3791 150.657 31.3905C150.083 31.4206 149.979 31.6965 149.992 32.1726C150.012 32.9333 150.003 33.6954 149.998 34.4575C149.993 34.9565 150.115 35.2939 150.706 35.4341C150.938 35.4884 151.201 35.9259 151.214 36.199C151.223 36.3892 150.829 36.5979 150.748 36.6737H150.747Z" fill="white"/>
<path d="M158.677 33.4574C158.677 32.6967 158.658 31.936 158.682 31.1768C158.706 30.4104 159.14 30.1773 159.832 30.4948C159.985 30.5648 160.198 30.5362 160.378 30.5105C160.822 30.4447 161.262 30.2974 161.703 30.3003C161.882 30.3017 162.237 30.6821 162.202 30.7664C162.101 31.0138 161.876 31.3326 161.644 31.387C160.057 31.7573 159.972 31.8359 159.967 33.4717C159.966 34.2323 159.967 34.9916 159.963 35.7522C159.96 36.1497 159.927 36.5558 159.382 36.5586C158.843 36.5615 158.709 36.1783 158.69 35.7394C158.674 35.3605 158.682 34.9787 158.68 34.5998C158.68 34.2195 158.68 33.8391 158.68 33.4588L158.677 33.4574Z" fill="white"/>
<path d="M50.3304 15.9055C51.7469 16.7205 53.0763 17.4397 54.3462 18.2504C54.6118 18.4191 54.7801 18.9196 54.786 19.2699C54.8106 21.0085 54.786 22.7486 54.7352 24.4873C54.7134 25.2365 54.9717 25.7441 55.6437 26.1216C57.4259 27.121 59.182 28.1677 60.957 29.18C61.9004 29.7176 62.4939 29.3902 62.523 28.2935C62.5607 26.8408 62.5404 25.3867 62.5534 23.9325C62.5607 23.1147 62.6797 23.0603 63.4112 23.4836C64.4315 24.0741 65.4503 24.666 66.4764 25.2422C66.9597 25.5139 67.2006 25.8656 67.1948 26.4462C67.1353 32.3785 67.1005 38.3123 67.0526 44.246C67.0468 44.9724 66.8842 45.0553 66.2398 44.6836C65.2181 44.0959 64.2138 43.4797 63.1804 42.9134C62.5839 42.5874 62.3328 42.1642 62.359 41.4736C62.4199 39.8079 62.3894 38.1378 62.4359 36.4707C62.4562 35.7286 62.2153 35.2196 61.5317 34.8378C59.7901 33.8641 58.0848 32.826 56.3563 31.828C55.2388 31.1832 54.7018 31.4949 54.6858 32.7917C54.6684 34.1744 54.6815 35.5556 54.6553 36.9382C54.651 37.1999 54.5262 37.4601 54.458 37.7203C54.2228 37.6345 53.9718 37.5802 53.757 37.4601C52.7512 36.8953 51.7643 36.2948 50.7527 35.7414C50.1925 35.4355 49.9327 35.0594 49.9458 34.3845C50.0503 28.4994 50.1156 22.6142 50.1998 16.7305C50.2027 16.4874 50.2767 16.2458 50.3333 15.9084L50.3304 15.9055Z" fill="white"/>
<path d="M72.7864 7.51733C71.9084 8.02921 71.2205 8.44243 70.5224 8.83563C69.7256 9.28316 68.9114 9.70067 68.119 10.1554C67.1031 10.7387 67.0624 11.3664 68.0566 11.9541C69.9389 13.0693 71.8402 14.156 73.769 15.1898C74.0781 15.3556 74.6456 15.3213 74.9707 15.1512C76.6107 14.2918 78.2173 13.3696 79.8196 12.4445C80.3174 12.1571 80.7426 12.1628 81.2361 12.4588C82.2665 13.0779 83.326 13.6484 84.3651 14.2532C84.5785 14.3776 84.7555 14.5606 85.04 14.788C83.6598 15.5672 82.3928 16.2879 81.12 16.9985C77.0679 19.2619 73.0027 21.5053 68.9666 23.7973C68.2438 24.2077 67.6836 24.2191 66.9884 23.7687C65.8854 23.0524 64.7243 22.4232 63.4834 21.6969C63.7302 21.491 63.9 21.2994 64.1104 21.1822C65.3716 20.4801 66.643 19.7981 67.9085 19.1046C69.0333 18.4884 69.0609 17.8407 67.9463 17.1815C66.0842 16.0791 64.2106 14.9939 62.3108 13.9558C62.0437 13.81 61.5416 13.8543 61.2542 14.0073C59.5533 14.9067 57.8915 15.8775 56.1934 16.784C55.9119 16.9341 55.4402 17.0328 55.1935 16.9013C53.9192 16.2278 52.6885 15.4714 51.4418 14.7437C51.317 14.6707 51.1907 14.6021 50.9062 14.4434C52.0078 13.8271 52.9004 13.3253 53.7958 12.8291C58.3806 10.2855 62.9697 7.74753 67.5457 5.18815C67.9826 4.94365 68.312 4.93078 68.7416 5.18815C69.997 5.94023 71.2756 6.65372 72.7835 7.51733H72.7864Z" fill="white"/>
<path d="M68.643 44.9971C68.614 44.6982 68.5675 44.4466 68.5704 44.1949C68.6343 38.3112 68.7098 32.4289 68.7649 26.5452C68.7707 25.9246 69.0058 25.5243 69.5617 25.2312C70.791 24.582 71.9985 23.8943 73.3308 23.1565C73.3714 23.5411 73.4251 23.8099 73.4251 24.0787C73.4251 25.5086 73.4019 26.937 73.4048 28.3668C73.4063 29.5221 73.8808 29.8552 74.8852 29.319C76.814 28.2881 78.7051 27.1872 80.6164 26.1234C81.1549 25.8231 81.2753 25.347 81.2768 24.7922C81.2797 23.0293 81.3073 21.2663 81.287 19.5047C81.2797 18.9071 81.4974 18.5353 82.0344 18.2508C83.1389 17.666 84.2157 17.0311 85.2999 16.4092C85.7309 16.1618 85.9312 16.2905 85.9501 16.7609C85.9559 16.9268 85.9515 17.0941 85.9501 17.2613C85.9036 23.0021 85.8383 28.7428 85.8311 34.4836C85.8311 35.3543 85.5045 35.8305 84.7527 36.2108C83.6221 36.7827 82.5395 37.4447 81.2928 38.1482C81.2318 37.745 81.1534 37.4619 81.1534 37.1788C81.1534 35.7733 81.1868 34.3678 81.1839 32.9622C81.1825 31.7011 80.6818 31.4123 79.5642 32.0228C77.7704 33.0037 75.9867 34.0003 74.1943 34.9826C73.6153 35.3 73.3264 35.7504 73.3293 36.4253C73.3366 38.1639 73.3424 39.904 73.2626 41.6413C73.2437 42.0516 72.997 42.605 72.669 42.8209C71.5311 43.5758 70.3135 44.2149 69.1205 44.8884C69.0058 44.9527 68.8535 44.9527 68.6401 44.9999L68.643 44.9971Z" fill="white"/>
<path d="M66.422 18.1083C65.3379 18.7317 64.4119 19.2636 63.486 19.7969C63.0492 20.0486 62.6384 20.3688 62.1696 20.5376C61.1174 20.9179 60.907 21.6571 60.9621 22.6637C61.0304 23.8977 60.9694 25.1387 60.9476 26.3755C60.9433 26.6215 60.8577 26.8674 60.8083 27.1133C60.5703 27.0375 60.3105 26.9975 60.0972 26.8803C59.1074 26.3355 58.1451 25.7421 57.1423 25.2231C56.627 24.9572 56.36 24.5897 56.3614 24.0464C56.3614 22.3806 56.3556 20.7134 56.4253 19.0491C56.4384 18.7388 56.7141 18.3285 56.9913 18.1598C58.3048 17.3634 59.6356 16.5855 61.0158 15.9121C61.4266 15.7119 62.1043 15.699 62.5122 15.8978C63.7821 16.5169 64.9823 17.2776 66.4235 18.1054L66.422 18.1083Z" fill="white"/>
<path d="M79.6669 19.8444C79.6669 20.2848 79.6727 20.7266 79.6669 21.167C79.6494 22.1893 79.6669 23.2145 79.5812 24.2311C79.5537 24.5628 79.3272 24.9961 79.0529 25.1691C77.9383 25.874 76.7729 26.4988 75.622 27.1451C75.2664 27.3439 75.0545 27.2094 75.0531 26.8205C75.0531 25.4651 75.0458 24.1096 75.0966 22.7555C75.1068 22.4882 75.2911 22.1178 75.5132 21.9834C76.799 21.2013 78.1197 20.475 79.4288 19.7286C79.5087 19.7672 79.5885 19.8058 79.6683 19.8444H79.6669Z" fill="white"/>
<path d="M56.213 37.6773C56.213 36.5048 56.2 35.3066 56.2392 34.1084C56.2421 34.0198 56.6891 33.8167 56.811 33.8825C57.7384 34.3787 58.644 34.9134 59.5308 35.4768C59.6454 35.5497 59.6904 35.9958 59.6294 36.0301C58.5729 36.6249 57.4931 37.1825 56.4177 37.743C56.3886 37.7573 56.3306 37.7173 56.2116 37.6773H56.213Z" fill="white"/>
<path d="M79.5001 38.1051C78.252 37.3802 77.1243 36.7268 75.8457 35.9847C76.9574 35.0353 78.2143 34.522 79.5001 33.7928V38.1051Z" fill="white"/>
<path d="M69.6987 11.1235C70.9875 10.3871 72.1181 9.73943 73.4794 8.96018C73.507 10.4243 73.5041 11.7054 73.4156 13.2211C72.1152 12.4861 70.9904 11.8527 69.6973 11.1221L69.6987 11.1235Z" fill="white"/>
</svg>
