<svg width="228" height="72" viewBox="0 0 228 72" fill="none" xmlns="http://www.w3.org/2000/svg">
<path d="M35.7507 0C16.0038 0 0 15.9778 0 35.6926C0 55.4074 16.0038 71.3852 35.7507 71.3852C55.4976 71.3852 71.5014 55.4049 71.5014 35.6926C71.5014 15.9803 55.4951 0 35.7507 0ZM56.9269 59.1722C54.418 61.6745 50.3556 61.6745 47.8492 59.1722L37.4892 48.8291C34.9828 46.3293 34.9828 42.271 37.4892 39.7661C38.7437 38.5137 40.3859 37.8888 42.0255 37.8888C43.6652 37.8888 45.315 38.5137 46.5669 39.7661L56.9244 50.1093C59.4308 52.6091 59.4308 56.6674 56.9244 59.1722H56.9269Z" fill="#F1F1F1"/>
<path d="M56.9196 59.1717C54.4107 61.674 50.3482 61.674 47.8419 59.1717L37.4818 48.8285C34.9755 46.3287 34.9755 42.2704 37.4818 39.7655C38.7363 38.5131 40.3785 37.8882 42.0181 37.8882C43.6578 37.8882 45.3076 38.5131 46.5595 39.7655L56.917 50.1087C59.4234 52.6085 59.4234 56.6668 56.917 59.1717H56.9196Z" fill="#1D0C39"/>
<path d="M55.1529 57.3527C53.5031 58.9998 50.8294 58.9998 49.1771 57.3527C47.5298 55.7056 47.5298 53.0363 49.1771 51.3891C50.8269 49.742 53.5005 49.742 55.1529 51.3891C56.8001 53.0337 56.8001 55.703 55.1529 57.3527Z" fill="#CD202F"/>
<path d="M55.1529 57.3527C53.5031 58.9998 50.8294 58.9998 49.1771 57.3527C47.5298 55.7056 47.5298 53.0363 49.1771 51.3891C50.8269 49.742 53.5005 49.742 55.1529 51.3891C56.8001 53.0337 56.8001 55.703 55.1529 57.3527Z" fill="#942EE1"/>
<path d="M214.713 53.5378C212.257 53.5378 210.015 52.9061 207.986 51.6425C205.975 50.379 204.364 48.6883 203.154 46.5706C201.962 44.435 201.366 42.077 201.366 39.4965C201.366 37.5389 201.713 35.7148 202.407 34.0242C203.101 32.3157 204.053 30.8208 205.263 29.5395C206.491 28.2404 207.915 27.226 209.534 26.4963C211.154 25.7667 212.88 25.4019 214.713 25.4019C216.759 25.4019 218.637 25.829 220.345 26.6832C222.054 27.5196 223.513 28.6853 224.723 30.1802C225.933 31.6573 226.823 33.3657 227.393 35.3055C227.962 37.2275 228.131 39.2741 227.9 41.4452H207.319C207.55 42.6732 207.995 43.7855 208.653 44.782C209.329 45.7608 210.184 46.535 211.216 47.1045C212.266 47.6739 213.431 47.9676 214.713 47.9854C216.065 47.9854 217.293 47.6473 218.397 46.971C219.518 46.2947 220.434 45.3604 221.146 44.1681L226.779 45.4761C225.711 47.843 224.1 49.7828 221.947 51.2955C219.794 52.7904 217.382 53.5378 214.713 53.5378ZM207.132 37.2008H222.294C222.116 35.9195 221.662 34.7627 220.933 33.7305C220.221 32.6805 219.322 31.853 218.236 31.2479C217.169 30.6251 215.994 30.3136 214.713 30.3136C213.449 30.3136 212.275 30.6162 211.189 31.2213C210.121 31.8263 209.232 32.6539 208.52 33.7038C207.826 34.736 207.363 35.9017 207.132 37.2008Z" fill="white"/>
<path d="M192.695 20.0904V26.15H200.223V31.7025H192.695V52.8445H187.143V31.7025H183.966V26.15H187.143V20.0904C187.143 18.6311 187.499 17.3052 188.211 16.1129C188.923 14.9027 189.875 13.9417 191.067 13.2299C192.277 12.518 193.621 12.1621 195.098 12.1621C196.166 12.1621 197.207 12.3757 198.221 12.8028C199.235 13.2299 200.143 13.8884 200.944 14.7782L196.966 18.7023C196.771 18.3819 196.495 18.1417 196.139 17.9815C195.801 17.8035 195.454 17.7146 195.098 17.7146C194.439 17.7146 193.87 17.9459 193.389 18.4086C192.927 18.8713 192.695 19.4319 192.695 20.0904Z" fill="white"/>
<path d="M176.026 26.1493H181.578V52.8438H175.999L175.786 48.9731C175.003 50.3434 173.944 51.4468 172.609 52.2832C171.274 53.1196 169.699 53.5378 167.884 53.5378C165.927 53.5378 164.085 53.173 162.358 52.4434C160.632 51.6959 159.111 50.6637 157.794 49.3468C156.495 48.0299 155.48 46.5172 154.751 44.8087C154.021 43.0825 153.656 41.2317 153.656 39.2563C153.656 37.3521 154.012 35.5636 154.724 33.8907C155.436 32.2 156.423 30.723 157.687 29.4594C158.95 28.1959 160.41 27.2082 162.065 26.4963C163.738 25.7667 165.526 25.4019 167.43 25.4019C169.37 25.4019 171.079 25.8468 172.556 26.7366C174.05 27.6086 175.287 28.7298 176.266 30.1001L176.026 26.1493ZM167.751 48.1722C169.317 48.1722 170.687 47.7896 171.862 47.0244C173.036 46.2413 173.944 45.1914 174.584 43.8744C175.243 42.5575 175.572 41.0982 175.572 39.4965C175.572 37.8771 175.243 36.4089 174.584 35.092C173.926 33.775 173.009 32.7339 171.835 31.9687C170.678 31.1857 169.317 30.7941 167.751 30.7941C166.202 30.7941 164.788 31.1857 163.506 31.9687C162.225 32.7517 161.211 33.8017 160.463 35.1186C159.716 36.4356 159.342 37.8949 159.342 39.4965C159.342 41.116 159.725 42.5842 160.49 43.9011C161.273 45.2003 162.296 46.2413 163.56 47.0244C164.841 47.7896 166.238 48.1722 167.751 48.1722Z" fill="white"/>
<path d="M137.214 53.5382C135.167 53.5382 133.201 53.2179 131.314 52.5772C129.428 51.9365 127.782 51.02 126.376 49.8277C124.97 48.6175 123.965 47.1849 123.359 45.5299L128.565 43.5812C128.867 44.4354 129.446 45.2006 130.3 45.8769C131.172 46.5354 132.204 47.0514 133.397 47.4252C134.607 47.7989 135.879 47.9858 137.214 47.9858C138.637 47.9858 139.972 47.7544 141.218 47.2917C142.481 46.829 143.496 46.1883 144.261 45.3697C145.044 44.5511 145.436 43.5901 145.436 42.4867C145.436 41.3477 145.026 40.4134 144.208 39.6838C143.407 38.9541 142.375 38.3757 141.111 37.9486C139.865 37.5215 138.566 37.2012 137.214 36.9876C134.598 36.5605 132.249 35.9376 130.167 35.119C128.102 34.3004 126.465 33.1525 125.255 31.6754C124.062 30.1983 123.466 28.2763 123.466 25.9094C123.466 23.6849 124.098 21.7451 125.362 20.09C126.643 18.435 128.325 17.1536 130.407 16.246C132.507 15.3206 134.776 14.8579 137.214 14.8579C139.225 14.8579 141.165 15.1782 143.033 15.8189C144.919 16.4418 146.575 17.3583 147.998 18.5684C149.44 19.7608 150.472 21.2112 151.095 22.9196L145.836 24.815C145.533 23.9429 144.955 23.1866 144.101 22.5459C143.247 21.8875 142.214 21.3714 141.004 20.9976C139.812 20.6239 138.548 20.4371 137.214 20.4371C135.79 20.4193 134.455 20.6506 133.21 21.1311C131.982 21.5938 130.976 22.2345 130.193 23.0531C129.41 23.8717 129.019 24.8238 129.019 25.9094C129.019 27.2441 129.383 28.2585 130.113 28.9526C130.843 29.6467 131.822 30.1627 133.049 30.5009C134.295 30.8212 135.683 31.1148 137.214 31.3818C139.67 31.7733 141.939 32.4229 144.021 33.3305C146.121 34.2381 147.802 35.4483 149.066 36.9609C150.347 38.4558 150.988 40.2977 150.988 42.4867C150.988 44.6934 150.347 46.6332 149.066 48.3061C147.802 49.9611 146.121 51.2514 144.021 52.1768C141.939 53.0844 139.67 53.5382 137.214 53.5382Z" fill="white"/>
<path d="M115.453 53.8053L111.182 49.5609C109.687 50.7711 108.014 51.7143 106.164 52.3905C104.313 53.0668 102.355 53.4049 100.291 53.4049C97.746 53.4049 95.3613 52.9066 93.1368 51.91C90.9123 50.8956 88.9547 49.5075 87.264 47.7457C85.5734 45.966 84.2476 43.9017 83.2866 41.5526C82.3434 39.2034 81.8718 36.6942 81.8718 34.0247C81.8718 31.3553 82.3434 28.8549 83.2866 26.5236C84.2476 24.1745 85.5734 22.1101 87.264 20.3305C88.9547 18.5508 90.9123 17.1627 93.1368 16.1661C95.3613 15.1517 97.746 14.6445 100.291 14.6445C102.836 14.6445 105.211 15.1517 107.418 16.1661C109.643 17.1627 111.6 18.5508 113.291 20.3305C114.981 22.1101 116.298 24.1745 117.242 26.5236C118.203 28.8549 118.683 31.3553 118.683 34.0247C118.683 36.1959 118.354 38.2602 117.695 40.2178C117.055 42.1576 116.165 43.9373 115.026 45.5567L119.377 49.8812L115.453 53.8053ZM100.291 47.8525C101.537 47.8525 102.747 47.6478 103.921 47.2385C105.114 46.8292 106.19 46.2508 107.151 45.5033L103.014 41.3924L106.938 37.4416L110.888 41.4191C111.636 40.3513 112.196 39.1857 112.57 37.9221C112.944 36.6586 113.131 35.3594 113.131 34.0247C113.131 32.1205 112.793 30.3409 112.116 28.6858C111.458 27.013 110.532 25.5448 109.34 24.2812C108.166 22.9999 106.804 22.0033 105.256 21.2915C103.708 20.5618 102.053 20.197 100.291 20.197C98.5112 20.197 96.8473 20.5618 95.299 21.2915C93.7507 22.0211 92.3804 23.0266 91.1881 24.3079C90.0135 25.5715 89.0881 27.0397 88.4119 28.7125C87.7534 30.3676 87.4242 32.1383 87.4242 34.0247C87.4242 35.9289 87.7534 37.7175 88.4119 39.3903C89.0881 41.0632 90.0224 42.5403 91.2148 43.8216C92.4071 45.0851 93.7774 46.0728 95.3257 46.7847C96.8739 47.4965 98.529 47.8525 100.291 47.8525Z" fill="white"/>
</svg>
