<svg width="22" height="15" viewBox="0 0 22 15" fill="none" xmlns="http://www.w3.org/2000/svg">
<path fill-rule="evenodd" clip-rule="evenodd" d="M21.4128 7.50473C21.4128 7.18923 21.2874 6.88663 21.0643 6.66353C20.8412 6.44043 20.5386 6.31513 20.2231 6.31513L4.05974 6.31513L8.37424 2.00063C8.58434 1.77513 8.69874 1.47683 8.69334 1.16863C8.68784 0.860431 8.56304 0.566331 8.34504 0.348331C8.12704 0.130431 7.83304 0.00553161 7.52484 0.000131607C7.21664 -0.00526839 6.91834 0.109131 6.69284 0.319231L0.348038 6.66403C0.125238 6.88713 3.8147e-05 7.18953 3.8147e-05 7.50473C3.8147e-05 7.82003 0.125238 8.12233 0.348038 8.34543L6.69284 14.6902C6.91834 14.9004 7.21664 15.0148 7.52484 15.0093C7.83304 15.0039 8.12704 14.879 8.34504 14.6611C8.56304 14.4431 8.68784 14.1491 8.69334 13.8409C8.69874 13.5327 8.58434 13.2344 8.37424 13.0089L4.05974 8.69443L20.2231 8.69443C20.5386 8.69443 20.8412 8.56903 21.0643 8.34593C21.2874 8.12283 21.4128 7.82023 21.4128 7.50473Z" fill="white"/>
</svg>
