<svg width="200" height="50" viewBox="0 0 200 50" fill="none" xmlns="http://www.w3.org/2000/svg">
<path d="M93.4597 14.3662H89.3784L89.3844 34.0967H93.4657L93.4597 14.3662Z" fill="white"/>
<path d="M163.923 14.3667H159.841L159.847 34.0972H163.929L163.923 14.3667Z" fill="white"/>
<path d="M99.9095 19.2979H95.8281L95.8326 34.0968H99.9139L99.9095 19.2979Z" fill="white"/>
<path d="M97.4904 13.3411C101.295 12.7253 100.808 18.4317 97.1021 17.2743C95.1902 16.6777 95.3922 13.6812 97.4904 13.3411Z" fill="white"/>
<path d="M112.37 31.525C111.853 31.4125 112.023 31.61 111.89 31.8047C110.639 33.6466 109.41 34.1156 107.131 33.8605C99.4329 32.9979 100.495 18.476 108.363 19.1027C110.178 19.2467 110.841 20.171 111.875 21.3861C112.008 21.5425 111.868 21.7907 112.367 21.6577L112.367 19.3002H116.127L116.449 19.6225L116.454 34.4214C116.454 35.882 115.465 37.6127 114.313 38.5014C111.202 40.9041 103.309 40.5667 102.492 35.8161L106.207 35.3814C107.229 37.7594 112.374 37.4344 112.373 34.6353L112.372 31.525H112.37ZM107.072 29.9506C107.322 30.2002 108.034 30.5732 108.382 30.6802C113.632 32.2916 113.847 20.8389 108.06 22.6135C105.797 23.3075 105.566 28.4475 107.073 29.952L107.072 29.9506Z" fill="white"/>
<path d="M87.8808 34.0963H83.3702L82.0592 29.6131L74.9072 29.5788L73.4892 34.0963H68.9786L75.7625 14.3521L81.1097 14.5783L87.8808 34.0963ZM75.8484 26.3766H80.7896L78.5301 19.0834C78.0981 18.9943 78.2243 19.248 78.1106 19.5113C77.2088 21.5917 76.838 24.2742 75.8498 26.3766H75.8484Z" fill="white"/>
<path d="M132.352 34.0989H128.271L128.268 24.3399C128.268 24.2028 127.611 23.2154 127.403 23.0576C126.416 22.3047 124.817 22.3843 123.86 23.1564C123.547 23.4087 122.897 24.4565 122.897 24.7692L122.9 34.0989H118.819L118.815 19.3H122.681L122.684 21.8741C124.43 19.2122 127.827 18.089 130.521 20.1598C131.079 20.5891 132.349 22.4391 132.349 23.0549L132.352 34.1003L132.352 34.0989Z" fill="white"/>
<path d="M139.438 34.0981L146.404 14.3525L151.432 14.3964L158.126 34.0981H153.938L152.35 29.722L145.224 29.689L143.628 34.0981H139.439H139.438ZM151.25 26.3785L148.778 18.87L146.311 26.3785H151.252H151.25Z" fill="white"/>
<path d="M41.4759 13.7251H36.9653L36.9717 34.9573H41.4823L41.4759 13.7251Z" fill="white"/>
<path d="M58.0169 13.7261H53.7202L53.7266 34.9583H58.0233L58.0169 13.7261Z" fill="white"/>
<path d="M48.555 13.7304L44.1807 14.2241L46.5255 34.9421L50.8998 34.4484L48.555 13.7304Z" fill="white"/>
</svg>
