<svg width="138" height="41" viewBox="0 0 138 41" fill="none" xmlns="http://www.w3.org/2000/svg">
<path d="M62.144 10.0195H58.0669V29.75H62.144V10.0195Z" fill="white"/>
<path d="M132.531 10.0195H128.454V29.75H132.531V10.0195Z" fill="white"/>
<path d="M68.582 14.9512H64.5049V29.7501H68.582V14.9512Z" fill="white"/>
<path d="M66.1703 8.99194C69.9706 8.37618 69.4829 14.0826 65.7812 12.9252C63.8714 12.3286 64.0742 9.33206 66.1703 8.99194Z" fill="white"/>
<path d="M81.0267 27.1763C80.5102 27.0639 80.6801 27.2614 80.5472 27.4561C79.2964 29.2979 78.0688 29.7669 75.7919 29.5119C68.1021 28.6492 69.168 14.1273 77.0276 14.7541C78.8402 14.8981 79.5019 15.8224 80.5348 17.0375C80.6677 17.1938 80.528 17.4421 81.0267 17.309V14.9516H84.7832L85.1052 15.2739V30.0728C85.1052 31.5333 84.116 33.264 82.9652 34.1527C79.8567 36.5554 71.9724 36.2181 71.1572 31.4675L74.8685 31.0328C75.8892 33.4108 81.028 33.0858 81.028 30.2867V27.1763H81.0267ZM75.7344 25.602C75.9837 25.8516 76.6947 26.2246 77.0427 26.3316C82.2871 27.943 82.5049 16.4903 76.7235 18.2649C74.463 18.9588 74.2301 24.0989 75.7357 25.6033L75.7344 25.602Z" fill="white"/>
<path d="M56.5648 29.7501H52.0589L50.7506 25.2669L43.606 25.2327L42.1881 29.7501H37.6821L44.465 10.0059L49.8066 10.2321L56.5648 29.7501ZM44.5472 22.0304H49.4833L47.2283 14.7372C46.7967 14.6481 46.9228 14.9018 46.8091 15.1651C45.9076 17.2455 45.5363 19.928 44.5486 22.0304H44.5472Z" fill="white"/>
<path d="M100.987 29.7493H96.9098V19.9903C96.9098 19.8532 96.2536 18.8657 96.0467 18.708C95.0603 17.9551 93.4629 18.0347 92.5066 18.8068C92.1943 19.0591 91.5449 20.1069 91.5449 20.4196V29.7493H87.4678V14.9504H91.3298L91.3325 17.5245C93.0779 14.8626 96.4714 13.7394 99.1621 15.8102C99.7197 16.2395 100.987 18.0895 100.987 18.7053V29.7506V29.7493Z" fill="white"/>
<path d="M108.065 29.7495L115.03 10.0039L120.052 10.0478L126.734 29.7495H122.55L120.965 25.3733L113.846 25.3404L112.25 29.7495H108.066H108.065ZM119.867 22.0298L117.4 14.5213L114.933 22.0298H119.869H119.867Z" fill="white"/>
<path d="M10.2134 9.37695H5.70752V30.6092H10.2134V9.37695Z" fill="white"/>
<path d="M26.7375 9.37695H22.4453V30.6092H26.7375V9.37695Z" fill="white"/>
<path d="M17.2855 9.38123L12.9155 9.875L15.2517 30.593L19.6216 30.0993L17.2855 9.38123Z" fill="white"/>
</svg>
