<svg width="139" height="40" viewBox="0 0 139 40" fill="none" xmlns="http://www.w3.org/2000/svg">
<path d="M63.0183 9.36597H58.937L58.943 29.0965H63.0243L63.0183 9.36597Z" fill="white"/>
<path d="M133.481 9.3667H129.4L129.406 29.0972H133.487L133.481 9.3667Z" fill="white"/>
<path d="M69.468 14.2979H65.3867L65.3912 29.0968H69.4725L69.468 14.2979Z" fill="white"/>
<path d="M67.049 8.34107C70.8531 7.7253 70.3666 13.4317 66.6607 12.2743C64.7488 11.6777 64.9508 8.68118 67.049 8.34107Z" fill="white"/>
<path d="M81.9289 26.525C81.4119 26.4125 81.582 26.61 81.449 26.8047C80.1975 28.6466 78.9688 29.1156 76.6895 28.8605C68.9915 27.9979 70.054 13.476 77.922 14.1027C79.7365 14.2467 80.3991 15.171 81.4335 16.3861C81.5666 16.5425 81.4268 16.7907 81.926 16.6577L81.9252 14.3002H85.6857L86.008 14.6225L86.0125 29.4214C86.013 30.882 85.0233 32.6127 83.8716 33.5014C80.7606 35.9041 72.868 35.5667 72.0506 30.8161L75.7656 30.3814C76.788 32.7594 81.9321 32.4344 81.9313 29.6353L81.9303 26.525H81.9289ZM76.6307 24.9506C76.8804 25.2002 77.5922 25.5732 77.9406 25.6802C83.1909 27.2916 83.4055 15.8389 77.6186 17.6135C75.356 18.3075 75.1244 23.4475 76.6321 24.952L76.6307 24.9506Z" fill="white"/>
<path d="M57.4394 29.0963H52.9288L51.6178 24.6131L44.4658 24.5788L43.0478 29.0963H38.5372L45.3211 9.35205L50.6683 9.57833L57.4394 29.0963ZM45.407 21.3766H50.3482L48.0887 14.0834C47.6567 13.9943 47.7829 14.248 47.6692 14.5113C46.7674 16.5917 46.3966 19.2742 45.4084 21.3766H45.407Z" fill="white"/>
<path d="M101.911 29.0989H97.8294L97.8264 19.3399C97.8264 19.2028 97.1692 18.2154 96.962 18.0576C95.9744 17.3047 94.3753 17.3843 93.4183 18.1564C93.1057 18.4087 92.456 19.4565 92.4561 19.7692L92.4589 29.0989H88.3776L88.3731 14.3H92.2391L92.2426 16.8741C93.989 14.2122 97.3857 13.089 100.08 15.1598C100.638 15.5891 101.907 17.4391 101.907 18.0549L101.911 29.1003L101.911 29.0989Z" fill="white"/>
<path d="M108.997 29.0981L115.963 9.35254L120.991 9.39642L127.685 29.0981H123.497L121.909 24.722L114.783 24.689L113.186 29.0981H108.998H108.997ZM120.809 21.3785L118.337 13.87L115.869 21.3785H120.81H120.809Z" fill="white"/>
<path d="M11.0345 8.7251H6.52393L6.53034 29.9573H11.0409L11.0345 8.7251Z" fill="white"/>
<path d="M27.5754 8.72607H23.2788L23.2852 29.9583H27.5819L27.5754 8.72607Z" fill="white"/>
<path d="M18.1136 8.73035L13.7393 9.22412L16.0841 29.9421L20.4584 29.4484L18.1136 8.73035Z" fill="white"/>
</svg>
