<svg width="200" height="50" viewBox="0 0 200 50" fill="none" xmlns="http://www.w3.org/2000/svg">
<path fill-rule="evenodd" clip-rule="evenodd" d="M84.9283 6.67604C84.9283 6.75309 84.9283 6.83014 84.9283 6.90719C84.9283 7.52358 85.1264 7.67768 85.7428 7.58962C86.073 7.53459 86.4143 7.51258 86.7555 7.49056C87.9222 7.3915 87.9663 7.35848 87.9332 6.16971C87.9332 6.11468 87.9332 6.07065 87.9332 6.01561C87.9002 5.67439 87.7351 5.47627 87.3719 5.50929C86.7335 5.56432 86.0951 5.59734 85.4566 5.67439C85.1264 5.71842 84.9173 5.93856 84.9283 6.3018C84.9283 6.42287 84.9283 6.55496 84.9283 6.67604ZM94.1632 21.8438C93.6679 23.2527 93.1836 24.6616 92.6773 26.1256C93.734 26.0375 94.7356 25.9494 95.7813 25.8614C95.264 24.4855 94.7576 23.1536 94.2623 21.8328L94.1632 21.8438ZM71.1915 25.8063C71.6207 25.7733 72.028 25.7623 72.4243 25.7183C72.9856 25.6522 73.547 25.5972 74.0973 25.4761C74.5816 25.3771 74.9339 25.0579 75.066 24.5736C75.3081 23.704 75.077 23.0436 74.1304 22.9995C73.1507 22.9555 72.1711 23.0546 71.1805 23.0876V25.8063H71.1915ZM81.7583 25.1129C82.5067 25.0469 83.2442 25.0138 83.9597 24.9038C84.455 24.8157 84.9613 24.6726 85.4126 24.4415C85.8969 24.1993 86.062 23.5499 85.9079 22.9335C85.7869 22.4602 85.3576 22.0749 84.8292 22.0749C83.8056 22.086 82.7929 22.163 81.7583 22.207V25.1129ZM74.4826 27.2483C73.7341 27.1822 72.9746 27.2593 72.2261 27.2813C71.8849 27.2923 71.5327 27.3363 71.1915 27.3694V30.3853C72.039 30.3193 72.8425 30.2862 73.646 30.1762C74.0863 30.1101 74.5376 29.967 74.9229 29.7689C75.5393 29.4387 75.6603 28.8333 75.5833 28.1949C75.5062 27.6445 75.187 27.3033 74.4826 27.2483ZM125.137 20.534C125.632 20.7321 126.172 20.8201 126.7 20.9302C128.021 21.2164 129.43 21.2824 130.355 22.4932V18.9709C130.333 18.9709 130.322 18.9709 130.299 18.9599C130.233 19.1471 130.167 19.3452 130.079 19.5323C129.771 20.1817 128.803 20.3688 128.45 19.6424C128.362 19.4773 128.285 19.2902 128.164 19.1581C127.911 18.8939 127.669 18.5307 127.339 18.4206C126.469 18.1234 125.61 18.2665 124.895 18.8719C124.279 19.4112 124.389 20.2258 125.137 20.534ZM107.647 18.6407C106.106 18.7728 104.499 18.9159 102.859 19.059C104.411 21.2714 105.93 23.4508 107.449 25.6302C107.482 25.6192 107.504 25.6192 107.537 25.6082V25.212C107.537 23.5169 107.526 21.8218 107.537 20.1267C107.548 19.6424 107.603 19.1581 107.647 18.6407ZM87.592 9.60392C87.559 9.2627 87.3278 9.04256 86.9866 9.07558C86.6124 9.1086 86.2381 9.14162 85.8639 9.20767C85.4236 9.28472 85.3246 9.42781 85.3246 9.86809C85.3246 11.266 85.3246 12.6529 85.3246 14.0508C85.3246 15.4707 85.3246 16.8906 85.3246 18.3105C85.3246 18.6848 85.5007 18.8719 85.8419 18.8609C86.1831 18.8389 86.5133 18.7838 86.8545 18.7618C87.4709 18.7288 87.603 18.3986 87.603 17.8592C87.592 15.1955 87.603 12.5428 87.603 9.8791C87.592 9.78003 87.592 9.69198 87.592 9.60392ZM113.998 26.786C114.724 26.7089 115.418 26.6209 116.122 26.5658C117.366 26.4778 118.06 25.7513 118.401 24.6286C118.753 23.5059 118.764 22.3611 118.478 21.2274C118.192 20.0827 117.465 19.5433 116.287 19.5543C115.66 19.5543 115.022 19.6204 114.394 19.6204C114.053 19.6204 113.965 19.7414 113.976 20.0606C113.987 22.174 113.987 24.2874 113.987 26.4007C113.976 26.5328 113.987 26.6429 113.998 26.786ZM121.516 15.4597C122.716 15.6688 123.871 15.4047 125.005 15.0744C126.194 14.7222 125.952 14.6232 125.963 13.7646C125.974 13.1042 125.787 13.0051 125.126 13.1372C124.268 13.3133 123.398 13.4674 122.528 13.5555C121.901 13.6215 121.483 13.1592 121.483 12.5318C121.483 11.9484 121.483 11.3651 121.483 10.7817C121.483 10.2643 121.527 9.73601 121.472 9.22968C121.395 8.45919 122.022 7.75473 122.936 7.77674C123.739 7.79876 124.554 7.78775 125.357 7.79876C125.776 7.79876 125.952 7.62265 125.963 7.20438C125.963 6.98424 125.952 6.7751 125.963 6.55496C125.985 6.20273 125.831 6.01561 125.489 5.94957C124.301 5.69641 123.09 5.71842 121.923 5.9936C120.327 6.36784 119.237 7.68869 119.204 9.20767C119.171 10.3964 119.182 11.5852 119.204 12.774C119.248 14.1829 120.151 15.2175 121.516 15.4597ZM74.9119 19.103C74.9119 19.6534 75.11 19.8295 75.6603 19.7965C75.9135 19.7745 76.1667 19.7414 76.4088 19.7194C76.9702 19.6864 77.1793 19.4883 77.1793 18.9269C77.1793 16.9897 77.1793 15.0524 77.1793 13.1152C77.1793 12.4437 77.6526 11.8824 78.269 11.8163C78.7313 11.7723 79.1936 11.7173 79.6559 11.6733C80.4044 11.5962 80.8997 12.0365 80.8997 12.785C80.8997 13.0932 80.8997 13.3904 80.8997 13.6986C80.8997 15.3276 80.8997 16.9677 80.8997 18.5967C80.8997 19.125 81.1529 19.3232 81.6702 19.2571C81.8903 19.2241 82.1215 19.2131 82.3526 19.1911C82.969 19.1361 83.2112 18.9159 83.1892 18.3215C83.1562 17.3419 83.1782 16.3733 83.1782 15.3936C83.1782 14.447 83.1782 13.4894 83.1782 12.5428C83.1782 11.1779 82.3857 10.1102 81.0428 9.85708C79.733 9.60392 78.4121 9.725 77.1683 10.1763C75.8915 10.6386 75.0329 11.5742 74.9339 13.0051C74.8678 14.0728 74.9008 15.1515 74.8898 16.2302C74.9008 17.1768 74.9009 18.1344 74.9119 19.103ZM70.531 18.1124C70.531 18.1894 70.3329 18.3215 70.2118 18.3325C69.4854 18.4096 68.7479 18.4646 68.0214 18.5086C67.361 18.5527 66.9317 18.2665 66.8327 17.7161C66.7336 17.1328 67.0858 16.5384 67.6802 16.3733C67.9884 16.2852 68.3296 16.2852 68.6488 16.2412C68.957 16.2082 69.2762 16.1751 69.5954 16.1421C69.8926 16.1201 70.2008 16.1091 70.5531 16.0871C70.542 16.7805 70.5531 17.452 70.531 18.1124ZM72.7875 19.2131C72.7875 17.3529 72.7875 15.4927 72.7875 13.6325C72.7875 13.3463 72.7875 13.0491 72.7214 12.763C72.4243 11.5412 71.3125 10.6386 70.0467 10.6826C69.1221 10.7156 68.1865 10.8477 67.2729 11.0128C66.4364 11.1669 66.3704 11.31 66.3704 12.1576C66.3704 12.2566 66.3704 12.3557 66.3704 12.4658C66.3924 12.906 66.5685 13.0381 66.9978 12.9721C67.7462 12.851 68.4947 12.796 69.2322 12.6419C70.0577 12.4658 70.7512 13.2032 70.476 14.1498C69.8376 14.2049 69.1772 14.2819 68.5277 14.326C67.4711 14.392 66.5024 14.6342 65.6549 15.3276C64.3891 16.3733 64.1249 18.2995 65.1486 19.4883C65.9631 20.4349 67.0638 20.578 68.2196 20.4679C69.4634 20.3578 70.7072 20.2147 71.951 20.1157C72.6444 20.0386 72.7875 19.9176 72.7875 19.2131ZM133.216 12.6199C132.545 12.6859 131.896 12.7409 131.246 12.796C130.971 12.818 130.685 12.884 130.421 12.851C129.881 12.796 129.518 12.3777 129.496 11.8604C129.474 11.3651 129.925 10.7487 130.432 10.6826C131.345 10.5615 132.259 10.4955 133.216 10.4074V12.6199ZM135.473 7.63365C135.462 6.3018 134.449 5.2121 133.128 5.04699C132.072 4.9039 131.048 5.11303 130.024 5.33317C129.056 5.55331 129.056 5.58634 129.067 6.57697C129.067 6.65402 129.067 6.73107 129.067 6.80812C129.089 7.22639 129.309 7.35848 129.727 7.29243C130.553 7.16035 131.389 7.03927 132.226 6.96222C132.435 6.94021 132.688 7.07229 132.864 7.20438C133.271 7.50157 133.249 7.96387 133.205 8.45919C132.589 8.51422 131.995 8.55825 131.4 8.61328C130.597 8.69033 129.793 8.74537 129.067 9.14162C127.757 9.84608 127.096 11.0569 127.251 12.5208C127.394 13.8527 128.814 14.9093 130.366 14.7883C131.863 14.6782 133.359 14.5241 134.856 14.392C135.308 14.348 135.473 14.1719 135.473 13.7096C135.484 11.6843 135.484 9.65896 135.473 7.63365ZM89.6724 17.9143C89.6724 17.9363 89.6834 17.9693 89.6834 17.9913C89.7054 18.3215 89.9035 18.4646 90.2117 18.4426C90.5529 18.4206 90.8941 18.3766 91.2354 18.3546C91.7637 18.3105 91.9178 18.1454 91.9178 17.6171C91.9178 15.7018 91.9178 13.7866 91.9178 11.8824C91.9178 11.0899 92.4021 10.5285 93.1506 10.4625C93.5579 10.4295 93.9541 10.4074 94.3614 10.3854C95.308 10.3304 95.6602 10.6606 95.6602 11.6072C95.6602 13.4344 95.6602 15.2506 95.6602 17.0777C95.6602 17.1988 95.6492 17.3309 95.6712 17.452C95.7152 17.7602 95.8583 17.9363 96.1996 17.9143C96.5298 17.8812 96.849 17.8592 97.1792 17.8372C97.6965 17.8042 97.9167 17.5841 97.9167 17.0557C97.9167 15.1515 97.9167 13.2583 97.9167 11.354C97.9167 10.4845 98.423 9.96715 99.2815 9.92313C99.6228 9.91212 99.964 9.8791 100.305 9.83507C101.241 9.73601 101.681 10.1213 101.681 11.0569C101.681 12.6529 101.681 14.2489 101.681 15.8449C101.681 16.1862 101.681 16.5274 101.692 16.8686C101.703 17.2098 101.879 17.3859 102.22 17.3639C102.617 17.3419 103.002 17.3309 103.387 17.2759C103.772 17.2208 103.916 17.0117 103.916 16.5714C103.916 14.5461 103.905 12.5208 103.916 10.4955C103.927 9.20767 103.013 8.34911 102 8.0189C101.285 7.78775 100.558 7.88682 99.8209 7.93085C98.7202 7.99689 97.6635 8.173 96.849 8.89947C96.3977 8.74537 96.0234 8.52523 95.6492 8.49221C94.9337 8.43717 94.2183 8.44818 93.5028 8.51422C92.9415 8.56926 92.3691 8.65731 91.8518 8.86645C90.5749 9.37277 89.7164 10.2974 89.6834 11.7283C89.6503 13.7866 89.6834 15.8559 89.6724 17.9143ZM111.742 13.3353C112.116 13.3463 112.369 13.6105 112.369 13.9847C112.358 14.414 112.028 14.7222 111.576 14.7112C111.224 14.7002 110.971 14.447 110.971 14.0838C110.982 13.6655 111.323 13.3243 111.742 13.3353ZM114.152 13.1042C114.482 13.1152 114.78 13.4124 114.78 13.7316C114.791 14.1168 114.394 14.5241 114.009 14.5131C113.668 14.5131 113.349 14.1939 113.36 13.8527C113.36 13.4784 113.767 13.0932 114.152 13.1042ZM104.642 8.26106C104.928 8.22804 105.192 8.07394 105.379 7.99689C106.15 8.70134 106.92 9.40579 107.768 10.1763C107.218 10.3634 106.788 10.5065 106.37 10.6496C106.095 10.2313 105.809 10.1102 105.423 10.2203C105.115 10.3084 104.862 10.6496 104.84 10.9798C104.818 11.332 104.972 11.5632 105.28 11.6953C105.655 11.8494 105.963 11.6953 106.403 11.1229C106.755 11.288 107.119 11.4641 107.493 11.6182C107.702 11.6953 107.735 11.8274 107.746 12.0255C107.757 12.3557 107.779 12.6859 107.867 12.9941C108.527 15.5257 110.839 16.9346 113.415 16.4723C116.376 15.944 118.72 12.884 117.994 9.73601C117.432 7.27042 115.242 5.96058 112.996 6.13669C111.995 6.21374 111.059 6.54395 110.234 7.13833C110.068 7.25941 109.947 7.28143 109.771 7.13833C109.485 6.90719 109.177 6.72007 108.891 6.52194C109.078 5.90554 109.012 5.63036 108.671 5.39922C108.384 5.2121 107.988 5.24512 107.691 5.47627C107.416 5.69641 107.284 6.1477 107.416 6.4669C107.57 6.84114 107.845 6.95121 108.516 6.87416C108.594 7.36948 108.671 7.8648 108.759 8.41516C107.746 8.07394 106.81 7.76574 105.886 7.43553C105.798 7.40251 105.71 7.25941 105.677 7.14934C105.534 6.57697 105.159 6.32381 104.587 6.42287C104.092 6.51093 103.739 7.00625 103.794 7.5456C103.816 7.96387 104.191 8.31609 104.642 8.26106ZM129.881 26.1145C128.626 27.6776 125.621 28.0188 124.003 27.3033C123.035 26.874 122.286 25.7843 122.319 24.8487C122.33 24.4084 122.65 24.0122 123.068 23.9131C123.552 23.7921 123.882 23.9351 124.136 24.3974C124.301 24.6946 124.444 25.0028 124.598 25.3C124.807 25.6963 125.159 25.9274 125.577 26.0045C126.381 26.1476 127.162 26.0705 127.856 25.5862C128.362 25.234 128.648 24.7497 128.549 24.1333C128.45 23.5279 127.988 23.2637 127.449 23.1426C126.579 22.9555 125.699 22.8124 124.829 22.6033C124.069 22.4272 123.365 22.108 122.903 21.4255C122.297 20.5229 122.407 19.059 123.189 18.2335C123.596 17.8042 124.103 17.474 124.521 17.1438C122.253 17.3419 119.887 17.551 117.509 17.7712C117.531 17.7932 117.542 17.8042 117.542 17.8152C117.608 17.8372 117.663 17.8482 117.729 17.8592C119.182 18.1674 120.074 19.081 120.514 20.4569C120.999 21.9649 120.976 23.4949 120.503 24.9918C119.964 26.7089 118.83 27.8427 117.014 28.1619C116.166 28.305 115.319 28.382 114.46 28.4591C113.899 28.5141 113.327 28.5361 112.754 28.5361C112.248 28.5361 112.017 28.338 111.918 27.8427C111.874 27.6445 111.852 27.4464 111.852 27.2483C111.852 24.7827 111.852 22.3061 111.841 19.8405C111.841 19.2461 111.83 18.6628 112.402 18.2225C111.334 18.3215 110.333 18.4096 109.386 18.4976C109.441 18.9159 109.529 19.3012 109.529 19.6864C109.54 22.196 109.54 24.7056 109.529 27.2153C109.529 27.5014 109.518 27.7986 109.485 28.0848C109.43 28.5801 109.177 28.9214 108.693 29.0865C108.032 29.3066 107.46 29.0865 106.975 28.393C106.095 27.1492 105.236 25.8834 104.367 24.6396C103.838 23.8801 103.321 23.1206 102.727 22.2731V24.5846C102.727 25.9054 102.727 27.2153 102.727 28.5361C102.727 29.2185 102.264 29.6918 101.648 29.6918C101.065 29.6918 100.767 29.3396 100.745 28.5911C100.745 28.4811 100.745 28.36 100.745 28.2499C100.745 25.7513 100.734 23.2637 100.756 20.7651C100.756 20.2698 100.867 19.7745 100.922 19.2571C99.1274 19.4112 97.2452 19.5763 95.374 19.7414C95.5501 20.0717 95.7262 20.3688 95.8583 20.6881C96.5078 22.229 97.1572 23.77 97.7956 25.311C98.2469 26.4117 98.6982 27.5124 99.1164 28.6352C99.3146 29.1525 98.9733 29.7139 98.423 29.934C97.8836 30.1431 97.4654 29.978 97.1902 29.4057C96.948 28.8883 96.7169 28.349 96.5188 27.8096C96.4307 27.5675 96.3206 27.4794 96.0565 27.5014C94.7466 27.6225 93.4368 27.7216 92.1269 27.8317C92.0939 27.9417 92.0609 28.0408 92.0169 28.1509C91.7637 28.8113 91.5215 29.4607 91.2464 30.1101C91.0813 30.4954 90.751 30.6495 90.3218 30.6385C89.9365 30.6275 89.6063 30.4623 89.5183 30.1211C89.4412 29.7909 89.4632 29.3947 89.5733 29.0755C89.8485 28.2279 90.1897 27.4024 90.5089 26.5658C91.3564 24.3644 92.204 22.174 93.0515 19.9616C90.9272 20.1487 88.7478 20.3358 86.4363 20.545C87.9222 21.1614 88.3185 22.2841 88.1204 23.638C87.9112 25.0469 86.8435 25.6853 85.6107 26.1035C85.6328 26.1476 85.6328 26.1806 85.6548 26.1916C86.9426 27.0061 87.7021 28.2169 88.2634 29.5818C88.3405 29.7799 88.3405 30.0551 88.2745 30.2642C88.1314 30.6935 87.7351 30.8586 87.3278 30.9026C86.8545 30.9577 86.5023 30.6825 86.2602 30.3082C85.7869 29.5928 85.3466 28.8553 84.8733 28.1509C84.6201 27.7766 84.3559 27.4024 84.0367 27.0832C83.3983 26.4338 82.5838 26.6759 81.7803 26.6759C81.7803 27.6996 81.7913 28.6792 81.7803 29.6698C81.7803 29.989 81.7583 30.3082 81.7032 30.6054C81.5932 31.1228 81.0758 31.475 80.5035 31.442C80.0081 31.409 79.722 31.1008 79.6559 30.5064C79.6339 30.3193 79.6229 30.1321 79.6229 29.934C79.6229 27.4244 79.6119 24.9148 79.6339 22.4052C79.6339 21.9759 79.744 21.5466 79.799 21.1063C78.5772 21.2164 77.2894 21.3265 75.9135 21.4475C77.7737 22.3831 77.8397 24.9698 75.9355 26.0155C76.3648 26.3017 76.9372 26.5328 77.3004 26.9511C78.0819 27.8757 77.9718 28.9434 77.4545 29.956C76.8381 31.1558 75.7154 31.5631 74.4606 31.7171C73.4479 31.8382 72.4243 31.9593 71.4116 32.0033C70.7402 32.0364 70.0247 32.3225 69.3753 31.8602C69.2652 32.1794 69.4083 32.2675 69.6835 32.3335C76.64 34.1497 83.6074 35.9769 90.5639 37.7931C99.6778 40.1816 108.803 42.5701 117.917 44.9697C118.17 45.0357 118.302 45.0027 118.434 44.7826C122.385 38.5415 126.348 32.3115 130.299 26.0705C130.399 25.9054 130.432 25.6963 130.498 25.5092C130.189 25.6963 130.046 25.9054 129.881 26.1145Z" fill="white"/>
</svg>
