<svg width="72" height="40" viewBox="0 0 72 40" fill="none" xmlns="http://www.w3.org/2000/svg">
<path fill-rule="evenodd" clip-rule="evenodd" d="M21.0179 1.67604C21.0179 1.75309 21.0179 1.83014 21.0179 1.90719C21.0179 2.52358 21.216 2.67768 21.8324 2.58962C22.1626 2.53459 22.5039 2.51258 22.8451 2.49056C24.0118 2.3915 24.0559 2.35848 24.0228 1.16971C24.0228 1.11468 24.0228 1.07065 24.0228 1.01561C23.9898 0.674393 23.8247 0.476266 23.4615 0.509287C22.8231 0.564322 22.1847 0.597344 21.5462 0.674393C21.216 0.718421 21.0069 0.938563 21.0179 1.3018C21.0179 1.42287 21.0179 1.55496 21.0179 1.67604ZM30.2528 16.8438C29.7575 18.2527 29.2732 19.6616 28.7669 21.1256C29.8236 21.0375 30.8252 20.9494 31.8709 20.8614C31.3536 19.4855 30.8472 18.1536 30.3519 16.8328L30.2528 16.8438ZM7.28106 20.8063C7.71034 20.7733 8.1176 20.7623 8.51386 20.7183C9.07522 20.6522 9.63658 20.5972 10.1869 20.4761C10.6712 20.3771 11.0235 20.0579 11.1556 19.5736C11.3977 18.704 11.1666 18.0436 10.22 17.9995C9.24032 17.9555 8.26069 18.0546 7.27005 18.0876V20.8063H7.28106ZM17.8479 20.1129C18.5963 20.0469 19.3338 20.0138 20.0493 19.9038C20.5446 19.8157 21.0509 19.6726 21.5022 19.4415C21.9865 19.1993 22.1516 18.5499 21.9975 17.9335C21.8765 17.4602 21.4472 17.0749 20.9188 17.0749C19.8952 17.086 18.8825 17.163 17.8479 17.207V20.1129ZM10.5722 22.2483C9.8237 22.1822 9.06421 22.2593 8.31573 22.2813C7.97451 22.2923 7.62228 22.3363 7.28106 22.3694V25.3853C8.12861 25.3193 8.93213 25.2862 9.73564 25.1762C10.1759 25.1101 10.6272 24.967 11.0125 24.7689C11.6289 24.4387 11.7499 23.8333 11.6729 23.1949C11.5958 22.6445 11.2766 22.3033 10.5722 22.2483ZM61.2268 15.534C61.7221 15.7321 62.2614 15.8201 62.7898 15.9302C64.1106 16.2164 65.5195 16.2824 66.4441 17.4932V13.9709C66.4221 13.9709 66.4111 13.9709 66.3891 13.9599C66.3231 14.1471 66.257 14.3452 66.169 14.5323C65.8608 15.1817 64.8921 15.3688 64.5399 14.6424C64.4519 14.4773 64.3748 14.2902 64.2537 14.1581C64.0006 13.8939 63.7584 13.5307 63.4282 13.4206C62.5586 13.1234 61.7001 13.2665 60.9846 13.8719C60.3682 14.4112 60.4783 15.2258 61.2268 15.534ZM43.7365 13.6407C42.1955 13.7728 40.5885 13.9159 38.9484 14.059C40.5004 16.2714 42.0194 18.4508 43.5384 20.6302C43.5714 20.6192 43.5934 20.6192 43.6264 20.6082V20.212C43.6264 18.5169 43.6154 16.8218 43.6264 15.1267C43.6375 14.6424 43.6925 14.1581 43.7365 13.6407ZM23.6816 4.60392C23.6486 4.2627 23.4174 4.04256 23.0762 4.07558C22.702 4.1086 22.3277 4.14162 21.9535 4.20767C21.5132 4.28472 21.4142 4.42781 21.4142 4.86809C21.4142 6.26599 21.4142 7.65288 21.4142 9.05078C21.4142 10.4707 21.4142 11.8906 21.4142 13.3105C21.4142 13.6848 21.5903 13.8719 21.9315 13.8609C22.2727 13.8389 22.6029 13.7838 22.9441 13.7618C23.5605 13.7288 23.6926 13.3986 23.6926 12.8592C23.6816 10.1955 23.6926 7.54281 23.6926 4.8791C23.6816 4.78003 23.6816 4.69198 23.6816 4.60392ZM50.0876 21.786C50.8141 21.7089 51.5075 21.6209 52.212 21.5658C53.4558 21.4778 54.1492 20.7513 54.4904 19.6286C54.8427 18.5059 54.8537 17.3611 54.5675 16.2274C54.2813 15.0827 53.5548 14.5433 52.3771 14.5543C51.7497 14.5543 51.1113 14.6204 50.4839 14.6204C50.1426 14.6204 50.0546 14.7414 50.0656 15.0606C50.0766 17.174 50.0766 19.2874 50.0766 21.4007C50.0656 21.5328 50.0766 21.6429 50.0876 21.786ZM57.6054 10.4597C58.8052 10.6688 59.961 10.4047 61.0947 10.0744C62.2835 9.72221 62.0413 9.62315 62.0523 8.7646C62.0633 8.10417 61.8762 8.00511 61.2158 8.1372C60.3572 8.31331 59.4877 8.46741 58.6181 8.55546C57.9907 8.62151 57.5724 8.15921 57.5724 7.53181C57.5724 6.94843 57.5724 6.36505 57.5724 5.78168C57.5724 5.26435 57.6164 4.73601 57.5614 4.22968C57.4844 3.45919 58.1118 2.75473 59.0254 2.77674C59.8289 2.79876 60.6434 2.78775 61.4469 2.79876C61.8652 2.79876 62.0413 2.62265 62.0523 2.20438C62.0523 1.98424 62.0413 1.7751 62.0523 1.55496C62.0743 1.20273 61.9202 1.01561 61.579 0.94957C60.3902 0.696407 59.1795 0.718421 58.0127 0.993598C56.4167 1.36784 55.327 2.68869 55.294 4.20767C55.2609 5.39643 55.2719 6.5852 55.294 7.77396C55.338 9.18287 56.2406 10.2175 57.6054 10.4597ZM11.0015 14.103C11.0015 14.6534 11.1996 14.8295 11.7499 14.7965C12.0031 14.7745 12.2563 14.7414 12.4984 14.7194C13.0598 14.6864 13.2689 14.4883 13.2689 13.9269C13.2689 11.9897 13.2689 10.0524 13.2689 8.11518C13.2689 7.44375 13.7422 6.88239 14.3586 6.81635C14.8209 6.77232 15.2832 6.71728 15.7455 6.67325C16.494 6.5962 16.9893 7.03649 16.9893 7.78497C16.9893 8.09317 16.9893 8.39036 16.9893 8.69855C16.9893 10.3276 16.9893 11.9677 16.9893 13.5967C16.9893 14.125 17.2425 14.3232 17.7598 14.2571C17.9799 14.2241 18.2111 14.2131 18.4422 14.1911C19.0586 14.1361 19.3008 13.9159 19.2788 13.3215C19.2458 12.3419 19.2678 11.3733 19.2678 10.3936C19.2678 9.44704 19.2678 8.48942 19.2678 7.54281C19.2678 6.17793 18.4753 5.11025 17.1324 4.85708C15.8226 4.60392 14.5017 4.725 13.2579 5.17629C11.9811 5.63859 11.1225 6.57419 11.0235 8.00511C10.9574 9.0728 10.9904 10.1515 10.9794 11.2302C10.9904 12.1768 10.9904 13.1344 11.0015 14.103ZM6.62064 13.1124C6.62064 13.1894 6.42251 13.3215 6.30143 13.3325C5.57496 13.4096 4.83749 13.4646 4.11102 13.5086C3.4506 13.5527 3.02132 13.2665 2.92226 12.7161C2.82319 12.1328 3.17542 11.5384 3.7698 11.3733C4.078 11.2852 4.41922 11.2852 4.73843 11.2412C5.04662 11.2082 5.36583 11.1751 5.68504 11.1421C5.98223 11.1201 6.29042 11.1091 6.64265 11.0871C6.63164 11.7805 6.64265 12.452 6.62064 13.1124ZM8.87709 14.2131C8.87709 12.3529 8.87709 10.4927 8.87709 8.63251C8.87709 8.34633 8.87709 8.04914 8.81105 7.76295C8.51385 6.54117 7.40214 5.63859 6.13633 5.68262C5.21173 5.71564 4.27613 5.84772 3.36254 6.01283C2.526 6.16693 2.45996 6.31002 2.45996 7.15756C2.45996 7.25663 2.45996 7.35569 2.45996 7.46576C2.48197 7.90605 2.65809 8.03813 3.08736 7.97209C3.83584 7.85101 4.58433 7.79598 5.3218 7.64188C6.14733 7.46576 6.84078 8.20324 6.5656 9.14985C5.92719 9.20488 5.26677 9.28193 4.61735 9.32596C3.56067 9.392 2.59204 9.63416 1.7445 10.3276C0.478685 11.3733 0.214515 13.2995 1.23817 14.4883C2.0527 15.4349 3.15341 15.578 4.30915 15.4679C5.55295 15.3578 6.79675 15.2147 8.04055 15.1157C8.734 15.0386 8.87709 14.9176 8.87709 14.2131ZM69.306 7.61986C68.6345 7.6859 67.9851 7.74094 67.3357 7.79597C67.0605 7.81799 66.7743 7.88403 66.5102 7.85101C65.9708 7.79597 65.6076 7.37771 65.5856 6.86037C65.5636 6.36505 66.0149 5.74866 66.5212 5.68262C67.4348 5.56154 68.3484 5.4955 69.306 5.40744V7.61986ZM71.5624 2.63365C71.5514 1.3018 70.5388 0.212095 69.2179 0.0469889C68.1612 -0.0961031 67.1376 0.113031 66.1139 0.333173C65.1453 0.553315 65.1453 0.586336 65.1563 1.57697C65.1563 1.65402 65.1563 1.73107 65.1563 1.80812C65.1783 2.22639 65.3985 2.35848 65.8167 2.29243C66.6423 2.16035 67.4788 2.03927 68.3153 1.96222C68.5245 1.94021 68.7776 2.07229 68.9537 2.20438C69.361 2.50157 69.339 2.96387 69.295 3.45919C68.6786 3.51422 68.0842 3.55825 67.4898 3.61328C66.6863 3.69033 65.8828 3.74537 65.1563 4.14162C63.8465 4.84608 63.186 6.05686 63.3401 7.5208C63.4832 8.85265 64.9031 9.90934 66.4551 9.78826C67.9521 9.67819 69.4491 9.52409 70.946 9.392C71.3973 9.34797 71.5624 9.17186 71.5624 8.70956C71.5734 6.68426 71.5734 4.65896 71.5624 2.63365ZM25.762 12.9143C25.762 12.9363 25.773 12.9693 25.773 12.9913C25.795 13.3215 25.9931 13.4646 26.3013 13.4426C26.6425 13.4206 26.9837 13.3766 27.325 13.3546C27.8533 13.3105 28.0074 13.1454 28.0074 12.6171C28.0074 10.7018 28.0074 8.78661 28.0074 6.88239C28.0074 6.08988 28.4917 5.52852 29.2402 5.46247C29.6475 5.42945 30.0437 5.40744 30.451 5.38543C31.3976 5.33039 31.7498 5.6606 31.7498 6.60721C31.7498 8.43439 31.7498 10.2506 31.7498 12.0777C31.7498 12.1988 31.7388 12.3309 31.7608 12.452C31.8048 12.7602 31.9479 12.9363 32.2892 12.9143C32.6194 12.8812 32.9386 12.8592 33.2688 12.8372C33.7861 12.8042 34.0063 12.5841 34.0063 12.0557C34.0063 10.1515 34.0063 8.25827 34.0063 6.35405C34.0063 5.48449 34.5126 4.96715 35.3711 4.92313C35.7124 4.91212 36.0536 4.8791 36.3948 4.83507C37.3304 4.73601 37.7707 5.12125 37.7707 6.05686C37.7707 7.65288 37.7707 9.24891 37.7707 10.8449C37.7707 11.1862 37.7707 11.5274 37.7817 11.8686C37.7927 12.2098 37.9688 12.3859 38.31 12.3639C38.7063 12.3419 39.0915 12.3309 39.4768 12.2759C39.862 12.2208 40.0051 12.0117 40.0051 11.5714C40.0051 9.5461 39.9941 7.5208 40.0051 5.4955C40.0161 4.20767 39.1025 3.34911 38.0899 3.0189C37.3744 2.78775 36.648 2.88682 35.9105 2.93085C34.8098 2.99689 33.7531 3.173 32.9386 3.89947C32.4873 3.74537 32.113 3.52523 31.7388 3.49221C31.0233 3.43717 30.3079 3.44818 29.5924 3.51422C29.0311 3.56926 28.4587 3.65731 27.9414 3.86645C26.6645 4.37277 25.806 5.29737 25.773 6.72829C25.7399 8.78661 25.773 10.8559 25.762 12.9143ZM47.8312 8.33532C48.2054 8.34633 48.4586 8.6105 48.4586 8.98474C48.4476 9.41402 48.1173 9.72221 47.666 9.71121C47.3138 9.7002 47.0607 9.44704 47.0607 9.0838C47.0717 8.66553 47.4129 8.32431 47.8312 8.33532ZM50.2417 8.10417C50.5719 8.11518 50.8691 8.41237 50.8691 8.73158C50.8801 9.11683 50.4839 9.52409 50.0986 9.51308C49.7574 9.51308 49.4382 9.19388 49.4492 8.85266C49.4492 8.47841 49.8565 8.09317 50.2417 8.10417ZM40.7316 3.26106C41.0178 3.22804 41.2819 3.07394 41.4691 2.99689C42.2396 3.70134 43.0101 4.40579 43.8576 5.17629C43.3072 5.36341 42.878 5.5065 42.4597 5.64959C42.1845 5.23133 41.8983 5.11025 41.5131 5.22032C41.2049 5.30838 40.9517 5.64959 40.9297 5.97981C40.9077 6.33203 41.0618 6.56318 41.37 6.69527C41.7442 6.84937 42.0524 6.69527 42.4927 6.1229C42.8449 6.28801 43.2082 6.46412 43.5824 6.61822C43.7916 6.69527 43.8246 6.82735 43.8356 7.02548C43.8466 7.35569 43.8686 7.6859 43.9567 7.9941C44.6171 10.5257 46.9286 11.9346 49.5042 11.4723C52.4651 10.944 54.8096 7.88403 54.0832 4.73601C53.5218 2.27042 51.3314 0.960577 49.086 1.13669C48.0843 1.21374 47.1487 1.54395 46.3232 2.13833C46.1581 2.25941 46.037 2.28143 45.8609 2.13833C45.5747 1.90719 45.2665 1.72007 44.9803 1.52194C45.1674 0.905542 45.1014 0.630365 44.7602 0.399216C44.474 0.212096 44.0777 0.245117 43.7805 0.476265C43.5054 0.696407 43.3733 1.1477 43.5054 1.4669C43.6595 1.84114 43.9346 1.95121 44.6061 1.87416C44.6831 2.36948 44.7602 2.8648 44.8482 3.41516C43.8356 3.07394 42.9 2.76574 41.9754 2.43553C41.8873 2.40251 41.7993 2.25941 41.7663 2.14934C41.6232 1.57697 41.2489 1.32381 40.6766 1.42287C40.1812 1.51093 39.829 2.00625 39.884 2.5456C39.9061 2.96387 40.2803 3.31609 40.7316 3.26106ZM65.9708 21.1145C64.716 22.6776 61.7111 23.0188 60.093 22.3033C59.1244 21.874 58.3759 20.7843 58.409 19.8487C58.42 19.4084 58.7392 19.0122 59.1574 18.9131C59.6418 18.7921 59.972 18.9351 60.2251 19.3974C60.3902 19.6946 60.5333 20.0028 60.6874 20.3C60.8966 20.6963 61.2488 20.9274 61.6671 21.0045C62.4706 21.1476 63.2521 21.0705 63.9455 20.5862C64.4518 20.234 64.738 19.7497 64.639 19.1333C64.5399 18.5279 64.0776 18.2637 63.5383 18.1426C62.6687 17.9555 61.7881 17.8124 60.9186 17.6033C60.1591 17.4272 59.4546 17.108 58.9923 16.4255C58.3869 15.5229 58.497 14.059 59.2785 13.2335C59.6858 12.8042 60.1921 12.474 60.6104 12.1438C58.3429 12.3419 55.9764 12.551 53.5989 12.7712C53.6209 12.7932 53.6319 12.8042 53.6319 12.8152C53.6979 12.8372 53.753 12.8482 53.819 12.8592C55.2719 13.1674 56.1635 14.081 56.6038 15.4569C57.0881 16.9649 57.0661 18.4949 56.5928 19.9918C56.0534 21.7089 54.9197 22.8427 53.1035 23.1619C52.256 23.305 51.4085 23.382 50.5499 23.4591C49.9885 23.5141 49.4162 23.5361 48.8438 23.5361C48.3375 23.5361 48.1063 23.338 48.0073 22.8427C47.9632 22.6445 47.9412 22.4464 47.9412 22.2483C47.9412 19.7827 47.9412 17.3061 47.9302 14.8405C47.9302 14.2461 47.9192 13.6628 48.4916 13.2225C47.4239 13.3215 46.4222 13.4096 45.4756 13.4976C45.5307 13.9159 45.6187 14.3012 45.6187 14.6864C45.6297 17.196 45.6297 19.7056 45.6187 22.2153C45.6187 22.5014 45.6077 22.7986 45.5747 23.0848C45.5197 23.5801 45.2665 23.9214 44.7822 24.0865C44.1218 24.3066 43.5494 24.0865 43.0651 23.393C42.1845 22.1492 41.326 20.8834 40.4564 19.6396C39.9281 18.8801 39.4107 18.1206 38.8164 17.2731V19.5846C38.8164 20.9054 38.8164 22.2153 38.8164 23.5361C38.8164 24.2185 38.3541 24.6918 37.7377 24.6918C37.1543 24.6918 36.8571 24.3396 36.8351 23.5911C36.8351 23.4811 36.8351 23.36 36.8351 23.2499C36.8351 20.7513 36.8241 18.2637 36.8461 15.7651C36.8461 15.2698 36.9562 14.7745 37.0112 14.2571C35.217 14.4112 33.3348 14.5763 31.4636 14.7414C31.6397 15.0717 31.8158 15.3688 31.9479 15.6881C32.5974 17.229 33.2468 18.77 33.8852 20.311C34.3365 21.4117 34.7878 22.5124 35.206 23.6352C35.4042 24.1525 35.0629 24.7139 34.5126 24.934C33.9732 25.1431 33.555 24.978 33.2798 24.4057C33.0376 23.8883 32.8065 23.349 32.6084 22.8096C32.5203 22.5675 32.4102 22.4794 32.1461 22.5014C30.8362 22.6225 29.5264 22.7216 28.2165 22.8317C28.1835 22.9417 28.1505 23.0408 28.1065 23.1509C27.8533 23.8113 27.6111 24.4607 27.336 25.1101C27.1709 25.4954 26.8406 25.6495 26.4114 25.6385C26.0261 25.6275 25.6959 25.4623 25.6079 25.1211C25.5308 24.7909 25.5528 24.3947 25.6629 24.0755C25.9381 23.2279 26.2793 22.4024 26.5985 21.5658C27.446 19.3644 28.2936 17.174 29.1411 14.9616C27.0168 15.1487 24.8374 15.3358 22.5259 15.545C24.0118 16.1614 24.4081 17.2841 24.21 18.638C24.0008 20.0469 22.9331 20.6853 21.7003 21.1035C21.7224 21.1476 21.7224 21.1806 21.7444 21.1916C23.0322 22.0061 23.7917 23.2169 24.353 24.5818C24.4301 24.7799 24.4301 25.0551 24.3641 25.2642C24.221 25.6935 23.8247 25.8586 23.4174 25.9026C22.9441 25.9577 22.5919 25.6825 22.3498 25.3082C21.8765 24.5928 21.4362 23.8553 20.9629 23.1509C20.7097 22.7766 20.4455 22.4024 20.1263 22.0832C19.4879 21.4338 18.6734 21.6759 17.8699 21.6759C17.8699 22.6996 17.8809 23.6792 17.8699 24.6698C17.8699 24.989 17.8479 25.3082 17.7928 25.6054C17.6828 26.1228 17.1654 26.475 16.5931 26.442C16.0977 26.409 15.8116 26.1008 15.7455 25.5064C15.7235 25.3193 15.7125 25.1321 15.7125 24.934C15.7125 22.4244 15.7015 19.9148 15.7235 17.4052C15.7235 16.9759 15.8336 16.5466 15.8886 16.1063C14.6668 16.2164 13.379 16.3265 12.0031 16.4475C13.8633 17.3831 13.9293 19.9698 12.0251 21.0155C12.4544 21.3017 13.0268 21.5328 13.39 21.9511C14.1715 22.8757 14.0614 23.9434 13.5441 24.956C12.9277 26.1558 11.805 26.5631 10.5502 26.7171C9.53751 26.8382 8.51386 26.9593 7.5012 27.0033C6.82977 27.0364 6.11431 27.3225 5.46489 26.8602C5.35482 27.1794 5.49791 27.2675 5.77309 27.3335C12.7296 29.1497 19.697 30.9769 26.6535 32.7931C35.7674 35.1816 44.8923 37.5701 54.0061 39.9697C54.2593 40.0357 54.3914 40.0027 54.5235 39.7826C58.475 33.5415 62.4376 27.3115 66.3891 21.0705C66.4882 20.9054 66.5212 20.6963 66.5872 20.5092C66.279 20.6963 66.1359 20.9054 65.9708 21.1145Z" fill="white"/>
</svg>
