<svg width="172" height="40" viewBox="0 0 172 40" fill="none" xmlns="http://www.w3.org/2000/svg">
<g clip-path="url(#clip0_3016_11373)">
<path d="M51.7471 15.0798L55.3866 24.0942H54.4255L53.3707 21.3852H49.245L48.1248 24.0942H47.2007L51.0249 15.0798H51.75H51.7471ZM53.0778 20.6752L51.3377 16.2295L49.5464 20.6752H53.0778Z" fill="white"/>
<path d="M60.0377 21.385C60.0434 21.7209 60.1202 22.0513 60.2624 22.3599C60.3875 22.6193 60.5723 22.8487 60.8026 23.0317C61.0443 23.2146 61.3229 23.3485 61.6186 23.4167C61.9627 23.5014 62.3181 23.5423 62.6735 23.5369C63.0175 23.5396 63.3616 23.4959 63.6942 23.4031C63.9871 23.3239 64.2629 23.1955 64.5103 23.029C64.7349 22.8788 64.9197 22.6821 65.0505 22.4528C65.1813 22.2206 65.2467 21.9612 65.241 21.6991C65.2552 21.4014 65.1699 21.1065 64.9965 20.858C64.8287 20.6368 64.6126 20.4538 64.3624 20.32C64.0809 20.1671 63.7795 20.0497 63.4668 19.9732C63.1284 19.8858 62.7844 19.7957 62.4375 19.7083C62.0906 19.6209 61.7466 19.5172 61.4082 19.4025C61.0869 19.2987 60.7855 19.1458 60.5126 18.9519C60.2481 18.7607 60.032 18.5177 59.8785 18.2364C59.7051 17.8951 59.6198 17.5209 59.634 17.1414C59.6226 16.7727 59.7193 16.4068 59.9183 16.09C60.1031 15.806 60.3477 15.5657 60.6377 15.38C60.9305 15.1943 61.2575 15.055 61.5987 14.9758C61.9342 14.8939 62.2811 14.8502 62.628 14.8502C63.3445 14.8311 64.0553 14.984 64.6979 15.2926C65.3206 15.6367 65.7784 16.1992 65.9774 16.8628L65.1472 17.2916C65.005 16.7672 64.661 16.3112 64.1861 16.019C63.7141 15.7569 63.1767 15.623 62.6308 15.634C62.3835 15.634 62.1389 15.6667 61.9001 15.7295C61.6584 15.7896 61.431 15.8852 61.2206 16.0135C61.0215 16.1364 60.8538 16.2975 60.7258 16.4887C60.5979 16.6826 60.5325 16.9092 60.5353 17.1414C60.5211 17.4336 60.6064 17.7203 60.7798 17.9606C60.9504 18.1736 61.1637 18.3484 61.411 18.474C61.6954 18.6187 61.9968 18.728 62.3067 18.8044C62.6451 18.8891 62.9891 18.9737 63.336 19.0584C63.6829 19.143 64.0269 19.2413 64.3652 19.3478C64.6865 19.4489 64.9879 19.5963 65.2609 19.7848C65.5253 19.9705 65.7414 20.2108 65.8949 20.4866C66.0684 20.8197 66.1537 21.1911 66.1395 21.5625C66.1906 22.3463 65.8523 23.1054 65.2296 23.6133C64.624 24.0858 63.771 24.3233 62.6735 24.3233C62.2356 24.3261 61.8006 24.2824 61.3741 24.1923C61.0016 24.1103 60.649 23.9656 60.3334 23.7608C60.0264 23.5587 59.7676 23.2938 59.5771 22.988C59.361 22.6303 59.2132 22.237 59.1421 21.8301L60.0377 21.3877V21.385Z" fill="white"/>
<path d="M71.3887 21.385C71.3944 21.7209 71.4712 22.0513 71.6133 22.3599C71.7384 22.6193 71.9233 22.8487 72.1536 23.0317C72.3952 23.2146 72.6739 23.3485 72.9696 23.4167C73.3136 23.5014 73.669 23.5423 74.0245 23.5369C74.3685 23.5396 74.7125 23.4959 75.0452 23.4031C75.3381 23.3239 75.6139 23.1955 75.8612 23.029C76.0859 22.8788 76.2707 22.6821 76.4015 22.4528C76.5323 22.2206 76.5977 21.9612 76.592 21.6991C76.6062 21.4014 76.5209 21.1065 76.3474 20.858C76.1797 20.6368 75.9636 20.4538 75.7134 20.32C75.4319 20.1671 75.1305 20.0497 74.8177 19.9732C74.4794 19.8858 74.1353 19.7957 73.7885 19.7083C73.4416 19.6209 73.0975 19.5172 72.7592 19.4025C72.4379 19.2987 72.1365 19.1458 71.8635 18.9519C71.5991 18.7607 71.383 18.5177 71.2295 18.2364C71.056 17.8951 70.9708 17.5209 70.985 17.1414C70.9736 16.7727 71.0703 16.4068 71.2693 16.09C71.4541 15.806 71.6986 15.5657 71.9887 15.38C72.2815 15.1943 72.6085 15.055 72.9497 14.9758C73.2852 14.8939 73.6321 14.8502 73.979 14.8502C74.6955 14.8311 75.4063 14.984 76.0489 15.2926C76.6716 15.6367 77.1294 16.1992 77.3284 16.8628L76.4981 17.2916C76.356 16.7672 76.0119 16.3112 75.5371 16.019C75.0651 15.7569 74.5277 15.623 73.9818 15.634C73.7344 15.634 73.4899 15.6667 73.2511 15.7295C73.0094 15.7896 72.7819 15.8852 72.5715 16.0135C72.3725 16.1364 72.2047 16.2975 72.0768 16.4887C71.9488 16.6826 71.8806 16.9092 71.8863 17.1414C71.8721 17.4336 71.9574 17.7203 72.1308 17.9606C72.3014 18.1736 72.5147 18.3484 72.762 18.474C73.0464 18.6187 73.3478 18.728 73.6577 18.8044C73.996 18.8891 74.3401 18.9737 74.687 19.0584C75.0338 19.143 75.3779 19.2413 75.7162 19.3478C76.0375 19.4489 76.3389 19.5963 76.6119 19.7848C76.8735 19.9705 77.0896 20.2108 77.2431 20.4866C77.4165 20.8197 77.5018 21.1911 77.4876 21.5625C77.5388 22.3463 77.2004 23.1054 76.5777 23.6133C75.9721 24.0858 75.1191 24.3233 74.0216 24.3233C73.5837 24.3261 73.1487 24.2824 72.7222 24.1923C72.3498 24.1103 71.9972 23.9656 71.6816 23.7608C71.3745 23.5587 71.1158 23.2938 70.9253 22.988C70.7092 22.6303 70.5613 22.237 70.4902 21.8301L71.3887 21.3877V21.385Z" fill="white"/>
<path d="M89.1597 21.1693C89.1683 21.6335 89.0858 22.095 88.9152 22.5292C88.7645 22.906 88.5257 23.2447 88.2158 23.5177C87.9002 23.7908 87.5277 23.9956 87.1211 24.1185C86.197 24.3861 85.2104 24.3861 84.2863 24.1185C83.8797 23.9956 83.5073 23.7908 83.1917 23.5177C82.8846 23.2447 82.6429 22.906 82.4922 22.5292C82.3216 22.095 82.2391 21.6335 82.2477 21.1693V15.0796H83.1433V21.1447C83.1319 21.5243 83.2002 21.9038 83.348 22.2588C83.584 22.8268 84.0873 23.2556 84.7043 23.4112C85.3554 23.5805 86.0435 23.5805 86.6946 23.4112C87.3116 23.2556 87.8149 22.8296 88.0509 22.2588C88.1959 21.9038 88.267 21.527 88.2556 21.1447V15.0796H89.1512V21.1693H89.1597Z" fill="white"/>
<path d="M94.25 15.0799H98.4012C98.8277 15.069 99.2514 15.1427 99.6466 15.2956C99.9679 15.4212 100.258 15.6151 100.497 15.8582C100.716 16.0903 100.883 16.3634 100.986 16.6637C101.091 16.9614 101.142 17.2727 101.145 17.5867C101.191 18.2558 100.92 18.9057 100.406 19.359C99.8286 19.796 99.1234 20.039 98.3899 20.0554L101.395 24.0942H100.261L97.281 20.0936H95.1456V24.0942H94.25V15.0771V15.0799ZM95.1456 19.3071H97.9264C98.3188 19.3181 98.7111 19.2662 99.0865 19.1488C99.348 19.0641 99.5897 18.9276 99.7916 18.7446C99.9565 18.5917 100.079 18.4033 100.147 18.193C100.212 17.9964 100.247 17.7916 100.247 17.584C100.269 17.1198 100.093 16.6665 99.7575 16.3306C99.4333 16.0193 98.8704 15.8609 98.0714 15.8609H95.1456V19.3044V19.3071Z" fill="white"/>
<path d="M105.6 15.0799H111.744V15.8663H106.495V19.0559H111.229V19.8424H106.495V23.3105H112.02V24.0942H105.602V15.0771L105.6 15.0799Z" fill="white"/>
<path d="M123.873 15.0797H127.563C127.995 15.0742 128.428 15.1397 128.837 15.2763C129.19 15.3964 129.519 15.5767 129.807 15.8088C130.079 16.0327 130.313 16.2976 130.497 16.5925C130.685 16.8902 130.839 17.2097 130.952 17.5428C131.066 17.876 131.149 18.2201 131.197 18.5669C131.245 18.9055 131.268 19.2469 131.268 19.5882C131.262 20.0961 131.2 20.6013 131.077 21.0929C130.955 21.6144 130.736 22.1087 130.432 22.5566C130.119 23.0072 129.704 23.384 129.218 23.6571C128.635 23.9657 127.978 24.1159 127.313 24.094H123.873V15.0797ZM124.768 23.3075H127.259C127.771 23.3239 128.277 23.2092 128.729 22.9771C129.116 22.7696 129.445 22.4774 129.69 22.1224C129.937 21.7592 130.114 21.3578 130.21 20.9317C130.315 20.4894 130.37 20.036 130.37 19.5827C130.37 19.1513 130.318 18.7198 130.225 18.2965C130.136 17.8705 129.971 17.4636 129.738 17.095C129.511 16.7373 129.201 16.4341 128.834 16.2102C128.416 15.9672 127.933 15.8443 127.444 15.8607H124.768V23.3048V23.3075Z" fill="white"/>
<path d="M135.998 15.0799H142.14V15.8663H136.894V19.0559H141.628V19.8424H136.894V23.3105H142.418V24.0942H135.998V15.0771V15.0799Z" fill="white"/>
<path d="M147.109 15.0796H153.225V15.8661H148.005V18.8809H152.67V19.6646H148.005V24.0967H147.109V15.0823V15.0796Z" fill="white"/>
<path d="M157.897 15.0796H158.793V24.0939H157.897V15.0796Z" fill="white"/>
<path d="M41.3258 39.5384V40H24.4014V39.5384C25.5228 39.5384 26.3439 38.7498 26.8646 37.1748C27.0849 36.5144 27.1961 35.8241 27.1939 35.1296C27.1717 33.9755 26.938 32.8343 26.5041 31.7572L24.7618 27.6647L24.5527 27.2052H24.5816L17.1096 9.65326L16.9004 9.04846L20.741 0H21.2239L35.0843 32.5907C35.8497 34.3901 36.9045 36.0613 38.2062 37.5488C39.3833 38.8759 40.4224 39.5384 41.3236 39.5363L41.3258 39.5384Z" fill="white"/>
<path d="M20.405 29.447C14.8532 29.447 10.3518 34.1507 10.3518 39.9551C10.3518 34.1507 5.85475 29.447 0.300781 29.447C5.85252 29.447 10.3518 24.7411 10.3518 18.9368C10.3518 24.7411 14.851 29.447 20.405 29.447Z" fill="white"/>
<path d="M164.752 11.3769H163.928V13.6871H163.427V11.3769H162.605V11H164.755V11.3769H164.752Z" fill="white"/>
<path d="M168.723 11V13.6871H168.222L168.236 11.5735H168.228L167.395 13.6871H166.999L166.215 11.5735H166.206L166.22 13.6871H165.746V11H166.434L167.213 13.1191H167.224L168.037 11H168.725H168.723Z" fill="white"/>
<path d="M47.1987 29.4658H49.5445V29.7389H48.5266V32.5871H48.2166V29.7389H47.1987V29.4658Z" fill="white"/>
<path d="M51.0991 29.4658H51.409V30.8421H53.3539V29.4658H53.6638V32.5844H53.3539V31.1125H51.409V32.5844H51.0991V29.4658Z" fill="white"/>
<path d="M55.4658 29.4658H57.5926V29.7389H55.7757V30.8421H57.4135V31.1152H55.7757V32.3168H57.6864V32.5898H55.4658V29.4658Z" fill="white"/>
<path d="M61.4229 29.4658H61.7555L62.7734 32.112L63.8084 29.4658H64.1268L62.9099 32.5844H62.6369L61.4229 29.4658Z" fill="white"/>
<path d="M65.5659 29.4658H67.6927V29.7389H65.8758V30.8421H67.5136V31.1152H65.8758V32.3168H67.7894V32.5898H65.5688V29.4658H65.5659Z" fill="white"/>
<path d="M69.413 29.4658H70.8517C70.9996 29.4631 71.1474 29.4876 71.2839 29.5395C71.3948 29.5832 71.4943 29.6515 71.5768 29.7334C71.6535 29.8126 71.7104 29.9082 71.7445 30.0119C71.7815 30.1157 71.7985 30.2222 71.7985 30.3314C71.8156 30.5636 71.7218 30.7875 71.5426 30.9459C71.3436 31.0961 71.0991 31.1834 70.8432 31.1889L71.8838 32.5871H71.4915L70.4593 31.2026H69.7201V32.5871H69.4102V29.4658H69.413ZM69.7229 30.9295H70.6868C70.8233 30.9322 70.9598 30.9158 71.0877 30.8749C71.1787 30.8448 71.2612 30.7984 71.3322 30.7356C71.3891 30.6837 71.4317 30.6182 71.4545 30.5444C71.4772 30.4762 71.4886 30.4052 71.4886 30.3342C71.4971 30.1731 71.4346 30.0174 71.3209 29.9C71.1559 29.7744 70.9455 29.717 70.738 29.7389H69.7258V30.9295H69.7229Z" fill="white"/>
<path d="M73.3931 29.4658H73.703V32.5844H73.3931V29.4658Z" fill="white"/>
<path d="M75.4902 29.4658H77.6057V29.7389H75.8002V30.7821H77.4152V31.0551H75.8002V32.5898H75.4902V29.4685V29.4658Z" fill="white"/>
<path d="M79.2246 29.4658H79.5345V32.5844H79.2246V29.4658Z" fill="white"/>
<path d="M83.5721 30.3423C83.5408 30.2412 83.501 30.1456 83.4498 30.0528C83.4043 29.9709 83.3417 29.8971 83.2678 29.8371C83.1882 29.777 83.0972 29.7306 83.0006 29.7032C82.8783 29.6705 82.7503 29.6541 82.6252 29.6568C82.4603 29.6541 82.2983 29.6869 82.1476 29.7551C82.0139 29.8207 81.8973 29.9162 81.8092 30.0337C81.7154 30.1647 81.6443 30.3095 81.6073 30.4651C81.559 30.6481 81.5362 30.8365 81.5391 31.025C81.5334 31.238 81.5618 31.451 81.6244 31.6585C81.6699 31.8141 81.7523 31.9589 81.8604 32.0818C81.9599 32.1883 82.0822 32.2675 82.2215 32.3193C82.3665 32.3712 82.52 32.3958 82.6764 32.3931C82.8897 32.4067 83.1029 32.3439 83.2707 32.2156C83.4185 32.0845 83.5294 31.9152 83.5891 31.7295L83.8848 31.8824C83.7967 32.1309 83.6204 32.3439 83.3901 32.4832C83.1541 32.6088 82.8868 32.6716 82.6167 32.6634C82.4319 32.6634 82.2499 32.6334 82.0765 32.5733C81.9087 32.5132 81.7552 32.4149 81.6358 32.2866C81.4993 32.1391 81.3998 31.9671 81.3401 31.7786C81.2633 31.5356 81.2263 31.2789 81.232 31.025C81.2263 30.7683 81.2633 30.5143 81.3457 30.2712C81.4083 30.0828 81.5135 29.9108 81.65 29.7633C81.7694 29.635 81.9201 29.5367 82.085 29.4766C82.2471 29.4165 82.4205 29.3865 82.5968 29.3865C82.7447 29.3865 82.8897 29.4001 83.0347 29.4302C83.1598 29.4575 83.2792 29.5039 83.3872 29.5694C83.4953 29.635 83.5891 29.7196 83.6687 29.8179C83.7569 29.9326 83.8308 30.0582 83.8877 30.1893L83.5777 30.3395L83.5721 30.3423Z" fill="white"/>
<path d="M86.6745 29.4658L87.9341 32.5844H87.6014L87.2375 31.6477H85.8101L85.4234 32.5844H85.105L86.4271 29.4658H86.6773H86.6745ZM87.1351 31.402L86.5323 29.8645L85.9125 31.402H87.1351Z" fill="white"/>
<path d="M88.7642 29.4658H91.1099V29.7389H90.092V32.5871H89.7821V29.7389H88.7642V29.4658Z" fill="white"/>
<path d="M92.6494 29.4658H92.9593V32.5844H92.6494V29.4658Z" fill="white"/>
<path d="M94.6553 31.0252C94.6553 30.8204 94.6837 30.6156 94.7406 30.419C94.7917 30.2306 94.8799 30.0531 94.9993 29.8947C95.1159 29.7418 95.2637 29.6162 95.4372 29.5233C95.8324 29.3376 96.293 29.3376 96.6882 29.5233C96.8617 29.6134 97.0095 29.7418 97.1261 29.8947C97.2455 30.0531 97.3308 30.2306 97.3849 30.419C97.4986 30.815 97.4986 31.2328 97.3849 31.6287C97.3337 31.8172 97.2455 31.9947 97.1261 32.1531C97.0095 32.306 96.8617 32.4316 96.6882 32.5244C96.293 32.7129 95.8324 32.7129 95.4372 32.5244C95.2637 32.4343 95.1159 32.306 94.9993 32.1531C94.8827 31.9947 94.7946 31.8172 94.7406 31.6287C94.6837 31.4321 94.6553 31.23 94.6553 31.0252ZM94.9652 31.0252C94.9652 31.1891 94.9851 31.3529 95.0277 31.514C95.0676 31.6697 95.1329 31.8172 95.2239 31.9537C95.3121 32.0821 95.4286 32.1913 95.5651 32.2705C95.8722 32.4343 96.2475 32.4343 96.5546 32.2705C96.6911 32.1913 96.8077 32.0821 96.8958 31.9537C96.9868 31.8199 97.0522 31.6724 97.092 31.514C97.1744 31.1945 97.1744 30.8587 97.092 30.5392C97.055 30.3835 96.9868 30.2333 96.8958 30.0995C96.8077 29.9712 96.6911 29.8619 96.5546 29.7827C96.2475 29.6189 95.8722 29.6189 95.5651 29.7827C95.4286 29.8619 95.3121 29.9712 95.2239 30.0995C95.1329 30.2333 95.0647 30.3835 95.0277 30.5392C94.9879 30.6975 94.9652 30.8614 94.9652 31.0252Z" fill="white"/>
<path d="M99.1699 29.4658H99.477L101.334 32.0846H101.342V29.4658H101.652V32.5844H101.345L99.4884 29.9656H99.4798V32.5844H99.1699V29.4658Z" fill="white"/>
<path d="M108.156 30.4433C108.005 30.1757 107.707 30.0173 107.388 30.0364C107.161 30.0282 106.939 30.1156 106.782 30.274C106.609 30.487 106.529 30.7573 106.552 31.0249C106.538 31.2816 106.612 31.5356 106.763 31.7486C106.913 31.9316 107.146 32.0326 107.388 32.0162C107.468 32.0162 107.544 32.0053 107.621 31.9835C107.701 31.9616 107.778 31.9288 107.846 31.8824C107.917 31.836 107.977 31.7759 108.022 31.7076C108.073 31.6312 108.102 31.5411 108.11 31.451H107.388V30.8447H108.793V32.5842H108.161V32.303C108.051 32.4231 107.914 32.516 107.761 32.576C107.587 32.6416 107.402 32.6743 107.217 32.6716C106.996 32.6771 106.774 32.6334 106.572 32.5487C106.393 32.4723 106.237 32.3548 106.111 32.2101C105.983 32.0572 105.89 31.8824 105.833 31.694C105.767 31.481 105.736 31.2598 105.739 31.0386C105.739 30.8147 105.77 30.5935 105.838 30.3777C105.901 30.1839 106.001 30.0036 106.137 29.8507C106.273 29.7005 106.444 29.5804 106.635 29.5012C106.854 29.4138 107.092 29.3728 107.328 29.3755C107.63 29.3701 107.928 29.4384 108.198 29.5722C108.46 29.706 108.676 29.9081 108.827 30.1538L108.156 30.4378V30.4433Z" fill="white"/>
<path d="M113.628 31.0249C113.628 31.2379 113.591 31.4509 113.517 31.6503C113.446 31.8442 113.338 32.0217 113.196 32.1773C113.054 32.333 112.878 32.4559 112.682 32.5378C112.238 32.718 111.738 32.718 111.294 32.5378C111.098 32.4531 110.922 32.3303 110.779 32.1773C110.637 32.0244 110.529 31.8442 110.458 31.6503C110.31 31.2461 110.31 30.8037 110.458 30.3969C110.529 30.203 110.637 30.0255 110.779 29.8698C110.922 29.7169 111.098 29.5913 111.294 29.5093C111.738 29.3318 112.238 29.3318 112.682 29.5093C112.878 29.594 113.054 29.7169 113.196 29.8698C113.338 30.0227 113.446 30.203 113.517 30.3969C113.591 30.5989 113.631 30.8092 113.628 31.0222V31.0249ZM112.815 31.0249C112.815 30.9021 112.801 30.7819 112.77 30.6645C112.741 30.5525 112.693 30.4433 112.625 30.3477C112.559 30.2549 112.471 30.1757 112.366 30.121C112.249 30.061 112.116 30.0309 111.982 30.0364C111.868 30.0364 111.757 30.0555 111.652 30.0937C111.553 30.132 111.462 30.192 111.391 30.2685C111.311 30.3586 111.251 30.4624 111.217 30.5744C111.172 30.7218 111.152 30.872 111.155 31.0249C111.155 31.1424 111.169 31.2571 111.194 31.3717C111.22 31.4864 111.266 31.5929 111.328 31.6912C111.394 31.7868 111.479 31.8687 111.584 31.9261C111.706 31.9889 111.846 32.0217 111.985 32.0162C112.241 32.0244 112.482 31.907 112.625 31.6994C112.693 31.6039 112.741 31.4946 112.77 31.3827C112.801 31.2652 112.815 31.1451 112.815 31.0249Z" fill="white"/>
<path d="M115.254 29.4658H116.068V31.929H117.339V32.5871H115.254V29.4685V29.4658Z" fill="white"/>
<path d="M118.91 29.4658H120.17C120.397 29.4658 120.625 29.4931 120.844 29.5532C121.037 29.6051 121.216 29.7007 121.367 29.829C121.517 29.9628 121.634 30.1294 121.705 30.3151C121.864 30.7766 121.864 31.2763 121.705 31.7406C121.634 31.9263 121.52 32.0928 121.367 32.2267C121.216 32.355 121.037 32.4506 120.844 32.5025C120.625 32.5625 120.397 32.5926 120.17 32.5898H118.91V29.4685V29.4658ZM119.723 31.929H120.19C120.323 31.9317 120.454 31.9099 120.576 31.858C120.676 31.8143 120.764 31.7488 120.832 31.6641C120.9 31.5795 120.946 31.4811 120.974 31.3774C121.031 31.1453 121.031 30.9049 120.974 30.6728C120.949 30.5691 120.9 30.4708 120.832 30.3861C120.764 30.3014 120.676 30.2359 120.573 30.1949C120.451 30.1458 120.318 30.1212 120.187 30.1239H119.726V31.929H119.723Z" fill="white"/>
<path d="M126.178 31.653C126.308 31.7676 126.453 31.8632 126.61 31.9397C126.769 32.0107 126.942 32.0462 127.119 32.0435C127.181 32.0435 127.244 32.038 127.306 32.0271C127.375 32.0162 127.443 31.997 127.505 31.967C127.565 31.9397 127.619 31.9015 127.665 31.855C127.707 31.8086 127.73 31.7458 127.727 31.683C127.73 31.612 127.696 31.5437 127.636 31.5C127.554 31.4509 127.46 31.4181 127.363 31.4072L126.687 31.3007C126.431 31.2761 126.186 31.1723 125.993 31.0085C125.834 30.861 125.748 30.6535 125.757 30.4405C125.751 30.2739 125.791 30.1073 125.868 29.9544C125.936 29.8233 126.038 29.7086 126.16 29.624C126.288 29.5366 126.433 29.4738 126.584 29.4356C126.746 29.3946 126.914 29.3727 127.085 29.3755C127.355 29.3755 127.619 29.4274 127.866 29.5284C128.114 29.6294 128.336 29.7824 128.518 29.9762L127.901 30.3995C127.687 30.1483 127.366 30.0008 127.031 30.0063C126.979 30.0063 126.928 30.0145 126.88 30.0281C126.826 30.0418 126.777 30.0609 126.729 30.0882C126.684 30.1128 126.647 30.1483 126.615 30.1865C126.539 30.2903 126.561 30.435 126.669 30.5088C126.672 30.5088 126.675 30.5142 126.681 30.5142C126.786 30.5688 126.903 30.6043 127.022 30.618L127.332 30.6671C127.485 30.6917 127.639 30.7245 127.787 30.7654C127.92 30.8009 128.046 30.8556 128.162 30.9266C128.267 30.9894 128.356 31.0768 128.418 31.1805C128.483 31.2952 128.518 31.4263 128.512 31.5574C128.52 31.7567 128.469 31.9533 128.367 32.1281C128.276 32.2701 128.148 32.3848 127.997 32.4667C127.847 32.5487 127.685 32.6033 127.514 32.6278C127.352 32.6552 127.19 32.6688 127.025 32.6688C126.76 32.6688 126.496 32.6224 126.251 32.5268C125.987 32.4121 125.751 32.2455 125.561 32.0353L126.18 31.653H126.178Z" fill="white"/>
<path d="M129.869 29.4658H132.38V30.0693H131.532V32.5844H130.719V30.0693H129.872V29.4658H129.869Z" fill="white"/>
<path d="M134.451 29.4658H135.29L136.518 32.5844H135.645L135.48 32.0928H134.28L134.115 32.5844H133.248L134.448 29.4658H134.451ZM135.287 31.5166L134.886 30.2277H134.877L134.476 31.5166H135.29H135.287Z" fill="white"/>
<path d="M137.985 29.4658H138.807L139.99 31.4593H139.998V29.4658H140.738V32.5844H139.924L138.733 30.6209H138.725V32.5844H137.985V29.4658Z" fill="white"/>
<path d="M142.486 29.4658H143.745C143.973 29.4658 144.2 29.4931 144.419 29.5532C144.613 29.6051 144.792 29.7007 144.942 29.829C145.093 29.9628 145.21 30.1294 145.281 30.3151C145.44 30.7766 145.44 31.2763 145.281 31.7406C145.21 31.9263 145.096 32.0928 144.942 32.2267C144.792 32.355 144.613 32.4506 144.419 32.5025C144.2 32.5625 143.973 32.5926 143.745 32.5898H142.486V29.4685V29.4658ZM143.296 31.929H143.762C143.896 31.9317 144.027 31.9099 144.149 31.858C144.249 31.8143 144.337 31.7488 144.405 31.6641C144.473 31.5795 144.519 31.4811 144.547 31.3774C144.604 31.1453 144.604 30.9049 144.547 30.6728C144.522 30.5691 144.473 30.4708 144.405 30.3861C144.337 30.3014 144.249 30.2359 144.146 30.1949C144.024 30.1458 143.89 30.1212 143.76 30.1239H143.299V31.929H143.296Z" fill="white"/>
<path d="M147.927 29.4658H148.766L149.994 32.5844H149.122L148.957 32.0928H147.757L147.592 32.5844H146.725L147.924 29.4658H147.927ZM148.763 31.5166L148.362 30.2277H148.354L147.953 31.5166H148.766H148.763Z" fill="white"/>
<path d="M151.462 29.4656H153.085C153.395 29.4492 153.7 29.5366 153.947 29.7141C154.171 29.9134 154.288 30.1974 154.262 30.4896C154.265 30.6808 154.203 30.8665 154.081 31.0167C153.955 31.1696 153.785 31.2788 153.591 31.3307L154.336 32.5841H153.427L152.787 31.4618H152.272V32.5841H151.459V29.4656H151.462ZM152.275 30.8856H153.02C153.134 30.8883 153.247 30.8528 153.336 30.7818C153.492 30.5961 153.492 30.3312 153.336 30.1455C153.247 30.0773 153.134 30.039 153.02 30.0418H152.275V30.8829V30.8856Z" fill="white"/>
<path d="M155.873 29.4658H157.132C157.36 29.4658 157.587 29.4931 157.809 29.5532C158.002 29.6051 158.181 29.7007 158.332 29.829C158.483 29.9628 158.599 30.1294 158.67 30.3151C158.83 30.7766 158.83 31.2763 158.67 31.7406C158.599 31.9263 158.486 32.0928 158.332 32.2267C158.181 32.355 158.002 32.4506 157.809 32.5025C157.59 32.5625 157.362 32.5926 157.132 32.5898H155.873V29.4685V29.4658ZM156.686 31.929H157.152C157.286 31.9317 157.416 31.9099 157.539 31.858C157.638 31.8143 157.726 31.7488 157.795 31.6641C157.863 31.5795 157.911 31.4811 157.937 31.3774C157.994 31.1453 157.994 30.9049 157.937 30.6728C157.911 30.5691 157.863 30.4708 157.795 30.3861C157.726 30.3014 157.638 30.2359 157.536 30.1949C157.414 30.1458 157.28 30.1212 157.149 30.1239H156.689V31.929H156.686Z" fill="white"/>
</g>
<defs>
<clipPath id="clip0_3016_11373">
<rect width="171" height="40" fill="white" transform="translate(0.151367)"/>
</clipPath>
</defs>
</svg>
