<svg width="200" height="50" viewBox="0 0 200 50" fill="none" xmlns="http://www.w3.org/2000/svg">
<path d="M57.2256 17.645L61.3688 27.9072H60.2747L59.0739 24.8232H54.3771L53.1018 27.9072H52.0498L56.4034 17.645H57.2288H57.2256ZM58.7404 24.0149L56.7595 18.9538L54.7202 24.0149H58.7404Z" fill="white"/>
<path d="M66.6637 24.8225C66.6701 25.2049 66.7575 25.5811 66.9194 25.9324C67.0618 26.2277 67.2722 26.4888 67.5344 26.6971C67.8095 26.9054 68.1267 27.0577 68.4634 27.1355C68.855 27.2318 69.2596 27.2785 69.6643 27.2722C70.0559 27.2754 70.4476 27.2256 70.8263 27.1199C71.1597 27.0298 71.4737 26.8836 71.7553 26.694C72.011 26.523 72.2214 26.2992 72.3703 26.0381C72.5192 25.7738 72.5936 25.4785 72.5872 25.18C72.6033 24.8412 72.5062 24.5054 72.3088 24.2225C72.1178 23.9707 71.8718 23.7624 71.587 23.6101C71.2665 23.436 70.9234 23.3023 70.5673 23.2153C70.1822 23.1158 69.7905 23.0132 69.3956 22.9137C69.0007 22.8142 68.609 22.6961 68.2238 22.5655C67.8581 22.4474 67.515 22.2733 67.2042 22.0526C66.9032 21.835 66.6572 21.5583 66.4824 21.2381C66.285 20.8495 66.1878 20.4236 66.204 19.9914C66.1911 19.5718 66.3011 19.1552 66.5277 18.7946C66.7381 18.4712 67.0165 18.1977 67.3466 17.9863C67.68 17.7749 68.0523 17.6163 68.4407 17.5262C68.8227 17.4329 69.2176 17.3832 69.6125 17.3832C70.4282 17.3614 71.2374 17.5355 71.9689 17.8868C72.6778 18.2785 73.1989 18.9189 73.4255 19.6743L72.4803 20.1624C72.3185 19.5655 71.9268 19.0464 71.3863 18.7137C70.849 18.4153 70.2372 18.263 69.6157 18.2754C69.3341 18.2754 69.0557 18.3127 68.7838 18.3842C68.5087 18.4526 68.2497 18.5614 68.0102 18.7075C67.7836 18.8474 67.5926 19.0308 67.447 19.2484C67.3013 19.4692 67.2269 19.7272 67.2301 19.9914C67.2139 20.3241 67.311 20.6505 67.5085 20.9241C67.7027 21.1666 67.9455 21.3655 68.2271 21.5085C68.5508 21.6733 68.8939 21.7977 69.2467 21.8847C69.6319 21.9811 70.0236 22.0774 70.4185 22.1738C70.8134 22.2702 71.205 22.3821 71.5902 22.5034C71.956 22.6184 72.2991 22.7863 72.6098 23.0008C72.9109 23.2122 73.1569 23.4857 73.3317 23.7997C73.5291 24.179 73.6262 24.6018 73.61 25.0246C73.6683 25.9168 73.2831 26.7811 72.5742 27.3593C71.8848 27.8971 70.9137 28.1676 69.6643 28.1676C69.1658 28.1707 68.6705 28.1209 68.185 28.0184C67.761 27.9251 67.3596 27.7603 67.0003 27.5272C66.6507 27.2971 66.3562 26.9956 66.1393 26.6474C65.8933 26.2401 65.725 25.7925 65.644 25.3292L66.6637 24.8256V24.8225Z" fill="white"/>
<path d="M79.5858 24.8225C79.5923 25.2049 79.6797 25.5811 79.8416 25.9324C79.984 26.2277 80.1944 26.4888 80.4566 26.6971C80.7317 26.9054 81.0489 27.0577 81.3856 27.1355C81.7772 27.2318 82.1818 27.2785 82.5864 27.2722C82.9781 27.2754 83.3698 27.2256 83.7485 27.1199C84.0819 27.0298 84.3959 26.8836 84.6775 26.694C84.9332 26.523 85.1436 26.2992 85.2925 26.0381C85.4414 25.7738 85.5158 25.4785 85.5093 25.18C85.5255 24.8412 85.4284 24.5054 85.231 24.2225C85.04 23.9707 84.794 23.7624 84.5091 23.6101C84.1887 23.436 83.8456 23.3023 83.4895 23.2153C83.1043 23.1158 82.7127 23.0132 82.3178 22.9137C81.9229 22.8142 81.5312 22.6961 81.146 22.5655C80.7802 22.4474 80.4371 22.2733 80.1264 22.0526C79.8254 21.835 79.5794 21.5583 79.4046 21.2381C79.2071 20.8495 79.11 20.4236 79.1262 19.9914C79.1133 19.5718 79.2233 19.1552 79.4499 18.7946C79.6603 18.4712 79.9387 18.1977 80.2688 17.9863C80.6022 17.7749 80.9745 17.6163 81.3629 17.5262C81.7448 17.4329 82.1397 17.3832 82.5346 17.3832C83.3503 17.3614 84.1596 17.5355 84.8911 17.8868C85.6 18.2785 86.1211 18.9189 86.3477 19.6743L85.4025 20.1624C85.2407 19.5655 84.849 19.0464 84.3085 18.7137C83.7711 18.4153 83.1594 18.263 82.5379 18.2754C82.2563 18.2754 81.9779 18.3127 81.706 18.3842C81.4309 18.4526 81.1719 18.5614 80.9324 18.7075C80.7058 18.8474 80.5148 19.0308 80.3692 19.2484C80.2235 19.4692 80.1458 19.7272 80.1523 19.9914C80.1361 20.3241 80.2332 20.6505 80.4307 20.9241C80.6249 21.1666 80.8676 21.3655 81.1493 21.5085C81.4729 21.6733 81.8161 21.7977 82.1689 21.8847C82.5541 21.9811 82.9457 22.0774 83.3406 22.1738C83.7355 22.2702 84.1272 22.3821 84.5124 22.5034C84.8781 22.6184 85.2213 22.7863 85.532 23.0008C85.8298 23.2122 86.0758 23.4857 86.2506 23.7997C86.448 24.179 86.5451 24.6018 86.529 25.0246C86.5872 25.9168 86.202 26.7811 85.4932 27.3593C84.8037 27.8971 83.8326 28.1676 82.5832 28.1676C82.0847 28.1707 81.5895 28.1209 81.1039 28.0184C80.6799 27.9251 80.2785 27.7603 79.9192 27.5272C79.5697 27.2971 79.2751 26.9956 79.0582 26.6474C78.8122 26.2401 78.6439 25.7925 78.563 25.3292L79.5858 24.8256V24.8225Z" fill="white"/>
<path d="M99.8168 24.5771C99.8265 25.1056 99.7327 25.631 99.5385 26.1253C99.3669 26.5543 99.095 26.9398 98.7422 27.2507C98.3829 27.5616 97.9589 27.7948 97.496 27.9346C96.444 28.2393 95.3208 28.2393 94.2688 27.9346C93.8059 27.7948 93.3819 27.5616 93.0226 27.2507C92.673 26.9398 92.3979 26.5543 92.2263 26.1253C92.0321 25.631 91.9382 25.1056 91.9479 24.5771V17.6445H92.9676V24.5492C92.9546 24.9813 93.0323 25.4134 93.2006 25.8176C93.4693 26.4642 94.0422 26.9523 94.7446 27.1295C95.4859 27.3222 96.2692 27.3222 97.0104 27.1295C97.7128 26.9523 98.2858 26.4673 98.5544 25.8176C98.7195 25.4134 98.8004 24.9844 98.7875 24.5492V17.6445H99.8071V24.5771H99.8168Z" fill="white"/>
<path d="M105.612 17.6447H110.338C110.823 17.6323 111.305 17.7162 111.755 17.8903C112.121 18.0333 112.451 18.254 112.723 18.5307C112.972 18.795 113.163 19.1058 113.28 19.4478C113.4 19.7867 113.458 20.1411 113.461 20.4986C113.513 21.2602 113.206 22.0001 112.62 22.5162C111.963 23.0136 111.16 23.2903 110.325 23.3089L113.746 27.9069H112.455L109.062 23.3525H106.631V27.9069H105.612V17.6416V17.6447ZM106.631 22.4571H109.797C110.244 22.4696 110.69 22.4105 111.118 22.2768C111.416 22.1804 111.691 22.025 111.921 21.8167C112.108 21.6426 112.247 21.4281 112.325 21.1887C112.4 20.9649 112.438 20.7317 112.438 20.4955C112.464 19.967 112.264 19.4509 111.882 19.0685C111.513 18.7141 110.872 18.5338 109.962 18.5338H106.631V22.454V22.4571Z" fill="white"/>
<path d="M118.532 17.6447H125.527V18.54H119.552V22.1711H124.941V23.0665H119.552V27.0146H125.841V27.9069H118.535V17.6416L118.532 17.6447Z" fill="white"/>
<path d="M139.334 17.6439H143.536C144.028 17.6377 144.52 17.7123 144.986 17.8677C145.387 18.0045 145.763 18.2097 146.09 18.474C146.401 18.7289 146.666 19.0304 146.876 19.3662C147.09 19.705 147.265 20.0688 147.394 20.448C147.524 20.8273 147.618 21.219 147.673 21.6138C147.728 21.9993 147.754 22.3879 147.754 22.7765C147.747 23.3548 147.676 23.9299 147.537 24.4895C147.398 25.0833 147.148 25.646 146.802 26.1558C146.446 26.6687 145.973 27.0978 145.42 27.4086C144.756 27.7599 144.009 27.9309 143.251 27.9061H139.334V17.6439ZM140.354 27.0107H143.19C143.772 27.0294 144.348 26.8988 144.863 26.6346C145.303 26.3983 145.679 26.0656 145.957 25.6615C146.239 25.248 146.439 24.791 146.549 24.3061C146.669 23.8024 146.731 23.2864 146.731 22.7703C146.731 22.2791 146.672 21.7879 146.566 21.3061C146.465 20.8211 146.278 20.3579 146.012 19.9382C145.753 19.531 145.4 19.1859 144.983 18.931C144.507 18.6543 143.957 18.5144 143.4 18.533H140.354V27.0076V27.0107Z" fill="white"/>
<path d="M153.139 17.6447H160.13V18.54H154.158V22.1711H159.548V23.0665H154.158V27.0146H160.448V27.9069H153.139V17.6416V17.6447Z" fill="white"/>
<path d="M165.788 17.6445H172.75V18.5399H166.807V21.972H172.119V22.8642H166.807V27.9098H165.788V17.6476V17.6445Z" fill="white"/>
<path d="M178.069 17.6445H179.088V27.9067H178.069V17.6445Z" fill="white"/>
<path d="M46 42.5845V43H30.7561V42.5845C31.7662 42.5845 32.5058 41.8748 32.9748 40.4573C33.1732 39.863 33.2734 39.2417 33.2714 38.6166C33.2513 37.578 33.0409 36.5509 32.6501 35.5815L31.0808 31.8982L30.8924 31.4847H30.9185L24.1884 15.6879L24 15.1436L27.4592 7H27.8941L40.3782 36.3316C41.0677 37.9511 42.0177 39.4552 43.1901 40.7939C44.2503 41.9883 45.1863 42.5845 45.998 42.5826L46 42.5845Z" fill="white"/>
<path d="M27 33.501C22.0293 33.501 17.999 37.753 17.999 43C17.999 37.753 13.9727 33.501 9 33.501C13.9707 33.501 17.999 29.247 17.999 24C17.999 29.247 22.0273 33.501 27 33.501Z" fill="white"/>
<path d="M185.873 13.429H184.934V16.0591H184.365V13.429H183.429V13H185.876V13.429H185.873Z" fill="white"/>
<path d="M190.393 13V16.0591H189.823L189.839 13.6528H189.83L188.881 16.0591H188.431L187.538 13.6528H187.528L187.544 16.0591H187.004V13H187.787L188.674 15.4124H188.687L189.613 13H190.396H190.393Z" fill="white"/>
<path d="M52.0474 34.0215H54.7178V34.3324H53.559V37.5748H53.2062V34.3324H52.0474V34.0215Z" fill="white"/>
<path d="M56.4878 34.0215H56.8406V35.5883H59.0546V34.0215H59.4075V37.5717H59.0546V35.8961H56.8406V37.5717H56.4878V34.0215Z" fill="white"/>
<path d="M61.459 34.0215H63.8802V34.3324H61.8118V35.5883H63.6762V35.8992H61.8118V37.2671H63.987V37.5779H61.459V34.0215Z" fill="white"/>
<path d="M68.2402 34.0215H68.619L69.7778 37.0339L70.956 34.0215H71.3185L69.9331 37.5717H69.6224L68.2402 34.0215Z" fill="white"/>
<path d="M72.957 34.0215H75.3782V34.3324H73.3099V35.5883H75.1743V35.8992H73.3099V37.2671H75.4883V37.5779H72.9603V34.0215H72.957Z" fill="white"/>
<path d="M77.3367 34.0217H78.9746C79.1429 34.0186 79.3112 34.0466 79.4666 34.1057C79.5928 34.1554 79.7061 34.2331 79.8 34.3264C79.8874 34.4165 79.9521 34.5253 79.991 34.6435C80.0331 34.7616 80.0525 34.8829 80.0525 35.0072C80.0719 35.2715 79.9651 35.5264 79.7612 35.7067C79.5346 35.8777 79.2562 35.9771 78.9649 35.9834L80.1496 37.5751H79.7029L78.5279 35.9989H77.6863V37.5751H77.3335V34.0217H77.3367ZM77.6896 35.688H78.7869C78.9422 35.6911 79.0976 35.6725 79.2433 35.6259C79.3468 35.5917 79.4407 35.5388 79.5216 35.4673C79.5864 35.4082 79.6349 35.3336 79.6608 35.2497C79.6867 35.172 79.6997 35.0911 79.6997 35.0103C79.7094 34.8269 79.6382 34.6497 79.5087 34.516C79.3209 34.373 79.0814 34.3077 78.8451 34.3326H77.6928V35.688H77.6896Z" fill="white"/>
<path d="M81.8677 34.0215H82.2205V37.5717H81.8677V34.0215Z" fill="white"/>
<path d="M84.2549 34.0215H86.6631V34.3324H84.6077V35.5199H86.4463V35.8308H84.6077V37.5779H84.2549V34.0246V34.0215Z" fill="white"/>
<path d="M88.5063 34.0215H88.8592V37.5717H88.5063V34.0215Z" fill="white"/>
<path d="M93.4556 35.0192C93.42 34.9042 93.3747 34.7954 93.3164 34.6897C93.2646 34.5964 93.1934 34.5125 93.1093 34.4441C93.0186 34.3757 92.9151 34.3229 92.805 34.2918C92.6658 34.2545 92.5202 34.2358 92.3777 34.2389C92.19 34.2358 92.0055 34.2731 91.8339 34.3508C91.6818 34.4254 91.5491 34.5343 91.4488 34.6679C91.3419 34.8172 91.261 34.9819 91.2189 35.1591C91.1639 35.3674 91.138 35.5819 91.1412 35.7964C91.1348 36.0389 91.1671 36.2814 91.2383 36.5177C91.2901 36.6949 91.384 36.8596 91.507 36.9995C91.6203 37.1208 91.7595 37.2109 91.9181 37.27C92.0832 37.3291 92.258 37.357 92.436 37.3539C92.6788 37.3695 92.9215 37.298 93.1125 37.1519C93.2808 37.0026 93.4071 36.8099 93.475 36.5985L93.8117 36.7726C93.7113 37.0555 93.5106 37.298 93.2485 37.4565C92.9798 37.5995 92.6755 37.671 92.368 37.6617C92.1576 37.6617 91.9505 37.6275 91.753 37.5591C91.562 37.4907 91.3872 37.3788 91.2513 37.2327C91.0959 37.0648 90.9826 36.869 90.9147 36.6545C90.8273 36.3778 90.7852 36.0855 90.7917 35.7964C90.7852 35.5042 90.8273 35.2151 90.9211 34.9384C90.9923 34.7239 91.1121 34.528 91.2675 34.3602C91.4034 34.214 91.575 34.1021 91.7627 34.0337C91.9472 33.9653 92.1447 33.9312 92.3454 33.9312C92.5137 33.9312 92.6788 33.9467 92.8438 33.9809C92.9863 34.012 93.1222 34.0648 93.2452 34.1394C93.3682 34.2141 93.475 34.3104 93.5657 34.4223C93.666 34.5529 93.7502 34.6959 93.8149 34.8451L93.4621 35.0161L93.4556 35.0192Z" fill="white"/>
<path d="M96.9874 34.0215L98.4214 37.5717H98.0427L97.6283 36.5054H96.0034L95.5632 37.5717H95.2007L96.7058 34.0215H96.9907H96.9874ZM97.5118 36.2256L96.8256 34.4754L96.12 36.2256H97.5118Z" fill="white"/>
<path d="M99.3662 34.0215H102.037V34.3324H100.878V37.5748H100.525V34.3324H99.3662V34.0215Z" fill="white"/>
<path d="M103.79 34.0215H104.142V37.5717H103.79V34.0215Z" fill="white"/>
<path d="M106.073 35.7971C106.073 35.5639 106.105 35.3308 106.17 35.1069C106.228 34.8924 106.328 34.6904 106.464 34.5101C106.597 34.336 106.765 34.193 106.963 34.0873C107.413 33.8759 107.937 33.8759 108.387 34.0873C108.585 34.1898 108.753 34.336 108.886 34.5101C109.022 34.6904 109.119 34.8924 109.18 35.1069C109.31 35.5577 109.31 36.0334 109.18 36.4841C109.122 36.6986 109.022 36.9007 108.886 37.081C108.753 37.2551 108.585 37.3981 108.387 37.5038C107.937 37.7183 107.413 37.7183 106.963 37.5038C106.765 37.4012 106.597 37.2551 106.464 37.081C106.332 36.9007 106.231 36.6986 106.17 36.4841C106.105 36.2603 106.073 36.0303 106.073 35.7971ZM106.426 35.7971C106.426 35.9836 106.448 36.1702 106.497 36.3536C106.542 36.5308 106.617 36.6986 106.72 36.8541C106.82 37.0002 106.953 37.1246 107.109 37.2147C107.458 37.4012 107.885 37.4012 108.235 37.2147C108.39 37.1246 108.523 37.0002 108.623 36.8541C108.727 36.7018 108.801 36.5339 108.847 36.3536C108.941 35.9898 108.941 35.6075 108.847 35.2437C108.805 35.0665 108.727 34.8955 108.623 34.7432C108.523 34.5971 108.39 34.4727 108.235 34.3826C107.885 34.1961 107.458 34.1961 107.109 34.3826C106.953 34.4727 106.82 34.5971 106.72 34.7432C106.617 34.8955 106.539 35.0665 106.497 35.2437C106.451 35.424 106.426 35.6106 106.426 35.7971Z" fill="white"/>
<path d="M111.212 34.0215H111.562L113.676 37.0028H113.685V34.0215H114.038V37.5717H113.689L111.575 34.5904H111.565V37.5717H111.212V34.0215Z" fill="white"/>
<path d="M121.442 35.1343C121.271 34.8297 120.931 34.6494 120.569 34.6711C120.31 34.6618 120.057 34.7613 119.879 34.9416C119.682 35.1841 119.591 35.4919 119.617 35.7965C119.601 36.0887 119.685 36.3779 119.856 36.6203C120.028 36.8286 120.293 36.9437 120.569 36.925C120.659 36.925 120.747 36.9126 120.834 36.8877C120.925 36.8628 121.012 36.8255 121.09 36.7727C121.171 36.7198 121.239 36.6514 121.29 36.5737C121.349 36.4867 121.381 36.3841 121.391 36.2815H120.569V35.5913H122.168V37.5716H121.449V37.2514C121.323 37.3882 121.167 37.4939 120.993 37.5623C120.795 37.6369 120.585 37.6742 120.374 37.6711C120.122 37.6773 119.869 37.6276 119.64 37.5312C119.436 37.4442 119.258 37.3105 119.115 37.1457C118.969 36.9716 118.863 36.7727 118.798 36.5582C118.723 36.3157 118.688 36.0639 118.691 35.8121C118.691 35.5571 118.727 35.3053 118.804 35.0597C118.876 34.839 118.989 34.6338 119.144 34.4597C119.3 34.2888 119.494 34.152 119.711 34.0618C119.96 33.9623 120.232 33.9157 120.501 33.9188C120.844 33.9126 121.184 33.9903 121.491 34.1426C121.789 34.295 122.035 34.525 122.206 34.8048L121.442 35.1281V35.1343Z" fill="white"/>
<path d="M127.672 35.7964C127.672 36.0389 127.63 36.2813 127.546 36.5083C127.465 36.729 127.342 36.9311 127.18 37.1083C127.019 37.2855 126.818 37.4254 126.594 37.5186C126.09 37.7238 125.52 37.7238 125.015 37.5186C124.792 37.4223 124.591 37.2824 124.429 37.1083C124.267 36.9342 124.144 36.729 124.063 36.5083C123.895 36.0482 123.895 35.5446 124.063 35.0813C124.144 34.8606 124.267 34.6585 124.429 34.4813C124.591 34.3073 124.792 34.1643 125.015 34.071C125.52 33.8689 126.09 33.8689 126.594 34.071C126.818 34.1674 127.019 34.3073 127.18 34.4813C127.342 34.6554 127.465 34.8606 127.546 35.0813C127.63 35.3114 127.676 35.5508 127.672 35.7933V35.7964ZM126.747 35.7964C126.747 35.6565 126.73 35.5197 126.695 35.386C126.662 35.2585 126.607 35.1342 126.53 35.0254C126.455 34.9197 126.355 34.8295 126.235 34.7674C126.102 34.699 125.95 34.6648 125.798 34.671C125.669 34.671 125.543 34.6927 125.423 34.7363C125.309 34.7798 125.206 34.8482 125.125 34.9352C125.034 35.0378 124.966 35.156 124.928 35.2834C124.876 35.4513 124.853 35.6223 124.856 35.7964C124.856 35.93 124.872 36.0606 124.902 36.1912C124.931 36.3218 124.983 36.443 125.054 36.5549C125.128 36.6637 125.225 36.757 125.345 36.8223C125.484 36.8938 125.643 36.9311 125.801 36.9249C126.093 36.9342 126.368 36.8005 126.53 36.5642C126.607 36.4554 126.662 36.3311 126.695 36.2036C126.73 36.0699 126.747 35.9332 126.747 35.7964Z" fill="white"/>
<path d="M129.523 34.0215H130.449V36.8256H131.896V37.5748H129.523V34.0246V34.0215Z" fill="white"/>
<path d="M133.685 34.0215H135.119C135.378 34.0215 135.637 34.0526 135.886 34.121C136.106 34.18 136.31 34.2888 136.482 34.435C136.653 34.5873 136.786 34.7769 136.867 34.9883C137.048 35.5137 137.048 36.0826 136.867 36.6111C136.786 36.8225 136.657 37.0121 136.482 37.1645C136.31 37.3106 136.106 37.4194 135.886 37.4785C135.637 37.5469 135.378 37.5811 135.119 37.5779H133.685V34.0246V34.0215ZM134.611 36.8256H135.142C135.294 36.8287 135.443 36.8039 135.582 36.7448C135.695 36.695 135.796 36.6204 135.873 36.5241C135.951 36.4277 136.003 36.3158 136.035 36.1976C136.1 35.9334 136.1 35.6598 136.035 35.3956C136.006 35.2774 135.951 35.1655 135.873 35.0691C135.796 34.9728 135.695 34.8982 135.579 34.8515C135.439 34.7956 135.287 34.7676 135.138 34.7707H134.614V36.8256H134.611Z" fill="white"/>
<path d="M141.959 36.5115C142.108 36.642 142.273 36.7508 142.451 36.8379C142.632 36.9187 142.829 36.9591 143.03 36.956C143.101 36.956 143.173 36.9498 143.244 36.9374C143.321 36.9249 143.399 36.9032 143.47 36.869C143.538 36.8379 143.6 36.7944 143.652 36.7415C143.7 36.6887 143.726 36.6172 143.723 36.5456C143.726 36.4648 143.687 36.3871 143.619 36.3374C143.525 36.2814 143.419 36.2441 143.309 36.2317L142.538 36.1104C142.247 36.0824 141.968 35.9643 141.748 35.7778C141.567 35.6099 141.47 35.3736 141.48 35.1312C141.473 34.9415 141.519 34.7519 141.606 34.5778C141.684 34.4286 141.8 34.298 141.939 34.2016C142.085 34.1021 142.25 34.0306 142.422 33.9871C142.606 33.9405 142.797 33.9156 142.991 33.9187C143.299 33.9187 143.6 33.9778 143.881 34.0928C144.163 34.2078 144.416 34.3819 144.623 34.6027L143.92 35.0845C143.678 34.7985 143.312 34.6306 142.93 34.6368C142.872 34.6368 142.813 34.6462 142.758 34.6617C142.697 34.6773 142.642 34.699 142.587 34.7301C142.535 34.7581 142.493 34.7985 142.457 34.842C142.37 34.9602 142.396 35.1249 142.519 35.2089C142.522 35.2089 142.525 35.2151 142.532 35.2151C142.651 35.2773 142.784 35.3177 142.92 35.3332L143.273 35.3892C143.448 35.4172 143.623 35.4545 143.791 35.5011C143.943 35.5415 144.085 35.6037 144.218 35.6845C144.338 35.756 144.438 35.8555 144.509 35.9736C144.584 36.1042 144.623 36.2534 144.616 36.4026C144.626 36.6296 144.568 36.8534 144.451 37.0524C144.348 37.214 144.202 37.3446 144.03 37.4379C143.859 37.5311 143.674 37.5933 143.48 37.6213C143.296 37.6524 143.111 37.6679 142.923 37.6679C142.622 37.6679 142.321 37.6151 142.043 37.5063C141.742 37.3757 141.473 37.1861 141.256 36.9467L141.962 36.5115H141.959Z" fill="white"/>
<path d="M146.161 34.0215H149.019V34.7085H148.055V37.5717H147.129V34.7085H146.164V34.0215H146.161Z" fill="white"/>
<path d="M151.377 34.0215H152.332L153.73 37.5717H152.737L152.549 37.0121H151.183L150.995 37.5717H150.008L151.374 34.0215H151.377ZM152.329 36.3562L151.872 34.8888H151.863L151.406 36.3562H152.332H152.329Z" fill="white"/>
<path d="M155.401 34.0215H156.336L157.683 36.2909H157.693V34.0215H158.534V37.5717H157.608L156.252 35.3365H156.242V37.5717H155.401V34.0215Z" fill="white"/>
<path d="M160.524 34.0215H161.958C162.217 34.0215 162.476 34.0526 162.725 34.121C162.946 34.18 163.15 34.2888 163.321 34.435C163.493 34.5873 163.625 34.7769 163.706 34.9883C163.888 35.5137 163.888 36.0826 163.706 36.6111C163.625 36.8225 163.496 37.0121 163.321 37.1645C163.15 37.3106 162.946 37.4194 162.725 37.4785C162.476 37.5469 162.217 37.5811 161.958 37.5779H160.524V34.0246V34.0215ZM161.447 36.8256H161.978C162.13 36.8287 162.279 36.8039 162.418 36.7448C162.531 36.695 162.632 36.6204 162.709 36.5241C162.787 36.4277 162.839 36.3158 162.871 36.1976C162.936 35.9334 162.936 35.6598 162.871 35.3956C162.842 35.2774 162.787 35.1655 162.709 35.0691C162.632 34.9728 162.531 34.8982 162.415 34.8515C162.276 34.7956 162.123 34.7676 161.975 34.7707H161.45V36.8256H161.447Z" fill="white"/>
<path d="M166.719 34.0215H167.674L169.073 37.5717H168.079L167.891 37.0121H166.525L166.337 37.5717H165.35L166.716 34.0215H166.719ZM167.671 36.3562L167.215 34.8888H167.205L166.748 36.3562H167.674H167.671Z" fill="white"/>
<path d="M170.743 34.0213H172.591C172.944 34.0026 173.29 34.1021 173.572 34.3042C173.828 34.5311 173.96 34.8544 173.931 35.1871C173.935 35.4047 173.863 35.6161 173.724 35.7871C173.582 35.9612 173.388 36.0855 173.167 36.1446L174.015 37.5715H172.98L172.251 36.2938H171.665V37.5715H170.74V34.0213H170.743ZM171.669 35.6378H172.517C172.646 35.6409 172.776 35.6005 172.876 35.5197C173.054 35.3083 173.054 35.0067 172.876 34.7954C172.776 34.7176 172.646 34.6741 172.517 34.6772H171.669V35.6347V35.6378Z" fill="white"/>
<path d="M175.764 34.0215H177.198C177.457 34.0215 177.716 34.0526 177.968 34.121C178.189 34.18 178.393 34.2888 178.564 34.435C178.736 34.5873 178.868 34.7769 178.949 34.9883C179.131 35.5137 179.131 36.0826 178.949 36.6111C178.868 36.8225 178.739 37.0121 178.564 37.1645C178.393 37.3106 178.189 37.4194 177.968 37.4785C177.719 37.5469 177.46 37.5811 177.198 37.5779H175.764V34.0246V34.0215ZM176.69 36.8256H177.221C177.373 36.8287 177.522 36.8039 177.661 36.7448C177.774 36.695 177.875 36.6204 177.952 36.5241C178.03 36.4277 178.085 36.3158 178.114 36.1976C178.179 35.9334 178.179 35.6598 178.114 35.3956C178.085 35.2774 178.03 35.1655 177.952 35.0691C177.875 34.9728 177.774 34.8982 177.658 34.8515C177.519 34.7956 177.366 34.7676 177.218 34.7707H176.693V36.8256H176.69Z" fill="white"/>
</svg>
