<svg width="200" height="50" viewBox="0 0 200 50" fill="none" xmlns="http://www.w3.org/2000/svg">
<g clip-path="url(#clip0_3033_2553)">
<mask id="mask0_3033_2553" style="mask-type:luminance" maskUnits="userSpaceOnUse" x="31" y="7" width="138" height="36">
<path d="M168.833 7.22363H31L31.0107 42.7468H168.844L168.833 7.22363Z" fill="white"/>
</mask>
<g mask="url(#mask0_3033_2553)">
<path d="M58.4016 22.7252C59.3175 23.5028 60.3208 23.9249 61.2528 24.4509C61.8958 24.8129 62.2255 25.2398 62.1721 25.9915C62.0008 28.4201 62.0437 30.8535 62.0445 33.287C62.0446 33.7951 61.8028 34.0695 61.3954 34.3049C58.2855 36.1085 55.1838 37.9251 52.0788 39.7335C50.4913 40.6589 48.8893 41.5598 47.3133 42.5063C46.8118 42.8066 46.3848 42.8342 45.8864 42.5274C45.0128 41.9868 44.1247 41.4689 43.2268 40.9689C42.8208 40.7433 42.66 40.4397 42.668 39.9851C42.6856 38.9851 42.6609 37.9835 42.6736 36.9835C42.6815 36.3942 42.4494 36.3309 41.99 36.6036C41.1541 37.102 40.3036 37.576 39.4758 38.0858C39.062 38.3406 38.7129 38.3553 38.2794 38.0971C36.0955 36.7968 33.9019 35.5143 31.6954 34.2562C31.2083 33.9786 31.0215 33.636 31.0164 33.0873C30.9742 27.6262 31.0846 22.1667 31.1543 16.7073C31.1607 16.256 31.3132 15.9491 31.719 15.7219C32.615 15.2219 33.4979 14.6942 34.376 14.1634C34.8143 13.8988 35.2071 13.8842 35.6585 14.1666C36.3908 14.6261 37.1572 15.0303 37.9073 15.4621C38.6607 15.8956 38.7841 15.8355 38.7952 14.9913C38.8063 14.0985 38.8157 13.2056 38.7976 12.3143C38.7861 11.7916 39.0084 11.4734 39.4596 11.2153C41.6654 9.95393 43.8599 8.67631 46.0478 7.38409C46.426 7.16006 46.7247 7.17792 47.0949 7.3922C51.1184 9.7234 55.1467 12.0432 59.1751 14.3647C59.948 14.8095 60.7111 15.2754 61.5018 15.6878C61.9678 15.9313 62.1741 16.2673 62.1677 16.7836C62.1551 17.8112 62.1602 18.8388 62.1638 19.8664C62.1639 20.3469 61.9611 20.6651 61.531 20.9037C60.5003 21.4768 59.4907 22.0904 58.4032 22.7268L58.4016 22.7252ZM58.0876 20.4346C58.0876 20.3258 58.0875 20.2187 58.0875 20.1099C58.0775 19.1878 58.225 18.3436 57.09 17.7332C53.7843 15.9524 50.5645 14.0124 47.3236 12.113C46.8252 11.8208 46.3933 11.7624 45.8918 12.0708C45.1322 12.5384 44.3482 12.9637 43.5853 13.4248C42.8809 13.8501 42.8793 13.9085 43.6197 14.3355C45.4691 15.402 47.3298 16.4491 49.1791 17.5157C51.9199 19.0937 54.6558 20.6781 57.3885 22.2706C57.8691 22.5515 58.1288 22.5645 58.0913 21.894C58.0636 21.4086 58.0861 20.9216 58.086 20.4346H58.0876ZM58.0887 29.5711C58.0886 29.1392 58.0934 28.7058 58.0884 28.274C58.0784 27.3908 58.0329 27.3665 57.2489 27.8178C54.6974 29.287 52.1475 30.7561 49.5976 32.2253C47.632 33.3568 45.6599 34.4786 43.6992 35.6215C42.9623 36.0517 42.9753 36.1864 43.7222 36.6247C44.3749 37.0078 45.0504 37.3536 45.6804 37.7708C46.3234 38.1962 46.8575 38.1523 47.531 37.7497C50.4055 36.0322 53.2833 34.3146 56.2325 32.7302C57.5814 32.0061 58.5633 31.2724 58.0904 29.5711H58.0887ZM38.7868 25.0207H38.7982C38.7974 22.3697 38.7998 19.7187 38.7942 17.066C38.7923 16.243 38.7014 16.2008 37.9823 16.6245C37.2844 17.0368 36.5995 17.4768 35.8772 17.842C35.2669 18.1505 35.0559 18.5774 35.0626 19.2592C35.0962 22.722 35.1524 26.1863 35.0544 29.6474C35.0143 31.0581 35.2954 32.0484 36.716 32.5419C37.1657 32.6993 37.5522 33.0338 37.9776 33.2724C38.705 33.6815 38.7878 33.636 38.7892 32.8097C38.7933 30.2123 38.7892 27.6149 38.7885 25.0174L38.7868 25.0207ZM42.7397 24.6457C42.7922 26.4915 42.6678 28.5175 42.8421 30.5402C42.9138 31.3682 42.9593 31.4233 43.6653 31.0175C46.9181 29.149 50.1626 27.2658 53.417 25.3989C53.9007 25.1213 54.011 24.9411 53.433 24.6099C50.1304 22.7171 46.8457 20.7934 43.5497 18.8907C42.9083 18.5206 42.7476 18.618 42.743 19.3648C42.7305 21.0661 42.7391 22.7674 42.7397 24.6457Z" fill="white"/>
<path d="M69.1139 23.903C69.113 20.9485 69.1462 17.9939 69.095 15.0409C69.0735 13.7828 69.5392 13.2682 70.8217 13.2876C74.2682 13.3396 77.7163 13.2324 81.1612 13.3347C85.8463 13.4743 88.5959 17.4565 87.0908 21.8705C86.8134 22.6822 86.9824 23.1206 87.5296 23.7212C89.454 25.8332 89.7794 28.317 88.699 30.895C87.6446 33.4112 85.554 34.6678 82.8819 34.7278C78.8364 34.8204 74.786 34.7343 70.7373 34.7668C69.5392 34.7765 69.0862 34.2798 69.1037 33.0931C69.1466 30.0297 69.1164 26.9664 69.1155 23.903H69.1139ZM74.4208 24.0507C74.4213 25.5848 74.4331 27.119 74.4173 28.6514C74.4079 29.5622 74.7197 30.1222 75.7327 30.1141C77.9227 30.0963 80.1143 30.119 82.3058 30.0881C83.465 30.0719 83.9307 29.3836 83.9482 28.2716C83.9689 27.0962 83.5077 26.3527 82.269 26.3073C81.066 26.2634 79.8582 26.2991 78.6537 26.2748C77.3744 26.2472 75.518 23.4566 75.9787 22.278C76.1929 21.7309 76.6815 21.8348 77.0971 21.8235C78.2465 21.7959 79.3991 21.8316 80.5468 21.7877C81.7709 21.7407 82.2609 21.0004 82.2752 19.838C82.291 18.6173 81.7178 17.9987 80.4937 17.9955C78.9596 17.9906 77.4255 18.0117 75.893 17.9793C74.8557 17.9565 74.3899 18.4078 74.4097 19.4501C74.4394 20.9825 74.4187 22.5167 74.4192 24.0507H74.4208Z" fill="white"/>
<path d="M107.247 34.7532C105.221 34.7532 103.195 34.7402 101.17 34.758C100.039 34.7678 99.586 34.4285 99.9476 33.1785C100.83 30.1346 100.783 30.1216 103.947 30.12C106.629 30.12 109.312 30.0989 111.994 30.1248C113.33 30.1378 114.234 29.7774 114.239 28.2125C114.243 26.6784 113.426 26.2368 112.041 26.2693C110.072 26.3147 108.1 26.3115 106.129 26.266C101.933 26.167 99.6055 23.8033 99.6172 19.7075C99.6274 15.826 102.088 13.3811 106.149 13.3162C109.434 13.2626 112.719 13.3308 116.003 13.2919C117.401 13.2756 117.694 13.8211 117.314 15.1133C116.484 17.9478 116.502 17.977 113.484 17.9786C111.239 17.9786 108.995 17.9883 106.75 17.9819C105.547 17.9786 104.721 18.3536 104.726 19.7497C104.73 21.1004 105.378 21.792 106.72 21.8017C108.855 21.8163 110.991 21.7855 113.126 21.8228C117.058 21.891 119.518 24.2611 119.557 27.9755C119.598 31.9431 117.093 34.6233 113.159 34.7434C111.19 34.8035 109.218 34.7532 107.247 34.7548L107.247 34.7532Z" fill="white"/>
<path d="M126.776 23.4283C129.18 20.6393 131.369 18.2887 133.329 15.7594C134.759 13.9152 136.359 12.8714 138.741 13.2918C139.574 13.4396 140.782 12.8795 141.175 13.6847C141.586 14.5289 140.42 15.1214 139.896 15.7578C137.915 18.1653 135.888 20.5403 133.801 22.8569C133.015 23.7286 132.986 24.3261 133.788 25.2108C136.176 27.8456 138.48 30.5566 140.812 33.2434C141.09 33.5616 141.543 33.8684 141.314 34.3538C141.095 34.8197 140.567 34.7401 140.14 34.7483C139.21 34.7677 138.275 34.7012 137.35 34.7726C136.084 34.87 135.174 34.3895 134.369 33.4219C132.516 31.1914 130.593 29.0177 128.69 26.8293C128.164 26.2238 127.607 25.6459 126.775 24.7416C126.776 27.6995 126.705 30.2515 126.804 32.7953C126.862 34.3262 126.272 34.7986 124.799 34.7856C121.676 34.758 121.674 34.8164 121.673 31.6573C121.672 26.2368 121.714 20.8179 121.642 15.399C121.622 13.8779 122.035 13.2383 123.661 13.2691C126.768 13.3275 126.77 13.2496 126.773 16.4331C126.773 18.602 126.774 20.7724 126.775 23.4316L126.776 23.4283Z" fill="white"/>
<path d="M158.247 17.9769C155.728 17.9769 153.663 17.9006 151.607 17.9996C149.677 18.0921 149.714 16.8941 149.694 15.545C149.674 14.1879 149.788 13.2349 151.59 13.2674C156.738 13.3583 161.89 13.3486 167.04 13.2739C168.757 13.2495 168.865 14.1879 168.833 15.4704C168.8 16.7561 169.002 18.1132 167.009 17.9882C165.918 17.9201 164.814 18.0402 163.723 17.9655C162.372 17.8746 161.884 18.4087 161.904 19.7691C161.965 23.9867 161.942 28.2059 161.914 32.4251C161.909 33.1962 162.255 34.305 161.229 34.5712C159.869 34.9235 158.408 35.0144 157.051 34.4381C156.625 34.2579 156.641 33.6914 156.64 33.253C156.634 29.0338 156.647 24.8162 156.628 20.597C156.623 19.6019 157.379 19.0694 158.249 17.9753L158.247 17.9769Z" fill="white"/>
<path d="M142.765 23.931C142.764 21.03 142.809 18.1274 142.743 15.2264C142.712 13.8416 143.161 13.2718 144.622 13.2734C148.057 13.2767 148.057 13.2166 148.058 16.6598C148.06 21.97 148.068 27.2817 148.057 32.5919C148.052 34.5854 147.882 34.7348 145.906 34.7607C143.814 34.79 142.767 33.7531 142.766 31.6503C142.765 29.0772 142.764 26.5041 142.763 23.931H142.765Z" fill="white"/>
<path d="M96.5564 24.1694C96.5573 27.1224 96.5176 30.0754 96.577 33.0267C96.6017 34.3076 96.0905 34.7459 94.8405 34.7767C91.4265 34.8579 91.4265 34.8985 91.4255 31.4358C91.4238 26.0786 91.4677 20.7197 91.3963 15.3625C91.3747 13.7959 91.9053 13.1076 93.4736 13.3008C93.5272 13.3073 93.5823 13.3008 93.6375 13.3008C95.5803 13.2857 96.5523 14.2299 96.554 16.1336C96.5548 18.8122 96.5556 21.4908 96.5564 24.1711L96.5564 24.1694Z" fill="white"/>
<path d="M44.6372 24.9409C44.6369 24.0773 44.6399 23.2136 44.6364 22.3516C44.6346 21.8532 44.8083 21.7104 45.271 21.9815C46.8087 22.8776 48.3544 23.7623 49.9001 24.6455C50.3207 24.8857 50.3013 25.113 49.9068 25.3419C48.347 26.2526 46.784 27.1601 45.2225 28.066C44.7908 28.316 44.6365 28.1342 44.638 27.6926C44.641 26.7754 44.6375 25.8582 44.6372 24.9409Z" fill="white"/>
</g>
</g>
<defs>
<clipPath id="clip0_3033_2553">
<rect width="137.989" height="35.5524" fill="white" transform="matrix(1 0 0.000301956 1 31 7.22363)"/>
</clipPath>
</defs>
</svg>
