<svg width="156" height="41" viewBox="0 0 156 41" fill="none" xmlns="http://www.w3.org/2000/svg">
<g clip-path="url(#clip0_572_71266)">
<mask id="mask0_572_71266" style="mask-type:luminance" maskUnits="userSpaceOnUse" x="0" y="0" width="155" height="41">
<path d="M154.997 0.652344H0.172363V40.6195H154.997V0.652344Z" fill="white"/>
</mask>
<g mask="url(#mask0_572_71266)">
<path d="M30.9468 18.0931C31.9752 18.968 33.1022 19.4429 34.1489 20.0347C34.871 20.442 35.2412 20.9224 35.181 21.768C34.9877 24.5004 35.0351 27.2383 35.0351 29.9762C35.0351 30.5479 34.7634 30.8566 34.3057 31.1214C30.8118 33.1507 27.3271 35.1945 23.8387 37.2292C22.0552 38.2703 20.2554 39.284 18.4848 40.3488C17.9213 40.6867 17.4418 40.7178 16.8819 40.3726C15.9009 39.7644 14.9034 39.1817 13.895 38.6192C13.4391 38.3653 13.2586 38.0237 13.2677 37.5123C13.2878 36.3872 13.2604 35.2603 13.275 34.1351C13.2841 33.4721 13.0233 33.4009 12.5073 33.7077C11.5682 34.2685 10.6126 34.8018 9.68264 35.3753C9.21764 35.6621 8.82558 35.6785 8.3387 35.3881C5.88605 33.9251 3.42246 32.4822 0.94428 31.0666C0.397221 30.7543 0.187516 30.3689 0.182045 29.7516C0.136457 23.6073 0.26228 17.4648 0.342516 11.3224C0.34981 10.8146 0.521221 10.4694 0.977103 10.2137C1.98369 9.65114 2.9757 9.05753 3.96223 8.46027C4.45458 8.16255 4.89587 8.14611 5.40282 8.46392C6.22523 8.98082 7.08593 9.43561 7.9284 9.92146C8.77452 10.4091 8.91311 10.3415 8.92587 9.39178C8.93864 8.38721 8.94958 7.38264 8.92952 6.3799C8.91676 5.79178 9.16658 5.43379 9.67352 5.14337C12.1517 3.7242 14.6171 2.28675 17.0752 0.832871C17.5001 0.580816 17.8356 0.600908 18.2514 0.842004C22.7701 3.46484 27.2942 6.07488 31.8184 8.68675C32.6864 9.18721 33.5435 9.71141 34.4315 10.1753C34.9549 10.4493 35.1865 10.8274 35.1792 11.4082C35.1646 12.5644 35.1701 13.7205 35.1737 14.8767C35.1737 15.4173 34.9458 15.7753 34.4625 16.0438C33.3046 16.6886 32.1704 17.379 30.9486 18.095L30.9468 18.0931ZM30.5948 15.516C30.5948 15.3936 30.5948 15.2731 30.5948 15.1507C30.5839 14.1132 30.7498 13.1635 29.4752 12.4767C25.7625 10.4731 22.1464 8.29041 18.5067 6.15342C17.9469 5.82465 17.4618 5.7589 16.8983 6.10593C16.0449 6.63196 15.1642 7.1105 14.3071 7.62922C13.5157 8.10776 13.5139 8.17351 14.3454 8.65388C16.4224 9.85388 18.5121 11.032 20.5891 12.232C23.6672 14.0073 26.7399 15.7899 29.8089 17.5817C30.3487 17.8977 30.6404 17.9123 30.5985 17.158C30.5675 16.6119 30.593 16.0639 30.593 15.516H30.5948ZM30.593 25.7954C30.593 25.3096 30.5985 24.8219 30.593 24.3361C30.5821 23.3424 30.531 23.315 29.6502 23.8228C26.7837 25.4758 23.9189 27.1287 21.0541 28.7817C18.8458 30.0548 16.6303 31.3169 14.4275 32.6027C13.5996 33.0867 13.6142 33.2383 14.453 33.7315C15.1861 34.1625 15.9446 34.5516 16.6522 35.021C17.3743 35.4995 17.9742 35.4502 18.731 34.9972C21.9604 33.0648 25.1935 31.1324 28.5069 29.3497C30.0222 28.5351 31.1255 27.7096 30.5948 25.7954H30.593ZM8.91311 20.6758H8.92587C8.92587 17.6931 8.92952 14.7105 8.92405 11.726C8.92223 10.8 8.82011 10.7525 8.01229 11.2292C7.22817 11.6931 6.45864 12.1881 5.64717 12.5991C4.96152 12.9461 4.72446 13.4265 4.73176 14.1936C4.76823 18.0895 4.83023 21.9872 4.71899 25.8813C4.6734 27.4685 4.98887 28.5826 6.58446 29.1379C7.08958 29.315 7.52358 29.6913 8.00135 29.9598C8.81829 30.4201 8.91129 30.3689 8.91311 29.4392C8.91858 26.5169 8.91493 23.5945 8.91493 20.6721L8.91311 20.6758ZM13.3534 20.2539C13.4118 22.3306 13.2713 24.61 13.4665 26.8858C13.5467 27.8173 13.5978 27.8794 14.391 27.4228C18.0453 25.3205 21.6905 23.2018 25.3467 21.1013C25.8901 20.789 26.0141 20.5863 25.365 20.2137C21.6559 18.084 17.9669 15.9196 14.2652 13.779C13.5449 13.3626 13.3643 13.4721 13.3589 14.3123C13.3443 16.2265 13.3534 18.1406 13.3534 20.2539Z" fill="white"/>
<path d="M42.9804 19.4166C42.9804 16.0924 43.0187 12.7682 42.9622 9.44586C42.9385 8.03033 43.4618 7.45134 44.9024 7.47325C48.7738 7.5317 52.647 7.41115 56.5165 7.52622C61.7792 7.6833 64.8664 12.1637 63.1742 17.1299C62.8624 18.0431 63.052 18.5363 63.6665 19.212C65.8274 21.5883 66.1921 24.3828 64.9777 27.2833C63.7924 30.1143 61.4437 31.528 58.4421 31.5956C53.8979 31.6997 49.3482 31.6029 44.8003 31.6394C43.4545 31.6504 42.9458 31.0915 42.9658 29.7563C43.0151 26.3097 42.9823 22.8632 42.9823 19.4166H42.9804ZM48.9415 19.5828C48.9415 21.3088 48.9543 23.0349 48.9361 24.7591C48.9251 25.7837 49.2752 26.4139 50.4131 26.4047C52.8731 26.3846 55.3348 26.4102 57.7966 26.3755C59.0986 26.3572 59.622 25.5828 59.642 24.3317C59.6657 23.0093 59.1478 22.1728 57.7565 22.1216C56.4053 22.0723 55.0485 22.1125 53.6955 22.0851C52.2585 22.054 50.1742 18.9144 50.6921 17.5883C50.9328 16.9728 51.4817 17.0897 51.9485 17.0769C53.2396 17.0459 54.5343 17.086 55.8235 17.0367C57.1985 16.9838 57.7492 16.1509 57.7656 14.8431C57.7838 13.4696 57.1401 12.7737 55.7652 12.7701C54.042 12.7646 52.3187 12.7883 50.5973 12.7518C49.4321 12.7262 48.9087 13.234 48.9306 14.4066C48.9634 16.1308 48.9397 17.8568 48.9397 19.5828H48.9415Z" fill="white"/>
<path d="M85.8108 31.625C83.535 31.625 81.2593 31.6104 78.9853 31.6305C77.7143 31.6415 77.2056 31.2597 77.6122 29.8533C78.6042 26.4287 78.5513 26.4141 82.1054 26.4122C85.1178 26.4122 88.1321 26.3885 91.1446 26.4177C92.6454 26.4323 93.6613 26.0268 93.6667 24.2661C93.6722 22.5401 92.7548 22.0433 91.1993 22.0798C88.9874 22.1309 86.7718 22.1273 84.558 22.0762C79.8442 21.9647 77.2311 19.3054 77.2457 14.6972C77.2584 10.3301 80.0229 7.57937 84.5854 7.50631C88.2744 7.44603 91.9652 7.52275 95.6542 7.47891C97.2243 7.46065 97.5525 8.07434 97.1258 9.52823C96.1921 12.7173 96.2122 12.7501 92.8223 12.752C90.3003 12.752 87.7802 12.7629 85.2583 12.7556C83.907 12.752 82.9788 13.1739 82.9843 14.7447C82.988 16.2643 83.7155 17.0424 85.2236 17.0533C87.6215 17.0698 90.0213 17.0351 92.4193 17.0771C96.8358 17.1538 99.5985 19.8204 99.6404 23.9994C99.686 28.4634 96.8705 31.4789 92.4521 31.6141C90.2401 31.6816 88.0245 31.625 85.8108 31.6268V31.625Z" fill="white"/>
<path d="M107.752 18.8857C110.453 15.7478 112.913 13.1031 115.115 10.2574C116.722 8.18252 118.52 7.0081 121.195 7.48115C122.13 7.64736 123.487 7.01723 123.928 7.92316C124.39 8.87294 123.081 9.5396 122.492 10.2556C120.265 12.9643 117.987 15.6364 115.642 18.2428C114.76 19.2236 114.727 19.8957 115.628 20.8912C118.308 23.8556 120.896 26.9058 123.515 29.9286C123.826 30.2866 124.335 30.6318 124.078 31.1779C123.832 31.7021 123.239 31.6126 122.76 31.6218C121.715 31.6437 120.664 31.5688 119.625 31.6492C118.203 31.7588 117.181 31.2181 116.277 30.1295C114.196 27.6199 112.037 25.1743 109.9 22.7122C109.309 22.0309 108.684 21.3807 107.75 20.3633C107.75 23.6912 107.67 26.5624 107.779 29.4245C107.845 31.1469 107.181 31.6784 105.527 31.6638C102.019 31.6327 102.017 31.6985 102.017 28.1441C102.017 22.0455 102.066 15.9487 101.988 9.85193C101.966 8.14052 102.429 7.42088 104.256 7.45558C107.746 7.52134 107.748 7.43367 107.75 11.0154C107.75 13.4556 107.75 15.8976 107.75 18.8894L107.752 18.8857Z" fill="white"/>
<path d="M143.105 12.7507C140.275 12.7507 137.955 12.6649 135.646 12.7763C133.478 12.8804 133.52 11.5324 133.498 10.0146C133.476 8.48769 133.604 7.41555 135.628 7.45208C141.411 7.55436 147.198 7.5434 152.983 7.45938C154.912 7.43199 155.032 8.48769 154.996 9.93062C154.959 11.3772 155.186 12.9041 152.946 12.7635C151.721 12.6868 150.481 12.8219 149.255 12.7379C147.738 12.6356 147.189 13.2366 147.211 14.7671C147.279 19.5123 147.251 24.2594 147.219 29.0064C147.213 29.874 147.601 31.1215 146.449 31.421C144.921 31.8174 143.28 31.9196 141.755 31.2712C141.277 31.0685 141.296 30.4311 141.294 29.9379C141.288 25.1909 141.305 20.4457 141.285 15.6987C141.279 14.579 142.129 13.9799 143.106 12.7489L143.105 12.7507Z" fill="white"/>
<path d="M125.712 19.4479C125.712 16.184 125.763 12.9182 125.69 9.6543C125.656 8.09631 126.161 7.45521 127.802 7.45704C131.661 7.46069 131.661 7.39311 131.661 11.2671C131.661 17.2415 131.668 23.2178 131.653 29.1922C131.648 31.4351 131.456 31.6032 129.237 31.6324C126.887 31.6653 125.712 30.4987 125.71 28.1328C125.71 25.2379 125.71 22.3429 125.71 19.4479H125.712Z" fill="white"/>
<path d="M73.8062 19.7191C73.8062 23.0415 73.7606 26.3639 73.8263 29.6844C73.8536 31.1255 73.2792 31.6187 71.8751 31.6534C68.0402 31.7447 68.0402 31.7904 68.0402 27.8945C68.0402 21.8671 68.0913 15.8378 68.0129 9.81044C67.9892 8.04789 68.5855 7.27346 70.347 7.49081C70.4072 7.49811 70.4692 7.49081 70.5312 7.49081C72.7134 7.47377 73.805 8.53616 73.8062 10.678C73.8062 13.6917 73.8062 16.7054 73.8062 19.7209V19.7191Z" fill="white"/>
<path d="M15.4834 20.5854C15.4834 19.6137 15.4871 18.642 15.4834 17.6722C15.4816 17.1114 15.6767 16.9507 16.1964 17.2557C17.9233 18.2639 19.6593 19.2594 21.3953 20.253C21.8676 20.5233 21.8457 20.779 21.4026 21.0365C19.6502 22.0612 17.8941 23.0822 16.1399 24.1014C15.6548 24.3827 15.4816 24.1781 15.4834 23.6813C15.4871 22.6493 15.4834 21.6174 15.4834 20.5854Z" fill="white"/>
</g>
</g>
<defs>
<clipPath id="clip0_572_71266">
<rect width="155" height="40" fill="white" transform="translate(0.172363 0.652344)"/>
</clipPath>
</defs>
</svg>
