<svg width="156" height="40" viewBox="0 0 156 40" fill="none" xmlns="http://www.w3.org/2000/svg">
<g clip-path="url(#clip0_3016_11362)">
<mask id="mask0_3016_11362" style="mask-type:luminance" maskUnits="userSpaceOnUse" x="0" y="0" width="156" height="40">
<path d="M155.607 0H0.53125L0.543318 39.9671H155.619L155.607 0Z" fill="white"/>
</mask>
<g mask="url(#mask0_3016_11362)">
<path d="M31.3608 17.4408C32.3912 18.3157 33.5201 18.7906 34.5687 19.3823C35.2921 19.7896 35.663 20.27 35.603 21.1157C35.4102 23.8481 35.4585 26.586 35.4594 29.3239C35.4595 29.8956 35.1875 30.2043 34.7291 30.4691C31.2302 32.4983 27.7404 34.5422 24.2469 36.5769C22.461 37.618 20.6585 38.6317 18.8853 39.6965C18.3211 40.0344 17.8407 40.0654 17.2799 39.7202C16.2971 39.112 15.2978 38.5294 14.2876 37.9668C13.8309 37.7129 13.65 37.3714 13.6589 36.86C13.6787 35.7348 13.6509 34.6079 13.6652 33.4828C13.6742 32.8198 13.4129 32.7485 12.8961 33.0554C11.9557 33.6161 10.9988 34.1495 10.0674 34.723C9.60175 35.0097 9.20907 35.0262 8.72131 34.7358C6.26424 33.2727 3.79623 31.8298 1.3136 30.4143C0.765561 30.102 0.5554 29.7166 0.549734 29.0992C0.502217 22.9549 0.626389 16.8125 0.7049 10.67C0.712052 10.1623 0.883637 9.81706 1.34018 9.56135C2.34823 8.99879 3.34167 8.40519 4.32961 7.80793C4.82267 7.51021 5.26468 7.49377 5.77254 7.81158C6.59644 8.32847 7.45867 8.78327 8.30266 9.26911C9.15029 9.75678 9.28909 9.6892 9.30158 8.73943C9.31407 7.73487 9.32472 6.7303 9.30433 5.72756C9.29136 5.13943 9.54149 4.78144 10.0492 4.49103C12.5309 3.07185 14.9999 1.63441 17.4616 0.180527C17.8871 -0.0715274 18.2231 -0.0514361 18.6396 0.18966C23.1664 2.81249 27.6987 5.42254 32.231 8.03441C33.1006 8.53487 33.9592 9.05907 34.8488 9.52299C35.3731 9.79697 35.6052 10.175 35.598 10.7559C35.5838 11.912 35.5896 13.0682 35.5936 14.2244C35.5938 14.765 35.3656 15.123 34.8816 15.3915C33.722 16.0362 32.5862 16.7266 31.3626 17.4426L31.3608 17.4408ZM31.0075 14.8636C31.0075 14.7413 31.0074 14.6207 31.0074 14.4983C30.9961 13.4609 31.162 12.5111 29.8851 11.8244C26.1658 9.82071 22.5432 7.63806 18.8969 5.50108C18.3361 5.17231 17.8503 5.10656 17.286 5.45359C16.4313 5.97961 15.5493 6.45815 14.691 6.97688C13.8985 7.45541 13.8966 7.52117 14.7297 8.00153C16.8104 9.20153 18.9039 10.3796 20.9846 11.5796C24.0682 13.355 27.1464 15.1376 30.2209 16.9294C30.7617 17.2454 31.0539 17.26 31.0117 16.5056C30.9804 15.9595 31.0058 15.4116 31.0057 14.8636H31.0075ZM31.0088 25.1431C31.0086 24.6572 31.014 24.1696 31.0083 23.6837C30.9971 22.6901 30.9459 22.6627 30.0639 23.1705C27.1932 24.8234 24.3243 26.4764 21.4553 28.1294C19.2439 29.4024 17.0251 30.6645 14.8191 31.9504C13.99 32.4344 14.0047 32.586 14.845 33.0791C15.5794 33.5102 16.3393 33.8992 17.0481 34.3686C17.7716 34.8472 18.3725 34.7979 19.1303 34.3449C22.3644 32.4125 25.6022 30.4801 28.9204 28.6974C30.4379 27.8828 31.5427 27.0572 31.0106 25.1431H31.0088ZM9.29221 20.0234H9.30499C9.30409 17.0408 9.30684 14.0582 9.30046 11.0737C9.29836 10.1477 9.19606 10.1002 8.38707 10.5769C7.60182 11.0408 6.8312 11.5358 6.01853 11.9467C5.33188 12.2938 5.09458 12.7741 5.10212 13.5413C5.13983 17.4371 5.2031 21.3348 5.09286 25.2289C5.04768 26.8161 5.364 27.9303 6.96234 28.4855C7.46833 28.6627 7.90315 29.039 8.38177 29.3075C9.20017 29.7677 9.29331 29.7166 9.29485 28.7869C9.29945 25.8645 9.29491 22.9422 9.29403 20.0198L9.29221 20.0234ZM13.7396 19.6015C13.7986 21.6782 13.6587 23.9577 13.8548 26.2335C13.9355 27.165 13.9866 27.2271 14.781 26.7705C18.4406 24.6682 22.0911 22.5495 25.7526 20.449C26.2968 20.1367 26.4209 19.9339 25.7706 19.5613C22.0549 17.4317 18.3593 15.2673 14.6509 13.1266C13.9293 12.7102 13.7485 12.8198 13.7433 13.66C13.7292 15.5741 13.7389 17.4883 13.7396 19.6015Z" fill="white"/>
<path d="M43.4133 18.766C43.4123 15.4418 43.4496 12.1176 43.392 8.79522C43.3678 7.3797 43.8918 6.8007 45.3348 6.82262C49.2124 6.88107 53.0918 6.76052 56.9677 6.87559C62.2389 7.03267 65.3325 11.513 63.6391 16.4792C63.327 17.3925 63.5171 17.8856 64.1328 18.5614C66.2979 20.9377 66.6641 23.7322 65.4485 26.6326C64.2622 29.4637 61.9101 30.8774 58.9037 30.945C54.3521 31.0491 49.795 30.9523 45.2398 30.9888C43.8918 30.9998 43.3821 30.4408 43.4018 29.1057C43.45 25.6591 43.4161 22.2125 43.4151 18.766H43.4133ZM49.3841 18.9322C49.3846 20.6582 49.3979 22.3842 49.3802 24.1084C49.3695 25.1331 49.7204 25.7632 50.8601 25.7541C53.324 25.734 55.7898 25.7596 58.2556 25.7249C59.5597 25.7066 60.0836 24.9322 60.1033 23.681C60.1267 22.3587 59.6077 21.5221 58.2141 21.471C56.8606 21.4217 55.5017 21.4619 54.1465 21.4345C52.7072 21.4034 50.6186 18.2637 51.1369 16.9377C51.3778 16.3222 51.9276 16.4391 52.3952 16.4263C53.6883 16.3952 54.9852 16.4354 56.2765 16.3861C57.6536 16.3331 58.205 15.5002 58.221 14.1925C58.2389 12.819 57.5939 12.1231 56.2167 12.1194C54.4907 12.1139 52.7647 12.1377 51.0405 12.1012C49.8733 12.0756 49.3493 12.5833 49.3716 13.756C49.405 15.4802 49.3817 17.2062 49.3823 18.9322H49.3841Z" fill="white"/>
<path d="M86.3163 30.9734C84.0369 30.9734 81.7574 30.9588 79.4798 30.9789C78.2067 30.9898 77.697 30.6081 78.1039 29.2017C79.0965 25.7771 79.0435 25.7624 82.6033 25.7606C85.6207 25.7606 88.6399 25.7369 91.6572 25.7661C93.1604 25.7807 94.1778 25.3752 94.1828 23.6145C94.1877 21.8885 93.2687 21.3917 91.7107 21.4282C89.4952 21.4793 87.276 21.4757 85.0587 21.4245C80.3372 21.3131 77.719 18.6538 77.7322 14.0456C77.7437 9.67844 80.5118 6.92776 85.0816 6.8547C88.7766 6.79442 92.4734 6.87114 96.1684 6.8273C97.741 6.80903 98.0699 7.42273 97.643 8.87661C96.7088 12.0657 96.7289 12.0985 93.3335 12.1004C90.8074 12.1004 88.2832 12.1113 85.7572 12.104C84.4038 12.1004 83.4742 12.5223 83.4802 14.0931C83.4843 15.6127 84.2133 16.3908 85.7238 16.4017C88.1256 16.4182 90.5293 16.3835 92.9311 16.4255C97.3549 16.5022 100.123 19.1688 100.166 23.3478C100.213 27.8118 97.3939 30.8273 92.9684 30.9624C90.7529 31.03 88.5337 30.9734 86.3163 30.9752L86.3163 30.9734Z" fill="white"/>
<path d="M108.289 18.2322C110.993 15.0943 113.456 12.4495 115.662 9.60385C117.27 7.52896 119.071 6.35453 121.75 6.82759C122.687 6.9938 124.046 6.36366 124.488 7.2696C124.951 8.21937 123.64 8.88604 123.05 9.60202C120.82 12.3107 118.54 14.9828 116.192 17.5892C115.308 18.57 115.276 19.2422 116.178 20.2376C118.864 23.202 121.457 26.2522 124.08 29.2751C124.393 29.633 124.903 29.9783 124.645 30.5244C124.399 31.0486 123.805 30.9591 123.325 30.9682C122.278 30.9901 121.226 30.9152 120.185 30.9956C118.76 31.1052 117.737 30.5646 116.831 29.476C114.746 26.9664 112.583 24.5207 110.442 22.0586C109.85 21.3773 109.223 20.7271 108.288 19.7098C108.289 23.0376 108.209 25.9088 108.32 28.7709C108.386 30.4933 107.721 31.0248 106.064 31.0102C102.55 30.9792 102.549 31.0449 102.547 27.4906C102.546 21.392 102.593 15.2952 102.513 9.19837C102.49 7.48695 102.954 6.76732 104.784 6.80202C108.28 6.86777 108.282 6.7801 108.285 10.3618C108.285 12.802 108.286 15.244 108.287 18.2358L108.289 18.2322Z" fill="white"/>
<path d="M143.697 12.0986C140.862 12.0986 138.539 12.0128 136.226 12.1242C134.055 12.2283 134.096 10.8803 134.074 9.36254C134.052 7.83559 134.179 6.76345 136.207 6.79998C141.998 6.90226 147.796 6.8913 153.589 6.80728C155.522 6.77989 155.643 7.83559 155.606 9.27852C155.57 10.7251 155.797 12.252 153.554 12.1114C152.327 12.0347 151.085 12.1698 149.858 12.0858C148.338 11.9835 147.788 12.5845 147.811 14.115C147.88 18.8602 147.854 23.6073 147.822 28.3543C147.817 29.2219 148.206 30.4694 147.052 30.7689C145.522 31.1653 143.878 31.2675 142.351 30.6191C141.872 30.4164 141.89 29.779 141.888 29.2858C141.881 24.5388 141.896 19.7936 141.875 15.0466C141.869 13.9269 142.72 13.3278 143.699 12.0968L143.697 12.0986Z" fill="white"/>
<path d="M126.278 18.7973C126.277 15.5333 126.327 12.2676 126.253 9.00366C126.218 7.44567 126.724 6.80457 128.368 6.8064C132.233 6.81005 132.233 6.74247 132.234 10.6164C132.235 16.5909 132.245 22.5671 132.232 28.5416C132.227 30.7845 132.035 30.9525 129.812 30.9817C127.459 31.0146 126.281 29.848 126.279 27.4822C126.278 24.5872 126.277 21.6922 126.276 18.7973H126.278Z" fill="white"/>
<path d="M74.2886 19.0658C74.2896 22.3882 74.2449 25.7105 74.3117 29.0311C74.3395 30.4722 73.7643 30.9653 72.3579 31C68.5169 31.0914 68.5169 31.137 68.5157 27.2411C68.5139 21.2137 68.5632 15.1845 68.4828 9.15712C68.4586 7.39457 69.0556 6.62014 70.82 6.83749C70.8803 6.84479 70.9424 6.83749 71.0045 6.83749C73.1903 6.82045 74.2839 7.88284 74.2858 10.0247C74.2867 13.0384 74.2877 16.0521 74.2886 19.0676L74.2886 19.0658Z" fill="white"/>
<path d="M15.8746 19.9338C15.8743 18.9621 15.8777 17.9904 15.8737 17.0206C15.8717 16.4598 16.0671 16.2991 16.5878 16.6041C18.3177 17.6123 20.0568 18.6078 21.796 19.6014C22.2691 19.8717 22.2473 20.1274 21.8035 20.3849C20.0486 21.4096 18.29 22.4306 16.5332 23.4498C16.0474 23.7311 15.8739 23.5265 15.8755 23.0297C15.8789 21.9977 15.8749 20.9658 15.8746 19.9338Z" fill="white"/>
</g>
</g>
<defs>
<clipPath id="clip0_3016_11362">
<rect width="155.251" height="40" fill="white" transform="matrix(1 0 0.000301956 1 0.53125 0)"/>
</clipPath>
</defs>
</svg>
