<svg width="200" height="50" viewBox="0 0 200 50" fill="none" xmlns="http://www.w3.org/2000/svg">
<g clip-path="url(#clip0_3033_2857)">
<path d="M29.4658 26.0988C27.1192 26.0988 24.7727 26.0937 22.4261 26.104C22.0974 26.104 21.6199 25.9551 21.5018 26.3761C21.3888 26.7869 21.7739 27.0539 22.1077 27.2542C22.7752 27.6495 23.489 27.8652 24.2797 27.8601C27.2117 27.8498 30.1436 27.8601 33.0756 27.8601C34.7341 27.8601 34.7855 27.9166 34.7649 29.611C34.7649 29.7599 34.7649 29.9037 34.7547 30.0526C34.6931 30.6431 34.5339 30.8228 33.9228 30.8434C33.1321 30.8742 32.3413 30.8537 31.5506 30.8537C30.2617 30.8537 28.9678 30.8434 27.6789 30.8383C27.53 30.8383 27.3863 30.8383 27.2373 30.8485C27.0628 30.8639 26.8676 30.8691 26.7855 31.059C26.6828 31.285 26.8317 31.4544 26.9755 31.5982C27.1141 31.7471 27.2682 31.8909 27.4325 32.009C28.2592 32.62 29.1886 32.9384 30.2155 32.9486C31.4171 32.9538 32.6186 32.9435 33.8201 32.9538C34.8984 32.9641 35.0833 33.1592 35.0987 34.258C35.1192 35.6033 34.9498 35.7779 33.5942 35.7831C32.3054 35.7831 31.0114 35.7522 29.7226 35.7882C27.8997 35.8395 26.4312 35.0282 25.1064 33.914C24.4697 33.38 24.1154 32.6098 23.8433 31.8293C23.6327 31.2234 23.3041 30.8793 22.6366 30.7253C21.3169 30.4172 20.2232 29.6573 19.3657 28.6149C18.2207 27.2336 17.851 25.611 18.0512 23.8447C18.1026 23.4031 18.3696 23.1617 18.8112 23.1309C19.1038 23.1104 19.3965 23.1053 19.6892 23.1053C23.4119 23.1053 27.1398 23.1053 30.8625 23.1053C31.566 23.1053 32.2694 23.1309 32.9678 22.9923C33.4966 22.8896 34.0101 23.1053 34.539 23.1001C35.8022 23.0899 37.0602 23.095 38.3233 23.1053C38.8112 23.1053 39.2579 22.9974 39.6584 22.7407C41.4042 21.6059 43.2681 20.6714 45.0653 19.6187C45.7585 19.2131 45.7739 18.9923 45.0961 18.6021C43.3965 17.6213 41.6815 16.6662 39.9922 15.6701C39.4479 15.3466 38.9755 15.3569 38.4312 15.6701C36.3413 16.8562 34.3285 18.1707 32.1873 19.2696C31.6276 19.5571 31.1552 19.6239 30.6314 19.285C30.2617 19.0436 29.8766 18.828 29.5326 18.561C29.0243 18.1605 29.0294 17.8062 29.5737 17.4519C30.2155 17.0411 30.883 16.6662 31.5403 16.2863C33.3426 15.249 35.1449 14.2067 36.9626 13.19C37.548 12.8614 38.1796 12.6098 38.7752 12.2965C39.1809 12.0809 39.5249 12.122 39.9254 12.353C42.3901 13.7651 44.8702 15.1515 47.3452 16.5584C48.0846 16.9795 48.8034 17.4262 49.5429 17.8472C50.0923 18.1605 50.272 18.6329 50.2669 19.2439C50.2515 21.7343 50.2669 24.2298 50.2617 26.7202C50.2617 27.8601 50.4106 28.9897 50.2925 30.1348C50.2206 30.8331 49.9742 31.2798 49.3888 31.6136C47.4068 32.7484 45.4299 33.8986 43.453 35.0436C42.005 35.8755 40.5518 36.7022 39.1038 37.534C38.9755 37.6059 38.8574 37.6932 38.7239 37.7497C38.1385 37.9961 37.7893 37.8113 37.7791 37.1694C37.7585 35.8498 37.7328 34.525 37.8253 33.2157C37.9126 32.0398 37.9382 30.8845 37.8201 29.7086C37.7328 28.8357 37.7842 27.9525 37.7637 27.0745C37.7431 26.2169 37.6507 26.1142 36.788 26.1091C34.3542 26.0988 31.9203 26.1091 29.4864 26.1091L29.4658 26.0988ZM47.2425 25.6778C47.2425 24.6816 47.2579 23.6906 47.2425 22.6945C47.2271 21.9191 47.0371 21.801 46.3387 22.1605C44.5724 23.0745 42.9447 24.2246 41.2604 25.2773C40.9061 25.4981 40.7418 25.8062 40.7418 26.2272C40.7418 28.1579 40.7316 30.0886 40.747 32.0193C40.7521 32.7381 40.9472 32.846 41.6147 32.5122C43.3144 31.6598 44.9267 30.6483 46.5801 29.7137C47.0627 29.4365 47.263 29.0359 47.2527 28.4814C47.2322 27.5469 47.2527 26.6072 47.2527 25.6727L47.2425 25.6778Z" fill="white"/>
<path d="M91.9459 24.4662C91.9767 25.1645 91.8945 25.9399 91.7199 26.7204C91.2681 28.7178 89.9125 29.8577 88.1461 30.6382C88.064 30.6741 87.9818 30.7203 87.8997 30.7306C86.503 30.8693 85.1063 31.0079 83.7302 30.5509C82.4517 30.1247 81.5171 29.2621 80.7058 28.2351C80.5056 27.9835 80.3464 27.696 80.2642 27.3827C79.8227 25.6934 79.6275 23.9886 80.0229 22.2582C80.2488 21.2621 80.7058 20.3892 81.3425 19.6087C82.2155 18.5355 83.4735 18.3301 84.7315 18.2017C85.5736 18.1196 86.4363 18.1144 87.2784 18.2017C88.8239 18.3506 90.1898 18.9566 91.0422 20.3224C91.6173 21.2467 91.9048 22.3096 91.951 23.4135C91.9664 23.737 91.951 24.0605 91.951 24.4764L91.9459 24.4662ZM88.2488 24.2402C88.3823 23.2903 87.8791 22.4431 87.4375 21.5907C87.1808 21.0978 86.6981 20.8564 86.1333 20.8256C85.0858 20.7691 84.1564 21.3648 83.8381 22.3712C83.4221 23.6806 83.3811 25.0002 83.7764 26.3455C84.0434 27.2441 84.6699 27.7011 85.4915 27.927C86.4979 28.2043 87.7045 27.4957 87.951 26.4841C88.1205 25.7755 88.2642 25.0567 88.2488 24.2402Z" fill="white"/>
<path d="M56.5622 24.43C56.5622 22.8485 56.5622 21.267 56.5622 19.6855C56.5622 19.4493 56.5519 19.2131 56.5827 18.982C56.6495 18.4634 56.8446 18.222 57.3632 18.2015C59.679 18.1039 61.9948 18.0629 64.2182 18.8793C65.5737 19.3774 66.1796 21.0872 65.4967 22.4839C65.2605 22.9614 64.9473 23.3876 64.5519 23.7368C64.2233 24.0243 64.213 24.1938 64.5827 24.4711C66.4621 25.8934 66.2721 28.7946 64.2182 29.9858C63.2939 30.5198 62.2926 30.8279 61.2092 30.8279C60.3311 30.8279 59.4531 30.8279 58.575 30.8279C58.2823 30.8279 57.9897 30.8125 57.7021 30.7663C56.7573 30.6071 56.5725 30.3966 56.5673 29.4364C56.5571 27.7676 56.5673 26.0988 56.5673 24.43H56.5622ZM60.9576 28.0243C61.0089 28.0243 61.127 28.0243 61.2451 28.0038C61.8921 27.9062 62.3953 27.3466 62.3748 26.7561C62.3491 26.1039 61.7329 25.6469 60.8446 25.611C60.29 25.5905 60.1925 25.7086 60.0384 26.602C60.0179 26.715 59.9871 26.8279 59.9717 26.946C59.8587 27.7779 60.0693 28.0192 60.9576 28.0192V28.0243ZM59.8998 22.0783C59.8998 22.0783 59.8895 22.0783 59.8844 22.0783C59.8844 22.2837 59.869 22.489 59.8844 22.6893C59.9049 22.8844 60.0487 23.0333 60.2387 23.0077C60.7573 22.946 61.3016 22.9871 61.7894 22.7561C62.1283 22.5917 62.3645 22.3504 62.2721 21.9242C62.1334 21.3132 61.2965 20.7946 60.5314 20.8459C60.059 20.8767 59.9511 21.077 59.8998 21.991C59.8998 22.0218 59.8998 22.0475 59.8998 22.0783Z" fill="white"/>
<path d="M111.099 22.9C111.504 22.7459 111.633 22.4327 111.807 22.1708C112.459 21.1644 113.106 20.1529 113.738 19.131C114.123 18.5046 114.647 18.1606 115.396 18.1708C116.013 18.1811 116.629 18.1452 117.24 18.1862C117.722 18.2171 117.856 18.4635 117.676 18.9051C117.579 19.1464 117.43 19.3672 117.281 19.588C116.572 20.6304 115.894 21.6933 115.14 22.6997C114.621 23.3981 114.539 24.0604 114.955 24.8153C115.407 25.6368 115.787 26.4995 116.285 27.2902C116.757 28.0348 117.152 28.8204 117.589 29.5803C118.046 30.3814 117.794 30.8024 116.891 30.8332C116.393 30.8486 115.894 30.8332 115.396 30.8332C114.647 30.8332 114.164 30.5046 113.846 29.7857C113.414 28.7947 112.87 27.855 112.357 26.9C112.177 26.5611 111.956 26.2068 111.473 26.3608C111.037 26.5046 110.96 26.8846 110.955 27.2851C110.945 28.045 110.955 28.8101 110.939 29.5701C110.919 30.3916 110.749 30.5765 109.938 30.7511C109.389 30.8692 108.829 30.8743 108.274 30.8024C107.674 30.7254 107.458 30.4892 107.432 29.873C107.407 29.2004 107.432 28.5277 107.432 27.8499C107.432 25.1541 107.432 22.4584 107.432 19.7626C107.432 19.5007 107.422 19.2337 107.458 18.9719C107.525 18.4584 107.725 18.2376 108.249 18.2016C108.834 18.1606 109.419 18.1606 110.005 18.1914C110.672 18.2273 110.903 18.4481 110.929 19.1156C110.965 20.0502 110.929 20.9898 110.95 21.9295C110.95 22.2376 110.862 22.5714 111.099 22.9Z" fill="white"/>
<path d="M100.562 30.828C98.9446 31.0128 97.5685 30.4891 96.3413 29.4519C95.8997 29.077 95.5711 28.6611 95.3606 28.1322C94.6725 26.4069 94.3387 24.6252 94.8265 22.8075C95.4068 20.6406 96.9883 18.4223 99.5968 18.1143C100.973 17.9551 102.282 18.0783 103.576 18.4583C104.434 18.7099 104.557 19.0437 104.295 19.9217C104.259 20.0347 104.223 20.1425 104.187 20.2555C103.807 21.3594 103.622 21.4724 102.529 21.1438C101.836 20.9384 101.132 20.9281 100.439 21.0154C99.5403 21.1335 98.96 21.7446 98.6982 22.5713C98.2874 23.855 98.3028 25.1746 98.6982 26.4686C99.0165 27.5058 100.136 28.1322 101.291 27.9576C101.871 27.8704 102.436 27.7112 103.011 27.5931C103.818 27.4288 104.043 27.5931 104.1 28.3787C104.223 30.1297 104.1 30.2888 102.395 30.7253C101.789 30.8793 101.173 30.8023 100.562 30.8229V30.828Z" fill="white"/>
<path d="M73.2604 30.833C72.295 30.833 71.3245 30.8484 70.3592 30.833C69.4041 30.8125 69.1012 30.5147 69.0858 29.5544C69.0755 28.7637 69.0242 27.9729 69.1782 27.1873C69.245 26.8381 69.2141 26.489 69.1628 26.1398C69.1166 25.7907 69.0858 25.4415 69.0806 25.0923C69.0704 23.3106 69.0755 21.5236 69.0806 19.7419C69.0806 19.4492 69.096 19.1565 69.1423 18.869C69.209 18.489 69.4401 18.2066 69.8406 18.1963C70.5132 18.1758 71.1859 18.1809 71.8586 18.222C72.3001 18.2477 72.5261 18.5609 72.562 18.9922C72.6339 19.8959 72.8239 20.7842 72.7725 21.7034C72.6801 23.367 72.829 25.0358 72.6082 26.7046C72.485 27.6546 72.7161 27.8548 73.6557 27.8651C74.4465 27.8754 75.2372 27.8548 76.028 27.8651C77.2604 27.8805 77.4966 28.127 77.4966 29.385C77.4966 29.4415 77.4966 29.5031 77.4966 29.5596C77.4657 30.5557 77.2244 30.8176 76.2437 30.8381C75.2475 30.8587 74.2514 30.8381 73.2552 30.8381L73.2604 30.833Z" fill="white"/>
<path d="M153.702 24.3942C153.702 22.6946 153.692 20.995 153.702 19.2954C153.707 18.3249 153.861 18.1811 154.837 18.176C155.777 18.176 156.716 18.1349 157.651 18.1966C158.745 18.2633 159.777 18.5406 160.619 19.3313C161.22 19.8962 161.461 20.5534 161.482 21.3647C161.507 22.6844 161.091 23.7729 160.028 24.5945C159.268 25.1799 159.263 25.2312 159.72 26.1195C160.239 27.1413 160.927 28.0605 161.538 29.0258C161.743 29.3493 161.969 29.6574 162.082 30.0271C162.221 30.4944 162.041 30.7665 161.569 30.8435C160.948 30.9462 160.47 30.6535 160.152 29.9141C159.664 28.7793 158.986 27.7472 158.396 26.6689C157.954 25.8576 157.271 25.5136 156.398 25.4417C155.51 25.3698 155.15 25.6779 155.135 26.5714C155.12 27.4802 155.135 28.3891 155.125 29.298C155.125 29.6214 155.125 29.9501 154.981 30.2479C154.832 30.5457 154.642 30.823 154.252 30.7562C153.913 30.6997 153.779 30.4225 153.743 30.1144C153.713 29.8525 153.713 29.5855 153.713 29.3236C153.713 27.6805 153.713 26.0425 153.713 24.3994L153.702 24.3942ZM155.13 21.8268C155.13 21.8268 155.161 21.8268 155.176 21.8268C155.176 22.3814 155.155 22.9411 155.181 23.4905C155.202 23.9013 155.392 24.2556 155.849 24.2915C156.84 24.3686 157.836 24.4096 158.77 23.927C159.715 23.434 159.946 22.5971 159.879 21.6369C159.813 20.7331 159.443 20.0451 158.529 19.6702C157.651 19.3108 156.793 19.547 155.931 19.5932C155.325 19.624 155.181 19.7883 155.145 20.4148C155.114 20.882 155.14 21.3493 155.14 21.8166L155.13 21.8268Z" fill="white"/>
<path d="M135.915 18.1861C136.988 18.0577 138.01 18.2785 139.022 18.5968C140.501 19.059 141.225 20.014 141.24 21.575C141.24 21.8985 141.255 22.222 141.225 22.5404C141.142 23.4338 140.747 24.163 140.008 24.6816C139.001 25.3902 137.923 25.8112 136.65 25.765C134.811 25.6983 134.868 25.7034 134.878 27.5365C134.878 28.1784 134.893 28.8253 134.883 29.4672C134.883 29.6983 134.868 29.9396 134.796 30.1552C134.673 30.5301 134.277 30.7149 133.877 30.6533C133.492 30.5917 133.343 30.335 133.312 29.9807C133.302 29.8369 133.296 29.688 133.302 29.5442C133.404 26.299 133.245 23.0538 133.291 19.8087C133.291 19.6033 133.286 19.3979 133.312 19.1925C133.389 18.5712 133.697 18.2374 134.329 18.1912C134.852 18.1501 135.381 18.1809 135.91 18.1809L135.915 18.1861ZM134.899 21.955C134.899 21.955 134.899 21.955 134.904 21.955C134.904 22.5096 134.878 23.0692 134.909 23.6238C134.95 24.24 135.176 24.4556 135.782 24.5018C136.162 24.5327 136.542 24.5121 136.922 24.5018C138.842 24.4197 139.669 23.5416 139.643 21.6264C139.628 20.5891 139.232 20.0705 138.252 19.783C137.363 19.516 136.454 19.6084 135.551 19.6238C135.13 19.6289 134.909 19.8908 134.899 20.3016C134.883 20.8562 134.899 21.4107 134.899 21.9704V21.955Z" fill="white"/>
<path d="M125.055 18.1708C125.743 18.2067 126.544 18.0835 127.309 18.3813C127.628 18.5045 128.049 18.5456 127.91 19.0642C127.787 19.5263 127.371 19.7882 126.898 19.6804C126.416 19.5674 125.938 19.4082 125.456 19.3004C124.906 19.1772 124.346 19.1874 123.807 19.3774C123.145 19.6085 122.544 19.9371 122.416 20.6971C122.267 21.5494 122.416 22.3402 123.176 22.8948C123.653 23.2439 124.182 23.5058 124.747 23.6701C125.779 23.9679 126.631 24.6046 127.566 25.0924C127.802 25.2157 127.982 25.4159 128.1 25.6624C128.67 26.8485 128.413 28.5173 127.51 29.4416C126.626 30.3402 125.574 30.8434 124.295 30.8383C123.622 30.8383 122.945 30.8383 122.272 30.8383C121.825 30.8383 121.394 30.7458 120.993 30.5559C120.552 30.3505 120.398 30.0116 120.495 29.5546C120.588 29.1387 120.845 28.923 121.255 29.0514C122.236 29.3595 123.232 29.2414 124.223 29.2568C124.454 29.2568 124.696 29.2568 124.927 29.2105C126.406 28.9384 126.878 28.2144 126.503 26.5764C126.344 25.8729 125.651 25.4776 124.973 25.2362C124.198 24.9589 123.468 24.5841 122.724 24.2401C121.656 23.7471 121.081 22.8485 120.721 21.7959C120.377 20.7946 121.029 19.3364 122.072 18.6945C122.631 18.3505 123.227 18.1245 123.9 18.1605C124.249 18.181 124.603 18.1605 125.055 18.1605V18.1708Z" fill="white"/>
<path d="M177.44 18.176C178.642 18.176 179.843 18.1658 181.045 18.176C181.733 18.1863 181.985 18.3455 181.995 18.7152C182.005 19.1208 181.671 19.3827 181.05 19.4084C180.495 19.4341 179.931 19.393 179.381 19.4546C178.472 19.5573 178.221 19.8294 178.175 20.7486C178.056 23.09 178.123 25.4264 178.313 27.7627C178.38 28.5637 178.293 29.3442 178.164 30.1247C178.098 30.5098 177.887 30.7717 177.476 30.8076C177.081 30.8435 176.798 30.6587 176.614 30.3198C176.47 30.0528 176.434 29.7601 176.439 29.4674C176.46 27.2133 176.305 24.9539 176.547 22.6998C176.634 21.8885 176.429 21.0721 176.547 20.2505C176.614 19.7832 176.326 19.5419 175.787 19.47C175.14 19.3827 174.503 19.4597 173.861 19.5778C173.117 19.7165 172.829 19.5778 172.752 19.1054C172.66 18.556 173.014 18.1966 173.743 18.1863C174.976 18.1658 176.208 18.1812 177.44 18.1812V18.1709V18.176Z" fill="white"/>
<path d="M168.496 24.3173C168.496 25.868 168.496 27.4238 168.496 28.9745C168.496 29.2364 168.496 29.5085 168.424 29.755C168.321 30.1504 167.956 30.3404 167.535 30.2941C167.155 30.2531 166.965 30.0323 166.919 29.6677C166.909 29.5804 166.899 29.4931 166.899 29.4058C166.965 27.357 166.734 25.3083 166.781 23.2646C166.811 21.9193 166.914 20.5791 166.914 19.2287C166.914 19.1414 166.914 19.0541 166.929 18.9668C167.007 18.4841 167.238 18.2428 167.643 18.212C168.075 18.1812 168.362 18.4328 168.449 18.9565C168.496 19.2133 168.49 19.4803 168.49 19.7422C168.49 21.2672 168.49 22.7871 168.49 24.3121L168.496 24.3173Z" fill="white"/>
<path d="M147.925 26.0066C147.925 27.1774 147.925 28.3532 147.925 29.524C147.925 29.8783 147.92 30.2531 147.53 30.4328C147.206 30.5817 146.857 30.6844 146.529 30.4534C146.2 30.2223 146.144 29.868 146.21 29.5086C146.39 28.4867 146.313 27.4598 146.318 26.438C146.333 24.2403 146.323 22.0426 146.333 19.8449C146.333 19.5265 146.333 19.1979 146.405 18.8847C146.508 18.3917 146.832 18.171 147.283 18.2069C147.704 18.2428 147.874 18.4534 147.92 18.9977C147.93 19.1158 147.93 19.2339 147.925 19.3468C147.864 20.4559 147.787 21.5496 147.9 22.669C148.013 23.773 147.925 24.8924 147.925 26.0066Z" fill="white"/>
</g>
<defs>
<clipPath id="clip0_3033_2857">
<rect width="164" height="25.6945" fill="white" transform="translate(18 12.1528)"/>
</clipPath>
</defs>
</svg>
