<svg width="229" height="36" viewBox="0 0 229 36" fill="none" xmlns="http://www.w3.org/2000/svg">
<g clip-path="url(#clip0_572_71296)">
<path d="M140.103 28.7083H138.741V14.4757H140.103C142.772 14.4757 145.694 15.0748 146.983 16.2729C148.454 17.6345 149.162 19.3772 149.162 21.592C149.162 23.7887 148.454 25.5132 146.983 26.8566C146.257 27.5103 145.458 27.9821 144.605 28.2726C143.661 28.545 141.555 28.7083 140.103 28.7083ZM138.796 8.44857H132.496V34.7355H138.741C143.425 34.7355 155.443 34.2634 155.443 21.592C155.425 17.5982 153.718 8.44857 138.796 8.44857ZM196.289 14.0218C202.117 14.0218 204.531 17.6708 204.531 17.6708V10.264L203.823 9.88272C201.5 8.63009 199.067 7.97656 196.562 7.97656C192.005 7.97656 188.229 9.59227 185.361 12.7692C183.019 15.3652 181.839 18.3606 181.839 21.6828C181.839 25.3862 183.255 28.5994 186.069 31.2318C188.864 33.8278 192.314 35.153 196.271 35.153C198.904 35.153 201.445 34.5177 203.823 33.2468L204.549 32.8657V25.8583C204.549 25.8583 200.81 29.1258 196.326 29.1258C194.129 29.1258 192.314 28.418 190.789 26.9838C189.264 25.5315 188.52 23.7887 188.52 21.6465C188.52 19.4862 189.264 17.7071 190.789 16.2185C192.295 14.7298 194.093 14.0218 196.289 14.0218Z" fill="white"/>
<path d="M218.799 14.0218C224.628 14.0218 227.043 17.6708 227.043 17.6708V10.264L226.335 9.88272C224.01 8.63009 221.577 7.97656 219.073 7.97656C214.515 7.97656 210.758 9.59227 207.871 12.7692C205.548 15.3652 204.368 18.3606 204.368 21.6828C204.368 25.3862 205.784 28.5994 208.579 31.2318C211.394 33.8278 214.824 35.153 218.781 35.153C221.414 35.153 223.957 34.5177 226.335 33.2468L227.059 32.8657V25.8583C227.059 25.8583 223.321 29.1258 218.837 29.1258C216.64 29.1258 214.824 28.418 213.317 26.9838C211.793 25.5315 211.048 23.7887 211.048 21.6465C211.048 19.4862 211.793 17.7071 213.317 16.2185C214.789 14.7298 216.603 14.0218 218.799 14.0218ZM168.586 23.0807L162.269 8.44857H155.751V34.7355H162.269V23.6979L167.334 34.7355H169.675L174.867 23.7523V34.7355H181.457V8.44857H175.285L168.586 23.0807Z" fill="white"/>
<path d="M116.689 7.97461V35.1511" stroke="white" stroke-width="4"/>
<mask id="mask0_572_71296" style="mask-type:luminance" maskUnits="userSpaceOnUse" x="0" y="0" width="103" height="36">
<path d="M102.328 0.152344L0.572266 0.152344L0.572266 35.0947H102.328V0.152344Z" fill="white"/>
</mask>
<g mask="url(#mask0_572_71296)">
<path d="M47.795 21.6017C47.795 17.2514 47.795 12.9031 47.795 8.55283C47.795 8.27419 47.9359 8.13489 48.2171 8.13489C51.748 8.13489 55.2788 8.12254 58.8077 8.14107C60.463 8.1493 62.0647 8.44783 63.5286 9.2796C65.3444 10.3131 66.4171 11.8861 66.8144 13.914C67.0924 15.3305 67.0944 16.7408 66.5324 18.1078C65.9991 19.4028 65.1447 20.4281 63.9383 21.1508C63.8024 21.2331 63.7303 21.2784 63.9259 21.3814C65.8612 22.4025 67.0121 23.9961 67.2839 26.164C67.5597 28.367 67.2097 30.4484 65.8139 32.254C64.7536 33.6272 63.3041 34.3972 61.6427 34.8008C60.815 35.0025 59.973 35.089 59.1247 35.0911C55.4703 35.0972 51.818 35.0931 48.1636 35.0931C47.795 35.0931 47.793 35.0931 47.793 34.7225C47.793 30.3475 47.793 25.9746 47.793 21.5996L47.795 21.6017ZM53.1315 27.0617C53.1315 28.0561 53.1356 29.0505 53.1274 30.047C53.1274 30.2508 53.1747 30.3414 53.4012 30.3393C55.2027 30.3311 57.0062 30.3517 58.8077 30.327C59.7218 30.3146 60.5577 30.0325 61.2103 29.347C61.7312 28.7993 61.9824 28.1281 62.0359 27.387C62.11 26.3699 61.8877 25.4434 61.1321 24.7002C60.4753 24.0558 59.6518 23.817 58.7686 23.8067C56.9918 23.784 55.213 23.8046 53.4362 23.7943C53.1994 23.7943 53.1233 23.8664 53.1253 24.1031C53.1356 25.0893 53.1294 26.0755 53.1294 27.0637L53.1315 27.0617ZM53.1315 15.9378C53.1315 16.8664 53.1336 17.7949 53.1315 18.7234C53.1315 18.8984 53.1706 18.9993 53.3765 18.9993C55.1697 18.9911 56.965 19.0425 58.7562 18.9705C60.2159 18.9108 61.4347 18.0687 61.6406 16.4443C61.7662 15.4581 61.5891 14.5399 60.85 13.8049C60.1994 13.1584 59.3759 12.9134 58.4906 12.899C56.8044 12.8743 55.1183 12.8928 53.4321 12.8825C53.185 12.8825 53.1274 12.9731 53.1294 13.1996C53.1397 14.1117 53.1336 15.0237 53.1336 15.9358L53.1315 15.9378Z" fill="white"/>
<path d="M0.571289 21.6161C0.571289 17.2575 0.571289 12.899 0.571289 8.54254C0.571289 8.27078 0.707171 8.13489 0.978936 8.13489C4.50982 8.13489 8.0407 8.12254 11.5716 8.14107C13.3236 8.1493 15.0098 8.47872 16.5272 9.41342C18.2401 10.4675 19.2304 12.022 19.601 13.9758C19.8419 15.242 19.8604 16.5081 19.4383 17.7496C18.9483 19.1908 18.0589 20.3149 16.766 21.1199C16.6027 21.2214 16.6047 21.3182 16.7722 21.4102C18.8207 22.5425 19.9222 24.2781 20.1095 26.6067C20.2289 28.0931 20.0436 29.5322 19.4219 30.8911C18.4995 32.9005 16.8895 34.0967 14.7978 34.6999C13.8425 34.9758 12.8625 35.0869 11.8722 35.089C8.24247 35.0952 4.61276 35.0911 0.983054 35.0911C0.709916 35.0911 0.572662 34.9566 0.571289 34.6875C0.571289 30.3331 0.571289 25.9746 0.571289 21.6161ZM5.91394 27.0678C5.91394 28.0622 5.91805 29.0587 5.90982 30.0531C5.90982 30.2631 5.96952 30.3414 6.18982 30.3414C7.97482 30.3331 9.76188 30.3475 11.5469 30.3311C12.2654 30.3249 12.9428 30.1355 13.5501 29.7258C14.9481 28.7767 15.1931 26.5531 14.3181 25.1984C13.6675 24.1917 12.6628 23.8231 11.5242 23.8067C9.7557 23.7799 7.98511 23.8046 6.21658 23.7943C5.97364 23.7943 5.90982 23.8767 5.91188 24.1072C5.92217 25.0934 5.91599 26.0796 5.91599 27.0678H5.91394ZM5.91394 15.9399C5.91394 16.8684 5.916 17.797 5.91188 18.7255C5.91188 18.9025 5.95511 18.9993 6.15894 18.9993C7.9357 18.9911 9.71452 19.0384 11.4892 18.9725C13.0066 18.917 14.246 18.044 14.4251 16.3311C14.5322 15.2975 14.2892 14.3628 13.4657 13.6587C12.8378 13.1214 12.0781 12.9072 11.271 12.897C9.58482 12.8764 7.89864 12.8928 6.21041 12.8825C5.96129 12.8825 5.90776 12.9752 5.90982 13.2017C5.92011 14.1137 5.91394 15.0258 5.91394 15.9399Z" fill="white"/>
<path d="M33.5748 18.88C33.7087 18.5917 33.8301 18.3364 33.9495 18.077C35.4298 14.8385 36.9101 11.602 38.3822 8.36145C38.4584 8.19262 38.5531 8.13086 38.7363 8.13086C40.4801 8.13498 42.226 8.13292 43.9698 8.13498C44.2457 8.13498 44.2581 8.16174 44.1284 8.41704C42.7325 11.1573 41.3366 13.8976 39.9407 16.6359C38.7116 19.0447 37.4825 21.4556 36.2492 23.8623C36.169 24.0167 36.1545 24.1712 36.1545 24.3379C36.1545 27.7906 36.1545 31.2453 36.1545 34.6979C36.1545 34.96 36.0242 35.0918 35.7634 35.0932C34.2563 35.0932 32.7513 35.0932 31.2442 35.0932C30.886 35.0932 30.886 35.0932 30.886 34.7412C30.886 31.272 30.886 27.8009 30.886 24.3317C30.886 24.1547 30.8551 23.9941 30.7748 23.8356C28.7613 19.8888 26.7498 15.94 24.7363 11.9912C24.131 10.8053 23.5216 9.61939 22.9163 8.43351C22.7742 8.15557 22.7866 8.13498 23.1016 8.13498C24.8207 8.13498 26.5419 8.13909 28.261 8.13086C28.4751 8.13086 28.5822 8.20292 28.6707 8.39439C30.2107 11.7297 31.759 15.0629 33.3051 18.3962C33.3751 18.5485 33.4307 18.7132 33.5666 18.88H33.5748Z" fill="white"/>
<path d="M95.2756 23.9859C95.2756 27.5538 95.2756 31.1238 95.2756 34.6917C95.2756 34.9567 95.1465 35.0897 94.8886 35.0912C93.365 35.0912 91.8436 35.0912 90.3201 35.0912C89.968 35.0912 89.9659 35.0912 89.9659 34.7309C89.9659 27.6423 89.9659 20.5538 89.9659 13.4653C89.9659 13.3829 89.9659 13.3006 89.9659 13.2182C89.9659 12.8888 89.9659 12.8867 89.6406 12.8867C87.5345 12.8867 85.4262 12.8867 83.3201 12.8867C82.9495 12.8867 82.9495 12.8867 82.9495 12.5203C82.9495 11.1717 82.9495 9.82321 82.9495 8.47468C82.9495 8.14321 82.9556 8.13498 83.2727 8.13498C89.5192 8.13498 95.7677 8.13498 102.014 8.13086C102.251 8.13086 102.329 8.20909 102.327 8.4438C102.319 9.82527 102.319 11.2067 102.327 12.5882C102.327 12.8312 102.234 12.8929 102.006 12.8929C99.8833 12.8867 97.7586 12.8888 95.6359 12.8888C95.3957 12.8888 95.2756 13.0117 95.2756 13.2573C95.2756 16.8335 95.2756 20.4117 95.2756 23.9879V23.9859Z" fill="white"/>
<path d="M73.0352 13.615C73.0352 9.27293 73.0352 4.93293 73.0352 0.590873C73.0352 0.29852 73.1793 0.152344 73.4675 0.152344C74.9725 0.152344 76.4796 0.152344 77.9846 0.152344C78.349 0.152344 78.3613 0.162638 78.3613 0.524991C78.3613 9.25646 78.3613 17.9879 78.3613 26.7194C78.3613 27.0859 78.351 27.0962 77.9907 27.0962C76.4775 27.0962 74.9622 27.0962 73.449 27.0962C73.1743 27.0962 73.0364 26.9603 73.0352 26.6885C73.0352 22.33 73.0352 17.9735 73.0352 13.615Z" fill="white"/>
</g>
</g>
<defs>
<clipPath id="clip0_572_71296">
<rect width="228.324" height="35" fill="white" transform="translate(0.572266 0.152344)"/>
</clipPath>
</defs>
</svg>
