<svg width="206" height="40" viewBox="0 0 206 40" fill="none" xmlns="http://www.w3.org/2000/svg">
<path d="M24.453 32.1872H22.0243L19.1194 29.4791V28.0898L22.1275 25.1733V20.5551L26.0581 17.9508L30.5359 21.3893L24.453 32.1872ZM14.4029 24.8963L14.848 20.5551L13.3773 16.6663H22.0598L20.6245 20.5551L21.0342 24.8963H17.6841H14.4029ZM16.3854 29.4791L13.4805 32.2225H11.0185L4.90122 21.3893L9.41234 17.9861L13.3773 20.5551V25.1733L16.3854 28.0898V29.4791ZM10.9852 8.64489H24.4186L26.0248 15.5904H9.41341L10.9852 8.64489ZM17.7185 0L0.662109 10V30L17.7185 40L34.7761 30V10L17.7185 0Z" fill="white"/>
<path d="M53.9141 29.2778C49.4019 29.2778 46.0874 25.7025 46.0874 21.2917C46.0874 16.881 49.4363 13.2019 53.9485 13.2019C56.819 13.2019 58.5972 14.2778 59.9992 15.8404L57.8458 18.2019C56.7857 17.0554 55.6579 16.2928 53.9141 16.2928C51.3844 16.2928 49.5385 18.5142 49.5385 21.2222C49.5385 23.9997 51.4199 26.2222 54.0861 26.2222C55.7257 26.2222 56.9222 25.4244 58.0156 24.3131L60.1013 26.4308C58.5973 28.0629 56.8545 29.2778 53.9141 29.2778ZM66.6981 29.2778H63.2116V13.2361H66.6981V16.9858C67.655 14.695 69.3988 13.0971 72.065 13.2361V16.9858H71.8607C68.8182 16.9858 66.6981 18.9997 66.6981 23.0971V29.2778ZM90.2836 13.1666L82.5924 33.5837H79.0725L80.7475 29.2778L74.1496 13.1666H77.8759L82.3537 25.0768L86.6606 13.1666H90.2836ZM100.538 16.2575C98.1802 16.2575 96.129 18.2019 96.129 21.2233C96.129 24.2447 98.2146 26.188 100.538 26.188C102.931 26.188 104.879 24.2789 104.879 21.2222C104.879 18.1655 102.897 16.2575 100.538 16.2575ZM101.325 29.2436C98.8296 29.2436 97.2567 27.958 96.1967 26.5345V33.5837H92.7112V13.1666H96.1978V16.049C97.3255 14.4522 98.8973 13.1666 101.325 13.1666C104.914 13.1666 108.4 16.049 108.4 21.188C108.4 26.327 104.948 29.2436 101.325 29.2436ZM116.023 16.5345V24.1046C116.023 25.4586 116.706 26.0136 117.903 26.0136H119.27V29.1741H116.877C114.348 29.1741 112.536 28.0275 112.536 24.6607V16.5345H110.622V13.5142H112.536V9.27783H116.023V13.5142H119.269V16.5345H116.023ZM130.242 16.2575C127.439 16.2575 125.662 18.4789 125.662 21.188C125.662 23.9313 127.576 26.1869 130.276 26.1869C133.079 26.1869 134.856 23.9655 134.856 21.2575C134.925 18.5142 132.977 16.2575 130.242 16.2575ZM130.242 29.2789C125.628 29.2789 122.21 25.7014 122.21 21.2917C122.21 16.8479 125.662 13.2019 130.311 13.2019C134.959 13.2019 138.377 16.7773 138.377 21.2222C138.377 25.5976 134.959 29.2789 130.242 29.2789ZM171.636 16.2575C168.834 16.2575 167.056 18.4789 167.056 21.188C167.056 23.9313 168.97 26.1869 171.671 26.1869C174.474 26.1869 176.251 23.9655 176.251 21.2575C176.285 18.5142 174.371 16.2575 171.636 16.2575ZM171.636 29.2789C167.022 29.2789 163.603 25.7014 163.603 21.2917C163.603 16.8479 167.056 13.2019 171.705 13.2019C176.354 13.2019 179.772 16.7773 179.772 21.2222C179.772 25.5976 176.319 29.2789 171.636 29.2789ZM200.418 13.1666C203.733 13.1666 205.75 15.2853 205.75 19.0704V29.2436H202.264V20.1463C202.264 17.6811 201.135 16.3966 199.187 16.3966C197.306 16.3966 195.94 17.7506 195.94 20.2147V29.2778H192.453V20.1463C192.453 17.7506 191.291 16.3966 189.377 16.3966C187.462 16.3966 186.13 17.8543 186.13 20.25V29.2778H182.643V13.2019H186.13V15.8404C187.121 14.4864 188.42 13.2019 190.744 13.2019C192.932 13.2019 194.436 14.2778 195.256 15.9099C196.521 14.2436 198.128 13.1666 200.418 13.1666ZM141.42 25.8404L142.924 24.9719H143.128L144.668 25.8404L144.77 26.0136V27.8201L144.668 27.9933L143.129 28.8618H142.924L141.42 27.9933L141.317 27.8201V26.0136L141.42 25.8404ZM155.331 29.2436C150.819 29.1388 147.572 25.4928 147.641 21.0832C147.71 16.6735 151.128 13.0629 155.673 13.1666C158.544 13.2361 160.322 14.3474 161.69 15.9452L159.502 18.2714C158.476 17.1249 157.348 16.2917 155.606 16.2575C153.076 16.2222 151.196 18.3763 151.161 21.1185C151.093 23.896 152.939 26.1527 155.606 26.188C157.246 26.2222 158.476 25.4586 159.571 24.3473L161.621 26.4992C160.083 28.1324 158.305 29.3131 155.331 29.2436Z" fill="white"/>
</svg>
