<svg width="200" height="50" viewBox="0 0 200 50" fill="none" xmlns="http://www.w3.org/2000/svg">
<path d="M36.9975 34.7497H35.0546L32.7307 32.5833V31.4719L35.1372 29.1386V25.444L38.2816 23.3606L41.8639 26.1115L36.9975 34.7497ZM28.9575 28.917L29.3136 25.444L28.137 22.333H35.083L33.9348 25.444L34.2625 28.917H31.5825H28.9575ZM30.5435 32.5833L28.2196 34.778H26.25L21.3561 26.1115L24.965 23.3889L28.137 25.444V29.1386L30.5435 31.4719V32.5833ZM26.2233 15.9159H36.97L38.255 21.4723H24.9659L26.2233 15.9159ZM31.61 9L17.9648 17V33L31.61 41L45.256 33V17L31.61 9Z" fill="white"/>
<path d="M60.5665 32.4224C56.9568 32.4224 54.3052 29.5621 54.3052 26.0335C54.3052 22.5049 56.9843 19.5616 60.5941 19.5616C62.8905 19.5616 64.3131 20.4224 65.4346 21.6724L63.7119 23.5616C62.8638 22.6444 61.9616 22.0344 60.5665 22.0344C58.5428 22.0344 57.066 23.8115 57.066 25.9779C57.066 28.1999 58.5712 29.9779 60.7042 29.9779C62.0158 29.9779 62.9731 29.3396 63.8477 28.4506L65.5163 30.1447C64.3131 31.4504 62.9189 32.4224 60.5665 32.4224ZM70.7937 32.4224H68.0045V19.589H70.7937V22.5888C71.5592 20.7561 72.9543 19.4778 75.0873 19.589V22.5888H74.9238C72.4898 22.5888 70.7937 24.1999 70.7937 27.4778V32.4224ZM89.6622 19.5334L83.5092 35.8671H80.6933L82.0333 32.4224L76.755 19.5334H79.736L83.3182 29.0615L86.7637 19.5334H89.6622ZM97.8656 22.0061C95.9794 22.0061 94.3384 23.5616 94.3384 25.9787C94.3384 28.3959 96.007 29.9505 97.8656 29.9505C99.7801 29.9505 101.339 28.4232 101.339 25.9779C101.339 23.5325 99.7526 22.0061 97.8656 22.0061ZM98.4952 32.395C96.4989 32.395 95.2406 31.3665 94.3926 30.2277V35.8671H91.6042V19.5334H94.3935V21.8393C95.2957 20.5618 96.5531 19.5334 98.4952 19.5334C101.366 19.5334 104.155 21.8393 104.155 25.9505C104.155 30.0617 101.394 32.395 98.4952 32.395ZM110.253 22.2277V28.2838C110.253 29.367 110.8 29.811 111.758 29.811H112.852V32.3394H110.937C108.913 32.3394 107.464 31.4221 107.464 28.7287V22.2277H105.933V19.8115H107.464V16.4224H110.253V19.8115H112.851V22.2277H110.253ZM121.629 22.0061C119.386 22.0061 117.965 23.7832 117.965 25.9505C117.965 28.1452 119.496 29.9496 121.656 29.9496C123.898 29.9496 125.32 28.1725 125.32 26.0061C125.375 23.8115 123.817 22.0061 121.629 22.0061ZM121.629 32.4232C117.937 32.4232 115.203 29.5612 115.203 26.0335C115.203 22.4784 117.965 19.5616 121.684 19.5616C125.403 19.5616 128.137 22.4219 128.137 25.9779C128.137 29.4782 125.403 32.4232 121.629 32.4232ZM154.744 22.0061C152.502 22.0061 151.08 23.7832 151.08 25.9505C151.08 28.1452 152.611 29.9496 154.772 29.9496C157.014 29.9496 158.436 28.1725 158.436 26.0061C158.463 23.8115 156.932 22.0061 154.744 22.0061ZM154.744 32.4232C151.053 32.4232 148.318 29.5612 148.318 26.0335C148.318 22.4784 151.08 19.5616 154.799 19.5616C158.518 19.5616 161.253 22.4219 161.253 25.9779C161.253 29.4782 158.491 32.4232 154.744 32.4232ZM177.77 19.5334C180.422 19.5334 182.035 21.2284 182.035 24.2564V32.395H179.246V25.1171C179.246 23.1449 178.343 22.1174 176.785 22.1174C175.28 22.1174 174.187 23.2006 174.187 25.1719V32.4224H171.398V25.1171C171.398 23.2006 170.468 22.1174 168.937 22.1174C167.405 22.1174 166.339 23.2835 166.339 25.2001V32.4224H163.55V19.5616H166.339V21.6724C167.132 20.5892 168.171 19.5616 170.031 19.5616C171.781 19.5616 172.984 20.4224 173.64 21.728C174.652 20.395 175.938 19.5334 177.77 19.5334ZM130.571 29.6724L131.774 28.9776H131.938L133.169 29.6724L133.251 29.811V31.2562L133.169 31.3948L131.938 32.0895H131.774L130.571 31.3948L130.489 31.2562V29.811L130.571 29.6724ZM141.7 32.395C138.091 32.3111 135.493 29.3943 135.548 25.8666C135.603 22.3389 138.337 19.4504 141.974 19.5334C144.27 19.589 145.693 20.478 146.787 21.7563L145.037 23.6172C144.216 22.7 143.314 22.0335 141.92 22.0061C139.896 21.9779 138.392 23.7011 138.364 25.8949C138.31 28.1169 139.787 29.9222 141.92 29.9505C143.232 29.9779 144.216 29.367 145.092 28.478L146.732 30.1994C145.502 31.506 144.079 32.4506 141.7 32.395Z" fill="white"/>
</svg>
