<svg width="202" height="30" viewBox="0 0 202 30" fill="none" xmlns="http://www.w3.org/2000/svg">
<path d="M63.2632 22.9477V0.341309H67.8073V22.9477H63.2632Z" fill="white"/>
<path d="M10.3123 29.6579H0.570801V7.05151H9.92095C14.4651 7.05151 17.1123 9.52884 17.1123 13.4016C17.1123 15.9092 15.4115 17.5301 14.2345 18.0701C15.64 18.704 17.4379 20.1328 17.4379 23.1501C17.4379 27.3717 14.4651 29.6579 10.3123 29.6579ZM9.56098 10.9889H5.11493V16.1964H9.55997C11.4882 16.1964 12.5671 15.1488 12.5671 13.5917C12.5671 12.0375 11.4892 10.9889 9.56098 10.9889ZM9.85421 20.1652H5.11594V25.7225H9.85623C11.916 25.7225 12.8948 24.4525 12.8948 22.9276C12.8948 21.4038 11.9139 20.1652 9.85623 20.1652H9.85421ZM31.2978 20.3876V29.6579H26.786V20.3876L19.7898 7.05151H24.7263L29.0742 16.164L33.3565 7.05151H38.2919L31.2978 20.3876ZM51.175 29.6579H41.4336V7.05151H50.7827C55.3268 7.05151 57.9751 9.52884 57.9751 13.4016C57.9751 15.9092 56.2743 17.5301 55.0973 18.0701C56.5028 18.704 58.3007 20.1328 58.3007 23.1501C58.3007 27.3717 55.3279 29.6579 51.175 29.6579ZM50.4238 10.9889H45.9777V16.1964H50.4238C52.352 16.1964 53.4309 15.1488 53.4309 13.5917C53.4309 12.0375 52.352 10.9889 50.4238 10.9889ZM50.717 20.1652H45.9767V25.7225H50.717C52.7777 25.7225 53.7565 24.4525 53.7565 22.9276C53.7565 21.4038 52.7777 20.1652 50.717 20.1652ZM82.4602 10.99V29.6599H77.916V10.9889H71.837V7.05151H88.5413V10.9889L82.4602 10.99Z" fill="white"/>
<path d="M127.019 23.6932H125.86V11.5787H127.019C129.291 11.5787 131.778 12.0887 132.875 13.1085C134.127 14.2674 134.73 15.7508 134.73 17.636C134.73 19.5057 134.127 20.9736 132.875 22.1171C132.257 22.6734 131.577 23.0751 130.851 23.3223C130.048 23.5541 128.255 23.6932 127.019 23.6932ZM125.907 6.44863H120.545V28.8233H125.86C129.847 28.8233 140.076 28.4215 140.076 17.636C140.061 14.2365 138.608 6.44863 125.907 6.44863ZM174.843 11.1924C179.803 11.1924 181.859 14.2983 181.859 14.2983V7.99384L181.256 7.66935C179.278 6.60315 177.208 6.04688 175.075 6.04688C171.197 6.04688 167.983 7.42211 165.541 10.1262C163.548 12.3359 162.543 14.8855 162.543 17.7132C162.543 20.8655 163.749 23.6005 166.144 25.841C168.523 28.0507 171.459 29.1787 174.828 29.1787C177.068 29.1787 179.232 28.6379 181.256 27.5562L181.874 27.2317V21.2672C181.874 21.2672 178.691 24.0486 174.874 24.0486C173.005 24.0486 171.459 23.446 170.161 22.2252C168.863 20.9891 168.23 19.5057 168.23 17.6823C168.23 15.8435 168.863 14.3292 170.161 13.0621C171.444 11.7951 172.974 11.1924 174.843 11.1924Z" fill="white"/>
<path d="M194.01 11.1929C198.97 11.1929 201.025 14.2988 201.025 14.2988V7.99433L200.423 7.66984C198.445 6.60364 196.374 6.04736 194.242 6.04736C190.363 6.04736 187.165 7.4226 184.708 10.1267C182.73 12.3364 181.725 14.886 181.725 17.7137C181.725 20.8659 182.931 23.601 185.31 25.8415C187.705 28.0512 190.626 29.1792 193.994 29.1792C196.235 29.1792 198.398 28.6384 200.423 27.5567L201.041 27.2322V21.2677C201.041 21.2677 197.858 24.0491 194.041 24.0491C192.171 24.0491 190.626 23.4465 189.343 22.2257C188.045 20.9896 187.412 19.5062 187.412 17.6828C187.412 15.844 188.045 14.3297 189.343 13.0626C190.595 11.7956 192.14 11.1929 194.01 11.1929ZM151.269 18.9035L145.892 6.44912H140.345V28.8238H145.892V19.4289L150.203 28.8238H152.197L156.616 19.4753V28.8238H162.225V6.44912H156.971L151.269 18.9035Z" fill="white"/>
<line x1="105.024" y1="7.73804" x2="105.024" y2="29.1788" stroke="white" stroke-width="0.956113"/>
</svg>
