<svg width="200" height="50" viewBox="0 0 200 50" fill="none" xmlns="http://www.w3.org/2000/svg">
<path d="M66.7068 32.0474V11.9995H70.7366V32.0474H66.7068Z" fill="white"/>
<path d="M19.7488 37.9986H11.1099V17.9507H19.4017C23.4316 17.9507 25.7791 20.1476 25.7791 23.5821C25.7791 25.8059 24.2709 27.2434 23.2271 27.7222C24.4735 28.2844 26.0679 29.5515 26.0679 32.2273C26.0679 35.9711 23.4316 37.9986 19.7488 37.9986ZM19.0825 21.4425H15.1397V26.0606H19.0816C20.7916 26.0606 21.7484 25.1316 21.7484 23.7506C21.7484 22.3724 20.7925 21.4425 19.0825 21.4425ZM19.3426 29.5802H15.1406V34.5085H19.3443C21.1709 34.5085 22.039 33.3823 22.039 32.03C22.039 30.6787 21.1692 29.5802 19.3443 29.5802H19.3426ZM38.3591 29.7775V37.9986H34.358V29.7775L28.1536 17.9507H32.5314L36.3872 26.0319L40.1848 17.9507H44.5616L38.3591 29.7775ZM55.9866 37.9986H47.3477V17.9507H55.6387C59.6685 17.9507 62.017 20.1476 62.017 23.5821C62.017 25.8059 60.5087 27.2434 59.4649 27.7222C60.7114 28.2844 62.3057 29.5515 62.3057 32.2273C62.3057 35.9711 59.6694 37.9986 55.9866 37.9986ZM55.3203 21.4425H51.3775V26.0606H55.3203C57.0304 26.0606 57.9872 25.1316 57.9872 23.7506C57.9872 22.3724 57.0304 21.4425 55.3203 21.4425ZM55.5804 29.5802H51.3766V34.5085H55.5804C57.4079 34.5085 58.2759 33.3823 58.2759 32.03C58.2759 30.6787 57.4079 29.5802 55.5804 29.5802ZM83.7308 21.4434V38.0004H79.701V21.4425H74.31V17.9507H89.1236V21.4425L83.7308 21.4434Z" fill="white"/>
<path d="M123.247 32.7093H122.219V21.9658H123.247C125.261 21.9658 127.467 22.4181 128.44 23.3225C129.55 24.3502 130.084 25.6657 130.084 27.3376C130.084 28.9957 129.55 30.2975 128.44 31.3115C127.892 31.8048 127.289 32.1611 126.645 32.3804C125.932 32.5859 124.343 32.7093 123.247 32.7093ZM122.26 17.4163H117.505V37.2588H122.219C125.754 37.2588 134.826 36.9025 134.826 27.3376C134.812 24.3228 133.524 17.4163 122.26 17.4163ZM165.658 21.6233C170.057 21.6233 171.879 24.3776 171.879 24.3776V18.7867L171.345 18.4989C169.591 17.5534 167.754 17.0601 165.863 17.0601C162.424 17.0601 159.574 18.2797 157.409 20.6777C155.641 22.6373 154.75 24.8984 154.75 27.4061C154.75 30.2015 155.819 32.627 157.943 34.614C160.053 36.5736 162.657 37.5739 165.644 37.5739C167.631 37.5739 169.55 37.0943 171.345 36.1351L171.893 35.8473V30.5578C171.893 30.5578 169.07 33.0244 165.685 33.0244C164.027 33.0244 162.657 32.49 161.506 31.4074C160.355 30.3112 159.793 28.9957 159.793 27.3787C159.793 25.748 160.355 24.405 161.506 23.2814C162.643 22.1577 164 21.6233 165.658 21.6233Z" fill="white"/>
<path d="M182.655 21.6233C187.054 21.6233 188.876 24.3776 188.876 24.3776V18.7867L188.342 18.4989C186.588 17.5534 184.752 17.0601 182.861 17.0601C179.421 17.0601 176.585 18.2797 174.406 20.6777C172.652 22.6373 171.761 24.8984 171.761 27.4061C171.761 30.2015 172.83 32.627 174.94 34.614C177.064 36.5736 179.654 37.5739 182.642 37.5739C184.628 37.5739 186.547 37.0943 188.342 36.1351L188.89 35.8473V30.5578C188.89 30.5578 186.067 33.0244 182.683 33.0244C181.025 33.0244 179.654 32.49 178.517 31.4074C177.366 30.3112 176.804 28.9957 176.804 27.3787C176.804 25.748 177.366 24.405 178.517 23.2814C179.627 22.1577 180.997 21.6233 182.655 21.6233ZM144.752 28.4612L139.983 17.4163H135.064V37.2588H139.983V28.9271L143.807 37.2588H145.574L149.493 28.9682V37.2588H154.468V17.4163H149.809L144.752 28.4612Z" fill="white"/>
<line x1="103.795" y1="18.5596" x2="103.795" y2="37.5738" stroke="white" stroke-width="0.956113"/>
</svg>
