<svg width="143" height="40" viewBox="0 0 143 40" fill="none" xmlns="http://www.w3.org/2000/svg">
<path d="M0.79703 7.17803C0.774969 7.05449 0.898509 7.05449 0.977928 7.0236C2.42952 6.48091 3.88553 5.93821 5.33712 5.39552C10.1199 3.6086 14.9026 1.82168 19.6854 0.0347653C19.8001 -0.00935613 19.8972 -0.0137683 20.0119 0.0347653C26.2286 2.33349 32.4453 4.62781 38.6664 6.91771C38.8076 6.97065 38.8518 7.0236 38.8253 7.17803C38.2958 10.2092 37.6649 13.2138 36.8928 16.192C36.1118 19.2099 35.1853 22.1837 33.9852 25.0693C32.7939 27.946 31.0202 30.4124 28.8715 32.6361C26.1668 35.4422 23.1357 37.8468 19.8531 39.9338C19.7075 40.0264 19.6104 40.0176 19.4736 39.9338C16.0895 37.8115 12.9525 35.3849 10.1817 32.4993C8.87566 31.136 7.64909 29.7064 6.72695 28.0475C5.7298 26.2561 4.99298 24.3589 4.34439 22.422C3.32519 19.3732 2.55306 16.2582 1.88683 13.1168C1.48091 11.2063 1.12794 9.28262 0.81909 7.35451C0.810266 7.30598 0.805854 7.25303 0.801442 7.18685L0.79703 7.17803ZM2.531 8.51932C2.53541 8.55461 2.53983 8.58991 2.54865 8.62521C2.8928 10.7739 3.30313 12.9094 3.78405 15.0316C4.48117 18.0937 5.30624 21.116 6.41369 24.0633C7.39318 26.6665 8.78301 29.0005 10.7111 31.0212C13.3672 33.8097 16.3763 36.157 19.6501 38.1645C19.7957 38.2528 19.8972 38.2439 20.034 38.1557C23.0342 36.2496 25.7874 34.0436 28.2317 31.458C29.3877 30.2315 30.4687 28.9431 31.3423 27.4915C32.41 25.7134 33.1689 23.7986 33.8219 21.8396C35.2912 17.4407 36.2795 12.9315 37.034 8.36048C37.0692 8.13546 37.0119 8.06928 36.8178 7.99427C31.2143 5.96469 25.6153 3.92628 20.0163 1.88787C19.8575 1.83051 19.7251 1.83051 19.5619 1.88787C15.3836 3.48947 11.2053 5.08226 7.02697 6.67945C5.59303 7.22656 4.15467 7.77808 2.72072 8.32518C2.63248 8.36048 2.51335 8.3693 2.531 8.5149V8.51932Z" fill="white"/>
<path d="M23.9544 11.5371C24.9692 11.0914 25.9796 10.6767 27.0253 10.3546C28.221 9.98399 29.4343 9.67514 30.7006 9.68837C31.0977 9.69278 31.486 9.75014 31.8654 9.88251C32.8273 10.2222 33.3038 11.0517 33.1229 12.0577C32.9861 12.8166 32.642 13.4828 32.2228 14.1182C31.4154 15.3447 30.4094 16.4037 29.3461 17.4096C28.8519 17.8817 28.3401 18.3362 27.8107 18.7641C27.6827 18.8656 27.7224 18.9142 27.8239 19.0024C28.9313 19.9687 29.9858 20.9923 30.8286 22.2012C31.2389 22.788 31.5875 23.4057 31.7331 24.1161C31.9448 25.1529 31.4772 25.9912 30.4756 26.3442C29.7608 26.6001 29.0196 26.6001 28.2783 26.5339C26.9591 26.4192 25.6928 26.0751 24.4398 25.6736C24.1971 25.5941 24.2015 25.5941 24.1618 25.8589C23.9191 27.4958 23.5794 29.1106 22.997 30.6637C22.6749 31.5241 22.2955 32.3491 21.6822 33.0507C21.2233 33.5757 20.6806 33.9596 19.9394 33.9419C19.4099 33.9287 18.9687 33.6992 18.5849 33.3551C17.9539 32.7903 17.5568 32.0668 17.2215 31.3035C16.6038 29.896 16.242 28.4091 15.9596 26.9046C15.9155 26.6795 15.867 26.4545 15.8405 26.2251C15.8229 26.0662 15.7876 26.0398 15.6376 26.1015C14.7772 26.4457 13.8992 26.7457 13.0035 26.9751C12.0681 27.2134 11.1239 27.3899 10.1489 27.3414C9.89736 27.3281 9.64587 27.2928 9.4032 27.2266C8.21192 26.909 7.66923 26.0001 7.95161 24.7955C8.16339 23.8999 8.63549 23.141 9.16936 22.413C9.99443 21.2879 10.9651 20.2996 11.9931 19.3598C12.1343 19.2318 12.1299 19.1789 11.9799 19.0686C10.4489 17.9391 8.99729 16.7169 7.73541 15.2874C7.09124 14.555 6.50443 13.7873 6.13822 12.8695C5.96614 12.4371 5.86025 11.9915 5.93085 11.5238C6.01909 10.8973 6.36765 10.4561 6.91917 10.1693C7.42215 9.90898 7.96926 9.82956 8.52519 9.81632C9.84883 9.78985 11.1195 10.0811 12.3814 10.4428C13.5241 10.7649 14.636 11.1753 15.7302 11.6341C15.8758 11.6959 15.942 11.7091 15.9773 11.5106C16.2464 10.0811 16.595 8.67358 17.173 7.3367C17.4907 6.6087 17.8613 5.91158 18.4304 5.34241C19.3702 4.40704 20.513 4.40263 21.4616 5.338C22.119 5.98659 22.5205 6.79842 22.8646 7.64555C23.3412 8.828 23.6544 10.059 23.9015 11.3076C23.9147 11.3826 23.9368 11.4576 23.9544 11.5415V11.5371ZM8.75462 10.9238C8.32664 10.9194 7.90307 10.937 7.50598 11.1091C7.14419 11.2591 7.003 11.4797 7.01623 11.8591C7.03388 12.2342 7.1839 12.5695 7.36038 12.8916C7.70894 13.5402 8.1678 14.1138 8.65755 14.6609C9.91942 16.0639 11.371 17.2464 12.8844 18.3671C12.977 18.4376 13.0344 18.4332 13.1226 18.3582C13.7977 17.7758 14.4992 17.2287 15.2228 16.7037C15.3464 16.6154 15.3949 16.5184 15.3993 16.3684C15.4523 15.2565 15.5626 14.149 15.7214 13.046C15.7435 12.8828 15.6993 12.821 15.5626 12.7636C14.5169 12.3268 13.458 11.9209 12.3682 11.5944C11.1901 11.2414 9.99884 10.9547 8.75903 10.9282L8.75462 10.9238ZM19.9747 32.8345C20.1468 32.8389 20.3012 32.7771 20.4424 32.6889C20.6674 32.5433 20.8483 32.3491 21.0071 32.1329C21.3689 31.652 21.6248 31.1137 21.8454 30.5622C22.5117 28.89 22.8514 27.1384 23.1161 25.3647C23.1338 25.2456 23.0808 25.2015 22.9794 25.1618C22.0705 24.822 21.1836 24.4382 20.3056 24.0234C20.2041 23.9749 20.1247 23.9749 20.0232 24.0278C19.0349 24.5749 18.0289 25.0779 16.9965 25.5324C16.8818 25.5853 16.8641 25.6383 16.8818 25.7618C16.9877 26.4148 17.1024 27.0634 17.248 27.7076C17.5392 28.9827 17.8922 30.2401 18.501 31.4093C18.7084 31.8064 18.9423 32.1859 19.2732 32.4947C19.4717 32.68 19.6879 32.8301 19.9703 32.8345H19.9747ZM30.5903 10.8002C30.0388 10.8002 29.5579 10.8708 29.0769 10.9679C27.4047 11.3032 25.8296 11.9209 24.2809 12.6092C24.1574 12.6622 24.1486 12.7372 24.1618 12.8475C24.3339 13.9902 24.4574 15.1418 24.5192 16.2978C24.528 16.4345 24.5854 16.514 24.7001 16.5934C25.3575 17.0434 26.0017 17.5155 26.6194 18.0185C26.7782 18.1509 26.8665 18.1244 27.0077 18.0053C27.7357 17.3876 28.4548 16.7522 29.1299 16.0772C29.9903 15.2168 30.8065 14.3167 31.4419 13.271C31.7198 12.8166 31.9669 12.3489 32.0331 11.8062C32.086 11.3782 31.9272 11.1003 31.5257 10.9458C31.2036 10.8223 30.8683 10.8002 30.5903 10.8091V10.8002ZM19.9218 5.74833C19.582 5.76157 19.3217 5.98659 19.0879 6.25131C18.7437 6.63517 18.4966 7.08521 18.2848 7.54848C17.6318 8.97802 17.2833 10.4958 16.9965 12.0312C16.97 12.1636 17.0362 12.2077 17.1377 12.2518C18.0201 12.6577 18.8893 13.0857 19.7409 13.549C19.8556 13.6108 19.9394 13.6108 20.0541 13.549C20.8483 13.0857 21.6601 12.6533 22.4808 12.2386C22.8955 12.0312 22.9088 12.0268 22.8161 11.5679C22.5293 10.134 22.1719 8.72211 21.5322 7.39847C21.2895 6.8999 21.0115 6.41897 20.588 6.04394C20.4071 5.88511 20.2085 5.75715 19.9173 5.75274L19.9218 5.74833ZM10.696 26.2427C12.3858 26.1236 13.9654 25.5721 15.5228 24.9588C15.5979 24.9279 15.6552 24.9014 15.642 24.7911C15.4964 23.6881 15.417 22.5762 15.3596 21.4644C15.3596 21.385 15.3331 21.3364 15.2625 21.2923C14.561 20.8599 13.8639 20.4143 13.1888 19.9378C13.0962 19.8716 13.0432 19.8892 12.9682 19.9598C12.8182 20.1054 12.6638 20.2422 12.5094 20.3834C11.4416 21.3938 10.4268 22.4483 9.63705 23.6969C9.37232 24.1161 9.13847 24.5529 9.02817 25.0426C8.88698 25.6647 9.112 26.0354 9.7297 26.1677C10.0474 26.2339 10.3695 26.2604 10.696 26.2383V26.2427ZM28.7416 25.453C29.3549 25.453 29.7785 25.4441 30.1756 25.2721C30.5727 25.1 30.7227 24.8176 30.6521 24.3896C30.5947 24.0278 30.4491 23.7013 30.2682 23.3925C29.399 21.9188 28.1636 20.7805 26.9018 19.6686C26.8135 19.5936 26.7562 19.6201 26.6812 19.6819C26.037 20.1849 25.3796 20.6746 24.7045 21.1379C24.6251 21.1908 24.5898 21.2526 24.5854 21.3497C24.5413 22.3336 24.4751 23.3131 24.3692 24.2926C24.3515 24.4514 24.4089 24.5043 24.5457 24.5441C24.8413 24.6279 25.1325 24.7338 25.4281 24.822C26.5753 25.1573 27.7312 25.4353 28.746 25.453H28.7416ZM23.5 18.848C23.5 18.848 23.4779 18.848 23.4647 18.848C23.4647 18.3318 23.4603 17.8111 23.4647 17.2949C23.4647 17.1272 23.4029 17.039 23.2706 16.9508C22.2249 16.2625 21.1572 15.6095 20.0718 14.9918C19.957 14.9256 19.8776 14.9256 19.7629 14.9918C18.6864 15.6448 17.6363 16.3331 16.6082 17.0611C16.5112 17.1272 16.4626 17.1978 16.4582 17.3214C16.4053 18.4068 16.4273 19.4922 16.4317 20.5775C16.4317 20.7055 16.5068 20.7496 16.595 20.8026C17.6892 21.4511 18.8099 22.0556 19.9482 22.6248C20.0674 22.6865 20.1644 22.691 20.288 22.6248C21.3292 22.0247 22.3484 21.3894 23.35 20.7276C23.4647 20.6525 23.5132 20.5643 23.5088 20.4275C23.5044 19.9025 23.5088 19.3774 23.5088 18.8524L23.5 18.848ZM18.9511 23.3616C18.0995 22.9336 17.3186 22.4968 16.5112 22.0468C16.5376 22.8498 16.6259 23.5954 16.6965 24.3455C16.7097 24.4646 16.7759 24.4205 16.8288 24.394C16.9789 24.3279 17.1289 24.2573 17.2789 24.1867C17.8172 23.9219 18.3599 23.6528 18.9511 23.3616ZM21.0336 14.2638C21.8366 14.7226 22.5867 15.1903 23.3632 15.6801C23.3103 14.8594 23.2132 14.0917 23.1161 13.324C23.1029 13.2313 23.0853 13.174 22.9705 13.2313C22.3308 13.5578 21.6954 13.8887 21.0336 14.2638ZM16.5509 15.7507C17.2789 15.2565 17.9716 14.802 18.6775 14.3608C18.7746 14.2991 18.7261 14.2638 18.6599 14.2285C18.0819 13.9417 17.5039 13.6549 16.9259 13.3725C16.8377 13.3284 16.7935 13.3505 16.7847 13.4519C16.6921 14.1976 16.6082 14.9476 16.5553 15.7507H16.5509ZM23.4471 21.9938C22.7235 22.4395 22.0616 22.8542 21.3557 23.291C21.8807 23.5116 22.3617 23.7146 22.8426 23.9175C23.2529 24.0852 23.2617 24.0852 23.3059 23.6572C23.3588 23.1233 23.3985 22.5851 23.4471 21.9938ZM15.3066 18.0141C14.8522 18.3803 14.433 18.7156 14.0183 19.0509C13.9256 19.1259 14.0051 19.1568 14.0536 19.1921C14.2213 19.3068 14.3845 19.4171 14.5522 19.5274C14.7948 19.6863 15.0375 19.8407 15.3066 20.0128V18.0141ZM24.6163 19.8407C25.0442 19.5186 25.4105 19.2362 25.7855 18.9671C25.9134 18.8745 25.8781 18.8259 25.7767 18.7509C25.4193 18.4862 25.0663 18.217 24.7089 17.9523C24.678 17.9303 24.6472 17.8905 24.6119 17.9126V19.8407H24.6163Z" fill="white"/>
<path d="M21.2325 19.0209C21.2325 19.7269 20.6986 20.274 20.0192 20.2696C19.3485 20.2651 18.8102 19.6916 18.8235 18.9989C18.8367 18.315 19.3794 17.7546 20.0324 17.7546C20.6986 17.7546 21.2325 18.3194 21.2325 19.0209Z" fill="white"/>
<path d="M128.251 22.7574C128.251 21.6632 128.233 20.569 128.255 19.4747C128.273 18.4732 128.917 18.0496 129.654 18.6453C130.117 19.0203 130.355 18.8923 130.757 18.6894C132.464 17.829 134 18.1158 135.288 19.51C135.601 19.8498 135.681 19.991 136.113 19.4571C137.035 18.3188 138.39 17.9393 139.828 18.3496C141.209 18.7423 142.105 19.638 142.299 21.1425C142.524 22.8589 142.365 24.5752 142.423 26.2915C142.44 26.8121 142.22 27.0769 141.664 27.0989C140.98 27.1254 140.909 26.7239 140.914 26.1988C140.918 24.7914 140.967 23.3839 140.887 21.9808C140.772 19.938 138.946 18.9276 137.234 19.9204C136.4 20.4013 136.135 21.1999 136.122 22.1044C136.104 23.4324 136.104 24.7605 136.113 26.0885C136.113 26.6533 136.034 27.0945 135.31 27.1033C134.512 27.1122 134.591 26.5695 134.587 26.0577C134.582 24.7693 134.595 23.481 134.573 22.1882C134.547 20.5072 133.704 19.5674 132.239 19.5497C130.801 19.5277 129.87 20.4763 129.799 22.122C129.747 23.3707 129.791 24.6237 129.764 25.8723C129.755 26.4106 129.998 27.1386 129.005 27.0945C128.066 27.0548 128.273 26.3489 128.264 25.8018C128.242 24.787 128.255 23.7722 128.255 22.753H128.251V22.7574Z" fill="white"/>
<path d="M79.0751 21.6547C78.9251 23.3049 78.4353 24.8182 77.0896 25.8771C76.5293 26.3183 76.4984 26.6007 77.0102 27.0508C77.4779 27.4655 77.9015 27.9288 78.3338 28.3832C78.4927 28.5465 78.7045 28.7274 78.5942 28.9833C78.453 29.3054 78.1309 29.2171 77.8706 29.1995C77.3102 29.1598 76.9264 28.7891 76.6264 28.3921C75.8322 27.3331 74.8791 27.0199 73.5202 27.1081C70.8729 27.2846 68.7727 25.5639 68.1065 22.996C67.4535 20.4899 68.6051 17.7853 70.8464 16.5852C73.1496 15.3498 75.9866 15.8395 77.7206 17.7456C78.7354 18.8618 78.956 20.2296 79.0839 21.6547H79.0751ZM73.4099 17.2117C70.9612 17.2249 69.3684 18.9854 69.3772 21.6591C69.386 24.2358 71.0891 25.9698 73.5908 25.9521C75.916 25.9345 77.6235 24.0593 77.597 21.5488C77.5705 18.9633 75.8675 17.1984 73.4099 17.2117Z" fill="white"/>
<path d="M99.5691 22.6317C99.5691 23.8406 99.5823 25.0495 99.5602 26.254C99.5558 26.6335 99.547 27.0747 98.9778 27.0923C98.5719 27.1056 98.1969 27.1056 98.0822 26.5761C97.9366 25.8922 97.5924 26.1967 97.2483 26.4261C95.276 27.7277 93.2862 27.5203 91.7772 25.8614C90.3433 24.2862 90.2903 21.4051 91.6581 19.6755C92.8405 18.1798 95.2584 17.8357 97.0938 18.9122C97.5306 19.1681 97.9674 19.7726 98.1925 18.696C98.2763 18.2989 98.7925 18.4225 99.1278 18.4534C99.5867 18.4975 99.6441 18.8593 99.6485 19.2299C99.6485 20.3594 99.6485 21.4933 99.6485 22.6228C99.622 22.6228 99.5999 22.6228 99.5735 22.6228L99.5691 22.6317ZM95.1746 25.9584C96.9085 25.9408 98.113 24.5863 98.0822 22.6802C98.0513 20.8492 96.8379 19.5652 95.1349 19.5608C93.3038 19.5608 92.1964 20.7742 92.2052 22.7684C92.214 24.723 93.3788 25.9717 95.179 25.9584H95.1746Z" fill="white"/>
<path d="M62.9396 23.3386C62.0395 23.3386 61.1394 23.3562 60.2438 23.3342C59.5555 23.3165 59.454 23.6298 59.6393 24.2122C60.1997 25.9682 62.7278 26.6477 64.0912 25.3902C64.3162 25.1784 64.475 24.8917 64.7045 24.6843C65.0971 24.3269 65.6531 24.3137 66.006 24.574C66.4296 24.8828 65.9796 25.2755 65.7898 25.5667C64.8324 27.0448 62.8469 27.6316 60.8703 27.058C59.0746 26.5374 57.9406 24.7593 58.0024 22.5753C58.0642 20.3736 59.2334 18.8382 61.2056 18.3573C63.1337 17.8852 65.1413 18.7191 66.0237 20.3824C66.1693 20.656 66.284 20.9516 66.3546 21.2516C66.8002 23.0959 66.6061 23.3386 64.7045 23.3386C64.1176 23.3386 63.5308 23.3386 62.944 23.3386H62.9396ZM62.2072 22.1429C62.8293 22.1429 63.4558 22.1076 64.0735 22.1517C65.0839 22.2179 65.0839 21.7237 64.7662 21.009C64.2676 19.8971 63.3279 19.5441 62.2028 19.5486C61.0468 19.553 60.1997 20.0604 59.7231 21.1502C59.4364 21.812 59.4937 22.187 60.3364 22.1473C60.9585 22.1164 61.5807 22.1429 62.2028 22.1385L62.2072 22.1429Z" fill="white"/>
<path d="M42.6466 21.5366C42.6466 20.0145 42.6731 18.4923 42.6334 16.9701C42.6157 16.2818 42.8187 15.9818 43.5555 16.0038C44.963 16.0479 46.3705 16.0215 47.7779 16.0171C48.228 16.0171 48.6824 15.9862 48.6559 16.6392C48.6339 17.2877 48.153 17.2216 47.725 17.2216C46.8249 17.2216 45.9248 17.2172 45.0292 17.2216C44.685 17.2216 44.2085 17.1642 44.1776 17.6231C44.107 18.554 44.1114 19.4938 44.1644 20.4292C44.1909 20.8925 44.6497 20.8572 44.9983 20.8572C45.7792 20.866 46.5602 20.8704 47.3455 20.8616C47.7735 20.8616 48.1265 20.9013 48.1574 21.4528C48.1971 22.1146 47.7559 22.1014 47.3102 22.1058C46.5293 22.1058 45.7439 22.1235 44.963 22.1058C44.3762 22.0926 44.0717 22.3176 44.1247 22.9309C44.1247 22.9706 44.1247 23.0103 44.1247 23.05C44.2041 26.615 43.604 25.8517 46.869 25.9444C47.2617 25.9576 47.65 25.9532 48.0427 25.9444C48.4883 25.94 48.6868 26.1562 48.6604 26.593C48.6383 26.968 48.4397 27.1489 48.0559 27.1489C46.4543 27.1401 44.8483 27.1489 43.2467 27.1401C42.5937 27.1401 42.651 26.6547 42.651 26.2268C42.651 24.6649 42.651 23.103 42.651 21.5411L42.6466 21.5366Z" fill="white"/>
<path d="M88.8245 22.7699C88.8245 23.8641 88.8333 24.9583 88.82 26.0526C88.82 26.4276 88.9127 26.9041 88.4097 27.0365C88.0126 27.1379 87.5361 27.2659 87.3199 26.6967C87.1258 26.1893 86.8743 26.4894 86.6007 26.6305C83.5122 28.2277 80.9664 26.71 80.9488 23.2641C80.9444 21.9757 80.9488 20.683 80.9444 19.3946C80.9444 18.9137 80.9003 18.4328 81.6194 18.424C82.3166 18.4151 82.3386 18.8519 82.3386 19.3593C82.3386 20.6874 82.2857 22.0199 82.3739 23.3435C82.4842 24.9716 83.2828 25.854 84.5447 25.9555C86.0492 26.0702 87.2184 25.0863 87.2846 23.5597C87.342 22.1963 87.3111 20.8242 87.3111 19.4564C87.3111 18.9049 87.3464 18.424 88.092 18.4328C88.8509 18.446 88.8377 18.9667 88.8377 19.4917C88.8377 20.5859 88.8377 21.6801 88.8377 22.7743C88.8377 22.7743 88.8333 22.7743 88.8289 22.7743L88.8245 22.7699Z" fill="white"/>
<path d="M101.959 22.7304C101.959 21.5964 101.959 20.4625 101.959 19.333C101.959 18.9756 101.95 18.5874 102.396 18.4859C102.731 18.4109 103.199 18.3006 103.362 18.6579C103.662 19.3021 103.936 19.0242 104.342 18.8035C107.13 17.2814 109.821 18.8697 109.848 22.0421C109.857 23.3701 109.857 24.6982 109.848 26.0262C109.843 26.5116 109.98 27.0851 109.164 27.1072C108.348 27.1248 108.449 26.5733 108.449 26.0703C108.445 24.8217 108.462 23.5687 108.436 22.32C108.401 20.4934 107.536 19.5448 105.965 19.5624C104.425 19.5801 103.539 20.5684 103.494 22.3641C103.464 23.6525 103.481 24.9408 103.481 26.2336C103.481 26.6925 103.455 27.0896 102.828 27.1116C102.197 27.1337 101.985 26.7895 101.977 26.2512C101.963 25.0776 101.977 23.9084 101.977 22.7348C101.977 22.7348 101.972 22.7348 101.968 22.7348L101.959 22.7304Z" fill="white"/>
<path d="M125.818 22.7789C125.818 23.9128 125.818 25.0423 125.818 26.1762C125.818 26.5159 125.893 26.9439 125.438 27.0498C125.076 27.1336 124.64 27.2395 124.437 26.7366C124.154 26.0438 123.814 26.5645 123.528 26.7057C121.635 27.641 119.821 27.3278 118.652 25.885C118.035 25.1261 118.008 24.2128 117.955 23.3348C117.876 22.0111 117.937 20.6831 117.929 19.355C117.929 18.8212 118.048 18.4285 118.696 18.4329C119.349 18.4417 119.438 18.8565 119.438 19.3815C119.429 20.7096 119.42 22.0376 119.442 23.3657C119.469 24.8967 120.267 25.8365 121.595 25.96C123.082 26.0968 124.119 25.3158 124.295 23.6966C124.445 22.3068 124.379 20.8949 124.406 19.4918C124.415 18.98 124.331 18.4417 125.125 18.4417C125.941 18.4417 125.818 19.0153 125.822 19.505C125.831 20.5993 125.822 21.6891 125.822 22.7833H125.818V22.7789Z" fill="white"/>
<path d="M50.8373 18.4096C51.4197 18.317 51.7197 18.7494 52.0374 19.2347C53.0581 20.7937 54.0655 20.7937 55.0597 19.2347C55.2671 18.9126 55.3951 18.4935 55.8539 18.4493C56.1539 18.4185 56.5113 18.2905 56.7364 18.5685C56.9746 18.8641 56.6305 19.067 56.5025 19.2744C55.9686 20.1392 55.4436 21.0128 54.8435 21.8246C54.3759 22.4556 54.3538 22.9762 54.8215 23.6116C55.3995 24.3969 55.9069 25.2308 56.4054 26.0691C56.5819 26.3647 57.1202 26.7618 56.6658 27.0398C56.2466 27.2957 55.5892 27.3222 55.2053 26.7442C54.7509 26.0603 54.3053 25.3764 53.8729 24.6793C53.5199 24.1101 53.2066 24.1013 52.8669 24.6881C52.5139 25.297 52.1345 25.8882 51.7815 26.4927C51.5521 26.8898 51.2785 27.1589 50.7711 27.1501C50.1799 27.1413 49.924 26.9824 50.3034 26.4044C50.9256 25.4602 51.5256 24.4984 52.1874 23.5807C52.5978 23.0159 52.5757 22.5615 52.183 22.0011C51.53 21.0746 50.9653 20.0951 50.3299 19.1553C49.9284 18.5596 50.1755 18.4096 50.8373 18.4096Z" fill="white"/>
<path d="M112.573 23.1077C112.573 22.4062 112.613 21.7002 112.56 21.0031C112.516 20.4207 112.626 19.7765 111.766 19.5162C111.338 19.3838 111.311 18.647 111.796 18.5279C112.674 18.3073 112.635 17.7249 112.63 17.0984C112.63 16.5733 112.719 16.1542 113.376 16.163C114.077 16.1718 114.104 16.6792 114.038 17.1469C113.897 18.1926 114.316 18.572 115.344 18.4441C115.75 18.3911 116.301 18.3558 116.328 18.9779C116.354 19.675 115.781 19.6574 115.317 19.6089C114.355 19.5074 113.985 19.8692 114.042 20.8575C114.113 22.062 114.086 23.2798 114.047 24.4887C114.016 25.4064 114.378 25.8918 115.317 25.9138C115.772 25.9271 116.372 25.8388 116.319 26.5492C116.27 27.233 115.666 27.0919 115.22 27.0963C113.301 27.1227 112.666 26.5095 112.63 24.6299C112.621 24.1225 112.63 23.6151 112.63 23.1077C112.608 23.1077 112.591 23.1077 112.569 23.1077H112.573Z" fill="white"/>
</svg>
