<svg width="135" height="41" viewBox="0 0 135 41" fill="none" xmlns="http://www.w3.org/2000/svg">
<g clip-path="url(#clip0_572_71326)">
<mask id="mask0_572_71326" style="mask-type:luminance" maskUnits="userSpaceOnUse" x="0" y="0" width="135" height="41">
<path d="M134.896 0.652344H0.895996V40.3354H134.896V0.652344Z" fill="white"/>
</mask>
<g mask="url(#mask0_572_71326)">
<path d="M0.896768 8.1692C0.884346 7.80968 1.02099 7.61959 1.3688 7.49153C6.14712 5.71046 10.9254 3.92942 15.7038 2.14837C16.9791 1.67315 18.2544 1.20206 19.5297 0.718575C19.7658 0.627663 19.9728 0.627663 20.2129 0.718575C26.2417 2.94592 32.2705 5.16499 38.3035 7.38407C38.7258 7.54108 38.8501 7.76013 38.7755 8.21051C38.5353 9.63619 38.2703 11.0577 37.9722 12.4751C37.3138 15.6034 36.5437 18.7026 35.5458 21.7399C34.875 23.7895 34.1007 25.7937 33.0986 27.707C32.2457 29.331 31.136 30.7691 29.9145 32.1245C27.0575 35.2982 23.749 37.9387 20.1301 40.195C19.8361 40.381 19.5877 40.3768 19.2896 40.195C15.9108 38.1205 12.8177 35.6949 10.0311 32.8683C7.60048 30.4013 5.89454 27.5128 4.75586 24.2606C3.83664 21.6407 3.08718 18.9754 2.4578 16.2769C1.8367 13.6528 1.33154 11.004 0.913331 8.33451C0.905049 8.27666 0.900909 8.21469 0.896768 8.1692ZM1.9899 8.45022C1.99818 8.51219 2.00232 8.5618 2.00647 8.60723C2.30045 10.4131 2.62756 12.2148 3.00851 14.0041C3.63374 16.9463 4.35836 19.8638 5.31485 22.7192C5.92353 24.5334 6.61502 26.3144 7.55083 27.988C8.42034 29.5417 9.56729 30.8848 10.7929 32.1576C13.3933 34.8601 16.3373 37.137 19.5131 39.1205C19.6456 39.2032 19.7368 39.2074 19.8693 39.1205C22.9541 37.166 25.7946 34.9139 28.3328 32.2857C30.3451 30.2029 32.0097 27.893 33.1318 25.1986C34.2539 22.4961 35.1234 19.7109 35.8605 16.8844C36.5851 14.095 37.1772 11.2809 37.6741 8.44198C37.6989 8.29732 37.6534 8.24771 37.525 8.19816C31.6867 6.05345 25.8525 3.90462 20.0183 1.75167C19.9107 1.71034 19.8196 1.71447 19.7119 1.75167C15.2235 3.4294 10.7349 5.09887 6.2465 6.77248C4.88423 7.28078 3.51781 7.7849 2.15553 8.29732C2.081 8.32622 1.96506 8.3221 1.98576 8.44198L1.9899 8.45022Z" fill="white"/>
<path d="M3.61761 9.70763C3.60105 9.57127 3.71285 9.56303 3.79566 9.52996C5.14137 9.01342 6.49123 8.501 7.83692 7.98859C11.7582 6.49266 15.6835 5.00089 19.6006 3.50084C19.7496 3.44299 19.878 3.44712 20.027 3.50084C25.2816 5.40999 30.536 7.31915 35.7946 9.22005C35.9769 9.28614 36.0348 9.35223 35.9976 9.56303C35.2895 13.8441 34.362 18.0674 32.9832 22.1873C32.3703 24.0221 31.6582 25.8156 30.6561 27.4809C29.8363 28.8363 28.8218 30.0471 27.7369 31.1959C25.443 33.6175 22.8593 35.6836 20.0436 37.4688C19.9152 37.5515 19.82 37.5639 19.6834 37.4771C16.6069 35.5927 13.7871 33.3984 11.2944 30.7868C9.48907 28.8942 8.1806 26.7082 7.26138 24.2701C6.22209 21.5138 5.44779 18.6831 4.79356 15.8112C4.34223 13.8235 3.95715 11.8234 3.63418 9.81097C3.63003 9.7779 3.62175 9.74483 3.61761 9.71175V9.70763ZM23.7247 12.5342C23.7081 12.4556 23.6874 12.3854 23.6749 12.3152C23.4389 11.1457 23.1491 9.99277 22.7019 8.8853C22.3831 8.09605 22.0063 7.33569 21.3852 6.72405C20.495 5.84802 19.4225 5.85215 18.5405 6.72823C18.0064 7.2613 17.6545 7.9142 17.3604 8.59605C16.8139 9.84817 16.4909 11.1664 16.2384 12.5052C16.2011 12.6912 16.1431 12.6788 16.0065 12.6209C14.9796 12.1953 13.9361 11.811 12.8637 11.5052C11.6795 11.1705 10.487 10.8936 9.24476 10.9184C8.72306 10.9308 8.20961 11.0052 7.73756 11.249C7.21998 11.5176 6.89288 11.9267 6.81006 12.5177C6.74795 12.9598 6.84733 13.3772 7.00469 13.778C7.34423 14.6375 7.89908 15.3607 8.50357 16.0426C9.6878 17.3814 11.0542 18.5261 12.4869 19.584C12.6277 19.6873 12.6318 19.7369 12.4993 19.8567C11.5387 20.7369 10.6236 21.6626 9.84931 22.7163C9.34831 23.3981 8.90521 24.1131 8.70649 24.9478C8.44148 26.0718 8.95492 26.9272 10.0687 27.2247C10.2965 27.2867 10.5325 27.3197 10.7685 27.3322C11.6836 27.3776 12.5697 27.2123 13.4475 26.9892C14.2923 26.7743 15.1121 26.4933 15.9195 26.171C16.0603 26.1131 16.0975 26.142 16.11 26.2867C16.1307 26.5015 16.1804 26.7123 16.2218 26.923C16.4868 28.3322 16.8263 29.7248 17.406 31.043C17.7207 31.7579 18.0934 32.4315 18.6855 32.9645C19.0457 33.2869 19.4597 33.5059 19.9567 33.5141C20.6523 33.5307 21.1616 33.1712 21.5922 32.6794C22.1636 32.0265 22.5239 31.2496 22.8261 30.4438C23.3727 28.9892 23.6915 27.4768 23.9193 25.9437C23.9565 25.6958 23.9524 25.6958 24.1801 25.7701C25.356 26.1461 26.5445 26.4685 27.7825 26.5759C28.4781 26.6379 29.1738 26.6338 29.8446 26.3983C30.7845 26.0635 31.2193 25.2825 31.0247 24.3114C30.888 23.642 30.5609 23.0634 30.1758 22.518C29.3808 21.3815 28.3953 20.427 27.356 19.522C27.2608 19.4393 27.2235 19.398 27.3436 19.2989C27.8446 18.898 28.3208 18.4682 28.7845 18.0302C29.7824 17.088 30.7265 16.0963 31.4843 14.9475C31.8776 14.3524 32.2006 13.7284 32.329 13.0177C32.4987 12.0755 32.0515 11.2986 31.1489 10.9804C30.7969 10.8564 30.4284 10.8027 30.0557 10.7986C28.8673 10.7862 27.7328 11.0755 26.6066 11.4226C25.6294 11.7283 24.677 12.1126 23.7247 12.53V12.5342Z" fill="white"/>
<path d="M9.4601 11.9577C10.6236 11.9825 11.7416 12.2511 12.8472 12.5817C13.8699 12.8875 14.8636 13.2635 15.845 13.6768C15.9775 13.7305 16.0189 13.7883 15.9941 13.9412C15.845 14.9743 15.7415 16.0116 15.6918 17.0529C15.6835 17.1934 15.6421 17.2843 15.5262 17.367C14.8513 17.8587 14.1929 18.3753 13.5552 18.9166C13.4724 18.9869 13.4186 18.991 13.3316 18.9249C11.9114 17.8794 10.5491 16.7677 9.36486 15.4537C8.90525 14.9413 8.47466 14.404 8.14749 13.7966C7.98604 13.495 7.84109 13.1809 7.82458 12.8297C7.80801 12.4701 7.94464 12.2676 8.28419 12.1272C8.66094 11.9701 9.05433 11.9494 9.45597 11.9536L9.4601 11.9577Z" fill="white"/>
<path d="M19.9899 32.4808C19.7207 32.4808 19.5178 32.3362 19.3356 32.1626C19.0251 31.8734 18.8056 31.518 18.611 31.146C18.0396 30.051 17.7083 28.8732 17.4351 27.679C17.2984 27.0757 17.1908 26.4682 17.0914 25.8566C17.0707 25.7409 17.0914 25.6913 17.199 25.6417C18.1679 25.2161 19.112 24.745 20.0395 24.2326C20.1348 24.1789 20.2093 24.183 20.3045 24.2285C21.1285 24.6169 21.9649 24.9723 22.8138 25.2946C22.909 25.3318 22.9587 25.369 22.9421 25.4847C22.6937 27.1418 22.3749 28.7865 21.7496 30.3526C21.5426 30.8733 21.2983 31.3733 20.9629 31.8237C20.8138 32.0263 20.6441 32.208 20.4329 32.3444C20.3004 32.4312 20.1596 32.4891 19.994 32.4808H19.9899Z" fill="white"/>
<path d="M29.9515 11.8442C30.2124 11.8401 30.527 11.8566 30.8293 11.9723C31.2061 12.1169 31.3552 12.3773 31.3055 12.7781C31.2434 13.2864 31.0115 13.7244 30.7507 14.15C30.1503 15.1294 29.3884 15.9724 28.581 16.7782C27.9474 17.4104 27.2725 18.0056 26.5893 18.5841C26.4568 18.6956 26.374 18.7204 26.2249 18.5965C25.6453 18.1213 25.0407 17.6832 24.4238 17.2617C24.3202 17.1915 24.2622 17.113 24.254 16.9848C24.196 15.9021 24.0801 14.8278 23.9186 13.7533C23.902 13.65 23.9186 13.5839 24.0304 13.5302C25.4879 12.8855 26.962 12.307 28.5313 11.993C28.9826 11.902 29.4339 11.8359 29.9515 11.8359V11.8442Z" fill="white"/>
<path d="M19.9393 7.1116C20.2125 7.11984 20.3989 7.23554 20.5686 7.38432C20.9661 7.73554 21.227 8.18599 21.4547 8.65297C22.0551 9.89268 22.3905 11.215 22.6596 12.558C22.7466 12.9919 22.7384 12.9919 22.345 13.1862C21.5748 13.5746 20.8129 13.9795 20.0676 14.4135C19.9599 14.4754 19.8813 14.4754 19.7736 14.4135C18.9745 13.9795 18.1588 13.5746 17.3306 13.1985C17.2354 13.1572 17.1733 13.1159 17.1981 12.9919C17.4714 11.5539 17.7985 10.1323 18.4072 8.79345C18.606 8.35542 18.8378 7.93805 19.1608 7.57853C19.3803 7.33471 19.6204 7.11984 19.9434 7.10742L19.9393 7.1116Z" fill="white"/>
<path d="M11.2816 26.305C10.9752 26.3256 10.6729 26.305 10.3748 26.2388C9.79512 26.1149 9.57982 25.7677 9.71645 25.1851C9.81994 24.7264 10.0394 24.3173 10.2879 23.9248C11.0291 22.7553 11.9814 21.7676 12.9834 20.8213C13.1242 20.6891 13.2733 20.5569 13.4141 20.4246C13.4803 20.3585 13.5341 20.3419 13.6211 20.404C14.2546 20.8502 14.9088 21.2676 15.5672 21.6726C15.6334 21.7139 15.6541 21.7594 15.6583 21.8338C15.7121 22.8751 15.7867 23.9165 15.9233 24.9495C15.9357 25.0529 15.886 25.0776 15.8115 25.1066C14.3499 25.681 12.8675 26.1934 11.2816 26.3091V26.305Z" fill="white"/>
<path d="M28.2174 25.5665C27.265 25.5458 26.1802 25.2855 25.1036 24.9756C24.8262 24.8929 24.5529 24.7978 24.2755 24.7152C24.1471 24.678 24.0933 24.6284 24.1099 24.4797C24.2092 23.5623 24.2713 22.6449 24.3128 21.7234C24.3128 21.6325 24.35 21.5746 24.4246 21.525C25.0581 21.0912 25.675 20.6325 26.2796 20.1614C26.3499 20.1076 26.4038 20.0787 26.4866 20.1489C27.675 21.1903 28.8344 22.2606 29.6459 23.6366C29.8157 23.926 29.9523 24.2359 30.0061 24.5706C30.0724 24.9714 29.9316 25.2359 29.559 25.3971C29.1863 25.5582 28.7888 25.5706 28.2132 25.5665H28.2174Z" fill="white"/>
<path d="M23.2968 19.3803C23.2968 19.872 23.2968 20.3637 23.2968 20.8555C23.2968 20.9836 23.2554 21.0621 23.1477 21.1365C22.2078 21.7563 21.2513 22.3514 20.2741 22.9134C20.1581 22.9796 20.067 22.9754 19.9553 22.9134C18.887 22.3803 17.8353 21.8142 16.8084 21.2068C16.7255 21.1572 16.6552 21.1159 16.6552 20.996C16.6552 19.9794 16.6303 18.9629 16.68 17.9463C16.6841 17.8306 16.7338 17.7645 16.8207 17.7025C17.7855 17.0207 18.7752 16.376 19.7813 15.7645C19.889 15.6983 19.9635 15.6983 20.0712 15.7645C21.0898 16.343 22.0918 16.9545 23.0732 17.5992C23.1974 17.6818 23.2595 17.7686 23.2554 17.9215C23.2471 18.405 23.2554 18.8926 23.2554 19.3761C23.2678 19.3761 23.2761 19.3761 23.2885 19.3761L23.2968 19.3803ZM17.8725 19.5455C17.8725 20.7688 18.8331 21.7563 20.0256 21.7605C21.2347 21.7605 22.2078 20.777 22.2119 19.5538C22.2119 18.3307 21.2347 17.3224 20.0422 17.3224C18.8455 17.3224 17.8725 18.3182 17.8725 19.5497V19.5455Z" fill="white"/>
<path d="M19.0286 23.6065C18.4737 23.8792 17.9644 24.1312 17.4593 24.3792C17.3184 24.4494 17.1777 24.5114 17.0369 24.5734C16.9831 24.5982 16.9209 24.6395 16.9127 24.528C16.8464 23.8254 16.7636 23.1229 16.7388 22.375C17.4965 22.7965 18.2294 23.2056 19.0286 23.6065Z" fill="white"/>
<path d="M20.9829 15.0861C21.604 14.7307 22.2003 14.4249 22.8007 14.1192C22.9083 14.0654 22.9249 14.1192 22.9373 14.2059C23.0284 14.9249 23.1195 15.644 23.1692 16.4126C22.4405 15.9539 21.7365 15.5159 20.9829 15.0861Z" fill="white"/>
<path d="M16.7744 16.478C16.824 15.726 16.9069 15.0235 16.9897 14.3251C17.0021 14.23 17.0435 14.2094 17.1222 14.2507C17.6646 14.5193 18.2071 14.7838 18.7495 15.0524C18.8116 15.0813 18.8571 15.1185 18.766 15.1764C18.1035 15.5854 17.4534 16.0111 16.7703 16.478H16.7744Z" fill="white"/>
<path d="M23.2466 22.3281C23.201 22.8819 23.168 23.3819 23.1141 23.886C23.0727 24.2869 23.0644 24.291 22.6793 24.1298C22.228 23.9439 21.7767 23.7497 21.2839 23.5431C21.9465 23.1339 22.5675 22.7455 23.2466 22.3281Z" fill="white"/>
<path d="M15.6104 18.5996V20.4716C15.3577 20.3104 15.13 20.1658 14.9023 20.017C14.7449 19.9137 14.5876 19.8104 14.4344 19.703C14.3889 19.6699 14.3143 19.641 14.4012 19.5707C14.7905 19.2567 15.1838 18.9426 15.6104 18.5996Z" fill="white"/>
<path d="M24.3469 20.3099V18.5041C24.3759 18.4834 24.4049 18.5206 24.438 18.5413C24.7735 18.7892 25.1047 19.0413 25.44 19.2892C25.5353 19.3595 25.5684 19.4049 25.4484 19.4917C25.0964 19.7438 24.7527 20.0083 24.3511 20.3099H24.3469Z" fill="white"/>
<path d="M17.8752 19.5457C17.8752 18.3184 18.8441 17.3184 20.0449 17.3184C21.2374 17.3184 22.2188 18.3267 22.2146 19.5498C22.2146 20.773 21.2374 21.7606 20.0283 21.7565C18.8359 21.7565 17.8752 20.7689 17.8752 19.5415V19.5457ZM21.167 19.5457C21.167 18.8886 20.666 18.3597 20.0408 18.3597C19.428 18.3597 18.9187 18.8845 18.9063 19.525C18.8938 20.1738 19.4031 20.711 20.0283 20.7151C20.6619 20.7193 21.1629 20.2068 21.167 19.5457Z" fill="white"/>
<path d="M121.596 23.048C121.596 22.0232 121.58 20.9984 121.6 19.9736C121.617 19.0355 122.221 18.6388 122.913 19.1967C123.348 19.5479 123.571 19.4281 123.948 19.238C125.551 18.4322 126.991 18.7008 128.2 20.0066C128.495 20.3248 128.569 20.457 128.975 19.957C129.84 18.8909 131.111 18.5355 132.462 18.9198C133.757 19.2876 134.598 20.1265 134.78 21.5356C134.991 23.1431 134.842 24.7506 134.896 26.3581C134.912 26.8457 134.705 27.0936 134.184 27.1143C133.542 27.1391 133.476 26.763 133.48 26.2712C133.484 24.953 133.53 23.6348 133.455 22.3207C133.347 20.4075 131.633 19.4612 130.027 20.3909C129.244 20.8413 128.995 21.5893 128.984 22.4364C128.967 23.6803 128.967 24.9241 128.975 26.168C128.975 26.6969 128.9 27.1101 128.221 27.1184C127.472 27.1266 127.547 26.6184 127.542 26.139C127.538 24.9324 127.551 23.7258 127.53 22.5149C127.505 20.9406 126.714 20.0603 125.34 20.0438C123.99 20.0231 123.116 20.9116 123.05 22.453C123 23.6224 123.041 24.796 123.016 25.9655C123.009 26.4696 123.236 27.1515 122.304 27.1101C121.423 27.0729 121.617 26.4118 121.609 25.8994C121.588 24.9489 121.6 23.9985 121.6 23.0439H121.596V23.048Z" fill="white"/>
<path d="M75.4495 22.0124C75.3089 23.5579 74.8495 24.9753 73.586 25.9671C73.0602 26.3803 73.0315 26.6448 73.5119 27.0663C73.951 27.4547 74.3482 27.8886 74.7538 28.3142C74.9033 28.4671 75.1019 28.6366 74.9984 28.8763C74.8656 29.1779 74.5635 29.0952 74.3195 29.0787C73.7936 29.0416 73.4329 28.6944 73.1517 28.3225C72.4064 27.3308 71.512 27.0373 70.2366 27.12C67.7523 27.2853 65.7811 25.6737 65.156 23.2686C64.5428 20.9215 65.6238 18.3883 67.7271 17.2643C69.8885 16.1072 72.5511 16.5659 74.1783 18.3511C75.1306 19.3966 75.3376 20.6776 75.4579 22.0124H75.4495ZM70.1332 17.8511C67.8348 17.8635 66.3399 19.5123 66.3483 22.0166C66.3566 24.4298 67.9551 26.0539 70.303 26.0373C72.4847 26.0208 74.0873 24.2646 74.0622 21.9132C74.0377 19.4917 72.4393 17.8387 70.1332 17.8511Z" fill="white"/>
<path d="M94.6762 22.9305C94.6762 24.0628 94.6881 25.195 94.6678 26.3232C94.6636 26.6786 94.6552 27.0918 94.121 27.1084C93.7399 27.1207 93.3882 27.1207 93.2805 26.6248C93.1441 25.9844 92.8211 26.2695 92.498 26.4844C90.6472 27.7034 88.7796 27.5092 87.3636 25.9554C86.0176 24.4802 85.9679 21.7817 87.2517 20.1618C88.3614 18.7609 90.6304 18.4386 92.3533 19.4469C92.7631 19.6866 93.1728 20.2528 93.384 19.2445C93.463 18.8725 93.9469 18.9882 94.2622 19.0172C94.6923 19.0585 94.7461 19.3974 94.7503 19.7445C94.7503 20.8023 94.7503 21.8644 94.7503 22.9223C94.7258 22.9223 94.7049 22.9223 94.6803 22.9223L94.6762 22.9305ZM90.5521 26.0463C92.1792 26.0298 93.3098 24.7611 93.2805 22.976C93.2518 21.2611 92.1128 20.0585 90.5144 20.0544C88.7963 20.0544 87.7572 21.1908 87.765 23.0586C87.7734 24.8892 88.8669 26.0587 90.5562 26.0463H90.5521Z" fill="white"/>
<path d="M60.3061 23.5908C59.4614 23.5908 58.6167 23.6074 57.7761 23.5867C57.1302 23.5702 57.035 23.8635 57.2089 24.409C57.7347 26.0537 60.1073 26.6901 61.3867 25.5124C61.5979 25.314 61.7468 25.0454 61.9622 24.8512C62.3307 24.5164 62.8523 24.5041 63.1837 24.7479C63.5815 25.0371 63.1592 25.4049 62.9809 25.6776C62.0824 27.062 60.2191 27.6116 58.3641 27.0744C56.6789 26.5868 55.6147 24.9214 55.6727 22.8759C55.7306 20.8139 56.8279 19.3758 58.6788 18.9254C60.4883 18.4832 62.3725 19.2642 63.2005 20.8221C63.3369 21.0783 63.4445 21.3552 63.5109 21.6362C63.9291 23.3635 63.7472 23.5908 61.9622 23.5908C61.4118 23.5908 60.8609 23.5908 60.3102 23.5908H60.3061ZM59.6187 22.4709C60.2026 22.4709 60.7903 22.4379 61.3699 22.4792C62.3187 22.5412 62.3187 22.0783 62.0202 21.4089C61.5524 20.3676 60.6704 20.037 59.6146 20.0411C58.5297 20.0453 57.7347 20.5205 57.2875 21.5411C57.0184 22.161 57.0722 22.5122 57.8631 22.4751C58.4469 22.4462 59.0307 22.4709 59.6146 22.4668L59.6187 22.4709Z" fill="white"/>
<path d="M41.259 21.9018C41.259 20.4762 41.2839 19.0505 41.2466 17.6248C41.23 16.9802 41.4205 16.6992 42.112 16.7198C43.4329 16.7611 44.7537 16.7363 46.0746 16.7322C46.4969 16.7322 46.9235 16.7033 46.8986 17.3149C46.8779 17.9223 46.4265 17.8603 46.0249 17.8603C45.1802 17.8603 44.3355 17.8562 43.495 17.8603C43.172 17.8603 42.7248 17.8066 42.6958 18.2364C42.6296 19.1083 42.6337 19.9885 42.6834 20.8646C42.7083 21.2985 43.1389 21.2654 43.466 21.2654C44.1989 21.2737 44.9318 21.2778 45.6688 21.2695C46.0705 21.2695 46.4017 21.3067 46.4307 21.8233C46.468 22.4432 46.0539 22.4307 45.6357 22.4349C44.9028 22.4349 44.1657 22.4514 43.4329 22.4349C42.8822 22.4225 42.5965 22.6332 42.6461 23.2076C42.6461 23.2448 42.6461 23.282 42.6461 23.3192C42.7206 26.6581 42.1575 25.9433 45.2216 26.03C45.5902 26.0424 45.9545 26.0383 46.323 26.03C46.7412 26.0259 46.9276 26.2284 46.9027 26.6375C46.882 26.9887 46.6957 27.1581 46.3355 27.1581C44.8324 27.1499 43.3252 27.1581 41.8221 27.1499C41.2093 27.1499 41.2632 26.6953 41.2632 26.2945C41.2632 24.8316 41.2632 23.3688 41.2632 21.906L41.259 21.9018Z" fill="white"/>
<path d="M84.6046 23.0626C84.6046 24.0875 84.613 25.1123 84.6004 26.1371C84.6004 26.4884 84.6878 26.9347 84.2158 27.0586C83.8431 27.1537 83.3956 27.2735 83.1928 26.7404C83.011 26.2652 82.7747 26.5462 82.518 26.6785C79.6197 28.1744 77.2304 26.7528 77.2137 23.5255C77.2095 22.3188 77.2137 21.1081 77.2095 19.9014C77.2095 19.451 77.1682 19.0006 77.843 18.9923C78.4974 18.984 78.5178 19.3931 78.5178 19.8684C78.5178 21.1122 78.4681 22.3601 78.5513 23.5998C78.6548 25.1247 79.4043 25.9512 80.5882 26.0462C82.0006 26.1537 83.0977 25.2321 83.1599 23.8023C83.2138 22.5254 83.1844 21.2403 83.1844 19.9592C83.1844 19.4427 83.2179 18.9923 83.9172 19.0006C84.6297 19.013 84.6172 19.5006 84.6172 19.9923C84.6172 21.0171 84.6172 22.042 84.6172 23.0668C84.6172 23.0668 84.613 23.0668 84.6088 23.0668L84.6046 23.0626Z" fill="white"/>
<path d="M96.9226 23.0171C96.9226 21.9551 96.9226 20.8931 96.9226 19.8352C96.9226 19.5005 96.9142 19.1368 97.3324 19.0418C97.6471 18.9716 98.0856 18.8682 98.2393 19.203C98.5205 19.8062 98.7771 19.5459 99.1581 19.3393C101.775 17.9136 104.301 19.4013 104.326 22.3725C104.334 23.6163 104.334 24.8602 104.326 26.104C104.322 26.5585 104.45 27.0957 103.684 27.1164C102.918 27.1329 103.013 26.6164 103.013 26.1453C103.009 24.9759 103.026 23.8022 103.001 22.6328C102.968 20.922 102.156 20.0335 100.682 20.0501C99.2371 20.0666 98.4044 20.9923 98.3631 22.6741C98.3344 23.8808 98.3506 25.0874 98.3506 26.2982C98.3506 26.728 98.326 27.0999 97.738 27.1206C97.1457 27.1412 96.9471 26.8189 96.9388 26.3147C96.9262 25.2155 96.9388 24.1205 96.9388 23.0212C96.9388 23.0212 96.9346 23.0212 96.9304 23.0212L96.9226 23.0171Z" fill="white"/>
<path d="M119.313 23.0685C119.313 24.1305 119.313 25.1883 119.313 26.2504C119.313 26.5686 119.383 26.9694 118.957 27.0686C118.618 27.1471 118.208 27.2463 118.017 26.7752C117.752 26.1264 117.433 26.614 117.164 26.7463C115.388 27.6223 113.686 27.3289 112.589 25.9777C112.009 25.2669 111.984 24.4115 111.934 23.5891C111.86 22.3494 111.918 21.1056 111.91 19.8618C111.91 19.3617 112.022 18.994 112.63 18.9981C113.243 19.0064 113.326 19.3948 113.326 19.8866C113.318 21.1304 113.309 22.3742 113.33 23.6181C113.355 25.052 114.104 25.9322 115.351 26.0479C116.746 26.176 117.719 25.4446 117.885 23.928C118.025 22.6263 117.963 21.3039 117.988 19.9898C117.997 19.5105 117.918 19.0064 118.663 19.0064C119.429 19.0064 119.313 19.5436 119.318 20.0023C119.325 21.0271 119.318 22.0478 119.318 23.0726H119.313V23.0685Z" fill="white"/>
<path d="M48.9436 18.9726C49.4902 18.8858 49.7717 19.2908 50.0699 19.7453C51.0277 21.2054 51.9732 21.2054 52.9062 19.7453C53.1008 19.4437 53.2209 19.0511 53.6515 19.0098C53.9331 18.9808 54.2685 18.861 54.4797 19.1213C54.7033 19.3982 54.3803 19.5883 54.2602 19.7825C53.7592 20.5924 53.2665 21.4106 52.7033 22.171C52.2644 22.7619 52.2437 23.2496 52.6826 23.8446C53.225 24.5801 53.7012 25.3612 54.1691 26.1464C54.3348 26.4232 54.8399 26.7951 54.4134 27.0554C54.02 27.2951 53.4031 27.3199 53.0429 26.7786C52.6164 26.1381 52.1982 25.4976 51.7924 24.8446C51.4611 24.3115 51.1672 24.3033 50.8483 24.8529C50.5171 25.4232 50.161 25.9769 49.8297 26.543C49.6144 26.9149 49.3577 27.167 48.8815 27.1588C48.3267 27.1505 48.0865 27.0018 48.4426 26.4604C49.0264 25.5761 49.5895 24.6752 50.2106 23.8157C50.5957 23.2868 50.575 22.8611 50.2065 22.3363C49.5937 21.4685 49.0637 20.5511 48.4674 19.6709C48.0906 19.113 48.3225 18.9726 48.9436 18.9726Z" fill="white"/>
<path d="M106.885 23.3736C106.885 22.7166 106.922 22.0554 106.872 21.4025C106.831 20.857 106.934 20.2537 106.127 20.0099C105.725 19.8859 105.701 19.1958 106.156 19.0843C106.98 18.8776 106.943 18.3321 106.939 17.7453C106.939 17.2536 107.022 16.861 107.639 16.8693C108.297 16.8776 108.322 17.3528 108.259 17.7908C108.127 18.7702 108.52 19.1256 109.485 19.0057C109.866 18.9561 110.384 18.9231 110.409 19.5057C110.433 20.1586 109.895 20.1421 109.461 20.0967C108.558 20.0016 108.21 20.3405 108.264 21.2661C108.33 22.3942 108.305 23.5348 108.268 24.6671C108.239 25.5266 108.578 25.9811 109.461 26.0018C109.887 26.0142 110.45 25.9315 110.4 26.5969C110.355 27.2374 109.787 27.1051 109.369 27.1093C107.568 27.134 106.972 26.5597 106.939 24.7993C106.93 24.3241 106.939 23.8488 106.939 23.3736C106.918 23.3736 106.902 23.3736 106.881 23.3736H106.885Z" fill="white"/>
</g>
</g>
<defs>
<clipPath id="clip0_572_71326">
<rect width="134" height="40" fill="white" transform="translate(0.895996 0.652344)"/>
</clipPath>
</defs>
</svg>
