<svg width="200" height="50" viewBox="0 0 200 50" fill="none" xmlns="http://www.w3.org/2000/svg">
<path d="M14.548 12.178C14.5259 12.0545 14.6495 12.0545 14.7289 12.0236C16.1805 11.4809 17.6365 10.9382 19.0881 10.3955C23.8709 8.6086 28.6536 6.82168 33.4364 5.03477C33.5511 4.99064 33.6482 4.98623 33.7629 5.03477C39.9796 7.33349 46.1963 9.62781 52.4174 11.9177C52.5586 11.9707 52.6027 12.0236 52.5763 12.178C52.0468 15.2092 51.4159 18.2138 50.6437 21.192C49.8628 24.2099 48.9362 27.1837 47.7361 30.0693C46.5449 32.946 44.7712 35.4124 42.6225 37.6361C39.9178 40.4422 36.8867 42.8468 33.604 44.9338C33.4584 45.0264 33.3614 45.0176 33.2246 44.9338C29.8405 42.8115 26.7035 40.3849 23.9326 37.4993C22.6266 36.136 21.4001 34.7064 20.4779 33.0475C19.4808 31.2561 18.744 29.3589 18.0954 27.422C17.0762 24.3732 16.304 21.2582 15.6378 18.1168C15.2319 16.2063 14.8789 14.2826 14.5701 12.3545C14.5612 12.306 14.5568 12.253 14.5524 12.1868L14.548 12.178ZM16.282 13.5193C16.2864 13.5546 16.2908 13.5899 16.2996 13.6252C16.6438 15.7739 17.0541 17.9094 17.535 20.0316C18.2321 23.0937 19.0572 26.116 20.1647 29.0633C21.1442 31.6665 22.534 34.0005 24.4621 36.0212C27.1182 38.8097 30.1273 41.157 33.4011 43.1645C33.5467 43.2528 33.6482 43.2439 33.7849 43.1557C36.7852 41.2496 39.5384 39.0436 41.9827 36.458C43.1387 35.2315 44.2197 33.9431 45.0933 32.4915C46.161 30.7134 46.9199 28.7986 47.5729 26.8396C49.0421 22.4407 50.0305 17.9315 50.7849 13.3605C50.8202 13.1355 50.7629 13.0693 50.5687 12.9943C44.9653 10.9647 39.3663 8.92628 33.7673 6.88787C33.6085 6.83051 33.4761 6.83051 33.3128 6.88787C29.1345 8.48947 24.9563 10.0823 20.778 11.6795C19.344 12.2266 17.9056 12.7781 16.4717 13.3252C16.3835 13.3605 16.2643 13.3693 16.282 13.5149V13.5193Z" fill="white"/>
<path d="M37.7054 16.5371C38.7202 16.0914 39.7306 15.6767 40.7763 15.3546C41.972 14.984 43.1853 14.6751 44.4516 14.6884C44.8487 14.6928 45.2369 14.7501 45.6164 14.8825C46.5782 15.2222 47.0548 16.0517 46.8739 17.0577C46.7371 17.8166 46.3929 18.4828 45.9738 19.1182C45.1664 20.3447 44.1604 21.4037 43.0971 22.4096C42.6029 22.8817 42.0911 23.3362 41.5616 23.7641C41.4337 23.8656 41.4734 23.9142 41.5749 24.0024C42.6823 24.9687 43.7368 25.9923 44.5795 27.2012C44.9899 27.788 45.3384 28.4057 45.484 29.1161C45.6958 30.1529 45.2281 30.9912 44.2266 31.3442C43.5118 31.6001 42.7706 31.6001 42.0293 31.5339C40.7101 31.4192 39.4438 31.0751 38.1908 30.6736C37.9481 30.5941 37.9525 30.5941 37.9128 30.8589C37.6701 32.4958 37.3304 34.1106 36.748 35.6637C36.4259 36.5241 36.0465 37.3491 35.4332 38.0507C34.9743 38.5757 34.4316 38.9596 33.6904 38.9419C33.1609 38.9287 32.7197 38.6992 32.3358 38.3551C31.7049 37.7903 31.3078 37.0668 30.9725 36.3035C30.3548 34.896 29.993 33.4091 29.7106 31.9046C29.6665 31.6795 29.618 31.4545 29.5915 31.2251C29.5738 31.0662 29.5385 31.0398 29.3885 31.1015C28.5282 31.4457 27.6502 31.7457 26.7545 31.9751C25.8191 32.2134 24.8749 32.3899 23.8998 32.3414C23.6483 32.3281 23.3968 32.2928 23.1542 32.2266C21.9629 31.909 21.4202 31.0001 21.7026 29.7955C21.9144 28.8999 22.3865 28.141 22.9203 27.413C23.7454 26.2879 24.7161 25.2996 25.7441 24.3598C25.8853 24.2318 25.8809 24.1789 25.7309 24.0686C24.1999 22.9391 22.7483 21.7169 21.4864 20.2874C20.8422 19.555 20.2554 18.7873 19.8892 17.8695C19.7171 17.4371 19.6112 16.9915 19.6818 16.5238C19.7701 15.8973 20.1186 15.4561 20.6701 15.1693C21.1731 14.909 21.7202 14.8296 22.2762 14.8163C23.5998 14.7899 24.8705 15.0811 26.1324 15.4428C27.2751 15.7649 28.387 16.1753 29.4812 16.6341C29.6268 16.6959 29.693 16.7091 29.7283 16.5106C29.9974 15.0811 30.346 13.6736 30.924 12.3367C31.2416 11.6087 31.6123 10.9116 32.1814 10.3424C33.1212 9.40704 34.264 9.40263 35.2126 10.338C35.87 10.9866 36.2715 11.7984 36.6156 12.6456C37.0921 13.828 37.4054 15.059 37.6525 16.3076C37.6657 16.3826 37.6878 16.4576 37.7054 16.5415V16.5371ZM22.5056 15.9238C22.0776 15.9194 21.6541 15.937 21.257 16.1091C20.8952 16.2591 20.754 16.4797 20.7672 16.8591C20.7849 17.2342 20.9349 17.5695 21.1114 17.8916C21.4599 18.5402 21.9188 19.1138 22.4085 19.6609C23.6704 21.0639 25.122 22.2464 26.6354 23.3671C26.728 23.4376 26.7854 23.4332 26.8736 23.3582C27.5487 22.7758 28.2502 22.2287 28.9738 21.7037C29.0973 21.6154 29.1459 21.5184 29.1503 21.3684C29.2032 20.2565 29.3135 19.149 29.4724 18.046C29.4944 17.8828 29.4503 17.821 29.3135 17.7636C28.2679 17.3268 27.2089 16.9209 26.1191 16.5944C24.9411 16.2414 23.7498 15.9547 22.51 15.9282L22.5056 15.9238ZM33.7257 37.8345C33.8977 37.8389 34.0522 37.7771 34.1934 37.6889C34.4184 37.5433 34.5993 37.3491 34.7581 37.1329C35.1199 36.652 35.3758 36.1137 35.5964 35.5622C36.2627 33.89 36.6024 32.1384 36.8671 30.3647C36.8848 30.2456 36.8318 30.2015 36.7303 30.1618C35.8214 29.822 34.9346 29.4382 34.0566 29.0234C33.9551 28.9749 33.8757 28.9749 33.7742 29.0278C32.7859 29.5749 31.7799 30.0779 30.7475 30.5324C30.6328 30.5853 30.6151 30.6383 30.6328 30.7618C30.7387 31.4148 30.8534 32.0634 30.999 32.7076C31.2902 33.9827 31.6431 35.2401 32.252 36.4093C32.4594 36.8064 32.6932 37.1859 33.0241 37.4947C33.2227 37.68 33.4389 37.8301 33.7213 37.8345H33.7257ZM44.3413 15.8002C43.7898 15.8002 43.3088 15.8708 42.8279 15.9679C41.1557 16.3032 39.5806 16.9209 38.0319 17.6092C37.9084 17.6622 37.8996 17.7372 37.9128 17.8475C38.0849 18.9902 38.2084 20.1418 38.2702 21.2978C38.279 21.4345 38.3364 21.514 38.4511 21.5934C39.1085 22.0434 39.7527 22.5155 40.3704 23.0185C40.5292 23.1509 40.6174 23.1244 40.7586 23.0053C41.4866 22.3876 42.2058 21.7522 42.8809 21.0772C43.7412 20.2168 44.5575 19.3167 45.1928 18.271C45.4708 17.8166 45.7179 17.3489 45.7841 16.8062C45.837 16.3782 45.6782 16.1003 45.2767 15.9458C44.9546 15.8223 44.6193 15.8002 44.3413 15.8091V15.8002ZM33.6727 10.7483C33.333 10.7616 33.0727 10.9866 32.8388 11.2513C32.4947 11.6352 32.2476 12.0852 32.0358 12.5485C31.3828 13.978 31.0343 15.4958 30.7475 17.0312C30.721 17.1636 30.7872 17.2077 30.8887 17.2518C31.7711 17.6577 32.6403 18.0857 33.4918 18.549C33.6065 18.6108 33.6904 18.6108 33.8051 18.549C34.5993 18.0857 35.4111 17.6533 36.2318 17.2386C36.6465 17.0312 36.6597 17.0268 36.5671 16.5679C36.2803 15.134 35.9229 13.7221 35.2832 12.3985C35.0405 11.8999 34.7625 11.419 34.339 11.0439C34.1581 10.8851 33.9595 10.7572 33.6683 10.7527L33.6727 10.7483ZM24.4469 31.2427C26.1368 31.1236 27.7163 30.5721 29.2738 29.9588C29.3488 29.9279 29.4062 29.9014 29.393 29.7911C29.2473 28.6881 29.1679 27.5762 29.1106 26.4644C29.1106 26.385 29.0841 26.3364 29.0135 26.2923C28.312 25.8599 27.6149 25.4143 26.9398 24.9378C26.8471 24.8716 26.7942 24.8892 26.7192 24.9598C26.5692 25.1054 26.4148 25.2422 26.2603 25.3834C25.1926 26.3938 24.1778 27.4483 23.388 28.6969C23.1233 29.1161 22.8895 29.5529 22.7791 30.0426C22.638 30.6647 22.863 31.0354 23.4807 31.1677C23.7984 31.2339 24.1204 31.2604 24.4469 31.2383V31.2427ZM42.4926 30.453C43.1059 30.453 43.5295 30.4441 43.9265 30.2721C44.3236 30.1 44.4736 29.8176 44.4031 29.3896C44.3457 29.0278 44.2001 28.7013 44.0192 28.3925C43.15 26.9188 41.9146 25.7805 40.6527 24.6686C40.5645 24.5936 40.5071 24.6201 40.4321 24.6819C39.788 25.1849 39.1305 25.6746 38.4555 26.1379C38.3761 26.1908 38.3408 26.2526 38.3364 26.3497C38.2922 27.3336 38.2261 28.3131 38.1202 29.2926C38.1025 29.4514 38.1599 29.5043 38.2967 29.5441C38.5923 29.6279 38.8835 29.7338 39.1791 29.822C40.3262 30.1573 41.4822 30.4353 42.497 30.453H42.4926ZM37.251 23.848C37.251 23.848 37.2289 23.848 37.2157 23.848C37.2157 23.3318 37.2113 22.8111 37.2157 22.2949C37.2157 22.1272 37.1539 22.039 37.0215 21.9508C35.9759 21.2625 34.9081 20.6095 33.8227 19.9918C33.708 19.9256 33.6286 19.9256 33.5139 19.9918C32.4373 20.6448 31.3872 21.3331 30.3592 22.0611C30.2621 22.1272 30.2136 22.1978 30.2092 22.3214C30.1562 23.4068 30.1783 24.4922 30.1827 25.5775C30.1827 25.7055 30.2577 25.7496 30.346 25.8026C31.4402 26.4511 32.5609 27.0556 33.6992 27.6248C33.8183 27.6865 33.9154 27.691 34.0389 27.6248C35.0802 27.0247 36.0994 26.3894 37.101 25.7276C37.2157 25.6525 37.2642 25.5643 37.2598 25.4275C37.2554 24.9025 37.2598 24.3774 37.2598 23.8524L37.251 23.848ZM32.7021 28.3616C31.8505 27.9336 31.0696 27.4968 30.2621 27.0468C30.2886 27.8498 30.3769 28.5954 30.4475 29.3455C30.4607 29.4646 30.5269 29.4205 30.5798 29.394C30.7298 29.3279 30.8798 29.2573 31.0299 29.1867C31.5681 28.9219 32.1108 28.6528 32.7021 28.3616ZM34.7846 19.2638C35.5876 19.7226 36.3377 20.1903 37.1142 20.6801C37.0613 19.8594 36.9642 19.0917 36.8671 18.324C36.8539 18.2313 36.8362 18.174 36.7215 18.2313C36.0818 18.5578 35.4464 18.8887 34.7846 19.2638ZM30.3019 20.7507C31.0299 20.2565 31.7226 19.802 32.4285 19.3608C32.5256 19.2991 32.477 19.2638 32.4109 19.2285C31.8329 18.9417 31.2549 18.6549 30.6769 18.3725C30.5886 18.3284 30.5445 18.3505 30.5357 18.4519C30.443 19.1976 30.3592 19.9476 30.3063 20.7507H30.3019ZM37.198 26.9938C36.4744 27.4395 35.8126 27.8542 35.1067 28.291C35.6317 28.5116 36.1126 28.7146 36.5936 28.9175C37.0039 29.0852 37.0127 29.0852 37.0568 28.6572C37.1098 28.1233 37.1495 27.5851 37.198 26.9938ZM29.0576 23.0141C28.6032 23.3803 28.184 23.7156 27.7693 24.0509C27.6766 24.1259 27.756 24.1568 27.8046 24.1921C27.9722 24.3068 28.1355 24.4171 28.3032 24.5274C28.5458 24.6863 28.7885 24.8407 29.0576 25.0128V23.0141ZM38.3672 24.8407C38.7952 24.5186 39.1614 24.2362 39.5365 23.9671C39.6644 23.8745 39.6291 23.8259 39.5276 23.7509C39.1703 23.4862 38.8173 23.217 38.4599 22.9523C38.429 22.9303 38.3981 22.8905 38.3628 22.9126V24.8407H38.3672Z" fill="white"/>
<path d="M34.9835 24.0207C34.9835 24.7266 34.4496 25.2737 33.7701 25.2693C33.0995 25.2649 32.5612 24.6913 32.5745 23.9986C32.5877 23.3147 33.1304 22.7544 33.7834 22.7544C34.4496 22.7544 34.9835 23.3192 34.9835 24.0207Z" fill="white"/>
<path d="M167.122 25.8601C167.122 24.4449 167.1 23.0296 167.128 21.6144C167.151 20.319 167.984 19.7711 168.937 20.5415C169.536 21.0266 169.844 20.8611 170.364 20.5986C172.572 19.4858 174.558 19.8567 176.225 21.66C176.63 22.0994 176.732 22.282 177.292 21.5915C178.484 20.1192 180.236 19.6284 182.097 20.1592C183.883 20.6671 185.041 21.8255 185.292 23.7715C185.583 25.9914 185.378 28.2113 185.452 30.4312C185.475 31.1045 185.19 31.4469 184.471 31.4755C183.586 31.5097 183.495 30.9904 183.501 30.3113C183.506 28.4909 183.569 26.6705 183.466 24.8558C183.318 22.2136 180.955 20.9067 178.741 22.1907C177.663 22.8128 177.32 23.8457 177.303 25.0155C177.28 26.7332 177.28 28.451 177.292 30.1687C177.292 30.8991 177.189 31.4698 176.253 31.4812C175.22 31.4926 175.323 30.7907 175.317 30.1287C175.311 28.4624 175.329 26.796 175.3 25.124C175.266 22.9497 174.176 21.7342 172.281 21.7114C170.421 21.6828 169.217 22.9098 169.125 25.0384C169.057 26.6534 169.114 28.274 169.08 29.889C169.068 30.5852 169.382 31.5268 168.098 31.4698C166.883 31.4184 167.151 30.5053 167.14 29.7977C167.111 28.4852 167.128 27.1727 167.128 25.8544H167.122V25.8601Z" fill="white"/>
<path d="M103.518 24.4344C103.324 26.5687 102.691 28.5261 100.95 29.8957C100.226 30.4664 100.186 30.8316 100.848 31.4137C101.453 31.9501 102 32.5493 102.56 33.1371C102.765 33.3482 103.039 33.5822 102.896 33.9132C102.714 34.3298 102.297 34.2157 101.961 34.1928C101.236 34.1415 100.739 33.6621 100.351 33.1485C99.3241 31.7789 98.0914 31.3737 96.3338 31.4879C92.9098 31.7161 90.1934 29.4905 89.3317 26.1693C88.4871 22.9279 89.9765 19.4297 92.8755 17.8775C95.8544 16.2796 99.5238 16.913 101.767 19.3783C103.079 20.8221 103.364 22.5912 103.53 24.4344H103.518ZM96.1911 18.6878C93.0239 18.7049 90.9638 20.9819 90.9752 24.4401C90.9866 27.7728 93.1894 30.0155 96.4251 29.9927C99.4325 29.9699 101.641 27.5446 101.607 24.2975C101.572 20.9534 99.3697 18.6707 96.1911 18.6878Z" fill="white"/>
<path d="M130.025 25.6978C130.025 27.2614 130.043 28.825 130.014 30.383C130.008 30.8737 129.997 31.4444 129.261 31.4672C128.736 31.4843 128.251 31.4843 128.102 30.7995C127.914 29.915 127.469 30.3088 127.024 30.6055C124.473 32.289 121.899 32.0208 119.947 29.8751C118.093 27.8378 118.024 24.1113 119.793 21.8743C121.323 19.9398 124.45 19.4946 126.824 20.8871C127.389 21.2181 127.954 21.9999 128.245 20.6074C128.353 20.0938 129.021 20.2536 129.455 20.2936C130.048 20.3506 130.122 20.8186 130.128 21.2979C130.128 22.7589 130.128 24.2255 130.128 25.6864C130.094 25.6864 130.065 25.6864 130.031 25.6864L130.025 25.6978ZM124.342 30.0006C126.584 29.9778 128.142 28.2258 128.102 25.7606C128.062 23.3923 126.493 21.7317 124.29 21.7259C121.922 21.7259 120.49 23.2953 120.501 25.8747C120.512 28.4027 122.019 30.0177 124.347 30.0006H124.342Z" fill="white"/>
<path d="M82.6486 26.6122C81.4845 26.6122 80.3203 26.635 79.1619 26.6065C78.2716 26.5837 78.1404 26.9888 78.3801 27.7421C79.1048 30.0134 82.3747 30.8922 84.1381 29.2658C84.4291 28.9919 84.6346 28.6209 84.9313 28.3527C85.4392 27.8905 86.1582 27.8734 86.6148 28.2101C87.1626 28.6095 86.5805 29.1174 86.3351 29.4941C85.0968 31.4058 82.5288 32.1648 79.9722 31.4229C77.6496 30.7495 76.183 28.4497 76.2629 25.6249C76.3428 22.7773 77.855 20.7914 80.4059 20.1694C82.8997 19.5588 85.4963 20.6373 86.6376 22.7887C86.8259 23.1425 86.9743 23.5249 87.0656 23.9129C87.642 26.2983 87.3909 26.6122 84.9313 26.6122C84.1723 26.6122 83.4133 26.6122 82.6543 26.6122H82.6486ZM81.7013 25.0657C82.506 25.0657 83.3163 25.02 84.1153 25.0771C85.4221 25.1627 85.4221 24.5236 85.0112 23.5991C84.3663 22.161 83.1508 21.7045 81.6956 21.7102C80.2005 21.7159 79.1048 22.3721 78.4885 23.7817C78.1175 24.6377 78.1917 25.1228 79.2817 25.0714C80.0863 25.0315 80.891 25.0657 81.6956 25.06L81.7013 25.0657Z" fill="white"/>
<path d="M56.4018 24.2816C56.4018 22.3128 56.436 20.344 56.3846 18.3752C56.3618 17.485 56.6243 17.097 57.5773 17.1255C59.3978 17.1826 61.2182 17.1483 63.0386 17.1426C63.6207 17.1426 64.2085 17.1027 64.1742 17.9472C64.1457 18.7861 63.5237 18.7005 62.9701 18.7005C61.806 18.7005 60.6418 18.6948 59.4834 18.7005C59.0382 18.7005 58.4219 18.6263 58.382 19.2198C58.2907 20.4239 58.2964 21.6395 58.3649 22.8493C58.3991 23.4485 58.9926 23.4028 59.4434 23.4028C60.4535 23.4142 61.4636 23.4199 62.4794 23.4085C63.0329 23.4085 63.4894 23.4599 63.5294 24.1732C63.5808 25.0292 63.0101 25.0121 62.4337 25.0178C61.4236 25.0178 60.4078 25.0406 59.3978 25.0178C58.6388 25.0007 58.245 25.2917 58.3135 26.085C58.3135 26.1363 58.3135 26.1877 58.3135 26.239C58.4162 30.85 57.6401 29.8628 61.863 29.9826C62.3709 29.9997 62.8731 29.994 63.381 29.9826C63.9574 29.9769 64.2142 30.2565 64.18 30.8215C64.1514 31.3065 63.8946 31.5405 63.3981 31.5405C61.3266 31.5291 59.2494 31.5405 57.1779 31.5291C56.3333 31.5291 56.4075 30.9014 56.4075 30.3478C56.4075 28.3277 56.4075 26.3075 56.4075 24.2874L56.4018 24.2816Z" fill="white"/>
<path d="M116.128 25.8761C116.128 27.2914 116.14 28.7066 116.123 30.1219C116.123 30.6069 116.242 31.2233 115.592 31.3945C115.078 31.5257 114.462 31.6912 114.182 30.955C113.931 30.2988 113.606 30.6868 113.252 30.8694C109.258 32.9353 105.965 30.9722 105.942 26.5153C105.936 24.8489 105.942 23.1769 105.936 21.5105C105.936 20.8885 105.879 20.2665 106.809 20.2551C107.711 20.2436 107.74 20.8086 107.74 21.4649C107.74 23.1826 107.671 24.906 107.785 26.618C107.928 28.7237 108.961 29.8651 110.593 29.9963C112.539 30.1447 114.051 28.8721 114.137 26.8976C114.211 25.1342 114.171 23.3595 114.171 21.5904C114.171 20.8771 114.217 20.2551 115.181 20.2665C116.163 20.2836 116.145 20.957 116.145 21.6361C116.145 23.0513 116.145 24.4666 116.145 25.8818C116.145 25.8818 116.14 25.8818 116.134 25.8818L116.128 25.8761Z" fill="white"/>
<path d="M133.116 25.8251C133.116 24.3585 133.116 22.8919 133.116 21.431C133.116 20.9687 133.105 20.4666 133.681 20.3353C134.115 20.2383 134.72 20.0956 134.931 20.5579C135.319 21.391 135.673 21.0315 136.198 20.7462C139.804 18.7774 143.285 20.8318 143.32 24.9349C143.331 26.6526 143.331 28.3703 143.32 30.088C143.314 30.7157 143.491 31.4576 142.435 31.4861C141.379 31.509 141.511 30.7956 141.511 30.1451C141.505 28.5301 141.528 26.9094 141.494 25.2944C141.448 22.9318 140.329 21.7049 138.298 21.7277C136.306 21.7506 135.159 23.0288 135.102 25.3515C135.062 27.0178 135.085 28.6842 135.085 30.3562C135.085 30.9497 135.051 31.4633 134.24 31.4918C133.424 31.5204 133.15 31.0752 133.139 30.379C133.122 28.8611 133.139 27.3488 133.139 25.8308C133.139 25.8308 133.133 25.8308 133.128 25.8308L133.116 25.8251Z" fill="white"/>
<path d="M163.975 25.8882C163.975 27.3548 163.975 28.8157 163.975 30.2823C163.975 30.7217 164.072 31.2753 163.485 31.4123C163.017 31.5207 162.452 31.6576 162.189 31.0071C161.824 30.1111 161.385 30.7845 161.014 30.9671C158.565 32.1769 156.22 31.7718 154.708 29.9057C153.909 28.9241 153.875 27.7429 153.806 26.6072C153.703 24.8952 153.783 23.1775 153.772 21.4598C153.772 20.7693 153.926 20.2614 154.765 20.2671C155.609 20.2786 155.724 20.815 155.724 21.4941C155.712 23.2118 155.701 24.9295 155.729 26.6472C155.763 28.6274 156.796 29.8429 158.514 30.0027C160.437 30.1796 161.778 29.1695 162.007 27.0752C162.201 25.2776 162.115 23.4515 162.149 21.6367C162.161 20.9748 162.052 20.2786 163.079 20.2786C164.135 20.2786 163.975 21.0204 163.981 21.6539C163.992 23.0691 163.981 24.4787 163.981 25.8939H163.975V25.8882Z" fill="white"/>
<path d="M66.9957 20.2368C67.749 20.1169 68.137 20.6762 68.5479 21.3039C69.868 23.3203 71.171 23.3203 72.457 21.3039C72.7252 20.8873 72.8907 20.3452 73.4842 20.2881C73.8722 20.2482 74.3344 20.0827 74.6255 20.4422C74.9336 20.8245 74.4885 21.0871 74.323 21.3553C73.6325 22.4738 72.9534 23.6037 72.1773 24.6537C71.5724 25.4698 71.5439 26.1432 72.1488 26.9649C72.8964 27.9807 73.5526 29.0593 74.1975 30.1435C74.4258 30.5259 75.122 31.0395 74.5342 31.399C73.992 31.73 73.1418 31.7642 72.6453 31.0167C72.0575 30.1321 71.4811 29.2476 70.9219 28.3459C70.4653 27.6098 70.0602 27.5984 69.6207 28.3574C69.1642 29.1449 68.6734 29.9096 68.2169 30.6914C67.9202 31.205 67.5663 31.5531 66.9101 31.5417C66.1454 31.5303 65.8144 31.3248 66.3052 30.5772C67.1098 29.356 67.8859 28.112 68.7419 26.925C69.2726 26.1945 69.2441 25.6067 68.7362 24.882C67.8916 23.6836 67.1612 22.4167 66.3394 21.2012C65.8201 20.4308 66.1397 20.2368 66.9957 20.2368Z" fill="white"/>
<path d="M146.844 26.3135C146.844 25.4062 146.896 24.4931 146.827 23.5914C146.77 22.8382 146.913 22.005 145.8 21.6683C145.246 21.4971 145.212 20.5441 145.84 20.39C146.976 20.1047 146.924 19.3514 146.918 18.541C146.918 17.862 147.033 17.3198 147.883 17.3312C148.79 17.3426 148.824 17.9989 148.739 18.6038C148.556 19.9563 149.098 20.4471 150.428 20.2816C150.953 20.2131 151.666 20.1674 151.701 20.9721C151.735 21.8737 150.993 21.8509 150.394 21.7881C149.15 21.6569 148.67 22.1248 148.745 23.4031C148.836 24.961 148.802 26.5361 148.75 28.0997C148.71 29.2867 149.178 29.9144 150.394 29.943C150.982 29.9601 151.758 29.8459 151.689 30.7647C151.626 31.6493 150.845 31.4666 150.268 31.4723C147.786 31.5066 146.964 30.7134 146.918 28.2823C146.907 27.6261 146.918 26.9698 146.918 26.3135C146.89 26.3135 146.867 26.3135 146.839 26.3135H146.844Z" fill="white"/>
</svg>
