<svg width="257" height="43" viewBox="0 0 257 43" fill="none" xmlns="http://www.w3.org/2000/svg">
<path d="M202.306 36.4626C200.715 36.4626 199.542 37.6351 199.542 39.2258C199.542 40.0721 199.858 40.8164 200.388 41.2447C200.817 41.6729 201.449 41.887 202.092 41.887H202.306C203.795 41.887 205.069 40.7145 205.069 39.1238C205.069 37.6351 203.897 36.3606 202.306 36.3606V36.4626Z" fill="white" stroke="white" stroke-width="1.043" stroke-miterlimit="23.9103"/>
<path d="M253.355 2.64111C251.866 2.64111 250.591 3.91566 250.591 5.40433C250.591 6.893 251.866 8.16755 253.355 8.16755C254.843 8.16755 256.118 6.893 256.118 5.40433C256.118 3.91566 254.843 2.64111 253.355 2.64111Z" fill="white" stroke="white" stroke-width="1.043" stroke-miterlimit="23.9103"/>
<path d="M62.9642 5.08883C61.0469 6.89359 60.0883 9.55485 60.0883 12.9604V13.8067H55.5195V17.3143H60.0883V41.2452H63.7087V17.3143H71.6836V13.8067H63.7087V12.9604C63.7087 10.4113 64.239 8.59639 65.5137 7.53596C66.7885 6.36338 68.5936 5.94533 71.1533 6.14925H71.5817V2.74366H71.1533C67.6452 2.42758 64.8815 3.28407 62.9642 5.08883Z" fill="white" stroke="white" stroke-width="1.043" stroke-miterlimit="23.9103"/>
<path d="M89.4455 13.2766C81.1442 13.2766 75.1885 19.3332 75.1885 27.6331C75.1885 35.9329 81.2462 41.9896 89.6495 41.9896C94.8608 41.9896 99.2256 39.7566 101.673 35.8208L101.887 35.3925L98.6953 33.4756L98.4811 33.9038C96.8902 36.7792 93.484 38.584 89.6495 38.584C83.9079 38.584 79.6553 34.9643 78.9108 29.5398H102.948V29.1115C102.948 28.8974 102.948 28.6833 102.948 28.4692C102.948 28.255 102.948 28.0409 102.948 27.7248C102.948 20.7097 98.165 13.2664 89.3333 13.2664H89.4455V13.2766ZM78.9108 25.9303C79.6553 20.5058 83.9079 16.6821 89.4455 16.6821C94.6568 16.6821 98.5933 20.4038 99.3378 25.9303H78.9108Z" fill="white" stroke="white" stroke-width="1.043" stroke-miterlimit="23.9103"/>
<path d="M118.056 2L114.436 5.61971V13.8074H108.582V17.315H114.436V34.4347C114.436 37.0959 115.18 39.0027 116.567 40.2874C117.842 41.3478 119.647 41.878 121.993 41.878C123.053 41.878 124.226 41.7761 125.613 41.562H125.929V38.3705H125.501C122.421 38.5846 120.075 38.6866 119.015 37.7281C118.372 37.0857 118.056 36.1375 118.056 34.5367V17.4271H126.031V13.9196H118.056V2.11216V2Z" fill="white" stroke="white" stroke-width="1.043" stroke-miterlimit="23.9103"/>
<path d="M155.719 33.272C154.015 36.5654 150.507 38.5843 146.469 38.5843C140.411 38.5843 135.618 33.8022 135.618 27.6334C135.618 21.4646 140.401 16.6825 146.469 16.6825C150.507 16.6825 153.914 18.7014 155.515 21.9948L155.729 22.4231L158.707 20.6183L158.492 20.3022C156.473 15.9382 151.894 13.2871 146.469 13.2871C138.28 13.2871 132.008 19.4559 132.008 27.6436C132.008 35.8313 138.178 42.0001 146.469 42.0001C151.782 42.0001 156.463 39.3389 158.696 34.985L158.911 34.6689L155.933 32.8642L155.719 33.272Z" fill="white" stroke="white" stroke-width="1.043" stroke-miterlimit="23.9103"/>
<path d="M180.175 13.2772C176.238 13.2772 173.158 14.8678 171.129 17.7432V2L167.621 5.61971V41.2459H171.129V26.7874C171.129 20.5166 174.535 16.6828 180.062 16.6828C184.743 16.6828 187.507 19.5582 187.507 24.3403V41.358H191.127V24.3403C191.127 17.6412 186.875 13.2772 180.277 13.2772H180.175Z" fill="white" stroke="white" stroke-width="1.043" stroke-miterlimit="23.9103"/>
<path d="M236.76 18.803C234.21 15.2955 230.274 13.2766 225.695 13.2766C217.72 13.2766 211.55 19.5474 211.55 27.6331C211.55 35.7188 217.822 41.9896 225.695 41.9896C230.161 41.9896 234.2 39.9707 236.76 36.4632V41.3574H240.38V13.8068H236.76V18.7011V18.803ZM225.909 38.584C219.851 38.584 215.058 33.8019 215.058 27.6331C215.058 21.4643 219.841 16.6822 225.909 16.6822C231.967 16.6822 236.76 21.4643 236.76 27.6331C236.76 33.8019 231.967 38.584 225.909 38.584Z" fill="white" stroke="white" stroke-width="1.043" stroke-miterlimit="23.9103"/>
<path d="M255.161 13.8074H251.652V41.3478H255.161V13.8074Z" fill="white" stroke="white" stroke-width="1.043" stroke-miterlimit="23.9103"/>
<path d="M6.58901 2.74365H1.16357V8.16813H6.58901V2.74365Z" fill="white" stroke="white" stroke-width="1.043" stroke-miterlimit="23.9103"/>
<path d="M17.9679 2.74365H12.5425V8.16813H17.9679V2.74365Z" fill="white" stroke="white" stroke-width="1.043" stroke-miterlimit="23.9103"/>
<path d="M29.4689 2.74365H24.0435V8.16813H29.4689V2.74365Z" fill="white" stroke="white" stroke-width="1.043" stroke-miterlimit="23.9103"/>
<path d="M6.58901 14.1218H1.16357V19.5463H6.58901V14.1218Z" fill="white" stroke="white" stroke-width="1.043" stroke-miterlimit="23.9103"/>
<path d="M17.9679 14.1213H12.5425V19.5458H17.9679V14.1213Z" fill="white" stroke="white" stroke-width="1.043" stroke-miterlimit="23.9103"/>
<path d="M6.58901 25.613H1.16357V31.0375H6.58901V25.613Z" fill="white" stroke="white" stroke-width="1.043" stroke-miterlimit="23.9103"/>
<path d="M38.1837 3.81372C37.3372 3.81372 36.5928 4.55806 36.5928 5.40436C36.5928 6.25066 37.3372 6.99499 38.1837 6.99499C39.0301 6.99499 39.7746 6.25066 39.7746 5.40436C39.7746 4.55806 39.0301 3.81372 38.1837 3.81372Z" fill="white" stroke="white" stroke-width="1.043" stroke-miterlimit="23.9103"/>
<path d="M38.1837 15.2964C37.3372 15.2964 36.5928 16.0407 36.5928 16.887C36.5928 17.7333 37.3372 18.4777 38.1837 18.4777C39.0301 18.4777 39.7746 17.7333 39.7746 16.887C39.7746 16.0407 39.0301 15.2964 38.1837 15.2964Z" fill="white" stroke="white" stroke-width="1.043" stroke-miterlimit="23.9103"/>
<path d="M38.1837 26.7864C37.3372 26.7864 36.5928 27.5307 36.5928 28.377C36.5928 29.2233 37.3372 29.9676 38.1837 29.9676C39.0301 29.9676 39.7746 29.2233 39.7746 28.377C39.7746 27.5307 39.0301 26.7864 38.1837 26.7864Z" fill="white" stroke="white" stroke-width="1.043" stroke-miterlimit="23.9103"/>
<path d="M38.1837 38.165C37.3372 38.165 36.5928 38.9094 36.5928 39.7557C36.5928 40.602 37.3372 41.3463 38.1837 41.3463C39.0301 41.3463 39.7746 40.602 39.7746 39.7557C39.7746 38.9094 39.0301 38.165 38.1837 38.165Z" fill="white" stroke="white" stroke-width="1.043" stroke-miterlimit="23.9103"/>
<path d="M26.6959 15.2964C25.8494 15.2964 25.105 16.0407 25.105 16.887C25.105 17.7333 25.8494 18.4777 26.6959 18.4777C27.5423 18.4777 28.2868 17.7333 28.2868 16.887C28.2868 16.0407 27.5423 15.2964 26.6959 15.2964Z" fill="white" stroke="white" stroke-width="1.043" stroke-miterlimit="23.9103"/>
<path d="M26.6959 26.7864C25.8494 26.7864 25.105 27.5307 25.105 28.377C25.105 29.2233 25.8494 29.9676 26.6959 29.9676C27.5423 29.9676 28.2868 29.2233 28.2868 28.377C28.2868 27.5307 27.5423 26.7864 26.6959 26.7864Z" fill="white" stroke="white" stroke-width="1.043" stroke-miterlimit="23.9103"/>
<path d="M26.6959 38.165C25.8494 38.165 25.105 38.9094 25.105 39.7557C25.105 40.602 25.8494 41.3463 26.6959 41.3463C27.5423 41.3463 28.2868 40.602 28.2868 39.7557C28.2868 38.9094 27.5423 38.165 26.6959 38.165Z" fill="white" stroke="white" stroke-width="1.043" stroke-miterlimit="23.9103"/>
<path d="M15.317 26.7864C14.4705 26.7864 13.7261 27.5307 13.7261 28.377C13.7261 29.2233 14.4705 29.9676 15.317 29.9676C16.1634 29.9676 16.9079 29.2233 16.9079 28.377C16.9079 27.5307 16.1634 26.7864 15.317 26.7864Z" fill="white" stroke="white" stroke-width="1.043" stroke-miterlimit="23.9103"/>
<path d="M15.317 38.165C14.4705 38.165 13.7261 38.9094 13.7261 39.7557C13.7261 40.602 14.4705 41.3463 15.317 41.3463C16.1634 41.3463 16.9079 40.602 16.9079 39.7557C16.9079 38.9094 16.1634 38.165 15.317 38.165Z" fill="white" stroke="white" stroke-width="1.043" stroke-miterlimit="23.9103"/>
<path d="M3.8292 38.165C2.98275 38.165 2.23828 38.9094 2.23828 39.7557C2.23828 40.602 2.98275 41.3463 3.8292 41.3463C4.67565 41.3463 5.42011 40.602 5.42011 39.7557C5.43031 38.9094 4.68584 38.165 3.8292 38.165Z" fill="white" stroke="white" stroke-width="1.043" stroke-miterlimit="23.9103"/>
</svg>
