<svg width="200" height="50" viewBox="0 0 200 50" fill="none" xmlns="http://www.w3.org/2000/svg">
<path d="M139.893 32.8321C139.032 32.8321 138.396 33.4671 138.396 34.3285C138.396 34.7868 138.568 35.1899 138.855 35.4218C139.087 35.6537 139.429 35.7697 139.777 35.7697H139.893C140.699 35.7697 141.39 35.1347 141.39 34.2733C141.39 33.4671 140.755 32.7769 139.893 32.7769V32.8321Z" fill="white" stroke="white" stroke-width="1.043" stroke-miterlimit="23.9103"/>
<path d="M167.538 14.5161C166.732 14.5161 166.042 15.2063 166.042 16.0125C166.042 16.8187 166.732 17.5089 167.538 17.5089C168.344 17.5089 169.035 16.8187 169.035 16.0125C169.035 15.2063 168.344 14.5161 167.538 14.5161Z" fill="white" stroke="white" stroke-width="1.043" stroke-miterlimit="23.9103"/>
<path d="M64.433 15.8415C63.3947 16.8189 62.8756 18.2601 62.8756 20.1044V20.5627H60.4014V22.4622H62.8756V35.4219H64.8362V22.4622H69.155V20.5627H64.8362V20.1044C64.8362 18.7239 65.1233 17.741 65.8137 17.1668C66.504 16.5318 67.4816 16.3054 68.8678 16.4158H69.0997V14.5715H68.8678C66.968 14.4004 65.4713 14.8642 64.433 15.8415Z" fill="white" stroke="white" stroke-width="1.043" stroke-miterlimit="23.9103"/>
<path d="M78.7741 20.2755C74.2785 20.2755 71.0532 23.5555 71.0532 28.0502C71.0532 32.545 74.3338 35.8249 78.8845 35.8249C81.7067 35.8249 84.0704 34.6157 85.3959 32.4843L85.5119 32.2523L83.7832 31.2142L83.6673 31.4462C82.8057 33.0033 80.9611 33.9807 78.8845 33.9807C75.7752 33.9807 73.4722 32.0204 73.069 29.0828H86.0862V28.8509C86.0862 28.7349 86.0862 28.619 86.0862 28.503C86.0862 28.3871 86.0862 28.2711 86.0862 28.0999C86.0862 24.3009 83.496 20.27 78.7133 20.27H78.7741V20.2755ZM73.069 27.1281C73.4722 24.1905 75.7752 22.1198 78.7741 22.1198C81.5962 22.1198 83.728 24.1353 84.1312 27.1281H73.069Z" fill="white" stroke="white" stroke-width="1.043" stroke-miterlimit="23.9103"/>
<path d="M94.2679 14.1689L92.3073 16.1292V20.5632H89.1372V22.4627H92.3073V31.7338C92.3073 33.175 92.7104 34.2076 93.4615 34.9033C94.1519 35.4776 95.1294 35.7647 96.3997 35.7647C96.974 35.7647 97.6092 35.7095 98.3603 35.5936H98.5315V33.8652H98.2995C96.6316 33.9812 95.3614 34.0364 94.787 33.5174C94.4391 33.1695 94.2679 32.656 94.2679 31.789V22.5234H98.5867V20.6239H94.2679V14.2297V14.1689Z" fill="white" stroke="white" stroke-width="1.043" stroke-miterlimit="23.9103"/>
<path d="M114.664 31.104C113.741 32.8875 111.842 33.9808 109.655 33.9808C106.374 33.9808 103.778 31.3911 103.778 28.0504C103.778 24.7097 106.368 22.12 109.655 22.12C111.842 22.12 113.686 23.2133 114.553 24.9969L114.669 25.2288L116.282 24.2514L116.166 24.0803C115.072 21.7169 112.593 20.2812 109.655 20.2812C105.22 20.2812 101.823 23.6219 101.823 28.056C101.823 32.49 105.165 35.8307 109.655 35.8307C112.532 35.8307 115.067 34.3895 116.276 32.0316L116.392 31.8605L114.78 30.8831L114.664 31.104Z" fill="white" stroke="white" stroke-width="1.043" stroke-miterlimit="23.9103"/>
<path d="M127.908 20.2761C125.776 20.2761 124.108 21.1375 123.009 22.6946V14.1689L121.109 16.1292V35.4224H123.009V27.5925C123.009 24.1965 124.854 22.1203 127.847 22.1203C130.382 22.1203 131.879 23.6775 131.879 26.2672V35.4831H133.839V26.2672C133.839 22.6394 131.536 20.2761 127.963 20.2761H127.908Z" fill="white" stroke="white" stroke-width="1.043" stroke-miterlimit="23.9103"/>
<path d="M158.551 23.2687C157.171 21.3692 155.039 20.2759 152.559 20.2759C148.24 20.2759 144.899 23.6718 144.899 28.0506C144.899 32.4294 148.295 35.8253 152.559 35.8253C154.978 35.8253 157.165 34.732 158.551 32.8325V35.4829H160.512V20.563H158.551V23.2135V23.2687ZM152.675 33.981C149.394 33.981 146.799 31.3913 146.799 28.0506C146.799 24.7099 149.389 22.1202 152.675 22.1202C155.956 22.1202 158.551 24.7099 158.551 28.0506C158.551 31.3913 155.956 33.981 152.675 33.981Z" fill="white" stroke="white" stroke-width="1.043" stroke-miterlimit="23.9103"/>
<path d="M168.516 20.563H166.616V35.4774H168.516V20.563Z" fill="white" stroke="white" stroke-width="1.043" stroke-miterlimit="23.9103"/>
<path d="M33.9035 14.5718H30.9653V17.5094H33.9035V14.5718Z" fill="white" stroke="white" stroke-width="1.043" stroke-miterlimit="23.9103"/>
<path d="M40.0656 14.5718H37.1274V17.5094H40.0656V14.5718Z" fill="white" stroke="white" stroke-width="1.043" stroke-miterlimit="23.9103"/>
<path d="M46.2941 14.5718H43.356V17.5094H46.2941V14.5718Z" fill="white" stroke="white" stroke-width="1.043" stroke-miterlimit="23.9103"/>
<path d="M33.9035 20.7334H30.9653V23.671H33.9035V20.7334Z" fill="white" stroke="white" stroke-width="1.043" stroke-miterlimit="23.9103"/>
<path d="M40.0656 20.7334H37.1274V23.671H40.0656V20.7334Z" fill="white" stroke="white" stroke-width="1.043" stroke-miterlimit="23.9103"/>
<path d="M33.9035 26.9565H30.9653V29.8941H33.9035V26.9565Z" fill="white" stroke="white" stroke-width="1.043" stroke-miterlimit="23.9103"/>
<path d="M51.0134 15.1514C50.555 15.1514 50.1519 15.5545 50.1519 16.0128C50.1519 16.4711 50.555 16.8742 51.0134 16.8742C51.4718 16.8742 51.875 16.4711 51.875 16.0128C51.875 15.5545 51.4718 15.1514 51.0134 15.1514Z" fill="white" stroke="white" stroke-width="1.043" stroke-miterlimit="23.9103"/>
<path d="M51.0134 21.3696C50.555 21.3696 50.1519 21.7727 50.1519 22.231C50.1519 22.6893 50.555 23.0924 51.0134 23.0924C51.4718 23.0924 51.875 22.6893 51.875 22.231C51.875 21.7727 51.4718 21.3696 51.0134 21.3696Z" fill="white" stroke="white" stroke-width="1.043" stroke-miterlimit="23.9103"/>
<path d="M51.0134 27.5918C50.555 27.5918 50.1519 27.9949 50.1519 28.4532C50.1519 28.9115 50.555 29.3146 51.0134 29.3146C51.4718 29.3146 51.875 28.9115 51.875 28.4532C51.875 27.9949 51.4718 27.5918 51.0134 27.5918Z" fill="white" stroke="white" stroke-width="1.043" stroke-miterlimit="23.9103"/>
<path d="M51.0134 33.7539C50.555 33.7539 50.1519 34.157 50.1519 34.6153C50.1519 35.0736 50.555 35.4767 51.0134 35.4767C51.4718 35.4767 51.875 35.0736 51.875 34.6153C51.875 34.157 51.4718 33.7539 51.0134 33.7539Z" fill="white" stroke="white" stroke-width="1.043" stroke-miterlimit="23.9103"/>
<path d="M44.7922 21.3696C44.3338 21.3696 43.9307 21.7727 43.9307 22.231C43.9307 22.6893 44.3338 23.0924 44.7922 23.0924C45.2506 23.0924 45.6538 22.6893 45.6538 22.231C45.6538 21.7727 45.2506 21.3696 44.7922 21.3696Z" fill="white" stroke="white" stroke-width="1.043" stroke-miterlimit="23.9103"/>
<path d="M44.7922 27.5918C44.3338 27.5918 43.9307 27.9949 43.9307 28.4532C43.9307 28.9115 44.3338 29.3146 44.7922 29.3146C45.2506 29.3146 45.6538 28.9115 45.6538 28.4532C45.6538 27.9949 45.2506 27.5918 44.7922 27.5918Z" fill="white" stroke="white" stroke-width="1.043" stroke-miterlimit="23.9103"/>
<path d="M44.7922 33.7539C44.3338 33.7539 43.9307 34.157 43.9307 34.6153C43.9307 35.0736 44.3338 35.4767 44.7922 35.4767C45.2506 35.4767 45.6538 35.0736 45.6538 34.6153C45.6538 34.157 45.2506 33.7539 44.7922 33.7539Z" fill="white" stroke="white" stroke-width="1.043" stroke-miterlimit="23.9103"/>
<path d="M38.6301 27.5918C38.1717 27.5918 37.7686 27.9949 37.7686 28.4532C37.7686 28.9115 38.1717 29.3146 38.6301 29.3146C39.0885 29.3146 39.4917 28.9115 39.4917 28.4532C39.4917 27.9949 39.0885 27.5918 38.6301 27.5918Z" fill="white" stroke="white" stroke-width="1.043" stroke-miterlimit="23.9103"/>
<path d="M38.6301 33.7539C38.1717 33.7539 37.7686 34.157 37.7686 34.6153C37.7686 35.0736 38.1717 35.4767 38.6301 35.4767C39.0885 35.4767 39.4917 35.0736 39.4917 34.6153C39.4917 34.157 39.0885 33.7539 38.6301 33.7539Z" fill="white" stroke="white" stroke-width="1.043" stroke-miterlimit="23.9103"/>
<path d="M32.4089 33.7539C31.9505 33.7539 31.5474 34.157 31.5474 34.6153C31.5474 35.0736 31.9505 35.4767 32.4089 35.4767C32.8673 35.4767 33.2705 35.0736 33.2705 34.6153C33.276 34.157 32.8728 33.7539 32.4089 33.7539Z" fill="white" stroke="white" stroke-width="1.043" stroke-miterlimit="23.9103"/>
</svg>
