<svg width="200" height="50" viewBox="0 0 200 50" fill="none" xmlns="http://www.w3.org/2000/svg">
<path d="M90.6316 39.0586C87.8749 39.0586 85.5084 38.4399 83.5298 37.2024C81.5513 35.9649 80.0304 34.2996 78.966 32.2052C77.9016 30.1121 77.3694 27.7868 77.3694 25.2305C77.3694 22.6741 77.9146 20.35 79.0062 18.2557C80.0978 16.1625 81.6459 14.496 83.6517 13.2585C85.6574 12.021 88.0109 11.4023 90.7121 11.4023C93.632 11.4023 96.1629 12.1165 98.3047 13.5437C100.446 14.971 102.023 16.8143 103.032 19.0712H99.6754C98.857 17.6298 97.7169 16.4878 96.2575 15.6451C94.7969 14.8024 93.0301 14.3805 90.9569 14.3805C88.7737 14.3805 86.8909 14.8637 85.3085 15.829C83.7262 16.7942 82.5175 18.093 81.6861 19.7242C80.8535 21.3553 80.4372 23.1915 80.4372 25.2305C80.4372 27.2694 80.8464 29.0714 81.6648 30.7167C82.4832 32.362 83.6765 33.6679 85.2459 34.6331C86.8152 35.5984 88.6909 36.0816 90.8741 36.0816C92.5109 36.0816 94.0602 35.728 95.5195 35.0209C96.9789 34.3137 98.1663 33.2943 99.0805 31.9613C99.9947 30.6295 100.452 29.0243 100.452 27.148H90.5465V24.3736H103.277V38.7322H100.452V33.9601C99.8788 34.8311 99.142 35.6526 98.242 36.4281C97.3408 37.2036 96.2563 37.8353 94.9874 38.3244C93.7184 38.8135 92.2649 39.0586 90.6281 39.0586H90.6316ZM116.467 39.0586C114.474 39.0586 112.735 38.5896 111.248 37.6514C109.76 36.7133 108.608 35.4428 107.79 33.8376C106.971 32.2335 106.562 30.4657 106.562 28.5352C106.562 26.6047 106.971 24.8026 107.79 23.2116C108.608 21.6205 109.761 20.3559 111.248 19.4177C112.734 18.4796 114.474 18.0105 116.467 18.0105C118.158 18.0105 119.611 18.337 120.826 18.9899C122.039 19.6428 123.029 20.5268 123.793 21.6417V18.3382H126.863V38.7334H123.793V35.4699C123.029 36.5577 122.039 37.4275 120.826 38.0804C119.611 38.7334 118.158 39.0598 116.467 39.0598V39.0586ZM116.876 36.2843C118.404 36.2843 119.693 35.9307 120.744 35.2236C121.794 34.5164 122.593 33.5712 123.139 32.3891C123.684 31.2058 123.958 29.9212 123.958 28.534C123.958 27.1468 123.684 25.828 123.139 24.6589C122.593 23.4897 121.794 22.5516 120.744 21.8444C119.693 21.1373 118.404 20.7837 116.876 20.7837C115.348 20.7837 114.079 21.1373 112.987 21.8444C111.896 22.5516 111.063 23.4897 110.491 24.6589C109.917 25.828 109.631 27.1197 109.631 28.534C109.631 29.9483 109.917 31.2058 110.491 32.3891C111.064 33.5724 111.896 34.5176 112.987 35.2236C114.078 35.9307 115.375 36.2843 116.876 36.2843ZM131.299 38.7322V10.1789H134.37V38.7322H131.299ZM136.481 38.7322L144.381 28.2087L136.973 18.337H140.903L146.183 26.046L151.422 18.337H155.351L147.943 28.2087L155.883 38.7322H151.953L146.182 30.4115L140.369 38.7322H136.481ZM166.054 39.0586C163.98 39.0586 162.165 38.5896 160.61 37.6514C159.055 36.7133 157.848 35.4428 156.988 33.8376C156.128 32.2335 155.699 30.4657 155.699 28.5352C155.699 26.6047 156.108 24.8026 156.926 23.2116C157.745 21.6205 158.918 20.3559 160.446 19.4177C161.974 18.4796 163.775 18.0105 165.849 18.0105C167.924 18.0105 169.758 18.4796 171.273 19.4177C172.788 20.3559 173.954 21.6205 174.772 23.2116C175.591 24.8026 176 26.5764 176 28.5352V29.7585H158.849C159.012 30.956 159.402 32.0497 160.017 33.042C160.63 34.0356 161.456 34.824 162.493 35.4074C163.53 35.992 164.731 36.2843 166.095 36.2843C167.542 36.2843 168.756 35.9649 169.738 35.3261C170.721 34.6873 171.483 33.8647 172.03 32.8582H175.386C174.677 34.6803 173.551 36.1688 172.01 37.325C170.468 38.4811 168.483 39.0586 166.054 39.0586ZM158.891 26.9029H172.807C172.534 25.1633 171.797 23.7077 170.596 22.5386C169.395 21.3694 167.813 20.7849 165.848 20.7849C163.884 20.7849 162.307 21.3694 161.121 22.5386C159.934 23.7077 159.19 25.1633 158.891 26.9029ZM56.2142 13.6781L27.121 30.4174L54.1505 10.5384C55.0564 9.87247 56.3419 10.14 56.9037 11.1111C57.424 12.0104 57.1154 13.1595 56.213 13.6793L56.2142 13.6781ZM60.3712 28.1663C59.9809 27.4921 59.1164 27.2623 58.4399 27.6512L39.1793 38.7322L59.6924 30.1699C60.4776 29.8422 60.7958 28.9017 60.37 28.1663H60.3712ZM70.089 13.3115C69.2742 11.9055 67.4399 11.4706 66.0775 12.3604L24 39.8294L68.9099 17.2492C70.3646 16.5173 70.9039 14.7176 70.089 13.3115Z" fill="white"/>
</svg>
