<svg width="206" height="40" viewBox="0 0 206 40" fill="none" xmlns="http://www.w3.org/2000/svg">
<path d="M90.4358 38.9605C86.7178 38.9605 83.5262 38.126 80.8577 36.457C78.1893 34.788 76.1381 32.542 74.7026 29.7174C73.267 26.8944 72.5493 23.7583 72.5493 20.3106C72.5493 16.8629 73.2846 13.7284 74.7568 10.9038C76.229 8.0808 78.3169 5.83321 81.022 4.16421C83.7272 2.49522 86.9013 1.66072 90.5443 1.66072C94.4824 1.66072 97.8958 2.62397 100.784 4.54888C103.673 6.47379 105.799 8.9598 107.16 12.0037H102.633C101.529 10.0598 99.9916 8.5195 98.0234 7.383C96.0535 6.24649 93.6705 5.67744 90.8745 5.67744C87.9301 5.67744 85.3908 6.32914 83.2567 7.63096C81.1225 8.93278 79.4924 10.6844 78.3711 12.8843C77.2482 15.0842 76.6868 17.5607 76.6868 20.3106C76.6868 23.0605 77.2386 25.4908 78.3424 27.7098C79.4462 29.9288 81.0555 31.69 83.1721 32.9918C85.2887 34.2936 87.8184 34.9453 90.7628 34.9453C92.9703 34.9453 95.0598 34.4685 97.0281 33.5148C98.9963 32.561 100.598 31.1861 101.831 29.3884C103.064 27.5922 103.681 25.4273 103.681 22.8967H90.321V19.155H107.49V38.5202H103.681V32.0842C102.907 33.2588 101.914 34.3667 100.7 35.4126C99.4844 36.4585 98.0218 37.3105 96.3103 37.9702C94.5988 38.6298 92.6386 38.9605 90.4311 38.9605H90.4358ZM125.279 38.9605C122.591 38.9605 120.247 38.3278 118.24 37.0626C116.234 35.7973 114.68 34.0838 113.576 31.9189C112.473 29.7555 111.921 27.3712 111.921 24.7676C111.921 22.164 112.473 19.7336 113.576 17.5877C114.68 15.4419 116.235 13.7363 118.24 12.4711C120.245 11.2058 122.591 10.5732 125.279 10.5732C127.56 10.5732 129.52 11.0135 131.158 11.8941C132.795 12.7747 134.13 13.9668 135.16 15.4705V11.0151H139.301V38.5217H135.16V34.1204C134.13 35.5875 132.795 36.7606 131.158 37.6412C129.52 38.5217 127.56 38.962 125.279 38.962V38.9605ZM125.831 35.2187C127.892 35.2187 129.63 34.7419 131.048 33.7881C132.465 32.8344 133.541 31.5596 134.278 29.9653C135.013 28.3695 135.382 26.6369 135.382 24.766C135.382 22.8952 135.013 21.1165 134.278 19.5397C133.541 17.9629 132.465 16.6976 131.048 15.7439C129.63 14.7902 127.892 14.3133 125.831 14.3133C123.77 14.3133 122.059 14.7902 120.587 15.7439C119.114 16.6976 117.991 17.9629 117.219 19.5397C116.446 21.1165 116.06 22.8586 116.06 24.766C116.06 26.6734 116.446 28.3695 117.219 29.9653C117.993 31.5612 119.114 32.836 120.587 33.7881C122.057 34.7419 123.807 35.2187 125.831 35.2187ZM145.284 38.5202V0.0107859H149.424V38.5202H145.284ZM152.272 38.5202L162.926 24.3273L152.935 11.0135H158.235L165.357 21.4105L172.423 11.0135H177.722L167.731 24.3273L178.44 38.5202H173.139L165.356 27.2981L157.516 38.5202H152.272ZM192.157 38.9605C189.359 38.9605 186.912 38.3278 184.815 37.0626C182.717 35.7973 181.089 34.0838 179.929 31.9189C178.77 29.7555 178.191 27.3712 178.191 24.7676C178.191 22.164 178.743 19.7336 179.846 17.5877C180.95 15.4419 182.532 13.7363 184.593 12.4711C186.654 11.2058 189.083 10.5732 191.881 10.5732C194.678 10.5732 197.152 11.2058 199.196 12.4711C201.239 13.7363 202.811 15.4419 203.915 17.5877C205.019 19.7336 205.571 22.1258 205.571 24.7676V26.4175H182.44C182.66 28.0325 183.185 29.5076 184.014 30.8459C184.842 32.1859 185.955 33.2493 187.354 34.0361C188.753 34.8245 190.372 35.2187 192.213 35.2187C194.163 35.2187 195.801 34.788 197.125 33.9264C198.451 33.0649 199.479 31.9554 200.216 30.598H204.743C203.786 33.0554 202.268 35.0629 200.189 36.6223C198.109 38.1816 195.433 38.9605 192.157 38.9605ZM182.496 22.5661H201.264C200.896 20.22 199.902 18.2569 198.283 16.6801C196.663 15.1033 194.528 14.3149 191.879 14.3149C189.23 14.3149 187.104 15.1033 185.504 16.6801C183.902 18.2569 182.899 20.22 182.496 22.5661ZM44.0176 4.73008L4.78006 27.3061L41.2343 0.49559C42.456 -0.402489 44.1898 -0.0416682 44.9475 1.2681C45.6493 2.48091 45.233 4.03069 44.016 4.73167L44.0176 4.73008ZM49.6241 24.2701C49.0977 23.3609 47.9317 23.0509 47.0194 23.5755L21.0429 38.5202L48.7085 26.9723C49.7676 26.5304 50.1967 25.262 49.6225 24.2701H49.6241ZM62.7303 4.23574C61.6314 2.33944 59.1575 1.75291 57.32 2.953L0.570801 40L61.1401 9.54633C63.102 8.55924 63.8293 6.13204 62.7303 4.23574Z" fill="white"/>
</svg>
