<svg width="200" height="50" viewBox="0 0 200 50" fill="none" xmlns="http://www.w3.org/2000/svg">
<path d="M32.0954 15.9268V20.7269H30.534V15.9268H28.9725V20.7269H27.411V15.9268H25.8496V20.7269H18.0422V15.9268H16.4807V20.7269V22.3269H32.0954V23.9269H30.534H28.9725H14.9193V15.9268H13.3578V23.9269H11.7963V15.9268H10.2349V23.9269V25.527V33.5271H11.7963V28.727H13.3578V33.5271H14.9193V28.727H16.4807V33.5271H18.0422V28.727H25.8496V33.5271H27.411V28.727V27.127H14.9193H13.3578H11.7963V25.527H13.3578H14.9193H28.9725V33.5271H30.534V25.527H32.0954V33.5271H33.6569V25.527V23.9269V22.3269V20.7269V15.9268H32.0954Z" fill="white"/>
<path d="M138.031 26.9399H133.718V32.8288H138.031V26.9399Z" fill="white"/>
<path d="M56.1124 16.6294V22.5183H43.1786V16.6294H38.8652V32.8271H43.1786V26.9382H56.1124V32.8271H60.4258V16.6294H56.1124Z" fill="white"/>
<path d="M138.01 16.6294H133.703V22.5183H120.769V16.6294H116.456V32.8271H120.769V26.9382H133.703L138.01 22.5183V16.6294Z" fill="white"/>
<path d="M83.421 16.6294H64.7402V32.8271H69.0536V26.9382H81.9874V32.8271H86.3008V16.6294H83.4273H83.421ZM69.0473 22.5183V21.0429H81.9811V22.5183H69.0473Z" fill="white"/>
<path d="M112.149 21.0429V16.6294H94.9018H93.4682H90.5947V32.8271H93.4682H94.9018H112.149V28.4072H94.9018V21.0429H112.149Z" fill="white"/>
<path d="M163.892 21.0429V16.6294H146.644H145.205H142.331V32.8271H145.205H146.644H163.892V28.4072H146.644V26.9382H163.892V22.5183H146.644V21.0429H163.892Z" fill="white"/>
<path d="M185.451 16.6294V26.9382L172.517 16.6294H168.204V32.8271H172.517V22.5183L185.451 32.8271H189.765V16.6294H185.451Z" fill="white"/>
</svg>
