<svg width="300" height="40" viewBox="0 0 300 40" fill="none" xmlns="http://www.w3.org/2000/svg">
<path d="M36.8917 4.87891V12.8789H34.2893V4.87891H31.6869V12.8789H29.0845V4.87891H26.4821V12.8789H13.4701V4.87891H10.8676V12.8789V15.5456H36.8917V18.2122H34.2893H31.6869H8.26523V4.87891H5.66283V18.2122H3.06042V4.87891H0.458008V18.2122V20.8789V34.2122H3.06042V26.2122H5.66283V34.2122H8.26523V26.2122H10.8676V34.2122H13.4701V26.2122H26.4821V34.2122H29.0845V26.2122V23.5456H8.26523H5.66283H3.06042V20.8789H5.66283H8.26523H31.6869V34.2122H34.2893V20.8789H36.8917V34.2122H39.4941V20.8789V18.2122V15.5456V12.8789V4.87891H36.8917Z" fill="white"/>
<path d="M213.449 23.2329H206.26V33.0475H213.449V23.2329Z" fill="white"/>
<path d="M76.9192 6.0498V15.8644H55.3631V6.0498H48.1743V33.0454H55.3631V23.2308H76.9192V33.0454H84.108V6.0498H76.9192Z" fill="white"/>
<path d="M213.414 6.0498H206.236V15.8644H184.68V6.0498H177.491V33.0454H184.68V23.2308H206.236L213.414 15.8644V6.0498Z" fill="white"/>
<path d="M122.433 6.0498H91.2988V33.0454H98.4877V23.2308H120.044V33.0454H127.233V6.0498H122.443H122.433ZM98.4772 15.8644V13.4054H120.033V15.8644H98.4772Z" fill="white"/>
<path d="M170.312 13.4054V6.0498H141.568H139.178H134.389V33.0454H139.178H141.568H170.312V25.679H141.568V13.4054H170.312Z" fill="white"/>
<path d="M256.549 13.4054V6.0498H227.805H225.405H220.616V33.0454H225.405H227.805H256.549V25.679H227.805V23.2308H256.549V15.8644H227.805V13.4054H256.549Z" fill="white"/>
<path d="M292.482 6.0498V23.2308L270.926 6.0498H263.737V33.0454H270.926V15.8644L292.482 33.0454H299.67V6.0498H292.482Z" fill="white"/>
</svg>
