<svg width="200" height="50" viewBox="0 0 200 50" fill="none" xmlns="http://www.w3.org/2000/svg">
<path d="M170.983 15.7358H166.594L162.492 34.2641H166.881L170.983 15.7358Z" fill="white"/>
<path d="M190 15.7358H185.611L181.509 34.2641H185.898L190 15.7358Z" fill="white"/>
<path d="M175.375 15.7358L181.514 34.2641H177.125L170.986 15.7358H175.375Z" fill="white"/>
<path d="M66.8151 29.8758L69.9455 15.7363H65.5567L61.4546 34.2646H84.8624L85.8338 29.8758H66.8151Z" fill="white"/>
<path d="M90.815 15.7363L86.7129 34.2646H103.04C106.95 34.2646 110.822 31.0944 111.688 27.184L108.271 22.7952H112.66C113.523 18.8968 111.062 15.7367 107.164 15.7367H90.815V15.7363ZM104.034 29.8758H92.0737L92.6696 27.184H107.299L107.295 27.2061C106.968 28.6805 105.508 29.8758 104.034 29.8758ZM108.271 22.7952H93.6413L94.2324 20.1255H106.193C107.667 20.1255 108.597 21.3208 108.271 22.7952Z" fill="white"/>
<path d="M160.646 34.2643L162.213 27.1836L158.796 22.7949H163.185C164.048 18.8964 161.587 15.7363 157.689 15.7363H141.34L137.238 34.2643H141.627L143.195 27.1836H157.825L156.257 34.2643H160.646ZM158.796 22.7949H144.166L144.757 20.1251H156.718C158.192 20.1251 159.123 21.3204 158.796 22.7949Z" fill="white"/>
<path d="M116.073 15.7363L111.971 34.2646H135.378L139.48 15.7363H116.073ZM131.961 29.8758H117.331L119.49 20.1255H134.12L131.961 29.8758Z" fill="white"/>
<path d="M51.5365 15.7363H46.682L35.2651 34.2646H39.6539L51.5365 15.7363H56.3907L59.6037 34.2646H55.2149L51.5365 15.7363Z" fill="white"/>
<path d="M33.1208 15.7363L31.5558 22.8061H16.9259L18.4909 15.7363H14.1021L10 34.2646H14.3892L16.9259 22.8061L20.343 27.1952H30.5841L29.0187 34.2646H33.4078L37.5096 15.7363H33.1208Z" fill="white"/>
</svg>
