<svg width="234" height="26" viewBox="0 0 234 26" fill="none" xmlns="http://www.w3.org/2000/svg">
<path d="M209.154 0.971191H203.456L198.13 25.0282H203.829L209.154 0.971191Z" fill="white"/>
<path d="M233.846 0.971191H228.147L222.822 25.0282H228.52L233.846 0.971191Z" fill="white"/>
<path d="M214.857 0.971191L222.828 25.0282H217.129L209.158 0.971191H214.857Z" fill="white"/>
<path d="M73.9039 19.3306L77.9684 0.971924H72.27L66.9438 25.029H97.3364L98.5976 19.3306H73.9039Z" fill="white"/>
<path d="M105.065 0.971924L99.7388 25.029H120.937C126.015 25.029 131.042 20.9127 132.166 15.8355L127.729 10.1371H133.428C134.548 5.07547 131.353 0.972394 126.292 0.972394H105.065V0.971924ZM122.228 19.3306H106.699L107.473 15.8355H126.468L126.462 15.8642C126.038 17.7786 124.143 19.3306 122.228 19.3306ZM127.73 10.1371H108.735L109.502 6.67077H125.031C126.945 6.67077 128.153 8.22278 127.73 10.1371Z" fill="white"/>
<path d="M195.733 25.0285L197.768 15.8351L193.332 10.1367H199.03C200.15 5.075 196.956 0.971924 191.894 0.971924H170.666L165.341 25.0285H171.039L173.075 15.8351H192.07L190.035 25.0285H195.733ZM193.332 10.1367H174.336L175.104 6.6703H190.633C192.547 6.6703 193.756 8.22231 193.332 10.1367Z" fill="white"/>
<path d="M137.86 0.971924L132.534 25.029H162.926L168.252 0.971924H137.86ZM158.489 19.3306H139.494L142.297 6.67077H161.292L158.489 19.3306Z" fill="white"/>
<path d="M54.0661 0.971924H47.763L32.9395 25.029H38.6378L54.0661 0.971924H60.3688L64.5405 25.029H58.8422L54.0661 0.971924Z" fill="white"/>
<path d="M30.1552 0.971924L28.1231 10.1513H9.12777L11.1598 0.971924H5.4614L0.135254 25.029H5.8341L9.12777 10.1513L13.5645 15.8501H26.8615L24.829 25.029H30.5279L35.8535 0.971924H30.1552Z" fill="white"/>
</svg>
