<svg width="291" height="40" viewBox="0 0 291 40" fill="none" xmlns="http://www.w3.org/2000/svg">
<g clip-path="url(#clip0_3016_11378)">
<mask id="mask0_3016_11378" style="mask-type:luminance" maskUnits="userSpaceOnUse" x="0" y="0" width="291" height="40">
<path d="M290.45 0L0.845703 0L0.85777 39.964H290.462L290.45 0Z" fill="white"/>
</mask>
<g mask="url(#mask0_3016_11378)">
<path d="M250.926 39.9663C250.014 39.8063 249.098 39.6863 248.21 39.4023C245.585 38.5703 243.349 37.2063 241.908 34.7783C241.44 33.9863 241.168 33.1223 241.032 32.2143C240.975 31.8503 241.087 31.6863 241.483 31.6943C242.603 31.7103 243.723 31.6983 244.843 31.7023C245.035 31.7023 245.227 31.6943 245.299 31.9463C245.744 33.5743 246.972 34.4543 248.432 35.0063C251.577 36.1943 254.685 36.1063 257.68 34.4783C258.188 34.2023 258.624 33.8223 258.996 33.3783C259.484 32.7983 259.78 32.1463 259.751 31.3663C259.731 30.8423 259.751 30.3143 259.743 29.7863C259.743 29.6663 259.791 29.5063 259.639 29.4463C259.523 29.4023 259.439 29.5223 259.351 29.5863C257.975 30.5863 256.451 31.2583 254.779 31.5983C248.192 32.9263 241.886 28.3463 241.092 21.8223C240.335 15.6023 244.553 9.99033 250.725 9.04633C253.816 8.57433 256.661 9.27033 259.229 11.0663C259.365 11.1583 259.489 11.3903 259.665 11.2783C259.817 11.1823 259.729 10.9543 259.733 10.7823C259.741 10.3503 259.753 9.91833 259.733 9.49033C259.713 9.07833 259.833 8.88633 260.301 8.89833C261.357 8.93033 262.413 8.92633 263.464 8.89833C263.896 8.88633 264.009 9.04633 264.005 9.45433C263.989 11.7383 263.998 14.0183 263.999 16.3023C264 21.1383 263.958 25.9743 264.019 30.8103C264.056 33.7623 262.765 35.9543 260.449 37.6303C258.662 38.9223 256.63 39.6023 254.458 39.9023C254.334 39.9183 254.21 39.9503 254.086 39.9743H250.918L250.926 39.9663ZM259.744 20.3863C259.743 16.3383 256.558 13.1543 252.506 13.1543C248.474 13.1543 245.279 16.3223 245.264 20.3383C245.249 24.3223 248.482 27.5783 252.462 27.5863C256.518 27.5903 259.741 24.4023 259.744 20.3903L259.744 20.3863Z" fill="white"/>
<path d="M77.6041 39.9683C77.596 39.7603 77.588 39.5523 77.5839 39.3483C77.5809 29.4843 77.5779 19.6243 77.575 9.76026C77.5748 9.19494 77.8655 8.91226 78.4467 8.91226C79.4067 8.91226 80.3667 8.92426 81.3267 8.90826C81.7227 8.90026 81.8667 9.04426 81.8549 9.43626C81.8311 10.0723 81.8512 10.7123 81.8515 11.4523C84.5908 9.37226 87.6066 8.52426 90.9387 9.05626C94.2909 9.59226 96.9194 11.3203 98.7843 14.1443C101.682 18.5403 101.087 24.4923 97.5165 28.2443C93.8577 32.0883 87.2541 33.4083 81.9329 29.3763C81.7889 29.5243 81.861 29.7083 81.861 29.8683C81.858 33.0123 81.8629 36.1563 81.8599 39.3003C81.8599 39.5243 81.844 39.7443 81.8321 39.9683H77.6081H77.6041ZM89.12 13.1563C85.108 13.1523 81.849 16.3643 81.8462 20.3323C81.8434 24.3203 85.0843 27.5803 89.0563 27.5883C93.1003 27.5923 96.3714 24.3803 96.3742 20.4003C96.377 16.3843 93.148 13.1643 89.116 13.1563H89.12Z" fill="white"/>
<path d="M104.667 39.968C104.655 39.76 104.635 39.556 104.635 39.348C104.632 29.452 104.629 19.556 104.626 9.66402C104.626 9.1627 104.881 8.91202 105.39 8.91202C106.35 8.91202 107.31 8.92802 108.27 8.90402C108.678 8.89602 108.85 9.01602 108.83 9.44802C108.798 10.084 108.823 10.72 108.823 11.452C112.19 8.96402 115.83 8.23602 119.778 9.50402C122.298 10.312 124.283 11.88 125.752 14.084C128.625 18.404 128.123 24.204 124.692 28.056C121.533 31.604 114.717 33.78 108.904 29.368C108.768 29.52 108.836 29.704 108.836 29.868C108.833 33.028 108.838 36.188 108.835 39.348C108.835 39.556 108.815 39.76 108.803 39.968H104.675H104.667ZM116.107 13.156C112.431 13.096 108.836 16.016 108.853 20.392C108.871 24.696 112.376 27.588 116.12 27.584C120.296 27.58 123.435 24.092 123.369 20.284C123.304 16.328 120.119 13.148 116.107 13.152L116.107 13.156Z" fill="white"/>
<path d="M290.458 21.7706C290.343 22.2399 290.03 22.4746 289.518 22.4746C283.906 22.4746 278.29 22.4746 272.678 22.4746C272.066 22.4746 272.062 22.4746 272.294 23.0426C274.376 28.1746 281.176 29.1906 284.671 24.8786C284.999 24.4746 285.323 24.3066 285.835 24.3226C286.971 24.3586 288.107 24.3306 289.243 24.3346C289.775 24.3346 289.823 24.3986 289.595 24.8786C287.664 28.9626 284.477 31.3186 279.949 31.7546C274.697 32.2626 269.944 28.9546 268.195 24.3026C265.717 17.7106 270.007 10.2346 276.97 9.08656C283.33 8.03456 289.111 12.0106 290.349 18.2826C290.389 18.4866 290.429 18.6866 290.465 18.8906L290.466 21.7626L290.458 21.7706ZM278.977 18.2226C281.085 18.2226 283.193 18.2226 285.301 18.2226C285.917 18.2226 285.937 18.1906 285.697 17.6066C284.576 14.8906 281.935 13.1426 278.963 13.1546C275.971 13.1666 273.324 14.9506 272.241 17.6906C272.041 18.1986 272.053 18.2226 272.605 18.2226C274.729 18.2226 276.853 18.2226 278.977 18.2226Z" fill="white"/>
<path d="M134.513 39.9685C134.657 39.1925 135.041 38.5045 135.325 37.7845C136.072 35.9005 136.844 34.0285 137.615 32.1565C137.747 31.8365 137.747 31.5605 137.615 31.2405C134.697 24.0885 131.786 16.9365 128.876 9.78446C128.492 8.84046 128.448 8.91246 129.464 8.91246C130.52 8.91246 131.576 8.92846 132.628 8.90446C133.016 8.89646 133.196 9.04846 133.332 9.39246C135.486 14.7325 137.651 20.0725 139.813 25.4125C139.877 25.5725 139.949 25.7285 140.025 25.8965C140.257 25.8165 140.253 25.6125 140.313 25.4645C142.463 20.1725 144.618 14.8845 146.744 9.58446C146.948 9.07246 147.196 8.87646 147.756 8.90446C148.84 8.95246 149.928 8.91646 151.016 8.92046C151.592 8.92046 151.62 8.96446 151.412 9.47646C147.955 17.9885 144.497 26.5045 141.04 35.0165C140.368 36.6725 139.689 38.3245 139.013 39.9765H134.501L134.513 39.9685Z" fill="white"/>
<path d="M0.510369 15.922C0.508837 10.846 0.507304 5.77001 0.505771 0.69401C0.505562 0.00201144 0.505562 0.00201148 1.18556 0.00201148C2.91356 0.00201148 4.64157 0.0180115 6.36556 -0.00998854C6.86155 -0.0179885 6.98961 0.154011 6.98575 0.62601C6.97089 4.41001 6.98003 8.19001 6.98118 11.974C6.98131 12.422 7.21338 12.6473 7.67738 12.65C17.7854 12.65 27.8934 12.65 38.0014 12.65C38.4867 12.65 38.7293 12.4007 38.7292 11.902C38.728 8.16601 38.7269 4.43401 38.7258 0.69801C38.7256 0.00201144 38.7256 0.00201148 39.4136 0.00201148C41.1736 0.00201148 42.9336 0.0140115 44.6896 -0.00598854C45.1416 -0.00998854 45.2656 0.154011 45.2617 0.57801C45.2568 10.81 45.2599 21.038 45.271 31.27C45.2711 31.722 45.1032 31.846 44.6792 31.842C42.9032 31.826 41.1272 31.838 39.3552 31.834C38.7832 31.834 38.7352 31.786 38.735 31.198C38.7338 27.398 38.7327 23.602 38.7315 19.802C38.7313 19.114 38.7313 19.114 38.0433 19.114C27.9193 19.114 17.7953 19.114 7.67133 19.114C7.21533 19.114 6.98608 19.3407 6.98354 19.794C6.98468 23.578 6.98582 27.358 6.98696 31.142C6.98717 31.834 6.98717 31.834 6.29117 31.834C4.57917 31.834 2.86718 31.834 1.15517 31.834C0.519174 31.834 0.507171 31.822 0.506981 31.194C0.505443 26.102 0.503906 21.01 0.502368 15.918L0.510369 15.922Z" fill="white"/>
<path d="M155.586 15.9048C155.584 10.8328 155.583 5.75682 155.581 0.684828C155.581 -0.00317383 155.581 -0.00317383 156.257 -0.00317383C160.189 -0.00317383 164.121 -0.00317383 168.057 -0.00317383C172.425 0.000826173 176.346 3.61283 176.771 7.95682C177.028 10.5808 176.301 12.8728 174.606 14.8688C174.346 15.1768 174.494 15.2808 174.734 15.4488C176.814 16.9248 178.091 18.9088 178.512 21.4328C179.129 25.1408 177.206 28.9928 173.866 30.7528C172.479 31.4848 171.011 31.8448 169.447 31.8448C165.067 31.8448 160.687 31.8448 156.307 31.8448C155.599 31.8448 155.599 31.8448 155.598 31.1288C155.597 26.0568 155.595 20.9808 155.594 15.9088L155.586 15.9048ZM165.097 27.5808C166.617 27.5808 168.133 27.5888 169.653 27.5808C172.633 27.5648 174.924 24.6568 174.248 21.7648C173.711 19.4808 171.786 17.9808 169.35 17.9768C166.378 17.9688 163.406 17.9808 160.434 17.9648C160.002 17.9648 159.851 18.0768 159.855 18.5248C159.872 21.3648 159.872 24.2008 159.857 27.0408C159.857 27.4528 159.973 27.5968 160.401 27.5928C161.965 27.5728 163.533 27.5848 165.101 27.5848L165.097 27.5808ZM159.86 8.94882C159.86 10.3688 159.877 11.7888 159.853 13.2048C159.845 13.6688 159.993 13.8048 160.453 13.8008C162.865 13.7808 165.277 13.7928 167.689 13.7888C167.957 13.7888 168.229 13.7568 168.497 13.7128C171.017 13.3088 172.78 11.0808 172.572 8.56882C172.371 6.14082 170.246 4.19682 167.758 4.18482C165.298 4.17282 162.838 4.18882 160.378 4.17282C159.982 4.17282 159.85 4.29682 159.854 4.69282C159.871 6.11282 159.863 7.52882 159.864 8.94882H159.86Z" fill="white"/>
<path d="M232.938 11.4647C232.938 11.1927 232.937 11.0207 232.937 10.8487C232.937 8.48871 232.948 6.12471 232.927 3.76471C232.927 3.30471 233.071 3.15271 233.531 3.16471C234.571 3.19271 235.611 3.18871 236.651 3.16471C237.075 3.15671 237.211 3.32071 237.203 3.72871C237.184 4.68471 237.2 5.64471 237.2 6.60071C237.203 14.7087 237.205 22.8127 237.207 30.9207C237.208 31.0967 237.208 31.2727 237.2 31.4487C237.2 31.7047 237.06 31.8247 236.808 31.8247C235.64 31.8247 234.472 31.8247 233.308 31.8247C233.048 31.8247 232.944 31.6887 232.948 31.4327C232.955 30.8567 232.947 30.2847 232.947 29.7087C232.947 29.6007 232.955 29.4447 232.895 29.3967C232.763 29.2967 232.671 29.4567 232.575 29.5287C231.027 30.6687 229.316 31.3887 227.412 31.6847C222.84 32.3927 218.275 30.2967 215.834 26.3407C211.532 19.3647 215.845 10.1687 223.969 9.02871C227.105 8.58871 229.965 9.32071 232.534 11.1767C232.638 11.2527 232.738 11.3247 232.942 11.4687L232.938 11.4647ZM225.69 13.1527C221.726 13.1287 218.479 16.2927 218.392 20.1527C218.301 24.1407 221.466 27.4887 225.47 27.5807C229.362 27.6727 232.91 24.7007 232.912 20.3767C232.915 15.9127 229.25 13.1047 225.69 13.1527Z" fill="white"/>
<path d="M69.1165 11.3735C69.1163 10.7015 69.1281 10.0335 69.1119 9.36949C69.1038 9.02149 69.2278 8.88949 69.5838 8.89349C70.6398 8.90949 71.6958 8.91749 72.7518 8.89349C73.1958 8.88149 73.3238 9.02949 73.3239 9.46549C73.3132 13.7415 73.3185 18.0175 73.3198 22.2975C73.3207 25.2655 73.3096 28.2335 73.3305 31.2015C73.3306 31.6815 73.1907 31.8495 72.7067 31.8375C71.7147 31.8095 70.7227 31.8095 69.7347 31.8375C69.2387 31.8535 69.0826 31.6695 69.1185 31.1935C69.1544 30.7175 69.1302 30.2375 69.1181 29.7575C69.118 29.6255 69.198 29.4375 69.0339 29.3695C68.9099 29.3215 68.814 29.4695 68.714 29.5455C67.2903 30.6015 65.7065 31.2855 63.9706 31.6255C57.743 32.8375 51.5977 28.6215 50.4998 22.3855C49.3739 15.9815 53.7241 9.93349 60.1358 9.02549C63.2557 8.58149 66.0999 9.30949 68.6644 11.1375C68.7885 11.2255 68.8885 11.3655 69.1165 11.3735ZM61.853 13.1535C57.869 13.1375 54.646 16.3175 54.5752 20.2175C54.5044 24.1095 57.6254 27.4935 61.6694 27.5815C65.4894 27.6655 69.0886 24.7655 69.0912 20.3615C69.0979 15.9615 65.469 13.1015 61.853 13.1535Z" fill="white"/>
<path d="M182.752 20.366C182.751 16.762 182.749 13.154 182.748 9.55003C182.748 8.91003 182.748 8.91003 183.384 8.90603C184.424 8.90603 185.464 8.91803 186.5 8.89803C186.872 8.89003 187.024 9.03003 187.012 9.39803C186.997 9.91003 187.005 10.418 187.013 10.93C187.013 11.05 186.957 11.21 187.089 11.282C187.229 11.358 187.317 11.206 187.413 11.134C188.897 10.046 190.54 9.33403 192.356 9.05403C196.064 8.49003 199.308 9.49403 202.113 11.97C202.381 12.206 202.329 12.374 202.101 12.594C201.286 13.378 200.474 14.17 199.674 14.974C199.458 15.19 199.298 15.19 199.07 14.986C197.546 13.638 195.757 13.078 193.73 13.166C190.294 13.314 187.118 16.39 187.048 19.818C186.973 23.47 187.026 27.122 187.023 30.778C187.023 30.954 187.011 31.13 187.023 31.306C187.063 31.734 186.855 31.854 186.451 31.846C185.427 31.826 184.403 31.818 183.383 31.846C182.907 31.858 182.747 31.714 182.751 31.226C182.77 27.606 182.761 23.982 182.76 20.362L182.752 20.366Z" fill="white"/>
<path d="M210.159 21.1932C210.16 24.5292 210.161 27.8652 210.162 31.2012C210.163 31.8332 210.151 31.8412 209.519 31.8452C208.527 31.8452 207.535 31.8452 206.543 31.8452C205.911 31.8452 205.895 31.8292 205.894 31.2012C205.893 26.7652 205.892 22.3292 205.89 17.8932C205.89 15.6572 205.889 13.4252 205.888 11.1892C205.888 10.5332 205.888 10.5332 206.56 10.5332C207.552 10.5332 208.544 10.5572 209.536 10.5212C210.016 10.5052 210.168 10.6532 210.168 11.1412C210.149 14.4932 210.162 17.8452 210.163 21.1972L210.159 21.1932Z" fill="white"/>
<path d="M208.038 7.43111C207.478 7.43111 206.918 7.42311 206.362 7.43111C206.05 7.43911 205.882 7.33911 205.885 6.99911C205.893 5.86711 205.893 4.73511 205.884 3.60311C205.884 3.28711 206.036 3.18311 206.328 3.18311C207.464 3.18311 208.596 3.18311 209.732 3.18311C210.032 3.18311 210.16 3.31111 210.157 3.61911C210.149 4.75111 210.149 5.88311 210.158 7.01511C210.158 7.33111 210.014 7.43511 209.718 7.43111C209.158 7.42311 208.598 7.43111 208.042 7.43111H208.038Z" fill="white"/>
</g>
</g>
<defs>
<clipPath id="clip0_3016_11378">
<rect width="289.6" height="40" fill="white" transform="matrix(1 0 0.000301956 1 0.845703 0)"/>
</clipPath>
</defs>
</svg>
