<svg width="254" height="36" viewBox="0 0 254 36" fill="none" xmlns="http://www.w3.org/2000/svg">
<g clip-path="url(#clip0_572_71279)">
<mask id="mask0_572_71279" style="mask-type:luminance" maskUnits="userSpaceOnUse" x="0" y="0" width="254" height="36">
<path d="M253.576 0.152344L0.172363 0.152344L0.172363 35.1208H253.576V0.152344Z" fill="white"/>
</mask>
<g mask="url(#mask0_572_71279)">
<path d="M218.981 35.1225C218.183 34.9825 217.381 34.8775 216.604 34.629C214.308 33.901 212.352 32.7075 211.092 30.583C210.682 29.89 210.444 29.134 210.325 28.3395C210.276 28.021 210.374 27.8775 210.721 27.8845C211.701 27.8985 212.681 27.888 213.661 27.8915C213.829 27.8915 213.997 27.8845 214.06 28.105C214.448 29.5295 215.523 30.2995 216.8 30.7825C219.551 31.822 222.271 31.745 224.892 30.3205C225.337 30.079 225.718 29.7465 226.044 29.358C226.471 28.8505 226.73 28.28 226.705 27.5975C226.688 27.139 226.705 26.677 226.698 26.215C226.698 26.11 226.74 25.97 226.607 25.9175C226.506 25.879 226.432 25.984 226.355 26.04C225.151 26.915 223.818 27.503 222.355 27.8005C216.59 28.9625 211.074 24.955 210.381 19.2465C209.72 13.804 213.412 8.89355 218.813 8.06755C221.518 7.65455 224.007 8.26355 226.254 9.83505C226.373 9.91555 226.481 10.1185 226.635 10.0205C226.768 9.93655 226.691 9.73705 226.695 9.58655C226.702 9.20855 226.712 8.83055 226.695 8.45605C226.677 8.09555 226.782 7.92755 227.192 7.93805C228.116 7.96605 229.04 7.96255 229.96 7.93805C230.338 7.92755 230.436 8.06755 230.433 8.42455C230.419 10.423 230.426 12.418 230.426 14.4165C230.426 18.648 230.387 22.8795 230.44 27.111C230.471 29.694 229.341 31.612 227.314 33.0785C225.75 34.209 223.972 34.804 222.071 35.0665C221.963 35.0805 221.854 35.1085 221.746 35.1295H218.974L218.981 35.1225ZM226.702 17.99C226.702 14.448 223.916 11.662 220.37 11.662C216.842 11.662 214.046 14.434 214.032 17.948C214.018 21.434 216.846 24.283 220.328 24.29C223.877 24.2935 226.698 21.504 226.702 17.9935V17.99Z" fill="white"/>
<path d="M67.3273 35.123C67.3203 34.941 67.3133 34.759 67.3098 34.5805C67.3098 25.9495 67.3098 17.322 67.3098 8.69099C67.3098 8.19633 67.5643 7.94899 68.0728 7.94899C68.9128 7.94899 69.7528 7.95949 70.5928 7.94549C70.9393 7.93849 71.0653 8.06449 71.0548 8.40749C71.0338 8.96399 71.0513 9.52399 71.0513 10.1715C73.4488 8.35149 76.0878 7.60949 79.0033 8.07499C81.9363 8.54399 84.2358 10.056 85.8668 12.527C88.4008 16.3735 87.8793 21.5815 84.7538 24.8645C81.5513 28.228 75.7728 29.383 71.1178 25.855C70.9918 25.9845 71.0548 26.1455 71.0548 26.2855C71.0513 29.0365 71.0548 31.7875 71.0513 34.5385C71.0513 34.7345 71.0373 34.927 71.0268 35.123H67.3308H67.3273ZM77.4108 11.6625C73.9003 11.659 71.0478 14.4695 71.0443 17.9415C71.0408 21.431 73.8758 24.2835 77.3513 24.2905C80.8898 24.294 83.7528 21.4835 83.7563 18.001C83.7598 14.487 80.9353 11.6695 77.4073 11.6625H77.4108Z" fill="white"/>
<path d="M91.008 35.1211C90.9975 34.9391 90.98 34.7606 90.98 34.5786C90.98 25.9196 90.98 17.2606 90.98 8.60512C90.98 8.16647 91.2029 7.94712 91.6485 7.94712C92.4885 7.94712 93.3285 7.96112 94.1685 7.94012C94.5255 7.93312 94.676 8.03812 94.6585 8.41612C94.6305 8.97262 94.6515 9.52912 94.6515 10.1696C97.5985 7.99262 100.783 7.35562 104.238 8.46512C106.443 9.17212 108.179 10.5441 109.463 12.4726C111.976 16.2526 111.535 21.3276 108.532 24.6981C105.767 27.8026 99.8035 29.7066 94.718 25.8461C94.599 25.9791 94.6585 26.1401 94.6585 26.2836C94.655 29.0486 94.6585 31.8136 94.655 34.5786C94.655 34.7606 94.6375 34.9391 94.627 35.1211H91.015H91.008ZM101.025 11.6606C97.8085 11.6081 94.662 14.1631 94.676 17.9921C94.69 21.7581 97.756 24.2886 101.032 24.2851C104.686 24.2816 107.433 21.2296 107.377 17.8976C107.321 14.4361 104.535 11.6536 101.025 11.6571V11.6606Z" fill="white"/>
<path d="M253.576 19.2009C253.476 19.6115 253.202 19.8169 252.754 19.8169C247.843 19.8169 242.929 19.8169 238.019 19.8169C237.483 19.8169 237.48 19.8169 237.683 20.3139C239.503 24.8044 245.453 25.6934 248.512 21.9204C248.799 21.5669 249.082 21.4199 249.53 21.4339C250.524 21.4654 251.518 21.4409 252.512 21.4444C252.978 21.4444 253.02 21.5004 252.82 21.9204C251.13 25.4939 248.34 27.5554 244.378 27.9369C239.783 28.3814 235.625 25.4869 234.095 21.4164C231.929 15.6484 235.684 9.10688 241.778 8.10238C247.343 7.18188 252.4 10.6609 253.482 16.1489C253.517 16.3274 253.552 16.5024 253.583 16.6809V19.1939L253.576 19.2009ZM243.531 16.0964C245.376 16.0964 247.22 16.0964 249.065 16.0964C249.604 16.0964 249.621 16.0684 249.411 15.5574C248.431 13.1809 246.121 11.6514 243.521 11.6619C240.903 11.6724 238.586 13.2334 237.637 15.6309C237.462 16.0754 237.473 16.0964 237.956 16.0964C239.814 16.0964 241.673 16.0964 243.531 16.0964Z" fill="white"/>
<path d="M117.123 35.1227C117.249 34.4437 117.585 33.8417 117.834 33.2117C118.488 31.5632 119.164 29.9252 119.839 28.2872C119.955 28.0072 119.955 27.7657 119.839 27.4857C117.288 21.2277 114.743 14.9697 112.199 8.71173C111.863 7.88573 111.824 7.94873 112.713 7.94873C113.637 7.94873 114.561 7.96273 115.482 7.94173C115.821 7.93473 115.979 8.06773 116.098 8.36873C117.981 13.0412 119.874 17.7137 121.764 22.3862C121.82 22.5262 121.883 22.6627 121.95 22.8097C122.153 22.7397 122.149 22.5612 122.202 22.4317C124.085 17.8012 125.971 13.1742 127.833 8.53673C128.012 8.08873 128.229 7.91723 128.719 7.94173C129.667 7.98373 130.619 7.95223 131.571 7.95573C132.075 7.95573 132.1 7.99423 131.918 8.44223C128.89 15.8902 125.863 23.3417 122.835 30.7897C122.247 32.2387 121.652 33.6842 121.061 35.1297H117.113L117.123 35.1227Z" fill="white"/>
<path d="M-0.12508 14.0833C-0.12508 9.64181 -0.12508 5.20031 -0.12508 0.758809C-0.12508 0.15331 -0.12508 0.15331 0.46992 0.15331C1.98192 0.15331 3.49392 0.16731 5.00242 0.14281C5.43642 0.13581 5.54842 0.28631 5.54492 0.699309C5.53092 4.01031 5.53792 7.31781 5.53792 10.6288C5.53792 11.0208 5.74092 11.218 6.14692 11.2203C14.9914 11.2203 23.8359 11.2203 32.6804 11.2203C33.1051 11.2203 33.3174 11.0022 33.3174 10.5658C33.3174 7.29681 33.3174 4.03131 33.3174 0.762309C33.3174 0.15331 33.3174 0.15331 33.9194 0.15331C35.4594 0.15331 36.9994 0.16381 38.5359 0.14631C38.9314 0.14281 39.0399 0.28631 39.0364 0.657309C39.0294 9.61031 39.0294 18.5598 39.0364 27.5128C39.0364 27.9083 38.8894 28.0168 38.5184 28.0133C36.9644 27.9993 35.4104 28.0098 33.8599 28.0063C33.3594 28.0063 33.3174 27.9643 33.3174 27.4498C33.3174 24.1248 33.3174 20.8033 33.3174 17.4783C33.3174 16.8763 33.3174 16.8763 32.7154 16.8763C23.8569 16.8763 14.9984 16.8763 6.13992 16.8763C5.74092 16.8763 5.54026 17.0747 5.53792 17.4713C5.53792 20.7823 5.53792 24.0898 5.53792 27.4008C5.53792 28.0063 5.53792 28.0063 4.92892 28.0063C3.43092 28.0063 1.93292 28.0063 0.43492 28.0063C-0.12158 28.0063 -0.13208 27.9958 -0.13208 27.4463C-0.13208 22.9908 -0.13208 18.5353 -0.13208 14.0798L-0.12508 14.0833Z" fill="white"/>
<path d="M135.567 14.0699C135.567 9.63189 135.567 5.19039 135.567 0.752392C135.567 0.150391 135.567 0.150391 136.158 0.150391C139.599 0.150391 143.039 0.150391 146.483 0.150391C150.305 0.153891 153.735 3.31439 154.106 7.11539C154.33 9.41139 153.693 11.4169 152.209 13.1634C151.982 13.4329 152.111 13.5239 152.321 13.6709C154.141 14.9624 155.258 16.6984 155.625 18.9069C156.164 22.1514 154.481 25.5219 151.558 27.0619C150.344 27.7024 149.059 28.0174 147.691 28.0174C143.858 28.0174 140.026 28.0174 136.193 28.0174C135.574 28.0174 135.574 28.0174 135.574 27.3909C135.574 22.9529 135.574 18.5114 135.574 14.0734L135.567 14.0699ZM143.886 24.2864C145.216 24.2864 146.543 24.2934 147.873 24.2864C150.48 24.2724 152.486 21.7279 151.894 19.1974C151.425 17.1989 149.742 15.8864 147.61 15.8829C145.01 15.8759 142.409 15.8864 139.809 15.8724C139.431 15.8724 139.298 15.9704 139.301 16.3624C139.315 18.8474 139.315 21.3289 139.301 23.8139C139.301 24.1744 139.403 24.3004 139.777 24.2969C141.146 24.2794 142.518 24.2899 143.89 24.2899L143.886 24.2864ZM139.308 7.98339C139.308 9.22589 139.322 10.4684 139.301 11.7074C139.294 12.1134 139.424 12.2324 139.826 12.2289C141.937 12.2114 144.047 12.2219 146.158 12.2184C146.392 12.2184 146.63 12.1904 146.865 12.1519C149.07 11.7984 150.613 9.84889 150.431 7.65089C150.256 5.52639 148.398 3.82539 146.221 3.81489C144.068 3.80439 141.916 3.81839 139.763 3.80439C139.417 3.80439 139.301 3.91289 139.305 4.25939C139.319 5.50189 139.312 6.74089 139.312 7.98339H139.308Z" fill="white"/>
<path d="M203.251 10.1849C203.251 9.94694 203.251 9.79644 203.251 9.64594C203.251 7.58094 203.262 5.51244 203.244 3.44745C203.244 3.04495 203.37 2.91195 203.773 2.92245C204.683 2.94695 205.593 2.94345 206.503 2.92245C206.874 2.91545 206.993 3.05895 206.986 3.41595C206.968 4.25245 206.982 5.09244 206.982 5.92894C206.982 13.0234 206.982 20.1144 206.982 27.2089C206.982 27.3629 206.982 27.5169 206.975 27.6709C206.975 27.8949 206.853 27.9999 206.632 27.9999C205.61 27.9999 204.588 27.9999 203.57 27.9999C203.342 27.9999 203.251 27.8809 203.255 27.6569C203.262 27.1529 203.255 26.6524 203.255 26.1484C203.255 26.0539 203.262 25.9174 203.209 25.8754C203.094 25.7879 203.013 25.9279 202.929 25.9909C201.575 26.9884 200.077 27.6184 198.411 27.8774C194.41 28.4969 190.417 26.6629 188.282 23.2014C184.519 17.0974 188.296 9.05094 195.404 8.05344C198.148 7.66844 200.651 8.30894 202.898 9.93294C202.989 9.99944 203.076 10.0624 203.255 10.1884L203.251 10.1849ZM196.909 11.6619C193.441 11.6409 190.599 14.4094 190.522 17.7869C190.441 21.2764 193.21 24.2059 196.713 24.2864C200.119 24.3669 203.223 21.7664 203.227 17.9829C203.23 14.0769 200.024 11.6199 196.909 11.6619Z" fill="white"/>
<path d="M59.908 10.1042C59.908 9.51618 59.9185 8.93168 59.9045 8.35068C59.8975 8.04618 60.006 7.93068 60.3175 7.93418C61.2415 7.94818 62.1655 7.95518 63.0895 7.93418C63.478 7.92368 63.59 8.05318 63.59 8.43468C63.5795 12.1762 63.583 15.9177 63.583 19.6627C63.583 22.2597 63.5725 24.8567 63.59 27.4537C63.59 27.8737 63.4675 28.0207 63.044 28.0102C62.176 27.9857 61.308 27.9857 60.4435 28.0102C60.0095 28.0242 59.873 27.8632 59.9045 27.4467C59.936 27.0302 59.915 26.6102 59.9045 26.1902C59.9045 26.0747 59.9745 25.9102 59.831 25.8507C59.7225 25.8087 59.6385 25.9382 59.551 26.0047C58.305 26.9287 56.919 27.5272 55.4 27.8247C49.9505 28.8852 44.5745 25.1962 43.6155 19.7397C42.632 14.1362 46.44 8.84418 52.0505 8.04968C54.7805 7.66118 57.269 8.29818 59.5125 9.89768C59.621 9.97468 59.7085 10.0972 59.908 10.1042ZM53.552 11.6617C50.066 11.6477 47.245 14.4302 47.182 17.8427C47.119 21.2482 49.849 24.2092 53.3875 24.2862C56.73 24.3597 59.88 21.8222 59.8835 17.9687C59.8905 14.1187 56.716 11.6162 53.552 11.6617Z" fill="white"/>
<path d="M159.333 17.9723C159.333 14.8188 159.333 11.6618 159.333 8.50828C159.333 7.94828 159.333 7.94828 159.889 7.94478C160.799 7.94478 161.709 7.95528 162.616 7.93778C162.941 7.93078 163.074 8.05328 163.064 8.37528C163.05 8.82328 163.057 9.26778 163.064 9.71578C163.064 9.82078 163.015 9.96078 163.13 10.0238C163.253 10.0903 163.33 9.95728 163.414 9.89428C164.712 8.94228 166.151 8.31928 167.74 8.07428C170.984 7.58078 173.823 8.45928 176.276 10.6258C176.511 10.8323 176.465 10.9793 176.266 11.1718C175.552 11.8578 174.841 12.5508 174.141 13.2543C173.952 13.4433 173.812 13.4433 173.613 13.2648C172.279 12.0853 170.715 11.5953 168.94 11.6723C165.934 11.8018 163.155 14.4933 163.092 17.4928C163.025 20.6883 163.071 23.8838 163.067 27.0828C163.067 27.2368 163.057 27.3908 163.067 27.5448C163.102 27.9193 162.92 28.0243 162.567 28.0173C161.671 27.9998 160.775 27.9928 159.882 28.0173C159.466 28.0278 159.326 27.9018 159.329 27.4748C159.347 24.3073 159.34 21.1363 159.34 17.9688L159.333 17.9723Z" fill="white"/>
<path d="M183.315 18.6964C183.315 21.6154 183.315 24.5344 183.315 27.4534C183.315 28.0064 183.305 28.0134 182.752 28.0169C181.884 28.0169 181.016 28.0169 180.148 28.0169C179.595 28.0169 179.581 28.0029 179.581 27.4534C179.581 23.5719 179.581 19.6904 179.581 15.8089C179.581 13.8524 179.581 11.8994 179.581 9.94293C179.581 9.36893 179.581 9.36893 180.169 9.36893C181.037 9.36893 181.905 9.38993 182.773 9.35843C183.193 9.34443 183.326 9.47393 183.326 9.90093C183.308 12.8339 183.319 15.7669 183.319 18.6999L183.315 18.6964Z" fill="white"/>
<path d="M181.465 6.65255C180.975 6.65255 180.485 6.64555 179.999 6.65255C179.726 6.65955 179.579 6.57205 179.582 6.27455C179.589 5.28405 179.589 4.29355 179.582 3.30305C179.582 3.02655 179.715 2.93555 179.971 2.93555C180.965 2.93555 181.955 2.93555 182.949 2.93555C183.212 2.93555 183.324 3.04755 183.32 3.31705C183.313 4.30755 183.313 5.29805 183.32 6.28855C183.32 6.56505 183.194 6.65605 182.935 6.65255C182.445 6.64555 181.955 6.65255 181.469 6.65255H181.465Z" fill="white"/>
</g>
</g>
<defs>
<clipPath id="clip0_572_71279">
<rect width="253.4" height="35" fill="white" transform="translate(0.172363 0.152344)"/>
</clipPath>
</defs>
</svg>
