<svg width="200" height="50" viewBox="0 0 200 50" fill="none" xmlns="http://www.w3.org/2000/svg">
<g clip-path="url(#clip0_3033_2753)">
<mask id="mask0_3033_2753" style="mask-type:luminance" maskUnits="userSpaceOnUse" x="8" y="12" width="185" height="26">
<path d="M191.995 12.2935L8 12.2935L8.00767 37.6838H192.002L191.995 12.2935Z" fill="white"/>
</mask>
<g mask="url(#mask0_3033_2753)">
<path d="M166.884 37.6857C166.305 37.584 165.723 37.5078 165.158 37.3273C163.491 36.7987 162.07 35.9321 161.155 34.3896C160.857 33.8864 160.684 33.3374 160.598 32.7606C160.562 32.5293 160.633 32.4251 160.885 32.4302C161.596 32.4404 162.308 32.4327 163.02 32.4353C163.142 32.4353 163.264 32.4302 163.309 32.5903C163.592 33.6246 164.372 34.1837 165.3 34.5344C167.297 35.2892 169.272 35.2333 171.175 34.199C171.498 34.0236 171.775 33.7822 172.011 33.5001C172.321 33.1316 172.509 32.7174 172.491 32.2218C172.478 31.8889 172.491 31.5534 172.486 31.218C172.486 31.1417 172.516 31.0401 172.42 31.002C172.346 30.974 172.292 31.0502 172.237 31.0909C171.363 31.7262 170.394 32.1532 169.332 32.3692C165.147 33.2129 161.141 30.3031 160.636 26.1582C160.155 22.2064 162.835 18.641 166.756 18.0412C168.72 17.7413 170.527 18.1835 172.159 19.3246C172.246 19.383 172.325 19.5304 172.436 19.4593C172.533 19.3983 172.477 19.2534 172.479 19.1441C172.484 18.8697 172.492 18.5952 172.479 18.3233C172.466 18.0615 172.543 17.9396 172.84 17.9472C173.511 17.9675 174.182 17.965 174.85 17.9472C175.125 17.9396 175.196 18.0412 175.193 18.3004C175.184 19.7515 175.189 21.2001 175.19 22.6512C175.191 25.7236 175.163 28.7961 175.203 31.8686C175.226 33.7441 174.406 35.1367 172.934 36.2015C171.799 37.0224 170.508 37.4544 169.128 37.645C169.049 37.6552 168.97 37.6755 168.892 37.6907H166.879L166.884 37.6857ZM172.486 25.2459C172.486 22.674 170.462 20.6511 167.888 20.6511C165.326 20.6511 163.296 22.6639 163.287 25.2154C163.277 27.7465 165.331 29.8152 167.86 29.8202C170.437 29.8228 172.485 27.7974 172.486 25.2484L172.486 25.2459Z" fill="white"/>
<path d="M56.7672 37.6865C56.7621 37.5544 56.757 37.4222 56.7544 37.2926C56.7525 31.0257 56.7506 24.7613 56.7487 18.4944C56.7486 18.1352 56.9333 17.9557 57.3025 17.9557C57.9125 17.9557 58.5224 17.9633 59.1323 17.9531C59.3839 17.948 59.4754 18.0395 59.4679 18.2886C59.4527 18.6926 59.4656 19.0992 59.4657 19.5694C61.2061 18.2479 63.1221 17.7091 65.2391 18.0471C67.3689 18.3877 69.0389 19.4855 70.2237 21.2797C72.0644 24.0726 71.6869 27.8541 69.4182 30.2379C67.0936 32.6801 62.8982 33.5187 59.5174 30.9571C59.426 31.0511 59.4717 31.168 59.4718 31.2697C59.4698 33.2671 59.473 35.2646 59.471 37.2621C59.4711 37.4044 59.461 37.5442 59.4534 37.6865H56.7697H56.7672ZM64.0836 20.652C61.5347 20.6495 59.4641 22.6901 59.4623 25.2111C59.4605 27.7448 61.5196 29.816 64.0432 29.8211C66.6125 29.8236 68.6907 27.783 68.6924 25.2543C68.6942 22.7028 66.6427 20.6571 64.0811 20.652H64.0836Z" fill="white"/>
<path d="M73.9611 37.6864C73.9534 37.5542 73.9407 37.4246 73.9407 37.2925C73.9388 31.0052 73.9369 24.718 73.935 18.4333C73.9349 18.1148 74.0967 17.9555 74.4202 17.9555C75.0301 17.9555 75.64 17.9657 76.25 17.9504C76.5092 17.9454 76.6185 18.0216 76.6059 18.2961C76.5856 18.7001 76.601 19.1042 76.6012 19.5693C78.7405 17.9886 81.0529 17.526 83.5615 18.3316C85.1627 18.845 86.4235 19.8412 87.3566 21.2415C89.1821 23.9861 88.863 27.671 86.6832 30.1183C84.6763 32.3725 80.3463 33.755 76.6529 30.9519C76.5665 31.0484 76.6097 31.1653 76.6098 31.2695C76.6078 33.2772 76.611 35.2848 76.6091 37.2925C76.6091 37.4246 76.5964 37.5542 76.5888 37.6864H73.9662H73.9611ZM81.2292 20.6519C78.8937 20.6138 76.6097 22.4689 76.6207 25.2491C76.6317 27.9836 78.8584 29.821 81.2371 29.8184C83.8902 29.8159 85.8845 27.5999 85.8431 25.1805C85.8017 22.6672 83.7782 20.6468 81.2292 20.6493L81.2292 20.6519Z" fill="white"/>
<path d="M192 26.125C191.927 26.4231 191.728 26.5722 191.403 26.5722C187.837 26.5722 184.269 26.5722 180.704 26.5722C180.315 26.5722 180.312 26.5722 180.46 26.9331C181.782 30.1936 186.103 30.8391 188.323 28.0996C188.531 27.8429 188.737 27.7362 189.063 27.7463C189.784 27.7692 190.506 27.7514 191.228 27.754C191.566 27.754 191.596 27.7946 191.452 28.0996C190.225 30.6943 188.2 32.1911 185.323 32.4681C181.986 32.7909 178.967 30.6892 177.855 27.7336C176.281 23.5455 179.006 18.7958 183.431 18.0664C187.471 17.3981 191.144 19.9241 191.931 23.9089C191.956 24.0385 191.981 24.1656 192.004 24.2952L192.005 26.1199L192 26.125ZM184.706 23.8708C186.045 23.8708 187.384 23.8708 188.723 23.8708C189.115 23.8708 189.127 23.8505 188.975 23.4795C188.263 21.7539 186.585 20.6433 184.697 20.651C182.796 20.6586 181.114 21.792 180.426 23.5328C180.299 23.8556 180.307 23.8708 180.657 23.8708C182.007 23.8708 183.356 23.8708 184.706 23.8708Z" fill="white"/>
<path d="M92.9233 37.6868C93.0146 37.1938 93.2585 36.7567 93.4388 36.2992C93.9136 35.1023 94.4037 33.9129 94.8939 32.7236C94.9777 32.5203 94.9776 32.3449 94.8937 32.1416C93.0397 27.5977 91.1908 23.0539 89.3419 18.51C89.0977 17.9102 89.0698 17.956 89.7153 17.956C90.3862 17.956 91.0571 17.9661 91.7255 17.9509C91.972 17.9458 92.0863 18.0424 92.1728 18.2609C93.5411 21.6536 94.917 25.0463 96.2903 28.4389C96.331 28.5406 96.3768 28.6397 96.4251 28.7464C96.5725 28.6956 96.5699 28.566 96.608 28.472C97.9742 25.1098 99.343 21.7502 100.694 18.3829C100.823 18.0576 100.981 17.9331 101.337 17.9509C102.025 17.9814 102.717 17.9585 103.408 17.961C103.774 17.961 103.792 17.989 103.66 18.3143C101.463 23.7222 99.2664 29.1327 97.0698 34.5406C96.6432 35.5928 96.2115 36.6423 95.7823 37.6919H92.9157L92.9233 37.6868Z" fill="white"/>
<path d="M7.78695 22.4094C7.78597 19.1844 7.785 15.9595 7.78403 12.7346C7.78389 12.2949 7.78389 12.2949 8.21592 12.2949C9.31377 12.2949 10.4116 12.3051 11.5069 12.2873C11.8221 12.2822 11.9034 12.3915 11.901 12.6913C11.8915 15.0954 11.8973 17.497 11.8981 19.9011C11.8981 20.1857 12.0456 20.3289 12.3404 20.3306C18.7623 20.3306 25.1842 20.3306 31.6062 20.3306C31.9145 20.3306 32.0687 20.1722 32.0686 19.8553C32.0678 17.4817 32.0671 15.1107 32.0664 12.7371C32.0663 12.2949 32.0663 12.2949 32.5034 12.2949C33.6216 12.2949 34.7398 12.3025 35.8554 12.2898C36.1426 12.2873 36.2214 12.3915 36.2189 12.6609C36.2158 19.1616 36.2178 25.6597 36.2248 32.1604C36.2249 32.4476 36.1182 32.5264 35.8488 32.5239C34.7204 32.5137 33.5921 32.5213 32.4663 32.5188C32.1029 32.5188 32.0724 32.4883 32.0723 32.1147C32.0715 29.7004 32.0708 27.2887 32.0701 24.8745C32.0699 24.4374 32.0699 24.4374 31.6328 24.4374C25.2007 24.4374 18.7686 24.4374 12.3365 24.4374C12.0468 24.4374 11.9012 24.5814 11.8996 24.8694C11.9003 27.2735 11.901 29.675 11.9017 32.0791C11.9019 32.5188 11.9019 32.5188 11.4597 32.5188C10.372 32.5188 9.2843 32.5188 8.19661 32.5188C7.79254 32.5188 7.78492 32.5112 7.78479 32.1122C7.78382 28.8771 7.78284 25.6419 7.78186 22.4068L7.78695 22.4094Z" fill="white"/>
<path d="M106.311 22.3984C106.31 19.176 106.309 15.951 106.308 12.7286C106.308 12.2915 106.308 12.2915 106.738 12.2915C109.236 12.2915 111.734 12.2915 114.235 12.2915C117.01 12.294 119.501 14.5889 119.771 17.3487C119.934 19.0159 119.472 20.472 118.395 21.7402C118.23 21.9358 118.324 22.0019 118.477 22.1086C119.798 23.0464 120.609 24.3069 120.877 25.9105C121.269 28.2663 120.047 30.7136 117.926 31.8318C117.044 32.2968 116.111 32.5255 115.118 32.5255C112.335 32.5255 109.552 32.5255 106.769 32.5255C106.32 32.5255 106.32 32.5255 106.319 32.0706C106.318 28.8482 106.317 25.6233 106.316 22.4009L106.311 22.3984ZM112.354 29.8165C113.32 29.8165 114.283 29.8216 115.249 29.8165C117.142 29.8063 118.598 27.9588 118.168 26.1214C117.827 24.6703 116.604 23.7173 115.057 23.7148C113.168 23.7097 111.28 23.7173 109.392 23.7071C109.117 23.7071 109.021 23.7783 109.024 24.0629C109.034 25.8673 109.035 27.6691 109.025 29.4734C109.025 29.7352 109.099 29.8267 109.371 29.8241C110.365 29.8114 111.361 29.819 112.357 29.819L112.354 29.8165ZM109.027 17.979C109.027 18.8812 109.037 19.7833 109.022 20.683C109.017 20.9778 109.112 21.0642 109.404 21.0616C110.936 21.0489 112.469 21.0565 114.001 21.054C114.171 21.054 114.344 21.0337 114.514 21.0057C116.115 20.749 117.236 19.3335 117.103 17.7376C116.975 16.195 115.626 14.9599 114.045 14.9523C112.482 14.9446 110.919 14.9548 109.356 14.9446C109.105 14.9446 109.021 15.0234 109.023 15.275C109.034 16.1772 109.029 17.0768 109.029 17.979H109.027Z" fill="white"/>
<path d="M155.455 19.5774C155.455 19.4046 155.455 19.2953 155.455 19.186C155.455 17.6866 155.462 16.1847 155.449 14.6853C155.449 14.3931 155.54 14.2965 155.832 14.3041C156.493 14.3219 157.154 14.3194 157.815 14.3041C158.084 14.299 158.17 14.4032 158.165 14.6625C158.153 15.2698 158.163 15.8797 158.163 16.4871C158.165 21.6384 158.166 26.7871 158.168 31.9384C158.168 32.0502 158.168 32.162 158.163 32.2738C158.163 32.4365 158.074 32.5127 157.914 32.5127C157.172 32.5127 156.43 32.5127 155.69 32.5127C155.525 32.5127 155.459 32.4263 155.462 32.2637C155.467 31.8977 155.461 31.5343 155.461 31.1684C155.461 31.0997 155.466 31.0006 155.428 30.9701C155.344 30.9066 155.286 31.0083 155.225 31.054C154.242 31.7783 153.154 32.2357 151.944 32.4238C149.04 32.8736 146.14 31.5419 144.589 29.0286C141.856 24.5965 144.596 18.754 149.757 18.0297C151.749 17.7502 153.567 18.2152 155.198 19.3944C155.265 19.4427 155.328 19.4884 155.458 19.5799L155.455 19.5774ZM150.851 20.6498C148.332 20.6346 146.269 22.6448 146.214 25.0971C146.156 27.6308 148.167 29.7579 150.711 29.8164C153.184 29.8748 155.437 27.9866 155.439 25.2394C155.441 22.4033 153.112 20.6193 150.851 20.6498Z" fill="white"/>
<path d="M51.3746 19.5194C51.3745 19.0925 51.382 18.6681 51.3717 18.2462C51.3666 18.0251 51.4453 17.9412 51.6715 17.9438C52.3424 17.9539 53.0133 17.959 53.6842 17.9438C53.9663 17.9362 54.0477 18.0302 54.0477 18.3072C54.0409 21.0239 54.0443 23.7405 54.0451 26.4598C54.0457 28.3454 54.0386 30.2311 54.0519 32.1168C54.052 32.4217 53.9631 32.5285 53.6556 32.5208C53.0253 32.503 52.3951 32.503 51.7674 32.5208C51.4523 32.531 51.3531 32.4141 51.3759 32.1117C51.3987 31.8093 51.3833 31.5043 51.3756 31.1993C51.3756 31.1155 51.4264 30.996 51.3222 30.9528C51.2434 30.9223 51.1824 31.0164 51.1189 31.0646C50.2144 31.7356 49.2082 32.1701 48.1053 32.3861C44.1487 33.1562 40.2444 30.4776 39.5469 26.5157C38.8315 22.447 41.5953 18.6045 45.6689 18.0276C47.6511 17.7456 49.4581 18.2081 51.0874 19.3695C51.1662 19.4254 51.2298 19.5143 51.3746 19.5194ZM46.7599 20.6503C44.2288 20.6401 42.1811 22.6605 42.1361 25.1383C42.0911 27.611 44.074 29.7609 46.6433 29.8169C49.0702 29.8702 51.3569 28.0278 51.3586 25.2298C51.3628 22.4343 49.0573 20.6173 46.7599 20.6503Z" fill="white"/>
<path d="M123.571 25.233C123.57 22.9432 123.569 20.651 123.569 18.3612C123.569 17.9546 123.569 17.9546 123.973 17.9521C124.633 17.9521 125.294 17.9597 125.952 17.947C126.189 17.9419 126.285 18.0308 126.278 18.2646C126.268 18.5899 126.273 18.9127 126.278 19.238C126.278 19.3142 126.242 19.4159 126.326 19.4616C126.415 19.5099 126.471 19.4133 126.532 19.3676C127.475 18.6763 128.519 18.224 129.673 18.0461C132.029 17.6878 134.09 18.3256 135.872 19.8987C136.042 20.0487 136.009 20.1554 135.864 20.2952C135.346 20.7933 134.83 21.2965 134.322 21.8073C134.185 21.9445 134.083 21.9445 133.938 21.8149C132.97 20.9585 131.834 20.6027 130.545 20.6586C128.362 20.7526 126.345 22.7069 126.3 24.8848C126.252 27.205 126.286 29.5253 126.284 31.848C126.284 31.9599 126.277 32.0717 126.284 32.1835C126.31 32.4554 126.178 32.5317 125.921 32.5266C125.271 32.5139 124.62 32.5088 123.972 32.5266C123.669 32.5342 123.568 32.4427 123.57 32.1327C123.582 29.8328 123.576 27.5303 123.576 25.2304L123.571 25.233Z" fill="white"/>
<path d="M140.984 25.7585C140.984 27.878 140.985 29.9975 140.986 32.1169C140.986 32.5185 140.978 32.5235 140.577 32.5261C139.946 32.5261 139.316 32.5261 138.686 32.5261C138.284 32.5261 138.274 32.5159 138.274 32.1169C138.273 29.2986 138.272 26.4803 138.271 23.6619C138.271 22.2413 138.271 20.8233 138.27 19.4027C138.27 18.9859 138.27 18.9859 138.697 18.9859C139.327 18.9859 139.957 19.0011 140.588 18.9783C140.893 18.9681 140.989 19.0621 140.989 19.3722C140.977 21.5018 140.986 23.6314 140.986 25.7611L140.984 25.7585Z" fill="white"/>
<path d="M139.636 17.0148C139.28 17.0148 138.924 17.0097 138.571 17.0148C138.373 17.0199 138.266 16.9564 138.268 16.7403C138.273 16.0211 138.273 15.302 138.268 14.5828C138.268 14.382 138.364 14.3159 138.55 14.3159C139.271 14.3159 139.991 14.3159 140.712 14.3159C140.903 14.3159 140.984 14.3972 140.982 14.5929C140.977 15.3121 140.977 16.0313 140.983 16.7505C140.983 16.9513 140.891 17.0173 140.703 17.0148C140.347 17.0097 139.991 17.0148 139.638 17.0148H139.636Z" fill="white"/>
</g>
</g>
<defs>
<clipPath id="clip0_3033_2753">
<rect width="183.992" height="25.4133" fill="white" transform="matrix(1 0 0.000301956 1 8 12.2935)"/>
</clipPath>
</defs>
</svg>
