<svg width="125" height="40" viewBox="0 0 125 40" fill="none" xmlns="http://www.w3.org/2000/svg">
<path d="M85.2403 8.33447C86.8179 8.39738 87.9979 8.79774 88.7046 10.0159C88.8904 10.3348 88.979 10.8023 88.8861 11.1426C88.8411 11.3099 88.2838 11.3829 87.9485 11.4215C87.4028 11.4829 86.9297 11.4072 86.5959 10.8395C86.2998 10.3377 84.9718 10.2161 84.5364 10.6079C84.3652 10.7623 84.1925 11.1198 84.2636 11.2813C84.3811 11.5501 84.6583 11.8318 84.9341 11.9362C85.7875 12.2579 86.6931 12.4481 87.5407 12.7798C88.6437 13.2116 89.3505 14.3612 89.2373 15.3663C89.1052 16.5359 88.1836 17.5683 87.0545 17.8642C85.6162 18.2417 84.2273 18.1917 82.9211 17.441C82.1955 17.0235 81.7731 16.3801 81.6367 15.5508C81.5598 15.0775 81.702 14.793 82.2129 14.7887C82.9414 14.7815 83.6729 14.6128 84.0923 15.5579C84.387 16.2214 85.9529 16.2657 86.516 15.7481C86.9195 15.3778 86.8861 14.7858 86.3782 14.5814C85.6249 14.2768 84.8354 14.0552 84.0517 13.8264C82.6338 13.4118 81.7934 12.5253 81.7775 11.39C81.7586 10.1103 82.5728 9.07798 83.9835 8.63617C84.461 8.48746 84.9588 8.40024 85.2389 8.33447H85.2403Z" fill="white"/>
<path d="M52.1308 13.2181C52.1308 14.4792 52.1105 15.7417 52.1395 17.0028C52.1526 17.6091 51.9276 17.8993 51.3007 17.8593C51.1076 17.8464 50.9132 17.845 50.7216 17.8579C50.1193 17.8965 49.9074 17.6062 49.9277 17.0386C49.9538 16.3022 49.9161 15.563 49.9393 14.8252C49.9538 14.3548 49.8116 14.116 49.2891 14.1317C48.4677 14.156 47.6462 14.1475 46.8248 14.1289C46.3821 14.1189 46.2196 14.3133 46.2254 14.728C46.2341 15.513 46.2123 16.2994 46.2283 17.0843C46.2399 17.6348 45.9786 17.8707 45.4388 17.8521C45.1978 17.845 44.9555 17.845 44.7145 17.8493C44.2675 17.8564 44.0411 17.6491 44.0411 17.2044C44.044 14.5621 44.031 11.9198 44.0542 9.27892C44.0614 8.3524 44.8379 8.64122 45.3575 8.5826C45.8611 8.52541 46.2152 8.71986 46.2196 9.28464C46.2254 10.0696 46.2312 10.856 46.2254 11.641C46.221 12.14 46.4169 12.3773 46.9641 12.3516C47.7115 12.3159 48.4619 12.3202 49.2108 12.3473C49.739 12.3673 49.9596 12.1657 49.9451 11.6439C49.9248 10.8832 49.9596 10.1197 49.9364 9.35899C49.9103 8.51397 50.5111 8.554 51.0728 8.54828C51.633 8.54256 52.1526 8.5826 52.1381 9.36185C52.1149 10.6473 52.1323 11.9327 52.1323 13.2181H52.1366H52.1308Z" fill="white"/>
<path d="M63.0037 17.3212C63.0037 18.1505 63.0124 18.8353 63.0008 19.5202C62.9863 20.3438 62.8252 20.4825 61.9413 20.4882C61.0197 20.4925 60.7962 20.3181 60.7948 19.5202C60.7875 17.0223 60.7861 14.5244 60.8006 12.0265C60.8035 11.579 60.638 11.0256 61.2853 10.824C62.04 10.5895 62.696 10.8126 63.0472 11.3817C63.5291 11.1758 63.9906 10.8669 64.4884 10.7869C65.8526 10.5667 67.0021 11.2759 67.5042 12.5741C68.1007 14.1155 68.0253 15.6111 67.0311 16.978C66.2648 18.0304 64.7104 18.2934 63.5929 17.6214C63.455 17.5385 63.3041 17.4741 63.0037 17.3226V17.3212ZM65.6872 14.3857C65.5566 13.9668 65.5304 13.5164 65.2968 13.2276C65.0457 12.9173 64.6059 12.5956 64.2402 12.5856C63.9108 12.577 63.4521 12.913 63.2591 13.2233C62.7657 14.0111 62.8498 14.8633 63.3172 15.6554C63.7308 16.356 64.8483 16.3589 65.2315 15.6483C65.4405 15.2622 65.5362 14.8161 65.6872 14.3857Z" fill="white"/>
<path d="M120.529 11.4169C120.529 10.712 120.522 10.1215 120.53 9.53101C120.543 8.64595 120.687 8.5144 121.609 8.5144C122.555 8.5144 122.732 8.67311 122.733 9.57533C122.738 11.9817 122.738 14.3895 122.726 16.7959C122.725 17.1791 122.863 17.7325 122.305 17.7968C121.712 17.8655 120.995 18.1857 120.54 17.4422C120.52 17.4079 120.464 17.3936 120.452 17.5266C119.741 17.6753 119.027 17.9612 118.321 17.9427C117.049 17.9083 116.049 16.9189 115.782 15.4862C115.551 14.2523 115.573 13.0126 116.375 11.9245C117.313 10.652 118.676 10.3818 120.05 11.1939C120.152 11.2539 120.263 11.294 120.53 11.4184L120.529 11.4169ZM120.658 14.4167C120.545 14.0221 120.469 13.6746 120.346 13.3443C120.166 12.8625 119.845 12.5479 119.275 12.5422C118.707 12.5365 118.397 12.8439 118.172 13.31C117.786 14.1093 117.863 14.8857 118.284 15.6364C118.681 16.3484 119.802 16.3756 120.202 15.6621C120.419 15.2775 120.513 14.8256 120.658 14.4167Z" fill="white"/>
<path d="M103.833 15.1C103.833 15.815 103.827 16.5284 103.833 17.2433C103.837 17.6852 103.615 17.9497 103.184 17.9182C102.652 17.8782 102.126 17.7352 101.594 17.6709C101.43 17.6508 101.24 17.7109 101.081 17.781C100.276 18.1384 99.4734 18.2342 98.6229 17.9082C97.7942 17.5908 97.2296 16.8602 97.1788 15.9465C97.1338 15.1172 97.636 14.2607 98.4458 13.9648C99.0263 13.7531 99.6504 13.6602 100.259 13.5258C100.515 13.4686 100.8 13.4872 101.034 13.3857C101.198 13.3142 101.415 13.074 101.392 12.9496C101.362 12.7937 101.096 12.555 100.955 12.5707C100.549 12.615 100.1 12.6836 99.7694 12.8967C99.2557 13.227 98.2818 13.3785 97.8188 12.9868C97.6679 12.8595 97.5837 12.4005 97.6882 12.2804C98.1193 11.79 98.5663 11.2338 99.1352 10.955C100.357 10.3587 102.845 10.456 103.617 12.2089C103.737 12.4835 103.808 12.798 103.822 13.0983C103.852 13.7632 103.83 14.4309 103.83 15.0986L103.833 15.1ZM100.105 16.3726C100.884 16.354 101.52 15.8364 101.466 15.3774C101.45 15.2473 101.166 15.0529 101.003 15.0514C100.154 15.0471 99.4719 15.4403 99.604 15.845C99.6853 16.0952 100.003 16.2696 100.106 16.3712L100.105 16.3726Z" fill="white"/>
<path d="M108.143 14.3546C108.029 12.3943 109.235 11.2819 110.443 10.8516C111.812 10.364 113.41 10.8244 114.306 11.9411C114.89 12.6674 115.077 13.5096 115.007 14.4218C114.971 14.9037 114.653 14.9895 114.253 14.9909C113.189 14.9938 112.125 14.9909 111.061 15.0109C110.864 15.0152 110.668 15.1153 110.472 15.1725C110.55 15.4098 110.568 15.7001 110.72 15.8745C111.201 16.425 112.066 16.4808 112.678 15.9403C113.27 15.417 113.91 15.5957 114.527 15.6987C115.007 15.7787 114.887 16.1705 114.726 16.4965C114.182 17.5946 112.603 18.2824 111.174 18.0407C109.121 17.6947 108.134 16.4936 108.144 14.3546H108.143ZM111.643 13.5139V13.5182C111.835 13.5182 112.032 13.5482 112.215 13.5096C112.399 13.471 112.569 13.3623 112.745 13.2851C112.652 13.1064 112.581 12.7918 112.462 12.7732C111.952 12.6932 111.423 12.6517 110.913 12.7046C110.764 12.7203 110.652 13.0935 110.524 13.3023C110.73 13.3723 110.932 13.4638 111.145 13.5067C111.305 13.5396 111.478 13.5139 111.646 13.5139H111.643Z" fill="white"/>
<path d="M73.0382 14.9997C72.4577 14.9997 71.8772 14.9925 71.2981 15.0025C70.8279 15.0111 70.7814 15.2556 70.9701 15.6188C71.3257 16.3065 72.314 16.5839 72.9599 16.0549C73.4925 15.6173 74.0382 15.5845 74.6463 15.6302C75.34 15.6817 75.5287 16.0534 75.131 16.6282C74.6492 17.3231 74.0034 17.7678 73.1442 17.9465C71.7103 18.2439 70.4113 18.0209 69.4491 16.8985C68.4724 15.7589 68.3461 14.4234 68.8062 12.9993C69.6276 10.46 72.8916 10.1325 74.446 11.5795C75.2733 12.3488 75.4518 13.3368 75.4924 14.3748C75.5098 14.8238 75.208 14.9968 74.7813 14.9939C74.2007 14.9911 73.6202 14.9939 73.0411 14.9939V15.0011L73.0382 14.9997ZM73.2066 13.4726C73.1543 12.6419 72.6681 12.4946 72.0644 12.4975C71.4432 12.5018 71.0456 12.7663 70.9149 13.4726H73.2066Z" fill="white"/>
<path d="M56.5498 15.2484C56.8183 14.3777 57.0897 13.5069 57.3538 12.6333C57.4235 12.406 57.4554 12.1672 57.5309 11.9413C57.9068 10.8231 58.3335 10.5901 59.5207 10.8031C60.049 10.8989 60.049 11.2564 59.9241 11.611C59.0954 13.9673 58.2754 16.3294 57.3916 18.6657C56.9054 19.9526 55.7429 20.6389 54.4468 20.5417C54.0318 20.5102 53.5253 20.4587 53.5514 19.9297C53.5775 19.4178 53.5789 18.8001 54.3394 18.6614C55.3205 18.4827 55.4483 18.201 55.1217 17.296C54.4439 15.4157 53.7894 13.5269 53.1363 11.6367C52.9157 10.999 53.0507 10.8317 53.7459 10.8003C55.0433 10.7388 55.1507 10.8403 55.4744 12.0757C55.7501 13.128 56.0781 14.1675 56.3829 15.2127C56.4381 15.2241 56.4932 15.2356 56.5484 15.247L56.5498 15.2484Z" fill="white"/>
<path d="M46.4183 29.0259C46.6258 28.2639 46.8334 27.5018 47.0424 26.7411C47.2876 25.846 47.5416 24.9524 47.7738 24.053C47.8812 23.6384 48.0597 23.3853 48.5517 23.371C49.0786 23.3553 49.2934 23.6327 49.408 24.063C49.7825 25.4657 50.1468 26.8712 50.5285 28.2739C50.6054 28.5541 50.7331 28.8215 50.8361 29.0946C50.8985 29.0874 50.9609 29.0803 51.0219 29.0746C51.2077 28.3554 51.3905 27.6362 51.5807 26.9184C51.8434 25.929 52.1249 24.9438 52.3716 23.9501C52.4892 23.4797 52.7751 23.3081 53.2192 23.4082C53.7693 23.5326 53.5849 23.9172 53.4892 24.2632C52.8927 26.4451 52.3223 28.6356 51.6794 30.8032C51.5894 31.1078 51.183 31.4609 50.8666 31.5281C50.3311 31.6425 50.1569 31.1349 50.0379 30.7174C49.6112 29.229 49.2034 27.7348 48.7854 26.2449C48.7477 26.112 48.6911 25.9833 48.4951 25.8303C48.1976 26.8583 47.8972 27.8849 47.6055 28.9159C47.4241 29.5578 47.3181 30.227 47.0627 30.8375C46.9393 31.1321 46.5533 31.4967 46.279 31.5024C46.0119 31.5081 45.5722 31.1421 45.4895 30.859C44.8465 28.6642 44.2703 26.4523 43.6811 24.2432C43.5984 23.9329 43.4228 23.5554 43.9235 23.4225C44.3734 23.3038 44.6564 23.484 44.7769 23.9486C45.1527 25.3999 45.5475 26.8469 45.935 28.2953C45.9989 28.5355 46.0656 28.7743 46.1309 29.0131C46.2267 29.0188 46.3225 29.0245 46.4169 29.0302L46.4183 29.0259Z" fill="white"/>
<path d="M93.3913 10.6052C95.0153 10.6796 96.0574 11.3402 96.5842 12.6913C96.8484 13.3676 96.6452 13.665 95.8948 13.7051C95.2505 13.7394 94.6931 13.7094 94.2882 13.0402C94.1257 12.77 93.519 12.5641 93.1925 12.6413C92.85 12.7228 92.4349 13.1417 92.3507 13.4849C92.2143 14.0425 92.2201 14.6831 92.3623 15.2393C92.4479 15.5724 92.863 15.9227 93.2142 16.0643C93.6511 16.2402 94.0908 16.0657 94.3942 15.6168C94.7454 15.0963 95.8731 14.8232 96.3767 15.1678C96.5566 15.2908 96.6713 15.7097 96.6089 15.9385C96.1778 17.4984 94.5335 18.4063 92.8369 18.0718C91.0706 17.7229 90.1287 16.7191 89.8863 14.9261C89.644 13.1317 90.3696 11.679 91.9327 10.9698C92.3797 10.7668 92.9022 10.7225 93.3899 10.6052H93.3913Z" fill="white"/>
<path d="M62.3468 25.8798C64.3975 24.6316 66.4685 25.6554 66.6543 27.7601C66.7327 28.658 66.7704 29.5559 66.2552 30.3924C65.4802 31.652 64.1522 32.0238 62.8417 31.3332C62.6704 31.2431 62.3511 31.2917 62.1624 31.3904C61.5616 31.7078 61.1276 31.5419 61.1204 30.8799C61.0972 28.5951 61.116 26.3088 61.1175 24.0239C61.1175 23.6336 61.2699 23.3776 61.7038 23.3705C62.1697 23.3633 62.3439 23.635 62.3468 24.0525C62.3497 24.6102 62.3468 25.1664 62.3468 25.877V25.8798ZM62.3642 28.4449C62.3772 29.7589 62.8997 30.4853 63.8561 30.5168C64.8097 30.5482 65.4004 29.859 65.4802 28.6237C65.5585 27.4097 65.0128 26.5004 64.145 26.4003C62.9999 26.2687 62.3497 27.0151 62.3642 28.4435V28.4449Z" fill="white"/>
<path d="M88.5377 28.9447C88.0297 28.9447 87.5232 28.9375 87.0167 28.9475C86.5639 28.9561 86.4899 29.1863 86.6611 29.5624C87.053 30.4188 88.455 30.7277 89.1981 30.1129C89.3084 30.0213 89.4085 29.8383 89.5144 29.8369C89.841 29.8326 90.2038 29.8283 90.4767 29.9699C90.5696 30.0185 90.5362 30.5661 90.3896 30.762C89.2459 32.2833 86.4289 31.9731 85.5552 30.2258C84.8978 28.9118 84.9442 27.5992 85.8063 26.3696C86.5784 25.2686 87.8295 24.9255 89.2169 25.4345C90.423 25.8763 90.899 27.1431 90.8743 28.2698C90.87 28.4943 90.4665 28.8517 90.1995 28.9018C89.6625 29.0019 89.095 28.9318 88.5392 28.9318C88.5392 28.9375 88.5392 28.9418 88.5392 28.9475L88.5377 28.9447ZM86.5146 27.7922C87.41 27.7922 88.1516 27.7894 88.8947 27.7922C89.4462 27.7951 89.5101 27.542 89.2779 27.1145C88.9615 26.5311 88.4434 26.3467 87.8208 26.4411C87.1343 26.5454 86.7642 26.993 86.5146 27.7922Z" fill="white"/>
<path d="M72.4631 27.3258C72.7026 27.586 73.0321 27.8462 73.2352 28.1808C74.0117 29.4619 73.3049 30.9704 71.6881 31.5538C70.3181 32.0471 68.5794 31.4422 68.0105 30.2197C67.9031 29.9895 68.054 29.645 68.0845 29.3518C68.4052 29.419 68.9045 29.3819 69.0162 29.5692C69.5314 30.4357 70.3007 30.4928 71.1511 30.3799C71.7708 30.2984 72.1714 29.9609 72.2077 29.3118C72.2454 28.6384 71.8565 28.2409 71.2513 28.0521C70.9581 27.9606 70.6011 28.0478 70.3282 27.9306C70.0917 27.8277 69.7854 27.5503 69.784 27.3487C69.7825 27.1413 70.0989 26.9154 70.3065 26.731C70.3761 26.6681 70.5387 26.701 70.6606 26.6995C71.215 26.6867 71.7302 26.4936 71.8231 25.9389C71.8884 25.5485 71.7897 25.0152 71.5473 24.7164C71.1424 24.2173 70.4966 24.276 69.9523 24.5433C69.6693 24.6835 69.4995 25.0338 69.2252 25.2068C68.9567 25.3755 68.6186 25.4398 68.3109 25.5499C68.2659 25.2311 68.083 24.8465 68.1991 24.6034C68.6447 23.6783 69.4995 23.318 70.4966 23.2393C72.1583 23.1078 73.4907 24.3803 73.1801 25.8831C73.0756 26.3907 72.7084 26.8468 72.4602 27.3258H72.4631Z" fill="white"/>
<path d="M107.18 13.2253C107.18 14.5107 107.161 15.7976 107.189 17.083C107.202 17.7064 106.932 17.9595 106.327 17.9252C106.254 17.9209 106.181 17.9252 106.109 17.9266C104.938 17.9395 104.871 17.878 104.868 16.7398C104.864 14.3578 104.848 11.9771 104.878 9.59644C104.882 9.2347 105.042 8.63274 105.263 8.56554C105.756 8.41541 106.347 8.4726 106.869 8.57984C107.023 8.6113 107.164 9.09029 107.171 9.36767C107.203 10.6531 107.186 11.9399 107.186 13.2253H107.18Z" fill="white"/>
<path d="M78.5797 11.0407C79.3924 10.9291 80.0063 10.7933 80.6202 10.7919C80.79 10.7919 81.0948 11.1836 81.1079 11.4081C81.1471 12.1373 80.6014 12.6521 79.867 12.6921C79.1689 12.7307 78.6842 13.214 78.6682 13.9518C78.645 14.9727 78.6319 15.9964 78.6682 17.0173C78.6929 17.7108 78.3924 17.9753 77.7219 17.9195C77.4825 17.8995 77.1966 17.981 77.0093 17.8795C76.7612 17.7437 76.4157 17.4763 76.4099 17.259C76.3649 15.3115 76.3678 13.3613 76.4157 11.4138C76.4215 11.1994 76.7858 10.8419 77.0151 10.8147C77.6116 10.7461 78.2909 10.5817 78.5782 11.0392L78.5797 11.0407Z" fill="white"/>
<path d="M81.0476 31.8664C80.6659 31.5103 80.303 31.3259 80.1942 31.0457C79.4453 29.1154 78.7501 27.1651 78.0361 25.222C77.9214 24.9103 77.769 24.6086 77.679 24.2897C77.5876 23.9652 77.3627 23.5505 77.8866 23.3904C78.351 23.2488 78.7574 23.3804 78.9417 23.8808C79.2305 24.6629 79.5164 25.4465 79.7922 26.2329C80.1144 27.1522 80.4148 28.0802 80.7457 28.9967C80.7907 29.1225 80.9561 29.2083 81.065 29.3127C81.1477 29.2083 81.2638 29.1154 81.3059 28.9967C81.8879 27.3596 82.4568 25.7181 83.0402 24.0824C83.1099 23.8865 83.2086 23.6134 83.3653 23.5519C83.6512 23.4404 83.9996 23.4104 84.3029 23.4576C84.3813 23.4704 84.4901 23.9266 84.4219 24.1253C83.9691 25.4522 83.4742 26.7662 82.9865 28.0816C82.631 29.041 82.3001 30.0119 81.8893 30.947C81.75 31.2644 81.3973 31.4932 81.0447 31.8649L81.0476 31.8664Z" fill="white"/>
<path d="M112.691 28.4931C112.799 26.2111 114.436 24.8656 116.524 25.4004C117.722 25.7078 118.69 27.3063 118.304 28.4416C118.237 28.6375 117.841 28.8262 117.588 28.8391C116.648 28.8877 115.704 28.8548 114.761 28.8677C114.157 28.8763 113.998 29.148 114.256 29.6827C114.693 30.5835 116.096 30.8351 116.873 30.1503C116.98 30.0559 117.076 29.8714 117.18 29.87C117.469 29.8643 117.775 29.8943 118.035 30.0044C118.093 30.0287 118.06 30.4863 117.941 30.6578C116.858 32.2206 114.073 31.9433 113.215 30.1746C112.961 29.6513 112.861 29.0564 112.69 28.4945L112.691 28.4931ZM115.581 27.8254V27.8325C115.871 27.8325 116.16 27.8368 116.45 27.8325C117.09 27.8196 117.238 27.5866 116.919 27.0518C116.587 26.4956 116.029 26.2311 115.443 26.427C114.986 26.58 114.613 26.9932 114.231 27.3235C114.209 27.3421 114.42 27.7667 114.571 27.8039C114.889 27.8826 115.241 27.8282 115.58 27.8282L115.581 27.8254Z" fill="white"/>
<path d="M91.7771 28.417C91.7771 27.632 91.7757 26.8456 91.7771 26.0606C91.7786 25.4787 92.1675 25.1084 92.6436 25.3371C93.2923 25.6474 93.7683 25.3901 94.3198 25.2128C95.2893 24.9025 96.6086 25.6245 96.8422 26.594C96.9583 27.0787 97.0744 27.5763 97.0832 28.071C97.102 29.0218 97.057 29.9726 97.0164 30.9235C96.9975 31.3496 96.7784 31.7356 96.3111 31.6112C96.0629 31.5454 95.7581 31.1522 95.7378 30.8877C95.6638 29.9169 95.7088 28.9374 95.6913 27.9623C95.6739 26.9671 95.2298 26.431 94.4592 26.4395C93.6972 26.4481 93.2125 27.0172 93.1951 27.9594C93.1776 28.9117 93.198 29.864 93.1762 30.8162C93.166 31.2295 93.108 31.6713 92.5202 31.6455C91.9701 31.6227 91.7815 31.2538 91.7742 30.7733C91.7641 29.9884 91.7713 29.202 91.7713 28.417C91.7728 28.417 91.7742 28.417 91.7757 28.417H91.7771Z" fill="white"/>
<path d="M57.5796 28.8651C57.0731 28.8651 56.5651 28.868 56.0586 28.8651C55.5507 28.8623 55.4084 29.071 55.616 29.5386C56.0717 30.558 57.4156 30.8683 58.282 30.142C58.3372 30.0962 58.3836 30.0404 58.4359 29.9904C58.7668 29.6644 59.1804 29.6215 59.4373 29.9704C59.5578 30.1348 59.4489 30.6095 59.2806 30.8083C58.3851 31.8663 56.5216 31.985 55.4026 31.1028C53.825 29.8589 53.8932 26.9349 55.5274 25.7653C56.3286 25.1905 57.671 25.1133 58.4809 25.6037C59.491 26.2171 59.8466 27.1794 59.819 28.2775C59.8146 28.4777 59.4228 28.7936 59.1717 28.8365C58.6565 28.9238 58.1137 28.8623 57.5825 28.8623V28.8651H57.5796ZM55.5869 27.8185C56.4534 27.8185 57.3126 27.8357 58.1703 27.8114C58.6188 27.7985 58.5752 27.4896 58.4489 27.198C58.1877 26.5946 57.5187 26.2857 56.7582 26.4015C56.1065 26.5016 55.6769 26.9892 55.5884 27.8185H55.5869Z" fill="white"/>
<path d="M105.856 31.1879C104.499 31.9743 103.366 31.8084 102.672 30.5988C102.502 30.3014 102.406 29.9268 102.395 29.5851C102.357 28.4183 102.374 27.2502 102.367 26.082C102.364 25.6488 102.473 25.3199 103.006 25.3342C103.502 25.3471 103.679 25.6316 103.679 26.0791C103.679 27.0557 103.666 28.0337 103.689 29.0103C103.712 29.9983 104.033 30.3686 104.792 30.3643C105.635 30.36 106.126 29.8524 106.14 28.9359C106.155 28.0065 106.154 27.0771 106.143 26.1478C106.139 25.6831 106.246 25.3356 106.81 25.3456C107.371 25.3556 107.466 25.7174 107.464 26.1721C107.457 27.6491 107.486 29.1275 107.438 30.6045C107.428 30.9291 107.238 31.4052 106.991 31.5196C106.76 31.6268 106.344 31.3466 105.856 31.1879Z" fill="white"/>
<path d="M121.848 31.6666C120.866 31.6608 120.145 31.4121 119.667 30.74C119.528 30.5441 119.473 30.1109 119.596 29.9493C119.851 29.6191 120.204 29.6991 120.526 30.0022C121.242 30.6786 121.811 30.8072 122.452 30.4126C122.668 30.2796 122.921 29.9822 122.911 29.772C122.901 29.5647 122.616 29.2945 122.387 29.1901C121.998 29.0128 121.561 28.9327 121.139 28.8327C120.1 28.5853 119.445 27.8804 119.486 27.0368C119.526 26.1961 120.233 25.5197 121.265 25.3482C122.197 25.1937 123.07 25.2938 123.674 26.0988C123.818 26.2904 123.76 26.6293 123.796 26.8995C123.499 26.8781 123.188 26.8995 122.906 26.8237C122.467 26.7051 122.047 26.4091 121.616 26.402C121.329 26.3977 121.037 26.768 120.747 26.971C120.975 27.237 121.153 27.5973 121.444 27.7474C121.838 27.9519 122.332 27.959 122.757 28.1192C123.85 28.5281 124.191 28.9799 124.147 29.8578C124.108 30.65 123.578 31.2462 122.612 31.5393C122.316 31.6294 121.996 31.6423 121.85 31.6651L121.848 31.6666Z" fill="white"/>
<path d="M100.843 31.6739C99.6045 31.681 98.7845 30.939 98.7454 29.9438C98.7091 29.0401 98.7279 28.1351 98.7279 27.23C98.7279 26.8396 98.7483 26.4693 98.2069 26.3649C98.0676 26.3378 97.8949 26.059 97.8891 25.8902C97.8833 25.723 98.0386 25.4341 98.1764 25.3984C98.6249 25.284 98.741 25.0181 98.7323 24.6134C98.7207 24.1459 98.905 23.8213 99.4391 23.8213C99.9572 23.8213 100.091 24.1587 100.088 24.582C100.085 25.0567 100.233 25.3312 100.789 25.3612C100.983 25.3712 101.162 25.6786 101.349 25.8502C101.15 26.0404 100.96 26.3792 100.753 26.3907C100.179 26.4207 100.075 26.6967 100.088 27.1728C100.108 27.9335 100.099 28.6956 100.094 29.4577C100.089 29.9567 100.211 30.2941 100.802 30.4342C101.034 30.4886 101.297 30.9261 101.31 31.1992C101.319 31.3893 100.925 31.5981 100.844 31.6739H100.843Z" fill="white"/>
<path d="M108.773 28.4574C108.773 27.6967 108.754 26.9361 108.777 26.1768C108.802 25.4104 109.236 25.1774 109.928 25.4948C110.081 25.5649 110.294 25.5363 110.474 25.5105C110.918 25.4447 111.358 25.2975 111.799 25.3003C111.978 25.3018 112.333 25.6821 112.298 25.7665C112.197 26.0138 111.972 26.3327 111.74 26.387C110.153 26.7573 110.068 26.836 110.063 28.4717C110.062 29.2324 110.063 29.9916 110.059 30.7523C110.056 31.1497 110.023 31.5558 109.478 31.5587C108.939 31.5615 108.805 31.1783 108.786 30.7394C108.77 30.3605 108.777 29.9787 108.776 29.5998C108.776 29.2195 108.776 28.8391 108.776 28.4588L108.773 28.4574Z" fill="white"/>
<path d="M0.425841 10.9055C1.84234 11.7205 3.17175 12.4397 4.44166 13.2504C4.70725 13.4191 4.87561 13.9196 4.88141 14.2699C4.90608 16.0086 4.88141 17.7487 4.83062 19.4873C4.80885 20.2366 5.06718 20.7441 5.73914 21.1216C7.52137 22.1211 9.27748 23.1677 11.0524 24.18C11.9958 24.7176 12.5894 24.3902 12.6184 23.2935C12.6562 21.8408 12.6358 20.3867 12.6489 18.9325C12.6562 18.1147 12.7752 18.0604 13.5066 18.4836C14.5269 19.0741 15.5458 19.666 16.5718 20.2423C17.0551 20.5139 17.2961 20.8657 17.2902 21.4462C17.2307 27.3785 17.1959 33.3123 17.148 39.2461C17.1422 39.9724 16.9797 40.0553 16.3353 39.6836C15.3135 39.0959 14.3092 38.4797 13.2759 37.9135C12.6794 37.5875 12.4283 37.1642 12.4544 36.4736C12.5154 34.8079 12.4849 33.1379 12.5314 31.4707C12.5517 30.7286 12.3107 30.2196 11.6272 29.8378C9.88558 28.8641 8.18027 27.8261 6.45175 26.828C5.33423 26.1832 4.79723 26.4949 4.78127 27.7917C4.76385 29.1744 4.77692 30.5556 4.75079 31.9382C4.74644 32.1999 4.62162 32.4601 4.55341 32.7203C4.3183 32.6346 4.06722 32.5802 3.85242 32.4601C2.84665 31.8953 1.85975 31.2948 0.848177 30.7415C0.287966 30.4355 0.0281782 30.0594 0.0412401 29.3846C0.145736 23.4994 0.211045 17.6143 0.295222 11.7305C0.298125 11.4875 0.372142 11.2458 0.428744 10.9084L0.425841 10.9055Z" fill="white"/>
<path d="M22.8824 2.51741C22.0043 3.02929 21.3164 3.44251 20.6183 3.83571C19.8215 4.28325 19.0074 4.70075 18.2149 5.15544C17.199 5.73881 17.1584 6.3665 18.1525 6.95416C20.0349 8.06942 21.9361 9.15608 23.8649 10.1898C24.1741 10.3557 24.7415 10.3214 25.0666 10.1512C26.7066 9.29192 28.3133 8.36968 29.9155 7.44459C30.4133 7.15719 30.8386 7.16291 31.332 7.45888C32.3625 8.078 33.4219 8.6485 34.4611 9.25331C34.6744 9.37771 34.8515 9.56072 35.1359 9.78807C33.7557 10.5673 32.4887 11.288 31.2159 11.9986C27.1638 14.262 23.0986 16.5054 19.0625 18.7974C18.3397 19.2077 17.7795 19.2192 17.0843 18.7688C15.9813 18.0524 14.8203 17.4233 13.5794 16.697C13.8261 16.4911 13.9959 16.2995 14.2064 16.1822C15.4676 15.4802 16.7389 14.7982 18.0045 14.1047C19.1293 13.4885 19.1568 12.8407 18.0422 12.1816C16.1802 11.0792 14.3065 9.99396 12.4067 8.95591C12.1397 8.81007 11.6375 8.85439 11.3502 9.00738C9.6492 9.90674 7.98743 10.8776 6.28938 11.7841C6.00782 11.9342 5.53614 12.0329 5.28941 11.9013C4.01515 11.2279 2.78443 10.4715 1.53774 9.74374C1.41292 9.67082 1.28666 9.60219 1.0022 9.44348C2.10375 8.82723 2.99632 8.32536 3.89179 7.82921C8.47653 5.28555 13.0656 2.74762 17.6417 0.188231C18.0785 -0.0562684 18.408 -0.0691368 18.8375 0.188231C20.0929 0.940319 21.3716 1.6538 22.8795 2.51741H22.8824Z" fill="white"/>
<path d="M18.7385 39.9971C18.7094 39.6982 18.663 39.4466 18.6659 39.1949C18.7298 33.3112 18.8052 27.4289 18.8604 21.5452C18.8662 20.9246 19.1013 20.5243 19.6572 20.2312C20.8864 19.582 22.0939 18.8943 23.4263 18.1565C23.4669 18.5411 23.5206 18.8099 23.5206 19.0787C23.5206 20.5086 23.4974 21.937 23.5003 23.3668C23.5017 24.5221 23.9763 24.8552 24.9806 24.319C26.9094 23.2881 28.8005 22.1872 30.7119 21.1234C31.2503 20.8231 31.3708 20.347 31.3723 19.7922C31.3752 18.0293 31.4027 16.2663 31.3824 14.5047C31.3752 13.9071 31.5929 13.5353 32.1299 13.2508C33.2343 12.666 34.3112 12.0311 35.3953 11.4092C35.8264 11.1618 36.0267 11.2905 36.0455 11.7609C36.0513 11.9268 36.047 12.0941 36.0455 12.2613C35.9991 18.0021 35.9338 23.7428 35.9265 29.4836C35.9265 30.3543 35.6 30.8305 34.8482 31.2108C33.7176 31.7827 32.6349 32.4447 31.3882 33.1482C31.3273 32.745 31.2489 32.4619 31.2489 32.1788C31.2489 30.7733 31.2823 29.3678 31.2794 27.9622C31.2779 26.7011 30.7772 26.4123 29.6597 27.0228C27.8659 28.0037 26.0822 29.0003 24.2898 29.9826C23.7107 30.3 23.4219 30.7504 23.4248 31.4253C23.4321 33.1639 23.4379 34.904 23.358 36.6413C23.3392 37.0516 23.0924 37.605 22.7644 37.8209C21.6266 38.5758 20.4089 39.2149 19.216 39.8884C19.1013 39.9527 18.9489 39.9527 18.7356 39.9999L18.7385 39.9971Z" fill="white"/>
<path d="M16.5165 13.1085C15.4324 13.7319 14.5064 14.2638 13.5805 14.7971C13.1436 15.0488 12.7329 15.369 12.2641 15.5378C11.2119 15.9181 11.0015 16.6573 11.0566 17.6639C11.1248 18.8979 11.0639 20.1389 11.0421 21.3757C11.0378 21.6217 10.9521 21.8676 10.9028 22.1135C10.6648 22.0377 10.405 21.9977 10.1916 21.8805C9.20184 21.3357 8.23961 20.7423 7.23674 20.2233C6.72152 19.9574 6.45448 19.5899 6.45593 19.0466C6.45593 17.3808 6.45012 15.7136 6.51979 14.0493C6.53285 13.7391 6.8086 13.3287 7.0858 13.16C8.39925 12.3636 9.73012 11.5857 11.1103 10.9123C11.5211 10.7121 12.1988 10.6992 12.6066 10.898C13.8766 11.5171 15.0768 12.2778 16.518 13.1056L16.5165 13.1085Z" fill="white"/>
<path d="M29.7628 14.8446C29.7628 15.285 29.7686 15.7268 29.7628 16.1672C29.7454 17.1895 29.7628 18.2147 29.6772 19.2313C29.6496 19.563 29.4232 19.9962 29.1489 20.1692C28.0343 20.8741 26.8689 21.499 25.718 22.1453C25.3624 22.344 25.1505 22.2096 25.149 21.8207C25.149 20.4652 25.1418 19.1097 25.1926 17.7557C25.2027 17.4883 25.3871 17.118 25.6091 16.9836C26.895 16.2015 28.2157 15.4751 29.5248 14.7288C29.6046 14.7674 29.6844 14.806 29.7643 14.8446H29.7628Z" fill="white"/>
<path d="M6.30775 32.6773C6.30775 31.5048 6.29469 30.3066 6.33388 29.1084C6.33678 29.0198 6.78379 28.8167 6.9057 28.8825C7.8331 29.3787 8.73872 29.9134 9.62548 30.4768C9.74014 30.5497 9.78513 30.9958 9.72417 31.0301C8.66761 31.6249 7.58782 32.1825 6.51239 32.743C6.48336 32.7573 6.42531 32.7173 6.3063 32.6773H6.30775Z" fill="white"/>
<path d="M29.5949 33.1053C28.3467 32.3804 27.219 31.727 25.9404 30.9849C27.0521 30.0355 28.309 29.5222 29.5949 28.793V33.1053Z" fill="white"/>
<path d="M19.7949 6.12353C21.0837 5.38717 22.2143 4.73946 23.5756 3.96021C23.6032 5.42435 23.6003 6.70547 23.5118 8.22108C22.2114 7.48615 21.0866 6.85274 19.7935 6.1221L19.7949 6.12353Z" fill="white"/>
</svg>
