<svg width="200" height="50" viewBox="0 0 200 50" fill="none" xmlns="http://www.w3.org/2000/svg">
<path d="M123.144 13.3345C124.722 13.3974 125.902 13.7977 126.609 15.0159C126.794 15.3348 126.883 15.8023 126.79 16.1426C126.745 16.3099 126.188 16.3829 125.853 16.4215C125.307 16.4829 124.834 16.4072 124.5 15.8395C124.204 15.3377 122.876 15.2161 122.44 15.6079C122.269 15.7623 122.097 16.1198 122.168 16.2813C122.285 16.5501 122.562 16.8318 122.838 16.9362C123.692 17.2579 124.597 17.4481 125.445 17.7798C126.548 18.2116 127.255 19.3612 127.141 20.3663C127.009 21.5359 126.088 22.5683 124.959 22.8642C123.52 23.2417 122.131 23.1917 120.825 22.441C120.1 22.0235 119.677 21.3801 119.541 20.5508C119.464 20.0775 119.606 19.793 120.117 19.7887C120.845 19.7815 121.577 19.6128 121.996 20.5579C122.291 21.2214 123.857 21.2657 124.42 20.7481C124.824 20.3778 124.79 19.7858 124.282 19.5814C123.529 19.2768 122.739 19.0552 121.956 18.8264C120.538 18.4118 119.697 17.5253 119.682 16.39C119.663 15.1103 120.477 14.078 121.888 13.6362C122.365 13.4875 122.863 13.4002 123.143 13.3345H123.144Z" fill="white"/>
<path d="M90.0349 18.2181C90.0349 19.4792 90.0146 20.7417 90.0436 22.0028C90.0566 22.6091 89.8317 22.8993 89.2047 22.8593C89.0117 22.8464 88.8172 22.845 88.6256 22.8579C88.0233 22.8965 87.8114 22.6062 87.8318 22.0386C87.8579 21.3022 87.8201 20.563 87.8434 19.8252C87.8579 19.3548 87.7157 19.116 87.1932 19.1317C86.3717 19.156 85.5503 19.1475 84.7288 19.1289C84.2862 19.1189 84.1236 19.3133 84.1294 19.728C84.1381 20.513 84.1164 21.2994 84.1323 22.0843C84.1439 22.6348 83.8827 22.8707 83.3428 22.8521C83.1019 22.845 82.8595 22.845 82.6186 22.8493C82.1716 22.8564 81.9452 22.6491 81.9452 22.2044C81.9481 19.5621 81.935 16.9198 81.9582 14.2789C81.9655 13.3524 82.742 13.6412 83.2615 13.5826C83.7651 13.5254 84.1193 13.7199 84.1236 14.2846C84.1294 15.0696 84.1352 15.856 84.1294 16.641C84.1251 17.14 84.321 17.3773 84.8682 17.3516C85.6156 17.3159 86.3659 17.3202 87.1148 17.3473C87.6431 17.3673 87.8637 17.1657 87.8492 16.6439C87.8289 15.8832 87.8637 15.1197 87.8405 14.359C87.8143 13.514 88.4152 13.554 88.9769 13.5483C89.5371 13.5426 90.0566 13.5826 90.0421 14.3619C90.0189 15.6473 90.0363 16.9327 90.0363 18.2181H90.0407H90.0349Z" fill="white"/>
<path d="M100.908 22.3212C100.908 23.1505 100.916 23.8353 100.905 24.5202C100.89 25.3438 100.729 25.4825 99.8454 25.4882C98.9238 25.4925 98.7003 25.3181 98.6988 24.5202C98.6916 22.0223 98.6901 19.5244 98.7046 17.0265C98.7075 16.579 98.5421 16.0256 99.1894 15.824C99.9441 15.5895 100.6 15.8126 100.951 16.3817C101.433 16.1758 101.895 15.8669 102.392 15.7869C103.757 15.5667 104.906 16.2759 105.408 17.5741C106.005 19.1155 105.929 20.6111 104.935 21.978C104.169 23.0304 102.614 23.2934 101.497 22.6214C101.359 22.5385 101.208 22.4741 100.908 22.3226V22.3212ZM103.591 19.3857C103.461 18.9668 103.434 18.5164 103.201 18.2276C102.95 17.9173 102.51 17.5956 102.144 17.5856C101.815 17.577 101.356 17.913 101.163 18.2233C100.67 19.0111 100.754 19.8633 101.221 20.6554C101.635 21.356 102.752 21.3589 103.136 20.6483C103.345 20.2622 103.44 19.8161 103.591 19.3857Z" fill="white"/>
<path d="M158.433 16.4172C158.433 15.7123 158.426 15.1218 158.434 14.5313C158.447 13.6462 158.591 13.5146 159.513 13.5146C160.459 13.5146 160.636 13.6734 160.637 14.5756C160.642 16.982 160.642 19.3898 160.63 21.7962C160.629 22.1794 160.767 22.7327 160.209 22.7971C159.616 22.8657 158.899 23.186 158.445 22.4425C158.424 22.4082 158.368 22.3939 158.356 22.5268C157.645 22.6755 156.931 22.9615 156.225 22.9429C154.953 22.9086 153.953 21.9192 153.686 20.4865C153.455 19.2525 153.477 18.0129 154.279 16.9248C155.217 15.6522 156.58 15.382 157.954 16.1941C158.056 16.2542 158.167 16.2942 158.434 16.4186L158.433 16.4172ZM158.562 19.417C158.449 19.0223 158.373 18.6749 158.25 18.3446C158.07 17.8627 157.749 17.5482 157.179 17.5425C156.612 17.5367 156.301 17.8442 156.076 18.3103C155.69 19.1095 155.767 19.8859 156.188 20.6366C156.585 21.3487 157.706 21.3758 158.106 20.6623C158.323 20.2777 158.417 19.8259 158.562 19.417Z" fill="white"/>
<path d="M141.737 20.1C141.737 20.815 141.731 21.5284 141.737 22.2433C141.742 22.6852 141.519 22.9497 141.088 22.9182C140.556 22.8782 140.03 22.7352 139.498 22.6709C139.334 22.6508 139.144 22.7109 138.985 22.781C138.18 23.1384 137.377 23.2342 136.527 22.9082C135.698 22.5908 135.134 21.8602 135.083 20.9465C135.038 20.1172 135.54 19.2607 136.35 18.9648C136.93 18.7531 137.554 18.6602 138.163 18.5258C138.419 18.4686 138.704 18.4872 138.938 18.3857C139.102 18.3142 139.319 18.074 139.296 17.9496C139.266 17.7937 139 17.555 138.859 17.5707C138.453 17.615 138.004 17.6836 137.673 17.8967C137.16 18.227 136.186 18.3785 135.723 17.9868C135.572 17.8595 135.488 17.4005 135.592 17.2804C136.023 16.79 136.47 16.2338 137.039 15.955C138.261 15.3587 140.749 15.456 141.521 17.2089C141.641 17.4835 141.713 17.798 141.726 18.0983C141.756 18.7632 141.734 19.4309 141.734 20.0986L141.737 20.1ZM138.009 21.3726C138.788 21.354 139.424 20.8364 139.37 20.3774C139.354 20.2473 139.07 20.0529 138.907 20.0514C138.058 20.0471 137.376 20.4403 137.508 20.845C137.589 21.0952 137.907 21.2696 138.01 21.3712L138.009 21.3726Z" fill="white"/>
<path d="M146.047 19.3546C145.933 17.3943 147.14 16.2819 148.347 15.8516C149.716 15.364 151.314 15.8244 152.21 16.9411C152.794 17.6674 152.981 18.5096 152.911 19.4218C152.875 19.9037 152.557 19.9895 152.157 19.9909C151.093 19.9938 150.029 19.9909 148.965 20.0109C148.768 20.0152 148.572 20.1153 148.376 20.1725C148.454 20.4098 148.472 20.7001 148.624 20.8745C149.105 21.425 149.97 21.4808 150.582 20.9403C151.174 20.417 151.814 20.5957 152.431 20.6987C152.911 20.7787 152.791 21.1705 152.63 21.4965C152.086 22.5946 150.507 23.2824 149.079 23.0407C147.025 22.6947 146.038 21.4936 146.048 19.3546H146.047ZM149.547 18.5139V18.5182C149.739 18.5182 149.936 18.5482 150.119 18.5096C150.303 18.471 150.473 18.3623 150.649 18.2851C150.556 18.1064 150.485 17.7918 150.366 17.7732C149.856 17.6932 149.327 17.6517 148.817 17.7046C148.668 17.7203 148.556 18.0935 148.428 18.3023C148.634 18.3723 148.836 18.4638 149.049 18.5067C149.209 18.5396 149.382 18.5139 149.55 18.5139H149.547Z" fill="white"/>
<path d="M110.942 19.9997C110.362 19.9997 109.781 19.9925 109.202 20.0025C108.732 20.0111 108.685 20.2556 108.874 20.6188C109.23 21.3065 110.218 21.5839 110.864 21.0549C111.397 20.6173 111.942 20.5845 112.55 20.6302C113.244 20.6817 113.433 21.0534 113.035 21.6282C112.553 22.3231 111.907 22.7678 111.048 22.9465C109.614 23.2439 108.315 23.0209 107.353 21.8985C106.376 20.7589 106.25 19.4234 106.71 17.9993C107.532 15.46 110.796 15.1325 112.35 16.5795C113.177 17.3488 113.356 18.3368 113.396 19.3748C113.414 19.8238 113.112 19.9968 112.685 19.9939C112.105 19.9911 111.524 19.9939 110.945 19.9939V20.0011L110.942 19.9997ZM111.111 18.4726C111.058 17.6419 110.572 17.4946 109.968 17.4975C109.347 17.5018 108.95 17.7663 108.819 18.4726H111.111Z" fill="white"/>
<path d="M94.4539 20.2484C94.7224 19.3777 94.9938 18.5069 95.2579 17.6333C95.3276 17.406 95.3595 17.1672 95.435 16.9413C95.8109 15.8231 96.2375 15.5901 97.4247 15.8031C97.953 15.8989 97.953 16.2564 97.8282 16.611C96.9995 18.9673 96.1795 21.3294 95.2956 23.6657C94.8094 24.9526 93.6469 25.6389 92.3509 25.5417C91.9358 25.5102 91.4293 25.4587 91.4554 24.9297C91.4816 24.4178 91.483 23.8001 92.2435 23.6614C93.2246 23.4827 93.3523 23.201 93.0258 22.296C92.348 20.4157 91.6934 18.5269 91.0404 16.6367C90.8197 15.999 90.9547 15.8317 91.6499 15.8003C92.9474 15.7388 93.0548 15.8403 93.3784 17.0757C93.6542 18.128 93.9822 19.1675 94.287 20.2127C94.3421 20.2241 94.3973 20.2356 94.4524 20.247L94.4539 20.2484Z" fill="white"/>
<path d="M84.3224 34.0262C84.5299 33.2641 84.7374 32.502 84.9464 31.7413C85.1917 30.8463 85.4457 29.9526 85.6779 29.0533C85.7853 28.6386 85.9638 28.3855 86.4558 28.3712C86.9826 28.3555 87.1974 28.6329 87.3121 29.0633C87.6865 30.4659 88.0508 31.8714 88.4325 33.2741C88.5094 33.5543 88.6371 33.8217 88.7402 34.0948C88.8026 34.0877 88.865 34.0805 88.926 34.0748C89.1117 33.3556 89.2946 32.6364 89.4847 31.9186C89.7474 30.9292 90.029 29.944 90.2757 28.9503C90.3932 28.4799 90.6792 28.3083 91.1233 28.4084C91.6733 28.5328 91.489 28.9174 91.3932 29.2634C90.7967 31.4454 90.2263 33.6359 89.5834 35.8035C89.4934 36.108 89.0871 36.4612 88.7707 36.5284C88.2351 36.6428 88.061 36.1352 87.942 35.7177C87.5153 34.2292 87.1074 32.7351 86.6895 31.2452C86.6517 31.1122 86.5951 30.9835 86.3992 30.8305C86.1017 31.8586 85.8013 32.8852 85.5095 33.9161C85.3281 34.5581 85.2222 35.2272 84.9667 35.8378C84.8434 36.1323 84.4573 36.4969 84.183 36.5026C83.916 36.5084 83.4762 36.1423 83.3935 35.8592C82.7506 33.6644 82.1744 31.4525 81.5852 29.2434C81.5024 28.9332 81.3268 28.5557 81.8275 28.4227C82.2774 28.304 82.5604 28.4842 82.6809 28.9489C83.0568 30.4002 83.4516 31.8471 83.8391 33.2956C83.9029 33.5358 83.9697 33.7745 84.035 34.0133C84.1308 34.019 84.2266 34.0248 84.3209 34.0305L84.3224 34.0262Z" fill="white"/>
<path d="M131.295 15.605C132.919 15.6793 133.961 16.3399 134.488 17.6911C134.752 18.3674 134.549 18.6648 133.799 18.7048C133.155 18.7392 132.597 18.7091 132.192 18.04C132.03 17.7697 131.423 17.5638 131.097 17.641C130.754 17.7225 130.339 18.1415 130.255 18.4846C130.118 19.0423 130.124 19.6828 130.266 20.239C130.352 20.5722 130.767 20.9225 131.118 21.064C131.555 21.2399 131.995 21.0655 132.298 20.6165C132.649 20.0961 133.777 19.823 134.281 20.1675C134.461 20.2905 134.575 20.7094 134.513 20.9382C134.082 22.4982 132.438 23.4061 130.741 23.0715C128.975 22.7226 128.033 21.7189 127.79 19.9259C127.548 18.1315 128.274 16.6788 129.837 15.9696C130.284 15.7665 130.806 15.7222 131.294 15.605H131.295Z" fill="white"/>
<path d="M100.251 30.8801C102.302 29.6318 104.373 30.6556 104.558 32.7603C104.637 33.6582 104.674 34.5562 104.159 35.3926C103.384 36.6523 102.056 37.024 100.746 36.3334C100.574 36.2434 100.255 36.292 100.066 36.3906C99.4656 36.708 99.0317 36.5422 99.0244 35.8802C99.0012 33.5953 99.0201 31.309 99.0215 29.0242C99.0215 28.6338 99.1739 28.3779 99.6079 28.3707C100.074 28.3636 100.248 28.6353 100.251 29.0528C100.254 29.6104 100.251 30.1666 100.251 30.8772V30.8801ZM100.268 33.4452C100.281 34.7592 100.804 35.4855 101.76 35.517C102.714 35.5485 103.304 34.8593 103.384 33.6239C103.463 32.41 102.917 31.5006 102.049 31.4005C100.904 31.269 100.254 32.0154 100.268 33.4438V33.4452Z" fill="white"/>
<path d="M126.442 33.9444C125.934 33.9444 125.427 33.9373 124.921 33.9473C124.468 33.9559 124.394 34.1861 124.565 34.5621C124.957 35.4186 126.359 35.7274 127.102 35.1126C127.212 35.0211 127.313 34.8381 127.418 34.8367C127.745 34.8324 128.108 34.8281 128.381 34.9696C128.474 35.0182 128.44 35.5659 128.294 35.7617C127.15 37.2831 124.333 36.9728 123.459 35.2256C122.802 33.9116 122.848 32.599 123.71 31.3693C124.482 30.2684 125.734 29.9252 127.121 30.4342C128.327 30.876 128.803 32.1429 128.778 33.2696C128.774 33.494 128.371 33.8515 128.104 33.9015C127.567 34.0016 126.999 33.9316 126.443 33.9316C126.443 33.9373 126.443 33.9416 126.443 33.9473L126.442 33.9444ZM124.419 32.792C125.314 32.792 126.056 32.7891 126.799 32.792C127.35 32.7949 127.414 32.5418 127.182 32.1143C126.866 31.5309 126.347 31.3465 125.725 31.4408C125.038 31.5452 124.668 31.9927 124.419 32.792Z" fill="white"/>
<path d="M110.367 32.3258C110.607 32.586 110.936 32.8462 111.139 33.1808C111.916 34.4619 111.209 35.9704 109.592 36.5538C108.222 37.0471 106.483 36.4422 105.915 35.2197C105.807 34.9895 105.958 34.645 105.989 34.3518C106.309 34.419 106.809 34.3819 106.92 34.5692C107.435 35.4357 108.205 35.4928 109.055 35.3799C109.675 35.2984 110.075 34.9609 110.112 34.3118C110.149 33.6384 109.761 33.2409 109.155 33.0521C108.862 32.9606 108.505 33.0478 108.232 32.9306C107.996 32.8277 107.689 32.5503 107.688 32.3487C107.687 32.1413 108.003 31.9154 108.211 31.731C108.28 31.6681 108.443 31.701 108.565 31.6995C109.119 31.6867 109.634 31.4936 109.727 30.9389C109.792 30.5485 109.694 30.0152 109.451 29.7164C109.046 29.2173 108.401 29.276 107.856 29.5433C107.573 29.6835 107.404 30.0338 107.129 30.2068C106.861 30.3755 106.523 30.4398 106.215 30.5499C106.17 30.2311 105.987 29.8465 106.103 29.6034C106.549 28.6783 107.404 28.318 108.401 28.2393C110.062 28.1078 111.395 29.3803 111.084 30.8831C110.98 31.3907 110.612 31.8468 110.364 32.3258H110.367Z" fill="white"/>
<path d="M145.084 18.2256C145.084 19.511 145.065 20.7978 145.093 22.0832C145.106 22.7066 144.836 22.9597 144.231 22.9254C144.158 22.9211 144.085 22.9254 144.013 22.9268C142.842 22.9397 142.775 22.8782 142.772 21.7401C142.768 19.358 142.752 16.9773 142.782 14.5967C142.786 14.2349 142.946 13.633 143.167 13.5658C143.66 13.4157 144.251 13.4728 144.773 13.5801C144.927 13.6115 145.068 14.0905 145.075 14.3679C145.107 15.6533 145.09 16.9402 145.09 18.2256H145.084Z" fill="white"/>
<path d="M116.484 16.0407C117.296 15.9291 117.91 15.7933 118.524 15.7919C118.694 15.7919 118.999 16.1836 119.012 16.4081C119.051 17.1373 118.505 17.6521 117.771 17.6921C117.073 17.7307 116.588 18.214 116.572 18.9518C116.549 19.9727 116.536 20.9964 116.572 22.0173C116.597 22.7108 116.296 22.9753 115.626 22.9195C115.387 22.8995 115.101 22.981 114.913 22.8795C114.665 22.7437 114.32 22.4763 114.314 22.259C114.269 20.3115 114.272 18.3613 114.32 16.4138C114.326 16.1994 114.69 15.8419 114.919 15.8147C115.516 15.7461 116.195 15.5817 116.482 16.0392L116.484 16.0407Z" fill="white"/>
<path d="M118.952 36.8664C118.57 36.5103 118.207 36.3259 118.098 36.0457C117.349 34.1154 116.654 32.1651 115.94 30.222C115.825 29.9103 115.673 29.6086 115.583 29.2897C115.492 28.9652 115.267 28.5505 115.791 28.3904C116.255 28.2488 116.661 28.3804 116.846 28.8808C117.135 29.6629 117.42 30.4465 117.696 31.2329C118.018 32.1522 118.319 33.0802 118.65 33.9967C118.695 34.1225 118.86 34.2083 118.969 34.3127C119.052 34.2083 119.168 34.1154 119.21 33.9967C119.792 32.3596 120.361 30.7181 120.944 29.0824C121.014 28.8865 121.113 28.6134 121.269 28.5519C121.555 28.4404 121.904 28.4104 122.207 28.4576C122.285 28.4704 122.394 28.9266 122.326 29.1253C121.873 30.4522 121.378 31.7662 120.891 33.0816C120.535 34.041 120.204 35.0119 119.793 35.947C119.654 36.2644 119.301 36.4932 118.949 36.8649L118.952 36.8664Z" fill="white"/>
<path d="M150.595 33.4928C150.703 31.2108 152.34 29.8654 154.428 30.4001C155.626 30.7076 156.594 32.3061 156.208 33.4414C156.141 33.6373 155.745 33.826 155.492 33.8389C154.552 33.8875 153.608 33.8546 152.665 33.8675C152.061 33.876 151.902 34.1477 152.16 34.6825C152.597 35.5833 154 35.8349 154.777 35.15C154.884 35.0556 154.98 34.8712 155.084 34.8698C155.373 34.864 155.679 34.8941 155.939 35.0042C155.997 35.0285 155.964 35.486 155.845 35.6576C154.762 37.2204 151.977 36.943 151.119 35.1743C150.865 34.651 150.765 34.0562 150.594 33.4943L150.595 33.4928ZM153.485 32.8251V32.8323C153.775 32.8323 154.064 32.8366 154.354 32.8323C154.994 32.8194 155.142 32.5863 154.823 32.0516C154.491 31.4954 153.933 31.2309 153.347 31.4268C152.89 31.5797 152.517 31.993 152.135 32.3233C152.114 32.3418 152.324 32.7665 152.475 32.8037C152.793 32.8823 153.145 32.828 153.484 32.828L153.485 32.8251Z" fill="white"/>
<path d="M129.681 33.4172C129.681 32.6323 129.68 31.8459 129.681 31.0609C129.683 30.4789 130.072 30.1086 130.548 30.3374C131.196 30.6477 131.672 30.3903 132.224 30.213C133.193 29.9027 134.513 30.6248 134.746 31.5942C134.862 32.0789 134.979 32.5765 134.987 33.0712C135.006 34.0221 134.961 34.9729 134.92 35.9237C134.902 36.3498 134.682 36.7359 134.215 36.6115C133.967 36.5457 133.662 36.1525 133.642 35.888C133.568 34.9171 133.613 33.9377 133.595 32.9625C133.578 31.9674 133.134 31.4312 132.363 31.4398C131.601 31.4484 131.117 32.0174 131.099 32.9597C131.082 33.912 131.102 34.8642 131.08 35.8165C131.07 36.2297 131.012 36.6715 130.424 36.6458C129.874 36.6229 129.686 36.254 129.678 35.7736C129.668 34.9886 129.675 34.2022 129.675 33.4172C129.677 33.4172 129.678 33.4172 129.68 33.4172H129.681Z" fill="white"/>
<path d="M95.4837 33.8649C94.9771 33.8649 94.4692 33.8678 93.9627 33.8649C93.4547 33.862 93.3125 34.0708 93.52 34.5383C93.9757 35.5578 95.3197 35.8681 96.1861 35.1417C96.2413 35.096 96.2877 35.0402 96.3399 34.9902C96.6708 34.6642 97.0845 34.6213 97.3414 34.9701C97.4618 35.1346 97.353 35.6093 97.1846 35.808C96.2891 36.8661 94.4256 36.9848 93.3067 36.1026C91.7291 34.8586 91.7973 31.9346 93.4315 30.765C94.2326 30.1902 95.5751 30.113 96.3849 30.6035C97.3951 31.2169 97.7506 32.1791 97.7231 33.2772C97.7187 33.4774 97.3268 33.7934 97.0758 33.8363C96.5605 33.9235 96.0177 33.862 95.4866 33.862V33.8649H95.4837ZM93.491 32.8183C94.3574 32.8183 95.2166 32.8354 96.0743 32.8111C96.5228 32.7982 96.4793 32.4894 96.353 32.1977C96.0918 31.5943 95.4227 31.2855 94.6622 31.4013C94.0106 31.5014 93.581 31.989 93.4924 32.8183H93.491Z" fill="white"/>
<path d="M143.76 36.1881C142.403 36.9745 141.27 36.8087 140.576 35.599C140.406 35.3016 140.31 34.927 140.299 34.5853C140.261 33.4186 140.278 32.2504 140.271 31.0822C140.268 30.649 140.377 30.3201 140.91 30.3344C141.406 30.3473 141.583 30.6318 141.583 31.0794C141.583 32.0559 141.57 33.0339 141.593 34.0105C141.616 34.9985 141.937 35.3688 142.696 35.3646C143.539 35.3603 144.03 34.8527 144.044 33.9362C144.059 33.0068 144.058 32.0774 144.047 31.148C144.043 30.6833 144.15 30.3359 144.714 30.3459C145.275 30.3559 145.37 30.7176 145.368 31.1723C145.361 32.6493 145.39 34.1278 145.342 35.6048C145.332 35.9293 145.142 36.4055 144.895 36.5199C144.664 36.6271 144.248 36.3468 143.76 36.1881Z" fill="white"/>
<path d="M159.752 36.6666C158.77 36.6608 158.049 36.4121 157.571 35.74C157.432 35.5441 157.377 35.1109 157.5 34.9493C157.755 34.6191 158.108 34.6991 158.43 35.0022C159.146 35.6786 159.715 35.8072 160.356 35.4126C160.572 35.2796 160.825 34.9822 160.815 34.772C160.805 34.5647 160.52 34.2945 160.291 34.1901C159.902 34.0128 159.465 33.9327 159.043 33.8327C158.004 33.5853 157.349 32.8804 157.39 32.0368C157.43 31.1961 158.137 30.5197 159.169 30.3482C160.101 30.1937 160.975 30.2938 161.578 31.0988C161.722 31.2904 161.664 31.6293 161.7 31.8995C161.403 31.8781 161.092 31.8995 160.811 31.8237C160.371 31.7051 159.951 31.4091 159.52 31.402C159.233 31.3977 158.941 31.768 158.651 31.971C158.879 32.237 159.057 32.5973 159.348 32.7474C159.742 32.9519 160.236 32.959 160.661 33.1192C161.754 33.5281 162.095 33.9799 162.051 34.8578C162.012 35.65 161.482 36.2462 160.516 36.5393C160.22 36.6294 159.901 36.6423 159.754 36.6651L159.752 36.6666Z" fill="white"/>
<path d="M138.747 36.6739C137.509 36.681 136.689 35.939 136.649 34.9438C136.613 34.0401 136.632 33.1351 136.632 32.23C136.632 31.8396 136.652 31.4693 136.111 31.3649C135.972 31.3378 135.799 31.059 135.793 30.8902C135.787 30.723 135.943 30.4341 136.08 30.3984C136.529 30.284 136.645 30.0181 136.636 29.6134C136.625 29.1459 136.809 28.8213 137.343 28.8213C137.861 28.8213 137.995 29.1587 137.992 29.582C137.989 30.0567 138.137 30.3312 138.693 30.3612C138.887 30.3712 139.066 30.6786 139.253 30.8502C139.054 31.0404 138.864 31.3792 138.657 31.3907C138.083 31.4207 137.979 31.6967 137.992 32.1728C138.012 32.9335 138.003 33.6956 137.998 34.4577C137.993 34.9567 138.115 35.2941 138.706 35.4342C138.938 35.4886 139.201 35.9261 139.214 36.1992C139.223 36.3893 138.829 36.5981 138.748 36.6739H138.747Z" fill="white"/>
<path d="M146.677 33.4574C146.677 32.6967 146.658 31.9361 146.682 31.1768C146.706 30.4104 147.14 30.1774 147.832 30.4948C147.985 30.5649 148.198 30.5363 148.378 30.5105C148.822 30.4447 149.262 30.2975 149.703 30.3003C149.882 30.3018 150.237 30.6821 150.202 30.7665C150.101 31.0138 149.876 31.3327 149.644 31.387C148.057 31.7573 147.972 31.836 147.967 33.4717C147.966 34.2324 147.967 34.9916 147.963 35.7523C147.96 36.1497 147.927 36.5558 147.382 36.5587C146.843 36.5615 146.709 36.1783 146.69 35.7394C146.674 35.3605 146.682 34.9787 146.68 34.5998C146.68 34.2195 146.68 33.8391 146.68 33.4588L146.677 33.4574Z" fill="white"/>
<path d="M38.3299 15.9058C39.7464 16.7208 41.0758 17.44 42.3457 18.2507C42.6113 18.4194 42.7797 18.9198 42.7855 19.2701C42.8101 21.0088 42.7855 22.7489 42.7347 24.4876C42.7129 25.2368 42.9712 25.7444 43.6432 26.1219C45.4254 27.1213 47.1815 28.1679 48.9565 29.1802C49.8999 29.7179 50.4935 29.3904 50.5225 28.2938C50.5602 26.8411 50.5399 25.3869 50.553 23.9328C50.5602 23.1149 50.6792 23.0606 51.4107 23.4838C52.431 24.0743 53.4498 24.6663 54.4759 25.2425C54.9592 25.5142 55.2001 25.8659 55.1943 26.4464C55.1348 32.3788 55.1 38.3125 55.0521 44.2463C55.0463 44.9727 54.8837 45.0556 54.2393 44.6838C53.2176 44.0962 52.2133 43.4799 51.1799 42.9137C50.5834 42.5877 50.3324 42.1645 50.3585 41.4739C50.4194 39.8081 50.389 38.1381 50.4354 36.4709C50.4557 35.7288 50.2148 35.2198 49.5312 34.8381C47.7896 33.8644 46.0843 32.8263 44.3558 31.8283C43.2383 31.1834 42.7013 31.4951 42.6853 32.792C42.6679 34.1746 42.681 35.5558 42.6548 36.9385C42.6505 37.2001 42.5257 37.4604 42.4575 37.7206C42.2223 37.6348 41.9713 37.5805 41.7565 37.4604C40.7507 36.8956 39.7638 36.2951 38.7522 35.7417C38.192 35.4357 37.9322 35.0597 37.9453 34.3848C38.0498 28.4997 38.1151 22.6145 38.1993 16.7308C38.2022 16.4877 38.2762 16.2461 38.3328 15.9086L38.3299 15.9058Z" fill="white"/>
<path d="M60.7864 7.51741C59.9084 8.02929 59.2205 8.44251 58.5224 8.83571C57.7256 9.28325 56.9114 9.70075 56.119 10.1554C55.1031 10.7388 55.0624 11.3665 56.0566 11.9542C57.9389 13.0694 59.8402 14.1561 61.769 15.1898C62.0781 15.3557 62.6456 15.3214 62.9707 15.1512C64.6107 14.2919 66.2173 13.3697 67.8196 12.4446C68.3174 12.1572 68.7426 12.1629 69.2361 12.4589C70.2665 13.078 71.326 13.6485 72.3651 14.2533C72.5785 14.3777 72.7555 14.5607 73.04 14.7881C71.6598 15.5673 70.3928 16.288 69.12 16.9986C65.0679 19.262 61.0027 21.5054 56.9666 23.7974C56.2438 24.2077 55.6836 24.2192 54.9884 23.7688C53.8854 23.0524 52.7243 22.4233 51.4834 21.697C51.7302 21.4911 51.9 21.2995 52.1104 21.1822C53.3716 20.4802 54.643 19.7982 55.9085 19.1047C57.0333 18.4885 57.0609 17.8407 55.9463 17.1816C54.0842 16.0792 52.2106 14.994 50.3108 13.9559C50.0437 13.8101 49.5416 13.8544 49.2542 14.0074C47.5533 14.9067 45.8915 15.8776 44.1934 16.7841C43.9119 16.9342 43.4402 17.0329 43.1935 16.9013C41.9192 16.2279 40.6885 15.4715 39.4418 14.7437C39.317 14.6708 39.1907 14.6022 38.9062 14.4435C40.0078 13.8272 40.9004 13.3254 41.7958 12.8292C46.3806 10.2856 50.9697 7.74762 55.5457 5.18823C55.9826 4.94373 56.312 4.93086 56.7416 5.18823C57.997 5.94032 59.2756 6.6538 60.7835 7.51741H60.7864Z" fill="white"/>
<path d="M56.6425 44.9973C56.6135 44.6985 56.5671 44.4468 56.57 44.1952C56.6338 38.3115 56.7093 32.4292 56.7644 26.5454C56.7702 25.9249 57.0054 25.5245 57.5612 25.2314C58.7905 24.5823 59.998 23.8945 61.3303 23.1568C61.3709 23.5414 61.4246 23.8102 61.4246 24.079C61.4246 25.5088 61.4014 26.9372 61.4043 28.367C61.4058 29.5223 61.8804 29.8555 62.8847 29.3193C64.8135 28.2884 66.7046 27.1874 68.616 26.1236C69.1544 25.8234 69.2749 25.3472 69.2763 24.7925C69.2792 23.0295 69.3068 21.2665 69.2865 19.505C69.2792 18.9073 69.4969 18.5356 70.0339 18.251C71.1384 17.6662 72.2152 17.0314 73.2994 16.4094C73.7304 16.1621 73.9307 16.2907 73.9496 16.7612C73.9554 16.927 73.951 17.0943 73.9496 17.2616C73.9031 23.0023 73.8378 28.7431 73.8306 34.4838C73.8306 35.3546 73.504 35.8307 72.7522 36.211C71.6217 36.783 70.539 37.445 69.2923 38.1485C69.2313 37.7452 69.1529 37.4621 69.1529 37.179C69.1529 35.7735 69.1863 34.368 69.1834 32.9625C69.182 31.7014 68.6813 31.4126 67.5637 32.0231C65.7699 33.0039 63.9862 34.0005 62.1938 34.9828C61.6148 35.3002 61.3259 35.7506 61.3289 36.4255C61.3361 38.1642 61.3419 39.9043 61.2621 41.6415C61.2432 42.0519 60.9965 42.6052 60.6685 42.8211C59.5307 43.5761 58.313 44.2152 57.12 44.8886C57.0054 44.953 56.853 44.953 56.6396 45.0002L56.6425 44.9973Z" fill="white"/>
<path d="M54.4206 18.1085C53.3364 18.7319 52.4105 19.2638 51.4845 19.7971C51.0477 20.0488 50.637 20.369 50.1682 20.5378C49.116 20.9181 48.9055 21.6573 48.9607 22.6639C49.0289 23.8979 48.9679 25.1389 48.9462 26.3757C48.9418 26.6217 48.8562 26.8676 48.8068 27.1135C48.5688 27.0377 48.309 26.9977 48.0957 26.8805C47.1059 26.3357 46.1437 25.7423 45.1408 25.2233C44.6256 24.9574 44.3585 24.5899 44.36 24.0466C44.36 22.3808 44.3542 20.7136 44.4238 19.0493C44.4369 18.7391 44.7127 18.3287 44.9899 18.16C46.3033 17.3636 47.6342 16.5857 49.0144 15.9123C49.4251 15.7121 50.1029 15.6992 50.5107 15.898C51.7806 16.5171 52.9809 17.2778 54.422 18.1056L54.4206 18.1085Z" fill="white"/>
<path d="M67.6669 19.8443C67.6669 20.2847 67.6727 20.7265 67.6669 21.1669C67.6494 22.1892 67.6669 23.2144 67.5812 24.231C67.5537 24.5627 67.3272 24.996 67.0529 25.169C65.9383 25.8739 64.7729 26.4987 63.622 27.145C63.2664 27.3438 63.0545 27.2094 63.0531 26.8204C63.0531 25.465 63.0458 24.1095 63.0966 22.7555C63.1068 22.4881 63.2911 22.1178 63.5132 21.9833C64.799 21.2012 66.1197 20.4749 67.4288 19.7285C67.5087 19.7671 67.5885 19.8057 67.6683 19.8443H67.6669Z" fill="white"/>
<path d="M44.2118 37.6773C44.2118 36.5048 44.1987 35.3066 44.2379 34.1084C44.2408 34.0198 44.6878 33.8167 44.8098 33.8825C45.7371 34.3787 46.6428 34.9134 47.5295 35.4768C47.6442 35.5497 47.6892 35.9958 47.6282 36.0301C46.5717 36.6249 45.4919 37.1825 44.4164 37.743C44.3874 37.7573 44.3294 37.7173 44.2104 37.6773H44.2118Z" fill="white"/>
<path d="M67.4989 38.1053C66.2508 37.3804 65.1231 36.727 63.8445 35.9849C64.9562 35.0355 66.213 34.5222 67.4989 33.793V38.1053Z" fill="white"/>
<path d="M57.699 11.1238C58.9877 10.3874 60.1183 9.7397 61.4797 8.96045C61.5072 10.4246 61.5043 11.7057 61.4158 13.2213C60.1154 12.4864 58.9906 11.853 57.6975 11.1223L57.699 11.1238Z" fill="white"/>
</svg>
