<svg width="257" height="40" viewBox="0 0 257 40" fill="none" xmlns="http://www.w3.org/2000/svg">
<g clip-path="url(#clip0_3016_11370)">
<mask id="mask0_3016_11370" style="mask-type:luminance" maskUnits="userSpaceOnUse" x="0" y="0" width="257" height="40">
<path d="M256.554 0H0.916504L0.928503 39.7387H256.566L256.554 0Z" fill="white"/>
</mask>
<g mask="url(#mask0_3016_11370)">
<path d="M17.9866 8.54045C16.4561 9.14046 14.907 9.71913 13.5873 10.7778C8.19917 15.1005 7.69221 22.978 12.5178 27.9994C17.0419 32.7087 24.986 32.4767 29.4085 27.5274C31.4798 25.21 33.5965 22.9326 35.6998 20.6419C36.0837 20.2233 36.401 19.8579 35.8648 19.2952C33.1092 16.4019 30.7189 13.1485 27.638 10.5858C23.8611 7.44443 19.3434 6.54309 14.5354 6.73776C9.79939 6.93243 5.90392 8.86312 2.77164 12.4578C2.49948 11.9138 2.82738 11.5912 2.98462 11.2605C8.8796 -1.169 25.775 -3.75571 35.1035 6.34575C37.0935 8.50045 39.0995 10.6391 41.0309 12.8418C41.7485 13.6605 42.1911 13.6285 42.9029 12.8418C45.3715 10.1111 47.6132 7.13776 50.4552 4.78307C56.2085 0.0176785 62.7762 -1.25967 69.8064 1.27903C77.098 3.91106 81.3877 9.31646 82.7366 16.9166C83.928 23.6206 78.9619 30.0447 71.7542 31.3994C69.4396 31.8341 67.1943 31.8234 66.0101 31.3701C66.026 30.9007 66.4447 31.0074 66.6953 30.9221C72.2522 29.0474 75.5466 23.682 74.6302 17.9859C73.7565 12.5592 68.9445 8.33245 63.3605 8.27644C60.2351 8.24445 57.3767 9.27912 55.164 11.5565C52.7807 14.0045 50.5388 16.5939 48.2302 19.1166C47.849 19.5353 47.5211 19.9006 48.0599 20.4633C50.8502 23.3833 53.3019 26.626 56.372 29.2767C59.0181 31.5594 62.1385 32.7087 65.6266 32.8981C69.5254 33.1088 73.3627 33.0394 76.8581 30.9274C78.4632 29.9567 79.8522 28.7407 81.1398 27.3327C81.4386 27.8394 81.1027 28.1567 80.9508 28.4794C75.0985 40.9115 58.155 43.5249 48.8372 33.4341C46.8472 31.2794 44.8439 29.138 42.9098 26.938C42.2109 26.1433 41.7709 26.0953 41.0378 26.9087C38.6359 29.5834 36.4288 32.4661 33.6828 34.7914C27.8948 39.6875 21.2525 41.0555 14.1263 38.4475C6.70138 35.7221 2.52099 30.1647 1.11062 22.3913C0.15168 17.1006 2.98807 13.8525 6.7499 10.9538C9.87721 8.54578 13.405 7.71377 17.2745 8.08711C17.5252 8.11111 17.8265 8.07378 17.9866 8.54045Z" fill="white"/>
<path d="M91.626 33.5776L91.6177 6.16528H97.4921L97.5004 33.5776H91.626Z" fill="white"/>
<path d="M115.475 34.0819C113.622 34.0819 111.878 33.7139 110.245 32.9753C108.613 32.2366 107.181 31.2153 105.946 29.9114C104.711 28.6074 103.745 27.0955 103.046 25.3782C102.347 23.6609 101.997 21.8237 101.996 19.8664C101.996 17.9091 102.345 16.0505 103.043 14.3359C103.741 12.6186 104.706 11.112 105.94 9.81342C107.174 8.5148 108.606 7.49617 110.238 6.76019C111.869 6.02155 113.61 5.65356 115.466 5.65356C117.685 5.65356 119.728 6.16555 121.595 7.18951C123.462 8.21347 125.009 9.58142 126.236 11.2907L120.989 14.1093C120.309 13.3253 119.492 12.6986 118.54 12.2293C117.588 11.76 116.561 11.5254 115.465 11.5254C114.37 11.5254 113.439 11.7413 112.519 12.1707C111.599 12.6027 110.789 13.1973 110.09 13.9626C109.392 14.7252 108.848 15.6105 108.457 16.6158C108.065 17.6211 107.871 18.7038 107.871 19.8664C107.871 21.029 108.066 22.093 108.459 23.0983C108.851 24.1036 109.395 24.9889 110.094 25.7515C110.793 26.5142 111.601 27.1168 112.524 27.5541C113.444 27.9914 114.425 28.2101 115.471 28.2101C116.566 28.2101 117.59 27.9728 118.545 27.4955C119.497 27.0181 120.312 26.3835 120.992 25.5862L126.241 28.4448C125.015 30.1407 123.469 31.506 121.602 32.5379C119.736 33.5699 117.694 34.0846 115.475 34.0846L115.475 34.0819Z" fill="white"/>
<path d="M129.769 33.5732L129.761 6.16089H140.099C141.6 6.16089 142.96 6.54221 144.182 7.30751C145.403 8.07015 146.372 9.08878 147.089 10.3634C147.807 11.6354 148.167 13.03 148.168 14.5446C148.168 16.0592 147.801 17.4885 147.063 18.7551C146.324 20.0217 145.343 21.0324 144.117 21.7897C142.891 22.547 141.552 22.9256 140.104 22.9256H135.64L135.643 33.5786H129.769L129.769 33.5732ZM135.638 17.0485H139.438C139.961 17.0485 140.436 16.9152 140.868 16.6458C141.299 16.3792 141.643 16.0219 141.904 15.5792C142.166 15.1366 142.296 14.6459 142.296 14.1099C142.296 13.574 142.165 13.086 141.904 12.6407C141.642 12.198 141.295 11.8407 140.866 11.574C140.434 11.3074 139.959 11.1714 139.437 11.1714H135.637L135.638 17.0458L135.638 17.0485Z" fill="white"/>
<path d="M179.74 33.5745H175.492L166.833 21.6896L164.778 24.1561L164.781 33.5745H161.49L161.482 6.16211H164.772L164.776 19.047L175.561 6.16211H179.849L168.987 19.1056L179.74 33.5771L179.74 33.5745Z" fill="white"/>
<path d="M190.026 34.0833C188.224 34.0833 186.584 33.6194 185.101 32.6941C183.618 31.7688 182.436 30.5235 181.556 28.9635C180.675 27.4036 180.232 25.6783 180.232 23.7851C180.231 22.3505 180.484 21.0092 180.993 19.7612C181.502 18.5159 182.203 17.4173 183.096 16.4707C183.989 15.524 185.031 14.7827 186.218 14.2494C187.404 13.7134 188.671 13.4468 190.017 13.4468C191.82 13.4468 193.46 13.9108 194.943 14.8361C196.426 15.764 197.608 17.0093 198.488 18.5773C199.369 20.1425 199.812 21.8811 199.812 23.7851C199.813 25.209 199.56 26.5396 199.051 27.7796C198.542 29.0195 197.841 30.1128 196.948 31.0595C196.055 32.0061 195.015 32.7474 193.834 33.2807C192.653 33.8167 191.384 34.0833 190.026 34.0833ZM190.025 30.7955C191.252 30.7955 192.359 30.4728 193.345 29.8248C194.331 29.1795 195.107 28.3236 195.675 27.2596C196.242 26.1957 196.525 25.0384 196.524 23.7851C196.524 22.5318 196.233 21.3318 195.651 20.2599C195.07 19.1906 194.291 18.3346 193.312 17.6946C192.333 17.0546 191.237 16.7347 190.021 16.7347C188.805 16.7347 187.691 17.0573 186.712 17.7053C185.734 18.3506 184.958 19.2092 184.382 20.2812C183.809 21.3505 183.522 22.5211 183.522 23.7851C183.523 25.049 183.816 26.2757 184.403 27.3396C184.99 28.4036 185.78 29.2462 186.775 29.8648C187.767 30.4861 188.849 30.7955 190.025 30.7955Z" fill="white"/>
<path d="M203.091 33.5748L203.085 13.9941H206.375L206.376 16.4421C207.067 15.5274 207.941 14.7994 208.999 14.2581C210.058 13.7168 211.204 13.4448 212.444 13.4448C213.202 13.4448 213.932 13.5435 214.636 13.7381L213.307 17.0287C212.771 16.858 212.248 16.7754 211.741 16.7754C210.763 16.7754 209.864 17.0127 209.048 17.49C208.233 17.9673 207.582 18.61 207.1 19.4179C206.617 20.2286 206.375 21.1272 206.375 22.1192L206.379 33.5748H203.088H203.091Z" fill="white"/>
<path d="M224.646 34.0816C222.843 34.0816 221.203 33.6177 219.72 32.6924C218.237 31.7671 217.055 30.5218 216.175 28.9618C215.295 27.4019 214.851 25.6766 214.851 23.7834C214.85 22.3488 215.103 21.0075 215.612 19.7595C216.121 18.5142 216.822 17.4156 217.715 16.469C218.608 15.5223 219.651 14.781 220.837 14.2477C222.023 13.7117 223.29 13.4451 224.637 13.4451C226.111 13.4451 227.466 13.7411 228.701 14.3357C229.936 14.9303 230.992 15.7543 231.875 16.8129C232.755 17.8716 233.417 19.0982 233.854 20.4928C234.292 21.8901 234.453 23.3834 234.336 24.978H218.358C218.515 26.0873 218.881 27.0766 219.455 27.9432C220.028 28.8125 220.764 29.5005 221.658 30.0098C222.551 30.5191 223.549 30.7804 224.645 30.7938C225.821 30.7938 226.882 30.4898 227.836 29.8845C228.788 29.2765 229.558 28.4445 230.145 27.3885L233.494 28.1725C232.711 29.9085 231.53 31.3297 229.952 32.431C228.373 33.535 226.603 34.0843 224.646 34.0843L224.646 34.0816ZM218.261 22.3914H231.028C230.924 21.2955 230.572 20.2928 229.969 19.3862C229.369 18.4796 228.603 17.7516 227.678 17.2023C226.75 16.653 225.739 16.381 224.643 16.381C223.547 16.381 222.542 16.6476 221.627 17.1836C220.713 17.7196 219.961 18.4396 219.367 19.3462C218.772 20.2528 218.405 21.2688 218.261 22.3914Z" fill="white"/>
<path d="M253.271 13.9954H256.561L256.567 33.576H253.277L253.14 30.2668C252.527 31.4027 251.682 32.3227 250.604 33.0267C249.527 33.7306 248.245 34.0853 246.757 34.0853C245.269 34.0853 243.976 33.8133 242.722 33.272C241.469 32.7307 240.362 31.9787 239.402 31.0214C238.441 30.0614 237.694 28.9548 237.158 27.7015C236.622 26.4483 236.355 25.0963 236.354 23.6484C236.354 22.2004 236.615 20.9338 237.137 19.6938C237.659 18.4539 238.387 17.3659 239.32 16.4326C240.253 15.4993 241.333 14.7687 242.559 14.2407C243.786 13.7127 245.105 13.4487 246.513 13.4487C248.055 13.4487 249.404 13.8114 250.567 14.5367C251.73 15.262 252.669 16.198 253.386 17.3473L253.268 13.998L253.271 13.9954ZM246.697 30.8934C247.991 30.8934 249.108 30.5761 250.054 29.9441C251.001 29.3121 251.731 28.4535 252.245 27.3682C252.76 26.2856 253.018 25.091 253.018 23.7844C253.017 22.4777 252.756 21.2485 252.233 20.1712C251.71 19.0939 250.976 18.2406 250.029 17.6059C249.082 16.9739 247.97 16.6566 246.69 16.6566C245.41 16.6566 244.224 16.9766 243.165 17.6166C242.11 18.2566 241.27 19.1152 240.649 20.1925C240.028 21.2698 239.719 22.4671 239.719 23.7844C239.72 25.1016 240.04 26.3016 240.68 27.3762C241.321 28.4535 242.169 29.3095 243.228 29.9414C244.287 30.5734 245.441 30.8907 246.695 30.8907L246.697 30.8934Z" fill="white"/>
</g>
</g>
<defs>
<clipPath id="clip0_3016_11370">
<rect width="255.733" height="40" fill="white" transform="matrix(1 0 0.000301956 1 0.916504 0)"/>
</clipPath>
</defs>
</svg>
