<svg width="200" height="50" viewBox="0 0 200 50" fill="none" xmlns="http://www.w3.org/2000/svg">
<g clip-path="url(#clip0_3033_2818)">
<mask id="mask0_3033_2818" style="mask-type:luminance" maskUnits="userSpaceOnUse" x="14" y="11" width="172" height="28">
<path d="M185.717 11.582H14.2109L14.219 38.2425H185.725L185.717 11.582Z" fill="white"/>
</mask>
<g mask="url(#mask0_3033_2818)">
<path d="M25.6632 17.3118C24.6364 17.7143 23.5971 18.1026 22.7117 18.8128C19.0968 21.7129 18.7567 26.9978 21.9942 30.3667C25.0294 33.5262 30.359 33.3705 33.3261 30.05C34.7157 28.4953 36.1358 26.9674 37.5469 25.4306C37.8044 25.1497 38.0173 24.9046 37.6575 24.5271C35.8088 22.586 34.2052 20.4033 32.1383 18.684C29.6043 16.5765 26.5734 15.9718 23.3478 16.1024C20.1704 16.233 17.557 17.5283 15.4555 19.9399C15.2729 19.575 15.4929 19.3585 15.5984 19.1366C19.5533 10.7978 30.8884 9.06235 37.1468 15.8394C38.4819 17.2849 39.8277 18.7198 41.1235 20.1976C41.6049 20.7468 41.9019 20.7253 42.3794 20.1976C44.0355 18.3655 45.5395 16.3707 47.4462 14.791C51.3061 11.5939 55.7123 10.7369 60.4288 12.4401C65.3207 14.2059 68.1986 17.8324 69.1036 22.9313C69.9029 27.429 66.5712 31.7389 61.7356 32.6477C60.1827 32.9394 58.6763 32.9322 57.8819 32.6281C57.8925 32.3132 58.1734 32.3848 58.3416 32.3275C62.0696 31.0698 64.2798 27.4702 63.665 23.6487C63.0789 20.0079 59.8506 17.1722 56.1042 17.1347C54.0074 17.1132 52.0898 17.8074 50.6053 19.3352C49.0064 20.9776 47.5023 22.7148 45.9534 24.4073C45.6977 24.6881 45.4777 24.9332 45.8392 25.3107C47.7112 27.2698 49.356 29.4453 51.4158 31.2236C53.191 32.7551 55.2844 33.5262 57.6246 33.6532C60.2402 33.7945 62.8147 33.748 65.1598 32.3311C66.2366 31.6799 67.1684 30.864 68.0323 29.9194C68.2328 30.2593 68.0074 30.4722 67.9055 30.6887C63.9792 39.0294 52.612 40.7827 46.3607 34.0128C45.0256 32.5672 43.6816 31.1306 42.384 29.6546C41.9151 29.1215 41.6199 29.0893 41.1281 29.6349C39.5167 31.4294 38.0359 33.3634 36.1936 34.9235C32.3106 38.2082 27.8542 39.126 23.0733 37.3763C18.092 35.5478 15.2874 31.8194 14.3412 26.6042C13.6978 23.0547 15.6007 20.8756 18.1245 18.9309C20.2226 17.3154 22.5894 16.7572 25.1854 17.0076C25.3536 17.0237 25.5558 16.9987 25.6632 17.3118Z" fill="white"/>
<path d="M75.0676 34.1091L75.062 15.7183H79.0032L79.0087 34.1091H75.0676Z" fill="white"/>
<path d="M91.0675 34.4474C89.8241 34.4474 88.6541 34.2005 87.5591 33.705C86.4641 33.2094 85.5032 32.5243 84.6746 31.6494C83.846 30.7746 83.1981 29.7603 82.729 28.6082C82.26 27.4561 82.0252 26.2234 82.0249 24.9103C82.0245 23.5972 82.2584 22.3503 82.7268 21.2C83.1952 20.0478 83.8425 19.0371 84.6705 18.1658C85.4986 17.2946 86.459 16.6112 87.5538 16.1174C88.6485 15.6219 89.8166 15.375 91.0617 15.375C92.5502 15.375 93.9206 15.7185 95.1731 16.4055C96.4256 17.0924 97.4635 18.0102 98.2868 19.1569L94.7666 21.0479C94.3103 20.5219 93.7627 20.1015 93.124 19.7867C92.4852 19.4718 91.7964 19.3144 91.0611 19.3144C90.3259 19.3144 89.7015 19.4593 89.0844 19.7473C88.4673 20.0371 87.9236 20.4361 87.455 20.9495C86.9865 21.4611 86.6217 22.0551 86.3589 22.7295C86.0961 23.404 85.9658 24.1303 85.966 24.9103C85.9662 25.6903 86.097 26.4041 86.3602 27.0786C86.6234 27.753 86.9885 28.347 87.4574 28.8586C87.9263 29.3703 88.4685 29.7746 89.0875 30.068C89.7048 30.3614 90.3632 30.5081 91.0645 30.5081C91.7998 30.5081 92.4867 30.3489 93.1271 30.0286C93.7656 29.7084 94.3129 29.2826 94.769 28.7477L98.2903 30.6655C97.4677 31.8033 96.4304 32.7193 95.1783 33.4116C93.9262 34.1039 92.5559 34.4492 91.0675 34.4492L91.0675 34.4474Z" fill="white"/>
<path d="M100.657 34.1062L100.652 15.7153H107.588C108.595 15.7153 109.507 15.9712 110.327 16.4846C111.146 16.9962 111.796 17.6796 112.278 18.5348C112.759 19.3881 113.001 20.3238 113.001 21.3399C113.001 22.3561 112.755 23.315 112.26 24.1647C111.764 25.0145 111.106 25.6925 110.283 26.2006C109.461 26.7087 108.563 26.9627 107.591 26.9627H104.596L104.599 34.1097H100.657L100.657 34.1062ZM104.595 23.0198H107.145C107.495 23.0198 107.814 22.9303 108.103 22.7496C108.393 22.5707 108.624 22.331 108.799 22.034C108.974 21.7371 109.062 21.4079 109.062 21.0483C109.062 20.6887 108.974 20.3613 108.798 20.0626C108.623 19.7656 108.39 19.5259 108.102 19.347C107.812 19.1681 107.494 19.0768 107.143 19.0768H104.594L104.595 23.018L104.595 23.0198Z" fill="white"/>
<path d="M134.182 34.1071H131.333L125.523 26.1336L124.144 27.7884L124.146 34.1071H121.939L121.933 15.7163H124.141L124.143 24.3607L131.379 15.7163H134.256L126.968 24.4001L134.182 34.1089L134.182 34.1071Z" fill="white"/>
<path d="M141.084 34.4485C139.874 34.4485 138.774 34.1372 137.779 33.5164C136.784 32.8957 135.991 32.0602 135.401 31.0136C134.81 29.9671 134.513 28.8096 134.512 27.5394C134.512 26.577 134.682 25.6771 135.023 24.8398C135.365 24.0044 135.835 23.2673 136.434 22.6322C137.033 21.9971 137.732 21.4998 138.528 21.142C139.324 20.7824 140.174 20.6035 141.078 20.6035C142.287 20.6035 143.387 20.9148 144.382 21.5356C145.377 22.1581 146.17 22.9936 146.76 24.0455C147.351 25.0957 147.648 26.2621 147.649 27.5394C147.649 28.4948 147.479 29.3875 147.138 30.2193C146.797 31.0512 146.326 31.7847 145.727 32.4198C145.128 33.0549 144.431 33.5522 143.638 33.91C142.846 34.2696 141.994 34.4485 141.084 34.4485ZM141.083 32.2427C141.906 32.2427 142.648 32.0262 143.31 31.5915C143.972 31.1585 144.492 30.5843 144.873 29.8705C145.254 29.1567 145.443 28.3803 145.443 27.5394C145.443 26.6986 145.248 25.8936 144.857 25.1744C144.467 24.457 143.945 23.8827 143.288 23.4534C142.631 23.024 141.896 22.8093 141.08 22.8093C140.264 22.8093 139.517 23.0258 138.86 23.4605C138.204 23.8935 137.683 24.4695 137.297 25.1887C136.913 25.9061 136.72 26.6915 136.72 27.5394C136.72 28.3874 136.917 29.2103 137.311 29.9241C137.705 30.6379 138.235 31.2033 138.902 31.6183C139.568 32.0351 140.294 32.2427 141.083 32.2427Z" fill="white"/>
<path d="M149.849 34.1071L149.845 20.9706H152.052L152.053 22.6129C152.516 21.9993 153.103 21.5109 153.813 21.1477C154.523 20.7845 155.292 20.6021 156.124 20.6021C156.632 20.6021 157.122 20.6682 157.595 20.7988L156.702 23.0065C156.343 22.892 155.992 22.8365 155.652 22.8365C154.996 22.8365 154.393 22.9957 153.846 23.3159C153.298 23.6362 152.862 24.0673 152.538 24.6094C152.215 25.1532 152.052 25.7561 152.052 26.4216L152.054 34.1071H149.847H149.849Z" fill="white"/>
<path d="M164.309 34.447C163.1 34.447 162 34.1357 161.005 33.515C160.01 32.8942 159.217 32.0587 158.626 31.0122C158.036 29.9656 157.738 28.8082 157.738 27.538C157.738 26.5755 157.907 25.6756 158.249 24.8384C158.59 24.0029 159.06 23.2659 159.66 22.6308C160.259 21.9957 160.958 21.4983 161.754 21.1405C162.55 20.781 163.4 20.6021 164.303 20.6021C165.293 20.6021 166.201 20.8006 167.03 21.1996C167.858 21.5985 168.567 22.1513 169.159 22.8615C169.75 23.5718 170.194 24.3947 170.487 25.3304C170.781 26.2678 170.889 27.2696 170.81 28.3394H160.091C160.196 29.0837 160.442 29.7474 160.827 30.3288C161.211 30.912 161.705 31.3735 162.305 31.7152C162.904 32.0569 163.573 32.2323 164.309 32.2412C165.097 32.2412 165.809 32.0373 166.45 31.6312C167.088 31.2233 167.605 30.6651 167.999 29.9567L170.246 30.4826C169.72 31.6473 168.928 32.6008 167.869 33.3396C166.81 34.0803 165.622 34.4488 164.309 34.4488L164.309 34.447ZM160.026 26.6041H168.591C168.521 25.8688 168.285 25.1962 167.881 24.5879C167.478 23.9797 166.964 23.4913 166.343 23.1227C165.721 22.7542 165.043 22.5717 164.307 22.5717C163.572 22.5717 162.898 22.7506 162.284 23.1102C161.671 23.4698 161.166 23.9528 160.768 24.5611C160.369 25.1693 160.122 25.851 160.026 26.6041Z" fill="white"/>
<path d="M183.514 20.9717H185.721L185.725 34.1083H183.518L183.426 31.8881C183.015 32.6502 182.448 33.2674 181.725 33.7397C181.003 34.212 180.142 34.45 179.144 34.45C178.146 34.45 177.278 34.2675 176.437 33.9043C175.596 33.5412 174.853 33.0367 174.209 32.3944C173.565 31.7504 173.064 31.0079 172.704 30.1671C172.344 29.3263 172.165 28.4193 172.165 27.4479C172.164 26.4764 172.339 25.6267 172.69 24.7948C173.04 23.9629 173.528 23.233 174.154 22.6069C174.78 21.9807 175.505 21.4905 176.328 21.1363C177.15 20.7821 178.036 20.605 178.98 20.605C180.014 20.605 180.92 20.8483 181.7 21.3349C182.48 21.8215 183.11 22.4494 183.591 23.2205L183.512 20.9735L183.514 20.9717ZM179.104 32.3085C179.971 32.3085 180.721 32.0956 181.356 31.6717C181.991 31.2477 182.481 30.6716 182.826 29.9435C183.171 29.2172 183.344 28.4157 183.344 27.5391C183.344 26.6625 183.168 25.8378 182.817 25.115C182.467 24.3923 181.974 23.8198 181.339 23.394C180.704 22.97 179.958 22.7571 179.099 22.7571C178.24 22.7571 177.444 22.9718 176.734 23.4012C176.026 23.8305 175.463 24.4066 175.046 25.1293C174.629 25.8521 174.422 26.6553 174.422 27.5391C174.423 28.4229 174.638 29.2279 175.067 29.9489C175.497 30.6716 176.066 31.2459 176.776 31.6699C177.487 32.0939 178.261 32.3068 179.102 32.3068L179.104 32.3085Z" fill="white"/>
</g>
</g>
<defs>
<clipPath id="clip0_3033_2818">
<rect width="171.57" height="26.8358" fill="white" transform="matrix(1 0 0.000301956 1 14.2109 11.582)"/>
</clipPath>
</defs>
</svg>
