<svg width="193" height="31" viewBox="0 0 193 31" fill="none" xmlns="http://www.w3.org/2000/svg">
<g clip-path="url(#clip0_572_71357)">
<mask id="mask0_572_71357" style="mask-type:luminance" maskUnits="userSpaceOnUse" x="0" y="0" width="193" height="31">
<path d="M192.624 0.652344H0.895996V30.4563H192.624V0.652344Z" fill="white"/>
</mask>
<g mask="url(#mask0_572_71357)">
<path d="M13.6965 7.0576C12.5485 7.5076 11.3865 7.9416 10.3965 8.7356C6.35451 11.9776 5.97251 17.8856 9.59051 21.6516C12.9825 25.1836 18.9405 25.0096 22.2585 21.2976C23.8125 19.5596 25.4005 17.8516 26.9785 16.1336C27.2665 15.8196 27.5045 15.5456 27.1025 15.1236C25.0365 12.9536 23.2445 10.5136 20.9345 8.5916C18.1025 6.2356 14.7145 5.5596 11.1085 5.7056C7.55651 5.8516 4.63451 7.2996 2.28451 9.9956C2.08051 9.5876 2.32651 9.3456 2.44451 9.0976C6.86851 -0.224398 19.5405 -2.1644 26.5345 5.4116C28.0265 7.0276 29.5305 8.6316 30.9785 10.2836C31.5165 10.8976 31.8485 10.8736 32.3825 10.2836C34.2345 8.2356 35.9165 6.0056 38.0485 4.2396C42.3645 0.665602 47.2905 -0.292398 52.5625 1.6116C58.0305 3.5856 61.2465 7.6396 62.2565 13.3396C63.1485 18.3676 59.4225 23.1856 54.0165 24.2016C52.2805 24.5276 50.5965 24.5196 49.7085 24.1796C49.7205 23.8276 50.0345 23.9076 50.2225 23.8436C54.3905 22.4376 56.8625 18.4136 56.1765 14.1416C55.5225 10.0716 51.9145 6.9016 47.7265 6.8596C45.3825 6.8356 43.2385 7.6116 41.5785 9.3196C39.7905 11.1556 38.1085 13.0976 36.3765 14.9896C36.0905 15.3036 35.8445 15.5776 36.2485 15.9996C38.3405 18.1896 40.1785 20.6216 42.4805 22.6096C44.4645 24.3216 46.8045 25.1836 49.4205 25.3256C52.3445 25.4836 55.2225 25.4316 57.8445 23.8476C59.0485 23.1196 60.0905 22.2076 61.0565 21.1516C61.2805 21.5316 61.0285 21.7696 60.9145 22.0116C56.5225 31.3356 43.8145 33.2956 36.8285 25.7276C35.3365 24.1116 33.8345 22.5056 32.3845 20.8556C31.8605 20.2596 31.5305 20.2236 30.9805 20.8336C29.1785 22.8396 27.5225 25.0016 25.4625 26.7456C21.1205 30.4176 16.1385 31.4436 10.7945 29.4876C5.22651 27.4436 2.09251 23.2756 1.03651 17.4456C0.318513 13.4776 2.44651 11.0416 5.26851 8.8676C7.61451 7.0616 10.2605 6.4376 13.1625 6.7176C13.3505 6.7356 13.5765 6.7076 13.6965 7.0576Z" fill="white"/>
<path d="M68.9216 25.8334V5.27344H73.3276V25.8334H68.9216Z" fill="white"/>
<path d="M86.8084 26.2146C85.4184 26.2146 84.1104 25.9386 82.8864 25.3846C81.6624 24.8306 80.5884 24.0646 79.6624 23.0866C78.7364 22.1086 78.0124 20.9746 77.4884 19.6866C76.9644 18.3986 76.7024 17.0206 76.7024 15.5526C76.7024 14.0846 76.9644 12.6906 77.4884 11.4046C78.0124 10.1166 78.7364 8.98658 79.6624 8.01258C80.5884 7.03858 81.6624 6.27458 82.8864 5.72258C84.1104 5.16858 85.4164 4.89258 86.8084 4.89258C88.4724 4.89258 90.0044 5.27658 91.4044 6.04458C92.8044 6.81258 93.9644 7.83858 94.8844 9.12058L90.9484 11.2346C90.4384 10.6466 89.8264 10.1766 89.1124 9.82458C88.3984 9.47258 87.6284 9.29658 86.8064 9.29658C85.9844 9.29658 85.2864 9.45858 84.5964 9.78058C83.9064 10.1046 83.2984 10.5506 82.7744 11.1246C82.2504 11.6966 81.8424 12.3606 81.5484 13.1146C81.2544 13.8686 81.1084 14.6806 81.1084 15.5526C81.1084 16.4246 81.2544 17.2226 81.5484 17.9766C81.8424 18.7306 82.2504 19.3946 82.7744 19.9666C83.2984 20.5386 83.9044 20.9906 84.5964 21.3186C85.2864 21.6466 86.0224 21.8106 86.8064 21.8106C87.6284 21.8106 88.3964 21.6326 89.1124 21.2746C89.8264 20.9166 90.4384 20.4406 90.9484 19.8426L94.8844 21.9866C93.9644 23.2586 92.8044 24.2826 91.4044 25.0566C90.0044 25.8306 88.4724 26.2166 86.8084 26.2166V26.2146Z" fill="white"/>
<path d="M97.5293 25.8334V5.27344H105.283C106.409 5.27344 107.429 5.55944 108.345 6.13344C109.261 6.70544 109.987 7.46944 110.525 8.42544C111.063 9.37944 111.333 10.4254 111.333 11.5614C111.333 12.6974 111.057 13.7694 110.503 14.7194C109.949 15.6694 109.213 16.4274 108.293 16.9954C107.373 17.5634 106.369 17.8474 105.283 17.8474H101.935V25.8374H97.5293V25.8334ZM101.935 13.4394H104.785C105.177 13.4394 105.533 13.3394 105.857 13.1374C106.181 12.9374 106.439 12.6694 106.635 12.3374C106.831 12.0054 106.929 11.6374 106.929 11.2354C106.929 10.8334 106.831 10.4674 106.635 10.1334C106.439 9.80144 106.179 9.53344 105.857 9.33344C105.533 9.13344 105.177 9.03144 104.785 9.03144H101.935V13.4374V13.4394Z" fill="white"/>
<path d="M135.008 25.8334H131.822L125.33 16.9194L123.788 18.7694V25.8334H121.32V5.27344H123.788V14.9374L131.88 5.27344H135.096L126.946 14.9814L135.008 25.8354V25.8334Z" fill="white"/>
<path d="M142.719 26.2163C141.367 26.2163 140.137 25.8683 139.025 25.1743C137.913 24.4803 137.027 23.5463 136.367 22.3763C135.707 21.2063 135.375 19.9123 135.375 18.4923C135.375 17.4163 135.565 16.4103 135.947 15.4743C136.329 14.5403 136.855 13.7163 137.525 13.0063C138.195 12.2963 138.977 11.7403 139.867 11.3403C140.757 10.9383 141.707 10.7383 142.717 10.7383C144.069 10.7383 145.299 11.0863 146.411 11.7803C147.523 12.4763 148.409 13.4103 149.069 14.5863C149.729 15.7603 150.061 17.0643 150.061 18.4923C150.061 19.5603 149.871 20.5583 149.489 21.4883C149.107 22.4183 148.581 23.2383 147.911 23.9483C147.241 24.6583 146.461 25.2143 145.575 25.6143C144.689 26.0163 143.737 26.2163 142.719 26.2163ZM142.719 23.7503C143.639 23.7503 144.469 23.5083 145.209 23.0223C145.949 22.5383 146.531 21.8963 146.957 21.0983C147.383 20.3003 147.595 19.4323 147.595 18.4923C147.595 17.5523 147.377 16.6523 146.941 15.8483C146.505 15.0463 145.921 14.4043 145.187 13.9243C144.453 13.4443 143.631 13.2043 142.719 13.2043C141.807 13.2043 140.971 13.4463 140.237 13.9323C139.503 14.4163 138.921 15.0603 138.489 15.8643C138.059 16.6663 137.843 17.5443 137.843 18.4923C137.843 19.4403 138.063 20.3603 138.503 21.1583C138.943 21.9563 139.535 22.5883 140.281 23.0523C141.025 23.5183 141.837 23.7503 142.719 23.7503Z" fill="white"/>
<path d="M152.518 25.8324V11.1464H154.986V12.9824C155.504 12.2964 156.16 11.7504 156.954 11.3444C157.748 10.9384 158.608 10.7344 159.538 10.7344C160.106 10.7344 160.654 10.8084 161.182 10.9544L160.184 13.4224C159.782 13.2944 159.39 13.2324 159.01 13.2324C158.276 13.2324 157.602 13.4104 156.99 13.7684C156.378 14.1264 155.89 14.6084 155.528 15.2144C155.166 15.8224 154.984 16.4964 154.984 17.2404V25.8324H152.516H152.518Z" fill="white"/>
<path d="M168.684 26.2163C167.332 26.2163 166.102 25.8683 164.99 25.1743C163.878 24.4803 162.992 23.5463 162.332 22.3763C161.672 21.2063 161.34 19.9123 161.34 18.4923C161.34 17.4163 161.53 16.4103 161.912 15.4743C162.294 14.5403 162.82 13.7163 163.49 13.0063C164.16 12.2963 164.942 11.7403 165.832 11.3403C166.722 10.9383 167.672 10.7383 168.682 10.7383C169.788 10.7383 170.804 10.9603 171.73 11.4063C172.656 11.8523 173.448 12.4703 174.11 13.2643C174.77 14.0583 175.266 14.9783 175.594 16.0243C175.922 17.0723 176.042 18.1923 175.954 19.3883H163.97C164.088 20.2203 164.362 20.9623 164.792 21.6123C165.222 22.2643 165.774 22.7803 166.444 23.1623C167.114 23.5443 167.862 23.7403 168.684 23.7503C169.566 23.7503 170.362 23.5223 171.078 23.0683C171.792 22.6123 172.37 21.9883 172.81 21.1963L175.322 21.7843C174.734 23.0863 173.848 24.1523 172.664 24.9783C171.48 25.8063 170.152 26.2183 168.684 26.2183V26.2163ZM163.898 17.4483H173.474C173.396 16.6263 173.132 15.8743 172.68 15.1943C172.23 14.5143 171.656 13.9683 170.962 13.5563C170.266 13.1443 169.508 12.9403 168.686 12.9403C167.864 12.9403 167.11 13.1403 166.424 13.5423C165.738 13.9443 165.174 14.4843 164.728 15.1643C164.282 15.8443 164.006 16.6063 163.898 17.4483Z" fill="white"/>
<path d="M190.158 11.1483H192.626V25.8343H190.158L190.056 23.3523C189.596 24.2043 188.962 24.8943 188.154 25.4223C187.346 25.9503 186.384 26.2163 185.268 26.2163C184.152 26.2163 183.182 26.0123 182.242 25.6063C181.302 25.2003 180.472 24.6363 179.752 23.9183C179.032 23.1983 178.472 22.3683 178.07 21.4283C177.668 20.4883 177.468 19.4743 177.468 18.3883C177.468 17.3023 177.664 16.3523 178.056 15.4223C178.448 14.4923 178.994 13.6763 179.694 12.9763C180.394 12.2763 181.204 11.7283 182.124 11.3323C183.044 10.9363 184.034 10.7383 185.09 10.7383C186.246 10.7383 187.258 11.0103 188.13 11.5543C189.002 12.0983 189.706 12.8003 190.244 13.6623L190.156 11.1503L190.158 11.1483ZM185.224 23.8223C186.194 23.8223 187.032 23.5843 187.742 23.1103C188.452 22.6363 189 21.9923 189.386 21.1783C189.772 20.3663 189.966 19.4703 189.966 18.4903C189.966 17.5103 189.77 16.5883 189.378 15.7803C188.986 14.9723 188.436 14.3323 187.726 13.8563C187.016 13.3823 186.182 13.1443 185.222 13.1443C184.262 13.1443 183.372 13.3843 182.578 13.8643C181.786 14.3443 181.156 14.9883 180.69 15.7963C180.224 16.6043 179.992 17.5023 179.992 18.4903C179.992 19.4783 180.232 20.3783 180.712 21.1843C181.192 21.9923 181.828 22.6343 182.622 23.1083C183.416 23.5823 184.282 23.8203 185.222 23.8203L185.224 23.8223Z" fill="white"/>
</g>
</g>
<defs>
<clipPath id="clip0_572_71357">
<rect width="191.8" height="30" fill="white" transform="translate(0.895996 0.652344)"/>
</clipPath>
</defs>
</svg>
