<svg width="200" height="50" viewBox="0 0 200 50" fill="none" xmlns="http://www.w3.org/2000/svg">
<path d="M78.3441 24.788L78.3442 25.1978C77.9835 38.7913 62.8023 46.8187 51.4211 38.8185C41.2879 31.6953 42.2133 16.1791 53.0014 10.1628C64.2441 3.89297 78.1486 12.0118 78.3441 24.788ZM77.6883 24.9885C77.6855 15.936 70.3446 8.59756 61.2917 8.59756C52.2389 8.59756 44.9017 15.936 44.9044 24.9885C44.9071 34.041 52.248 41.3794 61.3009 41.3794C70.3538 41.3794 77.6903 34.041 77.6875 24.9885H77.6883Z" fill="white" stroke="white" stroke-miterlimit="10"/>
<path d="M60.0615 26.3558C60.0298 26.2091 59.774 25.9313 59.6442 25.8178L55.5224 23.4279C54.9503 22.8679 55.7217 22.128 56.0326 21.6342L56.2463 21.5664C57.966 22.8074 61.7005 23.7942 61.9739 26.2187C62.1586 27.8569 62.1354 31.6551 61.9819 33.3213C61.8615 34.6367 61.0398 34.6655 59.9718 34.227C58.8949 33.7856 54.2343 31.0383 53.5811 30.2453C53.3312 29.9424 53.0716 29.5858 52.9993 29.1893C52.752 27.8333 52.8473 23.6218 52.9596 22.1191C53.022 21.2783 53.2045 20.5937 53.8521 20.0108C54.4998 19.4279 59.396 16.5966 60.1661 16.3637C61.3016 16.021 62.1927 16.1404 63.1981 16.7366C63.2718 16.842 62.3279 17.3637 62.1982 17.4411C60.2161 18.6202 57.4278 19.8376 55.6477 21.125C55.2624 21.4036 54.9957 21.6681 54.9074 22.1582C54.7028 23.2865 54.7563 27.0426 54.8709 28.2733C54.8894 28.4708 54.8777 28.6675 54.9779 28.8488C56.4987 30.0633 58.3023 31.028 60.0639 31.8828L60.0622 26.3558H60.0615Z" fill="white"/>
<path d="M62.5174 25.2666C62.4731 24.9969 62.1826 24.5216 61.9629 24.3197C60.8144 23.2666 58.3365 22.4641 57.0089 21.4943C56.8969 21.4125 56.7384 21.3594 56.7848 21.1744C56.8503 20.9091 60.9125 18.6453 61.4688 18.352C62.5166 17.7993 63.2999 17.2959 64.5668 17.6202C65.135 17.7661 67.7621 19.3387 68.2928 19.7632C69.1206 20.4257 69.5387 21.0411 69.6193 22.1221C69.7525 23.9033 69.7763 27.0559 69.6213 28.8201C69.5883 29.1989 69.5169 29.5549 69.3232 29.8857C68.7391 30.8813 64.5346 33.157 63.2953 33.8188C63.142 33.9006 62.4634 34.2882 62.3852 34.2042L62.6469 31.9433C63.5347 31.1194 67.0975 29.6927 67.5372 28.7825C67.6646 28.518 67.6837 28.2851 67.7101 28.0007C67.8277 26.742 67.8628 23.4825 67.69 22.2776C67.6435 21.9541 67.5874 21.7647 67.3456 21.5304C67.0419 21.2356 64.1119 19.5208 63.7781 19.4928C63.0286 19.4294 61.4475 20.946 60.6067 21.1066C60.4999 21.2474 62.6263 22.3381 62.8349 22.4928C65.3699 24.3705 64.401 27.431 64.5441 30.1569C64.4748 30.3596 62.8678 31.339 62.52 31.339L62.5181 25.2659L62.5174 25.2666Z" fill="white"/>
<path d="M152.868 34.6766L152.864 19.7594H155.156L155.16 34.6766H152.868ZM154.028 17.2733C153.582 17.2733 153.196 17.1211 152.873 16.8168C152.555 16.5125 152.397 16.1467 152.396 15.7194C152.396 15.2921 152.555 14.9263 152.872 14.622C153.196 14.3177 153.581 14.1655 154.028 14.1655C154.474 14.1655 154.856 14.3177 155.174 14.622C155.497 14.9263 155.659 15.2921 155.66 15.7194C155.66 16.1467 155.498 16.5125 155.174 16.8168C154.857 17.1211 154.475 17.2733 154.028 17.2733Z" fill="white"/>
<path d="M137.126 34.6761L137.12 14.7866H149.045L149.046 16.9232H139.529L139.531 23.6437H148.155L148.155 25.7802H139.531L139.534 34.6761H137.126Z" fill="white"/>
<path d="M133.073 24.7318C133.074 26.8295 132.696 28.6424 131.939 30.1704C131.182 31.6983 130.143 32.8767 128.822 33.7054C127.502 34.5341 125.993 34.9485 124.297 34.9485C122.601 34.9485 121.092 34.5341 119.771 33.7054C118.45 32.8767 117.411 31.6983 116.653 30.1704C115.895 28.6424 115.515 26.8295 115.515 24.7318C115.514 22.6341 115.892 20.8212 116.649 19.2933C117.406 17.7653 118.445 16.587 119.766 15.7582C121.086 14.9295 122.595 14.5151 124.291 14.5151C125.987 14.5151 127.496 14.9295 128.817 15.7582C130.138 16.587 131.177 17.7653 131.935 19.2933C132.693 20.8212 133.073 22.6341 133.073 24.7318ZM130.743 24.7318C130.742 23.0096 130.453 21.5561 129.877 20.3713C129.307 19.1865 128.533 18.2897 127.555 17.6811C126.584 17.0725 125.496 16.7682 124.292 16.7682C123.087 16.7682 121.997 17.0725 121.019 17.6811C120.048 18.2897 119.275 19.1865 118.699 20.3713C118.129 21.5561 117.845 23.0096 117.846 24.7318C117.846 26.454 118.131 27.9075 118.702 29.0924C119.278 30.2772 120.052 31.1739 121.023 31.7825C122.001 32.3911 123.092 32.6954 124.296 32.6954C125.501 32.6954 126.588 32.3911 127.559 31.7825C128.537 31.1739 129.31 30.2772 129.88 29.0924C130.455 27.9075 130.743 26.454 130.743 24.7318Z" fill="white"/>
<path d="M111.473 14.7866L111.479 34.6761H109.148L98.3056 19.0598H98.1114L98.1161 34.6761H95.7077L95.7017 14.7866H98.0324L108.914 30.4418H109.108L109.104 14.7866H111.473Z" fill="white"/>
<path d="M90.8684 14.7866L90.8744 34.6761H88.466L88.46 14.7866H90.8684Z" fill="white"/>
</svg>
