<svg width="132" height="42" viewBox="0 0 132 42" fill="none" xmlns="http://www.w3.org/2000/svg">
<path d="M40.7109 20.7506L40.711 21.2327C40.2867 37.225 22.4264 46.669 9.03681 37.2571C-2.8846 28.8768 -1.79594 10.6225 10.8959 3.54448C24.1226 -3.8318 40.4809 5.71974 40.7109 20.7506ZM39.9393 20.9864C39.9361 10.3364 31.2997 1.70301 20.6493 1.70301C9.99887 1.70301 1.36685 10.3364 1.37007 20.9864C1.37328 31.6364 10.0096 40.2698 20.6601 40.2698C31.3105 40.2698 39.9417 31.6364 39.9384 20.9864H39.9393Z" fill="white" stroke="white" stroke-miterlimit="10"/>
<path d="M19.202 22.5947C19.1646 22.4222 18.8637 22.0954 18.711 21.9618L13.8618 19.1502C13.1888 18.4913 14.0963 17.6209 14.462 17.04L14.7134 16.9602C16.7366 18.4202 21.1302 19.5811 21.4518 22.4335C21.6691 24.3608 21.6419 28.8292 21.4613 30.7895C21.3195 32.337 20.3528 32.3708 19.0964 31.855C17.8295 31.3357 12.3464 28.1035 11.5779 27.1707C11.2839 26.8143 10.9786 26.3947 10.8935 25.9283C10.6025 24.333 10.7146 19.3782 10.8467 17.6105C10.9201 16.6212 11.1349 15.8158 11.8968 15.13C12.6587 14.4442 18.419 11.1133 19.325 10.8393C20.6609 10.4362 21.7092 10.5766 22.892 11.278C22.9788 11.402 21.8683 12.0158 21.7157 12.1069C19.3839 13.494 16.1035 14.9263 14.0093 16.4409C13.5559 16.7686 13.2421 17.0799 13.1383 17.6564C12.8976 18.9838 12.9605 23.4028 13.0954 24.8506C13.1171 25.083 13.1033 25.3145 13.2213 25.5277C15.0104 26.9565 17.1323 28.0914 19.2048 29.0971L19.2028 22.5947H19.202Z" fill="white"/>
<path d="M22.0912 21.3135C22.0391 20.9962 21.6974 20.437 21.4389 20.1994C20.0877 18.9605 17.1725 18.0163 15.6107 16.8754C15.4789 16.7792 15.2924 16.7167 15.347 16.4991C15.4241 16.187 20.2031 13.5236 20.8576 13.1786C22.0903 12.5283 23.0118 11.9362 24.5023 12.3177C25.1708 12.4893 28.2614 14.3395 28.8858 14.8389C29.8597 15.6183 30.3515 16.3422 30.4464 17.6141C30.6031 19.7096 30.6311 23.4185 30.4488 25.4941C30.4099 25.9397 30.326 26.3584 30.0981 26.7477C29.4109 27.919 24.4645 30.5963 23.0064 31.3748C22.8261 31.471 22.0277 31.9271 21.9358 31.8282L22.2436 29.1683C23.2881 28.199 27.4796 26.5206 27.9969 25.4498C28.1468 25.1386 28.1692 24.8646 28.2003 24.53C28.3386 23.0492 28.3799 19.2145 28.1766 17.797C28.1219 17.4164 28.0559 17.1936 27.7715 16.9179C27.4142 16.5711 23.9672 14.5536 23.5744 14.5207C22.6926 14.4461 20.8325 16.2304 19.8433 16.4194C19.7177 16.585 22.2194 17.8681 22.4648 18.0502C25.4471 20.2592 24.3072 23.8598 24.4755 27.0668C24.3941 27.3052 22.5035 28.4574 22.0943 28.4574L22.0921 21.3126L22.0912 21.3135Z" fill="white"/>
<path d="M128.386 32.3836L128.381 14.834H131.077L131.083 32.3836H128.386ZM129.751 11.9091C129.226 11.9091 128.772 11.7301 128.391 11.3721C128.018 11.0141 127.831 10.5837 127.831 10.081C127.831 9.57829 128.017 9.14793 128.391 8.78993C128.771 8.43193 129.224 8.25293 129.75 8.25293C130.276 8.25293 130.725 8.43193 131.098 8.78993C131.479 9.14793 131.67 9.57829 131.67 10.081C131.67 10.5837 131.48 11.0141 131.099 11.3721C130.726 11.7301 130.277 11.9091 129.751 11.9091Z" fill="white"/>
<path d="M109.866 32.3835L109.859 8.98413H123.889L123.89 11.4977H112.693L112.696 19.4042H122.841L122.842 21.9178H112.696L112.699 32.3835H109.866Z" fill="white"/>
<path d="M105.098 20.6844C105.099 23.1523 104.654 25.2851 103.763 27.0827C102.873 28.8803 101.651 30.2666 100.097 31.2416C98.5435 32.2166 96.7689 32.704 94.7733 32.704C92.7777 32.704 91.0028 32.2166 89.4486 31.2416C87.8945 30.2666 86.6715 28.8803 85.7798 27.0827C84.8881 25.2851 84.4419 23.1523 84.4411 20.6844C84.4404 18.2165 84.8853 16.0838 85.776 14.2861C86.6666 12.4885 87.8887 11.1022 89.4422 10.1273C90.9958 9.15228 92.7704 8.66479 94.766 8.66479C96.7617 8.66479 98.5365 9.15228 100.091 10.1273C101.645 11.1022 102.868 12.4885 103.759 14.2861C104.651 16.0838 105.097 18.2165 105.098 20.6844ZM102.356 20.6844C102.355 18.6583 102.016 16.9483 101.338 15.5544C100.667 14.1605 99.7564 13.1055 98.6061 12.3895C97.4633 11.6735 96.1836 11.3155 94.7668 11.3155C93.3501 11.3155 92.0667 11.6735 90.9168 12.3895C89.7745 13.1055 88.8646 14.1605 88.1871 15.5544C87.5172 16.9483 87.1826 18.6583 87.1832 20.6844C87.1838 22.7105 87.5195 24.4206 88.1902 25.8145C88.8685 27.2084 89.7791 28.2633 90.9218 28.9793C92.0722 29.6953 93.3557 30.0533 94.7725 30.0533C96.1892 30.0533 97.4688 29.6953 98.6111 28.9793C99.761 28.2633 100.671 27.2084 101.341 25.8145C102.018 24.4206 102.357 22.7105 102.356 20.6844Z" fill="white"/>
<path d="M79.6861 8.98413L79.6932 32.3835H76.9511L64.1949 14.0113H63.9664L63.9719 32.3835H61.1384L61.1313 8.98413H63.8734L76.6754 27.402H76.9039L76.8983 8.98413H79.6861Z" fill="white"/>
<path d="M55.4453 8.98413L55.4524 32.3835H52.6189L52.6118 8.98413H55.4453Z" fill="white"/>
</svg>
