<svg width="100" height="42" viewBox="0 0 100 42" fill="none" xmlns="http://www.w3.org/2000/svg">
<path d="M41.2785 20.403V20.885C40.8494 36.8774 22.9869 46.3214 9.60072 36.9094C-2.31768 28.5292 -1.22355 10.2749 11.4699 3.19683C24.6984 -4.17946 41.0531 5.37209 41.2785 20.403ZM40.5069 20.6388C40.5069 9.98877 31.8735 1.35536 21.2235 1.35536C10.5735 1.35536 1.9392 9.98877 1.9392 20.6388C1.9392 31.2888 10.5726 39.9222 21.2226 39.9222C31.8726 39.9222 40.506 31.2888 40.506 20.6388H40.5069Z" fill="white" stroke="white" stroke-miterlimit="10"/>
<path d="M19.7671 22.2483C19.7298 22.0758 19.429 21.7489 19.2764 21.6154L14.4282 18.8038C13.7554 18.1449 14.6632 17.2744 15.029 16.6935L15.2805 16.6138C17.3031 18.0738 21.6961 19.2347 22.0169 22.087C22.2337 24.0143 22.205 28.4828 22.0238 30.443C21.8817 31.9906 20.915 32.0244 19.6587 31.5085C18.3921 30.9892 12.9101 27.7571 12.142 26.8242C11.8481 26.4679 11.5429 26.0483 11.4579 25.5819C11.1675 23.9866 11.2811 19.0318 11.4137 17.264C11.4874 16.2748 11.7024 15.4694 12.4645 14.7836C13.2266 14.0978 18.9877 10.7669 19.8937 10.4929C21.2297 10.0897 22.2779 10.2302 23.4604 10.9316C23.5471 11.0556 22.4365 11.6694 22.2839 11.7604C19.9518 13.1476 16.6711 14.5798 14.5765 16.0945C14.123 16.4222 13.8092 16.7334 13.7051 17.31C13.4641 18.6373 13.5257 23.0563 13.6601 24.5042C13.6817 24.7365 13.6679 24.968 13.7858 25.1813C15.5744 26.6101 17.6959 27.745 19.768 28.7507V22.2483H19.7671Z" fill="white"/>
<path d="M22.6566 20.9636C22.6046 20.6463 22.263 20.0871 22.0046 19.8495C20.6539 18.6106 17.7391 17.6665 16.1776 16.5255C16.0458 16.4293 15.8594 16.3669 15.9141 16.1493C15.9912 15.8372 20.7709 13.1738 21.4255 12.8287C22.6583 12.1785 23.5799 11.5863 25.0703 11.9678C25.7387 12.1395 28.8286 13.9896 29.4529 14.489C30.4265 15.2684 30.9181 15.9923 31.0126 17.2642C31.1686 19.3597 31.1955 23.0687 31.0126 25.1442C30.9735 25.5898 30.8894 26.0086 30.6614 26.3979C29.9739 27.5692 25.0269 30.2464 23.5686 31.0249C23.3883 31.1212 22.5898 31.5772 22.4979 31.4784L22.8066 28.8185C23.8513 27.8492 28.0431 26.1707 28.5607 25.1C28.7107 24.7887 28.7333 24.5148 28.7645 24.1801C28.9032 22.6993 28.9457 18.8647 28.7428 17.4471C28.6882 17.0665 28.6223 16.8437 28.3379 16.568C27.9807 16.2212 24.5345 14.2038 24.1417 14.1708C23.26 14.0963 21.3995 15.8805 20.4102 16.0695C20.2845 16.2351 22.7858 17.5182 23.0311 17.7003C26.0127 19.9094 24.8717 23.5099 25.039 26.7169C24.9576 26.9553 23.0667 28.1076 22.6574 28.1076V20.9628L22.6566 20.9636Z" fill="white"/>
<path d="M55.4429 14.5614V27.6523H53.8577V14.5614H55.4429ZM69.002 14.5614V27.6523H67.468L60.3344 17.3739H60.2066V27.6523H58.6214V14.5614H60.1555L67.3145 24.8654H67.4424V14.5614H69.002ZM83.2195 21.1069C83.2195 22.4876 82.9703 23.6808 82.4717 24.6864C81.9731 25.6921 81.2892 26.4677 80.4198 27.0131C79.5505 27.5586 78.5576 27.8313 77.4411 27.8313C76.3247 27.8313 75.3318 27.5586 74.4624 27.0131C73.5931 26.4677 72.9092 25.6921 72.4106 24.6864C71.912 23.6808 71.6627 22.4876 71.6627 21.1069C71.6627 19.7262 71.912 18.533 72.4106 17.5273C72.9092 16.5217 73.5931 15.7461 74.4624 15.2006C75.3318 14.6552 76.3247 14.3825 77.4411 14.3825C78.5576 14.3825 79.5505 14.6552 80.4198 15.2006C81.2892 15.7461 81.9731 16.5217 82.4717 17.5273C82.9703 18.533 83.2195 19.7262 83.2195 21.1069ZM81.6855 21.1069C81.6855 19.9734 81.4958 19.0167 81.1166 18.2369C80.7416 17.457 80.2323 16.8668 79.5889 16.4663C78.9497 16.0657 78.2338 15.8654 77.4411 15.8654C76.6485 15.8654 75.9305 16.0657 75.287 16.4663C74.6478 16.8668 74.1386 17.457 73.7593 18.2369C73.3843 19.0167 73.1968 19.9734 73.1968 21.1069C73.1968 22.2404 73.3843 23.1971 73.7593 23.9769C74.1386 24.7567 74.6478 25.3469 75.287 25.7475C75.9305 26.1481 76.6485 26.3484 77.4411 26.3484C78.2338 26.3484 78.9497 26.1481 79.5889 25.7475C80.2323 25.3469 80.7416 24.7567 81.1166 23.9769C81.4958 23.1971 81.6855 22.2404 81.6855 21.1069ZM85.885 27.6523V14.5614H93.7345V15.9677H87.4703V20.391H93.1464V21.7972H87.4703V27.6523H85.885ZM96.2449 27.6523V17.8342H97.7535V27.6523H96.2449ZM97.012 16.1978C96.718 16.1978 96.4644 16.0977 96.2513 15.8974C96.0425 15.6971 95.9381 15.4563 95.9381 15.1751C95.9381 14.8938 96.0425 14.6531 96.2513 14.4528C96.4644 14.2525 96.718 14.1523 97.012 14.1523C97.306 14.1523 97.5574 14.2525 97.7662 14.4528C97.9793 14.6531 98.0858 14.8938 98.0858 15.1751C98.0858 15.4563 97.9793 15.6971 97.7662 15.8974C97.5574 16.0977 97.306 16.1978 97.012 16.1978Z" fill="white"/>
</svg>
