<svg width="90" height="40" viewBox="0 0 90 40" fill="none" xmlns="http://www.w3.org/2000/svg">
<g clip-path="url(#clip0_3016_11380)">
<path d="M27.2436 20.9449C27.1908 22.8875 25.5676 24.6258 23.6001 24.9447C23.218 25.0065 22.8353 25.0542 22.4457 25.0559C20.3713 25.0077 18.7331 24.1561 17.5327 22.5028C17.261 22.1295 17.2801 21.8747 17.5734 21.6648C17.8945 21.4345 18.2354 21.4975 18.4933 21.8572C19.4985 23.2574 20.8806 23.924 22.6222 23.9036C24.6257 23.8809 26.1042 22.4705 26.0932 20.5903C26.0822 18.6312 24.4573 16.8508 22.5455 16.7028C21.5467 16.6256 20.6135 17.2576 20.1437 18.3299C19.7976 19.1191 19.9393 19.9423 20.5781 20.4433C21.2738 20.9897 22.0932 21.1309 22.9561 20.9273C23.2424 20.8598 23.4863 20.6714 23.5334 20.3531C23.581 20.028 23.3742 19.8232 23.121 19.6609C22.8284 19.4731 22.5026 19.4022 22.1547 19.4249C21.9544 19.4385 21.8359 19.5009 21.8516 19.7381C21.8766 20.1143 21.6425 20.3628 21.2865 20.3843C20.9631 20.4042 20.7383 20.1874 20.6965 19.8164C20.6082 19.0317 21.1437 18.4139 22.0409 18.2647C22.9683 18.1109 24.1832 18.7481 24.5636 19.5883C24.9927 20.5358 24.4463 21.6149 23.3377 21.9933C22.3179 22.3417 21.3498 22.1085 20.4207 21.6875C18.8045 20.9545 18.2807 18.9954 19.3231 17.3512C20.4468 15.5788 22.5037 15.0784 24.4561 16.1212C26.3981 17.1595 27.3011 18.8122 27.2436 20.9449Z" fill="white"/>
<path d="M31.1867 20.5495C31.0439 19.4137 30.613 18.3556 30.016 17.3735C29.0654 15.8076 27.7796 14.5078 26.4858 13.2182C26.3452 13.0781 26.1705 12.9674 26.0026 12.8568C24.5955 11.9275 23.0433 11.8191 21.4405 12.1527C19.5008 12.5561 17.8841 13.5189 16.5467 14.9492C15.1019 16.4935 14.337 18.2949 14.3132 20.4894C14.3283 20.7129 14.3469 21.0335 14.3719 21.3535C14.3841 21.5038 14.4073 21.6536 14.4282 21.8034C14.8005 24.4166 16.1837 26.3382 18.5804 27.5512C20.0868 28.3137 21.689 28.5395 23.3656 28.2939C25.8847 27.9245 28.0828 26.9419 29.7802 25.0418C30.9283 23.7568 31.3981 22.2374 31.1867 20.5495ZM27.7738 24.5431C26.7547 25.4946 25.4939 25.9303 24.1629 26.2361C23.4666 26.3961 22.761 26.5266 22.0502 26.5674C21.2424 26.6134 20.4526 26.4466 19.6989 26.1589C18.3138 25.6313 17.2407 24.7292 16.4265 23.5219C15.851 22.6686 15.4967 21.7478 15.5118 20.3311C15.5891 18.911 16.1565 17.2935 17.4695 15.9863C18.7993 14.6627 20.4137 13.8866 22.3168 13.7254C23.5154 13.6239 24.538 14.0426 25.4236 14.8017C27.2343 16.3534 28.4324 18.3005 29.0671 20.5456C29.5067 22.0978 28.9602 23.4362 27.7738 24.5431Z" fill="white"/>
<path d="M31.5087 26.8414C29.9872 29.2725 27.7816 30.7181 24.9268 31.2423C24.8699 31.2525 24.8136 31.2673 24.7572 31.2803C23.9953 31.4227 23.2235 31.4664 22.4517 31.518C21.0406 31.6122 19.7072 31.3081 18.4134 30.7862C15.8181 29.7388 13.7897 28.081 12.533 25.5909C11.9412 24.4182 11.6305 23.1661 11.4575 21.877C11.4273 21.6524 11.4041 21.4266 11.3698 21.2025C11.3146 20.8371 11.3965 20.7321 11.774 20.6629C11.972 20.6266 12.1602 20.6714 12.3472 20.7055C12.533 20.7389 12.5614 20.8898 12.5736 21.0538C12.6166 21.637 12.6358 22.2237 12.7728 22.7967C13.0283 23.8667 13.6427 24.758 14.2839 25.6301C15.1677 26.8306 16.2833 27.786 17.6358 28.447C18.6393 28.9377 19.7154 29.2276 20.835 29.3666C22.1544 29.5306 23.4564 29.4563 24.7497 29.1715C26.9111 28.6455 28.7689 27.5925 30.3606 26.08C30.7683 25.6925 31.1208 25.7129 31.4721 26.1481C31.6533 26.3733 31.6736 26.5781 31.5087 26.8414Z" fill="white"/>
<path d="M33.593 22.554C33.4339 22.9732 33.2562 23.0782 32.8288 22.9903C32.5332 22.9296 32.3062 22.6629 32.3979 22.3236C32.6569 21.3614 32.3062 20.4922 32.0239 19.6162C31.4705 17.8994 30.7591 16.2456 29.6575 14.7875C28.5355 13.3039 27.0628 12.2424 25.3299 11.5207C22.838 10.5443 20.3839 10.6668 17.9681 11.7714C16.162 12.5975 14.7474 13.8582 13.6974 15.5092C13.5557 15.7321 13.4704 15.988 13.3461 16.2218C13.1771 16.5389 13.0319 16.5922 12.687 16.4895C11.8322 16.2348 11.7439 16.0351 12.0871 15.2187C12.8258 13.4593 14.162 12.2486 15.806 11.3102C17.327 10.4421 18.9733 9.92075 20.7016 9.66204C22.2643 9.42829 23.8357 9.40559 25.3973 9.71877C26.5686 9.93266 27.6476 10.3446 28.6162 11.0458C30.7179 12.5674 32.0901 14.5776 32.8851 16.9899C33.1958 17.9318 33.5675 18.8582 33.722 19.8415C33.8648 20.7504 33.9316 21.6627 33.593 22.554Z" fill="white"/>
<path d="M37.4495 21.1379C37.388 19.4852 36.9245 17.9171 36.2242 16.4074C35.4832 14.8103 34.6812 13.2432 33.8583 11.6876C33.0737 10.2045 32.0023 8.92228 30.6051 7.93452C29.5482 7.18675 28.4407 6.50877 27.3101 5.87333C26.3681 5.34343 25.3292 5.08131 24.2386 5.03762C23.0133 4.98883 21.8019 5.14315 20.6056 5.35591C18.3059 5.7644 16.1834 6.63529 14.238 7.89594C11.3129 9.79146 9.02017 12.2345 7.58985 15.3952C7.02364 16.6468 6.66998 17.9585 6.59275 19.3321C6.53758 20.3153 6.7298 21.2667 6.98938 22.2102C7.72109 24.8666 8.78962 27.3714 10.4813 29.5932C11.8245 31.3571 13.4726 32.7533 15.6085 33.5278C17.3756 34.1683 19.2066 34.469 20.86 34.4196C23.0563 34.4497 24.9808 34.2001 26.813 33.5136C29.7747 32.4038 32.3275 30.6728 34.525 28.4466C36.5337 26.4115 37.5546 23.9747 37.4495 21.1379ZM34.59 21.0528C34.4808 22.4542 34.2143 23.8221 33.73 25.1434C33.1382 26.7581 32.169 28.1254 30.8426 29.2545C29.3112 30.5588 27.687 31.7207 25.7816 32.456C24.4483 32.9706 23.0795 33.3065 21.583 33.1811C20.0795 33.1647 18.5986 32.8373 17.1822 32.2359C15.5371 31.5381 14.1898 30.4419 12.9894 29.166C10.9633 27.0123 9.77685 24.4535 9.29369 21.5873C8.72981 18.2405 9.52366 15.2312 11.7978 12.635C12.5452 11.7823 13.4308 11.0805 14.4232 10.512C16.2723 9.45332 18.2827 8.8559 20.3902 8.5535C21.7107 8.36401 23.0348 8.22444 24.3763 8.30784C25.4825 8.37649 26.5249 8.66073 27.5093 9.14071C30.3194 10.5103 32.3362 12.6243 33.6121 15.4185C34.4315 17.2136 34.7439 19.0926 34.59 21.0528Z" fill="white"/>
<path d="M73.3075 20.4622C73.3075 21.1612 73.2884 21.8613 73.3128 22.5591C73.3389 23.3143 73.8441 23.8737 74.534 23.969C75.4632 24.0972 75.8877 23.8533 76.2065 23.0073C76.2263 22.954 76.2448 22.9007 76.264 22.8473C76.7175 21.5805 76.9347 20.2693 76.9893 18.9343C77.0398 17.6981 77.0596 16.4584 76.7019 15.2511C76.4887 14.5311 76.2419 13.8168 75.6513 13.2988C74.4876 12.2782 72.6467 12.273 71.4521 13.2699C71.1803 13.4968 70.9179 13.7345 70.6571 13.974C70.5468 14.075 70.487 14.075 70.3917 13.9445C69.6199 12.8903 68.5108 12.7059 67.2982 12.8461C66.5868 12.9278 65.9962 13.2875 65.4712 13.7425C65.2779 13.9099 65.2593 13.8338 65.2256 13.646C65.1861 13.4265 65.1112 13.2171 64.9654 13.0322C64.3998 12.315 63.2552 12.1238 62.358 12.5874C61.9526 12.7967 61.7686 13.0798 61.8115 13.5445C61.9056 14.5691 61.9689 15.5966 62.0334 16.6241C62.1431 18.3863 62.2407 20.1496 62.3516 21.9118C62.3708 22.2216 62.3951 22.537 62.4747 22.8354C62.6727 23.5775 63.3197 23.9735 64.2645 23.9713C65.0444 23.969 65.5119 23.6076 65.6937 22.8695C65.8307 22.3135 65.833 21.7456 65.8429 21.1799C65.8615 20.1502 65.8557 19.1204 65.865 18.0901C65.8685 17.6844 65.9602 17.3021 66.2413 16.986C66.6356 16.5435 67.2488 16.531 67.6571 16.9588C67.9782 17.2952 68.0189 17.7253 68.0264 18.1497C68.0502 19.4245 68.0264 20.6999 68.1344 21.9725C68.1559 22.2261 68.1728 22.4814 68.2152 22.7327C68.3371 23.4527 68.9242 23.8266 69.8737 23.8005C70.6583 23.7795 71.1623 23.3438 71.264 22.5898C71.3906 21.6508 71.3656 20.705 71.3877 19.7615C71.4057 18.9882 71.4266 18.2127 71.656 17.4626C71.7645 17.1069 72.0921 16.8777 72.4568 16.8885C72.7977 16.8987 73.0903 17.129 73.1838 17.4768C73.2402 17.6862 73.2913 17.8989 73.3191 18.1134C73.4208 18.8952 73.3389 19.6787 73.307 20.4616L73.3075 20.4622Z" fill="white"/>
<path d="M60.6505 14.7533C60.6505 14.182 60.6546 13.7565 60.6494 13.3315C60.6453 12.9928 60.4891 12.7211 60.1923 12.5588C59.3311 12.0873 58.0053 12.1191 57.2963 13.1318C56.8956 13.7048 56.8729 14.355 56.8665 15.0063C56.8532 16.3498 56.7568 17.6859 56.5129 19.009C56.4478 19.3613 56.4211 19.7227 56.2887 20.0597C56.1394 20.4399 55.8729 20.7043 55.4385 20.7292C55.0041 20.7542 54.7103 20.5244 54.514 20.1619C54.3996 19.9502 54.3317 19.7239 54.32 19.4856C54.2765 18.5795 54.2382 17.6735 54.1975 16.7674C54.1545 15.8046 54.1116 14.8418 54.0674 13.879C54.0459 13.411 53.9339 12.9696 53.5378 12.6689C52.9327 12.2093 52.2532 12.1197 51.5436 12.4022C50.8101 12.6944 50.3827 13.2345 50.3084 14.0106C50.23 14.8288 50.1684 15.6492 50.1876 16.4718C50.2213 17.9169 50.2689 19.363 50.7108 20.7582C51.1865 22.2611 52.1638 23.3198 53.7167 23.8122C54.6789 24.1174 55.6604 24.0601 56.6424 23.8865C58.1273 23.6244 59.1615 22.8069 59.7887 21.481C60.3996 20.1908 60.5994 18.8121 60.69 17.4119C60.7504 16.4764 60.6012 15.5425 60.6511 14.7522L60.6505 14.7533Z" fill="white"/>
<path d="M87.5537 22.9478C87.1844 22.1591 86.9602 21.3325 86.9393 20.4639C86.9213 19.7371 86.9352 19.0098 86.9352 18.2824H86.9329C86.9329 17.4983 86.9486 16.7137 86.9283 15.9302C86.9091 15.1682 86.768 14.4239 86.3394 13.7703C85.6623 12.7366 84.6797 12.1936 83.4283 12.1216C82.0961 12.045 80.826 12.2379 79.6919 12.9805C79.3138 13.2285 79.0235 13.5484 78.9027 13.9938C78.6344 14.9821 79.3324 15.8156 80.2802 15.6255C80.4857 15.5847 80.6832 15.499 80.8818 15.4264C81.3057 15.2709 81.7221 15.0894 82.1722 15.0162C83.0752 14.8698 83.5851 15.3367 83.5247 16.2275C83.5113 16.4278 83.4451 16.5049 83.2343 16.514C82.3905 16.5514 81.5653 16.691 80.7773 17.0013C79.2139 17.6169 78.1181 18.6291 77.8742 20.3345C77.5647 22.495 79.3115 24.3162 81.6594 24.1142C82.484 24.0433 83.1948 23.6882 83.8626 23.2456C84.0868 23.0975 84.2029 23.1134 84.3772 23.3194C85.0305 24.0938 86.1594 24.3673 87.1118 24.0087C87.7343 23.7744 87.8313 23.5395 87.5537 22.9478ZM83.5566 19.9856C83.3626 20.7186 82.7238 21.2032 82.0676 21.2043C81.5281 21.2117 81.1913 21.0642 81.0206 20.6681C80.8562 20.2875 80.9677 19.9397 81.2378 19.652C81.6541 19.2078 82.178 18.9723 82.8028 18.9865C83.3208 18.9984 83.6873 19.4892 83.5566 19.9856Z" fill="white"/>
<path d="M41.3718 17.0029C41.3927 17.0029 41.4131 17.0029 41.434 17.0029C41.434 18.1649 41.427 19.3274 41.4363 20.4893C41.4444 21.4856 41.7255 22.3786 42.4949 23.0855C43.1721 23.7073 43.9868 23.9984 44.8928 24.0937C45.9874 24.2089 47.0763 24.1669 48.1303 23.8554C49.02 23.5927 49.6843 23.0673 49.8806 22.1136C50.078 21.1548 49.5153 20.4655 48.5171 20.4507C48.2255 20.4462 47.9398 20.4808 47.6558 20.5477C47.1129 20.6754 46.5786 20.8518 46.0066 20.815C45.5298 20.7843 45.3329 20.6147 45.24 20.1625C45.2017 19.9747 45.2005 19.7875 45.1982 19.5991C45.1791 17.8233 45.2174 16.0464 45.1309 14.2717C45.0972 13.5852 44.8358 12.9827 44.2348 12.5742C43.6732 12.1929 43.031 12.1294 42.3759 12.2071C41.7464 12.282 41.456 12.602 41.3852 13.2351C41.3712 13.3571 41.373 13.4802 41.3724 13.6033C41.3718 14.7369 41.3724 15.8699 41.3724 17.0035L41.3718 17.0029Z" fill="white"/>
<path d="M44.9893 31.9096C45.0532 31.9844 45.1049 32.052 45.1641 32.1132C45.8552 32.8349 47.2048 32.621 47.602 31.724C47.7095 31.4818 47.7728 31.2259 47.8117 30.9626C47.9168 30.2552 47.8645 29.5488 47.803 28.843C47.7786 28.5633 47.5974 28.3982 47.3355 28.4028C47.0846 28.4073 46.8988 28.5843 46.8935 28.8674C46.886 29.2827 46.9057 29.698 46.9092 30.1139C46.9127 30.519 46.9446 30.9292 46.771 31.3138C46.573 31.753 46.0614 31.8074 45.7739 31.4239C45.645 31.252 45.5892 31.0534 45.5434 30.8497C45.4051 30.2347 45.426 29.6112 45.4295 28.9877C45.4319 28.6093 45.2512 28.4011 44.9255 28.3982C44.627 28.3959 44.4638 28.5803 44.4597 28.9565C44.4551 29.3434 44.476 29.7309 44.4725 30.1179C44.469 30.5144 44.458 30.911 44.2838 31.2832C44.181 31.5022 44.0143 31.6253 43.7675 31.6304C43.5091 31.6355 43.3296 31.5073 43.2129 31.2894C43.1496 31.1709 43.1252 31.0415 43.1008 30.911C42.9864 30.2983 43.109 29.6855 43.0904 29.0728C43.0764 28.6155 42.9371 28.4147 42.6357 28.4022C42.3482 28.3903 42.1937 28.5565 42.1583 29.0093C42.0921 29.8654 42.0195 30.7255 42.2983 31.5652C42.4585 32.0486 42.7698 32.3736 43.2942 32.4911C43.9853 32.646 44.548 32.457 44.9888 31.909L44.9893 31.9096Z" fill="white"/>
<path d="M87.6294 32.0808C87.6335 31.1362 87.6311 30.1916 87.6311 29.2463H87.5876V26.4124C87.5876 26.2791 87.5917 26.1412 87.5034 26.0317C87.3623 25.857 87.1822 25.7549 86.9459 25.8309C86.7072 25.9086 86.5835 26.0771 86.5905 26.3234C86.6097 26.9747 86.6323 27.626 86.659 28.2773C86.6648 28.4339 86.6509 28.5258 86.4418 28.4855C86.1445 28.4288 85.8425 28.4759 85.5498 28.5383C84.7293 28.713 84.1689 29.3054 84.0957 30.0616C83.9616 31.4369 85.1021 32.461 86.5109 32.2295C86.6381 32.2091 86.7531 32.1455 86.8512 32.3208C86.979 32.5495 87.2252 32.5937 87.461 32.5205C87.6735 32.4547 87.6282 32.2442 87.6294 32.0808ZM86.6201 31.3677C85.9906 31.5169 85.0452 31.1748 85.0655 30.3272C85.0777 29.8279 85.4581 29.458 86.0371 29.3797C86.637 29.2985 86.6753 29.3303 86.6753 29.9175V30.3975C86.6863 30.3975 86.6968 30.3981 86.7072 30.3981C86.7072 30.6619 86.709 30.9263 86.7072 31.1907C86.7061 31.2593 86.7357 31.3404 86.6207 31.3677H86.6201Z" fill="white"/>
<path d="M58.9101 30.1201C58.7963 29.0013 58.0396 28.3034 56.7248 28.2711C56.0791 28.2654 55.3874 28.4935 55.0146 29.2521C54.6865 29.9204 54.6261 30.6301 54.8404 31.3467C54.9397 31.6792 55.14 31.9509 55.4403 32.1529C56.0274 32.5478 56.6795 32.6045 57.3532 32.4962C58.197 32.36 58.7121 31.8692 58.8822 31.0477C58.9455 30.7419 58.942 30.4333 58.9101 30.1201ZM57.9147 30.709C57.8758 31.3189 57.4833 31.7058 56.8694 31.7433C56.2637 31.7802 55.8178 31.433 55.6981 30.8423C55.6447 30.5785 55.6447 30.3198 55.6987 30.0571C55.8509 29.3139 56.5222 28.9462 57.255 29.1987C57.69 29.3485 57.8369 29.69 57.9043 30.0878C57.9235 30.199 57.9177 30.3136 57.9235 30.4265H57.9153C57.9153 30.5206 57.9206 30.6154 57.9153 30.709H57.9147Z" fill="white"/>
<path d="M66.7671 28.999C66.7671 28.6694 66.763 28.4056 66.7682 28.1423C66.7717 27.9489 66.6689 27.8536 66.4895 27.8025C66.0795 27.6856 65.8205 27.857 65.8147 28.2757C65.7978 29.5221 65.8309 30.768 65.8896 32.0134C65.8942 32.1059 65.914 32.2023 65.9494 32.288C66.0388 32.5036 66.1997 32.6204 66.4494 32.5751C66.8031 32.5109 66.9419 32.3782 66.9425 32.0991C66.9442 31.5135 66.939 30.928 66.9442 30.3425C66.9494 29.7854 67.1399 29.555 67.6875 29.4246C67.7996 29.3979 67.914 29.3809 68.0273 29.3587C68.2636 29.3128 68.5081 29.2997 68.7305 29.1987C68.8943 29.1244 68.9924 28.9951 68.9814 28.8198C68.9703 28.6433 68.8554 28.5259 68.6806 28.4776C68.4942 28.4266 68.3054 28.4016 68.108 28.4249C67.6294 28.4816 67.1933 28.6354 66.7665 28.9985L66.7671 28.999Z" fill="white"/>
<path d="M77.2366 32.1409C77.2314 32.1086 77.2227 32.062 77.2157 32.0155C76.937 30.1342 76.772 28.2443 76.7831 26.342C76.7831 26.2762 76.7871 26.2087 76.7773 26.144C76.7384 25.887 76.5531 25.723 76.3115 25.7259C76.0688 25.7287 75.8928 25.8966 75.8632 26.1593C75.8551 26.2342 75.8603 26.3102 75.8603 26.3857C75.8591 27.7666 75.948 29.1425 76.1001 30.5143C76.1634 31.0862 76.2494 31.6564 76.3353 32.2254C76.3742 32.4825 76.5787 32.6362 76.8197 32.6164C77.0612 32.5965 77.2389 32.3996 77.236 32.1403L77.2366 32.1409Z" fill="white"/>
<path d="M7.94533 4.06159C7.94417 4.19946 8.00747 4.38782 8.13116 4.54895C8.76938 5.38012 9.53419 6.08023 10.4308 6.64077C10.666 6.78772 10.8937 6.76218 11.1016 6.59708C11.3071 6.43369 11.3815 6.2232 11.2932 5.96619C11.2392 5.80903 11.1428 5.67911 11.0243 5.56961C10.3954 4.98978 9.89656 4.31349 9.45405 3.59239C9.2415 3.24574 8.92559 3.14248 8.5034 3.25311C8.16542 3.34162 7.96798 3.60601 7.94533 4.06159Z" fill="white"/>
<path d="M26.7504 0.867989C26.7516 0.45439 26.4235 0.0674558 26.0483 0.00731651C25.6976 -0.0488513 25.2893 0.213833 25.1674 0.599064C24.9083 1.41775 24.7057 2.25006 24.5454 3.09258C24.5274 3.18676 24.5361 3.27867 24.5675 3.37058C24.6668 3.6639 24.8962 3.83127 25.2173 3.83864C25.5419 3.84602 25.8096 3.67695 25.9229 3.35866C26.1912 2.60295 26.4478 1.84327 26.7063 1.08358C26.7336 1.00415 26.7405 0.918484 26.7504 0.867989Z" fill="white"/>
<path d="M3.32458 21.9821C2.70089 22.0138 2.12133 22.0371 1.54234 22.0762C1.2154 22.0984 0.887287 22.1324 0.581246 22.2652C0.213647 22.4252 0.0690472 22.7361 0.193322 23.0941C0.346633 23.5355 0.720619 23.7011 1.33212 23.6194C2.26128 23.4952 3.14688 23.1792 4.0714 23.0311C4.34259 22.9874 4.48952 22.7525 4.46455 22.4876C4.43551 22.1852 4.24445 21.994 3.94712 21.9838C3.72528 21.9764 3.50229 21.9821 3.32458 21.9821Z" fill="white"/>
<path d="M23.7151 38.5884C23.808 37.8951 23.5908 37.2284 23.4038 36.5573C23.2958 36.1698 23.0252 36.0551 22.6471 36.2339C22.3876 36.357 22.2482 36.5646 22.2313 36.8364C22.1797 37.6647 22.1251 38.4931 22.1007 39.3225C22.0867 39.7963 22.5089 40.093 22.9706 39.9738C23.0641 39.95 23.1559 39.9182 23.2511 39.9029C23.5792 39.8507 23.6965 39.6295 23.7128 39.3418C23.7267 39.0973 23.7157 38.8516 23.7157 38.5884H23.7151Z" fill="white"/>
<path d="M2.27513 17.5398C2.92263 17.5619 3.4058 17.3282 3.90812 17.1687C4.1195 17.1018 4.26643 16.9702 4.27746 16.7478C4.2885 16.5316 4.1619 16.3818 3.9749 16.2735C3.84134 16.1957 3.69674 16.1918 3.55388 16.2031C2.8152 16.2615 2.11485 16.1441 1.44643 15.8207C1.21356 15.7084 0.94643 15.6925 0.740273 15.8899C0.373836 16.2405 0.363964 17.0558 0.979531 17.2572C1.43482 17.4065 1.87036 17.6328 2.27571 17.5398H2.27513Z" fill="white"/>
<path d="M6.08919 11.2183C6.47247 11.2302 6.65017 11.0572 6.64436 10.7695C6.63914 10.5012 6.45447 10.3644 6.23902 10.268C5.649 10.0036 5.11125 9.65752 4.60138 9.26945C4.3598 9.08563 4.13854 8.87628 3.89289 8.69926C3.61705 8.50126 3.30578 8.49842 3.08453 8.66239C2.84701 8.83883 2.75351 9.18038 2.8563 9.48278C2.92018 9.67057 3.04039 9.81184 3.20822 9.91794C3.87547 10.3389 4.57583 10.6969 5.32031 10.9681C5.59964 11.0702 5.8871 11.1525 6.08977 11.2183H6.08919Z" fill="white"/>
<path d="M17.7132 3.39736C17.7121 2.74604 17.521 2.12082 17.4426 1.48028C17.4269 1.35092 17.3828 1.22327 17.3416 1.09845C17.2045 0.682584 16.7678 0.470394 16.3247 0.59975C15.9379 0.712653 15.7841 1.03775 15.9095 1.48312C16.0889 2.11798 16.2719 2.75172 16.4501 3.38715C16.51 3.60047 16.6052 3.79224 16.7661 3.94883C17.0059 4.18201 17.3694 4.16215 17.5802 3.90741C17.7051 3.7565 17.6888 3.57097 17.7126 3.39793L17.7132 3.39736Z" fill="white"/>
<path d="M31.1004 37.3669C31.3843 37.3601 31.6404 37.2824 31.7821 37.0237C31.9145 36.782 31.882 36.5408 31.7316 36.3037C31.4575 35.8719 31.2032 35.4277 30.9296 34.9954C30.7537 34.7174 30.6172 34.4093 30.339 34.2022C30.1265 34.0445 29.8994 34.0031 29.6683 34.1443C29.4372 34.2856 29.3692 34.495 29.4372 34.7554C29.6509 35.5741 30.0464 36.3162 30.461 37.0475C30.5888 37.2727 30.8268 37.3748 31.1004 37.3663V37.3669Z" fill="white"/>
<path d="M9.39965 35.4498C9.72718 35.4407 9.99779 35.3329 10.1987 35.1191C10.6395 34.6493 11.1041 34.1994 11.4874 33.6808C11.69 33.4062 11.6982 33.1753 11.5187 32.9898C11.3073 32.7708 11.0628 32.7509 10.7632 32.9342C10.1064 33.3359 9.50476 33.8039 8.94552 34.3282C8.74053 34.5205 8.65864 34.7287 8.75388 34.9863C8.85319 35.2541 9.14645 35.447 9.40023 35.4498H9.39965Z" fill="white"/>
<path d="M3.97418 29.0154C3.96779 29.5136 4.49393 29.8364 4.98232 29.6276C5.70125 29.3195 6.31798 28.8759 6.83134 28.2932C7.06479 28.0282 7.09905 27.8603 6.93413 27.6402C6.79592 27.4563 6.50846 27.3894 6.25352 27.5505C5.71345 27.8921 5.12924 28.1139 4.51657 28.2903C4.1664 28.3913 3.97882 28.6807 3.97476 29.0149L3.97418 29.0154Z" fill="white"/>
<path d="M14.7634 37.636C14.7634 38.0422 14.9284 38.2499 15.2205 38.3355C15.5085 38.4201 15.8383 38.3043 15.9899 38.032C16.2332 37.5946 16.4609 37.1481 16.6868 36.7016C16.7994 36.4792 16.7861 36.2528 16.6014 36.0724C16.4069 35.8829 16.1339 35.8505 15.9347 35.9997C15.3383 36.4474 15.0393 37.1004 14.764 37.6354L14.7634 37.636Z" fill="white"/>
<path d="M34.8022 5.35457C34.7993 5.06352 34.6727 4.86892 34.4346 4.76339C34.153 4.63801 33.8777 4.68112 33.6622 4.90126C33.3022 5.26947 32.9532 5.64732 32.6088 6.02972C32.4265 6.23226 32.4288 6.4575 32.5879 6.6782C32.7668 6.92727 33.1541 6.98514 33.441 6.76274C33.8481 6.44616 34.2319 6.10064 34.6164 5.75739C34.7389 5.64789 34.8074 5.49754 34.8022 5.35457Z" fill="white"/>
<path d="M88.8742 12.0245C88.8742 12.2118 88.8742 12.3303 88.8742 12.4489C88.8742 12.5431 88.8574 12.6458 89.0043 12.6503C89.1437 12.6549 89.1529 12.5675 89.1512 12.4637C89.1483 12.2191 89.1506 11.974 89.15 11.7295C89.15 11.6552 89.1634 11.5673 89.0682 11.5389C88.977 11.5122 88.898 11.5497 88.8388 11.6223C88.7435 11.7397 88.6495 11.8577 88.5409 11.9922C88.4288 11.8521 88.3272 11.7278 88.229 11.6013C88.1785 11.5355 88.1181 11.4958 88.0321 11.5156C87.9352 11.5383 87.9311 11.6138 87.9317 11.6926C87.9328 11.9468 87.9317 12.201 87.9323 12.4552C87.9323 12.5397 87.9224 12.6288 88.056 12.6322C88.2 12.6361 88.2052 12.5454 88.2052 12.4455C88.2052 12.3286 88.2052 12.2118 88.2052 12.0609C88.4387 12.2848 88.6615 12.2727 88.8736 12.0245H88.8742Z" fill="white"/>
<path d="M87.6718 11.6426C87.6741 11.5773 87.6399 11.5257 87.5568 11.5251C87.2781 11.5229 86.9993 11.5229 86.7206 11.5251C86.6474 11.5251 86.5876 11.5524 86.5864 11.6386C86.5853 11.7231 86.6399 11.7657 86.7148 11.7526C87.0481 11.6948 87.0098 11.9115 87.004 12.1112C86.9999 12.2519 87.004 12.3932 87.0034 12.5339C87.0034 12.6167 87.0162 12.6837 87.1259 12.6803C87.2328 12.6774 87.249 12.6093 87.2496 12.5282C87.2508 12.3688 87.2607 12.2082 87.2485 12.0494C87.2334 11.8587 87.2688 11.7334 87.5063 11.7685C87.5917 11.781 87.6579 11.7521 87.6724 11.6431L87.6718 11.6426Z" fill="white"/>
<path d="M37.4495 21.1379C37.388 19.4852 36.9245 17.9171 36.2242 16.4074C35.4832 14.8103 34.6812 13.2432 33.8583 11.6876C33.0737 10.2045 32.0023 8.92228 30.6051 7.93452C29.5482 7.18675 28.4407 6.50877 27.3101 5.87333C26.3681 5.34343 25.3292 5.08131 24.2386 5.03762C23.0133 4.98883 21.8019 5.14315 20.6056 5.35591C18.3059 5.7644 16.1834 6.63529 14.238 7.89594C11.3129 9.79146 9.02017 12.2345 7.58985 15.3952C7.02364 16.6468 6.66998 17.9585 6.59275 19.3321C6.53758 20.3153 6.7298 21.2667 6.98938 22.2102C7.72109 24.8666 8.78962 27.3714 10.4813 29.5932C11.8245 31.3571 13.4726 32.7533 15.6085 33.5278C17.3756 34.1683 19.2066 34.469 20.86 34.4196C23.0563 34.4497 24.9808 34.2001 26.813 33.5136C29.7747 32.4038 32.3275 30.6728 34.525 28.4466C36.5337 26.4115 37.5546 23.9747 37.4495 21.1379ZM34.59 21.0528C34.4808 22.4542 34.2143 23.8221 33.73 25.1434C33.1382 26.7581 32.169 28.1254 30.8426 29.2545C29.3112 30.5588 27.687 31.7207 25.7816 32.456C24.4483 32.9706 23.0795 33.3065 21.583 33.1811C20.0795 33.1647 18.5986 32.8373 17.1822 32.2359C15.5371 31.5381 14.1898 30.4419 12.9894 29.166C10.9633 27.0123 9.77685 24.4535 9.29369 21.5873C8.72981 18.2405 9.52366 15.2312 11.7978 12.635C12.5452 11.7823 13.4308 11.0805 14.4232 10.512C16.2723 9.45332 18.2827 8.8559 20.3902 8.5535C21.7107 8.36401 23.0348 8.22444 24.3763 8.30784C25.4825 8.37649 26.5249 8.66073 27.5093 9.14071C30.3194 10.5103 32.3362 12.6243 33.6121 15.4185C34.4315 17.2136 34.7439 19.0926 34.59 21.0528Z" fill="white"/>
<path d="M73.3084 20.462C73.3404 19.679 73.4222 18.8955 73.3206 18.1137C73.2927 17.8993 73.2411 17.6865 73.1853 17.4771C73.0918 17.1294 72.7991 16.8984 72.4582 16.8888C72.0935 16.878 71.7666 17.1078 71.6574 17.463C71.4275 18.213 71.4071 18.9886 71.3891 19.7619C71.3671 20.7054 71.392 21.6511 71.2654 22.5901C71.1638 23.3441 70.6597 23.7799 69.8752 23.8008C68.9257 23.8264 68.3386 23.4531 68.2166 22.7331C68.1742 22.4823 68.1574 22.227 68.1359 21.9728C68.0285 20.7003 68.0523 19.4249 68.0279 18.15C68.0198 17.7256 67.9797 17.2956 67.6586 16.9592C67.2503 16.5314 66.6365 16.5438 66.2427 16.9864C65.9611 17.3024 65.8699 17.6848 65.8664 18.0904C65.8571 19.1202 65.863 20.1505 65.8444 21.1802C65.8345 21.7453 65.8322 22.3138 65.6951 22.8698C65.5134 23.6079 65.0459 23.9693 64.266 23.9716C63.3211 23.9739 62.6742 23.5779 62.4762 22.8358C62.3966 22.5374 62.3722 22.2219 62.3531 21.9121C62.2427 20.1499 62.1452 18.3866 62.0348 16.6244C61.9709 15.5975 61.9076 14.57 61.813 13.5448C61.77 13.0807 61.9541 12.7971 62.3594 12.5877C63.2567 12.1242 64.4013 12.3159 64.9669 13.0325C65.1127 13.2175 65.187 13.4263 65.2271 13.6464C65.2607 13.8342 65.2793 13.9102 65.4727 13.7428C65.9977 13.2872 66.5883 12.9281 67.2997 12.8464C68.5122 12.7068 69.6214 12.8907 70.3932 13.9448C70.489 14.0753 70.5488 14.0753 70.6586 13.9743C70.9193 13.7355 71.1818 13.4972 71.4536 13.2702C72.6481 12.2734 74.489 12.2785 75.6528 13.2992C76.2434 13.8172 76.4902 14.5315 76.7033 15.2514C77.0611 16.4587 77.0413 17.6984 76.9908 18.9347C76.9362 20.2696 76.719 21.5808 76.2655 22.8477C76.2463 22.901 76.2277 22.9549 76.208 23.0077C75.8892 23.8536 75.4646 24.0976 74.5355 23.9693C73.8456 23.874 73.3404 23.3146 73.3142 22.5595C73.2898 21.8611 73.309 21.1615 73.309 20.4625L73.3084 20.462Z" fill="white"/>
<path d="M60.6511 14.7534C60.6017 15.5437 60.7504 16.477 60.69 17.4131C60.6 18.8134 60.3996 20.192 59.7887 21.4822C59.161 22.8081 58.1273 23.6256 56.6424 23.8878C55.6598 24.0614 54.6783 24.1187 53.7167 23.8134C52.1644 23.321 51.187 22.2623 50.7108 20.7594C50.2695 19.3648 50.2213 17.9181 50.1876 16.473C50.1684 15.6504 50.23 14.83 50.3084 14.0119C50.3827 13.2357 50.8107 12.6956 51.5436 12.4034C52.2532 12.1209 52.9327 12.2105 53.5378 12.6701C53.9339 12.9708 54.0459 13.4122 54.0674 13.8802C54.1116 14.843 54.154 15.8058 54.1975 16.7686C54.2382 17.6747 54.2765 18.5807 54.32 19.4868C54.3317 19.7251 54.3996 19.9515 54.514 20.1631C54.7103 20.5256 55.0041 20.7554 55.4385 20.7304C55.8723 20.7055 56.1389 20.4417 56.2887 20.061C56.4211 19.724 56.4484 19.362 56.5129 19.0102C56.7568 17.6872 56.8532 16.3511 56.8665 15.0076C56.8729 14.3557 56.8956 13.7055 57.2963 13.133C58.0047 12.1203 59.3305 12.0885 60.1923 12.56C60.4891 12.7223 60.6453 12.994 60.6494 13.3327C60.6546 13.7583 60.6505 14.1838 60.6505 14.7545L60.6511 14.7534Z" fill="white"/>
<path d="M87.5537 22.9478C87.1844 22.1591 86.9602 21.3325 86.9393 20.4639C86.9213 19.7371 86.9352 19.0098 86.9352 18.2824H86.9329C86.9329 17.4983 86.9486 16.7137 86.9283 15.9302C86.9091 15.1682 86.768 14.4239 86.3394 13.7703C85.6623 12.7366 84.6797 12.1936 83.4283 12.1216C82.0961 12.045 80.826 12.2379 79.6919 12.9805C79.3138 13.2285 79.0235 13.5484 78.9027 13.9938C78.6344 14.9821 79.3324 15.8156 80.2802 15.6255C80.4857 15.5847 80.6832 15.499 80.8818 15.4264C81.3057 15.2709 81.7221 15.0894 82.1722 15.0162C83.0752 14.8698 83.5851 15.3367 83.5247 16.2275C83.5113 16.4278 83.4451 16.5049 83.2343 16.514C82.3905 16.5514 81.5653 16.691 80.7773 17.0013C79.2139 17.6169 78.1181 18.6291 77.8742 20.3345C77.5647 22.495 79.3115 24.3162 81.6594 24.1142C82.484 24.0433 83.1948 23.6882 83.8626 23.2456C84.0868 23.0975 84.2029 23.1134 84.3772 23.3194C85.0305 24.0938 86.1594 24.3673 87.1118 24.0087C87.7343 23.7744 87.8313 23.5395 87.5537 22.9478ZM83.5566 19.9856C83.3626 20.7186 82.7238 21.2032 82.0676 21.2043C81.5281 21.2117 81.1913 21.0642 81.0206 20.6681C80.8562 20.2875 80.9677 19.9397 81.2378 19.652C81.6541 19.2078 82.178 18.9723 82.8028 18.9865C83.3208 18.9984 83.6873 19.4892 83.5566 19.9856Z" fill="white"/>
<path d="M41.3712 17.003C41.3712 15.8694 41.3712 14.7364 41.3712 13.6029C41.3712 13.4803 41.37 13.3566 41.384 13.2346C41.4548 12.602 41.7452 12.2815 42.3747 12.2066C43.0297 12.1289 43.6714 12.1924 44.2336 12.5737C44.8346 12.9822 45.0965 13.5847 45.1296 14.2712C45.2162 16.0459 45.1784 17.8228 45.197 19.5986C45.1987 19.7876 45.1999 19.9748 45.2388 20.162C45.3317 20.6142 45.5286 20.7838 46.0054 20.8145C46.5774 20.8513 47.1116 20.6749 47.6546 20.5472C47.9392 20.4803 48.2243 20.4457 48.5158 20.4502C49.5141 20.465 50.0774 21.1543 49.8794 22.1131C49.6831 23.0663 49.0187 23.5922 48.1291 23.8549C47.0745 24.1664 45.9862 24.2084 44.8915 24.0932C43.9856 23.9979 43.1708 23.7063 42.4937 23.085C41.7243 22.3781 41.4426 21.4851 41.4351 20.4888C41.4258 19.3269 41.4327 18.1644 41.4327 17.0024C41.4118 17.0024 41.3915 17.0024 41.3706 17.0024L41.3712 17.003Z" fill="white"/>
<path d="M44.9886 31.9095C44.5484 32.4575 43.9851 32.6459 43.294 32.4916C42.7696 32.3741 42.4584 32.049 42.2981 31.5657C42.0199 30.7265 42.0919 29.8659 42.1581 29.0097C42.193 28.5576 42.348 28.3908 42.6355 28.4027C42.9369 28.4152 43.0762 28.616 43.0902 29.0733C43.1088 29.6855 42.9857 30.2988 43.1006 30.9115C43.125 31.0426 43.1488 31.1719 43.2127 31.2899C43.3294 31.5078 43.5095 31.636 43.7673 31.6309C44.0141 31.6258 44.1808 31.5027 44.2836 31.2837C44.4578 30.9115 44.4688 30.5144 44.4723 30.1183C44.4758 29.7314 44.4549 29.3439 44.4595 28.957C44.4636 28.5814 44.6268 28.3964 44.9253 28.3987C45.2511 28.401 45.4317 28.6098 45.4293 28.9882C45.4253 29.6111 45.4044 30.2352 45.5432 30.8502C45.589 31.0539 45.6454 31.2525 45.7737 31.4244C46.0606 31.8079 46.5722 31.7535 46.7708 31.3143C46.9444 30.9291 46.9125 30.5195 46.909 30.1144C46.9055 29.6991 46.8852 29.2832 46.8933 28.8679C46.8986 28.5848 47.0844 28.4078 47.3353 28.4032C47.5972 28.3987 47.7784 28.5632 47.8028 28.8435C47.8643 29.5499 47.9166 30.2556 47.8115 30.9631C47.7726 31.2264 47.7087 31.4823 47.6018 31.7245C47.204 32.6221 45.855 32.8354 45.1639 32.1137C45.1053 32.0524 45.053 31.9844 44.9891 31.91L44.9886 31.9095Z" fill="white"/>
<path d="M87.6294 32.0808C87.6335 31.1362 87.6311 30.1916 87.6311 29.2463H87.5876V26.4124C87.5876 26.2791 87.5917 26.1412 87.5034 26.0317C87.3623 25.857 87.1822 25.7549 86.9459 25.8309C86.7072 25.9086 86.5835 26.0771 86.5905 26.3234C86.6097 26.9747 86.6323 27.626 86.659 28.2773C86.6648 28.4339 86.6509 28.5258 86.4418 28.4855C86.1445 28.4288 85.8425 28.4759 85.5498 28.5383C84.7293 28.713 84.1689 29.3054 84.0957 30.0616C83.9616 31.4369 85.1021 32.461 86.5109 32.2295C86.6381 32.2091 86.7531 32.1455 86.8512 32.3208C86.979 32.5495 87.2252 32.5937 87.461 32.5205C87.6735 32.4547 87.6282 32.2442 87.6294 32.0808ZM86.6201 31.3677C85.9906 31.5169 85.0452 31.1748 85.0655 30.3272C85.0777 29.8279 85.4581 29.458 86.0371 29.3797C86.637 29.2985 86.6753 29.3303 86.6753 29.9175V30.3975C86.6863 30.3975 86.6968 30.3981 86.7072 30.3981C86.7072 30.6619 86.709 30.9263 86.7072 31.1907C86.7061 31.2593 86.7357 31.3404 86.6207 31.3677H86.6201Z" fill="white"/>
<path d="M58.9101 30.1201C58.7963 29.0013 58.0396 28.3034 56.7248 28.2711C56.0791 28.2654 55.3874 28.4935 55.0146 29.2521C54.6865 29.9204 54.6261 30.6301 54.8404 31.3467C54.9397 31.6792 55.14 31.9509 55.4403 32.1529C56.0274 32.5478 56.6795 32.6045 57.3532 32.4962C58.197 32.36 58.7121 31.8692 58.8822 31.0477C58.9455 30.7419 58.942 30.4333 58.9101 30.1201ZM57.9147 30.709C57.8758 31.3189 57.4833 31.7058 56.8694 31.7433C56.2637 31.7802 55.8178 31.433 55.6981 30.8423C55.6447 30.5785 55.6447 30.3198 55.6987 30.0571C55.8509 29.3139 56.5222 28.9462 57.255 29.1987C57.69 29.3485 57.8369 29.69 57.9043 30.0878C57.9235 30.199 57.9177 30.3136 57.9235 30.4265H57.9153C57.9153 30.5206 57.9206 30.6154 57.9153 30.709H57.9147Z" fill="white"/>
<path d="M66.7665 28.999C67.1933 28.6359 67.6294 28.4821 68.108 28.4254C68.3048 28.4021 68.4936 28.4271 68.6806 28.4781C68.8554 28.5258 68.9703 28.6432 68.9814 28.8202C68.9924 28.995 68.8943 29.1249 68.7305 29.1992C68.5081 29.3002 68.2636 29.3133 68.0273 29.3592C67.914 29.3814 67.7996 29.3984 67.6875 29.425C67.1399 29.5555 66.9494 29.7859 66.9442 30.343C66.9384 30.9285 66.9442 31.514 66.9425 32.0995C66.9413 32.3787 66.8031 32.5114 66.4494 32.5755C66.1997 32.6209 66.0394 32.5041 65.9494 32.2885C65.914 32.2028 65.8942 32.1063 65.8896 32.0139C65.8309 30.7685 65.7978 29.5226 65.8147 28.2762C65.8205 27.8575 66.0795 27.6861 66.4895 27.803C66.6689 27.854 66.7723 27.9494 66.7682 28.1428C66.763 28.4061 66.7671 28.6699 66.7671 28.9995L66.7665 28.999Z" fill="white"/>
<path d="M77.236 32.1411C77.2395 32.4004 77.0612 32.5972 76.8197 32.6171C76.5781 32.6369 76.3737 32.4832 76.3353 32.2262C76.25 31.6566 76.164 31.0869 76.1001 30.515C75.948 29.1432 75.8591 27.7674 75.8603 26.3864C75.8603 26.311 75.8551 26.2344 75.8632 26.1601C75.8928 25.8974 76.0688 25.7294 76.3115 25.7266C76.5531 25.7238 76.7384 25.8877 76.7773 26.1447C76.7871 26.2094 76.7831 26.2769 76.7831 26.3427C76.7715 28.2451 76.937 30.1349 77.2157 32.0163C77.2227 32.0628 77.2308 32.1093 77.2366 32.1416L77.236 32.1411Z" fill="white"/>
<path d="M7.94533 4.06159C7.9674 3.60601 8.16542 3.34162 8.5034 3.25311C8.92559 3.14248 9.2415 3.24574 9.45405 3.59239C9.89656 4.31406 10.3954 4.98978 11.0243 5.56961C11.1428 5.67911 11.2392 5.80903 11.2932 5.96619C11.3815 6.2232 11.3077 6.43369 11.1016 6.59708C10.8937 6.76218 10.666 6.78772 10.4308 6.64077C9.53419 6.07966 8.76938 5.38012 8.13116 4.54895C8.00747 4.38782 7.94417 4.19946 7.94533 4.06159Z" fill="white"/>
<path d="M26.7504 0.867989C26.7405 0.918483 26.7336 1.00415 26.7063 1.08358C26.4478 1.8427 26.1912 2.60238 25.9229 3.35866C25.8096 3.67751 25.5419 3.84659 25.2173 3.83864C24.8962 3.83127 24.6673 3.6639 24.5675 3.37058C24.5361 3.2781 24.5274 3.18676 24.5454 3.09258C24.7063 2.25006 24.9089 1.41775 25.1674 0.599064C25.2893 0.213833 25.697 -0.0488513 26.0483 0.00731651C26.4235 0.0674558 26.7516 0.453822 26.7504 0.867989Z" fill="white"/>
<path d="M3.32459 21.9821C3.50229 21.9821 3.72528 21.9758 3.94712 21.9838C4.24387 21.994 4.43551 22.1852 4.46455 22.4876C4.4901 22.7525 4.34259 22.9874 4.0714 23.0311C3.14746 23.1797 2.26186 23.4952 1.33212 23.6194C0.720619 23.7011 0.346633 23.5355 0.193322 23.0941C0.0690471 22.7361 0.213647 22.4252 0.581246 22.2652C0.886706 22.1318 1.21482 22.0984 1.54234 22.0762C2.12074 22.0377 2.70031 22.0144 3.32459 21.9821Z" fill="white"/>
<path d="M23.7157 38.5884C23.7157 38.8516 23.7267 39.0973 23.7128 39.3418C23.6965 39.6295 23.5792 39.8507 23.2511 39.9029C23.1564 39.9182 23.0641 39.9495 22.9706 39.9738C22.5089 40.093 22.0867 39.7963 22.1007 39.3225C22.1251 38.4931 22.1791 37.6647 22.2313 36.8364C22.2482 36.5646 22.3876 36.357 22.6471 36.2339C23.0252 36.0551 23.2964 36.1698 23.4038 36.5573C23.5908 37.2284 23.808 37.8945 23.7151 38.5884H23.7157Z" fill="white"/>
<path d="M2.27552 17.5396C1.87017 17.6326 1.43405 17.4057 0.979342 17.2571C0.364355 17.0556 0.373647 16.2404 0.740084 15.8897C0.946241 15.6929 1.21337 15.7082 1.44624 15.8205C2.11466 16.1439 2.81501 16.2608 3.55369 16.2029C3.69713 16.1916 3.84173 16.1961 3.97472 16.2733C4.16171 16.3822 4.28831 16.532 4.27727 16.7476C4.26624 16.9694 4.11932 17.1016 3.90793 17.1685C3.40619 17.328 2.92302 17.5612 2.27494 17.5396H2.27552Z" fill="white"/>
<path d="M6.08831 11.2183C5.88564 11.153 5.59876 11.0702 5.31885 10.9681C4.57436 10.6969 3.87401 10.3389 3.20676 9.91789C3.03893 9.8118 2.91872 9.67053 2.85484 9.48273C2.75205 9.18034 2.84555 8.83879 3.08306 8.66234C3.30432 8.49838 3.61559 8.50065 3.89143 8.69922C4.13766 8.87624 4.35891 9.08559 4.59991 9.26941C5.10979 9.65748 5.64696 10.003 6.23755 10.2679C6.453 10.3644 6.63767 10.5017 6.6429 10.7695C6.64871 11.0571 6.471 11.2302 6.08773 11.2183H6.08831Z" fill="white"/>
<path d="M17.7141 3.39744C17.6903 3.57105 17.7066 3.75657 17.5817 3.90692C17.3703 4.16166 17.0068 4.18152 16.7675 3.94834C16.6067 3.79175 16.5108 3.59999 16.4516 3.38666C16.2733 2.75123 16.0904 2.11749 15.911 1.48263C15.7855 1.03726 15.9394 0.712165 16.3262 0.599262C16.7693 0.469906 17.2065 0.682095 17.343 1.09796C17.3842 1.22278 17.4278 1.35044 17.4441 1.47979C17.5225 2.12033 17.7135 2.74555 17.7147 3.39687L17.7141 3.39744Z" fill="white"/>
<path d="M31.1004 37.3668C30.8263 37.3748 30.5888 37.2732 30.461 37.048C30.0458 36.3167 29.6509 35.5746 29.4372 34.7559C29.3692 34.4955 29.4372 34.2861 29.6683 34.1448C29.9 34.003 30.1271 34.045 30.339 34.2027C30.6178 34.4092 30.7537 34.7179 30.9296 34.9959C31.2032 35.4282 31.4575 35.8719 31.7316 36.3042C31.882 36.5413 31.9145 36.7825 31.7821 37.0241C31.6404 37.2829 31.3843 37.3606 31.1004 37.3674V37.3668Z" fill="white"/>
<path d="M9.40023 35.4498C9.14645 35.4476 8.85319 35.2547 8.75388 34.9863C8.65864 34.7287 8.74053 34.5205 8.94552 34.3282C9.50476 33.8039 10.107 33.3359 10.7632 32.9342C11.0628 32.7509 11.3073 32.7708 11.5187 32.9898C11.6982 33.1753 11.69 33.4062 11.4874 33.6808C11.1041 34.1994 10.6395 34.6493 10.1987 35.1191C9.99779 35.3329 9.72718 35.4407 9.39965 35.4498H9.40023Z" fill="white"/>
<path d="M3.97328 29.0155C3.97735 28.6808 4.16492 28.392 4.5151 28.291C5.12776 28.114 5.71197 27.8927 6.25205 27.5512C6.50698 27.39 6.79444 27.4564 6.93265 27.6408C7.09758 27.8609 7.06332 28.0289 6.82987 28.2938C6.31651 28.8765 5.69978 29.3202 4.98084 29.6282C4.49303 29.8376 3.9669 29.5142 3.9727 29.0161L3.97328 29.0155Z" fill="white"/>
<path d="M14.764 37.6359C15.0393 37.1015 15.3383 36.4479 15.9347 36.0002C16.1339 35.851 16.4063 35.8834 16.6014 36.0729C16.7867 36.2527 16.7994 36.4791 16.6868 36.7021C16.4609 37.1486 16.2338 37.5951 15.9899 38.0325C15.8383 38.3043 15.5085 38.4206 15.2205 38.336C14.9284 38.2504 14.7634 38.0427 14.7634 37.6365L14.764 37.6359Z" fill="white"/>
<path d="M34.802 5.35457C34.8072 5.49754 34.7387 5.64789 34.6162 5.75739C34.2317 6.10064 33.8479 6.44616 33.4408 6.76274C33.1545 6.98571 32.7671 6.92727 32.5877 6.6782C32.4291 6.4575 32.4262 6.23226 32.6086 6.02972C32.953 5.64732 33.302 5.2689 33.662 4.90126C33.8769 4.68112 34.1522 4.63801 34.4344 4.76339C34.6725 4.86892 34.7991 5.06352 34.802 5.35457Z" fill="white"/>
<path d="M88.8736 12.0245C88.6614 12.2727 88.4386 12.2848 88.2052 12.0609C88.2052 12.2118 88.2052 12.3286 88.2052 12.4455C88.2052 12.5454 88.1999 12.6361 88.0559 12.6322C87.9223 12.6288 87.9328 12.5397 87.9322 12.4552C87.9311 12.201 87.9322 11.9468 87.9316 11.6926C87.9316 11.6138 87.9351 11.5383 88.0321 11.5156C88.1181 11.4958 88.1779 11.5355 88.229 11.6013C88.3265 11.7284 88.4287 11.8521 88.5408 11.9922C88.6488 11.8577 88.7429 11.7392 88.8387 11.6223C88.8974 11.5502 88.9769 11.5122 89.0681 11.5389C89.1634 11.5667 89.15 11.6546 89.15 11.7295C89.15 11.9746 89.1483 12.2191 89.1512 12.4637C89.1523 12.5681 89.143 12.6549 89.0042 12.6503C88.8573 12.6458 88.8742 12.5431 88.8742 12.4489C88.8742 12.3303 88.8742 12.2112 88.8742 12.0245H88.8736Z" fill="white"/>
<path d="M87.6724 11.6427C87.6585 11.7522 87.5917 11.7811 87.5063 11.768C87.2694 11.7329 87.234 11.8588 87.2485 12.0489C87.2607 12.2077 87.2508 12.3683 87.2496 12.5277C87.2496 12.6094 87.2328 12.6769 87.1259 12.6798C87.0162 12.6826 87.0028 12.6162 87.0034 12.5334C87.0046 12.3927 86.9999 12.2514 87.004 12.1107C87.0098 11.911 87.0475 11.6937 86.7148 11.7522C86.6399 11.7652 86.5853 11.7227 86.5864 11.6381C86.5876 11.5519 86.6474 11.5252 86.7206 11.5247C86.9993 11.5224 87.2781 11.5224 87.5568 11.5247C87.6399 11.5252 87.6741 11.5768 87.6718 11.6421L87.6724 11.6427Z" fill="white"/>
<path d="M31.1867 20.5495C31.0439 19.4137 30.613 18.3556 30.016 17.3735C29.0654 15.8076 27.7796 14.5078 26.4858 13.2182C26.3452 13.0781 26.1705 12.9674 26.0026 12.8568C24.5955 11.9275 23.0433 11.8191 21.4405 12.1527C19.5008 12.5561 17.8841 13.5189 16.5467 14.9492C15.1019 16.4935 14.337 18.2949 14.3132 20.4894C14.3283 20.7129 14.3469 21.0335 14.3719 21.3535C14.3841 21.5038 14.4073 21.6536 14.4282 21.8034C14.8005 24.4166 16.1837 26.3382 18.5804 27.5512C20.0868 28.3137 21.689 28.5395 23.3656 28.2939C25.8847 27.9245 28.0828 26.9419 29.7802 25.0418C30.9283 23.7568 31.3981 22.2374 31.1867 20.5495ZM27.7738 24.5431C26.7547 25.4946 25.4939 25.9303 24.1629 26.2361C23.4666 26.3961 22.761 26.5266 22.0502 26.5674C21.2424 26.6134 20.4526 26.4466 19.6989 26.1589C18.3138 25.6313 17.2407 24.7292 16.4265 23.5219C15.851 22.6686 15.4967 21.7478 15.5118 20.3311C15.5891 18.911 16.1565 17.2935 17.4695 15.9863C18.7993 14.6627 20.4137 13.8866 22.3168 13.7254C23.5154 13.6239 24.538 14.0426 25.4236 14.8017C27.2343 16.3534 28.4324 18.3005 29.0671 20.5456C29.5067 22.0978 28.9602 23.4362 27.7738 24.5431Z" fill="white"/>
<path d="M24.7572 31.2803C23.9953 31.4227 23.2235 31.4664 22.4518 31.518C21.0406 31.6122 19.7072 31.3081 18.4134 30.7862C15.8181 29.7388 13.7897 28.081 12.533 25.5909C11.9412 24.4182 11.6305 23.1661 11.4575 21.877C11.4273 21.6524 11.4041 21.4266 11.3698 21.2025C11.3146 20.8371 11.3965 20.7321 11.774 20.6629C11.972 20.6266 12.1602 20.6714 12.3472 20.7055C12.533 20.7389 12.5614 20.8898 12.5736 21.0538C12.6166 21.637 12.6358 22.2237 12.7728 22.7967C13.0283 23.8667 13.6427 24.758 14.2839 25.6301C15.1677 26.8306 16.2833 27.786 17.6358 28.447C18.6393 28.9377 19.7154 29.2276 20.835 29.3666C22.1544 29.5306 23.4564 29.4563 24.7497 29.1715C24.752 29.8744 24.7543 30.5774 24.7572 31.2803Z" fill="white"/>
<path d="M33.5937 22.5539C33.4346 22.9732 33.2569 23.0782 32.8295 22.9902C32.5339 22.9295 32.3068 22.6629 32.3986 22.3236C32.6576 21.3614 32.3068 20.4922 32.0246 19.6162C31.4711 17.8994 30.7598 16.2456 29.6581 14.7875C28.5362 13.3038 27.0634 12.2423 25.3306 11.5207C25.4246 10.9227 25.319 10.3173 25.3979 9.71875C26.5693 9.93264 27.6482 10.3445 28.6169 11.0458C30.7185 12.5674 32.0908 14.5775 32.8858 16.9899C33.1965 17.9317 33.5681 18.8582 33.7226 19.8414C33.8655 20.7503 33.9322 21.6626 33.5937 22.5539Z" fill="white"/>
<path d="M25.3299 11.5207C22.838 10.5443 20.3839 10.6668 17.9681 11.7715C16.162 12.5975 14.7474 13.8582 13.6974 15.5092C13.5557 15.7321 13.4704 15.988 13.3461 16.2218C13.1771 16.5389 13.0319 16.5922 12.687 16.4895C11.8322 16.2348 11.7439 16.0351 12.0871 15.2187C12.8258 13.4593 14.162 12.2486 15.806 11.3102C17.327 10.4421 18.9733 9.92075 20.7016 9.66204C22.2643 9.42829 23.8357 9.40559 25.3973 9.71877C25.3183 10.3173 25.424 10.9227 25.3299 11.5207Z" fill="white"/>
<path d="M31.5093 26.8414C29.9878 29.2725 27.7822 30.7181 24.9274 31.2424C24.8705 31.2526 24.8141 31.2673 24.7578 31.2804C24.7549 30.5774 24.7526 29.8745 24.7502 29.1715C26.9117 28.6456 28.7694 27.5926 30.3612 26.08C30.7689 25.6925 31.1214 25.713 31.4727 26.1481C31.6539 26.3734 31.6742 26.5782 31.5093 26.8414Z" fill="white"/>
<path d="M27.2436 20.9449C27.1908 22.8875 25.5676 24.6258 23.6001 24.9447C23.218 25.0065 22.8353 25.0542 22.4457 25.0559C20.3713 25.0077 18.7331 24.1561 17.5327 22.5028C17.261 22.1295 17.2801 21.8747 17.5734 21.6648C17.8945 21.4345 18.2354 21.4975 18.4933 21.8572C19.4985 23.2574 20.8806 23.924 22.6222 23.9036C24.6257 23.8809 26.1042 22.4705 26.0932 20.5903C26.0822 18.6312 24.4573 16.8508 22.5455 16.7028C21.5467 16.6256 20.6135 17.2576 20.1437 18.3299C19.7976 19.1191 19.9393 19.9423 20.5781 20.4433C21.2738 20.9897 22.0932 21.1309 22.9561 20.9273C23.2424 20.8598 23.4863 20.6714 23.5334 20.3531C23.581 20.028 23.3742 19.8232 23.121 19.6609C22.8284 19.4731 22.5026 19.4022 22.1547 19.4249C21.9544 19.4385 21.8359 19.5009 21.8516 19.7381C21.8766 20.1143 21.6425 20.3628 21.2865 20.3843C20.9631 20.4042 20.7383 20.1874 20.6965 19.8164C20.6082 19.0317 21.1437 18.4139 22.0409 18.2647C22.9683 18.1109 24.1832 18.7481 24.5636 19.5883C24.9927 20.5358 24.4463 21.6149 23.3377 21.9933C22.3179 22.3417 21.3498 22.1085 20.4207 21.6875C18.8045 20.9545 18.2807 18.9954 19.3231 17.3512C20.4468 15.5788 22.5037 15.0784 24.4561 16.1212C26.3981 17.1595 27.3011 18.8122 27.2436 20.9449Z" fill="white"/>
</g>
<defs>
<clipPath id="clip0_3016_11380">
<rect width="89" height="40" fill="white" transform="translate(0.151123)"/>
</clipPath>
</defs>
</svg>
