<svg width="200" height="50" viewBox="0 0 200 50" fill="none" xmlns="http://www.w3.org/2000/svg">
<g clip-path="url(#clip0_3033_2424)">
<path d="M80.8322 26.0407C80.774 28.1797 78.9867 30.0939 76.8203 30.445C76.3995 30.5131 75.9781 30.5655 75.5491 30.5674C73.265 30.5143 71.4611 29.5766 70.1393 27.7561C69.8401 27.3451 69.8612 27.0646 70.1841 26.8334C70.5377 26.5798 70.9131 26.6491 71.197 27.0452C72.3039 28.587 73.8257 29.3211 75.7435 29.2986C77.9496 29.2736 79.5776 27.7205 79.5654 25.6502C79.5533 23.493 77.7641 21.5326 75.659 21.3696C74.5592 21.2846 73.5316 21.9806 73.0143 23.1613C72.6332 24.0303 72.7892 24.9368 73.4926 25.4884C74.2587 26.09 75.1609 26.2456 76.1111 26.0213C76.4264 25.9469 76.695 25.7395 76.7468 25.3891C76.7992 25.0311 76.5715 24.8056 76.2927 24.6269C75.9705 24.4201 75.6117 24.342 75.2287 24.367C75.0081 24.382 74.8776 24.4507 74.8949 24.7119C74.9224 25.1261 74.6647 25.3997 74.2727 25.4234C73.9166 25.4453 73.6691 25.2066 73.623 24.7981C73.5258 23.9341 74.1154 23.2538 75.1034 23.0895C76.1246 22.9202 77.4623 23.6217 77.8811 24.5469C78.3537 25.5902 77.752 26.7785 76.5313 27.1951C75.4084 27.5787 74.3424 27.322 73.3193 26.8584C71.5397 26.0513 70.9629 23.8941 72.1107 22.0837C73.3481 20.132 75.613 19.581 77.7628 20.7292C79.9012 21.8725 80.8955 23.6923 80.8322 26.0407Z" fill="white"/>
<path d="M85.1741 25.605C85.0168 24.3543 84.5423 23.1892 83.8849 22.1078C82.8382 20.3836 81.4224 18.9523 79.9977 17.5323C79.843 17.378 79.6505 17.2562 79.4657 17.1344C77.9163 16.1111 76.2071 15.9918 74.4422 16.3591C72.3064 16.8033 70.5262 17.8634 69.0536 19.4384C67.4626 21.1389 66.6205 23.1224 66.5942 25.5388C66.6109 25.785 66.6313 26.1379 66.6588 26.4903C66.6723 26.6558 66.6978 26.8207 66.7208 26.9857C67.1307 29.8632 68.6539 31.9791 71.2929 33.3148C72.9516 34.1544 74.7159 34.403 76.562 34.1325C79.3359 33.7258 81.7562 32.6438 83.6253 30.5516C84.8895 29.1366 85.4068 27.4636 85.1741 25.605ZM81.416 30.0025C80.2938 31.0501 78.9055 31.5299 77.4399 31.8666C76.6732 32.0428 75.8963 32.1865 75.1136 32.2315C74.2241 32.2821 73.3545 32.0984 72.5245 31.7817C70.9994 31.2007 69.8177 30.2074 68.9212 28.878C68.2875 27.9384 67.8974 26.9244 67.9141 25.3645C67.9991 23.8008 68.6238 22.0197 70.0696 20.5804C71.534 19.1229 73.3116 18.2683 75.4071 18.0908C76.7269 17.979 77.853 18.4401 78.8282 19.2759C80.822 20.9846 82.1412 23.1286 82.8401 25.6007C83.3241 27.3099 82.7224 28.7836 81.416 30.0025Z" fill="white"/>
<path d="M85.5285 32.5334C83.8531 35.2104 81.4245 36.8022 78.281 37.3794C78.2183 37.3907 78.1563 37.4069 78.0943 37.4213C77.2553 37.5781 76.4055 37.6262 75.5557 37.683C74.0018 37.7867 72.5336 37.4519 71.1089 36.8771C68.2512 35.7239 66.0176 33.8985 64.6339 31.1565C63.9823 29.8652 63.6402 28.4865 63.4496 27.0671C63.4164 26.8197 63.3908 26.5711 63.3531 26.3243C63.2923 25.922 63.3825 25.8064 63.7981 25.7302C64.0162 25.6902 64.2233 25.7396 64.4292 25.777C64.6339 25.8139 64.6652 25.9801 64.6786 26.1606C64.726 26.8028 64.7471 27.4488 64.898 28.0798C65.1793 29.258 65.8559 30.2394 66.5618 31.1996C67.5351 32.5216 68.7634 33.5736 70.2527 34.3014C71.3577 34.8418 72.5426 35.161 73.7754 35.3141C75.2283 35.4946 76.6619 35.4128 78.086 35.0992C80.466 34.5201 82.5116 33.3606 84.2643 31.695C84.7132 31.2684 85.1013 31.2909 85.4882 31.77C85.6877 32.018 85.7101 32.2436 85.5285 32.5334Z" fill="white"/>
<path d="M87.8236 27.8123C87.6484 28.274 87.4527 28.3896 86.9821 28.2927C86.6566 28.2259 86.4066 27.9323 86.5076 27.5587C86.7928 26.4991 86.4066 25.5421 86.0958 24.5775C85.4864 22.6871 84.7031 20.866 83.4901 19.2605C82.2547 17.6268 80.633 16.4579 78.7249 15.6633C75.981 14.5881 73.2787 14.7231 70.6186 15.9394C68.6299 16.849 67.0722 18.2372 65.9161 20.0551C65.7601 20.3006 65.6661 20.5824 65.5292 20.8398C65.3432 21.189 65.1833 21.2477 64.8035 21.1346C63.8622 20.8541 63.765 20.6342 64.1429 19.7352C64.9563 17.798 66.4277 16.4648 68.2379 15.4315C69.9127 14.4757 71.7255 13.9016 73.6285 13.6167C75.3493 13.3593 77.0796 13.3343 78.7991 13.6792C80.0889 13.9147 81.2769 14.3682 82.3435 15.1404C84.6577 16.8159 86.1687 19.0293 87.0441 21.6856C87.3862 22.7227 87.7955 23.7429 87.9656 24.8255C88.1229 25.8263 88.1964 26.8309 87.8236 27.8123Z" fill="white"/>
<path d="M92.0701 26.2531C92.0023 24.4332 91.492 22.7065 90.7208 21.0441C89.9049 19.2855 89.0218 17.56 88.1157 15.847C87.2518 14.214 86.0721 12.8021 84.5335 11.7145C83.3697 10.8911 82.1503 10.1445 80.9053 9.44484C79.8681 8.86135 78.7241 8.57273 77.5233 8.52462C76.174 8.4709 74.8401 8.64082 73.5229 8.87509C70.9907 9.3249 68.6535 10.2838 66.5113 11.672C63.2904 13.7592 60.7659 16.4493 59.1909 19.9296C58.5674 21.3077 58.178 22.7521 58.093 24.2646C58.0322 25.3472 58.2439 26.3949 58.5297 27.4338C59.3354 30.3587 60.512 33.1169 62.3747 35.5633C63.8538 37.5056 65.6685 39.043 68.0204 39.8958C69.9663 40.6011 71.9824 40.9322 73.8029 40.8779C76.2213 40.911 78.3405 40.6361 80.3579 39.8802C83.6191 38.6582 86.4301 36.7522 88.8498 34.3008C91.0617 32.0599 92.1858 29.3767 92.0701 26.2531ZM88.9214 26.1593C88.8012 27.7024 88.5077 29.2086 87.9744 30.6636C87.3228 32.4416 86.2556 33.9472 84.7951 35.1904C83.1088 36.6266 81.3203 37.906 79.2223 38.7157C77.7541 39.2823 76.2469 39.6521 74.5991 39.5141C72.9435 39.496 71.3129 39.1355 69.7533 38.4733C67.9418 37.7049 66.4582 36.4979 65.1365 35.0929C62.9055 32.7215 61.5991 29.9039 61.067 26.7478C60.4461 23.0626 61.3203 19.749 63.8244 16.8903C64.6473 15.9513 65.6225 15.1786 66.7153 14.5526C68.7513 13.3869 70.9651 12.729 73.2856 12.396C74.7397 12.1874 76.1977 12.0337 77.6748 12.1255C78.893 12.2011 80.0408 12.5141 81.1246 13.0426C84.2189 14.5507 86.4397 16.8784 87.8446 19.9552C88.7469 21.9318 89.0909 24.0009 88.9214 26.1593Z" fill="white"/>
<path d="M131.554 25.5089C131.554 26.2785 131.533 27.0495 131.56 27.8179C131.589 28.6494 132.145 29.2654 132.905 29.3703C133.928 29.5115 134.395 29.2429 134.747 28.3114C134.768 28.2527 134.789 28.194 134.81 28.1352C135.309 26.7402 135.548 25.2965 135.609 23.8265C135.664 22.4652 135.686 21.1002 135.292 19.7708C135.057 18.978 134.786 18.1915 134.135 17.6211C132.854 16.4972 130.827 16.4916 129.511 17.5893C129.212 17.8391 128.923 18.1009 128.636 18.3645C128.514 18.4757 128.449 18.4757 128.344 18.3321C127.494 17.1713 126.273 16.9683 124.937 17.1226C124.154 17.2125 123.504 17.6086 122.926 18.1097C122.713 18.2939 122.692 18.2102 122.655 18.0034C122.612 17.7617 122.529 17.5312 122.369 17.3275C121.746 16.5378 120.486 16.3273 119.498 16.8377C119.051 17.0682 118.849 17.38 118.896 17.8916C118.999 19.0199 119.069 20.1513 119.14 21.2826C119.261 23.223 119.368 25.1647 119.491 27.1051C119.512 27.4462 119.539 27.7935 119.626 28.1221C119.844 28.9392 120.557 29.3753 121.597 29.3728C122.456 29.3703 122.97 28.9724 123.171 28.1596C123.322 27.5474 123.324 26.922 123.335 26.2992C123.355 25.1653 123.349 24.0314 123.359 22.8969C123.363 22.4502 123.464 22.0292 123.774 21.6812C124.208 21.1939 124.883 21.1802 125.333 21.6512C125.686 22.0217 125.731 22.4952 125.739 22.9625C125.765 24.3663 125.739 25.7706 125.858 27.1719C125.882 27.4512 125.9 27.7323 125.947 28.009C126.081 28.8018 126.728 29.2135 127.773 29.1848C128.637 29.1616 129.192 28.6819 129.304 27.8516C129.444 26.8177 129.416 25.7763 129.44 24.7374C129.46 23.8859 129.483 23.0319 129.736 22.206C129.855 21.8143 130.216 21.5619 130.618 21.5737C130.993 21.585 131.315 21.8386 131.418 22.2216C131.48 22.4521 131.537 22.6864 131.567 22.9225C131.679 23.7834 131.589 24.6461 131.554 25.5083L131.554 25.5089Z" fill="white"/>
<path d="M117.617 19.2227C117.617 18.5936 117.622 18.125 117.616 17.6571C117.611 17.2842 117.439 16.9849 117.113 16.8062C116.164 16.2871 114.704 16.3221 113.924 17.4372C113.482 18.0682 113.458 18.7841 113.45 19.5013C113.436 20.9806 113.33 22.4519 113.061 23.9087C112.989 24.2967 112.96 24.6946 112.814 25.0657C112.65 25.4843 112.356 25.7754 111.878 25.8029C111.4 25.8304 111.076 25.5774 110.86 25.1782C110.734 24.9451 110.659 24.6959 110.646 24.4335C110.599 23.4358 110.556 22.4381 110.512 21.4404C110.464 20.3803 110.417 19.3201 110.368 18.26C110.345 17.7446 110.221 17.2585 109.785 16.9274C109.119 16.4214 108.371 16.3227 107.589 16.6338C106.782 16.9555 106.311 17.5503 106.229 18.4049C106.143 19.3058 106.075 20.2091 106.096 21.115C106.133 22.7061 106.186 24.2986 106.672 25.8348C107.196 27.4896 108.272 28.6554 109.982 29.1976C111.042 29.5337 112.122 29.4706 113.204 29.2795C114.839 28.9909 115.978 28.0906 116.668 26.6307C117.341 25.21 117.561 23.6919 117.661 22.1501C117.727 21.12 117.563 20.0917 117.618 19.2214L117.617 19.2227Z" fill="white"/>
<path d="M147.241 28.2458C146.834 27.3774 146.587 26.4672 146.564 25.5107C146.545 24.7105 146.56 23.9096 146.56 23.1087H146.557C146.557 22.2453 146.575 21.3813 146.552 20.5186C146.531 19.6796 146.376 18.8599 145.904 18.1402C145.158 17.002 144.076 16.4041 142.698 16.3248C141.231 16.2405 139.833 16.4529 138.584 17.2706C138.168 17.5436 137.848 17.896 137.715 18.3864C137.42 19.4747 138.188 20.3924 139.232 20.1831C139.458 20.1381 139.676 20.0438 139.894 19.9638C140.361 19.7926 140.82 19.5927 141.315 19.5121C142.31 19.351 142.871 19.8651 142.804 20.8459C142.79 21.0665 142.717 21.1514 142.485 21.1614C141.556 21.2026 140.647 21.3563 139.779 21.698C138.058 22.3759 136.851 23.4904 136.583 25.3683C136.242 27.7473 138.165 29.7526 140.751 29.5302C141.659 29.4521 142.441 29.0611 143.177 28.5738C143.423 28.4107 143.551 28.4282 143.743 28.655C144.463 29.5077 145.706 29.8088 146.754 29.414C147.44 29.156 147.547 28.8974 147.241 28.2458ZM142.84 24.9841C142.626 25.7912 141.923 26.3248 141.2 26.326C140.606 26.3341 140.235 26.1717 140.047 25.7356C139.866 25.3165 139.989 24.9335 140.286 24.6168C140.745 24.1276 141.322 23.8683 142.01 23.884C142.58 23.8971 142.984 24.4375 142.84 24.9841Z" fill="white"/>
<path d="M96.3892 21.7001C96.4122 21.7001 96.4346 21.7001 96.4576 21.7001C96.4576 22.9795 96.4499 24.2596 96.4601 25.539C96.4691 26.636 96.7786 27.6193 97.6259 28.3977C98.3715 29.0824 99.2686 29.4029 100.266 29.5079C101.471 29.6347 102.67 29.5885 103.831 29.2455C104.811 28.9562 105.542 28.3777 105.758 27.3276C105.976 26.2718 105.356 25.5128 104.257 25.4965C103.936 25.4915 103.621 25.5296 103.309 25.6033C102.711 25.7439 102.122 25.9382 101.493 25.8976C100.968 25.8638 100.751 25.6771 100.649 25.1792C100.606 24.9724 100.605 24.7662 100.602 24.5588C100.581 22.6034 100.624 20.6468 100.528 18.6926C100.491 17.9367 100.203 17.2733 99.5416 16.8235C98.9233 16.4036 98.2161 16.3337 97.4948 16.4193C96.8016 16.5017 96.4819 16.8541 96.4039 17.5513C96.3885 17.6856 96.3904 17.8211 96.3898 17.9567C96.3892 19.2049 96.3898 20.4525 96.3898 21.7007L96.3892 21.7001Z" fill="white"/>
<path d="M100.373 38.114C100.443 38.1965 100.5 38.2708 100.565 38.3383C101.326 39.1329 102.812 38.8974 103.249 37.9097C103.368 37.643 103.437 37.3612 103.48 37.0713C103.596 36.2923 103.538 35.5145 103.471 34.7374C103.444 34.4294 103.244 34.2476 102.956 34.2526C102.68 34.2576 102.475 34.4525 102.469 34.7642C102.461 35.2215 102.483 35.6788 102.487 36.1367C102.49 36.5828 102.526 37.0345 102.334 37.458C102.116 37.9416 101.553 38.0016 101.236 37.5792C101.095 37.3899 101.033 37.1713 100.983 36.947C100.83 36.2698 100.853 35.5832 100.857 34.8967C100.86 34.48 100.661 34.2507 100.302 34.2476C99.9736 34.2451 99.7939 34.4481 99.7894 34.8623C99.7843 35.2884 99.8073 35.7151 99.8035 36.1411C99.7996 36.5778 99.7875 37.0145 99.5956 37.4243C99.4825 37.6654 99.2989 37.801 99.0272 37.8066C98.7426 37.8123 98.545 37.6711 98.4165 37.4312C98.3468 37.3006 98.3199 37.1582 98.2931 37.0145C98.1671 36.3398 98.302 35.6651 98.2816 34.9904C98.2662 34.4868 98.1128 34.2657 97.7809 34.252C97.4644 34.2388 97.2943 34.4219 97.2553 34.9204C97.1824 35.8631 97.1024 36.8102 97.4094 37.7348C97.5859 38.2671 97.9286 38.625 98.506 38.7543C99.267 38.9249 99.8866 38.7169 100.372 38.1134L100.373 38.114Z" fill="white"/>
<path d="M147.324 38.3026C147.329 37.2624 147.326 36.2223 147.326 35.1815H147.278V32.061C147.278 31.9142 147.283 31.7623 147.186 31.6418C147.03 31.4494 146.832 31.3369 146.572 31.4206C146.309 31.5062 146.173 31.6918 146.18 31.9629C146.201 32.6801 146.226 33.3973 146.256 34.1144C146.262 34.2869 146.247 34.3881 146.017 34.3437C145.689 34.2812 145.357 34.3331 145.034 34.4018C144.131 34.5942 143.514 35.2464 143.433 36.0792C143.285 37.5935 144.541 38.7212 146.093 38.4663C146.233 38.4438 146.359 38.3738 146.467 38.5668C146.608 38.8186 146.879 38.8673 147.139 38.7867C147.373 38.7143 147.323 38.4825 147.324 38.3026ZM146.213 37.5173C145.52 37.6816 144.479 37.3049 144.501 36.3716C144.515 35.8218 144.933 35.4145 145.571 35.3283C146.231 35.2389 146.274 35.2739 146.274 35.9205V36.449C146.286 36.449 146.297 36.4497 146.309 36.4497C146.309 36.7401 146.311 37.0313 146.309 37.3224C146.308 37.398 146.34 37.4873 146.214 37.5173H146.213Z" fill="white"/>
<path d="M115.701 36.1435C115.575 34.9116 114.742 34.1431 113.295 34.1075C112.584 34.1013 111.822 34.3524 111.411 35.1877C111.05 35.9236 110.984 36.7051 111.22 37.4942C111.329 37.8603 111.55 38.1595 111.88 38.3819C112.527 38.8167 113.245 38.8792 113.986 38.7599C114.916 38.6099 115.483 38.0695 115.67 37.1649C115.74 36.8282 115.736 36.4884 115.701 36.1435ZM114.605 36.792C114.562 37.4636 114.13 37.8896 113.454 37.9308C112.787 37.9715 112.296 37.5891 112.164 36.9388C112.105 36.6483 112.105 36.3634 112.165 36.0742C112.332 35.2558 113.071 34.851 113.878 35.129C114.357 35.2939 114.519 35.67 114.593 36.1079C114.614 36.2304 114.608 36.3565 114.614 36.4809H114.605C114.605 36.5846 114.611 36.6889 114.605 36.792H114.605Z" fill="white"/>
<path d="M124.352 34.9093C124.352 34.5463 124.348 34.2559 124.354 33.966C124.357 33.7529 124.244 33.648 124.047 33.5918C123.595 33.4631 123.31 33.6517 123.304 34.1128C123.285 35.4853 123.322 36.8572 123.386 38.2285C123.391 38.3303 123.413 38.4365 123.452 38.5308C123.55 38.7682 123.728 38.8969 124.003 38.8469C124.392 38.7764 124.545 38.6302 124.545 38.3228C124.547 37.6781 124.542 37.0334 124.547 36.3887C124.553 35.7752 124.763 35.5215 125.366 35.3779C125.489 35.3485 125.615 35.3298 125.74 35.3054C126 35.2548 126.269 35.2404 126.514 35.1292C126.695 35.0474 126.803 34.9049 126.791 34.7119C126.778 34.5176 126.652 34.3883 126.459 34.3352C126.254 34.279 126.046 34.2515 125.829 34.2771C125.302 34.3396 124.822 34.5089 124.352 34.9087L124.352 34.9093Z" fill="white"/>
<path d="M135.881 38.369C135.875 38.3334 135.865 38.2821 135.858 38.2309C135.551 36.1593 135.369 34.0784 135.381 31.9837C135.381 31.9112 135.386 31.8369 135.375 31.7656C135.332 31.4826 135.128 31.3021 134.862 31.3052C134.595 31.3083 134.401 31.4933 134.368 31.7825C134.359 31.865 134.365 31.9487 134.365 32.0318C134.364 33.5523 134.462 35.0673 134.629 36.5779C134.699 37.2076 134.794 37.8355 134.888 38.4621C134.931 38.7451 135.156 38.9144 135.421 38.8925C135.687 38.8706 135.883 38.6538 135.88 38.3683L135.881 38.369Z" fill="white"/>
<path d="M59.5825 7.45013C59.5813 7.60193 59.651 7.80934 59.7872 7.98676C60.4899 8.90199 61.3321 9.6729 62.3194 10.2901C62.5784 10.4519 62.829 10.4238 63.0579 10.242C63.2843 10.0621 63.3662 9.83033 63.269 9.54733C63.2095 9.37428 63.1033 9.23122 62.9729 9.11064C62.2804 8.47218 61.7311 7.7275 61.2438 6.93348C61.0098 6.55177 60.6619 6.43807 60.197 6.55989C59.8249 6.65735 59.6075 6.94847 59.5825 7.45013Z" fill="white"/>
<path d="M80.2893 3.93357C80.2905 3.47815 79.9292 3.05209 79.5162 2.98586C79.1299 2.92402 78.6804 3.21326 78.5461 3.63745C78.2609 4.53893 78.0378 5.4554 77.8613 6.38312C77.8414 6.48682 77.851 6.58803 77.8856 6.68923C77.9949 7.01221 78.2475 7.19651 78.6011 7.20463C78.9586 7.21275 79.2534 7.02658 79.378 6.67611C79.6735 5.84398 79.9561 5.00747 80.2407 4.17097C80.2707 4.08351 80.2784 3.98917 80.2893 3.93357Z" fill="white"/>
<path d="M54.4945 27.1825C53.8078 27.2175 53.1696 27.2431 52.5321 27.2862C52.172 27.3105 51.8108 27.348 51.4738 27.4942C51.069 27.6704 50.9098 28.0127 51.0466 28.4069C51.2154 28.893 51.6272 29.0754 52.3006 28.9854C53.3237 28.8486 54.2989 28.5006 55.3169 28.3376C55.6155 28.2895 55.7773 28.0308 55.7498 27.7391C55.7178 27.4061 55.5074 27.1956 55.18 27.1843C54.9357 27.1762 54.6902 27.1825 54.4945 27.1825Z" fill="white"/>
<path d="M76.947 45.4683C77.0493 44.7049 76.8101 43.9709 76.6042 43.2318C76.4853 42.8051 76.1873 42.6789 75.771 42.8757C75.4852 43.0113 75.3317 43.2399 75.3132 43.5392C75.2563 44.4513 75.1962 45.3634 75.1693 46.2767C75.154 46.7984 75.6188 47.1251 76.1272 46.9939C76.2302 46.9677 76.3312 46.9327 76.4361 46.9158C76.7974 46.8583 76.9265 46.6147 76.9444 46.298C76.9598 46.0287 76.9476 45.7582 76.9476 45.4683H76.947Z" fill="white"/>
<path d="M53.339 22.2908C54.052 22.3152 54.5841 22.0578 55.1372 21.8822C55.3699 21.8085 55.5317 21.6636 55.5439 21.4187C55.556 21.1807 55.4166 21.0157 55.2107 20.8964C55.0636 20.8108 54.9044 20.8065 54.7471 20.819C53.9337 20.8833 53.1626 20.754 52.4266 20.3979C52.1701 20.2742 51.876 20.2567 51.649 20.4741C51.2455 20.8602 51.2346 21.7579 51.9124 21.9797C52.4138 22.144 52.8934 22.3933 53.3397 22.2908H53.339Z" fill="white"/>
<path d="M57.5385 15.3302C57.9605 15.3433 58.1562 15.1528 58.1498 14.8361C58.144 14.5406 57.9407 14.39 57.7034 14.2838C57.0538 13.9927 56.4616 13.6116 55.9002 13.1843C55.6342 12.9819 55.3906 12.7514 55.1201 12.5565C54.8163 12.3384 54.4736 12.3353 54.23 12.5158C53.9684 12.7101 53.8655 13.0862 53.9786 13.4192C54.049 13.626 54.1814 13.7815 54.3662 13.8984C55.1009 14.3619 55.8721 14.7561 56.6918 15.0547C56.9994 15.1672 57.3159 15.2578 57.5391 15.3302H57.5385Z" fill="white"/>
<path d="M70.3379 6.71826C70.3367 6.00108 70.1263 5.31263 70.0399 4.60732C70.0227 4.46488 69.9741 4.32432 69.9287 4.18688C69.7778 3.72896 69.2969 3.49531 68.809 3.63775C68.3831 3.76207 68.2137 4.12003 68.3518 4.61044C68.5494 5.30951 68.7508 6.00733 68.9471 6.70702C69.013 6.94191 69.1179 7.15307 69.295 7.32549C69.5591 7.58226 69.9594 7.56039 70.1915 7.27989C70.329 7.11371 70.3111 6.90943 70.3373 6.71889L70.3379 6.71826Z" fill="white"/>
<path d="M85.0792 44.1234C85.3919 44.1159 85.6739 44.0303 85.8299 43.7454C85.9757 43.4793 85.9399 43.2138 85.7743 42.9526C85.4725 42.4772 85.1924 41.9881 84.8912 41.512C84.6974 41.2059 84.5472 40.8667 84.2409 40.6387C84.0068 40.465 83.7568 40.4194 83.5023 40.5749C83.2478 40.7305 83.173 40.961 83.2478 41.2478C83.4831 42.1493 83.9186 42.9664 84.3752 43.7717C84.5158 44.0197 84.778 44.1321 85.0792 44.1228V44.1234Z" fill="white"/>
<path d="M61.1838 42.012C61.5444 42.002 61.8424 41.8833 62.0637 41.6477C62.549 41.1305 63.0606 40.6351 63.4826 40.0641C63.7058 39.7617 63.7147 39.5074 63.5171 39.3032C63.2844 39.062 63.0152 39.0401 62.6852 39.2419C61.962 39.6842 61.2995 40.1996 60.6837 40.7769C60.458 40.9887 60.3679 41.2179 60.4727 41.5016C60.5821 41.7964 60.905 42.0088 61.1844 42.012H61.1838Z" fill="white"/>
<path d="M55.2095 34.9272C55.2025 35.4757 55.7818 35.8311 56.3196 35.6012C57.1113 35.262 57.7904 34.7735 58.3556 34.1319C58.6127 33.8401 58.6504 33.6552 58.4688 33.4128C58.3166 33.2104 58.0001 33.1367 57.7194 33.3141C57.1247 33.6902 56.4814 33.9345 55.8068 34.1288C55.4212 34.24 55.2147 34.5586 55.2102 34.9265L55.2095 34.9272Z" fill="white"/>
<path d="M67.0898 44.4191C67.0898 44.8664 67.2714 45.095 67.5931 45.1894C67.9103 45.2825 68.2735 45.155 68.4404 44.8551C68.7083 44.3735 68.959 43.8818 69.2077 43.3902C69.3318 43.1453 69.317 42.896 69.1137 42.6973C68.8995 42.4887 68.5989 42.4531 68.3796 42.6174C67.7229 43.1103 67.3936 43.8293 67.0905 44.4185L67.0898 44.4191Z" fill="white"/>
<path d="M89.1552 8.87353C89.152 8.55305 89.0126 8.33877 88.7504 8.22257C88.4403 8.08451 88.1372 8.13199 87.9 8.37438C87.5035 8.77983 87.1192 9.19589 86.74 9.61696C86.5392 9.83998 86.5418 10.088 86.717 10.331C86.9139 10.6053 87.3405 10.669 87.6563 10.4241C88.1046 10.0755 88.5273 9.69505 88.9506 9.31709C89.0855 9.19652 89.161 9.03096 89.1552 8.87353Z" fill="white"/>
<path d="M148.695 16.2179C148.695 16.424 148.695 16.5546 148.695 16.6852C148.695 16.7889 148.677 16.902 148.838 16.907C148.992 16.912 149.002 16.8157 149 16.7014C148.997 16.4322 148.999 16.1623 148.999 15.893C148.999 15.8112 149.014 15.7144 148.909 15.6831C148.808 15.6538 148.721 15.695 148.656 15.775C148.551 15.9043 148.448 16.0342 148.328 16.1823C148.205 16.028 148.093 15.8912 147.985 15.7518C147.929 15.6794 147.863 15.6356 147.768 15.6575C147.661 15.6825 147.657 15.7656 147.657 15.8524C147.659 16.1323 147.657 16.4122 147.658 16.692C147.658 16.7851 147.647 16.8832 147.794 16.887C147.953 16.8913 147.958 16.7914 147.958 16.6814C147.958 16.5527 147.958 16.424 147.958 16.2579C148.216 16.5044 148.461 16.4911 148.694 16.2179H148.695Z" fill="white"/>
<path d="M147.371 15.7977C147.373 15.7259 147.336 15.669 147.244 15.6684C146.937 15.6659 146.63 15.6659 146.324 15.6684C146.243 15.6684 146.177 15.6984 146.176 15.7933C146.175 15.8864 146.235 15.9333 146.317 15.9189C146.684 15.8552 146.642 16.0938 146.636 16.3137C146.631 16.4687 146.636 16.6242 146.635 16.7791C146.635 16.8703 146.649 16.9441 146.77 16.9403C146.888 16.9372 146.905 16.8622 146.906 16.7729C146.907 16.5973 146.918 16.4205 146.905 16.2456C146.888 16.0357 146.927 15.8977 147.189 15.9364C147.283 15.9501 147.356 15.9183 147.372 15.7983L147.371 15.7977Z" fill="white"/>
<path d="M92.0701 26.2531C92.0023 24.4332 91.492 22.7065 90.7208 21.0441C89.9049 19.2855 89.0218 17.56 88.1157 15.847C87.2518 14.214 86.0721 12.8021 84.5335 11.7145C83.3697 10.8911 82.1503 10.1445 80.9053 9.44484C79.8681 8.86135 78.7241 8.57273 77.5233 8.52462C76.174 8.4709 74.8401 8.64082 73.5229 8.87509C70.9907 9.3249 68.6535 10.2838 66.5113 11.672C63.2904 13.7592 60.7659 16.4493 59.1909 19.9296C58.5674 21.3077 58.178 22.7521 58.093 24.2646C58.0322 25.3472 58.2439 26.3949 58.5297 27.4338C59.3354 30.3587 60.512 33.1169 62.3747 35.5633C63.8538 37.5056 65.6685 39.043 68.0204 39.8958C69.9663 40.6011 71.9824 40.9322 73.8029 40.8779C76.2213 40.911 78.3405 40.6361 80.3579 39.8802C83.6191 38.6582 86.4301 36.7522 88.8498 34.3008C91.0617 32.0599 92.1858 29.3767 92.0701 26.2531ZM88.9214 26.1593C88.8012 27.7024 88.5077 29.2086 87.9744 30.6636C87.3228 32.4416 86.2556 33.9472 84.7951 35.1904C83.1088 36.6266 81.3203 37.906 79.2223 38.7157C77.7541 39.2823 76.2469 39.6521 74.5991 39.5141C72.9435 39.496 71.3129 39.1355 69.7533 38.4733C67.9418 37.7049 66.4582 36.4979 65.1365 35.0929C62.9055 32.7215 61.5991 29.9039 61.067 26.7478C60.4461 23.0626 61.3203 19.749 63.8244 16.8903C64.6473 15.9513 65.6225 15.1786 66.7153 14.5526C68.7513 13.3869 70.9651 12.729 73.2856 12.396C74.7397 12.1874 76.1977 12.0337 77.6748 12.1255C78.893 12.2011 80.0408 12.5141 81.1246 13.0426C84.2189 14.5507 86.4397 16.8784 87.8446 19.9552C88.7469 21.9318 89.0909 24.0009 88.9214 26.1593Z" fill="white"/>
<path d="M131.555 25.5086C131.59 24.6465 131.681 23.7837 131.569 22.9229C131.538 22.6867 131.481 22.4524 131.42 22.2219C131.317 21.839 130.994 21.5847 130.619 21.5741C130.218 21.5622 129.857 21.8152 129.737 22.2063C129.484 23.0322 129.462 23.8862 129.442 24.7377C129.418 25.7766 129.445 26.818 129.306 27.8519C129.194 28.6822 128.639 29.162 127.775 29.1851C126.729 29.2132 126.083 28.8021 125.949 28.0094C125.902 27.7332 125.883 27.4521 125.86 27.1722C125.741 25.771 125.768 24.3666 125.741 22.9628C125.732 22.4955 125.688 22.022 125.334 21.6515C124.885 21.1805 124.209 21.1942 123.775 21.6815C123.465 22.0295 123.365 22.4506 123.361 22.8972C123.35 24.0311 123.357 25.1656 123.336 26.2995C123.326 26.9217 123.323 27.5477 123.172 28.1599C122.972 28.9727 122.457 29.3706 121.598 29.3731C120.558 29.3756 119.846 28.9396 119.628 28.1224C119.54 27.7938 119.513 27.4465 119.492 27.1054C119.371 25.165 119.263 23.2234 119.142 21.283C119.071 20.1522 119.002 19.0208 118.897 17.892C118.85 17.3809 119.053 17.0686 119.499 16.838C120.487 16.3276 121.747 16.5388 122.37 17.3278C122.531 17.5315 122.613 17.7614 122.657 18.0038C122.694 18.2106 122.714 18.2943 122.927 18.11C123.505 17.6083 124.156 17.2129 124.939 17.1229C126.274 16.9692 127.495 17.1716 128.345 18.3324C128.451 18.4761 128.517 18.4761 128.637 18.3649C128.925 18.1019 129.214 17.8395 129.513 17.5896C130.828 16.4919 132.855 16.4976 134.137 17.6214C134.787 18.1918 135.059 18.9783 135.293 19.7711C135.687 21.1005 135.666 22.4656 135.61 23.8268C135.55 25.2968 135.311 26.7405 134.811 28.1356C134.79 28.1943 134.77 28.2536 134.748 28.3117C134.397 29.2432 133.93 29.5118 132.906 29.3706C132.147 29.2657 131.59 28.6497 131.562 27.8182C131.535 27.0492 131.556 26.2789 131.556 25.5092L131.555 25.5086Z" fill="white"/>
<path d="M117.618 19.2229C117.563 20.0931 117.727 21.1208 117.661 22.1516C117.561 23.6934 117.341 25.2115 116.668 26.6321C115.977 28.0921 114.839 28.9923 113.204 29.281C112.122 29.4721 111.041 29.5352 109.982 29.1991C108.273 28.6569 107.197 27.4911 106.672 25.8362C106.186 24.3006 106.133 22.7076 106.096 21.1164C106.075 20.2106 106.143 19.3072 106.229 18.4064C106.311 17.5518 106.782 16.957 107.589 16.6353C108.371 16.3242 109.119 16.4229 109.785 16.9289C110.221 17.26 110.345 17.746 110.368 18.2614C110.417 19.3216 110.464 20.3818 110.512 21.4419C110.556 22.4396 110.599 23.4373 110.646 24.435C110.659 24.6973 110.734 24.9466 110.86 25.1796C111.076 25.5788 111.4 25.8318 111.878 25.8044C112.356 25.7769 112.649 25.4864 112.814 25.0672C112.96 24.6961 112.99 24.2975 113.061 23.9102C113.33 22.4533 113.436 20.9821 113.45 19.5028C113.458 18.785 113.482 18.069 113.924 17.4387C114.704 16.3235 116.164 16.2886 117.113 16.8077C117.439 16.9864 117.611 17.2856 117.616 17.6586C117.622 18.1271 117.617 18.5957 117.617 19.2241L117.618 19.2229Z" fill="white"/>
<path d="M147.241 28.2458C146.834 27.3774 146.587 26.4672 146.564 25.5107C146.545 24.7105 146.56 23.9096 146.56 23.1087H146.557C146.557 22.2453 146.575 21.3813 146.552 20.5186C146.531 19.6796 146.376 18.8599 145.904 18.1402C145.158 17.002 144.076 16.4041 142.698 16.3248C141.231 16.2405 139.833 16.4529 138.584 17.2706C138.168 17.5436 137.848 17.896 137.715 18.3864C137.42 19.4747 138.188 20.3924 139.232 20.1831C139.458 20.1381 139.676 20.0438 139.894 19.9638C140.361 19.7926 140.82 19.5927 141.315 19.5121C142.31 19.351 142.871 19.8651 142.804 20.8459C142.79 21.0665 142.717 21.1514 142.485 21.1614C141.556 21.2026 140.647 21.3563 139.779 21.698C138.058 22.3759 136.851 23.4904 136.583 25.3683C136.242 27.7473 138.165 29.7526 140.751 29.5302C141.659 29.4521 142.441 29.0611 143.177 28.5738C143.423 28.4107 143.551 28.4282 143.743 28.655C144.463 29.5077 145.706 29.8088 146.754 29.414C147.44 29.156 147.547 28.8974 147.241 28.2458ZM142.84 24.9841C142.626 25.7912 141.923 26.3248 141.2 26.326C140.606 26.3341 140.235 26.1717 140.047 25.7356C139.866 25.3165 139.989 24.9335 140.286 24.6168C140.745 24.1276 141.322 23.8683 142.01 23.884C142.58 23.8971 142.984 24.4375 142.84 24.9841Z" fill="white"/>
<path d="M96.3883 21.6997C96.3883 20.4515 96.3883 19.2039 96.3883 17.9557C96.3883 17.8208 96.3871 17.6846 96.4024 17.5503C96.4804 16.8537 96.8001 16.5008 97.4933 16.4183C98.2146 16.3327 98.9212 16.4027 99.5402 16.8225C100.202 17.2723 100.49 17.9357 100.527 18.6917C100.622 20.6458 100.581 22.6024 100.601 24.5578C100.603 24.7659 100.604 24.972 100.647 25.1782C100.749 25.6761 100.966 25.8629 101.491 25.8966C102.121 25.9372 102.709 25.7429 103.307 25.6024C103.62 25.5286 103.934 25.4905 104.255 25.4955C105.355 25.5118 105.975 26.2708 105.757 27.3266C105.541 28.3761 104.809 28.9553 103.83 29.2445C102.668 29.5875 101.47 29.6337 100.265 29.5069C99.2671 29.4019 98.37 29.0808 97.6244 28.3968C96.7771 27.6184 96.467 26.635 96.4587 25.538C96.4484 24.2586 96.4561 22.9785 96.4561 21.6991C96.4331 21.6991 96.4107 21.6991 96.3877 21.6991L96.3883 21.6997Z" fill="white"/>
<path d="M100.372 38.1139C99.887 38.7173 99.2668 38.9248 98.5058 38.7548C97.9284 38.6255 97.5856 38.2675 97.4092 37.7353C97.1029 36.8113 97.1822 35.8636 97.2551 34.9209C97.2934 34.423 97.4642 34.2393 97.7807 34.2524C98.1126 34.2662 98.266 34.4873 98.2814 34.9909C98.3018 35.6649 98.1663 36.3403 98.2929 37.015C98.3197 37.1593 98.346 37.3017 98.4163 37.4317C98.5448 37.6716 98.7431 37.8127 99.027 37.8071C99.2987 37.8015 99.4823 37.6659 99.5954 37.4248C99.7873 37.015 99.7994 36.5777 99.8033 36.1416C99.8071 35.7155 99.7841 35.2889 99.7892 34.8628C99.7937 34.4492 99.9734 34.2456 100.302 34.2481C100.661 34.2506 100.86 34.4805 100.857 34.8972C100.853 35.5831 100.83 36.2703 100.982 36.9475C101.033 37.1718 101.095 37.3904 101.236 37.5797C101.552 38.002 102.116 37.9421 102.334 37.4585C102.525 37.0343 102.49 36.5833 102.486 36.1372C102.483 35.6799 102.46 35.222 102.469 34.7647C102.475 34.453 102.679 34.2581 102.956 34.2531C103.244 34.2481 103.444 34.4292 103.47 34.7379C103.538 35.5156 103.596 36.2928 103.48 37.0718C103.437 37.3617 103.367 37.6434 103.249 37.9102C102.811 38.8985 101.326 39.1334 100.565 38.3388C100.5 38.2713 100.443 38.1963 100.372 38.1145L100.372 38.1139Z" fill="white"/>
<path d="M147.324 38.3026C147.329 37.2624 147.326 36.2223 147.326 35.1815H147.278V32.061C147.278 31.9142 147.283 31.7623 147.186 31.6418C147.03 31.4494 146.832 31.3369 146.572 31.4206C146.309 31.5062 146.173 31.6918 146.18 31.9629C146.201 32.6801 146.226 33.3973 146.256 34.1144C146.262 34.2869 146.247 34.3881 146.017 34.3437C145.689 34.2812 145.357 34.3331 145.034 34.4018C144.131 34.5942 143.514 35.2464 143.433 36.0792C143.285 37.5935 144.541 38.7212 146.093 38.4663C146.233 38.4438 146.359 38.3738 146.467 38.5668C146.608 38.8186 146.879 38.8673 147.139 38.7867C147.373 38.7143 147.323 38.4825 147.324 38.3026ZM146.213 37.5173C145.52 37.6816 144.479 37.3049 144.501 36.3716C144.515 35.8218 144.933 35.4145 145.571 35.3283C146.231 35.2389 146.274 35.2739 146.274 35.9205V36.449C146.286 36.449 146.297 36.4497 146.309 36.4497C146.309 36.7401 146.311 37.0313 146.309 37.3224C146.308 37.398 146.34 37.4873 146.214 37.5173H146.213Z" fill="white"/>
<path d="M115.701 36.1435C115.575 34.9116 114.742 34.1431 113.295 34.1075C112.584 34.1013 111.822 34.3524 111.411 35.1877C111.05 35.9236 110.984 36.7051 111.22 37.4942C111.329 37.8603 111.55 38.1595 111.88 38.3819C112.527 38.8167 113.245 38.8792 113.986 38.7599C114.916 38.6099 115.483 38.0695 115.67 37.1649C115.74 36.8282 115.736 36.4884 115.701 36.1435ZM114.605 36.792C114.562 37.4636 114.13 37.8896 113.454 37.9308C112.787 37.9715 112.296 37.5891 112.164 36.9388C112.105 36.6483 112.105 36.3634 112.165 36.0742C112.332 35.2558 113.071 34.851 113.878 35.129C114.357 35.2939 114.519 35.67 114.593 36.1079C114.614 36.2304 114.608 36.3565 114.614 36.4809H114.605C114.605 36.5846 114.611 36.6889 114.605 36.792H114.605Z" fill="white"/>
<path d="M124.352 34.9092C124.822 34.5094 125.302 34.3401 125.829 34.2776C126.046 34.252 126.253 34.2795 126.459 34.3357C126.652 34.3882 126.778 34.5175 126.791 34.7124C126.803 34.9048 126.695 35.0479 126.514 35.1297C126.269 35.2409 126 35.2553 125.74 35.3059C125.615 35.3302 125.489 35.349 125.366 35.3783C124.763 35.522 124.553 35.7757 124.547 36.3892C124.541 37.0339 124.547 37.6786 124.545 38.3233C124.544 38.6307 124.392 38.7768 124.003 38.8474C123.728 38.8974 123.551 38.7687 123.452 38.5313C123.413 38.437 123.391 38.3308 123.386 38.229C123.322 36.8577 123.285 35.4858 123.304 34.1133C123.31 33.6522 123.595 33.4636 124.047 33.5923C124.244 33.6485 124.358 33.7534 124.354 33.9665C124.348 34.2563 124.352 34.5468 124.352 34.9098L124.352 34.9092Z" fill="white"/>
<path d="M135.88 38.3688C135.884 38.6543 135.687 38.8711 135.421 38.893C135.155 38.9148 134.93 38.7455 134.888 38.4625C134.794 37.8353 134.7 37.2081 134.629 36.5784C134.462 35.0678 134.364 33.5528 134.365 32.0323C134.365 31.9492 134.359 31.8648 134.368 31.783C134.401 31.4937 134.595 31.3088 134.862 31.3057C135.128 31.3026 135.332 31.4831 135.375 31.7661C135.386 31.8373 135.381 31.9117 135.381 31.9842C135.368 34.0789 135.551 36.1598 135.858 38.2314C135.865 38.2826 135.874 38.3339 135.881 38.3695L135.88 38.3688Z" fill="white"/>
<path d="M59.5825 7.45013C59.6068 6.94847 59.8249 6.65735 60.197 6.55989C60.6619 6.43807 61.0098 6.55177 61.2438 6.93348C61.7311 7.72813 62.2804 8.47218 62.9729 9.11064C63.1033 9.23122 63.2095 9.37428 63.269 9.54733C63.3662 9.83033 63.2849 10.0621 63.0579 10.242C62.829 10.4238 62.5784 10.4519 62.3194 10.2901C61.3321 9.67227 60.4899 8.90199 59.7872 7.98676C59.651 7.80934 59.5813 7.60193 59.5825 7.45013Z" fill="white"/>
<path d="M80.2893 3.93357C80.2784 3.98917 80.2707 4.08351 80.2407 4.17097C79.9561 5.00685 79.6735 5.84335 79.378 6.67611C79.2534 7.02721 78.9586 7.21337 78.6011 7.20463C78.2475 7.19651 77.9956 7.01221 77.8856 6.68923C77.851 6.5874 77.8414 6.48682 77.8613 6.38312C78.0384 5.4554 78.2616 4.53893 78.5461 3.63745C78.6804 3.21326 79.1293 2.92402 79.5162 2.98586C79.9292 3.05209 80.2905 3.47752 80.2893 3.93357Z" fill="white"/>
<path d="M54.4945 27.1823C54.6902 27.1823 54.9357 27.1754 55.18 27.1841C55.5068 27.1954 55.7178 27.4059 55.7498 27.7389C55.7779 28.0306 55.6155 28.2893 55.3169 28.3374C54.2995 28.501 53.3243 28.8484 52.3006 28.9852C51.6272 29.0752 51.2154 28.8927 51.0466 28.4067C50.9098 28.0125 51.069 27.6702 51.4738 27.494C51.8101 27.3472 52.1714 27.3103 52.5321 27.286C53.1689 27.2435 53.8071 27.2179 54.4945 27.1823Z" fill="white"/>
<path d="M76.9476 45.4683C76.9476 45.7582 76.9598 46.0287 76.9444 46.298C76.9265 46.6147 76.7974 46.8583 76.4361 46.9158C76.3318 46.9327 76.2302 46.967 76.1272 46.9939C75.6188 47.1251 75.154 46.7984 75.1693 46.2767C75.1962 45.3634 75.2556 44.4513 75.3132 43.5392C75.3317 43.2399 75.4852 43.0113 75.771 42.8757C76.1873 42.6789 76.4859 42.8051 76.6042 43.2318C76.8101 43.9709 77.0493 44.7043 76.947 45.4683H76.9476Z" fill="white"/>
<path d="M53.3395 22.2911C52.8931 22.3935 52.4129 22.1436 51.9122 21.98C51.2351 21.7582 51.2453 20.8605 51.6488 20.4744C51.8758 20.2576 52.1699 20.2745 52.4263 20.3982C53.1624 20.7543 53.9335 20.883 54.7469 20.8192C54.9048 20.8067 55.0641 20.8117 55.2105 20.8967C55.4164 21.0166 55.5558 21.1816 55.5437 21.419C55.5315 21.6632 55.3697 21.8088 55.137 21.8825C54.5845 22.0581 54.0525 22.3148 53.3388 22.2911H53.3395Z" fill="white"/>
<path d="M57.5376 15.3304C57.3145 15.2586 56.9986 15.1674 56.6904 15.0549C55.8706 14.7563 55.0994 14.3621 54.3647 13.8986C54.1799 13.7818 54.0475 13.6262 53.9772 13.4194C53.864 13.0864 53.967 12.7104 54.2285 12.5161C54.4721 12.3355 54.8149 12.338 55.1186 12.5567C55.3897 12.7516 55.6334 12.9821 55.8987 13.1845C56.4602 13.6118 57.0517 13.9923 57.702 14.284C57.9392 14.3902 58.1426 14.5414 58.1483 14.8363C58.1547 15.153 57.959 15.3436 57.537 15.3304H57.5376Z" fill="white"/>
<path d="M70.3388 6.7184C70.3125 6.90956 70.3304 7.11385 70.193 7.2794C69.9602 7.5599 69.5599 7.58177 69.2965 7.32501C69.1193 7.15258 69.0138 6.94142 68.9486 6.70653C68.7523 6.00684 68.5509 5.30902 68.3533 4.60995C68.2151 4.11954 68.3846 3.76158 68.8105 3.63726C69.2984 3.49482 69.7799 3.72847 69.9301 4.18639C69.9755 4.32383 70.0235 4.46439 70.0414 4.60683C70.1277 5.31214 70.3381 6.00059 70.3394 6.71777L70.3388 6.7184Z" fill="white"/>
<path d="M85.0792 44.123C84.7774 44.1318 84.5158 44.0199 84.3752 43.7719C83.918 42.9667 83.4831 42.1495 83.2478 41.248C83.173 40.9613 83.2478 40.7308 83.5023 40.5752C83.7575 40.419 84.0075 40.4653 84.2409 40.6389C84.5478 40.8663 84.6974 41.2062 84.8912 41.5123C85.1924 41.9883 85.4725 42.4769 85.7743 42.9529C85.9399 43.214 85.9757 43.4796 85.8299 43.7457C85.6739 44.0306 85.3919 44.1161 85.0792 44.1236V44.123Z" fill="white"/>
<path d="M61.1844 42.012C60.905 42.0095 60.5821 41.7971 60.4727 41.5016C60.3679 41.2179 60.458 40.9887 60.6837 40.7769C61.2995 40.1996 61.9626 39.6842 62.6852 39.2419C63.0152 39.0401 63.2844 39.062 63.5171 39.3032C63.7147 39.5074 63.7058 39.7617 63.4826 40.0641C63.0606 40.6351 62.549 41.1305 62.0637 41.6477C61.8424 41.8833 61.5444 42.002 61.1838 42.012H61.1844Z" fill="white"/>
<path d="M55.2087 34.9272C55.2132 34.5586 55.4197 34.2406 55.8053 34.1294C56.4799 33.9345 57.1232 33.6909 57.7179 33.3148C57.9986 33.1374 58.3151 33.2105 58.4673 33.4135C58.6489 33.6559 58.6112 33.8408 58.3541 34.1325C57.7889 34.7741 57.1098 35.2627 56.3181 35.6019C55.781 35.8324 55.2017 35.4763 55.2081 34.9278L55.2087 34.9272Z" fill="white"/>
<path d="M67.0905 44.4194C67.3936 43.8309 67.7229 43.1113 68.3796 42.6184C68.5989 42.4541 68.8988 42.4897 69.1137 42.6983C69.3177 42.8964 69.3318 43.1456 69.2077 43.3911C68.959 43.8828 68.7089 44.3745 68.4404 44.8561C68.2735 45.1554 67.9103 45.2834 67.5931 45.1904C67.2714 45.096 67.0898 44.8674 67.0898 44.4201L67.0905 44.4194Z" fill="white"/>
<path d="M89.155 8.87353C89.1607 9.03096 89.0853 9.19652 88.9503 9.31709C88.527 9.69505 88.1044 10.0755 87.6561 10.4241C87.3409 10.6696 86.9143 10.6053 86.7167 10.331C86.5422 10.088 86.539 9.83998 86.7398 9.61696C87.119 9.19589 87.5033 8.7792 87.8997 8.37438C88.1363 8.13199 88.4394 8.08451 88.7502 8.22257C89.0124 8.33877 89.1518 8.55305 89.155 8.87353Z" fill="white"/>
<path d="M148.694 16.2179C148.461 16.4911 148.215 16.5044 147.958 16.2579C147.958 16.424 147.958 16.5527 147.958 16.6814C147.958 16.7914 147.953 16.8913 147.794 16.887C147.647 16.8832 147.659 16.7851 147.658 16.692C147.657 16.4122 147.658 16.1323 147.657 15.8524C147.657 15.7656 147.661 15.6825 147.768 15.6575C147.862 15.6356 147.928 15.6794 147.985 15.7518C148.092 15.8918 148.205 16.028 148.328 16.1823C148.447 16.0342 148.551 15.9036 148.656 15.775C148.721 15.6956 148.808 15.6538 148.909 15.6831C149.014 15.7137 148.999 15.8106 148.999 15.893C148.999 16.1629 148.997 16.4322 149 16.7014C149.001 16.8164 148.991 16.912 148.838 16.907C148.677 16.902 148.695 16.7889 148.695 16.6852C148.695 16.5546 148.695 16.4234 148.695 16.2179H148.694Z" fill="white"/>
<path d="M147.372 15.7973C147.356 15.9179 147.283 15.9498 147.189 15.9354C146.928 15.8967 146.889 16.0354 146.905 16.2446C146.918 16.4196 146.907 16.5964 146.906 16.7719C146.906 16.8619 146.888 16.9362 146.77 16.9393C146.649 16.9425 146.634 16.8694 146.635 16.7782C146.636 16.6232 146.631 16.4677 146.636 16.3127C146.642 16.0928 146.684 15.8536 146.317 15.9179C146.235 15.9323 146.175 15.8854 146.176 15.7923C146.177 15.6974 146.243 15.668 146.324 15.6674C146.63 15.6649 146.937 15.6649 147.244 15.6674C147.336 15.668 147.373 15.7249 147.371 15.7967L147.372 15.7973Z" fill="white"/>
<path d="M85.1741 25.605C85.0168 24.3543 84.5423 23.1892 83.8849 22.1078C82.8382 20.3836 81.4224 18.9523 79.9977 17.5323C79.843 17.378 79.6505 17.2562 79.4657 17.1344C77.9163 16.1111 76.2071 15.9918 74.4422 16.3591C72.3064 16.8033 70.5262 17.8634 69.0536 19.4384C67.4626 21.1389 66.6205 23.1224 66.5942 25.5388C66.6109 25.785 66.6313 26.1379 66.6588 26.4903C66.6723 26.6558 66.6978 26.8207 66.7208 26.9857C67.1307 29.8632 68.6539 31.9791 71.2929 33.3148C72.9516 34.1544 74.7159 34.403 76.562 34.1325C79.3359 33.7258 81.7562 32.6438 83.6253 30.5516C84.8895 29.1366 85.4068 27.4636 85.1741 25.605ZM81.416 30.0025C80.2938 31.0501 78.9055 31.5299 77.4399 31.8666C76.6732 32.0428 75.8963 32.1865 75.1136 32.2315C74.2241 32.2821 73.3545 32.0984 72.5245 31.7817C70.9994 31.2007 69.8177 30.2074 68.9212 28.878C68.2875 27.9384 67.8974 26.9244 67.9141 25.3645C67.9991 23.8008 68.6238 22.0197 70.0696 20.5804C71.534 19.1229 73.3116 18.2683 75.4071 18.0908C76.7269 17.979 77.853 18.4401 78.8282 19.2759C80.822 20.9846 82.1412 23.1286 82.8401 25.6007C83.3241 27.3099 82.7224 28.7836 81.416 30.0025Z" fill="white"/>
<path d="M78.0943 37.4213C77.2553 37.5781 76.4055 37.6262 75.5557 37.683C74.0018 37.7867 72.5336 37.4519 71.1089 36.8771C68.2512 35.7239 66.0176 33.8985 64.6339 31.1565C63.9823 29.8652 63.6402 28.4865 63.4496 27.0671C63.4164 26.8197 63.3908 26.5711 63.3531 26.3243C63.2923 25.922 63.3825 25.8064 63.7981 25.7302C64.0162 25.6902 64.2233 25.7396 64.4292 25.777C64.6339 25.8139 64.6652 25.9801 64.6786 26.1606C64.726 26.8028 64.7471 27.4488 64.898 28.0798C65.1793 29.258 65.8559 30.2394 66.5618 31.1996C67.5351 32.5216 68.7634 33.5736 70.2527 34.3014C71.3577 34.8418 72.5426 35.161 73.7754 35.3141C75.2283 35.4946 76.6619 35.4128 78.086 35.0992C78.0885 35.8732 78.0911 36.6472 78.0943 37.4213Z" fill="white"/>
<path d="M87.8243 27.8123C87.6491 28.274 87.4534 28.3896 86.9828 28.2927C86.6573 28.2259 86.4073 27.9323 86.5083 27.5587C86.7935 26.4992 86.4073 25.5421 86.0965 24.5775C85.4871 22.6871 84.7038 20.866 83.4908 19.2605C82.2553 17.6268 80.6337 16.458 78.7256 15.6633C78.8292 15.0049 78.7128 14.3383 78.7998 13.6792C80.0895 13.9147 81.2776 14.3683 82.3442 15.1404C84.6584 16.8159 86.1694 19.0293 87.0448 21.6857C87.3869 22.7227 87.7962 23.7429 87.9663 24.8255C88.1236 25.8263 88.1971 26.8309 87.8243 27.8123Z" fill="white"/>
<path d="M78.7249 15.6633C75.981 14.5881 73.2787 14.7231 70.6186 15.9394C68.6299 16.849 67.0722 18.2372 65.9161 20.0551C65.7601 20.3006 65.6661 20.5824 65.5292 20.8398C65.3432 21.189 65.1833 21.2477 64.8035 21.1346C63.8622 20.8541 63.765 20.6342 64.1429 19.7352C64.9563 17.798 66.4277 16.4648 68.2379 15.4315C69.9127 14.4757 71.7255 13.9016 73.6285 13.6167C75.3493 13.3593 77.0796 13.3343 78.7991 13.6792C78.7121 14.3383 78.8285 15.0048 78.7249 15.6633Z" fill="white"/>
<path d="M85.529 32.5332C83.8536 35.2101 81.425 36.8019 78.2815 37.3792C78.2188 37.3904 78.1568 37.4067 78.0947 37.421C78.0915 36.647 78.089 35.873 78.0864 35.0989C80.4665 34.5198 82.5121 33.3603 84.2648 31.6948C84.7137 31.2681 85.1018 31.2906 85.4887 31.7698C85.6882 32.0178 85.7106 32.2433 85.529 32.5332Z" fill="white"/>
<path d="M80.8322 26.0407C80.774 28.1797 78.9867 30.0939 76.8203 30.445C76.3995 30.5131 75.9781 30.5655 75.5491 30.5674C73.265 30.5143 71.4611 29.5766 70.1393 27.7561C69.8401 27.3451 69.8612 27.0646 70.1841 26.8334C70.5377 26.5798 70.9131 26.6491 71.197 27.0452C72.3039 28.587 73.8257 29.3211 75.7435 29.2986C77.9496 29.2736 79.5776 27.7205 79.5654 25.6502C79.5533 23.493 77.7641 21.5326 75.659 21.3696C74.5592 21.2846 73.5316 21.9806 73.0143 23.1613C72.6332 24.0303 72.7892 24.9368 73.4926 25.4884C74.2587 26.09 75.1609 26.2456 76.1111 26.0213C76.4264 25.9469 76.695 25.7395 76.7468 25.3891C76.7992 25.0311 76.5715 24.8056 76.2927 24.6269C75.9705 24.4201 75.6117 24.342 75.2287 24.367C75.0081 24.382 74.8776 24.4507 74.8949 24.7119C74.9224 25.1261 74.6647 25.3997 74.2727 25.4234C73.9166 25.4453 73.6691 25.2066 73.623 24.7981C73.5258 23.9341 74.1154 23.2538 75.1034 23.0895C76.1246 22.9202 77.4623 23.6217 77.8811 24.5469C78.3537 25.5902 77.752 26.7785 76.5313 27.1951C75.4084 27.5787 74.3424 27.322 73.3193 26.8584C71.5397 26.0513 70.9629 23.8941 72.1107 22.0837C73.3481 20.132 75.613 19.581 77.7628 20.7292C79.9012 21.8725 80.8955 23.6923 80.8322 26.0407Z" fill="white"/>
</g>
<defs>
<clipPath id="clip0_3033_2424">
<rect width="98" height="44.0449" fill="white" transform="translate(51 2.97754)"/>
</clipPath>
</defs>
</svg>
