<svg width="144" height="41" viewBox="0 0 144 41" fill="none" xmlns="http://www.w3.org/2000/svg">
<g clip-path="url(#clip0_572_71309)">
<path d="M34.9789 0.652344H12.2323L0.895996 20.282L12.2323 39.9116H34.9789L46.3152 20.282L34.9789 0.652344ZM34.0898 23.8375C33.6452 24.5783 33.2007 25.319 32.7561 26.0597C32.6079 26.356 32.4597 26.4301 32.1634 26.4301C31.2001 26.4301 30.2369 26.4301 29.2737 26.4301C29.1255 26.4301 28.8292 26.282 28.7551 26.1338C28.2364 25.2449 27.7178 24.356 27.125 23.3931C26.9027 23.6894 26.7545 23.9116 26.6064 24.2079C26.2359 24.8005 25.8654 25.3931 25.5691 25.9857C25.4209 26.282 25.1986 26.356 24.9022 26.356C24.0131 26.356 23.124 26.356 22.1608 26.356C21.9385 26.356 21.6421 26.2079 21.568 25.9857C21.0494 25.1709 20.6048 24.282 20.0862 23.4672L18.382 26.5042H14.8255L13.0473 23.3931L14.8255 20.282H18.3079C17.7893 19.319 17.1965 18.356 16.6779 17.3931C16.6038 17.2449 16.6779 17.0227 16.6779 16.8746C17.1224 16.1338 17.567 15.319 18.0115 14.5783C18.1597 14.4301 18.382 14.2079 18.6043 14.2079C19.5675 14.2079 20.5307 14.2079 21.4939 14.2079C21.7162 14.2079 22.0126 14.356 22.0867 14.5783C22.6053 15.3931 23.0499 16.2079 23.5685 17.1709C24.0872 16.2079 24.6058 15.3931 25.0504 14.5783C25.1986 14.282 25.4209 14.0598 25.8654 14.1338C26.7545 14.1338 27.7178 14.1338 28.6069 14.1338C28.9033 14.1338 29.1255 14.2079 29.2737 14.5042C30.8297 17.319 32.4597 20.0598 34.0898 22.8746C34.238 23.1709 34.3121 23.4672 34.0898 23.7635V23.8375Z" fill="white"/>
<path d="M58.8378 19.838C59.9492 17.6898 60.9124 15.9861 61.7274 14.1343C62.4684 12.5046 63.802 13.1713 64.8393 13.1713C65.9507 13.1713 65.5062 14.3565 65.5062 14.9491C65.5062 18.6528 65.5062 22.4306 65.5062 26.1343C65.5062 27.2454 65.1357 27.5417 64.0984 27.4676C63.2093 27.4676 62.4684 27.4676 62.5425 26.1343C62.6165 23.6158 62.5425 21.1713 62.3202 18.5787C61.2088 20.6528 60.0233 22.8009 58.7637 25.0972C57.5041 22.7269 56.3927 20.6528 55.2813 18.5787C55.2072 18.5787 55.059 18.5787 54.9849 18.5787C54.9849 21.0232 54.9849 23.4676 54.9849 25.838C54.9849 27.0972 54.6145 27.3935 53.429 27.3935C52.2435 27.3935 52.0212 27.0232 52.0212 25.912C52.0212 22.2083 52.0212 18.4306 52.0212 14.7269C52.0212 14.1343 51.5767 13.0972 52.614 13.0972C53.6513 13.0972 54.9849 12.4306 55.7259 13.838C56.615 15.6898 57.6523 17.5417 58.7637 19.6898L58.8378 19.838Z" fill="white"/>
<path d="M143.599 17.8384C142.932 14.9495 141.006 13.2458 138.042 13.0977C136.56 13.0977 135.078 13.0977 133.671 13.0977C132.707 13.0977 132.337 13.394 132.411 14.3569C132.411 16.3569 132.411 18.2828 132.411 20.2828C132.411 22.2828 132.411 24.3569 132.411 26.3569C132.411 27.1717 132.707 27.5421 133.522 27.468C134.856 27.468 136.264 27.468 137.598 27.468C141.006 27.468 143.08 25.6902 143.747 22.2828C144.044 20.8014 143.97 19.3199 143.673 17.8384H143.599ZM140.487 22.6532C139.969 24.3569 137.301 25.468 135.819 24.5791C135.449 24.3569 135.449 24.0606 135.449 23.7643C135.449 21.394 135.449 19.0977 135.449 16.7273C135.449 16.2088 135.671 15.9865 136.19 15.9125C139.079 15.3199 140.635 16.6532 140.709 19.6162C140.709 19.9125 140.709 20.1347 140.709 20.431C140.709 21.1717 140.709 21.9125 140.487 22.6532Z" fill="white"/>
<path d="M77.7328 25.2447C76.8437 24.7261 77.066 23.9854 77.066 23.3187C77.066 22.1335 77.066 20.9484 77.066 19.7632C77.066 18.6521 76.5473 17.8373 75.6582 17.1706C74.0281 15.9854 70.8421 16.0595 69.2862 17.3928C68.9157 17.7632 68.1007 18.1335 68.7675 18.7261C69.2862 19.2447 69.7307 20.3558 70.768 19.3187C71.4349 18.6521 72.324 18.578 73.139 18.8743C73.88 19.0965 74.1763 19.7632 74.1022 20.5039C74.0281 21.3187 73.3613 21.0224 72.8426 21.0965C71.8053 21.0965 70.768 21.1706 69.7307 21.615C68.323 22.2076 67.6561 23.4669 67.8784 24.9484C68.1007 26.4298 68.9898 27.3187 70.4717 27.541C72.1017 27.7632 73.3613 27.3187 74.2504 25.8373C74.695 26.3558 74.9914 27.0224 75.6582 27.1706C76.3991 27.3928 77.2882 27.6891 77.881 27.0224C78.2515 26.578 78.3255 25.4669 77.7328 25.0965V25.2447ZM74.1022 23.9113C74.1022 25.0965 73.3613 25.4669 72.3981 25.541C71.5831 25.541 70.9903 25.3187 70.9162 24.2817C70.9162 23.3187 71.4349 22.9484 72.9908 22.8743C73.5095 22.8743 74.1763 22.8743 74.1022 23.9113Z" fill="white"/>
<path d="M101.442 16.5784C97.8115 15.6155 94.996 17.9118 94.9219 22.3562C94.9219 24.0599 95.4405 25.9858 97.3669 27.0229C99.2934 28.0599 101.294 27.9118 103.22 26.8747C103.739 26.5784 104.702 26.3562 104.035 25.3933C103.517 24.7266 103.22 23.7636 102.035 24.8007C100.849 25.8377 99.0711 25.4673 98.4043 24.4303C97.8115 23.3933 98.0338 22.8747 99.2193 22.8747C100.775 22.8747 102.257 22.8747 103.813 22.8747C104.258 22.8747 104.702 22.8747 104.85 22.2081C105.295 19.9858 103.665 17.3192 101.442 16.7266V16.5784ZM99.8861 21.171C99.2934 20.8007 98.2561 21.6155 98.182 20.4303C98.182 19.3192 98.9229 18.7266 100.034 18.7266C101.146 18.7266 101.738 19.3933 101.738 20.3562C101.738 21.7636 100.479 20.6525 99.9602 21.171H99.8861Z" fill="white"/>
<path d="M126.487 27.468C125.894 27.468 125.301 27.468 124.782 27.468C124.19 27.394 123.152 27.9865 123.078 26.7273C123.078 25.8384 122.856 24.8014 124.338 24.9495C124.782 24.9495 124.931 24.5791 124.931 24.2088V16.3569C124.931 15.9125 124.708 15.6162 124.264 15.6902C122.856 15.8384 123.078 14.8754 123.078 13.9865C123.078 12.8014 123.967 13.1717 124.56 13.0977C125.894 13.0977 127.302 13.0977 128.635 13.0977C129.302 13.0977 129.821 13.1717 129.747 14.0606C129.673 14.7273 130.117 15.6902 128.858 15.6902C128.042 15.6902 127.968 16.2088 127.968 16.8014C127.968 19.1717 127.968 21.468 127.968 23.8384C127.968 26.2088 127.968 25.0236 128.858 25.0236C130.117 24.9495 129.673 25.9125 129.747 26.5791C129.821 27.5421 129.228 27.5421 128.561 27.5421C127.894 27.5421 127.227 27.5421 126.487 27.5421V27.468Z" fill="white"/>
<path d="M88.4008 22.2089V19.9867C88.4008 19.5423 88.4008 19.0978 87.734 19.0978C86.9189 19.0978 86.9189 18.4312 86.9189 17.8386C86.9189 17.246 86.9189 16.6534 87.8081 16.6534C88.9195 16.6534 88.7713 15.6163 88.6972 14.9497C88.6231 13.6904 89.364 13.7645 90.1791 13.7645C91.0682 13.7645 91.5868 13.9126 91.4386 14.9497C91.2904 15.9867 91.3645 16.8756 92.8464 16.7275C93.6614 16.6534 93.4392 17.4682 93.4392 17.9126C93.4392 18.4312 93.5132 19.1719 92.7723 19.0978C91.4386 18.9497 91.3645 19.7645 91.4386 20.8015C91.4386 21.6904 91.4386 22.5793 91.4386 23.5423C91.4386 24.5052 91.3645 25.32 92.6982 25.32C93.5873 25.32 93.2169 26.1349 93.291 26.6534C93.3651 27.32 93.1428 27.5423 92.4018 27.6163C89.6604 27.8386 88.3267 26.7275 88.3267 23.9126C88.3267 23.3941 88.3267 22.8756 88.3267 22.283L88.4008 22.2089Z" fill="white"/>
<path d="M80.6217 22.3563C80.6217 21.5414 80.6217 20.7266 80.6217 19.9859C80.6217 19.6155 80.6217 19.1711 80.103 19.1711C79.0657 19.1711 79.1398 18.5044 79.1398 17.7637C79.1398 16.9489 79.4362 16.7266 80.1771 16.5785C80.9922 16.4303 80.9181 15.6155 80.9181 15.0229C80.844 13.8377 81.4367 13.7637 82.3258 13.7637C83.215 13.7637 83.7336 13.9859 83.5854 15.0229C83.4372 16.134 83.5854 16.9489 85.0673 16.7266C85.8823 16.6526 85.8082 17.3192 85.7341 17.8377C85.7341 18.3563 85.8823 19.1711 84.9932 19.097C83.5113 18.9489 83.5113 19.8377 83.5854 20.8748C83.5854 21.6155 83.5854 22.3563 83.5854 23.097C83.5854 24.134 83.2891 25.2452 84.9932 25.2452C85.8082 25.2452 85.3637 26.134 85.4378 26.7266C85.5119 27.3192 85.2155 27.5414 84.6227 27.6155C81.9554 27.9118 80.6217 26.7266 80.5476 24.06C80.5476 23.5414 80.5476 23.0229 80.5476 22.4303L80.6217 22.3563Z" fill="white"/>
<path d="M109.963 18.5041C110.556 17.9115 110.778 17.5411 111.001 17.3189C111.593 16.8004 112.408 16.2819 113.001 16.7263C113.668 17.2448 113.297 18.2078 113.223 18.9485C113.223 19.5411 112.631 19.393 112.186 19.393C110.186 19.6152 110.037 19.8374 110.037 21.9115C110.037 23.393 110.037 24.8745 110.037 26.43C110.037 27.5411 109.37 27.4671 108.704 27.393C108.037 27.393 107 27.9115 107 26.5041C107 23.5411 107 20.5041 107 17.5411C107 16.2819 107.889 16.6522 108.555 16.5782C109.593 16.43 110.408 16.5782 109.963 18.43V18.5041Z" fill="white"/>
<path d="M117.814 22.6526H116.555C114.924 22.6526 114.406 21.8377 114.85 20.2822C114.999 19.8377 115.295 19.7637 115.665 19.7637C117.073 19.7637 118.481 19.7637 119.889 19.7637C121.148 19.7637 120.704 20.7266 120.778 21.3933C120.778 22.134 120.852 22.8748 119.815 22.7266C119.148 22.7266 118.481 22.7266 117.74 22.7266L117.814 22.6526Z" fill="white"/>
</g>
<defs>
<clipPath id="clip0_572_71309">
<rect width="143" height="40" fill="white" transform="translate(0.895996 0.652344)"/>
</clipPath>
</defs>
</svg>
