<svg width="200" height="50" viewBox="0 0 200 50" fill="none" xmlns="http://www.w3.org/2000/svg">
<path d="M75.5713 25L64.9287 43.4346H43.6426L32.999 25L43.6426 6.56543H64.9287L75.5713 25ZM56.333 19.2354C55.9601 19.2225 55.7629 19.3726 55.5957 19.6768C55.1626 20.4572 54.7117 21.2291 54.21 22.0996L54.2061 22.0957C53.7086 21.2295 53.2758 20.4442 52.7998 19.6895C52.6883 19.518 52.4222 19.3553 52.2207 19.3467C51.3246 19.3124 50.4283 19.3124 49.5322 19.3467C49.3435 19.3553 49.0941 19.5054 48.9912 19.6641C48.5496 20.3629 48.1425 21.0876 47.748 21.8164C47.6794 21.945 47.6751 22.1813 47.748 22.3057C48.2568 23.1963 48.7679 24.0853 49.2783 24.9746H46.0176L44.3447 27.8691L46.0176 30.7627H49.3623L50.9893 27.9453C51.4494 28.7392 51.9109 29.5324 52.375 30.3242C52.4779 30.4957 52.7565 30.6506 52.958 30.6592C53.8071 30.6978 54.6519 30.6678 55.501 30.6807C55.7968 30.685 55.99 30.5989 56.1357 30.3203C56.4358 29.7459 56.7699 29.1882 57.0957 28.6309C57.2372 28.3864 57.401 28.1541 57.5811 27.8711C58.1042 28.7801 58.5755 29.6166 59.0771 30.4355C59.1671 30.5812 59.3943 30.7231 59.5615 30.7275C60.4706 30.7618 61.38 30.7446 62.2891 30.7617C62.572 30.7703 62.7261 30.663 62.8633 30.4102C63.2492 29.6898 63.6437 28.9777 64.0811 28.2959C64.2869 27.9743 64.2572 27.7472 64.0771 27.4385C62.5592 24.827 61.0499 22.2151 59.5576 19.5908C59.399 19.3166 59.2186 19.235 58.9229 19.2393C58.061 19.2521 57.1949 19.2654 56.333 19.2354Z" fill="white"/>
<mask id="mask0_3033_2506" style="mask-type:luminance" maskUnits="userSpaceOnUse" x="80" y="18" width="88" height="14">
<path d="M167.001 18.1328H80.9507V31.9447H167.001V18.1328Z" fill="white"/>
</mask>
<g mask="url(#mask0_3033_2506)">
<path d="M87.3257 24.5156C88.3506 22.5174 89.2768 20.8708 90.0487 19.1555C90.7348 17.629 91.9912 18.2422 92.9989 18.2808C94.0538 18.3236 93.6036 19.3614 93.6121 19.9574C93.655 23.4608 93.5993 26.9684 93.655 30.4718C93.6679 31.4923 93.3077 31.7582 92.3643 31.7239C91.5024 31.6896 90.8549 31.7239 90.8935 30.5018C90.9749 28.1734 90.9192 25.8364 90.6533 23.4222C89.5813 25.3904 88.505 27.3586 87.3129 29.5413C86.1379 27.3501 85.0916 25.399 84.0453 23.4436C83.9467 23.4565 83.8395 23.4693 83.7409 23.4822C83.7409 25.7592 83.6808 28.0404 83.7666 30.3174C83.8095 31.4795 83.3892 31.7411 82.3215 31.7411C81.2752 31.7411 80.9836 31.3937 80.9964 30.3603C81.0479 26.8569 80.9964 23.3493 81.035 19.8459C81.0393 19.2842 80.6405 18.3108 81.6225 18.2851C82.5959 18.2636 83.8138 17.6333 84.5041 19.014C85.3703 20.7464 86.2751 22.4616 87.3343 24.5156H87.3257Z" fill="white"/>
<path d="M166.724 22.6647C166.081 19.9289 164.28 18.3637 161.514 18.2394C160.142 18.1794 158.765 18.2651 157.393 18.2051C156.493 18.1665 156.175 18.5052 156.197 19.4143C156.24 21.2625 156.21 23.1107 156.21 24.9631C156.21 26.8627 156.227 28.7623 156.201 30.662C156.188 31.4167 156.446 31.7426 157.226 31.7168C158.5 31.6697 159.777 31.7168 161.055 31.6997C164.263 31.6439 166.162 30.0445 166.819 26.8284C167.102 25.4391 167.054 24.0497 166.728 22.669L166.724 22.6647ZM163.783 27.1414C163.328 28.7195 160.824 29.77 159.396 28.9725C159.07 28.7924 159.061 28.5093 159.061 28.2178C159.057 26.0223 159.061 23.8225 159.057 21.6313C159.057 21.1553 159.263 20.9495 159.743 20.8551C162.445 20.332 163.915 21.5198 163.963 24.3156C163.967 24.5643 163.963 24.813 163.963 25.0617C163.963 25.7607 163.975 26.4554 163.778 27.1414H163.783Z" fill="white"/>
<path d="M104.997 29.6268C104.195 29.1165 104.384 28.4605 104.362 27.8044C104.328 26.7024 104.362 25.596 104.319 24.494C104.285 23.4863 103.852 22.663 103.033 22.0755C101.493 20.9692 98.5002 21.055 97.0379 22.2771C96.6606 22.5944 95.9316 22.946 96.5191 23.5592C96.9779 24.0437 97.4324 25.0643 98.4058 24.1338C99.0319 23.5292 99.8338 23.452 100.623 23.705C101.326 23.928 101.618 24.5326 101.54 25.2401C101.459 26.012 100.811 25.7504 100.374 25.7633C99.3835 25.789 98.4058 25.8662 97.4882 26.2736C96.1803 26.8524 95.5542 28.0016 95.7772 29.4253C95.9959 30.8275 96.7935 31.6465 98.2086 31.8438C99.7094 32.0539 100.923 31.6165 101.763 30.2658C102.205 30.746 102.441 31.3592 103.071 31.5265C103.775 31.7151 104.628 32.041 105.121 31.4107C105.451 30.9862 105.546 29.9699 104.997 29.6225V29.6268ZM101.596 28.379C101.545 29.4682 100.923 29.867 99.971 29.897C99.1863 29.9227 98.6203 29.6568 98.6117 28.722C98.6074 27.7915 99.0662 27.4399 100.524 27.4185C101.013 27.397 101.648 27.3627 101.596 28.3747V28.379Z" fill="white"/>
<path d="M127.249 21.51C123.827 20.5837 121.19 22.7792 121.172 26.9087C121.241 28.4995 121.635 30.3005 123.479 31.2825C125.31 32.2559 127.184 32.1144 128.972 31.1239C129.444 30.8623 130.379 30.6436 129.701 29.7388C129.247 29.1299 128.951 28.2122 127.828 29.1556C126.691 30.1076 125.036 29.786 124.418 28.7783C123.835 27.8349 124.088 27.3332 125.195 27.3117C126.618 27.286 128.046 27.3075 129.47 27.2989C129.912 27.2989 130.306 27.3032 130.426 26.66C130.812 24.5588 129.307 22.0717 127.253 21.5143L127.249 21.51ZM125.786 25.7809C125.263 25.3993 124.226 26.2311 124.174 25.0948C124.123 24.0614 124.852 23.4996 125.885 23.4868C126.893 23.4739 127.502 24.0828 127.472 25.0348C127.429 26.3684 126.301 25.3349 125.786 25.7809Z" fill="white"/>
<path d="M150.675 31.7063C150.134 31.7063 149.585 31.7706 149.054 31.6891C148.475 31.6034 147.549 32.1651 147.476 30.9645C147.424 30.1197 147.266 29.1763 148.629 29.3093C149.075 29.3521 149.187 28.9962 149.187 28.606C149.187 26.1575 149.187 23.7047 149.187 21.252C149.187 20.8317 148.981 20.5659 148.561 20.613C147.257 20.7545 147.476 19.8326 147.471 19.0479C147.463 17.9587 148.273 18.2503 148.848 18.2332C150.126 18.2031 151.404 18.2332 152.681 18.2203C153.29 18.2117 153.801 18.306 153.706 19.0908C153.633 19.6954 154.088 20.6431 152.883 20.5873C152.085 20.5487 152.034 21.0418 152.034 21.6465C152.038 23.8462 152.034 26.0503 152.034 28.2501C152.034 28.8247 152.034 29.3907 152.849 29.3393C154.041 29.2664 153.646 30.184 153.711 30.8058C153.809 31.7106 153.23 31.7363 152.587 31.7192C151.948 31.702 151.309 31.7192 150.67 31.7192L150.675 31.7063Z" fill="white"/>
<path d="M115.001 26.7422V24.6411C115.001 24.208 114.937 23.8392 114.388 23.8221C113.595 23.7963 113.629 23.2089 113.629 22.6428C113.629 22.0768 113.642 21.5622 114.435 21.5065C115.473 21.4379 115.314 20.5588 115.263 19.907C115.173 18.7278 115.889 18.8136 116.665 18.7879C117.493 18.7578 117.994 18.9251 117.879 19.9242C117.767 20.8804 117.776 21.7252 119.174 21.5794C119.911 21.5022 119.744 22.2398 119.753 22.6986C119.765 23.1789 119.847 23.8564 119.109 23.7792C117.827 23.6505 117.814 24.4138 117.857 25.3443C117.896 26.1891 117.883 27.0424 117.857 27.8957C117.831 28.7834 117.767 29.5852 119.071 29.5338C119.916 29.5038 119.585 30.3185 119.645 30.8074C119.723 31.4163 119.478 31.665 118.826 31.725C116.258 31.9523 115.031 30.8674 114.997 28.2431C114.993 27.7414 114.997 27.244 114.997 26.7422H115.001Z" fill="white"/>
<path d="M107.74 26.9071C107.74 26.1567 107.745 25.4106 107.74 24.6602C107.736 24.3086 107.732 23.8669 107.273 23.8669C106.304 23.8669 106.39 23.228 106.347 22.5547C106.295 21.7572 106.647 21.5771 107.346 21.4613C108.105 21.3326 108.062 20.5608 108.011 19.9905C107.912 18.8927 108.491 18.8027 109.344 18.7855C110.21 18.7684 110.648 19.0042 110.536 19.9562C110.416 20.9724 110.558 21.74 111.891 21.5642C112.646 21.4656 112.56 22.1216 112.547 22.6062C112.535 23.1208 112.706 23.8755 111.857 23.7854C110.48 23.6353 110.476 24.4629 110.528 25.4449C110.562 26.1396 110.528 26.8428 110.536 27.5418C110.545 28.498 110.236 29.5829 111.866 29.5658C112.612 29.5572 112.247 30.4319 112.316 30.9251C112.393 31.4911 112.093 31.6712 111.544 31.7269C109.074 31.9971 107.813 30.9165 107.749 28.408C107.736 27.9063 107.749 27.4088 107.749 26.9114H107.74V26.9071Z" fill="white"/>
<path d="M135.218 23.2825C135.746 22.695 135.947 22.412 136.2 22.1976C136.745 21.7345 137.491 21.2499 138.066 21.6616C138.7 22.1161 138.349 23.0552 138.293 23.7756C138.25 24.3502 137.718 24.183 137.354 24.2258C135.493 24.4617 135.33 24.6461 135.317 26.5843C135.313 27.9865 135.274 29.393 135.326 30.7952C135.364 31.8543 134.674 31.7643 134.052 31.6957C133.426 31.6314 132.435 32.1545 132.435 30.8381C132.435 28.0337 132.444 25.2293 132.427 22.4206C132.418 21.2242 133.284 21.6144 133.898 21.5372C134.88 21.4129 135.609 21.593 135.218 23.291V23.2825Z" fill="white"/>
<path d="M142.583 27.2109H141.404C139.894 27.2066 139.375 26.4347 139.821 24.9639C139.958 24.518 140.237 24.4536 140.589 24.4494C141.918 24.4408 143.243 24.4622 144.573 24.4451C145.769 24.4279 145.362 25.3327 145.413 25.9459C145.469 26.6063 145.516 27.3009 144.5 27.2237C143.865 27.1766 143.222 27.2152 142.579 27.2152L142.583 27.2109Z" fill="white"/>
</g>
</svg>
