<svg width="146" height="40" viewBox="0 0 146 40" fill="none" xmlns="http://www.w3.org/2000/svg">
<path d="M34.792 0H11.6982L0.151367 20L11.6982 40H34.792L46.3389 20L34.792 0Z" fill="white"/>
<path d="M17.9041 19.9719H14.2753L12.4609 23.1122L14.2753 26.2525H17.9041L19.7184 23.1122L17.9041 19.9719Z" fill="#1F0036"/>
<path d="M23.1637 16.8536C23.708 15.9092 24.1965 15.0718 24.6664 14.2251C24.8478 13.8948 25.0619 13.732 25.4666 13.7459C26.4017 13.7785 27.3415 13.7646 28.2766 13.7506C28.5976 13.7459 28.793 13.8343 28.9651 14.1321C30.5841 16.9793 32.2217 19.8125 33.8686 22.6457C34.064 22.9807 34.0965 23.2272 33.8732 23.5761C33.3987 24.3158 32.9707 25.0881 32.552 25.8697C32.4031 26.1442 32.2356 26.2605 31.9286 26.2512C30.9423 26.2326 29.956 26.2512 28.9697 26.214C28.7883 26.2093 28.5417 26.0558 28.444 25.8976C27.8997 25.009 27.388 24.1018 26.8204 23.1156C26.625 23.4226 26.4482 23.6738 26.2947 23.939C25.9411 24.5438 25.5783 25.1486 25.2526 25.772C25.0944 26.0744 24.8851 26.1674 24.5641 26.1628C23.6429 26.1488 22.7264 26.1814 21.8053 26.1395C21.5866 26.1302 21.2842 25.9627 21.1726 25.7767C19.4792 22.8876 17.8137 19.9846 16.1528 17.077C16.0737 16.942 16.0784 16.6862 16.1528 16.5466C16.5808 15.7557 17.0228 14.9695 17.502 14.2112C17.6136 14.039 17.8834 13.8762 18.0881 13.8669C19.0605 13.8297 20.0328 13.8297 21.0051 13.8669C21.2237 13.8762 21.5122 14.053 21.6331 14.2391C22.1495 15.0579 22.6194 15.9092 23.1591 16.849L23.1637 16.8536Z" fill="#1F0036"/>
<mask id="mask0_3016_11365" style="mask-type:luminance" maskUnits="userSpaceOnUse" x="52" y="12" width="94" height="16">
<path d="M145.531 12.5496H52.1748V27.5344H145.531V12.5496Z" fill="white"/>
</mask>
<g mask="url(#mask0_3016_11365)">
<path d="M59.091 19.4743C60.2029 17.3063 61.2078 15.5199 62.0452 13.659C62.7895 12.0028 64.1526 12.6681 65.2459 12.7099C66.3904 12.7565 65.9019 13.8823 65.9112 14.529C65.9577 18.3298 65.8972 22.1354 65.9577 25.9363C65.9717 27.0435 65.5809 27.3319 64.5574 27.2947C63.6223 27.2575 62.9198 27.2947 62.9617 25.9688C63.0501 23.4427 62.9896 20.9072 62.7011 18.288C61.5381 20.4234 60.3704 22.5587 59.077 24.9267C57.8023 22.5494 56.6672 20.4327 55.532 18.3112C55.425 18.3252 55.3087 18.3391 55.2017 18.3531C55.2017 20.8234 55.1366 23.2984 55.2296 25.7688C55.2762 27.0295 54.8202 27.3133 53.6618 27.3133C52.5267 27.3133 52.2103 26.9365 52.2243 25.8153C52.2801 22.0144 52.2243 18.2089 52.2661 14.408C52.2708 13.7986 51.8381 12.7425 52.9035 12.7146C53.9596 12.6913 55.2808 12.0074 56.0298 13.5055C56.9696 15.385 57.9512 17.2459 59.1003 19.4743H59.091Z" fill="white"/>
<path d="M145.231 17.466C144.534 14.4979 142.58 12.7998 139.579 12.6649C138.09 12.5998 136.597 12.6928 135.108 12.6277C134.131 12.5858 133.787 12.9534 133.81 13.9396C133.857 15.9447 133.824 17.9499 133.824 19.9596C133.824 22.0206 133.843 24.0815 133.815 26.1425C133.801 26.9613 134.08 27.3148 134.927 27.2869C136.308 27.2358 137.695 27.2869 139.081 27.2683C142.561 27.2078 144.622 25.4726 145.334 21.9834C145.641 20.476 145.59 18.9687 145.236 17.4707L145.231 17.466ZM142.04 22.323C141.547 24.035 138.83 25.1748 137.281 24.3095C136.927 24.1141 136.918 23.807 136.918 23.4907C136.913 21.1087 136.918 18.7221 136.913 16.3448C136.913 15.8284 137.137 15.6051 137.658 15.5028C140.589 14.9352 142.184 16.2239 142.235 19.2571C142.24 19.527 142.235 19.7968 142.235 20.0666C142.235 20.825 142.249 21.5786 142.035 22.323H142.04Z" fill="white"/>
<path d="M78.2623 25.0193C77.3923 24.4657 77.597 23.7539 77.5738 23.0421C77.5366 21.8465 77.5738 20.6462 77.5273 19.4506C77.4901 18.3573 77.0202 17.4641 76.1316 16.8267C74.4614 15.6264 71.2142 15.7195 69.6277 17.0454C69.2183 17.3896 68.4275 17.7711 69.0648 18.4364C69.5626 18.9621 70.0558 20.0693 71.1118 19.0598C71.791 18.4038 72.661 18.3201 73.517 18.5946C74.28 18.8365 74.5963 19.4924 74.5126 20.2601C74.4242 21.0975 73.7217 20.8137 73.2472 20.8276C72.1725 20.8555 71.1118 20.9393 70.1162 21.3812C68.6973 22.0093 68.0181 23.2561 68.26 24.8006C68.4972 26.3219 69.3626 27.2105 70.8978 27.4245C72.5261 27.6525 73.8427 27.1779 74.7545 25.7125C75.2337 26.2335 75.4896 26.8988 76.1735 27.0802C76.9364 27.2849 77.8622 27.6385 78.3972 26.9546C78.7555 26.4941 78.8578 25.3915 78.2623 25.0146V25.0193ZM74.5731 23.6655C74.5173 24.8472 73.8427 25.2798 72.8099 25.3124C71.9585 25.3403 71.3444 25.0519 71.3351 24.0377C71.3305 23.0281 71.8283 22.6467 73.41 22.6234C73.9404 22.6001 74.6289 22.5629 74.5731 23.6608V23.6655Z" fill="white"/>
<path d="M102.404 16.2131C98.6913 15.2082 95.8301 17.5902 95.8115 22.0703C95.886 23.7963 96.314 25.7502 98.3144 26.8156C100.301 27.8716 102.334 27.7181 104.274 26.6435C104.786 26.3597 105.8 26.1224 105.065 25.1408C104.572 24.4802 104.251 23.4846 103.032 24.5081C101.799 25.5409 100.003 25.192 99.3333 24.0987C98.7006 23.0752 98.9751 22.5309 100.175 22.5076C101.72 22.4797 103.269 22.503 104.814 22.4937C105.293 22.4937 105.721 22.4983 105.851 21.8005C106.27 19.5209 104.637 16.8226 102.408 16.2178L102.404 16.2131ZM100.817 20.8468C100.25 20.4327 99.1239 21.3352 99.0681 20.1024C99.0123 18.9812 99.8032 18.3718 100.924 18.3578C102.018 18.3438 102.678 19.0045 102.646 20.0373C102.599 21.4841 101.376 20.3629 100.817 20.8468Z" fill="white"/>
<path d="M127.819 27.2756C127.233 27.2756 126.637 27.3453 126.061 27.257C125.433 27.1639 124.428 27.7734 124.349 26.4707C124.293 25.5542 124.121 24.5307 125.6 24.675C126.084 24.7215 126.205 24.3353 126.205 23.912C126.205 21.2556 126.205 18.5945 126.205 15.9334C126.205 15.4775 125.982 15.189 125.526 15.2402C124.111 15.3937 124.349 14.3935 124.344 13.5421C124.335 12.3605 125.214 12.6768 125.837 12.6582C127.224 12.6257 128.61 12.6582 129.996 12.6443C130.657 12.635 131.211 12.7373 131.108 13.5887C131.029 14.2446 131.522 15.2728 130.215 15.2123C129.35 15.1704 129.294 15.7054 129.294 16.3614C129.299 18.748 129.294 21.1393 129.294 23.5259C129.294 24.1493 129.294 24.7634 130.178 24.7075C131.471 24.6284 131.043 25.624 131.113 26.2986C131.22 27.2802 130.592 27.3081 129.894 27.2895C129.201 27.2709 128.508 27.2895 127.815 27.2895L127.819 27.2756Z" fill="white"/>
<path d="M89.1164 21.89V19.6104C89.1164 19.1405 89.0466 18.7404 88.4511 18.7218C87.5905 18.6939 87.6277 18.0565 87.6277 17.4424C87.6277 16.8283 87.6416 16.2701 88.5023 16.2096C89.6281 16.1351 89.456 15.1814 89.4002 14.4743C89.3025 13.1949 90.0794 13.288 90.9215 13.2601C91.8194 13.2275 92.3637 13.4089 92.2381 14.4929C92.1171 15.5303 92.1264 16.4468 93.643 16.2887C94.4432 16.2049 94.2618 17.0051 94.2711 17.5029C94.285 18.0239 94.3734 18.759 93.5732 18.6753C92.1822 18.5357 92.1683 19.3638 92.2148 20.3733C92.2567 21.2898 92.2427 22.2156 92.2148 23.1414C92.1869 24.1044 92.1171 24.9744 93.5314 24.9186C94.4479 24.886 94.0896 25.7699 94.1548 26.3003C94.2385 26.9609 93.9733 27.2307 93.2662 27.2959C90.4795 27.5424 89.149 26.3654 89.1117 23.5183C89.1071 22.9739 89.1117 22.4343 89.1117 21.89H89.1164Z" fill="white"/>
<path d="M81.239 22.0689C81.239 21.2547 81.2437 20.4452 81.239 19.6311C81.2344 19.2496 81.2297 18.7704 80.7319 18.7704C79.6805 18.7704 79.7736 18.0772 79.727 17.3468C79.6712 16.4815 80.0527 16.2861 80.811 16.1605C81.6345 16.021 81.5879 15.1835 81.5321 14.5648C81.4251 13.3738 82.0532 13.2761 82.979 13.2575C83.9187 13.2389 84.3932 13.4948 84.2723 14.5276C84.142 15.6302 84.2955 16.4629 85.7424 16.2722C86.5612 16.1652 86.4681 16.877 86.4542 17.4027C86.4402 17.9609 86.6263 18.7797 85.7052 18.682C84.2118 18.5192 84.2072 19.4171 84.263 20.4824C84.3002 21.2361 84.263 21.9991 84.2723 22.7574C84.2816 23.7948 83.9466 24.9719 85.7145 24.9533C86.524 24.9439 86.1285 25.893 86.203 26.428C86.2867 27.0421 85.9611 27.2375 85.3656 27.298C82.6859 27.5911 81.3181 26.4187 81.2483 23.6971C81.2344 23.1528 81.2483 22.6132 81.2483 22.0735H81.239V22.0689Z" fill="white"/>
<path d="M111.05 18.1362C111.622 17.4989 111.841 17.1918 112.116 16.9592C112.706 16.4568 113.516 15.9311 114.139 16.3777C114.828 16.8708 114.446 17.8897 114.386 18.6712C114.339 19.2946 113.762 19.1132 113.367 19.1597C111.348 19.4156 111.171 19.6156 111.157 21.7185C111.153 23.2397 111.111 24.7657 111.166 26.287C111.208 27.4361 110.459 27.3384 109.785 27.2639C109.106 27.1941 108.031 27.7617 108.031 26.3335C108.031 23.2909 108.04 20.2483 108.022 17.2011C108.012 15.9032 108.952 16.3265 109.617 16.2428C110.683 16.1079 111.474 16.3032 111.05 18.1455V18.1362Z" fill="white"/>
<path d="M119.04 22.3984H117.761C116.123 22.3938 115.56 21.5564 116.044 19.9606C116.193 19.4768 116.495 19.407 116.877 19.4024C118.319 19.3931 119.756 19.4163 121.199 19.3977C122.497 19.3791 122.055 20.3607 122.11 21.026C122.171 21.7425 122.222 22.4961 121.119 22.4124C120.431 22.3612 119.733 22.4031 119.035 22.4031L119.04 22.3984Z" fill="white"/>
</g>
</svg>
