<svg width="200" height="50" viewBox="0 0 200 50" fill="none" xmlns="http://www.w3.org/2000/svg">
<path d="M64.4864 19.7748C64.457 23.4677 63.5818 26.9731 62.1435 30.35C60.9065 33.2528 59.2263 35.8656 57.0305 38.1294C56.0705 39.1197 54.9964 39.9804 53.8272 40.708C52.8764 41.3004 51.8214 41.0344 51.2007 40.0998C50.6533 39.2766 50.8535 38.1271 51.7253 37.5381C56.0005 34.6501 58.3364 30.4432 59.7747 25.6269C60.4542 23.3506 60.7595 21.0186 60.6284 18.64C60.5674 17.5281 60.374 16.4388 59.95 15.403C59.0952 13.3132 57.4285 12.4445 55.244 12.9664C53.5389 13.3735 52.0803 14.2865 50.771 15.403C46.1317 19.3586 43.1421 24.3296 41.8859 30.3284C41.6372 31.5143 41.5569 32.7184 41.7502 33.9282C42.0171 35.5972 43.0528 36.019 44.387 34.9947C45.5742 34.0817 46.3341 32.8286 47.025 31.5371C48.1455 29.4416 48.9313 27.2232 49.1495 24.8413C49.266 23.5678 49.2807 22.2841 48.9392 21.03C48.8646 20.756 48.9155 20.5592 49.093 20.3319C49.785 19.4439 50.5946 18.673 51.3838 17.8783C51.6439 17.6167 51.7705 17.7088 51.9039 17.9919C52.5778 19.4246 52.9578 20.9402 53.0143 22.515C53.2076 27.8975 51.4336 32.6183 48.0912 36.7605C47.1199 37.9645 45.8795 38.8695 44.3271 39.247C41.7593 39.8712 39.3645 38.6137 38.4169 36.1316C37.8584 34.6684 37.7317 33.1515 37.8776 31.6041C38.4396 25.6246 41.0436 20.5547 44.7839 16.0011C46.7276 13.635 48.9776 11.6236 51.7185 10.2183C53.1307 9.48946 54.6266 8.99827 56.2175 8.97781C59.0533 8.94256 61.2639 10.1375 62.7779 12.5719C63.7502 14.1364 64.1777 15.8771 64.3902 17.6884C64.4716 18.382 64.4852 19.0766 64.4852 19.7748H64.4864Z" fill="white"/>
<path d="M91.8603 20.3108C91.0145 21.7672 90.2027 23.1647 89.3908 24.562C88.0509 26.869 86.7088 29.1737 85.3769 31.4852C85.196 31.8002 85.023 32.0185 84.6024 32.014C84.1998 32.0094 84.0382 31.7956 83.8651 31.4977C81.7575 27.881 79.6431 24.2687 77.5298 20.6553C77.4744 20.561 77.4122 20.4699 77.3399 20.3563C77.246 20.5337 77.2878 20.6894 77.2878 20.8372C77.2845 25.1009 77.2856 29.3647 77.2856 33.6284C77.2856 34.2345 77.2833 34.2345 76.6682 34.2368C76.4285 34.2368 76.1876 34.2379 75.948 34.2368C75.3951 34.2334 75.3837 34.2254 75.3837 33.658C75.3837 29.2237 75.3837 24.7894 75.3837 20.3552C75.3837 19.1897 75.394 18.0243 75.3781 16.8588C75.3725 16.4848 75.5126 16.3677 75.8756 16.3665C76.9825 16.3631 76.9859 16.3483 77.5479 17.3102C79.7946 21.1579 82.0379 25.0066 84.2823 28.8554C84.3253 28.9292 84.3683 29.002 84.4124 29.0748C84.6498 29.4659 84.6668 29.467 84.8873 29.085C85.4911 28.0412 86.0949 26.9964 86.6975 25.9525C88.4151 22.9793 90.1451 20.0129 91.8377 17.0248C92.1215 16.5234 92.4313 16.3279 93.0023 16.3586C93.9306 16.4086 93.8266 16.3267 93.8266 17.1965C93.8288 22.6394 93.8277 28.0833 93.8266 33.5261C93.8266 33.9984 93.585 34.2349 93.1018 34.2356C92.8339 34.2356 92.5647 34.2266 92.2968 34.2356C92.0446 34.2447 91.9327 34.1253 91.9338 33.8809C91.9338 33.7387 91.9304 33.5966 91.9304 33.4546C91.9304 29.2624 91.9304 25.0691 91.9282 20.877C91.9282 20.7122 91.9677 20.5405 91.8569 20.3096L91.8603 20.3108Z" fill="white"/>
<path d="M169.096 31.3383C166.483 34.6004 161.533 34.1865 159.149 31.875C156.79 29.5885 156.651 25.1575 158.985 22.6709C161.254 20.2548 166.691 19.7011 169.18 23.1417C169.18 22.48 169.194 21.8887 169.174 21.2998C169.162 20.9359 169.286 20.7745 169.661 20.8006C169.983 20.8222 170.31 20.8097 170.635 20.8063C170.876 20.8029 171.012 20.8995 170.999 21.1576C170.999 21.1712 170.999 21.1861 170.999 21.1997C170.996 25.2202 171.01 29.2406 170.977 33.2598C170.97 34.2979 170.742 35.3201 170.29 36.2695C169.653 37.6054 168.585 38.4821 167.193 38.8641C164.416 39.6248 161.713 39.4053 159.155 37.9966C158.86 37.834 158.601 37.6054 158.326 37.4077C158.131 37.2667 158.096 37.112 158.25 36.9062C158.504 36.5662 158.671 36.058 159.002 35.9079C159.362 35.7453 159.665 36.2706 160.01 36.4673C161.929 37.5645 163.97 37.8465 166.104 37.3747C167.644 37.0347 168.583 36.0501 168.933 34.4912C169.161 33.4816 169.079 32.4662 169.095 31.3395L169.096 31.3383ZM159.204 27.1371C159.105 29.8454 161.083 32.0205 164.173 32.0444C167.042 32.066 169.163 29.9978 169.169 27.2133C169.177 24.3901 167.089 22.3742 164.162 22.3742C161.232 22.3742 159.201 24.3253 159.204 27.1383V27.1371Z" fill="white"/>
<path d="M29.0011 29.6406C29.1481 26.2229 30.1884 23.0961 32.0642 20.2524C33.6901 17.7886 35.7887 15.8477 38.464 14.5788C40.0718 13.817 41.7792 13.4759 43.5487 13.427C43.6346 13.4247 43.7297 13.4225 43.7783 13.5032C43.8438 13.6124 43.7523 13.6931 43.69 13.7613C42.5696 14.9881 41.5847 16.3195 40.6529 17.6931C40.5625 17.8272 40.4325 17.9091 40.29 17.9761C36.8799 19.5555 34.8412 22.3309 33.5861 25.7794C33.0931 27.1347 32.8432 28.5411 32.8331 29.9908C32.8252 31.1347 31.9726 32.0079 30.9064 32.0045C29.8299 32.0022 29.0102 31.1313 29 29.9806C29 29.8669 29 29.7532 29 29.6395L29.0011 29.6406Z" fill="white"/>
<path d="M105.225 28.1006C103.557 28.1006 101.891 28.1006 100.223 28.1006C99.6314 28.1006 99.5987 28.1438 99.7298 28.7464C100.218 30.9897 101.966 32.4962 104.273 32.6475C105.936 32.7566 107.449 32.3996 108.656 31.1512C108.834 30.9659 108.977 30.9533 109.137 31.1637C109.258 31.3206 109.39 31.4685 109.522 31.6185C110.004 32.1688 110.008 32.171 109.462 32.6873C108.501 33.5958 107.33 34.0778 106.049 34.2665C104.394 34.5111 102.776 34.3575 101.273 33.5514C99.4268 32.5611 98.2825 31.0239 97.9105 28.9488C97.5261 26.8079 97.8811 24.8067 99.2504 23.0762C100.431 21.5845 102.003 20.8056 103.903 20.7124C105.948 20.6124 107.73 21.2047 109.117 22.7681C110.379 24.1905 110.836 25.8971 110.78 27.7709C110.77 28.112 110.547 28.1006 110.312 28.1006C108.616 28.0994 106.921 28.1006 105.225 28.1006ZM104.285 26.6816C105.711 26.6816 107.138 26.6793 108.564 26.6839C108.809 26.6839 108.99 26.6509 108.937 26.3349C108.693 24.884 108.003 23.6959 106.724 22.9681C104.294 21.5845 100.43 22.394 99.7276 26.1575C99.6348 26.6543 99.6507 26.6816 100.175 26.6816C101.545 26.6827 102.915 26.6816 104.284 26.6816H104.285Z" fill="white"/>
<path d="M132.902 32.4814C131.991 33.5001 130.9 34.0834 129.612 34.2744C128.236 34.4779 126.875 34.4086 125.602 33.7628C124.191 33.0476 123.422 31.682 123.51 30.2995C123.635 28.3154 124.81 27.3581 126.279 26.8975C126.969 26.6815 127.686 26.6019 128.411 26.6008C129.725 26.5985 131.039 26.5917 132.351 26.6053C132.693 26.6087 132.854 26.5064 132.825 26.146C132.793 25.7367 132.825 25.316 132.748 24.9158C132.448 23.3513 131.324 22.4746 129.586 22.3859C127.887 22.2984 126.338 22.7066 124.976 23.7504C124.754 23.9197 124.636 23.8698 124.516 23.6503C124.365 23.3774 124.214 23.1034 124.037 22.8464C123.87 22.6043 123.922 22.4531 124.15 22.2848C125.052 21.6184 126.061 21.1864 127.142 20.9295C128.394 20.6316 129.666 20.6111 130.926 20.843C133.225 21.2648 134.668 22.9738 134.698 25.3603C134.733 28.1721 134.706 30.9851 134.717 33.7969C134.718 34.1277 134.609 34.2631 134.277 34.2437C133.954 34.2244 133.627 34.2278 133.303 34.2437C133.008 34.2574 132.895 34.1209 132.9 33.839C132.906 33.3875 132.902 32.935 132.902 32.4837V32.4814ZM129.98 28.0789C129.2 28.1084 128.239 28.0141 127.285 28.1903C126.275 28.3768 125.545 29.0727 125.395 30.0073C125.231 31.0305 125.708 31.9504 126.657 32.4325C127.594 32.9078 128.597 32.901 129.598 32.7804C130.507 32.6713 131.304 32.2733 131.939 31.6025C132.369 31.1499 132.774 30.6588 132.816 29.9947C132.846 29.5001 132.814 29.0011 132.826 28.5042C132.834 28.1971 132.713 28.0687 132.403 28.0732C131.654 28.0846 130.905 28.0766 129.978 28.0766L129.98 28.0789Z" fill="white"/>
<path d="M143.309 34.3838C141.444 34.3509 139.784 34.0234 138.268 33.1286C137.624 32.7477 137.612 32.7284 137.99 32.094C138.155 31.8165 138.225 31.3992 138.523 31.3071C138.808 31.2185 139.05 31.5743 139.323 31.7131C141.169 32.6499 143.102 32.9444 145.121 32.4623C146.172 32.2111 146.709 31.5118 146.724 30.5874C146.736 29.8916 146.403 29.4367 145.817 29.1252C145.026 28.7057 144.148 28.6147 143.292 28.4396C142.421 28.2611 141.538 28.1452 140.692 27.8473C138.992 27.2491 138.168 26.2361 138.136 24.6852C138.105 23.0866 139 21.7393 140.604 21.1788C143.097 20.3055 145.525 20.6034 147.87 21.7677C148.106 21.8848 148.18 22.0201 148.027 22.268C147.842 22.5693 147.677 22.8853 147.519 23.2026C147.409 23.4243 147.277 23.4425 147.082 23.3163C145.691 22.4283 144.146 22.2714 142.556 22.3908C141.89 22.4408 141.262 22.617 140.704 23.0434C139.807 23.7301 139.661 25.4402 141.053 26.0633C142.048 26.509 143.111 26.6534 144.164 26.8535C145.094 27.0297 146.007 27.2514 146.878 27.6517C149.202 28.7182 149.027 31.8711 147.444 33.1127C146.508 33.8483 145.43 34.1735 144.278 34.3122C143.914 34.3565 143.545 34.368 143.309 34.3838Z" fill="white"/>
<path d="M114.649 27.0018C114.649 25.4248 114.637 24.1457 114.655 22.8665C114.661 22.497 114.55 22.3572 114.173 22.3777C113.665 22.405 113.155 22.3777 112.647 22.3856C112.401 22.3901 112.298 22.2912 112.275 22.0399C112.161 20.8154 112.169 20.8017 113.378 20.8017C114.226 20.8017 114.65 20.3803 114.65 19.5374C114.65 19.1258 114.657 18.7131 114.65 18.3015C114.645 18.0263 114.732 17.874 115.039 17.8864C115.42 17.9024 115.802 17.9001 116.183 17.8864C116.461 17.8774 116.556 18.0047 116.553 18.2708C116.545 18.9666 116.564 19.6636 116.546 20.3594C116.537 20.6903 116.647 20.812 116.982 20.8063C118.028 20.7904 119.074 20.812 120.119 20.7949C120.489 20.7893 120.619 20.9222 120.612 21.2907C120.587 22.6016 120.737 22.3617 119.537 22.3799C118.717 22.3924 117.896 22.4084 117.079 22.3719C116.63 22.3526 116.539 22.5198 116.543 22.9348C116.56 25.3645 116.548 27.7943 116.553 30.2252C116.556 32.3628 118.312 33.402 120.213 32.3957C120.3 32.3492 120.391 32.3059 120.467 32.2434C120.701 32.0513 120.863 32.0808 120.972 32.3765C121.026 32.522 121.107 32.6572 121.175 32.7983C121.496 33.4565 121.508 33.5055 120.831 33.8284C119.39 34.5174 117.91 34.5868 116.46 33.8772C115.38 33.3486 114.859 32.3867 114.723 31.2166C114.549 29.7158 114.702 28.207 114.648 27.0006L114.649 27.0018Z" fill="white"/>
<path d="M153.703 27.5278C153.703 29.5881 153.695 31.6495 153.712 33.7097C153.715 34.1225 153.581 34.2748 153.176 34.2396C152.867 34.2134 152.554 34.2191 152.244 34.2384C151.904 34.2601 151.802 34.102 151.802 33.7836C151.807 29.6052 151.808 25.4278 151.802 21.2494C151.802 20.9184 151.928 20.7854 152.255 20.8024C152.58 20.8195 152.907 20.8241 153.23 20.8024C153.61 20.7764 153.712 20.9434 153.711 21.305C153.698 23.3801 153.705 25.4551 153.705 27.5301L153.703 27.5278Z" fill="white"/>
<path d="M152.788 15.3454C153.579 15.3499 154.126 15.8798 154.116 16.6313C154.106 17.4102 153.544 17.9593 152.761 17.9559C151.989 17.9525 151.428 17.3818 151.433 16.6052C151.437 15.8639 152.001 15.3408 152.788 15.3443V15.3454Z" fill="white"/>
</svg>
