<svg width="178" height="40" viewBox="0 0 178 40" fill="none" xmlns="http://www.w3.org/2000/svg">
<path d="M44.9652 13.4778C44.9285 18.0874 43.8361 22.4628 42.0408 26.678C40.4968 30.3012 38.3995 33.5626 35.6586 36.3882C34.4605 37.6243 33.1197 38.6987 31.6603 39.6069C30.4734 40.3464 29.1566 40.0144 28.3818 38.8477C27.6986 37.8202 27.9485 36.3854 29.0367 35.6502C34.373 32.0454 37.2888 26.7943 39.084 20.7825C39.9322 17.9412 40.3133 15.0304 40.1496 12.0614C40.0735 10.6734 39.8321 9.31383 39.3028 8.02093C38.2358 5.41241 36.1555 4.32813 33.4288 4.97955C31.3005 5.48763 29.4798 6.62726 27.8455 8.02093C22.0547 12.9583 18.323 19.1632 16.7551 26.6509C16.4446 28.1312 16.3443 29.6341 16.5857 31.1442C16.9187 33.2276 18.2115 33.7541 19.877 32.4755C21.3589 31.3358 22.3073 29.7718 23.1697 28.1596C24.5683 25.544 25.5491 22.7751 25.8215 19.8019C25.9669 18.2124 25.9853 16.61 25.559 15.0447C25.4659 14.7026 25.5294 14.457 25.751 14.1732C26.6147 13.0648 27.6253 12.1026 28.6104 11.1106C28.935 10.7841 29.0931 10.899 29.2596 11.2525C30.1008 13.0407 30.5751 14.9326 30.6456 16.8982C30.8869 23.6167 28.6725 29.5093 24.5005 34.6795C23.2882 36.1825 21.7399 37.3121 19.8022 37.7832C16.5969 38.5624 13.6077 36.9928 12.425 33.8946C11.7278 32.0682 11.5697 30.1748 11.7518 28.2433C12.4533 20.7797 15.7036 14.4514 20.3723 8.76744C22.7985 5.81405 25.607 3.30346 29.0281 1.54931C30.791 0.639591 32.6582 0.0264916 34.6439 0.000945322C38.1836 -0.0430497 40.9428 1.44854 42.8326 4.48708C44.0463 6.43992 44.5799 8.61274 44.8452 10.8736C44.9468 11.7393 44.9637 12.6064 44.9637 13.4778H44.9652Z" fill="white"/>
<path d="M79.1336 14.147C78.0779 15.965 77.0645 17.7093 76.0511 19.4535C74.3787 22.3331 72.7034 25.2099 71.0409 28.095C70.815 28.4882 70.5991 28.7607 70.0741 28.7551C69.5716 28.7493 69.3699 28.4825 69.1539 28.1107C66.5232 23.5962 63.8839 19.0874 61.2461 14.577C61.1769 14.4593 61.0992 14.3457 61.009 14.2038C60.8918 14.4252 60.944 14.6196 60.944 14.8041C60.9398 20.1262 60.9412 25.4482 60.9412 30.7703C60.9412 31.5267 60.9383 31.5267 60.1706 31.5296C59.8714 31.5296 59.5707 31.531 59.2716 31.5296C58.5814 31.5254 58.5673 31.5154 58.5673 30.8072C58.5673 25.2722 58.5673 19.7373 58.5673 14.2024C58.5673 12.7477 58.5801 11.293 58.5603 9.83828C58.5532 9.37135 58.7282 9.22518 59.1813 9.22376C60.5629 9.2195 60.5672 9.20106 61.2687 10.4017C64.073 15.2044 66.8731 20.0084 69.6746 24.8125C69.7283 24.9046 69.7819 24.9955 69.837 25.0864C70.1334 25.5746 70.1546 25.576 70.4297 25.0991C71.1834 23.7962 71.937 22.492 72.6893 21.1891C74.8331 17.478 76.9926 13.7752 79.1054 10.0455C79.4596 9.41961 79.8463 9.17551 80.559 9.21383C81.7178 9.27627 81.588 9.17409 81.588 10.2598C81.5907 17.0536 81.5893 23.8488 81.588 30.6425C81.588 31.232 81.2863 31.5272 80.6832 31.5281C80.3488 31.5281 80.0128 31.5169 79.6784 31.5281C79.3636 31.5395 79.2239 31.3905 79.2253 31.0854C79.2253 30.9079 79.221 30.7306 79.221 30.5532C79.221 25.3205 79.221 20.0864 79.2183 14.8538C79.2183 14.648 79.2676 14.4337 79.1293 14.1456L79.1336 14.147Z" fill="white"/>
<path d="M175.54 27.9112C172.278 31.9829 166.099 31.4664 163.123 28.5811C160.179 25.727 160.005 20.1963 162.919 17.0925C165.751 14.0767 172.537 13.3856 175.645 17.6801C175.645 16.8541 175.662 16.1161 175.637 15.381C175.622 14.9268 175.777 14.7253 176.244 14.7579C176.647 14.7848 177.055 14.7693 177.461 14.765C177.761 14.7608 177.932 14.8814 177.916 15.2035C177.916 15.2205 177.916 15.2391 177.916 15.2561C177.911 20.2744 177.928 25.2928 177.888 30.3096C177.879 31.6054 177.594 32.8813 177.031 34.0664C176.235 35.7339 174.901 36.8281 173.165 37.305C169.698 38.2544 166.324 37.9805 163.131 36.2221C162.763 36.0192 162.44 35.7339 162.097 35.487C161.853 35.311 161.81 35.1179 162.002 34.861C162.319 34.4367 162.527 33.8023 162.94 33.615C163.389 33.4121 163.768 34.0677 164.198 34.3132C166.594 35.6828 169.141 36.0348 171.805 35.4458C173.727 35.0215 174.899 33.7924 175.336 31.8466C175.621 30.5864 175.518 29.3191 175.539 27.9127L175.54 27.9112ZM163.192 22.6671C163.069 26.0478 165.538 28.7627 169.394 28.7925C172.976 28.8195 175.623 26.2379 175.631 22.7623C175.64 19.2384 173.035 16.7221 169.381 16.7221C165.724 16.7221 163.189 19.1575 163.192 22.6686V22.6671Z" fill="white"/>
<path d="M0.671822 25.7919C0.855297 21.5258 2.15374 17.6229 4.49518 14.0735C6.5247 10.9981 9.14417 8.57543 12.4834 6.99159C14.4904 6.04071 16.6216 5.61494 18.8302 5.55392C18.9375 5.55108 19.0562 5.54825 19.1168 5.64901C19.1986 5.78525 19.0844 5.88602 19.0067 5.97116C17.6081 7.5025 16.3787 9.1644 15.2158 10.8788C15.1029 11.0463 14.9406 11.1485 14.7628 11.2321C10.5061 13.2035 7.96146 16.6678 6.39486 20.9722C5.77951 22.6639 5.4676 24.4195 5.45489 26.229C5.44502 27.6568 4.38086 28.7467 3.04995 28.7425C1.70634 28.7396 0.683112 27.6526 0.67041 26.2163C0.67041 26.0744 0.67041 25.9325 0.67041 25.7905L0.671822 25.7919Z" fill="white"/>
<path d="M95.8154 23.8705C93.7337 23.8705 91.6533 23.8705 89.5716 23.8705C88.8334 23.8705 88.7926 23.9244 88.9562 24.6766C89.566 27.4767 91.7479 29.3571 94.627 29.5459C96.7032 29.6821 98.5916 29.2365 100.097 27.6782C100.32 27.4469 100.498 27.4312 100.699 27.6939C100.85 27.8896 101.015 28.0742 101.179 28.2615C101.781 28.9484 101.785 28.9512 101.104 29.5956C99.9041 30.7296 98.4434 31.3312 96.8443 31.5668C94.7781 31.872 92.7584 31.6804 90.8827 30.6742C88.5781 29.438 87.1497 27.5193 86.6854 24.9292C86.2055 22.2568 86.6487 19.7589 88.3579 17.5989C89.8313 15.7369 91.7931 14.7648 94.1655 14.6484C96.7172 14.5235 98.9416 15.2629 100.673 17.2143C102.248 18.9898 102.819 21.12 102.749 23.4589C102.737 23.8846 102.459 23.8705 102.165 23.8705C100.048 23.869 97.9325 23.8705 95.8154 23.8705ZM94.6425 22.0993C96.4223 22.0993 98.2034 22.0964 99.9831 22.1021C100.289 22.1021 100.515 22.0609 100.449 21.6664C100.144 19.8555 99.2832 18.3725 97.6869 17.4641C94.6538 15.7369 89.8299 16.7474 88.9535 21.445C88.8377 22.0652 88.8575 22.0993 89.5123 22.0993C91.2214 22.1007 92.932 22.0993 94.6412 22.0993H94.6425Z" fill="white"/>
<path d="M130.363 29.3384C129.226 30.61 127.863 31.3381 126.255 31.5765C124.538 31.8305 122.84 31.744 121.25 30.9379C119.489 30.0452 118.529 28.3407 118.639 26.6149C118.795 24.1384 120.262 22.9435 122.095 22.3686C122.957 22.0989 123.852 21.9996 124.757 21.9982C126.397 21.9954 128.037 21.9869 129.675 22.0039C130.102 22.0081 130.302 21.8804 130.266 21.4305C130.226 20.9196 130.266 20.3945 130.171 19.895C129.796 17.9422 128.393 16.8479 126.223 16.7372C124.103 16.628 122.169 17.1375 120.469 18.4403C120.192 18.6517 120.045 18.5893 119.894 18.3154C119.707 17.9747 119.518 17.6327 119.297 17.3119C119.089 17.0097 119.153 16.821 119.438 16.6109C120.564 15.7792 121.823 15.2399 123.173 14.9192C124.735 14.5474 126.323 14.5218 127.897 14.8113C130.766 15.3378 132.567 17.471 132.604 20.4498C132.647 23.9596 132.614 27.4707 132.628 30.9805C132.629 31.3934 132.493 31.5624 132.079 31.5382C131.675 31.514 131.267 31.5183 130.862 31.5382C130.494 31.5552 130.354 31.3849 130.359 31.033C130.368 30.4695 130.363 29.9046 130.363 29.3413V29.3384ZM126.715 23.8432C125.742 23.8801 124.542 23.7623 123.352 23.9823C122.09 24.2151 121.179 25.0837 120.992 26.2502C120.788 27.5275 121.383 28.6756 122.568 29.2774C123.737 29.8707 124.989 29.8622 126.238 29.7116C127.373 29.5755 128.367 29.0787 129.16 28.2414C129.698 27.6765 130.203 27.0634 130.255 26.2346C130.293 25.6172 130.252 24.9942 130.267 24.374C130.278 23.9908 130.127 23.8305 129.739 23.8361C128.805 23.8503 127.87 23.8404 126.712 23.8404L126.715 23.8432Z" fill="white"/>
<path d="M143.353 31.7127C141.024 31.6716 138.953 31.2628 137.061 30.1459C136.256 29.6704 136.241 29.6464 136.713 28.8544C136.919 28.5081 137.007 27.9872 137.378 27.8723C137.734 27.7617 138.037 28.2058 138.377 28.379C140.681 29.5484 143.095 29.916 145.614 29.3142C146.926 29.0006 147.597 28.1278 147.615 26.974C147.63 26.1054 147.215 25.5377 146.483 25.1488C145.495 24.6252 144.4 24.5116 143.331 24.293C142.244 24.0702 141.142 23.9255 140.086 23.5537C137.964 22.8071 136.935 21.5426 136.896 19.6068C136.857 17.6114 137.974 15.9296 139.976 15.23C143.088 14.14 146.118 14.5118 149.046 15.9651C149.341 16.1112 149.433 16.2802 149.242 16.5895C149.01 16.9656 148.804 17.3602 148.607 17.7562C148.471 18.0329 148.306 18.0556 148.062 17.8981C146.325 16.7897 144.398 16.5938 142.412 16.7428C141.581 16.8053 140.798 17.0253 140.101 17.5574C138.981 18.4146 138.798 20.5492 140.536 21.3269C141.778 21.8833 143.105 22.0635 144.419 22.3132C145.581 22.5332 146.72 22.81 147.808 23.3096C150.708 24.6408 150.489 28.5763 148.514 30.1261C147.345 31.0442 146 31.4502 144.562 31.6233C144.108 31.6786 143.647 31.6929 143.353 31.7127Z" fill="white"/>
<path d="M107.578 22.4989C107.578 20.5304 107.564 18.9338 107.587 17.3372C107.594 16.8759 107.456 16.7014 106.984 16.727C106.35 16.761 105.714 16.727 105.08 16.7369C104.773 16.7425 104.644 16.619 104.616 16.3054C104.473 14.7769 104.483 14.7599 105.992 14.7599C107.051 14.7599 107.58 14.2338 107.58 13.1818C107.58 12.668 107.588 12.1528 107.58 11.639C107.574 11.2956 107.683 11.1055 108.065 11.121C108.541 11.1409 109.018 11.138 109.493 11.121C109.841 11.1097 109.959 11.2687 109.955 11.6007C109.945 12.4693 109.969 13.3392 109.947 14.2078C109.935 14.6209 110.072 14.7727 110.491 14.7656C111.797 14.7457 113.102 14.7727 114.406 14.7514C114.868 14.7443 115.03 14.9103 115.022 15.3702C114.991 17.0065 115.178 16.7071 113.68 16.7297C112.656 16.7454 111.632 16.7653 110.611 16.7198C110.051 16.6957 109.938 16.9043 109.942 17.4223C109.964 20.4552 109.949 23.4881 109.955 26.5223C109.959 29.1905 112.151 30.4877 114.524 29.2316C114.632 29.1735 114.747 29.1195 114.841 29.0415C115.133 28.8017 115.335 28.8385 115.471 29.2076C115.538 29.3892 115.64 29.558 115.725 29.7341C116.125 30.5557 116.14 30.6168 115.296 31.0199C113.496 31.8799 111.649 31.9665 109.839 31.0809C108.492 30.421 107.841 29.2203 107.672 27.7599C107.454 25.8866 107.645 24.0033 107.577 22.4974L107.578 22.4989Z" fill="white"/>
<path d="M156.327 23.1553C156.327 25.727 156.316 28.3 156.337 30.8716C156.342 31.3868 156.174 31.577 155.668 31.533C155.283 31.5003 154.892 31.5074 154.505 31.5315C154.08 31.5585 153.954 31.3613 153.954 30.9639C153.959 25.7483 153.961 20.5341 153.954 15.3185C153.954 14.9054 154.11 14.7393 154.519 14.7606C154.924 14.7819 155.332 14.7877 155.736 14.7606C156.211 14.7281 156.337 14.9366 156.336 15.388C156.32 17.978 156.329 20.5681 156.329 23.1582L156.327 23.1553Z" fill="white"/>
<path d="M155.184 7.94871C156.171 7.95439 156.854 8.61573 156.841 9.55384C156.829 10.526 156.128 11.2114 155.151 11.2072C154.186 11.2029 153.486 10.4905 153.492 9.5212C153.498 8.59587 154.201 7.94303 155.184 7.94729V7.94871Z" fill="white"/>
</svg>
