<svg width="151" height="36" viewBox="0 0 151 36" fill="none" xmlns="http://www.w3.org/2000/svg">
<g clip-path="url(#clip0_572_71371)">
<path d="M38.1151 12.1414C38.0841 16.0353 37.1613 19.7315 35.6447 23.2923C34.3404 26.353 32.5687 29.1081 30.2534 31.4951C29.2412 32.5393 28.1085 33.4468 26.8758 34.2141C25.8731 34.8388 24.7607 34.5583 24.1062 33.5727C23.5291 32.7047 23.7402 31.4927 24.6594 30.8716C29.1673 27.8264 31.6304 23.3906 33.147 18.3121C33.8635 15.9118 34.1854 13.4529 34.0472 10.9448C33.9828 9.77233 33.7789 8.62379 33.3318 7.5316C32.4305 5.32803 30.6731 4.41208 28.3697 4.96237C26.5718 5.39158 25.0337 6.35429 23.6531 7.5316C18.7613 11.7025 15.609 16.9441 14.2844 23.2694C14.0221 24.5199 13.9374 25.7895 14.1413 27.0652C14.4227 28.8251 15.5148 29.2699 16.9217 28.1897C18.1735 27.227 18.9747 25.9058 19.7032 24.5439C20.8847 22.3343 21.7133 19.9953 21.9434 17.4836C22.0662 16.1409 22.0817 14.7873 21.7216 13.4649C21.643 13.176 21.6966 12.9685 21.8838 12.7288C22.6134 11.7924 23.4672 10.9797 24.2993 10.1416C24.5735 9.86584 24.707 9.9629 24.8477 10.2615C25.5583 11.7721 25.959 13.3703 26.0186 15.0307C26.2224 20.7062 24.3518 25.684 20.8275 30.0516C19.8033 31.3213 18.4954 32.2755 16.8585 32.6735C14.1508 33.3317 11.6257 32.0058 10.6265 29.3886C10.0376 27.8457 9.90408 26.2463 10.0579 24.6146C10.6505 18.3096 13.3962 12.9638 17.3401 8.16221C19.3897 5.66732 21.7622 3.54648 24.6522 2.06465C26.1414 1.29616 27.7187 0.778238 29.3962 0.756658C32.3863 0.719493 34.7172 1.97952 36.3136 4.54635C37.3389 6.19603 37.7896 8.03154 38.0137 9.94142C38.0996 10.6727 38.1139 11.4052 38.1139 12.1414H38.1151Z" fill="white"/>
<path d="M66.9763 12.7058C66.0845 14.2415 65.2284 15.715 64.3724 17.1884C62.9596 19.621 61.5444 22.0512 60.1399 24.4884C59.9492 24.8206 59.7668 25.0508 59.3233 25.046C58.8988 25.0412 58.7283 24.8158 58.5459 24.5017C56.3236 20.688 54.0941 16.8792 51.8657 13.069C51.8073 12.9696 51.7417 12.8736 51.6654 12.7537C51.5665 12.9408 51.6105 13.105 51.6105 13.2608C51.607 17.7567 51.6082 22.2525 51.6082 26.7484C51.6082 27.3874 51.6058 27.3874 50.9572 27.3898C50.7044 27.3898 50.4505 27.391 50.1978 27.3898C49.6147 27.3863 49.6028 27.3778 49.6028 26.7796C49.6028 22.1039 49.6028 17.4282 49.6028 12.7526C49.6028 11.5237 49.6136 10.2948 49.5969 9.06593C49.5909 8.67149 49.7387 8.54801 50.1215 8.54682C51.2886 8.54322 51.2922 8.52763 51.8848 9.54189C54.2538 13.599 56.6192 17.6572 58.9858 21.7155C59.0311 21.7933 59.0764 21.8701 59.123 21.9469C59.3733 22.3593 59.3912 22.3604 59.6237 21.9577C60.2604 20.857 60.897 19.7553 61.5324 18.6546C63.3435 15.5196 65.1677 12.3917 66.9525 9.24097C67.2517 8.71226 67.5784 8.50605 68.1805 8.53843C69.1593 8.59117 69.0497 8.50485 69.0497 9.422C69.052 15.1611 69.0508 20.9014 69.0497 26.6405C69.0497 27.1384 68.7948 27.3878 68.2854 27.3886C68.0029 27.3886 67.7191 27.3791 67.4365 27.3886C67.1706 27.3982 67.0526 27.2723 67.0538 27.0146C67.0538 26.8647 67.0502 26.7148 67.0502 26.565C67.0502 22.1446 67.0502 17.7231 67.0478 13.3028C67.0478 13.129 67.0896 12.948 66.9727 12.7045L66.9763 12.7058Z" fill="white"/>
<path d="M148.409 24.3377C145.653 27.7774 140.433 27.341 137.919 24.9037C135.432 22.4927 135.286 17.8205 137.747 15.1986C140.139 12.651 145.872 12.0671 148.497 15.695C148.497 14.9972 148.512 14.3737 148.49 13.7528C148.478 13.3691 148.609 13.1989 149.004 13.2264C149.344 13.2492 149.688 13.236 150.031 13.2324C150.285 13.2288 150.429 13.3307 150.415 13.6029C150.415 13.6172 150.415 13.6329 150.415 13.6473C150.411 17.8866 150.426 22.1258 150.392 26.3638C150.384 27.4585 150.144 28.5363 149.668 29.5374C148.996 30.946 147.869 31.8704 146.402 32.2732C143.474 33.0753 140.623 32.8439 137.926 31.3584C137.615 31.187 137.342 30.946 137.052 30.7375C136.846 30.5888 136.81 30.4257 136.972 30.2087C137.24 29.8502 137.416 29.3144 137.765 29.1561C138.144 28.9847 138.464 29.5385 138.827 29.7459C140.852 30.9029 143.003 31.2003 145.254 30.7027C146.877 30.3442 147.867 29.306 148.237 27.6623C148.477 26.5977 148.39 25.5271 148.408 24.339L148.409 24.3377ZM137.978 19.9078C137.874 22.7636 139.959 25.0571 143.217 25.0823C146.242 25.105 148.479 22.9242 148.485 19.9882C148.493 17.0114 146.292 14.8857 143.205 14.8857C140.117 14.8857 137.975 16.943 137.978 19.9091V19.9078Z" fill="white"/>
<path d="M0.696261 22.5423C0.851253 18.9385 1.94812 15.6415 3.92607 12.643C5.64052 10.0451 7.85334 7.99855 10.6742 6.66059C12.3696 5.85733 14.1699 5.49765 16.0357 5.44611C16.1263 5.44371 16.2266 5.44131 16.2778 5.52643C16.3469 5.64152 16.2504 5.72665 16.1848 5.79858C15.0033 7.09219 13.9648 8.49609 12.9824 9.94436C12.887 10.0858 12.7499 10.1721 12.5997 10.2428C9.00387 11.9081 6.85423 14.8346 5.53084 18.4708C5.01102 19.8999 4.74753 21.3829 4.73679 22.9116C4.72845 24.1177 3.8295 25.0384 2.7052 25.0348C1.57018 25.0324 0.705799 24.1141 0.695068 22.9008C0.695068 22.7809 0.695068 22.661 0.695068 22.5411L0.696261 22.5423Z" fill="white"/>
<path d="M81.0752 20.9209C79.3166 20.9209 77.5592 20.9209 75.8007 20.9209C75.1771 20.9209 75.1426 20.9664 75.2808 21.6018C75.7959 23.9672 77.6392 25.5558 80.0713 25.7152C81.8252 25.8303 83.4204 25.4539 84.6924 24.1375C84.8809 23.9421 85.0311 23.9288 85.2004 24.1507C85.328 24.3161 85.4674 24.472 85.6058 24.6302C86.1148 25.2105 86.1184 25.2129 85.5426 25.7572C84.5291 26.7151 83.2952 27.2234 81.9444 27.4224C80.1989 27.6803 78.4928 27.5184 76.9083 26.6684C74.9614 25.6241 73.7547 24.0032 73.3626 21.8152C72.9571 19.5577 73.3315 17.4476 74.7754 15.6229C76.02 14.05 77.6773 13.2288 79.6814 13.1305C81.837 13.025 83.716 13.6495 85.1789 15.298C86.5094 16.7979 86.9912 18.5974 86.9327 20.5732C86.9219 20.9328 86.6872 20.9209 86.4391 20.9209C84.6507 20.9196 82.8636 20.9209 81.0752 20.9209ZM80.0844 19.4246C81.5878 19.4246 83.0925 19.4222 84.5959 19.4271C84.8546 19.4271 85.0454 19.3923 84.9894 19.059C84.7318 17.5292 84.0046 16.2764 82.6561 15.509C80.0939 14.05 76.0189 14.9036 75.2785 18.8719C75.1807 19.3959 75.1974 19.4246 75.7506 19.4246C77.1944 19.4258 78.6394 19.4246 80.0832 19.4246H80.0844Z" fill="white"/>
<path d="M110.247 25.5375C109.287 26.6117 108.135 27.2267 106.777 27.4282C105.327 27.6428 103.892 27.5697 102.549 26.8887C101.062 26.1346 100.251 24.6947 100.343 23.2368C100.475 21.1448 101.714 20.1354 103.263 19.6497C103.991 19.4219 104.747 19.338 105.511 19.3369C106.897 19.3344 108.282 19.3272 109.666 19.3416C110.026 19.3452 110.196 19.2373 110.165 18.8573C110.131 18.4257 110.165 17.9821 110.085 17.5601C109.768 15.9105 108.583 14.9861 106.75 14.8926C104.959 14.8003 103.325 15.2307 101.889 16.3313C101.656 16.5098 101.531 16.4572 101.404 16.2258C101.245 15.938 101.086 15.649 100.899 15.3781C100.723 15.1228 100.778 14.9633 101.018 14.7859C101.97 14.0833 103.033 13.6277 104.174 13.3568C105.493 13.0427 106.835 13.0211 108.164 13.2656C110.587 13.7104 112.109 15.5124 112.14 18.0288C112.177 20.9937 112.149 23.9598 112.16 26.9247C112.161 27.2735 112.047 27.4162 111.697 27.3958C111.355 27.3754 111.011 27.379 110.669 27.3958C110.358 27.4102 110.239 27.2663 110.244 26.969C110.251 26.493 110.247 26.0158 110.247 25.5399V25.5375ZM107.165 20.8954C106.344 20.9266 105.33 20.8271 104.324 21.0129C103.259 21.2096 102.489 21.9433 102.331 22.9287C102.158 24.0077 102.661 24.9776 103.662 25.486C104.65 25.9872 105.708 25.98 106.763 25.8528C107.721 25.7378 108.561 25.3182 109.231 24.6108C109.685 24.1336 110.112 23.6157 110.156 22.9155C110.188 22.394 110.154 21.8678 110.166 21.3438C110.175 21.0201 110.048 20.8847 109.72 20.8894C108.931 20.9014 108.141 20.893 107.163 20.893L107.165 20.8954Z" fill="white"/>
<path d="M121.224 27.5466C119.257 27.5119 117.507 27.1666 115.909 26.2231C115.229 25.8214 115.217 25.8011 115.615 25.1321C115.789 24.8396 115.863 24.3996 116.177 24.3024C116.478 24.209 116.733 24.5842 117.021 24.7305C118.968 25.7184 121.006 26.0289 123.135 25.5205C124.243 25.2556 124.81 24.5183 124.825 23.5436C124.838 22.8099 124.487 22.3303 123.869 22.0018C123.034 21.5594 122.109 21.4635 121.206 21.2788C120.288 21.0906 119.356 20.9684 118.465 20.6543C116.672 20.0236 115.803 18.9554 115.77 17.3201C115.737 15.6345 116.681 14.2138 118.372 13.6228C121.001 12.702 123.56 13.0161 126.034 14.2437C126.283 14.3672 126.36 14.5099 126.199 14.7713C126.004 15.089 125.83 15.4223 125.663 15.7568C125.548 15.9905 125.409 16.0098 125.202 15.8767C123.735 14.9403 122.107 14.7749 120.43 14.9008C119.728 14.9535 119.066 15.1393 118.478 15.5889C117.532 16.313 117.377 18.1162 118.845 18.7732C119.894 19.2432 121.015 19.3954 122.125 19.6064C123.106 19.7922 124.069 20.026 124.988 20.4481C127.438 21.5726 127.253 24.8971 125.585 26.2063C124.597 26.982 123.46 27.3249 122.246 27.4711C121.862 27.5179 121.473 27.5299 121.224 27.5466Z" fill="white"/>
<path d="M91.0089 19.7647C91.0089 18.1018 90.997 16.753 91.016 15.4043C91.022 15.0146 90.9051 14.8672 90.5069 14.8888C89.9716 14.9176 89.434 14.8888 88.8985 14.8971C88.6387 14.9019 88.5302 14.7976 88.5064 14.5327C88.3859 13.2415 88.3943 13.2271 89.6687 13.2271C90.563 13.2271 91.0101 12.7827 91.0101 11.894C91.0101 11.46 91.0172 11.0247 91.0101 10.5907C91.0053 10.3006 91.0971 10.14 91.4202 10.1531C91.822 10.1699 92.225 10.1675 92.6267 10.1531C92.92 10.1436 93.0202 10.2778 93.0166 10.5583C93.0083 11.292 93.0285 12.027 93.0095 12.7607C93 13.1096 93.1156 13.2379 93.4696 13.2319C94.5725 13.2151 95.6753 13.2379 96.777 13.2199C97.1668 13.2139 97.304 13.3541 97.2968 13.7426C97.2705 15.1249 97.4291 14.872 96.163 14.8911C95.2986 14.9043 94.433 14.9212 93.571 14.8828C93.0977 14.8623 93.0023 15.0386 93.0059 15.4762C93.0238 18.0382 93.0118 20.6003 93.0166 23.1635C93.0202 25.4175 94.8718 26.5133 96.8759 25.4522C96.9677 25.4031 97.0643 25.3575 97.1442 25.2916C97.391 25.0889 97.5614 25.1201 97.676 25.4319C97.7331 25.5853 97.819 25.7279 97.8905 25.8766C98.2288 26.5707 98.2414 26.6223 97.5281 26.9628C96.008 27.6894 94.4473 27.7625 92.9189 27.0143C91.7803 26.4569 91.2306 25.4426 91.0876 24.2089C90.904 22.6264 91.065 21.0355 91.0077 19.7634L91.0089 19.7647Z" fill="white"/>
<path d="M132.182 20.3169C132.182 22.4894 132.174 24.663 132.191 26.8353C132.195 27.2706 132.053 27.4312 131.626 27.394C131.301 27.3664 130.97 27.3724 130.643 27.3928C130.285 27.4156 130.178 27.249 130.178 26.9133C130.183 22.5073 130.184 18.1026 130.178 13.6967C130.178 13.3477 130.31 13.2075 130.655 13.2254C130.997 13.2434 131.342 13.2483 131.684 13.2254C132.084 13.1979 132.191 13.3741 132.19 13.7554C132.177 15.9434 132.184 18.1314 132.184 20.3194L132.182 20.3169Z" fill="white"/>
<path d="M131.225 7.46607C132.059 7.47086 132.635 8.02954 132.625 8.82201C132.614 9.64325 132.022 10.2223 131.196 10.2187C130.382 10.2151 129.791 9.61328 129.795 8.79443C129.8 8.01276 130.394 7.46126 131.225 7.46486V7.46607Z" fill="white"/>
</g>
<defs>
<clipPath id="clip0_572_71371">
<rect width="149.722" height="35" fill="white" transform="translate(0.696045 0.152344)"/>
</clipPath>
</defs>
</svg>
