<svg width="200" height="50" viewBox="0 0 200 50" fill="none" xmlns="http://www.w3.org/2000/svg">
<g clip-path="url(#clip0_3016_11382)">
<path d="M67.0872 37.2483V42.9149C67.9123 43.0845 68.7426 43.2695 69.5797 43.4188C69.8633 43.4696 69.9538 43.5816 69.9384 43.8565C69.9179 44.2297 69.9333 44.6047 69.9333 45.0016H59.0783C59.0783 44.5605 59.0595 44.1279 59.0937 43.7021C59.1005 43.6105 59.2833 43.49 59.4046 43.4561C60.0794 43.2678 60.761 43.1032 61.4581 42.9267V23.6843H58.699C58.699 23.1957 58.6871 22.7393 58.7093 22.2846C58.7127 22.2015 58.8391 22.0827 58.9314 22.0522C61.0976 21.3701 63.2604 20.6729 65.4437 20.0468C65.9203 19.9094 66.4721 20.0265 67.0359 20.0265V22.517C67.2478 22.3847 67.3844 22.3033 67.516 22.2167C68.8109 21.3634 70.1691 20.6338 71.7049 20.3217C74.2897 19.7957 76.8232 20.985 78.1916 23.3382C78.9758 24.6852 79.3021 26.1596 79.3755 27.6966C79.4678 29.6256 79.2235 31.4936 78.1985 33.1783C76.7378 35.5789 74.6006 36.9938 71.7715 37.2195C70.3211 37.3349 68.8553 37.2483 67.3964 37.2534C67.3007 37.2534 67.205 37.2534 67.0872 37.2534V37.2483ZM67.135 35.4703C67.7295 35.4703 68.2796 35.5246 68.816 35.4601C70.7978 35.2226 72.2567 34.2641 72.993 32.3554C73.7618 30.3603 73.7738 28.36 73.0921 26.3411C72.6018 24.8888 71.6024 24.0134 70.111 23.6843C69.2483 23.4942 68.3855 23.5316 67.5177 23.6944C67.1948 23.7555 67.1299 23.8997 67.1316 24.1983C67.1418 27.8273 67.1384 31.4545 67.1384 35.0835V35.4703H67.135Z" fill="white"/>
<path d="M94.2231 37.413V27.0826C94.0779 27.2964 93.9959 27.4084 93.9224 27.5254C91.9117 30.7014 89.8975 33.8774 87.8987 37.0618C87.7261 37.3367 87.5451 37.4283 87.2273 37.4232C86.1442 37.4046 85.0628 37.4164 83.9797 37.4164C83.843 37.4164 83.7046 37.4164 83.5184 37.4164V23.8049C82.3977 23.72 81.3009 23.6369 80.1461 23.5487C80.1461 23.0618 80.1341 22.5918 80.158 22.1236C80.1614 22.0455 80.3032 21.9319 80.4006 21.9064C82.2867 21.4093 84.1642 20.8698 86.069 20.4626C86.8327 20.2998 87.6629 20.4355 88.5205 20.4355V31.2901L88.6111 31.3139C88.6948 31.1951 88.7819 31.0781 88.8605 30.9542C90.9891 27.5543 93.1195 24.1561 95.2379 20.751C95.3985 20.4915 95.571 20.3965 95.8751 20.4015C97.0402 20.4185 98.2053 20.4083 99.4303 20.4083V33.214C99.461 33.2225 99.4935 33.231 99.5242 33.2395C99.9821 32.6304 100.442 32.0213 100.899 31.4106C101.764 30.2586 102.64 29.1117 103.484 27.9462C103.633 27.7392 103.727 27.444 103.729 27.1895C103.749 25.2486 103.746 23.3078 103.732 21.3669C103.73 21.0683 103.828 20.88 104.06 20.7018C105.169 19.8553 106.763 19.7602 107.805 20.4949C108.908 21.2736 109.363 22.8158 108.842 24.2578C108.64 24.8143 108.353 25.3657 107.993 25.8323C105.059 29.6309 102.1 33.4108 99.1432 37.1925C99.0664 37.2909 98.928 37.4046 98.8187 37.4046C97.3033 37.4181 95.7863 37.4147 94.2248 37.4147L94.2231 37.413Z" fill="white"/>
<path d="M120.05 21.7924C118.786 21.918 117.761 22.4015 116.948 23.299C116.159 24.1676 115.771 25.2212 115.624 26.3664C115.421 27.951 115.511 29.5135 116.049 31.0302C117.056 33.8601 119.355 35.1088 122.271 34.3131C123.313 34.0281 124.286 33.4937 125.287 33.0644C125.463 32.9881 125.623 32.8744 125.854 32.7404C125.854 33.721 125.859 34.6473 125.845 35.5737C125.845 35.6517 125.727 35.7569 125.64 35.7993C123.23 36.9564 120.751 37.8589 118.011 37.7215C116.133 37.6282 114.319 37.2957 112.754 36.1759C110.702 34.7067 109.657 32.6233 109.356 30.1955C109.009 27.3979 109.788 24.8887 111.698 22.7697C112.802 21.5464 114.276 20.9628 115.82 20.5404C118.058 19.9262 120.305 19.7956 122.538 20.5624C123.52 20.9 124.403 21.4107 125.092 22.2013C126.24 23.5212 126.102 25.4367 124.791 26.5971C124.405 26.9398 123.951 27.0772 123.45 27.1349C122.358 27.2622 121.327 27.0891 120.349 26.5801C120.124 26.4614 120.04 26.3121 120.042 26.0542C120.056 24.7987 120.049 23.5416 120.049 22.2861C120.049 22.1368 120.049 21.9875 120.049 21.7975L120.05 21.7924Z" fill="white"/>
<path d="M119.903 10.2303C119.651 10.6426 119.413 11.0294 119.176 11.4179C118.453 12.5971 117.739 13.7813 116.999 14.9502C116.909 15.0944 116.685 15.242 116.522 15.242C110.605 15.2573 104.687 15.2539 98.769 15.2539C98.7143 15.2539 98.6613 15.2454 98.5657 15.2352C98.6306 15.1063 98.6767 14.9943 98.7399 14.8925C99.6522 13.4199 100.563 11.9456 101.49 10.4814C101.576 10.3457 101.783 10.2032 101.933 10.2032C107.864 10.1896 113.798 10.1913 119.729 10.193C119.767 10.193 119.806 10.2083 119.905 10.227L119.903 10.2303Z" fill="white"/>
<path d="M120.167 9.95405C120.319 9.70296 120.445 9.49258 120.575 9.28051C121.393 7.94701 122.205 6.61011 123.038 5.28679C123.124 5.15106 123.332 5.01194 123.484 5.01194C129.371 4.99837 135.258 5.00007 141.145 5.00007C141.186 5.00007 141.227 5.01025 141.303 5.02043C141.251 5.12901 141.212 5.2291 141.159 5.32072C140.295 6.77298 139.425 8.22185 138.562 9.67411C138.45 9.86243 138.342 9.98459 138.079 9.98459C132.163 9.97441 126.248 9.9761 120.332 9.97441C120.305 9.97441 120.278 9.96762 120.165 9.95235L120.167 9.95405Z" fill="white"/>
</g>
<defs>
<clipPath id="clip0_3016_11382">
<rect width="82.6087" height="40" fill="white" transform="translate(58.6956 5)"/>
</clipPath>
</defs>
</svg>
