<svg width="78" height="59" viewBox="0 0 78 59" fill="none" xmlns="http://www.w3.org/2000/svg">
<g clip-path="url(#clip0_572_71382)">
<mask id="mask0_572_71382" style="mask-type:luminance" maskUnits="userSpaceOnUse" x="1" y="1" width="76" height="58">
<path d="M76.7878 1.29688L1.25293 1.29688L1.25293 58.6127H76.7878V1.29688Z" fill="white"/>
</mask>
<g mask="url(#mask0_572_71382)">
<path d="M76.6156 25.7421H49.4578V19.0215H76.6156V25.7421Z" fill="white" stroke="white" stroke-width="0.278217"/>
<path d="M73.0479 25.7467H49.4578V8.47266H73.0479V25.7467Z" fill="white" stroke="white" stroke-width="0.278217"/>
<path d="M63.1737 25.7442H49.4578V1.44336H63.1737V25.7442Z" fill="white" stroke="white" stroke-width="0.278217"/>
<path d="M65.9341 25.7482H49.4587V4.19336H65.9341V25.7482Z" fill="white" stroke="white" stroke-width="0.278217"/>
<path d="M63.177 25.7417H49.4587V4.19336H63.177V25.7417Z" fill="white" stroke="white" stroke-width="0.278217"/>
<path d="M35.4023 26.0488H49.1572V29.2545H35.4023V26.0488Z" fill="white" stroke="white" stroke-width="0.278217"/>
<path d="M65.9455 25.7366H49.4583V8.46094H65.9455V25.7366Z" fill="white" stroke="white" stroke-width="0.278217"/>
<path d="M63.1765 25.7366H49.4583V8.46094H63.1765V25.7366Z" stroke="white" stroke-width="0.278217"/>
<path d="M57.919 25.7442H49.4578V15.5H57.919V25.7442Z" stroke="white" stroke-width="0.278217"/>
<path d="M73.0633 25.7445H49.4612V19.0312H73.0633V25.7445Z" fill="white" stroke="white" stroke-width="0.278217"/>
<path d="M65.9484 25.7445H49.4612V19.0312H65.9484V25.7445Z" stroke="white" stroke-width="0.278217"/>
<path d="M63.1795 25.7445H49.4612V19.0312H63.1795V25.7445Z" stroke="white" stroke-width="0.278217"/>
<path d="M57.9349 25.7445H49.4612V19.0312H57.9349V25.7445Z" stroke="white" stroke-width="0.278217"/>
<path d="M52.3671 39.1444C49.9742 39.5699 48.6978 41.378 48.6978 44.5155C48.6978 47.7064 50.3996 49.8336 52.899 49.8336C54.1221 49.8336 55.1857 49.4081 57.4193 48.2913V50.8972C54.7071 52.1734 53.1116 52.4925 50.9845 52.4925C48.5915 52.4925 46.8895 51.9076 45.5601 50.4717C44.1775 49.089 43.4329 47.2809 43.4329 45.2067C43.4329 40.6866 46.8364 37.5489 51.7822 37.5489C55.0262 37.5489 57.3129 39.0913 57.3129 41.2716C57.3129 42.7074 56.2492 43.7179 54.707 43.7179C53.9093 43.7179 53.2711 43.452 52.3671 42.9734M40.4017 45.2069C42.5821 42.4947 43.3799 41.378 43.3799 40.0484C43.3799 38.7189 42.3162 37.5488 40.8272 37.5488C39.9762 37.5488 39.1787 38.0276 38.8064 38.453V44.0369L35.2432 48.823V37.9744H31.8398L26.2026 47.281V37.9744H24.288L19.1295 39.1445V40.474L21.9481 40.7397V52.2799H25.5111L30.9356 43.3457V52.2799H34.924M8.33417 50.4717H9.13184C12.0035 50.4717 13.5989 48.7168 13.5989 45.2067C13.5989 42.2821 12.3227 40.6866 9.92944 40.6866C9.61038 40.6866 9.13177 40.7397 8.3341 40.8993L8.33417 50.4717ZM8.33417 56.7469L10.674 57.2787V58.6081H1.47396V57.2787L3.60108 56.7469V40.6865H1.26123V39.357L6.84508 37.6553H8.33425V39.5699C10.94 37.9744 11.8441 37.7086 13.2267 37.7086C16.3112 37.7086 18.651 40.5802 18.651 44.5689C18.651 49.1422 15.5135 52.2799 10.7272 52.2799C10.1954 52.2799 9.29133 52.2268 8.33417 52.1735" fill="white"/>
</g>
</g>
<defs>
<clipPath id="clip0_572_71382">
<rect width="76.8543" height="57.9192" fill="white" transform="translate(0.418213 0.693359)"/>
</clipPath>
</defs>
</svg>
