<svg width="83" height="40" viewBox="0 0 83 40" fill="none" xmlns="http://www.w3.org/2000/svg">
<g clip-path="url(#clip0_3016_11382)">
<path d="M8.39161 32.2483V37.9149C9.21675 38.0845 10.047 38.2695 10.8841 38.4188C11.1677 38.4696 11.2583 38.5816 11.2429 38.8565C11.2224 39.2297 11.2378 39.6047 11.2378 40.0016H0.38272C0.38272 39.5605 0.363928 39.1279 0.398095 38.7021C0.404929 38.6105 0.587725 38.49 0.70902 38.4561C1.38383 38.2678 2.06547 38.1032 2.76249 37.9267V18.6843H0.00345936C0.00345936 18.1957 -0.0084993 17.7393 0.0137096 17.2846C0.0171264 17.2015 0.143547 17.0827 0.235799 17.0522C2.40203 16.3701 4.56484 15.6729 6.74815 15.0468C7.22478 14.9094 7.77659 15.0265 8.34035 15.0265V17.517C8.55219 17.3847 8.68886 17.3033 8.82041 17.2167C10.1154 16.3634 11.4735 15.6338 13.0094 15.3217C15.5941 14.7957 18.1277 15.985 19.4961 18.3382C20.2802 19.6852 20.6065 21.1596 20.68 22.6966C20.7722 24.6256 20.5279 26.4936 19.5029 28.1783C18.0422 30.5789 15.9051 31.9938 13.076 32.2195C11.6256 32.3349 10.1598 32.2483 8.70082 32.2534C8.60515 32.2534 8.50949 32.2534 8.39161 32.2534V32.2483ZM8.43944 30.4703C9.03396 30.4703 9.58406 30.5246 10.1205 30.4601C12.1022 30.2226 13.5612 29.2641 14.2975 27.3554C15.0662 25.3603 15.0782 23.36 14.3966 21.3411C13.9063 19.8888 12.9069 19.0134 11.4154 18.6843C10.5527 18.4942 9.68998 18.5316 8.82212 18.6944C8.49923 18.7555 8.43432 18.8997 8.43602 19.1983C8.44627 22.8273 8.44286 26.4545 8.44286 30.0835V30.4703H8.43944Z" fill="white"/>
<path d="M35.5276 32.413V22.0826C35.3823 22.2964 35.3003 22.4084 35.2269 22.5254C33.2161 25.7014 31.2019 28.8774 29.2031 32.0618C29.0306 32.3367 28.8495 32.4283 28.5317 32.4232C27.4486 32.4046 26.3672 32.4164 25.2841 32.4164C25.1474 32.4164 25.0091 32.4164 24.8228 32.4164V18.8049C23.7021 18.72 22.6054 18.6369 21.4505 18.5487C21.4505 18.0618 21.4385 17.5918 21.4625 17.1236C21.4659 17.0455 21.6077 16.9319 21.705 16.9064C23.5911 16.4093 25.4686 15.8698 27.3735 15.4626C28.1371 15.2998 28.9674 15.4355 29.825 15.4355V26.2901L29.9155 26.3139C29.9992 26.1951 30.0864 26.0781 30.165 25.9542C32.2936 22.5543 34.4239 19.1561 36.5423 15.751C36.7029 15.4915 36.8755 15.3965 37.1796 15.4015C38.3447 15.4185 39.5098 15.4083 40.7347 15.4083V28.214C40.7654 28.2225 40.7979 28.231 40.8287 28.2395C41.2865 27.6304 41.7461 27.0213 42.2039 26.4106C43.0683 25.2586 43.9447 24.1117 44.7887 22.9462C44.9373 22.7392 45.0313 22.444 45.033 22.1895C45.0535 20.2486 45.0501 18.3078 45.0364 16.3669C45.0347 16.0683 45.1321 15.88 45.3644 15.7018C46.4732 14.8553 48.0671 14.7602 49.1092 15.4949C50.2128 16.2736 50.6672 17.8158 50.1462 19.2578C49.9446 19.8143 49.6576 20.3657 49.2971 20.8323C46.3638 24.6309 43.4049 28.4108 40.4477 32.1925C40.3708 32.2909 40.2324 32.4046 40.1231 32.4046C38.6078 32.4181 37.0907 32.4147 35.5293 32.4147L35.5276 32.413Z" fill="white"/>
<path d="M61.3549 16.7927C60.0907 16.9182 59.0657 17.4017 58.2525 18.2992C57.4632 19.1679 57.0754 20.2214 56.9285 21.3666C56.7252 22.9512 56.8157 24.5138 57.3539 26.0305C58.3601 28.8604 60.6596 30.109 63.5758 29.3134C64.6179 29.0283 65.59 28.4939 66.5911 28.0647C66.767 27.9883 66.9276 27.8747 67.1583 27.7406C67.1583 28.7212 67.1634 29.6476 67.1497 30.5739C67.1497 30.6519 67.0318 30.7571 66.9447 30.7995C64.5342 31.9566 62.0553 32.8592 59.3151 32.7218C57.4376 32.6284 55.6233 32.2959 54.0584 31.1762C52.0066 29.707 50.9611 27.6236 50.6604 25.1958C50.3136 22.3981 51.0926 19.8889 53.0026 17.7699C54.1062 16.5467 55.5806 15.9631 57.1249 15.5406C59.3629 14.9264 61.6094 14.7958 63.8423 15.5627C64.8246 15.9003 65.7078 16.4109 66.3963 17.2015C67.5444 18.5215 67.406 20.4369 66.0956 21.5974C65.7096 21.9401 65.2551 22.0775 64.7546 22.1352C63.6629 22.2624 62.6311 22.0894 61.6539 21.5804C61.4284 21.4616 61.3446 21.3123 61.3463 21.0545C61.36 19.799 61.3532 18.5418 61.3532 17.2864C61.3532 17.1371 61.3532 16.9878 61.3532 16.7978L61.3549 16.7927Z" fill="white"/>
<path d="M61.2078 5.23059C60.9549 5.64286 60.7175 6.02968 60.48 6.41819C59.7574 7.59731 59.0433 8.78151 58.3035 9.95045C58.213 10.0947 57.9892 10.2423 57.8269 10.2423C51.9091 10.2575 45.9912 10.2541 40.0734 10.2541C40.0187 10.2541 39.9658 10.2457 39.8701 10.2355C39.935 10.1065 39.9812 9.99456 40.0444 9.89276C40.9566 8.42014 41.8672 6.94583 42.7949 5.48169C42.8803 5.34596 43.087 5.20345 43.2373 5.20345C49.1688 5.18988 55.102 5.19157 61.0335 5.19327C61.0711 5.19327 61.1104 5.20854 61.2095 5.2272L61.2078 5.23059Z" fill="white"/>
<path d="M61.4709 4.95405C61.623 4.70296 61.7494 4.49258 61.8792 4.28051C62.6976 2.94701 63.509 1.61011 64.3427 0.286788C64.4282 0.151062 64.6366 0.0119438 64.7886 0.0119438C70.6757 -0.00162871 76.5628 6.78627e-05 82.4499 6.78627e-05C82.4909 6.78627e-05 82.5319 0.0102473 82.607 0.0204267C82.5558 0.129007 82.5165 0.229105 82.4635 0.320719C81.5991 1.77298 80.7295 3.22185 79.8668 4.67411C79.754 4.86243 79.6464 4.98459 79.3833 4.98459C73.4672 4.97441 67.5528 4.9761 61.6367 4.97441C61.6093 4.97441 61.582 4.96762 61.4692 4.95235L61.4709 4.95405Z" fill="white"/>
</g>
<defs>
<clipPath id="clip0_3016_11382">
<rect width="82.6087" height="40" fill="white"/>
</clipPath>
</defs>
</svg>
