<svg width="54" height="41" viewBox="0 0 54 41" fill="none" xmlns="http://www.w3.org/2000/svg">
<g clip-path="url(#clip0_572_71401)">
<mask id="mask0_572_71401" style="mask-type:luminance" maskUnits="userSpaceOnUse" x="0" y="0" width="54" height="41">
<path d="M53.2725 0.652344H0.272461V40.4575H53.2725V0.652344Z" fill="white"/>
</mask>
<g mask="url(#mask0_572_71401)">
<path d="M41.5366 21.5859V30.7288H40.4565L35.4337 23.5502H35.3437V30.7288H34.2275V21.5859H35.3077L40.3485 28.7823H40.4385V21.5859H41.5366ZM46.5245 30.8717C45.8584 30.8717 45.2839 30.7258 44.8008 30.4342C44.3207 30.1395 43.9502 29.7288 43.6891 29.202C43.431 28.6722 43.3021 28.0562 43.3021 27.3538C43.3021 26.6514 43.431 26.0323 43.6891 25.4966C43.9502 24.9579 44.3132 24.5383 44.7783 24.2377C45.2464 23.9342 45.7924 23.7823 46.4165 23.7823C46.7766 23.7823 47.1321 23.8419 47.4832 23.9609C47.8342 24.08 48.1537 24.2734 48.4418 24.5413C48.7298 24.8062 48.9594 25.1574 49.1304 25.5949C49.3014 26.0323 49.387 26.571 49.387 27.2109V27.6574H44.0582V26.7466H48.3068C48.3068 26.3597 48.2288 26.0145 48.0728 25.7109C47.9197 25.4074 47.7007 25.1678 47.4157 24.9922C47.1336 24.8166 46.8006 24.7288 46.4165 24.7288C45.9934 24.7288 45.6274 24.833 45.3184 25.0413C45.0123 25.2466 44.7767 25.5145 44.6117 25.8449C44.4467 26.1752 44.3642 26.5294 44.3642 26.9074V27.5145C44.3642 28.0323 44.4542 28.4714 44.6343 28.8315C44.8173 29.1886 45.0708 29.4609 45.3949 29.6485C45.7189 29.833 46.0955 29.9252 46.5245 29.9252C46.8036 29.9252 47.0556 29.8865 47.2806 29.8091C47.5086 29.7288 47.7052 29.6097 47.8702 29.452C48.0352 29.2913 48.1628 29.0919 48.2528 28.8538L49.279 29.1395C49.1709 29.4847 48.9894 29.7883 48.7343 30.0502C48.4793 30.3091 48.1643 30.5115 47.7892 30.6574C47.4142 30.8002 46.9926 30.8717 46.5245 30.8717ZM54.0092 23.8717V24.7645H50.4266V23.8717H54.0092ZM51.4707 22.2288H52.5329V28.7645C52.5329 29.0621 52.5764 29.2853 52.6635 29.4342C52.7535 29.58 52.8675 29.6782 53.0055 29.7288C53.1465 29.7764 53.295 29.8002 53.451 29.8002C53.5681 29.8002 53.6641 29.7943 53.7391 29.7823C53.8141 29.7675 53.8741 29.7556 53.9191 29.7466L54.1351 30.6931C54.0631 30.7199 53.9627 30.7466 53.8336 30.7734C53.7046 30.8032 53.5411 30.8181 53.343 30.8181C53.043 30.8181 52.749 30.7541 52.4609 30.6261C52.1759 30.4981 51.9388 30.3032 51.7498 30.0413C51.5638 29.7794 51.4707 29.449 51.4707 29.0502V22.2288Z" fill="white"/>
<path d="M31.1598 27.0586H26.509V29.0157H31.1598V27.0586Z" fill="white"/>
<path d="M22.6151 20.5047C20.7931 20.5059 19.0269 19.8816 17.616 18.738C16.2052 17.5944 15.2367 16.0019 14.8749 14.2306C14.5132 12.4594 14.7803 10.6185 15.6312 9.02039C16.482 7.42228 17.8641 6.16541 19.5428 5.46302C21.4715 4.6548 23.6448 4.63963 25.5847 5.42085C27.5247 6.20208 29.0722 7.71571 29.887 9.62873C30.7018 11.5418 30.7172 13.6975 29.9295 15.6218C29.142 17.546 27.616 19.0811 25.6873 19.8893C24.7154 20.2974 23.6705 20.5067 22.6151 20.5047ZM22.6151 8.20302C21.7231 8.20302 20.851 8.46542 20.1093 8.95702C19.3676 9.44862 18.7895 10.1474 18.4482 10.9648C18.1068 11.7823 18.0176 12.6819 18.1916 13.5497C18.3657 14.4175 18.7953 15.2147 19.4261 15.8403C20.057 16.466 20.8606 16.892 21.7356 17.0646C22.6105 17.2371 23.5173 17.1484 24.3415 16.8098C25.1656 16.4711 25.87 15.8975 26.3655 15.1618C26.8609 14.426 27.1254 13.561 27.1253 12.6762C27.1239 11.4902 26.6483 10.3531 25.8027 9.5145C24.9572 8.67588 23.8108 8.20422 22.6151 8.20302Z" fill="white"/>
<path d="M13.6828 9.04132C12.7074 9.04081 11.7621 8.70578 11.007 8.09303C10.2521 7.48029 9.73388 6.62749 9.5402 5.67913C9.34658 4.73077 9.48945 3.74517 9.94456 2.88931C10.3997 2.03347 11.1391 1.36001 12.0375 0.983044C13.0694 0.556424 14.2296 0.552415 15.2644 0.971894C16.2993 1.39137 17.1246 2.20021 17.5599 3.22157C17.9952 4.24291 18.0051 5.39368 17.5874 6.42223C17.1698 7.45081 16.3585 8.27355 15.331 8.71046C14.8097 8.92978 14.2491 9.04235 13.6828 9.04132ZM13.6828 2.45105C13.205 2.45105 12.7379 2.5916 12.3406 2.85494C11.9432 3.11827 11.6335 3.49257 11.4507 3.93049C11.2678 4.3684 11.22 4.85027 11.3132 5.31517C11.4064 5.78005 11.6365 6.20708 11.9744 6.54223C12.3123 6.87743 12.7428 7.10566 13.2115 7.19812C13.6802 7.29063 14.166 7.24315 14.6075 7.06178C15.049 6.88035 15.4263 6.57321 15.6918 6.17908C15.9573 5.78497 16.099 5.32161 16.099 4.84762C16.0982 4.21218 15.8435 3.60299 15.3905 3.15362C14.9376 2.70425 14.3235 2.45195 13.6828 2.45105Z" fill="white"/>
<path d="M11.9654 39.2707C9.26763 39.2677 6.65381 38.3401 4.5664 36.6449C2.47901 34.9497 1.04631 32.5911 0.510868 29.9684C-0.024577 27.3457 0.370129 24.6201 1.62816 22.2529C2.8862 19.8857 4.93026 18.0225 7.4143 16.9787C9.7107 16.0156 12.2572 15.8053 14.6825 16.3786C17.1078 16.9519 19.285 18.2788 20.8967 20.1657C22.5084 22.0526 23.4702 24.4009 23.6419 26.868C23.8135 29.3352 23.1861 31.7923 21.851 33.8809L18.1445 30.2044C18.7358 28.7853 18.8121 27.2067 18.3604 25.738C17.9086 24.2693 16.9568 23.0018 15.6675 22.1519C14.3783 21.3019 12.8316 20.9224 11.2915 21.0779C9.75148 21.2335 8.31363 21.9146 7.22361 23.0049C6.1336 24.0952 5.45896 25.527 5.31498 27.0559C5.171 28.5847 5.56659 30.1157 6.4342 31.3874C7.30179 32.6591 8.58756 33.5925 10.0719 34.0284C11.5562 34.4642 13.1471 34.3753 14.5728 33.7769L18.273 37.4472C16.3916 38.6433 14.2034 39.278 11.9688 39.2758L11.9654 39.2707Z" fill="white"/>
<path d="M11.4729 30.1789L20.4421 39.0756C21.2126 39.8398 22.4619 39.8398 23.2325 39.0756C24.003 38.3112 24.003 37.0721 23.2325 36.3077L14.2633 27.4111C13.4927 26.6468 12.2434 26.6468 11.4729 27.4111C10.7024 28.1754 10.7024 29.4146 11.4729 30.1789Z" fill="white"/>
</g>
</g>
<defs>
<clipPath id="clip0_572_71401">
<rect width="53" height="40" fill="white" transform="translate(0.272461 0.652344)"/>
</clipPath>
</defs>
</svg>
