<svg width="200" height="50" viewBox="0 0 200 50" fill="none" xmlns="http://www.w3.org/2000/svg">
<mask id="mask0_3033_2590" style="mask-type:alpha" maskUnits="userSpaceOnUse" x="71" y="0" width="58" height="50">
<path d="M81.1103 6.63477H82.6962L83.2343 6.71973L83.5742 6.83301L84.1122 7.08789L84.5087 7.37109L84.7636 7.59765L85.0751 7.99413L85.33 8.44726L85.5566 8.95702L85.6982 9.55174L85.7265 9.80662V10.373L85.5849 11.3076L85.4999 11.7041L85.3583 12.0156L85.6415 11.7607L85.9531 11.5342L86.3779 11.166L86.7177 10.9394L87.1142 10.6845L87.7939 10.3447L88.2187 10.1748L88.8984 9.97655L89.4648 9.86326L89.9462 9.80662L90.6259 9.7783L91.3905 9.83494L92.1835 9.97655L92.8349 10.1748L93.4296 10.4297L93.8827 10.6562L94.3358 10.9111L94.8739 11.2793L95.2421 11.5625L95.5253 11.8174L95.8368 12.1289L96.0917 12.4404L96.3749 12.8086L96.6298 13.205L96.913 13.7148L97.2528 14.4228L97.4227 14.9326L97.536 15.4707L97.621 16.1503L97.6493 16.6601V17.1699L97.621 17.8212L97.5077 18.6142L97.3661 19.1523L97.1395 19.747L96.913 20.2001L96.6014 20.7665L96.1483 21.3613L95.8085 21.7577L95.412 22.1825L95.1005 22.4374L94.7323 22.7489L94.2509 23.0605L93.5995 23.4003L92.9481 23.6835L92.1835 23.9101L91.5038 24.0517L90.9657 24.1083H90.286L89.5214 24.0233L88.9267 23.8817L88.162 23.6835L87.9355 23.6269H87.7939L88.2753 24.08L88.7284 24.4482L89.0966 24.7597L89.8896 25.5526L90.2011 25.9491L90.4843 26.3173L90.7675 26.7421L91.1923 27.5634L91.4755 28.1581L91.7587 28.8944L91.9286 29.4608L92.1552 30.6219L92.2685 31.4432L92.3251 32.0946V32.661L92.2685 33.284L92.1552 33.992L91.9569 34.87L91.787 35.4081L91.3905 36.5125L91.0224 37.3055L90.8524 37.5887L90.7958 37.6737L90.6542 37.617L90.3427 37.3621L89.8612 36.909L89.1532 36.201L88.9267 36.0028L88.6718 35.7479L88.4452 35.5497L88.1054 35.2098L87.8788 35.0116L87.5673 34.7284L87.4257 34.5868L87.3124 34.3319L87.3407 34.077L87.4257 33.7372L87.5956 32.7176L87.6239 32.4061V31.8397L87.5673 31.33L87.3974 30.6219L87.1991 30.0555L86.8876 29.4042L86.4345 28.7245L86.123 28.3847L85.9247 28.1581L85.6415 27.9032L85.1884 27.5634L84.622 27.2235L84.1972 27.0253L83.5458 26.7704L82.8945 26.6005L82.413 26.5155L82.1015 26.4872H81.2802L80.5722 26.6005L79.9775 26.7704L79.5527 26.9403L79.0713 27.1952L78.7314 27.4218L78.25 27.7616L77.8535 28.1015L77.5986 28.328L77.3437 28.6395L77.0322 29.0643L76.749 29.5458L76.5508 29.9706L76.2676 30.8202L76.0976 31.5848L76.041 32.0663V32.4628L76.126 33.1141L76.2392 33.6805L76.4941 34.4452L76.8056 35.1532L77.0039 35.4647L77.372 35.9461L77.6836 36.286L77.9101 36.5125L78.3066 36.8241L78.8447 37.1922L79.5527 37.5604L80.2607 37.8153L80.7705 37.9569L81.3085 38.0418L81.6767 38.0702H82.0166L82.7812 37.9852L83.6308 37.787L84.0839 37.6454L84.4521 37.617L84.7636 37.8153L85.1601 38.2118L85.3867 38.41L85.8964 38.9198L86.123 39.118L86.4345 39.4295L86.6611 39.6278L87.1425 40.0242L87.5673 40.3924L87.8505 40.6473L87.7939 40.7606L87.5956 40.9871L87.1425 41.2703L86.6894 41.5252L86.2363 41.7518L85.5566 42.035L84.6786 42.3182L83.9423 42.4881L83.1494 42.6014L82.413 42.658H81.082L80.2041 42.5731L79.3545 42.4315L78.5615 42.2332L77.7685 41.95L76.9472 41.5535L76.3808 41.242L75.6728 40.7606L75.3613 40.534L74.9931 40.2225L74.7099 39.9676L74.4834 39.7694L74.1435 39.4012L73.8037 39.0047L73.5205 38.6366L73.2373 38.2401L72.8125 37.5887L72.5293 37.0789L72.1894 36.2577L71.8779 35.4647L71.6514 34.785L71.4531 33.992L71.3682 33.4256L71.3398 33.0292V31.868L71.3965 31.0751L71.5098 30.452L71.793 29.2909L71.9629 28.7811L72.3877 27.7616L72.7275 27.0536L73.0107 26.5722L73.4072 26.0058L73.6621 25.6659L73.8887 25.3827L74.2285 24.9862L74.4267 24.788L74.625 24.5614L74.9931 24.2216L75.3896 23.9101L75.956 23.5136L76.4092 23.2304L76.9472 22.9189L77.6836 22.5507L78.4199 22.2675L79.0429 22.0976L79.8925 21.9277L80.8271 21.8144L81.2802 21.7861H82.4414L83.291 21.871L83.829 21.956L84.622 22.1542L85.7831 22.579L86.1796 22.7489L85.9531 22.4657L85.6982 22.1542L85.415 21.8993L85.2167 21.6728L84.9335 21.3613L84.7353 21.1347L84.4804 20.7949L84.2255 20.3417L83.999 19.832L83.7158 19.039L83.5458 18.416L83.4326 17.7363L83.4042 17.4248V16.6035L83.4892 15.8955L83.6025 15.3574L83.829 14.6211L84.1406 13.8847L84.3671 13.4316L84.5087 13.1201L84.1972 13.3183L83.6591 13.6015L83.0644 13.8281L82.4697 13.9697L81.9599 14.0263L81.4218 13.998L80.9687 13.913L80.5439 13.7714L80.0908 13.5449L79.7793 13.3466L79.4111 13.0068L79.1845 12.7802L78.873 12.3838L78.5332 11.8174L78.3632 11.4209L78.25 11.0244L78.1933 10.7412L78.165 10.458V10.0049L78.25 9.41014L78.3349 9.04198L78.5332 8.56054L78.788 8.10741L79.0429 7.76757L79.2978 7.48437L79.4961 7.28613L79.8925 7.03125L80.4023 6.80469L80.9404 6.66309L81.1103 6.63477ZM81.705 8.13573L81.2802 8.2207L80.9404 8.3623L80.6289 8.56054L80.3173 8.87206L80.0908 9.24022L79.9492 9.52342L79.8359 10.0049L79.8076 10.4297L79.8642 10.8262L79.9775 11.1094L80.2041 11.4209L80.5439 11.7607L80.9121 12.0439L81.1953 12.1855L81.705 12.2988H82.2148L82.6396 12.1855L82.9794 12.0439L83.3759 11.7607L83.5458 11.6191L83.8007 11.251L83.9423 10.9394L84.0273 10.6562L84.0556 10.4297V9.94823L83.9706 9.55174L83.8574 9.26854L83.6308 8.9287L83.4326 8.70214L83.0927 8.44726L82.6396 8.2207L82.413 8.16405L82.1582 8.13573H81.705ZM90.1444 13.0351L89.6064 13.1201L89.2099 13.2334L88.7851 13.4033L88.4735 13.6015L88.1054 13.8847L87.5673 14.4228L87.1991 14.9043L86.9443 15.3574L86.7177 15.9521L86.6327 16.4335L86.6044 16.6884V17.3681L86.6894 17.9628L86.831 18.3876L87.0575 18.8408L87.3124 19.2372L87.6523 19.6337L87.8505 19.8603L88.247 20.1718L88.6152 20.3984L89.1532 20.6532L89.6347 20.7949L90.1444 20.8798L90.6825 20.9081L91.2206 20.8515L91.9286 20.6816L92.495 20.4267L92.8065 20.2284L93.1464 19.9736L93.4862 19.6337L93.7411 19.3222L94.0526 18.8408L94.2792 18.3593L94.4208 17.8212L94.4774 17.4531V16.6601L94.4208 16.1787L94.2792 15.6406L93.9677 14.9892L93.7128 14.6211L93.4013 14.2529L93.1747 14.0263L92.7782 13.7148L92.4101 13.4882L91.9286 13.2617L91.3905 13.1201L90.7108 13.0351H90.1444Z" fill="#0D6EB4"/>
<path d="M81.1084 6.63477H82.6943L83.2324 6.71973L83.5722 6.83301L84.1103 7.08789L84.5068 7.37109L84.7617 7.59765L85.0732 7.99413L85.3281 8.44726L85.5547 8.95702L85.6963 9.55174L85.7246 9.80662V10.373L85.583 11.3076L85.498 11.7041L85.3564 12.0156L85.6396 11.7607L85.9511 11.5342L86.3759 11.166L86.7158 10.9394L87.1123 10.6846L87.7919 10.3447L88.2168 10.1748L88.8964 9.97655L89.4628 9.86327L89.9443 9.80662L90.624 9.7783L91.3886 9.83495L92.1816 9.97655L92.8329 10.1748L93.4277 10.4297L93.8808 10.6562L94.3339 10.9111L94.872 11.2793L95.2402 11.5625L95.5234 11.8174L95.8349 12.1289L96.0898 12.4404L96.373 12.8086L96.6278 13.205L96.911 13.7148L97.2509 14.4228L97.4208 14.9326L97.5341 15.4707L97.619 16.1503L97.6474 16.6601V17.1699L97.619 17.8212L97.5058 18.6142L97.3642 19.1523L97.1376 19.747L96.911 20.2001L96.5995 20.7665L96.1464 21.3613L95.8066 21.7577L95.4101 22.1825L95.0986 22.4374L94.7304 22.7489L94.2489 23.0605L93.5976 23.4003L92.9462 23.6835L92.1816 23.9101L91.5019 24.0517L90.9638 24.1083H90.2841L89.5195 24.0234L88.9248 23.8818L88.1601 23.6835L88.2168 23.5702L88.1035 23.5136L87.8203 23.3153L87.3671 23.0888L86.9423 22.8339L86.4892 22.5507L86.1777 22.3808L85.8095 22.1825L85.6963 22.1542L85.4131 21.8993L85.2148 21.6728L84.9316 21.3613L84.7334 21.1347L84.4785 20.7949L84.2236 20.3417L83.997 19.832L83.7138 19.039L83.5439 18.416L83.4306 17.7363L83.4023 17.4248V16.6035L83.4873 15.8955L83.6006 15.3574L83.8271 14.6211L84.1386 13.8847L84.3652 13.4316L84.5068 13.1201L84.1953 13.3183L83.6572 13.6015L83.0625 13.8281L82.4678 13.9697L81.958 14.0263L81.4199 13.998L80.9668 13.9131L80.542 13.7714L80.0889 13.5449L79.7773 13.3466L79.4092 13.0068L79.1826 12.7802L78.8711 12.3838L78.5312 11.8174L78.3613 11.4209L78.248 11.0244L78.1914 10.7412L78.1631 10.458V10.0049L78.248 9.41014L78.333 9.04198L78.5312 8.56054L78.7861 8.10741L79.041 7.76757L79.2959 7.48437L79.4941 7.28613L79.8906 7.03125L80.4004 6.80469L80.9385 6.66309L81.1084 6.63477ZM81.7031 8.13573L81.2783 8.2207L80.9385 8.3623L80.6269 8.56054L80.3154 8.87206L80.0889 9.24022L79.9473 9.52342L79.834 10.0049L79.8057 10.4297L79.8623 10.8262L79.9756 11.1094L80.2021 11.4209L80.542 11.7607L80.9101 12.0439L81.1933 12.1855L81.7031 12.2988H82.2129L82.6377 12.1855L82.9775 12.0439L83.374 11.7607L83.5439 11.6191L83.7988 11.251L83.9404 10.9394L84.0254 10.6562L84.0537 10.4297V9.94823L83.9687 9.55174L83.8554 9.26854L83.6289 8.9287L83.4306 8.70214L83.0908 8.44726L82.6377 8.2207L82.4111 8.16405L82.1562 8.13573H81.7031ZM90.1425 13.0351L89.6044 13.1201L89.208 13.2334L88.7832 13.4033L88.4716 13.6015L88.1035 13.8847L87.5654 14.4228L87.1972 14.9043L86.9423 15.3574L86.7158 15.9521L86.6308 16.4335L86.6025 16.6884V17.3681L86.6875 17.9628L86.8291 18.3876L87.0556 18.8408L87.3105 19.2372L87.6503 19.6337L87.8486 19.8603L88.2451 20.1718L88.6132 20.3984L89.1513 20.6533L89.6328 20.7949L90.1425 20.8798L90.6806 20.9081L91.2187 20.8515L91.9267 20.6816L92.4931 20.4267L92.8046 20.2284L93.1445 19.9736L93.4843 19.6337L93.7392 19.3222L94.0507 18.8408L94.2773 18.3593L94.4189 17.8212L94.4755 17.4531V16.6601L94.4189 16.1787L94.2773 15.6406L93.9657 14.9892L93.7109 14.6211L93.3993 14.2529L93.1728 14.0263L92.7763 13.7148L92.4081 13.4882L91.9267 13.2617L91.3886 13.1201L90.7089 13.0351H90.1425Z" fill="#5DBCE7"/>
<path d="M81.7637 21.8145H82.8115L83.7178 21.9277L84.624 22.1543L85.7851 22.5791L86.1816 22.749L85.9551 22.4658L85.7568 22.2109V22.1543L85.8984 22.2109L86.1816 22.3525L86.4931 22.5225L86.9463 22.8057L87.4277 23.0889L87.9658 23.3721L88.2207 23.5703L88.249 23.6553H88.0508L87.7959 23.6269L88.2773 24.0801L88.7304 24.4482L89.0986 24.7597L89.8916 25.5527L90.2031 25.9492L90.4863 26.3174L90.7695 26.7422L91.1943 27.5634L91.4775 28.1582L91.7607 28.8945L91.9306 29.4609L92.1572 30.622L92.2705 31.4433L92.3271 32.0947V32.6611L92.2705 33.2841L92.1572 33.9921L91.9589 34.87L91.789 35.4081L91.3925 36.5126L91.0244 37.3056L90.8544 37.5888L90.7978 37.6737L90.6562 37.6171L90.3447 37.3622L89.8632 36.9091L89.1552 36.2011L88.9287 36.0028L88.6738 35.748L88.4472 35.5497L88.1074 35.2099L87.8808 35.0116L87.5693 34.7284L87.4277 34.5868L87.3144 34.332L87.3427 34.0771L87.4277 33.7372L87.5976 32.7177L87.6259 32.4062V31.8398L87.5693 31.33L87.3994 30.622L87.2011 30.0556L86.8896 29.4043L86.4365 28.7246L86.125 28.3847L85.9267 28.1582L85.6435 27.9033L85.1904 27.5634L84.624 27.2236L84.1992 27.0254L83.5478 26.7705L82.8965 26.6006L82.415 26.5156L81.9902 26.459L81.792 26.4023V25.666L81.8486 24.6748L81.792 22.8057V22.1826L81.7354 21.8428L81.7637 21.8145Z" fill="#0D6EB4"/>
<path d="M108.41 26.459L110.335 26.5723L110.364 26.6006L110.335 27.4785L110.307 31.8398V37.5888L110.137 37.6738L109.542 37.7304L108.806 37.7021L108.211 37.5888L107.985 37.4472L107.787 37.2206L107.56 36.8525L107.192 36.2578L106.795 35.6064L106.569 35.2666L106.172 34.6435L105.889 34.2187L105.464 33.539L105.068 32.916L103.652 30.792L103.397 30.5088L103.17 30.2822L103.114 30.2539L103.142 30.6504L103.17 33.1425L103.199 37.6454L103.057 37.7021H101.556L101.33 37.6738L101.301 37.6171V29.1494L101.273 26.5156L101.358 26.4873L101.584 26.5156H102.944L103.142 26.6006L103.397 26.9404L103.793 27.5918L104.133 28.1299L104.416 28.5547L104.841 29.2344L105.634 30.5371L106.427 31.7832L106.71 32.2363L107.05 32.7744L107.277 33.1709L107.673 33.8505L107.957 34.3603L108.296 34.8418L108.325 34.8701L108.353 34.5302V28.6963L108.381 26.4873L108.41 26.459Z" fill="white"/>
<path d="M82.9194 31.6431L83.3159 31.6714L83.6274 31.7847L84.0522 32.0395L84.4487 32.3511L84.7319 32.5776L85.0151 32.8325L85.2417 33.0308L85.5249 33.2856L85.7514 33.4839L85.978 33.7104L86.1762 33.937L86.4311 34.1636L87.479 35.2114L87.7905 35.4663L88.1587 35.8061L88.6118 36.2309L88.895 36.4858L89.2348 36.7973L89.5463 37.0522L89.9712 37.4204L90.4243 37.7885L90.9057 38.27L91.1889 38.4965L91.5854 38.8364L91.8969 39.1196L92.1235 39.3178L92.5483 39.7426L92.8315 40.1108L93.0297 40.5356L93.0581 40.6489V41.2153L92.9165 41.6401L92.6616 42.0082L92.4633 42.2065L92.0952 42.4614L91.6987 42.603L91.4155 42.6596H90.8491L90.5092 42.5463L90.0561 42.2631L89.688 41.9516L89.2915 41.6118L88.8383 41.187L88.3852 40.7338L88.1587 40.5356L87.8188 40.2241L87.2524 39.6577L87.0259 39.4594L86.686 39.1479L86.2329 38.7231L85.9214 38.4399L85.6098 38.185L85.2134 37.8452L84.9302 37.6186L84.562 37.3071L84.2788 37.0522L83.9956 36.769L83.7974 36.5425L83.5991 36.3442L83.2876 36.0893L82.9477 35.7778L82.7212 35.5796L82.353 35.2397L82.0698 34.9848L81.8716 34.7583L81.645 34.5317L81.4468 34.2485L81.2485 33.7671V33.314L81.3335 32.9458L81.6167 32.4077L81.8716 32.1245L82.0698 31.9546L82.5229 31.728L82.9194 31.6431Z" fill="#0C93D3"/>
<path d="M114.416 28.8647H115.605L116.171 28.9497L116.653 29.0913L117.106 29.3462L117.417 29.6011L117.701 29.8843L117.956 30.2241L118.154 30.5356L118.465 31.1304L118.692 31.7534L118.833 32.4048L118.862 32.603L118.918 33.5659L118.862 33.6225L118.749 33.6509L116.511 33.6792H113.339L112.716 33.6509L112.83 34.5854L112.943 35.0102L113.198 35.4067L113.566 35.8315L113.849 36.1147L114.246 36.3413L114.699 36.4545H115.463L115.916 36.3129L116.398 36.0581L116.738 35.7465L116.936 35.4917L117.191 35.0952L117.332 34.9536L117.644 34.8686H118.579L118.692 34.9536V35.2368L118.55 35.6899L118.324 36.143L118.04 36.5112L117.786 36.7944L117.531 37.0493L117.163 37.3325L116.879 37.5024L116.568 37.644L115.973 37.7856L115.548 37.8422H114.416L113.736 37.7573L113.254 37.6157L112.83 37.3891L112.405 37.021L112.207 36.8227L111.895 36.3979L111.668 36.0014L111.499 35.6616L111.3 35.0669L111.187 34.5005L111.102 33.8491V32.8296L111.244 31.98L111.47 31.272L111.725 30.7339L111.952 30.394L112.263 29.9976L112.49 29.771L112.886 29.4595L113.198 29.2612L113.736 29.0063L114.189 28.8931L114.416 28.8647ZM114.84 30.1392L114.416 30.2241L114.076 30.3657L113.764 30.5923L113.538 30.7905L113.283 31.102L113.113 31.3286L112.943 31.6684L112.83 31.9516L112.801 32.3481L112.915 32.3764H116.908L117.163 32.3198L117.219 32.2915L117.163 31.98L116.964 31.4419L116.738 31.0171L116.483 30.7056L116.171 30.4507L115.718 30.2241L115.237 30.1392H114.84Z" fill="white"/>
<path d="M81.1084 6.63477H82.6943L83.2324 6.71973L83.5722 6.83301L84.1103 7.08789L84.5068 7.37109L84.7617 7.59765L85.0732 7.99413L85.3281 8.44726L85.5547 8.95702L85.6963 9.55174L85.7246 9.80662V10.373L85.583 11.3076L85.498 11.7041L85.3564 11.9873V12.1006H85.2998L85.2431 12.2138L84.875 12.6953L84.5918 13.0351L84.5351 13.1201L84.4218 13.1767L83.9687 13.4316L83.5156 13.6582L82.9775 13.8564L82.2978 13.998L81.7597 14.0263L81.2217 13.9697L80.6836 13.8281L80.1738 13.6015L79.8623 13.4033L79.5508 13.1484L79.1826 12.7802L78.8711 12.3838L78.5312 11.8174L78.3613 11.4209L78.248 11.0244L78.1914 10.7412L78.1631 10.458V10.0049L78.248 9.41014L78.333 9.04198L78.5312 8.56054L78.7861 8.10741L79.041 7.76757L79.2959 7.48437L79.4941 7.28613L79.8906 7.03125L80.4004 6.80469L80.9385 6.66309L81.1084 6.63477ZM81.7031 8.13573L81.2783 8.2207L80.9385 8.3623L80.6269 8.56054L80.3154 8.87206L80.0889 9.24022L79.9473 9.52342L79.834 10.0049L79.8057 10.4297L79.8623 10.8262L79.9756 11.1094L80.2021 11.4209L80.542 11.7607L80.9101 12.0439L81.1933 12.1855L81.7031 12.2988H82.2129L82.6377 12.1855L82.9775 12.0439L83.374 11.7607L83.5439 11.6191L83.7988 11.251L83.9404 10.9394L84.0254 10.6562L84.0537 10.4297V9.94823L83.9687 9.55174L83.8554 9.26854L83.6289 8.9287L83.4306 8.70214L83.0908 8.44726L82.6377 8.2207L82.4111 8.16405L82.1562 8.13573H81.7031Z" fill="#83CBEE"/>
<path d="M120.36 26.9985L122.144 27.0552L122.342 27.1118L122.371 28.8677L123.249 28.8393H123.673L123.73 28.896V30.2554L123.645 30.3403L123.532 30.3686L123.164 30.397H122.342V32.1245L122.371 34.56L122.399 35.8627L122.427 36.0893L122.654 36.1459L123.503 36.2592L123.702 36.3159L123.73 36.3725V37.5903L123.645 37.7885L123.475 37.8735L123.22 37.9301L122.512 37.9018L122.002 37.8452L121.493 37.7319L121.04 37.5053L120.813 37.3071L120.671 37.1372L120.53 36.7407L120.445 36.3725L120.388 35.6928L120.36 34.645L120.332 30.4536L120.247 30.4253L118.831 30.3403L118.774 30.2837L118.717 29.1509V28.9243H120.332V27.0269L120.36 26.9985Z" fill="white"/>
<path d="M81.7637 21.8145H82.8115L83.7178 21.9277L84.624 22.1543L85.4736 22.4658V22.5225L85.5869 22.5791L85.8135 22.749L86.2383 23.0605L86.6064 23.2871L86.8613 23.4287L87.0595 23.5986L87.0879 23.6836V23.9668L86.9746 24.1084L86.748 24.2783L86.5498 24.3633L86.2666 24.5898L85.8984 24.9014L85.8135 24.9863L85.5869 25.1846L85.3887 25.4111H85.332L85.2754 25.5244L85.0771 25.7226L84.9355 25.9775L84.709 26.289L84.5957 26.4873L84.5674 26.6006L84.4824 26.7138L84.4258 26.8554V26.9404L84.3408 27.0537L84.1992 27.0254L83.5478 26.7705L82.8965 26.6006L82.415 26.5156L81.9902 26.459L81.792 26.4023V25.666L81.8486 24.6748L81.792 22.8057V22.1826L81.7354 21.8428L81.7637 21.8145Z" fill="#0C4473"/>
<path d="M117.361 20.7085H118.324L118.409 20.7651L118.466 21.6431L118.522 22.4643V23.0874L118.494 23.144L118.437 24.1352H117.418L116.54 24.0503L116.342 23.9653V23.2573L116.313 23.1157L116.087 23.0591L116.002 23.229L115.974 23.5688L115.889 23.6538L115.577 23.7104L115.124 23.7388H114.671L113.255 23.6821L112.604 23.5972L112.434 23.4839L112.462 23.2573L112.49 23.2007L112.887 23.229L113.51 23.2856H113.793L113.595 23.0874L113.396 22.8325L113.113 22.5493L112.972 22.436L112.887 22.2944V21.6997L112.915 21.105L112.943 21.02L113.255 20.9634L113.736 20.9351H114.388L114.841 20.9634L115.039 21.0483V22.0679L114.926 22.436L114.728 22.7759L114.501 23.0591L114.359 23.2856L114.331 23.3706L115.067 23.3989H115.605L115.775 23.3706L115.86 23.0591L115.974 22.4927L116.059 21.4448L116.087 20.8501L116.115 20.7935L117.361 20.7085ZM116.54 20.9917L116.455 21.0767L116.398 21.2466L116.342 21.8979L116.313 22.7192L116.398 22.8608L116.512 23.0024L116.653 23.3989L116.738 23.4556L116.767 23.1157V22.8325L116.682 22.6343V21.9546L116.738 21.3599L116.823 21.0767L116.738 20.9917H116.54ZM117.56 20.9917L117.248 21.0767L117.163 21.1333L117.106 21.3599L117.05 21.9546L117.021 22.1811L117.39 22.2378V22.1811L117.503 22.1245V21.4731L117.588 21.2466L117.645 21.1899L117.786 21.2183L117.814 21.3882L117.843 22.0679L118.098 22.1528L118.069 22.2661L117.588 22.4643L117.56 22.521L117.645 22.8042L117.786 22.9458L117.871 23.0874L117.786 23.3706L117.645 23.5972L117.56 23.6255L117.503 22.8891L117.39 22.3227L117.191 22.2661L116.937 22.3227L116.908 22.3794V22.6343L116.965 22.7759V23.5405L117.22 23.7104L117.729 23.8237L118.126 23.852L118.239 23.7954L118.268 23.6538V23.144L118.239 22.2095L118.211 21.7847L118.239 21.3882V21.0767L118.069 21.02L117.814 20.9917H117.56ZM113.765 21.2466L113.595 21.3315L113.51 21.4448L113.453 21.7563V22.1245L113.538 22.3511L113.736 22.5493L113.935 22.5776L114.161 22.4643L114.274 22.3227L114.303 22.2378V21.5581L114.218 21.4165L114.048 21.2749L113.991 21.2466H113.765Z" fill="white"/>
<path d="M94.6475 31.1035H99.0088L99.0371 31.1318L99.0654 33.0576L98.9521 33.1142H95.4687L94.6475 33.0859L94.5908 33.0576L94.5625 32.9726V32.4062L94.5908 31.3301L94.6475 31.1035Z" fill="white"/>
<path d="M105.07 20.7949L105.495 20.8232L105.58 20.8799L107.279 20.8232H107.619L107.704 20.9082L107.675 21.1914L107.647 21.6445L107.59 23.4853L108.185 23.4004L108.412 23.3437L108.582 23.4287L108.61 23.4004L108.638 23.2021V22.2959L108.695 22.041V21.0498L108.553 21.0781L108.44 21.4463L108.383 22.0693L108.043 22.1543L107.93 22.126V22.0693H107.874L107.902 21.956L108.128 21.7012L108.185 21.3613L108.355 21.1064L108.497 20.9932L108.723 20.8799L109.403 20.9082L109.913 20.9365L110.252 20.9082H110.621L110.649 20.9648L110.677 21.4746L110.734 21.4463L110.819 21.7295L110.904 22.0976L110.932 23.0889V23.7969L110.394 23.7685L109.743 23.7119L109.573 23.6553L109.516 23.5986L109.544 23.2871L109.658 22.5791L109.629 22.3525L109.516 22.2393L109.346 22.2676L109.176 22.3809L109.148 22.5225V23.5986L108.695 23.6553L108.638 23.5986L108.61 23.6553L107.845 23.7685L107.534 23.7969L107.392 23.9668L107.279 24.0234H107.109L107.024 23.9385L106.939 23.7119V23.0889L106.967 22.7207V22.0127L106.939 21.6445L106.882 21.4746L106.769 21.4463H106.259L106.033 21.5596L105.948 21.7012L105.863 22.7207L105.806 23.0039V23.1172L105.919 23.0322L106.061 23.0605L106.146 23.1455L106.089 23.2871L105.919 23.4004L105.721 23.4287L105.466 23.2871L105.325 23.1455L105.24 22.9189V22.4092L105.325 21.9844V21.248L105.268 20.9932L105.211 20.8799L105.07 20.8232V20.7949ZM109.573 21.0498L109.233 21.0781L109.176 21.1348L109.12 22.041L109.148 22.2959L109.29 22.2393L109.488 22.0976L109.573 21.8428L109.629 21.4746L109.658 21.0498H109.573ZM109.969 21.0781L109.941 21.248L109.913 22.1826V22.5791L109.856 22.9473V23.2305L109.998 23.3154L110.224 23.2871L110.366 23.1455L110.394 23.0889V21.7861L110.366 21.248L110.337 21.0781H109.969Z" fill="white"/>
<path d="M85.4736 22.4941L85.6435 22.5225L86.1533 22.749L86.1816 22.834L86.2949 22.8623L86.3799 23.0039L86.8896 23.2871L87.1162 23.457L87.3994 23.6269L87.9941 24.0234L88.3056 24.1934L88.5039 24.4482V24.5049L88.5888 24.5332V24.5898H88.6738L88.7021 24.7314H88.7588L88.872 24.958L88.7304 25.2412L88.5322 25.2695L88.3623 25.3545L88.1074 25.3828L87.8808 25.5527L87.7676 25.666H87.6826L87.626 25.7793L87.5127 25.8359L87.4277 25.8642L87.2861 26.0342L87.1728 26.1191L87.0596 26.1474L86.8896 26.289L86.7764 26.459H86.7197L86.6914 26.6289L86.6064 26.7422H86.5498L86.4932 26.9404L86.3516 27.167L86.2383 27.2802L86.1816 27.4219L86.2383 27.4785L86.04 27.7051L86.0967 27.7334L85.9551 27.9033V27.9599L85.8418 28.0166L85.7002 27.9599L85.2754 27.6201L84.6807 27.2519L84.3408 27.082L84.3975 26.9404L84.4258 26.7988L84.5674 26.5156L84.6523 26.3174L84.8506 26.0625L84.9639 25.8926L85.0771 25.6943L85.3037 25.4678L85.5019 25.2412L85.7568 24.9863L85.8701 24.958L85.9267 24.8447L86.3232 24.5049L86.5498 24.335L86.833 24.1934L87.0312 24.0234L87.0596 23.9668V23.6836L86.9746 23.542L86.6914 23.3437L86.3799 23.1738L86.04 22.9473L85.7568 22.7207L85.4736 22.5225V22.4941Z" fill="#125F9B"/>
<path d="M113.736 20.9351H114.388L114.841 20.9634L115.039 21.0483V22.0679L114.926 22.436L114.728 22.7759L114.501 23.0591L114.359 23.2856L114.331 23.3706L115.067 23.3989L115.436 23.4556L115.464 23.5122L115.747 23.5405L115.832 23.4839H115.917L115.945 23.4272V23.6255L115.775 23.6821L115.124 23.7388H114.671L113.255 23.6821L112.604 23.5972L112.434 23.4839L112.462 23.2573L112.49 23.2007L112.887 23.229L113.51 23.2856H113.793L113.595 23.0874L113.396 22.8325L113.113 22.5493L112.972 22.436L112.887 22.2944V21.6997L112.915 21.105L112.943 21.02L113.255 20.9634L113.736 20.9351ZM113.765 21.2466L113.595 21.3315L113.51 21.4448L113.453 21.7563V22.1245L113.538 22.3511L113.736 22.5493L113.935 22.5776L114.161 22.4643L114.274 22.3227L114.303 22.2378V21.5581L114.218 21.4165L114.048 21.2749L113.991 21.2466H113.765Z" fill="white"/>
<path d="M103.566 20.8218H103.792L103.962 20.9067L104.076 20.8784L104.302 20.8501L104.246 20.9067L103.934 20.9634L103.962 22.0395L103.906 22.7759L103.849 23.144L103.821 23.5122L103.934 23.5405H104.217L104.302 23.4556L104.359 23.1724V22.5493L104.246 21.9546V21.6714L104.331 21.5298L104.472 21.5015L104.642 21.6997L104.699 21.8696V22.7192L104.585 23.229L104.387 23.7104L104.246 23.852L104.047 23.937H103.849L103.509 23.8237L103.368 23.7104L103.339 23.6255L103.368 23.2007L103.481 22.436L103.509 22.0679V21.5864L103.396 21.2749L103.226 21.1899L103.084 21.1616L102.971 21.0767L102.745 21.3882L102.631 21.5581L102.546 21.8413L102.518 22.436L102.603 22.7759L102.518 22.9175L102.32 22.9741L101.838 23.0591L101.697 23.2007L101.555 23.314L101.442 23.3423L101.385 23.2856V23.0024L101.442 22.8042L101.81 22.5776L101.867 22.521L101.923 22.2378L101.952 21.6431L101.867 21.4731L101.555 21.2466L101.414 21.02V20.9067L101.98 20.9351L102.32 20.9634L102.461 20.9351H103L103.141 20.8784L103.566 20.8218Z" fill="white"/>
<path d="M105.07 20.7949L105.495 20.8232L105.58 20.8799L107.279 20.8232H107.619L107.704 20.9082L107.675 21.1914L107.647 21.6445L107.59 23.2588H107.562L107.534 23.0039L107.449 23.3437V23.5137L107.392 23.6553L107.335 23.6836H107.166L107.137 23.5703L106.996 23.542L106.967 23.7119H106.939V23.0889L106.967 22.7207V22.0127L106.939 21.6445L106.882 21.4746L106.769 21.4463H106.259L106.033 21.5596L105.948 21.7012L105.863 22.7207L105.806 23.0039V23.1172L105.919 23.0322L106.061 23.0605L106.146 23.1455L106.089 23.2871L105.919 23.4004L105.721 23.4287L105.466 23.2871L105.325 23.1455L105.24 22.9189V22.4092L105.325 21.9844V21.248L105.268 20.9932L105.211 20.8799L105.07 20.8232V20.7949Z" fill="white"/>
<path d="M81.2817 21.7881H82.4429V21.8164L81.7632 21.8447L81.8198 22.2412V22.9209L81.8765 24.6767L81.8198 25.6963V26.4043L81.9897 26.4326V26.4609H81.0835L81.0552 26.3193L81.0835 26.2343L81.1118 25.583L81.1685 24.9599V24.4502L81.1968 23.5723L81.1685 23.4873V22.1846L81.0552 21.873L81.2817 21.7881Z" fill="#125F9B"/>
<path d="M123.255 20.7681H123.482L123.567 20.7964L123.595 20.853V22.4673L123.567 22.5522L123.085 22.4956L122.661 22.4673L122.604 22.4106L122.576 22.2407L122.547 21.0513H122.377L122.349 21.0796L122.321 21.2778V21.7593L122.349 22.1558V22.4673L122.066 22.4956L122.009 22.439L121.981 21.6743L121.868 21.561L121.584 21.4194L121.301 21.1929L121.273 21.0513L121.16 21.0796L121.075 20.9946L121.018 20.8813V20.7964L121.245 20.8247L121.301 20.853H121.896L122.831 20.8247L122.887 20.7964L123.255 20.7681ZM122.802 20.9097L122.746 20.938V21.1362L122.831 21.2495L122.859 21.3628L122.887 22.2124L122.916 22.269H122.972L123 22.3823L123.114 22.354L123.17 22.1558V21.1929L123.085 21.0229L122.916 20.9097H122.802Z" fill="white"/>
<path d="M104.365 21.5015L104.506 21.5298L104.648 21.6997L104.705 21.8696V22.7192L104.591 23.229L104.393 23.7104L104.251 23.852L104.053 23.937H103.855L103.515 23.8237L103.374 23.7104L103.345 23.6255L103.374 23.2007L103.487 22.436L103.543 21.6431L103.657 21.6997V21.6431L103.77 21.5864L103.912 21.7847L103.968 21.728V22.0395L103.912 22.7759L103.855 23.144L103.827 23.5122L103.94 23.5405H104.223L104.308 23.4556L104.365 23.1724V22.5493L104.251 21.9546V21.6714L104.336 21.5298L104.365 21.5015Z" fill="white"/>
<path d="M123.252 22.8872H123.479L123.45 23.9634V24.2749L123.422 24.3599L123.309 24.3315L123.28 24.3032L123.252 24.105L122.997 23.9917L122.544 23.8784L121.609 23.7651L121.298 23.6802L121.213 23.5669L121.156 23.2554V23.0854L121.383 23.1138L121.864 23.1704L122.204 23.1987L122.289 23.227V23.2837L122.346 23.2554H122.544L122.686 23.3403L122.799 23.4536L122.771 23.1987L122.827 23.1138H123.025L123.139 23.2554L123.224 23.7935H123.337L123.365 23.7368V23.2554L123.337 23.0288L123.252 22.9438V22.8872Z" fill="white"/>
<path d="M116.201 20.8813H116.258L116.286 20.9946L116.201 21.8726V22.6655L116.286 22.7788L116.343 22.7222L116.428 22.8638L116.541 23.0054L116.683 23.4018L116.711 23.4302L116.739 23.1186V22.8354L116.654 22.6372V22.5806H116.711V22.439L116.739 22.4956L116.881 22.3823H116.909L116.966 22.7222L116.994 22.7788V23.5434L117.221 23.685L117.73 23.7983L118.212 23.8266L118.184 23.8833L117.957 23.9116L117.929 23.9399L117.532 23.9682H117.164L116.739 23.9399L116.484 23.8266L116.399 23.685L116.343 23.2602L116.314 23.1186L116.088 23.062L116.003 23.2319L115.975 23.5718L115.918 23.4868L115.748 23.5718L115.465 23.5434L115.38 23.4868L115.153 23.4585V23.4302L115.606 23.4018L115.776 23.3735L115.861 23.062L115.975 22.4956L116.06 21.4478L116.116 21.3345L116.145 21.1079H116.201V20.8813Z" fill="white"/>
<path d="M112.49 23.2007L112.887 23.229L113.51 23.2856H113.935L113.991 23.314H114.246L114.331 23.2856V23.3706L115.067 23.3989L115.436 23.4556L115.464 23.5122L115.747 23.5405L115.832 23.4839H115.917L115.945 23.4272V23.6255L115.775 23.6821L115.124 23.7388H114.671L113.255 23.6821L112.604 23.5972L112.434 23.4839L112.462 23.2573L112.49 23.2007Z" fill="white"/>
<path d="M108.668 22.208H108.725V22.6611L108.753 22.7178L108.867 22.6895L108.98 22.4062L109.15 22.3496V23.5957L108.697 23.6523L108.64 23.5957L108.612 23.6523L107.847 23.7656L107.536 23.7939L107.394 23.9639L107.281 24.0205H107.111L107.026 23.9355L106.969 23.7939V23.3691H106.998V23.5391L107.139 23.5674L107.167 23.6807L107.366 23.624L107.422 23.5107V23.3125L107.536 22.8311H107.564L107.592 23.4824L108.187 23.3975L108.414 23.3408L108.583 23.4258L108.612 23.3975L108.64 23.1992V22.293L108.668 22.208Z" fill="white"/>
<path d="M108.839 21.2749L108.98 21.3315L109.065 21.5298L109.122 21.728H109.15V22.2944L109.462 22.0962L109.547 21.8413L109.575 21.6997L109.632 21.728L109.858 21.6997L109.887 21.6431L109.915 21.3599H109.943V22.5776L109.887 22.9458V23.229L109.915 23.2856L109.773 23.229L109.575 23.2007L109.604 22.9175L109.66 22.4644L109.575 22.2661L109.405 22.2378L109.15 22.3794L108.98 22.4077L108.896 22.7192L108.811 22.7476L108.697 22.7192V22.0395L108.726 21.3882H108.782L108.839 21.2749Z" fill="white"/>
<path d="M114.245 21.0747H114.754V21.1597H114.811L114.868 21.2729L114.896 21.7261L114.868 22.2358L114.783 22.3774V22.4341H114.726V22.519H114.669V22.604H114.613L114.584 22.689H114.528L114.5 22.7739H114.443L114.415 22.8306L114.273 22.8872H114.103V22.8306H114.046L114.075 22.689L114.16 22.4907L114.103 22.4624L114.245 22.3208L114.33 22.0093L114.386 21.5845L114.301 21.3579L114.188 21.2163L114.245 21.0747Z" fill="white"/>
<path d="M117.646 21.1616L117.788 21.1899L117.845 21.3882V22.0679L118.071 22.0962L118.128 22.1528L118.1 22.2661L117.731 22.436L117.59 22.4927L117.675 22.8042L117.816 22.9458L117.901 23.0874L117.816 23.3706L117.646 23.6255H117.562L117.533 23.5688L117.477 22.8892L117.363 22.3227L117.193 22.2944L116.938 22.3227L116.854 22.2661L116.882 22.1528L116.967 22.1245L117.023 21.9829L117.052 22.0962L117.023 22.1811H117.25L117.392 22.2378V22.1811L117.477 22.1245V21.4731L117.562 21.2466L117.646 21.1616Z" fill="white"/>
<path d="M110.847 22.0942H110.903L110.932 23.0854V23.7934L110.394 23.7651L109.742 23.7085L109.572 23.6518L109.516 23.5952L109.544 23.2837L109.601 23.1138L109.629 23.1987H109.799L109.855 23.2554L110.139 23.2837L110.309 23.1987L110.394 23.0288L110.563 23.1704L110.648 23.1987L110.733 22.9438L110.818 22.4907L110.847 22.0942Z" fill="white"/>
<path d="M123.251 20.7681H123.478L123.563 20.7964L123.591 20.853V22.4673L123.563 22.5522L123.082 22.4956L123.11 22.269L123.138 22.1558V21.1929L123.053 21.0229L122.855 20.8813L122.883 20.7964L123.251 20.7681Z" fill="white"/>
<path d="M85.7534 22.1543L85.895 22.2109L86.1782 22.3525L86.4897 22.5225L86.9429 22.8057L87.4243 23.0889L87.9624 23.3721L88.2173 23.5703L88.2456 23.6553H88.0474L87.7925 23.6269L87.9341 23.7969L87.7075 23.6836L87.6225 23.5986L87.2261 23.3721L87.0561 23.2305L86.8013 23.0889L86.4614 22.8906L86.3481 22.9189L86.1782 22.834L86.1499 22.7207L85.8667 22.3525L85.7534 22.2109V22.1543Z" fill="#0E93D3"/>
<path d="M110.622 20.9951H110.65L110.678 21.4766L110.735 21.4482L110.82 21.7314L110.876 21.958L110.848 22.4961L110.707 23.1758L110.622 23.2324L110.452 23.1191L110.395 23.0342V21.958H110.452L110.508 21.7881L110.565 21.7031L110.593 21.5615L110.622 20.9951Z" fill="white"/>
<path d="M116.201 20.8813H116.258L116.286 20.9946L116.201 21.8726V22.6655L116.286 22.7788L116.343 22.7222L116.428 22.8638L116.541 23.0054L116.569 23.2319L116.456 23.2886L116.343 23.2602L116.314 23.1186L116.088 23.062L116.003 23.2319L115.975 23.5718L115.918 23.4868L115.748 23.5718L115.465 23.5434L115.38 23.4868L115.153 23.4585V23.4302L115.606 23.4018L115.776 23.3735L115.861 23.062L115.975 22.4956L116.06 21.4478L116.116 21.3345L116.145 21.1079H116.201V20.8813Z" fill="white"/>
<path d="M108.664 22.208H108.721V22.6611L108.749 22.7178L108.862 22.6895L108.976 22.4062L109.146 22.3496V23.5957L108.692 23.6523L108.636 23.4824V22.293L108.664 22.208Z" fill="white"/>
<path d="M108.839 21.2749L108.98 21.3315L109.065 21.5298L109.122 21.728H109.15V22.2944L109.235 22.2661L109.179 22.3794L108.98 22.4077L108.896 22.7192L108.811 22.7476L108.697 22.7192V22.0395L108.726 21.3882H108.782L108.839 21.2749Z" fill="white"/>
<path d="M121.182 21.1348L121.324 21.248L121.409 21.5029L121.465 21.8711L121.579 21.8994L121.72 22.041L121.692 22.2393L121.579 22.3525L121.437 22.4092H121.097V21.5596H121.125V22.1543H121.182L121.154 21.1631L121.182 21.1348Z" fill="white"/>
<path d="M103.735 21.5879L103.876 21.7296L103.905 21.7862L103.961 21.7296V22.0413L103.933 22.438L103.876 22.4663L103.848 22.6363H103.791L103.763 22.7213L103.593 22.778H103.48L103.451 22.693L103.536 21.6446L103.65 21.7012V21.6446L103.735 21.5879Z" fill="white"/>
<path d="M104.364 21.5015L104.506 21.5298L104.647 21.6997L104.676 21.7847L104.647 22.2095L104.562 22.3227L104.534 22.5776L104.506 22.6909H104.449L104.421 22.7759L104.251 21.9546V21.6714L104.336 21.5298L104.364 21.5015Z" fill="white"/>
<path d="M106.488 21.8145H106.544L106.573 21.9561L106.601 22.6357L106.686 22.8906L106.346 23.1172H106.29L106.318 22.749V22.126L106.403 21.9277L106.488 21.8145Z" fill="white"/>
<path d="M107.536 22.834H107.564L107.593 23.514V23.6841L107.649 23.7407L107.508 23.8257L107.394 23.9674L107.281 24.0241H107.111L107.026 23.9391L106.969 23.7974V23.3724H106.998V23.5424L107.139 23.5707L107.168 23.6841L107.366 23.6274L107.423 23.514V23.3157L107.536 22.834Z" fill="white"/>
<path d="M104.669 21.8677H104.697V22.7173L104.584 23.227L104.527 23.3686L104.499 23.312L104.386 23.2837L104.357 23.3686L104.386 22.604L104.442 22.689H104.499L104.471 22.604L104.499 22.5757L104.527 22.2925H104.584L104.669 21.8677Z" fill="white"/>
<path d="M117.642 21.1616L117.783 21.19L117.812 21.2183V21.955L117.642 21.9267V21.9834H117.557L117.528 22.0684L117.472 21.9267V21.4733L117.557 21.2466L117.642 21.1616Z" fill="white"/>
<path d="M110.763 20.8481H111.046V21.1597L110.961 22.1792H110.933L110.82 21.5561L110.763 20.9897L110.735 20.8765L110.763 20.8481Z" fill="#0C0F11"/>
<path d="M102.803 22.521H103.001L103.086 22.6344V22.8328L103.001 23.0879L102.831 23.0595L102.661 22.9461L102.633 22.7761L102.661 22.6344L102.803 22.521Z" fill="white"/>
<path d="M108.189 21.3613L108.217 21.418H108.274L108.245 21.6163H108.33L108.387 21.7297V22.0697L108.047 22.1547L107.934 22.1264V22.0697H107.877L107.905 21.9564L108.132 21.7014L108.189 21.3613Z" fill="white"/>
<path d="M106.285 21.248H106.654L106.852 21.3331L106.88 21.4181L106.257 21.4464L106.115 21.5031H106.03L106.087 21.3331L106.144 21.2764L106.285 21.248Z" fill="white"/>
<path d="M108.578 20.9614L108.635 21.0181L108.521 21.1314L108.436 21.4431L108.379 21.7265L108.323 21.7548V21.6131H108.238L108.266 21.4148H108.209L108.238 21.2448L108.436 21.0181L108.578 20.9614Z" fill="white"/>
<path d="M105.919 23.0342L106.06 23.0625L106.145 23.1476L106.089 23.2893L105.919 23.4026L105.72 23.431L105.664 23.4026V23.2609L105.919 23.0342Z" fill="white"/>
<path d="M105.07 20.7949L105.495 20.8232L105.58 20.8799L105.778 20.9082L105.721 20.9648L105.608 20.9932L105.466 21.1348L105.381 21.1631V21.3047L105.325 21.248L105.268 20.9932L105.211 20.8799L105.07 20.8232V20.7949Z" fill="white"/>
<path d="M107.277 20.8218H107.617L107.702 20.9068L107.674 21.1901L107.645 21.6435L107.589 21.6718L107.56 21.2185L107.504 20.9918L107.447 20.9635V20.8784H107.164L107.277 20.8218Z" fill="white"/>
<path d="M113.846 23.2871L113.988 23.3154H114.243L114.328 23.2871V23.3721H114.498V23.4004L114.186 23.4287V23.4854H113.195V23.457L113.79 23.4004V23.3154L113.846 23.2871Z" fill="white"/>
<path d="M71.1431 31.0435H71.1714L71.1997 31.3267V32.4595L71.1431 32.4311L71.1147 32.2046L71.0864 31.7231L71.1147 31.4116L71.1431 31.0435Z" fill="#83CBEE"/>
<path d="M120.954 24.0537H121.266L121.379 24.1104L121.351 24.2238L121.181 24.3088L121.011 24.2805L120.897 24.1671V24.0821L120.954 24.0537Z" fill="#090B0D"/>
<path d="M123.25 22.8872H123.477L123.448 23.6523L123.42 23.964L123.392 23.8789L123.25 23.8506L123.363 23.7373V23.2556L123.335 23.0289L123.25 22.9439V22.8872Z" fill="white"/>
<path d="M107.591 23.4868L107.961 23.5152L107.875 23.572L107.904 23.6856L107.847 23.7708H107.62L107.563 23.6856V23.5152L107.591 23.4868Z" fill="white"/>
<path d="M105.892 21.6748H105.92L105.892 22.4115L105.863 22.7232L105.807 22.8932L105.75 22.8082L105.807 22.2699L105.835 21.7881L105.892 21.6748Z" fill="white"/>
<path d="M102.407 21.0747H102.605L102.662 21.1031L102.605 21.2735L102.492 21.3587L102.35 21.3303L102.293 21.2735V21.1599H102.35L102.378 21.1031L102.407 21.0747Z" fill="white"/>
<path d="M102.803 22.521H103.002L103.087 22.6345V22.8332L103.059 22.748L102.917 22.7197L102.831 22.748L102.775 22.6061L102.69 22.6913L102.633 22.7764L102.661 22.6345L102.803 22.521Z" fill="white"/>
<path d="M116.482 23.0005H116.539L116.567 23.2269L116.454 23.2835L116.341 23.2552L116.312 23.0854L116.341 23.0571H116.482V23.0005Z" fill="white"/>
<path d="M117.024 21.981L117.052 22.0946V22.1798L117.223 22.2082L117.166 22.265L116.939 22.3218L116.854 22.265L116.882 22.1514L116.967 22.123L117.024 21.981Z" fill="white"/>
<path d="M121.804 20.8481L121.917 20.9048L121.946 20.9615H121.521L121.351 20.9048V20.8765L121.804 20.8481Z" fill="#2C3439"/>
<path d="M87.3389 34.3286L87.4806 34.442L87.6506 34.7254L87.7073 34.8388L87.4806 34.6687L87.3389 34.4136V34.3286Z" fill="#1296D4"/>
<path d="M105.835 22.2676H105.863V22.7211L105.807 22.8911L105.75 22.8061L105.807 22.2959L105.835 22.2676Z" fill="white"/>
<path d="M71.1426 31.0435H71.1709L71.1993 31.3269V31.667L71.1426 31.6954L71.1143 31.4119L71.1426 31.0435Z" fill="#68C0E9"/>
<path d="M121.944 20.9951L122.227 21.0234L122.171 21.08L122.029 21.0517L122.001 21.1649L121.803 21.1366L121.831 21.08L121.916 21.0517L121.944 20.9951Z" fill="white"/>
<path d="M102.092 21.1079L102.206 21.1363V21.4487L102.121 21.4771L102.092 21.1079Z" fill="white"/>
<path d="M86.0674 22.5474L86.2655 22.604L86.3221 22.7738L86.1806 22.7455L86.0674 22.604V22.5474Z" fill="#177DBF"/>
<path d="M121.097 21.5615H121.126V22.1566H121.182L121.126 22.4116H121.097V21.5615Z" fill="white"/>
<path d="M103.481 20.9951H103.793L103.822 21.0519L103.708 21.0803H103.453L103.424 21.0235L103.481 20.9951Z" fill="white"/>
<path d="M108.836 20.9951L109.206 21.0235L109.234 21.1087L109.177 21.1371L108.836 21.0519V20.9951Z" fill="white"/>
<path d="M123.42 23.5137H123.449L123.42 23.9678L123.392 23.8826L123.25 23.8542L123.364 23.7407L123.392 23.5421L123.42 23.5137Z" fill="#30393E"/>
<path d="M121.436 21.8145L121.464 21.8712L121.521 21.8996L121.436 22.1552L121.351 22.212L121.436 21.8145Z" fill="white"/>
<path d="M87.6797 23.5405L87.8778 23.5688L87.7929 23.6254L87.9344 23.7952L87.708 23.682L87.6797 23.5405Z" fill="#3DABDE"/>
<path d="M105.352 23.1138L105.635 23.2836V23.3402L105.493 23.3119L105.352 23.1704V23.1138Z" fill="white"/>
<path d="M122.967 22.3545L123.08 22.3828V22.4677H122.655V22.4394H122.938L122.967 22.3545Z" fill="#334248"/>
<path d="M108.581 20.9614L108.638 21.0185L108.496 21.1327L108.467 21.0756L108.296 21.2183L108.353 21.1041L108.496 20.99L108.581 20.9614Z" fill="white"/>
<path d="M120.731 22.7476H120.788L120.817 22.946L120.703 22.9177V22.7759L120.731 22.7476Z" fill="white"/>
<path d="M71 32.7759H71.0282V33.0017H71V32.7759Z" fill="#83CBEE"/>
<path d="M71 33.2559L71.0568 33.3694L71 33.4262V33.2559Z" fill="#83CBEE"/>
<path d="M71 32.4629H71.0291V32.6082H71V32.4629Z" fill="#83CBEE"/>
<path d="M120.756 22.5474L120.815 22.6063L120.756 22.6358V22.5474Z" fill="white"/>
<path d="M115.999 23.627H116.055L116.027 23.6832L115.999 23.627Z" fill="#5DBCE7"/>
</mask>
<g mask="url(#mask0_3033_2590)">
<rect x="68.7256" y="0.312988" width="74.8419" height="49.0767" fill="white"/>
</g>
</svg>
