<svg width="48" height="40" viewBox="0 0 48 40" fill="none" xmlns="http://www.w3.org/2000/svg">
<mask id="mask0_3016_11379" style="mask-type:alpha" maskUnits="userSpaceOnUse" x="0" y="0" width="48" height="40">
<g clip-path="url(#clip0_3016_11379)">
<path d="M8.66509 5.03174H9.9577L10.3963 5.10099L10.6733 5.19331L11.1118 5.40106L11.435 5.63188L11.6427 5.81654L11.8966 6.13969L12.1044 6.50901L12.289 6.92449L12.4044 7.40922L12.4275 7.61697V8.07861L12.3121 8.84033L12.2429 9.16349L12.1274 9.41739L12.3583 9.20965L12.6122 9.02499L12.9584 8.72492L13.2354 8.54026L13.5586 8.33252L14.1125 8.05553L14.4588 7.91704L15.0127 7.75546L15.4744 7.66313L15.8668 7.61697L16.4208 7.59388L17.044 7.64005L17.6903 7.75546L18.2212 7.91704L18.7059 8.12478L19.0752 8.30944L19.4446 8.51718L19.8831 8.81725L20.1832 9.04807L20.414 9.25582L20.6679 9.50972L20.8757 9.76363L21.1065 10.0637L21.3142 10.3869L21.5451 10.8023L21.8221 11.3794L21.9605 11.7949L22.0529 12.2334L22.1221 12.7874L22.1452 13.2029V13.6184L22.1221 14.1493L22.0298 14.7956L21.9144 15.2342L21.7297 15.7189L21.5451 16.0882L21.2912 16.5499L20.9218 17.0346L20.6448 17.3577L20.3217 17.704L20.0678 17.9117L19.7677 18.1656L19.3753 18.4195L18.8444 18.6965L18.3135 18.9273L17.6903 19.112L17.1363 19.2274L16.6978 19.2736H16.1438L15.5206 19.2043L15.0358 19.0889L14.4126 18.9273L14.2279 18.8812H14.1125L14.5049 19.2505L14.8743 19.5506L15.1743 19.8045L15.8206 20.4508L16.0745 20.7739L16.3054 21.074L16.5362 21.4202L16.8824 22.0896L17.1132 22.5744L17.3441 23.1745L17.4826 23.6361L17.6672 24.5825L17.7596 25.2519L17.8057 25.7828V26.2445L17.7596 26.7523L17.6672 27.3293L17.5056 28.0449L17.3671 28.4834L17.044 29.3837L16.7439 30.03L16.6054 30.2608L16.5593 30.33L16.4439 30.2839L16.1899 30.0761L15.7975 29.7068L15.2205 29.1298L15.0358 28.9682L14.8281 28.7604L14.6434 28.5989L14.3664 28.3219L14.1818 28.1603L13.9279 27.9295L13.8125 27.8141L13.7201 27.6063L13.7432 27.3986L13.8125 27.1216L13.951 26.2906L13.974 26.0367V25.5751L13.9279 25.1596L13.7894 24.5825L13.6278 24.1209L13.3739 23.59L13.0046 23.036L12.7507 22.759L12.5891 22.5744L12.3583 22.3666L11.989 22.0896L11.5273 21.8126L11.1811 21.6511L10.6502 21.4433L10.1193 21.3048L9.72688 21.2356L9.47297 21.2125H8.80358L8.22652 21.3048L7.74179 21.4433L7.39555 21.5818L7.00315 21.7896L6.72616 21.9742L6.33376 22.2512L6.01061 22.5282L5.80287 22.7128L5.59513 22.9668L5.34122 23.313L5.1104 23.7054L4.94882 24.0516L4.718 24.7441L4.5795 25.3673L4.53334 25.7597V26.0829L4.60258 26.6138L4.69491 27.0754L4.90266 27.6986L5.15656 28.2757L5.31814 28.5296L5.61821 28.922L5.87212 29.199L6.05678 29.3837L6.37993 29.6376L6.81849 29.9376L7.39555 30.2377L7.97261 30.4454L8.3881 30.5609L8.82666 30.6301L9.12673 30.6532H9.40372L10.0269 30.5839L10.7194 30.4224L11.0887 30.307L11.3888 30.2839L11.6427 30.4454L11.9659 30.7686L12.1505 30.9302L12.566 31.3457L12.7507 31.5072L13.0046 31.7611L13.1892 31.9227L13.5816 32.2459L13.9279 32.5459L14.1587 32.7537L14.1125 32.846L13.951 33.0307L13.5816 33.2615L13.2123 33.4692L12.843 33.6539L12.289 33.8847L11.5735 34.1155L10.9733 34.254L10.327 34.3464L9.72688 34.3925H8.642L7.92645 34.3233L7.23398 34.2079L6.58767 34.0463L5.94136 33.8155L5.27197 33.4923L4.81033 33.2384L4.23327 32.846L3.97936 32.6614L3.67929 32.4075L3.44847 32.1997L3.26381 32.0381L2.98682 31.7381L2.70983 31.4149L2.479 31.1148L2.24818 30.7917L1.90194 30.2608L1.67112 29.8453L1.39413 29.1759L1.14023 28.5296L0.955566 27.9756L0.79399 27.3293L0.724743 26.8677L0.70166 26.5445V25.5981L0.747825 24.9518L0.840155 24.444L1.07098 23.4976L1.20947 23.0822L1.55571 22.2512L1.8327 21.6741L2.06352 21.2817L2.38667 20.8201L2.59442 20.5431L2.77908 20.3123L3.05606 19.9891L3.21764 19.8275L3.37922 19.6429L3.67929 19.3659L4.00244 19.112L4.46409 18.7888L4.83341 18.558L5.27197 18.3041L5.87212 18.004L6.47226 17.7732L6.98007 17.6347L7.67254 17.4962L8.43426 17.4039L8.80358 17.3808H9.74996L10.4424 17.4501L10.881 17.5193L11.5273 17.6809L12.4737 18.0271L12.7968 18.1656L12.6122 17.9348L12.4044 17.6809L12.1736 17.4731L12.012 17.2885L11.7812 17.0346L11.6196 16.8499L11.4119 16.5729L11.2041 16.2036L11.0195 15.7881L10.7887 15.1418L10.6502 14.634L10.5578 14.08L10.5348 13.8261V13.1567L10.604 12.5797L10.6963 12.1411L10.881 11.541L11.1349 10.9408L11.3196 10.5715L11.435 10.3176L11.1811 10.4792L10.7425 10.71L10.2578 10.8947L9.77304 11.0101L9.35756 11.0562L8.91899 11.0332L8.54967 10.9639L8.20344 10.8485L7.83412 10.6638L7.58021 10.5023L7.28014 10.2253L7.09548 10.0406L6.84158 9.71746L6.56459 9.25582L6.42609 8.93266L6.33376 8.60951L6.2876 8.37868L6.26452 8.14786V7.77854L6.33376 7.29381L6.40301 6.99374L6.56459 6.60134L6.77233 6.23202L6.98007 5.95503L7.18781 5.72421L7.34939 5.56263L7.67254 5.35489L8.08803 5.17023L8.52659 5.05482L8.66509 5.03174ZM9.14982 6.2551L8.80358 6.32435L8.52659 6.43976L8.27269 6.60134L8.01878 6.85525L7.83412 7.15532L7.71871 7.38614L7.62638 7.77854L7.6033 8.12478L7.64946 8.44793L7.74179 8.67876L7.92645 8.93266L8.20344 9.20965L8.50351 9.44047L8.73433 9.55589L9.14982 9.64822H9.5653L9.91154 9.55589L10.1885 9.44047L10.5117 9.20965L10.6502 9.09424L10.8579 8.79417L10.9733 8.54026L11.0426 8.30944L11.0657 8.12478V7.73238L10.9964 7.40922L10.9041 7.1784L10.7194 6.90141L10.5578 6.71675L10.2809 6.50901L9.91154 6.32435L9.72688 6.27819L9.51913 6.2551H9.14982ZM16.0284 10.2484L15.5898 10.3176L15.2667 10.4099L14.9204 10.5484L14.6665 10.71L14.3664 10.9408L13.9279 11.3794L13.6278 11.7718L13.4201 12.1411L13.2354 12.6258L13.1662 13.0182L13.1431 13.226V13.78L13.2123 14.2647L13.3277 14.6109L13.5124 14.9802L13.7201 15.3034L13.9971 15.6266L14.1587 15.8112L14.4818 16.0651L14.7819 16.2498L15.2205 16.4575L15.6129 16.5729L16.0284 16.6422L16.4669 16.6653L16.9055 16.6191L17.4826 16.4806L17.9442 16.2729L18.1981 16.1113L18.4751 15.9035L18.7521 15.6266L18.9598 15.3726L19.2137 14.9802L19.3984 14.5878L19.5138 14.1493L19.56 13.8492V13.2029L19.5138 12.8105L19.3984 12.3719L19.1445 11.841L18.9368 11.541L18.6828 11.2409L18.4982 11.0562L18.175 10.8023L17.875 10.6177L17.4826 10.433L17.044 10.3176L16.49 10.2484H16.0284Z" fill="#0D6EB4"/>
<path d="M8.66375 5.03174H9.95637L10.3949 5.10099L10.6719 5.19332L11.1105 5.40106L11.4336 5.63188L11.6414 5.81654L11.8953 6.13969L12.103 6.50901L12.2877 6.92449L12.4031 7.40922L12.4262 7.61697V8.07861L12.3108 8.84033L12.2415 9.16349L12.1261 9.41739L12.3569 9.20965L12.6108 9.02499L12.9571 8.72492L13.2341 8.54026L13.5572 8.33252L14.1112 8.05553L14.4574 7.91704L15.0114 7.75546L15.4731 7.66313L15.8655 7.61697L16.4194 7.59388L17.0427 7.64005L17.689 7.75546L18.2199 7.91704L18.7046 8.12478L19.0739 8.30944L19.4432 8.51718L19.8818 8.81725L20.1819 9.04807L20.4127 9.25582L20.6666 9.50972L20.8743 9.76363L21.1052 10.0637L21.3129 10.3869L21.5437 10.8023L21.8207 11.3794L21.9592 11.7949L22.0515 12.2334L22.1208 12.7874L22.1439 13.2029V13.6184L22.1208 14.1493L22.0285 14.7956L21.913 15.2342L21.7284 15.7189L21.5437 16.0882L21.2898 16.5499L20.9205 17.0346L20.6435 17.3577L20.3204 17.704L20.0665 17.9117L19.7664 18.1656L19.374 18.4195L18.8431 18.6965L18.3122 18.9273L17.689 19.112L17.135 19.2274L16.6964 19.2736H16.1425L15.5192 19.2043L15.0345 19.0889L14.4113 18.9273L14.4574 18.835L14.3651 18.7888L14.1343 18.6273L13.765 18.4426L13.4187 18.2349L13.0494 18.004L12.7955 17.8655L12.4954 17.704L12.4031 17.6809L12.1723 17.4731L12.0107 17.2885L11.7799 17.0346L11.6183 16.8499L11.4106 16.5729L11.2028 16.2036L11.0182 15.7881L10.7873 15.1418L10.6488 14.634L10.5565 14.08L10.5334 13.8261V13.1567L10.6027 12.5797L10.695 12.1411L10.8797 11.541L11.1336 10.9408L11.3182 10.5715L11.4336 10.3176L11.1797 10.4792L10.7412 10.71L10.2564 10.8947L9.77171 11.0101L9.35623 11.0562L8.91766 11.0332L8.54834 10.9639L8.20211 10.8485L7.83279 10.6638L7.57888 10.5023L7.27881 10.2253L7.09415 10.0406L6.84024 9.71746L6.56325 9.25582L6.42476 8.93266L6.33243 8.60951L6.28627 8.37869L6.26318 8.14786V7.77854L6.33243 7.29381L6.40168 6.99374L6.56325 6.60134L6.771 6.23202L6.97874 5.95503L7.18648 5.72421L7.34806 5.56263L7.67121 5.35489L8.08669 5.17023L8.52526 5.05482L8.66375 5.03174ZM9.14848 6.25511L8.80225 6.32435L8.52526 6.43976L8.27135 6.60134L8.01745 6.85525L7.83279 7.15532L7.71737 7.38614L7.62505 7.77854L7.60196 8.12478L7.64813 8.44793L7.74046 8.67876L7.92512 8.93266L8.20211 9.20965L8.50218 9.44047L8.733 9.55589L9.14848 9.64822H9.56397L9.9102 9.55589L10.1872 9.44047L10.5103 9.20965L10.6488 9.09424L10.8566 8.79417L10.972 8.54026L11.0412 8.30944L11.0643 8.12478V7.73238L10.9951 7.40922L10.9027 7.1784L10.7181 6.90141L10.5565 6.71675L10.2795 6.50901L9.9102 6.32435L9.72554 6.27819L9.5178 6.25511H9.14848ZM16.027 10.2484L15.5885 10.3176L15.2653 10.4099L14.9191 10.5484L14.6652 10.71L14.3651 10.9408L13.9265 11.3794L13.6265 11.7718L13.4187 12.1411L13.2341 12.6258L13.1648 13.0182L13.1417 13.226V13.78L13.211 14.2647L13.3264 14.6109L13.5111 14.9802L13.7188 15.3034L13.9958 15.6266L14.1574 15.8112L14.4805 16.0651L14.7806 16.2498L15.2192 16.4575L15.6116 16.5729L16.027 16.6422L16.4656 16.6653L16.9042 16.6191L17.4812 16.4806L17.9429 16.2729L18.1968 16.1113L18.4738 15.9035L18.7508 15.6266L18.9585 15.3727L19.2124 14.9802L19.3971 14.5878L19.5125 14.1493L19.5586 13.8492V13.2029L19.5125 12.8105L19.3971 12.3719L19.1432 11.841L18.9354 11.541L18.6815 11.2409L18.4969 11.0562L18.1737 10.8023L17.8736 10.6177L17.4812 10.433L17.0427 10.3176L16.4887 10.2484H16.027Z" fill="#5DBCE7"/>
<path d="M9.19789 17.4038H10.0519L10.7906 17.4961L11.5292 17.6808L12.4756 18.027L12.7987 18.1655L12.6141 17.9347L12.4525 17.727V17.6808L12.5679 17.727L12.7987 17.8424L13.0526 17.9809L13.422 18.2117L13.8144 18.4425L14.2529 18.6733L14.4607 18.8349L14.4838 18.9042H14.3222L14.1144 18.8811L14.5068 19.2504L14.8762 19.5505L15.1762 19.8044L15.8225 20.4507L16.0764 20.7738L16.3073 21.0739L16.5381 21.4201L16.8843 22.0895L17.1151 22.5743L17.346 23.1744L17.4845 23.6361L17.6691 24.5824L17.7615 25.2518L17.8076 25.7827V26.2444L17.7615 26.7522L17.6691 27.3292L17.5075 28.0448L17.3691 28.4833L17.0459 29.3836L16.7458 30.0299L16.6073 30.2607L16.5612 30.3299L16.4458 30.2838L16.1919 30.076L15.7995 29.7067L15.2224 29.1297L15.0377 28.9681L14.83 28.7603L14.6453 28.5988L14.3683 28.3218L14.1837 28.1602L13.9298 27.9294L13.8144 27.814L13.722 27.6062L13.7451 27.3985L13.8144 27.1215L13.9529 26.2905L13.9759 26.0366V25.575L13.9298 25.1595L13.7913 24.5824L13.6297 24.1208L13.3758 23.5899L13.0065 23.0359L12.7526 22.7589L12.591 22.5743L12.3602 22.3665L11.9909 22.0895L11.5292 21.8125L11.183 21.651L10.6521 21.4432L10.1212 21.3047L9.72878 21.2355L9.38255 21.1893L9.22097 21.1432V20.543L9.26713 19.7351L9.22097 18.2117V17.7039L9.1748 17.4269L9.19789 17.4038Z" fill="#0D6EB4"/>
<path d="M30.9159 21.1895L32.4855 21.2818L32.5086 21.3049L32.4855 22.0204L32.4624 25.5751V30.2608L32.3239 30.3301L31.8392 30.3762L31.239 30.3532L30.7543 30.2608L30.5696 30.1454L30.4081 29.9608L30.2234 29.6607L29.9233 29.176L29.6002 28.6451L29.4155 28.3681L29.0924 27.8603L28.8616 27.514L28.5153 26.96L28.1922 26.4522L27.038 24.7211L26.8303 24.4902L26.6456 24.3056L26.5995 24.2825L26.6226 24.6056L26.6456 26.6369L26.6687 30.307L26.5533 30.3532H25.3299L25.1453 30.3301L25.1222 30.2839V23.3823L25.0991 21.2356L25.1684 21.2125L25.353 21.2356H26.461L26.6226 21.3049L26.8303 21.5819L27.1535 22.1127L27.4304 22.5513L27.6613 22.8975L28.0075 23.4515L28.6538 24.5133L29.3001 25.5289L29.5309 25.8983L29.8079 26.3368L29.9926 26.66L30.3157 27.214L30.5466 27.6294L30.8236 28.0218L30.8466 28.0449L30.8697 27.7679V23.013L30.8928 21.2125L30.9159 21.1895Z" fill="white"/>
<path d="M10.1397 25.4148L10.4628 25.4379L10.7168 25.5302L11.063 25.7379L11.3861 25.9919L11.617 26.1765L11.8478 26.3843L12.0325 26.5458L12.2633 26.7536L12.4479 26.9152L12.6326 27.0998L12.7942 27.2845L13.0019 27.4691L13.856 28.3232L14.1099 28.5309L14.4099 28.8079L14.7793 29.1541L15.0101 29.3619L15.2871 29.6158L15.541 29.8235L15.8872 30.1236L16.2565 30.4237L16.6489 30.8161L16.8798 31.0007L17.2029 31.2777L17.4568 31.5085L17.6415 31.6701L17.9877 32.0164L18.2185 32.3164L18.3801 32.6627L18.4032 32.755V33.2166L18.2878 33.5629L18.08 33.8629L17.9185 34.0245L17.6184 34.2323L17.2952 34.3477L17.0644 34.3938H16.6028L16.3258 34.3015L15.9565 34.0707L15.6564 33.8168L15.3332 33.5398L14.9639 33.1936L14.5946 32.8242L14.4099 32.6627L14.1329 32.4088L13.6713 31.9471L13.4866 31.7855L13.2097 31.5316L12.8403 31.1854L12.5864 30.9546L12.3325 30.7468L12.0094 30.4698L11.7785 30.2852L11.4785 30.0313L11.2476 29.8235L11.0168 29.5927L10.8552 29.408L10.6937 29.2465L10.4398 29.0387L10.1628 28.7848L9.97812 28.6232L9.67805 28.3463L9.44722 28.1385L9.28564 27.9539L9.10099 27.7692L8.93941 27.5384L8.77783 27.146V26.7767L8.84708 26.4766L9.0779 26.038L9.28564 25.8072L9.44722 25.6687L9.81654 25.484L10.1397 25.4148Z" fill="#0C93D3"/>
<path d="M35.8105 23.1501H36.78L37.2416 23.2194L37.634 23.3348L38.0033 23.5425L38.2572 23.7503L38.4881 23.9811L38.6958 24.2581L38.8574 24.512L39.1113 24.9967L39.2959 25.5045L39.4114 26.0354L39.4344 26.197L39.4806 26.9818L39.4344 27.028L39.3421 27.0511L37.5186 27.0742H34.9334L34.4256 27.0511L34.5179 27.8128L34.6102 28.159L34.818 28.4822L35.118 28.8284L35.3489 29.0592L35.672 29.2439L36.0413 29.3362H36.6646L37.0339 29.2208L37.4263 29.0131L37.7033 28.7592L37.8648 28.5514L38.0726 28.2283L38.188 28.1129L38.4419 28.0436H39.2036L39.2959 28.1129V28.3437L39.1805 28.713L38.9959 29.0823L38.7651 29.3824L38.5573 29.6132L38.3496 29.821L38.0495 30.0518L37.8187 30.1903L37.5648 30.3057L37.08 30.4211L36.7338 30.4673H35.8105L35.2565 30.398L34.8641 30.2826L34.5179 30.0979L34.1717 29.7979L34.0101 29.6363L33.7562 29.2901L33.5715 28.9669L33.433 28.6899L33.2714 28.2052L33.1791 27.7435L33.1099 27.2126V26.3817L33.2253 25.6892L33.4099 25.1121L33.6177 24.6736L33.8023 24.3966L34.0562 24.0734L34.2409 23.8888L34.5641 23.6349L34.818 23.4733L35.2565 23.2656L35.6258 23.1732L35.8105 23.1501ZM36.1567 24.1889L35.8105 24.2581L35.5335 24.3735L35.2796 24.5582L35.0949 24.7197L34.8872 24.9737L34.7487 25.1583L34.6102 25.4353L34.5179 25.6661L34.4948 25.9893L34.5871 26.0124H37.8418L38.0495 25.9662L38.0957 25.9431L38.0495 25.6892L37.8879 25.2506L37.7033 24.9044L37.4955 24.6505L37.2416 24.4428L36.8723 24.2581L36.4799 24.1889H36.1567Z" fill="white"/>
<path d="M8.66375 5.03174H9.95637L10.3949 5.10099L10.6719 5.19332L11.1105 5.40106L11.4336 5.63188L11.6414 5.81654L11.8953 6.13969L12.103 6.50901L12.2877 6.92449L12.4031 7.40922L12.4262 7.61697V8.07861L12.3108 8.84033L12.2415 9.16349L12.1261 9.39431V9.48664H12.0799L12.0338 9.57897L11.7337 9.97137L11.5029 10.2484L11.4567 10.3176L11.3644 10.3638L10.9951 10.5715L10.6258 10.7562L10.1872 10.9177L9.63321 11.0332L9.19465 11.0562L8.75608 11.0101L8.31752 10.8947L7.90203 10.71L7.64813 10.5484L7.39422 10.3407L7.09415 10.0406L6.84024 9.71746L6.56325 9.25582L6.42476 8.93266L6.33243 8.60951L6.28627 8.37869L6.26318 8.14786V7.77854L6.33243 7.29381L6.40168 6.99374L6.56325 6.60134L6.771 6.23202L6.97874 5.95503L7.18648 5.72421L7.34806 5.56263L7.67121 5.35489L8.08669 5.17023L8.52526 5.05482L8.66375 5.03174ZM9.14848 6.25511L8.80225 6.32435L8.52526 6.43976L8.27135 6.60134L8.01745 6.85525L7.83279 7.15532L7.71737 7.38614L7.62505 7.77854L7.60196 8.12478L7.64813 8.44793L7.74046 8.67876L7.92512 8.93266L8.20211 9.20965L8.50218 9.44047L8.733 9.55589L9.14848 9.64822H9.56397L9.9102 9.55589L10.1872 9.44047L10.5103 9.20965L10.6488 9.09424L10.8566 8.79417L10.972 8.54026L11.0412 8.30944L11.0643 8.12478V7.73238L10.9951 7.40922L10.9027 7.1784L10.7181 6.90141L10.5565 6.71675L10.2795 6.50901L9.9102 6.32435L9.72554 6.27819L9.5178 6.25511H9.14848Z" fill="#83CBEE"/>
<path d="M40.6557 21.6294L42.1099 21.6756L42.2714 21.7217L42.2945 23.1528L43.0101 23.1297H43.3563L43.4025 23.1759V24.2839L43.3332 24.3531L43.2409 24.3762L42.9408 24.3993H42.2714V25.8073L42.2945 27.7924L42.3176 28.8542L42.3407 29.0388L42.5253 29.085L43.2178 29.1773L43.3794 29.2235L43.4025 29.2697V30.2622L43.3332 30.4238L43.1947 30.493L42.987 30.5392L42.4099 30.5161L41.9945 30.4699L41.579 30.3776L41.2097 30.193L41.025 30.0314L40.9096 29.8929L40.7942 29.5697L40.7249 29.2697L40.6788 28.7157L40.6557 27.8616L40.6326 24.4454L40.5633 24.4224L39.4092 24.3531L39.3631 24.307L39.3169 23.3837V23.199H40.6326V21.6525L40.6557 21.6294Z" fill="white"/>
<path d="M9.19789 17.4038H10.0519L10.7906 17.4961L11.5292 17.6808L12.2217 17.9347V17.9809L12.314 18.027L12.4987 18.1655L12.8449 18.4194L13.145 18.6041L13.3527 18.7195L13.5143 18.858L13.5374 18.9272V19.1581L13.445 19.2735L13.2604 19.412L13.0988 19.4812L12.868 19.6659L12.5679 19.9198L12.4987 19.989L12.314 20.1506L12.1524 20.3353H12.1063L12.0601 20.4276L11.8985 20.5892L11.7831 20.7969L11.5985 21.0508L11.5061 21.2124L11.483 21.3047L11.4138 21.3971L11.3676 21.5125V21.5817L11.2984 21.674L11.183 21.651L10.6521 21.4432L10.1212 21.3047L9.72878 21.2355L9.38255 21.1893L9.22097 21.1432V20.543L9.26713 19.7351L9.22097 18.2117V17.7039L9.1748 17.4269L9.19789 17.4038Z" fill="#0C4473"/>
<path d="M38.2117 16.5022H38.9965L39.0657 16.5484L39.1119 17.2639L39.158 17.9333V18.4411L39.1349 18.4873L39.0888 19.2952H38.2578L37.5423 19.2259L37.3807 19.1567V18.5796L37.3576 18.4642L37.1729 18.418L37.1037 18.5565L37.0806 18.8335L37.0114 18.9028L36.7575 18.9489L36.3881 18.972H36.0188L34.8647 18.9258L34.3338 18.8566L34.1953 18.7643L34.2184 18.5796L34.2415 18.5334L34.5646 18.5565L35.0724 18.6027H35.3033L35.1417 18.4411L34.9801 18.2334L34.7493 18.0026L34.6339 17.9102L34.5646 17.7948V17.3101L34.5877 16.8254L34.6108 16.7561L34.8647 16.7099L35.2571 16.6869H35.788L36.1573 16.7099L36.3189 16.7792V17.6102L36.2266 17.9102L36.065 18.1872L35.8803 18.418L35.7649 18.6027L35.7418 18.6719L36.342 18.695H36.7805L36.919 18.6719L36.9883 18.418L37.0806 17.9564L37.1499 17.1023L37.1729 16.6176L37.196 16.5714L38.2117 16.5022ZM37.5423 16.733L37.473 16.8023L37.4268 16.9408L37.3807 17.4717L37.3576 18.141L37.4268 18.2565L37.5192 18.3719L37.6346 18.695L37.7038 18.7412L37.7269 18.4642V18.2334L37.6577 18.0718V17.5178L37.7038 17.0331L37.7731 16.8023L37.7038 16.733H37.5423ZM38.3732 16.733L38.1193 16.8023L38.0501 16.8484L38.0039 17.0331L37.9577 17.5178L37.9347 17.7025L38.2347 17.7486V17.7025L38.3271 17.6563V17.1254L38.3963 16.9408L38.4425 16.8946L38.5579 16.9177L38.581 17.0562L38.6041 17.6102L38.8118 17.6794L38.7887 17.7717L38.3963 17.9333L38.3732 17.9795L38.4425 18.2103L38.5579 18.3257L38.6271 18.4411L38.5579 18.6719L38.4425 18.8566L38.3732 18.8797L38.3271 18.2795L38.2347 17.8179L38.0732 17.7717L37.8654 17.8179L37.8423 17.8641V18.0718L37.8885 18.1872V18.8104L38.0962 18.9489L38.5117 19.0413L38.8349 19.0643L38.9272 19.0182L38.9503 18.9028V18.4873L38.9272 17.7256L38.9041 17.3793L38.9272 17.0562V16.8023L38.7887 16.7561L38.581 16.733H38.3732ZM35.2802 16.9408L35.1417 17.01L35.0724 17.1023L35.0263 17.3562V17.6563L35.0955 17.841L35.2571 18.0026L35.4187 18.0256L35.6033 17.9333L35.6957 17.8179L35.7188 17.7486V17.1947L35.6495 17.0793L35.511 16.9638L35.4648 16.9408H35.2802Z" fill="white"/>
<path d="M19.6986 24.9749H23.2533L23.2764 24.9979L23.2995 26.5675L23.2072 26.6137H20.368L19.6986 26.5906L19.6525 26.5675L19.6294 26.4983V26.0366L19.6525 25.1595L19.6986 24.9749Z" fill="white"/>
<path d="M28.1934 16.5728L28.5396 16.5958L28.6088 16.642L29.9938 16.5958H30.2708L30.34 16.6651L30.3169 16.8959L30.2939 17.2652L30.2477 18.7656L30.7324 18.6963L30.9171 18.6502L31.0556 18.7194L31.0787 18.6963L31.1017 18.5348V17.7961L31.1479 17.5884V16.7805L31.0325 16.8036L30.9402 17.1036L30.894 17.6115L30.617 17.6807L30.5247 17.6576V17.6115H30.4785L30.5016 17.5191L30.6863 17.3114L30.7324 17.0344L30.8709 16.8267L30.9863 16.7343L31.171 16.642L31.725 16.6651L32.1405 16.6882L32.4174 16.6651H32.7175L32.7406 16.7112L32.7637 17.1267L32.8098 17.1036L32.8791 17.3345L32.9483 17.6345L32.9714 18.4424V19.0195L32.5329 18.9964L32.002 18.9502L31.8635 18.9041L31.8173 18.8579L31.8404 18.604L31.9327 18.0269L31.9096 17.8423L31.8173 17.75L31.6788 17.773L31.5403 17.8654L31.5172 17.9808V18.8579L31.1479 18.9041L31.1017 18.8579L31.0787 18.9041L30.4554 18.9964L30.2015 19.0195L30.0861 19.158L29.9938 19.2041H29.8553L29.786 19.1349L29.7168 18.9502V18.4424L29.7399 18.1424V17.5653L29.7168 17.2652L29.6706 17.1267L29.5783 17.1036H29.1628L28.9782 17.196L28.9089 17.3114L28.8397 18.1424L28.7935 18.3732V18.4655L28.8858 18.3963L29.0012 18.4193L29.0705 18.4886L29.0243 18.604L28.8858 18.6963L28.7243 18.7194L28.5165 18.604L28.4011 18.4886L28.3319 18.3039V17.8884L28.4011 17.5422V16.9421L28.3549 16.7343L28.3088 16.642L28.1934 16.5958V16.5728ZM31.8635 16.7805L31.5865 16.8036L31.5403 16.8497L31.4941 17.5884L31.5172 17.7961L31.6326 17.75L31.7942 17.6345L31.8635 17.4268L31.9096 17.1267L31.9327 16.7805H31.8635ZM32.1866 16.8036L32.1635 16.9421L32.1405 17.7038V18.0269L32.0943 18.327V18.5578L32.2097 18.6271L32.3944 18.604L32.5098 18.4886L32.5329 18.4424V17.3806L32.5098 16.9421L32.4867 16.8036H32.1866Z" fill="white"/>
<path d="M12.2211 17.9578L12.3596 17.9808L12.7751 18.1655L12.7982 18.2348L12.8905 18.2578L12.9598 18.3732L13.3753 18.6041L13.5599 18.7426L13.7907 18.8811L14.2755 19.2042L14.5294 19.3427L14.691 19.5504V19.5966L14.7602 19.6197V19.6659H14.8295L14.8525 19.7813H14.8987L14.991 19.9659L14.8756 20.1968L14.714 20.2198L14.5756 20.2891L14.3678 20.3122L14.1832 20.4507L14.0908 20.543H14.0216L13.9754 20.6353L13.8831 20.6815L13.8138 20.7046L13.6984 20.8431L13.6061 20.9123L13.5138 20.9354L13.3753 21.0508L13.2829 21.1893H13.2368L13.2137 21.3278L13.1444 21.4201H13.0983L13.0521 21.5817L12.9367 21.7664L12.8444 21.8587L12.7982 21.9741L12.8444 22.0203L12.6828 22.2049L12.729 22.228L12.6135 22.3665V22.4127L12.5212 22.4588L12.4058 22.4127L12.0596 22.1357L11.5748 21.8356L11.2979 21.6971L11.344 21.5817L11.3671 21.4663L11.4825 21.2355L11.5518 21.0739L11.7133 20.8661L11.8057 20.7277L11.898 20.5661L12.0827 20.3814L12.2442 20.1968L12.452 19.989L12.5443 19.9659L12.5905 19.8736L12.9136 19.5966L13.0983 19.4581L13.3291 19.3427L13.4907 19.2042L13.5138 19.158V18.9272L13.4445 18.8118L13.2137 18.6502L12.9598 18.5117L12.6828 18.3271L12.452 18.1424L12.2211 17.9808V17.9578Z" fill="#125F9B"/>
<path d="M35.2571 16.687H35.788L36.1573 16.7101L36.3189 16.7793V17.6103L36.2266 17.9104L36.065 18.1874L35.8803 18.4182L35.7649 18.6028L35.7418 18.6721L36.342 18.6952L36.642 18.7413L36.6651 18.7875L36.896 18.8106L36.9652 18.7644H37.0344L37.0575 18.7183V18.8798L36.919 18.926L36.3881 18.9722H36.0188L34.8647 18.926L34.3338 18.8568L34.1953 18.7644L34.2184 18.5798L34.2415 18.5336L34.5646 18.5567L35.0724 18.6028H35.3033L35.1417 18.4413L34.9801 18.2335L34.7493 18.0027L34.6339 17.9104L34.5646 17.795V17.3102L34.5877 16.8255L34.6108 16.7563L34.8647 16.7101L35.2571 16.687ZM35.2802 16.9409L35.1417 17.0102L35.0724 17.1025L35.0263 17.3564V17.6565L35.0955 17.8411L35.2571 18.0027L35.4187 18.0258L35.6033 17.9335L35.6957 17.818L35.7188 17.7488V17.1948L35.6495 17.0794L35.511 16.964L35.4648 16.9409H35.2802Z" fill="white"/>
<path d="M26.9678 16.5947H27.1524L27.2909 16.664L27.3833 16.6409L27.5679 16.6178L27.5218 16.664L27.2678 16.7101L27.2909 17.5873L27.2448 18.1874L27.1986 18.4875L27.1755 18.7876L27.2678 18.8106H27.4987L27.5679 18.7414L27.6141 18.5106V18.0028L27.5218 17.518V17.2872L27.591 17.1718L27.7064 17.1487L27.8449 17.3103L27.8911 17.4488V18.1412L27.7987 18.5567L27.6372 18.9491L27.5218 19.0645L27.3602 19.1338H27.1986L26.9216 19.0415L26.8062 18.9491L26.7831 18.8799L26.8062 18.5336L26.8985 17.9104L26.9216 17.6104V17.218L26.8293 16.964L26.6908 16.8948L26.5754 16.8717L26.483 16.8025L26.2984 17.0564L26.2061 17.1949L26.1368 17.4257L26.1137 17.9104L26.183 18.1874L26.1137 18.3028L25.9521 18.349L25.5597 18.4182L25.4443 18.5336L25.3289 18.626L25.2366 18.6491L25.1904 18.6029V18.3721L25.2366 18.2105L25.5367 18.0258L25.5828 17.9797L25.629 17.7488L25.6521 17.2641L25.5828 17.1256L25.3289 16.941L25.2135 16.7563V16.664L25.6752 16.6871L25.9521 16.7101L26.0676 16.6871H26.5061L26.6215 16.6409L26.9678 16.5947Z" fill="white"/>
<path d="M28.1934 16.5728L28.5396 16.5958L28.6088 16.642L29.9938 16.5958H30.2708L30.34 16.6651L30.3169 16.8959L30.2939 17.2652L30.2477 18.5809H30.2246L30.2015 18.3732L30.1323 18.6502V18.7887L30.0861 18.9041L30.04 18.9272H29.9015L29.8784 18.8348L29.763 18.8117L29.7399 18.9502H29.7168V18.4424L29.7399 18.1424V17.5653L29.7168 17.2652L29.6706 17.1267L29.5783 17.1036H29.1628L28.9782 17.196L28.9089 17.3114L28.8397 18.1424L28.7935 18.3732V18.4655L28.8858 18.3963L29.0012 18.4193L29.0705 18.4886L29.0243 18.604L28.8858 18.6963L28.7243 18.7194L28.5165 18.604L28.4011 18.4886L28.3319 18.3039V17.8884L28.4011 17.5422V16.9421L28.3549 16.7343L28.3088 16.642L28.1934 16.5958V16.5728Z" fill="white"/>
<path d="M8.80526 17.3821H9.75164V17.4052L9.19767 17.4282L9.24383 17.7514V18.3054L9.29 19.7365L9.24383 20.5674V21.1445L9.38232 21.1676V21.1907H8.64369L8.62061 21.0753L8.64369 21.006L8.66677 20.4751L8.71294 19.9673V19.5518L8.73602 18.8363L8.71294 18.767V17.7052L8.62061 17.4513L8.80526 17.3821Z" fill="#125F9B"/>
<path d="M43.0159 16.5513H43.2006L43.2698 16.5744L43.2929 16.6205V17.9362L43.2698 18.0055L42.8774 17.9593L42.5312 17.9362L42.485 17.89L42.4619 17.7516L42.4388 16.7821H42.3003L42.2773 16.8052L42.2542 16.9668V17.3592L42.2773 17.6823V17.9362L42.0464 17.9593L42.0003 17.9131L41.9772 17.2899L41.8849 17.1976L41.654 17.0822L41.4232 16.8975L41.4001 16.7821L41.3078 16.8052L41.2385 16.7359L41.1924 16.6436V16.5744L41.377 16.5974L41.4232 16.6205H41.9079L42.6697 16.5974L42.7158 16.5744L43.0159 16.5513ZM42.6466 16.6667L42.6004 16.6898V16.8513L42.6697 16.9437L42.6927 17.036L42.7158 17.7285L42.7389 17.7746H42.7851L42.8081 17.867L42.9005 17.8439L42.9466 17.6823V16.8975L42.8774 16.759L42.7389 16.6667H42.6466Z" fill="white"/>
<path d="M27.6191 17.1487L27.7345 17.1718L27.8499 17.3103L27.896 17.4488V18.1412L27.8037 18.5567L27.6421 18.9491L27.5267 19.0645L27.3651 19.1338H27.2036L26.9266 19.0414L26.8112 18.9491L26.7881 18.8799L26.8112 18.5336L26.9035 17.9104L26.9497 17.2641L27.042 17.3103V17.2641L27.1343 17.2179L27.2497 17.3795L27.2959 17.3333V17.5872L27.2497 18.1874L27.2036 18.4875L27.1805 18.7875L27.2728 18.8106H27.5036L27.5729 18.7414L27.6191 18.5105V18.0027L27.5267 17.518V17.2872L27.596 17.1718L27.6191 17.1487Z" fill="white"/>
<path d="M43.0128 18.2783H43.1974L43.1744 19.1555V19.4094L43.1513 19.4786L43.0589 19.4555L43.0359 19.4324L43.0128 19.2709L42.805 19.1785L42.4357 19.0862L41.674 18.9939L41.4201 18.9246L41.3509 18.8323L41.3047 18.5784V18.4399L41.4893 18.463L41.8817 18.5091L42.1587 18.5322L42.228 18.5553V18.6015L42.2741 18.5784H42.4357L42.5511 18.6476L42.6435 18.74L42.6204 18.5322L42.6665 18.463H42.8281L42.9205 18.5784L42.9897 19.017H43.082L43.1051 18.9708V18.5784L43.082 18.3937L43.0128 18.3245V18.2783Z" fill="white"/>
<path d="M37.2662 16.6436H37.3123L37.3354 16.7359L37.2662 17.4514V18.0977L37.3354 18.1901L37.3816 18.1439L37.4508 18.2593L37.5431 18.3747L37.6586 18.6979L37.6816 18.721L37.7047 18.4671V18.2362L37.6355 18.0747V18.0285H37.6816V17.9131L37.7047 17.9593L37.8201 17.8669H37.8432L37.8894 18.1439L37.9125 18.1901V18.8133L38.0971 18.9287L38.5126 19.021L38.905 19.0441L38.8819 19.0903L38.6973 19.1134L38.6742 19.1365L38.351 19.1595H38.051L37.7047 19.1365L37.497 19.0441L37.4277 18.9287L37.3816 18.5825L37.3585 18.4671L37.1738 18.4209L37.1046 18.5594L37.0815 18.8364L37.0353 18.7671L36.8968 18.8364L36.666 18.8133L36.5968 18.7671L36.4121 18.7441V18.721L36.7814 18.6979L36.9199 18.6748L36.9892 18.4209L37.0815 17.9593L37.1507 17.1052L37.1969 17.0129L37.22 16.8282H37.2662V16.6436Z" fill="white"/>
<path d="M34.2415 18.5334L34.5646 18.5565L35.0724 18.6027H35.4187L35.4648 18.6258H35.6726L35.7418 18.6027V18.6719L36.342 18.695L36.642 18.7412L36.6651 18.7874L36.896 18.8104L36.9652 18.7643H37.0344L37.0575 18.7181V18.8797L36.919 18.9258L36.3881 18.972H36.0188L34.8647 18.9258L34.3338 18.8566L34.1953 18.7643L34.2184 18.5796L34.2415 18.5334Z" fill="white"/>
<path d="M31.1266 17.7244H31.1728V18.0937L31.1959 18.1398L31.2882 18.1168L31.3805 17.8859L31.519 17.8398V18.8554L31.1497 18.9016L31.1036 18.8554L31.0805 18.9016L30.4573 18.9939L30.2033 19.017L30.0879 19.1555L29.9956 19.2016H29.8571L29.7879 19.1324L29.7417 19.017V18.6707H29.7648V18.8092L29.8802 18.8323L29.9033 18.9246L30.0649 18.8785L30.111 18.7862V18.6246L30.2033 18.2322H30.2264L30.2495 18.7631L30.7342 18.6938L30.9189 18.6477L31.0574 18.7169L31.0805 18.6938L31.1036 18.5322V17.7936L31.1266 17.7244Z" fill="white"/>
<path d="M31.2653 16.9639L31.3807 17.01L31.45 17.1716L31.4961 17.3332H31.5192V17.7948L31.7731 17.6333L31.8424 17.4255L31.8655 17.3101L31.9116 17.3332L32.0963 17.3101L32.1194 17.2639L32.1424 17.0331H32.1655V18.0257L32.1194 18.3257V18.5566L32.1424 18.6027L32.027 18.5566L31.8655 18.5335L31.8885 18.3026L31.9347 17.9333L31.8655 17.7718L31.727 17.7487L31.5192 17.8641L31.3807 17.8872L31.3115 18.1411L31.2422 18.1642L31.1499 18.1411V17.5871L31.173 17.0562H31.2191L31.2653 16.9639Z" fill="white"/>
<path d="M35.6713 16.801H36.0868V16.8703H36.133L36.1792 16.9626L36.2022 17.3319L36.1792 17.7474L36.1099 17.8628V17.909H36.0637V17.9782H36.0176V18.0475H35.9714L35.9483 18.1167H35.9022L35.8791 18.186H35.8329L35.8098 18.2321L35.6944 18.2783H35.5559V18.2321H35.5098L35.5328 18.1167L35.6021 17.9551L35.5559 17.9321L35.6713 17.8167L35.7406 17.5627L35.7868 17.2165L35.7175 17.0318L35.6252 16.9164L35.6713 16.801Z" fill="white"/>
<path d="M38.4442 16.8716L38.5596 16.8947L38.6057 17.0562V17.6102L38.7904 17.6333L38.8366 17.6795L38.8135 17.7718L38.5134 17.9103L38.398 17.9565L38.4672 18.2104L38.5827 18.3258L38.6519 18.4412L38.5827 18.672L38.4442 18.8798H38.3749L38.3518 18.8336L38.3057 18.2796L38.2133 17.818L38.0748 17.7949L37.8671 17.818L37.7979 17.7718L37.8209 17.6795L37.8902 17.6564L37.9363 17.541L37.9594 17.6333L37.9363 17.7025H38.121L38.2364 17.7487V17.7025L38.3057 17.6564V17.1255L38.3749 16.9408L38.4442 16.8716Z" fill="white"/>
<path d="M32.9018 17.6321H32.9479L32.971 18.44V19.017L32.5324 18.9939L32.0016 18.9478L31.8631 18.9016L31.8169 18.8554L31.84 18.6015L31.8861 18.463L31.9092 18.5323H32.0477L32.0939 18.5785L32.3247 18.6015L32.4632 18.5323L32.5324 18.3938L32.6709 18.5092L32.7402 18.5323L32.8094 18.3246L32.8787 17.9552L32.9018 17.6321Z" fill="white"/>
<path d="M43.0126 16.5513H43.1973L43.2665 16.5744L43.2896 16.6205V17.9362L43.2665 18.0055L42.8741 17.9593L42.8972 17.7746L42.9203 17.6823V16.8975L42.851 16.759L42.6895 16.6436L42.7125 16.5744L43.0126 16.5513Z" fill="white"/>
<path d="M12.4497 17.6809L12.5651 17.7271L12.7959 17.8425L13.0498 17.981L13.4192 18.2118L13.8116 18.4426L14.2501 18.6735L14.4579 18.835L14.481 18.9043H14.3194L14.1116 18.8812L14.2271 19.0197L14.0424 18.9274L13.9731 18.8581L13.65 18.6735L13.5115 18.558L13.3038 18.4426L13.0268 18.2811L12.9344 18.3041L12.7959 18.2349L12.7729 18.1426L12.542 17.8425L12.4497 17.7271V17.6809Z" fill="#0E93D3"/>
<path d="M32.7184 16.7358H32.7414L32.7645 17.1282L32.8107 17.1052L32.8799 17.336L32.9261 17.5206L32.903 17.9592L32.7876 18.5132L32.7184 18.5593L32.5799 18.467L32.5337 18.3978V17.5206H32.5799L32.626 17.3821L32.6722 17.3129L32.6953 17.1975L32.7184 16.7358Z" fill="white"/>
<path d="M37.2662 16.6436H37.3123L37.3354 16.7359L37.2662 17.4514V18.0977L37.3354 18.1901L37.3816 18.1439L37.4508 18.2593L37.5431 18.3747L37.5662 18.5594L37.4739 18.6056L37.3816 18.5825L37.3585 18.4671L37.1738 18.4209L37.1046 18.5594L37.0815 18.8364L37.0353 18.7671L36.8968 18.8364L36.666 18.8133L36.5968 18.7671L36.4121 18.7441V18.721L36.7814 18.6979L36.9199 18.6748L36.9892 18.4209L37.0815 17.9593L37.1507 17.1052L37.1969 17.0129L37.22 16.8282H37.2662V16.6436Z" fill="white"/>
<path d="M31.1232 17.7244H31.1693V18.0937L31.1924 18.1398L31.2848 18.1168L31.3771 17.8859L31.5156 17.8398V18.8554L31.1463 18.9016L31.1001 18.7631V17.7936L31.1232 17.7244Z" fill="white"/>
<path d="M31.2653 16.9639L31.3807 17.01L31.45 17.1716L31.4961 17.3332H31.5192V17.7948L31.5885 17.7718L31.5423 17.8641L31.3807 17.8872L31.3115 18.1411L31.2422 18.1642L31.1499 18.1411V17.5871L31.173 17.0562H31.2191L31.2653 16.9639Z" fill="white"/>
<path d="M41.3256 16.8499L41.441 16.9422L41.5103 17.1499L41.5564 17.45L41.6487 17.4731L41.7642 17.5885L41.7411 17.7501L41.6487 17.8424L41.5333 17.8886H41.2563V17.1961H41.2794V17.6808H41.3256L41.3025 16.8729L41.3256 16.8499Z" fill="white"/>
<path d="M27.105 17.2192L27.2204 17.3347L27.2435 17.3809L27.2897 17.3347V17.5888L27.2666 17.9121L27.2204 17.9352L27.1974 18.0738H27.1512L27.1281 18.143L26.9895 18.1892H26.8971L26.874 18.1199L26.9433 17.2654L27.0357 17.3116V17.2654L27.105 17.2192Z" fill="white"/>
<path d="M27.6182 17.1487L27.7336 17.1718L27.849 17.3103L27.8721 17.3795L27.849 17.7257L27.7798 17.8181L27.7567 18.0258L27.7336 18.1181H27.6875L27.6644 18.1874L27.5259 17.518V17.2872L27.5951 17.1718L27.6182 17.1487Z" fill="white"/>
<path d="M29.3491 17.4038H29.3952L29.4183 17.5192L29.4414 18.0732L29.5107 18.2809L29.2337 18.4656H29.1875L29.2106 18.1655V17.6577L29.2798 17.4961L29.3491 17.4038Z" fill="white"/>
<path d="M30.2036 18.2349H30.2267L30.2498 18.7891V18.9277L30.296 18.9739L30.1805 19.0432L30.0881 19.1587L29.9957 19.2049H29.8572L29.7879 19.1356L29.7417 19.0201V18.6737H29.7648V18.8122L29.8803 18.8353L29.9034 18.9277L30.065 18.8815L30.1112 18.7891V18.6275L30.2036 18.2349Z" fill="white"/>
<path d="M27.8667 17.4473H27.8898V18.1397L27.7975 18.5552L27.7513 18.6706L27.7282 18.6245L27.6359 18.6014L27.6128 18.6706L27.6359 18.0474L27.682 18.1167H27.7282L27.7051 18.0474L27.7282 18.0243L27.7513 17.7935H27.7975L27.8667 17.4473Z" fill="white"/>
<path d="M38.4403 16.8716L38.5558 16.8947L38.5789 16.9178V17.5182L38.4403 17.4951V17.5413H38.371L38.3479 17.6106L38.3018 17.4951V17.1256L38.371 16.9409L38.4403 16.8716Z" fill="white"/>
<path d="M32.8341 16.6165H33.0649V16.8704L32.9957 17.7013H32.9726L32.8803 17.1935L32.8341 16.7319L32.811 16.6395L32.8341 16.6165Z" fill="#0C0F11"/>
<path d="M26.3461 17.9795H26.5078L26.5771 18.0719V18.2336L26.5078 18.4415L26.3692 18.4184L26.2306 18.326L26.2075 18.1874L26.2306 18.0719L26.3461 17.9795Z" fill="white"/>
<path d="M30.7355 17.0344L30.7586 17.0806H30.8048L30.7817 17.2423H30.851L30.8972 17.3347V17.6118L30.62 17.6811L30.5276 17.658V17.6118H30.4814L30.5045 17.5194L30.6893 17.3116L30.7355 17.0344Z" fill="white"/>
<path d="M29.1844 16.9421H29.4847L29.6463 17.0114L29.6694 17.0807L29.1613 17.1038L29.0458 17.15H28.9766L29.0228 17.0114L29.0689 16.9652L29.1844 16.9421Z" fill="white"/>
<path d="M31.0527 16.7087L31.0989 16.7549L31.0065 16.8473L30.9372 17.1014L30.891 17.3323L30.8448 17.3554V17.2399H30.7755L30.7986 17.0783H30.7524L30.7755 16.9397L30.9372 16.7549L31.0527 16.7087Z" fill="white"/>
<path d="M28.8852 18.3977L29.0007 18.4208L29.07 18.4901L29.0238 18.6056L28.8852 18.698L28.7234 18.7211L28.6772 18.698V18.5825L28.8852 18.3977Z" fill="white"/>
<path d="M28.1934 16.5728L28.5396 16.5958L28.6088 16.642L28.7704 16.6651L28.7242 16.7112L28.6319 16.7343L28.5165 16.8497L28.4473 16.8728V16.9882L28.4011 16.9421L28.3549 16.7343L28.3088 16.642L28.1934 16.5958V16.5728Z" fill="white"/>
<path d="M29.9923 16.5947H30.2694L30.3387 16.664L30.3156 16.895L30.2925 17.2645L30.2463 17.2876L30.2232 16.9181L30.177 16.7333L30.1309 16.7102V16.6409H29.8999L29.9923 16.5947Z" fill="white"/>
<path d="M35.3463 18.6042L35.4617 18.6273H35.6695L35.7387 18.6042V18.6735H35.8772V18.6966L35.6233 18.7197V18.7658H34.8154V18.7427L35.3002 18.6966V18.6273L35.3463 18.6042Z" fill="white"/>
<path d="M0.541282 24.926H0.564364L0.587447 25.1568V26.0801L0.541282 26.0571L0.5182 25.8724L0.495117 25.48L0.5182 25.2261L0.541282 24.926Z" fill="#83CBEE"/>
<path d="M41.14 19.2288H41.3941L41.4865 19.275L41.4634 19.3674L41.3248 19.4367L41.1862 19.4136L41.0938 19.3212V19.2519L41.14 19.2288Z" fill="#090B0D"/>
<path d="M43.0112 18.2783H43.196L43.1729 18.9019L43.1498 19.1559L43.1267 19.0866L43.0112 19.0635L43.1036 18.9712V18.5786L43.0805 18.3938L43.0112 18.3245V18.2783Z" fill="white"/>
<path d="M30.2487 18.7671L30.5496 18.7902L30.4802 18.8365L30.5033 18.9291L30.457 18.9985H30.2719L30.2256 18.9291V18.7902L30.2487 18.7671Z" fill="white"/>
<path d="M28.863 17.2898H28.8861L28.863 17.8903L28.8399 18.1443L28.7937 18.2829L28.7476 18.2136L28.7937 17.7748L28.8168 17.3822L28.863 17.2898Z" fill="white"/>
<path d="M26.0228 16.801H26.1848L26.2311 16.8242L26.1848 16.9631L26.0922 17.0325L25.9765 17.0094L25.9302 16.9631V16.8705H25.9765L25.9996 16.8242L26.0228 16.801Z" fill="white"/>
<path d="M26.3463 17.9795H26.5082L26.5776 18.072V18.2339L26.5545 18.1645L26.4388 18.1414L26.3694 18.1645L26.3232 18.0489L26.2538 18.1183L26.2075 18.1877L26.2307 18.072L26.3463 17.9795Z" fill="white"/>
<path d="M37.4953 18.3706H37.5415L37.5645 18.5551L37.4723 18.6013L37.38 18.5782L37.3569 18.4398L37.38 18.4167H37.4953V18.3706Z" fill="white"/>
<path d="M37.9367 17.5396L37.9599 17.6321V17.7016L38.0988 17.7247L38.0525 17.771L37.8673 17.8173L37.7979 17.771L37.821 17.6784L37.8904 17.6553L37.9367 17.5396Z" fill="white"/>
<path d="M41.833 16.6165L41.9254 16.6627L41.9485 16.7089H41.602L41.4634 16.6627V16.6396L41.833 16.6165Z" fill="#2C3439"/>
<path d="M13.7417 27.6035L13.8572 27.6959L13.9958 27.9269L14.042 28.0193L13.8572 27.8807L13.7417 27.6728V27.6035Z" fill="#1296D4"/>
<path d="M28.8169 17.7732H28.84V18.1428L28.7938 18.2814L28.7476 18.2121L28.7938 17.7963L28.8169 17.7732Z" fill="white"/>
<path d="M0.541168 24.926H0.564269L0.58737 25.157V25.4343L0.541168 25.4574L0.518066 25.2263L0.541168 24.926Z" fill="#68C0E9"/>
<path d="M41.9469 16.7358L42.1775 16.7589L42.1314 16.805L42.0161 16.782L41.993 16.8742L41.8315 16.8512L41.8546 16.805L41.9238 16.782L41.9469 16.7358Z" fill="white"/>
<path d="M25.7666 16.8281L25.8592 16.8513V17.1059L25.7897 17.129L25.7666 16.8281Z" fill="white"/>
<path d="M12.7056 18.0012L12.867 18.0474L12.9132 18.1858L12.7978 18.1627L12.7056 18.0474V18.0012Z" fill="#177DBF"/>
<path d="M41.2563 17.1975H41.2794V17.6825H41.3256L41.2794 17.8904H41.2563V17.1975Z" fill="white"/>
<path d="M26.8983 16.7358H27.1529L27.1761 16.7821L27.0835 16.8053H26.8752L26.8521 16.759L26.8983 16.7358Z" fill="white"/>
<path d="M31.2637 16.7358L31.5646 16.759L31.5877 16.8284L31.5414 16.8516L31.2637 16.7821V16.7358Z" fill="white"/>
<path d="M43.15 18.7888H43.1732L43.15 19.1589L43.1269 19.0895L43.0112 19.0664L43.1038 18.9739L43.1269 18.8119L43.15 18.7888Z" fill="#30393E"/>
<path d="M41.5328 17.4038L41.556 17.4501L41.6023 17.4732L41.5328 17.6816L41.4634 17.7278L41.5328 17.4038Z" fill="white"/>
<path d="M14.0195 18.8105L14.181 18.8336L14.1118 18.8797L14.2271 19.0181L14.0426 18.9259L14.0195 18.8105Z" fill="#3DABDE"/>
<path d="M28.4233 18.4629L28.654 18.6013V18.6474L28.5387 18.6244L28.4233 18.509V18.4629Z" fill="white"/>
<path d="M42.7806 17.8438L42.8728 17.8668V17.936H42.5269V17.9129H42.7575L42.7806 17.8438Z" fill="#334248"/>
<path d="M31.0554 16.7087L31.1019 16.7553L30.9856 16.8483L30.9623 16.8018L30.8228 16.9181L30.8693 16.8251L30.9856 16.732L31.0554 16.7087Z" fill="white"/>
<path d="M40.9587 18.1643H41.0049L41.028 18.3261L40.9355 18.3029V18.1874L40.9587 18.1643Z" fill="white"/>
<path d="M0.424805 26.3381H0.447809V26.5222H0.424805V26.3381Z" fill="#83CBEE"/>
<path d="M0.424805 26.7292L0.471094 26.8218L0.424805 26.8681V26.7292Z" fill="#83CBEE"/>
<path d="M0.424805 26.0828H0.448497V26.2012H0.424805V26.0828Z" fill="#83CBEE"/>
<path d="M40.9785 18.0012L41.0265 18.0493L40.9785 18.0733V18.0012Z" fill="white"/>
<path d="M37.1011 18.8811H37.1469L37.124 18.9269L37.1011 18.8811Z" fill="#5DBCE7"/>
</g>
</mask>
<g mask="url(#mask0_3016_11379)">
<rect x="-1.42871" y="-0.121094" width="61" height="40" fill="white"/>
</g>
<defs>
<clipPath id="clip0_3016_11379">
<rect width="47.2727" height="40" fill="white" transform="translate(0.424805)"/>
</clipPath>
</defs>
</svg>
