<svg width="200" height="50" viewBox="0 0 200 50" fill="none" xmlns="http://www.w3.org/2000/svg">
<g clip-path="url(#clip0_3033_2369)">
<path fill-rule="evenodd" clip-rule="evenodd" d="M51.8937 39.9523L50.6807 38.792C49.8004 39.2412 48.8027 39.4844 47.531 39.4844C45.5747 39.4844 44.2053 38.8856 43.051 37.7815C41.4077 36.2096 41.4077 34.2447 41.4077 31.6435C41.4077 29.0423 41.4077 27.0774 43.051 25.5055C44.2053 24.4014 45.5747 23.8213 47.531 23.8213C49.5069 23.8213 50.8568 24.4014 52.011 25.5055C53.6544 27.0774 53.6544 29.0423 53.6544 31.6435C53.6544 33.7956 53.6544 35.4985 52.7349 36.902L53.9087 38.0248L51.8937 39.9523ZM47.844 36.0786L46.8268 35.1055L48.8418 33.178L49.6047 33.9266C49.683 33.4026 49.7026 32.6915 49.7026 31.6435C49.7026 28.8365 49.4678 28.3125 49.1157 27.8634C48.8222 27.4891 48.2549 27.1897 47.531 27.1897C46.8072 27.1897 46.2399 27.4891 45.9464 27.8634C45.5943 28.3125 45.3595 28.8365 45.3595 31.6435C45.3595 34.4692 45.5943 34.9558 45.9464 35.4049C46.2399 35.7792 46.8072 36.0973 47.531 36.0973C47.6484 36.0973 47.7658 36.0973 47.844 36.0786Z" fill="white"/>
<path d="M57.293 38.4928C56.2366 37.4823 56.0605 36.3782 56.0605 35.1618V27.7139H59.7776V34.6753C59.7776 36.0226 60.7753 36.2846 61.2644 36.2846C61.7535 36.2846 62.7512 36.0226 62.7512 34.6753V27.7139H66.4682V39.3536H62.849V38.3992C62.1056 39.1104 60.9905 39.4846 60.0123 39.4846C58.8581 39.4846 57.9386 39.1104 57.2735 38.4741L57.293 38.4928Z" fill="white"/>
<path fill-rule="evenodd" clip-rule="evenodd" d="M69.5398 38.4176C68.8355 37.7439 68.4834 36.7708 68.4834 35.6854C68.4834 33.9451 69.7159 32.317 72.6895 32.317H75.0762V32.0176C75.0762 30.9509 74.548 30.558 73.2568 30.558C72.4156 30.558 71.907 30.8199 71.3201 31.3813L69.0116 29.1732C70.2637 27.9942 71.3788 27.5825 73.4329 27.5825C76.9152 27.5825 78.7933 28.9673 78.7933 31.793V39.3533H75.1741V38.3989C74.4306 39.11 73.7459 39.4468 72.4548 39.4468C71.2418 39.4468 70.2245 39.0539 69.5398 38.4176ZM74.7045 36.172C74.998 35.91 75.0762 35.5732 75.0762 34.9743V34.6749H73.3155C72.4548 34.6749 72.0244 35.0305 72.0244 35.6293C72.0244 36.172 72.4548 36.5837 73.3547 36.5837C73.9611 36.5837 74.3133 36.4901 74.7045 36.172Z" fill="white"/>
<path d="M81.395 27.7135H85.0142V28.6679C85.7576 27.9568 86.8727 27.5825 87.8314 27.5825C88.9856 27.5825 89.9246 27.9568 90.5702 28.5743C91.6071 29.5661 91.8027 30.6702 91.8027 31.9053V39.3533H88.0857V32.3919C88.0857 31.0445 87.0879 30.7825 86.5989 30.7825C86.0902 30.7825 85.0925 31.0445 85.0925 32.3919V39.3533H81.395V27.7135Z" fill="white"/>
<path d="M98.5327 39.3537C95.8329 39.3537 94.757 37.501 94.757 35.9104V30.8952H93.6418V28.163H94.757V24.832H98.4544V28.163H100.391V30.8952H98.4544V35.6484C98.4544 36.0975 98.7087 36.3595 99.2174 36.3595H100.391V39.3537H98.5327Z" fill="white"/>
<path d="M103.795 38.4928C102.758 37.4823 102.582 36.3782 102.582 35.1618V27.7139H106.299V34.6753C106.299 36.0226 107.277 36.2846 107.786 36.2846C108.275 36.2846 109.273 36.0226 109.273 34.6753V27.7139H112.99V39.3536H109.371V38.3992C108.627 39.1104 107.512 39.4846 106.534 39.4846C105.38 39.4846 104.46 39.1104 103.795 38.4741V38.4928Z" fill="white"/>
<path d="M115.787 27.7135H119.407V28.6679C120.15 27.9568 121.265 27.5825 122.243 27.5825C123.437 27.5825 124.415 27.9568 125.197 28.8176C126.254 27.9194 127.232 27.5825 128.64 27.5825C129.795 27.5825 130.89 27.9568 131.555 28.5743C132.592 29.5661 132.886 30.6702 132.886 31.9053V39.3533H129.169V32.3919C129.169 31.0445 128.19 30.7825 127.682 30.7825C127.193 30.7825 126.195 31.0445 126.195 32.3919V39.3533H122.478V32.3919C122.478 31.0445 121.48 30.7825 120.991 30.7825C120.502 30.7825 119.504 31.0445 119.504 32.3919V39.3533H115.787V27.7135Z" fill="white"/>
<path fill-rule="evenodd" clip-rule="evenodd" d="M142.198 23.9521C144.859 23.9521 146.854 25.4492 146.854 27.9755C146.854 29.5849 145.895 30.9323 144.35 31.4375C146.091 32.0176 147.108 33.365 147.108 35.1428C147.108 37.8937 145.211 39.3533 142.374 39.3533H136.27V23.9521H142.198ZM137.503 24.9814V30.951H142.061C144.017 30.951 145.641 30.0902 145.641 27.9755C145.641 25.8422 144.017 24.9814 142.061 24.9814H137.503ZM137.503 31.9989V38.3054H142.237C144.428 38.3054 145.876 37.1451 145.876 35.1428C145.876 33.1592 144.428 31.9989 142.237 31.9989H137.503Z" fill="white"/>
<path fill-rule="evenodd" clip-rule="evenodd" d="M158.709 32.2048V39.3534H157.555V38.3054C156.616 39.2037 155.775 39.4844 154.229 39.4844C152.606 39.4844 151.725 39.2224 151.021 38.53C150.493 38.0247 150.219 37.2762 150.219 36.4902C150.219 34.5814 151.647 33.4774 154.014 33.4774H157.555V32.3171C157.555 30.6516 156.714 29.7534 154.484 29.7534C152.938 29.7534 152.175 30.1276 151.471 31.082L150.63 30.3896C151.549 29.1545 152.684 28.7803 154.464 28.7803C157.36 28.7803 158.709 30.0154 158.709 32.2048ZM154.151 34.3756C152.293 34.3756 151.373 35.068 151.373 36.4715C151.373 37.875 152.234 38.4926 154.229 38.4926C155.227 38.4926 156.147 38.4177 156.929 37.7066C157.34 37.3323 157.555 36.6586 157.555 35.7043V34.3756H154.151Z" fill="white"/>
<path d="M170.154 29.9031L169.391 30.6329C168.55 30.0528 167.532 29.7534 166.319 29.7534C164.52 29.7534 163.541 30.4645 163.541 31.7557C163.541 32.8598 164.226 33.3651 165.772 33.5148L167.532 33.6645C169.332 33.8329 170.721 34.3569 170.721 36.3779C170.721 38.2867 169.039 39.4844 166.359 39.4844C164.461 39.4844 163.052 38.9978 161.937 37.9873L162.739 37.22C163.581 38.0621 164.774 38.5113 166.3 38.5113C168.452 38.5113 169.587 37.7814 169.587 36.3779C169.587 35.2738 168.96 34.7686 167.513 34.6376L165.693 34.4879C163.502 34.3007 162.407 33.4025 162.407 31.7557C162.407 29.9405 163.952 28.7803 166.319 28.7803C167.845 28.7803 169.176 29.192 170.154 29.8844V29.9031Z" fill="white"/>
<path fill-rule="evenodd" clip-rule="evenodd" d="M182.264 33.8702V34.3754H174.693C174.693 37.0327 175.905 38.4924 178.253 38.4924C179.525 38.4924 180.327 38.1181 181.246 37.2199L182.107 37.8749C181.012 38.9415 179.994 39.4842 178.175 39.4842C175.162 39.4842 173.538 37.6129 173.538 34.1322C173.538 30.6515 175.162 28.7988 177.901 28.7988C180.64 28.7988 182.264 30.6702 182.264 33.8702ZM175.084 31.5123C174.79 32.1485 174.771 32.4854 174.693 33.4959H181.109C181.051 32.4854 181.031 32.1485 180.738 31.5123C180.268 30.4082 179.173 29.7719 177.901 29.7719C176.649 29.7719 175.592 30.4456 175.084 31.5123Z" fill="white"/>
<path d="M187.135 36.6212C187.135 37.8188 187.526 38.3802 188.798 38.3802H189.6V39.3533H188.602C186.822 39.3533 185.981 38.2867 185.981 36.6399V23.9521H187.135V36.6212Z" fill="white"/>
<g clip-path="url(#clip1_3033_2369)">
<path d="M42.7636 22.2887C41.7431 22.3051 40.7469 22.1417 39.7638 21.8993C39.5623 21.8492 39.4778 21.9006 39.3837 22.0594C38.762 23.1063 38.1139 24.1386 37.3247 25.0821C36.6005 25.9471 35.7974 26.7331 34.7839 27.3016C33.4525 28.0481 32.0464 28.2088 30.5683 27.7964C29.2321 27.4235 28.0538 26.764 26.9523 25.9695C26.4448 25.6032 25.9727 25.1993 25.5268 24.7665C24.5659 23.8329 23.7448 22.7999 23.0677 21.6634C22.3975 20.5388 21.8686 19.3608 21.5557 18.0985C21.3736 17.3613 21.278 16.6168 21.3313 15.8625C21.4449 14.2576 22.5305 13.2311 24.1526 13.0566C24.8546 12.9808 25.5254 13.0908 26.188 13.2759C27.7575 13.7147 29.183 14.4539 30.5946 15.2182C32.3109 16.1471 34.0119 17.1017 35.767 17.9674C36.5583 18.3575 37.3649 18.7178 38.1569 19.1065C38.4116 19.2317 38.4179 19.2205 38.555 18.9623C39.3968 17.3771 40.2255 15.7854 41.264 14.3044C41.8483 13.471 42.4991 12.6929 43.3368 12.0723C44.0458 11.5465 44.8378 11.2158 45.7427 11.2178C46.8608 11.2204 47.8113 11.6263 48.5659 12.4135C49.3593 13.241 49.7561 14.2372 49.8821 15.3394C50.0482 16.7934 49.6799 18.1328 48.8117 19.3226C47.6562 20.9051 46.0514 21.8598 44.0555 22.2083C43.8436 22.2452 43.6283 22.2722 43.413 22.2854C43.197 22.2985 42.9796 22.288 42.7636 22.288V22.2887ZM24.55 15.1885C23.733 15.1865 23.4893 15.6721 23.5274 16.2703C23.5814 17.1235 23.8043 17.951 24.1173 18.7554C24.4371 19.5789 24.8587 20.3511 25.3482 21.0935C25.8238 21.8143 26.3708 22.4823 26.9862 23.0983C27.8454 23.9581 28.823 24.6795 29.9314 25.2244C30.6244 25.565 31.3361 25.8654 32.1537 25.8232C32.601 25.8002 33.0226 25.7126 33.4242 25.5301C34.1926 25.1802 34.786 24.6288 35.3253 24.0187C36.0813 23.1629 36.6815 22.2076 37.2721 21.2464C37.3365 21.1423 37.3226 21.0982 37.207 21.0455C36.3527 20.6587 35.5011 20.2647 34.6606 19.851C33.0254 19.0466 31.4372 18.1624 29.8414 17.2921C28.7676 16.7064 27.6903 16.1247 26.5411 15.678C25.9007 15.429 25.2513 15.2162 24.5507 15.1892L24.55 15.1885ZM40.5987 19.878C40.7725 19.9248 40.9255 19.9815 41.0833 20.0058C41.885 20.1323 42.6895 20.1929 43.503 20.1C44.6495 19.9689 45.6097 19.4748 46.4225 18.7211C47.0996 18.0933 47.5115 17.3251 47.6278 16.4205C47.7365 15.5785 47.5856 14.7919 47.074 14.0896C46.5561 13.3787 45.6693 13.189 44.9603 13.6231C44.4369 13.9433 44.0098 14.3709 43.6435 14.8374C42.8792 15.8111 42.2527 16.8685 41.6656 17.947C41.3153 18.5907 40.9566 19.2304 40.5987 19.878Z" fill="white"/>
</g>
</g>
<defs>
<clipPath id="clip0_3033_2369">
<rect width="179.2" height="32" fill="white" transform="translate(10.3999 9)"/>
</clipPath>
<clipPath id="clip1_3033_2369">
<rect width="28.6047" height="16.8" fill="white" transform="translate(21.3174 11.2178)"/>
</clipPath>
</defs>
</svg>
