<svg width="225" height="40" viewBox="0 0 225 40" fill="none" xmlns="http://www.w3.org/2000/svg">
<g clip-path="url(#clip0_3016_11383)">
<path fill-rule="evenodd" clip-rule="evenodd" d="M52.0183 38.6901L50.5022 37.2398C49.4017 37.8012 48.1546 38.1053 46.565 38.1053C44.1196 38.1053 42.4078 37.3568 40.965 35.9767C38.9109 34.0117 38.9109 31.5556 38.9109 28.3041C38.9109 25.0527 38.9109 22.5965 40.965 20.6316C42.4078 19.2515 44.1196 18.5264 46.565 18.5264C49.0349 18.5264 50.7222 19.2515 52.165 20.6316C54.2192 22.5965 54.2192 25.0527 54.2192 28.3041C54.2192 30.9942 54.2192 33.1229 53.0698 34.8772L54.5371 36.2808L52.0183 38.6901ZM46.9563 33.848L45.6847 32.6316L48.2035 30.2223L49.1572 31.1579C49.255 30.503 49.2794 29.6141 49.2794 28.3041C49.2794 24.7954 48.986 24.1404 48.5458 23.579C48.179 23.1112 47.4698 22.7369 46.565 22.7369C45.6602 22.7369 44.9511 23.1112 44.5843 23.579C44.1441 24.1404 43.8506 24.7954 43.8506 28.3041C43.8506 31.8363 44.1441 32.4445 44.5843 33.0059C44.9511 33.4737 45.6602 33.8714 46.565 33.8714C46.7118 33.8714 46.8585 33.8714 46.9563 33.848Z" fill="white"/>
<path d="M58.7677 36.8655C57.4471 35.6024 57.2271 34.2223 57.2271 32.7018V23.3918H61.8733V32.0936C61.8733 33.7778 63.1205 34.1053 63.7319 34.1053C64.3432 34.1053 65.5904 33.7778 65.5904 32.0936V23.3918H70.2367V37.9416H65.7126V36.7486C64.7834 37.6375 63.3895 38.1053 62.1668 38.1053C60.724 38.1053 59.5747 37.6375 58.7432 36.8421L58.7677 36.8655Z" fill="white"/>
<path fill-rule="evenodd" clip-rule="evenodd" d="M74.0759 36.7719C73.1955 35.9298 72.7554 34.7134 72.7554 33.3567C72.7554 31.1812 74.296 29.1462 78.013 29.1462H80.9964V28.7719C80.9964 27.4386 80.3362 26.9473 78.7222 26.9473C77.6707 26.9473 77.0348 27.2748 76.3012 27.9766L73.4156 25.2163C74.9807 23.7426 76.3746 23.228 78.9423 23.228C83.2951 23.228 85.6427 24.959 85.6427 28.4912V37.9415H81.1187V36.7485C80.1894 37.6374 79.3335 38.0584 77.7196 38.0584C76.2034 38.0584 74.9318 37.5672 74.0759 36.7719ZM80.5318 33.9649C80.8986 33.6374 80.9964 33.2163 80.9964 32.4678V32.0935H78.7955C77.7196 32.0935 77.1816 32.538 77.1816 33.2865C77.1816 33.9649 77.7196 34.4795 78.8445 34.4795C79.6025 34.4795 80.0427 34.3625 80.5318 33.9649Z" fill="white"/>
<path d="M88.8953 23.3918H93.4193V24.5848C94.3485 23.6959 95.7424 23.228 96.9407 23.228C98.3835 23.228 99.5573 23.6959 100.364 24.4678C101.66 25.7076 101.905 27.0877 101.905 28.6315V37.9415H97.2586V29.2397C97.2586 27.5555 96.0114 27.228 95.4001 27.228C94.7643 27.228 93.5171 27.5555 93.5171 29.2397V37.9415H88.8953V23.3918Z" fill="white"/>
<path d="M110.317 37.9416C106.942 37.9416 105.597 35.6258 105.597 33.6375V27.3685H104.203V23.9533H105.597V19.7896H110.219V23.9533H112.64V27.3685H110.219V33.31C110.219 33.8714 110.537 34.1989 111.173 34.1989H112.64V37.9416H110.317Z" fill="white"/>
<path d="M116.895 36.8655C115.599 35.6024 115.379 34.2223 115.379 32.7018V23.3918H120.025V32.0936C120.025 33.7778 121.248 34.1053 121.884 34.1053C122.495 34.1053 123.742 33.7778 123.742 32.0936V23.3918H128.389V37.9416H123.864V36.7486C122.935 37.6375 121.541 38.1053 120.319 38.1053C118.876 38.1053 117.727 37.6375 116.895 36.8421V36.8655Z" fill="white"/>
<path d="M131.885 23.3918H136.41V24.5848C137.339 23.6959 138.733 23.228 139.955 23.228C141.447 23.228 142.67 23.6959 143.648 24.7719C144.968 23.6491 146.191 23.228 147.952 23.228C149.395 23.228 150.764 23.6959 151.596 24.4678C152.892 25.7076 153.258 27.0877 153.258 28.6315V37.9415H148.612V29.2397C148.612 27.5555 147.389 27.228 146.754 27.228C146.142 27.228 144.895 27.5555 144.895 29.2397V37.9415H140.249V29.2397C140.249 27.5555 139.002 27.228 138.39 27.228C137.779 27.228 136.532 27.5555 136.532 29.2397V37.9415H131.885V23.3918Z" fill="white"/>
<path fill-rule="evenodd" clip-rule="evenodd" d="M164.899 18.6902C168.224 18.6902 170.719 20.5615 170.719 23.7194C170.719 25.7311 169.52 27.4153 167.589 28.0469C169.765 28.7721 171.037 30.4563 171.037 32.6785C171.037 36.1171 168.665 37.9416 165.119 37.9416H157.489V18.6902H164.899ZM159.03 19.9767V27.4387H164.727C167.173 27.4387 169.203 26.3627 169.203 23.7194C169.203 21.0528 167.173 19.9767 164.727 19.9767H159.03ZM159.03 28.7487V36.6317H164.948C167.686 36.6317 169.496 35.1814 169.496 32.6785C169.496 30.199 167.686 28.7487 164.948 28.7487H159.03Z" fill="white"/>
<path fill-rule="evenodd" clip-rule="evenodd" d="M185.538 29.0058V37.9415H184.095V36.6315C182.921 37.7543 181.87 38.1052 179.938 38.1052C177.908 38.1052 176.808 37.7777 175.927 36.9122C175.267 36.2807 174.925 35.345 174.925 34.3625C174.925 31.9766 176.71 30.5964 179.669 30.5964H184.095V29.1462C184.095 27.0643 183.044 25.9415 180.256 25.9415C178.324 25.9415 177.37 26.4093 176.49 27.6023L175.438 26.7368C176.588 25.1929 178.006 24.7251 180.231 24.7251C183.851 24.7251 185.538 26.269 185.538 29.0058ZM179.84 31.7193C177.517 31.7193 176.368 32.5847 176.368 34.3391C176.368 36.0935 177.444 36.8655 179.938 36.8655C181.185 36.8655 182.334 36.7719 183.313 35.883C183.826 35.4152 184.095 34.5731 184.095 33.3801V31.7193H179.84Z" fill="white"/>
<path d="M199.844 26.1286L198.89 27.0409C197.839 26.3157 196.567 25.9415 195.051 25.9415C192.801 25.9415 191.578 26.8304 191.578 28.4444C191.578 29.8245 192.434 30.4561 194.366 30.6432L196.567 30.8304C198.817 31.0409 200.553 31.6959 200.553 34.2222C200.553 36.6081 198.45 38.1052 195.1 38.1052C192.728 38.1052 190.967 37.497 189.573 36.2339L190.576 35.2748C191.627 36.3274 193.119 36.8888 195.026 36.8888C197.716 36.8888 199.135 35.9766 199.135 34.2222C199.135 32.8421 198.352 32.2105 196.542 32.0467L194.268 31.8596C191.529 31.6257 190.16 30.5029 190.16 28.4444C190.16 26.1754 192.092 24.7251 195.051 24.7251C196.958 24.7251 198.621 25.2397 199.844 26.1052V26.1286Z" fill="white"/>
<path fill-rule="evenodd" clip-rule="evenodd" d="M214.981 31.0877V31.7193H205.517C205.517 35.0409 207.033 36.8655 209.968 36.8655C211.557 36.8655 212.56 36.3977 213.709 35.2748L214.785 36.0936C213.416 37.4269 212.144 38.1053 209.87 38.1053C206.104 38.1053 204.074 35.7661 204.074 31.4152C204.074 27.0643 206.104 24.7485 209.527 24.7485C212.951 24.7485 214.981 27.0877 214.981 31.0877ZM206.006 28.1403C205.639 28.9357 205.615 29.3567 205.517 30.6199H213.538C213.465 29.3567 213.44 28.9357 213.073 28.1403C212.486 26.7602 211.117 25.9649 209.527 25.9649C207.962 25.9649 206.642 26.807 206.006 28.1403Z" fill="white"/>
<path d="M221.07 34.5264C221.07 36.0235 221.559 36.7253 223.148 36.7253H224.151V37.9416H222.904C220.678 37.9416 219.627 36.6083 219.627 34.5498V18.6902H221.07V34.5264Z" fill="white"/>
<g clip-path="url(#clip1_3016_11383)">
<path d="M40.6058 16.6108C39.3302 16.6314 38.0849 16.4272 36.856 16.1241C36.6042 16.0615 36.4986 16.1258 36.3809 16.3242C35.6038 17.6328 34.7937 18.9233 33.8072 20.1026C32.902 21.1839 31.8981 22.1663 30.6311 22.8771C28.967 23.8101 27.2093 24.0111 25.3617 23.4955C23.6915 23.0294 22.2186 22.2051 20.8417 21.2119C20.2074 20.754 19.6172 20.2492 19.0598 19.7081C17.8587 18.5412 16.8323 17.2499 15.9859 15.8293C15.1482 14.4235 14.487 12.9511 14.0959 11.3732C13.8683 10.4516 13.7489 9.52105 13.8155 8.57811C13.9574 6.57199 15.3144 5.28893 17.342 5.0707C18.2195 4.97599 19.0581 5.11352 19.8863 5.34493C21.8482 5.8934 23.63 6.8174 25.3946 7.7727C27.5399 8.93387 29.6662 10.1272 31.86 11.2093C32.8492 11.6968 33.8574 12.1473 34.8474 12.6332C35.1659 12.7896 35.1737 12.7756 35.345 12.4528C36.3973 10.4714 37.4332 8.48176 38.7313 6.63046C39.4617 5.5887 40.2752 4.61611 41.3223 3.84035C42.2085 3.18317 43.1985 2.76976 44.3296 2.77223C45.7272 2.77552 46.9154 3.28282 47.8587 4.26693C48.8505 5.30129 49.3464 6.54646 49.5039 7.92423C49.7116 9.74176 49.2512 11.416 48.166 12.9033C46.7216 14.8814 44.7156 16.0747 42.2206 16.5103C41.9558 16.5565 41.6867 16.5902 41.4175 16.6067C41.1475 16.6232 40.8758 16.61 40.6058 16.61V16.6108ZM17.8388 7.73564C16.8176 7.73317 16.513 8.34011 16.5606 9.08787C16.6281 10.1543 16.9067 11.1887 17.2979 12.1942C17.6977 13.2236 18.2247 14.1888 18.8366 15.1169C19.4311 16.0179 20.1148 16.8529 20.8841 17.6229C21.9581 18.6976 23.18 19.5994 24.5655 20.2805C25.4318 20.7062 26.3214 21.0818 27.3435 21.0291C27.9025 21.0002 28.4296 20.8907 28.9315 20.6626C29.8921 20.2253 30.6337 19.536 31.3079 18.7734C32.2529 17.7036 33.0032 16.5095 33.7414 15.308C33.8219 15.1779 33.8046 15.1227 33.6601 15.0568C32.5922 14.5734 31.5277 14.0809 30.4771 13.5638C28.433 12.5582 26.4478 11.4531 24.453 10.3652C23.1108 9.63305 21.7642 8.90587 20.3277 8.34752C19.5272 8.03623 18.7154 7.77023 17.8396 7.73646L17.8388 7.73564ZM37.8997 13.5975C38.1169 13.656 38.3081 13.7268 38.5055 13.7573C39.5076 13.9154 40.5132 13.9912 41.53 13.8751C42.9632 13.7112 44.1635 13.0935 45.1794 12.1514C46.0258 11.3666 46.5407 10.4063 46.6861 9.27564C46.822 8.22317 46.6333 7.23987 45.9938 6.36199C45.3465 5.4734 44.2379 5.23623 43.3517 5.77893C42.6975 6.17917 42.1635 6.71364 41.7057 7.2967C40.7503 8.51387 39.9671 9.83564 39.2333 11.1838C38.7954 11.9883 38.3471 12.788 37.8997 13.5975Z" fill="white"/>
</g>
</g>
<defs>
<clipPath id="clip0_3016_11383">
<rect width="224" height="40" fill="white" transform="translate(0.151123)"/>
</clipPath>
<clipPath id="clip1_3016_11383">
<rect width="35.7559" height="21" fill="white" transform="translate(13.7979 2.77222)"/>
</clipPath>
</defs>
</svg>
