<svg width="200" height="50" viewBox="0 0 200 50" fill="none" xmlns="http://www.w3.org/2000/svg">
<g clip-path="url(#clip0_3033_2852)">
<path d="M80.4239 21.9938V16.2695C81.8052 16.2695 83.102 16.2239 84.3926 16.2874C85.1079 16.3212 86.714 18.2292 86.714 18.9261C86.7181 23.8859 86.7181 28.8457 86.714 33.8055C86.714 34.56 85.0708 36.4343 84.2977 36.4701C83.0422 36.5257 81.7805 36.486 80.4074 36.486C80.4074 34.7566 80.3579 33.1424 80.428 31.5341C80.4651 30.6923 80.1765 30.1165 79.558 29.5486C77.9437 28.0654 76.3913 26.5207 74.8121 25.0038C74.6513 24.8509 74.4719 24.7159 74.14 24.4399V36.482C72.7422 36.482 71.4475 36.5336 70.159 36.4621C69.3962 36.4185 67.8066 34.4766 67.8066 33.734C67.8025 28.8398 67.8005 23.9475 67.8066 19.0532C67.8066 17.9135 69.5693 16.3926 70.7383 16.2358C73.1648 15.9141 74.9956 16.6567 76.513 18.5251C77.5788 19.8355 78.921 20.9355 80.1394 22.1288C80.2342 22.0831 80.3291 22.0394 80.426 21.9938H80.4239Z" fill="white"/>
<path d="M122.582 26.4195C122.611 26.4771 122.626 26.5585 122.673 26.5903C124.39 27.7021 124.766 29.3044 124.508 31.1569C124.45 31.5798 124.428 32.0286 124.512 32.4435C124.846 34.0875 124.054 35.2252 122.778 36.1485C122.549 36.3133 122.24 36.4721 121.968 36.4721C117.335 36.486 112.703 36.4761 108.068 36.4681C108.007 36.4681 107.947 36.4225 107.817 36.3728V16.2597C108.132 16.2597 108.46 16.2597 108.786 16.2597C113.041 16.2597 117.298 16.2577 121.554 16.2597C122.855 16.2597 124.491 17.8501 124.496 19.1069C124.5 20.3955 124.428 21.69 124.518 22.9727C124.59 23.9873 124.331 24.7755 123.469 25.3712C123.106 25.6213 122.758 25.8914 122.401 26.1515C122.461 26.2408 122.518 26.3302 122.578 26.4195H122.582ZM118.255 20.2724C116.915 20.2724 115.725 20.2426 114.542 20.3022C114.356 20.3121 114.062 20.7092 114.039 20.9474C113.816 23.2718 114.913 24.4095 117.329 24.3605C117.432 24.3585 117.568 24.3983 117.63 24.3506C117.853 24.1779 118.216 23.9833 118.226 23.7828C118.284 22.6709 118.255 21.555 118.255 20.2704V20.2724ZM114.022 28.407C114.022 29.6519 114.002 30.7995 114.043 31.9452C114.049 32.1219 114.33 32.4336 114.492 32.4376C115.713 32.4793 116.933 32.4614 118.17 32.4614V28.407H114.022Z" fill="white"/>
<path d="M88.8721 36.4921V16.2598C89.2906 16.2598 89.6576 16.2598 90.0245 16.2598C94.1787 16.2598 98.333 16.2598 102.487 16.2598C103.994 16.2598 105.633 17.8124 105.633 19.24C105.635 24.035 105.637 28.828 105.639 33.623C105.639 34.8242 103.926 36.4901 102.677 36.4901C98.1144 36.4941 93.552 36.4901 88.8721 36.4901V36.4921ZM95.2075 20.334V32.4059H99.2751V20.334H95.2075Z" fill="white"/>
<path d="M59.3908 36.514V28.4767H55.2201V36.5021C53.8223 36.5021 52.4967 36.5636 51.1813 36.4783C50.3897 36.4266 48.9053 34.4987 48.9053 33.7025C48.9053 28.84 48.9053 23.9795 48.9115 19.117C48.9115 17.9694 50.6288 16.2876 51.8019 16.2876C55.4757 16.2837 59.1516 16.2837 62.8255 16.2876C63.9429 16.2876 65.6953 17.9614 65.6974 19.0316C65.7035 23.9596 65.7035 28.8877 65.6974 33.8157C65.6974 34.8521 63.9718 36.5021 62.8935 36.51C61.7699 36.518 60.6463 36.51 59.3929 36.51L59.3908 36.514ZM57.3498 20.072C56.4962 20.9059 55.6407 21.7418 54.8181 22.544C55.6345 23.3362 56.4901 24.1681 57.2714 24.9246C58.1291 24.1185 58.9991 23.3024 59.8918 22.4646C59.0692 21.6902 58.2404 20.9099 57.3498 20.072Z" fill="white"/>
<path d="M126.65 26.4057C126.65 23.9596 126.648 21.5154 126.65 19.0693C126.65 17.88 128.312 16.2618 129.542 16.2598C133.214 16.2558 136.886 16.2558 140.556 16.2598C141.688 16.2598 143.419 17.9098 143.421 18.9958C143.428 23.9199 143.426 28.842 143.421 33.766C143.421 34.7786 141.681 36.4842 140.636 36.4862C136.931 36.4941 133.225 36.4921 129.52 36.4862C128.38 36.4842 126.667 34.8402 126.66 33.7402C126.65 31.2941 126.658 28.8499 126.658 26.4038H126.648L126.65 26.4057ZM132.996 20.3241V32.402H137.088V20.3241H132.996Z" fill="white"/>
<path d="M151.849 36.4861C150.478 36.4861 149.216 36.5258 147.959 36.4703C147.21 36.4385 145.545 34.5225 145.543 33.7938C145.536 32.4377 145.602 31.0796 145.522 29.7275C145.466 28.7883 145.695 28.0517 146.487 27.4898C146.899 27.196 147.295 26.8822 147.65 26.6142C147.493 26.3045 147.472 26.1853 147.402 26.1397C145.716 25.0238 145.262 23.4513 145.532 21.5869C145.588 21.1977 145.602 20.7828 145.53 20.3996C145.233 18.829 145.86 17.6457 147.147 16.7462C147.456 16.5298 147.841 16.3015 148.202 16.2836C149.363 16.2241 150.53 16.2618 151.845 16.2618C151.845 17.6278 151.989 18.9561 151.81 20.2427C151.552 22.0873 152.461 23.2329 153.971 24.2415C155.067 23.3024 156.325 22.5181 156.082 20.6875C155.896 19.2917 156.045 17.8542 156.045 16.2856C157.451 16.2856 158.813 16.1963 160.156 16.3174C160.98 16.3908 162.351 18.4161 162.353 19.2599C162.353 20.5167 162.291 21.7755 162.374 23.0284C162.436 23.9675 162.192 24.6942 161.407 25.2641C161.001 25.5599 160.634 25.9074 160.316 26.1734C160.399 26.4157 160.401 26.503 160.444 26.5328C162.201 27.6943 162.638 29.3383 162.361 31.2682C162.302 31.6892 162.275 32.1419 162.366 32.5529C162.743 34.2505 161.71 35.267 160.522 36.2082C160.331 36.361 160.04 36.4683 159.793 36.4742C158.595 36.502 157.397 36.4861 156.047 36.4861C156.047 35.1201 155.906 33.7938 156.08 32.5052C156.325 30.6726 155.471 29.4952 153.905 28.5064C152.853 29.4436 151.558 30.198 151.812 32.0426C152.006 33.4642 151.851 34.9295 151.851 36.4861H151.849Z" fill="white"/>
<path d="M40.4729 20.2665C39.1988 20.2665 38.036 20.2427 36.8774 20.2904C36.6733 20.2983 36.3187 20.6021 36.3104 20.7828C36.2589 21.9304 36.2836 23.082 36.2836 24.3785C37.6773 24.3785 38.9679 24.3785 40.2606 24.3785C41.1883 24.3785 42.1222 24.446 43.0417 24.3606C44.2333 24.2494 45.1095 24.6049 45.9198 25.4725C46.5156 26.1079 46.8186 26.7015 46.7939 27.5633C46.7382 29.6123 46.7774 31.6653 46.7733 33.7163C46.7712 34.8262 45.0827 36.4861 43.9426 36.4881C40.2317 36.496 36.5207 36.4961 32.8118 36.4901C31.7996 36.4901 30.0389 34.8342 30.0245 33.8732C30.008 32.7573 30.0204 31.6415 30.0204 30.4105C31.8449 30.4105 33.552 30.4085 35.2611 30.4125C35.5621 30.4125 35.8631 30.4422 36.2568 30.4641V32.3682H40.4605V28.3753C38.8978 28.3753 37.3639 28.3753 35.8321 28.3753C35.2137 28.3753 34.5849 28.3058 33.9787 28.3892C32.6304 28.5759 31.6388 28.1351 30.7543 27.1403C30.2451 26.5665 29.9833 26.0543 29.9998 25.3038C30.0451 23.1872 30.0101 21.0687 30.0224 18.9521C30.0286 17.9077 31.748 16.2637 32.8283 16.2637C36.5393 16.2578 40.2502 16.2578 43.9591 16.2637C45.0498 16.2657 46.7568 17.9097 46.7692 18.9561C46.7815 20.0104 46.7712 21.0667 46.7712 22.2183H40.5616C40.5327 21.6028 40.5059 21.0151 40.4708 20.2665H40.4729Z" fill="white"/>
<path d="M166.217 30.0232C164.992 28.8379 163.739 27.6248 162.535 26.4573C163.809 25.2501 165.093 24.035 166.347 22.8496C167.468 23.9635 168.74 25.2243 169.998 26.4732C168.841 27.5592 167.553 28.7704 166.217 30.0232Z" fill="white"/>
<path d="M57.1087 37.7388C57.1932 37.8004 57.3087 37.8679 57.4014 37.9552C58.5993 39.079 59.793 40.2048 60.9516 41.2988C59.6012 42.5993 58.3271 43.8244 57.1046 44.9978C55.8861 43.8085 54.6017 42.5556 53.3833 41.3643C54.5481 40.2306 55.816 38.9976 57.1108 37.7368L57.1087 37.7388Z" fill="white"/>
<path d="M97.5355 9.57682C98.791 9.39018 99.0467 9.57682 99.059 10.6569C99.0693 11.5147 99.0673 12.3704 99.0632 13.2282C99.0549 14.3619 98.8776 14.5088 97.5396 14.4036C97.5087 13.8119 97.4757 13.2063 97.4386 12.5352H95.9645C95.9336 13.1567 95.9047 13.7404 95.8779 14.3103C94.7152 14.6081 94.377 14.3897 94.3626 13.3394C94.3502 12.4498 94.3564 11.5584 94.3626 10.6688C94.3709 9.55696 94.6079 9.38025 95.8676 9.58873C95.8985 10.1586 95.9315 10.7443 95.9666 11.4035H97.4345C97.4695 10.784 97.5046 10.1745 97.5375 9.57682H97.5355Z" fill="white"/>
<path d="M103.499 10.462H101.599C101.57 10.7995 101.545 11.0755 101.512 11.4587H103.551V12.4475H101.619C101.574 12.787 101.539 13.063 101.489 13.4383C102.223 13.474 102.889 13.5058 103.537 13.5356C103.565 13.6547 103.611 13.7302 103.592 13.7798C103.32 14.4707 102.159 14.7388 100.694 14.4668C99.9802 14.3337 99.9246 13.8374 99.9328 13.2735C99.9472 12.384 99.9349 11.4945 99.9411 10.603C99.9411 10.4064 99.8936 10.1682 99.9885 10.0192C100.652 8.97486 101.726 9.5864 102.611 9.50301C102.955 9.47124 103.345 9.87231 103.714 10.0748C103.642 10.2019 103.57 10.329 103.497 10.458L103.499 10.462Z" fill="white"/>
<path d="M90.3032 10.5175C89.7012 10.4699 89.2683 10.4361 88.8353 10.4024L88.6704 10.1284C88.9632 9.90995 89.2807 9.47711 89.5446 9.50689C90.8537 9.65382 92.3546 8.9172 93.474 10.0192C93.4679 10.1323 93.4617 10.2475 93.4555 10.3607C92.9751 10.4143 92.4968 10.4679 91.8763 10.5354C91.8763 11.4646 91.9464 12.4216 91.8412 13.3588C91.7979 13.7479 91.4165 14.3734 91.1217 14.4111C90.429 14.5024 90.2888 13.9187 90.3012 13.329C90.3197 12.4117 90.3053 11.4924 90.3053 10.5155L90.3032 10.5175Z" fill="white"/>
<path d="M103.201 5V7.67448H100.393V5H103.201Z" fill="white"/>
</g>
<defs>
<clipPath id="clip0_3033_2852">
<rect width="140" height="40" fill="white" transform="translate(30 5)"/>
</clipPath>
</defs>
</svg>
