<svg width="141" height="40" viewBox="0 0 141 40" fill="none" xmlns="http://www.w3.org/2000/svg">
<g clip-path="url(#clip0_3016_11377)">
<path d="M51.1744 16.994V11.2698C52.5557 11.2698 53.8525 11.2241 55.143 11.2877C55.8584 11.3214 57.4645 13.2295 57.4645 13.9264C57.4686 18.8862 57.4686 23.846 57.4645 28.8058C57.4645 29.5603 55.8213 31.4346 55.0482 31.4703C53.7927 31.5259 52.5309 31.4862 51.1579 31.4862C51.1579 29.7568 51.1084 28.1426 51.1785 26.5344C51.2156 25.6925 50.927 25.1167 50.3085 24.5488C48.6942 23.0657 47.1418 21.521 45.5626 20.004C45.4018 19.8511 45.2224 19.7161 44.8905 19.4401V31.4822C43.4927 31.4822 42.198 31.5339 40.9095 31.4624C40.1467 31.4187 38.5571 29.4769 38.5571 28.7343C38.553 23.84 38.5509 18.9477 38.5571 14.0535C38.5571 12.9138 40.3198 11.3929 41.4888 11.236C43.9153 10.9144 45.7461 11.657 47.2634 13.5253C48.3293 14.8358 49.6714 15.9357 50.8899 17.129C50.9847 17.0833 51.0795 17.0397 51.1764 16.994H51.1744Z" fill="white"/>
<path d="M93.3329 21.4197C93.3617 21.4773 93.3762 21.5587 93.4236 21.5905C95.1409 22.7024 95.5162 24.3047 95.2584 26.1572C95.2007 26.5801 95.178 27.0288 95.2626 27.4438C95.5966 29.0878 94.8049 30.2255 93.5287 31.1487C93.2999 31.3135 92.9906 31.4724 92.7185 31.4724C88.086 31.4863 83.4535 31.4763 78.8189 31.4684C78.7571 31.4684 78.6973 31.4227 78.5674 31.3731V11.2599C78.8828 11.2599 79.2106 11.2599 79.5364 11.2599C83.7916 11.2599 88.0489 11.2579 92.3041 11.2599C93.605 11.2599 95.242 12.8503 95.2461 14.1071C95.2502 15.3957 95.178 16.6903 95.2688 17.9729C95.3409 18.9875 95.0811 19.7757 94.2194 20.3714C93.8565 20.6216 93.5081 20.8916 93.1514 21.1517C93.2112 21.2411 93.269 21.3304 93.3287 21.4197H93.3329ZM89.0055 15.2726C87.6654 15.2726 86.4758 15.2428 85.2925 15.3024C85.1069 15.3123 84.8121 15.7094 84.7894 15.9477C84.5668 18.2721 85.6636 19.4098 88.0798 19.3608C88.1829 19.3588 88.319 19.3985 88.3808 19.3509C88.6035 19.1781 88.9663 18.9835 88.9766 18.783C89.0343 17.6711 89.0055 16.5553 89.0055 15.2706V15.2726ZM84.7729 23.4072C84.7729 24.6521 84.7523 25.7998 84.7935 26.9454C84.7997 27.1221 85.0801 27.4338 85.243 27.4378C86.4635 27.4795 87.684 27.4616 88.921 27.4616V23.4072H84.7729Z" fill="white"/>
<path d="M59.6226 31.4921V11.2598C60.0411 11.2598 60.408 11.2598 60.775 11.2598C64.9292 11.2598 69.0834 11.2598 73.2377 11.2598C74.7447 11.2598 76.3837 12.8124 76.3837 14.24C76.3858 19.035 76.3878 23.828 76.3899 28.623C76.3899 29.8242 74.6767 31.4901 73.4273 31.4901C68.8649 31.4941 64.3025 31.4901 59.6226 31.4901V31.4921ZM65.958 15.334V27.4059H70.0256V15.334H65.958Z" fill="white"/>
<path d="M30.1413 31.514V23.4767H25.9706V31.5021C24.5728 31.5021 23.2471 31.5636 21.9318 31.4783C21.1401 31.4266 19.6558 29.4987 19.6558 28.7025C19.6558 23.84 19.6558 18.9795 19.6619 14.117C19.6619 12.9694 21.3793 11.2876 22.5524 11.2876C26.2262 11.2837 29.9021 11.2837 33.576 11.2876C34.6934 11.2876 36.4458 12.9614 36.4478 14.0316C36.454 18.9596 36.454 23.8877 36.4478 28.8157C36.4478 29.8521 34.7222 31.5021 33.644 31.51C32.5204 31.518 31.3968 31.51 30.1433 31.51L30.1413 31.514ZM28.1003 15.072C27.2467 15.9059 26.3911 16.7418 25.5686 17.544C26.385 18.3362 27.2405 19.1681 28.0219 19.9246C28.8796 19.1185 29.7496 18.3024 30.6423 17.4646C29.8197 16.6902 28.9909 15.9099 28.1003 15.072Z" fill="white"/>
<path d="M97.4005 21.4057C97.4005 18.9596 97.3984 16.5154 97.4005 14.0693C97.4005 12.88 99.0622 11.2618 100.293 11.2598C103.965 11.2558 107.637 11.2558 111.306 11.2598C112.438 11.2598 114.17 12.9098 114.172 13.9958C114.178 18.9199 114.176 23.842 114.172 28.766C114.172 29.7786 112.432 31.4842 111.387 31.4862C107.682 31.4941 103.975 31.4921 100.27 31.4862C99.1302 31.4842 97.417 29.8402 97.4108 28.7402C97.4005 26.2941 97.4087 23.8499 97.4087 21.4038H97.3984L97.4005 21.4057ZM103.746 15.3241V27.402H107.839V15.3241H103.746Z" fill="white"/>
<path d="M122.6 31.4861C121.229 31.4861 119.967 31.5258 118.709 31.4703C117.961 31.4385 116.295 29.5225 116.293 28.7938C116.287 27.4377 116.353 26.0796 116.272 24.7275C116.217 23.7883 116.446 23.0517 117.237 22.4898C117.65 22.196 118.045 21.8822 118.4 21.6142C118.243 21.3045 118.223 21.1853 118.153 21.1397C116.466 20.0238 116.013 18.4513 116.283 16.5869C116.338 16.1977 116.353 15.7828 116.281 15.3996C115.984 13.829 116.611 12.6457 117.897 11.7462C118.206 11.5298 118.592 11.3015 118.953 11.2836C120.113 11.2241 121.28 11.2618 122.596 11.2618C122.596 12.6278 122.74 13.9561 122.56 15.2427C122.303 17.0873 123.212 18.2329 124.721 19.2415C125.818 18.3024 127.075 17.5181 126.832 15.6875C126.647 14.2917 126.795 12.8542 126.795 11.2856C128.201 11.2856 129.564 11.1963 130.906 11.3174C131.731 11.3908 133.102 13.4161 133.104 14.2599C133.104 15.5167 133.042 16.7755 133.124 18.0284C133.186 18.9675 132.943 19.6942 132.157 20.2641C131.751 20.5599 131.384 20.9074 131.067 21.1734C131.149 21.4157 131.151 21.503 131.195 21.5328C132.951 22.6943 133.388 24.3383 133.112 26.2682C133.052 26.6892 133.025 27.1419 133.116 27.5529C133.493 29.2505 132.46 30.267 131.273 31.2082C131.081 31.361 130.791 31.4683 130.543 31.4742C129.345 31.502 128.148 31.4861 126.797 31.4861C126.797 30.1201 126.657 28.7938 126.83 27.5052C127.075 25.6726 126.222 24.4952 124.655 23.5064C123.604 24.4436 122.309 25.198 122.563 27.0426C122.756 28.4642 122.602 29.9295 122.602 31.4861H122.6Z" fill="white"/>
<path d="M11.2234 15.2665C9.9493 15.2665 8.78653 15.2427 7.62789 15.2904C7.42378 15.2983 7.06918 15.6021 7.06094 15.7828C7.00939 16.9304 7.03413 18.082 7.03413 19.3785C8.4278 19.3785 9.71839 19.3785 11.011 19.3785C11.9388 19.3785 12.8727 19.446 13.7922 19.3606C14.9838 19.2494 15.86 19.6049 16.6703 20.4725C17.2661 21.1079 17.5691 21.7015 17.5444 22.5633C17.4887 24.6123 17.5279 26.6653 17.5238 28.7163C17.5217 29.8262 15.8332 31.4861 14.6931 31.4881C10.9822 31.496 7.27122 31.4961 3.56233 31.4901C2.55006 31.4901 0.789417 29.8342 0.774985 28.8732C0.758492 27.7573 0.770862 26.6415 0.770862 25.4105C2.59542 25.4105 4.30246 25.4085 6.01156 25.4125C6.31256 25.4125 6.61356 25.4422 7.00733 25.4641V27.3682H11.211V23.3753C9.6483 23.3753 8.11443 23.3753 6.58263 23.3753C5.96414 23.3753 5.33534 23.3058 4.72922 23.3892C3.3809 23.5759 2.38925 23.1351 1.50481 22.1403C0.995581 21.5665 0.733752 21.0543 0.750246 20.3038C0.795602 18.1872 0.760554 16.0687 0.772924 13.9521C0.779109 12.9077 2.49852 11.2637 3.57882 11.2637C7.28978 11.2578 11.0007 11.2578 14.7096 11.2637C15.8002 11.2657 17.5073 12.9097 17.5196 13.9561C17.532 15.0104 17.5217 16.0667 17.5217 17.2183H11.312C11.2832 16.6028 11.2564 16.0151 11.2213 15.2665H11.2234Z" fill="white"/>
<path d="M136.967 25.0232C135.743 23.8379 134.489 22.6248 133.285 21.4573C134.559 20.2501 135.844 19.035 137.097 17.8496C138.219 18.9635 139.491 20.2243 140.748 21.4732C139.592 22.5592 138.303 23.7704 136.967 25.0232Z" fill="white"/>
<path d="M27.8592 32.739C27.9437 32.8006 28.0592 32.8681 28.1519 32.9555C29.3497 34.0793 30.5434 35.205 31.7021 36.2991C30.3517 37.5996 29.0776 38.8246 27.8551 39.9981C26.6366 38.8087 25.3522 37.5559 24.1338 36.3646C25.2986 35.2309 26.5665 33.9979 27.8612 32.7371L27.8592 32.739Z" fill="white"/>
<path d="M68.286 4.57657C69.5415 4.38994 69.7972 4.57657 69.8095 5.65669C69.8198 6.51443 69.8178 7.37018 69.8136 8.22792C69.8054 9.36164 69.6281 9.50857 68.2901 9.40334C68.2592 8.81166 68.2262 8.20608 68.1891 7.53498H66.715C66.6841 8.15644 66.6552 8.74018 66.6284 9.31002C65.4656 9.60785 65.1275 9.38944 65.1131 8.33911C65.1007 7.4496 65.1069 6.55811 65.1131 5.6686C65.1213 4.55672 65.3584 4.38001 66.6181 4.58849C66.649 5.15833 66.682 5.74405 66.7171 6.40324H68.1849C68.22 5.78376 68.255 5.17421 68.288 4.57657H68.286Z" fill="white"/>
<path d="M74.2499 5.46201H72.3491C72.3202 5.79954 72.2955 6.07553 72.2625 6.45873H74.3015V7.44751H72.3697C72.3244 7.78704 72.2893 8.06302 72.2398 8.43828C72.9738 8.47402 73.6397 8.50579 74.287 8.53557C74.3159 8.6547 74.3613 8.73015 74.3427 8.77979C74.0706 9.47074 72.9099 9.73879 71.444 9.46677C70.7307 9.33374 70.675 8.83737 70.6833 8.27348C70.6977 7.38398 70.6854 6.49447 70.6915 5.60298C70.6915 5.40641 70.6441 5.16815 70.739 5.01924C71.4028 3.97486 72.4769 4.5864 73.3614 4.50301C73.7057 4.47124 74.0953 4.87231 74.4643 5.07483C74.3922 5.20191 74.32 5.32898 74.2479 5.45804L74.2499 5.46201Z" fill="white"/>
<path d="M61.0537 5.51776C60.4517 5.47011 60.0188 5.43635 59.5858 5.4026L59.4209 5.1286C59.7137 4.91019 60.0311 4.47735 60.295 4.50713C61.6042 4.65406 63.1051 3.91744 64.2245 5.0194C64.2183 5.13257 64.2122 5.24773 64.206 5.3609C63.7256 5.41451 63.2473 5.46812 62.6268 5.53563C62.6268 6.46484 62.6969 7.42186 62.5917 8.35902C62.5484 8.74818 62.167 9.37361 61.8722 9.41133C61.1795 9.50267 61.0393 8.91893 61.0517 8.32923C61.0702 7.41193 61.0558 6.49264 61.0558 5.51577L61.0537 5.51776Z" fill="white"/>
<path d="M73.951 0V2.67448H71.1431V0H73.951Z" fill="white"/>
</g>
<defs>
<clipPath id="clip0_3016_11377">
<rect width="140" height="40" fill="white" transform="translate(0.750488)"/>
</clipPath>
</defs>
</svg>
