<svg width="200" height="50" viewBox="0 0 200 50" fill="none" xmlns="http://www.w3.org/2000/svg">
<g clip-path="url(#clip0_3033_2695)">
<path d="M172.996 32.8678C172.879 33.0136 172.726 33.0636 172.541 33.0581C171.632 33.0308 170.722 33.0447 169.812 33.0514C169.438 33.054 169.333 32.9439 169.333 32.5626C169.334 30.9587 169.336 29.3551 169.342 27.7512C169.343 27.3019 169.468 26.8749 169.596 26.4491C169.707 26.0797 169.815 25.7094 169.922 25.3387C169.986 25.116 169.921 25.014 169.697 24.9678C169.55 24.9373 169.407 24.9675 169.268 25.005C169.136 25.0404 169.097 25.1459 169.102 25.276C169.116 25.7015 169.085 26.1253 169.044 26.5485C168.901 28.0565 168.537 29.4974 167.706 30.7867C166.822 32.1594 165.557 32.9439 163.938 33.1684C162.866 33.3172 161.797 33.343 160.735 33.1089C158.433 32.6012 156.834 31.2311 155.878 29.101C155.507 28.2761 155.323 27.3969 155.213 26.5014C155.138 25.8871 155.085 25.2714 155.108 24.6524C155.214 21.7993 156.375 19.5105 158.785 17.918C159.979 17.1282 161.315 16.7411 162.748 16.6725C164.408 16.5929 165.98 16.9302 167.453 17.6897C169.277 18.6296 170.365 20.1527 170.881 22.108C170.996 22.5437 170.856 22.7142 170.405 22.691C169.631 22.6512 168.857 22.6738 168.083 22.6727C167.948 22.6727 167.812 22.6811 167.677 22.6759C167.395 22.6651 167.283 22.5777 167.19 22.3079C167.171 22.253 167.156 22.1972 167.139 22.1417C166.83 21.0874 166.123 20.4225 165.081 20.1283C163.972 19.8149 162.849 19.794 161.728 20.094C160.366 20.4586 159.496 21.3325 159.123 22.677C158.666 24.3245 158.681 25.9783 159.171 27.6205C159.606 29.0798 160.644 29.8985 162.163 30.0377C162.808 30.0966 163.44 30.0719 164.062 29.9084C165.279 29.5886 166.04 28.8244 166.285 27.5775C166.309 27.4553 166.317 27.328 166.316 27.2034C166.313 26.9284 166.211 26.8134 165.935 26.7951C165.723 26.7808 165.51 26.793 165.297 26.7959C164.562 26.8061 163.826 26.7739 163.091 26.8061C162.712 26.8227 162.593 26.6911 162.594 26.3051C162.595 25.7157 162.595 25.1264 162.593 24.5374C162.592 24.1424 162.685 24.0422 163.089 24.0422C164.347 24.0416 165.606 24.0448 166.864 24.0471C168.248 24.0497 169.632 24.0532 171.016 24.0552C171.358 24.0558 171.693 24.0936 172.012 24.2199C172.541 24.4293 172.857 24.8124 172.939 25.3794C172.946 25.4267 172.945 25.4764 172.994 25.5049L172.996 32.8687L172.996 32.8678Z" fill="white"/>
<path d="M27.0054 24.4043C27.0341 24.4049 27.0629 24.4057 27.0916 24.4063C26.9529 24.5791 27.1048 24.751 27.0932 24.9233C27.054 24.9291 27.0247 24.9491 27.0055 24.9837C27.0055 24.7908 27.0054 24.5974 27.0054 24.4043Z" fill="white"/>
<path d="M42.7497 9.25533C42.9208 9.23906 43.0919 9.23906 43.2621 9.25562C43.6273 9.30122 43.9454 9.45924 44.2301 9.68377C44.3815 9.80316 44.5221 9.93736 44.6596 10.0733C45.485 10.8892 46.3076 11.7078 47.1357 12.5211C47.9809 13.3513 49.2038 13.3304 50.0058 12.4912C50.4739 12.0012 50.9656 11.5381 51.4674 11.0838C51.7328 10.8436 51.9709 10.577 52.1956 10.2972C52.5473 9.85951 52.9584 9.49787 53.5318 9.38575C54.4157 9.21292 55.1538 9.49555 55.7582 10.1407C56.2475 10.663 56.7383 11.1838 57.2607 11.6732C57.5501 11.9442 57.8453 12.2094 58.1422 12.4717C58.9741 13.2066 59.0778 14.2959 58.3833 15.1641C58.203 15.3895 57.9924 15.5923 57.7877 15.7973C57.1184 16.468 56.4453 17.135 55.7736 17.8033C55.5398 18.036 55.3267 18.2841 55.1679 18.576C54.8477 19.1654 54.8444 19.7547 55.1583 20.3464C55.2998 20.6134 55.4881 20.8452 55.6993 21.0601C56.4446 21.8191 57.1896 22.5784 57.9326 23.34C58.1758 23.5895 58.4042 23.8518 58.596 24.1443C58.8689 24.5606 58.9268 25.0036 58.7588 25.4712C58.5948 25.9284 58.3753 26.3418 58.0056 26.6854C57.2268 27.4092 56.4791 28.1662 55.7171 28.9081C55.495 29.1245 55.2536 29.3168 54.9809 29.4681C54.5624 29.7005 54.1212 29.7583 53.6646 29.6203C53.2062 29.4818 52.7983 29.2616 52.4574 28.9075C51.6659 28.0858 50.8727 27.2652 50.0464 26.4774C50.0042 26.4373 49.9618 26.3978 49.9197 26.358C49.2041 25.6844 48.3707 25.6051 47.5375 26.1329C47.2006 26.3464 46.9134 26.6212 46.6204 26.8876C45.7965 27.6361 45.0506 28.4616 44.2776 29.2604C44.022 29.5245 43.763 29.785 43.5043 30.0459C43.45 30.1008 43.3931 30.1539 43.3327 30.2018C43.0925 30.3921 42.9124 30.395 42.6855 30.1955C42.5335 30.0615 42.3952 29.9114 42.254 29.7656C41.1708 28.6469 40.0536 27.5617 38.9463 26.4672C38.7528 26.2758 38.5392 26.1094 38.2932 25.9903C37.724 25.7143 37.157 25.7181 36.5936 26.0089C36.3415 26.139 36.1281 26.3179 35.9277 26.5166C35.0699 27.368 34.2118 28.2191 33.3505 29.067C32.9254 29.4855 32.423 29.7199 31.8121 29.686C31.3706 29.6613 30.9755 29.5059 30.6498 29.2177C29.8964 28.5517 29.1726 27.8537 28.495 27.1101C28.3593 26.961 28.2047 26.8277 28.0574 26.6961C27.5193 26.2151 27.2415 25.6089 27.0928 24.9243C27.1047 24.7511 26.9524 24.5792 27.0912 24.4063C27.1629 24.1435 27.3415 23.9529 27.5328 23.7754C28.3401 23.0257 29.1506 22.2792 29.9067 21.4772C30.1585 21.2103 30.3943 20.9279 30.6472 20.6619C31.3453 19.9284 31.1864 18.8932 30.6848 18.2783C30.3538 17.8728 29.9959 17.4943 29.5792 17.1742C29.5258 17.1332 29.4659 17.0958 29.4253 17.0438C28.9821 16.4779 28.4318 16.0158 27.9315 15.5054C27.7615 15.332 27.6028 15.1505 27.4802 14.941C27.0695 14.2404 27.0865 13.5482 27.531 12.8682C27.7069 12.599 27.9407 12.3805 28.1686 12.1577C28.8598 11.4824 29.5602 10.8163 30.2112 10.1015C30.3276 9.97366 30.4612 9.85951 30.5951 9.74913C31.2424 9.2164 31.9831 9.17283 32.7622 9.34712C32.8063 9.35699 32.8491 9.38836 32.8842 9.41886C33.0885 9.59634 33.3116 9.75813 33.4883 9.9603C33.7719 10.2845 34.1208 10.543 34.3838 10.8881C34.4922 11.0301 34.6665 11.1207 34.7856 11.2567C35.1677 11.6921 35.5826 12.0941 36.0054 12.4889C36.3148 12.7776 36.6611 12.9995 37.0783 13.0916C37.6203 13.2116 38.1115 13.0765 38.5654 12.7753C38.8581 12.5812 39.0933 12.3227 39.3405 12.079C40.0629 11.3665 40.7799 10.6484 41.4998 9.93358C41.8497 9.58617 42.2478 9.32475 42.7497 9.25533ZM44.9953 19.4361C45.0055 19.6769 45.0088 19.8785 45.0463 20.0795C45.3238 21.5609 46.6209 22.9377 48.5406 22.8398C49.5605 22.7878 50.419 22.3881 51.0528 21.5856C51.6983 20.7679 51.8865 19.8181 51.7241 18.7997C51.6502 18.3361 51.4752 17.9047 51.1713 17.5405C50.7706 17.0603 50.2877 16.6815 49.7293 16.3934C48.7427 15.8842 46.9024 16.1421 46.0995 16.981C45.4171 17.6944 44.9926 18.4787 44.9953 19.4361ZM36.8772 17.5988C36.8754 17.5988 36.8737 17.5988 36.872 17.5988C36.872 17.8501 36.8715 18.1011 36.8722 18.3523C36.8741 18.9368 36.8503 18.958 36.2754 18.9551C35.6852 18.9522 35.0947 18.9498 34.5044 18.9603C34.1556 18.9664 33.9767 19.1378 33.9678 19.4375C33.9577 19.7695 34.1152 19.9363 34.4769 19.972C34.5535 19.9796 34.6317 19.9764 34.7089 19.9764C35.2896 19.9764 35.8703 19.9746 36.4509 19.9758C36.8027 19.9764 36.8724 20.0469 36.8734 20.4025C36.875 21.0014 36.8732 21.6004 36.8757 22.1993C36.876 22.3051 36.8766 22.4143 36.9016 22.5157C36.9598 22.7507 37.1498 22.884 37.3961 22.8808C37.6445 22.8776 37.8167 22.7422 37.8695 22.4953C37.8935 22.3826 37.9101 22.2659 37.9109 22.1508C37.9139 21.5908 37.9106 21.0305 37.9092 20.4705C37.9092 20.4028 37.9016 20.3348 37.9077 20.268C37.9254 20.0731 38.0012 19.9976 38.2007 19.9769C38.2774 19.9691 38.3555 19.9732 38.4328 19.9732C38.9844 19.974 39.536 19.974 40.0876 19.9772C40.2143 19.9778 40.3397 19.9711 40.4611 19.9363C40.7196 19.8619 40.8546 19.6458 40.8119 19.3815C40.7688 19.1142 40.5768 18.9658 40.2395 18.9591C39.8427 18.951 39.4459 18.9542 39.0492 18.9539C38.7781 18.9539 38.5071 18.9626 38.2364 18.9548C38.0075 18.9481 37.9276 18.8627 37.9072 18.6364C37.9028 18.5885 37.904 18.54 37.9043 18.4918C37.9064 17.9314 37.9071 17.3714 37.9128 16.8111C37.9142 16.6644 37.8999 16.5206 37.8574 16.3821C37.7976 16.1869 37.6578 16.0806 37.4542 16.0596C37.1149 16.0245 36.8988 16.1982 36.8806 16.5558C36.863 16.9026 36.8771 17.2512 36.8772 17.5988Z" fill="white"/>
<path d="M147.943 24.0556C149.163 24.0556 150.383 24.0556 151.603 24.0556C151.874 24.0556 152.144 24.0602 152.412 24.1131C153.101 24.249 153.587 24.7399 153.708 25.4306C153.744 25.6403 153.762 25.8508 153.762 26.0646C153.762 28.1907 153.765 30.3165 153.767 32.4426C153.767 32.9838 153.688 33.0564 153.144 33.0535C152.341 33.0491 151.537 33.052 150.733 33.0517C150.627 33.0517 150.52 33.0558 150.414 33.0491C150.195 33.0355 150.099 32.9486 150.065 32.736C150.056 32.6791 150.058 32.6204 150.058 32.5626C150.059 31.1519 150.061 29.7409 150.063 28.3301C150.064 27.611 150.153 26.9066 150.395 26.2244C150.494 25.9426 150.568 25.6522 150.653 25.3652C150.725 25.1204 150.642 24.9978 150.383 24.9792C150.288 24.9722 150.189 24.9748 150.094 24.9891C149.897 25.0184 149.819 25.1079 149.829 25.3016C149.857 25.834 149.808 26.3629 149.746 26.8892C149.624 27.9302 149.379 28.9413 148.937 29.8966C148.34 31.185 147.459 32.1987 146.125 32.7717C145.543 33.0224 144.932 33.1525 144.304 33.2222C143.831 33.2748 143.358 33.2855 142.883 33.2765C139.705 33.2155 137.126 31.214 136.274 28.1515C136.008 27.1971 135.885 26.2241 135.857 25.2354C135.828 24.2441 135.896 23.2618 136.212 22.3187C137.2 19.3639 139.152 17.4272 142.268 16.8364C144.089 16.4913 145.906 16.6342 147.617 17.3935C149.726 18.3299 151.089 19.9265 151.631 22.188C151.649 22.2623 151.666 22.3399 151.665 22.4154C151.664 22.5705 151.598 22.6416 151.443 22.6678C151.377 22.6788 151.308 22.6788 151.24 22.6788C150.301 22.6774 149.362 22.6759 148.423 22.6727C148.065 22.6716 148.038 22.6512 147.938 22.3099C147.572 21.0648 146.764 20.2965 145.482 20.0412C144.532 19.8521 143.581 19.8237 142.631 20.0386C141.293 20.3416 140.406 21.1612 139.949 22.4377C139.556 23.5371 139.471 24.6786 139.567 25.8369C139.62 26.4835 139.72 27.121 139.935 27.7362C140.429 29.1544 141.425 29.9212 142.927 30.0418C143.639 30.099 144.341 30.0418 145.023 29.844C146.337 29.4632 146.947 28.5021 147.062 27.279C147.09 26.9795 146.951 26.8268 146.652 26.7913C146.575 26.7823 146.497 26.7846 146.42 26.7876C145.549 26.821 144.679 26.7899 143.808 26.7957C143.412 26.7983 143.306 26.6932 143.325 26.2929C143.35 25.7329 143.368 25.1735 143.318 24.6141C143.31 24.518 143.318 24.4227 143.345 24.3274C143.389 24.17 143.489 24.0803 143.647 24.0544C143.714 24.0434 143.782 24.0367 143.849 24.0367C145.214 24.0358 146.579 24.0358 147.944 24.0358C147.944 24.0428 147.944 24.0495 147.944 24.0564L147.943 24.0556Z" fill="white"/>
<path d="M104.887 16.9233C105.826 16.9233 106.765 16.9134 107.703 16.9259C108.681 16.939 109.656 16.9901 110.614 17.2108C111.277 17.3636 111.922 17.5721 112.505 17.9265C113.872 18.7578 114.553 19.984 114.479 21.5783C114.413 23.0149 113.701 24.0341 112.34 24.5697C111.843 24.7652 111.328 24.8889 110.801 24.972C110.416 25.0327 110.212 25.4556 110.39 25.8073C110.44 25.9037 110.529 25.9435 110.627 25.9537C110.742 25.9656 110.858 25.9627 110.975 25.963C111.613 25.9645 112.252 25.965 112.891 25.9656C113.116 25.9656 113.334 26.0045 113.546 26.0754C114.193 26.2915 114.539 26.751 114.617 27.4173C114.682 27.9657 114.663 28.5172 114.665 29.0676C114.67 30.2271 114.665 31.3866 114.664 32.5458C114.664 32.5844 114.665 32.6231 114.663 32.6617C114.65 32.9463 114.556 33.0431 114.273 33.0448C113.711 33.0486 113.15 33.0454 112.588 33.0463C112.191 33.0468 111.794 33.0524 111.398 33.0497C111.068 33.0477 110.967 32.9495 110.964 32.6135C110.959 31.9661 110.962 31.3186 110.962 30.6715C110.963 29.8019 110.966 28.9326 110.967 28.063C110.967 27.9665 110.969 27.8692 110.961 27.7734C110.941 27.5463 110.853 27.4492 110.634 27.3906C110.519 27.3601 110.403 27.3656 110.288 27.367C109.291 27.3775 108.294 27.3929 107.298 27.3946C106.63 27.3961 105.963 27.3778 105.295 27.3688C105.228 27.3679 105.159 27.3653 105.092 27.3699C104.783 27.3923 104.675 27.4951 104.662 27.7992C104.653 27.9921 104.664 28.1855 104.665 28.3787C104.668 29.7409 104.67 31.1034 104.673 32.4656C104.673 32.4947 104.675 32.5237 104.674 32.5525C104.663 32.9356 104.545 33.0561 104.164 33.0555C103.544 33.0544 102.925 33.0448 102.305 33.0431C102.034 33.0422 101.763 33.0555 101.492 33.0555C101.093 33.0555 100.968 32.935 100.964 32.5406C100.96 32.1252 100.967 31.7096 100.966 31.2942C100.965 26.9174 100.964 22.5403 100.962 18.1635C100.962 17.9123 100.956 17.661 100.96 17.4101C100.966 17.0136 101.068 16.9099 101.46 16.909C102.602 16.9067 103.744 16.9082 104.886 16.9082C104.886 16.9131 104.886 16.9177 104.886 16.9227L104.887 16.9233ZM104.661 22.12C104.661 22.12 104.663 22.12 104.664 22.12C104.664 22.3515 104.665 22.5833 104.664 22.8148C104.663 23.143 104.653 23.4712 104.664 23.7991C104.672 24.0626 104.781 24.1576 105.044 24.17C105.102 24.1727 105.16 24.17 105.218 24.1683C105.901 24.1433 106.586 24.1971 107.269 24.1157C107.555 24.0817 107.849 24.1186 108.139 24.1157C108.544 24.1119 108.951 24.1273 109.354 24.0582C109.736 23.9929 110.095 23.8683 110.341 23.5607C110.826 22.9554 110.988 22.269 110.728 21.524C110.475 20.7967 109.939 20.3756 109.19 20.2257C108.782 20.1441 108.365 20.1235 107.95 20.1194C107.002 20.1104 106.055 20.1153 105.107 20.1162C104.741 20.1162 104.662 20.1946 104.661 20.5565C104.66 21.0776 104.661 21.599 104.661 22.12H104.661Z" fill="white"/>
<path d="M84.2764 22.6031C84.2898 20.8839 84.2596 19.1644 84.2687 17.445C84.269 17.3677 84.2681 17.2896 84.28 17.2138C84.3087 17.0311 84.3984 16.9431 84.584 16.9195C84.6795 16.9076 84.7771 16.91 84.8739 16.91C85.6964 16.9094 86.519 16.912 87.3418 16.9085C87.8916 16.9062 87.9573 16.9663 87.9572 17.5243C87.9566 20.3164 87.9528 23.1085 87.9557 25.9009C87.9564 26.548 87.9842 27.1949 88.1247 27.8304C88.3565 28.8774 88.9385 29.6105 90.0118 29.8862C90.2543 29.9483 90.5044 29.9873 90.7534 30.0178C91.5181 30.1119 92.278 30.0767 93.0316 29.912C94.0432 29.6913 94.6904 29.0837 94.9704 28.0912C95.15 27.4545 95.2021 26.8004 95.2019 26.142C95.2005 23.3208 95.1976 20.4996 95.1956 17.6785C95.1955 17.5626 95.192 17.4461 95.2013 17.3308C95.2241 17.052 95.3415 16.932 95.6209 16.9126C95.7748 16.9018 95.9302 16.9143 96.085 16.9143C96.7914 16.9137 97.4981 16.9123 98.2044 16.9117C98.3206 16.9117 98.4374 16.9059 98.5527 16.9155C98.7755 16.9341 98.8847 17.0372 98.9164 17.2565C98.9287 17.3419 98.9261 17.4299 98.9258 17.5167C98.9254 19.1206 98.9413 20.7245 98.9183 22.328C98.8966 23.8445 98.9587 25.3607 98.9086 26.8765C98.8827 27.6584 98.8257 28.4374 98.6125 29.1969C98.1192 30.9539 96.9737 32.0904 95.2736 32.696C94.2743 33.0518 93.2377 33.2151 92.1808 33.2891C91.0498 33.3687 89.9405 33.2557 88.8445 32.9853C87.9839 32.773 87.1705 32.4485 86.4419 31.933C85.3092 31.1313 84.6594 30.0302 84.3999 28.6808C84.2693 28.0017 84.2813 27.316 84.279 26.6308C84.2743 25.2883 84.2768 23.9456 84.2764 22.6031Z" fill="white"/>
<path d="M116.928 24.9901C116.928 22.5357 116.927 20.0811 116.926 17.6268C116.926 17.54 116.925 17.4528 116.929 17.366C116.946 17.0491 117.06 16.9315 117.371 16.9109C117.438 16.9065 117.506 16.9079 117.574 16.9079C120.449 16.91 123.324 16.9126 126.2 16.914C126.761 16.914 127.322 16.91 127.884 16.9091C127.981 16.9091 128.078 16.91 128.174 16.9207C128.358 16.9413 128.469 17.045 128.512 17.2277C128.542 17.3523 128.54 17.4767 128.532 17.6021C128.488 18.2292 128.482 18.8563 128.534 19.4834C128.54 19.5505 128.542 19.619 128.535 19.6858C128.506 19.9725 128.378 20.1047 128.088 20.1154C127.77 20.1273 127.45 20.1209 127.13 20.1206C125.204 20.1195 123.277 20.1171 121.351 20.1171C121.235 20.1171 121.118 20.1203 121.004 20.1398C120.769 20.1802 120.693 20.2653 120.663 20.5029C120.653 20.5888 120.654 20.6766 120.654 20.7634C120.654 21.9037 120.653 23.044 120.655 24.1843C120.656 24.6857 120.735 24.7461 121.236 24.7124C122.009 24.6604 122.782 24.6223 123.554 24.5797C124.694 24.5166 125.834 24.4513 126.971 24.3595C127.183 24.3424 127.397 24.3336 127.61 24.3397C127.871 24.3473 127.969 24.4516 127.991 24.7144C127.997 24.7911 127.997 24.8689 127.994 24.9462C127.971 25.6224 127.969 26.2985 127.995 26.9747C127.997 27.0133 127.996 27.052 127.996 27.0906C127.988 27.4484 127.873 27.5725 127.508 27.5951C126.532 27.6558 125.557 27.711 124.582 27.7708C123.462 27.8397 122.342 27.9085 121.222 27.984C120.775 28.0142 120.647 28.1589 120.648 28.6082C120.65 29.8644 120.655 31.1206 120.662 32.3768C120.665 32.9583 120.554 33.0638 119.967 33.0568C119.163 33.0472 118.36 33.0498 117.556 33.0466C117.46 33.0463 117.362 33.0492 117.266 33.0394C117.062 33.0182 116.969 32.9345 116.948 32.7303C116.93 32.5677 116.934 32.4021 116.934 32.238C116.933 29.8223 116.932 27.4063 116.932 24.9906H116.927L116.928 24.9901Z" fill="white"/>
<path d="M75.5333 16.9094C77.6724 16.9094 79.8116 16.9094 81.9511 16.9094C82.0478 16.9094 82.1448 16.9071 82.2415 16.9109C82.5822 16.9236 82.695 17.0276 82.6965 17.3701C82.6984 17.7561 82.6759 18.1421 82.6719 18.5284C82.6685 18.8566 82.6651 19.1851 82.6983 19.5127C82.7033 19.5606 82.7013 19.6094 82.6998 19.6577C82.6883 20.0039 82.5754 20.1192 82.2155 20.1203C81.1025 20.1235 79.9892 20.1212 78.8762 20.1198C78.5761 20.1195 78.2761 20.1111 77.9761 20.1145C77.5651 20.1195 77.3958 20.2813 77.3823 20.6957C77.3728 20.985 77.3813 21.2755 77.3886 21.5651C77.4433 23.7771 77.3781 25.9889 77.3892 28.2007C77.3957 29.5046 77.3688 30.8087 77.4156 32.1125C77.4227 32.3045 77.4367 32.4985 77.3958 32.6902C77.3409 32.9479 77.2483 33.0414 76.9858 33.0501C76.7153 33.0591 76.4441 33.0431 76.1731 33.0443C75.573 33.0466 74.9729 33.0533 74.3729 33.0574C74.2857 33.0579 74.1983 33.0597 74.1117 33.0507C73.8669 33.0257 73.7399 32.9127 73.7125 32.6708C73.6919 32.4889 73.6933 32.3045 73.6932 32.1209C73.6955 28.2754 73.699 24.4301 73.7022 20.5845C73.7022 20.5363 73.7042 20.4875 73.6995 20.4396C73.6774 20.2194 73.6129 20.1503 73.3974 20.1238C73.321 20.1145 73.2429 20.1169 73.1653 20.1171C71.7714 20.1203 70.3776 20.1238 68.984 20.127C68.9163 20.127 68.8483 20.1264 68.7809 20.1203C68.5306 20.0968 68.4187 19.9928 68.3841 19.7419C68.3721 19.6565 68.3741 19.5679 68.3799 19.4816C68.4245 18.8252 68.4245 18.1691 68.3814 17.513C68.3802 17.4938 68.3808 17.4743 68.3805 17.4549C68.3728 17 68.4579 16.91 68.913 16.9097C71.1201 16.9085 73.327 16.9091 75.5341 16.9091L75.5333 16.9094Z" fill="white"/>
<path d="M38.2838 36.0426C38.2897 35.3777 38.5649 34.8273 39.0358 34.376C39.5309 33.9014 40.0539 33.4558 40.5449 32.9777C41.1332 32.405 41.7 31.8101 42.2778 31.2266C42.4204 31.0825 42.562 30.9356 42.7189 30.8081C42.9491 30.6204 43.11 30.6309 43.3407 30.822C43.3852 30.8589 43.4262 30.9004 43.4663 30.9422C44.5863 32.1186 45.7522 33.2487 46.908 34.3896C47.1081 34.5871 47.2886 34.8012 47.4385 35.0394C47.7759 35.5755 47.8374 36.1355 47.5805 36.7225C47.4246 37.0792 47.226 37.4051 46.9456 37.6813C46.4153 38.2033 45.8921 38.7325 45.3645 39.2573C45.1334 39.4871 44.8799 39.6904 44.6554 39.932C44.3468 40.2643 43.9489 40.4958 43.5124 40.6492C43.0242 40.8205 42.5621 40.7633 42.1165 40.5164C41.921 40.4081 41.7432 40.2745 41.5831 40.1191C40.7376 39.2971 39.8925 38.4748 39.0505 37.6494C38.8584 37.4611 38.6905 37.2462 38.5217 37.0403C38.3407 36.8193 38.3159 36.5061 38.2844 36.2169C38.2783 36.1596 38.2835 36.1013 38.2835 36.0432L38.2838 36.0426Z" fill="white"/>
<path d="M133.1 30.7633C133.098 32.242 132.042 33.2771 130.537 33.2686C128.977 33.2596 128.014 32.1674 128.03 30.7174C128.047 29.2447 129.08 28.2277 130.579 28.2329C132.039 28.2382 133.103 29.306 133.1 30.7633Z" fill="white"/>
<path d="M50.781 19.4795C50.7701 20.8149 49.7119 21.8516 48.367 21.8452C47.0351 21.8389 45.9768 20.7742 46.0032 19.4345C46.0269 18.2212 46.8937 17.0738 48.4169 17.0831C49.7128 17.0912 50.792 18.1826 50.7813 19.4795H50.781Z" fill="white"/>
</g>
<defs>
<clipPath id="clip0_3033_2695">
<rect width="145.99" height="31.516" fill="white" transform="matrix(1 0 0.000301956 1 27 9.24219)"/>
</clipPath>
</defs>
</svg>
