<svg width="186" height="41" viewBox="0 0 186 41" fill="none" xmlns="http://www.w3.org/2000/svg">
<g clip-path="url(#clip0_572_71420)">
<path d="M185.271 30.6391C185.123 30.8242 184.928 30.8876 184.695 30.8806C183.542 30.846 182.389 30.8636 181.236 30.8721C180.762 30.8754 180.629 30.7357 180.629 30.2517C180.631 28.2159 180.634 26.1805 180.642 24.1448C180.643 23.5744 180.802 23.0325 180.964 22.492C181.105 22.0231 181.242 21.553 181.378 21.0826C181.459 20.7999 181.377 20.6705 181.093 20.6119C180.907 20.5731 180.726 20.6115 180.549 20.659C180.382 20.704 180.333 20.8378 180.339 21.003C180.357 21.5431 180.317 22.081 180.265 22.6181C180.083 24.5322 179.622 26.3612 178.568 27.9977C177.446 29.74 175.843 30.7357 173.791 31.0207C172.433 31.2095 171.078 31.2423 169.733 30.9451C166.815 30.3007 164.79 28.5617 163.578 25.8579C163.109 24.8109 162.876 23.695 162.737 22.5584C162.642 21.7787 162.576 20.9971 162.605 20.2115C162.74 16.5901 164.213 13.685 167.267 11.6636C168.781 10.6613 170.474 10.1698 172.289 10.0828C174.394 9.98181 176.385 10.4098 178.252 11.3739C180.563 12.5669 181.941 14.5001 182.595 16.982C182.74 17.535 182.563 17.7514 181.991 17.7219C181.01 17.6714 180.029 17.7001 179.049 17.6987C178.877 17.6987 178.705 17.7094 178.534 17.7027C178.176 17.6891 178.034 17.5781 177.917 17.2356C177.893 17.166 177.874 17.0952 177.853 17.0248C177.461 15.6865 176.565 14.8426 175.245 14.4692C173.839 14.0714 172.417 14.0448 170.996 14.4257C169.27 14.8883 168.166 15.9977 167.694 17.7042C167.114 19.7953 167.132 21.8944 167.752 23.9789C168.304 25.831 169.619 26.8703 171.544 27.0469C172.361 27.1217 173.162 27.0904 173.951 26.8828C175.492 26.4769 176.457 25.507 176.768 23.9243C176.798 23.7691 176.808 23.6076 176.807 23.4495C176.804 23.1003 176.675 22.9543 176.325 22.9311C176.057 22.913 175.786 22.9285 175.516 22.9322C174.584 22.9451 173.652 22.9042 172.72 22.9451C172.24 22.9661 172.09 22.7991 172.091 22.3092C172.092 21.5612 172.093 20.8131 172.091 20.0655C172.089 19.5641 172.207 19.4369 172.719 19.4369C174.314 19.4362 175.908 19.4402 177.503 19.4432C179.257 19.4465 181.012 19.4509 182.765 19.4535C183.198 19.4542 183.622 19.5022 184.027 19.6625C184.698 19.9283 185.097 20.4146 185.201 21.1342C185.21 21.1943 185.208 21.2574 185.271 21.2935V30.6402L185.271 30.6391Z" fill="white"/>
<path d="M0.272461 19.8945C0.308901 19.8953 0.345342 19.8964 0.381782 19.8971C0.205837 20.1165 0.398346 20.3347 0.383623 20.5533C0.333931 20.5607 0.296755 20.5861 0.272461 20.63C0.272461 20.3852 0.272461 20.1397 0.272461 19.8945Z" fill="white"/>
<path d="M20.2304 0.667782C20.4472 0.647137 20.664 0.647137 20.8797 0.668151C21.3424 0.726031 21.7455 0.926584 22.1062 1.21156C22.298 1.36308 22.4761 1.5334 22.6502 1.70594C23.696 2.74151 24.738 3.78041 25.7871 4.81268C26.8578 5.86632 28.4075 5.83977 29.4241 4.7747C30.0175 4.15276 30.6406 3.56511 31.2767 2.98852C31.6131 2.68363 31.9149 2.3452 32.1998 1.99018C32.6456 1.4346 33.1668 0.975616 33.8934 0.833312C35.0135 0.613957 35.9488 0.972667 36.7144 1.79147C37.3343 2.45433 37.956 3.11534 38.6178 3.73654C38.9844 4.0805 39.3584 4.4171 39.7346 4.75C40.7884 5.68272 40.9194 7.06521 40.039 8.16715C39.8104 8.45323 39.5435 8.71056 39.284 8.97083C38.4356 9.82208 37.5824 10.6685 36.731 11.5168C36.4347 11.8121 36.1645 12.127 35.9632 12.4975C35.5572 13.2455 35.5527 13.9935 35.9503 14.7445C36.1295 15.0833 36.368 15.3775 36.6356 15.6503C37.5798 16.6136 38.5236 17.5773 39.4648 18.5439C39.7728 18.8606 40.0622 19.1935 40.3051 19.5648C40.6507 20.093 40.724 20.6553 40.5109 21.2488C40.3029 21.8291 40.0246 22.3537 39.556 22.7898C38.5688 23.7085 37.621 24.6693 36.6552 25.6108C36.3736 25.8855 36.0677 26.1295 35.7221 26.3216C35.1916 26.6165 34.6325 26.6899 34.0539 26.5148C33.4731 26.3389 32.9563 26.0595 32.5245 25.6101C31.5218 24.5671 30.517 23.5257 29.4701 22.5259C29.4167 22.475 29.363 22.4248 29.3096 22.3743C28.403 21.5194 27.347 21.4188 26.291 22.0886C25.864 22.3596 25.4999 22.7083 25.1285 23.0464C24.0843 23.9965 23.1387 25.0442 22.1588 26.058C21.8349 26.3931 21.5066 26.7238 21.1786 27.0549C21.1098 27.1246 21.0376 27.192 20.9611 27.2529C20.6567 27.4943 20.4285 27.498 20.141 27.2448C19.9485 27.0748 19.7733 26.8842 19.5944 26.6991C18.2221 25.2794 16.8069 23.9021 15.4041 22.513C15.1589 22.27 14.8884 22.0588 14.5766 21.9076C13.8555 21.5574 13.137 21.5622 12.423 21.9312C12.1035 22.0964 11.8329 22.3235 11.5789 22.5756C10.4916 23.6562 9.40391 24.7364 8.31217 25.8125C7.77329 26.3437 7.1365 26.6412 6.36242 26.5981C5.80293 26.5668 5.30233 26.3695 4.88971 26.0038C3.93526 25.1585 3.01836 24.2726 2.15998 23.3288C1.98808 23.1397 1.79226 22.9705 1.60564 22.8035C0.923948 22.193 0.572059 21.4236 0.383967 20.5546C0.399059 20.3349 0.206182 20.1166 0.382127 19.8973C0.473044 19.5636 0.699416 19.3218 0.941985 19.0965C1.96526 18.145 2.99259 17.1976 3.95109 16.1797C4.27022 15.8409 4.5691 15.4825 4.88971 15.1448C5.77459 14.214 5.57361 12.9001 4.93829 12.1196C4.51904 11.6049 4.06556 11.1246 3.53773 10.7183C3.47 10.6663 3.39417 10.6188 3.34264 10.5528C2.78131 9.83461 2.08416 9.24807 1.45031 8.60033C1.23498 8.38024 1.03401 8.14982 0.878674 7.88401C0.35857 6.9948 0.380286 6.11627 0.943825 5.25323C1.16689 4.91148 1.46319 4.63424 1.75214 4.35148C2.62819 3.49433 3.51601 2.64898 4.34126 1.7417C4.48886 1.57949 4.65818 1.4346 4.82787 1.29451C5.64833 0.618381 6.58695 0.563081 7.57416 0.78428C7.63011 0.796814 7.68421 0.83663 7.72875 0.875339C7.98752 1.10059 8.27021 1.30594 8.494 1.56253C8.85326 1.97396 9.29533 2.30207 9.62844 2.74004C9.76574 2.92032 9.98659 3.03534 10.1375 3.20787C10.6215 3.7605 11.1472 4.27073 11.6827 4.77176C12.0747 5.13821 12.5135 5.41987 13.0421 5.53673C13.7289 5.68899 14.3514 5.51756 14.9267 5.13526C15.2977 4.88899 15.5959 4.56088 15.9091 4.25156C16.8249 3.34723 17.7337 2.43589 18.6462 1.52861C19.0897 1.08769 19.5944 0.755892 20.2304 0.667782ZM23.072 13.5891C23.0849 13.8947 23.089 14.1506 23.1365 14.4057C23.4876 16.2859 25.1308 18.0333 27.5634 17.9091C28.8558 17.8431 29.9438 17.3358 30.7474 16.3172C31.5656 15.2794 31.8045 14.0739 31.5991 12.7813C31.5056 12.193 31.284 11.6455 30.899 11.1832C30.3914 10.5738 29.7797 10.093 29.0722 9.72733C27.8222 9.08106 25.49 9.40844 24.4722 10.4731C23.6072 11.3786 23.0691 12.374 23.072 13.5891ZM12.7855 11.2573C12.7833 11.2573 12.7811 11.2573 12.7789 11.2573C12.7789 11.5762 12.7782 11.8947 12.7789 12.2136C12.7811 12.9554 12.7509 12.9823 12.0225 12.9786C11.2745 12.9749 10.5262 12.9719 9.77826 12.9852C9.33618 12.993 9.10944 13.2105 9.09803 13.5909C9.08515 14.0123 9.28465 14.2239 9.74292 14.2693C9.84009 14.2789 9.93911 14.2748 10.037 14.2748C10.7728 14.2748 11.5086 14.2726 12.2444 14.2741C12.6902 14.2748 12.7785 14.3644 12.7796 14.8156C12.7815 15.5758 12.7789 16.336 12.7818 17.0962C12.7822 17.2304 12.7829 17.369 12.8146 17.4977C12.8882 17.7959 13.1289 17.9651 13.4411 17.9611C13.7558 17.957 13.9741 17.7852 14.0411 17.4718C14.0716 17.3288 14.0926 17.1806 14.0937 17.0346C14.0977 16.3238 14.0937 15.6127 14.0922 14.9019C14.0922 14.816 14.0827 14.7297 14.0904 14.6449C14.1128 14.3976 14.2089 14.3017 14.4618 14.2755C14.559 14.2656 14.658 14.2707 14.7559 14.2707C15.4549 14.2718 16.1539 14.2718 16.8529 14.2759C17.0134 14.2766 17.1724 14.2682 17.3262 14.2239C17.6538 14.1295 17.825 13.8553 17.7709 13.5198C17.7164 13.1806 17.4731 12.9922 17.0457 12.9837C16.5429 12.9734 16.0401 12.9775 15.5373 12.9771C15.1939 12.9771 14.8505 12.9882 14.5074 12.9782C14.2174 12.9697 14.1161 12.8613 14.0904 12.5742C14.0849 12.5133 14.0863 12.4518 14.0867 12.3906C14.0896 11.6794 14.0908 10.9686 14.0981 10.2575C14.1 10.0713 14.0819 9.88881 14.0282 9.71295C13.9524 9.46521 13.7753 9.33028 13.5173 9.30374C13.0873 9.25913 12.8135 9.47959 12.7903 9.93341C12.7678 10.3736 12.7855 10.816 12.7855 11.2573Z" fill="white"/>
<path d="M153.526 19.4531C155.072 19.4531 156.618 19.4531 158.164 19.4531C158.507 19.4531 158.849 19.459 159.189 19.5261C160.062 19.6987 160.679 20.3217 160.831 21.1984C160.877 21.4646 160.9 21.7318 160.9 22.0032C160.899 24.7018 160.902 27.4 160.904 30.0987C160.904 30.7855 160.803 30.8776 160.114 30.874C159.096 30.8684 158.077 30.8721 157.059 30.8717C156.924 30.8717 156.789 30.8769 156.654 30.8684C156.376 30.8511 156.255 30.7409 156.212 30.471C156.201 30.3987 156.203 30.3243 156.203 30.2509C156.205 28.4603 156.208 26.6693 156.211 24.8787C156.212 23.9659 156.326 23.0719 156.632 22.2059C156.759 21.8483 156.852 21.4797 156.96 21.1154C157.051 20.8046 156.946 20.6491 156.618 20.6255C156.497 20.6166 156.372 20.6199 156.251 20.638C156.002 20.6752 155.903 20.7888 155.916 21.0347C155.951 21.7105 155.888 22.3818 155.81 23.0498C155.655 24.3711 155.344 25.6544 154.783 26.867C154.026 28.5023 152.909 29.789 151.219 30.5164C150.48 30.8345 149.707 30.9997 148.91 31.0881C148.311 31.1549 147.711 31.1685 147.11 31.1571C143.083 31.0797 139.815 28.5392 138.736 24.652C138.4 23.4406 138.244 22.2056 138.208 20.9506C138.173 19.6924 138.259 18.4456 138.66 17.2485C139.914 13.4981 142.388 11.0399 146.337 10.29C148.644 9.85202 150.947 10.0334 153.115 10.9971C155.788 12.1857 157.514 14.2122 158.201 17.0826C158.224 17.177 158.245 17.2754 158.244 17.3713C158.242 17.5682 158.159 17.6585 157.962 17.6917C157.878 17.7057 157.791 17.7057 157.705 17.7057C156.515 17.7038 155.325 17.702 154.135 17.6979C153.681 17.6964 153.647 17.6706 153.52 17.2375C153.057 15.657 152.033 14.6819 150.408 14.3578C149.205 14.1178 148 14.0817 146.796 14.3545C145.099 14.739 143.975 15.7794 143.396 17.3997C142.898 18.7951 142.789 20.2439 142.91 21.7141C142.978 22.5348 143.104 23.344 143.376 24.1248C144.002 25.925 145.264 26.8983 147.167 27.0513C148.069 27.1239 148.959 27.0513 149.823 26.8002C151.489 26.3169 152.262 25.097 152.408 23.5446C152.444 23.1645 152.268 22.9705 151.888 22.9256C151.792 22.9141 151.692 22.9171 151.594 22.9208C150.491 22.9632 149.388 22.9237 148.285 22.9311C147.783 22.9344 147.649 22.801 147.672 22.2929C147.705 21.5822 147.728 20.8721 147.665 20.1621C147.654 20.04 147.664 19.9191 147.698 19.7982C147.755 19.5984 147.882 19.4845 148.082 19.4517C148.166 19.4376 148.253 19.4292 148.338 19.4292C150.068 19.4281 151.797 19.4281 153.527 19.4281C153.527 19.4369 153.527 19.4454 153.527 19.4542L153.526 19.4531Z" fill="white"/>
<path d="M98.9674 10.4006C100.157 10.4006 101.347 10.3881 102.537 10.4039C103.775 10.4205 105.011 10.4854 106.225 10.7656C107.065 10.9595 107.882 11.2242 108.621 11.674C110.353 12.7291 111.216 14.2856 111.122 16.3092C111.038 18.1326 110.135 19.4262 108.41 20.106C107.779 20.3541 107.127 20.5112 106.459 20.6166C105.971 20.6937 105.712 21.2305 105.939 21.6769C106.001 21.7993 106.114 21.8498 106.238 21.8627C106.384 21.8778 106.532 21.8741 106.679 21.8745C107.488 21.8764 108.298 21.8771 109.107 21.8778C109.392 21.8778 109.669 21.9272 109.937 22.0172C110.758 22.2915 111.196 22.8747 111.295 23.7204C111.376 24.4165 111.352 25.1165 111.355 25.8152C111.36 27.2869 111.353 28.7586 111.352 30.2299C111.352 30.2789 111.353 30.328 111.351 30.377C111.334 30.7383 111.215 30.8611 110.855 30.8633C110.144 30.8681 109.432 30.864 108.721 30.8651C108.218 30.8659 107.715 30.8729 107.212 30.8695C106.795 30.867 106.667 30.7423 106.663 30.3158C106.657 29.4941 106.66 28.6723 106.661 27.8509C106.663 26.7471 106.667 25.6437 106.668 24.54C106.668 24.4176 106.671 24.2941 106.661 24.1724C106.635 23.8841 106.524 23.761 106.246 23.6865C106.101 23.6478 105.954 23.6548 105.808 23.6566C104.545 23.6699 103.282 23.6894 102.018 23.6917C101.173 23.6935 100.327 23.6703 99.4808 23.6588C99.3951 23.6577 99.3086 23.6544 99.2232 23.6603C98.8315 23.6887 98.6946 23.8192 98.6777 24.2052C98.667 24.45 98.681 24.6955 98.6817 24.9407C98.685 26.6697 98.6876 28.3991 98.6906 30.1282C98.6906 30.165 98.6924 30.2019 98.6913 30.2384C98.6777 30.7247 98.5279 30.8776 98.0446 30.8769C97.2595 30.8754 96.4747 30.8633 95.6896 30.8611C95.3461 30.86 95.0027 30.8769 94.6593 30.8769C94.1535 30.8769 93.9945 30.7239 93.9897 30.2233C93.985 29.6961 93.9934 29.1685 93.9934 28.6413C93.9938 23.0859 93.9934 17.5302 93.9934 11.9748C93.9934 11.6559 93.985 11.337 93.9901 11.0185C93.9986 10.5153 94.1281 10.3836 94.6243 10.3825C96.0716 10.3796 97.5193 10.3814 98.9666 10.3814C98.9666 10.3877 98.9666 10.3936 98.9666 10.3999L98.9674 10.4006ZM98.6784 16.9967C98.6784 16.9967 98.6814 16.9967 98.6828 16.9967C98.6828 17.2906 98.6836 17.5847 98.6828 17.8786C98.6817 18.2952 98.6681 18.7118 98.6817 19.128C98.6928 19.4623 98.8308 19.5829 99.1636 19.5988C99.2368 19.6021 99.3108 19.5988 99.384 19.5965C100.25 19.5648 101.117 19.633 101.983 19.5298C102.346 19.4867 102.718 19.5335 103.086 19.5298C103.6 19.525 104.115 19.5446 104.626 19.4568C105.109 19.3739 105.565 19.2157 105.877 18.8253C106.492 18.057 106.697 17.1859 106.368 16.2402C106.048 15.3171 105.368 14.7825 104.419 14.5923C103.902 14.4887 103.374 14.4625 102.848 14.4574C101.647 14.4459 100.446 14.4522 99.2449 14.4533C98.7808 14.4533 98.681 14.5529 98.6799 15.0122C98.6784 15.6736 98.6795 16.3353 98.6795 16.9967H98.6784Z" fill="white"/>
<path d="M72.8505 17.6093C72.8682 15.4271 72.8307 13.2446 72.8428 11.0622C72.8432 10.9641 72.8421 10.8649 72.8572 10.7687C72.8936 10.5368 73.0073 10.4251 73.2425 10.3952C73.3636 10.3801 73.4873 10.3831 73.6099 10.3831C74.6523 10.3823 75.6947 10.3857 76.7375 10.3812C77.4343 10.3783 77.5175 10.4546 77.5171 11.1628C77.5153 14.7068 77.5094 18.2507 77.512 21.7951C77.5127 22.6164 77.5477 23.4375 77.7255 24.2441C78.0188 25.5731 78.7561 26.5036 80.1162 26.8535C80.4235 26.9324 80.7404 26.9818 81.0559 27.0205C82.0251 27.1399 82.988 27.0953 83.9432 26.8863C85.2252 26.6061 86.0457 25.8349 86.4009 24.5752C86.6287 23.767 86.695 22.9368 86.695 22.1011C86.6942 18.5202 86.6917 14.9394 86.6902 11.3586C86.6902 11.2115 86.6858 11.0636 86.6976 10.9173C86.7266 10.5634 86.8753 10.4111 87.2294 10.3864C87.4245 10.3728 87.6215 10.3886 87.8176 10.3886C88.7128 10.3879 89.6084 10.386 90.5036 10.3853C90.6508 10.3853 90.7988 10.3779 90.9449 10.3901C91.2272 10.4137 91.3656 10.5446 91.4057 10.8229C91.4212 10.9313 91.4179 11.043 91.4175 11.1532C91.4164 13.189 91.4359 15.2247 91.4061 17.2601C91.3781 19.1849 91.4562 21.1093 91.3921 23.0334C91.359 24.0258 91.2865 25.0146 91.0159 25.9787C90.3902 28.2087 88.9381 29.6513 86.7833 30.4199C85.5167 30.8716 84.203 31.0787 82.8636 31.1728C81.4302 31.2738 80.0245 31.1304 78.6357 30.7871C77.5451 30.5176 76.5145 30.1058 75.5913 29.4515C74.1561 28.434 73.3331 27.0364 73.0048 25.3235C72.8395 24.4616 72.8549 23.5912 72.8524 22.7215C72.8469 21.0175 72.8505 19.3132 72.8505 17.6093Z" fill="white"/>
<path d="M114.223 20.6396C114.223 17.5244 114.223 14.4088 114.223 11.2936C114.223 11.1834 114.221 11.0728 114.227 10.9625C114.248 10.5603 114.393 10.411 114.786 10.3848C114.872 10.3793 114.958 10.3812 115.043 10.3812C118.687 10.3837 122.331 10.3871 125.975 10.3889C126.686 10.3889 127.398 10.3837 128.109 10.3826C128.232 10.3826 128.355 10.3837 128.477 10.3974C128.711 10.4236 128.851 10.5552 128.906 10.7871C128.943 10.9452 128.941 11.103 128.93 11.2623C128.874 12.0582 128.867 12.8541 128.933 13.6501C128.94 13.7353 128.942 13.8223 128.934 13.9071C128.897 14.2709 128.734 14.4387 128.367 14.4523C127.963 14.4674 127.558 14.4593 127.153 14.4589C124.712 14.4575 122.27 14.4545 119.829 14.4545C119.682 14.4545 119.533 14.4586 119.389 14.4833C119.092 14.5345 118.995 14.6425 118.958 14.9441C118.944 15.0532 118.946 15.1646 118.946 15.2748C118.945 16.7222 118.944 18.1695 118.946 19.6169C118.947 20.2532 119.047 20.3299 119.682 20.2871C120.661 20.2212 121.641 20.1729 122.62 20.1187C124.064 20.0387 125.509 19.9557 126.95 19.8392C127.219 19.8175 127.49 19.8064 127.759 19.8142C128.09 19.8237 128.215 19.9561 128.242 20.2897C128.25 20.3871 128.249 20.4859 128.246 20.5839C128.216 21.4422 128.214 22.3004 128.247 23.1587C128.249 23.2077 128.248 23.2567 128.247 23.3058C128.238 23.76 128.092 23.9174 127.629 23.9461C126.393 24.0232 125.156 24.0932 123.921 24.1692C122.501 24.2565 121.082 24.3439 119.663 24.4398C119.096 24.4781 118.933 24.6617 118.935 25.232C118.937 26.8265 118.943 28.421 118.951 30.0154C118.956 30.7535 118.814 30.8873 118.07 30.8785C117.052 30.8663 116.034 30.8696 115.016 30.8656C114.893 30.8652 114.769 30.8689 114.648 30.8564C114.388 30.8294 114.271 30.7233 114.244 30.4641C114.222 30.2577 114.227 30.0475 114.227 29.8392C114.227 26.773 114.227 23.7065 114.227 20.6403H114.221L114.223 20.6396Z" fill="white"/>
<path d="M61.7736 10.3818C64.4846 10.3818 67.1955 10.3818 69.9068 10.3818C70.0294 10.3818 70.1524 10.3788 70.2749 10.3836C70.7067 10.3998 70.8495 10.5318 70.8514 10.9665C70.8536 11.4564 70.8248 11.9464 70.8197 12.4367C70.8153 12.8533 70.8109 13.2702 70.8528 13.6861C70.8591 13.7469 70.8565 13.8089 70.8547 13.8701C70.8399 14.3095 70.6968 14.4559 70.2407 14.4573C68.8302 14.4614 67.4193 14.4584 66.0088 14.4566C65.6286 14.4562 65.2483 14.4455 64.8681 14.45C64.3473 14.4562 64.1327 14.6616 64.1154 15.1877C64.1032 15.5548 64.1139 15.9235 64.1231 16.2911C64.1916 19.0988 64.108 21.9062 64.1213 24.7136C64.129 26.3685 64.0944 28.0238 64.1533 29.6787C64.1621 29.9224 64.1798 30.1687 64.1279 30.412C64.0583 30.739 63.9409 30.8577 63.6082 30.8688C63.2655 30.8802 62.9217 30.8599 62.5783 30.8614C61.8178 30.8643 61.0573 30.8728 60.2969 30.878C60.1864 30.8787 60.0756 30.8809 59.9659 30.8695C59.6556 30.8378 59.4948 30.6944 59.4602 30.3873C59.4341 30.1565 59.4359 29.9224 59.4359 29.6894C59.4403 24.8083 59.4462 19.9276 59.4517 15.0465C59.4517 14.9853 59.4543 14.9233 59.4484 14.8625C59.4204 14.583 59.3387 14.4953 59.0656 14.4618C58.9688 14.45 58.8698 14.4529 58.7715 14.4533C57.0051 14.4573 55.2386 14.4618 53.4725 14.4658C53.3868 14.4658 53.3006 14.4651 53.2152 14.4573C52.898 14.4275 52.7562 14.2955 52.7124 13.977C52.6973 13.8686 52.6999 13.7561 52.7073 13.6466C52.764 12.8135 52.7643 11.9807 52.7099 11.1478C52.7084 11.1235 52.7091 11.0988 52.7088 11.0741C52.6992 10.4968 52.807 10.3825 53.3838 10.3821C56.1809 10.3807 58.9776 10.3814 61.7747 10.3814L61.7736 10.3818Z" fill="white"/>
<path d="M14.5616 34.6672C14.5693 33.8234 14.9183 33.1247 15.5153 32.5518C16.1429 31.9494 16.8058 31.3839 17.4283 30.7771C18.174 30.0501 18.8925 29.2951 19.625 28.5544C19.8058 28.3716 19.9854 28.185 20.1841 28.0232C20.476 27.785 20.6799 27.7983 20.9722 28.0409C21.0285 28.0877 21.0804 28.1404 21.1312 28.1935C22.5502 29.6866 24.0273 31.1211 25.4915 32.5692C25.7452 32.8199 25.9737 33.0916 26.1637 33.3939C26.591 34.0744 26.6687 34.7852 26.3429 35.5303C26.1453 35.983 25.8935 36.3966 25.5379 36.7472C24.8658 37.4097 24.2025 38.0814 23.5337 38.7476C23.2407 39.0392 22.9194 39.2973 22.6348 39.604C22.2436 40.0258 21.7393 40.3196 21.186 40.5142C20.5673 40.7318 19.9817 40.6591 19.417 40.3458C19.1693 40.2082 18.944 40.0387 18.7412 39.8414C17.6701 38.7981 16.5993 37.7544 15.5326 36.7067C15.2893 36.4678 15.0766 36.195 14.8627 35.9336C14.6334 35.653 14.6021 35.2556 14.5623 34.8884C14.5546 34.8158 14.5612 34.7417 14.5612 34.668L14.5616 34.6672Z" fill="white"/>
<path d="M134.717 27.97C134.713 29.8472 133.375 31.1611 131.467 31.1504C129.49 31.139 128.27 29.7525 128.291 27.9118C128.313 26.0423 129.623 24.7512 131.522 24.7578C133.373 24.7645 134.721 26.12 134.717 27.97Z" fill="white"/>
<path d="M30.4067 13.6478C30.3924 15.3429 29.0507 16.659 27.3461 16.6509C25.658 16.6428 24.3171 15.2913 24.351 13.5906C24.3815 12.0503 25.4806 10.5937 27.4112 10.6055C29.0536 10.6159 30.4211 12.0013 30.4071 13.6478H30.4067Z" fill="white"/>
</g>
<defs>
<clipPath id="clip0_572_71420">
<rect width="185" height="40" fill="white" transform="translate(0.272461 0.652344)"/>
</clipPath>
</defs>
</svg>
