<svg width="186" height="40" viewBox="0 0 186 40" fill="none" xmlns="http://www.w3.org/2000/svg">
<g clip-path="url(#clip0_3016_11366)">
<path d="M185.978 29.9858C185.83 30.1708 185.634 30.2342 185.401 30.2272C184.246 30.1926 183.091 30.2103 181.937 30.2187C181.462 30.2221 181.329 30.0823 181.329 29.5983C181.33 27.5627 181.333 25.5274 181.339 23.4918C181.341 22.9215 181.499 22.3796 181.662 21.8392C181.803 21.3703 181.94 20.9002 182.076 20.4299C182.157 20.1471 182.075 20.0177 181.791 19.9591C181.604 19.9204 181.422 19.9587 181.246 20.0063C181.079 20.0513 181.03 20.1851 181.035 20.3502C181.053 20.8903 181.013 21.4281 180.962 21.9652C180.78 23.8792 180.319 25.7081 179.264 27.3444C178.141 29.0866 176.536 30.0823 174.481 30.3673C173.121 30.556 171.764 30.5889 170.416 30.2917C167.494 29.6473 165.465 27.9085 164.251 25.2049C163.781 24.1579 163.547 23.042 163.408 21.9055C163.312 21.1258 163.245 20.3443 163.274 19.5588C163.409 15.9376 164.883 13.0327 167.941 11.0115C169.457 10.0091 171.153 9.51772 172.97 9.43072C175.078 9.32971 177.072 9.7577 178.942 10.7217C181.257 11.9146 182.638 13.8478 183.293 16.3295C183.439 16.8824 183.262 17.0988 182.689 17.0693C181.707 17.0188 180.724 17.0476 179.742 17.0461C179.57 17.0461 179.398 17.0568 179.226 17.0502C178.868 17.0365 178.726 16.9256 178.609 16.5831C178.585 16.5134 178.565 16.4426 178.544 16.3722C178.151 15.0341 177.254 14.1902 175.932 13.8168C174.524 13.419 173.099 13.3925 171.677 13.7733C169.948 14.236 168.843 15.3452 168.37 17.0516C167.791 19.1426 167.809 21.2416 168.431 23.3259C168.983 25.1779 170.301 26.2171 172.229 26.3937C173.047 26.4686 173.85 26.4372 174.639 26.2297C176.183 25.8238 177.149 24.8539 177.46 23.2713C177.49 23.1161 177.5 22.9547 177.499 22.7965C177.495 22.4474 177.366 22.3014 177.016 22.2782C176.747 22.2602 176.476 22.2756 176.206 22.2793C175.273 22.2922 174.339 22.2513 173.406 22.2922C172.925 22.3132 172.774 22.1462 172.775 21.6563C172.776 20.9083 172.777 20.1604 172.774 19.4128C172.773 18.9114 172.891 18.7842 173.404 18.7842C175.001 18.7835 176.598 18.7876 178.195 18.7905C179.952 18.7938 181.709 18.7982 183.465 18.8008C183.898 18.8016 184.323 18.8495 184.728 19.0098C185.401 19.2756 185.801 19.7619 185.905 20.4815C185.914 20.5416 185.912 20.6046 185.975 20.6407L185.978 29.9869L185.978 29.9858Z" fill="white"/>
<path d="M0.686523 19.2439C0.723014 19.2446 0.759505 19.2457 0.795996 19.2465C0.619876 19.4658 0.812714 19.684 0.798037 19.9026C0.748279 19.9099 0.711059 19.9354 0.686745 19.9792C0.686672 19.7345 0.686597 19.489 0.686523 19.2439Z" fill="white"/>
<path d="M20.6691 0.016903C20.8862 -0.00374226 21.1033 -0.00374226 21.3194 0.0172717C21.7828 0.0751522 22.1866 0.275707 22.5479 0.560685C22.7401 0.712207 22.9185 0.882531 23.093 1.05507C24.1407 2.09065 25.1847 3.12955 26.2357 4.16183C27.3085 5.21547 28.8605 5.18893 29.8785 4.12385C30.4726 3.5019 31.0965 2.91425 31.7334 2.33766C32.0703 2.03277 32.3725 1.69433 32.6577 1.33931C33.104 0.783728 33.6259 0.324739 34.3536 0.182434C35.4754 -0.0369222 36.4123 0.32179 37.1794 1.1406C37.8004 1.80346 38.4233 2.46448 39.0863 3.08568C39.4536 3.42964 39.8283 3.76625 40.2052 4.09915C41.2609 5.03188 41.3926 6.41438 40.5111 7.51632C40.2822 7.8024 40.015 8.05973 39.7552 8.32001C38.9057 9.17126 38.0514 10.0177 37.1989 10.866C36.9022 11.1613 36.6317 11.4762 36.4301 11.8467C36.0237 12.5947 36.0195 13.3427 36.4179 14.0937C36.5976 14.4325 36.8366 14.7267 37.1047 14.9995C38.0506 15.9628 38.9961 16.9265 39.9391 17.8932C40.2478 18.2098 40.5376 18.5428 40.7811 18.914C41.1274 19.4423 41.2009 20.0045 40.9877 20.5981C40.7795 21.1783 40.501 21.703 40.0318 22.1391C39.0433 23.0578 38.0943 24.0185 37.1272 24.9601C36.8453 25.2348 36.539 25.4788 36.1928 25.6709C35.6617 25.9658 35.1017 26.0392 34.5221 25.8641C33.9403 25.6882 33.4226 25.4088 32.99 24.9594C31.9855 23.9164 30.9787 22.8749 29.9299 21.8751C29.8764 21.8242 29.8226 21.7741 29.7691 21.7236C28.8608 20.8687 27.8031 20.768 26.7456 21.4379C26.318 21.7089 25.9535 22.0576 25.5817 22.3957C24.536 23.3457 23.5892 24.3935 22.6082 25.4073C22.2838 25.7424 21.9551 26.0731 21.6267 26.4042C21.5578 26.4739 21.4855 26.5413 21.4089 26.6022C21.1041 26.8436 20.8755 26.8473 20.5875 26.594C20.3946 26.4241 20.2191 26.2335 20.0399 26.0484C18.665 24.6287 17.2471 23.2514 15.8417 21.8622C15.5961 21.6193 15.3251 21.408 15.0128 21.2569C14.2904 20.9066 13.5708 20.9114 12.8557 21.2805C12.5357 21.4456 12.2648 21.6727 12.0105 21.9249C10.9218 23.0055 9.83275 24.0856 8.73961 25.1618C8.20004 25.693 7.56234 25.9905 6.78702 25.9474C6.22664 25.9161 5.72519 25.7188 5.31181 25.3531C4.3556 24.5078 3.43699 23.6219 2.57697 22.6781C2.40475 22.489 2.20857 22.3197 2.0216 22.1527C1.33865 21.5422 0.985975 20.7728 0.797324 19.9039C0.812373 19.6841 0.619126 19.4659 0.795282 19.2465C0.886242 18.9129 1.1129 18.671 1.35578 18.4458C2.38038 17.4943 3.40905 16.5468 4.36874 15.5289C4.68828 15.1901 4.98752 14.8318 5.30853 14.4941C6.19452 13.5632 5.99283 12.2493 5.35628 11.4688C4.93622 10.9541 4.48187 10.4738 3.95308 10.0675C3.88523 10.0155 3.80927 9.96795 3.75764 9.90196C3.19521 9.1838 2.49678 8.59725 1.86174 7.9495C1.646 7.72941 1.44464 7.49899 1.28898 7.23318C0.767792 6.34396 0.789277 5.46543 1.35344 4.60238C1.57675 4.26063 1.87344 3.98339 2.16276 3.70063C3.03993 2.84347 3.9289 1.99811 4.75517 1.09083C4.90296 0.928614 5.0725 0.783728 5.24241 0.643635C6.06397 -0.0324982 7.00405 -0.0877982 7.99288 0.133401C8.04892 0.145936 8.10312 0.185752 8.14774 0.224462C8.40698 0.449717 8.69018 0.655064 8.91441 0.911655C9.27435 1.32309 9.71722 1.6512 10.051 2.08917C10.1886 2.26945 10.4098 2.38448 10.561 2.55701C11.046 3.10964 11.5726 3.61988 12.1091 4.1209C12.5019 4.48736 12.9414 4.76902 13.4708 4.88589C14.1588 5.03815 14.7822 4.86672 15.3583 4.48441C15.7298 4.23814 16.0284 3.91003 16.342 3.60071C17.259 2.69637 18.1689 1.78503 19.0826 0.877738C19.5267 0.436813 20.032 0.105014 20.6691 0.016903ZM23.5191 12.9383C23.5321 13.2439 23.5362 13.4998 23.5838 13.7549C23.9361 15.6351 25.5824 17.3826 28.0188 17.2583C29.3132 17.1923 30.4028 16.685 31.2073 15.6664C32.0265 14.6286 32.2654 13.4231 32.0593 12.1305C31.9655 11.5422 31.7434 10.9947 31.3576 10.5324C30.8491 9.92297 30.2362 9.44223 29.5275 9.07651C28.2753 8.43024 25.9396 8.75762 24.9205 9.82233C24.0544 10.7278 23.5157 11.7232 23.5191 12.9383ZM13.2156 10.6065C13.2134 10.6065 13.2112 10.6065 13.209 10.6065C13.2091 10.9254 13.2084 11.2439 13.2093 11.5628C13.2117 12.3046 13.1815 12.3315 12.4519 12.3278C11.7028 12.3241 10.9533 12.3211 10.2041 12.3344C9.76137 12.3422 9.53433 12.5597 9.52302 12.9401C9.51024 13.3615 9.71013 13.5731 10.1691 13.6185C10.2665 13.6281 10.3656 13.624 10.4637 13.624C11.2007 13.624 11.9376 13.6218 12.6746 13.6233C13.121 13.624 13.2095 13.7136 13.2108 14.1648C13.2129 14.925 13.2105 15.6852 13.2137 16.4454C13.2141 16.5796 13.2149 16.7182 13.2466 16.8469C13.3204 17.1451 13.5616 17.3144 13.8742 17.3103C14.1894 17.3062 14.408 17.1344 14.475 16.8211C14.5056 16.678 14.5265 16.5298 14.5276 16.3838C14.5314 15.6731 14.5272 14.9619 14.5255 14.2511C14.5255 14.1652 14.5158 14.0789 14.5236 13.9942C14.546 13.7468 14.6422 13.6509 14.8954 13.6247C14.9928 13.6148 15.0919 13.62 15.19 13.62C15.8901 13.6211 16.5902 13.6211 17.2903 13.6251C17.451 13.6259 17.6103 13.6174 17.7644 13.5731C18.0925 13.4788 18.2638 13.2045 18.2095 12.869C18.1548 12.5298 17.9111 12.3414 17.4831 12.3329C16.9795 12.3226 16.4759 12.3267 15.9723 12.3263C15.6283 12.3263 15.2844 12.3374 14.9408 12.3274C14.6502 12.3189 14.5488 12.2105 14.5229 11.9234C14.5174 11.8625 14.5188 11.801 14.5192 11.7398C14.5219 11.0286 14.5228 10.3178 14.53 9.60665C14.5318 9.42048 14.5136 9.23799 14.4598 9.06214C14.3837 8.81439 14.2064 8.67946 13.9479 8.65292C13.5173 8.60831 13.2431 8.82877 13.22 9.2826C13.1976 9.72279 13.2155 10.1652 13.2156 10.6065Z" fill="white"/>
<path d="M154.18 18.8014C155.729 18.8014 157.276 18.8014 158.825 18.8014C159.169 18.8014 159.511 18.8073 159.852 18.8744C160.726 19.0469 161.344 19.6699 161.496 20.5466C161.543 20.8127 161.566 21.08 161.566 21.3513C161.566 24.0498 161.569 26.7478 161.572 29.4463C161.572 30.1331 161.471 30.2252 160.781 30.2215C159.761 30.216 158.741 30.2197 157.722 30.2193C157.586 30.2193 157.451 30.2245 157.316 30.216C157.038 30.1987 156.917 30.0885 156.874 29.8186C156.862 29.7464 156.864 29.6719 156.865 29.5985C156.866 27.808 156.868 26.0172 156.87 24.2267C156.872 23.314 156.985 22.42 157.292 21.5541C157.418 21.1965 157.512 20.8278 157.619 20.4636C157.711 20.1529 157.605 19.9973 157.277 19.9737C157.156 19.9649 157.03 19.9682 156.91 19.9862C156.66 20.0235 156.561 20.137 156.574 20.3829C156.609 21.0586 156.547 21.7299 156.468 22.3979C156.314 23.7191 156.003 25.0023 155.441 26.2148C154.683 27.8501 153.566 29.1366 151.873 29.864C151.133 30.1821 150.358 30.3472 149.561 30.4357C148.961 30.5024 148.36 30.5161 147.758 30.5047C143.724 30.4272 140.451 27.8869 139.369 24C139.033 22.7886 138.876 21.5537 138.84 20.2988C138.804 19.0407 138.89 17.7939 139.291 16.5969C140.545 12.8468 143.022 10.3887 146.977 9.63886C149.288 9.20091 151.594 9.38228 153.766 10.3459C156.443 11.5344 158.172 13.5608 158.861 16.4311C158.884 16.5254 158.905 16.6239 158.904 16.7197C158.902 16.9166 158.819 17.0069 158.622 17.0401C158.538 17.0541 158.45 17.0541 158.365 17.0541C157.173 17.0522 155.981 17.0504 154.789 17.0463C154.334 17.0448 154.3 17.019 154.173 16.5859C153.709 15.0055 152.684 14.0305 151.056 13.7064C149.85 13.4665 148.644 13.4303 147.438 13.7031C145.739 14.0876 144.614 15.1279 144.034 16.7481C143.535 18.1434 143.427 19.5922 143.549 21.0623C143.617 21.8829 143.744 22.6921 144.016 23.4728C144.644 25.2729 145.907 26.2461 147.813 26.3991C148.717 26.4717 149.608 26.3991 150.474 26.1481C152.142 25.6648 152.916 24.4449 153.062 22.8926C153.097 22.5125 152.921 22.3186 152.541 22.2736C152.444 22.2622 152.344 22.2652 152.246 22.2689C151.141 22.3112 150.037 22.2718 148.932 22.2792C148.429 22.2825 148.295 22.149 148.318 21.6411C148.35 20.9303 148.373 20.2203 148.31 19.5103C148.3 19.3883 148.309 19.2674 148.344 19.1465C148.4 18.9467 148.527 18.8328 148.728 18.7999C148.812 18.7859 148.899 18.7775 148.984 18.7775C150.716 18.7764 152.449 18.7764 154.181 18.7764C154.181 18.7852 154.181 18.7937 154.181 18.8025L154.18 18.8014Z" fill="white"/>
<path d="M99.534 9.74899C100.725 9.74899 101.917 9.73645 103.109 9.7523C104.349 9.76889 105.587 9.83377 106.803 10.1139C107.644 10.3078 108.462 10.5725 109.202 11.0223C110.937 12.0773 111.802 13.6337 111.709 15.6572C111.625 17.4805 110.721 18.774 108.993 19.4538C108.362 19.7019 107.709 19.859 107.04 19.9644C106.552 20.0414 106.292 20.5782 106.519 21.0246C106.581 21.147 106.695 21.1975 106.819 21.2104C106.965 21.2255 107.113 21.2218 107.26 21.2222C108.071 21.224 108.882 21.2248 109.693 21.2255C109.978 21.2255 110.255 21.2749 110.524 21.3649C111.345 21.6391 111.784 22.2223 111.884 23.068C111.965 23.764 111.942 24.464 111.945 25.1626C111.95 26.6342 111.944 28.1058 111.943 29.5771C111.943 29.6261 111.945 29.6751 111.942 29.7242C111.925 30.0854 111.806 30.2082 111.446 30.2104C110.734 30.2152 110.021 30.2111 109.308 30.2122C108.805 30.213 108.301 30.22 107.797 30.2167C107.379 30.2141 107.251 30.0895 107.248 29.663C107.241 28.8413 107.244 28.0196 107.245 27.1982C107.246 26.0945 107.249 24.9912 107.251 23.8875C107.251 23.7651 107.254 23.6416 107.243 23.5199C107.217 23.2317 107.106 23.1085 106.827 23.0341C106.682 22.9954 106.536 23.0024 106.388 23.0042C105.124 23.0175 103.859 23.037 102.594 23.0392C101.747 23.0411 100.899 23.0178 100.052 23.0064C99.9663 23.0053 99.8797 23.002 99.7942 23.0079C99.4019 23.0363 99.2648 23.1668 99.248 23.5527C99.2374 23.7975 99.2515 24.043 99.2523 24.2882C99.2561 26.0171 99.2592 27.7464 99.2627 29.4753C99.2627 29.5122 99.2646 29.549 99.2635 29.5855C99.25 30.0718 99.1 30.2248 98.616 30.224C97.8297 30.2226 97.0437 30.2104 96.2574 30.2082C95.9135 30.2071 95.5695 30.224 95.2256 30.224C94.7191 30.224 94.5598 30.071 94.5548 29.5704C94.5499 29.0433 94.5582 28.5157 94.558 27.9886C94.5567 22.4335 94.5547 16.8781 94.553 11.3231C94.5529 11.0042 94.5443 10.6853 94.5494 10.3668C94.5577 9.86363 94.6874 9.73203 95.1844 9.73092C96.6339 9.72797 98.0837 9.72982 99.5332 9.72982C99.5332 9.73608 99.5332 9.74198 99.5332 9.74825L99.534 9.74899ZM99.2466 16.3447C99.2466 16.3447 99.2495 16.3447 99.251 16.3447C99.2511 16.6385 99.2519 16.9327 99.2513 17.2265C99.2503 17.6431 99.2368 18.0596 99.2505 18.4758C99.2617 18.8102 99.4 18.9307 99.7332 18.9466C99.8066 18.9499 99.8807 18.9466 99.954 18.9444C100.821 18.9127 101.69 18.9809 102.557 18.8776C102.92 18.8345 103.293 18.8813 103.661 18.8776C104.176 18.8728 104.692 18.8924 105.203 18.8046C105.688 18.7217 106.144 18.5636 106.457 18.1732C107.072 17.4049 107.277 16.5338 106.948 15.5883C106.627 14.6652 105.946 14.1307 104.996 13.9404C104.477 13.8368 103.948 13.8107 103.421 13.8055C102.219 13.7941 101.016 13.8003 99.8131 13.8015C99.3483 13.8015 99.2484 13.901 99.2474 14.3603C99.2462 15.0217 99.2475 15.6834 99.2477 16.3447H99.2466Z" fill="white"/>
<path d="M73.3747 16.9577C73.3917 14.7757 73.3535 12.5933 73.365 10.411C73.3653 10.3129 73.3642 10.2138 73.3793 10.1176C73.4157 9.88568 73.5296 9.77398 73.7651 9.74412C73.8864 9.72901 74.0103 9.73196 74.133 9.73196C75.177 9.73122 76.221 9.73454 77.2654 9.73011C77.9632 9.72716 78.0465 9.80347 78.0464 10.5116C78.0456 14.0554 78.0408 17.5991 78.0444 21.1432C78.0454 21.9646 78.0807 22.7855 78.259 23.5921C78.5532 24.9211 79.2919 25.8515 80.6541 26.2014C80.9619 26.2802 81.2793 26.3296 81.5953 26.3683C82.5659 26.4878 83.5303 26.4432 84.4869 26.2342C85.7708 25.954 86.5922 25.1828 86.9476 23.9232C87.1755 23.1151 87.2416 22.2849 87.2414 21.4492C87.2396 17.8686 87.2359 14.288 87.2333 10.7074C87.2333 10.5603 87.2288 10.4125 87.2406 10.2661C87.2696 9.91222 87.4185 9.75997 87.7731 9.73527C87.9685 9.72163 88.1657 9.73749 88.3622 9.73749C89.2587 9.73675 90.1556 9.73491 91.0522 9.73417C91.1996 9.73417 91.3478 9.7268 91.4942 9.73896C91.7769 9.76255 91.9156 9.89342 91.9558 10.1717C91.9714 10.2801 91.9681 10.3918 91.9677 10.502C91.9672 12.5377 91.9874 14.5733 91.9581 16.6086C91.9307 18.5333 92.0094 20.4576 91.9459 22.3815C91.913 23.3739 91.8407 24.3626 91.57 25.3266C90.944 27.5565 89.4902 28.999 87.3324 29.7676C86.064 30.2192 84.7484 30.4263 83.4069 30.5203C81.9715 30.6214 80.5636 30.478 79.1726 30.1348C78.0802 29.8653 77.0479 29.4535 76.1232 28.7992C74.6855 27.7817 73.8608 26.3842 73.5315 24.6715C73.3657 23.8096 73.3809 22.9392 73.3781 22.0696C73.372 20.3658 73.3752 18.6615 73.3747 16.9577Z" fill="white"/>
<path d="M114.817 19.9869C114.816 16.8718 114.815 13.7565 114.814 10.6414C114.814 10.5312 114.812 10.4206 114.818 10.3104C114.839 9.90821 114.984 9.75891 115.378 9.73274C115.463 9.72721 115.55 9.72905 115.636 9.72905C119.285 9.73164 122.934 9.73495 126.583 9.7368C127.296 9.7368 128.009 9.73164 128.721 9.73053C128.844 9.73053 128.967 9.73164 129.089 9.74527C129.323 9.77145 129.464 9.90305 129.519 10.1349C129.556 10.2931 129.555 10.4509 129.544 10.6101C129.488 11.406 129.48 12.2019 129.547 12.9978C129.554 13.0829 129.556 13.1699 129.548 13.2547C129.511 13.6186 129.348 13.7863 128.981 13.8C128.576 13.8151 128.17 13.807 127.765 13.8066C125.32 13.8051 122.874 13.8022 120.429 13.8022C120.283 13.8022 120.133 13.8062 119.989 13.8309C119.691 13.8822 119.594 13.9902 119.557 14.2917C119.544 14.4008 119.545 14.5122 119.545 14.6224C119.545 16.0697 119.544 17.517 119.546 18.9642C119.548 19.6005 119.648 19.6772 120.284 19.6344C121.264 19.5684 122.246 19.5202 123.226 19.466C124.673 19.386 126.119 19.303 127.563 19.1865C127.832 19.1648 128.104 19.1537 128.373 19.1615C128.705 19.1711 128.83 19.3034 128.857 19.637C128.865 19.7343 128.864 19.8331 128.861 19.9312C128.831 20.7894 128.829 21.6476 128.863 22.5058C128.864 22.5548 128.864 22.6038 128.863 22.6529C128.854 23.107 128.708 23.2644 128.244 23.2932C127.006 23.3702 125.768 23.4403 124.53 23.5162C123.109 23.6036 121.687 23.691 120.266 23.7868C119.699 23.8251 119.536 24.0087 119.537 24.579C119.54 26.1734 119.546 27.7678 119.555 29.3621C119.56 30.1001 119.418 30.234 118.673 30.2251C117.653 30.213 116.633 30.2163 115.614 30.2122C115.491 30.2118 115.367 30.2155 115.245 30.203C114.986 30.1761 114.868 30.0699 114.841 29.8108C114.819 29.6043 114.824 29.3942 114.824 29.1859C114.822 26.1199 114.822 23.0536 114.821 19.9876H114.815L114.817 19.9869Z" fill="white"/>
<path d="M62.2778 9.73112C64.9928 9.73112 67.7078 9.73112 70.4233 9.73112C70.546 9.73112 70.6691 9.72817 70.7919 9.73297C71.2243 9.74919 71.3674 9.88116 71.3694 10.3158C71.3717 10.8057 71.3431 11.2956 71.3381 11.7859C71.3338 12.2025 71.3295 12.6194 71.3717 13.0352C71.3779 13.0961 71.3754 13.158 71.3736 13.2192C71.3589 13.6586 71.2156 13.805 70.7588 13.8064C69.3462 13.8105 67.9332 13.8076 66.5206 13.8057C66.1398 13.8053 65.759 13.7946 65.3782 13.7991C64.8565 13.8053 64.6417 14.0107 64.6245 14.5367C64.6125 14.9039 64.6233 15.2725 64.6326 15.6401C64.702 18.4476 64.6192 21.2548 64.6333 24.062C64.6415 25.7169 64.6074 27.3721 64.6669 29.0269C64.6758 29.2706 64.6935 29.5168 64.6416 29.7601C64.5721 30.0871 64.4545 30.2058 64.1213 30.2169C63.7781 30.2283 63.4337 30.208 63.0898 30.2095C62.3282 30.2124 61.5666 30.2209 60.805 30.2261C60.6944 30.2268 60.5834 30.229 60.4736 30.2176C60.1628 30.1859 60.0016 30.0425 59.9669 29.7354C59.9407 29.5046 59.9424 29.2706 59.9424 29.0376C59.9453 24.1568 59.9497 19.2763 59.9538 14.3955C59.9538 14.3343 59.9563 14.2724 59.9504 14.2116C59.9223 13.9322 59.8404 13.8444 59.5669 13.8109C59.47 13.7991 59.3708 13.802 59.2724 13.8024C57.5033 13.8064 55.7342 13.8109 53.9654 13.8149C53.8795 13.8149 53.7933 13.8142 53.7077 13.8064C53.39 13.7766 53.248 13.6446 53.204 13.3261C53.1889 13.2177 53.1914 13.1053 53.1988 12.9958C53.2553 12.1627 53.2554 11.3299 53.2006 10.4972C53.1991 10.4728 53.1998 10.4481 53.1995 10.4234C53.1897 9.84614 53.2977 9.73186 53.8753 9.73149C56.6766 9.73002 59.4776 9.73075 62.2789 9.73075L62.2778 9.73112Z" fill="white"/>
<path d="M15.0012 34.0152C15.0087 33.1714 15.3579 32.4728 15.9557 31.8999C16.584 31.2976 17.2478 30.7321 17.871 30.1253C18.6176 29.3983 19.337 28.6434 20.0704 27.9028C20.2513 27.7199 20.4311 27.5334 20.6301 27.3716C20.9224 27.1334 21.1266 27.1467 21.4194 27.3893C21.4758 27.4361 21.5279 27.4888 21.5787 27.5419C23.0003 29.0349 24.4801 30.4692 25.9469 31.9173C26.201 32.1679 26.43 32.4396 26.6203 32.7419C27.0485 33.4224 27.1265 34.1332 26.8005 34.8782C26.6027 35.3309 26.3507 35.7445 25.9947 36.0951C25.3217 36.7575 24.6576 37.4292 23.988 38.0953C23.6947 38.3869 23.3729 38.645 23.0881 38.9517C22.6963 39.3734 22.1914 39.6672 21.6374 39.8618C21.0177 40.0793 20.4312 40.0067 19.8656 39.6934C19.6175 39.5559 19.3918 39.3863 19.1886 39.1891C18.1156 38.1458 17.0429 37.1022 15.9743 36.0545C15.7305 35.8156 15.5174 35.5428 15.3031 35.2815C15.0733 35.0009 15.0419 34.6035 15.002 34.2364C14.9942 34.1638 15.0008 34.0897 15.0008 34.0159L15.0012 34.0152Z" fill="white"/>
<path d="M135.342 27.3148C135.338 29.1916 133.999 30.5053 132.089 30.4946C130.109 30.4832 128.886 29.097 128.907 27.2566C128.928 25.3875 130.24 24.0967 132.142 24.1033C133.995 24.1099 135.345 25.4652 135.342 27.3148Z" fill="white"/>
<path d="M30.8625 12.9933C30.8486 14.6881 29.5055 16.004 27.7985 15.9959C26.1082 15.9878 24.765 14.6365 24.7984 12.9362C24.8285 11.3962 25.9287 9.93994 27.862 9.95173C29.5066 9.96205 30.8763 11.3472 30.8628 12.9933H30.8625Z" fill="white"/>
</g>
<defs>
<clipPath id="clip0_3016_11366">
<rect width="185.29" height="40" fill="white" transform="matrix(1 0 0.000301956 1 0.679688 0)"/>
</clipPath>
</defs>
</svg>
