<svg width="124" height="20" viewBox="0 0 124 20" fill="none" xmlns="http://www.w3.org/2000/svg">
<path d="M104.823 5.81339C104.114 5.90158 103.501 6.00424 102.988 6.12007C102.474 6.23721 102.064 6.34645 101.756 6.44912C101.448 6.55178 101.256 6.61759 101.181 6.64655V17.0471H104.067V8.0733C104.198 8.01539 104.515 7.91931 105.02 7.78769C105.524 7.65607 106.235 7.59026 107.15 7.59026C108.327 7.59026 109.241 7.8456 109.897 8.3576C110.551 8.8696 110.877 9.68828 110.877 10.8149V17.0471H113.763V10.9031C113.763 9.76198 114.09 8.92488 114.744 8.39051C115.397 7.85613 116.247 7.59026 117.293 7.59026C118.339 7.59026 119.18 7.83112 119.759 8.31417C120.337 8.79721 120.628 9.56456 120.628 10.6175V17.0471H123.541V9.85017C123.541 9.14864 123.391 8.53792 123.093 8.01802C122.794 7.49944 122.383 7.06773 121.86 6.72289C121.337 6.37936 120.721 6.11875 120.011 5.9437C119.302 5.76864 118.544 5.68046 117.741 5.68046C116.564 5.68046 115.546 5.86736 114.687 6.23984C113.827 6.61232 113.155 7.10721 112.669 7.72056C112.108 7.01771 111.356 6.50308 110.413 6.17403C109.471 5.84498 108.401 5.68046 107.205 5.68046C106.327 5.68046 105.533 5.72389 104.823 5.81208M95.3809 15.3137C95.2307 15.3427 94.9562 15.3756 94.5548 15.4124C94.152 15.4493 93.625 15.4677 92.9711 15.4677C91.2528 15.4677 90.033 15.19 89.3143 14.6345C88.5956 14.0791 88.2357 13.2446 88.2357 12.1338V6.253C88.1424 6.22405 87.9689 6.1793 87.7177 6.12138C87.4652 6.06347 87.1803 6.0332 86.8631 6.0332C86.3775 6.0332 86.0032 6.11743 85.7417 6.28591C85.4801 6.45438 85.3493 6.71367 85.3493 7.0651V12.3746C85.3493 13.6619 85.7313 14.6938 86.4979 15.469C87.1143 16.0837 87.9508 16.5522 89.0061 16.8734C90.0615 17.1945 91.4392 17.3564 93.1394 17.3564C93.7183 17.3564 94.288 17.3459 94.8487 17.3235C95.4094 17.3012 95.9222 17.2722 96.3896 17.2354C96.8558 17.1985 97.2533 17.1656 97.5809 17.1366C97.9073 17.1077 98.1364 17.0774 98.2672 17.0485V6.253C98.174 6.22405 98.0005 6.1793 97.7493 6.12138C97.4968 6.06347 97.2119 6.0332 96.8946 6.0332C96.4091 6.0332 96.0348 6.11743 95.7745 6.28591C95.513 6.45438 95.3822 6.71367 95.3822 7.0651V15.315L95.3809 15.3137ZM79.3539 17.0485H82.2675V6.23063C82.1742 6.20167 82.0007 6.16087 81.7495 6.10954C81.497 6.05821 81.2121 6.0332 80.8949 6.0332C80.4093 6.0332 80.0312 6.11349 79.7605 6.27406C79.4899 6.43464 79.3539 6.69788 79.3539 7.06378V17.0471V17.0485ZM76.2708 17.0485V10.224C76.2708 9.52112 76.1115 8.89329 75.7943 8.33654C75.4757 7.78111 75.0238 7.30596 74.4359 6.90978C73.8467 6.51493 73.1333 6.21088 72.2916 5.99898C71.4512 5.78707 70.5163 5.68046 69.4894 5.68046C68.5933 5.68046 67.7711 5.72389 67.0239 5.81208C66.2768 5.90026 65.6228 6.00292 65.0621 6.11875C64.5015 6.23589 64.0534 6.34514 63.7168 6.4478C63.3801 6.55046 63.1742 6.61627 63.1004 6.64523V17.0458H65.9867V8.09305C66.1356 8.03513 66.4904 7.93642 67.0511 7.7969C67.6118 7.65738 68.368 7.58894 69.3211 7.58894C70.7221 7.58894 71.749 7.86666 72.4029 8.42209C73.0569 8.97753 73.3832 9.78962 73.3832 10.8571V17.0445H76.2695L76.2708 17.0485ZM56.0833 7.97459C56.7463 8.33391 57.1529 8.85644 57.3018 9.5435C57.3575 9.74882 57.386 9.96731 57.386 10.2016V10.3108C57.162 10.2819 56.7088 10.2529 56.0276 10.2227C55.3452 10.1937 54.5851 10.1792 53.7435 10.1792C52.5288 10.1792 51.5059 10.2635 50.6758 10.4319C49.8445 10.6004 49.1763 10.8373 48.6726 11.1453C48.1676 11.452 47.8038 11.8337 47.5797 12.2864C47.3557 12.7405 47.2431 13.2525 47.2431 13.8225C47.2431 14.2765 47.3272 14.7148 47.4956 15.1386C47.6639 15.5638 47.9902 15.9389 48.4758 16.2693C48.9614 16.5983 49.6386 16.8615 50.5075 17.059C51.3764 17.2564 52.5107 17.3551 53.9118 17.3551C55.6301 17.3551 57.026 17.3077 58.1008 17.213C59.1743 17.1182 59.88 17.0419 60.2166 16.9826V10.4214C60.2166 9.55797 60.0483 8.82748 59.7116 8.2273C59.375 7.62711 58.8946 7.14144 58.2691 6.76764C57.6437 6.39515 56.8823 6.12796 55.9849 5.96739C55.0889 5.80681 54.0801 5.72652 52.9587 5.72652C52.1184 5.72652 51.4178 5.7818 50.8571 5.89105C50.2964 6.00029 49.8575 6.1148 49.5402 6.23063C49.2411 6.34777 49.0028 6.48992 48.8254 6.65839C48.648 6.82686 48.5587 7.03482 48.5587 7.28358C48.5587 7.53235 48.6325 7.75215 48.7827 7.94168C48.9316 8.13122 49.109 8.27863 49.3149 8.37998C49.4457 8.30627 49.614 8.21545 49.8199 8.10621C50.0245 7.99696 50.2822 7.8943 50.5904 7.79953C50.8986 7.70477 51.2624 7.62053 51.6833 7.54682C52.1041 7.47312 52.5845 7.43758 53.1258 7.43758C54.4336 7.43758 55.4191 7.61658 56.082 7.97459M57.3575 15.5335C57.171 15.5769 56.8059 15.6283 56.2646 15.6875C55.7221 15.7467 54.9762 15.7757 54.0231 15.7757C53.2566 15.7757 52.6221 15.7283 52.1183 15.6335C51.6133 15.5388 51.2119 15.4032 50.9128 15.2268C50.6137 15.0518 50.4091 14.8399 50.2964 14.5911C50.1838 14.3423 50.1281 14.0725 50.1281 13.779C50.1281 13.0775 50.4311 12.5576 51.0384 12.222C51.6457 11.885 52.6493 11.7179 54.0503 11.7179C54.387 11.7179 54.7366 11.7258 55.1005 11.7402C55.4644 11.7547 55.8049 11.7731 56.1235 11.7955C56.4407 11.8179 56.7127 11.8363 56.9367 11.8508C57.1607 11.8653 57.3005 11.8797 57.3575 11.8942V15.5361V15.5335ZM45.6736 7.76663C46.2149 7.88377 46.5801 7.99302 46.7665 8.09568C46.8792 8.02197 47.0087 7.89167 47.1589 7.70082C47.3078 7.51129 47.3829 7.277 47.3829 6.99929C47.3829 6.60443 47.1213 6.30433 46.5982 6.09901C46.3185 5.98187 45.9391 5.8871 45.4639 5.81339C44.9874 5.73969 44.3762 5.70415 43.629 5.70415C42.7886 5.70415 42.0324 5.76601 41.359 5.89105C40.687 6.01609 40.103 6.15429 39.6083 6.30828C39.1137 6.46228 38.72 6.60838 38.4313 6.74789C38.1412 6.88741 37.969 6.97823 37.9133 7.02166V17.0498H40.7996V8.18518C40.8553 8.15622 40.9576 8.10884 41.1078 8.04303C41.2567 7.97722 41.4575 7.91141 41.71 7.8456C41.9625 7.77979 42.2655 7.72188 42.6203 7.67055C42.9751 7.61921 43.3856 7.59421 43.853 7.59421C44.5251 7.59421 45.1324 7.65344 45.6736 7.76926M32.1122 15.3137C31.962 15.3427 31.6875 15.3756 31.286 15.4124C30.8833 15.4493 30.3563 15.4677 29.7024 15.4677C27.984 15.4677 26.7642 15.19 26.0456 14.6345C25.3256 14.0791 24.9669 13.2446 24.9669 12.1338V6.253C24.8737 6.22405 24.7002 6.1793 24.449 6.12138C24.1965 6.06347 23.9116 6.0332 23.5943 6.0332C23.1087 6.0332 22.7345 6.11743 22.473 6.28591C22.2114 6.45438 22.0806 6.71367 22.0806 7.0651V12.3746C22.0806 13.6619 22.4626 14.6938 23.2292 15.469C23.8455 16.0837 24.682 16.5522 25.7374 16.8734C26.7927 17.1945 28.1705 17.3564 29.8707 17.3564C30.4495 17.3564 31.0193 17.3459 31.58 17.3235C32.1407 17.3012 32.6534 17.2722 33.1209 17.2354C33.5871 17.1985 33.9846 17.1656 34.3122 17.1366C34.6385 17.1077 34.8677 17.0774 34.9985 17.0485V6.253C34.9053 6.22405 34.7318 6.1793 34.4805 6.12138C34.228 6.06347 33.9432 6.0332 33.6259 6.0332C33.1403 6.0332 32.7661 6.11743 32.5058 6.28591C32.2443 6.45438 32.1135 6.71367 32.1135 7.0651V15.315L32.1122 15.3137ZM16.071 11.9021C15.7252 12.6405 15.2539 13.2657 14.6557 13.7777L11.882 10.9255C11.4145 10.94 10.9665 11.0426 10.5366 11.2322C10.1067 11.423 9.89172 11.6863 9.89172 12.0219C9.89172 12.1825 9.93316 12.3325 10.0173 12.472C10.1015 12.6116 10.218 12.7616 10.367 12.9222L12.3844 14.9847C11.6372 15.2768 10.8059 15.4229 9.89043 15.4229C8.8817 15.4229 7.96103 15.2729 7.131 14.9728C6.29968 14.6727 5.59007 14.2594 5.0009 13.733C4.41301 13.2065 3.95979 12.5813 3.64254 11.8574C3.32529 11.1335 3.16602 10.3464 3.16602 9.49874C3.16602 8.65111 3.32529 7.86798 3.64254 7.15065C3.95979 6.43464 4.41301 5.81208 5.0009 5.2856C5.59007 4.75912 6.29968 4.34978 7.131 4.05627C7.96233 3.76407 8.8817 3.61798 9.89043 3.61798C10.8992 3.61798 11.8146 3.76407 12.6369 4.05627C13.4579 4.34847 14.1636 4.75912 14.7528 5.2856C15.3407 5.81208 15.7939 6.43464 16.1111 7.15065C16.4284 7.86798 16.5876 8.6498 16.5876 9.49874C16.5876 10.3477 16.4141 11.1624 16.0697 11.9008M19.0272 6.36225C18.5416 5.39616 17.8644 4.56301 16.9955 3.86147C16.1267 3.15994 15.0856 2.60714 13.8709 2.20438C12.6563 1.80294 11.3213 1.60156 9.86453 1.60156C8.40777 1.60156 7.07662 1.80294 5.87107 2.20438C4.66681 2.60714 3.6296 3.15862 2.76072 3.86147C1.89184 4.56301 1.21461 5.39747 0.729024 6.36225C0.243438 7.32834 0 8.3734 0 9.50006C0 10.6267 0.242143 11.6718 0.729024 12.6379C1.21461 13.604 1.89184 14.4411 2.76072 15.1505C3.6296 15.8599 4.66681 16.4167 5.87107 16.8181C7.07532 17.2209 8.40648 17.4222 9.86453 17.4222C11.4145 17.4222 12.8065 17.1814 14.0393 16.6983L16.6731 19.3965L18.8589 18.1027L16.3649 15.5572C17.4112 14.8412 18.2373 13.9633 18.8447 12.9235C19.452 11.885 19.755 10.7439 19.755 9.50006C19.755 8.3734 19.5115 7.32834 19.0259 6.36225" fill="white"/>
<path d="M80.6992 4.60156C81.8018 4.60156 82.6992 3.70413 82.6992 2.60156C82.6992 1.499 81.8018 0.601562 80.6992 0.601562C79.5967 0.601562 78.6992 1.499 78.6992 2.60156C78.6992 3.70413 79.5967 4.60156 80.6992 4.60156Z" fill="white"/>
</svg>
