<svg width="24" height="25" viewBox="0 0 24 25" fill="none" xmlns="http://www.w3.org/2000/svg">
<path fill-rule="evenodd" clip-rule="evenodd" d="M11.1906 3.80834C10.9766 3.44126 10.3527 3.21865 9.71907 3.5808C9.08771 3.94163 8.97667 4.57767 9.187 4.93836L11.7127 9.26947C11.9213 9.62729 11.8004 10.0865 11.4426 10.2952C11.0848 10.5038 10.6255 10.3829 10.4169 10.0251L7.04934 4.25027C6.83528 3.88319 6.21147 3.66058 5.5778 4.02273C4.94644 4.38356 4.8354 5.0196 5.04573 5.38029L8.83422 11.877C9.04288 12.2348 8.92196 12.694 8.56414 12.9027C8.20632 13.1113 7.7471 12.9904 7.53844 12.6326L5.85467 9.74517C5.64061 9.3781 5.0168 9.15548 4.38313 9.51763C3.75177 9.87846 3.64073 10.5145 3.85106 10.8752L7.63955 17.3719C9.24849 20.131 13.2188 21.0263 16.5858 19.1021C19.9505 17.1791 21.1465 13.3376 19.5413 10.5849L17.0156 6.25382C16.8016 5.88675 16.1778 5.66413 15.5441 6.02628C14.9128 6.38711 14.8017 7.02315 15.012 7.38384L16.6958 10.2712C16.7966 10.4441 16.8241 10.65 16.7724 10.8432C16.7206 11.0364 16.5938 11.201 16.4201 11.3002C14.8776 12.1817 14.4049 13.8863 15.0802 15.0443C15.2889 15.4021 15.1679 15.8613 14.8101 16.07C14.4523 16.2787 13.9931 16.1577 13.7844 15.7999C12.8717 14.2347 13.2405 12.3501 14.4194 11.018C14.749 10.6456 14.8618 10.1039 14.6113 9.67433L11.1906 3.80834Z" fill="url(#paint0_linear_3281_3804)"/>
<g opacity="0.5">
<path fill-rule="evenodd" clip-rule="evenodd" d="M4.41333 18.359C4.77115 18.1504 5.23037 18.2713 5.43903 18.6291C6.26589 20.0471 7.52998 21.1193 9.08886 21.8151C9.46711 21.9839 9.63689 22.4274 9.46807 22.8057C9.29925 23.1839 8.85576 23.3537 8.47751 23.1849C6.666 22.3764 5.1462 21.1046 4.14325 19.3847C3.93459 19.0269 4.05551 18.5677 4.41333 18.359Z" fill="url(#paint1_linear_3281_3804)"/>
<path fill-rule="evenodd" clip-rule="evenodd" d="M18.9053 4.42194C17.8914 3.38646 16.4454 3.00452 15.0299 3.4073C14.6315 3.52066 14.2166 3.28959 14.1033 2.89119C13.9899 2.49279 14.221 2.07792 14.6194 1.96456C16.5576 1.41307 18.574 1.93959 19.9771 3.3725C20.2669 3.66846 20.2619 4.14331 19.9659 4.4331C19.67 4.7229 19.1951 4.7179 18.9053 4.42194Z" fill="url(#paint2_linear_3281_3804)"/>
</g>
<defs>
<linearGradient id="paint0_linear_3281_3804" x1="12.0004" y1="3.39648" x2="12.0004" y2="20.1287" gradientUnits="userSpaceOnUse">
<stop offset="0.0885417" stop-color="white" stop-opacity="0.3"/>
<stop offset="1" stop-color="white"/>
</linearGradient>
<linearGradient id="paint1_linear_3281_3804" x1="5.0504" y1="-13.7032" x2="16.8578" y2="16.7059" gradientUnits="userSpaceOnUse">
<stop stop-color="white"/>
<stop offset="1" stop-color="#A3A3A3"/>
</linearGradient>
<linearGradient id="paint2_linear_3281_3804" x1="5.0504" y1="-13.7032" x2="16.8578" y2="16.7059" gradientUnits="userSpaceOnUse">
<stop stop-color="white"/>
<stop offset="1" stop-color="#A3A3A3"/>
</linearGradient>
</defs>
</svg>
