<svg width="388" height="176" viewBox="0 0 388 176" fill="none" xmlns="http://www.w3.org/2000/svg">
<g clip-path="url(#clip0_1667_10688)">
<path d="M27.1321 4.38623H34.7246V44.6457H29.9713L8.86856 17.5136V44.6457H1.29199V4.51384H7.4649L27.148 29.4607V4.38623H27.1321Z" fill="white"/>
<path d="M47.0701 32.9541C47.5805 36.4313 50.5473 38.9994 55.5558 38.9994C60.5643 38.9994 61.4735 37.9626 63.1483 36.3037L67.6464 40.6742C64.6955 43.7687 59.7987 45.2999 55.4282 45.2999C45.6504 45.2999 39.8604 39.2546 39.8604 30.2584C39.8604 21.2623 45.6504 15.4722 54.9018 15.4722C64.1532 15.4722 70.3421 21.2623 69.1777 32.9701H47.0541L47.0701 32.9541ZM62.5103 27.164C61.9999 23.4316 59.1607 21.6291 55.173 21.6291C51.1853 21.6291 48.2345 23.4316 47.1977 27.164H62.5103Z" fill="white"/>
<path d="M91.9712 16.3493H100.329V16.6045L91.062 30.3699L100.967 44.5182C100.967 44.6458 92.6092 44.6458 92.6092 44.6458L86.4363 35.1232L80.2634 44.6458H71.9053C71.9053 44.5182 81.8106 30.2423 81.8106 30.2423L72.5433 16.4769V16.2217H80.9014L86.4363 25.7442L91.9712 16.2217V16.3493Z" fill="white"/>
<path d="M114.35 8.37403V16.3494H122.198V22.3947H114.35V34.6129C114.35 37.3085 115.897 38.6005 118.083 38.6005C120.268 38.6005 120.395 38.2177 121.432 37.7073L123.362 43.625C121.305 44.3906 119.63 44.7894 117.572 44.7894C111.399 45.0446 107.412 41.5674 107.412 34.5012V22.283H102.132V16.2377H107.412V8.9004L114.35 8.13477V8.38998V8.37403Z" fill="white"/>
<path d="M157.816 14.2918C155.12 11.7237 151.132 10.3041 147.655 10.3041C139.042 10.3041 133.89 16.8598 133.89 25.0904C133.89 33.3209 137.75 38.473 147.655 38.473C157.561 38.473 153.573 37.835 156.651 35.2509V28.1688H146.363V21.3579H163.606V38.3294C159.618 42.8275 154.61 45.5391 147.655 45.5391C132.614 45.5391 126.425 35.6338 126.425 25.0904C126.425 14.547 133.507 3.34961 147.655 3.34961C161.803 3.34961 158.454 5.40725 162.569 9.52252L157.816 14.2758V14.2918Z" fill="white"/>
<path d="M175.824 32.9541C176.334 36.4313 179.301 38.9994 184.31 38.9994C189.318 38.9994 190.227 37.9626 191.902 36.3037L196.4 40.6742C193.449 43.7687 188.553 45.2999 184.182 45.2999C174.404 45.2999 168.614 39.2546 168.614 30.2584C168.614 21.2623 174.404 15.4722 183.656 15.4722C192.907 15.4722 199.096 21.2623 197.932 32.9701H175.808L175.824 32.9541ZM191.264 27.164C190.754 23.4316 187.915 21.6291 183.927 21.6291C179.939 21.6291 176.988 23.4316 175.952 27.164H191.264Z" fill="white"/>
<path d="M224.187 44.6456V29.8593C224.187 25.6165 221.874 22.2668 217.376 22.2668C212.878 22.2668 210.166 25.8717 210.166 30.2422V44.6456H203.228V16.3491H209.528L210.038 20.2092C212.862 17.3859 215.829 15.9663 219.306 15.9663C225.989 15.9663 231.269 20.9748 231.269 29.8593V44.7732H224.33L224.203 44.6456H224.187Z" fill="white"/>
<path d="M0.765625 90.3125V50.1807H8.23054V90.3125H0.765625Z" fill="white"/>
<path d="M35.7619 90.3126V75.5263C35.7619 71.2835 33.4491 67.9338 28.951 67.9338C24.4529 67.9338 21.7413 71.5387 21.7413 75.9092V90.3126H14.8027V62.0161H21.1032L21.6137 65.8762C24.4369 63.0529 27.4038 61.6333 30.881 61.6333C37.5643 61.6333 42.844 66.6418 42.844 75.5263V90.4402H35.9055L35.7779 90.3126H35.7619Z" fill="white"/>
<path d="M69.593 90.3126V75.5263C69.593 71.2835 67.2801 67.9338 62.782 67.9338C58.2839 67.9338 55.5723 71.5387 55.5723 75.9092V90.3126H48.6338V62.0161H54.9343L55.4447 65.8762C58.268 63.0529 61.2348 61.6333 64.7121 61.6333C71.3954 61.6333 76.6751 66.6418 76.6751 75.5263V90.4402H69.7365L69.6089 90.3126H69.593Z" fill="white"/>
<path d="M110.746 76.1642C110.746 84.2671 105.211 90.9505 95.9594 90.9505C86.7081 90.9505 81.3008 84.3947 81.3008 76.1642C81.3008 67.9337 86.9633 61.3779 95.9594 61.3779C104.956 61.3779 110.746 68.0613 110.746 76.1642ZM88.2393 76.1642C88.2393 80.4071 90.8074 84.5224 95.9594 84.5224C101.112 84.5224 103.68 80.5347 103.68 76.1642C103.68 71.7937 100.729 67.806 95.9594 67.806C91.1902 67.806 88.2393 71.9213 88.2393 76.1642Z" fill="white"/>
<path d="M144.322 62.0161L132.231 90.4402H124.638L112.548 62.0161H120.14L124 71.4111L128.371 83.3741L132.614 71.5387L136.474 62.0161H144.322Z" fill="white"/>
<path d="M170.034 62.0159H176.718V90.3124H170.162L169.779 86.1971C168.232 89.5467 163.734 91.078 160.639 91.2056C152.281 91.2056 146.108 86.0535 146.108 76.1641C146.108 66.2747 152.537 61.2503 160.895 61.3779C164.627 61.3779 168.36 63.1803 169.891 66.0036L170.146 62.1435L170.018 62.0159H170.034ZM153.063 76.1641C153.063 81.5714 156.795 84.7775 161.421 84.7775C172.475 84.7775 172.475 67.6784 161.421 67.6784C150.367 67.6784 153.063 70.9004 153.063 76.1641Z" fill="white"/>
<path d="M191.392 54.0405V62.0159H199.24V68.0612H191.392V80.2794C191.392 82.975 192.939 84.2671 195.124 84.2671C197.31 84.2671 197.437 83.8842 198.474 83.3738L200.404 89.2915C198.347 90.0571 196.672 90.4559 194.614 90.4559C188.441 90.7111 184.453 87.2339 184.453 80.1677V67.9495H179.174V61.9042H184.453V54.5669L191.392 53.8013V54.0565V54.0405Z" fill="white"/>
<path d="M232.561 76.1642C232.561 84.2671 227.026 90.9505 217.775 90.9505C208.523 90.9505 203.116 84.3947 203.116 76.1642C203.116 67.9337 208.779 61.3779 217.775 61.3779C226.771 61.3779 232.561 68.0613 232.561 76.1642ZM210.039 76.1642C210.039 80.4071 212.607 84.5224 217.759 84.5224C222.911 84.5224 225.479 80.5347 225.479 76.1642C225.479 71.7937 222.528 67.806 217.759 67.806C212.99 67.806 210.039 71.9213 210.039 76.1642Z" fill="white"/>
<path d="M243.87 62.0161L244.38 65.2382C246.565 61.7609 249.532 61.2505 252.355 61.2505C255.179 61.2505 258.145 62.4149 259.693 63.9461L256.471 69.9915C255.051 68.8271 253.775 68.189 251.462 68.189C247.73 68.189 244.38 70.1191 244.38 75.3987V90.3126H237.441V62.0161H243.87Z" fill="white"/>
<path d="M280.652 69.6085C278.594 67.6784 276.409 67.0404 273.713 67.0404C271.018 67.0404 268.561 68.0772 268.561 69.8637C268.561 71.6502 270.236 72.687 273.841 72.9581C279.121 73.3409 285.932 74.5053 285.932 81.9543C285.932 89.4033 281.816 91.2216 273.713 91.2216C265.61 91.2216 264.717 90.456 260.586 86.2131L264.063 81.2046C266.121 83.3899 270.619 85.0647 273.841 85.1923C276.537 85.1923 278.993 83.9003 278.993 81.8426C278.993 79.785 277.446 79.147 273.331 78.8918C268.051 78.5089 261.623 76.5789 261.623 70.1508C261.623 63.7227 268.434 61.2822 273.586 61.2822C278.738 61.2822 281.306 62.1755 284.64 65.0147L280.779 69.6404H280.652V69.6085Z" fill="white"/>
<path d="M19.6831 124.016H8.35814V135.852H0.765625V95.7197H19.6672C39.3503 95.7197 39.3503 124.144 19.6672 124.144V124.016H19.6831ZM8.35814 117.062H19.6831C29.3333 117.062 29.3333 102.786 19.6831 102.786H8.35814V117.062Z" fill="white"/>
<path d="M44.2475 107.555L44.7579 110.777C46.9431 107.3 49.9099 106.79 52.7332 106.79C55.5565 106.79 58.5233 107.954 60.0705 109.485L56.8485 115.531C55.4289 114.366 54.1528 113.728 51.84 113.728C48.1075 113.728 44.7579 115.658 44.7579 120.938V135.852H37.8193V107.555H44.2475Z" fill="white"/>
<path d="M90.8072 121.703C90.8072 129.806 85.2724 136.49 76.021 136.49C66.7696 136.49 61.3623 129.934 61.3623 121.703C61.3623 113.473 67.0248 106.917 76.021 106.917C85.0171 106.917 90.8072 113.6 90.8072 121.703ZM68.4285 121.703C68.4285 125.946 70.9965 130.061 76.1486 130.061C81.3006 130.061 83.8687 126.074 83.8687 121.703C83.8687 117.333 80.9178 113.345 76.1486 113.345C71.3793 113.345 68.4285 117.46 68.4285 121.703Z" fill="white"/>
<path d="M117.828 104.716L122.98 108.576L119.758 112.563C121.943 115.004 122.709 117.843 122.709 120.922C122.709 124 121.417 129.407 116.791 131.465C121.544 133.778 122.581 137.255 122.581 140.86C122.581 148.708 116.663 153.461 108.433 153.461C100.202 153.461 94.0293 148.452 94.0293 140.86H100.968C100.968 144.592 104.317 146.905 108.433 146.905C112.548 146.905 115.642 144.72 115.642 140.86C115.642 137 111.91 135.197 108.433 135.197C99.5642 135.197 94.0293 129.79 94.0293 120.922C94.0293 112.053 100.457 106.518 108.433 106.518C116.408 106.518 112.931 106.773 114.861 108.065L117.684 104.46L117.812 104.716H117.828ZM101.095 120.922C101.095 125.802 104.445 128.769 108.56 128.769C112.676 128.769 115.898 125.818 115.898 120.922C115.898 116.025 112.548 112.946 108.56 112.946C104.573 112.946 101.095 116.041 101.095 120.922Z" fill="white"/>
<path d="M133.762 107.555L134.273 110.777C136.458 107.3 139.425 106.79 142.248 106.79C145.071 106.79 148.038 107.954 149.585 109.485L146.363 115.531C144.944 114.366 143.667 113.728 141.355 113.728C137.622 113.728 134.273 115.658 134.273 120.938V135.852H127.334V107.555H133.762Z" fill="white"/>
<path d="M174.676 107.555H181.359V135.851H174.804L174.421 131.736C172.874 135.086 168.375 136.617 165.281 136.745C156.923 136.745 150.75 131.593 150.75 121.703C150.75 111.814 157.178 106.789 165.536 106.917C169.269 106.917 173.001 108.719 174.532 111.543L174.788 107.683L174.66 107.555H174.676ZM157.689 121.703C157.689 127.11 161.421 130.317 166.047 130.317C177.1 130.317 177.1 113.217 166.047 113.217C154.993 113.217 157.689 116.439 157.689 121.703Z" fill="white"/>
<path d="M206.05 135.852V120.667C206.05 116.934 204.12 113.585 200.26 113.585C196.4 113.585 194.215 116.934 194.215 120.667V135.852H187.276V107.555H193.704L194.215 111.032C195.762 108.209 198.968 107.172 201.68 107.172C204.391 107.172 208.491 108.592 210.038 112.452C212.606 108.464 215.828 107.3 219.561 107.3C227.536 107.3 231.524 112.181 231.524 120.683V135.995H224.585V120.683C224.585 116.95 223.038 113.744 219.305 113.744C215.573 113.744 213.132 116.966 213.132 120.683V135.868H206.05V135.852Z" fill="white"/>
<path fill-rule="evenodd" clip-rule="evenodd" d="M350.245 172.634C349.352 171.869 350.883 168.647 353.722 165.425C356.561 162.203 359.512 160.416 360.533 161.182C361.426 161.947 359.895 165.297 357.056 168.391C354.232 171.613 351.266 173.4 350.245 172.634ZM334.549 166.079C331.981 164.531 331.598 160.544 333.656 156.939C335.714 153.334 339.446 151.787 342.014 153.334C344.582 154.881 344.965 158.869 342.907 162.474C340.85 166.079 337.117 167.626 334.549 166.079ZM305.742 98.1606C304.068 97.2674 303.94 94.6834 305.232 92.4981C306.524 90.3129 308.837 89.2761 310.512 90.1853C312.186 91.0785 312.314 93.6625 311.022 95.8478C309.73 98.033 307.417 99.0698 305.742 98.1606ZM267.923 136.235C269.471 133.412 273.458 132.502 276.792 134.305C280.142 136.107 281.545 139.967 279.886 142.791C278.212 145.614 274.351 146.523 271.018 144.721C267.668 142.918 266.264 139.058 267.923 136.235ZM376.866 125.947C375.702 125.564 375.83 121.704 377.122 117.333C378.414 112.963 380.471 109.741 381.62 109.996C382.784 110.379 382.657 114.239 381.365 118.609C380.073 122.98 378.015 126.202 376.866 125.947ZM359.384 86.4528C357.199 85.6872 355.397 84.5228 353.85 82.848C352.047 80.9179 350.245 78.4775 348.06 77.6959C343.944 76.1487 341.121 79.8811 340.467 83.7412C339.701 88.2393 340.212 92.4822 342.269 96.4698C342.652 97.1079 343.689 98.7827 345.491 101.223C352.302 110.618 355.142 123.857 351.537 135.182C350.899 137.367 350.5 138.787 350.372 139.68C349.99 144.051 350.883 148.166 353.068 152.154C354.743 154.977 358.603 158.327 361.937 156.652C367.727 153.701 366.052 143.141 363.994 138.643C363.611 137.878 362.575 136.203 360.772 133.762C353.052 122.964 350.612 108.816 356.019 96.0711C358.842 89.6429 365.541 87.0749 371.587 91.3178C373.644 92.7374 375.447 94.4122 376.994 96.3263C380.599 100.569 385.99 99.5483 387.41 94.0134C388.957 88.2233 387.41 81.0296 383.422 76.5155C381.109 73.9475 377.504 72.4003 374.809 75.3512C374.426 75.8616 373.772 77.026 372.879 78.956C370.311 84.7461 366.068 88.6061 359.369 86.2933V86.4209L359.384 86.4528ZM255.067 106.519C249.405 109.741 249.532 116.935 254.557 120.795C257.651 123.235 261.368 123.363 265.1 122.214C273.841 119.519 284.129 122.852 288.771 130.955C291.084 135.07 292.503 138.803 291.722 143.301C290.829 148.581 287.734 152.696 282.726 155.392C281.306 156.157 279.121 156.811 277.574 157.704C273.458 160.273 272.166 165.042 274.479 169.157C276.537 172.762 280.78 174.692 284.895 174.038C289.776 173.4 293.381 169.285 292.615 164.26C292.36 162.841 291.195 160.655 290.813 159.108C288.755 150.75 293.636 142.647 301.484 139.68C303.158 139.042 304.179 138.516 304.706 138.261C309.204 135.437 310.113 130.285 307.146 126.042C304.195 121.799 299.554 120.763 294.545 122.31C285.676 125.006 276.026 121.799 270.874 114.079C269.837 112.532 269.072 110.219 267.78 108.8C264.558 105.322 259.166 104.302 254.924 106.742V106.487H255.051L255.067 106.519ZM337.771 74.745C333.656 76.5474 328.775 74.4898 326.845 70.1193C324.915 65.7488 326.59 60.7244 330.705 58.7944C334.82 56.8643 339.701 59.0496 341.631 63.42C343.561 67.7905 341.887 72.815 337.771 74.745ZM329.541 128.004C325.426 129.807 320.545 127.749 318.615 123.379C316.685 119.008 318.359 113.984 322.475 112.054C326.59 110.251 331.471 112.309 333.401 116.679C335.331 121.05 333.656 126.074 329.541 128.004ZM375.319 50.6914C374.155 51.457 371.459 49.1442 369.019 45.5393C366.578 41.9345 365.669 38.4572 366.706 37.8192C367.87 37.0536 370.566 39.3664 373.006 42.9713C375.447 46.5761 376.356 50.0534 375.319 50.6914ZM248.24 35.1395C249.006 32.0451 253.121 30.3862 257.38 31.4071C261.623 32.4439 264.319 36.0328 263.553 39.1272C262.787 42.2216 258.672 43.8805 254.413 42.8596C250.17 41.8228 247.475 38.2339 248.24 35.1395ZM311.405 42.2057C303.43 42.2057 293.524 36.0328 297.639 26.5102C298.15 25.3458 298.405 24.4526 298.405 23.8145C298.405 21.2465 297.241 19.5717 294.8 18.6625C291.451 17.4981 287.862 17.4981 283.874 18.6625C279.886 19.9545 275.005 22.6501 273.969 26.893C272.932 31.6463 278.212 33.5763 282.199 33.5763C291.594 33.5763 303.557 37.1812 299.298 49.3994C298.788 50.9466 298.533 51.9675 298.66 52.7491C298.788 54.6791 299.825 55.9711 301.755 56.8643C308.055 59.6876 317.323 57.1195 321.565 51.8558C324.66 48.1234 323.113 43.7529 318.343 42.4609C316.158 41.8228 313.59 41.9504 311.261 41.8228V42.2057H311.389H311.405ZM328.504 11.9791C329.142 10.8147 332.747 11.4687 336.479 13.5264C340.212 15.584 342.907 18.0244 342.397 19.1888C341.887 20.3532 338.154 19.6993 334.422 17.6416C330.689 15.584 327.994 13.1435 328.504 11.9791ZM355.524 40.9296C344.981 39.6376 334.039 33.3371 330.45 22.6661C329.812 20.7361 329.684 17.0036 328.52 15.0736C326.08 11.3411 322.602 8.90066 318.104 8.13503C313.734 7.24179 307.688 8.64545 305.886 13.2871C303.573 19.5876 309.618 25.1225 314.882 27.0525C315.775 27.3077 317.45 27.6906 319.891 27.9458C330.306 29.1102 342.397 36.3039 344.71 47.2461C345.348 49.9417 345.603 51.2337 345.603 51.2337C348.044 58.6986 357.183 62.9415 364.505 60.1023C370.55 57.7895 370.805 50.835 366.945 46.4645C365.143 44.4068 363.085 42.9872 360.645 42.094C359.751 41.7112 357.949 41.456 355.365 41.0572H355.493V40.9296H355.524ZM242.323 10.9583C241.94 9.92151 244.891 8.13503 248.623 6.84303C252.483 5.55102 255.833 5.42342 256.088 6.46021C256.471 7.49701 253.52 9.28348 249.787 10.5755C245.927 11.8675 242.578 11.9951 242.323 10.9583ZM276.664 1.43575C276.792 0.143748 280.524 -0.366674 284.895 0.271353C289.265 0.90938 292.743 2.45659 292.487 3.7486C292.36 5.0406 288.627 5.55102 284.257 4.913C279.886 4.27497 276.409 2.72776 276.664 1.43575Z" fill="url(#paint0_linear_1667_10688)"/>
<path d="M8.48576 156.556L14.9139 170.832H12.9838L11.5642 167.738H3.34964L1.93003 170.832H0L6.42812 156.556H8.48576ZM7.46491 158.359L4.11527 166.079H10.9262L7.57657 158.359H7.44896H7.46491Z" fill="white"/>
<path d="M16.8438 160.672H18.391V162.346C19.2842 161.182 20.4486 160.544 21.9958 160.544C23.543 160.544 24.3087 160.927 25.2179 161.836C25.9835 162.729 26.5099 163.766 26.5099 165.313V170.848H24.835V165.313C24.835 164.276 24.5798 163.511 24.0694 163C23.559 162.49 22.7774 162.107 21.8842 162.107C20.9909 162.107 20.2093 162.49 19.6989 163C19.0609 163.638 18.8057 164.42 18.8057 165.313V170.72H17.1309V160.56L16.8757 160.687L16.8438 160.672Z" fill="white"/>
<path d="M34.8522 156.684C35.235 156.556 35.6178 156.556 36.0166 156.684C36.4154 156.811 36.527 157.194 36.527 157.72C36.527 158.247 36.3994 158.486 36.0166 158.757C35.6338 158.885 35.251 158.885 34.8522 158.757C34.4535 158.63 34.3418 158.247 34.3418 157.72C34.3418 157.194 34.4694 156.955 34.8522 156.684ZM34.4694 170.832H36.1442V160.671H34.4694V170.832Z" fill="white"/>
<path d="M39.2227 160.672H40.7699V162.346C41.6631 161.182 42.8275 160.544 44.3747 160.544C45.9219 160.544 46.6876 160.927 47.5968 161.836C48.3624 162.729 48.8888 163.766 48.8888 165.313V170.848H47.2139V165.313C47.2139 164.276 46.9587 163.511 46.4483 163C45.9379 162.49 45.1563 162.107 44.2631 162.107C43.3698 162.107 42.5882 162.49 42.0778 163C41.4398 163.638 41.1846 164.42 41.1846 165.313V170.72H39.5098V160.56L39.2546 160.687L39.2227 160.672Z" fill="white"/>
<path d="M51.9675 156.684C52.3503 156.556 52.7331 156.556 53.1319 156.684C53.5306 156.811 53.6423 157.194 53.6423 157.72C53.6423 158.247 53.5147 158.486 53.1319 158.757C52.749 158.885 52.3662 158.885 51.9675 158.757C51.5687 158.63 51.457 158.247 51.457 157.72C51.457 157.194 51.5846 156.955 51.9675 156.684ZM51.7122 170.832H53.3871V160.671H51.7122V170.832Z" fill="white"/>
<path d="M59.2891 160.799H62.3835V162.219H59.2891V167.498C59.2891 168.79 59.7995 169.428 60.8363 169.428C61.8731 169.428 61.7295 169.428 62.2559 169.045L62.7663 170.465C62.1283 170.72 61.4743 170.975 60.8363 170.975C58.6511 170.975 57.6143 169.811 57.6143 167.498V162.219H55.5566V160.799H57.6143V157.976H59.2891C59.2891 157.848 59.2891 160.799 59.2891 160.799Z" fill="white"/>
<path d="M64.8239 156.684C65.2067 156.556 65.5895 156.556 65.9883 156.684C66.3871 156.811 66.4987 157.194 66.4987 157.72C66.4987 158.247 66.3711 158.486 65.9883 158.757C65.6055 158.885 65.2227 158.885 64.8239 158.757C64.4251 158.63 64.3135 158.247 64.3135 157.72C64.3135 157.194 64.4411 156.955 64.8239 156.684ZM64.5687 170.832H66.2435V160.671H64.5687V170.832Z" fill="white"/>
<path d="M77.5678 170.832V169.03C77.185 169.668 76.6746 170.194 75.893 170.577C75.2549 170.96 74.4734 171.087 73.7077 171.087C72.1605 171.087 71.0121 170.577 69.9753 169.668C68.9385 168.774 68.5557 167.482 68.5557 165.807C68.5557 164.133 69.0661 162.984 70.1029 161.947C71.1397 161.054 72.2881 160.528 73.8353 160.528C74.601 160.528 75.3826 160.655 76.0206 161.038C76.6586 161.421 77.185 161.931 77.5678 162.585V160.783H79.2426V170.944H77.5678V170.816V170.832ZM73.9629 162.219C72.9261 162.219 72.0329 162.601 71.3949 163.255C70.7569 163.909 70.3581 164.803 70.3581 165.951C70.3581 167.1 70.7409 168.009 71.3949 168.647C72.0489 169.285 72.9421 169.684 73.9629 169.684C74.9838 169.684 75.2549 169.556 75.7654 169.301C76.2758 169.045 76.6586 168.663 76.9298 168.264C77.185 167.881 77.4402 167.371 77.5678 166.844V165.297C77.5678 164.787 77.3126 164.26 76.9298 163.877C76.6746 163.495 76.2917 163.112 75.7654 162.841C75.239 162.57 74.601 162.458 73.9629 162.458V162.203V162.219Z" fill="white"/>
<path d="M85.1446 160.799H88.239V162.219H85.1446V167.498C85.1446 168.79 85.655 169.428 86.6918 169.428C87.7286 169.428 87.585 169.428 88.1114 169.045L88.6218 170.465C87.9838 170.72 87.3298 170.975 86.6918 170.975C84.5065 170.975 83.4697 169.811 83.4697 167.498V162.219H81.4121V160.799H83.4697V157.976H85.1446C85.1446 157.848 85.1446 160.799 85.1446 160.799Z" fill="white"/>
<path d="M90.6794 156.684C91.0622 156.556 91.445 156.556 91.8438 156.684C92.2425 156.811 92.3542 157.194 92.3542 157.72C92.3542 158.247 92.2266 158.486 91.8438 158.757C91.461 158.885 91.0781 158.885 90.6794 158.757C90.2806 158.63 90.1689 158.247 90.1689 157.72C90.1689 157.194 90.2966 156.955 90.6794 156.684ZM90.4242 170.832H92.099V160.671H90.4242V170.832Z" fill="white"/>
<path d="M96.0873 160.671L97.7621 164.659L99.4369 169.03L101.112 164.659L102.787 160.671H104.589L100.346 170.832H98.5437L94.3008 160.671H96.1032H96.0873Z" fill="white"/>
<path d="M115.244 169.157C114.733 169.795 114.08 170.194 113.314 170.449C112.548 170.704 111.767 170.96 110.873 170.96C109.326 170.96 108.05 170.449 107.013 169.54C105.977 168.647 105.594 167.355 105.594 165.68C105.594 164.005 106.104 162.857 107.013 161.947C108.05 160.911 109.199 160.528 110.746 160.528C112.293 160.528 113.697 161.038 114.606 162.075C115.515 163.112 115.898 164.515 115.77 166.446H107.157C107.157 167.339 107.667 168.12 108.321 168.631C108.975 169.141 109.869 169.396 110.762 169.396C111.655 169.396 111.926 169.396 112.564 169.014C113.202 168.758 113.601 168.503 113.984 168.12L115.148 169.157H115.276H115.244ZM114.223 165.042C114.223 164.005 113.84 163.367 113.186 162.857C112.532 162.346 111.767 162.091 110.746 162.091C109.725 162.091 109.071 162.346 108.433 162.857C107.795 163.367 107.396 164.149 107.269 165.042H114.207H114.223Z" fill="white"/>
<path d="M125.021 162.602C125.404 161.964 125.915 161.437 126.569 161.054C127.334 160.672 127.988 160.544 128.754 160.544C130.301 160.544 131.45 161.054 132.486 161.964C133.38 162.857 133.906 164.149 133.906 165.824C133.906 167.498 133.396 168.775 132.486 169.684C131.593 170.577 130.301 171.103 128.754 171.103C127.207 171.103 127.207 170.976 126.569 170.593C125.931 170.21 125.404 169.7 125.021 169.046V170.848H123.347V156.572H125.021V162.618V162.602ZM126.186 163.112C125.548 163.75 125.149 164.659 125.149 165.68C125.149 166.701 125.532 167.61 126.186 168.376C126.824 169.014 127.733 169.413 128.754 169.413C129.775 169.413 130.684 169.03 131.322 168.376C131.96 167.722 132.359 166.829 132.359 165.68C132.359 164.532 131.976 163.622 131.322 162.984C130.668 162.346 129.775 161.948 128.754 161.948C127.733 161.948 126.952 162.33 126.186 162.984V163.112Z" fill="white"/>
<path d="M138.787 175.585H136.984L139.042 170.704L134.927 160.799H136.857L138.787 166.079L139.951 168.902L140.988 166.079L143.173 160.799H144.976L138.548 175.713L138.803 175.585H138.787Z" fill="white"/>
<path d="M166.956 168.136L168.631 169.811L166.445 171.996L164.643 170.194C163.479 170.832 162.075 171.087 160.528 171.087C155.902 171.087 152.808 168.264 152.808 163.622C152.808 158.98 155.902 156.157 160.528 156.157C165.153 156.157 168.248 158.98 168.248 163.622C168.248 168.264 167.737 166.844 166.956 168.12V168.136ZM160.528 158.996C157.832 158.996 155.902 160.926 155.902 163.622C155.902 166.318 157.832 168.248 160.528 168.248C163.223 168.248 165.153 166.19 165.026 163.622C165.026 160.926 163.223 158.996 160.528 158.996Z" fill="white"/>
<path d="M173.001 160.671V165.951C173.001 167.498 173.639 168.264 175.059 168.264C176.478 168.264 177.371 167.099 177.371 165.823V160.543H180.322V170.704H177.627V169.412C176.59 170.576 175.441 170.959 174.277 170.959C171.964 170.959 170.034 169.922 170.034 166.078V160.671H172.985H173.001Z" fill="white"/>
<path d="M185.475 160.799L185.73 161.963C186.368 161.07 187.277 160.671 188.426 160.671C189.574 160.671 190.228 160.927 190.866 161.565L189.574 163.877C189.064 163.495 188.537 163.367 187.899 163.367C186.607 163.367 185.587 164.133 185.587 165.68V170.96H182.636V160.927H185.331L185.459 160.799H185.475Z" fill="white"/>
<path d="M199.623 160.671H202.318V170.832H199.623V169.54C198.73 170.577 197.31 170.96 196.401 171.087C193.306 171.087 191.121 169.157 191.121 165.807C191.121 162.458 193.434 160.528 196.401 160.528C197.693 160.528 198.841 161.038 199.352 161.947V160.783L199.607 160.655L199.623 160.671ZM194.216 165.823C194.216 167.498 195.38 168.519 196.911 168.519C198.442 168.519 199.607 167.227 199.607 165.951C199.607 164.675 198.714 163.128 196.911 163.128C195.109 163.128 194.216 164.165 194.216 165.823Z" fill="white"/>
<path d="M212.097 170.832V165.552C212.097 164.005 211.459 163.239 210.039 163.239C208.619 163.239 207.726 164.404 207.726 165.68V170.959H204.775V160.799H207.471V162.091C208.508 160.926 209.656 160.543 210.821 160.543C213.134 160.543 215.064 161.58 215.064 165.552V170.959H212.113V170.832H212.097Z" fill="white"/>
<path d="M220.598 158.103C220.598 160.289 217.248 160.289 217.248 158.103C217.248 155.918 220.598 155.918 220.598 158.103ZM217.503 160.671V170.832H220.454V160.671H217.503Z" fill="white"/>
<path d="M225.734 160.671V165.951C225.734 167.498 226.372 168.264 227.792 168.264C229.212 168.264 230.105 167.099 230.105 165.823V160.543H233.056V170.704H230.36V169.412C229.323 170.576 228.175 170.959 227.01 170.959C224.698 170.959 222.768 169.922 222.768 166.078V160.671H225.718H225.734Z" fill="white"/>
<path d="M242.068 170.832V165.425C242.068 164.133 241.558 163.239 240.266 163.239C238.974 163.239 238.464 164.276 238.464 165.425V170.832H235.513V160.671H238.081L238.336 161.836C238.974 160.671 240.138 160.416 241.032 160.416C241.925 160.416 243.344 160.799 243.983 162.346C244.876 160.926 245.785 160.416 247.332 160.416C248.879 160.416 251.32 161.453 251.32 165.297V170.832H248.369V165.425C248.369 164.133 247.986 163.367 246.822 163.367C245.657 163.367 245.019 164.404 245.019 165.552V170.959H242.068V170.832Z" fill="white"/>
</g>
<defs>
<linearGradient id="paint0_linear_1667_10688" x1="374.656" y1="87.5317" x2="172.267" y2="122.701" gradientUnits="userSpaceOnUse">
<stop stop-color="white"/>
<stop offset="1" stop-color="#4C00FF"/>
</linearGradient>
<clipPath id="clip0_1667_10688">
<rect width="388" height="175.729" fill="white"/>
</clipPath>
</defs>
</svg>
