<svg width="511" height="243" viewBox="0 0 511 243" fill="none" xmlns="http://www.w3.org/2000/svg">
<g filter="url(#filter0_f_1003_107670)">
<ellipse cx="275.076" cy="-28.9236" rx="63.0759" ry="63.0759" transform="rotate(-90 275.076 -28.9236)" fill="#601DFF"/>
</g>
<mask id="mask0_1003_107670" style="mask-type:alpha" maskUnits="userSpaceOnUse" x="0" y="-92" width="511" height="305">
<rect y="-92" width="510.995" height="305" fill="url(#paint0_radial_1003_107670)"/>
</mask>
<g mask="url(#mask0_1003_107670)">
<rect x="65.7349" y="-2.84128" width="42.0506" height="42.0506" stroke="white" stroke-width="0.532286"/>
<rect x="107.786" y="-2.84128" width="42.0506" height="42.0506" stroke="white" stroke-width="0.532286"/>
<rect x="149.836" y="-2.84128" width="42.0506" height="42.0506" stroke="white" stroke-width="0.532286"/>
<rect x="191.887" y="-2.84128" width="42.0506" height="42.0506" stroke="white" stroke-width="0.532286"/>
<rect x="233.938" y="-2.84128" width="42.0506" height="42.0506" fill="white" fill-opacity="0.25" stroke="white" stroke-width="0.532286"/>
<rect x="275.989" y="-2.84128" width="42.0506" height="42.0506" stroke="white" stroke-width="0.532286"/>
<rect x="318.04" y="-2.84128" width="42.0506" height="42.0506" fill="white" fill-opacity="0.25" stroke="white" stroke-width="0.532286"/>
<rect x="360.09" y="-2.84128" width="42.0506" height="42.0506" stroke="white" stroke-width="0.532286"/>
<rect x="402.141" y="-2.84128" width="42.0506" height="42.0506" stroke="white" stroke-width="0.532286"/>
<rect x="65.7349" y="39.2095" width="42.0506" height="42.0506" stroke="white" stroke-width="0.532286"/>
<rect x="107.786" y="39.2095" width="42.0506" height="42.0506" stroke="white" stroke-width="0.532286"/>
<rect x="149.836" y="39.2095" width="42.0506" height="42.0506" stroke="white" stroke-width="0.532286"/>
<rect x="191.887" y="39.2095" width="42.0506" height="42.0506" stroke="white" stroke-width="0.532286"/>
<rect x="233.938" y="39.2095" width="42.0506" height="42.0506" stroke="white" stroke-width="0.532286"/>
<rect x="275.989" y="39.2095" width="42.0506" height="42.0506" stroke="white" stroke-width="0.532286"/>
<rect x="318.04" y="39.2095" width="42.0506" height="42.0506" stroke="white" stroke-width="0.532286"/>
<rect x="360.09" y="39.2095" width="42.0506" height="42.0506" stroke="white" stroke-width="0.532286"/>
<rect x="402.141" y="39.2095" width="42.0506" height="42.0506" stroke="white" stroke-width="0.532286"/>
<rect x="65.7349" y="81.2603" width="42.0506" height="42.0506" stroke="white" stroke-width="0.532286"/>
<rect x="107.786" y="81.2603" width="42.0506" height="42.0506" stroke="white" stroke-width="0.532286"/>
<rect x="149.836" y="81.2603" width="42.0506" height="42.0506" stroke="white" stroke-width="0.532286"/>
<rect x="191.887" y="81.2603" width="42.0506" height="42.0506" fill="white" fill-opacity="0.25" stroke="white" stroke-width="0.532286"/>
<rect x="233.938" y="81.2603" width="42.0506" height="42.0506" stroke="white" stroke-width="0.532286"/>
<rect x="275.989" y="81.2603" width="42.0506" height="42.0506" stroke="white" stroke-width="0.532286"/>
<rect x="318.04" y="81.2603" width="42.0506" height="42.0506" stroke="white" stroke-width="0.532286"/>
<rect x="360.09" y="81.2603" width="42.0506" height="42.0506" stroke="white" stroke-width="0.532286"/>
<rect x="402.141" y="81.2603" width="42.0506" height="42.0506" stroke="white" stroke-width="0.532286"/>
<rect x="65.7349" y="123.311" width="42.0506" height="42.0506" stroke="white" stroke-width="0.532286"/>
<rect x="107.786" y="123.311" width="42.0506" height="42.0506" stroke="white" stroke-width="0.532286"/>
<rect x="149.836" y="123.311" width="42.0506" height="42.0506" stroke="white" stroke-width="0.532286"/>
<rect x="191.887" y="123.311" width="42.0506" height="42.0506" stroke="white" stroke-width="0.532286"/>
<rect x="233.938" y="123.311" width="42.0506" height="42.0506" stroke="white" stroke-width="0.532286"/>
<rect x="275.989" y="123.311" width="42.0506" height="42.0506" stroke="white" stroke-width="0.532286"/>
<rect x="318.04" y="123.311" width="42.0506" height="42.0506" stroke="white" stroke-width="0.532286"/>
<rect x="360.09" y="123.311" width="42.0506" height="42.0506" stroke="white" stroke-width="0.532286"/>
<rect x="402.141" y="123.311" width="42.0506" height="42.0506" stroke="white" stroke-width="0.532286"/>
<rect x="65.7349" y="165.36" width="42.0506" height="42.0506" stroke="white" stroke-width="0.532286"/>
<rect x="107.786" y="165.36" width="42.0506" height="42.0506" stroke="white" stroke-width="0.532286"/>
<rect x="149.836" y="165.36" width="42.0506" height="42.0506" stroke="white" stroke-width="0.532286"/>
<rect x="191.887" y="165.36" width="42.0506" height="42.0506" stroke="white" stroke-width="0.532286"/>
<rect x="233.938" y="165.36" width="42.0506" height="42.0506" stroke="white" stroke-width="0.532286"/>
<rect x="275.989" y="165.36" width="42.0506" height="42.0506" stroke="white" stroke-width="0.532286"/>
<rect x="318.04" y="165.36" width="42.0506" height="42.0506" stroke="white" stroke-width="0.532286"/>
<rect x="360.09" y="165.36" width="42.0506" height="42.0506" stroke="white" stroke-width="0.532286"/>
<rect x="402.141" y="165.36" width="42.0506" height="42.0506" stroke="white" stroke-width="0.532286"/>
</g>
<g opacity="0.2">
<g style="mix-blend-mode:overlay">
<circle cx="331.9" cy="159.168" r="0.989341" transform="rotate(140.209 331.9 159.168)" fill="white"/>
</g>
<circle cx="310.306" cy="157.2" r="0.495299" transform="rotate(140.209 310.306 157.2)" fill="white"/>
<g style="mix-blend-mode:overlay">
<circle cx="323.466" cy="197.733" r="0.495299" transform="rotate(140.209 323.466 197.733)" fill="white"/>
</g>
<circle cx="244.283" cy="156.817" r="0.495299" transform="rotate(140.209 244.283 156.817)" fill="white"/>
<g style="mix-blend-mode:overlay">
<circle cx="270.787" cy="159.214" r="0.495299" transform="rotate(140.209 270.787 159.214)" fill="white"/>
</g>
<g style="mix-blend-mode:overlay">
<circle cx="291.368" cy="172.328" r="0.989341" transform="rotate(140.209 291.368 172.328)" fill="white"/>
</g>
<circle cx="307.13" cy="188.154" r="0.989341" transform="rotate(140.209 307.13 188.154)" fill="white"/>
<g style="mix-blend-mode:overlay">
<circle cx="254.255" cy="178.781" r="0.989341" transform="rotate(140.209 254.255 178.781)" fill="white"/>
</g>
<g style="mix-blend-mode:overlay">
<circle cx="295.111" cy="138.958" r="0.495299" transform="rotate(140.209 295.111 138.958)" fill="white"/>
</g>
<circle cx="279.4" cy="157.19" r="0.495299" transform="rotate(140.209 279.4 157.19)" fill="white"/>
<circle cx="281.392" cy="183.772" r="0.495299" transform="rotate(140.209 281.392 183.772)" fill="white"/>
<g style="mix-blend-mode:overlay">
<circle cx="310.806" cy="182.53" r="0.495299" transform="rotate(140.209 310.806 182.53)" fill="white"/>
</g>
<g style="mix-blend-mode:overlay">
<circle cx="280.486" cy="127.028" r="1.00303" transform="rotate(-153.22 280.486 127.028)" fill="white"/>
</g>
<g style="mix-blend-mode:overlay">
<circle cx="273.61" cy="106.14" r="0.502152" transform="rotate(-153.22 273.61 106.14)" fill="white"/>
</g>
<g style="mix-blend-mode:overlay">
<circle cx="241.208" cy="134.728" r="0.502152" transform="rotate(-153.22 241.208 134.728)" fill="white"/>
</g>
<g style="mix-blend-mode:overlay">
<circle cx="219.86" cy="88.0032" r="0.502152" transform="rotate(-153.22 219.86 88.0032)" fill="white"/>
</g>
<circle cx="255.805" cy="70.1946" r="0.502152" transform="rotate(-153.22 255.805 70.1946)" fill="white"/>
<g style="mix-blend-mode:overlay">
<circle cx="251.904" cy="94.6253" r="1.00303" transform="rotate(-153.22 251.904 94.6253)" fill="white"/>
</g>
<g style="mix-blend-mode:overlay">
<circle cx="215.955" cy="112.434" r="1.00303" transform="rotate(-153.22 215.955 112.434)" fill="white"/>
</g>
<circle cx="230.939" cy="62.7034" r="1.00303" transform="rotate(-153.22 230.939 62.7034)" fill="white"/>
<circle cx="284.454" cy="84.6555" r="0.502152" transform="rotate(-153.22 284.454 84.6555)" fill="white"/>
<circle cx="261.161" cy="77.3919" r="0.502152" transform="rotate(-153.22 261.161 77.3919)" fill="white"/>
<g style="mix-blend-mode:overlay">
<circle cx="223.337" cy="116.722" r="0.502152" transform="rotate(-153.22 223.337 116.722)" fill="white"/>
</g>
<g style="mix-blend-mode:overlay">
<circle cx="250.247" cy="116.822" r="0.502152" transform="rotate(-153.22 250.247 116.822)" fill="white"/>
</g>
<circle cx="224.69" cy="32.562" r="0.54798" transform="rotate(145.202 224.69 32.562)" fill="white"/>
<g style="mix-blend-mode:overlay">
<circle cx="168.757" cy="28.7846" r="0.54798" transform="rotate(145.202 168.757 28.7846)" fill="white"/>
</g>
<g style="mix-blend-mode:overlay">
<circle cx="191.758" cy="1.47387" r="1.09457" transform="rotate(145.202 191.758 1.47387)" fill="white"/>
</g>
<circle cx="186.75" cy="52.011" r="1.09457" transform="rotate(145.202 186.75 52.011)" fill="white"/>
<g style="mix-blend-mode:overlay">
<circle cx="150.23" cy="5.00707" r="1.09457" transform="rotate(145.202 150.23 5.00707)" fill="white"/>
</g>
<circle cx="198.128" cy="40.3608" r="0.54798" transform="rotate(145.202 198.128 40.3608)" fill="white"/>
<circle cx="212.198" cy="14.5873" r="0.54798" transform="rotate(145.202 212.198 14.5873)" fill="white"/>
<g style="mix-blend-mode:overlay">
<circle cx="352.617" cy="33.185" r="1.21334" transform="rotate(86.3316 352.617 33.185)" fill="white"/>
</g>
<g style="mix-blend-mode:overlay">
<circle cx="335.054" cy="53.153" r="0.607519" transform="rotate(86.3316 335.054 53.153)" fill="white"/>
</g>
<g style="mix-blend-mode:overlay">
<circle cx="384.722" cy="69.4225" r="0.607519" transform="rotate(86.3316 384.722 69.4225)" fill="white"/>
</g>
<g style="mix-blend-mode:overlay">
<circle cx="349.085" cy="120.333" r="0.607519" transform="rotate(86.3316 349.085 120.333)" fill="white"/>
</g>
<g style="mix-blend-mode:overlay">
<circle cx="308.479" cy="93.7604" r="0.607519" transform="rotate(86.3316 308.479 93.7604)" fill="white"/>
</g>
<g style="mix-blend-mode:overlay">
<circle cx="336.351" cy="82.8529" r="1.21334" transform="rotate(86.3316 336.351 82.8529)" fill="white"/>
</g>
<circle cx="369.562" cy="124.872" r="1.21334" transform="rotate(86.3316 369.562 124.872)" fill="white"/>
<g style="mix-blend-mode:overlay">
<circle cx="324.023" cy="108.203" r="1.21334" transform="rotate(86.3316 324.023 108.203)" fill="white"/>
</g>
<g style="mix-blend-mode:overlay">
<circle cx="305.995" cy="55.0182" r="0.607519" transform="rotate(86.3316 305.995 55.0182)" fill="white"/>
</g>
<g style="mix-blend-mode:overlay">
<circle cx="312.698" cy="83.7623" r="0.607519" transform="rotate(86.3316 312.698 83.7623)" fill="white"/>
</g>
<circle cx="357.655" cy="95.0865" r="0.607519" transform="rotate(86.3316 357.655 95.0865)" fill="white"/>
<g style="mix-blend-mode:overlay">
<circle cx="360.511" cy="70.9733" r="0.607519" transform="rotate(86.3316 360.511 70.9733)" fill="white"/>
</g>
</g>
<defs>
<filter id="filter0_f_1003_107670" x="105.543" y="-198.457" width="339.067" height="339.067" filterUnits="userSpaceOnUse" color-interpolation-filters="sRGB">
<feFlood flood-opacity="0" result="BackgroundImageFix"/>
<feBlend mode="normal" in="SourceGraphic" in2="BackgroundImageFix" result="shape"/>
<feGaussianBlur stdDeviation="53.2286" result="effect1_foregroundBlur_1003_107670"/>
</filter>
<radialGradient id="paint0_radial_1003_107670" cx="0" cy="0" r="1" gradientUnits="userSpaceOnUse" gradientTransform="translate(255.497 60.5) rotate(90) scale(187.998 314.971)">
<stop stop-color="#D9D9D9" stop-opacity="0.2"/>
<stop offset="0.802083" stop-color="#D9D9D9" stop-opacity="0"/>
</radialGradient>
</defs>
</svg>
