<svg width="35" height="36" viewBox="0 0 35 36" fill="none" xmlns="http://www.w3.org/2000/svg">
<path d="M21.648 14.2201C19.6209 15.7076 16.6824 16.4994 14.1492 16.4994C10.7724 16.5171 7.50962 15.2784 4.99527 13.0242C4.80423 12.8536 4.97486 12.6203 5.20236 12.7544C7.99609 14.3419 11.1548 15.1751 14.368 15.1724C16.768 15.162 19.1424 14.6778 21.3549 13.7476C21.699 13.6047 21.9863 13.9722 21.6509 14.2201H21.648ZM22.4924 13.2634C22.2313 12.9338 20.7788 13.1044 20.1255 13.1832C19.9257 13.2065 19.8951 13.033 20.0744 12.9105C21.2353 12.0997 23.1355 12.333 23.3557 12.6042C23.5817 12.8769 23.2974 14.7742 22.2109 15.6813C22.0432 15.8213 21.8842 15.7455 21.9601 15.5603C22.2051 14.9536 22.7519 13.5915 22.4924 13.2634ZM20.1707 7.18215V6.39465C20.1707 6.27507 20.2611 6.19486 20.3705 6.19486H23.9215C24.0353 6.19486 24.1257 6.27507 24.1257 6.39173V7.0684C24.1257 7.18215 24.0294 7.3309 23.8559 7.56423L22.0199 10.1761C22.7024 10.1615 23.4271 10.2636 24.0469 10.6092C24.1035 10.6387 24.1509 10.6831 24.1841 10.7376C24.2172 10.7921 24.2349 10.8546 24.2351 10.9184V11.7555C24.2351 11.8751 24.1053 12.0063 23.974 11.9349C23.3929 11.6388 22.7497 11.4852 22.0976 11.4867C21.4454 11.4882 20.8029 11.6448 20.2232 11.9436C20.0978 12.0092 19.9694 11.878 19.9694 11.7613V10.9622C19.9694 10.8338 19.9724 10.6151 20.1007 10.4226L22.2328 7.37611H20.3792C20.2655 7.37611 20.1721 7.29882 20.1692 7.17923L20.1707 7.18215ZM27.1824 6.09278C28.7865 6.09278 29.6528 7.46361 29.6528 9.2034C29.6528 10.8849 28.6961 12.2192 27.1824 12.2192C25.6088 12.2192 24.7542 10.8484 24.7542 9.14361C24.7542 7.42715 25.6205 6.09278 27.1824 6.09278ZM27.1911 7.21715C26.3963 7.21715 26.3453 8.29486 26.3453 8.97007C26.3453 9.64528 26.3365 11.0832 27.1824 11.0832C28.0194 11.0832 28.0588 9.92236 28.0588 9.21361C28.0588 8.74986 28.0384 8.19278 27.8984 7.75382C27.7774 7.37028 27.5353 7.21715 27.1911 7.21715ZM18.4294 12.0909C18.358 12.1492 18.2253 12.1565 18.1757 12.1142C17.9294 11.9125 17.7197 11.6697 17.5559 11.3967C16.9638 11.9976 16.5424 12.1799 15.7738 12.1799C14.8667 12.1799 14.158 11.6213 14.158 10.5057C14.1455 10.1299 14.2495 9.75954 14.4558 9.44521C14.662 9.13088 14.9604 8.888 15.3101 8.74986C15.8963 8.49173 16.7159 8.44653 17.3415 8.37507C17.3415 8.37507 17.3926 7.70278 17.2103 7.45632C17.1368 7.36675 17.0438 7.29521 16.9384 7.24718C16.833 7.19915 16.7179 7.1759 16.6021 7.17923C16.204 7.17923 15.8146 7.39361 15.7374 7.81069C15.7169 7.93028 15.6294 8.0309 15.5332 8.01924L14.5021 7.9084C14.4765 7.90491 14.4519 7.89623 14.4298 7.88287C14.4076 7.86952 14.3885 7.85178 14.3735 7.83074C14.3584 7.80971 14.3479 7.78583 14.3424 7.76056C14.337 7.73529 14.3367 7.70918 14.3417 7.68382C14.5794 6.42236 15.7257 6.03882 16.7553 6.03882C17.2803 6.03882 17.9657 6.18028 18.3813 6.57403C18.9063 7.06257 18.8582 7.71153 18.8582 8.42319V10.0988C18.8582 10.6005 19.0667 10.8222 19.2651 11.0905C19.3336 11.1897 19.3482 11.3063 19.2621 11.3792C19.0405 11.5615 18.4309 12.0909 18.4309 12.0909H18.4294ZM17.3415 9.47028V9.23694C16.5599 9.23694 15.7344 9.40465 15.7344 10.3205C15.7344 10.7842 15.9765 11.0978 16.3921 11.0978C16.6926 11.0978 16.9667 10.9126 17.1403 10.6092C17.3503 10.2359 17.3415 9.88882 17.3415 9.47028ZM4.26902 12.0909C4.20048 12.1507 4.06777 12.1565 4.01673 12.1142C3.64632 11.8299 3.3984 11.3967 3.3984 11.3967C2.8034 11.9976 2.3834 12.1799 1.61486 12.1799C0.706315 12.1799 0.000481771 11.6213 0.000481771 10.5057C-0.0119836 10.1299 0.0920316 9.75954 0.298278 9.44521C0.504524 9.13088 0.802913 8.888 1.15257 8.74986C1.73736 8.49173 2.55694 8.44799 3.18257 8.37507C3.18257 8.37507 3.23361 7.70278 3.05132 7.45632C2.97785 7.36675 2.88484 7.29521 2.77942 7.24718C2.674 7.19915 2.55899 7.1759 2.44319 7.17923C2.04361 7.17923 1.65715 7.39507 1.57986 7.81069C1.55798 7.93028 1.46902 8.0309 1.37569 8.01924L0.340273 7.9084C0.31492 7.90456 0.29061 7.89561 0.268814 7.8821C0.247018 7.8686 0.228189 7.85081 0.213465 7.82981C0.198742 7.80882 0.188431 7.78506 0.183155 7.75996C0.17788 7.73487 0.17775 7.70896 0.182773 7.68382C0.419023 6.42236 1.56819 6.03882 2.59632 6.03882C3.12277 6.03882 3.80673 6.18028 4.22382 6.57403C4.74736 7.06257 4.69632 7.71153 4.69632 8.42319V10.0988C4.69632 10.6005 4.90632 10.8222 5.10319 11.0905C5.17173 11.1897 5.18632 11.3063 5.10027 11.3792C4.87861 11.5615 4.26902 12.0909 4.26902 12.0909ZM3.18257 9.47028V9.23694C2.40236 9.23694 1.57694 9.40465 1.57694 10.3205C1.57694 10.7842 1.81611 11.0978 2.23319 11.0978C2.53361 11.0978 2.80923 10.9126 2.98277 10.6107C3.19132 10.2359 3.18257 9.88882 3.18257 9.47028ZM7.43069 8.98319V11.9028C7.42955 11.9562 7.40753 12.007 7.36937 12.0443C7.3312 12.0817 7.27992 12.1026 7.22652 12.1026H6.15027C6.12367 12.1032 6.09722 12.0984 6.07247 12.0886C6.04773 12.0789 6.02518 12.0642 6.00616 12.0456C5.98714 12.027 5.97204 12.0048 5.96172 11.9803C5.95141 11.9557 5.9461 11.9294 5.94611 11.9028V6.41069C5.94687 6.35705 5.96872 6.30587 6.00693 6.26821C6.04513 6.23055 6.09663 6.20944 6.15027 6.20944H7.15798C7.18446 6.20925 7.21072 6.21432 7.23523 6.22437C7.25973 6.23441 7.28199 6.24923 7.30072 6.26796C7.31945 6.28668 7.33426 6.30895 7.34431 6.33345C7.35435 6.35795 7.35943 6.38421 7.35923 6.41069V7.11361H7.37965C7.64215 6.41944 8.13652 6.09278 8.80007 6.09278C9.47673 6.09278 9.89819 6.41944 10.203 7.11361C10.3111 6.80741 10.5137 6.54349 10.7816 6.35999C11.0495 6.1765 11.3688 6.08292 11.6934 6.09278C12.1484 6.09278 12.6413 6.27798 12.9432 6.69798C13.2874 7.16173 13.2159 7.83403 13.2159 8.42611V11.9057C13.2159 12.0165 13.1226 12.1026 13.0059 12.1026H11.9296C11.8782 12.1011 11.8293 12.0798 11.7931 12.0431C11.757 12.0064 11.7364 11.9572 11.7357 11.9057V8.98319C11.7357 8.74986 11.7561 8.16944 11.7065 7.95069C11.6249 7.57736 11.3828 7.47236 11.0678 7.47236C10.928 7.47711 10.7928 7.52275 10.6787 7.60362C10.5646 7.6845 10.4768 7.79706 10.4261 7.92736C10.3138 8.20444 10.324 8.66819 10.324 8.98319V11.9042C10.324 12.0151 10.2307 12.1011 10.114 12.1011H9.03631C8.98485 12.0996 8.93594 12.0783 8.8998 12.0416C8.86367 12.0049 8.84309 11.9557 8.84236 11.9042V8.98319C8.84236 8.36632 8.94152 7.46361 8.1759 7.46361C7.39715 7.46361 7.42777 8.34298 7.42777 8.98319H7.43069ZM31.9424 11.9028C31.9424 11.9291 31.9371 11.9552 31.927 11.9796C31.9169 12.0039 31.902 12.026 31.8833 12.0446C31.8646 12.0631 31.8424 12.0778 31.818 12.0878C31.7936 12.0977 31.7675 12.1028 31.7411 12.1026H30.6619C30.6356 12.1028 30.6094 12.0977 30.585 12.0878C30.5606 12.0778 30.5384 12.0631 30.5197 12.0446C30.501 12.026 30.4862 12.0039 30.476 11.9796C30.4659 11.9552 30.4607 11.9291 30.4607 11.9028V6.41069C30.4605 6.38421 30.4656 6.35795 30.4756 6.33345C30.4857 6.30895 30.5005 6.28668 30.5192 6.26796C30.5379 6.24923 30.5602 6.23441 30.5847 6.22437C30.6092 6.21432 30.6355 6.20925 30.6619 6.20944H31.658C31.7776 6.20944 31.8622 6.30278 31.8622 6.36548V7.20548H31.8826C32.1815 6.45153 32.6059 6.09278 33.354 6.09278C33.8382 6.09278 34.3107 6.26778 34.6126 6.74174C34.894 7.18507 34.894 7.92736 34.894 8.45965V11.929C34.8866 11.978 34.8617 12.0225 34.8238 12.0545C34.786 12.0864 34.7379 12.1035 34.6884 12.1026H33.6049C33.5579 12.1001 33.5132 12.0814 33.4784 12.0498C33.4436 12.0182 33.4208 11.9755 33.4138 11.929V8.59674C33.4138 7.48403 32.9865 7.45048 32.7371 7.45048C32.4499 7.45048 32.2165 7.67507 32.1188 7.88215C31.9832 8.21592 31.922 8.57523 31.9394 8.93507L31.9424 11.9028ZM0.276107 29.7528C0.0913846 29.7547 -0.000976562 29.6614 -0.000976562 29.4728V22.9847C-0.000976562 22.7999 0.0913846 22.7076 0.276107 22.7076H0.895898C0.987287 22.7076 1.05923 22.7265 1.11173 22.7644C1.16326 22.8004 1.19826 22.8699 1.21673 22.973L1.29986 23.4163C2.1943 22.8058 3.06444 22.5005 3.91027 22.5005C4.77847 22.5005 5.36618 22.8296 5.6734 23.4878C6.59409 22.8296 7.51527 22.5005 8.43694 22.5005C9.08055 22.5005 9.57444 22.6803 9.91861 23.0401C10.2628 23.4047 10.4349 23.919 10.4349 24.583V29.4742C10.4349 29.659 10.3415 29.7513 10.1549 29.7513H9.33236C9.14569 29.7533 9.05187 29.6609 9.0509 29.4742V24.9753C9.04993 24.5106 8.96243 24.1674 8.7884 23.9457C8.60756 23.7221 8.32805 23.6103 7.94986 23.6103C7.2693 23.6103 6.58388 23.8193 5.89361 24.2374C5.90338 24.306 5.90825 24.3752 5.90819 24.4444V29.4728C5.90819 29.6585 5.81583 29.7513 5.63111 29.7513H4.80569C4.62097 29.7533 4.52861 29.6609 4.52861 29.4742V24.9753C4.52861 24.5106 4.43965 24.1674 4.26173 23.9457C4.08284 23.7221 3.80333 23.6103 3.42319 23.6103C2.71541 23.6103 2.03534 23.8144 1.38298 24.2228V29.4728C1.38493 29.6594 1.29257 29.7523 1.1059 29.7513L0.276107 29.7528ZM14.4671 29.9613C13.807 29.9613 13.2995 29.7756 12.9446 29.4042C12.5917 29.0338 12.4153 28.5103 12.4153 27.8336V22.9919C12.4143 22.8033 12.5071 22.7095 12.6938 22.7105H13.5163C13.7049 22.7105 13.7987 22.8028 13.7978 22.9876V27.3947C13.7978 27.8934 13.8955 28.2614 14.0909 28.4986C14.2863 28.7339 14.5984 28.8515 15.0271 28.8515C15.698 28.8515 16.3732 28.6289 17.0528 28.1836V22.9847C17.0508 22.7999 17.1432 22.7076 17.3299 22.7076H18.1538C18.3415 22.7076 18.4348 22.7999 18.4338 22.9847V29.4772C18.4338 29.6599 18.3405 29.7513 18.1538 29.7513H17.5559C17.4792 29.7559 17.4029 29.7371 17.3371 29.6974C17.2866 29.6604 17.2516 29.5909 17.2321 29.4888L17.1359 29.0032C16.2687 29.641 15.3791 29.9603 14.4671 29.9613ZM22.4005 29.9613C21.6169 29.9613 20.914 29.8315 20.2917 29.5719C20.2038 29.5401 20.1247 29.4876 20.0613 29.4188C20.0195 29.3624 19.9986 29.2749 19.9986 29.1563V28.764C19.9976 28.5968 20.0535 28.5132 20.1663 28.5132C20.2305 28.5132 20.3462 28.5414 20.5134 28.5978C21.1308 28.7922 21.769 28.889 22.4282 28.888C22.8861 28.887 23.2332 28.799 23.4694 28.624C23.7076 28.4481 23.8262 28.1938 23.8253 27.8613C23.8288 27.7607 23.8115 27.6604 23.7743 27.5667C23.7372 27.4731 23.681 27.3882 23.6094 27.3174C23.3756 27.1294 23.1077 26.9883 22.8205 26.9017L21.6319 26.4584C20.5975 26.0783 20.0812 25.4303 20.0832 24.5144C20.0822 23.9087 20.3175 23.4222 20.789 23.0547C21.2586 22.6833 21.8745 22.4976 22.6367 22.4976C23.2427 22.4983 23.8437 22.607 24.4115 22.8184C24.5033 22.8422 24.5863 22.8918 24.6507 22.9613C24.6954 23.0216 24.7183 23.1115 24.7192 23.2311V23.6074C24.7192 23.7746 24.6594 23.8582 24.5399 23.8582C24.4297 23.8477 24.3211 23.8247 24.2161 23.7897C23.7266 23.6417 23.2181 23.566 22.7067 23.5651C21.8133 23.566 21.366 23.8674 21.3651 24.4692C21.3651 24.7094 21.4404 24.899 21.5911 25.038C21.7399 25.177 22.033 25.3301 22.4705 25.4974L23.5584 25.9174C24.1087 26.1274 24.5049 26.3797 24.7469 26.6742C24.9881 26.963 25.1086 27.3397 25.1086 27.8044C25.1086 28.4626 24.8622 28.9862 24.3692 29.3751C23.8763 29.764 23.2201 29.9584 22.4005 29.9584V29.9613ZM26.8703 29.7513C26.6836 29.7533 26.5898 29.6609 26.5888 29.4742V22.9847C26.5898 22.7999 26.6836 22.7076 26.8703 22.7076H27.6928C27.8794 22.7076 27.9733 22.7999 27.9742 22.9847V29.4772C27.9733 29.6599 27.8794 29.7513 27.6928 29.7513H26.8703ZM27.2888 21.4563C27.0195 21.4563 26.8071 21.3805 26.6515 21.2288C26.5741 21.1492 26.5137 21.0545 26.4741 20.9507C26.4344 20.8469 26.4164 20.7361 26.4211 20.6251C26.4164 20.5141 26.4344 20.4032 26.4741 20.2994C26.5137 20.1956 26.5741 20.101 26.6515 20.0213C26.7371 19.9425 26.8375 19.8815 26.947 19.8419C27.0564 19.8023 27.1726 19.785 27.2888 19.7909C27.5571 19.7909 27.7686 19.8677 27.9232 20.0213C28.0014 20.1005 28.0622 20.195 28.1019 20.299C28.1416 20.4029 28.1592 20.514 28.1536 20.6251C28.1546 20.873 28.0778 21.0742 27.9232 21.2288C27.8377 21.3068 27.7377 21.367 27.6288 21.4061C27.5199 21.4451 27.4043 21.4622 27.2888 21.4563ZM33.1251 29.9044C32.0265 29.9044 31.1869 29.5924 30.6065 28.9682C30.0232 28.3421 29.7315 27.4365 29.7315 26.2513C29.7315 25.0749 30.0319 24.1644 30.6328 23.5199C31.2326 22.8772 32.0824 22.5554 33.1819 22.5544C33.6846 22.5544 34.178 22.6434 34.6621 22.8213C34.7652 22.8563 34.8372 22.902 34.878 22.9584C34.9392 23.043 34.9407 23.1086 34.9407 23.2355V23.6103C34.9407 23.795 34.8809 23.8874 34.7613 23.8874C34.685 23.8836 34.6095 23.8699 34.5367 23.8465C34.1597 23.736 33.7688 23.6805 33.3759 23.6817C32.5942 23.6817 32.0308 23.8781 31.6857 24.2709C31.168 24.8601 31.1709 25.2917 31.1709 26.1565V26.3359C31.1709 27.1759 31.3459 27.7942 31.6959 28.1909C32.0459 28.5827 32.5971 28.7791 33.3496 28.7801C33.7385 28.781 34.1571 28.7159 34.6053 28.5847C34.6733 28.5625 34.7439 28.5488 34.8153 28.5438C34.9358 28.5438 34.9966 28.6362 34.9976 28.8209V29.1986C34.9976 29.3192 34.9786 29.4067 34.9407 29.4611C34.8825 29.5311 34.8056 29.5832 34.719 29.6113C34.2621 29.8067 33.7308 29.9054 33.1251 29.9044Z" fill="url(#paint0_linear_1905_5551)"/>
<defs>
<linearGradient id="paint0_linear_1905_5551" x1="17.4983" y1="6.03882" x2="17.4983" y2="29.9613" gradientUnits="userSpaceOnUse">
<stop offset="0.0885417" stop-color="white" stop-opacity="0.3"/>
<stop offset="1" stop-color="white"/>
</linearGradient>
</defs>
</svg>
