<svg width="18" height="19" viewBox="0 0 18 19" fill="none" xmlns="http://www.w3.org/2000/svg">
<path d="M16 0.772217C16.5304 0.772217 17.0391 0.98293 17.4142 1.358C17.7893 1.73308 18 2.24178 18 2.77222V16.7722C18 17.3027 17.7893 17.8114 17.4142 18.1864C17.0391 18.5615 16.5304 18.7722 16 18.7722H2C1.46957 18.7722 0.960859 18.5615 0.585786 18.1864C0.210714 17.8114 0 17.3027 0 16.7722V2.77222C0 2.24178 0.210714 1.73308 0.585786 1.358C0.960859 0.98293 1.46957 0.772217 2 0.772217H16ZM15.5 16.2722V10.9722C15.5 10.1076 15.1565 9.27842 14.5452 8.66705C13.9338 8.05568 13.1046 7.71222 12.24 7.71222C11.39 7.71222 10.4 8.23222 9.92 9.01222V7.90222H7.13V16.2722H9.92V11.3422C9.92 10.5722 10.54 9.94222 11.31 9.94222C11.6813 9.94222 12.0374 10.0897 12.2999 10.3523C12.5625 10.6148 12.71 10.9709 12.71 11.3422V16.2722H15.5ZM3.88 6.33222C4.32556 6.33222 4.75288 6.15522 5.06794 5.84016C5.383 5.5251 5.56 5.09778 5.56 4.65222C5.56 3.72222 4.81 2.96222 3.88 2.96222C3.43178 2.96222 3.00193 3.14027 2.68499 3.45721C2.36805 3.77414 2.19 4.204 2.19 4.65222C2.19 5.58222 2.95 6.33222 3.88 6.33222ZM5.27 16.2722V7.90222H2.5V16.2722H5.27Z" fill="url(#paint0_linear_1905_5905)"/>
<defs>
<linearGradient id="paint0_linear_1905_5905" x1="1.125" y1="-12.1653" x2="9" y2="14.8347" gradientUnits="userSpaceOnUse">
<stop stop-color="#E5E5E5"/>
<stop offset="1" stop-color="#7F7F7F"/>
</linearGradient>
</defs>
</svg>
