<svg width="200" height="70" viewBox="0 0 200 70" fill="none" xmlns="http://www.w3.org/2000/svg">
<g clip-path="url(#clip0_2471_1708)">
<path d="M29.4663 36.0988C27.1197 36.0988 24.7731 36.0937 22.4265 36.104C22.0979 36.104 21.6204 35.9551 21.5023 36.3761C21.3893 36.7869 21.7744 37.0539 22.1082 37.2542C22.7757 37.6495 23.4894 37.8652 24.2802 37.8601C27.2122 37.8498 30.1441 37.8601 33.0761 37.8601C34.7346 37.8601 34.786 37.9166 34.7654 39.611C34.7654 39.7599 34.7654 39.9037 34.7552 40.0526C34.6935 40.6431 34.5344 40.8228 33.9233 40.8434C33.1326 40.8742 32.3418 40.8537 31.5511 40.8537C30.2622 40.8537 28.9683 40.8434 27.6794 40.8383C27.5305 40.8383 27.3867 40.8383 27.2378 40.8485C27.0633 40.8639 26.8681 40.8691 26.786 41.059C26.6833 41.285 26.8322 41.4544 26.976 41.5982C27.1146 41.7471 27.2686 41.8909 27.433 42.009C28.2597 42.62 29.1891 42.9384 30.216 42.9486C31.4176 42.9538 32.6191 42.9435 33.8206 42.9538C34.8989 42.9641 35.0838 43.1592 35.0992 44.258C35.1197 45.6033 34.9503 45.7779 33.5947 45.7831C32.3059 45.7831 31.0119 45.7522 29.7231 45.7882C27.9002 45.8395 26.4317 45.0282 25.1069 43.914C24.4702 43.38 24.1159 42.6098 23.8437 41.8293C23.6332 41.2234 23.3046 40.8793 22.6371 40.7253C21.3174 40.4172 20.2237 39.6573 19.3662 38.6149C18.2212 37.2336 17.8514 35.611 18.0517 33.8447C18.1031 33.4031 18.3701 33.1617 18.8117 33.1309C19.1043 33.1104 19.397 33.1053 19.6897 33.1053C23.4124 33.1053 27.1403 33.1053 30.863 33.1053C31.5665 33.1053 32.2699 33.1309 32.9683 32.9923C33.4971 32.8896 34.0106 33.1053 34.5395 33.1001C35.8027 33.0899 37.0607 33.095 38.3238 33.1053C38.8116 33.1053 39.2584 32.9974 39.6589 32.7407C41.4047 31.6059 43.2686 30.6714 45.0658 29.6187C45.759 29.2131 45.7744 28.9923 45.0966 28.6021C43.397 27.6213 41.682 26.6662 39.9926 25.6701C39.4484 25.3466 38.976 25.3569 38.4317 25.6701C36.3418 26.8562 34.329 28.1707 32.1878 29.2696C31.6281 29.5571 31.1557 29.6239 30.6319 29.285C30.2622 29.0436 29.8771 28.828 29.5331 28.561C29.0247 28.1605 29.0299 27.8062 29.5742 27.4519C30.216 27.0411 30.8835 26.6662 31.5408 26.2863C33.3431 25.249 35.1454 24.2067 36.9631 23.19C37.5485 22.8614 38.1801 22.6098 38.7757 22.2965C39.1813 22.0809 39.5254 22.122 39.9259 22.353C42.3906 23.7651 44.8707 25.1515 47.3457 26.5584C48.0851 26.9795 48.8039 27.4262 49.5433 27.8472C50.0928 28.1605 50.2725 28.6329 50.2673 29.2439C50.2519 31.7343 50.2673 34.2298 50.2622 36.7202C50.2622 37.8601 50.4111 38.9897 50.293 40.1348C50.2211 40.8331 49.9747 41.2798 49.3893 41.6136C47.4073 42.7484 45.4304 43.8986 43.4535 45.0436C42.0055 45.8755 40.5523 46.7022 39.1043 47.534C38.976 47.6059 38.8579 47.6932 38.7243 47.7497C38.139 47.9961 37.7898 47.8113 37.7795 47.1694C37.759 45.8498 37.7333 44.525 37.8258 43.2157C37.9131 42.0398 37.9387 40.8845 37.8206 39.7086C37.7333 38.8357 37.7847 37.9525 37.7641 37.0745C37.7436 36.2169 37.6512 36.1142 36.7885 36.1091C34.3546 36.0988 31.9208 36.1091 29.4869 36.1091L29.4663 36.0988ZM47.243 35.6778C47.243 34.6816 47.2584 33.6906 47.243 32.6945C47.2276 31.9191 47.0376 31.801 46.3392 32.1605C44.5729 33.0745 42.9451 34.2246 41.2609 35.2773C40.9066 35.4981 40.7423 35.8062 40.7423 36.2272C40.7423 38.1579 40.732 40.0886 40.7475 42.0193C40.7526 42.7381 40.9477 42.846 41.6152 42.5122C43.3148 41.6598 44.9272 40.6483 46.5806 39.7137C47.0632 39.4365 47.2635 39.0359 47.2532 38.4814C47.2327 37.5469 47.2532 36.6072 47.2532 35.6727L47.243 35.6778Z" fill="white"/>
<path d="M91.9464 34.4659C91.9772 35.1643 91.895 35.9396 91.7204 36.7201C91.2686 38.7175 89.913 39.8575 88.1466 40.6379C88.0645 40.6739 87.9823 40.7201 87.9002 40.7304C86.5035 40.869 85.1068 41.0077 83.7307 40.5507C82.4521 40.1245 81.5176 39.2618 80.7063 38.2349C80.5061 37.9833 80.3469 37.6957 80.2647 37.3825C79.8231 35.6931 79.628 33.9884 80.0234 32.258C80.2493 31.2618 80.7063 30.3889 81.343 29.6084C82.2159 28.5353 83.474 28.3299 84.732 28.2015C85.5741 28.1193 86.4367 28.1142 87.2788 28.2015C88.8244 28.3504 90.1903 28.9563 91.0426 30.3222C91.6177 31.2464 91.9053 32.3093 91.9515 33.4133C91.9669 33.7368 91.9515 34.0603 91.9515 34.4762L91.9464 34.4659ZM88.2493 34.24C88.3828 33.2901 87.8796 32.4428 87.438 31.5905C87.1813 31.0975 86.6986 30.8562 86.1338 30.8254C85.0863 30.7689 84.1569 31.3645 83.8385 32.3709C83.4226 33.6803 83.3815 35 83.7769 36.3453C84.0439 37.2439 84.6704 37.7008 85.4919 37.9268C86.4984 38.2041 87.705 37.4955 87.9515 36.4839C88.1209 35.7753 88.2647 35.0564 88.2493 34.24Z" fill="white"/>
<path d="M56.5622 34.43C56.5622 32.8485 56.5622 31.267 56.5622 29.6855C56.5622 29.4493 56.5519 29.2131 56.5827 28.982C56.6495 28.4634 56.8446 28.222 57.3632 28.2015C59.679 28.1039 61.9948 28.0629 64.2182 28.8793C65.5737 29.3774 66.1796 31.0872 65.4967 32.4839C65.2605 32.9614 64.9473 33.3876 64.5519 33.7368C64.2233 34.0243 64.213 34.1938 64.5827 34.4711C66.4621 35.8934 66.2721 38.7946 64.2182 39.9858C63.2939 40.5198 62.2926 40.8279 61.2092 40.8279C60.3311 40.8279 59.4531 40.8279 58.575 40.8279C58.2823 40.8279 57.9897 40.8125 57.7021 40.7663C56.7573 40.6071 56.5725 40.3966 56.5673 39.4364C56.5571 37.7676 56.5673 36.0988 56.5673 34.43H56.5622ZM60.9576 38.0243C61.0089 38.0243 61.127 38.0243 61.2451 38.0038C61.8921 37.9062 62.3953 37.3466 62.3748 36.7561C62.3491 36.1039 61.7329 35.6469 60.8446 35.611C60.29 35.5905 60.1925 35.7086 60.0384 36.602C60.0179 36.715 59.9871 36.8279 59.9717 36.946C59.8587 37.7779 60.0693 38.0192 60.9576 38.0192V38.0243ZM59.8998 32.0783C59.8998 32.0783 59.8895 32.0783 59.8844 32.0783C59.8844 32.2837 59.869 32.489 59.8844 32.6893C59.9049 32.8844 60.0487 33.0333 60.2387 33.0077C60.7573 32.946 61.3016 32.9871 61.7894 32.7561C62.1283 32.5917 62.3645 32.3504 62.2721 31.9242C62.1334 31.3132 61.2965 30.7946 60.5314 30.8459C60.059 30.8767 59.9511 31.077 59.8998 31.991C59.8998 32.0218 59.8998 32.0475 59.8998 32.0783Z" fill="white"/>
<path d="M111.099 32.9C111.504 32.7459 111.633 32.4327 111.807 32.1708C112.459 31.1644 113.106 30.1529 113.738 29.131C114.123 28.5046 114.647 28.1606 115.396 28.1708C116.013 28.1811 116.629 28.1452 117.24 28.1862C117.722 28.2171 117.856 28.4635 117.676 28.9051C117.579 29.1464 117.43 29.3672 117.281 29.588C116.572 30.6304 115.894 31.6933 115.14 32.6997C114.621 33.3981 114.539 34.0604 114.955 34.8153C115.407 35.6368 115.787 36.4995 116.285 37.2902C116.757 38.0348 117.152 38.8204 117.589 39.5803C118.046 40.3814 117.794 40.8024 116.891 40.8332C116.393 40.8486 115.894 40.8332 115.396 40.8332C114.647 40.8332 114.164 40.5046 113.846 39.7857C113.414 38.7947 112.87 37.855 112.357 36.9C112.177 36.5611 111.956 36.2068 111.473 36.3608C111.037 36.5046 110.96 36.8846 110.955 37.2851C110.945 38.045 110.955 38.8101 110.939 39.5701C110.919 40.3916 110.749 40.5765 109.938 40.7511C109.389 40.8692 108.829 40.8743 108.274 40.8024C107.674 40.7254 107.458 40.4892 107.432 39.873C107.407 39.2004 107.432 38.5277 107.432 37.8499C107.432 35.1541 107.432 32.4584 107.432 29.7626C107.432 29.5007 107.422 29.2337 107.458 28.9719C107.525 28.4584 107.725 28.2376 108.249 28.2016C108.834 28.1606 109.419 28.1606 110.005 28.1914C110.672 28.2273 110.903 28.4481 110.929 29.1156C110.965 30.0502 110.929 30.9898 110.95 31.9295C110.95 32.2376 110.862 32.5714 111.099 32.9Z" fill="white"/>
<path d="M100.563 40.828C98.9451 41.0128 97.569 40.4891 96.3418 39.4519C95.9002 39.077 95.5716 38.6611 95.3611 38.1322C94.673 36.4069 94.3392 34.6252 94.827 32.8075C95.4073 30.6406 96.9888 28.4223 99.5972 28.1143C100.973 27.9551 102.283 28.0783 103.577 28.4583C104.434 28.7099 104.557 29.0437 104.296 29.9217C104.26 30.0347 104.224 30.1425 104.188 30.2555C103.808 31.3594 103.623 31.4724 102.529 31.1438C101.836 30.9384 101.133 30.9281 100.439 31.0154C99.5408 31.1335 98.9605 31.7446 98.6987 32.5713C98.2879 33.855 98.3033 35.1746 98.6987 36.4686C99.017 37.5058 100.136 38.1322 101.292 37.9576C101.872 37.8704 102.437 37.7112 103.012 37.5931C103.818 37.4288 104.044 37.5931 104.1 38.3787C104.224 40.1297 104.1 40.2888 102.396 40.7253C101.79 40.8793 101.174 40.8023 100.563 40.8229V40.828Z" fill="white"/>
<path d="M73.2604 40.8333C72.295 40.8333 71.3245 40.8487 70.3592 40.8333C69.4041 40.8127 69.1012 40.5149 69.0858 39.5547C69.0755 38.7639 69.0242 37.9732 69.1782 37.1876C69.245 36.8384 69.2141 36.4892 69.1628 36.1401C69.1166 35.7909 69.0858 35.4417 69.0806 35.0926C69.0704 33.3108 69.0755 31.5239 69.0806 29.7421C69.0806 29.4494 69.096 29.1568 69.1423 28.8692C69.209 28.4892 69.4401 28.2068 69.8406 28.1965C70.5132 28.176 71.1859 28.1811 71.8586 28.2222C72.3001 28.2479 72.5261 28.5611 72.562 28.9924C72.6339 29.8962 72.8239 30.7845 72.7725 31.7036C72.6801 33.3673 72.829 35.0361 72.6082 36.7049C72.485 37.6548 72.7161 37.8551 73.6557 37.8653C74.4465 37.8756 75.2372 37.8551 76.028 37.8653C77.2604 37.8808 77.4966 38.1272 77.4966 39.3852C77.4966 39.4417 77.4966 39.5033 77.4966 39.5598C77.4657 40.556 77.2244 40.8179 76.2437 40.8384C75.2475 40.8589 74.2514 40.8384 73.2552 40.8384L73.2604 40.8333Z" fill="white"/>
<path d="M153.702 34.3942C153.702 32.6946 153.692 30.995 153.702 29.2954C153.707 28.3249 153.861 28.1811 154.837 28.176C155.776 28.176 156.716 28.1349 157.65 28.1966C158.744 28.2633 159.776 28.5406 160.618 29.3313C161.219 29.8962 161.46 30.5534 161.481 31.3647C161.507 32.6844 161.091 33.7729 160.028 34.5945C159.268 35.1799 159.263 35.2312 159.72 36.1195C160.238 37.1413 160.926 38.0605 161.538 39.0258C161.743 39.3493 161.969 39.6574 162.082 40.0271C162.22 40.4944 162.041 40.7665 161.568 40.8435C160.947 40.9462 160.469 40.6535 160.151 39.9141C159.663 38.7793 158.986 37.7472 158.395 36.6689C157.953 35.8576 157.271 35.5136 156.398 35.4417C155.509 35.3698 155.15 35.6779 155.134 36.5714C155.119 37.4802 155.134 38.3891 155.124 39.298C155.124 39.6214 155.124 39.9501 154.98 40.2479C154.831 40.5457 154.641 40.823 154.251 40.7562C153.912 40.6997 153.779 40.4225 153.743 40.1144C153.712 39.8525 153.712 39.5855 153.712 39.3236C153.712 37.6805 153.712 36.0425 153.712 34.3994L153.702 34.3942ZM155.129 31.8268C155.129 31.8268 155.16 31.8268 155.176 31.8268C155.176 32.3814 155.155 32.9411 155.181 33.4905C155.201 33.9013 155.391 34.2556 155.848 34.2915C156.839 34.3686 157.835 34.4096 158.77 33.927C159.715 33.434 159.946 32.5971 159.879 31.6369C159.812 30.7331 159.443 30.0451 158.529 29.6702C157.65 29.3108 156.793 29.547 155.93 29.5932C155.324 29.624 155.181 29.7883 155.145 30.4148C155.114 30.882 155.14 31.3493 155.14 31.8166L155.129 31.8268Z" fill="white"/>
<path d="M135.915 28.1863C136.988 28.0579 138.01 28.2787 139.021 28.5971C140.5 29.0592 141.224 30.0143 141.24 31.5753C141.24 31.8988 141.255 32.2222 141.224 32.5406C141.142 33.4341 140.747 34.1632 140.007 34.6818C139.001 35.3904 137.922 35.8115 136.649 35.7653C134.811 35.6985 134.867 35.7036 134.878 37.5368C134.878 38.1786 134.893 38.8256 134.883 39.4674C134.883 39.6985 134.867 39.9398 134.795 40.1555C134.672 40.5303 134.277 40.7152 133.876 40.6536C133.491 40.5919 133.342 40.3352 133.311 39.9809C133.301 39.8371 133.296 39.6882 133.301 39.5445C133.404 36.2993 133.245 33.0541 133.291 29.8089C133.291 29.6035 133.286 29.3981 133.311 29.1927C133.388 28.5714 133.697 28.2377 134.328 28.1914C134.852 28.1504 135.381 28.1812 135.91 28.1812L135.915 28.1863ZM134.898 31.9552C134.898 31.9552 134.898 31.9552 134.903 31.9552C134.903 32.5098 134.878 33.0695 134.908 33.624C134.949 34.2402 135.175 34.4559 135.781 34.5021C136.161 34.5329 136.541 34.5124 136.921 34.5021C138.842 34.4199 139.668 33.5419 139.643 31.6266C139.627 30.5894 139.232 30.0708 138.251 29.7832C137.363 29.5162 136.454 29.6086 135.55 29.624C135.129 29.6292 134.908 29.8911 134.898 30.3018C134.883 30.8564 134.898 31.411 134.898 31.9706V31.9552Z" fill="white"/>
<path d="M125.056 28.1708C125.744 28.2067 126.545 28.0835 127.31 28.3813C127.628 28.5045 128.049 28.5456 127.911 29.0642C127.787 29.5263 127.371 29.7882 126.899 29.6804C126.416 29.5674 125.939 29.4082 125.456 29.3004C124.907 29.1772 124.347 29.1874 123.808 29.3774C123.145 29.6085 122.545 29.9371 122.416 30.6971C122.267 31.5494 122.416 32.3402 123.176 32.8948C123.654 33.2439 124.183 33.5058 124.747 33.6701C125.78 33.9679 126.632 34.6046 127.566 35.0924C127.803 35.2157 127.982 35.4159 128.101 35.6624C128.67 36.8485 128.414 38.5173 127.51 39.4416C126.627 40.3402 125.574 40.8434 124.296 40.8383C123.623 40.8383 122.945 40.8383 122.273 40.8383C121.826 40.8383 121.394 40.7458 120.994 40.5559C120.552 40.3505 120.398 40.0116 120.496 39.5546C120.588 39.1387 120.845 38.923 121.256 39.0514C122.237 39.3595 123.233 39.2414 124.224 39.2568C124.455 39.2568 124.696 39.2568 124.927 39.2105C126.406 38.9384 126.878 38.2144 126.504 36.5764C126.344 35.8729 125.651 35.4776 124.973 35.2362C124.198 34.9589 123.469 34.5841 122.724 34.2401C121.656 33.7471 121.081 32.8485 120.722 31.7959C120.378 30.7946 121.03 29.3364 122.072 28.6945C122.632 28.3505 123.228 28.1245 123.9 28.1605C124.249 28.181 124.604 28.1605 125.056 28.1605V28.1708Z" fill="white"/>
<path d="M177.44 28.176C178.641 28.176 179.843 28.1658 181.044 28.176C181.732 28.1863 181.984 28.3455 181.994 28.7152C182.005 29.1208 181.671 29.3827 181.05 29.4084C180.495 29.4341 179.93 29.393 179.381 29.4546C178.472 29.5573 178.22 29.8294 178.174 30.7486C178.056 33.09 178.123 35.4264 178.313 37.7627C178.379 38.5637 178.292 39.3442 178.164 40.1247C178.097 40.5098 177.887 40.7717 177.476 40.8076C177.08 40.8435 176.798 40.6587 176.613 40.3198C176.469 40.0528 176.433 39.7601 176.438 39.4674C176.459 37.2133 176.305 34.9539 176.546 32.6998C176.634 31.8885 176.428 31.0721 176.546 30.2505C176.613 29.7832 176.326 29.5419 175.786 29.47C175.139 29.3827 174.503 29.4597 173.861 29.5778C173.116 29.7165 172.829 29.5778 172.752 29.1054C172.659 28.556 173.014 28.1966 173.743 28.1863C174.975 28.1658 176.207 28.1812 177.44 28.1812V28.1709V28.176Z" fill="white"/>
<path d="M168.496 34.3173C168.496 35.868 168.496 37.4238 168.496 38.9745C168.496 39.2364 168.496 39.5085 168.424 39.755C168.321 40.1504 167.956 40.3404 167.535 40.2941C167.155 40.2531 166.965 40.0323 166.919 39.6677C166.909 39.5804 166.899 39.4931 166.899 39.4058C166.965 37.357 166.734 35.3083 166.781 33.2646C166.811 31.9193 166.914 30.5791 166.914 29.2287C166.914 29.1414 166.914 29.0541 166.929 28.9668C167.007 28.4841 167.238 28.2428 167.643 28.212C168.075 28.1812 168.362 28.4328 168.449 28.9565C168.496 29.2133 168.49 29.4803 168.49 29.7422C168.49 31.2672 168.49 32.7871 168.49 34.3121L168.496 34.3173Z" fill="white"/>
<path d="M147.925 36.0064C147.925 37.1771 147.925 38.353 147.925 39.5237C147.925 39.878 147.92 40.2529 147.53 40.4326C147.206 40.5815 146.857 40.6842 146.529 40.4531C146.2 40.222 146.144 39.8677 146.21 39.5083C146.39 38.4865 146.313 37.4595 146.318 36.4377C146.333 34.24 146.323 32.0423 146.333 29.8446C146.333 29.5263 146.333 29.1977 146.405 28.8844C146.508 28.3915 146.832 28.1707 147.283 28.2066C147.704 28.2426 147.874 28.4531 147.92 28.9974C147.93 29.1155 147.93 29.2336 147.925 29.3466C147.864 30.4557 147.787 31.5494 147.9 32.6688C148.013 33.7728 147.925 34.8921 147.925 36.0064Z" fill="white"/>
</g>
<defs>
<clipPath id="clip0_2471_1708">
<rect width="164" height="25.6945" fill="white" transform="translate(18 22.1528)"/>
</clipPath>
</defs>
</svg>
