<svg width="200" height="70" viewBox="0 0 200 70" fill="none" xmlns="http://www.w3.org/2000/svg">
<path fill-rule="evenodd" clip-rule="evenodd" d="M52.3745 25.0138C52.3745 24.2 51.758 23.9931 50.9313 23.9931V23.5793H58.8058V25.6207H58.3854C58.1753 24.3931 57.7689 24.2 56.1016 24.2H54.0278V27.869H55.8914C56.7181 27.869 57.1384 27.869 57.1384 26.6414H57.7549V29.7035H57.1384C57.1384 28.4759 56.9282 28.4759 55.8914 28.4759H54.0278V31.3311C54.0278 32.3518 54.4482 32.5587 55.2749 32.5587H55.6952V32.9587H50.9313V32.5587C51.758 32.5587 52.3745 32.3518 52.3745 31.7449V25.0138ZM71.8505 27.8552V24.1862C72.0607 24.1862 72.6772 23.9793 72.8874 23.9793C74.3305 23.9793 75.1712 24.5862 75.1712 25.8138C75.1712 27.0414 74.3445 27.8552 72.6912 27.8552H71.8505ZM70.1971 31.7311C70.1971 32.338 69.7768 32.5449 68.754 32.5449V32.9449H73.3077V32.5449C72.481 32.5449 71.8645 32.338 71.8645 31.7311V28.4759H73.3077C74.3445 30.1035 75.3814 32.1449 76.2081 32.9587H78.6881V32.5587C77.4411 32.1449 76.8246 31.7449 74.7509 28.0759C76.1941 27.6621 76.8246 27.0552 76.8246 25.8276C76.8246 24.6 75.5776 23.5793 73.9242 23.5793H68.7399V23.9931C69.7768 23.9931 70.1831 24.2 70.1831 25.0138V31.7449L70.1971 31.7311ZM90.4858 28.0621C90.4858 26.0207 91.3125 23.9793 93.8065 23.9793C96.3006 23.9793 97.3234 25.8138 97.3234 28.4621C97.3234 31.1104 96.4967 32.5449 94.0027 32.5449C91.929 32.5449 90.4858 30.7104 90.4858 28.0621ZM88.4261 28.269C88.4261 31.1242 90.71 33.1656 93.8065 33.1656C96.9031 33.1656 99.187 30.5173 99.187 28.269C99.187 26.0207 97.1133 23.3725 94.0027 23.3725C90.8921 23.3725 88.4121 25.2069 88.4121 28.269H88.4261ZM110.578 30.7104C110.788 31.938 111.405 32.7518 112.862 32.7518C114.319 32.7518 114.726 31.7311 114.726 31.1242C114.726 30.5173 114.305 29.8966 113.072 29.0828C110.788 28.0621 110.382 27.2483 110.382 25.8138C110.382 24.3793 111.419 23.3725 113.072 23.3725C114.726 23.3725 114.726 23.5793 115.552 23.5793V25.4138H115.132C114.922 24.6 114.516 23.7862 113.269 23.7862C112.022 23.7862 111.615 24.6 111.615 25.4138C111.615 26.2276 111.825 26.6414 113.689 27.6621C115.763 28.4759 116.169 29.2897 116.169 30.5173C116.169 31.7449 114.726 33.1656 112.848 33.1656C110.971 33.1656 110.985 32.9587 110.368 32.7518L109.948 30.7104H110.578ZM128.401 24.1862C127.154 24.1862 126.958 24.3931 126.748 25.6069H126.131L126.551 23.1656H126.972C126.972 23.5793 127.392 23.5793 127.798 23.5793H134.006C134.426 23.5793 134.622 23.5793 135.042 23.1656H135.463L135.253 25.6069H134.636C134.636 24.3793 134.426 24.1862 133.599 24.1862H131.526V31.7311C131.526 32.338 132.142 32.5449 133.179 32.5449V32.9449H128.415V32.5449C129.452 32.5449 129.858 32.338 129.858 31.7311V24.1862H128.401ZM148.9 23.1793C149.32 23.1793 149.727 23.3862 149.727 23.593V24.0068L147.863 25.8413C147.247 26.4482 146.826 27.0689 146.21 27.6758C146 27.4689 146 27.262 146 27.0689C146 25.2344 147.247 23.193 148.9 23.193V23.1793ZM154.701 26.4344C154.701 25.4137 153.454 26.2275 153.454 25.0137C153.454 23.7999 154.07 23.7862 154.701 23.7862C155.331 23.7862 156.354 24.1999 156.564 24.5999C156.354 26.2275 156.144 27.8689 154.911 29.0827C154.084 30.1034 152.431 31.331 150.147 31.331C147.863 31.331 148.073 30.9172 147.247 30.1034C147.036 29.7034 146.63 29.2896 146.63 28.6827C146.63 28.0758 146.84 27.662 147.247 27.262L148.283 26.0344L149.11 25.2206L153.047 21.5517C153.664 20.9448 154.911 19.7172 154.911 19.1103C154.911 18.5034 154.491 18.0896 154.084 18.0896C153.678 18.0896 153.468 18.5034 153.468 18.9034V19.7172C153.468 20.531 151.814 21.9655 151.394 22.5724C150.974 22.1586 150.567 21.9655 150.147 21.9655C147.457 21.9655 144.963 25.2206 144.963 27.6758C144.963 30.131 147.036 32.7793 149.937 32.7793C152.837 32.7793 155.121 30.531 155.948 29.1103C156.774 27.6758 156.985 26.2551 156.985 25.0275C157.405 25.4413 158.021 26.0482 158.638 26.0482C159.885 26.0482 161.328 24.8206 161.328 23.6068C161.328 22.393 161.118 22.5862 160.501 22.5862C159.885 22.5862 159.885 22.9999 159.885 23.193C159.885 23.7999 160.501 24.0068 160.501 24.4206C160.501 24.8344 160.081 25.2344 159.675 25.2344C158.428 25.2344 158.021 22.793 155.948 22.793C153.874 22.793 152.431 24.2137 152.431 25.8551C152.431 27.4965 153.257 27.2758 153.678 27.2758C154.098 27.2758 154.715 27.0689 154.715 26.462L154.701 26.4344ZM33.7393 48.9448H34.1456C34.5659 50.1724 35.1824 50.9862 36.6256 50.9862C38.0688 50.9862 38.4892 49.9655 38.4892 49.3586C38.4892 48.7517 37.8727 48.131 36.6256 47.3172C34.5519 46.2966 33.9354 45.4828 33.9354 44.0483C33.9354 42.6138 35.1824 41.6069 36.8358 41.6069C38.4892 41.6069 38.4892 41.8138 39.1197 41.8138L39.3299 43.6483H38.9095C38.6993 42.8345 38.293 42.0207 36.8358 42.0207C35.3786 42.0207 35.1825 42.8345 35.1825 43.6483C35.1825 44.4621 35.6028 44.8759 37.4663 45.8966C39.54 46.7103 39.9464 47.5241 39.9464 48.7517C39.9464 49.9793 38.5032 51.4 36.4295 51.4C34.3558 51.4 34.7761 51.1931 33.9494 50.9862L33.7393 48.9448ZM51.1275 43.0414C51.1275 42.2276 50.3009 42.2276 49.6844 42.2276V41.8138H54.0279V42.2276C53.4114 42.2276 52.7809 42.2276 52.7809 43.0414V48.1448C52.7809 49.9793 53.8178 50.5862 55.4711 50.5862C58.1613 50.5862 58.1613 48.5448 58.1613 46.7103V44.4621C58.1613 42.4207 57.9512 42.2138 56.508 42.2138V41.8H60.235V42.2138C59.4084 42.2138 58.988 42.4207 58.988 43.6345V47.5103C58.988 49.7586 57.9512 51.3862 55.0508 51.3862C52.1504 51.3862 51.1135 50.5724 51.1135 48.3241V43.0276L51.1275 43.0414ZM71.4302 43.2483C71.4302 42.4345 71.0099 42.2276 69.9871 42.2276V41.8138H74.5408V42.2276C73.7141 42.2276 73.0976 42.4345 73.0976 43.2483V49.5655C73.0976 50.3793 73.518 50.5862 74.9611 50.5862C76.4043 50.5862 77.0348 50.3793 77.8615 48.7517H78.2819L77.8615 51.1931H69.9871V50.7931C71.0239 50.7931 71.4302 50.5862 71.4302 49.9793V43.2483ZM89.2389 43.2483C89.2389 42.4345 88.6224 42.2276 87.7817 42.2276V41.8138H92.3354V42.2276C91.5087 42.2276 90.8782 42.4345 90.8782 43.2483V49.5655C90.8782 50.3793 91.0884 50.5862 92.7417 50.5862C94.3951 50.5862 94.8155 50.3793 95.6421 48.7517H96.0485L95.432 51.1931H87.7677V50.7931C88.5943 50.7931 89.2249 50.5862 89.2249 49.9793V43.2483H89.2389ZM106.641 43.2483C106.641 42.4345 106.235 42.2276 105.198 42.2276V41.8138H109.752V42.2276C108.925 42.2276 108.295 42.4345 108.295 43.2483V49.9793C108.295 50.5862 108.911 50.7931 109.752 50.7931V51.1931H105.198V50.7931C106.235 50.7931 106.641 50.5862 106.641 49.9793V43.2483ZM120.316 43.2483C120.106 42.4345 119.896 42.2276 119.069 42.2276V41.8138H123.217V42.2276H122.796C122.376 42.2276 122.18 42.4345 122.18 42.8345V43.2483L124.87 49.3586L127.154 43.6483C127.154 43.4414 127.364 43.0414 127.364 42.8345C127.364 42.2276 126.748 42.2276 125.907 42.2276V41.8138H129.424V42.2276C128.807 42.2276 128.597 42.2276 127.981 43.4552L124.66 51.4138H123.833L120.316 43.2621V43.2483ZM144.136 47.1103H141.236L142.679 43.2345L144.136 47.1103ZM143.926 51.1931H148.283V50.7931C147.247 50.7931 147.036 50.3793 146.63 49.5655L143.73 41.4138L142.272 42.0207V42.2276C142.272 42.4345 142.272 42.6414 142.062 42.8345L139.372 49.9655C139.162 50.3793 138.756 50.7793 137.929 50.7793V51.1793H141.446V50.7793H141.236C140.815 50.7793 140.199 50.5724 140.199 50.1724C140.199 49.7724 140.409 49.1517 140.619 48.9448L141.025 47.7172H144.346L144.963 49.5517C145.103 49.8184 145.173 50.0207 145.173 50.1586C145.173 50.5586 144.556 50.7655 144.136 50.7655H143.926V51.1931ZM158.624 43.2483C158.624 42.4345 157.377 42.2276 157.181 42.2276V41.8138H159.661L165.672 48.7517V43.6483C165.672 42.4207 165.265 42.2276 164.229 42.2276V41.8138H167.745V42.2276C166.919 42.2276 166.498 42.4345 166.498 43.2483V51.4H166.078L159.451 43.8552V48.9586C159.451 50.3931 159.661 50.7931 161.104 50.7931V51.1931H156.957V50.7931C158.61 50.7931 158.61 49.9793 158.61 48.5448V43.2483H158.624Z" fill="white"/>
</svg>
