<svg width="200" height="70" viewBox="0 0 200 70" fill="none" xmlns="http://www.w3.org/2000/svg">
<path fill-rule="evenodd" clip-rule="evenodd" d="M100.346 34.4693C100.346 32.6752 99.1809 31.4193 97.617 31.4193C96.0532 31.4193 94.8876 32.6752 94.8876 34.4693C94.8876 36.2634 96.0532 37.5192 97.617 37.5192C99.1809 37.5192 100.346 36.2484 100.346 34.4693ZM92.5713 34.4693C92.5713 31.5539 94.7696 29.3113 97.617 29.3113C100.465 29.3113 102.663 31.5539 102.663 34.4693C102.663 37.3847 100.465 39.6273 97.617 39.6273C94.7696 39.6273 92.5713 37.3847 92.5713 34.4693Z" fill="white"/>
<path fill-rule="evenodd" clip-rule="evenodd" d="M105.864 34.4393C105.864 36.2633 107.059 37.5192 108.579 37.5192C110.099 37.5192 111.294 36.2782 111.294 34.4393C111.294 32.6004 110.099 31.3595 108.579 31.3595C107.059 31.3595 105.864 32.6153 105.864 34.4393ZM105.938 38.3116H105.894V43.1257H103.666V29.4458H105.894V30.582H105.938C106.572 29.9391 107.531 29.2664 109.022 29.2664C111.589 29.2664 113.595 31.3445 113.595 34.4543C113.595 37.564 111.589 39.6422 109.022 39.6422C107.546 39.6272 106.572 38.9544 105.938 38.3116Z" fill="white"/>
<path fill-rule="evenodd" clip-rule="evenodd" d="M116.915 34.4393C116.915 36.2633 118.11 37.5192 119.63 37.5192C121.149 37.5192 122.344 36.2782 122.344 34.4393C122.344 32.6004 121.149 31.3595 119.63 31.3595C118.11 31.3595 116.915 32.6153 116.915 34.4393ZM116.989 38.3116H116.945V43.1257H114.717V29.4458H116.945V30.582H116.989C117.623 29.9391 118.582 29.2664 120.072 29.2664C122.64 29.2664 124.646 31.3445 124.646 34.4543C124.646 37.564 122.64 39.6422 120.072 39.6422C118.597 39.6272 117.623 38.9544 116.989 38.3116Z" fill="white"/>
<path fill-rule="evenodd" clip-rule="evenodd" d="M127.847 33.4377H132.686C132.45 32.1818 131.447 31.2698 130.267 31.2698C129.086 31.2698 128.083 32.1818 127.847 33.4377ZM132.613 36.2335L134.944 36.5474C134.014 38.8349 132.391 39.6273 130.4 39.6273C127.552 39.6273 125.457 37.5491 125.457 34.4394C125.457 31.3296 127.552 29.2515 130.237 29.2515C132.922 29.2515 135.165 31.1353 135.165 35.172H127.877C128.039 36.7717 129.16 37.6239 130.429 37.6239C131.698 37.6239 132.229 37.1006 132.613 36.2335Z" fill="white"/>
<path fill-rule="evenodd" clip-rule="evenodd" d="M138.455 29.4458V30.5821H138.499C139.001 29.9392 139.724 29.3711 141.052 29.3711C142.38 29.3711 141.554 29.4159 141.775 29.4907V31.7483C141.48 31.6735 141.081 31.6287 140.831 31.6287C139.163 31.6287 138.47 32.3612 138.47 33.9909V39.4329H136.242V29.4458H138.455Z" fill="white"/>
<path fill-rule="evenodd" clip-rule="evenodd" d="M89.0751 36.024C88.662 36.9809 87.8653 37.549 86.8178 37.564C85.8736 37.549 85.1212 37.0706 84.6785 36.2632C84.59 36.0838 84.5015 35.8745 84.4425 35.6503H84.4277C84.3245 35.2914 84.2654 34.8878 84.2654 34.4393C84.2654 33.9907 84.3245 33.5871 84.4277 33.2282H84.4425C84.5015 33.004 84.59 32.8096 84.6785 32.6153C85.1212 31.8079 85.8736 31.3295 86.8178 31.3145C87.8506 31.3145 88.662 31.9126 89.0751 32.8694C89.1194 32.9741 89.1637 33.0937 89.1932 33.2282C89.1932 33.2282 89.1932 33.2581 89.2079 33.2581H91.5685C91.5095 32.9292 91.421 32.6003 91.3029 32.3013C90.6095 30.4474 89.0014 29.2812 86.9211 29.2812H86.7145C84.8851 29.2812 83.4245 30.1932 82.6278 31.7033C82.1999 32.4807 81.9639 33.4077 81.9639 34.4692C81.9639 35.5307 82.1999 36.4576 82.6278 37.235C83.4245 38.7451 84.8851 39.6571 86.7145 39.6571H86.9211C89.0014 39.6571 90.5948 38.4759 91.2882 36.6071C91.3619 36.4277 91.421 36.2333 91.4652 36.0539H89.0751V36.024Z" fill="white"/>
<path fill-rule="evenodd" clip-rule="evenodd" d="M140.138 38.0874C140.138 37.31 140.831 36.5774 141.628 36.5774C142.425 36.5774 143.118 37.31 143.118 38.0874C143.118 38.8649 142.41 39.5974 141.628 39.5974C140.846 39.5974 140.138 38.8798 140.138 38.0874Z" fill="white"/>
<path fill-rule="evenodd" clip-rule="evenodd" d="M162.047 34.4693C162.047 32.6752 160.881 31.4193 159.317 31.4193C157.753 31.4193 156.588 32.6752 156.588 34.4693C156.588 36.2634 157.753 37.5192 159.317 37.5192C160.881 37.5192 162.047 36.2484 162.047 34.4693ZM154.257 34.4693C154.257 31.5539 156.455 29.3113 159.303 29.3113C162.15 29.3113 164.348 31.5539 164.348 34.4693C164.348 37.3847 162.15 39.6273 159.303 39.6273C156.455 39.6273 154.257 37.3847 154.257 34.4693Z" fill="white"/>
<path fill-rule="evenodd" clip-rule="evenodd" d="M150.701 36.024C150.288 36.9809 149.491 37.549 148.444 37.564C147.5 37.549 146.747 37.0706 146.305 36.2632C146.216 36.0838 146.128 35.8745 146.069 35.6503C145.965 35.2914 145.906 34.8878 145.906 34.4393C145.906 33.9907 145.965 33.5871 146.069 33.2282C146.128 33.004 146.216 32.8096 146.305 32.6153C146.747 31.8079 147.5 31.3295 148.444 31.3145C149.477 31.3145 150.288 31.9126 150.701 32.8694C150.745 32.9741 150.79 33.0937 150.819 33.2282V33.2581H153.18C153.121 32.9292 153.032 32.6003 152.914 32.3013C152.206 30.4474 150.613 29.2812 148.532 29.2812H148.326C146.496 29.2812 145.036 30.1932 144.239 31.7033C143.811 32.4807 143.575 33.4077 143.575 34.4692C143.575 35.5307 143.811 36.4576 144.239 37.235C145.036 38.7451 146.496 39.6571 148.326 39.6571H148.532C150.613 39.6571 152.206 38.4759 152.9 36.6071C152.973 36.4277 153.032 36.2333 153.077 36.0539H150.686V36.024H150.701Z" fill="white"/>
<path fill-rule="evenodd" clip-rule="evenodd" d="M66.6784 44.7853C65.0998 46.5943 63.3441 47.5213 62.1491 47.9847C58.8147 49.2555 55.4361 49.2107 52.1313 47.8352C48.7527 46.4299 45.7282 43.5145 44.2529 40.2402C43.5889 38.7751 43.2349 37.2352 43.1906 35.6653C43.1906 35.3364 43.1906 34.9626 43.1906 34.8879V34.3945C43.2349 32.1519 44.1201 29.984 45.6545 28.3096C46.3479 27.562 47.1446 26.9789 48.0593 26.5753C48.9593 26.1716 49.9478 25.9623 51.01 25.9324C50.6412 26.2314 50.3019 26.5454 49.9773 26.9042C48.1331 28.9076 47.1151 31.6585 47.1151 34.6636C47.1151 37.6687 48.1331 40.4197 49.9773 42.4231C51.0395 43.5743 52.3084 44.4265 53.7542 44.9348C54.7722 45.2936 55.8788 45.473 57.0295 45.473C58.9623 45.473 61.7507 44.9497 64.0375 42.438C64.8195 41.5858 65.4539 40.5841 65.926 39.4778H69.7029C69.0538 41.4662 68.0358 43.2902 66.6932 44.7853M41.5087 44.7853C39.0596 42.139 37.7022 38.5359 37.7022 34.6337C37.7022 30.7316 39.0596 27.0986 41.5087 24.4224C43.9873 21.7163 47.4249 20.2362 51.1576 20.2362C54.8903 20.2362 53.0165 20.3259 53.9018 20.5053C58.6229 21.4771 62.3409 24.9905 63.8457 29.8196H60.0688C59.5967 28.7132 58.9623 27.7265 58.1803 26.8593C57.1328 25.7081 55.8788 24.8709 54.4476 24.3626C53.4296 24.0038 52.3231 23.8243 51.1723 23.8243C50.0215 23.8243 48.4281 24.0935 47.2036 24.6466C46.0381 25.1699 45.0053 25.9174 44.1201 26.8743C43.8988 27.1135 43.6922 27.3527 43.5004 27.6069C42.2611 28.9973 41.4644 30.8362 41.1989 33.1087C41.1398 33.5124 41.1103 33.9161 41.1103 34.3198V34.6337V34.7384V34.7982V34.8281C41.1103 35.0822 41.1103 35.3364 41.1103 35.5756V35.6803C41.1546 37.5342 41.5677 39.3582 42.3496 41.0775C43.7512 44.1872 46.3626 46.998 49.4019 48.7771C46.3331 48.4183 43.5742 47.0279 41.4939 44.7853M65.4981 23.2861C67.5046 24.9905 68.8915 27.2331 69.5702 29.8345H65.985C64.8932 25.7829 62.4589 22.4788 59.1983 20.4305C61.5589 20.7893 63.7129 21.7611 65.4981 23.2861ZM58.1656 42.4081C58.9475 41.5559 59.5819 40.5542 60.054 39.4479H63.5949C63.2851 40.016 62.9163 40.5243 62.4884 40.9878C60.7622 42.8716 58.6672 43.3201 57.1623 43.35C57.5164 43.0809 57.8557 42.752 58.1656 42.4081ZM72.0635 37.3697H58.6229L58.3721 38.0724C57.9738 39.1937 57.3984 40.1804 56.6459 41.0027C55.8935 41.825 55.023 42.438 54.0345 42.8267C53.046 42.4231 52.1756 41.8101 51.4379 41.0027C49.9478 39.3881 49.1363 37.1305 49.1363 34.6636C49.1363 32.1968 49.9478 29.9541 51.4379 28.3245C52.1313 27.577 52.928 26.9939 53.8427 26.5902C53.9165 26.5603 54.005 26.5155 54.0788 26.4856C55.0525 26.8892 55.9083 27.4873 56.6459 28.2946C57.3984 29.1169 57.9738 30.1037 58.3721 31.225L58.6229 31.9276H72.0783C72.0783 27.8162 69.4964 23.9439 66.8407 21.6864C64.1113 19.369 60.7032 18.158 56.9853 18.158C53.2673 18.158 55.0525 18.2477 54.1083 18.4271C53.1493 18.2477 52.1608 18.1431 51.1576 18.1431C46.8495 18.1431 42.8808 19.8624 40.0038 23.0021C37.1859 26.067 35.6367 30.1934 35.6367 34.6337C35.6367 39.0741 37.1859 43.1855 40.0038 46.2056C42.866 49.2854 46.82 50.9898 51.1428 50.9898C55.4656 50.9898 53.5772 50.9898 54.6542 50.7506C55.5394 50.9151 56.4246 50.9898 57.3099 50.9898C59.1688 50.9898 61.013 50.631 62.872 49.9283C64.2883 49.3901 66.3539 48.2987 68.1981 46.1757H68.2128C70.0718 44.1125 71.8422 41.0625 72.0635 37.3697Z" fill="white"/>
</svg>
