<svg width="200" height="70" viewBox="0 0 200 70" fill="none" xmlns="http://www.w3.org/2000/svg">
<path d="M77.8388 32.8309C77.8388 29.3884 80.4563 27.2278 84.6601 27.2278C89.0424 27.2278 91.6598 29.58 91.6598 33.551V42.1934H88.3417V38.3745C87.6609 40.9909 85.506 42.59 82.5449 42.59C79.4647 42.59 77.4092 40.8523 77.4092 38.2422C77.4092 35.5333 79.6234 33.888 83.2786 33.888H88.3417V33.551C88.3417 31.3508 86.9205 29.9963 84.5939 29.9963C82.2276 29.9963 81.1503 31.0997 81.1503 32.8309H77.8388ZM88.3417 36.2138H83.4636C81.6658 36.2138 80.714 36.8349 80.714 38.0177C80.714 39.2598 81.7782 39.9537 83.6818 39.9537C86.3919 39.9537 88.3417 38.5595 88.3417 36.6301V36.2138Z" fill="white"/>
<path d="M96.8219 35.2556V42.1932H93.5039V27.624H96.8219V32.4739C97.4233 29.4675 99.1156 27.624 102.077 27.624H102.843V30.7559H101.753C97.9984 30.7559 96.8219 32.1963 96.8219 35.2556Z" fill="white"/>
<path d="M106.948 34.9056C106.948 37.8789 108.429 39.6562 110.881 39.6562C112.99 39.6562 114.1 38.3215 114.431 36.5706H117.742C117.299 40.0263 114.781 42.59 110.875 42.59C106.565 42.59 103.617 39.5307 103.617 34.9056C103.617 30.2804 106.558 27.2278 110.875 27.2278C114.788 27.2278 117.299 29.7914 117.742 33.2471H114.431C114.107 31.4961 112.996 30.1615 110.881 30.1615C108.429 30.1615 106.948 31.9322 106.948 34.9056Z" fill="white"/>
<path d="M119.175 32.8309C119.175 29.3884 121.792 27.2278 125.996 27.2278C130.378 27.2278 132.996 29.58 132.996 33.551V42.1934H129.678V38.3745C128.997 40.9909 126.842 42.59 123.881 42.59C120.801 42.59 118.745 40.8523 118.745 38.2422C118.745 35.5333 120.959 33.888 124.615 33.888H129.678V33.551C129.678 31.3508 128.257 29.9963 125.93 29.9963C123.564 29.9963 122.486 31.0997 122.486 32.8309H119.175ZM129.678 36.2138H124.8C123.002 36.2138 122.05 36.8349 122.05 38.0177C122.05 39.2598 123.114 39.9537 125.018 39.9537C127.728 39.9537 129.678 38.5595 129.678 36.6301V36.2138Z" fill="white"/>
<path d="M138.158 34.4298V42.1934H134.84V27.6242H138.158V31.9124C138.819 28.9391 140.709 27.2278 143.426 27.2278C146.652 27.2278 148.496 29.6593 148.496 33.888V42.1934H145.178V34.2184C145.178 31.516 144.094 30.1549 141.892 30.1549C139.539 30.1549 138.158 31.701 138.158 34.4298Z" fill="white"/>
<path d="M150.365 32.8309C150.365 29.3884 152.983 27.2278 157.186 27.2278C161.569 27.2278 164.186 29.58 164.186 33.551V42.1934H160.868V38.3745C160.187 40.9909 158.032 42.59 155.071 42.59C151.991 42.59 149.936 40.8523 149.936 38.2422C149.936 35.5333 152.15 33.888 155.805 33.888H160.868V33.551C160.868 31.3508 159.447 29.9963 157.12 29.9963C154.754 29.9963 153.677 31.0997 153.677 32.8309H150.365ZM160.868 36.2138H155.99C154.192 36.2138 153.24 36.8349 153.24 38.0177C153.24 39.2598 154.305 39.9537 156.208 39.9537C158.918 39.9537 160.868 38.5595 160.868 36.6301V36.2138Z" fill="white"/>
<mask id="mask0_2471_1712" style="mask-type:luminance" maskUnits="userSpaceOnUse" x="35" y="22" width="34" height="26">
<path d="M68.2179 22.25H35.8809V47.5653H68.2179V22.25Z" fill="white"/>
</mask>
<g mask="url(#mask0_2471_1712)">
<path d="M56.8858 24.2278C57.0776 24.4151 57.2569 24.6112 57.4232 24.8116L57.389 24.768C57.2312 24.5763 57.0606 24.3977 56.8858 24.2278ZM45.106 26.6892L37.5484 35.7636C35.0449 38.7696 35.4031 43.296 38.346 45.8575C39.6084 46.9597 41.2206 47.5652 42.8839 47.5652C44.9439 47.5652 46.8887 46.6459 48.2236 45.0472L51.7721 40.7909L49.2472 37.7677L45.3021 42.5031C44.6965 43.2262 43.8179 43.6445 42.8839 43.6445C42.355 43.6445 41.566 43.5094 40.8324 42.8734C40.1884 42.3113 39.796 41.5273 39.7278 40.6647C39.6596 39.8021 39.924 38.9656 40.4742 38.3078L45.2765 32.5442C45.0462 32.0258 44.8714 31.4813 44.7647 30.9236C44.7306 30.7363 44.7008 30.549 44.6752 30.3617C44.6624 30.2745 44.6539 30.1874 44.6453 30.1003C44.6453 30.0698 44.6411 30.0349 44.6368 30.0001C44.6325 29.9129 44.624 29.8214 44.624 29.73C44.6155 29.5252 44.6155 29.3205 44.624 29.1114C44.624 29.0112 44.6325 28.9066 44.6411 28.8021C44.6453 28.7193 44.6539 28.6365 44.6624 28.5537C44.6666 28.545 44.6666 28.5363 44.6666 28.5276C44.6795 28.4317 44.6922 28.3359 44.705 28.2444C44.7818 27.7086 44.9183 27.1902 45.106 26.6892ZM50.1343 26.8286C50.0917 26.8591 50.0533 26.8939 50.0149 26.9288C50.0576 26.8939 50.096 26.8591 50.1343 26.8286ZM50.0149 26.9288C50.0149 26.9288 50.0021 26.9375 49.9979 26.9418C49.9765 26.9593 49.9552 26.9767 49.9382 26.9985C49.9637 26.9723 49.9893 26.9506 50.0149 26.9288ZM54.3994 27.2381C54.4249 27.2642 54.4506 27.2947 54.4761 27.3252L54.4676 27.3121C54.4463 27.286 54.4249 27.2642 54.3994 27.2381ZM49.7036 27.2381C49.678 27.2642 49.6567 27.286 49.6354 27.3121L49.6268 27.3252C49.6524 27.2947 49.678 27.2686 49.7036 27.2381ZM54.4761 27.3252L54.54 27.4036C54.5188 27.3775 54.4973 27.3514 54.4761 27.3252ZM49.6225 27.3252C49.6012 27.3514 49.5799 27.3775 49.5586 27.4036L49.6225 27.3252ZM59.0482 29.1114C59.0482 29.1331 59.0482 29.1593 59.0482 29.1811C59.0482 29.1549 59.0482 29.1331 59.0482 29.1114ZM59.0524 29.1811C59.0609 29.3771 59.0524 29.5731 59.0524 29.7692C59.0609 29.6516 59.0652 29.5296 59.0652 29.4119C59.0652 29.3335 59.0609 29.2595 59.0567 29.1811H59.0524Z" fill="white"/>
<path d="M52.0487 22.25C51.9463 22.25 51.8397 22.2544 51.7373 22.2587C51.6392 22.2631 51.5411 22.2674 51.4387 22.2805C51.4387 22.2805 51.4345 22.2805 51.4302 22.2805C51.426 22.2805 51.4175 22.2805 51.4132 22.2805C51.3366 22.2849 51.2554 22.2979 51.1743 22.311C51.1318 22.311 51.0891 22.3153 51.0464 22.3284C50.9783 22.3284 50.9143 22.3458 50.846 22.3589C50.5303 22.4112 50.219 22.4896 49.9162 22.5898C49.8309 22.6159 49.7499 22.6464 49.6646 22.6769C49.6433 22.6856 49.622 22.6943 49.6006 22.7031C49.5239 22.7292 49.4428 22.7641 49.366 22.7946C49.2338 22.8512 49.1059 22.9122 48.9779 22.9732C48.8201 23.0516 48.6709 23.1344 48.5216 23.2258C48.432 23.2781 48.3425 23.3304 48.2572 23.3914C48.1718 23.448 48.0866 23.5047 48.0013 23.5656C47.916 23.6266 47.8349 23.692 47.7496 23.7573C47.6686 23.8227 47.5918 23.888 47.5108 23.9577C47.4042 24.0492 47.3018 24.145 47.1994 24.2453L46.9905 24.4587C45.873 25.6437 45.1992 27.1728 45.067 28.8369C44.9731 29.9958 45.1565 31.1328 45.583 32.1783C45.6427 32.3221 45.711 32.4702 45.7792 32.6096C46.0308 33.1237 46.3422 33.6029 46.7132 34.0516L49.2509 37.0924L49.5281 37.4279L52.0487 40.4556L52.0829 40.4947L52.3301 40.791L55.8787 45.0472C57.2093 46.646 59.1584 47.5653 61.2184 47.5653C62.8775 47.5653 64.4896 46.9597 65.7563 45.8575C68.6991 43.2961 69.0574 38.7696 66.5496 35.7637L58.9879 26.6892C59.6915 28.5668 59.6488 30.6797 58.8258 32.5443L63.6281 38.3078C64.1782 38.9657 64.4427 39.8022 64.3745 40.6647C64.3063 41.5273 63.9138 42.3113 63.2698 42.8735C62.5363 43.5095 61.7472 43.6446 61.2184 43.6446C60.2843 43.6446 59.4016 43.2262 58.8001 42.5032L54.8508 37.7633L54.6078 37.4671L54.5736 37.4279L52.053 34.4001L51.7715 34.069L49.639 31.5074C49.0888 30.8496 48.8244 30.0132 48.8926 29.1506C48.9012 29.0373 48.914 28.9284 48.9395 28.8195C49.0291 28.2968 49.2424 27.8132 49.5622 27.4037L49.6347 27.3122C49.6561 27.286 49.6774 27.2643 49.703 27.2381C49.7371 27.1946 49.7755 27.151 49.8181 27.1118C49.8565 27.0726 49.8949 27.0334 49.9376 26.9985C49.9546 26.9767 49.9759 26.9593 49.9973 26.9419C50.0442 26.9027 50.0911 26.8635 50.1337 26.8286C50.1977 26.7807 50.2574 26.7371 50.3214 26.6979C50.3768 26.6587 50.4323 26.6239 50.4877 26.5934C50.556 26.5498 50.6242 26.515 50.6924 26.4801C50.7351 26.4583 50.782 26.4365 50.829 26.4191C50.8716 26.4017 50.9186 26.3799 50.9653 26.3668C51.0209 26.3451 51.0764 26.3233 51.1318 26.3102C51.2085 26.2841 51.2854 26.2666 51.3578 26.2492C51.4175 26.2361 51.4772 26.2231 51.5326 26.2144C51.571 26.2057 51.6052 26.2013 51.6392 26.1969C51.7076 26.1882 51.7715 26.1839 51.8355 26.1795C51.9079 26.1752 51.9763 26.1708 52.0402 26.1708H52.0572C52.1211 26.1708 52.1895 26.1752 52.2619 26.1795C52.3259 26.1839 52.39 26.1882 52.4582 26.1969C52.4966 26.1969 52.5306 26.21 52.5648 26.2144C52.6969 26.2361 52.8335 26.2666 52.9785 26.3146C53.034 26.3276 53.0852 26.3451 53.1363 26.3668C53.1788 26.3799 53.2258 26.4017 53.2727 26.4191C53.3196 26.4409 53.3666 26.4627 53.4093 26.4801C53.4944 26.5237 53.5713 26.5672 53.6523 26.6151C53.6737 26.6282 53.6949 26.6413 53.7164 26.6544C53.8016 26.7066 53.8827 26.7633 53.9636 26.8286H53.9679C54.0405 26.8852 54.1087 26.9419 54.1726 27.0072C54.211 27.0377 54.2495 27.0769 54.2835 27.1118C54.3262 27.151 54.3646 27.1946 54.3988 27.2381C54.4243 27.2643 54.4457 27.286 54.467 27.3122L54.5394 27.4037C54.8593 27.8132 55.0725 28.2968 55.1621 28.8195C55.1878 28.9284 55.2006 29.0373 55.2091 29.1506C55.2772 30.0132 55.0128 30.8496 54.4627 31.5074L52.3301 34.069L54.8508 37.0924L57.3841 34.0516C57.7594 33.5985 58.0708 33.115 58.3182 32.6053C58.3906 32.4615 58.4548 32.3177 58.5187 32.174C58.7959 31.4944 58.9622 30.7886 59.0263 30.0742C59.0348 29.974 59.0433 29.8694 59.0476 29.7692C59.0561 29.5514 59.0603 29.3292 59.0476 29.1114V29.1027C59.0476 28.9807 59.0348 28.8587 59.0219 28.7367C59.0219 28.667 59.0091 28.5973 59.0006 28.5276C58.9751 28.3142 58.9324 28.1007 58.8897 27.8872C58.8598 27.7478 58.8258 27.6084 58.7916 27.4734C58.5272 26.515 58.0708 25.6045 57.4226 24.8116C57.2563 24.6112 57.0772 24.4152 56.8852 24.2278C56.625 23.9708 56.3436 23.7399 56.0493 23.5308C55.9811 23.4829 55.9127 23.435 55.8445 23.3914C55.7592 23.3304 55.6697 23.2781 55.5801 23.2258C55.401 23.1169 55.2218 23.0167 55.0342 22.9296C54.9404 22.886 54.8465 22.8425 54.7526 22.8033C54.659 22.7641 54.5651 22.7249 54.467 22.69C54.3731 22.6508 54.275 22.6203 54.1769 22.5898C53.8827 22.4896 53.5798 22.4155 53.2685 22.3633C53.1918 22.3458 53.1149 22.3328 53.034 22.3241C52.9998 22.3153 52.97 22.311 52.9316 22.311C52.8505 22.2979 52.7653 22.2849 52.6799 22.2805C52.6799 22.2805 52.6757 22.2805 52.6714 22.2805C52.6714 22.2805 52.6672 22.2805 52.6629 22.2805C52.5648 22.2674 52.4667 22.2631 52.3643 22.2587C52.2619 22.2544 52.1553 22.25 52.0487 22.25Z" fill="white"/>
</g>
</svg>
