<svg width="200" height="70" viewBox="0 0 200 70" fill="none" xmlns="http://www.w3.org/2000/svg">
<path d="M39.6485 44.1431H37.7928L35.5733 42.1115V41.0692L37.8717 38.8811V35.4164L40.8749 33.4626L44.2962 36.0422L39.6485 44.1431ZM31.9696 38.6733L32.3097 35.4164L31.1859 32.4989H37.8199L36.7233 35.4164L37.0363 38.6733H34.4766H31.9696ZM33.4843 42.1115L31.2648 44.1696H29.3837L24.7097 36.0422L28.1564 33.4891L31.1859 35.4164V38.8811L33.4843 41.0692V42.1115ZM29.3582 26.481H39.6222L40.8494 31.6917H28.1573L29.3582 26.481ZM34.5029 19.9954L21.4707 27.4977V42.5022L34.5029 50.0045L47.536 42.5022V27.4977L34.5029 19.9954Z" fill="white"/>
<path d="M62.5163 40.8871C59.0686 40.8871 56.5361 38.2048 56.5361 34.8957C56.5361 31.5867 59.0949 28.8265 62.5425 28.8265C64.7358 28.8265 66.0945 29.6337 67.1656 30.806L65.5203 32.5777C64.7103 31.7175 63.8486 31.1454 62.5163 31.1454C60.5834 31.1454 59.173 32.812 59.173 34.8436C59.173 36.9274 60.6105 38.5947 62.6477 38.5947C63.9004 38.5947 64.8147 37.9962 65.6501 37.1625L67.2437 38.7512C66.0945 39.9756 64.7629 40.8871 62.5163 40.8871ZM72.2841 40.8871H69.6201V28.8522H72.2841V31.6653C73.0152 29.9467 74.3475 28.7479 76.3847 28.8522V31.6653H76.2286C73.904 31.6653 72.2841 33.1762 72.2841 36.2502V40.8871ZM90.3049 28.8L84.4283 44.1175H81.7389L83.0187 40.8871L77.9775 28.8H80.8246L84.246 37.7354L87.5367 28.8H90.3049ZM98.1399 31.1189C96.3385 31.1189 94.7711 32.5777 94.7711 34.8444C94.7711 37.1112 96.3647 38.5691 98.1399 38.5691C99.9684 38.5691 101.457 37.1368 101.457 34.8436C101.457 32.5503 99.9421 31.1189 98.1399 31.1189ZM98.7412 40.8615C96.8346 40.8615 95.6328 39.897 94.8229 38.829V44.1175H92.1598V28.8H94.8237V30.9625C95.6854 29.7645 96.8864 28.8 98.7412 28.8C101.483 28.8 104.147 30.9625 104.147 34.8179C104.147 38.6734 101.509 40.8615 98.7412 40.8615ZM109.971 31.3267V37.006C109.971 38.0218 110.494 38.4383 111.408 38.4383H112.453V40.8093H110.624C108.691 40.8093 107.307 39.9491 107.307 37.4233V31.3267H105.845V29.0608H107.307V25.8826H109.971V29.0608H112.452V31.3267H109.971ZM120.836 31.1189C118.694 31.1189 117.336 32.7855 117.336 34.8179C117.336 36.876 118.798 38.5682 120.862 38.5682C123.003 38.5682 124.361 36.9017 124.361 34.8701C124.414 32.812 122.925 31.1189 120.836 31.1189ZM120.836 40.888C117.31 40.888 114.699 38.204 114.699 34.8957C114.699 31.5619 117.336 28.8265 120.888 28.8265C124.44 28.8265 127.051 31.5089 127.051 34.8436C127.051 38.1261 124.44 40.888 120.836 40.888ZM152.464 31.1189C150.322 31.1189 148.964 32.7855 148.964 34.8179C148.964 36.876 150.427 38.5682 152.49 38.5682C154.632 38.5682 155.989 36.9017 155.989 34.8701C156.016 32.812 154.553 31.1189 152.464 31.1189ZM152.464 40.888C148.938 40.888 146.326 38.204 146.326 34.8957C146.326 31.5619 148.964 28.8265 152.516 28.8265C156.068 28.8265 158.68 31.5089 158.68 34.8436C158.68 38.1261 156.042 40.888 152.464 40.888ZM174.455 28.8C176.988 28.8 178.529 30.3896 178.529 33.2292V40.8615H175.865V34.0364C175.865 32.1869 175.003 31.2232 173.514 31.2232C172.077 31.2232 171.033 32.2391 171.033 34.0877V40.8871H168.369V34.0364C168.369 32.2391 167.481 31.2232 166.018 31.2232C164.555 31.2232 163.538 32.3169 163.538 34.1142V40.8871H160.874V28.8265H163.538V30.806C164.295 29.7902 165.287 28.8265 167.063 28.8265C168.735 28.8265 169.884 29.6337 170.511 30.8582C171.477 29.608 172.705 28.8 174.455 28.8ZM129.376 38.3083L130.525 37.6567H130.681L131.858 38.3083L131.936 38.4383V39.7935L131.858 39.9235L130.682 40.575H130.525L129.376 39.9235L129.298 39.7935V38.4383L129.376 38.3083ZM140.006 40.8615C136.558 40.7828 134.077 38.0475 134.13 34.7393C134.182 31.431 136.794 28.7222 140.267 28.8C142.46 28.8522 143.819 29.6859 144.864 30.8846L143.192 32.6298C142.408 31.7697 141.547 31.1446 140.215 31.1189C138.282 31.0924 136.846 32.7085 136.819 34.7658C136.768 36.8496 138.178 38.5426 140.215 38.5691C141.469 38.5947 142.408 38.0218 143.245 37.1882L144.811 38.8025C143.636 40.0278 142.278 40.9136 140.006 40.8615Z" fill="white"/>
</svg>
