<svg width="200" height="70" viewBox="0 0 200 70" fill="none" xmlns="http://www.w3.org/2000/svg">
<path d="M113.298 31.5722C113.169 31.385 112.893 31.385 112.76 31.5722C112.291 32.2393 108.148 38.4915 106.756 40.5063C106.355 41.2244 106.467 41.3844 106.869 42.0515C107.825 43.6409 111.654 49.2158 112.77 50.8359C112.917 51.0503 113.237 51.0503 113.383 50.8359C114.428 49.2975 117.876 44.2059 119.155 42.123C119.662 41.2993 119.761 41.2415 119.223 40.4076C117.794 38.1817 114.295 33.0187 113.291 31.5756L113.298 31.5722ZM91.8084 38.9747C91.7607 39.0598 91.822 39.1687 91.9207 39.1653C92.7512 39.1551 95.6884 39.2504 97.0157 39.2436C97.4139 39.2436 97.7168 39.3389 97.7985 39.7848C97.87 40.1898 97.8972 41.2313 97.3595 41.33C96.1955 41.3402 89.2115 41.33 88.1054 41.33C86.9993 41.33 87.6596 40.8603 87.874 40.4723C88.4321 39.4785 89.1911 38.5051 89.8208 37.5521C91.3387 35.2547 92.8941 32.9778 94.4427 30.6975C94.6639 30.3708 95.5692 29.0162 95.8824 28.5499C95.9402 28.4614 96.0389 28.4103 96.1444 28.4103C96.5256 28.4103 97.271 28.4069 97.6386 28.3933C98.0061 28.3797 97.836 28.4376 97.8938 28.5227C98.7209 29.7547 104.633 38.6616 104.796 38.7569C105.014 38.8863 105.102 38.8284 105.252 38.648C105.589 38.2532 106.032 37.5044 106.351 37.0348C107.689 35.0948 108.959 33.1072 110.289 31.1638C110.803 30.4116 111.372 29.2953 111.93 28.6316C112.263 28.2368 113.478 28.1993 113.897 28.4035C114.237 28.5703 115.517 30.8438 115.84 31.3305C117.44 33.7402 121.909 40.1285 122.256 40.8433C122.457 41.2517 122.402 41.3844 122.188 41.735C121.589 42.7152 114.649 53.1366 114.159 53.8071C113.836 54.2496 112.587 54.2393 112.148 54.0113C111.783 53.8207 98.629 33.5734 97.0429 31.208C96.723 31.0583 96.4337 31.6164 96.2499 31.8751C95.0179 33.587 93.9015 35.5611 92.7478 37.3479C92.6116 37.5589 92.0466 38.5459 91.805 38.9713L91.8084 38.9747Z" fill="white"/>
<path d="M70.4006 37.365C70.4278 37.2357 70.4551 37.1302 70.4755 36.9872C70.6695 34.3155 70.3223 31.4055 70.4721 28.7066L70.7001 28.3084L82.6191 28.2539C85.0049 28.2709 86.9994 28.955 87.1764 31.6268C87.2955 33.4034 87.2955 36.1125 87.173 37.8892C87.013 40.1967 85.495 41.1633 83.31 41.3301C80.3626 41.5581 77.0272 41.4118 74.0594 41.3301C73.4229 41.3131 72.6639 41.2688 72.0581 41.245C71.585 41.228 70.5299 40.4043 70.0943 40.0776C69.6484 39.744 69.206 39.4037 68.7431 39.0634C64.1212 35.6803 59.5673 32.2122 54.8569 28.9516C54.537 28.6589 54.4894 28.3832 54.9931 28.3254C55.5989 28.2539 57.5865 28.2607 58.0936 28.499C58.3421 28.6147 58.8016 28.9584 59.0568 29.1354C62.6883 31.6165 66.1088 34.7375 69.8424 37.0621C70.016 37.171 70.3734 37.3582 70.4006 37.3684V37.365ZM74.2159 30.2926C73.896 30.313 73.1813 30.2586 73.12 30.5887C73.1234 33.046 73.1064 35.5033 73.12 37.9606C73.12 38.0491 73.1574 38.5018 73.1847 38.8319C73.2017 39.0327 73.365 39.1893 73.5658 39.1961C75.0089 39.2574 80.5498 39.4752 83.2419 39.2471C84.1371 39.1689 84.5591 38.689 84.5999 37.8211C84.6714 36.2146 84.6816 33.3319 84.5999 31.6948C84.5319 30.3368 83.5142 30.3811 82.4081 30.2688C79.7227 30.2347 76.891 30.2075 74.2159 30.2926Z" fill="white"/>
<path d="M125.837 41.2116C129.2 41.198 132.712 41.1708 135.973 41.1912C138.086 41.2048 139.43 42.2463 139.42 44.4211C139.41 46.4632 139.437 49.0907 139.417 51.1702C139.393 53.6037 137.552 54.1108 135.489 54.1278C132.647 54.1516 129.441 54.1516 126.657 54.1244C124.653 54.1074 122.944 53.6513 122.968 51.4765C122.927 48.8048 122.937 46.3713 122.985 44.0569C123.022 42.2803 124.145 41.3716 125.837 41.215V41.2116ZM126.603 43.2299C126.072 43.2367 125.697 43.3592 125.446 43.7098C125.299 43.9106 125.231 44.1624 125.231 44.4143L125.224 51.177C125.34 51.9019 126.007 52.1163 126.65 52.1163C129.618 52.1163 132.695 52.1163 135.632 52.1163C136.34 52.0619 136.735 51.8509 136.847 51.1055C136.919 48.8626 136.874 46.5006 136.851 44.2849C136.844 43.6315 136.354 43.2231 135.7 43.2094C132.641 43.1448 129.52 43.1958 126.606 43.2333L126.603 43.2299Z" fill="white"/>
<path d="M144.342 41.211C147.881 41.1565 151.911 41.211 155.526 41.1872C156.387 41.211 156.179 42.164 156.179 42.7494C156.179 43.3348 155.556 43.2122 155.178 43.2088C151.812 43.1816 148.181 43.1884 144.74 43.2088C144.114 43.2803 143.716 43.6445 143.658 44.2843C143.556 45.4177 143.695 46.1631 144.944 46.2039C147.323 46.2822 151.271 46.2686 153.746 46.3162C156.22 46.3639 155.114 46.6259 155.58 46.9084C157.01 47.7797 157.132 49.832 156.918 51.35C156.56 53.8889 154.338 54.1987 152.187 54.2021C148.916 54.2769 145.54 54.1476 142.371 54.2021C142.007 54.2089 141.558 54.1136 141.5 53.6813C141.449 53.2967 141.425 52.2383 141.902 52.1294L153.085 52.1123C153.661 52.0477 154.174 51.9592 154.287 51.2955C154.368 50.8088 154.338 49.3691 154.219 48.8926C154.113 48.4774 153.405 48.2119 153.021 48.2154C150.546 48.229 147.368 48.1745 145.295 48.2222C143.171 48.2698 141.272 47.7627 141.088 45.2645C140.911 42.8413 141.857 41.2552 144.342 41.2178V41.211Z" fill="white"/>
<path d="M45.8011 38.873C46.0053 39.0942 46.3456 39.2202 46.6451 39.2474C49.504 39.2882 52.6489 39.3052 55.5554 39.2474C56.2872 39.1691 56.5663 38.8049 56.6309 38.097C56.6956 36.3068 56.5901 34.2647 56.6309 32.5323C56.6582 32.2226 56.7773 31.8142 57.1449 32.0218C57.7541 32.4575 58.2238 32.8489 58.7547 33.2675C59.1427 33.6487 59.1733 33.7882 59.2108 34.3396C59.2924 35.5376 59.2822 37.3142 59.2108 38.519C59.0576 41.0682 57.053 41.3269 54.9326 41.4052C52.0805 41.4052 49.3032 41.3746 46.3014 41.3337C45.0149 41.2384 43.2723 40.4148 43.0783 38.9921C42.9898 35.6227 43.0408 32.2737 43 28.9825C43.0442 28.4482 43.1089 28.3018 43.6603 28.2508C43.9394 28.2235 45.1646 28.2167 45.3382 28.3188C45.3926 28.3495 45.4743 28.4516 45.4947 28.5128L45.5084 38.0289C45.5322 38.3182 45.6139 38.6552 45.8147 38.873H45.8011Z" fill="white"/>
<path d="M106.719 22.8322C106.699 22.9922 106.801 23.1283 106.9 23.2406C107.492 23.9145 108.329 24.5442 108.945 25.2283C109.561 25.9124 110.045 26.3072 109.565 26.7564C109.092 27.2023 108.619 26.8007 108.244 26.4842C107.9 26.1949 105.947 24.0779 105.777 24.0847C105.579 24.3366 105.692 24.7688 105.671 25.0921C105.617 25.9464 105.722 27.2567 105.586 27.9987C105.436 28.8326 104.408 28.8155 104.289 27.7979C104.16 26.6918 104.412 25.3508 104.286 24.2549C104.245 23.8839 104.078 24.0234 103.864 24.1868C103.074 24.7926 101.999 26.3957 101.175 26.8517C100.569 27.1853 100.025 26.736 100.263 26.0791C100.399 25.7048 100.614 25.6537 100.842 25.4053C101.58 24.6122 102.336 23.8397 103.173 23.1488L103.207 22.8254C103.084 22.6587 100.062 22.9343 99.2419 22.8254C98.3196 22.6995 98.2209 21.7261 99.2419 21.5866C99.7729 21.5151 102.952 21.6819 103.098 21.5117C103.118 21.4028 103.088 21.3517 103.033 21.2666C102.758 20.8412 101.424 19.5921 100.981 19.1463C100.791 18.9591 100.508 18.8229 100.355 18.5881C99.8614 17.8121 100.525 17.1416 101.315 17.6283C101.679 17.8529 102.465 18.8399 102.856 19.2177C103.01 19.3675 103.21 19.5036 103.381 19.667C103.629 19.8984 103.813 20.2456 104.18 20.3953C104.534 20.0278 104.289 19.4151 104.282 18.9761C104.272 18.4009 104.191 16.3588 104.493 15.981C104.834 15.5556 105.521 15.8313 105.603 16.4065C105.763 17.5194 105.474 18.9625 105.603 20.089C105.634 20.3613 105.76 20.4021 105.994 20.2626L108.755 17.5296C109.36 17.2812 110.045 17.8393 109.64 18.4145C109.01 19.3062 107.475 20.2694 106.924 21.1918C106.859 21.3007 106.815 21.3892 106.886 21.5151C106.934 21.5832 107.022 21.5729 107.097 21.5832C108.224 21.7159 109.667 21.4266 110.78 21.5832C111.62 21.7023 111.563 22.7029 110.78 22.8254C110.395 22.8833 109.473 22.9003 109.044 22.9037C108.377 22.9071 107.683 22.7778 107.019 22.7676C106.907 22.7676 106.821 22.8118 106.716 22.8322H106.719Z" fill="white"/>
</svg>
