<svg width="200" height="50" viewBox="0 0 200 50" fill="none" xmlns="http://www.w3.org/2000/svg">
<g clip-path="url(#clip0_2397_10803)">
<path d="M66.9107 7.23438C67.0598 7.23438 67.2152 7.26538 67.3767 7.32739C67.4762 7.48241 67.5694 7.66534 67.6564 7.87617C67.6843 7.93198 67.703 7.98779 67.7309 8.0529C67.8148 8.23893 67.8894 8.43426 67.9733 8.62959C68.0292 8.76911 68.0851 8.89933 68.141 9.03886C68.2622 9.3272 68.3834 9.60624 68.5045 9.89459C68.6723 10.3039 68.8494 10.7131 69.0265 11.1131C69.623 12.4897 70.2102 13.8663 70.7881 15.2429C70.8907 15.4755 70.9932 15.7173 71.0864 15.9498C71.1516 16.108 71.2169 16.2568 71.2821 16.4149C71.3132 16.4893 71.3443 16.5637 71.3753 16.6381C71.5524 17.0567 71.7388 17.4846 71.9159 17.9124C72.0185 18.1543 72.121 18.4054 72.2235 18.6472C72.2888 18.8147 72.3633 18.9821 72.4286 19.1402C72.4721 19.2394 72.5125 19.3387 72.5498 19.4379C72.587 19.5216 72.6243 19.6053 72.6523 19.689C72.848 20.0704 73.0531 20.2006 73.4539 20.3401C73.7987 20.4796 73.9292 20.5913 74.0784 20.9354C74.097 21.0005 74.1156 21.0563 74.1343 21.1214C74.4139 21.54 75.1316 21.6516 75.5883 21.7632C75.6536 21.7818 75.7188 21.7911 75.7841 21.8097C75.9984 21.8656 76.2128 21.9121 76.4272 21.9679C76.5763 22.0051 76.7254 22.0423 76.8746 22.0795C77.2661 22.1725 77.6575 22.2748 78.0583 22.3678C78.4591 22.4608 78.8599 22.5632 79.2514 22.6562C79.6988 22.7678 80.1462 22.8794 80.6029 22.9817C80.6681 23.0003 80.7427 23.0189 80.8079 23.0282C80.9944 23.0747 81.1808 23.1212 81.3579 23.1585C81.6095 23.2236 81.8519 23.2794 82.1035 23.3445C82.5602 23.4561 83.0356 23.5677 83.4644 23.3352C83.6694 23.1678 83.8279 23.0189 83.9397 22.7864C83.9863 22.312 83.8558 21.9679 83.6601 21.54C83.6321 21.4749 83.6042 21.4098 83.5669 21.3354C83.5016 21.1958 83.4364 21.047 83.3711 20.9075C83.2034 20.5261 83.0263 20.1355 82.8585 19.7541C82.8212 19.6704 82.7839 19.596 82.756 19.5123C82.3738 18.6472 82.0196 17.7822 81.6654 16.9079C81.6375 16.8335 81.6095 16.7591 81.5816 16.6846C81.4511 16.3498 81.3113 16.0149 81.1808 15.6801C81.0969 15.4662 81.0037 15.2615 80.9198 15.0476C80.8825 14.9639 80.8452 14.8802 80.8173 14.7965C80.7893 14.7313 80.7613 14.6569 80.7241 14.5918C80.6588 14.3686 80.6775 14.2477 80.7707 14.0337C80.9633 13.9593 81.1497 13.8973 81.3299 13.8477C81.6375 14.2012 81.8332 14.5546 82.0103 14.9918C82.0414 15.06 82.0693 15.1282 82.0942 15.1964C82.1874 15.4196 82.2806 15.6429 82.3738 15.8568C82.4391 16.0149 82.5043 16.1638 82.5696 16.3219C82.7839 16.8335 82.989 17.345 83.2034 17.8473C83.2407 17.9403 83.2779 18.0334 83.3152 18.1264C83.7253 19.1309 84.1448 20.1355 84.5549 21.14C84.5828 21.2144 84.6201 21.2982 84.6481 21.3726C84.676 21.447 84.704 21.5121 84.732 21.5865C84.7599 21.6516 84.7786 21.7074 84.8065 21.7725C84.8625 21.9214 84.9184 22.0702 84.965 22.219C85.052 22.2252 85.139 22.2345 85.226 22.2469C86.1487 22.3585 86.8571 22.4794 87.4536 23.2422C87.8171 23.8003 88.0781 24.4327 87.9476 25.1118C87.7146 25.9303 87.3325 26.5349 86.5868 26.9627C85.9623 27.2418 85.2726 27.3069 84.6201 27.0651C84.3032 26.8976 84.0516 26.7116 83.7906 26.4791C83.4644 26.2558 83.1941 26.2651 82.8212 26.3209C82.4018 26.4512 81.9917 26.6093 81.5816 26.7767C81.3672 26.8604 81.1435 26.9534 80.9291 27.0372C80.8359 27.0744 80.7427 27.1116 80.6402 27.1581C80.2673 27.3069 79.9877 27.3534 79.5869 27.3534C79.4937 27.3534 79.4005 27.3534 79.3073 27.3534C79.2327 27.3534 79.1675 27.3534 79.0929 27.3534C79.0929 27.1674 79.1364 27.0217 79.2234 26.9162C79.6988 26.4977 80.1648 26.2465 80.7613 26.0326C80.8359 26.0047 80.9198 25.9768 80.9944 25.9396C81.3113 25.8187 81.6375 25.6977 81.9637 25.5768C82.0476 25.5489 82.1315 25.5117 82.2154 25.4838C82.2899 25.4559 82.3645 25.428 82.4391 25.4001C82.6441 25.2978 82.7653 25.1955 82.9144 25.028C82.8709 24.904 82.8088 24.78 82.728 24.656C82.4577 24.5537 82.1967 24.47 81.9171 24.3955C81.8301 24.3707 81.7431 24.3459 81.6561 24.3211C81.3579 24.2467 81.0689 24.163 80.7707 24.0886C80.6588 24.0607 80.5563 24.0328 80.4444 24.0049C79.7267 23.8189 79.009 23.6328 78.2913 23.4561C77.9744 23.3817 77.6575 23.298 77.3499 23.2143C77.0424 23.1398 76.7348 23.0654 76.4365 22.9817C76.3247 22.9538 76.2128 22.9259 76.101 22.898C75.2807 22.681 74.4636 22.6469 73.6496 22.7957C73.3886 22.8794 73.137 22.9073 72.8573 22.9445C72.2515 23.0375 71.9625 23.2701 71.5618 23.7072C71.4685 23.8003 71.3847 23.9026 71.2915 23.9956C71.0957 24.2095 70.9 24.4141 70.7042 24.6281C70.4992 24.8513 70.2941 25.0652 70.0891 25.2699C69.8747 25.4838 69.6696 25.707 69.4739 25.9303C69.2502 26.1907 69.0172 26.4419 68.7655 26.6837C68.5232 26.9162 68.2995 27.1581 68.0851 27.4092C67.8148 27.7255 67.5259 28.0231 67.2276 28.3115C66.8827 28.6556 66.5472 29.0091 66.2303 29.3811C65.9507 29.6881 65.6524 29.9764 65.3541 30.2741C65.1025 30.5252 64.8695 30.7949 64.6364 31.0647C64.4687 31.26 64.2916 31.4367 64.1052 31.6135C63.7261 31.9855 63.3843 32.3917 63.0799 32.832C63.0799 33.1947 63.1544 33.4272 63.2663 33.7621C63.3502 34.5062 63.2476 35.1015 62.8002 35.7154C62.269 36.2549 61.747 36.5153 60.992 36.5804C60.4607 36.5339 60.0599 36.3758 59.6312 36.0689C59.2956 35.8642 59.0813 35.827 58.7084 35.9014C58.317 36.0596 57.9441 36.2549 57.5713 36.4502C57.3569 36.5618 57.1425 36.6735 56.9189 36.7851C56.8163 36.8409 56.7045 36.8967 56.5926 36.9525C56.1546 37.1757 55.7165 37.399 55.2784 37.6129C55.2038 37.6501 55.1386 37.6873 55.064 37.7245C54.7751 37.864 54.5607 37.9571 54.2438 37.9384C54.1133 37.8826 54.017 37.7927 53.9549 37.6687C54.2718 36.8688 54.9242 36.6083 55.6512 36.2549C55.7444 36.2084 55.8283 36.1619 55.9215 36.1154C56.3503 35.9014 56.779 35.6968 57.2171 35.5015C57.2917 35.4643 57.3662 35.4364 57.4315 35.3992C57.562 35.334 57.7018 35.2782 57.8323 35.2224C58.1772 35.0643 58.4195 34.9434 58.5966 34.6085C58.6339 34.4597 58.6556 34.3047 58.6618 34.1435C58.6618 34.069 58.6712 33.9853 58.6805 33.9016C58.6805 33.7063 58.6898 33.5017 58.6898 33.3063C58.6245 33.2784 58.55 33.2598 58.4847 33.2319C58.2331 33.1296 58.0094 33.0087 57.7764 32.8599C57.6925 32.8041 57.6086 32.7575 57.5154 32.7017C57.4222 32.6459 57.329 32.5901 57.2358 32.5343C57.1425 32.4785 57.0493 32.4227 56.9468 32.3576C56.4808 32.0692 56.0147 31.7809 55.5673 31.4646C54.5421 30.7577 53.7591 30.4601 52.5101 30.4415C52.0814 30.4322 51.7924 30.3392 51.4103 30.1345C51.0747 29.7811 50.9349 29.4834 50.907 28.9998C50.907 28.9315 50.9008 28.8633 50.8883 28.7951C51.0002 28.3487 51.3171 28.0324 51.6992 27.7813C51.9043 27.6604 52.1093 27.558 52.3237 27.4557C52.3983 27.4185 52.4635 27.3813 52.5381 27.3441C52.8861 27.1643 53.1315 27.0744 53.2744 27.0744C53.2993 27.0186 53.3273 26.9627 53.3583 26.9069C53.4515 26.7209 53.5634 26.5535 53.6846 26.3861C53.728 26.324 53.7715 26.262 53.815 26.2C53.8616 26.1349 53.9082 26.0698 53.9549 26.0047C54.0574 25.8652 54.1599 25.7163 54.2624 25.5768C54.3184 25.5024 54.365 25.428 54.4209 25.3536C54.7005 24.9629 54.9708 24.5723 55.2411 24.1909C55.297 24.1165 55.353 24.0328 55.4089 23.9584C55.7165 23.5212 56.0147 23.0933 56.313 22.6562C56.5087 22.3678 56.7138 22.0795 56.9189 21.7818C56.9841 21.6888 57.0493 21.5958 57.1146 21.5028C57.1705 21.4284 57.2264 21.3447 57.2824 21.2703C57.329 21.2051 57.3756 21.14 57.4222 21.0749C57.5216 20.9881 57.6521 20.9354 57.8136 20.9168C57.9752 20.8982 58.1119 20.9602 58.2238 21.1028C58.3356 21.2455 58.3511 21.385 58.2704 21.5214C58.0933 21.8749 57.8696 22.1818 57.6365 22.5073C57.534 22.6469 57.4315 22.7864 57.329 22.9352C57.273 23.0096 57.2264 23.084 57.1705 23.1585C56.9282 23.4933 56.6858 23.8282 56.4528 24.1723C56.4062 24.2374 56.3596 24.3025 56.313 24.3676C55.8656 25.0001 55.4275 25.6233 54.9988 26.2651C54.8776 26.4419 54.7564 26.6186 54.6259 26.7953C54.2407 27.341 54.0139 27.9363 53.9455 28.5812C54.076 29.1858 54.365 29.5671 54.8776 29.9206C55.1106 30.0694 55.3436 30.2089 55.5767 30.3485C55.7538 30.4508 55.9309 30.5624 56.0986 30.6647C56.1918 30.7205 56.2757 30.7763 56.3689 30.8321C56.8163 31.1019 57.2637 31.3809 57.7111 31.66C57.795 31.7065 57.8696 31.7623 57.9535 31.8088C58.028 31.8553 58.1026 31.9018 58.1865 31.9483C58.261 31.9917 58.3325 32.0351 58.4009 32.0785C58.5779 32.1902 58.7457 32.3111 58.9228 32.4227C59.0719 32.5405 59.2242 32.5746 59.3795 32.525C59.4634 32.4785 59.5473 32.432 59.6312 32.3855C60.3769 31.9762 61.0666 31.9018 61.9055 32.0878C62.0794 32.1188 62.2534 32.0816 62.4274 31.9762C62.6884 31.753 62.9028 31.5391 63.1172 31.2693C63.3129 31.0461 63.5179 30.8414 63.7323 30.6275C64.2791 30.088 64.8104 29.533 65.3262 28.9626C65.6058 28.6463 65.9134 28.358 66.2116 28.0603C66.5285 27.7441 66.8268 27.4185 67.1251 27.0744C67.3488 26.8139 67.6004 26.5814 67.8428 26.3395C68.0199 26.1628 68.1783 25.9861 68.3368 25.7908C68.663 25.4094 69.0265 25.0559 69.3807 24.7025C69.6324 24.4421 69.8747 24.1816 70.1077 23.9026C70.2568 23.7258 70.4246 23.5677 70.5831 23.4096C70.8254 23.1678 71.0584 22.9166 71.2821 22.6469C71.3381 22.5818 71.394 22.5167 71.4499 22.4422C71.5897 22.1818 71.5338 22.0516 71.4685 21.7725C69.2875 21.1865 67.0971 20.6099 64.9067 20.0425C64.7296 19.996 64.5619 19.9495 64.3848 19.9029C64.1424 19.8378 63.9001 19.782 63.6578 19.7169C63.5832 19.6983 63.5179 19.6797 63.4434 19.6611C62.9587 19.5371 62.4927 19.5526 62.0453 19.7076C61.9521 19.7727 61.8682 19.8378 61.775 19.9122C61.5513 20.0518 61.3462 20.1727 61.1039 20.275C60.8802 20.4052 60.8429 20.5075 60.7497 20.7494C60.6844 21.6144 60.7683 22.5073 60.8336 23.3724C60.8429 23.5584 60.8615 23.7444 60.8708 23.9305C60.8988 24.3862 60.9361 24.8327 60.9641 25.2885C61.0573 26.6279 61.1412 27.9766 61.1505 29.316C61.1505 29.4183 61.1505 29.5206 61.1505 29.6323C61.1505 30.1624 61.1318 30.5345 60.8336 30.981C60.4887 30.7577 60.3955 30.5252 60.2743 30.1438C60.2277 29.8834 60.1998 29.6323 60.1718 29.3718C60.1718 29.2974 60.1532 29.2137 60.1532 29.13C60.0227 27.6324 59.9574 26.1256 59.8735 24.6281C59.8549 24.2746 59.8362 23.9212 59.8176 23.5677C59.8176 23.4375 59.799 23.3073 59.799 23.1678C59.799 22.1694 59.5784 21.2455 59.1372 20.3959C58.6525 20.0332 58.1492 19.9402 57.5527 20.0146C56.9468 20.1727 56.3876 20.4889 55.8376 20.768C55.6978 20.8331 55.558 20.9075 55.4275 20.9726C55.1479 21.1121 54.8776 21.2424 54.6073 21.3819C53.8523 21.7539 53.088 22.1167 52.3237 22.4794C52.1559 22.5632 51.9882 22.6376 51.8204 22.7213C51.5687 22.8422 51.3171 22.9631 51.0561 23.084C50.9815 23.1212 50.907 23.1585 50.8324 23.1957C50.357 23.4189 49.9935 23.4933 49.4716 23.4375C49.3473 23.3135 49.2852 23.1771 49.2852 23.0282C49.4156 22.6841 49.6487 22.6097 49.9656 22.4701C50.1054 22.405 50.2359 22.3399 50.3757 22.2748C50.4502 22.2376 50.5341 22.2004 50.6087 22.1632C50.9629 21.9958 51.3171 21.8283 51.6619 21.6609C52.6779 21.1679 53.6939 20.6843 54.7098 20.1913C54.7968 20.1479 54.8838 20.1076 54.9708 20.0704C55.3716 19.875 55.7817 19.689 56.1918 19.503C56.2664 19.4658 56.341 19.4379 56.4155 19.4007C56.5553 19.3356 56.6858 19.2797 56.8256 19.2146C57.1425 19.0658 57.2824 18.9914 57.4781 18.7031C57.5154 18.4891 57.5527 18.2845 57.5806 18.0706C57.6365 17.6241 57.6956 17.3078 57.7577 17.1218C57.7577 16.787 57.7111 16.7498 57.4781 16.5172C57.3476 16.3963 57.2171 16.2847 57.0866 16.1731C57.0183 16.1111 56.9499 16.049 56.8816 15.987C56.7418 15.8661 56.6019 15.7359 56.4621 15.615C56.2012 15.3824 55.9495 15.1499 55.6885 14.9174C55.4555 14.7034 55.2225 14.4895 54.9895 14.2756C54.8217 14.1267 54.6539 13.9779 54.4955 13.8198C54.4489 13.7733 54.3929 13.7268 54.337 13.6803C54.0853 13.4477 53.843 13.2245 53.6566 12.9269C53.6566 12.7966 53.6877 12.6726 53.7498 12.5548C53.8989 12.4618 54.0574 12.3688 54.2158 12.2758C54.2531 12.313 54.2904 12.3502 54.3277 12.3781C54.9801 12.9827 55.6326 13.5966 56.2944 14.1826C56.6858 14.536 57.0773 14.8988 57.4595 15.2615C57.8074 15.6212 58.2113 15.8723 58.6712 16.0149C58.9321 16.0149 59.1279 15.9684 59.3889 15.894C60.0506 15.708 60.5539 15.7731 61.1691 16.0428C61.8775 16.4521 62.1571 17.1032 62.4181 17.8473C62.4367 17.9217 62.4554 17.9992 62.474 18.0799C62.5486 18.2535 62.6822 18.3744 62.8748 18.4426C62.9929 18.4736 63.1109 18.5077 63.229 18.5449C63.2942 18.5635 63.3595 18.5821 63.4247 18.6007C63.6484 18.6659 63.8721 18.7217 64.0958 18.7775C64.1797 18.7961 64.2543 18.824 64.3382 18.8426C64.9627 19.01 65.5965 19.1681 66.221 19.3263C66.5099 19.4007 66.8082 19.4751 67.0971 19.5495C67.2928 19.596 67.4793 19.6425 67.675 19.6983C68.2156 19.8378 68.7562 19.9774 69.2875 20.1169C69.3993 20.1448 69.5205 20.182 69.6324 20.2099C69.8374 20.2657 70.0332 20.3215 70.2382 20.368C70.7695 20.5075 71.2728 20.6006 71.8227 20.6471C71.5524 19.6332 71.1423 18.6845 70.7229 17.7264C70.5644 17.3543 70.3967 16.9916 70.2382 16.6195C70.1636 16.4335 70.0798 16.2568 70.0052 16.0707C69.7349 15.4476 69.4646 14.8244 69.2129 14.2012C68.7003 12.9455 68.1597 11.7084 67.6284 10.462C67.5352 10.2387 67.442 10.0155 67.3395 9.79227C67.2369 9.54113 67.1251 9.28999 67.0132 9.04816C66.9666 8.94584 66.9293 8.85283 66.8827 8.75051C66.8455 8.6668 66.8082 8.58308 66.7709 8.49937C66.6404 8.12731 66.6497 7.82967 66.6963 7.43901L66.8827 7.25298L66.9107 7.23438Z" fill="white"/>
<path d="M94.5655 27.4091C94.6525 27.4091 94.7395 27.4091 94.8265 27.4091C94.9197 27.4091 95.0129 27.4091 95.1061 27.4091C95.1993 27.4091 95.2925 27.4091 95.3858 27.4091C95.4696 27.4091 95.5628 27.4091 95.6467 27.4091C95.7306 27.4091 95.8052 27.4091 95.8891 27.4091C96.0134 27.4153 96.1066 27.4494 96.1687 27.5114C96.178 27.6602 96.1873 27.8091 96.1873 27.9579C96.1873 28.0509 96.1873 28.1532 96.1873 28.2462C96.1873 28.3485 96.1873 28.4602 96.1873 28.5625C96.1873 28.6741 96.1873 28.7857 96.1873 28.8973C96.1873 29.2508 96.1967 29.6042 96.206 29.9577C96.206 30.4135 96.2153 30.8785 96.2246 31.3343C96.2246 31.4459 96.2246 31.5668 96.2246 31.6785C96.2433 32.5528 96.2712 33.4271 96.3085 34.3015C96.3365 35.027 96.3551 35.7525 96.3458 36.478C96.3458 36.5803 96.3458 36.6826 96.3458 36.7943C96.3458 37.0454 96.3458 37.2872 96.3458 37.5384H96.5322C96.5322 37.464 96.5322 37.3896 96.5415 37.3151C96.5975 36.4315 96.7186 35.5758 96.8678 34.7107C96.905 34.4782 96.9423 34.255 96.9796 34.0224C97.0076 33.8736 97.0262 33.7341 97.0542 33.5853C97.0635 33.5201 97.0728 33.4457 97.0914 33.3806C97.1474 33.0644 97.2095 32.8721 97.2779 32.8039C97.427 32.8039 97.5855 32.7946 97.7346 32.8039C97.8278 32.8039 97.921 32.8039 98.0142 32.8039C98.1074 32.8039 98.2099 32.8039 98.3125 32.8039C98.4119 32.8039 98.5113 32.8039 98.6107 32.8039C98.8531 32.8039 99.0954 32.8039 99.3378 32.8039C99.5242 33.3062 99.6081 33.8085 99.6826 34.3294C99.7013 34.4224 99.7106 34.5154 99.7292 34.6084C99.7758 34.8968 99.8224 35.1944 99.8597 35.4828C99.8877 35.6781 99.925 35.8827 99.9529 36.078C100.027 36.5617 100.102 37.0547 100.177 37.5384C100.233 35.9106 100.279 34.2736 100.298 32.6458C100.298 32.5714 100.298 32.497 100.298 32.4133C100.298 31.7157 100.316 31.0088 100.316 30.3112C100.316 29.9205 100.316 29.5298 100.326 29.1392C100.326 28.9252 100.326 28.702 100.326 28.4881C100.326 28.3578 100.326 28.2276 100.326 28.0974C100.326 27.9858 100.326 27.8649 100.326 27.7533C100.338 27.5858 100.375 27.4711 100.438 27.4091C100.587 27.4091 100.736 27.3998 100.894 27.3998C100.988 27.3998 101.081 27.3998 101.174 27.3998C101.267 27.3998 101.37 27.3998 101.463 27.3998C101.562 27.3998 101.659 27.3998 101.752 27.3998C101.845 27.3998 101.938 27.3998 102.031 27.3998C102.115 27.3998 102.199 27.3998 102.292 27.3998C102.423 27.406 102.519 27.4401 102.581 27.5021C102.591 27.6695 102.6 27.8277 102.6 27.9951C102.6 28.1067 102.6 28.209 102.6 28.3206C102.6 28.4385 102.6 28.5594 102.6 28.6834C102.6 28.7485 102.6 28.8043 102.6 28.8694C102.6 29.3438 102.6 29.8182 102.609 30.2925C102.609 30.367 102.609 30.4321 102.609 30.5065C102.619 32.7667 102.516 34.9991 102.292 37.2407C102.292 37.3058 102.283 37.3709 102.274 37.4454C102.209 38.1058 102.143 38.7569 102.069 39.408C102.056 39.4948 102.047 39.5847 102.041 39.6777C102.035 39.7707 101.994 39.8668 101.92 39.9661C101.705 39.9754 101.491 39.9754 101.286 39.9754C101.224 39.9754 101.158 39.9754 101.09 39.9754C100.96 39.9754 100.82 39.9754 100.689 39.9754C100.484 39.9754 100.27 39.9754 100.065 39.9754C99.9343 39.9754 99.8038 39.9754 99.6733 39.9754C99.5521 39.9754 99.431 39.9754 99.3098 39.9754C99.1296 39.9692 99.0084 39.935 98.9463 39.873C98.8997 39.6033 98.8531 39.3429 98.8158 39.0731C98.8065 38.9894 98.7878 38.915 98.7785 38.8313C98.7505 38.6639 98.7226 38.4871 98.7039 38.3197C98.6667 38.0593 98.6294 37.7988 98.5828 37.5384C98.5548 37.3709 98.5362 37.2035 98.5082 37.0361C98.4989 36.9617 98.4802 36.878 98.4709 36.8036C98.4057 36.3292 98.3777 35.8827 98.387 35.4083H98.2006C98.2006 35.4828 98.1975 35.5572 98.1913 35.6316C98.1354 36.478 98.0328 37.3151 97.9117 38.1523C97.8837 38.3662 97.8464 38.5894 97.8185 38.8034C97.7998 38.9429 97.7812 39.0824 97.7532 39.2126C97.7439 39.2777 97.7346 39.3429 97.7253 39.408C97.6818 39.7056 97.6258 39.8885 97.5575 39.9567C97.1567 39.9754 96.7652 39.9754 96.3644 39.9754C96.1687 39.9754 95.9636 39.9754 95.7679 39.9754C95.6374 39.9754 95.5162 39.9754 95.3858 39.9754C95.2739 39.9754 95.1527 39.9754 95.0316 39.9754C94.9384 39.9661 94.8452 39.9568 94.7519 39.9381C94.5562 39.6498 94.5282 39.5196 94.491 39.1754C94.4816 39.0731 94.4723 38.9801 94.4537 38.8778C94.4444 38.7662 94.435 38.6639 94.4164 38.5429C94.4071 38.4313 94.3884 38.3104 94.3791 38.1988C94.3418 37.8174 94.3045 37.4361 94.2673 37.0547C94.2673 36.9896 94.2579 36.9245 94.2486 36.8594C94.0342 34.6456 93.9504 32.4505 93.9597 30.2274C93.9597 30.1623 93.9597 30.0879 93.9597 30.0135C93.9597 29.5577 93.9597 29.0927 93.969 28.6369C93.969 28.516 93.969 28.4044 93.969 28.2834C93.969 28.1811 93.969 28.0695 93.969 27.9672C93.969 27.8742 93.969 27.7812 93.969 27.6881C93.997 27.3068 94.1741 27.3719 94.5096 27.3719L94.5655 27.4091Z" fill="white"/>
<path d="M63.6487 5.83911C63.8537 6.13676 63.8537 6.23907 63.8351 6.58323C63.1826 6.92738 62.5115 7.21573 61.8218 7.49477C61.5981 7.58778 61.3744 7.6715 61.1507 7.76451C61.0948 7.79242 61.0295 7.81102 60.9736 7.83892C59.7339 8.3412 58.5036 8.85278 57.2733 9.36436C56.8165 9.55969 56.3505 9.74572 55.8938 9.93175C55.6235 10.0434 55.3532 10.155 55.0829 10.2666C54.9617 10.3224 54.8312 10.3689 54.7101 10.4247C54.5423 10.4991 54.3652 10.5642 54.1974 10.6387C54.1042 10.6759 54.0017 10.7224 53.9085 10.7596C53.6661 10.8805 53.5263 10.9642 53.4331 11.2246C53.4145 11.2867 53.3958 11.3518 53.3772 11.42C53.2374 11.792 53.0976 11.9688 52.7527 12.1734C52.6409 12.2106 52.5383 12.2385 52.4265 12.2757C51.6529 12.685 51.3732 13.9965 51.0563 14.7871C50.8979 15.1685 50.7487 15.5591 50.5903 15.9405C50.5623 16.0149 50.525 16.0893 50.4971 16.173C50.2361 16.8055 49.9751 17.438 49.7048 18.0705C49.6675 18.1635 49.6302 18.2565 49.5836 18.3496C49.3786 18.8332 49.1642 19.3262 48.9592 19.8099C48.8473 20.0703 48.7355 20.3308 48.6143 20.6005C48.5584 20.7307 48.5024 20.8516 48.4465 20.9819C48.1669 21.5896 48.0147 22.2221 47.9898 22.8794C48.0457 23.0158 48.1172 23.1367 48.2042 23.2421C48.6889 23.9397 48.7634 24.6652 48.7821 25.4931C48.8566 25.9023 49.0803 26.0512 49.4159 26.2837C49.4904 26.3302 49.5557 26.3767 49.6302 26.4232C50.0714 26.7023 50.3262 26.9968 50.3946 27.3069C50.3946 27.4092 50.4039 27.5208 50.4132 27.6231L50.2268 27.8091C49.8167 27.7812 49.5836 27.6045 49.2761 27.3534C48.8287 27.0092 48.4465 26.8325 47.8966 26.693C48.0178 27.3441 48.2228 27.9207 48.4931 28.5346C48.577 28.73 48.6609 28.9346 48.7448 29.1299C48.7914 29.2323 48.838 29.3346 48.8753 29.4462C49.099 29.9857 49.3227 30.5159 49.5464 31.0553C49.593 31.167 49.6396 31.2786 49.6862 31.3902C50.0683 32.3203 50.4598 33.2505 50.8419 34.1806C50.8699 34.2457 50.8979 34.3201 50.9258 34.3946C51.0097 34.5899 51.0843 34.7852 51.1682 34.9805C51.2148 35.0922 51.2614 35.2038 51.308 35.3247C51.4105 35.5758 51.513 35.8363 51.6156 36.0874C51.6808 35.5293 51.7274 34.9805 51.7554 34.4225C51.7554 34.2736 51.774 34.1155 51.774 33.9667C51.7833 33.7248 51.7927 33.4923 51.802 33.2505C51.8113 33.0179 51.8206 32.7854 51.8393 32.5529C51.8393 32.4785 51.8393 32.4071 51.8393 32.3389C51.8579 32.0041 51.9356 31.7684 52.0723 31.632C52.2587 31.6196 52.4451 31.6196 52.6315 31.632C52.7558 31.756 52.8242 31.908 52.8366 32.0878C52.8366 32.1994 52.8366 32.3203 52.8366 32.4412C52.8366 32.5064 52.8366 32.5715 52.8366 32.6366C52.8366 33.2319 52.7993 33.8365 52.7713 34.4318C52.6781 35.5293 52.731 36.6083 52.9298 37.6687C53.0882 38.143 53.2001 38.7011 53.023 39.1848C52.8645 39.408 52.6875 39.529 52.4265 39.622C52.063 39.6871 51.8486 39.6778 51.5224 39.5103C51.1309 39.036 51.019 38.5244 50.9724 37.9198C50.9165 37.278 50.8233 36.7757 50.5623 36.1897C50.5344 36.1153 50.5064 36.0502 50.4691 35.9758C50.3666 35.734 50.2641 35.5014 50.1709 35.2689C50.0963 35.1015 50.031 34.934 49.9565 34.7666C49.8073 34.4132 49.6582 34.0597 49.5091 33.6969C49.1456 32.8412 48.7914 31.9855 48.4372 31.1297C48.3253 30.86 48.2135 30.5903 48.1016 30.3112C48.0644 30.2275 48.0271 30.1438 47.9898 30.0508C47.9246 29.8834 47.85 29.7159 47.7847 29.5485C47.6263 29.1764 47.4772 28.8044 47.3373 28.4323C47.3094 28.3672 47.2907 28.3021 47.2628 28.237C47.1975 28.0696 47.1323 27.8928 47.067 27.7161C46.9987 27.5301 46.8651 27.3844 46.6662 27.2789C46.4892 27.2417 46.3027 27.2138 46.1256 27.1952C45.2775 27.065 44.8767 26.7488 44.3174 26.1163C44.0285 25.707 44.0471 25.2698 44.0471 24.7769C44.0471 24.6652 44.0471 24.5536 44.0471 24.442C44.0937 23.7258 44.392 23.2979 44.9046 22.8143C45.3986 22.4515 45.9206 22.3771 46.5264 22.3213C46.8433 22.2376 46.8806 22.1632 47.0484 21.8841C47.1696 21.6237 47.2814 21.3539 47.3839 21.0842C47.4119 21.0005 47.4492 20.9261 47.4865 20.8423C47.589 20.5819 47.7009 20.3122 47.8034 20.0517C47.9152 19.7727 48.0271 19.4936 48.1389 19.2239C48.2135 19.0379 48.2974 18.8425 48.3719 18.6565C48.8007 17.5961 49.2388 16.5451 49.6862 15.4847C49.8353 15.122 49.9938 14.7499 50.1429 14.3871C50.2547 14.1174 50.3666 13.857 50.4784 13.5872C50.5344 13.4663 50.581 13.3454 50.6369 13.2152C50.6835 13.1128 50.7301 13.0012 50.7767 12.8989C50.9538 12.3315 50.9072 11.7734 50.8792 11.1874C50.8792 10.741 50.9072 10.434 51.1868 10.0713C51.5317 9.81083 51.7833 9.78292 52.2028 9.80153C53.5543 9.82943 54.5889 9.47598 55.8099 8.92719C56.2946 8.71326 56.7886 8.50863 57.2826 8.30399C57.3665 8.26679 57.441 8.23888 57.5249 8.20168C57.6927 8.13657 57.8512 8.07146 58.0189 7.99705C59.0349 7.57848 60.0602 7.15992 61.0668 6.72275C61.1973 6.66694 61.3371 6.61113 61.4676 6.55532C61.7099 6.45301 61.9616 6.34139 62.2039 6.23907C62.3158 6.19257 62.4183 6.14606 62.5302 6.09955C62.6234 6.05615 62.7166 6.01584 62.8098 5.97863C63.1081 5.88562 63.3318 5.85771 63.6393 5.89492L63.6487 5.83911Z" fill="white"/>
<path d="M105.527 12.6104C105.614 12.6104 105.701 12.6104 105.788 12.6104C105.881 12.6104 105.974 12.6104 106.067 12.6104C106.161 12.6104 106.254 12.6104 106.356 12.6104C106.561 12.6104 106.757 12.6104 106.962 12.6104C107.27 12.6104 107.577 12.6104 107.885 12.6011C108.081 12.6011 108.276 12.6011 108.472 12.6011C108.565 12.6011 108.649 12.6011 108.743 12.6011C109.656 12.6011 110.364 12.8801 111.035 13.5126C111.725 14.2195 111.949 14.8613 111.958 15.8287C111.958 15.9031 111.958 15.9775 111.958 16.0519C111.958 16.21 111.958 16.3682 111.958 16.517C111.958 16.6751 111.958 16.8332 111.958 16.9914C111.977 18.061 111.958 18.9819 111.268 19.8562C111.222 19.912 111.175 19.9771 111.129 20.0329C111.035 20.1321 110.896 20.2438 110.709 20.3678C110.765 20.777 110.868 21.1212 111.035 21.5026C111.082 21.6142 111.129 21.7258 111.175 21.8374C111.222 21.949 111.278 22.0699 111.324 22.1816C111.517 22.628 111.663 22.9629 111.762 23.1861C111.865 23.4187 111.967 23.6605 112.079 23.893C112.135 24.014 112.182 24.1256 112.238 24.2465C112.284 24.3488 112.331 24.4604 112.387 24.5627C112.449 24.7364 112.449 24.9162 112.387 25.1022H109.964C109.563 24.2558 109.199 23.4094 108.864 22.535C108.817 22.4141 108.77 22.3025 108.724 22.1816C108.5 21.6173 108.354 21.1925 108.286 20.9073H107.354C107.354 21.0313 107.354 21.1553 107.354 21.2793C107.354 21.7351 107.354 22.1909 107.354 22.6466C107.354 22.842 107.354 23.0466 107.354 23.2419C107.354 23.5303 107.354 23.8093 107.354 24.0977C107.354 24.1907 107.354 24.2744 107.354 24.3674C107.354 24.448 107.354 24.5317 107.354 24.6185C107.354 24.693 107.354 24.7674 107.354 24.8418C107.347 24.9534 107.313 25.0402 107.251 25.1022C107.093 25.1022 106.934 25.1115 106.776 25.1115C106.683 25.1115 106.58 25.1115 106.487 25.1115C106.387 25.1115 106.285 25.1115 106.179 25.1115C106.077 25.1115 105.974 25.1115 105.872 25.1115C105.779 25.1115 105.676 25.1115 105.583 25.1115C105.49 25.1115 105.406 25.1115 105.312 25.1115C105.176 25.1053 105.076 25.0712 105.014 25.0092C105.014 24.8511 105.005 24.693 105.005 24.5348C105.005 24.4325 105.005 24.3302 105.005 24.2186C105.005 24.107 105.005 23.986 105.005 23.8744C105.005 23.7535 105.005 23.6326 105.005 23.5117C105.005 23.1861 105.005 22.8513 105.005 22.5257C105.005 22.1816 105.005 21.8374 105.005 21.4933C105.005 20.9166 105.005 20.3399 105.005 19.7632C105.005 19.0935 105.005 18.4238 105.005 17.7634C105.005 17.1867 105.005 16.6193 105.005 16.0426C105.005 15.6985 105.005 15.3543 105.005 15.0195C105.005 14.6381 105.005 14.2567 105.005 13.8754C105.005 13.7638 105.005 13.6428 105.005 13.5312C105.005 13.4289 105.005 13.3266 105.005 13.215C105.005 13.122 105.005 13.0382 105.005 12.9452C105.024 12.5825 105.191 12.6383 105.508 12.629L105.527 12.6104ZM107.363 14.8613V18.6749C108.401 18.7927 109.115 18.6687 109.507 18.3029C109.553 18.0517 109.572 17.8564 109.563 17.6053C109.563 17.5401 109.563 17.475 109.563 17.4006C109.563 17.2611 109.563 17.1216 109.563 16.9728C109.563 16.7588 109.563 16.5449 109.563 16.3217C109.563 16.1821 109.563 16.0426 109.563 15.9124C109.563 15.8504 109.563 15.7853 109.563 15.7171C109.563 15.4566 109.553 15.2706 109.395 15.0474C108.78 14.6381 108.146 14.852 107.372 14.852L107.363 14.8613Z" fill="white"/>
<path d="M73.9948 23.6048C74.3956 23.6327 74.6193 23.7071 74.8989 24.0048C75.2158 24.414 75.4302 24.8977 75.6632 25.3535C75.9335 25.8744 76.1572 26.2557 76.7257 26.4883C76.791 26.5069 76.8656 26.5255 76.9308 26.5441C77.4994 26.7208 77.8349 26.9347 78.1891 27.4184C78.3662 27.7719 78.3289 28.1532 78.2823 28.5346C78.1705 28.795 78.0493 29.0369 77.9095 29.2787C77.6858 29.967 77.9561 30.739 78.1705 31.4087C78.1984 31.4924 78.2264 31.5761 78.245 31.6599C78.301 31.8366 78.3569 32.0133 78.4128 32.19C78.4967 32.4598 78.5806 32.7202 78.6551 32.99C78.8975 34.0565 79.2703 35.0487 79.7736 35.9664C79.929 35.9664 80.0843 35.9354 80.2397 35.8734C80.4447 35.5758 80.5939 35.2595 80.7337 34.9247C80.771 34.8317 80.8176 34.7293 80.8548 34.6363C80.9014 34.534 80.948 34.4224 80.9946 34.3201C81.0413 34.2085 81.0879 34.0968 81.1345 33.9852C81.442 33.2597 81.7496 32.5342 82.0479 31.8087C82.0852 31.725 82.1225 31.6413 82.1597 31.5482C82.3368 31.1204 82.5139 30.6925 82.691 30.2646C82.7283 30.1809 82.7563 30.1065 82.7936 30.0228C82.8588 29.874 82.9147 29.7252 82.98 29.567C83.2596 28.888 83.5206 28.3765 84.0612 27.8742C84.1544 27.9021 84.2476 27.9393 84.3408 27.9672C84.434 28.795 84.173 29.4182 83.8375 30.1623C83.7816 30.2832 83.7349 30.4042 83.679 30.5251C83.5765 30.7669 83.474 31.0088 83.3621 31.2506C83.1477 31.7343 82.952 32.2272 82.747 32.7109C82.6724 32.8877 82.5978 33.0644 82.5233 33.2504C82.0665 34.3387 81.6191 35.4362 81.1624 36.5245C81.209 36.571 81.2556 36.6082 81.2929 36.6547C81.3488 36.7105 81.4141 36.7664 81.47 36.8315C81.5259 36.8873 81.5819 36.9431 81.6471 36.9989C82.1411 37.5384 82.2436 38.1523 82.225 38.8685C82.1411 39.501 81.7962 39.994 81.3488 40.4404C80.7989 40.8404 80.2583 41.0357 79.5779 40.9985C78.9534 40.8962 78.5247 40.5892 78.0493 40.1893C77.7324 40.0219 77.4994 40.0777 77.1545 40.1614C76.8376 40.273 76.53 40.4032 76.2224 40.5334C76.1292 40.5706 76.0453 40.6079 75.9521 40.6451C75.7564 40.7288 75.57 40.8032 75.3742 40.8869C74.9734 41.0543 74.5726 41.2217 74.1625 41.3985C73.855 41.5287 73.5567 41.6496 73.2491 41.7798C73.1559 41.817 73.0534 41.8636 72.9508 41.9008C72.7644 41.9752 72.5873 42.0589 72.4009 42.1333C71.9349 42.3286 71.4782 42.524 71.0121 42.71C70.8723 42.7658 70.7418 42.8216 70.602 42.8774C69.8936 43.1751 69.3344 43.4169 68.5608 43.2309C68.5297 43.0758 68.4986 42.9208 68.4676 42.7658C68.8124 42.5519 69.1573 42.3844 69.5208 42.217C69.5767 42.1922 69.6327 42.1674 69.6886 42.1426C69.875 42.0682 70.0521 41.9845 70.2385 41.9101C70.3006 41.8853 70.3628 41.8573 70.4249 41.8263C71.2358 41.4729 72.0467 41.138 72.867 40.8125C73.5753 40.5334 74.2837 40.2451 74.9921 39.9475C75.048 39.9195 75.1039 39.9009 75.1692 39.873C75.542 39.7242 75.9148 39.5661 76.2783 39.408C76.3622 39.3708 76.4554 39.3336 76.5393 39.2964C76.6139 39.2684 76.6885 39.2312 76.7723 39.194C76.8376 39.1661 76.9028 39.1382 76.9681 39.1103C77.0799 39.0607 77.1762 38.9646 77.257 38.822C77.285 38.6732 77.313 38.515 77.3502 38.3662C77.4714 37.7988 77.6392 37.343 78.0213 36.8966C78.0773 36.8315 78.1239 36.7757 78.1798 36.7105C78.2295 36.6547 78.2792 36.602 78.3289 36.5524C78.6272 35.9013 78.2171 35.0363 78.012 34.4038C77.9468 34.1899 77.8815 33.9759 77.807 33.762C77.7697 33.6504 77.7324 33.5388 77.7044 33.4271C77.5926 33.0551 77.4807 32.683 77.3689 32.311C77.3502 32.2459 77.3316 32.1807 77.313 32.1156C77.2135 31.7808 77.139 31.5327 77.0893 31.3715C77.0427 31.1948 76.9867 31.0274 76.9401 30.8506C76.9091 30.7514 76.8811 30.6522 76.8562 30.553C76.6791 30.0693 76.4927 29.7624 76.0174 29.5205C75.281 29.2415 74.6752 29.3717 73.9761 29.6694C73.8922 29.7066 73.799 29.7345 73.7151 29.7717C73.4262 29.8833 73.1466 30.0042 72.8576 30.1158C72.6619 30.1995 72.4568 30.2739 72.2611 30.3577C71.9442 30.4786 71.6366 30.6088 71.3197 30.7297C70.2105 31.1762 69.092 31.6041 67.9736 32.0226C67.4609 32.2179 66.9483 32.4133 66.4263 32.6179C66.3331 32.6551 66.2492 32.683 66.156 32.7202C66.0721 32.7481 65.9882 32.7853 65.9044 32.8132C65.836 32.838 65.7645 32.8659 65.69 32.897C65.5408 32.9528 65.3917 33.0179 65.2426 33.083C64.9723 33.1853 64.7579 33.1853 64.4783 33.176C64.3851 33.176 64.2919 33.176 64.1987 33.176C64.1334 33.176 64.0588 33.176 63.9936 33.176C63.9439 33.0706 63.9128 32.9466 63.9004 32.8039C64.2732 32.3389 64.6927 32.1807 65.2333 31.9761C65.3171 31.9482 65.4104 31.911 65.4942 31.8738C65.7739 31.7715 66.0628 31.6599 66.3424 31.5575C66.5382 31.4831 66.7339 31.4087 66.9296 31.3343C67.2372 31.2227 67.5355 31.1111 67.8431 30.9902C69.2878 30.4507 70.7232 29.8833 72.1679 29.3252C72.4196 29.2229 72.6712 29.1299 72.9229 29.0276C73.2211 28.9159 73.5101 28.795 73.799 28.6834C73.8829 28.6555 73.9575 28.6183 74.0414 28.5904C74.526 28.3951 74.9268 28.1718 75.1785 27.6788C75.3463 26.7673 74.9455 26.1255 74.5354 25.3535C74.3769 25.0558 74.2371 24.7489 74.1066 24.4326C74.0631 24.3272 74.0165 24.2218 73.9668 24.1164C73.9171 24.011 73.9171 23.8311 73.9668 23.5769L73.9948 23.6048Z" fill="white"/>
<path d="M152.829 13.0757C153.575 13.6059 154.06 14.2849 154.339 15.1406C154.349 15.3731 154.358 15.6057 154.358 15.8382C154.358 15.9126 154.358 15.9777 154.358 16.0521C154.358 16.2847 154.358 16.5265 154.358 16.7591C154.358 16.8428 154.358 16.9172 154.358 17.0009C154.358 17.4288 154.358 17.8566 154.358 18.2845C154.358 18.7217 154.358 19.1681 154.358 19.6053C154.358 19.9494 154.358 20.2843 154.358 20.6285C154.358 20.7866 154.358 20.954 154.358 21.1121C154.367 22.4422 154.218 23.3166 153.267 24.3025C152.354 25.1304 151.422 25.3443 150.22 25.3071C149.241 25.2513 148.477 24.8513 147.796 24.163C146.901 23.1212 146.817 22.1167 146.827 20.8052C146.827 20.6471 146.827 20.4982 146.827 20.3401C146.827 20.0146 146.827 19.689 146.827 19.3728C146.827 18.9635 146.827 18.5449 146.827 18.1357C146.827 17.8194 146.827 17.4939 146.827 17.1776C146.827 17.0288 146.827 16.8707 146.827 16.7218C146.827 15.6522 146.864 14.6197 147.656 13.8105C147.731 13.7361 147.805 13.6617 147.88 13.578C147.948 13.5097 148.017 13.4415 148.085 13.3733C148.132 13.3268 148.188 13.271 148.234 13.2245C149.502 12.0618 151.441 12.2292 152.811 13.0664L152.829 13.0757ZM149.306 15.3266C149.204 15.6429 149.204 15.894 149.194 16.2289C149.194 16.294 149.194 16.3591 149.194 16.4149C149.194 16.6195 149.194 16.8335 149.194 17.0381C149.194 17.1869 149.194 17.3264 149.194 17.4753C149.194 17.7822 149.194 18.0799 149.194 18.3868C149.194 18.7775 149.194 19.1588 149.194 19.5495C149.194 19.8471 149.194 20.1448 149.194 20.4424C149.194 20.5819 149.194 20.7308 149.194 20.8703C149.194 21.0749 149.194 21.2703 149.194 21.4749C149.194 21.5865 149.194 21.6981 149.194 21.819C149.241 22.2655 149.409 22.498 149.744 22.7957C150.201 23.1212 150.63 23.1119 151.18 23.0561C151.552 22.8701 151.804 22.6655 152.018 22.312C152.121 21.9865 152.121 21.6795 152.13 21.3447C152.13 21.2237 152.13 21.1028 152.13 20.9819C152.13 20.8517 152.13 20.7215 152.13 20.5913C152.13 20.4517 152.13 20.3215 152.13 20.182C152.13 19.8936 152.13 19.6146 152.13 19.3263C152.13 18.9635 152.13 18.6007 152.13 18.238C152.13 17.9589 152.13 17.6799 152.13 17.4009C152.13 17.2706 152.13 17.1311 152.13 17.0009C152.149 16.356 152.046 15.7421 151.823 15.1592C151.385 14.7499 151.03 14.6662 150.453 14.6755C149.959 14.722 149.614 14.9825 149.306 15.3452V15.3266Z" fill="white"/>
<path d="M126.666 27.4091C126.759 27.4091 126.862 27.4091 126.955 27.4091C127.055 27.4091 127.157 27.4091 127.263 27.4091C127.365 27.4091 127.468 27.4091 127.57 27.4091C127.664 27.4091 127.766 27.4091 127.859 27.4091C127.946 27.4091 128.036 27.4091 128.13 27.4091C128.223 27.4091 128.322 27.4432 128.428 27.5115C128.437 27.6696 128.446 27.8277 128.446 27.9858C128.446 28.0881 128.446 28.1905 128.446 28.2928C128.446 28.4044 128.446 28.516 128.446 28.6276C128.446 28.7392 128.446 28.8509 128.446 28.9625C128.446 29.3159 128.456 29.6787 128.465 30.0321C128.465 30.274 128.465 30.5158 128.474 30.7577C128.484 31.353 128.493 31.9482 128.502 32.5342C129.024 31.7095 129.546 30.8848 130.068 30.06C130.152 29.9205 130.245 29.7903 130.329 29.6508C130.562 29.288 130.777 28.9253 130.954 28.5346C131.233 27.9579 131.504 27.5859 131.765 27.4184C132.529 27.2324 133.321 27.3254 134.095 27.4184C134.095 27.7161 134.058 27.7905 133.899 28.0416C133.862 28.1067 133.815 28.1719 133.778 28.2463C133.734 28.3207 133.688 28.3951 133.638 28.4695C133.592 28.5439 133.545 28.6183 133.498 28.702C133.181 29.2136 132.846 29.7159 132.51 30.2182C132.147 30.7577 131.793 31.3064 131.448 31.8552C131.392 31.942 131.336 32.032 131.28 32.125C131.131 32.3544 130.985 32.5869 130.842 32.8226C130.786 32.9063 130.739 32.9807 130.683 33.0644C130.584 33.207 130.562 33.3559 130.618 33.5109C130.767 33.7899 130.926 34.0597 131.084 34.3294C131.122 34.3852 131.159 34.4503 131.196 34.5061C131.699 35.334 132.203 36.1525 132.715 36.971C133.032 37.4919 133.359 38.0128 133.675 38.5337C133.713 38.5988 133.759 38.6639 133.797 38.7383C133.871 38.8592 133.946 38.9801 134.011 39.0918C134.095 39.2313 134.188 39.3708 134.281 39.5103C134.319 39.5754 134.356 39.6498 134.384 39.715C134.356 39.808 134.319 39.901 134.291 39.994C133.908 40.0033 133.526 40.0126 133.153 40.0219C133.048 40.0219 132.939 40.025 132.827 40.0312C132.725 40.0312 132.622 40.0312 132.51 40.0312C132.417 40.0312 132.321 40.0312 132.221 40.0312C132.054 39.994 131.901 39.9072 131.765 39.7708C131.597 39.5196 131.448 39.2685 131.299 39.0173C131.243 38.9181 131.187 38.822 131.131 38.729C131.075 38.6236 131.016 38.5213 130.954 38.422C130.861 38.2639 130.767 38.0965 130.674 37.9384C130.609 37.8268 130.544 37.7151 130.488 37.6035C130.152 37.0268 129.817 36.4501 129.481 35.8735C129.379 35.6967 129.267 35.5107 129.164 35.334C129.118 35.2596 129.08 35.1851 129.034 35.1107C128.857 34.8131 128.689 34.5154 128.521 34.2178C128.521 34.2922 128.521 34.3573 128.521 34.4317C128.521 35.1014 128.502 35.7618 128.493 36.4315C128.493 36.7757 128.484 37.1198 128.474 37.464C128.474 37.7989 128.474 38.1244 128.456 38.4593C128.456 38.5895 128.456 38.7104 128.456 38.8406C128.456 39.0173 128.456 39.1941 128.456 39.3708C128.456 39.4731 128.456 39.5754 128.456 39.6777C128.443 39.8266 128.406 39.932 128.344 39.994C128.186 39.994 128.027 40.0033 127.869 40.0033C127.775 40.0033 127.673 40.0033 127.58 40.0033C127.48 40.0033 127.378 40.0033 127.272 40.0033C127.17 40.0033 127.067 40.0033 126.964 40.0033C126.871 40.0033 126.769 40.0033 126.676 40.0033C126.582 40.0033 126.498 40.0033 126.405 40.0033C126.269 39.9971 126.169 39.963 126.107 39.901C126.107 39.7429 126.098 39.5847 126.098 39.4173C126.098 39.315 126.098 39.2127 126.098 39.1011C126.098 38.9894 126.098 38.8685 126.098 38.7476C126.098 38.6267 126.098 38.5058 126.098 38.3848C126.098 38.05 126.098 37.7244 126.098 37.3896C126.098 37.0454 126.098 36.7013 126.098 36.3478C126.098 35.7618 126.098 35.1851 126.098 34.5992C126.098 33.9295 126.098 33.2504 126.098 32.5807C126.098 32.0041 126.098 31.4274 126.098 30.8507C126.098 30.5065 126.098 30.1624 126.098 29.8182C126.098 29.4369 126.098 29.0462 126.098 28.6648C126.098 28.547 126.098 28.4292 126.098 28.3114C126.098 28.2091 126.098 28.1067 126.098 27.9951C126.098 27.9021 126.098 27.8091 126.098 27.7161C126.116 27.3254 126.34 27.4091 126.676 27.4091H126.666Z" fill="white"/>
<path d="M106.179 27.4091C106.244 27.4091 106.3 27.4091 106.365 27.4091C106.571 27.4091 106.776 27.4091 106.981 27.4091C107.12 27.4091 107.26 27.4091 107.409 27.4091C107.708 27.4091 108.006 27.4091 108.304 27.4091C108.686 27.4091 109.069 27.4091 109.451 27.4091C109.74 27.4091 110.038 27.4091 110.327 27.4091C110.467 27.4091 110.606 27.4091 110.746 27.4091C110.942 27.4091 111.138 27.4091 111.333 27.4091C111.445 27.4091 111.557 27.4091 111.669 27.4091C111.837 27.4153 111.952 27.4494 112.014 27.5114C112.014 27.6695 112.023 27.8276 112.023 27.9857C112.023 28.0788 112.023 28.1811 112.023 28.2741C112.023 28.3764 112.023 28.4787 112.023 28.581C112.023 28.6834 112.023 28.7857 112.023 28.888C112.023 28.981 112.023 29.0833 112.023 29.1763C112.023 29.2693 112.023 29.3531 112.023 29.4461C112.017 29.5825 111.983 29.6817 111.921 29.7437C111.79 29.7437 111.66 29.753 111.529 29.753C111.445 29.753 111.361 29.753 111.278 29.753C111.184 29.753 111.1 29.753 111.007 29.753C110.914 29.753 110.821 29.753 110.728 29.753C110.439 29.753 110.14 29.753 109.851 29.753C109.656 29.753 109.46 29.753 109.264 29.753C108.78 29.753 108.295 29.753 107.81 29.753V32.3574C108.081 32.3574 108.351 32.3574 108.621 32.3574C108.882 32.3574 109.134 32.3574 109.395 32.3574C109.572 32.3574 109.758 32.3574 109.935 32.3574C110.196 32.3574 110.448 32.3574 110.709 32.3574C110.79 32.3574 110.871 32.3574 110.951 32.3574C111.147 32.3574 111.333 32.3574 111.529 32.3667C111.688 32.5249 111.632 32.7016 111.632 32.9155C111.632 33.0085 111.632 33.1015 111.632 33.1946C111.632 33.2876 111.632 33.3899 111.632 33.4829C111.632 33.5759 111.632 33.6782 111.632 33.7712C111.632 33.8643 111.632 33.9573 111.632 34.0503C111.632 34.134 111.632 34.2177 111.632 34.3107C111.626 34.4409 111.591 34.5371 111.529 34.5991C111.25 34.5991 110.979 34.6084 110.709 34.5991C110.628 34.5991 110.544 34.5991 110.457 34.5991C110.196 34.5991 109.926 34.5991 109.665 34.5991C109.488 34.5991 109.311 34.5991 109.124 34.5991C108.686 34.5991 108.248 34.5991 107.801 34.5991V37.6686C108.099 37.6686 108.407 37.6686 108.714 37.6686C109.003 37.6686 109.292 37.6686 109.59 37.6686C109.796 37.6686 110.001 37.6686 110.196 37.6686C110.485 37.6686 110.774 37.6686 111.072 37.6686C111.166 37.6686 111.259 37.6686 111.352 37.6686C111.445 37.6686 111.529 37.6686 111.604 37.6686C111.678 37.6686 111.753 37.6686 111.827 37.6686C111.939 37.6748 112.026 37.7089 112.088 37.7709C112.088 37.929 112.098 38.0871 112.098 38.2452C112.098 38.3383 112.098 38.4406 112.098 38.5336C112.098 38.6359 112.098 38.7382 112.098 38.8405C112.098 38.9428 112.098 39.0452 112.098 39.1475C112.098 39.2405 112.098 39.3428 112.098 39.4358C112.098 39.5288 112.098 39.6126 112.098 39.7056C112.092 39.842 112.057 39.9412 111.995 40.0032C111.799 40.0032 111.594 40.0125 111.399 40.0125C111.337 40.0125 111.274 40.0125 111.212 40.0125C111.007 40.0125 110.793 40.0125 110.588 40.0125C110.448 40.0125 110.299 40.0125 110.159 40.0125C109.861 40.0125 109.553 40.0125 109.255 40.0125C108.863 40.0125 108.481 40.0125 108.09 40.0125C107.792 40.0125 107.493 40.0125 107.195 40.0125C107.055 40.0125 106.906 40.0125 106.766 40.0125C106.571 40.0125 106.365 40.0125 106.17 40.0125C106.058 40.0125 105.943 40.0125 105.825 40.0125C105.657 40.0063 105.542 39.9722 105.48 39.9102C105.48 39.7521 105.471 39.594 105.471 39.4265C105.471 39.3242 105.471 39.2219 105.471 39.1103C105.471 38.9987 105.471 38.8777 105.471 38.7568C105.471 38.6359 105.471 38.515 105.471 38.3941C105.471 38.0592 105.471 37.7337 105.471 37.3988C105.471 37.0547 105.471 36.7105 105.471 36.357C105.471 35.7711 105.471 35.1944 105.471 34.6084C105.471 33.9387 105.471 33.2597 105.471 32.59C105.471 32.0133 105.471 31.4366 105.471 30.8599C105.471 30.5157 105.471 30.1716 105.471 29.8274C105.471 29.4461 105.471 29.0554 105.471 28.6741C105.471 28.5562 105.471 28.4384 105.471 28.3206C105.471 28.2183 105.471 28.116 105.471 28.0043C105.471 27.9113 105.471 27.8183 105.471 27.7253C105.499 27.2974 105.806 27.4184 106.17 27.4184L106.179 27.4091Z" fill="white"/>
<path d="M116.702 27.4091C116.768 27.4091 116.824 27.4091 116.889 27.4091C117.094 27.4091 117.29 27.4091 117.495 27.4091C117.635 27.4091 117.774 27.4091 117.914 27.4091C118.203 27.4091 118.501 27.4091 118.79 27.4091C119.163 27.4091 119.545 27.4091 119.918 27.4091C120.207 27.4091 120.496 27.4091 120.785 27.4091C120.925 27.4091 121.065 27.4091 121.204 27.4091C121.4 27.4091 121.596 27.4091 121.782 27.4091C121.894 27.4091 122.006 27.4091 122.118 27.4091C122.23 27.4091 122.345 27.4432 122.463 27.5114C122.463 27.6695 122.472 27.8276 122.472 27.9857C122.472 28.0788 122.472 28.1811 122.472 28.2741C122.472 28.3764 122.472 28.4787 122.472 28.581C122.472 28.6834 122.472 28.7857 122.472 28.888C122.472 28.981 122.472 29.0833 122.472 29.1763C122.472 29.2693 122.472 29.3531 122.472 29.4461C122.466 29.5825 122.432 29.6817 122.369 29.7437C122.239 29.7437 122.108 29.753 121.978 29.753C121.894 29.753 121.81 29.753 121.726 29.753C121.633 29.753 121.549 29.753 121.456 29.753C121.363 29.753 121.27 29.753 121.176 29.753C120.887 29.753 120.589 29.753 120.3 29.753C120.105 29.753 119.909 29.753 119.713 29.753C119.228 29.753 118.744 29.753 118.259 29.753V32.3574C118.529 32.3574 118.8 32.3574 119.07 32.3574C119.331 32.3574 119.583 32.3574 119.844 32.3574C120.021 32.3574 120.207 32.3574 120.384 32.3574C120.645 32.3574 120.897 32.3574 121.158 32.3574C121.239 32.3574 121.319 32.3574 121.4 32.3574C121.596 32.3574 121.782 32.3574 121.978 32.3667C122.136 32.5249 122.081 32.7016 122.081 32.9155C122.081 33.0085 122.081 33.1015 122.081 33.1946C122.081 33.2876 122.081 33.3899 122.081 33.4829C122.081 33.5759 122.081 33.6782 122.081 33.7712C122.081 33.8643 122.081 33.9573 122.081 34.0503C122.081 34.134 122.081 34.2177 122.081 34.3107C122.074 34.4409 122.04 34.5371 121.978 34.5991C121.698 34.5991 121.428 34.6084 121.158 34.5991C121.077 34.5991 120.993 34.5991 120.906 34.5991C120.645 34.5991 120.375 34.5991 120.114 34.5991C119.937 34.5991 119.76 34.5991 119.573 34.5991C119.135 34.5991 118.697 34.5991 118.25 34.5991V37.6686C118.548 37.6686 118.856 37.6686 119.163 37.6686C119.452 37.6686 119.741 37.6686 120.039 37.6686C120.244 37.6686 120.449 37.6686 120.645 37.6686C120.934 37.6686 121.223 37.6686 121.521 37.6686C121.614 37.6686 121.708 37.6686 121.801 37.6686C121.888 37.6686 121.972 37.6686 122.053 37.6686C122.127 37.6686 122.202 37.6686 122.276 37.6686C122.388 37.6748 122.475 37.7089 122.537 37.7709C122.537 37.929 122.547 38.0871 122.547 38.2452C122.547 38.3383 122.547 38.4406 122.547 38.5336C122.547 38.6359 122.547 38.7382 122.547 38.8405C122.547 38.9428 122.547 39.0452 122.547 39.1475C122.547 39.2405 122.547 39.3428 122.547 39.4358C122.547 39.5288 122.547 39.6126 122.547 39.7056C122.54 39.842 122.506 39.9412 122.444 40.0032C122.248 40.0032 122.053 40.0125 121.857 40.0125C121.795 40.0125 121.733 40.0125 121.67 40.0125C121.465 40.0125 121.26 40.0125 121.055 40.0125C120.915 40.0125 120.776 40.0125 120.626 40.0125C120.328 40.0125 120.03 40.0125 119.732 40.0125C119.35 40.0125 118.967 40.0125 118.585 40.0125C118.296 40.0125 117.998 40.0125 117.709 40.0125C117.569 40.0125 117.429 40.0125 117.29 40.0125C117.094 40.0125 116.898 40.0125 116.702 40.0125C116.591 40.0125 116.479 40.0125 116.367 40.0125C116.199 40.0063 116.084 39.9722 116.022 39.9102C116.022 39.7521 116.013 39.594 116.013 39.4265C116.013 39.3242 116.013 39.2219 116.013 39.1103C116.013 38.9987 116.013 38.8777 116.013 38.7568C116.013 38.6359 116.013 38.515 116.013 38.3941C116.013 38.0592 116.013 37.7337 116.013 37.3988C116.013 37.0547 116.013 36.7105 116.013 36.357C116.013 35.7711 116.013 35.1944 116.013 34.6084C116.013 33.9387 116.013 33.2597 116.013 32.59C116.013 32.0133 116.013 31.4366 116.013 30.8599C116.013 30.5157 116.013 30.1716 116.013 29.8274C116.013 29.4461 116.013 29.0554 116.013 28.6741C116.013 28.5562 116.013 28.4384 116.013 28.3206C116.013 28.2183 116.013 28.116 116.013 28.0043C116.013 27.9113 116.013 27.8183 116.013 27.7253C116.041 27.2974 116.339 27.4184 116.702 27.4184V27.4091Z" fill="white"/>
<path d="M126.871 12.6104C126.958 12.6104 127.045 12.6104 127.132 12.6104C127.225 12.6104 127.318 12.6104 127.411 12.6104C127.504 12.6104 127.598 12.6104 127.7 12.6104C127.905 12.6104 128.101 12.6104 128.306 12.6104C128.614 12.6104 128.921 12.6104 129.229 12.6011C129.424 12.6011 129.62 12.6011 129.816 12.6011C129.909 12.6011 129.993 12.6011 130.086 12.6011C131.084 12.6011 131.801 12.9452 132.519 13.6242C133.097 14.2846 133.302 14.9915 133.302 15.8566C133.302 15.931 133.302 16.0147 133.302 16.0891C133.302 16.2565 133.302 16.424 133.302 16.5821C133.302 16.7495 133.302 16.9169 133.302 17.0844C133.321 18.2688 133.184 19.1152 132.892 19.6237C132.836 19.726 132.789 19.819 132.733 19.9213C132.258 20.498 131.671 20.9445 130.934 21.1119C130.543 21.1398 130.161 21.1398 129.769 21.1305C129.664 21.1305 129.558 21.1305 129.452 21.1305C129.201 21.1305 128.949 21.1305 128.697 21.1212C128.697 21.239 128.697 21.3568 128.697 21.4747C128.697 21.9118 128.697 22.349 128.697 22.7769C128.697 22.9629 128.697 23.1582 128.697 23.3442C128.697 23.614 128.697 23.8837 128.697 24.1535C128.697 24.2372 128.697 24.3209 128.697 24.4139C128.697 24.6185 128.697 24.8139 128.688 25.0185C128.53 25.1766 128.334 25.1208 128.12 25.1208C128.026 25.1208 127.924 25.1208 127.831 25.1208C127.731 25.1208 127.629 25.1208 127.523 25.1208C127.421 25.1208 127.318 25.1208 127.215 25.1208C127.122 25.1208 127.02 25.1208 126.927 25.1208C126.833 25.1208 126.749 25.1208 126.656 25.1208C126.52 25.1146 126.42 25.0805 126.358 25.0185C126.358 24.8604 126.349 24.7023 126.349 24.5441C126.349 24.4418 126.349 24.3395 126.349 24.2279C126.349 24.1163 126.349 23.9953 126.349 23.8837C126.349 23.7628 126.349 23.6419 126.349 23.521C126.349 23.1954 126.349 22.8606 126.349 22.535C126.349 22.1909 126.349 21.8467 126.349 21.5026C126.349 20.9259 126.349 20.3492 126.349 19.7725C126.349 19.1028 126.349 18.4331 126.349 17.7727C126.349 17.196 126.349 16.6286 126.349 16.0519C126.349 15.7078 126.349 15.3636 126.349 15.0288C126.349 14.6474 126.349 14.266 126.349 13.8847C126.349 13.7731 126.349 13.6521 126.349 13.5405C126.349 13.4382 126.349 13.3359 126.349 13.2243C126.349 13.1313 126.349 13.0475 126.349 12.9545C126.367 12.5918 126.535 12.6476 126.852 12.6383L126.871 12.6104ZM128.707 14.8613V18.8609C129.782 18.9788 130.496 18.8858 130.851 18.5819C131.056 18.0796 130.962 17.4378 130.962 16.9169C130.962 16.7991 130.962 16.6782 130.962 16.5542C130.962 16.4426 130.962 16.3217 130.962 16.21C130.962 16.1077 130.962 16.0054 130.962 15.8938C130.934 15.5961 130.897 15.4008 130.757 15.1404C130.353 14.8613 129.67 14.7683 128.707 14.8613Z" fill="white"/>
<path d="M100.111 12.9826C100.987 13.6802 101.519 14.4708 101.677 15.6056C101.69 15.8226 101.69 16.0087 101.677 16.1637C101.615 16.2257 101.516 16.2598 101.379 16.266C101.286 16.266 101.202 16.266 101.109 16.266C101.015 16.266 100.913 16.266 100.82 16.266C100.717 16.266 100.615 16.266 100.512 16.266C100.413 16.266 100.31 16.266 100.205 16.266C99.9528 16.266 99.7012 16.266 99.4495 16.266C99.4029 16.1451 99.3563 16.0335 99.319 15.9126C99.2911 15.8474 99.2724 15.7823 99.2445 15.7172C99.201 15.587 99.1544 15.4165 99.1047 15.2056C99.0549 14.9948 98.9369 14.8708 98.7505 14.8336C98.1446 14.722 97.6693 14.6941 97.1287 15.0568C96.8397 15.4289 96.8117 15.7172 96.8117 16.1823C96.8117 16.2443 96.8117 16.3094 96.8117 16.3776C96.8117 16.5916 96.8117 16.8055 96.8117 17.0101C96.8117 17.159 96.8117 17.3078 96.8117 17.4566C96.8117 17.7635 96.8117 18.0798 96.8117 18.3867C96.8117 18.7867 96.8117 19.1774 96.8117 19.5773C96.8117 19.8843 96.8117 20.1912 96.8117 20.4982C96.8117 20.647 96.8117 20.7865 96.8117 20.9353C96.8117 21.14 96.8117 21.3446 96.8117 21.5492C96.8117 21.6702 96.8117 21.7818 96.8117 21.9027C96.8677 22.284 96.9982 22.4794 97.2312 22.777C97.6227 23.0468 98.0794 23.0096 98.5361 22.9631C98.8996 22.8421 99.0487 22.7584 99.2631 22.4422C99.3843 22.0887 99.4216 21.7632 99.4495 21.3818C99.4619 21.2516 99.4992 21.1555 99.5614 21.0935C99.7198 21.0935 99.8783 21.0842 100.037 21.0842C100.13 21.0842 100.232 21.0842 100.326 21.0842C100.425 21.0842 100.528 21.0842 100.633 21.0842C100.736 21.0842 100.838 21.0842 100.941 21.0842C101.034 21.0842 101.13 21.0842 101.23 21.0842C101.317 21.0842 101.407 21.0842 101.5 21.0842C101.637 21.0904 101.736 21.1245 101.798 21.1865C101.882 22.0422 101.78 22.9165 101.258 23.6235C101.155 23.7444 101.062 23.856 100.959 23.9769C100.913 24.0327 100.866 24.0885 100.82 24.1443C100.232 24.8047 99.375 25.2419 98.4895 25.2977C97.343 25.3256 96.4203 25.1396 95.5534 24.349C94.8357 23.6514 94.3697 22.9258 94.3324 21.9027C94.3324 21.7911 94.3324 21.6702 94.3324 21.5492C94.3324 21.4841 94.3324 21.419 94.3324 21.3539C94.3324 21.14 94.3324 20.9353 94.3324 20.7214C94.3324 20.647 94.3324 20.5726 94.3324 20.4982C94.3324 20.1168 94.3324 19.7355 94.3324 19.3541C94.3324 18.9634 94.3324 18.5635 94.3324 18.1728C94.3324 17.8659 94.3324 17.5682 94.3324 17.2613C94.3324 17.1124 94.3324 16.9729 94.3324 16.8241C94.3231 15.5312 94.4722 14.508 95.395 13.5314C96.7558 12.2478 98.5361 12.0618 100.167 12.9733L100.111 12.9826Z" fill="white"/>
<path d="M65.9695 3.96021C66.0503 3.96021 66.1311 3.96021 66.2118 3.96021C66.6126 4.01601 66.8457 4.18344 67.1066 4.49039C67.1626 4.5741 67.2278 4.64851 67.2837 4.73223C67.6845 5.26241 68.076 5.57866 68.6912 5.8298C68.803 5.8763 68.9149 5.92281 69.036 5.96932C69.1572 6.01583 69.2784 6.07163 69.4089 6.11814C69.5394 6.17395 69.6698 6.22046 69.791 6.27627C70.1266 6.41579 70.4714 6.55531 70.8163 6.69483C71.1518 6.83435 71.4874 6.97387 71.8229 7.1134C72.289 7.30873 72.755 7.49476 73.2117 7.68078C73.7896 7.92262 74.3768 8.15516 74.9547 8.397C75.0759 8.4435 75.1971 8.49931 75.3275 8.54582C75.5512 8.63883 75.7843 8.73185 76.008 8.82486C76.6418 9.0853 77.2756 9.33644 77.9187 9.55968C77.9684 9.51007 78.015 9.46356 78.0585 9.42015C78.5898 8.90858 79.0931 8.65744 79.8295 8.62023C80.5658 8.65744 81.0784 8.96438 81.5724 9.49457C81.9826 10.0154 82.1317 10.5363 82.1037 11.1967C82.0012 11.9501 81.6284 12.4152 81.0598 12.8896C80.5938 13.1965 80.2116 13.1965 79.671 13.1686C79.3168 13.1965 79.0372 13.2617 78.7483 13.4663C78.5152 13.7453 78.3288 14.0523 78.1517 14.3592C78.0399 14.5453 77.9187 14.7313 77.8069 14.9173C77.7509 15.0103 77.6857 15.1126 77.6298 15.215C77.3315 15.7079 77.0146 16.1916 76.6977 16.6846C76.6325 16.7776 76.5765 16.8799 76.5113 16.9729C75.9054 17.9217 75.2809 18.8611 74.6471 19.7913C74.3768 19.689 74.1997 19.6238 73.9947 19.4192C73.9947 18.8518 74.3302 18.4426 74.6378 17.9961C74.7497 17.8287 74.8615 17.6612 74.9734 17.4938C75.0293 17.4101 75.0852 17.3264 75.1411 17.2427C75.3648 16.9078 75.5792 16.573 75.7936 16.2474C75.8309 16.1823 75.8775 16.1265 75.9148 16.0614C76.0546 15.8475 76.1851 15.6428 76.3249 15.4289C76.3901 15.3359 76.446 15.2336 76.5113 15.1405C76.6791 14.8801 76.8468 14.6104 77.0239 14.3499C77.1264 14.1918 77.2197 14.043 77.3222 13.8848C77.3874 13.7918 77.4434 13.6895 77.5086 13.5965C77.5645 13.5128 77.6204 13.4291 77.6764 13.3361C77.723 13.2617 77.7696 13.1872 77.8162 13.1035C77.8535 13.0384 77.8908 12.9826 77.9374 12.9175C78.0306 12.6664 77.984 12.5361 77.9187 12.285C77.8939 12.1982 77.869 12.1114 77.8441 12.0246C77.8162 11.9315 77.7882 11.8478 77.7603 11.7548C77.7323 11.6618 77.7137 11.5781 77.6857 11.4851C77.5676 11.0696 77.3626 10.71 77.0705 10.4061C76.7909 10.2573 76.502 10.1364 76.213 10.0154C76.1198 9.97824 76.0266 9.93793 75.9334 9.89453C75.5978 9.75501 75.2623 9.61548 74.9268 9.47596C74.7869 9.42015 74.6471 9.35504 74.5073 9.29924C73.3795 8.82486 72.2424 8.35979 71.1052 7.89472C70.9468 7.82961 70.7883 7.7645 70.6299 7.69939C69.9308 7.41104 69.2411 7.1227 68.542 6.84365C68.4395 6.79715 68.3277 6.75994 68.2251 6.71343C68.1319 6.67623 68.0387 6.63902 67.9455 6.60182C67.8616 6.56461 67.7777 6.5274 67.6845 6.4995C67.1998 6.31347 66.7059 6.35998 66.2398 6.56461C65.5687 6.88086 65.2705 7.95983 64.9815 8.59233C64.9256 8.70394 64.879 8.82486 64.8231 8.93648C64.4409 9.76431 64.0588 10.5921 63.6859 11.4293C63.2572 12.378 62.8191 13.3361 62.3717 14.2755C62.3344 14.3592 62.2971 14.4336 62.2599 14.5173C62.2226 14.5918 62.1946 14.6569 62.1573 14.7313C62.1263 14.7933 62.0983 14.8553 62.0734 14.9173C62.0486 14.9793 61.9585 15.0909 61.8031 15.2522C61.6416 15.2274 61.4862 15.1964 61.3371 15.1591C61.2812 14.4615 61.393 13.9872 61.7006 13.364C61.7752 13.1965 61.8591 13.0384 61.9336 12.871C61.9709 12.7873 62.0175 12.7036 62.0548 12.6199C62.2505 12.2106 62.4369 11.8013 62.6234 11.3828C62.6979 11.2153 62.7725 11.0479 62.8471 10.8898C62.8843 10.8092 62.9216 10.7255 62.9589 10.6386C63.0335 10.4712 63.108 10.3038 63.1826 10.1364C63.5648 9.29924 63.9469 8.46211 64.3197 7.61567C64.3446 7.55366 64.3726 7.49165 64.4036 7.42964C64.6926 6.76924 64.7392 6.24836 64.6273 5.53215C64.5714 5.08568 64.6553 4.75083 64.879 4.36017C65.2052 4.04392 65.5314 3.96951 65.9882 3.96951L65.9695 3.96021Z" fill="white"/>
<path d="M114.82 12.629H117.243C117.691 13.4754 118.073 14.3312 118.446 15.2148C118.492 15.3264 118.539 15.4287 118.585 15.5404C118.632 15.6427 118.669 15.745 118.716 15.8473C118.753 15.9403 118.79 16.0333 118.837 16.1263C118.893 16.2752 118.921 16.4116 118.921 16.5356H119.107C119.145 16.424 119.173 16.3217 119.21 16.2101C119.406 15.6148 119.667 15.0381 119.918 14.4614C120.002 14.2661 120.086 14.08 120.17 13.8847C120.226 13.7638 120.272 13.6429 120.328 13.5219C120.375 13.4103 120.422 13.2987 120.477 13.1871C120.564 13.0011 120.67 12.815 120.794 12.629C120.956 12.6104 121.139 12.6011 121.344 12.6011C121.456 12.6011 121.559 12.6011 121.671 12.6011C121.782 12.6011 121.894 12.6011 122.015 12.6011C122.127 12.6011 122.242 12.6011 122.36 12.6011C122.64 12.6011 122.929 12.6011 123.208 12.6104C123.24 12.6724 123.271 12.7344 123.302 12.7964C123.218 13.0104 123.125 13.215 123.022 13.4289C122.991 13.4909 122.96 13.556 122.929 13.6243C122.826 13.8289 122.733 14.0428 122.631 14.2475C122.565 14.387 122.491 14.5358 122.426 14.6753C122.22 15.1032 122.015 15.5311 121.81 15.9589C121.754 16.0798 121.689 16.2008 121.633 16.3217C121.36 16.8922 121.164 17.2983 121.046 17.5402C121.009 17.6239 120.962 17.7169 120.916 17.8006C120.878 17.875 120.841 17.9494 120.804 18.0238C120.766 18.1076 120.72 18.1913 120.683 18.2843C120.655 18.3401 120.617 18.3959 120.589 18.4517C120.244 19.1121 120.254 19.7539 120.254 20.4794C120.254 20.6096 120.254 20.7399 120.254 20.8701C120.254 21.2049 120.254 21.5491 120.254 21.8839C120.254 22.4327 120.254 22.9722 120.244 23.521C120.244 23.707 120.244 23.9024 120.244 24.0884C120.244 24.2 120.244 24.3209 120.244 24.4325C120.244 24.5349 120.244 24.6372 120.244 24.7395C120.238 24.8945 120.204 25.003 120.142 25.065C119.974 25.065 119.816 25.0743 119.648 25.0743C119.545 25.0743 119.443 25.0743 119.34 25.0743C119.238 25.0743 119.126 25.0743 119.023 25.0743C118.918 25.0743 118.812 25.0743 118.707 25.0743C118.604 25.0743 118.501 25.0743 118.399 25.0743C118.306 25.0743 118.213 25.0743 118.119 25.0743C117.976 25.0681 117.874 25.034 117.812 24.972C117.812 24.8046 117.812 24.6465 117.812 24.479C117.924 21.2421 117.896 18.6377 116.171 15.7822C115.836 15.2241 115.565 14.6288 115.295 14.0428C115.221 13.8754 115.137 13.708 115.062 13.5405C115.016 13.4475 114.969 13.3452 114.922 13.2429C114.885 13.1592 114.838 13.0755 114.801 12.9825C114.773 12.9173 114.755 12.8522 114.727 12.7778L114.82 12.5918V12.629Z" fill="white"/>
<path d="M146.743 27.4089C146.845 27.4089 146.948 27.4089 147.05 27.4089C147.162 27.4089 147.271 27.4089 147.377 27.4089C147.482 27.4089 147.597 27.4089 147.721 27.4089C147.846 27.4089 147.961 27.4089 148.066 27.4089C148.355 27.4089 148.635 27.4089 148.924 27.4089C149.409 28.4042 149.837 29.4087 150.266 30.4226C150.313 30.5249 150.35 30.6272 150.397 30.7296C150.434 30.8226 150.471 30.9156 150.508 31.0086C150.558 31.145 150.62 31.2473 150.695 31.3155C150.732 31.2318 150.76 31.1574 150.797 31.0737C150.928 30.7761 151.058 30.4784 151.189 30.1808C151.245 30.0505 151.301 29.9203 151.357 29.7994C152.003 28.305 152.373 27.5113 152.466 27.4182C152.643 27.4182 152.811 27.4089 152.988 27.4182C153.09 27.4182 153.193 27.4182 153.305 27.4182C153.416 27.4182 153.528 27.4182 153.64 27.4182C153.752 27.4182 153.864 27.4182 153.976 27.4182C154.246 27.4182 154.526 27.4182 154.796 27.4182C154.898 27.6787 154.889 27.781 154.796 28.0414C154.746 28.1345 154.696 28.2306 154.647 28.3298C154.591 28.4414 154.544 28.5437 154.488 28.6553C154.46 28.7111 154.432 28.7669 154.404 28.8321C154.283 29.0739 154.162 29.3157 154.041 29.5576C153.976 29.6785 153.92 29.8087 153.855 29.9296C153.547 30.5435 153.258 31.1667 152.978 31.7899C152.932 31.8829 152.894 31.9759 152.848 32.0783C152.764 32.255 152.68 32.4317 152.606 32.6177C152.512 32.8038 152.419 32.9991 152.326 33.1851C151.916 33.9758 151.832 34.6176 151.841 35.5012C151.841 35.6314 151.841 35.7523 151.841 35.8826C151.841 36.2174 151.841 36.543 151.841 36.8778C151.841 37.2871 151.841 37.687 151.841 38.0963C151.841 38.4125 151.841 38.7288 151.841 39.0357C151.841 39.1474 151.841 39.259 151.841 39.3706C151.841 39.4729 151.841 39.5659 151.841 39.6682C151.835 39.8171 151.801 39.9225 151.739 39.9845C151.58 39.9845 151.422 39.9938 151.263 39.9938C151.17 39.9938 151.068 39.9938 150.974 39.9938C150.875 39.9938 150.772 39.9938 150.667 39.9938C150.564 39.9938 150.462 39.9938 150.359 39.9938C150.266 39.9938 150.163 39.9938 150.07 39.9938C149.977 39.9938 149.893 39.9938 149.8 39.9938C149.663 39.9876 149.564 39.9535 149.502 39.8915C149.502 39.7241 149.502 39.5566 149.502 39.3892C149.502 39.2776 149.502 39.1753 149.502 39.0637C149.502 38.9458 149.505 38.828 149.511 38.7102C149.561 36.0872 149.092 33.582 148.104 31.1946C147.777 30.6644 147.535 30.0878 147.274 29.5204C147.19 29.3343 147.097 29.1483 147.013 28.9623C146.799 28.4879 146.603 28.0042 146.407 27.5206C146.469 27.4585 146.578 27.4244 146.733 27.4182L146.743 27.4089Z" fill="white"/>
<path d="M136.919 12.6198C136.987 12.6198 137.055 12.6198 137.124 12.6198C137.192 12.6198 137.264 12.6198 137.338 12.6198C137.571 12.6198 137.804 12.6198 138.047 12.6198C138.205 12.6198 138.373 12.6198 138.531 12.6198C138.876 12.6198 139.212 12.6198 139.556 12.6198C139.995 12.6198 140.433 12.6198 140.871 12.6198C141.206 12.6198 141.542 12.6198 141.877 12.6198C142.036 12.6198 142.204 12.6198 142.362 12.6198C142.586 12.6198 142.809 12.6198 143.042 12.6198C143.108 12.6198 143.173 12.6198 143.247 12.6198C143.552 12.6198 143.741 12.6539 143.816 12.7221C143.816 12.8709 143.825 13.0197 143.825 13.1779C143.825 13.2709 143.825 13.3639 143.825 13.4569C143.825 13.5499 143.825 13.6522 143.825 13.7452C143.825 13.8383 143.825 13.9406 143.825 14.0336C143.825 14.1266 143.825 14.2196 143.825 14.3126C143.825 14.3963 143.825 14.4801 143.825 14.5731C143.819 14.7033 143.785 14.7994 143.723 14.8614C143.546 14.8614 143.359 14.8707 143.182 14.8614C143.07 14.8614 142.968 14.8614 142.856 14.8614C142.744 14.8614 142.623 14.8614 142.511 14.8614C142.393 14.8614 142.278 14.8614 142.166 14.8614C141.877 14.8614 141.598 14.8614 141.309 14.8614C141.309 14.9172 141.309 14.9637 141.309 15.0195C141.309 16.2845 141.309 17.5588 141.309 18.8238C141.309 19.4377 141.309 20.0516 141.309 20.6655C141.309 21.2608 141.309 21.8468 141.309 22.4421C141.309 22.6653 141.309 22.8979 141.309 23.1211C141.309 23.4374 141.309 23.7536 141.309 24.0698C141.309 24.1629 141.309 24.2559 141.309 24.3582C141.309 24.4419 141.309 24.5256 141.309 24.6186C141.309 24.693 141.309 24.7675 141.309 24.8419C141.303 24.9535 141.268 25.0403 141.206 25.1023C141.038 25.1023 140.88 25.1116 140.712 25.1116C140.61 25.1116 140.507 25.1116 140.405 25.1116C140.302 25.1116 140.19 25.1116 140.088 25.1116C139.982 25.1116 139.876 25.1116 139.771 25.1116C139.668 25.1116 139.566 25.1116 139.463 25.1116C139.37 25.1116 139.277 25.1116 139.184 25.1116C139.041 25.1054 138.938 25.0713 138.876 25.0093C138.876 24.8791 138.867 24.7489 138.867 24.6093C138.867 24.5256 138.867 24.4419 138.867 24.3489C138.867 24.2559 138.867 24.1629 138.867 24.0605C138.867 23.9582 138.867 23.8652 138.867 23.7629C138.867 23.4374 138.867 23.1025 138.867 22.7769C138.867 22.5537 138.867 22.3212 138.867 22.0979C138.867 21.5027 138.867 20.8981 138.867 20.3028C138.867 19.6889 138.867 19.0843 138.867 18.4704C138.867 17.2705 138.867 16.0706 138.867 14.8707C138.792 14.8707 138.718 14.8707 138.643 14.8707C138.317 14.8707 137.991 14.8707 137.655 14.8707C137.543 14.8707 137.422 14.8707 137.31 14.8707C137.198 14.8707 137.096 14.8707 136.984 14.8707C136.885 14.8707 136.782 14.8707 136.676 14.8707C136.521 14.8645 136.412 14.8304 136.35 14.7684C136.35 14.6196 136.341 14.4708 136.341 14.3126C136.341 14.2196 136.341 14.1266 136.341 14.0336C136.341 13.9406 136.341 13.8383 136.341 13.7452C136.341 13.646 136.341 13.5499 136.341 13.4569C136.341 13.3639 136.341 13.2709 136.341 13.1779C136.341 13.0941 136.341 13.0104 136.341 12.9174C136.369 12.5361 136.583 12.6198 136.919 12.6105V12.6198Z" fill="white"/>
<path d="M74.834 30.116C75.1043 30.2183 75.2814 30.2834 75.4864 30.488C75.4771 30.9717 75.1695 31.3252 74.9085 31.7065C74.806 31.8553 74.7035 32.0042 74.6009 32.1623C74.545 32.2367 74.4984 32.3204 74.4425 32.3948C74.1815 32.7762 73.9298 33.1575 73.6689 33.5482C73.5663 33.7063 73.4545 33.8644 73.352 34.0226C72.3453 35.5294 71.3387 37.0455 70.3414 38.5617C69.8846 39.2593 69.4279 39.9476 68.9712 40.6359C68.8873 40.7661 68.7941 40.8963 68.7102 41.0266C68.6729 41.0824 68.6357 41.1382 68.5984 41.2033L68.4865 41.3707C68.412 41.4823 68.3374 41.6033 68.2535 41.7149C68.2162 41.7707 68.1789 41.8265 68.1417 41.8823C68.0391 42.0311 67.9273 42.1799 67.8248 42.3381C67.5917 42.7194 67.6104 43.0078 67.6663 43.4356C67.6943 43.5101 67.7315 43.5845 67.7595 43.6682C67.9459 44.1239 67.9086 44.5797 67.7409 45.0448C67.5545 45.3238 67.3494 45.5378 67.1071 45.7703C67.0418 45.8354 66.9859 45.8912 66.9206 45.9563C66.3148 46.1145 65.681 46.1145 65.0751 45.9563C64.4972 45.6029 64.2269 45.2494 64.0685 44.589C64.0498 44.5053 64.0312 44.4216 64.0219 44.3286C63.9194 44.0309 63.8355 43.9844 63.5745 43.817C63.3135 43.6961 63.0432 43.5845 62.7729 43.4821C62.6921 43.4511 62.6113 43.417 62.5306 43.3798C62.3535 43.3054 62.1857 43.2403 62.0086 43.1659C61.6358 43.0171 61.2723 42.8683 60.8994 42.7194C60.713 42.645 60.5173 42.5613 60.3309 42.4869C59.3522 42.0869 58.3735 41.687 57.4042 41.287C57.1711 41.194 56.9474 41.101 56.7144 40.9987C56.5746 40.9429 56.4255 40.8777 56.2857 40.8219C55.9222 40.6731 55.5586 40.5243 55.1951 40.3755C55.1206 40.3476 55.046 40.3197 54.9714 40.2824C54.8316 40.2266 54.6918 40.1708 54.552 40.115C54.2351 39.9848 54.0425 39.8856 53.9741 39.8174C53.9058 39.7492 53.9058 39.5941 53.9741 39.3523C54.1232 39.2035 54.2631 39.2221 54.4681 39.2035C55.3536 39.2128 56.1645 39.65 56.9661 39.9941C57.1432 40.0685 57.3296 40.1429 57.5067 40.2173C57.8795 40.3755 58.2523 40.5336 58.6252 40.6917C59.1751 40.9242 59.725 41.1568 60.2749 41.38C60.3588 41.4172 60.452 41.4544 60.5359 41.4916C60.7037 41.566 60.8808 41.6312 61.0486 41.7056C61.44 41.8637 61.8408 42.0311 62.2323 42.1892C62.2975 42.2171 62.3628 42.2451 62.4374 42.273C62.8475 42.4404 63.2483 42.6171 63.6491 42.8124C63.966 42.9334 64.2549 42.9613 64.5905 42.9799C64.4134 42.2637 64.1244 41.6219 63.7795 40.9708C63.6584 40.7382 63.5465 40.515 63.4347 40.2824C63.3508 40.115 63.2576 39.9383 63.1737 39.7709C62.95 39.3244 62.7263 38.8779 62.5026 38.4222C62.4653 38.3477 62.428 38.2826 62.3908 38.2082C62.2354 37.8858 62.1702 37.6439 62.195 37.4827C62.2696 37.2781 62.3721 37.1758 62.5399 37.0269C62.8848 37.1107 62.9873 37.1851 63.183 37.492C63.2389 37.6129 63.2949 37.7339 63.3508 37.8548C63.416 37.9943 63.4813 38.1245 63.5465 38.264C63.5776 38.3322 63.6118 38.4036 63.6491 38.478C63.8168 38.8407 64.0032 39.2035 64.1803 39.5662C64.2549 39.7151 64.3295 39.8546 64.3947 40.0034C64.432 40.0778 64.4693 40.1522 64.5066 40.2266C64.5811 40.3755 64.6557 40.5243 64.7303 40.6731C64.8421 40.8963 64.9446 41.1196 65.0565 41.3335C65.0938 41.3986 65.1217 41.4637 65.159 41.5381C65.3082 41.8451 65.448 42.0962 65.7089 42.3195C66.0725 42.4404 66.3707 42.4218 66.7342 42.3195C66.7964 42.2078 66.8585 42.0838 66.9206 41.9474C67.0232 41.7893 67.1257 41.6312 67.2282 41.473C67.2935 41.3707 67.3587 41.2777 67.4333 41.1754C67.4706 41.1196 67.5078 41.0638 67.5451 41.008C67.7688 40.6731 67.9925 40.3476 68.2162 40.0127C68.2628 39.9383 68.3188 39.8639 68.3654 39.7895C69.605 37.9385 70.8354 36.0782 72.0657 34.2179C73.2774 32.3762 74.0666 31.2042 74.4332 30.702C74.4705 30.6461 74.5171 30.5903 74.5543 30.5345C74.6475 30.4043 74.7408 30.2741 74.8433 30.1439L74.834 30.116Z" fill="white"/>
<path d="M137.833 27.409C137.926 27.409 138.019 27.409 138.112 27.409C138.206 27.409 138.308 27.409 138.401 27.409C138.501 27.409 138.597 27.409 138.69 27.409C138.783 27.409 138.877 27.409 138.97 27.409C139.054 27.409 139.138 27.409 139.231 27.409C139.361 27.4152 139.458 27.4493 139.52 27.5113C139.52 27.6415 139.529 27.7717 139.529 27.9112C139.529 27.995 139.529 28.0787 139.529 28.1717C139.529 28.2647 139.529 28.3577 139.529 28.46C139.529 28.5623 139.529 28.6554 139.529 28.7577C139.529 29.0832 139.529 29.4181 139.529 29.7436C139.529 29.9669 139.529 30.1994 139.529 30.4226C139.529 31.0179 139.529 31.6225 139.529 32.2178C139.529 32.8317 139.529 33.4363 139.529 34.0502C139.529 35.2501 139.529 36.45 139.529 37.6499C139.585 37.6499 139.641 37.6499 139.706 37.6499C140.312 37.6499 140.909 37.6499 141.514 37.6499C141.738 37.6499 141.962 37.6499 142.195 37.6499C142.521 37.6499 142.838 37.6499 143.164 37.6499C143.267 37.6499 143.369 37.6499 143.472 37.6499C143.565 37.6499 143.658 37.6499 143.751 37.6499C143.845 37.6499 143.928 37.6499 144.003 37.6499C144.078 37.6499 144.171 37.684 144.283 37.7522C144.283 37.9103 144.292 38.0684 144.292 38.2265C144.292 38.3196 144.292 38.4219 144.292 38.5149C144.292 38.6172 144.292 38.7195 144.292 38.8218C144.292 38.9242 144.292 39.0265 144.292 39.1288C144.292 39.2218 144.292 39.3241 144.292 39.4171C144.292 39.5101 144.292 39.5939 144.292 39.6869C144.286 39.8233 144.252 39.9225 144.189 39.9845C143.975 39.9845 143.77 39.9938 143.556 39.9938C143.487 39.9938 143.419 39.9938 143.351 39.9938C143.127 39.9938 142.912 39.9938 142.689 39.9938C142.54 39.9938 142.381 39.9938 142.232 39.9938C141.915 39.9938 141.589 39.9938 141.272 39.9938C140.862 39.9938 140.452 39.9938 140.042 39.9938C139.725 39.9938 139.417 39.9938 139.1 39.9938C138.951 39.9938 138.802 39.9938 138.644 39.9938C138.429 39.9938 138.224 39.9938 138.01 39.9938C137.892 39.9938 137.771 39.9938 137.646 39.9938C137.466 39.9876 137.345 39.9535 137.283 39.8915C137.283 39.7334 137.273 39.5753 137.273 39.4078C137.273 39.3055 137.273 39.2032 137.273 39.0916C137.273 38.98 137.273 38.859 137.273 38.7381C137.273 38.6172 137.273 38.4963 137.273 38.3754C137.273 38.0405 137.273 37.715 137.273 37.3801C137.273 37.036 137.273 36.6918 137.273 36.3384C137.273 35.7524 137.273 35.1757 137.273 34.5897C137.273 33.92 137.273 33.241 137.273 32.5713C137.273 31.9946 137.273 31.4179 137.273 30.8412C137.273 30.497 137.273 30.1529 137.273 29.8087C137.273 29.4274 137.273 29.0367 137.273 28.6554C137.273 28.5375 137.273 28.4197 137.273 28.3019C137.273 28.1996 137.273 28.0973 137.273 27.9857C137.273 27.8926 137.273 27.7996 137.273 27.7066C137.292 27.3253 137.497 27.3997 137.833 27.3997V27.409Z" fill="white"/>
<path d="M46.4986 22.3957V22.5817C46.424 22.5817 46.3588 22.591 46.2842 22.6003C45.5386 22.684 45.1471 22.87 44.6344 23.4188C44.5785 23.4653 44.5319 23.5118 44.476 23.5676C44.3082 23.7537 44.2896 23.9211 44.2616 24.1629L44.0752 24.0699C44.215 23.456 44.5878 23.0003 45.0912 22.6375C45.5572 22.3771 45.9673 22.3491 46.4986 22.3957Z" fill="white"/>
<path d="M54.5241 39.2124C55.0181 39.2124 55.3723 39.3148 55.8197 39.5101V39.6031C55.7172 39.5938 55.6147 39.5752 55.5028 39.5659C55.0461 39.5101 54.5987 39.4636 54.142 39.4171C54.1699 39.5101 54.2072 39.6031 54.2352 39.6961C54.3284 39.724 54.4216 39.7612 54.5148 39.7891V39.9752C54.2103 39.9193 54.0239 39.8573 53.9556 39.7891C53.8872 39.7209 53.8872 39.5659 53.9556 39.3241C54.114 39.1659 54.3097 39.2124 54.5241 39.2124Z" fill="white"/>
<path d="M79.2143 26.9534L79.3075 27.1394C79.7642 27.1115 80.2303 27.0743 80.7056 27.0464C80.3235 27.2975 80.0718 27.3347 79.6151 27.3347C79.5219 27.3347 79.4287 27.3347 79.3355 27.3347C79.2671 27.3347 79.1957 27.3347 79.1211 27.3347C79.1211 27.1487 79.1522 27.0247 79.2143 26.9627V26.9534Z" fill="white"/>
<path d="M63.6489 5.83903C63.8539 6.13667 63.8539 6.23899 63.8353 6.58314H63.5557V6.11807H62.7168C63.0244 5.83903 63.2388 5.78322 63.6489 5.83903Z" fill="white"/>
<path d="M68.6815 42.5798L68.8679 42.6728C68.8027 42.7938 68.7468 42.9147 68.6815 43.0449C69.0171 43.0728 69.3619 43.11 69.7068 43.1379C69.3899 43.3426 69.3433 43.3426 68.9891 43.2867C68.9145 43.2743 68.84 43.265 68.7654 43.2588C68.6909 43.2526 68.6318 43.2433 68.5883 43.2309C68.551 43.0821 68.52 42.9271 68.4951 42.7659L68.6815 42.5798Z" fill="white"/>
<path d="M61.4111 14.0244H61.5043V15.0476C61.6255 15.0755 61.7467 15.1127 61.8772 15.1406C61.7187 15.1778 61.5696 15.2057 61.4111 15.2336C61.349 15.1716 61.3148 15.0724 61.3086 14.936C61.3086 14.8522 61.3086 14.7685 61.3086 14.6848C61.3086 14.6011 61.3086 14.5174 61.3086 14.4337C61.3148 14.2911 61.349 14.1577 61.4111 14.0337V14.0244Z" fill="white"/>
<path d="M81.1721 13.8384C81.2653 13.8663 81.3585 13.9035 81.4517 13.9314C81.2653 14.0554 81.11 14.1484 80.9857 14.2104V14.8615C80.7433 14.6197 80.7527 14.443 80.7061 14.1174C80.849 14.0182 81.0043 13.9252 81.1721 13.8384Z" fill="white"/>
<path d="M63.276 31.0459H63.4625C63.332 31.3621 63.1549 31.5575 62.9032 31.79C62.838 31.7621 62.782 31.7249 62.7168 31.697C62.81 31.5854 62.8939 31.4831 62.9871 31.3714C63.0337 31.3156 63.0896 31.2505 63.1362 31.1854C63.1797 31.1358 63.2263 31.0893 63.276 31.0459Z" fill="white"/>
<path d="M53.9551 12.3499C54.0576 12.6475 54.0483 12.7219 53.9551 13.001C53.9271 13.0661 53.8898 13.1219 53.8619 13.187C53.7376 13.001 53.6816 12.8428 53.6941 12.7126C53.7065 12.5824 53.7935 12.4615 53.9551 12.3499Z" fill="white"/>
</g>
<defs>
<clipPath id="clip0_2397_10803">
<rect width="111.849" height="42.0425" fill="white" transform="translate(44.0752 3.97876)"/>
</clipPath>
</defs>
</svg>
