<svg width="200" height="50" viewBox="0 0 200 50" fill="none" xmlns="http://www.w3.org/2000/svg">
<g clip-path="url(#clip0_2641_18765)">
<path d="M140.703 17.653H144.573C144.595 17.6934 144.615 17.7441 144.62 17.7905C144.68 18.3303 144.628 19.0843 144.628 19.6458L144.628 23.6849L144.628 28.1631C144.628 28.9219 144.688 29.727 144.599 30.4781C144.544 30.9484 144.404 31.3337 144.113 31.7146C143.695 32.263 143.102 32.5863 142.423 32.6794C142.202 32.7323 141.929 32.71 141.702 32.7111C140.993 32.7142 140.244 32.759 139.601 32.406C139.399 32.2955 139.198 32.1213 139.035 31.9607C138.703 31.6328 138.398 31.2678 138.086 30.9205L136.425 29.0718L131.602 23.7058C131.303 23.3699 130.231 22.0637 129.927 21.8869C129.936 21.9123 129.943 21.9381 129.95 21.9641C130.021 22.2257 129.97 24.2919 129.97 24.6799C129.971 27.2744 130.017 29.879 129.968 32.4722C129.966 32.5595 129.966 32.627 129.92 32.7042H126.048C126.091 32.6343 126.097 32.5752 126.1 32.4946C126.149 31.4233 126.098 30.327 126.099 29.2528L126.1 22.5245L126.098 20.8736C126.098 20.5127 126.08 20.1401 126.13 19.7821C126.177 19.4451 126.302 19.1271 126.479 18.8375C126.878 18.1836 127.495 17.852 128.221 17.6781C129.007 17.5943 130.455 17.5931 131.12 17.9879C131.33 18.1125 131.538 18.306 131.707 18.4807C132.217 19.0088 132.697 19.5719 133.188 20.1176L135.933 23.1658L139.04 26.6178C139.575 27.2123 140.126 27.7972 140.645 28.4056C140.677 28.4435 140.694 28.4748 140.706 28.5234C140.721 28.4925 140.732 28.4601 140.74 28.4268C140.796 28.1902 140.755 27.8478 140.755 27.6005L140.755 25.7115C140.756 23.1184 140.795 20.5181 140.754 17.9257C140.752 17.8268 140.758 17.7401 140.703 17.653Z" fill="white"/>
<path d="M105.959 17.6781C106.467 17.6221 107.002 17.652 107.513 17.6522L110.164 17.653L119.034 17.653C119.049 17.6757 119.062 17.6999 119.068 17.7271C119.118 17.9871 119.1 20.3309 119.072 20.6689C119.068 20.7175 119.053 20.7552 119.027 20.7963H107.226C107.241 20.8237 107.254 20.8513 107.263 20.8816C107.324 21.0901 107.3 23.1213 107.274 23.4523C107.27 23.5086 107.253 23.5547 107.226 23.6041H119.037C119.048 23.6211 119.059 23.639 119.065 23.6587C119.122 23.8485 119.097 26.3225 119.073 26.6251C119.07 26.6717 119.053 26.7109 119.03 26.7511H110.513H107.218C107.241 26.7851 107.257 26.8226 107.267 26.8622C107.324 27.0905 107.303 29.0823 107.274 29.4143C107.269 29.466 107.252 29.5075 107.225 29.5512H119.031C119.047 29.5755 119.062 29.6013 119.067 29.6304C119.12 29.9048 119.1 32.2183 119.072 32.5718C119.069 32.622 119.053 32.6613 119.027 32.7042L110.331 32.7035L107.637 32.7063C107.151 32.7068 106.64 32.7383 106.158 32.6872C105.711 32.6398 105.264 32.5099 104.877 32.2777C104.218 31.8822 103.678 31.186 103.497 30.4354C103.328 29.7305 103.413 28.8095 103.412 28.0811L103.412 24.3849L103.413 21.7345C103.413 21.265 103.38 20.7647 103.434 20.299C103.486 19.8625 103.633 19.4426 103.864 19.0687C104.352 18.286 105.08 17.8813 105.959 17.6781Z" fill="white"/>
<path d="M42.1597 17.6781C43.1841 17.6014 44.243 17.6523 45.2706 17.6522L50.9477 17.653C50.9688 17.6865 50.9856 17.7215 50.9952 17.7602C51.0436 17.9574 51.0284 20.3519 51.0014 20.6524C50.9964 20.7067 50.9781 20.7503 50.9492 20.7962L45.3733 20.7953C44.3845 20.7952 42.7288 20.6985 41.8127 20.9233C41.0477 21.1189 40.3491 21.5148 39.789 22.07C38.9715 22.882 38.5115 23.9852 38.5105 25.136C38.5033 26.2967 38.9636 27.4117 39.788 28.2309C40.3308 28.7709 41.0069 29.1584 41.7478 29.3542C42.695 29.5994 43.8082 29.4983 44.7877 29.4982L48.4749 29.4965H50.9551C50.9719 29.5247 50.9862 29.554 50.9936 29.5863C51.0458 29.8112 51.0296 32.1909 51.0014 32.5103C50.997 32.562 50.98 32.6035 50.9523 32.6471L45.336 32.6483C44.0161 32.6484 42.6007 32.7577 41.3053 32.4835C40.2337 32.2576 39.2249 31.8 38.35 31.1427C36.7513 29.9442 35.6969 28.1598 35.4201 26.184C35.1463 24.2165 35.6662 22.221 36.8656 20.6354C38.1971 18.8732 40.0024 17.9802 42.1597 17.6781Z" fill="white"/>
<path d="M65.4373 17.6781C65.7414 17.6419 66.0592 17.6416 66.3605 17.6997C66.8651 17.797 67.515 18.1163 67.8098 18.5565C68.0724 18.9489 68.2322 19.4417 68.4122 19.8761L69.2421 21.8804L72.4101 29.5359C72.5702 29.9224 73.684 32.4602 73.6471 32.6471H69.8358C69.8376 32.6399 69.841 32.6279 69.841 32.6198C69.8426 32.4898 66.3643 24.1378 66.057 23.4405C66.0285 23.3753 66.0011 23.3303 65.9475 23.2817C65.9518 23.2667 65.9546 23.253 65.9558 23.2374C65.9633 23.1374 65.8891 23.0517 65.827 22.9825C65.827 22.9856 65.827 22.9886 65.827 22.9916C65.8202 23.2709 64.1565 27.1268 63.9429 27.6432C63.276 29.2552 62.6494 30.9006 61.9331 32.4907C61.9049 32.5539 61.8757 32.599 61.8248 32.6471H58.0098C58.1628 32.4976 58.713 31.0189 58.8353 30.7233L62.3049 22.3395L63.2413 20.0677C63.4166 19.637 63.5718 19.1563 63.8033 18.7534C64.1543 18.1426 64.7846 17.8515 65.4373 17.6781Z" fill="white"/>
<path d="M159.049 17.6781C159.362 17.6474 159.67 17.6409 159.981 17.7013C160.519 17.806 161.147 18.1385 161.457 18.6045C161.678 18.9364 161.817 19.3705 161.969 19.7379L162.713 21.5374L165.598 28.5082L166.727 31.2358C166.901 31.6563 167.126 32.0927 167.254 32.5263C167.267 32.567 167.263 32.6062 167.254 32.6472H163.439C163.442 32.6326 163.443 32.6335 163.443 32.6156C163.447 32.4719 159.706 23.4282 159.569 23.2818C159.572 23.2689 159.574 23.2561 159.574 23.2428C159.576 23.1476 159.504 23.0528 159.442 22.9875L159.441 23.003C159.424 23.2695 158.183 26.1292 158.002 26.5661L156.368 30.5152C156.089 31.1879 155.827 31.8744 155.528 32.5378C155.508 32.5808 155.479 32.6145 155.445 32.6472H151.595C151.636 32.615 151.678 32.5679 151.701 32.5209C151.898 32.1171 152.053 31.6797 152.226 31.2638L153.234 28.8266L156.345 21.3119L156.999 19.7118C157.13 19.393 157.247 19.0515 157.42 18.7528C157.774 18.1393 158.393 17.853 159.049 17.6781Z" fill="white"/>
<path d="M80.6791 17.678C81.0338 17.5913 81.5859 17.6507 81.9654 17.6509L84.6974 17.6534L96.3437 17.6529C96.3561 17.6715 96.367 17.6909 96.3738 17.7126C96.4303 17.8979 96.4064 20.35 96.3837 20.6808C96.381 20.7238 96.3661 20.759 96.345 20.7961H90.4652C90.4782 20.8224 90.4894 20.8492 90.4959 20.8779C90.5632 21.1723 90.5102 22.2104 90.5102 22.6091V25.2139C90.5102 25.6673 90.5272 26.1268 90.5055 26.5792C90.5024 26.6453 90.4903 26.6926 90.4546 26.7492C90.4738 26.7805 90.4897 26.8129 90.4984 26.849C90.5598 27.1102 90.5099 28.1013 90.5099 28.4621L90.5102 31.0942C90.5099 31.5524 90.5266 32.0166 90.5055 32.474C90.5024 32.5415 90.4906 32.5892 90.4546 32.647H86.5973C86.6094 32.6275 86.6209 32.6072 86.6287 32.5856C86.6839 32.4353 86.6746 22.0104 86.6501 21.0116C86.6482 20.9324 86.6408 20.8695 86.6066 20.7961H80.6729C80.6905 20.7663 80.7048 20.7358 80.7138 20.7022C80.7706 20.4916 80.7539 18.1445 80.7213 17.8012C80.7169 17.7561 80.7008 17.7172 80.6791 17.678Z" fill="white"/>
<path d="M17.9163 20.2771L17.9578 20.2934C17.9245 20.4907 15.6929 24.3971 15.3854 24.9608C13.6202 24.9831 11.8529 25.0427 10.088 25.088L10.0371 25.072C10.0544 24.9067 12.364 20.8375 12.605 20.4034L17.9163 20.2771Z" fill="white"/>
<path d="M23.9171 20.1574L24.3044 20.145C25.1908 21.6816 26.1601 23.1778 27.0758 24.6983C25.3877 24.7697 23.6924 24.7867 22.0029 24.8207L21.6968 24.8301C20.7912 23.3008 19.8412 21.7963 18.9238 20.2738L23.9171 20.1574Z" fill="white"/>
<path d="M18.4472 20.5283C18.6318 20.7 19.0643 21.5041 19.2246 21.7674L21.2355 25.0629L18.6355 29.7357C18.4634 29.5795 18.0188 28.7508 17.874 28.5128L15.8486 25.1914C16.1604 24.6719 16.4424 24.1287 16.737 23.5991L18.4472 20.5283Z" fill="white"/>
<path d="M27.3676 15.25C27.633 15.5383 28.2516 16.6629 28.492 17.0575L29.5354 18.7698C29.7199 19.0712 29.9296 19.3753 30.0924 19.6879C30.1075 19.7169 30.1106 19.7533 30.1119 19.7854C30.1336 19.8984 27.8161 23.9925 27.5588 24.4558C27.3899 24.3009 26.9541 23.4974 26.805 23.2525L24.7695 19.9153C25.0808 19.4066 25.3563 18.8659 25.6466 18.344L27.3676 15.25Z" fill="white"/>
<path d="M27.5425 25.4202C27.5553 25.4321 27.5541 25.43 27.5631 25.441C27.8532 25.7911 28.2707 26.5773 28.5255 26.9948C29.1019 27.9394 29.7289 28.8755 30.2586 29.8446C30.2799 29.8836 30.2863 29.9097 30.2829 29.954C30.2975 30.148 28.0341 34.0755 27.7306 34.6343C27.4778 34.3378 27.1356 33.6757 26.9121 33.3087L24.9502 30.0852C25.2281 29.5474 25.5388 29.0217 25.8333 28.4923L27.5425 25.4202Z" fill="white"/>
<path d="M14.4193 25.4502L15.3863 25.4292C15.6813 25.9488 16.0102 26.4551 16.3214 26.9656L18.1584 29.9819L13.6843 30.0855C13.3826 30.1033 13.0785 30.103 12.7763 30.1092L10.0059 25.5573C11.4763 25.5418 12.9488 25.4825 14.4193 25.4502Z" fill="white"/>
<path d="M25.7197 25.1988L27.0788 25.1729C26.2579 26.7517 25.3431 28.2978 24.4779 29.8541C23.1662 29.8782 21.8546 29.91 20.5433 29.9494L19.0928 29.9827C19.9907 28.4417 20.8319 26.8603 21.6983 25.3011C23.0365 25.2438 24.3804 25.2315 25.7197 25.1988Z" fill="white"/>
<path d="M174.285 32.6471C174.333 32.6091 174.369 32.564 174.394 32.5088C174.955 31.2962 175.427 30.0248 175.938 28.7888L179.056 21.2569L179.689 19.7116C179.826 19.3742 179.948 18.9939 180.146 18.6879C180.381 18.3266 180.749 18.0446 181.139 17.8698C181.756 17.5959 182.456 17.578 183.086 17.82C183.51 17.9833 183.939 18.2863 184.185 18.674C184.441 19.0765 184.594 19.5811 184.775 20.0227L185.751 22.3841L188.523 29.0831C189.01 30.2591 189.473 31.4534 189.992 32.6154L189.992 32.645C188.708 32.6837 187.412 32.6469 186.127 32.6471C186.13 32.6355 186.132 32.6266 186.132 32.6145C186.132 32.4616 182.624 24.0132 182.249 23.1765C182.217 23.105 182.182 23.0473 182.127 22.9908C182.13 23.0039 182.132 23.0168 182.133 23.0303C182.135 23.1012 178.288 32.4975 178.135 32.6471H174.285Z" fill="white"/>
<path d="M26.3637 15H26.9075L24.31 19.6787C22.5204 19.7677 20.7168 19.7636 18.9248 19.8099C19.1942 19.2833 19.5026 18.7692 19.7903 18.2518L21.5265 15.1266L24.699 15.0552C25.242 15.0436 25.8267 15.0734 26.3637 15Z" fill="white"/>
<path d="M19.0996 30.4481L24.4776 30.3193L27.2578 34.8732L24.0262 34.9452C23.5127 34.9564 22.9355 34.9205 22.4304 35H21.8753L19.0996 30.4481Z" fill="white"/>
</g>
<defs>
<clipPath id="clip0_2641_18765">
<rect width="180" height="20" fill="white" transform="translate(10 15)"/>
</clipPath>
</defs>
</svg>
