<svg width="200" height="50" viewBox="0 0 200 50" fill="none" xmlns="http://www.w3.org/2000/svg">
<g clip-path="url(#clip0_2594_13947)">
<path d="M110.067 13.686L115.413 27.9135L120.756 13.686H128.505V14.5751C126.972 14.5093 125.976 14.5325 125.824 16.2555C125.334 21.7911 126.197 28.0611 125.849 33.6749C126.047 35.1508 127.224 35.2859 128.507 35.2024V35.9137H118.353C118.095 34.7205 119.078 35.3998 119.965 35.1224C120.261 35.0299 121.025 34.2937 121.025 34.0465V16.5312L113.81 35.9137L113.367 35.7963L106.239 16.7108V33.6927C106.239 34.3062 107.39 35.0334 107.972 35.1633C108.721 35.3304 109.054 34.8538 108.911 35.9154H102.32C102.151 34.8467 102.598 35.3411 103.396 35.1206C104.441 34.8325 104.773 33.931 104.978 32.9672C104.755 27.7232 105.32 22.177 104.999 16.9686C104.878 14.9859 104.443 14.3813 102.318 14.5769V13.6878H110.067V13.686Z" fill="white"/>
<path d="M145.073 20.1766C145.013 20.3882 144.519 20.5447 144.362 20.4433C144.256 20.374 143.922 18.4339 143.735 17.9556C143.331 16.926 142.642 16.0831 141.605 15.6368C141.138 15.4359 139.736 15.1087 139.283 15.1087H136.344V23.9997C138.826 24.2238 139.497 22.474 140.003 20.4504C140.085 20.1232 140.165 18.9834 140.265 18.8429C140.335 18.7451 140.976 18.9105 140.976 19.1096V30.4013C140.746 30.3693 140.397 30.5151 140.245 30.2981C140.069 30.0456 139.813 28.0274 139.51 27.3285C138.888 25.8971 137.942 25.2765 136.342 25.4223V33.691C136.342 34.2511 137.552 34.621 138.033 34.669C139.191 34.7846 141.243 34.436 142.289 33.9346C143.753 33.2322 144.453 32.1297 145.105 30.7C145.242 30.3977 145.741 28.2087 146.318 28.8009C146.568 29.0569 145.412 35.0051 145.606 35.9137H128.86V35.2024C130.253 35.2914 131.415 35.1029 131.541 33.5203C131.992 27.8744 131.196 21.6276 131.523 15.9178C131.269 14.1218 129.753 14.9006 129.035 14.4899C128.67 14.28 128.946 13.6843 129.129 13.6843H144.806C144.826 13.6843 145.073 13.9315 145.073 13.9511V20.1748V20.1766Z" fill="white"/>
<path d="M148.457 27.9119C148.529 27.8372 148.928 27.8888 149.079 28.0915C149.25 28.3227 149.681 30.3872 149.925 30.9811C150.47 32.3041 151.666 33.8636 152.923 34.5677C157.315 37.027 160.79 32.0498 156.994 28.9041C154.904 27.1704 151.901 26.2973 150.064 24.0852C145.778 18.9195 150.39 10.9905 157.363 13.9547C158.01 14.2286 159.173 15.3186 159.761 14.3886C160.11 13.8374 159.773 13.135 160.571 13.3306L160.749 20.8008C160.577 20.7742 160.088 20.8471 160.048 20.7902C159.987 20.7084 159.787 19.2165 159.641 18.795C159.114 17.2746 157.753 15.5036 156.216 14.9239C152.457 13.5084 149.952 17.3707 153.005 20.0842C155.316 22.1381 159.134 23.0698 160.897 25.899C164.303 31.3598 159.31 38.1579 152.991 36.1023C152.018 35.7858 150.709 34.6478 149.692 35.4586C149.131 35.905 149.421 36.6998 148.457 36.4491C148.684 35.3893 148.16 28.2213 148.457 27.9137V27.9119Z" fill="white"/>
<path d="M66.5104 13.6863V19.7322C66.3376 19.7073 65.8477 19.7784 65.8085 19.7233C65.7337 19.6202 65.4219 17.7762 65.1743 17.2427C64.1803 15.0857 62.438 14.9968 60.2753 15.1088V33.869C60.2753 34.8968 62.1031 35.3715 62.9475 35.2026V35.9139H52.7932V35.2026C53.4719 35.4124 55.4654 34.831 55.4654 34.0468V15.1088C52.9767 15.0039 51.4322 15.1906 50.4453 17.6552C50.2653 18.1034 50.0052 19.6451 49.9233 19.7126C49.8182 19.798 49.4209 19.6984 49.2285 19.7322V13.6863H66.5086H66.5104Z" fill="white"/>
<path d="M90.7381 13.6863V19.91C90.4513 19.9242 90.3213 19.974 90.12 19.7269C89.8545 19.405 89.598 17.721 89.2346 17.0542C88.1764 15.1213 86.3344 14.979 84.3249 15.1071L84.3178 31.92C84.5975 32.642 84.3195 33.8494 84.6723 34.4113C85.1764 35.2151 86.3219 35.2631 87.1752 35.2026V35.9139H77.0209V35.2026C77.9027 35.4053 79.6931 34.9572 79.6931 33.869V15.1088C76.4758 14.8332 74.8119 16.0086 74.2169 19.1596C74.0833 19.8709 74.4271 20.006 73.458 19.91V13.6863H90.7381Z" fill="white"/>
<path d="M101.783 13.6863C101.942 14.947 101.087 14.4598 100.278 14.5843C99.537 14.6981 99.2199 15.2209 99.1273 15.925C99.4444 21.6313 98.6534 27.8799 99.1041 33.5222C99.2306 35.1048 100.392 35.2933 101.785 35.2044V35.9157H91.6309V35.2044C92.9118 35.288 94.0893 35.1528 94.2871 33.6769C93.9735 28.0275 94.7556 21.8429 94.3102 16.2576C94.2532 15.5427 93.8827 14.7781 93.1077 14.6127C92.3328 14.4474 91.467 14.9435 91.6291 13.6881H101.783V13.6863Z" fill="white"/>
<path d="M47.8946 13.6863C48.1849 13.7752 48.1921 14.2998 48.1618 14.5754C46.9629 14.4545 45.8156 14.5949 45.4985 15.9197C45.8245 21.6313 45.0318 27.8746 45.4807 33.5222C45.6072 35.1101 46.7562 35.3378 48.1618 35.2044V35.9157H38.0075V35.2044C39.0835 35.2595 40.4071 35.2897 40.6387 34.0077L40.6708 15.7401C40.4249 14.2535 38.7646 14.8261 38.1803 14.4918C37.8151 14.282 38.0912 13.6863 38.2747 13.6863H47.8946Z" fill="white"/>
<path d="M85.9287 39.0258C86.016 38.7377 86.5772 38.6612 86.8266 38.8426L88.9572 42.3154V39.0258C88.9572 38.791 89.6145 38.7003 89.8479 38.759V44.4493C89.5023 44.4742 89.171 44.4813 88.9483 44.1915L86.8194 40.7151V44.4493H85.9287V39.0258Z" fill="white"/>
<path d="M110.869 39.0258C110.956 38.7377 111.518 38.6612 111.767 38.8426L113.898 42.3154V39.0258C113.898 38.791 114.555 38.7003 114.788 38.759V44.4493L113.988 44.2697L111.76 40.7151V44.4493H110.869V39.0258Z" fill="white"/>
<path d="M58.6297 43.3415C58.8702 43.1014 58.8541 42.4719 58.8506 42.1376H57.7799V41.2468H59.7413C60.0602 43.057 59.2461 45.1233 57.0762 44.3515C55.7847 43.891 55.7882 41.2361 56.0359 40.1283C56.2835 39.0204 57.7336 38.4141 58.7366 38.9582C59.4723 39.3565 60.2294 40.98 59.1409 40.6902C58.6617 40.5622 58.4123 39.0293 57.3203 39.8117C56.679 40.2723 56.6612 43.3041 57.3631 43.5318C57.6552 43.6278 58.4106 43.5567 58.6279 43.3379L58.6297 43.3415Z" fill="white"/>
<path d="M97.8647 42.6728C98.3029 42.728 98.1462 42.6693 98.237 42.4239C98.3564 42.0985 98.6877 40.4447 98.7697 40.3772C98.8641 40.3007 99.1901 40.3825 99.3575 40.3523L100.355 43.0267C100.38 42.6266 100.742 40.4999 100.915 40.3825C101.068 40.2776 101.549 40.4003 101.782 40.3612C101.456 40.8822 100.87 44.3106 100.706 44.4439C100.656 44.4848 100.229 44.4706 100.111 44.4297C99.7655 44.3088 99.2827 42.4363 99.2881 41.9598C98.7109 42.1305 98.5559 44.3052 98.3902 44.4422C98.2691 44.5435 97.7471 44.4564 97.5939 44.2732C97.4728 44.1292 96.6337 40.9746 96.6141 40.6261C96.5892 40.1833 97.1432 40.2954 97.3409 40.4376C97.5601 40.5959 97.8362 42.2763 97.8647 42.6711V42.6728Z" fill="white"/>
<path d="M126.548 42.8489L127.176 41.0743C127.331 40.596 127.077 40.1034 127.864 40.379C128.284 40.5266 128.591 43.0321 128.773 43.0303C128.963 42.6889 129.3 40.4733 129.412 40.3772C129.524 40.2812 130.068 40.4004 130.287 40.363C130.039 40.8858 129.373 44.3106 129.211 44.4458C129.161 44.4867 128.735 44.4742 128.616 44.4315C128.158 44.2697 127.912 42.2853 127.706 41.7838C127.545 41.7838 127.084 44.1168 126.922 44.3498C126.76 44.5827 126.314 44.556 126.141 44.2324C125.969 43.9088 124.98 40.5053 125.122 40.3648C126.398 40.1105 126.084 42.0256 126.549 42.8525L126.548 42.8489Z" fill="white"/>
<path d="M69.8953 38.759H70.7861V40.5372C72.4286 39.9949 72.9309 40.8911 72.9309 42.4044C72.9309 44.9063 71.8282 44.3586 69.8936 44.4493V38.759H69.8953ZM71.0747 41.2699C70.6329 41.4157 70.4832 43.674 71.4096 43.6758C72.3359 43.6776 72.5176 40.7951 71.0747 41.2699Z" fill="white"/>
<path d="M141.866 38.7589V41.9596C142.727 41.4493 142.779 40.0641 144.004 40.3592C144.23 40.5584 142.93 41.6947 142.932 42.045C142.934 42.3953 144.389 44.2606 144.182 44.4474C143.014 44.7283 142.848 43.4836 142.399 42.6691C141.646 42.9803 141.888 43.7823 141.868 44.4474H140.978V38.7571H141.868L141.866 38.7589Z" fill="white"/>
<path d="M77.734 44.4493C76.5939 44.1613 74.7073 45.0753 74.6877 43.2953C74.677 42.3617 75.0458 42.1679 75.9045 42.0007C76.3302 41.9172 77.4329 42.0896 76.6634 41.3392C75.9704 40.6653 74.8712 41.9474 74.8766 40.9783C74.8819 40.0091 77.734 40.0981 77.734 41.5153V44.4493ZM76.8433 42.6729C74.1266 42.5324 76.1681 44.5809 76.7542 43.3824C76.8664 43.1512 76.8575 42.9165 76.8433 42.6729Z" fill="white"/>
<path d="M95.1921 42.671H92.6981C92.9011 43.1582 92.9973 43.8001 93.6636 43.7432C94.2123 43.6952 94.4742 43.0088 95.0104 43.8268C94.2301 44.8546 92.4629 44.6483 92.0639 43.3929C91.0217 40.1121 95.1867 38.9314 95.1921 42.671ZM94.0769 41.2964C93.4801 40.7256 92.5484 41.6414 92.8762 41.9597C92.9457 42.0255 94.0359 41.9152 94.2996 41.9597C94.3797 41.8832 94.1784 41.3942 94.0751 41.2964H94.0769Z" fill="white"/>
<path d="M119.536 40.7772C120.063 41.3035 119.972 41.9846 119.954 42.6728H117.815C117.662 43.288 118.134 43.8179 118.755 43.713C119.235 43.6312 119.418 43.0409 119.951 43.8286C117.984 45.7064 116.121 43.2951 117.143 41.2022C117.59 40.2882 118.811 40.0552 119.536 40.779V40.7772ZM119.019 41.2929C118.355 40.626 117.519 41.6645 117.817 41.9597C117.875 42.0184 118.962 41.8512 119.24 42.1375C119.32 42.0451 119.149 41.4227 119.021 41.2929H119.019Z" fill="white"/>
<path d="M134.329 40.7702C135.001 41.5046 135.04 43.994 133.861 44.3692C131.037 45.2672 130.928 39.9344 133.57 40.3629C133.761 40.3932 134.201 40.6297 134.329 40.7702ZM132.891 41.2698C132.439 41.4192 132.496 43.1867 132.777 43.4766C133.967 44.7018 134.744 40.6563 132.891 41.2698Z" fill="white"/>
<path d="M65.9266 40.3948C68.4188 39.8507 68.5685 44.1895 66.5857 44.4474C64.252 44.7497 64.2698 40.7576 65.9266 40.3948ZM66.8422 41.2733C66.7496 41.2128 66.0673 41.2075 65.9141 41.243C65.5685 41.3213 65.3209 43.5031 66.1439 43.6649C67.4515 43.921 67.0899 41.4386 66.8422 41.275V41.2733Z" fill="white"/>
<path d="M104.098 41.9597C108.065 41.9028 105.628 46.1278 103.032 43.8268C103.567 42.9982 103.882 43.745 104.541 43.7468C104.728 43.7468 105.311 43.6277 105.353 43.4498C105.378 43.3449 105.369 42.8684 105.346 42.8506C105.011 42.6159 103.111 43.0622 103.209 41.5276C103.301 40.0712 105.724 40.1388 105.879 40.8056C106.1 41.7534 103.622 40.3611 104.098 41.9597Z" fill="white"/>
<path d="M122.983 39.2925C123.042 40.1425 122.625 40.7293 123.696 40.539C123.954 41.277 123.006 41.1685 122.971 41.357C122.903 41.7055 122.921 43.5104 123.165 43.6544C123.551 43.882 123.829 43.4908 123.696 44.4493C121.349 44.6378 122.384 42.6106 122.091 41.3677C122.058 41.2307 121.56 41.3196 121.734 40.6493C121.766 40.5266 122.058 40.5586 122.091 40.4216C122.167 40.0891 122.048 39.6481 122.091 39.2943H122.983V39.2925Z" fill="white"/>
<path d="M80.5848 38.7588V43.4711C80.5848 43.7058 81.6733 43.6027 81.2974 44.4491C80.9037 44.4669 80.355 44.4722 80.0522 44.1806C79.573 43.72 79.5908 40.1654 79.6852 39.3723C79.7636 38.7162 79.9275 38.7197 80.5848 38.7588Z" fill="white"/>
<path d="M62.592 38.759V43.4713C62.592 43.7078 63.6804 43.6029 63.3045 44.4493C62.9037 44.476 62.2107 44.4582 61.9738 44.0883C61.6211 43.5388 61.5997 40.1531 61.6923 39.3743C61.7707 38.7181 61.9346 38.7217 62.592 38.7608V38.759Z" fill="white"/>
<path d="M136.879 40.3594C137.522 40.0927 137.629 40.7311 137.677 40.7168C137.862 40.6599 138.038 40.3932 138.407 40.3594C139.17 40.2865 139.847 40.7844 139.015 41.1596C138.544 41.373 137.59 41.0067 137.59 41.6949V44.4511H136.877V40.3612L136.879 40.3594Z" fill="white"/>
<path d="M52.8824 5.50652C53.1122 5.52964 53.8426 5.66834 54.0867 5.73057C55.4299 6.06843 55.4566 8.35699 54.0421 8.79443C54.7993 9.6622 55.0789 11.4386 56.5344 11.1968V6.12889C56.5344 5.95996 56.016 5.83193 55.8218 5.86038C55.7612 5.81415 56.0481 5.50652 56.089 5.50652H60.2754V7.46255C59.8372 7.32207 59.9851 6.79394 59.7517 6.47387C59.3847 5.96885 58.5243 6.01687 57.9596 6.03998V8.35165C58.7381 8.32676 58.7185 7.97467 58.8503 7.3683C58.918 7.05712 58.6686 6.84729 59.2084 6.92909V10.1299C58.5652 9.69598 59.0284 8.65395 57.9613 8.7073C58.0201 9.06294 57.8776 10.9372 57.9613 11.019C58.0575 11.115 59.2369 11.0012 59.5183 10.8838C60.1971 10.6011 60.1311 9.97338 60.6317 9.5964C60.6656 9.92359 60.605 11.3924 60.4376 11.5346C60.2113 11.7285 55.2553 11.4244 54.4857 11.5542C53.9869 11.46 53.073 9.62841 52.6668 9.11095C52.5831 9.00426 52.5243 8.59883 52.2625 8.8869C52.1948 8.96158 52.225 10.7398 52.2838 10.9087C52.4353 11.3568 53.1211 10.9514 52.975 11.5524H50.3029C50.1443 10.9887 50.7411 11.3017 50.9371 11.0332C51.0867 10.8305 51.0867 6.22847 50.9371 6.02576C50.7411 5.75725 50.1443 6.07021 50.3029 5.50652C51.1401 5.56342 52.0612 5.4265 52.886 5.50652H52.8824ZM52.2589 8.52948C53.4044 8.23074 53.766 8.35877 53.6947 7.01088C53.6431 6.02753 53.1407 6.03287 52.2589 6.03998V8.52948Z" fill="white"/>
<path d="M40.8579 5.50646C41.0307 6.10216 40.3519 5.71273 40.3127 5.95812C40.2112 6.60183 40.4071 7.49272 40.3252 8.17377C41.0289 7.48382 41.9624 6.99304 42.4576 6.12705L41.9267 5.50823C42.251 5.56514 43.7955 5.42644 43.8845 5.50823C44.1803 5.77674 43.7331 5.84254 43.6565 5.91189C42.9154 6.57338 42.0283 7.08373 41.4315 7.90704C41.4208 8.09019 43.2842 10.7113 43.5229 10.9389C43.8721 11.2732 44.3513 11.0314 44.2408 11.5541H41.3905C41.2587 10.9638 41.9107 11.4279 41.713 10.7913C41.5954 10.409 40.6423 9.11266 40.2343 8.88683L40.3109 11.1043L40.8561 11.5559H38.1857C38.0271 10.9922 38.6239 11.3052 38.8199 11.0367C38.9695 10.834 38.9695 6.23197 38.8199 6.02925C38.6239 5.75896 38.0271 6.07015 38.1857 5.50646H40.8579Z" fill="white"/>
<path d="M48.9924 10.9603C47.8202 12.0556 45.7787 11.7978 44.8772 10.4748C43.7727 8.85664 44.2983 6.07018 46.3665 5.58473C49.6124 4.82188 51.0678 9.02023 48.9906 10.9603H48.9924ZM46.4307 10.9674C47.3143 11.7356 48.1925 10.7611 48.3297 9.85421C48.4776 8.87264 48.5702 5.43003 46.9117 5.93504C45.4936 6.36714 45.5542 10.2045 46.4307 10.9691V10.9674Z" fill="white"/>
<path d="M64.0168 11.5524C63.5572 11.1648 64.5156 11.2128 64.5477 11.1932C64.724 11.0812 64.5334 10.0374 63.7603 9.94315C62.686 9.81156 62.018 9.86135 62.2246 11.1025C62.2656 11.3444 62.9443 10.9603 62.768 11.5524C62.4598 11.4991 61.0311 11.6698 60.9865 11.4635C60.9206 11.1612 61.3339 11.1292 61.5619 10.7967C62.3582 9.63552 62.9176 7.25449 63.5803 5.86571C63.6801 5.65588 63.5554 5.43005 63.9259 5.50829L65.7109 10.1299L66.5108 11.556C66.1225 11.4849 64.1308 11.652 64.0168 11.556V11.5524ZM64.0168 9.41858L63.3933 7.81997L62.5916 9.41858H64.0168Z" fill="white"/>
</g>
<defs>
<clipPath id="clip0_2594_13947">
<rect width="124" height="39.037" fill="white" transform="translate(38 5.48145)"/>
</clipPath>
</defs>
</svg>
