<svg width="200" height="50" viewBox="0 0 200 50" fill="none" xmlns="http://www.w3.org/2000/svg">
<g clip-path="url(#clip0_2627_17884)">
<path d="M174 13.2385C173.802 13.2398 173.613 13.2892 173.422 13.3297C173.078 13.4027 172.882 13.6222 172.795 13.9377C172.721 14.2045 172.704 14.4804 172.704 14.7565C172.704 17.3559 172.704 19.9556 172.704 22.555C172.704 22.6256 172.705 22.6962 172.703 22.7669C172.701 22.8298 172.706 22.9007 172.629 22.9289C172.551 22.9573 172.468 22.9607 172.403 22.9045C172.338 22.8489 172.28 22.784 172.225 22.7185C171.402 21.7322 170.58 20.7451 169.757 19.7584C168.646 18.4262 167.535 17.0942 166.424 15.7623C166.218 15.5157 166.012 15.2692 165.806 15.0228C165.783 14.9963 165.766 14.9637 165.725 14.9552C165.669 14.988 165.689 15.0432 165.689 15.0886C165.688 17.1231 165.686 19.1574 165.69 21.1919C165.691 21.5081 165.76 21.8086 166.002 22.0478C166.216 22.26 166.479 22.3614 166.777 22.389C166.863 22.397 166.951 22.3911 167.038 22.3996C167.172 22.4125 167.21 22.453 167.21 22.5694C167.21 22.6854 167.174 22.7204 167.034 22.7308C166.983 22.7346 166.932 22.7325 166.881 22.7325C165.902 22.7325 164.922 22.7325 163.943 22.7327C163.907 22.7327 163.871 22.7334 163.834 22.7321C163.644 22.7257 163.596 22.6903 163.599 22.5588C163.601 22.438 163.646 22.3992 163.822 22.3934C163.99 22.3879 164.152 22.3629 164.315 22.3213C164.709 22.2202 164.925 21.9623 165.017 21.5889C165.062 21.4023 165.076 21.2127 165.075 21.0212C165.073 20.4136 165.075 19.8063 165.075 19.1987C165.075 17.6023 165.072 16.0057 165.078 14.4093C165.079 14.1992 165.038 14.0206 164.881 13.8718C164.829 13.8228 164.79 13.7619 164.743 13.7083C164.496 13.4279 164.199 13.2479 163.807 13.2375C163.637 13.233 163.598 13.1866 163.597 13.0581C163.596 12.9669 163.632 12.9077 163.732 12.9022C163.79 12.899 163.848 12.8982 163.906 12.8982C164.915 12.898 165.923 12.9012 166.931 12.8948C167.114 12.8937 167.239 12.9442 167.356 13.0888C168.289 14.2431 169.231 15.3905 170.169 16.5405C170.788 17.2978 171.404 18.0561 172.022 18.8134C172.035 18.8293 172.054 18.8408 172.071 18.8548C172.141 18.8297 172.116 18.7718 172.116 18.7294C172.117 17.4015 172.121 16.0734 172.113 14.7454C172.111 14.4717 172.083 14.1966 172.008 13.928C171.925 13.6283 171.727 13.4423 171.438 13.3357C171.253 13.2674 171.061 13.2354 170.863 13.2343C170.784 13.2339 170.7 13.2358 170.666 13.1391C170.622 13.0129 170.683 12.9164 170.822 12.9009C170.865 12.8961 170.909 12.8978 170.953 12.8978C171.968 12.898 172.984 12.8984 174 12.8988V13.2379L174 13.2385Z" fill="white"/>
<path d="M174 27.6066C173.561 27.6429 173.224 27.8363 172.964 28.1874C172.585 28.6981 172.263 29.2424 171.93 29.7809C171.303 30.7973 170.68 31.8166 170.05 32.8318C169.96 32.9764 169.916 33.1208 169.918 33.2902C169.923 34.0388 169.922 34.7874 169.919 35.5358C169.918 35.7487 169.951 35.958 169.966 36.169C169.981 36.3789 170.123 36.5119 170.291 36.62C170.434 36.7114 170.594 36.7551 170.765 36.7577C170.96 36.7606 171.156 36.7572 171.352 36.7653C171.492 36.771 171.524 36.8086 171.526 36.929C171.528 37.0518 171.494 37.088 171.36 37.0997C171.302 37.1048 171.244 37.1025 171.186 37.1025C169.518 37.1025 167.85 37.1025 166.182 37.1025C166.131 37.1025 166.08 37.1044 166.03 37.1008C165.886 37.0904 165.854 37.0615 165.85 36.9428C165.846 36.8115 165.882 36.7712 166.031 36.7647C166.19 36.7577 166.35 36.7611 166.51 36.7608C166.664 36.7608 166.814 36.739 166.957 36.683C167.213 36.5831 167.374 36.402 167.411 36.1344C167.436 35.9531 167.46 35.7709 167.459 35.5862C167.456 34.9365 167.457 34.2869 167.46 33.6372C167.461 33.5212 167.437 33.4177 167.378 33.3144C166.501 31.77 165.628 30.2232 164.749 28.6792C164.627 28.4633 164.481 28.2604 164.335 28.0579C164.137 27.7841 163.873 27.6386 163.534 27.6125C163.438 27.6051 163.342 27.6021 163.331 27.4724C163.319 27.3322 163.36 27.2785 163.507 27.2669C163.557 27.2628 163.608 27.265 163.659 27.265C165.059 27.265 166.458 27.265 167.858 27.265C167.916 27.265 167.974 27.2626 168.032 27.2677C168.164 27.2792 168.204 27.3203 168.205 27.4367C168.206 27.5527 168.166 27.5947 168.033 27.6053C167.954 27.6117 167.874 27.6081 167.794 27.6106C167.707 27.6132 167.621 27.6174 167.536 27.642C167.239 27.7285 167.153 27.8863 167.258 28.1726C167.422 28.6205 167.673 29.027 167.905 29.4422C168.301 30.1488 168.697 30.8552 169.093 31.5615C169.246 31.8334 169.399 32.1048 169.549 32.3699C169.635 32.3782 169.642 32.3154 169.665 32.2779C170.309 31.2297 170.955 30.1827 171.592 29.1303C171.757 28.8573 171.915 28.5774 171.996 28.2655C172.057 28.0313 171.993 27.8895 171.775 27.7752C171.566 27.6658 171.338 27.628 171.105 27.6125C171.017 27.6066 170.928 27.6034 170.908 27.4897C170.881 27.3458 170.932 27.2781 171.084 27.2662C171.113 27.2639 171.142 27.265 171.171 27.265C172.114 27.2656 173.057 27.2664 174 27.2671V27.6062V27.6066Z" fill="white"/>
<path d="M55.2949 9C55.5577 9.19022 55.8524 9.32933 56.1343 9.48838C57.4896 10.2531 58.8475 11.0129 60.2038 11.7757C60.4748 11.9281 60.4751 11.9377 60.211 12.0863C58.8298 12.8635 57.4478 13.6395 56.066 14.4156C55.8524 14.5356 55.6341 14.648 55.4264 14.7772C55.3034 14.8535 55.2044 14.8393 55.0862 14.7723C54.215 14.2788 53.3413 13.7894 52.4684 13.2987C51.7461 12.8928 51.0234 12.4878 50.3018 12.0812C50.2341 12.0431 50.1255 12.0202 50.1231 11.9423C50.1201 11.8486 50.2374 11.8272 50.309 11.7867C51.8776 10.902 53.4475 10.0192 55.017 9.13593C55.0855 9.09734 55.1611 9.06744 55.2083 9H55.2954H55.2949Z" fill="white"/>
<path d="M31.4849 9C31.8116 9.22394 32.1682 9.39973 32.5123 9.59504C33.8219 10.3377 35.1353 11.0735 36.4475 11.8117C36.4665 11.8223 36.486 11.8314 36.5043 11.8431C36.6212 11.9175 36.6254 11.9519 36.5106 12.0212C36.3446 12.122 36.1737 12.2153 36.0041 12.3107C34.5476 13.1303 33.0903 13.9482 31.6362 14.7719C31.5051 14.8461 31.4028 14.8429 31.2759 14.7712C30.1159 14.1153 28.9537 13.4632 27.7919 12.8103C27.3524 12.5633 26.9125 12.3168 26.4722 12.0711C26.2523 11.9485 26.2493 11.9273 26.4611 11.8071C26.9432 11.5331 27.4273 11.2623 27.9108 10.9904C29.022 10.3655 30.1335 9.74052 31.245 9.11579C31.3016 9.08398 31.3601 9.05514 31.398 9H31.4851L31.4849 9Z" fill="white"/>
<path d="M43.8905 40.9999C43.887 40.9083 43.8809 40.8167 43.8807 40.7251C43.88 39.0659 43.8839 37.4065 43.875 35.7474C43.8739 35.5414 43.9475 35.4295 44.1253 35.3304C45.4726 34.5812 46.8148 33.8237 48.1585 33.0686C48.3154 32.9804 48.4696 32.8869 48.6293 32.8039C48.7375 32.7478 48.7673 32.7692 48.7774 32.8905C48.7808 32.9327 48.7789 32.9751 48.7789 33.0175C48.7789 34.6767 48.7763 36.336 48.7832 37.9952C48.7841 38.1808 48.726 38.2874 48.5575 38.3812C47.0914 39.198 45.6304 40.0238 44.1687 40.8481C44.0875 40.8939 44.0119 40.9492 43.9338 41.0001H43.8902L43.8905 40.9999Z" fill="white"/>
<path d="M26.0002 12.9841C26.3165 13.1122 26.5991 13.3005 26.8942 13.4655C28.1709 14.1793 29.443 14.9011 30.7208 15.6132C30.8723 15.6978 30.9333 15.7956 30.9326 15.9659C30.9274 17.5339 30.93 19.1021 30.9289 20.67C30.9289 20.9097 30.9063 20.9218 30.6853 20.7977C29.5229 20.1454 28.3612 19.4918 27.1994 18.8383C26.8916 18.6652 26.5851 18.4903 26.2767 18.3181C26.1889 18.2691 26.1021 18.2159 26 18.1972V12.9839L26.0002 12.9841Z" fill="white"/>
<path d="M43.4113 9C43.5846 9.1425 43.7957 9.22394 43.989 9.33315C45.4999 10.1869 47.013 11.0375 48.5289 11.8828C48.6743 11.9638 48.7418 12.0554 48.7281 12.218C48.7163 12.3582 48.7166 12.5009 48.7281 12.6413C48.7422 12.8165 48.6793 12.9261 48.5159 13.0141C47.9895 13.2978 47.4721 13.5973 46.9507 13.8897C45.952 14.45 44.9544 15.0121 43.9522 15.5665C43.8027 15.6492 43.7633 15.7535 43.7637 15.91C43.7678 17.4704 43.7663 19.0305 43.7661 20.5908C43.7661 20.6614 43.7644 20.7321 43.7644 20.8027C43.7644 20.8797 43.7337 20.939 43.6636 20.9776C43.632 20.995 43.6015 21.0141 43.5702 21.0319C43.3671 21.1466 43.1627 21.1129 43.0127 20.9426C42.9768 20.9019 42.9663 20.8561 42.9653 20.8059C42.9637 20.7425 42.9633 20.6788 42.9633 20.6152C42.9633 19.0973 42.9633 17.5794 42.9633 16.0614C42.9633 15.9978 42.9583 15.934 42.9637 15.8708C42.9757 15.7325 42.9087 15.6524 42.7876 15.5853C42.1067 15.2091 41.4291 14.8272 40.7508 14.4466C39.8903 13.9637 39.0314 13.4785 38.1687 12.9993C38.0348 12.9248 37.9619 12.8366 37.9704 12.681C37.9798 12.5119 37.9754 12.3421 37.9724 12.1729C37.9702 12.046 38.0263 11.9659 38.1404 11.9023C39.0089 11.419 39.8746 10.9308 40.7412 10.4443C41.4382 10.0531 42.1355 9.66163 42.8327 9.2708C42.9962 9.17962 43.1605 9.09034 43.3242 9C43.3532 9 43.3823 9 43.4113 9ZM47.8765 12.443C47.8071 12.4006 47.7775 12.3811 47.7464 12.3637C46.9307 11.9038 46.1153 11.4438 45.2992 10.9847C44.7091 10.6528 44.1155 10.3264 43.5295 9.98778C43.3963 9.9108 43.2955 9.91928 43.1716 9.99372C42.9435 10.1309 42.708 10.2562 42.4757 10.3871C41.3457 11.0228 40.2155 11.6582 39.0864 12.2954C39.0146 12.3359 38.8949 12.3497 38.8973 12.4466C38.899 12.5259 39.0081 12.5478 39.0751 12.5855C40.4437 13.3553 41.814 14.1221 43.1805 14.8953C43.3144 14.971 43.4167 14.9576 43.5415 14.8874C44.8092 14.1734 46.0789 13.4632 47.3478 12.7509C47.5156 12.6568 47.6804 12.5575 47.8765 12.443Z" fill="white"/>
<path d="M136.813 12.8981C137.581 12.8981 138.35 12.8981 139.119 12.8981C139.185 12.8981 139.25 12.8992 139.315 12.9015C139.417 12.9051 139.478 12.9498 139.48 13.0567C139.482 13.1719 139.442 13.2219 139.313 13.231C139.176 13.2408 139.038 13.2393 138.9 13.2408C138.752 13.2423 138.613 13.2819 138.483 13.3477C138.27 13.4556 138.136 13.6248 138.102 13.8581C138.077 14.0254 138.054 14.1932 138.054 14.3639C138.057 15.2679 138.056 16.1719 138.056 17.0759C138.056 17.1041 138.055 17.1325 138.056 17.1607C138.065 17.3206 138.08 17.3346 138.252 17.3418C138.288 17.3433 138.325 17.3425 138.361 17.3425C139.326 17.3425 140.29 17.3425 141.255 17.3425C141.27 17.3425 141.284 17.3425 141.299 17.3425C141.551 17.3399 141.558 17.3361 141.558 17.095C141.56 16.5089 141.56 15.9225 141.559 15.3364C141.558 14.9059 141.561 14.4758 141.529 14.0453C141.493 13.5587 141.233 13.2821 140.729 13.2442C140.585 13.2332 140.439 13.237 140.294 13.2312C140.203 13.2276 140.145 13.1869 140.138 13.0904C140.129 12.9755 140.171 12.9178 140.29 12.9034C140.354 12.8956 140.42 12.8981 140.485 12.8981C142.016 12.8979 143.546 12.8979 145.077 12.8981C145.134 12.8981 145.193 12.896 145.25 12.9017C145.382 12.9149 145.413 12.9549 145.413 13.0769C145.413 13.1854 145.354 13.2293 145.252 13.2327C145.093 13.2382 144.932 13.2338 144.774 13.2488C144.41 13.2834 144.129 13.5065 144.066 13.8104C144.038 13.9414 144.014 14.074 144.017 14.2095C144.019 14.3013 144.013 14.3931 144.013 14.485C144.014 16.7663 144.014 19.0474 144.017 21.3288C144.017 21.4414 144.023 21.5549 144.04 21.6664C144.103 22.1066 144.367 22.3471 144.831 22.3861C144.975 22.3982 145.121 22.3946 145.265 22.4005C145.375 22.405 145.413 22.4667 145.414 22.5685C145.414 22.6743 145.365 22.7261 145.259 22.7295C145.201 22.7314 145.143 22.7329 145.085 22.7329C143.547 22.7329 142.009 22.7329 140.472 22.7329C140.428 22.7329 140.384 22.7341 140.341 22.7316C140.184 22.7225 140.14 22.6868 140.137 22.5708C140.134 22.4453 140.181 22.4056 140.351 22.3976C140.452 22.3929 140.554 22.3936 140.655 22.3923C140.765 22.391 140.871 22.3726 140.976 22.3416C141.299 22.246 141.492 22.0271 141.515 21.6976C141.534 21.4232 141.562 21.1494 141.56 20.8731C141.555 20.0397 141.558 19.2063 141.558 18.3729C141.558 18.3165 141.561 18.2596 141.557 18.2034C141.548 18.0584 141.528 18.0404 141.372 18.031C141.336 18.0289 141.3 18.0298 141.263 18.0298C140.291 18.0298 139.319 18.0291 138.347 18.0298C138.057 18.0298 138.055 18.0319 138.055 18.3116C138.054 19.2862 138.056 20.2609 138.053 21.2355C138.053 21.4202 138.082 21.6015 138.103 21.7837C138.132 22.0326 138.297 22.1872 138.517 22.2909C138.655 22.356 138.803 22.3912 138.958 22.3921C139.081 22.3929 139.205 22.3916 139.328 22.4027C139.445 22.4131 139.48 22.4599 139.479 22.5679C139.479 22.672 139.426 22.7244 139.321 22.7288C139.263 22.7314 139.205 22.7326 139.147 22.7326C137.602 22.7326 136.057 22.7326 134.512 22.7326C134.454 22.7326 134.396 22.7314 134.338 22.7297C134.235 22.7265 134.176 22.6805 134.174 22.5742C134.172 22.4593 134.212 22.4099 134.341 22.4001C134.456 22.3912 134.572 22.3936 134.689 22.3927C134.843 22.3914 134.99 22.3577 135.133 22.3005C135.376 22.2027 135.512 22.0216 135.551 21.7735C135.579 21.5924 135.599 21.4102 135.599 21.2255C135.597 18.9514 135.597 16.677 135.597 14.4029C135.597 14.2544 135.59 14.1073 135.569 13.9597C135.505 13.522 135.235 13.2728 134.776 13.2438C134.631 13.2346 134.486 13.2372 134.341 13.2325C134.24 13.2291 134.179 13.1846 134.173 13.0784C134.168 12.9592 134.205 12.9127 134.332 12.9017C134.397 12.896 134.462 12.8987 134.528 12.8987C135.289 12.8987 136.051 12.8987 136.813 12.8987V12.8981Z" fill="white"/>
<path d="M73.3796 17.5379C73.4956 17.5707 73.6116 17.6038 73.7279 17.6361C74.0705 17.7311 74.4033 17.8494 74.7229 18.0046C75.7251 18.4911 76.2046 19.4611 75.9663 20.5262C75.8437 21.0744 75.5381 21.5089 75.0921 21.8542C74.5496 22.274 73.9175 22.4884 73.2459 22.611C72.7955 22.6931 72.3393 22.7276 71.8833 22.7298C70.2729 22.7376 68.6623 22.7329 67.0519 22.7329C67.0012 22.7329 66.9502 22.7344 66.8995 22.731C66.7489 22.7206 66.7051 22.6804 66.7082 22.5588C66.7108 22.449 66.753 22.4066 66.8895 22.3964C67.0699 22.383 67.251 22.3928 67.4304 22.3538C67.8551 22.2615 68.0545 22.0448 68.0824 21.6232C68.0917 21.4824 68.093 21.3408 68.093 21.1995C68.093 18.904 68.0928 16.6084 68.0909 14.3126C68.0909 14.1508 68.0915 13.989 68.0562 13.8277C67.9931 13.5399 67.8083 13.3745 67.5277 13.2954C67.3801 13.2538 67.2291 13.2405 67.076 13.2392C66.9964 13.2386 66.9163 13.2362 66.837 13.2286C66.7371 13.2188 66.7068 13.1518 66.7082 13.064C66.7095 12.975 66.7462 12.9137 66.8444 12.9043C66.8949 12.8997 66.9459 12.8982 66.9966 12.8982C68.6216 12.8982 70.2465 12.8876 71.8715 12.9037C72.4862 12.9099 73.1079 12.933 73.7028 13.1096C74.6502 13.391 75.2921 13.9901 75.5081 14.9406C75.6859 15.7231 75.4395 16.3925 74.7677 16.8877C74.505 17.0813 74.2081 17.2134 73.9014 17.325C73.732 17.3865 73.5594 17.4395 73.3883 17.4961C73.3855 17.5099 73.3826 17.5237 73.3796 17.5375V17.5379ZM70.4945 19.7868C70.4945 19.9774 70.4945 20.1681 70.4945 20.3587C70.4945 20.7188 70.4879 21.0791 70.4953 21.4392C70.5043 21.8728 70.7594 22.1163 71.2043 22.1341C71.4161 22.1426 71.6255 22.125 71.8301 22.0743C72.5361 21.8993 73.0359 21.4941 73.2518 20.8059C73.4455 20.188 73.4003 19.5779 73.1099 18.992C72.9307 18.6306 72.6619 18.3518 72.2888 18.1755C72.1915 18.1295 72.0885 18.0911 71.984 18.064C71.5611 17.9548 71.1283 17.917 70.6923 17.9124C70.5212 17.9105 70.5047 17.9323 70.4962 18.0922C70.4932 18.1486 70.4949 18.2052 70.4949 18.2616C70.4949 18.7702 70.4949 19.2785 70.4949 19.787L70.4945 19.7868ZM70.4949 15.3895C70.4949 15.9542 70.4934 16.5189 70.4958 17.0836C70.4966 17.2843 70.5147 17.3031 70.7219 17.2978C71.0702 17.2891 71.4194 17.2641 71.7529 17.1619C72.4053 16.9621 72.8334 16.5501 72.9743 15.883C73.0363 15.5893 73.0328 15.2913 72.996 14.9972C72.9092 14.3018 72.4523 13.8043 71.7579 13.6247C71.4335 13.541 71.1009 13.5168 70.7679 13.5045C70.503 13.4947 70.496 13.5064 70.4953 13.7583C70.494 14.3018 70.4949 14.8456 70.4951 15.3891L70.4949 15.3895Z" fill="white"/>
<path d="M143.731 32.1885C143.731 31.4048 143.732 30.6212 143.731 29.8374C143.731 29.3575 143.719 28.8783 143.703 28.3984C143.686 27.8903 143.356 27.6767 142.927 27.6186C142.791 27.6004 142.651 27.6127 142.514 27.6074C142.344 27.6008 142.304 27.5654 142.306 27.4326C142.308 27.3029 142.346 27.2728 142.523 27.266C142.566 27.2643 142.61 27.2653 142.653 27.2653C144.082 27.2653 145.51 27.2581 146.938 27.2687C147.561 27.2734 148.183 27.3207 148.794 27.4604C150.709 27.8992 151.871 29.0734 152.321 30.9187C152.554 31.8755 152.532 32.8394 152.241 33.7864C151.803 35.2146 150.877 36.2067 149.425 36.7078C148.828 36.9133 148.217 37.0498 147.579 37.0778C147.188 37.0952 146.797 37.1011 146.406 37.1018C145.159 37.1039 143.912 37.1026 142.664 37.1024C142.599 37.1024 142.534 37.1014 142.469 37.1001C142.366 37.0982 142.306 37.0545 142.306 36.9463C142.306 36.8278 142.342 36.7775 142.469 36.768C142.62 36.7568 142.773 36.7597 142.925 36.7542C143.089 36.7483 143.236 36.6967 143.372 36.6073C143.579 36.4713 143.687 36.2892 143.698 36.0419C143.719 35.6046 143.735 35.1678 143.733 34.7301C143.729 33.8829 143.732 33.0357 143.732 32.1883L143.731 32.1885ZM146.191 31.9805H146.193C146.193 33.2376 146.193 34.4947 146.193 35.752C146.193 35.8792 146.2 36.0052 146.231 36.1305C146.264 36.2656 146.343 36.3558 146.471 36.4124C146.584 36.4631 146.701 36.4974 146.827 36.4978C146.972 36.4985 147.118 36.5072 147.262 36.4944C147.878 36.4397 148.413 36.2241 148.814 35.7431C149.141 35.3516 149.34 34.9014 149.48 34.4215C149.668 33.7777 149.715 33.1157 149.74 32.4523C149.762 31.8579 149.71 31.2661 149.604 30.6814C149.492 30.0654 149.295 29.4765 148.929 28.9519C148.528 28.378 147.995 28.0213 147.271 27.9437C147.018 27.9166 146.765 27.9181 146.513 27.8894C146.204 27.8544 146.191 27.8663 146.191 28.1668C146.191 29.4381 146.191 30.7094 146.191 31.9807L146.191 31.9805Z" fill="white"/>
<path d="M119.894 22.7328C119.146 22.7328 118.399 22.7328 117.652 22.7328C117.594 22.7328 117.536 22.7345 117.478 22.7315C117.313 22.7233 117.279 22.6967 117.274 22.5744C117.269 22.445 117.298 22.416 117.451 22.3878C117.558 22.3683 117.667 22.3532 117.77 22.3212C118.018 22.244 118.097 22.0807 118.01 21.8445C117.948 21.6767 117.848 21.5291 117.747 21.3822C117.399 20.877 116.984 20.4218 116.601 19.9423C116.178 19.4128 115.744 18.8915 115.315 18.3667C115.306 18.3556 115.299 18.3425 115.288 18.3332C115.212 18.2666 115.178 18.134 115.043 18.1546C114.92 18.1735 114.762 18.3822 114.761 18.5211C114.757 18.9026 114.758 19.2838 114.759 19.6653C114.759 20.2517 114.76 20.8378 114.763 21.4242C114.763 21.537 114.776 21.649 114.79 21.7616C114.826 22.0504 115.005 22.2115 115.268 22.3106C115.433 22.3729 115.604 22.3907 115.78 22.3941C115.859 22.3958 115.942 22.4016 115.974 22.4957C116.02 22.6287 115.964 22.7156 115.818 22.729C115.761 22.7343 115.702 22.7319 115.644 22.7319C114.164 22.7319 112.685 22.7319 111.205 22.7319C111.161 22.7319 111.118 22.7332 111.074 22.7307C110.916 22.7216 110.878 22.6876 110.882 22.5642C110.885 22.4433 110.926 22.4069 111.081 22.3977C111.182 22.3916 111.284 22.3941 111.385 22.3916C111.472 22.3895 111.559 22.3831 111.644 22.3608C112.055 22.2533 112.238 22.0402 112.266 21.6246C112.275 21.4838 112.276 21.3421 112.276 21.2009C112.277 18.9335 112.277 16.6659 112.276 14.3986C112.276 14.2786 112.268 14.1583 112.27 14.0385C112.283 13.4761 111.869 13.2891 111.488 13.2458C111.345 13.2295 111.198 13.238 111.054 13.232C110.968 13.2284 110.897 13.2043 110.884 13.104C110.868 12.9807 110.913 12.918 111.043 12.9025C111.1 12.8957 111.159 12.8978 111.217 12.8978C112.675 12.8976 114.133 12.8978 115.591 12.8978C115.649 12.8978 115.707 12.8989 115.765 12.901C115.868 12.9048 115.927 12.9515 115.93 13.0571C115.932 13.1708 115.893 13.2212 115.763 13.2323C115.612 13.2452 115.46 13.2509 115.313 13.2954C115.023 13.3835 114.844 13.5635 114.797 13.8623C114.778 13.9815 114.763 14.1 114.762 14.2202C114.761 15.2587 114.759 16.297 114.76 17.3354C114.76 17.3946 114.731 17.476 114.806 17.5051C114.865 17.5278 114.907 17.4635 114.951 17.4289C116.136 16.4976 117.323 15.5681 118.505 14.6321C118.723 14.4588 118.933 14.2711 119.083 14.0321C119.303 13.681 119.167 13.3794 118.751 13.2842C118.587 13.2467 118.421 13.2465 118.254 13.2348C118.109 13.2246 118.063 13.1741 118.069 13.0552C118.073 12.9642 118.116 12.9089 118.213 12.9027C118.264 12.8995 118.315 12.8976 118.365 12.8976C119.49 12.8974 120.614 12.8974 121.739 12.8976C121.782 12.8976 121.826 12.8989 121.869 12.9C121.971 12.9027 122.032 12.9424 122.034 13.0522C122.035 13.1502 122.003 13.2172 121.896 13.2333C121.889 13.2344 121.881 13.2365 121.874 13.2367C121.39 13.2526 121.008 13.4929 120.646 13.7728C119.907 14.3432 119.169 14.915 118.432 15.4873C117.985 15.8351 117.538 16.1841 117.092 16.5349C116.917 16.6729 116.919 16.6791 117.06 16.8521C118.191 18.232 119.32 19.6136 120.455 20.9909C120.777 21.3822 121.121 21.755 121.532 22.0627C121.774 22.2436 122.041 22.3581 122.345 22.3905C122.506 22.4077 122.544 22.4448 122.546 22.5585C122.547 22.6664 122.51 22.7118 122.396 22.726C122.331 22.7341 122.265 22.7317 122.2 22.7317C121.431 22.7322 120.662 22.7317 119.893 22.7317L119.894 22.7328Z" fill="white"/>
<path d="M135.903 27.136C136.611 27.1133 137.28 27.1752 137.927 27.3869C139.462 27.8888 140.503 28.9025 141.025 30.3769C141.527 31.7988 141.444 33.2243 140.75 34.5774C139.999 36.0411 138.791 36.9498 137.119 37.231C136.178 37.3892 135.24 37.3567 134.315 37.1167C132.951 36.7627 131.945 35.9609 131.266 34.7647C130.867 34.0604 130.669 33.301 130.624 32.4978C130.579 31.6962 130.662 30.9118 130.99 30.1746C131.673 28.6399 132.835 27.6327 134.526 27.2454C134.987 27.1398 135.458 27.1137 135.903 27.136ZM133.349 32.2161C133.332 32.8754 133.386 33.5568 133.53 34.2294C133.655 34.8073 133.851 35.3585 134.202 35.8477C134.482 36.2368 134.847 36.511 135.321 36.6412C135.562 36.7072 135.806 36.7159 136.054 36.7157C136.742 36.7152 137.282 36.4383 137.697 35.9092C138.011 35.509 138.201 35.0535 138.337 34.5745C138.518 33.9377 138.567 33.2824 138.594 32.6267C138.622 31.9702 138.581 31.3145 138.509 30.6615C138.448 30.1119 138.326 29.5762 138.09 29.0687C137.738 28.3129 137.193 27.7883 136.314 27.6774C135.623 27.59 135.006 27.754 134.496 28.2385C133.995 28.715 133.735 29.3145 133.575 29.9615C133.395 30.6927 133.336 31.4375 133.349 32.2159L133.349 32.2161Z" fill="white"/>
<path d="M93.1165 12.7698C93.7036 12.7473 94.2643 12.7986 94.817 12.9352C95.652 13.1415 96.371 13.5408 96.9871 14.1289C97.7533 14.8603 98.2398 15.734 98.4135 16.7627C98.6743 18.3084 98.3972 19.7434 97.4192 21.0153C96.6701 21.9895 95.6797 22.5992 94.4496 22.8293C93.4143 23.0229 92.3821 23.0043 91.3716 22.7065C89.677 22.2075 88.5931 21.0851 88.0585 19.4684C87.6795 18.3222 87.67 17.1476 88.1051 16.0135C88.7864 14.2377 90.101 13.1604 92.0286 12.8207C92.3934 12.7564 92.7645 12.7547 93.1167 12.7698H93.1165ZM95.7737 17.8249C95.7888 17.2759 95.7544 16.7056 95.6797 16.1379C95.5924 15.4735 95.4061 14.842 95.038 14.2657C94.3249 13.1485 92.6679 12.9371 91.6946 13.8475C91.2867 14.229 91.0366 14.7019 90.8659 15.2199C90.6128 15.9876 90.5544 16.7828 90.5231 17.5804C90.5011 18.1381 90.5412 18.695 90.6106 19.2484C90.6975 19.9396 90.8655 20.6088 91.219 21.2232C91.4783 21.6738 91.8248 22.032 92.3327 22.2167C92.7362 22.3634 93.1544 22.3819 93.5758 22.3221C94.1194 22.2447 94.5491 21.9792 94.8788 21.5531C95.2535 21.0692 95.4657 20.5176 95.5937 19.9321C95.7437 19.2455 95.7892 18.5493 95.7735 17.8251L95.7737 17.8249Z" fill="white"/>
<path d="M124.968 27.2652C126.368 27.2652 127.768 27.2652 129.168 27.2652C129.505 27.2652 129.512 27.2714 129.512 27.5935C129.513 28.2787 129.512 28.9639 129.512 29.6488C129.512 29.7052 129.511 29.7618 129.508 29.8182C129.504 29.9052 129.47 29.9684 129.369 29.976C129.276 29.9832 129.193 29.9697 129.159 29.8687C129.141 29.8151 129.127 29.7604 129.11 29.7061C129.019 29.4007 128.923 29.0958 128.759 28.8184C128.491 28.3633 128.11 28.0465 127.57 27.9347C127.514 27.9231 127.455 27.9141 127.398 27.9133C127.072 27.908 126.745 27.9021 126.419 27.9035C126.234 27.9044 126.212 27.9328 126.204 28.1165C126.203 28.1517 126.204 28.1871 126.204 28.2225C126.204 30.6735 126.204 33.1243 126.204 35.5753C126.204 35.7023 126.213 35.8295 126.211 35.9566C126.2 36.478 126.551 36.6922 126.992 36.7509C127.135 36.77 127.282 36.7562 127.427 36.7647C127.584 36.7738 127.632 36.8392 127.607 36.9855C127.595 37.0514 127.558 37.0866 127.493 37.0936C127.436 37.1 127.378 37.1021 127.32 37.1021C125.753 37.1025 124.186 37.1025 122.619 37.1023C122.576 37.1023 122.532 37.1038 122.489 37.0998C122.352 37.0868 122.319 37.0536 122.319 36.9318C122.32 36.8107 122.352 36.7743 122.49 36.7652C122.613 36.7571 122.736 36.7584 122.86 36.7575C123.023 36.7562 123.174 36.7098 123.319 36.6398C123.507 36.5491 123.618 36.4015 123.671 36.2064C123.71 36.0615 123.718 35.9137 123.718 35.7651C123.719 35.1223 123.72 34.4796 123.721 33.8368C123.721 31.9651 123.721 30.0933 123.721 28.2216C123.721 27.9025 123.72 27.9012 123.398 27.9019C123.101 27.9023 122.803 27.8891 122.507 27.9222C121.822 27.9988 121.374 28.386 121.081 28.9694C120.953 29.2243 120.859 29.4906 120.808 29.771C120.795 29.8382 120.791 29.9145 120.72 29.9565C120.593 30.0305 120.453 29.958 120.448 29.81C120.442 29.6407 120.446 29.4709 120.446 29.3015C120.446 28.7223 120.445 28.1432 120.446 27.564C120.446 27.2686 120.448 27.2652 120.746 27.2652C122.153 27.2646 123.561 27.265 124.968 27.265V27.2652Z" fill="white"/>
<path d="M132.607 20.4979C132.607 20.7432 132.608 20.9888 132.606 21.2342C132.605 21.3101 132.554 21.3637 132.502 21.4146C131.625 22.2775 130.594 22.8185 129.329 22.9179C128.464 22.9858 127.619 22.923 126.789 22.6876C125.64 22.3617 124.703 21.7382 124.053 20.7502C123.526 19.9499 123.247 19.0724 123.227 18.1111C123.198 16.752 123.661 15.5681 124.549 14.5475C125.463 13.4963 126.651 12.905 128.054 12.7233C129.09 12.5891 130.074 12.785 131.033 13.15C131.243 13.2297 131.451 13.3111 131.672 13.3595C131.989 13.4288 132.227 13.3147 132.356 13.0225C132.384 12.9581 132.399 12.8881 132.422 12.8211C132.461 12.701 132.518 12.6713 132.65 12.6868C132.768 12.7006 132.782 12.7789 132.783 12.8696C132.783 12.912 132.783 12.9545 132.783 12.9967C132.783 13.9289 132.783 14.8613 132.783 15.7935C132.783 15.8429 132.782 15.8923 132.782 15.9418C132.783 16.0355 132.76 16.1112 132.643 16.118C132.542 16.1237 132.453 16.1108 132.42 15.9973C132.405 15.943 132.389 15.8887 132.372 15.8345C132.194 15.2415 131.907 14.7063 131.451 14.2711C130.838 13.6865 130.095 13.3682 129.237 13.3818C128.109 13.3996 127.238 13.9045 126.635 14.8299C126.316 15.3196 126.147 15.8722 126.049 16.438C125.839 17.6537 125.913 18.8582 126.271 20.0424C126.437 20.5916 126.701 21.0876 127.128 21.4958C127.516 21.8667 127.983 22.0767 128.509 22.1626C129.396 22.3074 130.244 22.1916 131.032 21.7543C131.477 21.5075 131.851 21.1724 132.205 20.8162C132.319 20.7013 132.433 20.5863 132.547 20.4714C132.567 20.4803 132.587 20.4892 132.606 20.4981L132.607 20.4979Z" fill="white"/>
<path d="M109.272 20.4691C109.287 20.7517 109.29 21.009 109.271 21.2666C109.267 21.3252 109.221 21.3669 109.18 21.4076C108.308 22.2784 107.275 22.8147 106.011 22.9169C105.154 22.986 104.316 22.9258 103.492 22.6966C102.302 22.3657 101.341 21.7168 100.682 20.6888C100.194 19.9272 99.9295 19.0909 99.9004 18.1852C99.8553 16.7826 100.334 15.5647 101.256 14.5059C101.869 13.801 102.644 13.3143 103.533 12.9982C104.23 12.7503 104.952 12.6466 105.692 12.6881C106.385 12.7269 107.051 12.8955 107.695 13.146C107.91 13.2297 108.129 13.3073 108.354 13.3608C108.656 13.432 108.901 13.3112 109.023 13.0327C109.054 12.9617 109.07 12.8847 109.097 12.8115C109.136 12.704 109.192 12.6765 109.314 12.6868C109.43 12.6966 109.455 12.7679 109.454 12.8624C109.453 12.9118 109.455 12.9613 109.455 13.0107C109.455 13.9357 109.455 14.8609 109.455 15.7859C109.455 15.8423 109.453 15.8989 109.453 15.9553C109.453 16.0425 109.427 16.1091 109.323 16.1169C109.225 16.1244 109.131 16.1184 109.094 16.0062C109.073 15.9458 109.058 15.8841 109.039 15.8232C108.855 15.2333 108.577 14.6944 108.116 14.2614C107.516 13.6984 106.796 13.3807 105.963 13.382C104.789 13.3837 103.884 13.8981 103.281 14.8757C102.894 15.5028 102.726 16.2052 102.653 16.9298C102.555 17.9091 102.627 18.8752 102.882 19.8274C102.982 20.1974 103.117 20.5535 103.315 20.8864C103.761 21.6333 104.42 22.0616 105.299 22.1781C106.145 22.2902 106.945 22.17 107.694 21.7584C107.967 21.6083 108.214 21.424 108.447 21.2217C108.653 21.0433 108.854 20.8605 109.033 20.6559C109.088 20.5929 109.141 20.5221 109.272 20.4686L109.272 20.4691Z" fill="white"/>
<path d="M161.727 37.1029C161.038 37.1029 160.348 37.1029 159.659 37.1029C159.601 37.1029 159.543 37.1043 159.485 37.102C159.312 37.0946 159.274 37.063 159.277 36.9292C159.279 36.7988 159.314 36.771 159.495 36.7634C159.589 36.7593 159.683 36.76 159.777 36.7566C159.828 36.7549 159.879 36.7523 159.929 36.7449C160.39 36.676 160.554 36.4357 160.388 36.0141C160.181 35.4867 159.942 34.971 159.723 34.4481C159.67 34.3227 159.575 34.3121 159.46 34.3126C158.909 34.314 158.357 34.3132 157.806 34.3132C157.334 34.3132 156.863 34.3183 156.391 34.3104C156.233 34.3079 156.133 34.3535 156.074 34.503C155.924 34.8851 155.722 35.2469 155.601 35.6411C155.559 35.7785 155.543 35.9172 155.547 36.0593C155.556 36.3607 155.731 36.5839 156.031 36.6622C156.241 36.7171 156.457 36.7434 156.675 36.7578C156.757 36.7634 156.834 36.7761 156.854 36.8762C156.884 37.0214 156.835 37.0878 156.681 37.1014C156.659 37.1033 156.637 37.1029 156.616 37.1029C155.643 37.1029 154.671 37.1035 153.699 37.102C153.608 37.102 153.503 37.1179 153.468 36.9953C153.434 36.8768 153.479 36.7911 153.606 36.754C153.745 36.7135 153.884 36.6743 154.012 36.606C154.241 36.4845 154.414 36.3087 154.558 36.1C154.84 35.6939 155.047 35.2503 155.253 34.806C155.67 33.9048 156.083 33.0016 156.498 32.0991C157.025 30.9516 157.551 29.8039 158.078 28.6565C158.291 28.1925 158.506 27.7291 158.721 27.2656C158.739 27.227 158.757 27.1875 158.782 27.1532C158.856 27.0503 158.959 27.0501 159.022 27.1589C159.079 27.2569 159.123 27.3623 159.17 27.4658C159.777 28.8104 160.382 30.1557 160.99 31.5002C161.568 32.78 162.149 34.0585 162.729 35.3377C162.872 35.6549 163.041 35.9588 163.233 36.251C163.415 36.5284 163.659 36.7103 164 36.7525C164.107 36.7659 164.175 36.8056 164.173 36.9249C164.171 37.0503 164.144 37.087 164.011 37.0993C163.946 37.1052 163.881 37.1027 163.816 37.1027C163.119 37.1027 162.423 37.1027 161.726 37.1027L161.727 37.1029ZM157.94 30.5404C157.889 30.5568 157.878 30.5907 157.863 30.6225C157.433 31.5628 157.002 32.5026 156.574 33.4435C156.449 33.7179 156.462 33.7358 156.772 33.7364C157.532 33.7383 158.293 33.737 159.053 33.7368C159.104 33.7368 159.155 33.7375 159.205 33.7307C159.336 33.7126 159.355 33.6819 159.313 33.5648C159.306 33.5449 159.295 33.5265 159.286 33.5072C158.875 32.5819 158.464 31.6565 158.052 30.7319C158.022 30.6638 158.003 30.5856 157.94 30.5404Z" fill="white"/>
<path d="M154.32 22.7326C153.624 22.7326 152.928 22.7326 152.232 22.7326C152.166 22.7326 152.101 22.7315 152.036 22.7296C151.933 22.7264 151.875 22.6821 151.875 22.5737C151.875 22.4514 151.905 22.4117 152.039 22.4001C152.14 22.3911 152.242 22.3924 152.343 22.3911C152.482 22.3895 152.618 22.3682 152.748 22.3224C152.975 22.2429 153.08 22.076 153.043 21.8434C153.029 21.7537 153.001 21.6636 152.965 21.5796C152.754 21.0842 152.535 20.592 152.326 20.0956C152.276 19.9768 152.2 19.9408 152.076 19.941C151.032 19.9435 149.988 19.9444 148.944 19.9401C148.797 19.9395 148.722 19.9955 148.669 20.1257C148.544 20.4342 148.404 20.7369 148.273 21.0433C148.186 21.2473 148.136 21.4587 148.143 21.6822C148.154 21.9942 148.309 22.2014 148.617 22.2911C148.833 22.354 149.058 22.3729 149.282 22.3918C149.377 22.3998 149.449 22.4264 149.454 22.539C149.46 22.6711 149.425 22.7177 149.287 22.7302C149.236 22.7349 149.185 22.7328 149.135 22.7328C148.221 22.7328 147.307 22.733 146.393 22.7328C146.336 22.7328 146.277 22.7315 146.22 22.7294C146.128 22.7258 146.068 22.6857 146.062 22.5903C146.056 22.4989 146.074 22.4196 146.18 22.3922C146.37 22.3434 146.552 22.2802 146.72 22.174C146.939 22.0349 147.094 21.8449 147.227 21.6309C147.513 21.1703 147.736 20.68 147.961 20.1904C148.578 18.8508 149.195 17.5112 149.812 16.1714C150.295 15.1215 150.778 14.0714 151.261 13.0214C151.3 12.9377 151.335 12.8518 151.385 12.7744C151.449 12.6754 151.544 12.676 151.608 12.775C151.654 12.8463 151.687 12.9258 151.722 13.0032C152.52 14.7667 153.317 16.5304 154.113 18.2943C154.511 19.1731 154.905 20.0525 155.304 20.9303C155.437 21.2208 155.587 21.5028 155.754 21.7764C155.952 22.1008 156.21 22.3383 156.614 22.3909C156.746 22.4081 156.773 22.456 156.767 22.5769C156.761 22.6923 156.728 22.7281 156.582 22.7298C156.184 22.7347 155.785 22.7324 155.386 22.7326C155.031 22.7326 154.675 22.7326 154.32 22.7326ZM150.541 16.172C150.478 16.1835 150.466 16.2278 150.449 16.2651C150.015 17.2133 149.581 18.161 149.15 19.1101C149.037 19.3593 149.046 19.3706 149.319 19.371C150.117 19.3718 150.915 19.3714 151.713 19.3712C151.764 19.3712 151.815 19.3714 151.865 19.3665C151.929 19.3602 151.953 19.3228 151.934 19.263C151.921 19.2227 151.904 19.1833 151.887 19.1445C151.48 18.2237 151.073 17.303 150.664 16.3828C150.63 16.3075 150.606 16.2244 150.541 16.1722L150.541 16.172Z" fill="white"/>
<path d="M81.5553 22.7326C80.192 22.7326 78.8285 22.7326 77.4652 22.7326C77.3999 22.7326 77.3343 22.7351 77.2695 22.7303C77.1278 22.7194 77.0966 22.6887 77.0951 22.5678C77.0934 22.4453 77.1251 22.4115 77.2623 22.3988C77.3126 22.3941 77.3637 22.3971 77.4144 22.3956C77.5159 22.3927 77.6191 22.3994 77.7185 22.3842C78.1876 22.3119 78.4101 22.1113 78.4647 21.7134C78.4822 21.5868 78.4906 21.4604 78.4906 21.3336C78.4913 18.9893 78.4915 16.645 78.4906 14.3006C78.4906 14.1808 78.4841 14.0606 78.4732 13.9412C78.4382 13.5554 78.239 13.3336 77.7264 13.2494C77.5777 13.2251 77.4223 13.2424 77.2703 13.2329C77.121 13.2236 77.0801 13.1672 77.096 13.0278C77.1047 12.9517 77.1454 12.9121 77.2196 12.9055C77.2845 12.8995 77.3498 12.8983 77.4151 12.8983C78.9961 12.8978 80.5771 12.8978 82.1579 12.8983C82.2158 12.8983 82.2739 12.8995 82.3318 12.9014C82.4356 12.9048 82.4925 12.9538 82.4946 13.0588C82.497 13.1731 82.4554 13.224 82.327 13.2321C82.1897 13.2405 82.0517 13.2363 81.9139 13.2376C81.7754 13.2388 81.6411 13.2577 81.5077 13.2995C81.1855 13.4004 81.0205 13.6229 80.9907 13.9389C80.9648 14.2126 80.9491 14.4883 80.9487 14.7631C80.9452 16.712 80.9454 18.661 80.9487 20.6099C80.9491 20.8919 80.9667 21.1742 80.9863 21.4556C81.0155 21.8784 81.2066 22.061 81.6392 22.0968C82.3053 22.1522 82.9724 22.1566 83.6364 22.0852C84.2302 22.0213 84.7224 21.7586 85.1035 21.3014C85.4618 20.8715 85.6784 20.373 85.8667 19.8594C85.9253 19.6999 85.9782 19.5383 86.0326 19.3774C86.0607 19.294 86.1144 19.2527 86.208 19.2484C86.3754 19.241 86.4152 19.2747 86.3974 19.4397C86.3103 20.2394 86.2211 21.0389 86.1338 21.8385C86.1109 22.0489 86.0933 22.2601 86.0722 22.4707C86.0487 22.7067 86.023 22.732 85.7766 22.7322C84.3697 22.7332 82.9629 22.7326 81.5558 22.7328L81.5553 22.7326Z" fill="white"/>
<path d="M91.0532 28.1142C83.1316 28.1142 75.2101 28.1142 67.2885 28.1142C67.1943 28.1142 67.0998 28.114 67.0057 28.1089C66.9211 28.1042 66.8736 28.0586 66.8712 27.9734C66.8708 27.9592 66.8693 27.9452 66.8693 27.931C66.8677 27.5107 66.8362 27.5245 67.2552 27.5245C83.1129 27.5245 98.9704 27.5245 114.828 27.5245C114.835 27.5245 114.843 27.5245 114.85 27.5245C115.244 27.5249 115.298 27.5891 115.239 27.9766C115.226 28.0614 115.184 28.1051 115.1 28.1091C115.006 28.1136 114.912 28.114 114.818 28.114C106.896 28.114 98.9745 28.114 91.053 28.114L91.0532 28.1142Z" fill="white"/>
<path d="M37.9204 35.4986C37.9204 34.6656 37.9198 33.8325 37.9204 32.9995C37.9206 32.7348 37.9418 32.724 38.1823 32.8591C39.6701 33.6955 41.1571 34.5335 42.6473 35.3661C42.791 35.4464 42.8506 35.5421 42.8502 35.7035C42.8459 37.3766 42.8476 39.0498 42.8472 40.7232C42.8472 40.7654 42.8482 40.8084 42.8413 40.85C42.8243 40.9488 42.7851 40.9736 42.6913 40.9265C42.5304 40.8457 42.3746 40.755 42.2178 40.6668C40.8682 39.9078 39.5206 39.1452 38.1668 38.3932C37.9857 38.2925 37.9137 38.1797 37.9161 37.9768C37.9263 37.1508 37.9202 36.3248 37.9202 35.4988L37.9204 35.4986Z" fill="white"/>
<path d="M43.3574 27.8963C43.2877 27.8918 43.2353 27.8513 43.1793 27.8199C42.3565 27.3589 41.5339 26.8975 40.7117 26.4352C40.0339 26.0541 39.3562 25.6728 38.6797 25.2894C38.4494 25.1588 38.452 25.1391 38.6786 25.0116C39.8715 24.3417 41.0637 23.6712 42.2564 23.0008C42.5513 22.835 42.8491 22.6738 43.1402 22.5017C43.2847 22.4162 43.4031 22.4081 43.5588 22.4968C44.6472 23.1171 45.7414 23.7272 46.8344 24.3398C47.2175 24.5546 47.6019 24.7673 47.9853 24.9815C48.0419 25.0131 48.0971 25.0468 48.152 25.0812C48.2332 25.1318 48.2195 25.1793 48.145 25.2235C48.0893 25.2563 48.034 25.29 47.9774 25.3219C46.7602 26.007 45.5429 26.692 44.3256 27.3771C44.062 27.5254 43.7991 27.6747 43.535 27.8223C43.4789 27.8537 43.424 27.8899 43.3576 27.8963H43.3574Z" fill="white"/>
<path d="M158.894 17.8165C158.894 16.6516 158.894 15.4868 158.894 14.3219C158.894 14.2231 158.888 14.1243 158.889 14.0255C158.892 13.5174 158.548 13.3089 158.136 13.2495C157.986 13.2281 157.832 13.2398 157.68 13.2328C157.597 13.229 157.521 13.2146 157.501 13.1138C157.475 12.9802 157.522 12.9136 157.663 12.9011C157.721 12.896 157.779 12.8986 157.837 12.8986C159.367 12.8986 160.897 12.8986 162.427 12.8986C162.492 12.8986 162.557 12.9001 162.623 12.902C162.727 12.9052 162.782 12.9531 162.781 13.06C162.78 13.1815 162.749 13.223 162.616 13.2324C162.486 13.2415 162.355 13.2394 162.225 13.2411C162.037 13.2434 161.869 13.306 161.712 13.3976C161.561 13.4854 161.474 13.6215 161.43 13.7844C161.393 13.9216 161.381 14.062 161.381 14.204C161.381 15.2843 161.379 16.3643 161.379 17.4445C161.379 18.673 161.379 19.9015 161.379 21.1297C161.379 21.278 161.379 21.4264 161.387 21.5744C161.414 22.0823 161.704 22.3631 162.224 22.3896C162.362 22.3966 162.5 22.3955 162.637 22.4017C162.733 22.4059 162.778 22.457 162.78 22.552C162.783 22.6759 162.752 22.7153 162.621 22.7293C162.564 22.7355 162.505 22.7331 162.447 22.7331C160.91 22.7331 159.373 22.7331 157.836 22.7331C157.778 22.7331 157.719 22.7355 157.662 22.7304C157.528 22.7185 157.498 22.6814 157.496 22.5586C157.495 22.4519 157.548 22.4023 157.653 22.3996C157.754 22.3968 157.856 22.3964 157.957 22.3938C158.059 22.3915 158.16 22.3881 158.259 22.3624C158.671 22.2568 158.86 22.0422 158.883 21.6291C158.897 21.3897 158.896 21.1492 158.896 20.9092C158.897 19.8784 158.897 18.8477 158.897 17.8169C158.895 17.8169 158.894 17.8169 158.893 17.8169L158.894 17.8165Z" fill="white"/>
<path d="M60.6989 15.588C60.6989 16.3434 60.6884 17.0987 60.705 17.8537C60.7102 18.092 60.6279 18.2205 60.4185 18.3365C59.0014 19.1222 57.5915 19.9202 56.1792 20.7141C56.1165 20.7493 56.0558 20.7882 55.9924 20.8225C55.8133 20.9192 55.78 20.9018 55.7722 20.7101C55.7711 20.6819 55.7717 20.6537 55.7717 20.6255C55.7717 19.0868 55.7743 17.5479 55.7676 16.0091C55.7667 15.8166 55.8279 15.7006 56.0027 15.6033C57.4875 14.7766 58.9673 13.9413 60.4494 13.1103C60.5149 13.0736 60.5831 12.9894 60.6612 13.0399C60.7333 13.0863 60.6976 13.1839 60.6978 13.2587C60.6998 14.0351 60.6991 14.8116 60.6991 15.588H60.6987H60.6989Z" fill="white"/>
<path d="M36.8896 15.5872C36.8896 16.3426 36.8791 17.0979 36.8956 17.8529C36.9009 18.0908 36.8201 18.2206 36.6101 18.3362C35.4683 18.9651 34.3351 19.6085 33.1988 20.2466C32.8599 20.4371 32.521 20.6277 32.1812 20.8169C31.9926 20.9218 31.9635 20.9061 31.9626 20.689C31.9604 20.1525 31.962 19.6162 31.962 19.0797C31.962 18.0562 31.9663 17.0326 31.958 16.0092C31.9565 15.816 32.0196 15.7036 32.1951 15.6061C33.5547 14.8505 34.9085 14.0852 36.2639 13.3226C36.3895 13.252 36.5128 13.1774 36.6401 13.1101C36.7069 13.0749 36.7742 12.9897 36.8521 13.0393C36.9248 13.0855 36.8878 13.1831 36.8882 13.2577C36.8909 13.6742 36.8896 14.0907 36.8896 14.507C36.8896 14.8671 36.8896 15.2269 36.8896 15.587V15.5872Z" fill="white"/>
<path d="M54.7393 18.2958C54.7393 19.0796 54.7399 19.8633 54.739 20.6473C54.7388 20.9118 54.7173 20.923 54.4767 20.7879C52.9821 19.9482 51.4884 19.1067 49.9919 18.2703C49.8606 18.197 49.8086 18.1045 49.8116 17.9631C49.8164 17.723 49.8127 17.483 49.8125 17.2429C49.8125 15.9366 49.8121 14.6301 49.8121 13.3238C49.8121 12.9682 49.8182 12.9629 50.1264 13.1361C51.0936 13.6796 52.0592 14.2255 53.0257 14.7701C53.534 15.0566 54.0398 15.3473 54.5529 15.6253C54.6931 15.7012 54.743 15.7928 54.7419 15.9447C54.7362 16.7284 54.7393 17.5122 54.7393 18.296V18.2958Z" fill="white"/>
<path d="M42.848 31.8236C42.848 32.5297 42.848 33.2357 42.848 33.9418C42.848 33.9982 42.8497 34.0549 42.8465 34.1113C42.8365 34.2811 42.8062 34.3004 42.6503 34.2139C42.0896 33.9032 41.531 33.5885 40.972 33.2747C40.2622 32.8764 39.5526 32.4778 38.8429 32.0791C38.7676 32.0367 38.6912 31.996 38.6181 31.9502C38.4713 31.8588 38.4705 31.8238 38.627 31.7353C39.3858 31.307 40.1466 30.8814 40.9065 30.4547C41.4779 30.1336 42.0487 29.8111 42.621 29.4917C42.8271 29.3766 42.8469 29.3883 42.8476 29.6203C42.8491 30.3546 42.848 31.089 42.8482 31.8234L42.848 31.8236Z" fill="white"/>
<path d="M37.9203 28.4832C37.9203 27.7567 37.9198 27.03 37.9203 26.3035C37.9203 26.0367 37.9333 26.0295 38.1604 26.1571C39.4586 26.8873 40.7573 27.617 42.0551 28.3479C42.3191 28.4968 42.3165 28.5036 42.0461 28.6556C40.7666 29.3752 39.488 30.0966 38.2074 30.8142C38.1303 30.8573 38.0511 30.9584 37.9586 30.902C37.8815 30.8551 37.9216 30.7449 37.9213 30.6628C37.9192 29.9363 37.92 29.2095 37.92 28.483L37.9203 28.4832Z" fill="white"/>
<path d="M37.9205 21.7894C37.9205 21.0554 37.9201 20.3215 37.9207 19.5876C37.921 19.3496 37.9349 19.3414 38.1393 19.4561C39.4456 20.1881 40.7519 20.9206 42.0573 21.6539C42.3233 21.8034 42.3211 21.8083 42.051 21.9603C40.8087 22.6593 39.5668 23.3591 38.3248 24.0582C38.2431 24.1042 38.1621 24.1515 38.0779 24.1923C37.9584 24.2501 37.9299 24.2317 37.9207 24.097C37.9175 24.0478 37.9197 23.9982 37.9197 23.9488C37.9197 23.2289 37.9197 22.5091 37.9197 21.7892H37.9201L37.9205 21.7894Z" fill="white"/>
<path d="M43.8801 31.8492C43.8801 31.1149 43.8797 30.3805 43.8803 29.6461C43.8805 29.3851 43.8951 29.3783 44.1248 29.5075C45.4056 30.2278 46.6871 30.9469 47.9668 31.6692C48.0515 31.7171 48.1914 31.7419 48.1962 31.841C48.2015 31.947 48.0578 31.9688 47.9746 32.0159C46.6956 32.7391 45.4143 33.4586 44.1326 34.1775C44.0662 34.2146 43.9966 34.2947 43.9191 34.2485C43.8437 34.2035 43.8816 34.1054 43.8814 34.0311C43.8792 33.3038 43.8801 32.5766 43.8801 31.8492Z" fill="white"/>
<path d="M48.7794 28.4908C48.7794 29.2249 48.7801 29.9591 48.779 30.693C48.7786 30.9562 48.7622 30.9649 48.5354 30.8368C47.2311 30.1007 45.9268 29.3647 44.6224 28.6286C44.5974 28.6144 44.5713 28.6019 44.5467 28.5868C44.4163 28.5067 44.4152 28.4819 44.5528 28.4043C45.4683 27.8877 46.3845 27.3719 47.301 26.8566C47.7215 26.6202 48.1427 26.385 48.5639 26.1496C48.6016 26.1286 48.6384 26.1051 48.6782 26.089C48.7283 26.0686 48.7659 26.0881 48.772 26.1405C48.7792 26.2033 48.7794 26.2671 48.7794 26.3305C48.7799 27.0505 48.7797 27.7706 48.7794 28.4906V28.4908Z" fill="white"/>
<path d="M48.7338 19.3645C48.7908 19.426 48.7804 19.4697 48.7804 19.5112C48.7802 21.0018 48.78 22.4922 48.778 23.9827C48.778 24.0584 48.8128 24.1598 48.7438 24.2031C48.6591 24.2561 48.584 24.1666 48.512 24.1261C47.2425 23.4142 45.9739 22.7004 44.7052 21.9868C44.6549 21.9586 44.6049 21.93 44.5559 21.8997C44.4175 21.8136 44.417 21.7868 44.5659 21.7031C45.621 21.1093 46.6767 20.517 47.7323 19.9239C47.9648 19.7933 48.1966 19.6616 48.4291 19.5311C48.5288 19.4754 48.6293 19.4215 48.734 19.3643L48.7338 19.3645Z" fill="white"/>
<path d="M68.4444 34.2472C68.4444 34.5507 68.4416 34.8543 68.4455 35.1578C68.4477 35.3321 68.4662 35.3453 68.6484 35.3563C68.8129 35.3663 68.9028 35.4504 68.9179 35.6086C68.9333 35.7707 68.9605 35.7855 69.0955 35.6858C69.5256 35.3686 69.8101 34.9678 69.8306 34.4245C69.8389 34.2037 69.8167 34.1861 69.5848 34.1827C69.4616 34.181 69.338 34.1863 69.2152 34.1793C69.0794 34.1717 69.057 34.145 69.0459 34.0108C69.0435 33.9828 69.0441 33.9544 69.0445 33.9261C69.0482 33.7417 69.0711 33.712 69.2557 33.7109C69.8358 33.7077 70.4157 33.7092 70.9958 33.7109C71.074 33.7109 71.1678 33.7007 71.2 33.794C71.2374 33.9026 71.2427 34.018 71.1935 34.1248C71.166 34.1844 71.0975 34.1804 71.0398 34.181C70.8876 34.183 70.735 34.1789 70.5831 34.1844C70.4318 34.19 70.4037 34.2146 70.4085 34.3636C70.4201 34.7212 70.5572 35.0357 70.7736 35.3204C70.8913 35.4755 71.0344 35.6023 71.2009 35.707C71.318 35.7806 71.3206 35.802 71.2246 35.9013C70.9532 36.1818 70.9808 36.1655 70.7052 35.9588C70.5304 35.8275 70.3985 35.66 70.2744 35.4852C70.2455 35.4445 70.2198 35.4017 70.1887 35.3629C70.1458 35.3092 70.1046 35.3181 70.0696 35.373C70.043 35.415 70.0165 35.4572 69.9901 35.4994C69.8339 35.7503 69.6218 35.953 69.3935 36.1396C69.2461 36.2601 69.2183 36.2554 69.0824 36.132C69.003 36.0599 68.9237 35.9867 68.8515 35.9081C68.804 35.8561 68.7507 35.8338 68.6819 35.8292C68.4962 35.8167 68.4505 35.8544 68.4446 36.0383C68.4414 36.1441 68.4422 36.2499 68.4411 36.3559C68.4403 36.4596 68.3867 36.5118 68.2798 36.5118C68.2653 36.5118 68.2509 36.5124 68.2363 36.5131C67.935 36.5267 67.915 36.5082 67.9135 36.2153C67.9131 36.1447 67.9161 36.0739 67.9115 36.0037C67.9024 35.8589 67.8806 35.8332 67.7263 35.8305C67.4292 35.8252 67.1318 35.829 66.8345 35.8273C66.7696 35.8268 66.7041 35.8237 66.6398 35.8143C66.5767 35.8052 66.5319 35.7656 66.5262 35.7028C66.5121 35.548 66.5012 35.3949 66.5878 35.2498C66.9707 34.6094 67.3484 33.966 67.7317 33.3258C67.8517 33.1256 68.1066 33.0478 68.3321 33.1282C68.4253 33.1612 68.4405 33.2353 68.4414 33.3154C68.4438 33.5413 68.4431 33.7673 68.4438 33.9932C68.4438 34.0778 68.4438 34.1626 68.4438 34.2472H68.4442H68.4444ZM67.9126 34.0638C67.8282 34.081 67.8177 34.1263 67.797 34.1609C67.6401 34.4217 67.4842 34.683 67.3286 34.9447C67.2707 35.042 67.213 35.1393 67.1586 35.2386C67.1242 35.3012 67.1348 35.3523 67.2195 35.3535C67.4072 35.3561 67.5948 35.355 67.7824 35.3525C67.8713 35.3512 67.912 35.2982 67.9122 35.2159C67.9131 34.8372 67.9126 34.4584 67.9126 34.0638Z" fill="white"/>
<path d="M98.2458 36.5465C97.7312 36.5465 97.2164 36.5479 96.7018 36.5456C96.4582 36.5446 96.3605 36.3959 96.4448 36.1679C96.4763 36.0825 96.5475 36.0782 96.6213 36.0778C96.8533 36.0765 97.0852 36.0768 97.3172 36.0765C97.4694 36.0765 97.6217 36.0793 97.7739 36.0751C97.952 36.0704 97.982 36.0456 97.9855 35.8812C97.9944 35.4433 97.9951 35.4959 97.6085 35.4929C97.4417 35.4917 97.2748 35.4968 97.1085 35.4896C96.9583 35.4832 96.9128 35.4423 96.9102 35.2953C96.9043 34.9566 96.9041 34.6178 96.9099 34.2791C96.9128 34.1126 96.9644 34.0654 97.132 34.0547C97.2476 34.0475 97.3638 34.0516 97.4798 34.0514C97.9293 34.0511 98.3786 34.0524 98.8281 34.0499C98.9111 34.0494 99.0219 34.0779 99.0576 33.9773C99.1002 33.8575 99.1013 33.725 99.0532 33.6043C99.0256 33.5348 98.9428 33.5481 98.8791 33.5475C98.647 33.5456 98.4152 33.5464 98.1831 33.5462C97.8425 33.5462 97.5018 33.5479 97.1609 33.545C97.0782 33.5443 96.9704 33.5749 96.9289 33.4767C96.8842 33.3715 96.8921 33.2551 96.9273 33.1452C96.9419 33.0996 96.9898 33.088 97.0334 33.0837C97.0908 33.0782 97.1492 33.0774 97.2071 33.0771C97.8884 33.0767 98.57 33.0769 99.2513 33.0771C99.302 33.0771 99.3532 33.0759 99.4032 33.0816C99.538 33.0971 99.5967 33.1384 99.5996 33.264C99.6074 33.6236 99.6085 33.9837 99.5983 34.3434C99.5944 34.4823 99.5351 34.5168 99.3556 34.5179C98.8843 34.5209 98.4132 34.519 97.9419 34.5194C97.8259 34.5194 97.7099 34.5215 97.5941 34.5209C97.485 34.5202 97.4385 34.5735 97.4356 34.6771C97.4254 35.0529 97.4559 35.0226 97.7515 35.0226C98.2952 35.0226 98.8388 35.0226 99.3825 35.0226C99.4404 35.0226 99.4986 35.0237 99.5565 35.0268C99.6429 35.0315 99.6877 35.0786 99.6923 35.1617C99.6947 35.2039 99.6969 35.2463 99.6954 35.2885C99.6895 35.4599 99.6662 35.487 99.4927 35.4906C99.2752 35.4953 99.0578 35.4919 98.8403 35.4923C98.7824 35.4923 98.7243 35.4938 98.6664 35.4955C98.5802 35.4983 98.5312 35.5402 98.5292 35.6261C98.5271 35.7177 98.5229 35.8098 98.5275 35.9012C98.5347 36.0494 98.5541 36.071 98.7101 36.0736C99.0073 36.0782 99.3046 36.0753 99.6018 36.0757C99.7032 36.0757 99.8048 36.0725 99.9061 36.0778C100.054 36.0859 100.077 36.1113 100.087 36.2581C100.089 36.3003 100.087 36.3427 100.085 36.3851C100.082 36.4892 100.023 36.5376 99.9202 36.5418C99.8623 36.5441 99.8044 36.5454 99.7463 36.5454C99.2461 36.5456 98.7458 36.5454 98.2458 36.5454V36.5465Z" fill="white"/>
<path d="M113.858 35.3602C113.358 35.3602 112.857 35.3605 112.357 35.3602C112.299 35.3602 112.241 35.36 112.183 35.3549C112.11 35.3484 112.062 35.311 112.057 35.2345C112.056 35.2063 112.054 35.1781 112.053 35.1499C112.048 34.9187 112.072 34.8912 112.306 34.8897C112.632 34.8876 112.959 34.8893 113.285 34.889C113.336 34.889 113.386 34.8876 113.437 34.8863C113.537 34.884 113.577 34.8299 113.58 34.7372C113.582 34.6233 113.549 34.5733 113.439 34.5659C113.309 34.5572 113.178 34.5614 113.048 34.5608C112.881 34.5599 112.714 34.5642 112.548 34.5582C112.397 34.5529 112.373 34.526 112.363 34.3822C112.36 34.347 112.361 34.3116 112.363 34.2764C112.372 34.1284 112.395 34.1051 112.541 34.0925C112.555 34.0913 112.57 34.0919 112.585 34.0913C112.788 34.0825 112.888 33.9757 112.885 33.7708C112.885 33.7284 112.883 33.6862 112.881 33.6438C112.878 33.5495 112.827 33.5026 112.731 33.4998C112.688 33.4986 112.644 33.496 112.601 33.4947C112.493 33.4918 112.444 33.436 112.445 33.3334C112.446 33.277 112.445 33.2203 112.447 33.1641C112.451 33.0808 112.496 33.0337 112.583 33.0293C112.633 33.0265 112.684 33.0252 112.735 33.0252C113.489 33.025 114.243 33.0252 114.997 33.0252C115.041 33.0252 115.084 33.0274 115.128 33.0276C115.237 33.0282 115.284 33.0867 115.284 33.1879C115.284 33.2231 115.286 33.2585 115.285 33.2937C115.279 33.4638 115.261 33.4816 115.082 33.4969C114.85 33.5166 114.846 33.521 114.842 33.7511C114.842 33.7723 114.842 33.7935 114.842 33.8147C114.844 34.0783 114.848 34.0811 115.123 34.0917C115.207 34.0949 115.315 34.0673 115.351 34.1693C115.389 34.2758 115.393 34.3941 115.343 34.5001C115.311 34.5671 115.233 34.5587 115.168 34.5593C114.943 34.561 114.719 34.5604 114.494 34.5608C114.436 34.5608 114.378 34.5584 114.32 34.5627C114.183 34.5726 114.151 34.6062 114.153 34.7302C114.155 34.8498 114.186 34.8848 114.33 34.8867C114.67 34.8912 115.011 34.8884 115.352 34.8893C115.417 34.8893 115.483 34.8899 115.548 34.8943C115.623 34.8996 115.666 34.9414 115.674 35.0152C115.677 35.0432 115.678 35.0716 115.679 35.0998C115.687 35.3272 115.659 35.3588 115.425 35.3596C114.903 35.3617 114.381 35.3602 113.859 35.3605L113.858 35.3602ZM113.869 33.4979C113.387 33.4975 113.365 33.5187 113.414 33.9375C113.415 33.9445 113.415 33.9515 113.415 33.9585C113.42 34.0446 113.47 34.0855 113.555 34.0872C113.678 34.0898 113.801 34.0906 113.924 34.0906C114.199 34.0908 114.329 33.9583 114.317 33.6932C114.309 33.5255 114.288 33.5049 114.108 33.4983C114.029 33.4954 113.949 33.4979 113.87 33.4979H113.869Z" fill="white"/>
<path d="M87.8117 34.1655C87.8117 34.4901 87.8139 34.8148 87.8106 35.1392C87.8086 35.3479 87.7849 35.3678 87.5714 35.3704C87.5206 35.371 87.4699 35.3691 87.4194 35.3664C87.3317 35.3617 87.2888 35.3127 87.2869 35.2298C87.284 35.117 87.2858 35.0039 87.2821 34.8911C87.276 34.7088 87.2559 34.6905 87.0635 34.6846C86.991 34.6822 86.9185 34.6831 86.8461 34.6842C86.6497 34.6873 86.6454 34.6867 86.5966 34.8852C86.5713 34.9883 86.5047 35.0224 86.409 35.0243C86.2786 35.0268 86.1482 35.0268 86.0176 35.0271C85.6769 35.0271 85.3362 35.0298 84.9958 35.0256C84.792 35.023 84.7568 34.9883 84.7555 34.7866C84.7522 34.2927 84.752 33.7986 84.7555 33.3047C84.7568 33.1187 84.7951 33.0808 84.9877 33.0786C85.4298 33.074 85.8719 33.0748 86.314 33.0778C86.5309 33.0793 86.5409 33.0884 86.6033 33.3026C86.6249 33.3764 86.6676 33.409 86.7409 33.412C86.7988 33.4143 86.8567 33.4152 86.9148 33.4154C87.2483 33.4165 87.2512 33.4165 87.2829 33.0986C87.2932 32.997 87.3339 32.9404 87.4423 32.94C87.4569 32.94 87.4712 32.9389 87.4858 32.9383C87.786 32.9228 87.8106 32.9444 87.8117 33.2343C87.8128 33.5448 87.8119 33.8552 87.8117 34.1659V34.1655ZM85.2537 34.0503C85.2537 34.1699 85.2533 34.2897 85.2537 34.4093C85.2542 34.5031 85.3025 34.5535 85.4 34.554C85.5735 34.5546 85.747 34.555 85.9205 34.5533C86.0165 34.5525 86.0685 34.502 86.0692 34.4089C86.0707 34.1695 86.0707 33.9303 86.0692 33.6909C86.0687 33.5969 86.0167 33.5484 85.9203 33.5479C85.7468 33.5473 85.5733 33.5475 85.3998 33.5475C85.3016 33.5475 85.2539 33.5967 85.2535 33.6911C85.2531 33.8107 85.2535 33.9305 85.2535 34.0501L85.2537 34.0503ZM86.9296 34.2168C86.9296 34.2153 86.9296 34.2138 86.9296 34.2123C87.0015 34.2123 87.0735 34.214 87.1454 34.2119C87.2629 34.2085 87.2816 34.1315 87.281 34.0382C87.2803 33.9487 87.2485 33.8868 87.1469 33.8845C87.0248 33.8817 86.9022 33.8779 86.7801 33.8826C86.6386 33.8879 86.607 33.9195 86.6029 34.0376C86.5983 34.1693 86.6342 34.2068 86.7788 34.2161C86.8289 34.2193 86.8794 34.2166 86.9299 34.2166L86.9296 34.2168Z" fill="white"/>
<path d="M103.404 33.99C103.404 34.2511 103.406 34.5121 103.404 34.7732C103.402 35.0164 103.382 35.0334 103.127 35.0315C103.098 35.0313 103.069 35.03 103.04 35.0302C102.932 35.0308 102.879 34.9772 102.878 34.8748C102.876 34.7195 102.877 34.5643 102.874 34.4093C102.869 34.1998 102.848 34.1801 102.637 34.1737C102.362 34.1655 102.224 34.2921 102.223 34.5535C102.222 34.8928 102.214 34.9015 101.874 34.9019C101.446 34.9023 101.019 34.9038 100.591 34.9011C100.368 34.8996 100.343 34.8743 100.342 34.6553C100.339 34.1896 100.339 33.7241 100.342 33.2584C100.343 33.0515 100.367 33.032 100.583 33.029C100.833 33.0256 100.86 33.0502 100.868 33.2864C100.869 33.3286 100.87 33.371 100.87 33.4135C100.87 33.5161 100.919 33.5714 101.028 33.5712C101.202 33.5708 101.376 33.5712 101.55 33.5704C101.649 33.5697 101.692 33.5157 101.693 33.4228C101.694 33.3382 101.695 33.2536 101.699 33.1689C101.703 33.086 101.748 33.0392 101.834 33.0332C101.856 33.0317 101.878 33.0307 101.899 33.0296C102.196 33.0144 102.222 33.0377 102.224 33.3271C102.225 33.5587 102.346 33.6735 102.587 33.6715C102.594 33.6715 102.601 33.6715 102.608 33.6715C102.853 33.6679 102.871 33.652 102.874 33.4217C102.876 33.3229 102.872 33.2241 102.877 33.1255C102.886 32.9681 102.911 32.9469 103.074 32.9384C103.095 32.9374 103.117 32.9378 103.139 32.938C103.382 32.9382 103.402 32.9548 103.404 33.1865C103.406 33.4546 103.405 33.7226 103.405 33.9907L103.404 33.99ZM101.284 34.4676V34.4665C101.364 34.4665 101.444 34.4706 101.523 34.4657C101.662 34.4572 101.684 34.4352 101.693 34.3003C101.696 34.2511 101.693 34.2015 101.692 34.1521C101.69 34.0568 101.638 34.0096 101.542 34.0089C101.368 34.0079 101.194 34.0081 101.02 34.0093C100.976 34.0098 100.926 34.017 100.905 34.0564C100.846 34.1618 100.856 34.2778 100.886 34.3862C100.913 34.4829 101.011 34.464 101.089 34.4672C101.154 34.4699 101.219 34.4678 101.285 34.4678L101.284 34.4676Z" fill="white"/>
<path d="M80.5402 34.0147C80.5402 34.2967 80.5428 34.579 80.5393 34.861C80.5367 35.0775 80.5058 35.1043 80.2868 35.1072C80.2722 35.1072 80.2579 35.1074 80.2433 35.1072C80.0402 35.1021 80.0169 35.082 80.0125 34.8886C80.0091 34.7406 80.0134 34.5923 80.0108 34.4443C80.0071 34.2429 79.9921 34.2295 79.7872 34.2242C79.7583 34.2234 79.7289 34.2272 79.7004 34.2234C79.4892 34.1951 79.3634 34.2607 79.2726 34.4715C79.1007 34.8706 78.6103 35.0676 78.1357 34.9694C77.5589 34.85 77.2345 34.3398 77.3582 33.7464C77.4687 33.2167 77.9973 32.8736 78.5454 32.9665C78.9046 33.0273 79.1575 33.2218 79.2992 33.5382C79.3713 33.6991 79.4627 33.7596 79.6414 33.7553C80.011 33.7462 80.0112 33.7547 80.0117 33.3965C80.0117 33.3049 80.0086 33.2129 80.0136 33.1215C80.0219 32.9711 80.0443 32.9506 80.191 32.9385C80.5078 32.9122 80.5395 32.9404 80.5404 33.253C80.5411 33.5068 80.5404 33.7606 80.5404 34.0147H80.54H80.5402ZM78.3715 34.5181C78.5145 34.5376 78.6392 34.4649 78.7387 34.3408C78.88 34.1646 78.89 33.9672 78.8297 33.7615C78.7515 33.4951 78.4622 33.355 78.1936 33.4502C77.9997 33.5189 77.8937 33.6769 77.8839 33.9112C77.8738 34.1474 77.9102 34.3627 78.1562 34.4831C78.2158 34.5124 78.2809 34.5154 78.3715 34.5181Z" fill="white"/>
<path d="M94.673 36.9387C94.2888 36.9387 93.9046 36.9406 93.5206 36.9378C93.3073 36.9364 93.2644 36.8976 93.2585 36.6916C93.2522 36.48 93.252 36.2682 93.2587 36.0565C93.2659 35.8358 93.3184 35.7883 93.5515 35.787C94.0661 35.7842 94.5807 35.7861 95.0953 35.7857C95.1606 35.7857 95.2257 35.7849 95.291 35.7819C95.3794 35.7779 95.4192 35.73 95.4209 35.6451C95.4229 35.551 95.382 35.4977 95.2818 35.4958C95.2094 35.4943 95.1369 35.4931 95.0644 35.4929C94.5426 35.4927 94.0206 35.4939 93.4988 35.4918C93.2807 35.491 93.1834 35.3336 93.274 35.1387C93.294 35.0955 93.3267 35.0715 93.3728 35.0677C93.4305 35.0628 93.4886 35.0611 93.5463 35.0611C94.2566 35.0607 94.9669 35.0607 95.6772 35.0611C95.7351 35.0611 95.7932 35.0617 95.8509 35.0675C95.9336 35.0755 95.99 35.1237 95.9915 35.2034C95.9967 35.4854 95.9969 35.7677 95.9941 36.0497C95.9932 36.1411 95.9301 36.1897 95.8408 36.1995C95.769 36.2073 95.6963 36.2088 95.624 36.209C95.1384 36.2098 94.6528 36.2092 94.1671 36.2096C94.1092 36.2096 94.0511 36.2103 93.9934 36.2145C93.9048 36.2211 93.868 36.2739 93.8676 36.3564C93.8672 36.4374 93.8985 36.4949 93.9888 36.5021C94.0537 36.5074 94.119 36.5078 94.1843 36.5078C94.6989 36.5082 95.2135 36.5078 95.7281 36.508C95.786 36.508 95.8443 36.5059 95.902 36.5099C96.0533 36.5203 96.0779 36.5451 96.0864 36.6868C96.099 36.8959 96.0638 36.9362 95.8472 36.9376C95.4558 36.9402 95.0644 36.9383 94.673 36.9383V36.9387Z" fill="white"/>
<path d="M102.131 36.9388C101.761 36.9388 101.391 36.9403 101.022 36.9382C100.765 36.9369 100.74 36.9112 100.737 36.654C100.736 36.4774 100.735 36.3009 100.738 36.1243C100.742 35.8969 100.772 35.8656 101.003 35.8645C101.497 35.862 101.99 35.8639 102.483 35.8634C102.563 35.8634 102.643 35.8628 102.722 35.8592C102.808 35.8554 102.856 35.8117 102.857 35.7254C102.857 35.6414 102.817 35.5914 102.728 35.5861C102.663 35.5822 102.598 35.5816 102.533 35.5814C102.018 35.581 101.503 35.5825 100.988 35.5805C100.763 35.5797 100.667 35.4359 100.75 35.2338C100.772 35.1812 100.813 35.1573 100.867 35.1535C100.925 35.1494 100.983 35.1488 101.041 35.1488C101.716 35.1484 102.39 35.1484 103.065 35.1486C103.115 35.1486 103.166 35.149 103.217 35.1511C103.327 35.156 103.397 35.2077 103.398 35.3199C103.401 35.5742 103.401 35.8284 103.399 36.0825C103.398 36.1957 103.329 36.2483 103.218 36.2504C103.052 36.2536 102.885 36.2536 102.718 36.2538C102.341 36.2543 101.963 36.2538 101.586 36.2545C101.529 36.2545 101.47 36.2557 101.413 36.2634C101.344 36.2723 101.316 36.3183 101.317 36.3834C101.318 36.4491 101.351 36.4922 101.418 36.4996C101.483 36.5066 101.549 36.5081 101.614 36.5081C102.136 36.5087 102.658 36.5083 103.18 36.5087C103.238 36.5087 103.297 36.5092 103.354 36.5136C103.44 36.5204 103.485 36.5675 103.486 36.6519C103.487 36.6871 103.489 36.7225 103.487 36.7577C103.479 36.9038 103.457 36.9307 103.307 36.9367C103.155 36.9426 103.002 36.9388 102.85 36.939C102.61 36.939 102.371 36.939 102.132 36.939L102.131 36.9388Z" fill="white"/>
<path d="M106.65 36.9388C106.266 36.9388 105.881 36.9408 105.497 36.9382C105.271 36.9367 105.235 36.9009 105.228 36.677C105.223 36.5075 105.223 36.3379 105.228 36.1686C105.235 35.9462 105.272 35.9093 105.498 35.9082C106.028 35.9061 106.557 35.9076 107.087 35.9072C107.152 35.9072 107.217 35.9063 107.282 35.901C107.351 35.8955 107.384 35.8546 107.384 35.7878C107.385 35.7218 107.354 35.6781 107.285 35.6718C107.22 35.6658 107.155 35.665 107.09 35.665C106.546 35.6644 106.002 35.6661 105.458 35.6631C105.27 35.662 105.232 35.6228 105.228 35.4601C105.224 35.2909 105.264 35.2402 105.439 35.2396C106.201 35.2364 106.962 35.2358 107.724 35.2402C107.93 35.2415 107.97 35.2903 107.973 35.5002C107.976 35.6767 107.976 35.8533 107.973 36.03C107.97 36.2552 107.936 36.2906 107.71 36.2931C107.398 36.2965 107.086 36.2942 106.774 36.2944C106.556 36.2944 106.339 36.2944 106.121 36.2946C106.07 36.2946 106.019 36.2952 105.969 36.2989C105.895 36.3042 105.846 36.3368 105.844 36.4163C105.841 36.4954 105.886 36.533 105.962 36.5378C106.02 36.5417 106.078 36.5421 106.136 36.5421C106.658 36.5423 107.18 36.5421 107.703 36.5423C107.761 36.5423 107.819 36.5402 107.876 36.544C108.028 36.5542 108.059 36.5894 108.057 36.745C108.056 36.8971 108.026 36.935 107.868 36.9369C107.462 36.9414 107.056 36.9384 106.65 36.9384V36.9393L106.65 36.9388Z" fill="white"/>
<path d="M94.6187 34.7366C94.1187 34.7366 93.6189 34.7366 93.1189 34.7366C93.061 34.7366 93.0029 34.7356 92.9452 34.732C92.8697 34.7275 92.8233 34.6881 92.8185 34.6134C92.8144 34.5502 92.8146 34.4866 92.8181 34.4234C92.8222 34.3496 92.8657 34.3066 92.9417 34.3013C93.0066 34.2966 93.0719 34.296 93.1372 34.296C93.782 34.2956 94.4267 34.296 95.0717 34.2956C95.1368 34.2956 95.2021 34.2943 95.2672 34.2924C95.3499 34.29 95.4058 34.2534 95.4185 34.17C95.4459 33.9887 95.4729 33.8074 95.4968 33.6257C95.5071 33.5468 95.4607 33.5075 95.3839 33.502C95.3262 33.4978 95.268 33.4978 95.2101 33.4978C94.6522 33.4976 94.0943 33.4978 93.5366 33.4974C93.4715 33.4974 93.406 33.4969 93.3412 33.4923C93.2563 33.4861 93.2092 33.4401 93.2073 33.3557C93.206 33.2923 93.2055 33.2289 93.2077 33.1655C93.2105 33.0817 93.256 33.0357 93.3429 33.0313C93.3936 33.0287 93.4443 33.0272 93.4948 33.0272C94.2556 33.027 95.0164 33.027 95.777 33.0268C95.7987 33.0268 95.8205 33.0262 95.8423 33.0272C96.0332 33.0357 96.09 33.094 96.0693 33.277C96.0425 33.5152 96.0086 33.7527 95.9775 33.9904C95.9729 34.0254 95.964 34.06 95.9611 34.095C95.9483 34.2536 95.9738 34.283 96.1325 34.2943C96.1614 34.2964 96.1904 34.2945 96.2193 34.296C96.4161 34.3051 96.4426 34.3327 96.4405 34.5227C96.4383 34.7034 96.4139 34.7339 96.2271 34.735C95.691 34.7381 95.1549 34.736 94.6187 34.736V34.7364V34.7366Z" fill="white"/>
<path d="M79.1922 36.9358C78.8372 36.9358 78.4819 36.9385 78.1269 36.9347C77.9194 36.9324 77.884 36.8984 77.8824 36.6989C77.879 36.2754 77.879 35.8521 77.8829 35.4286C77.8844 35.2558 77.9116 35.2348 78.0851 35.2265C78.1212 35.2249 78.1576 35.2251 78.1937 35.2263C78.3722 35.2327 78.3909 35.2501 78.4073 35.4199C78.429 35.6486 78.429 35.6505 78.6667 35.6513C79.0364 35.6528 79.406 35.6536 79.7756 35.6507C79.9833 35.649 79.9946 35.635 80.0118 35.4365C80.0288 35.242 80.0349 35.2361 80.2279 35.2255C80.4344 35.2142 80.5381 35.312 80.5388 35.519C80.5394 35.8649 80.5388 36.2105 80.5388 36.5564C80.5388 36.5916 80.5392 36.627 80.5381 36.6622C80.5299 36.8957 80.4933 36.9339 80.2575 36.9355C79.9025 36.9379 79.5473 36.9362 79.1922 36.9362V36.9358ZM79.1898 36.4989V36.4985C79.3999 36.4985 79.6099 36.5027 79.82 36.497C79.9815 36.4926 80.012 36.4527 80.0109 36.2835C80.01 36.124 79.9863 36.092 79.8274 36.0905C79.4219 36.0865 79.0161 36.0867 78.6106 36.0903C78.438 36.0918 78.4103 36.1255 78.4088 36.2907C78.4075 36.4599 78.4349 36.4936 78.603 36.4979C78.7984 36.5025 78.9941 36.4989 79.1896 36.4989H79.1898Z" fill="white"/>
<path d="M113.877 35.6072C114.246 35.6072 114.616 35.6049 114.985 35.6083C115.201 35.6102 115.237 35.6469 115.24 35.8577C115.243 36.1397 115.244 36.422 115.239 36.7042C115.236 36.8879 115.195 36.9294 115.005 36.9303C114.252 36.9332 113.498 36.9335 112.745 36.9296C112.551 36.9286 112.501 36.877 112.497 36.6866C112.491 36.4046 112.491 36.1223 112.496 35.8403C112.5 35.6467 112.54 35.6102 112.747 35.6083C113.123 35.6051 113.5 35.6074 113.877 35.6074L113.877 35.6072ZM113.887 36.0496V36.0502C113.663 36.0502 113.439 36.046 113.215 36.0517C113.056 36.0557 113.025 36.0971 113.027 36.2667C113.028 36.4262 113.052 36.4589 113.21 36.4603C113.643 36.4644 114.077 36.4644 114.51 36.4608C114.683 36.4593 114.705 36.4302 114.706 36.2576C114.707 36.0839 114.683 36.0543 114.515 36.0506C114.305 36.0462 114.096 36.0496 113.886 36.0496H113.887Z" fill="white"/>
<path d="M106.595 34.3664C106.154 34.3664 105.712 34.3664 105.271 34.3664C105.135 34.3664 105.109 34.3437 105.098 34.2086C105.083 34.0343 105.119 33.9732 105.246 33.9571C105.268 33.9543 105.29 33.9573 105.311 33.9543C105.407 33.9405 105.537 33.9986 105.587 33.8877C105.641 33.7652 105.621 33.625 105.595 33.4929C105.587 33.4553 105.552 33.4365 105.515 33.4303C105.479 33.4244 105.443 33.4237 105.407 33.4212C105.202 33.4061 105.17 33.3756 105.178 33.2024C105.186 33.0488 105.215 33.0257 105.427 33.0246C105.826 33.0227 106.224 33.024 106.622 33.024C107.013 33.024 107.404 33.0221 107.795 33.0253C107.991 33.027 108.028 33.0685 108.018 33.2486C108.011 33.3805 107.988 33.4044 107.851 33.4193C107.822 33.4225 107.793 33.4206 107.764 33.4227C107.735 33.425 107.702 33.4218 107.679 33.4348C107.52 33.523 107.601 33.6725 107.589 33.7968C107.58 33.8856 107.626 33.9458 107.726 33.9503C107.806 33.9539 107.886 33.9503 107.965 33.9596C108.078 33.973 108.104 34.0143 108.104 34.1554C108.104 34.2959 108.078 34.3411 107.964 34.35C107.835 34.36 107.704 34.3557 107.573 34.356C107.247 34.3566 106.922 34.356 106.596 34.356V34.3661L106.595 34.3664ZM106.625 33.422V33.421C106.575 33.421 106.524 33.421 106.474 33.421C106.137 33.4216 106.118 33.4416 106.145 33.7683C106.158 33.92 106.183 33.9469 106.345 33.9524C106.497 33.9575 106.648 33.9554 106.8 33.9541C107.046 33.952 107.082 33.9157 107.084 33.6699C107.084 33.6559 107.085 33.6417 107.084 33.6277C107.078 33.4564 107.055 33.4305 106.885 33.4229C106.799 33.4189 106.712 33.4223 106.625 33.4223V33.422Z" fill="white"/>
<path d="M86.4587 35.318C86.7082 35.3078 86.9694 35.3572 87.2241 35.4461C87.3841 35.5018 87.5199 35.5909 87.6368 35.7111C87.8983 35.9796 87.9028 36.3683 87.6508 36.648C87.4579 36.862 87.2002 36.9494 86.9283 37.0053C86.5543 37.0823 86.1803 37.066 85.8094 36.978C85.624 36.9341 85.4529 36.8609 85.3029 36.7451C84.9239 36.4531 84.9269 35.9192 85.3088 35.6308C85.5789 35.4268 85.9707 35.3182 86.4587 35.318ZM86.4194 35.7493C86.2182 35.7576 85.9929 35.7752 85.7937 35.8899C85.5251 36.0447 85.5229 36.3388 85.8007 36.4739C86.2047 36.6703 86.6224 36.6754 87.0336 36.4818C87.1721 36.4167 87.2727 36.3115 87.2611 36.1514C87.2498 35.9938 87.1414 35.9001 86.9964 35.846C86.8188 35.7798 86.6333 35.7523 86.4191 35.7493H86.4194Z" fill="white"/>
<path d="M111.804 34.2983C111.804 34.6864 111.805 35.0747 111.804 35.4627C111.803 35.5384 111.815 35.6347 111.713 35.6548C111.594 35.6786 111.465 35.7004 111.355 35.6303C111.294 35.5921 111.309 35.5155 111.308 35.4532C111.306 35.1991 111.307 34.9451 111.307 34.691C111.307 34.6346 111.309 34.578 111.305 34.5218C111.297 34.3829 111.265 34.3503 111.143 34.3494C111.019 34.3486 110.981 34.3808 110.977 34.5165C110.971 34.6927 110.976 34.8694 110.974 35.0458C110.971 35.2617 110.953 35.2782 110.743 35.2831C110.467 35.2895 110.447 35.2712 110.446 35.0011C110.445 34.4154 110.445 33.8296 110.447 33.2439C110.448 33.1568 110.415 33.0399 110.532 33.0056C110.656 32.9693 110.792 32.9646 110.916 33.016C110.977 33.041 110.972 33.1099 110.972 33.1661C110.975 33.3355 110.97 33.505 110.977 33.6742C110.982 33.8031 111.025 33.8343 111.152 33.8324C111.248 33.8309 111.303 33.7919 111.304 33.6943C111.305 33.5603 111.306 33.4263 111.307 33.2921C111.307 33.2287 111.304 33.1648 111.31 33.1016C111.321 32.9706 111.345 32.9504 111.486 32.939C111.5 32.9379 111.515 32.9383 111.529 32.9379C111.776 32.9313 111.803 32.9547 111.804 33.1977C111.806 33.5646 111.805 33.9316 111.805 34.2985H111.804V34.2983Z" fill="white"/>
<path d="M90.5226 34.104C90.512 34.5056 90.3631 34.8396 89.9787 35.0224C89.5947 35.205 89.2076 35.1827 88.8402 34.958C88.727 34.8886 88.6458 34.7909 88.5746 34.6829C88.2442 34.1818 88.3687 33.2015 89.2856 33.0528C89.8859 32.9555 90.5416 33.3448 90.5229 34.104H90.5226ZM89.9865 34.1174C89.9865 34.012 89.9819 33.9352 89.9578 33.8603C89.8927 33.6599 89.7564 33.5386 89.5409 33.5113C89.3171 33.4831 89.145 33.57 89.027 33.7532C88.8894 33.967 88.9308 34.3377 89.1069 34.5245C89.2843 34.7126 89.5932 34.7287 89.791 34.561C89.9384 34.4359 89.9935 34.2751 89.9865 34.1176V34.1174Z" fill="white"/>
<path d="M109.372 33.0735C109.553 33.0735 109.734 33.068 109.915 33.0752C110.082 33.0818 110.137 33.1333 110.141 33.2966C110.148 33.5785 110.148 33.8609 110.142 34.1428C110.138 34.3103 110.094 34.3453 109.911 34.3502C109.745 34.3546 109.578 34.3495 109.412 34.3525C109.22 34.3557 109.193 34.3796 109.192 34.5325C109.19 34.6948 109.222 34.7261 109.421 34.727C109.652 34.7283 109.884 34.734 110.114 34.6956C110.296 34.6655 110.339 34.6924 110.359 34.8154C110.392 35.0218 110.349 35.1119 110.183 35.1371C109.737 35.2045 109.288 35.2048 108.839 35.195C108.725 35.1925 108.665 35.1297 108.665 35.0211C108.662 34.7179 108.658 34.4146 108.665 34.1114C108.668 33.967 108.713 33.9277 108.867 33.9218C109.048 33.915 109.229 33.9218 109.41 33.9176C109.591 33.9131 109.672 33.7772 109.598 33.6154C109.565 33.5424 109.498 33.5418 109.433 33.5407C109.267 33.5384 109.1 33.5407 108.933 33.5384C108.688 33.5348 108.589 33.3897 108.673 33.1632C108.701 33.089 108.761 33.0744 108.828 33.074C109.01 33.0725 109.191 33.0733 109.372 33.0735H109.372Z" fill="white"/>
<path d="M72.1004 33.7285C72.1004 33.919 72.0958 34.1094 72.1019 34.2998C72.1063 34.4353 72.1326 34.4553 72.27 34.4667C72.2915 34.4686 72.3135 34.4661 72.3351 34.4684C72.4254 34.4778 72.5418 34.4332 72.5952 34.528C72.6557 34.6355 72.6313 34.7623 72.6104 34.8802C72.5989 34.9462 72.539 34.9659 72.4792 34.9712C72.3999 34.9782 72.32 34.9784 72.2406 34.9829C72.155 34.9875 72.1074 35.0317 72.1032 35.1158C72.1004 35.1723 72.0993 35.2287 72.0991 35.2851C72.0987 35.7648 72.1002 36.2442 72.0976 36.7237C72.0971 36.8108 72.1278 36.9281 72.0088 36.9593C71.8847 36.9917 71.7501 36.9975 71.6252 36.9457C71.5912 36.9317 71.5788 36.8921 71.5764 36.856C71.5725 36.7998 71.5706 36.7434 71.5706 36.687C71.5703 35.5374 71.5701 34.3878 71.5706 33.2383C71.5706 32.9412 71.6004 32.9161 71.9117 32.9382C72.0603 32.9486 72.0913 32.9715 72.0956 33.1148C72.1019 33.3193 72.0971 33.5239 72.0971 33.7283H72.1L72.1004 33.7285Z" fill="white"/>
<path d="M91.5081 34.952C91.5081 35.5237 91.509 36.0954 91.5079 36.6672C91.5072 36.9651 91.4772 36.9908 91.1668 36.9755C90.9876 36.9668 90.9591 36.9397 90.9504 36.7581C90.9467 36.6807 90.9489 36.6029 90.9489 36.5253C90.9489 35.4313 90.9484 34.3372 90.9491 33.2432C90.9491 32.9415 90.9526 32.9395 91.2656 32.9366C91.5011 32.9345 91.5068 32.9372 91.5077 33.1732C91.5094 33.7662 91.5083 34.3591 91.5083 34.952H91.5081Z" fill="white"/>
<path d="M74.7388 33.0223C74.7605 33.0223 74.7823 33.0215 74.8041 33.0223C74.9869 33.0302 75.0102 33.0525 75.0163 33.2384C75.0196 33.3373 75.0178 33.4361 75.0174 33.5351C75.0146 34.0617 75.2862 34.4342 75.732 34.6906C75.9922 34.8401 75.9684 34.8219 75.7991 35.0346C75.6526 35.2185 75.6245 35.2235 75.4251 35.0999C75.2105 34.9667 75.0126 34.8141 74.8561 34.6137C74.7536 34.4822 74.7386 34.4824 74.6415 34.6238C74.4732 34.869 74.2546 35.062 74.0076 35.2267C73.8509 35.3313 73.8369 35.3277 73.6922 35.1985C73.4542 34.986 73.4551 34.9873 73.7218 34.7992C73.9471 34.6404 74.1425 34.4542 74.2775 34.2133C74.3909 34.0108 74.454 33.7968 74.4477 33.5644C74.4447 33.4516 74.4445 33.3383 74.4488 33.2255C74.4558 33.0522 74.4793 33.0308 74.6517 33.0228C74.6806 33.0215 74.7098 33.0228 74.7388 33.0228V33.0223Z" fill="white"/>
<path d="M84.249 34.2818C84.249 34.6271 84.2501 34.9723 84.2486 35.3175C84.2475 35.5557 84.2298 35.5716 83.9917 35.5735C83.9627 35.5737 83.9338 35.5743 83.9048 35.5724C83.7529 35.562 83.7377 35.5476 83.7174 35.3985C83.6913 35.2081 83.6904 35.2073 83.4904 35.2018C83.4614 35.2009 83.4325 35.2018 83.4035 35.2013C83.1745 35.1969 83.087 35.0709 83.1619 34.8574C83.1841 34.7937 83.2311 34.77 83.2932 34.7674C83.3872 34.7636 83.4817 34.7679 83.5751 34.7592C83.6919 34.7486 83.717 34.707 83.7159 34.5679C83.715 34.4727 83.6922 34.3991 83.5751 34.397C83.4882 34.3955 83.4016 34.393 83.3147 34.3925C83.2083 34.3919 83.1543 34.3412 83.1536 34.2373C83.1534 34.2091 83.1515 34.1809 83.1525 34.1529C83.1584 33.9945 83.1826 33.9684 83.3415 33.9597C83.4135 33.9557 83.4862 33.9565 83.5585 33.957C83.6678 33.9578 83.7157 33.9031 83.7157 33.8C83.7157 33.5886 83.7144 33.3772 83.7181 33.166C83.7218 32.959 83.7435 32.9403 83.9595 32.9374C84.0028 32.9367 84.0463 32.9391 84.0897 32.9393C84.1981 32.9399 84.2466 32.9961 84.2473 33.0981C84.2475 33.1473 84.2494 33.1967 84.2494 33.2459C84.2494 33.5911 84.2494 33.9364 84.2494 34.2816L84.249 34.2818Z" fill="white"/>
<path d="M110.338 36.1937C110.153 36.4535 109.932 36.631 109.677 36.7699C109.55 36.839 109.413 36.8863 109.279 36.9404C109.17 36.9847 109.082 36.9637 109.011 36.8729C108.993 36.8507 108.972 36.8314 108.953 36.81C108.792 36.6289 108.795 36.6098 109.023 36.536C109.182 36.4844 109.333 36.417 109.478 36.3369C109.779 36.171 109.971 35.9293 110.036 35.5942C110.073 35.4023 110.079 35.4017 110.273 35.3957C110.294 35.3951 110.316 35.3953 110.338 35.3953C110.596 35.3949 110.6 35.3942 110.651 35.6332C110.721 35.9621 110.93 36.1837 111.217 36.3464C111.361 36.4283 111.514 36.4921 111.674 36.543C111.898 36.6147 111.897 36.617 111.746 36.8044C111.732 36.8212 111.72 36.8388 111.706 36.8549C111.597 36.9817 111.57 36.9921 111.407 36.94C110.985 36.8047 110.616 36.5932 110.338 36.1937H110.338Z" fill="white"/>
<path d="M76.2305 34.4114C76.2305 34.0028 76.229 33.5939 76.2316 33.1853C76.232 33.1043 76.2048 32.9959 76.3051 32.9614C76.4347 32.9166 76.5783 32.913 76.7072 32.9698C76.7718 32.9985 76.7607 33.0801 76.7612 33.1429C76.7627 33.3683 76.7607 33.5939 76.7629 33.8194C76.7651 34.0501 76.7866 34.0685 77.0228 34.0819C77.1055 34.0866 77.2098 34.0539 77.2547 34.1521C77.2999 34.2511 77.2862 34.3597 77.2614 34.4636C77.2507 34.5083 77.2124 34.5325 77.1674 34.5412C77.1321 34.548 77.096 34.5512 77.0598 34.5535C76.8623 34.5664 76.7632 34.6669 76.7625 34.8551C76.7618 35.1229 76.7636 35.3907 76.7618 35.6584C76.7603 35.9007 76.7401 35.9183 76.486 35.9166C76.4717 35.9166 76.4571 35.9169 76.4427 35.9162C76.2599 35.9086 76.2331 35.8865 76.2318 35.701C76.2287 35.2711 76.2307 34.8413 76.2307 34.4114H76.2305Z" fill="white"/>
<path d="M82.0905 35.4107C81.8706 35.4221 81.6586 35.382 81.4595 35.2881C81.2505 35.1895 81.1109 35.0404 81.1005 34.8004C81.0894 34.552 81.1815 34.3531 81.4116 34.2397C81.8604 34.0181 82.3243 34.0119 82.7712 34.2295C83.2213 34.4488 83.2294 34.998 82.8023 35.2561C82.5844 35.3878 82.3432 35.4213 82.0907 35.4109L82.0905 35.4107ZM82.1047 34.4746C81.9965 34.4753 81.8876 34.4738 81.7903 34.5302C81.6985 34.5832 81.6329 34.6536 81.643 34.7666C81.6519 34.8688 81.715 34.9344 81.8075 34.9694C82.003 35.0429 82.2017 35.0425 82.3979 34.9715C82.5004 34.9344 82.5664 34.8582 82.5668 34.7495C82.5674 34.6405 82.4995 34.569 82.3998 34.5251C82.3058 34.4835 82.2063 34.4738 82.1047 34.4748V34.4746Z" fill="white"/>
<path d="M82.8477 35.6607C83.1959 35.6607 83.544 35.6605 83.8923 35.6609C83.9502 35.6609 84.0085 35.6618 84.0662 35.6668C84.174 35.6764 84.2449 35.7286 84.2456 35.8407C84.2473 36.1726 84.2469 36.5045 84.2456 36.8366C84.2452 36.9307 84.1923 36.9782 84.0958 36.9804C84.0595 36.9812 84.0233 36.9829 83.987 36.9831C83.734 36.9844 83.7164 36.9681 83.7134 36.7206C83.7116 36.5793 83.7166 36.4379 83.7105 36.2969C83.7047 36.1618 83.6811 36.1391 83.5401 36.134C83.3807 36.1283 83.221 36.1317 83.0614 36.1317C82.6263 36.1317 82.1909 36.133 81.7558 36.1302C81.6731 36.1298 81.5666 36.1593 81.5246 36.0596C81.48 35.9538 81.4802 35.8356 81.5246 35.7288C81.5577 35.6495 81.6452 35.6624 81.7162 35.662C81.9774 35.6601 82.2384 35.6609 82.4996 35.6609C82.6156 35.6609 82.7316 35.6609 82.8479 35.6609L82.8477 35.6607Z" fill="white"/>
<path d="M75.5423 36.8946C75.1731 36.8946 74.8037 36.897 74.4346 36.8938C74.2238 36.8919 74.1871 36.859 74.184 36.665C74.1794 36.3689 74.1797 36.0727 74.184 35.7767C74.1864 35.6049 74.2125 35.5837 74.3867 35.5752C74.4228 35.5735 74.4592 35.5737 74.4953 35.575C74.6921 35.5816 74.7134 35.6021 74.7175 35.8017C74.7204 35.9497 74.7147 36.0979 74.7206 36.2457C74.7262 36.3927 74.75 36.4177 74.9021 36.4213C75.1409 36.427 75.3799 36.4236 75.619 36.4239C75.9666 36.4241 76.314 36.423 76.6616 36.4251C76.7389 36.4256 76.8258 36.4124 76.8726 36.4985C76.9067 36.5611 76.8952 36.8071 76.8552 36.8482C76.7981 36.9067 76.7213 36.8938 76.6505 36.894C76.2814 36.8955 75.9119 36.8946 75.5428 36.8946H75.5423Z" fill="white"/>
<path d="M106.608 35.0284C106.087 35.0284 105.566 35.0295 105.045 35.028C104.812 35.0273 104.774 34.9875 104.789 34.7731C104.799 34.6293 104.823 34.6041 104.972 34.5956C105.059 34.5907 105.146 34.5937 105.233 34.5937C106.181 34.5937 107.128 34.5937 108.076 34.5937C108.12 34.5937 108.163 34.593 108.207 34.5941C108.41 34.599 108.441 34.627 108.442 34.8076C108.444 34.9926 108.413 35.0265 108.215 35.0273C107.679 35.0297 107.144 35.0282 106.608 35.0282V35.0284Z" fill="white"/>
<path d="M88.8407 36.1656C88.6794 36.1656 88.556 36.1701 88.433 36.1646C88.2693 36.1574 88.2456 36.1317 88.2382 35.9761C88.2358 35.9269 88.2388 35.8772 88.2408 35.828C88.2443 35.7432 88.2913 35.701 88.3775 35.6953C88.5292 35.6851 88.6809 35.6631 88.8324 35.6643C89.4637 35.6694 90.0928 35.6512 90.718 35.556C90.8715 35.5326 90.895 35.5575 90.9048 35.7061C90.9202 35.9423 90.8884 35.9877 90.6422 36.0293C90.3281 36.0825 90.0118 36.1279 89.6925 36.1281C89.3949 36.1281 89.1008 36.1902 88.8409 36.1656H88.8407Z" fill="white"/>
<path d="M82.0513 33.9312C81.7622 33.9312 81.4733 33.9325 81.1842 33.9303C81.1065 33.9299 81.0118 33.9407 80.9866 33.8425C80.9622 33.7478 80.9474 33.6441 81.0034 33.5552C81.041 33.4954 81.1176 33.5032 81.1821 33.5026C81.3915 33.5009 81.6011 33.5013 81.8107 33.5013C82.1792 33.5013 82.5476 33.4994 82.9161 33.5024C83.1381 33.5041 83.173 33.5425 83.161 33.7473C83.1523 33.8985 83.1279 33.9269 82.9616 33.9293C82.6581 33.9337 82.3547 33.9305 82.0513 33.9305V33.931V33.9312Z" fill="white"/>
<path d="M70.1136 33.4196C69.9617 33.4196 69.8097 33.4247 69.6582 33.4179C69.517 33.4115 69.4908 33.3725 69.4893 33.206C69.4878 33.0377 69.515 32.9897 69.6489 32.987C69.9597 32.9804 70.2708 32.9804 70.5814 32.9861C70.7238 32.9889 70.7492 33.0304 70.7503 33.1971C70.7514 33.3729 70.7236 33.4122 70.569 33.4183C70.4175 33.4245 70.2653 33.4196 70.1136 33.4196Z" fill="white"/>
<path d="M82.1072 33.3277C81.9624 33.3277 81.8174 33.3328 81.6729 33.3262C81.5225 33.3192 81.4977 33.2848 81.4962 33.122C81.4946 32.9485 81.5225 32.9082 81.6816 32.905C81.9711 32.8995 82.2606 32.8993 82.5502 32.9055C82.7001 32.9086 82.7252 32.9464 82.7271 33.109C82.7291 33.2821 82.701 33.3198 82.5414 33.3266C82.3969 33.3328 82.2519 33.3279 82.1072 33.3279V33.3277Z" fill="white"/>
</g>
<defs>
<clipPath id="clip0_2627_17884">
<rect width="148" height="32" fill="white" transform="translate(26 9)"/>
</clipPath>
</defs>
</svg>
