<svg width="200" height="50" viewBox="0 0 200 50" fill="none" xmlns="http://www.w3.org/2000/svg">
<path d="M56.7058 11.3018C56.5581 11.7975 56.9411 18.1871 56.5972 18.1871H42.9502V31.8128H56.7058V38.6982H36V11.3018H56.7058Z" fill="white"/>
<path d="M164 26.3771V27.0294H157.918C157.553 29.2769 160.192 30.9628 161.428 28.6957L161.574 28.6239L163.673 28.7689L163.852 28.8769C162.589 32.2753 157.047 32.3833 155.683 29.0117C154.639 26.43 155.222 22.5047 158.321 21.7429C161.073 21.0667 163.338 22.2814 163.834 25.1283L163.999 26.3764L164 26.3771ZM161.538 25.4349C161.485 22.4554 157.899 22.4191 157.918 25.4349H161.538Z" fill="white"/>
<path d="M132.653 21.8833L130.164 22.1631C129.63 20.7237 128.439 20.5229 127.039 20.6491C125.901 20.752 124.753 21.642 125.611 22.8081C126.634 24.199 131.16 23.5895 132.522 25.8196C133.389 27.2409 133.13 29.2985 131.818 30.361C129.492 32.2454 122.578 31.9519 122.227 27.9714L124.713 27.6177C125.271 29.3376 126.952 29.5841 128.553 29.4116C129.712 29.2869 130.905 28.5085 130.266 27.2082C129.382 25.4115 123.362 26.4639 122.839 22.9741C122.441 20.3164 124.036 19.0777 126.473 18.7762C128.915 18.4747 132.35 18.8306 132.653 21.8826L132.653 21.8833Z" fill="white"/>
<path d="M97.4664 21.7385L97.5395 23.1873C98.543 21.2703 101.616 20.9666 103.006 22.6075C104.43 24.289 104.431 28.3216 103.174 30.0973C101.837 31.9839 98.6595 31.9354 97.5395 29.8567L97.6112 35.0019H95.0773L95.0049 21.7385H97.4664ZM99.1851 23.3504C96.5795 23.7889 97.1189 31.2316 100.384 29.4784C101.934 28.6463 102.14 22.8525 99.1851 23.3504Z" fill="white"/>
<path d="M76.2533 22.2448L73.9815 22.8196C73.0099 20.2822 68.9846 20.0792 67.8038 22.5203C67.2079 23.7516 67.1811 25.7991 67.6177 27.0842C68.6798 30.2115 73.0939 30.0804 74.1255 27.0225L76.3938 27.8307C75.1521 32.2772 68.0289 32.6163 65.6803 29.0236C64.2338 26.8109 64.2548 22.6783 65.9706 20.6127C68.3952 17.694 75.3208 17.9803 76.2533 22.2448Z" fill="white"/>
<path d="M148.796 29.7834V31.1605C148.796 31.2279 147.571 31.3772 147.46 31.3815C146.189 31.4301 145.365 31.0032 145.248 29.6392C143.51 32.531 138.689 32.0295 139.176 28.0164C139.357 26.5234 140.864 25.5072 142.317 25.5072H144.887V24.3114C144.887 23.9077 144.381 23.3539 143.964 23.2778C142.868 23.0793 142.354 23.5206 142.163 24.5694L139.632 24.4244C139.782 21.75 143.079 21.1934 145.176 21.7754C148.261 22.6313 147.261 25.9051 147.418 28.2998C147.489 29.3841 147.479 29.9436 148.797 29.7827L148.796 29.7834ZM144.887 26.8843H143.692C142.645 26.8843 141.731 27.2308 141.769 28.4426C141.819 30.0436 143.623 29.9226 144.411 28.9086C144.516 28.7731 144.887 28.0628 144.887 27.936V26.885L144.887 26.8843Z" fill="white"/>
<path d="M115.479 21.6153C119.185 21.2326 121.296 23.2873 121.071 26.996C120.86 30.464 117.923 32.0781 114.697 31.27C110.122 30.1234 110.247 22.156 115.479 21.616V21.6153ZM115.984 23.354C112.899 23.7026 113.666 31.3794 117.281 29.4356C118.931 28.5485 119.158 22.9952 115.984 23.354Z" fill="white"/>
<path d="M86.5709 21.7385C86.9299 21.8668 88.6306 28.1861 88.96 28.987L91.0957 21.7385H93.7745L89.9721 31.8839C89.225 33.5915 88.425 34.9417 86.3566 35.0055C86.206 35.0098 84.724 34.9388 84.724 34.8569V33.045C86.387 33.4371 87.2514 32.6558 87.6836 31.1229L84.0362 22.0284L84 21.7385H86.5701H86.5709Z" fill="white"/>
<path d="M108.688 19.5642V21.7385H110.426V23.478H108.688V28.8775C108.688 29.7132 110.003 29.7255 110.571 29.5661V31.1606C110.571 31.2613 108.733 31.4577 108.581 31.457C107.384 31.4483 106.154 30.8062 106.154 29.4574V23.478H104.996V21.7385H106.299L107.023 19.5642H108.688Z" fill="white"/>
<path d="M152.488 19.5642V21.7385H154.226V23.478H152.488V28.8775C152.488 29.7132 153.803 29.7255 154.371 29.5661V31.1606C154.371 31.2613 152.533 31.4577 152.38 31.457C151.184 31.4483 149.954 30.8062 149.954 29.4574V23.478H148.796V21.7385H150.099L150.823 19.5642H152.488Z" fill="white"/>
<path d="M137.43 18.2595H134.896V31.3054H137.43V18.2595Z" fill="white"/>
<path d="M83.6381 21.6661V23.8404C82.6651 23.5846 81.6703 23.5657 81.0904 24.5152C80.9579 24.7326 80.6698 25.54 80.6698 25.7611V31.1969L80.5612 31.3056H78.1359L78.0635 21.7386H80.4526L80.6336 23.5512C81.0665 22.0459 82.0113 21.2544 83.6381 21.6661Z" fill="white"/>
</svg>
