<svg width="200" height="50" viewBox="0 0 200 50" fill="none" xmlns="http://www.w3.org/2000/svg">
<path d="M62.2717 5.56349C60.4218 5.63054 58.8362 5.88955 57.1178 6.40493C54.9445 7.05705 52.9448 8.05363 51.07 9.42098C49.5225 10.5477 48.0565 12.0045 46.893 13.5703C45.8635 14.9561 44.9932 16.5338 44.3871 18.1128C44.2109 18.573 44.203 18.6032 44.2569 18.6387C44.2845 18.6558 45.0642 18.6584 51.4131 18.6545C55.3311 18.6532 59.1294 18.6532 59.8525 18.6545C61.659 18.6571 62.7489 18.6847 63.9151 18.7584C64.9511 18.8228 65.6374 18.9898 66.3724 19.3579C67.3111 19.8286 67.983 20.5004 68.4444 21.4286C69.0584 22.6684 69.1321 24.0411 68.6614 25.4623C68.0356 27.3477 66.5026 28.4205 64.0256 28.7019C63.6114 28.7492 62.9251 28.7952 62.6253 28.7952C62.5202 28.7952 62.4623 28.8005 62.4518 28.811C62.4202 28.8425 62.436 28.8886 62.5057 28.9766C62.5451 29.0253 62.9291 29.5196 63.359 30.0771C65.8859 33.3495 69.2057 37.6435 70.3508 39.1226C71.0779 40.0627 71.8654 41.0803 72.1008 41.384C72.5728 41.9953 72.5741 41.9967 72.6793 41.9651C72.8423 41.9138 73.927 41.2407 74.5436 40.8068C77.177 38.9504 79.3306 36.4629 80.7624 33.6204C82.3585 30.4531 83.033 26.9677 82.7411 23.3916C82.5649 21.2222 82.0048 19.0765 81.0963 17.0807C80.953 16.7678 80.5796 16.0276 80.4008 15.7068C79.7855 14.5985 79.044 13.523 78.2486 12.5869C76.705 10.7699 74.8184 9.22245 72.724 8.05627C72.3558 7.85116 71.563 7.45542 71.1726 7.28319C69.065 6.34971 66.8049 5.77648 64.5791 5.61082C63.9256 5.56218 62.8896 5.53983 62.2717 5.56349ZM63.7705 9.94162C64.0847 9.96135 64.4279 9.99027 64.704 10.0218C67.1494 10.2966 69.4555 11.142 71.521 12.5199C72.3979 13.1049 73.1355 13.711 73.8941 14.471C74.6553 15.2322 75.2365 15.9422 75.8268 16.8309C76.6367 18.0523 77.206 19.2251 77.6648 20.624C77.8147 21.0815 77.8896 21.3458 77.8791 21.3866C77.8752 21.4037 77.8594 21.4247 77.8449 21.4326C77.8279 21.4418 77.486 21.4457 76.8194 21.447C75.8636 21.447 75.8176 21.447 75.7768 21.4234C75.7111 21.3839 75.6861 21.3353 75.5901 21.0566C75.1313 19.7103 74.5055 18.5283 73.6588 17.4029C72.3611 15.6779 70.7571 14.3434 68.8586 13.406C67.4242 12.6987 65.9977 12.2766 64.487 12.1123C61.8089 11.8217 59.3043 12.2609 56.9535 13.4336C56.0003 13.9096 55.1851 14.442 54.3726 15.1191C53.7455 15.6424 53.1131 16.2774 52.6056 16.8967C52.4439 17.0926 52.3952 17.1373 52.3137 17.1596C52.2835 17.1675 51.8391 17.1728 51.0936 17.1728C49.9366 17.1728 49.9196 17.1728 49.8933 17.1465C49.8788 17.132 49.867 17.1123 49.867 17.1031C49.867 17.0821 50.2351 16.5338 50.4113 16.2919C51.3553 15.0021 52.5648 13.7939 53.8467 12.863C55.7137 11.5075 57.8817 10.5793 60.1313 10.1717C60.765 10.0573 61.6051 9.96529 62.3308 9.92847C62.6096 9.91533 63.4615 9.9219 63.7705 9.94162ZM77.7108 29.8418C77.7306 29.8549 77.7398 29.8746 77.7398 29.9049C77.7398 29.9285 77.6859 30.1073 77.6201 30.3019C76.9825 32.1925 76.049 33.8544 74.7737 35.369C74.37 35.8489 73.7561 36.4852 73.309 36.8862C72.7792 37.3621 72.1599 37.8512 71.6446 38.1983C71.4473 38.3324 71.4118 38.3443 71.354 38.2956C71.3316 38.2759 71.1739 38.0524 71.0043 37.7973C70.8347 37.5436 70.6059 37.2044 70.4955 37.0453C70.2812 36.735 70.2588 36.6995 70.2588 36.6601C70.2588 36.6141 70.3088 36.5693 70.5178 36.4247C72.273 35.2152 73.6798 33.6519 74.7171 31.76C74.9735 31.2906 75.2444 30.699 75.4376 30.1823C75.4889 30.0442 75.5415 29.918 75.5546 29.8996C75.5678 29.8812 75.5993 29.8562 75.6243 29.8444C75.6651 29.822 75.7426 29.8207 76.6748 29.8207C77.5649 29.8207 77.6845 29.8233 77.7108 29.8418Z" fill="white"/>
<path d="M86.8542 9.02386L86.8581 10.0928L88.3215 10.0967L89.7835 10.0993V13.8332V17.5671H90.9799H92.1763V13.8332V10.0993H93.6291H95.0819V9.02781V7.95628H90.9667H86.8516L86.8542 9.02386Z" fill="white"/>
<path d="M96.3574 12.7617V17.5671H97.5538H98.7503V15.6542V13.7412H100.716H102.681V15.6542V17.5671H103.878H105.074V12.7617V7.95628H103.878H102.681V9.77722V11.5982H100.716H98.7503V9.77722V7.95628H97.5538H96.3574V12.7617Z" fill="white"/>
<path d="M106.862 12.7617V17.5671H110.642H114.422V16.4956V15.4241H111.839H109.255V14.5826V13.7412H111.602H113.949V12.6697V11.5982H111.602H109.255V10.8487V10.0993H111.839H114.422V9.02781V7.95628H110.642H106.862V12.7617Z" fill="white"/>
<path d="M91.9458 20.0204C91.5106 20.052 91.2464 20.0901 90.9466 20.1637C89.5832 20.499 88.4091 21.3588 87.6979 22.5434C86.9839 23.7346 86.8209 25.1295 87.2456 26.4351C87.7767 28.0641 89.1954 29.3723 90.9006 29.8009C91.3384 29.9113 91.7 29.956 92.1628 29.956C92.5874 29.9573 92.8622 29.9284 93.2737 29.8403C94.1875 29.6431 95.0316 29.1987 95.7455 28.5374C95.8375 28.4506 95.9282 28.3625 95.9453 28.3402L95.9769 28.2981L95.1644 27.5776C94.7173 27.1806 94.3295 26.8361 94.3032 26.8124L94.2559 26.769L94.0863 26.9426C93.9942 27.0373 93.8706 27.153 93.8128 27.2003C93.4736 27.4738 93.0634 27.6683 92.6361 27.7591C92.5151 27.784 92.4586 27.788 92.1693 27.788C91.8604 27.7893 91.8301 27.7867 91.6724 27.7525C91.1281 27.6355 90.6442 27.3646 90.2564 26.9597C89.737 26.4193 89.4544 25.7199 89.4544 24.9823C89.4544 24.5445 89.5411 24.1698 89.7357 23.7661C90.1236 22.9668 90.8283 22.4041 91.6658 22.2266C91.8854 22.1806 92.2785 22.1674 92.5046 22.2003C93.1396 22.2923 93.747 22.6341 94.1783 23.1403L94.2374 23.2113L95.1065 22.4382C95.8559 21.7717 95.9729 21.6639 95.9624 21.6428C95.9427 21.6047 95.6206 21.3115 95.451 21.1774C94.6542 20.5411 93.7063 20.1506 92.7123 20.0467C92.5243 20.027 92.0707 20.0112 91.9458 20.0204Z" fill="white"/>
<path d="M101.44 20.0256C100.163 20.115 98.9828 20.6488 98.0848 21.5441C97.6509 21.9767 97.3617 22.3777 97.1001 22.9115C96.6044 23.9186 96.4821 25.0151 96.7464 26.0892C97.0619 27.3777 97.9165 28.511 99.1037 29.221C100.283 29.9244 101.673 30.136 102.997 29.8126C104.904 29.3472 106.414 27.8418 106.828 25.9919C107.03 25.0913 106.955 24.1434 106.616 23.2796C106.361 22.6314 105.994 22.0753 105.482 21.5638C104.797 20.8775 103.966 20.4069 103.027 20.1728C102.527 20.0479 101.927 19.9927 101.44 20.0256ZM102.271 22.2265C102.986 22.379 103.612 22.8155 104.027 23.4531C104.138 23.6227 104.281 23.9199 104.343 24.1079C104.453 24.4445 104.488 24.6943 104.478 25.0611C104.467 25.491 104.385 25.8302 104.201 26.2115C103.855 26.9307 103.225 27.475 102.477 27.6985C102.229 27.7734 102.107 27.7892 101.767 27.7892C101.493 27.7892 101.433 27.7853 101.307 27.7603C100.776 27.6525 100.328 27.4158 99.9334 27.0385C99.3693 26.4968 99.0525 25.7566 99.0525 24.9822C99.0525 24.5444 99.1445 24.1513 99.3404 23.7529C99.7335 22.9509 100.468 22.3764 101.301 22.2212C101.507 22.1831 101.495 22.1844 101.813 22.1884C102.072 22.1923 102.129 22.1962 102.271 22.2265Z" fill="white"/>
<path d="M108.388 24.989V29.7944H109.578H110.767V24.989V20.1836H109.578H108.388V24.989Z" fill="white"/>
<path d="M112.646 24.989V29.7944H113.836H115.026L115.029 26.9572L115.033 24.12L117.123 26.9572L119.214 29.7944H120.407H121.6V24.989V20.1836H120.41H119.22V23.0261C119.22 25.8015 119.22 25.8686 119.195 25.8436C119.182 25.8291 118.238 24.5499 117.097 22.9998L115.024 20.1836H113.835H112.646V24.989Z" fill="white"/>
<path d="M49.0255 20.5122C43.9348 20.5188 43.706 20.5201 43.6731 20.5425C43.6153 20.5806 43.589 20.6687 43.4996 21.1104C43.2537 22.3147 43.1551 23.1575 43.1209 24.3053C43.0854 25.5122 43.1393 26.6311 43.2813 27.6316C43.685 30.4886 44.6829 33.1299 46.2698 35.5517C48.0158 38.2167 50.5191 40.5057 53.3773 42.0505C55.6532 43.2811 58.2603 44.0897 60.7794 44.3487C61.4973 44.4223 62.0573 44.446 63.0474 44.446C64.2057 44.4473 64.8118 44.4066 65.807 44.2619C67.4334 44.0253 68.9269 43.6309 70.364 43.0576C70.8793 42.8512 70.8938 42.842 70.8557 42.7644C70.8307 42.7132 67.7358 38.7071 64.8998 35.0534C60.9451 29.9614 59.2727 27.8157 58.7902 27.2201C58.6837 27.0899 58.6613 27.0531 58.6679 27.0281C58.6824 26.9677 58.7271 26.9624 59.061 26.9808C59.4502 27.0018 62.9159 26.9926 63.2117 26.969C64.2898 26.8861 64.8525 26.7639 65.3692 26.4996C65.6545 26.3537 65.8688 26.1906 66.1199 25.9303C66.5854 25.4491 66.8628 24.9048 66.9745 24.2593C66.9995 24.1212 67.0035 24.0423 67.0048 23.7728C67.0048 23.5756 66.9982 23.4047 66.9877 23.3324C66.8299 22.2345 66.3487 21.4891 65.4862 21.0053C65.0602 20.766 64.5751 20.6187 63.9677 20.5438C63.6311 20.5017 61.1936 20.4964 49.0255 20.5122ZM48.99 22.1425C49.8498 22.1425 49.8669 22.1425 49.8932 22.1688C49.93 22.2056 49.9261 22.2464 49.8748 22.4554C49.7394 22.9905 49.6395 23.6413 49.5816 24.3513C49.5645 24.5735 49.5593 24.7917 49.558 25.3637C49.558 26.1104 49.5645 26.2551 49.6185 26.7902C49.8157 28.7334 50.4375 30.5938 51.4617 32.299C52.0218 33.2325 52.6674 34.0555 53.4681 34.8575C54.5054 35.8948 55.6045 36.6942 56.8812 37.3411C58.309 38.0642 59.913 38.5454 61.4171 38.7019C62.741 38.8386 64.1583 38.7939 65.2956 38.5756C65.4113 38.5546 65.5441 38.5336 65.5914 38.5296C65.736 38.5191 65.7439 38.527 66.024 38.9451C66.1567 39.1436 66.4092 39.5196 66.5854 39.7799C66.9311 40.2901 66.943 40.3124 66.872 40.3584C66.7983 40.4058 66.0621 40.5714 65.5257 40.6595C65.0497 40.7384 64.4213 40.8094 63.8099 40.8541C63.5009 40.8765 62.4215 40.8765 62.0942 40.8541C61.2527 40.7963 60.5217 40.7003 59.8012 40.5543C57.8488 40.1586 55.9779 39.3724 54.2977 38.243C50.9135 35.9672 48.5588 32.441 47.7568 28.4481C47.4899 27.1175 47.3978 25.5556 47.507 24.2067C47.5661 23.4836 47.7278 22.3568 47.7896 22.2359C47.8304 22.1543 47.8961 22.1267 48.0263 22.1359C48.0736 22.1399 48.5062 22.1425 48.99 22.1425Z" fill="white"/>
<path d="M152.7 32.2609C151.437 32.3648 150.279 32.892 149.386 33.7729C148.629 34.5197 148.136 35.461 147.969 36.4786C147.923 36.7508 147.908 36.9362 147.908 37.2228C147.908 37.5094 147.923 37.6948 147.969 37.9669C148.191 39.3159 148.985 40.5241 150.17 41.3183C150.886 41.7981 151.637 42.0716 152.536 42.182C152.747 42.2083 153.443 42.2031 153.66 42.1755C154.858 42.0177 155.88 41.5299 156.708 40.72L156.889 40.5426L156.02 39.7708L155.15 39.0003L155.062 39.1003C154.815 39.3816 154.506 39.6143 154.165 39.78C153.232 40.2323 152.161 40.0771 151.345 39.3737C150.667 38.79 150.288 37.8736 150.365 37.0059C150.456 35.9922 151.064 35.1087 151.964 34.6774C153.024 34.1712 154.237 34.4381 155.049 35.3585L155.137 35.4584L156.012 34.6814L156.888 33.903L156.72 33.7374C156.15 33.1799 155.454 32.7618 154.681 32.5107C154.131 32.3319 153.729 32.2662 153.141 32.2596C152.935 32.2583 152.737 32.2583 152.7 32.2609Z" fill="white"/>
<path d="M87.377 37.2292V42.0347H88.5734H89.7698V40.5293V39.0239L90.3562 39.0265L90.9439 39.0305L91.997 40.5319L93.0501 42.0334L94.4083 42.0347C95.4916 42.0347 95.7651 42.0307 95.7572 42.0176C95.7519 42.0097 95.2339 41.2695 94.6055 40.3754C93.9783 39.4814 93.4643 38.7452 93.4643 38.7386C93.4656 38.7333 93.5642 38.6794 93.6851 38.6203C94.6725 38.1377 95.2891 37.3002 95.4587 36.2103C95.4916 35.996 95.4916 35.4517 95.4587 35.2374C95.2997 34.2119 94.7409 33.4086 93.839 32.9063C93.3933 32.6578 92.8227 32.4909 92.2415 32.437C92.1429 32.4291 91.2621 32.4238 89.7343 32.4238H87.377V37.2292ZM91.834 34.6195C92.4019 34.6799 92.8279 34.9705 92.9725 35.3952C93.0527 35.6344 93.033 35.9592 92.9226 36.1761C92.774 36.4693 92.4782 36.6836 92.0917 36.7822C91.8826 36.8348 91.7367 36.8414 90.7269 36.8414H89.7698V35.7238V34.6063H90.7401C91.2897 34.6063 91.763 34.6129 91.834 34.6195Z" fill="white"/>
<path d="M97.002 37.2292V42.0347H100.782H104.562V40.9631V39.8916H101.978H99.3948V39.0502V38.2087H101.742H104.088V37.1372V36.0657H101.742H99.3948V35.3163V34.5669H101.978H104.562V33.4953V32.4238H100.782H97.002V37.2292Z" fill="white"/>
<path d="M106.034 37.2292V42.0347H107.231H108.427V40.5306V39.0252L109.673 39.0199C110.738 39.016 110.94 39.012 111.068 38.9936C111.747 38.8963 112.288 38.6991 112.759 38.3783C113.43 37.9221 113.877 37.2779 114.058 36.5061C114.125 36.2221 114.14 36.0854 114.14 35.7238C114.14 35.3623 114.125 35.2256 114.058 34.9416C113.752 33.6386 112.682 32.7104 111.221 32.479C110.886 32.4251 110.817 32.4238 108.392 32.4238H106.034V37.2292ZM110.491 34.6195C111.059 34.6799 111.485 34.9705 111.63 35.3952C111.71 35.6344 111.69 35.9592 111.58 36.1761C111.431 36.4693 111.135 36.6836 110.749 36.7822C110.54 36.8348 110.394 36.8414 109.384 36.8414H108.427V35.7238V34.6063H109.397C109.947 34.6063 110.42 34.6129 110.491 34.6195Z" fill="white"/>
<path d="M115.281 35.352C115.285 38.2786 115.285 38.2812 115.314 38.4785C115.395 39.0425 115.532 39.4869 115.764 39.9444C116.353 41.108 117.474 41.9034 118.845 42.1335C119.175 42.1887 119.324 42.1992 119.76 42.1979C120.207 42.1979 120.408 42.1795 120.772 42.1072C122.175 41.8258 123.273 40.9633 123.816 39.7156C123.979 39.3409 124.087 38.9478 124.154 38.4785C124.183 38.2812 124.183 38.2786 124.187 35.352L124.192 32.424H123.001H121.811V35.1442C121.811 36.8929 121.806 37.9131 121.798 37.9999C121.747 38.5258 121.565 38.9794 121.264 39.3422C120.896 39.784 120.335 40.0378 119.73 40.0364C118.629 40.0338 117.801 39.2134 117.684 38.0065C117.675 37.9105 117.67 36.9652 117.67 35.1429V32.424H116.473H115.275L115.281 35.352Z" fill="white"/>
<path d="M125.966 37.2292V42.0347L128.79 42.0307C131.887 42.0268 131.661 42.032 132.082 41.9492C133.206 41.7257 134.029 41.0723 134.318 40.1743C134.405 39.9061 134.426 39.7641 134.426 39.4446C134.426 39.1422 134.417 39.0673 134.353 38.8161C134.167 38.0891 133.632 37.4672 132.85 37.0702L132.68 36.9834L132.774 36.9321C133.144 36.7323 133.472 36.4194 133.679 36.0696C133.841 35.7948 133.946 35.4714 133.987 35.1204C134.006 34.9508 133.996 34.6024 133.967 34.4485C133.837 33.7412 133.382 33.1561 132.686 32.7998C132.356 32.6302 132.029 32.5316 131.554 32.4541C131.427 32.433 131.185 32.4317 128.691 32.4278L125.966 32.4225V37.2292ZM130.548 34.4617C130.745 34.4814 130.878 34.5169 131.039 34.5945C131.158 34.6523 131.192 34.6773 131.289 34.7746C131.464 34.9495 131.53 35.102 131.531 35.3294C131.531 35.4662 131.511 35.5582 131.454 35.6778C131.326 35.946 131.038 36.1406 130.674 36.2037C130.583 36.2195 130.372 36.2235 129.455 36.2235H128.346V35.336V34.4485H129.375C129.986 34.4485 130.462 34.4538 130.548 34.4617ZM130.955 38.0904C131.379 38.1391 131.711 38.3402 131.868 38.6413C131.939 38.778 131.964 38.8845 131.964 39.0436C131.964 39.2027 131.939 39.3092 131.868 39.4446C131.734 39.7036 131.459 39.8916 131.1 39.9718C130.97 40.0007 130.958 40.0021 129.658 40.006L128.346 40.0113V39.0449V38.0773H129.592C130.358 38.0773 130.882 38.0825 130.955 38.0904Z" fill="white"/>
<path d="M135.761 37.2292V42.0347H139.265H142.768V40.9631V39.8916H140.454H138.14V36.1577V32.4238H136.951H135.761V37.2292Z" fill="white"/>
<path d="M144.057 37.2292V42.0347H145.253H146.449V37.2292V32.4238H145.253H144.057V37.2292Z" fill="white"/>
</svg>
