<svg width="200" height="50" viewBox="0 0 200 50" fill="none" xmlns="http://www.w3.org/2000/svg">
<g clip-path="url(#clip0_2664_10857)">
<path d="M31 23.8218C31.0823 23.3452 31.1469 22.8648 31.2503 22.3926C31.7131 20.282 32.676 18.4218 34.1506 16.8231C36.0235 14.7928 38.3292 13.5298 41.0643 13.0306C41.418 12.9662 41.4542 12.9927 41.4548 13.3438C41.4564 14.3228 41.4514 15.3014 41.4581 16.2804C41.4598 16.4956 41.3952 16.5952 41.1666 16.658C37.6222 17.6321 35.4061 19.8868 34.7158 23.4586C34.2118 26.0672 34.9016 28.4447 36.6599 30.4628C38.58 32.667 41.062 33.6102 43.9846 33.4138C45.3079 33.3246 46.5422 32.913 47.6753 32.2294C47.8806 32.1056 48.0074 32.1177 48.1748 32.2867C48.8818 32.9988 49.5966 33.7027 50.3197 34.3983C50.4977 34.5695 50.51 34.6642 50.2936 34.8127C48.5536 36.0042 46.6374 36.7263 44.5314 36.9552C44.468 36.9624 44.4068 36.9844 44.3445 36.9998H42.065C41.8653 36.9679 41.6656 36.9305 41.4653 36.9041C36.7088 36.2811 32.5786 32.6565 31.3827 28.0628C31.2119 27.4068 31.1135 26.7392 31 26.0733C31 25.3226 31 24.5725 31 23.8218Z" fill="white"/>
<path d="M121.164 29.473C121.29 29.0839 121.418 28.6953 121.541 28.3057C122.723 24.57 123.905 20.8342 125.086 17.0985C125.202 16.7319 125.329 16.3682 125.432 15.9983C125.485 15.8085 125.577 15.7276 125.782 15.7325C126.236 15.7441 126.69 15.7446 127.143 15.7325C127.35 15.727 127.438 15.8145 127.495 15.9978C128.246 18.3819 129.002 20.7638 129.756 23.1468C130.413 25.2243 131.068 27.3019 131.725 29.3794C131.74 29.4284 131.767 29.4741 131.815 29.5775C131.935 29.2132 132.038 28.905 132.137 28.5957C133.487 24.3944 134.837 20.1931 136.182 15.9901C136.243 15.7986 136.34 15.7303 136.539 15.7331C137.188 15.7419 137.836 15.7353 138.485 15.7364C138.837 15.7369 138.846 15.7479 138.739 16.0726C138.083 18.0638 137.425 20.0549 136.768 22.0461C135.456 26.0196 134.142 29.992 132.838 33.9682C132.76 34.2054 132.646 34.2847 132.404 34.2742C132.006 34.2577 131.606 34.2533 131.209 34.2753C130.945 34.2902 130.836 34.1867 130.76 33.9473C129.963 31.4245 129.156 28.9045 128.352 26.3844C127.758 24.527 127.163 22.6702 126.568 20.8128C126.541 20.728 126.508 20.6449 126.469 20.5376C126.361 20.6438 126.353 20.7665 126.319 20.8727C124.947 25.2012 123.578 29.5302 122.208 33.8592C122.078 34.2692 122.075 34.2687 121.634 34.2687C121.244 34.2687 120.855 34.261 120.466 34.2714C120.269 34.2769 120.168 34.2098 120.105 34.0177C118.885 30.3035 117.66 26.5908 116.435 22.8782C115.692 20.6262 114.946 18.3753 114.202 16.1233C114.077 15.7435 114.083 15.7358 114.476 15.7353C115.097 15.7342 115.718 15.7474 116.338 15.7292C116.598 15.7215 116.713 15.8107 116.79 16.0534C117.605 18.6185 118.431 21.1804 119.253 23.7433C119.824 25.5215 120.395 27.2997 120.966 29.0778C121.008 29.2077 121.053 29.3359 121.097 29.4653C121.12 29.4675 121.142 29.4697 121.164 29.4719V29.473Z" fill="white"/>
<path d="M71.739 34.4882C67.1794 34.5355 63.1216 31.3766 62.2149 26.9034C61.5841 23.7928 62.3434 21.0015 64.476 18.6157C66.1359 16.7583 68.2491 15.706 70.7406 15.4798C73.5902 15.2217 76.0923 16.0759 78.2205 17.9724C78.5409 18.258 78.5336 18.2662 78.2377 18.5585C77.8122 18.9789 77.38 19.3939 76.9633 19.8232C76.8098 19.9817 76.7102 19.9646 76.5545 19.8243C75.1005 18.51 73.3816 17.8447 71.4131 17.9146C67.9092 18.0395 65.1124 20.5595 64.6073 23.8033C64.1512 26.7306 65.1903 29.0932 67.6155 30.8251C70.1515 32.6352 73.85 32.442 76.2124 30.4278C76.3921 30.2748 76.545 29.9958 76.7659 30.0068C77.0001 30.0183 77.1386 30.3083 77.3166 30.4779C77.6637 30.8081 77.9941 31.1548 78.3428 31.4822C78.4964 31.6264 78.4819 31.7255 78.3362 31.8614C76.8894 33.2164 75.1839 34.0562 73.217 34.3754C72.7052 34.4585 72.1896 34.5146 71.739 34.4877V34.4882Z" fill="white"/>
<path d="M163.848 28.8356C162.282 28.8356 160.717 28.8405 159.151 28.8306C158.9 28.829 158.856 28.9005 158.913 29.1295C159.343 30.8823 160.852 32.0975 162.679 32.1597C163.434 32.1855 164.177 32.147 164.895 31.8801C165.495 31.6566 166.015 31.3171 166.454 30.857C166.563 30.7425 166.642 30.6792 166.786 30.8328C167.196 31.2681 167.616 31.6946 168.047 32.1101C168.206 32.2637 168.195 32.3583 168.047 32.5108C166.899 33.688 165.495 34.3297 163.858 34.4981C162.117 34.6769 160.495 34.3445 159.059 33.3335C157.396 32.1619 156.473 30.5626 156.308 28.5378C156.163 26.7575 156.577 25.1351 157.704 23.73C158.967 22.1544 160.636 21.3432 162.677 21.2799C164.352 21.2276 165.851 21.6833 167.084 22.8253C168.258 23.9122 168.841 25.287 168.971 26.8637C169.018 27.4228 169.012 27.9743 168.927 28.5296C168.89 28.7745 168.784 28.8427 168.546 28.8416C166.98 28.8334 165.415 28.8372 163.849 28.8372L163.848 28.8356ZM162.696 26.7767C163.881 26.7767 165.066 26.7778 166.251 26.7751C166.389 26.7751 166.572 26.8202 166.522 26.5621C166.337 25.6106 165.914 24.7977 165.101 24.2242C164.234 23.6117 163.256 23.478 162.219 23.6079C160.579 23.8131 159.338 24.8692 158.931 26.4223C158.839 26.7756 158.839 26.7762 159.197 26.7767C160.364 26.7767 161.53 26.7767 162.696 26.7767Z" fill="white"/>
<path d="M86.7207 21.3267C90.3408 21.2469 93.6221 24.1286 93.4541 28.184C93.3067 31.7448 90.4509 34.628 86.5277 34.5499C83.0878 34.4816 79.8677 31.6507 80.0251 27.5963C80.163 24.046 83.2458 21.2139 86.7207 21.3267ZM82.6016 27.877C82.6105 28.1686 82.61 28.4598 82.6606 28.7509C83.2563 32.1851 87.03 32.9473 89.1548 31.4228C90.3669 30.5533 90.8753 29.3255 90.8742 27.856C90.8725 25.4642 88.904 23.1721 85.72 23.8071C83.9272 24.1649 82.5232 25.8544 82.6016 27.877Z" fill="white"/>
<path d="M104.633 23.0971C105.247 22.4141 105.898 21.9238 106.686 21.6343C110.254 20.3228 113.209 22.637 113.65 25.6606C113.678 25.8516 113.696 26.0415 113.696 26.2335C113.696 28.7767 113.696 31.3204 113.696 33.8635C113.696 34.2554 113.695 34.2565 113.291 34.257C112.698 34.2581 112.105 34.2465 111.513 34.262C111.244 34.2686 111.164 34.1739 111.165 33.913C111.172 31.4981 111.175 29.0827 111.162 26.6672C111.154 25.1879 110.151 23.943 108.682 23.6651C106.579 23.2672 104.92 24.4779 104.675 26.4173C104.647 26.6364 104.633 26.8538 104.633 27.0733C104.633 29.3424 104.633 31.6109 104.633 33.88C104.633 34.2702 104.632 34.2713 104.232 34.2713C103.639 34.2713 103.046 34.262 102.453 34.2724C102.222 34.2763 102.151 34.1915 102.151 33.9681C102.156 29.9335 102.156 25.8989 102.151 21.8643C102.151 21.6436 102.219 21.5523 102.452 21.5561C103.081 21.5666 103.712 21.5649 104.341 21.5567C104.554 21.5539 104.642 21.6288 104.636 21.8445C104.624 22.2353 104.632 22.626 104.632 23.096L104.633 23.0971Z" fill="white"/>
<path d="M55.4626 24.943C55.4499 27.5049 54.7034 29.8378 53.2215 31.9429C53.0836 32.1382 52.9984 32.1503 52.8282 31.9786C52.109 31.2533 51.3814 30.5356 50.6472 29.8251C50.4875 29.671 50.4586 29.5577 50.5838 29.359C51.5144 27.8769 51.9271 26.2523 51.8348 24.5182C51.7269 22.4934 50.9798 20.7147 49.5959 19.2073C48.4311 17.9388 47.0026 17.099 45.3261 16.6752C45.0891 16.6152 44.9923 16.5211 44.9962 16.269C45.0096 15.2812 45.0007 14.2933 45.0029 13.3054C45.0034 13.0044 45.0485 12.9664 45.3472 13.0214C48.6024 13.623 51.2084 15.2498 53.1625 17.8837C54.4269 19.5876 55.1456 21.5094 55.4015 23.6024C55.4293 23.8291 55.4504 24.057 55.461 24.2848C55.471 24.5038 55.4632 24.7234 55.4632 24.943H55.4626Z" fill="white"/>
<path d="M149.222 22.8478C149.29 22.7856 149.318 22.7663 149.338 22.7405C150.003 21.9067 150.874 21.4312 151.936 21.3101C153.359 21.1478 154.643 21.4383 155.682 22.4856C155.939 22.7449 155.941 22.7465 155.684 23.0046C155.274 23.4152 154.86 23.8219 154.459 24.2401C154.327 24.3783 154.237 24.3772 154.093 24.2533C153.172 23.4581 152.112 23.452 151.041 23.8318C149.965 24.2126 149.463 25.0723 149.283 26.1454C149.228 26.4712 149.221 26.7998 149.221 27.1289C149.223 29.3787 149.222 31.6291 149.221 33.8789C149.221 34.2707 149.219 34.2713 148.819 34.2713C148.235 34.2713 147.652 34.2707 147.068 34.2691C146.705 34.268 146.698 34.263 146.698 33.897C146.698 31.2719 146.698 28.6468 146.698 26.0216C146.698 24.659 146.698 23.2957 146.698 21.9331C146.698 21.5693 146.707 21.5611 147.07 21.5605C147.69 21.5594 148.311 21.566 148.931 21.5578C149.148 21.555 149.231 21.637 149.224 21.8489C149.213 22.1648 149.221 22.4812 149.221 22.8478H149.222Z" fill="white"/>
<path d="M143.21 27.9347C143.21 29.9104 143.21 31.8862 143.21 33.8619C143.21 34.2708 143.208 34.2714 142.794 34.2714C142.192 34.2714 141.59 34.2609 140.988 34.2736C140.74 34.2791 140.642 34.2064 140.643 33.9494C140.648 29.9247 140.648 25.9001 140.643 21.8748C140.643 21.6382 140.724 21.5518 140.967 21.5562C141.606 21.5677 142.245 21.5727 142.884 21.5545C143.18 21.5463 143.214 21.6888 143.213 21.9244C143.208 23.9276 143.21 25.9309 143.21 27.9341L143.21 27.9347Z" fill="white"/>
<path d="M98.63 27.9359C98.63 29.9209 98.63 31.9066 98.63 33.8917C98.63 34.2698 98.6284 34.2714 98.2473 34.2714C97.6544 34.2714 97.0614 34.2709 96.4685 34.2692C96.1063 34.2681 96.1002 34.2632 96.1002 33.8955C96.0997 31.0596 96.1002 28.2237 96.1002 25.3872C96.1002 24.2254 96.1063 23.0636 96.0958 21.9019C96.093 21.6377 96.1837 21.5496 96.449 21.5563C97.0508 21.5706 97.6533 21.5601 98.2551 21.5612C98.6267 21.5618 98.63 21.5645 98.63 21.9261C98.6306 23.9299 98.63 25.9331 98.63 27.937V27.9359Z" fill="white"/>
<path d="M140.36 17.4958C140.366 16.6345 141.054 15.9758 141.95 15.9741C142.837 15.9725 143.545 16.6615 143.549 17.5311C143.554 18.4336 142.844 19.1221 141.922 19.11C141.022 19.0979 140.355 18.4089 140.36 17.4964V17.4958Z" fill="white"/>
<path d="M98.961 17.5558C98.9577 18.4424 98.2651 19.1177 97.3679 19.1094C96.4729 19.1012 95.7865 18.4237 95.7765 17.5393C95.767 16.667 96.4701 15.9741 97.3646 15.9741C98.2801 15.9741 98.9638 16.6516 98.9604 17.5564L98.961 17.5558Z" fill="white"/>
</g>
<defs>
<clipPath id="clip0_2664_10857">
<rect width="138" height="24" fill="white" transform="translate(31 13)"/>
</clipPath>
</defs>
</svg>
