<svg width="200" height="50" viewBox="0 0 200 50" fill="none" xmlns="http://www.w3.org/2000/svg">
<path fill-rule="evenodd" clip-rule="evenodd" d="M60.2179 24.9928C60.2234 28.1494 59.3632 31.247 57.7311 33.9489L54.9355 30.0341C55.6049 28.4378 55.9485 26.7238 55.9461 24.9928C55.946 24.1131 55.8579 23.2355 55.6832 22.3733C55.6663 22.2913 55.6495 22.2117 55.6302 22.1321V22.1032C55.6084 22.0163 55.5892 21.9271 55.565 21.8402C55.5409 21.7534 55.5313 21.6979 55.512 21.6304C55.4686 21.4712 55.4251 21.3096 55.3745 21.148L55.3311 21.0057L55.3094 20.9357C55.2611 20.791 55.2105 20.6463 55.1574 20.4991C55.1212 20.3978 55.0826 20.2989 55.044 20.2C55.0054 20.1011 54.9644 20.0022 54.9234 19.9058C54.8824 19.8093 54.839 19.7104 54.7956 19.6139C54.7087 19.4209 54.6171 19.2304 54.5182 19.0422C54.4796 18.9602 54.4362 18.8758 54.3904 18.801C54.3904 18.801 54.3783 18.7817 54.3735 18.7697C54.3686 18.7576 54.3735 18.7697 54.3735 18.7576C54.3276 18.6684 54.277 18.5791 54.2239 18.4899C54.1709 18.4006 54.1202 18.309 54.0623 18.2173C53.9465 18.0243 53.8211 17.8314 53.6957 17.6432C53.0007 16.6158 52.1607 15.6945 51.2016 14.9079C51.1268 14.8452 51.0496 14.7849 50.9724 14.7246C50.8953 14.6643 50.7891 14.5799 50.6951 14.5124C50.601 14.4448 50.5262 14.3845 50.4418 14.3266C50.3574 14.2687 50.285 14.2133 50.2006 14.1602C50.1089 14.0951 50.0148 14.0348 49.9184 13.9745L49.7206 13.849L49.5252 13.7308C47.8485 12.7467 45.9747 12.146 44.0383 11.9721C42.102 11.7982 40.1511 12.0553 38.3259 12.725C37.3611 13.0844 35.3398 14.2929 35.2602 14.3483L32.7637 10.8629L33.0869 10.6506C33.9319 10.075 34.8263 9.57535 35.7595 9.15755C38.1365 8.09766 40.721 7.58472 43.3227 7.65652C45.9243 7.72833 48.4766 8.38305 50.7915 9.57242C50.9556 9.65685 51.1172 9.74368 51.2739 9.83293L51.5152 9.97283L51.7419 10.1079L51.9662 10.243C52.1254 10.3419 52.2822 10.4432 52.4486 10.5469L52.6295 10.6675L52.89 10.8484L53.1602 11.0462L53.3073 11.1547C53.3918 11.2199 53.4762 11.2826 53.5485 11.3501C53.768 11.5214 53.9827 11.6975 54.1926 11.8808C54.4024 12.0641 54.6074 12.2498 54.8101 12.4404L55.1067 12.7322C55.2056 12.8311 55.3021 12.93 55.3986 13.0313C55.5819 13.2219 55.758 13.4173 55.9317 13.6175C56.0064 13.7019 56.0788 13.7887 56.1488 13.8732C56.2187 13.9576 56.2935 14.0468 56.3634 14.1361C56.4334 14.2253 56.4792 14.2784 56.5347 14.3507L56.7035 14.5702L56.8676 14.7946C56.9375 14.8886 57.005 14.9827 57.0702 15.0792C57.1353 15.1757 57.2004 15.2722 57.2655 15.3686C57.3017 15.4193 57.3331 15.47 57.3669 15.5206C57.4006 15.5713 57.4368 15.6219 57.4657 15.675L57.6225 15.9162C57.6973 16.0344 57.7697 16.1574 57.8396 16.2756C57.9096 16.3938 57.9409 16.4517 57.9892 16.5409C58.0374 16.6302 58.0905 16.717 58.1387 16.8087L58.1508 16.8304C58.1547 16.8397 58.1595 16.8486 58.1653 16.8569C58.1685 16.868 58.1734 16.8786 58.1797 16.8883C58.1852 16.9 58.1917 16.9113 58.199 16.922L58.3341 17.1849L58.3534 17.2211C58.404 17.3224 58.4547 17.4237 58.5029 17.525C58.5512 17.6263 58.6067 17.7494 58.6597 17.8603L58.8069 18.1281C58.8479 18.2197 58.8841 18.309 58.9226 18.4006L59.0167 18.6418C59.0601 18.7496 59.1011 18.8581 59.1397 18.9675C59.1531 18.9956 59.1644 19.0246 59.1735 19.0543C59.2193 19.1773 59.2627 19.2955 59.3038 19.4258C59.3954 19.6935 59.4798 19.9661 59.5594 20.241C59.5956 20.3689 59.6294 20.4967 59.6632 20.627C59.6656 20.6365 59.6656 20.6464 59.6632 20.6559C59.7355 20.9333 59.7982 21.2131 59.8585 21.4953C59.8875 21.6352 59.914 21.7751 59.9381 21.915C59.9381 21.915 59.9381 21.9512 59.9381 21.9729C59.9598 22.0935 59.9791 22.2141 59.9984 22.3395C60.0177 22.465 60.037 22.6169 60.0587 22.752V22.7737C60.078 22.9184 60.0925 23.0656 60.1094 23.2103C60.1359 23.4805 60.1576 23.7506 60.1721 24.0256C60.2083 24.3488 60.2179 24.6696 60.2179 24.9928Z" fill="white"/>
<path d="M55.5534 36.8339C54.7643 37.6789 53.8924 38.4425 52.9507 39.1133C52.0091 39.7859 51.0032 40.3636 49.9477 40.8379C46.5583 42.3531 42.7724 42.7422 39.1457 41.9481C35.5189 41.1541 32.242 39.2186 29.7958 36.4257C27.3496 33.6328 25.8628 30.1295 25.5535 26.4297C25.2443 22.7299 26.1288 19.0284 28.0774 15.8681C28.1546 15.7403 28.2366 15.6269 28.3186 15.4894C28.4006 15.3519 28.4826 15.2482 28.5598 15.1156C28.8589 14.6814 29.1805 14.2633 29.5247 13.8613C29.5898 13.7817 29.6573 13.7021 29.7297 13.6201C29.7618 13.5815 29.7956 13.5429 29.831 13.5043C29.9058 13.4175 29.9829 13.333 30.0722 13.2486L30.1614 13.1545L32.6604 16.681L32.6917 16.7244C32.6338 16.7944 32.5759 16.8667 32.5229 16.9415C32.4632 17.0106 32.4077 17.0831 32.3564 17.1586C30.4842 19.6592 29.5683 22.7471 29.7742 25.8641C29.9802 28.9811 31.2945 31.9217 33.4795 34.1542C35.6645 36.3867 38.5761 37.7638 41.688 38.0368C44.7999 38.3097 47.9067 37.4604 50.447 35.6423L48.9998 33.6138L46.5177 30.1404C47.5099 29.4283 48.2768 28.4462 48.7272 27.311C49.1035 26.3511 49.2396 25.3138 49.1239 24.2893C49.0081 23.2648 48.6439 22.2841 48.0629 21.4323C47.4819 20.5806 46.7017 19.8836 45.7901 19.4019C44.8785 18.9203 43.8631 18.6685 42.8321 18.6685C42.7428 18.6685 42.6488 18.6685 42.5595 18.6685H42.5475C41.3328 18.7239 40.1604 19.1312 39.173 19.8408L36.6958 16.365C37.6481 15.6823 38.7079 15.1637 39.8315 14.8309C40.8099 14.5395 41.8256 14.3916 42.8466 14.3919C43.1649 14.3919 43.4761 14.4064 43.7848 14.4329C46.4235 14.6696 48.8783 15.8845 50.6667 17.839C52.4552 19.7935 53.448 22.3462 53.45 24.9954C53.4501 27.1991 52.762 29.3477 51.4818 31.1414L52.9966 33.2616L55.5534 36.8339Z" fill="white"/>
<path fill-rule="evenodd" clip-rule="evenodd" d="M46.5246 30.1258C45.8509 30.6202 45.0857 30.976 44.2735 31.1723C43.4612 31.3687 42.6181 31.4019 41.7929 31.2699C40.9678 31.1379 40.177 30.8434 39.4666 30.4035C38.7561 29.9635 38.1401 29.3869 37.6542 28.707C37.1684 28.0271 36.8223 27.2576 36.6362 26.4429C36.45 25.6283 36.4275 24.7848 36.5698 23.9613C36.7122 23.1379 37.0166 22.3509 37.4655 21.6461C37.9143 20.9412 38.4987 20.3325 39.1846 19.8552L46.5246 30.1258Z" fill="white"/>
<path d="M76.2174 26.6427L78.5475 28.3601C77.0351 30.3863 75.2478 31.2691 73.2747 31.2691C72.4368 31.2855 71.604 31.1346 70.8251 30.8253C70.0462 30.516 69.3368 30.0544 68.7385 29.4677C68.1401 28.8809 67.6648 28.1807 67.3403 27.408C67.0158 26.6353 66.8486 25.8056 66.8486 24.9676C66.8486 24.1295 67.0158 23.2998 67.3403 22.5271C67.6648 21.7544 68.1401 21.0542 68.7385 20.4674C69.3368 19.8807 70.0462 19.4191 70.8251 19.1098C71.604 18.8005 72.4368 18.6496 73.2747 18.666C75.2815 18.666 77.1026 19.5995 78.6174 21.6256L76.2512 23.3599C75.3008 22.0839 74.3215 21.5726 73.2747 21.5726C72.3768 21.5726 71.5158 21.9292 70.8809 22.5641C70.246 23.199 69.8893 24.0601 69.8893 24.9579C69.8893 25.8558 70.246 26.7168 70.8809 27.3517C71.5158 27.9866 72.3768 28.3433 73.2747 28.3433C74.3288 28.3433 75.2646 27.9018 76.2174 26.6427Z" fill="white"/>
<path d="M82.7686 23.7507C83.5442 23.3632 84.4005 23.1648 85.2675 23.1718L84.6042 25.8613C83.6007 25.8613 82.7686 26.3702 82.7686 26.9998V31.1003H80.0791V23.3093H82.7686V23.7507Z" fill="white"/>
<path d="M87.4624 34.6895L89.2136 30.3671L86.3408 23.3093H89.0448L90.5499 26.9829L92.0285 23.3093H94.7324L90.1157 34.6895H87.4624Z" fill="white"/>
<path d="M104.099 27.2048C104.098 28.2827 103.671 29.3165 102.91 30.08C102.533 30.4512 102.086 30.7444 101.596 30.9427C101.105 31.141 100.58 31.2404 100.051 31.2354C99.5584 31.222 99.0823 31.0531 98.691 30.753V34.6991H96.0039V23.3093H98.691V23.6759C99.0797 23.3711 99.5574 23.2017 100.051 23.1935C100.581 23.1889 101.105 23.2888 101.596 23.4875C102.086 23.6862 102.533 23.9797 102.91 24.3513C103.666 25.109 104.093 26.1342 104.099 27.2048ZM101.412 27.2048C101.408 26.9365 101.326 26.6751 101.174 26.4536C101.023 26.2322 100.809 26.0604 100.56 25.96C100.312 25.8597 100.039 25.8351 99.7758 25.8895C99.513 25.9439 99.2722 26.0748 99.0836 26.2657C98.895 26.4566 98.7671 26.699 98.716 26.9624C98.6649 27.2258 98.6928 27.4985 98.7962 27.7461C98.8997 27.9937 99.074 28.2052 99.2974 28.3539C99.5207 28.5027 99.783 28.5821 100.051 28.5821C100.413 28.5776 100.758 28.4303 101.012 28.1723C101.265 27.9143 101.406 27.5665 101.405 27.2048H101.412Z" fill="white"/>
<path d="M105.869 28.2589V25.8082H104.933V23.3093H105.869V20.8755H108.556V23.3093H110.485V25.8082H108.556V28.2203C108.549 28.2772 108.565 28.3345 108.6 28.3796C108.635 28.4248 108.687 28.4542 108.744 28.4615H110.377L111.074 31.0979H108.71C108.336 31.1001 107.966 31.0282 107.62 30.8864C107.275 30.7445 106.961 30.5355 106.697 30.2715C106.432 30.0074 106.223 29.6936 106.081 29.3481C105.939 29.0027 105.867 28.6324 105.869 28.2589Z" fill="white"/>
<path d="M120.004 27.2049C120.004 28.2829 119.576 29.3167 118.815 30.0801C118.061 30.8315 117.039 31.2531 115.974 31.2524C115.443 31.2524 114.918 31.1479 114.428 30.9449C113.938 30.7418 113.492 30.4442 113.117 30.069C112.742 29.6939 112.444 29.2485 112.241 28.7583C112.038 28.2681 111.934 27.7427 111.934 27.2122C111.934 26.6816 112.038 26.1562 112.241 25.666C112.444 25.1759 112.742 24.7305 113.117 24.3553C113.492 23.9801 113.938 23.6825 114.428 23.4795C114.918 23.2764 115.443 23.1719 115.974 23.1719C117.037 23.1658 118.059 23.5823 118.815 24.3297C119.577 25.0928 120.005 26.1268 120.004 27.2049ZM117.317 27.2049C117.303 26.8562 117.154 26.5267 116.902 26.2852C116.65 26.0437 116.314 25.9089 115.965 25.9089C115.616 25.9089 115.281 26.0437 115.029 26.2852C114.777 26.5267 114.628 26.8562 114.613 27.2049C114.606 27.3873 114.635 27.5693 114.699 27.74C114.764 27.9108 114.862 28.0667 114.989 28.1985C115.115 28.3302 115.267 28.4351 115.434 28.5067C115.602 28.5783 115.783 28.6152 115.965 28.6152C116.148 28.6152 116.329 28.5783 116.496 28.5067C116.664 28.4351 116.816 28.3302 116.942 28.1985C117.069 28.0667 117.167 27.9108 117.231 27.74C117.296 27.5693 117.325 27.3873 117.317 27.2049Z" fill="white"/>
<path d="M129.481 27.2048C129.48 28.2831 129.051 29.3168 128.29 30.08C127.913 30.4517 127.466 30.7452 126.976 30.9435C126.485 31.1418 125.96 31.241 125.431 31.2354C124.938 31.2212 124.463 31.0524 124.071 30.753V34.6992H121.384V23.3093H124.078V23.676C124.467 23.3714 124.945 23.202 125.438 23.1935C125.968 23.1884 126.493 23.2881 126.983 23.4868C127.474 23.6855 127.92 23.9793 128.297 24.3513C129.051 25.11 129.477 26.135 129.481 27.2048ZM126.792 27.2048C126.788 26.9365 126.706 26.6752 126.554 26.4537C126.403 26.2322 126.189 26.0605 125.94 25.9601C125.691 25.8597 125.418 25.8352 125.156 25.8895C124.893 25.9439 124.652 26.0748 124.463 26.2657C124.275 26.4566 124.147 26.699 124.096 26.9625C124.045 27.2259 124.073 27.4985 124.176 27.7461C124.28 27.9937 124.454 28.2052 124.677 28.354C124.901 28.5027 125.163 28.5821 125.431 28.5821C125.611 28.5812 125.789 28.5448 125.955 28.475C126.12 28.4053 126.271 28.3035 126.397 28.1756C126.523 28.0477 126.623 27.8961 126.691 27.7295C126.759 27.5629 126.793 27.3846 126.792 27.2048Z" fill="white"/>
<path d="M138.666 27.2049C138.665 28.2834 138.236 29.3175 137.474 30.0801C136.72 30.8319 135.699 31.2535 134.635 31.2524C134.104 31.2524 133.579 31.1479 133.089 30.9449C132.599 30.7418 132.153 30.4442 131.778 30.0691C131.403 29.6939 131.105 29.2485 130.902 28.7583C130.699 28.2681 130.595 27.7427 130.595 27.2122C130.595 26.6816 130.699 26.1562 130.902 25.6661C131.105 25.1759 131.403 24.7305 131.778 24.3553C132.153 23.9801 132.599 23.6825 133.089 23.4795C133.579 23.2765 134.104 23.172 134.635 23.172C135.161 23.1687 135.683 23.2693 136.17 23.468C136.657 23.6667 137.1 23.9595 137.474 24.3297C137.852 24.7071 138.152 25.1552 138.356 25.6486C138.561 26.142 138.666 26.6709 138.666 27.2049ZM135.978 27.2049C135.978 26.8461 135.836 26.5019 135.582 26.2481C135.328 25.9943 134.984 25.8518 134.625 25.8518C134.266 25.8518 133.922 25.9943 133.668 26.2481C133.415 26.5019 133.272 26.8461 133.272 27.2049C133.272 27.5638 133.415 27.908 133.668 28.1618C133.922 28.4155 134.266 28.5581 134.625 28.5581C134.984 28.5581 135.328 28.4155 135.582 28.1618C135.836 27.908 135.978 27.5638 135.978 27.2049Z" fill="white"/>
<path d="M140.198 31.1003V18.6299H142.893V31.1003H140.198Z" fill="white"/>
<path d="M145.285 20.7236C145.284 20.5224 145.323 20.323 145.4 20.1369C145.476 19.9507 145.589 19.7816 145.731 19.6392C145.873 19.4969 146.042 19.384 146.228 19.3072C146.414 19.2305 146.613 19.1913 146.814 19.1919C147.221 19.1919 147.61 19.3533 147.897 19.6405C148.185 19.9278 148.346 20.3173 148.346 20.7236C148.346 21.1298 148.185 21.5194 147.897 21.8066C147.61 22.0939 147.221 22.2552 146.814 22.2552C146.613 22.2559 146.414 22.2167 146.228 22.1399C146.042 22.0631 145.873 21.9503 145.731 21.8079C145.589 21.6655 145.476 21.4964 145.4 21.3103C145.323 21.1242 145.284 20.9248 145.285 20.7236ZM145.471 23.3093H148.158V31.1003H145.471V23.3093Z" fill="white"/>
<path d="M150.982 28.2589V25.8082H150.046V23.3093H150.982V20.8755H153.669V23.3093H155.599V25.8082H153.669V28.2203C153.662 28.2772 153.678 28.3345 153.713 28.3796C153.748 28.4248 153.8 28.4542 153.857 28.4615H155.49L156.187 31.0979H153.823C153.45 31.1001 153.079 31.0282 152.734 30.8864C152.388 30.7445 152.074 30.5355 151.81 30.2715C151.546 30.0074 151.336 29.6936 151.194 29.3481C151.052 29.0027 150.98 28.6324 150.982 28.2589Z" fill="white"/>
<path d="M162.414 23.6759V23.3189H165.12V31.1099H162.414V30.7433C162.04 31.0625 161.562 31.2341 161.07 31.2257C160.532 31.2388 159.997 31.1443 159.497 30.9476C158.996 30.7509 158.54 30.456 158.155 30.0803C157.77 29.7046 157.464 29.2557 157.255 28.76C157.046 28.2643 156.938 27.7318 156.938 27.1939C156.938 26.656 157.046 26.1235 157.255 25.6278C157.464 25.1321 157.77 24.6832 158.155 24.3075C158.54 23.9318 158.996 23.6369 159.497 23.4402C159.997 23.2435 160.532 23.1489 161.07 23.1621C161.566 23.1624 162.044 23.3453 162.414 23.6759ZM162.414 27.2144C162.409 26.9474 162.325 26.6878 162.173 26.4683C162.021 26.2488 161.808 26.0791 161.56 25.9807C161.311 25.8822 161.04 25.8594 160.778 25.9151C160.517 25.9708 160.278 26.1025 160.092 26.2936C159.906 26.4848 159.78 26.7268 159.731 26.9892C159.681 27.2517 159.711 27.5228 159.816 27.7685C159.92 28.0141 160.095 28.2234 160.318 28.3699C160.542 28.5164 160.803 28.5935 161.07 28.5917C161.249 28.5889 161.426 28.5507 161.591 28.4795C161.755 28.4083 161.904 28.3053 162.029 28.1765C162.154 28.0477 162.252 27.8956 162.318 27.7289C162.384 27.5621 162.416 27.384 162.414 27.2047V27.2144Z" fill="white"/>
<path d="M173.42 24.2958C174.121 25.0073 174.512 25.9672 174.508 26.966V31.1003H171.821V26.966C171.821 26.6749 171.705 26.3957 171.499 26.1899C171.293 25.9841 171.014 25.8685 170.723 25.8685C170.432 25.8685 170.153 25.9841 169.947 26.1899C169.741 26.3957 169.626 26.6749 169.626 26.966V31.1003H166.938V23.3093H169.626V23.6759C169.763 23.3527 170.349 23.1935 170.733 23.1935C171.23 23.1895 171.724 23.2838 172.185 23.4709C172.646 23.6579 173.066 23.9342 173.42 24.2837V24.2958Z" fill="white"/>
</svg>
