<svg width="200" height="50" viewBox="0 0 200 50" fill="none" xmlns="http://www.w3.org/2000/svg">
<path d="M136.553 19.5782C137.005 19.9952 137.386 20.4364 137.764 20.9212C137.815 20.2105 137.866 19.4999 137.918 18.7676C139.187 18.7676 140.456 18.7676 141.764 18.7676C141.764 23.4886 141.764 28.2095 141.764 33.0734C140.698 33.0734 139.632 33.0734 138.534 33.0734C138.33 32.4643 138.127 31.8551 137.918 31.2275C137.779 31.4116 137.639 31.5956 137.495 31.7852C136.607 32.8038 135.403 33.363 134.073 33.5349C134.123 33.6364 134.174 33.738 134.226 33.8426C134.245 34.0728 134.253 34.3039 134.255 34.5348C134.257 34.6569 134.26 34.7791 134.262 34.9049C134.226 35.227 134.226 35.227 133.919 35.5347C133.597 35.5809 133.597 35.5809 133.227 35.5827C133.104 35.5853 132.982 35.5879 132.856 35.5905C132.75 35.5721 132.644 35.5537 132.534 35.5347C132.157 34.9684 132.191 34.6651 132.227 33.9964C132.303 33.768 132.303 33.768 132.38 33.5349C132.269 33.5087 132.158 33.4826 132.043 33.4556C130.651 33.1068 129.651 32.5945 128.842 31.3814C127.986 29.7077 127.705 28.0736 127.708 26.209C127.708 26.048 127.709 25.8869 127.709 25.7211C127.743 23.5488 128.173 21.283 129.765 19.6906C131.618 18.2885 134.686 18.1459 136.553 19.5782ZM132.092 23.0555C131.197 24.3722 131.154 26.0267 131.429 27.5549C131.692 28.736 132.158 29.4589 133.15 30.1508C133.677 30.3266 134.103 30.3359 134.659 30.343C134.937 30.349 134.937 30.349 135.22 30.3551C136.029 30.2801 136.518 30.0044 137.101 29.4489C138.086 28.1427 138.032 26.4787 137.918 24.9207C137.754 23.8714 137.374 22.9873 136.534 22.3056C135.054 21.557 133.205 21.8328 132.092 23.0555Z" fill="white"/>
<path d="M84.2323 18.7673C85.3999 18.7673 86.5674 18.7673 87.7703 18.7673C87.7734 19.0164 87.7764 19.2654 87.7796 19.522C87.7913 20.45 87.805 21.378 87.8192 22.306C87.825 22.7068 87.8304 23.1077 87.8352 23.5086C87.8423 24.0864 87.8512 24.6641 87.8605 25.2418C87.8623 25.4198 87.864 25.5977 87.8659 25.781C87.8905 27.1443 87.9231 28.4571 88.8471 29.5351C89.5323 29.951 90.0493 30.0596 90.8469 30.0543C91.0277 30.0555 91.2085 30.0567 91.3949 30.0579C92.1255 29.9732 92.635 29.7226 93.1831 29.2371C93.9468 27.9468 93.9936 26.4196 94.0021 24.9564C94.0049 24.7781 94.0076 24.5997 94.0105 24.416C94.0187 23.8534 94.024 23.2909 94.0291 22.7283C94.0342 22.344 94.0395 21.9596 94.0451 21.5753C94.0584 20.6393 94.0677 19.7034 94.0772 18.7673C95.3463 18.7673 96.6153 18.7673 97.9228 18.7673C97.9228 23.4882 97.9228 28.2092 97.9228 33.0731C96.8568 33.0731 95.7908 33.0731 94.6925 33.0731C94.231 31.458 94.231 31.458 94.231 30.7657C94.1295 30.7657 94.028 30.7657 93.9234 30.7657C93.8885 30.8736 93.8536 30.9815 93.8176 31.0926C93.2308 32.3781 92.276 32.8601 91.0007 33.3808C89.5306 33.7596 87.8371 33.654 86.5109 32.8905C85.1329 31.9426 84.6189 30.7303 84.303 29.1082C84.2305 28.599 84.2139 28.1178 84.2149 27.6037C84.2149 27.4067 84.2149 27.2096 84.2149 27.0066C84.2157 26.7939 84.2165 26.5812 84.2173 26.3685C84.2176 26.1491 84.2178 25.9297 84.218 25.7103C84.2186 25.1352 84.2201 24.5602 84.2218 23.9851C84.2234 23.3973 84.2241 22.8096 84.2248 22.2218C84.2265 21.0703 84.2292 19.9188 84.2323 18.7673Z" fill="white"/>
<path d="M112.075 18.7675C113.141 18.7675 114.207 18.7675 115.306 18.7675C115.509 19.6305 115.712 20.4935 115.921 21.3826C116.045 21.1732 116.168 20.9638 116.296 20.748C117.044 19.6271 118.001 19.0649 119.305 18.7675C119.761 18.7234 120.212 18.7161 120.67 18.7195C120.854 18.7206 120.854 18.7206 121.041 18.7217C122.224 18.7454 123.265 18.9066 124.165 19.7488C125.682 21.4971 125.838 23.5913 125.811 25.8177C125.81 26.0286 125.809 26.2396 125.809 26.4506C125.807 26.9986 125.803 27.5465 125.797 28.0945C125.793 28.6566 125.791 29.2187 125.788 29.7808C125.783 30.8783 125.775 31.9758 125.766 33.0733C124.598 33.0733 123.431 33.0733 122.228 33.0733C122.219 32.2393 122.219 32.2393 122.21 31.3885C122.203 30.8447 122.195 30.301 122.187 29.7572C122.182 29.3819 122.178 29.0065 122.174 28.6312C122.169 28.0889 122.161 27.5467 122.153 27.0044C122.152 26.839 122.151 26.6735 122.15 26.5031C122.125 25.2127 122.049 23.8034 121.247 22.7478C120.332 22.094 119.477 22.051 118.382 22.1517C117.596 22.3394 117.032 22.7488 116.536 23.3823C116.023 24.4612 116.003 25.544 115.996 26.719C115.993 26.9014 115.99 27.0838 115.988 27.2718C115.979 27.85 115.974 28.4283 115.969 29.0066C115.964 29.4004 115.959 29.7943 115.953 30.1882C115.94 31.1499 115.93 32.1115 115.921 33.0733C114.652 33.0733 113.383 33.0733 112.075 33.0733C112.075 28.3524 112.075 23.6315 112.075 18.7675Z" fill="white"/>
<path d="M57.005 13.3835C59.5431 13.3835 62.0813 13.3835 64.6963 13.3835C64.7086 16.6247 64.7086 16.6247 64.7113 18.0206C64.7131 18.968 64.7153 19.9155 64.7195 20.863C64.7229 21.628 64.7247 22.393 64.7255 23.158C64.726 23.4479 64.7271 23.7378 64.7288 24.0277C64.7625 30.0927 64.7625 30.0927 62.9393 32.0812C61.925 33.0545 60.5437 33.474 59.1586 33.5347C59.0231 33.5427 58.8877 33.5506 58.7482 33.5588C56.5593 33.6282 54.6894 33.1257 53.0344 31.6696C51.8424 30.4044 51.6211 28.7344 51.6211 27.074C52.7886 27.074 53.9562 27.074 55.1591 27.074C55.2606 27.5817 55.3621 28.0893 55.4667 28.6123C55.8783 29.3929 56.308 29.7907 57.13 30.1025C58.1209 30.244 59.0581 30.2282 59.9277 29.6891C61.0722 28.2434 60.9006 26.1865 60.9143 24.4332C60.9172 24.1976 60.9202 23.9621 60.9234 23.7265C60.9312 23.1123 60.9373 22.498 60.9431 21.8838C60.9493 21.2547 60.9571 20.6256 60.9648 19.9966C60.9796 18.7665 60.9925 17.5364 61.0045 16.3062C59.6846 16.3062 58.3648 16.3062 57.005 16.3062C57.005 15.3417 57.005 14.3773 57.005 13.3835Z" fill="white"/>
<path d="M100.539 18.7676C101.656 18.7676 102.773 18.7676 103.923 18.7676C104.056 19.4313 104.124 20.0661 104.164 20.7385C104.17 20.845 104.177 20.9516 104.184 21.0614C104.2 21.3223 104.215 21.5832 104.231 21.8441C104.283 21.7566 104.336 21.6692 104.39 21.5791C105.177 20.3244 106.067 19.3859 107.48 18.8667C108.344 18.6732 109.196 18.733 110.076 18.7676C110.076 20.0874 110.076 21.4072 110.076 22.767C109.654 22.8051 109.232 22.8432 108.798 22.8824C107.468 23.0213 106.247 23.2159 105.154 24.0361C104.377 25.1047 104.314 26.1467 104.306 27.4251C104.303 27.5872 104.3 27.7494 104.298 27.9164C104.289 28.4304 104.284 28.9444 104.279 29.4585C104.274 29.8086 104.269 30.1587 104.263 30.5088C104.25 31.3637 104.24 32.2184 104.231 33.0734C103.013 33.0734 101.794 33.0734 100.539 33.0734C100.539 28.3525 100.539 23.6315 100.539 18.7676Z" fill="white"/>
<path d="M144.378 13.3835C145.596 13.3835 146.815 13.3835 148.07 13.3835C148.07 19.8811 148.07 26.3788 148.07 33.0733C146.851 33.0733 145.633 33.0733 144.378 33.0733C144.378 26.5756 144.378 20.078 144.378 13.3835Z" fill="white"/>
<path d="M120.382 36.3035C120.991 36.3035 121.6 36.3035 122.228 36.3035C122.555 37.5625 122.837 38.8243 123.096 40.0991C123.121 40.2207 123.145 40.3423 123.171 40.4676C123.193 40.5767 123.215 40.6858 123.238 40.7981C123.297 41.0857 123.297 41.0857 123.458 41.3797C123.915 39.7046 124.372 38.0294 124.843 36.3035C125.401 36.3035 125.96 36.3035 126.535 36.3035C126.956 37.3604 127.263 38.4373 127.564 39.5338C127.613 39.7117 127.662 39.8895 127.713 40.0728C127.834 40.5083 127.954 40.9439 128.073 41.3797C128.396 40.121 128.683 38.8603 128.94 37.587C128.965 37.4644 128.991 37.3419 129.017 37.2156C129.039 37.1065 129.061 36.9974 129.083 36.885C129.15 36.6111 129.15 36.6111 129.304 36.3035C129.913 36.3035 130.522 36.3035 131.15 36.3035C131.071 37.6827 130.743 38.9742 130.401 40.3068C130.303 40.6906 130.206 41.0748 130.11 41.459C130.048 41.7034 129.986 41.9478 129.924 42.1921C129.895 42.3068 129.866 42.4215 129.836 42.5397C129.629 43.3434 129.629 43.3434 129.458 43.6871C128.595 43.6871 127.732 43.6871 126.843 43.6871C126.373 42.5368 126.074 41.3502 125.766 40.1491C125.739 40.2508 125.711 40.3525 125.684 40.4573C125.561 40.9156 125.437 41.3736 125.314 41.8316C125.271 41.9917 125.228 42.1518 125.184 42.3168C125.143 42.469 125.102 42.6212 125.06 42.778C125.022 42.9189 124.984 43.0599 124.945 43.2052C124.843 43.5333 124.843 43.5333 124.689 43.6871C124.482 43.7004 124.275 43.7036 124.068 43.7021C123.944 43.7016 123.819 43.7011 123.691 43.7006C123.56 43.6993 123.43 43.698 123.295 43.6967C123.164 43.696 123.032 43.6953 122.897 43.6946C122.571 43.6928 122.246 43.69 121.92 43.6871C121.699 42.809 121.48 41.9305 121.263 41.0517C121.189 40.753 121.114 40.4545 121.039 40.1561C120.931 39.726 120.825 39.2956 120.718 38.865C120.685 38.7326 120.651 38.6002 120.616 38.4638C120.435 37.7221 120.346 37.0669 120.382 36.3035Z" fill="white"/>
<path d="M147.148 36.9189C147.723 37.4191 148.204 38.0144 148.379 38.7648C148.379 39.2724 148.379 39.7801 148.379 40.3031C146.653 40.3031 144.927 40.3031 143.148 40.3031C143.402 41.7872 143.402 41.7872 144.043 42.0913C144.928 42.1954 145.492 42.2577 146.225 41.6875C146.327 41.4844 146.428 41.2814 146.533 41.0722C147.142 41.0722 147.751 41.0722 148.379 41.0722C148.312 41.9102 148.146 42.4199 147.609 43.0719C146.664 43.8457 145.732 44.0357 144.543 43.9949C143.366 43.8685 142.597 43.3663 141.851 42.4662C141.227 41.2435 141.095 39.9795 141.476 38.6591C141.802 37.809 142.242 37.1746 143.04 36.7158C144.48 36.0766 145.775 36.1216 147.148 36.9189ZM143.456 38.611C143.405 38.8648 143.355 39.1186 143.302 39.3801C144.368 39.3801 145.434 39.3801 146.533 39.3801C146.197 38.3267 146.197 38.3267 145.61 37.9957C144.733 37.8546 144.062 37.91 143.456 38.611Z" fill="white"/>
<path d="M74.2344 6C74.7928 6 75.3512 6 75.9265 6C75.9265 7.16754 75.9265 8.33508 75.9265 9.53799C77.1955 9.53799 78.4646 9.53799 79.7721 9.53799C79.7721 8.37046 79.7721 7.20292 79.7721 6C80.2797 6 80.7874 6 81.3104 6C81.3104 8.79194 81.3104 11.5839 81.3104 14.4604C80.8027 14.4604 80.2951 14.4604 79.7721 14.4604C79.7721 13.2421 79.7721 12.0238 79.7721 10.7686C78.503 10.7686 77.234 10.7686 75.9265 10.7686C75.9265 11.9869 75.9265 13.2052 75.9265 14.4604C75.3681 14.4604 74.8097 14.4604 74.2344 14.4604C74.2344 11.6685 74.2344 8.87654 74.2344 6Z" fill="white"/>
<path d="M82.8477 6C84.8782 6 86.9087 6 89.0007 6C89.0007 6.45686 89.0007 6.91373 89.0007 7.38443C87.5286 7.38443 86.0565 7.38443 84.5397 7.38443C84.5397 8.09511 84.5397 8.80578 84.5397 9.53799C85.6565 9.53799 86.7733 9.53799 87.9239 9.53799C87.9239 9.99486 87.9239 10.4517 87.9239 10.9224C86.8071 10.9224 85.6904 10.9224 84.5397 10.9224C84.5397 11.6839 84.5397 12.4453 84.5397 13.2298C86.0626 13.2298 87.5855 13.2298 89.1545 13.2298C89.1545 13.6359 89.1545 14.042 89.1545 14.4604C87.0733 14.4604 84.992 14.4604 82.8477 14.4604C82.8477 11.6685 82.8477 8.87654 82.8477 6Z" fill="white"/>
<path d="M66.543 6C68.7258 6 70.9085 6 73.1575 6C73.1575 6.45686 73.1575 6.91373 73.1575 7.38443C72.3453 7.38443 71.5331 7.38443 70.6963 7.38443C70.6963 9.71951 70.6963 12.0546 70.6963 14.4604C70.1379 14.4604 69.5795 14.4604 69.0042 14.4604C69.0042 12.1253 69.0042 9.79027 69.0042 7.38443C68.192 7.38443 67.3798 7.38443 66.543 7.38443C66.543 6.92757 66.543 6.47071 66.543 6Z" fill="white"/>
<path d="M135.611 36.3035C136.22 36.3035 136.83 36.3035 137.457 36.3035C137.559 36.7096 137.66 37.1157 137.765 37.5341C137.863 37.4167 137.962 37.2993 138.063 37.1784C138.582 36.6563 139.21 36.4593 139.918 36.3035C140.122 36.3035 140.325 36.3035 140.534 36.3035C140.534 37.0141 140.534 37.7248 140.534 38.457C139.988 38.5622 139.442 38.6673 138.896 38.7725C138.405 38.9116 138.206 38.9711 137.919 39.38C137.759 39.8586 137.734 40.2252 137.716 40.7278C137.71 40.8998 137.703 41.0718 137.697 41.249C137.691 41.4286 137.685 41.6081 137.678 41.7931C137.672 41.9745 137.665 42.1558 137.658 42.3426C137.642 42.7908 137.626 43.2389 137.611 43.6871C136.951 43.6871 136.291 43.6871 135.611 43.6871C135.611 41.2505 135.611 38.8139 135.611 36.3035Z" fill="white"/>
<path d="M132.227 36.3035C132.886 36.3035 133.546 36.3035 134.226 36.3035C134.226 38.7401 134.226 41.1767 134.226 43.6871C133.566 43.6871 132.906 43.6871 132.227 43.6871C132.227 41.2505 132.227 38.8139 132.227 36.3035Z" fill="white"/>
<path d="M73.8187 18.8057C78.0202 18.5339 81.6156 21.7321 81.8664 25.9336C82.1172 30.1351 78.9191 33.7304 74.7176 33.9603C70.537 34.1902 66.9835 31.013 66.7326 26.8324C66.4818 22.6518 69.6591 19.0774 73.8187 18.8057Z" fill="#FEFEFE"/>
<path d="M73.3596 19.7045C76.9131 19.161 80.2158 21.6276 80.7384 25.1602C81.2609 28.7137 78.7944 31.9954 75.2409 32.518C71.7083 33.0197 68.4265 30.574 67.9248 27.0414C67.4023 23.5088 69.8479 20.2271 73.3596 19.7045Z" fill="#0C0318"/>
<path d="M73.673 20.9587C76.5158 20.6034 79.1078 22.6101 79.4631 25.4738C79.8185 28.3166 77.7909 30.9085 74.9481 31.2639C72.1053 31.6192 69.5133 29.5917 69.158 26.7489C68.8026 23.906 70.8093 21.3141 73.6521 20.9587H73.673Z" fill="#FEFEFE"/>
<path d="M74.0482 21.2722C76.7029 21.1258 78.9813 23.1325 79.1486 25.7872C79.3158 28.4419 77.3091 30.7412 74.6544 30.9293C71.9788 31.1175 69.6377 29.0899 69.4705 26.4143C69.3033 23.7387 71.3518 21.4185 74.0273 21.2722H74.0482Z" fill="#0C0318"/>
<path d="M73.1505 22.6308H73.9239V23.2579C74.0075 23.3833 74.0284 23.3833 74.1748 23.4251C74.5092 23.2579 74.2584 22.9653 74.3838 22.6726C74.4256 22.6517 74.4465 22.6308 74.4883 22.6099C74.6555 22.5681 74.8855 22.6099 75.0318 22.6726C75.1572 22.8399 75.0945 23.1743 75.0945 23.3624C75.6589 23.4669 76.2442 23.5924 76.5995 24.0731C76.7876 24.3031 76.8712 24.6166 76.8085 24.9092C76.7249 25.3482 76.4114 25.6409 76.0769 25.8917C76.495 26.1007 76.7667 26.3516 76.9339 26.7905C77.0803 27.1668 77.0803 27.6057 76.8921 27.982C76.495 28.8181 75.8052 28.63 75.1154 28.8808C75.1154 28.8808 75.1154 28.8808 75.0945 28.8808C75.0945 29.1107 75.1363 29.3407 75.0318 29.5497C74.8437 29.6542 74.551 29.5915 74.342 29.5706C74.342 29.4034 74.4047 29.1316 74.342 28.9853C74.3002 28.8808 74.2584 28.8599 74.1539 28.8181C74.112 28.839 74.0702 28.8808 74.0284 28.9017C73.8821 29.048 73.9448 29.3825 73.9448 29.5915H73.1714C73.1923 29.3198 73.1923 29.0689 73.2132 28.8181C72.8997 28.839 72.3353 28.9435 72.0636 28.7763C72.0218 28.63 72.0008 28.5046 72.0217 28.3373C72.0636 28.1283 72.3771 28.1074 72.5443 27.982C72.7325 27.5639 72.7325 24.742 72.5443 24.3031C72.4607 24.1149 72.3353 24.1149 72.1681 24.0313C72.0636 23.9895 72.0427 23.9686 72.0217 23.8641C71.9799 23.7387 72.0008 23.5087 72.0636 23.3833C72.398 23.2788 72.8579 23.3415 73.2132 23.3415C73.2132 23.0907 73.1923 22.8399 73.1714 22.5681L73.1505 22.6308Z" fill="#FEFEFE"/>
<path d="M73.9442 26.2889C74.4459 26.2889 74.9684 26.268 75.3865 26.5815C75.5328 26.686 75.6373 26.8323 75.6582 27.0414C75.7 27.3131 75.5328 27.6685 75.3656 27.8775C75.1357 28.0238 74.7803 28.1701 74.5086 28.1701C74.3622 28.1701 74.2368 28.1283 74.1532 28.0238C73.8188 27.6685 73.9442 26.7487 73.9651 26.3098L73.9442 26.2889Z" fill="#0C0318"/>
<path d="M73.9868 24.1985C74.4258 24.1358 74.9066 24.1148 75.2828 24.3866C75.4082 24.4702 75.4918 24.5956 75.5127 24.7419C75.5546 24.9928 75.4291 25.1809 75.2828 25.369C74.8438 25.5572 74.4258 25.5362 73.945 25.5572C73.945 25.1182 73.9032 24.6165 73.9868 24.1776V24.1985Z" fill="#0C0318"/>
</svg>
