<svg width="200" height="50" viewBox="0 0 200 50" fill="none" xmlns="http://www.w3.org/2000/svg">
<path d="M46.5827 7.64722V15.5642C43.5404 16.1866 40.7421 18.1584 39.5022 21.0563C37.0973 26.6929 40.2043 33.3003 46.3338 34.3858V42.3526C40.762 41.5609 35.245 38.4439 32.4516 33.4547C29.1454 27.5393 29.6284 20.653 33.2682 15.0215C36.2209 10.4505 41.1653 7.88124 46.5827 7.64722Z" fill="white"/>
<path d="M82.6573 22.8987C82.1793 22.9137 81.0938 22.9286 80.6955 22.9137C80.2971 22.8987 80.566 22.8539 80.566 22.7842C80.5411 22.2813 80.7801 21.0763 79.9436 20.7726C79.6199 20.6531 78.2158 20.6531 77.8274 20.6979C77.1801 20.7726 77.0457 21.2456 77.0058 21.8182C77.0208 23.7751 77.0556 25.7967 77.0706 27.6938C77.0706 28.0871 77.3444 28.4357 77.7328 28.5054C78.1212 28.5751 77.7677 28.5104 77.7826 28.5153C78.1511 28.5651 79.5054 28.5651 79.834 28.4855C80.9046 28.2265 80.4764 26.8075 80.6108 26.3245C80.6656 26.2896 80.6955 26.2846 80.7602 26.2747C81.0739 26.2348 82.6374 26.2548 82.8216 26.3095C83.0058 26.3643 82.8365 26.3195 82.8365 26.3344C82.8365 26.424 82.8365 26.5535 82.8365 26.6481C82.8863 28.3958 82.9212 30.4075 80.3569 30.5519C79.5403 30.5967 77.8473 30.6365 77.0407 30.5469C75.6316 30.3875 74.7652 29.322 74.6606 27.9477C74.6457 25.7618 74.6108 23.5958 74.6606 21.3253C74.7652 19.8265 75.7062 18.7809 77.2249 18.6614C78.0664 18.5967 80.1677 18.5767 80.9245 18.8008C82.1942 19.1743 82.7519 20.2099 82.8316 21.4747C82.8465 21.7087 82.8415 22.4257 82.8415 22.7942C82.8316 22.8589 82.8963 22.9137 82.6573 22.9137V22.8987Z" fill="white"/>
<path d="M121.062 25.463C121.007 25.5177 120.878 25.5177 120.803 25.5277C119.668 25.5377 118.682 25.5277 117.661 25.5277C117.477 25.5476 117.362 25.6074 117.338 25.8016C117.338 26.6032 117.338 27.5493 117.338 28.341C117.362 28.4754 117.432 28.5003 117.557 28.5202C118.727 28.5302 120.161 28.5202 121.346 28.5202C121.61 28.5402 121.789 28.5651 121.819 28.8439C121.839 29.048 121.844 30.2929 121.794 30.4124C121.744 30.5319 121.61 30.5816 121.5 30.5667L115.152 30.5368C115.047 30.4671 114.982 30.3725 114.997 30.2431L115.027 18.8157C115.097 18.7111 115.191 18.6464 115.321 18.6613L121.669 18.6912C121.769 18.7559 121.809 18.8207 121.824 18.9352C121.849 19.1343 121.844 20.424 121.784 20.5435C121.724 20.663 121.734 20.6231 121.684 20.6431L117.512 20.7028C117.397 20.7177 117.357 20.8273 117.342 20.9319C117.333 21.4746 117.342 22.6148 117.338 23.1725C117.342 23.2572 117.347 23.3816 117.412 23.4464C117.586 23.6157 120.111 23.536 120.987 23.5559C121.032 23.5758 121.062 23.6107 121.087 23.6555C121.152 23.7949 121.147 24.985 121.127 25.214C121.107 25.4431 121.117 25.4182 121.062 25.4729V25.463Z" fill="white"/>
<path d="M102.449 22.0872C102.519 22.0972 102.529 22.0723 102.559 22.0225C103.007 21.3154 103.345 21.1461 104.212 21.0864C106.129 20.9519 107.687 21.5146 107.827 23.6507C107.842 25.7918 107.832 28.0524 107.827 30.2283C107.802 30.5071 107.782 30.527 107.503 30.5519C107.224 30.5768 105.74 30.5768 105.636 30.527C105.531 30.4773 105.496 30.298 105.486 30.1785C105.486 28.2117 105.501 26.0059 105.467 23.9246C105.402 23.093 104.406 23.0831 103.769 23.1279C103.022 23.1826 102.484 23.5909 102.464 24.2134C102.424 26.1752 102.444 28.2266 102.454 30.1785C102.434 30.3826 102.404 30.5221 102.18 30.5519C101.956 30.5818 100.363 30.5768 100.223 30.5171C100.084 30.4573 100.059 30.3627 100.059 30.0789C100.049 27.3652 100.059 24.4075 100.059 21.659C100.059 21.4001 100.084 21.1412 100.388 21.0914C100.706 21.0366 101.682 21.0565 102.031 21.0864C102.379 21.1163 102.454 21.2009 102.454 21.3602V22.0822L102.449 22.0872Z" fill="white"/>
<path d="M163.794 22.0872C163.909 22.1121 163.874 22.0722 163.904 22.0224C164.367 21.2905 164.721 21.1461 165.607 21.0863C167.429 20.9718 169.003 21.5096 169.167 23.556C169.167 25.8614 169.167 28.0673 169.167 30.2282C169.177 30.4175 169.072 30.527 168.893 30.5519C168.714 30.5768 167.081 30.5718 166.976 30.522C166.872 30.4722 166.887 30.4374 166.852 30.3975L166.802 23.9245C166.722 23.083 165.701 23.078 165.054 23.1278C164.412 23.1776 163.989 23.4216 163.839 23.9892C163.69 24.5569 163.789 24.2581 163.794 24.3975C163.824 26.2498 163.775 28.3112 163.789 30.1785C163.779 30.293 163.755 30.4673 163.64 30.527C163.526 30.5868 161.932 30.5768 161.723 30.5519C161.394 30.5121 161.424 30.3079 161.399 30.0291L161.424 21.3851C161.479 21.156 161.604 21.1063 161.823 21.0863C162.181 21.0565 163.132 21.0415 163.466 21.0913C163.799 21.1411 163.794 21.2606 163.794 21.3602V22.0822V22.0872Z" fill="white"/>
<path d="M63.1389 7.89624C63.7563 7.96097 64.3339 8.39417 64.553 8.97176C64.7721 9.54935 64.6127 11.6755 64.6077 12.5469C64.5928 14.4539 64.6177 16.351 64.533 18.2531C62.377 14.3693 59.2949 10.9186 55.431 8.68296L53.9023 7.89624H63.1389Z" fill="white"/>
<path d="M64.6068 40.8339C64.5371 41.4264 64.084 41.9891 63.5313 42.1982C62.9786 42.4074 61.0417 42.258 60.2052 42.253C58.2185 42.2381 56.2367 42.253 54.25 42.1783C58.1089 40.0422 61.5247 36.9899 63.7703 33.1758L64.6068 31.5476V40.8339Z" fill="white"/>
<path d="M144.001 21.0913C144.086 21.1112 144.255 21.2705 144.275 21.3651C144.325 21.6191 144.305 22.5203 144.275 22.8091C144.245 23.0979 144.265 23.0133 144.21 23.068C144.066 23.2124 142.771 23.083 142.458 23.1328C142.144 23.1825 142.268 23.1776 142.239 23.2622L142.229 27.5842C142.229 27.6738 142.234 27.7635 142.254 27.8531C142.448 28.7643 143.399 28.4108 144.091 28.5104C144.365 28.5502 144.439 28.6647 144.469 28.9286C144.499 29.1925 144.509 30.0141 144.469 30.268C144.434 30.4772 144.345 30.5269 144.151 30.5469C143.703 30.5917 142.861 30.5817 142.403 30.5469C138.758 30.278 140.093 25.707 139.839 23.3021C139.769 22.9386 138.673 23.2772 138.544 23.0431C138.415 22.8091 138.464 21.6191 138.499 21.4149C138.534 21.2108 138.668 21.0863 138.768 21.0863H139.764C139.819 21.0863 139.834 20.9668 139.844 20.917C139.908 20.3494 139.774 19.6423 139.844 19.0697C139.868 18.8506 139.948 18.7709 140.167 18.746C140.386 18.7211 141.681 18.6962 141.96 18.746C142.239 18.7958 142.234 18.9701 142.234 19.0697V21.0116C142.234 21.0265 142.293 21.0614 142.308 21.0863C142.791 21.156 143.558 20.9917 144.001 21.0863V21.0913Z" fill="white"/>
<path d="M57.6359 29.6059C55.6641 27.4051 53.2243 25.508 50.2168 25.0499C52.7463 24.5768 55.1014 23.3121 56.8143 21.3901L57.6359 20.2947V29.6059Z" fill="white"/>
<path d="M134.755 21.1012C134.984 21.0514 136.283 21.0564 136.532 21.0912C136.781 21.1261 136.806 21.2207 136.846 21.3751L136.861 30.1784C136.856 30.2829 136.831 30.507 136.726 30.5419H134.695C134.55 30.5269 134.511 30.3825 134.481 30.263L134.466 21.5593C134.466 21.3601 134.536 21.146 134.755 21.1012Z" fill="white"/>
<path d="M95.4185 21.1014C95.7123 21.0466 96.8376 21.0516 97.1463 21.0964C97.455 21.1412 97.4301 21.1611 97.465 21.3254L97.4799 30.3279C97.4799 30.4524 97.4251 30.5271 97.3006 30.547C97.0816 30.5868 95.5828 30.5868 95.3637 30.547C95.1446 30.5072 95.294 30.5271 95.2641 30.5022C95.1845 30.4474 95.1396 30.3528 95.1396 30.2532V21.4101C95.1446 21.2109 95.2343 21.1312 95.4235 21.1014H95.4185Z" fill="white"/>
<path d="M148.846 21.2058L148.901 30.4174C148.866 30.527 148.791 30.5419 148.687 30.5519C148.119 30.6266 147.382 30.4921 146.794 30.5519C146.67 30.527 146.565 30.4075 146.565 30.283L146.58 21.3303C146.615 21.1461 146.78 21.1112 146.944 21.0963C147.317 21.0564 148.169 21.0564 148.537 21.0963C148.652 21.1112 148.751 21.156 148.846 21.2108V21.2058Z" fill="white"/>
<path d="M116.342 37.2241V34.2615C116.342 34.2565 116.412 34.1868 116.417 34.1868H117.288V39.2158H116.467C116.442 39.2158 116.302 39.0465 116.282 39.0017L114.749 36.1785V39.1411C114.749 39.1461 114.679 39.2158 114.674 39.2158H113.828C113.823 39.2158 113.753 39.1461 113.753 39.1411V34.2615C113.753 34.2565 113.823 34.1868 113.828 34.1868H114.624C114.764 34.1868 115.829 36.3727 115.984 36.6615C116.083 36.8457 116.198 37.0797 116.342 37.2241Z" fill="white"/>
<path d="M122.839 35.2324C122.914 35.2573 122.944 35.4863 122.959 35.561C123.103 36.3876 123.148 37.239 123.263 38.0706C123.352 38.0556 123.347 37.971 123.367 37.9013C123.611 37.1345 123.661 36.1685 123.88 35.3768C123.895 35.332 123.915 35.2772 123.955 35.2523C124.044 35.2025 124.876 35.2075 124.926 35.2772L125.523 38.0656C125.558 38.0656 125.583 37.8814 125.593 37.8366C125.712 37.1146 125.722 36.0689 125.902 35.4067C125.916 35.3519 125.981 35.2274 126.021 35.2274H126.917C127.057 35.2274 126.897 35.7751 126.877 35.8847C126.663 36.9901 126.39 38.0855 126.151 39.181C126.121 39.2258 125.194 39.2307 125.075 39.2108C124.955 39.1909 124.955 39.176 124.926 39.1112L124.453 36.4225L123.88 39.161C123.82 39.2407 122.76 39.2407 122.68 39.161L121.858 35.2274C122.102 35.2772 122.63 35.1627 122.829 35.2274L122.839 35.2324Z" fill="white"/>
<path d="M94.0351 37.3236C93.8956 37.2987 93.4276 37.3783 93.3579 37.2787C93.328 37.1543 93.2932 36.4771 93.4127 36.4771H95.0309V38.3443C95.0309 38.6331 94.6077 39.0414 94.3338 39.141C93.9355 39.2804 92.5413 39.2754 92.1778 39.0613C91.8093 38.8422 91.6749 38.4588 91.645 38.0505C91.5903 37.3385 91.5703 35.9095 91.655 35.2173C91.7396 34.5252 92.1479 34.2464 92.7205 34.1916C93.2483 34.1368 94.3488 34.1119 94.7371 34.5153C95.1255 34.9186 95.0359 34.9933 95.0359 35.063V35.8099C95.0359 35.8148 94.9662 35.8846 94.9612 35.8846H94.1645C93.9853 35.8846 94.0699 35.3667 94.0152 35.2373C93.8857 34.9485 92.8898 34.9734 92.7255 35.1875C92.5612 35.4016 92.6558 35.3767 92.6508 35.4613C92.5911 36.0439 92.5961 37.3136 92.6508 37.9012C92.7056 38.4887 92.6708 38.1352 92.7305 38.2198C92.9147 38.4887 94.05 38.3991 94.05 38.1451V37.3236H94.0351Z" fill="white"/>
<path d="M150.052 35.2324C150.071 35.2523 150.037 35.5561 150.052 35.6307C150.345 35.098 151.461 35.1229 151.889 35.4117C152.058 35.5262 152.342 35.8996 152.342 36.1038V39.1411C152.342 39.1461 152.272 39.2158 152.267 39.2158H151.421C151.416 39.2158 151.346 39.1461 151.346 39.1411V36.3527C151.346 36.0141 150.43 35.9942 150.201 36.2531C150.151 36.3129 150.052 36.5917 150.052 36.6515V39.2158H149.105V35.2324C149.24 35.2573 150.017 35.1975 150.052 35.2324Z" fill="white"/>
<path d="M84.0264 35.2324V37.9959C84.0264 38.5287 85.321 38.4839 85.321 37.9461V35.3071C85.321 35.3021 85.3907 35.2324 85.3957 35.2324H86.2422C86.2472 35.2324 86.3169 35.3021 86.3169 35.3071V39.1411C86.3169 39.1461 86.2472 39.2158 86.2422 39.2158H85.3957C85.3011 39.2158 85.316 38.8972 85.321 38.8175C85.2214 38.8872 85.1915 39.0067 85.072 39.0864C84.833 39.2457 84.3401 39.2407 84.0563 39.2109C83.5683 39.1611 83.2347 38.8872 83.1052 38.4192C82.9758 37.9511 82.9808 36.1088 83.0306 35.5013C83.0803 34.8938 83.0604 35.3221 83.0803 35.2275H84.0264V35.2324Z" fill="white"/>
<path d="M166.857 35.2323C166.966 35.2671 166.926 35.5261 166.931 35.6306C167.031 35.5609 167.061 35.4414 167.18 35.3617C167.549 35.1178 168.58 35.1925 168.898 35.531C169.217 35.8696 169.172 35.9991 169.172 36.0539V39.2157H168.226V36.5518C168.226 36.029 167.494 35.9593 167.146 36.1684C167.076 36.2082 166.931 36.4024 166.931 36.4522V39.141C166.931 39.146 166.862 39.2157 166.857 39.2157H166.01C166.005 39.2157 165.936 39.146 165.936 39.141V35.307C165.936 35.302 166.005 35.2323 166.01 35.2323C166.189 35.2323 166.737 35.1974 166.857 35.2323Z" fill="white"/>
<path d="M75.7357 34.1868L76.6818 36.2283L77.5034 34.1868H78.5241C78.544 34.1868 78.6088 34.2664 78.5988 34.3063L77.1548 37.3486V39.1411C77.1548 39.1461 77.0851 39.2158 77.0801 39.2158H76.2337C76.2287 39.2158 76.159 39.1461 76.159 39.1411V37.3984C75.7507 36.4473 75.2527 35.4017 74.7548 34.4706C74.72 34.371 74.7 34.2913 74.715 34.1868H75.7357Z" fill="white"/>
<path d="M143.429 35.2324V36.0042C143.429 36.0589 143.31 36.0739 143.26 36.0838C142.996 36.1137 142.005 36.0042 141.886 36.1535C141.816 36.2382 141.831 36.3278 141.876 36.4224C142 36.6863 143.215 37.1295 143.504 37.5328C143.793 37.9311 143.768 38.6631 143.369 38.9867C143.285 39.0564 142.951 39.2208 142.857 39.2208H140.84C140.78 39.1013 140.74 38.4241 140.865 38.4241H142.309C142.553 38.4241 142.762 38.1901 142.583 37.951C142.384 37.6871 141.413 37.3486 141.089 37.0548C140.765 36.761 140.661 35.6606 141.238 35.3718C141.816 35.083 141.582 35.2423 141.607 35.2423H143.424L143.429 35.2324Z" fill="white"/>
<path d="M128.964 38.4191C129.223 38.3843 129.392 38.21 129.238 37.9561C129.084 37.7021 128.063 37.3088 127.794 37.0947C127.276 36.6764 127.271 35.6208 127.919 35.337C128.566 35.0532 129.532 35.1826 129.91 35.2324C130.289 35.2822 130.025 35.2324 130.06 35.2822C130.094 35.332 130.104 36.0142 130.035 36.059C129.93 36.1337 128.914 36.049 128.665 36.0839C128.416 36.1187 128.431 36.1486 128.451 36.293C128.506 36.7013 130.04 37.0897 130.269 37.7569C130.498 38.4241 130.269 38.9519 129.686 39.1362C129.323 39.2507 128.023 39.2606 127.615 39.2158C127.206 39.171 127.445 39.1909 127.445 39.1362V38.4142C127.914 38.3644 128.511 38.4789 128.964 38.4142V38.4191Z" fill="white"/>
<path d="M158.322 34.2366C158.322 34.2366 158.382 34.2317 158.402 34.2615C158.421 34.2914 158.416 34.3561 158.416 34.3611V35.1827C158.416 35.2076 158.436 35.2325 158.466 35.2325H159.143C159.213 35.2325 159.268 35.2873 159.268 35.357V36.0341C159.268 36.059 159.248 36.0839 159.218 36.0839H158.496C158.441 36.0839 158.426 36.2034 158.416 36.2532C158.382 36.547 158.372 37.8317 158.431 38.0856C158.526 38.5138 159.178 38.2997 159.328 38.3993C159.477 38.4989 159.348 38.4192 159.348 38.4342C159.358 38.6333 159.462 39.1761 159.243 39.2159C159.024 39.2557 158.337 39.2259 158.088 39.1263C157.022 38.708 157.56 37.0499 157.421 36.1586C157.356 35.9595 156.878 36.2184 156.828 35.9545C156.778 35.6906 156.818 35.2823 156.883 35.2375C156.948 35.1927 157.426 35.2922 157.426 35.1578V34.3611C157.426 34.2914 157.48 34.2366 157.55 34.2366H158.327H158.322Z" fill="white"/>
<path d="M145.52 34.2366V35.1079C145.52 35.1229 145.585 35.1826 145.57 35.2324H146.342C146.441 35.2324 146.446 35.9594 146.397 36.0341C146.292 36.1835 145.615 35.9395 145.53 36.2133C145.48 36.3926 145.495 37.5528 145.52 37.7967C145.575 38.449 145.909 38.3694 146.466 38.3694V39.2158H145.495C145.202 39.2158 144.758 38.8424 144.649 38.5685C144.44 38.0407 144.614 36.1685 144.524 36.0789C144.435 35.9893 144.036 36.1635 143.982 35.9992C143.927 35.8349 143.962 35.332 143.997 35.2822C144.071 35.1777 144.49 35.2673 144.524 35.2374C144.559 35.2075 144.47 34.3859 144.574 34.2416H145.52V34.2366Z" fill="white"/>
<path d="M134.755 17.5161C135.004 17.4614 136.204 17.4713 136.488 17.5062C136.772 17.541 136.836 17.6257 136.861 17.8298C136.906 18.1684 136.901 19.1842 136.861 19.5277C136.821 19.8713 136.717 19.8763 136.488 19.9012C136.234 19.9311 134.909 19.936 134.715 19.8763C134.536 19.8215 134.486 19.6423 134.471 19.473C134.431 19.1244 134.431 18.278 134.471 17.9294C134.491 17.7402 134.551 17.5609 134.755 17.5161Z" fill="white"/>
<path d="M95.4191 17.5161C95.7278 17.4613 96.7685 17.4663 97.1021 17.5061C97.4357 17.5459 97.4506 17.5609 97.4755 17.78C97.5203 18.1136 97.5203 19.2937 97.4755 19.6273C97.4307 19.9609 97.2963 19.8762 97.1021 19.9011C96.7237 19.941 95.9967 19.931 95.6083 19.9011C95.3394 19.8812 95.1751 19.8862 95.1353 19.5775C95.0954 19.2688 95.0855 18.1186 95.1353 17.7899C95.1851 17.4613 95.2448 17.5559 95.4191 17.526V17.5161Z" fill="white"/>
<path d="M146.854 17.5162C147.173 17.4564 148.194 17.4664 148.537 17.5062C148.881 17.5461 148.886 17.5959 148.911 17.8797C148.945 18.283 148.955 19.1843 148.911 19.5776C148.876 19.8863 148.706 19.8863 148.438 19.9013C148.039 19.9311 147.332 19.9411 146.944 19.9013C146.555 19.8614 146.6 19.8316 146.57 19.5776C146.54 19.3237 146.521 18.1187 146.57 17.7901C146.6 17.6108 146.68 17.556 146.854 17.5262V17.5162Z" fill="white"/>
<path d="M110.068 33.7385H110.99C110.995 33.7385 111.064 33.8082 111.064 33.8132V39.141C111.064 39.146 110.995 39.2157 110.99 39.2157H110.143C110.138 39.2157 110.068 39.146 110.068 39.141V33.7385Z" fill="white"/>
<path d="M96.9226 33.7385H95.9766V39.2157H96.9226V33.7385Z" fill="white"/>
<path d="M88.1589 35.2324C88.1789 35.2524 88.144 35.5561 88.1589 35.6308C88.3531 35.4914 88.4477 35.3071 88.7017 35.2524C88.9556 35.1976 89.4038 35.1826 89.4038 35.3071V36.0789H88.632C88.383 36.0789 88.1589 36.4225 88.1589 36.6515V39.2158H87.2129V35.2324C87.3473 35.2573 88.1241 35.1976 88.1589 35.2324Z" fill="white"/>
<path d="M161.006 35.2324H160.06V39.2158H161.006V35.2324Z" fill="white"/>
<path d="M148.159 39.2158H147.213V35.2324H148.084C148.089 35.2324 148.159 35.3021 148.159 35.3071V39.2158Z" fill="white"/>
<path d="M148.149 33.7485C148.249 33.8481 148.244 34.5751 148.139 34.6846C148.035 34.7941 147.328 34.7593 147.238 34.6846C147.148 34.6099 147.133 33.8531 147.213 33.7535C147.293 33.6539 148.06 33.6539 148.154 33.7435L148.149 33.7485Z" fill="white"/>
<path d="M160.075 33.7485C160.169 33.6539 160.926 33.6439 161.016 33.7585C161.105 33.873 161.095 34.6049 160.991 34.6896C160.886 34.7742 160.169 34.7643 160.09 34.6896C160.01 34.6149 159.98 33.8531 160.08 33.7535L160.075 33.7485Z" fill="white"/>
<path d="M131.867 17.7401C131.827 17.536 131.633 17.5161 131.459 17.5011C131.085 17.4713 130.224 17.4563 129.865 17.5061C129.771 17.5211 129.537 17.6157 129.537 17.7252V22.082C129.472 22.102 129.457 22.0621 129.427 22.0173C128.76 21.0414 127.799 21.0165 126.674 21.0862C124.831 21.2057 124.06 22.2115 123.955 23.9941C123.895 25.0796 123.895 26.5435 123.955 27.6339C124.015 28.7692 124.378 29.9045 125.523 30.3476C126.36 30.6713 128.491 30.731 129.153 30.0439C129.333 29.8447 129.462 29.5211 129.532 29.6007V30.3725C129.532 30.4074 129.691 30.5318 129.756 30.5468C130.01 30.5966 131.319 30.5866 131.598 30.5468C131.777 30.5219 131.882 30.4123 131.872 30.2231L131.857 17.7352L131.867 17.7401ZM129.542 27.141C129.502 27.7385 129.313 28.3609 128.645 28.4854C128.342 28.5451 127.341 28.5451 127.037 28.4953C126.574 28.4157 126.39 28.0771 126.35 27.6389C126.37 26.4737 126.35 25.1692 126.355 23.9592C126.405 23.5957 126.599 23.2572 126.982 23.1924C127.291 23.1426 128.436 23.1426 128.73 23.2123C128.984 23.2721 129.238 23.5011 129.357 23.7302C129.616 24.2381 129.587 26.4787 129.537 27.136L129.542 27.141Z" fill="white"/>
<path d="M158.919 22.8589C158.212 20.8772 155.832 20.9718 154.079 21.1062C152.56 21.2207 151.46 22.0622 151.351 23.6556C151.266 24.8705 151.261 26.8274 151.351 28.0423C151.44 29.2523 152.197 30.2182 153.392 30.4821C154.099 30.6365 156.634 30.6315 157.306 30.4074C158.496 30.0091 159.048 28.9983 159.123 27.7933C159.193 26.7228 159.248 23.7751 158.924 22.8589H158.919ZM156.773 27.6888C156.673 28.6996 155.548 28.6199 154.756 28.5651C154.114 28.5203 153.746 28.3958 153.686 27.6938C153.666 26.5186 153.651 25.2589 153.701 24.0191C153.696 23.8796 153.716 23.7402 153.77 23.6108C153.89 23.3269 154.109 23.1975 154.477 23.1527C154.871 23.1029 155.827 23.0979 156.19 23.2025C156.624 23.3319 156.743 23.6307 156.778 24.0589C156.858 24.9601 156.863 26.8074 156.778 27.6938L156.773 27.6888Z" fill="white"/>
<path d="M92.6949 23.6057C92.6053 20.9518 89.7373 20.9518 87.7057 21.1062C85.9829 21.2356 85.0319 22.1667 84.9273 23.9045C84.8576 24.99 84.8028 27.9477 85.1414 28.8738C85.4352 29.6755 86.1173 30.263 86.9389 30.4622C87.6509 30.6315 89.4136 30.6165 90.1854 30.5568C91.1763 30.4771 91.9829 29.9443 92.4012 29.1277C92.5904 28.7543 92.68 28.341 92.685 27.9228C92.6949 26.4589 92.685 24.98 92.6999 23.6057H92.6949ZM90.3995 27.5394C90.3348 28.336 90.051 28.5103 89.2841 28.5651C88.7265 28.6049 87.5265 28.6696 87.3472 28.0074C87.163 27.3203 87.2078 25.0398 87.2626 24.253C87.3074 23.6306 87.4119 23.2323 88.0991 23.1477C88.4775 23.0979 89.4684 23.0879 89.8119 23.1974C90.29 23.3468 90.3696 23.7551 90.3995 24.2033C90.4642 25.1045 90.4692 26.6431 90.3995 27.5394Z" fill="white"/>
<path d="M136.214 35.3569C136.184 34.9834 136.055 34.61 135.731 34.3959C135.656 34.3461 135.308 34.1868 135.243 34.1868H132.903C132.888 34.2117 132.828 34.2465 132.828 34.2615V39.1411C132.828 39.1461 132.898 39.2158 132.903 39.2158H135.243C135.681 39.2158 136.124 38.688 136.189 38.2698C136.294 37.6274 136.264 36.0341 136.214 35.3519V35.3569ZM135.213 37.9461C135.203 38.0357 135.178 38.1851 135.114 38.2449C135.089 38.2698 134.815 38.3693 134.79 38.3693H133.894C133.889 38.3693 133.819 38.2996 133.819 38.2947V35.083H134.989C135.134 35.083 135.198 35.337 135.213 35.4565C135.273 36.0341 135.273 37.3635 135.213 37.9461Z" fill="white"/>
<path d="M105.194 36.5022C105.169 36.0839 105.074 35.6955 104.716 35.4366C104.352 35.1727 103.267 35.1129 102.963 35.4515C102.908 35.5163 102.878 35.576 102.848 35.6358V33.8183C102.848 33.8134 102.779 33.7437 102.774 33.7437H101.853V39.1461C101.853 39.1511 101.922 39.2208 101.927 39.2208H104.218C104.427 39.2208 104.865 38.9271 104.98 38.7378C105.258 38.2997 105.223 37.0449 105.189 36.5022H105.194ZM104.138 38.0507C104.138 38.0905 104.133 38.1354 104.113 38.1752C104.053 38.2997 103.904 38.3694 103.77 38.3694C103.77 38.3694 103.252 38.3694 102.903 38.3544C102.873 38.3544 102.853 38.3295 102.848 38.2997C102.833 37.732 102.833 37.0051 102.848 36.4723C102.863 35.9395 102.848 36.4424 102.853 36.4275C102.938 36.0739 103.506 36.0042 103.849 36.0839C103.999 36.1188 104.108 36.2532 104.113 36.4076C104.123 36.8557 104.133 37.6424 104.138 38.0457V38.0507Z" fill="white"/>
<path d="M106.806 35.2324C106.787 35.2324 106.493 35.3469 106.448 35.3718C106.189 35.5013 105.975 35.805 105.915 36.0889C105.831 36.5121 105.84 37.6922 105.88 38.1503C105.96 39.0764 106.796 39.3652 107.628 39.1959C107.882 39.1461 108.016 39.0017 108.171 38.8175C108.171 38.8972 108.151 39.2158 108.245 39.2158H109.117V35.2324H106.801H106.806ZM108.126 38.0457C108.126 38.3594 107.12 38.5187 106.941 38.1851C106.896 38.0955 106.886 37.9959 106.876 37.9013C106.846 37.5677 106.836 36.781 106.881 36.4623C106.911 36.2631 107.031 36.0839 107.25 36.0839H108.121V38.0507L108.126 38.0457Z" fill="white"/>
<path d="M156.3 35.2324H154.059C153.686 35.2324 153.253 35.6706 153.153 36.0191C153.039 36.4075 153.039 38.0855 153.163 38.4689C153.447 39.3303 154.851 39.5096 155.379 38.8175C155.379 38.922 155.344 39.181 155.453 39.2158C155.573 39.2507 156.121 39.2158 156.3 39.2158C156.479 39.2158 156.375 39.1461 156.375 39.1411V35.3071C156.375 35.3021 156.305 35.2324 156.3 35.2324ZM155.384 37.8266C155.384 37.8913 155.374 37.9561 155.349 38.0158C155.239 38.3146 154.926 38.3942 154.607 38.3694C154.248 38.3445 154.119 38.2598 154.084 37.8963C154.064 37.7071 154.049 36.9901 154.054 36.5021C154.054 36.2581 154.253 36.064 154.497 36.0689C154.846 36.0689 155.279 36.0789 155.279 36.0789C155.334 36.0789 155.379 36.1237 155.379 36.1785C155.384 36.6515 155.404 37.3685 155.379 37.8266H155.384Z" fill="white"/>
<path d="M121.326 38.3891C120.654 38.18 118.951 38.8572 119.18 37.6721H121.296C121.301 37.6721 121.371 37.6024 121.371 37.5974V36.1036C121.371 36.0588 121.172 35.6605 121.122 35.6057C120.748 35.1626 119.738 35.1725 119.205 35.2323C118.851 35.2721 118.453 35.4962 118.308 35.8298C118.134 36.2281 118.134 37.7667 118.199 38.2348C118.269 38.7626 118.672 39.1609 119.205 39.2206C119.429 39.2455 121.236 39.2605 121.326 39.2007C121.401 39.1509 121.401 38.4489 121.326 38.3991V38.3891ZM119.957 36.0787C120.559 36.1285 120.34 36.5169 120.375 36.975H119.18C119.13 36.2679 119.185 36.009 119.957 36.0787Z" fill="white"/>
<path d="M140.143 38.3694H138.276C138.007 38.3694 137.897 37.8764 138.002 37.6723H140.118C140.123 37.6723 140.193 37.6025 140.193 37.5976V36.1536C140.193 35.8996 139.859 35.4864 139.63 35.3718C139.242 35.1727 138.037 35.1627 137.633 35.337C137.265 35.4963 137.046 35.8598 137.006 36.2532C136.961 36.7113 136.956 37.8316 137.016 38.2797C137.076 38.6781 137.499 39.2158 137.922 39.2158H140.113C140.237 39.2158 140.193 38.4839 140.138 38.3694H140.143ZM138.779 36.0789C139.381 36.1287 139.162 36.5171 139.197 36.9752H138.002C137.947 36.2631 138.002 36.0092 138.779 36.0789Z" fill="white"/>
<path d="M82.2891 36.2531C82.2492 35.8199 81.9704 35.4315 81.5521 35.2971C81.2334 35.1975 80.3272 35.1975 79.9837 35.2473C78.8135 35.4166 78.938 36.9452 78.9978 37.8515C79.0874 39.2855 79.9737 39.3253 81.2185 39.2207C81.7214 39.1759 82.1895 38.8573 82.2741 38.3344C82.3438 37.9162 82.3289 36.7012 82.2891 36.2531ZM81.2434 38.2349C81.1289 38.4141 80.3471 38.4091 80.1778 38.3095C80.0683 38.2448 80.0583 38.1602 80.0434 38.0456C80.0185 37.8216 80.0185 36.3676 80.0783 36.2382C80.1878 36.0042 81.0691 36.0241 81.2235 36.1884C81.2832 36.2481 81.2832 36.3676 81.2882 36.4473C81.3081 36.6813 81.3131 38.1203 81.2384 38.2349H81.2434Z" fill="white"/>
<path d="M165.049 35.9444C164.93 35.6307 164.676 35.3917 164.352 35.2971C164.023 35.1975 163.187 35.1975 162.833 35.2473C162.42 35.3021 162.056 35.5809 161.922 35.9793C161.793 36.3676 161.813 37.5975 161.847 38.0506C161.942 39.2905 163.008 39.3054 164.018 39.2207C164.481 39.1809 164.88 38.9519 165.044 38.5037C165.193 38.1104 165.193 36.3378 165.044 35.9444H165.049ZM164.143 38.0407C164.068 38.5187 162.983 38.4689 162.873 38.1203C162.818 37.9461 162.818 36.6216 162.853 36.4025C162.883 36.2133 163.003 36.1187 163.187 36.0888C163.446 36.044 164.028 36.0191 164.123 36.3228C164.178 36.4971 164.178 37.8216 164.143 38.0407Z" fill="white"/>
<path d="M100.946 35.9493C100.826 35.6356 100.572 35.3966 100.248 35.302C99.9198 35.2024 99.0833 35.2024 98.7297 35.2522C98.3165 35.307 97.953 35.5858 97.8185 35.9841C97.6891 36.3725 97.709 37.6024 97.7438 38.0555C97.8385 39.2953 98.904 39.3103 99.9148 39.2256C100.378 39.1858 100.776 38.9568 100.941 38.5086C101.09 38.1153 101.09 36.3426 100.941 35.9493H100.946ZM100.034 38.0455C99.9596 38.5236 98.8741 38.4738 98.7646 38.1252C98.7098 37.9509 98.7098 36.6265 98.7447 36.4074C98.7746 36.2182 98.8941 36.1236 99.0783 36.0937C99.3372 36.0489 99.9198 36.024 100.014 36.3277C100.069 36.502 100.069 37.8265 100.034 38.0455Z" fill="white"/>
<path d="M76.159 37.3984C75.7507 36.4473 75.2278 35.4166 74.7548 34.4706C74.72 34.371 74.7 34.2913 74.715 34.1868" fill="white"/>
<path d="M76.159 37.3983C75.8254 36.5817 75.2279 35.4165 74.7549 34.4705L76.159 37.3983Z" fill="white"/>
</svg>
