<svg width="200" height="50" viewBox="0 0 200 50" fill="none" xmlns="http://www.w3.org/2000/svg">
<path d="M124.592 15.1562C124.62 15.1562 124.648 15.1562 124.676 15.1562C125.105 15.1566 125.52 15.1754 125.941 15.2602C125.97 15.2656 125.997 15.2708 126.027 15.2762C127.508 15.5615 128.745 16.303 129.844 17.3073C129.75 17.4599 129.643 17.5792 129.514 17.7033C129.38 17.8345 129.251 17.9672 129.13 18.1105C129.044 18.2074 128.95 18.297 128.858 18.3878C128.775 18.472 128.699 18.5603 128.623 18.6495C128.534 18.7483 128.44 18.8398 128.346 18.9326C128.253 19.0266 128.169 19.1251 128.085 19.2265C127.941 19.1213 127.802 19.0122 127.667 18.8967C126.688 18.0945 125.366 17.7641 124.122 17.8581C123.747 17.8972 123.386 17.9842 123.031 18.107C123.01 18.114 122.989 18.1211 122.968 18.1284C122.515 18.2877 122.114 18.5279 121.751 18.8427C121.713 18.875 121.713 18.875 121.673 18.9079C120.745 19.7066 120.287 20.9023 120.162 22.0973C120.08 23.3403 120.32 24.6025 121.138 25.5781C121.945 26.4779 123.006 26.8918 124.198 26.9913C124.268 26.9948 124.337 26.9973 124.406 26.9992C124.443 27.0005 124.48 27.0018 124.518 27.0031C125.584 27.0223 126.602 26.7312 127.439 26.0595C127.509 26.0077 127.509 26.0077 127.573 26.0077C127.573 25.2688 127.573 24.5299 127.573 23.7686C126.433 23.7686 125.293 23.7686 124.118 23.7686C124.118 22.9453 124.118 22.1219 124.118 21.2737C126.103 21.2737 128.087 21.2737 130.132 21.2737C130.146 22.7067 130.146 22.7067 130.162 24.1684C130.166 24.4694 130.17 24.7704 130.175 25.0804C130.177 25.4495 130.177 25.4495 130.177 25.6229C130.178 25.7431 130.18 25.8634 130.182 25.9834C130.206 27.1045 130.206 27.1045 129.965 27.3927C129.884 27.4707 129.802 27.5379 129.709 27.6C129.628 27.6556 129.56 27.7234 129.49 27.7928C127.869 29.2002 125.948 29.7018 123.822 29.5575C122.306 29.4481 120.796 28.9776 119.64 27.9588C119.593 27.9179 119.593 27.9179 119.546 27.8763C118.393 26.8521 117.719 25.4121 117.497 23.8966C117.488 23.8396 117.488 23.8396 117.48 23.7817C117.425 23.388 117.422 22.9961 117.423 22.5992C117.423 22.565 117.423 22.5311 117.423 22.4962C117.425 22.0071 117.437 21.5312 117.529 21.0498C117.534 21.0213 117.539 20.9928 117.544 20.9634C117.757 19.7578 118.248 18.573 119.032 17.6272C119.048 17.6083 119.063 17.5895 119.079 17.5703C119.369 17.2229 119.668 16.9158 120.024 16.6356C120.053 16.6126 120.082 16.5896 120.112 16.5659C121.394 15.5705 122.988 15.1575 124.592 15.1562Z" fill="#FEFEFE"/>
<path d="M149.167 19.4088C149.189 19.4088 149.21 19.4088 149.233 19.4088C150.582 19.4158 151.825 19.9142 152.778 20.875C153.766 21.9056 154.143 23.3025 154.13 24.699C154.117 25.2441 154.032 25.7763 153.867 26.2958C153.859 26.3207 153.851 26.3457 153.843 26.3716C153.671 26.9023 153.418 27.3955 153.067 27.8311C153.054 27.8484 153.04 27.8654 153.026 27.883C152.254 28.8499 151.136 29.3975 149.917 29.5498C148.762 29.6768 147.467 29.5341 146.51 28.8227C146.405 28.7277 146.299 28.6327 146.19 28.5348C146.18 30.0232 146.169 31.5115 146.158 33.0449C145.303 33.0449 144.448 33.0449 143.567 33.0449C143.567 28.6116 143.567 24.1783 143.567 19.6106C144.37 19.6106 145.172 19.6106 145.998 19.6106C146.041 19.9378 146.083 20.265 146.126 20.6022C146.137 20.6233 146.147 20.6444 146.158 20.6662C146.177 20.6406 146.197 20.6147 146.216 20.5881C146.644 20.0798 147.312 19.7504 147.937 19.5687C147.964 19.5607 147.991 19.553 148.018 19.545C148.399 19.4404 148.773 19.4068 149.167 19.4088ZM147.726 22.1695C147.681 22.1897 147.681 22.1897 147.635 22.2101C147.068 22.4913 146.683 23.021 146.478 23.6089C146.263 24.3363 146.313 25.1027 146.666 25.7802C147.03 26.4061 147.558 26.7909 148.243 26.9982C148.956 27.1805 149.677 27.0542 150.317 26.7078C150.902 26.3537 151.267 25.8025 151.444 25.1484C151.622 24.4156 151.497 23.6751 151.116 23.0332C150.765 22.4689 150.244 22.1446 149.613 21.9776C148.976 21.8308 148.32 21.9008 147.726 22.1695Z" fill="#FEFEFE"/>
<path d="M85.9278 15.4204C85.9562 15.4252 85.9845 15.4297 86.0137 15.4345C87.0132 15.6059 87.967 15.969 88.8066 16.5399C88.8257 16.5527 88.8447 16.5655 88.8643 16.5786C89.1617 16.7798 89.4338 17.0057 89.7022 17.2436C89.7326 17.2705 89.763 17.2974 89.7943 17.3249C89.8598 17.3828 89.9251 17.441 89.9901 17.4995C89.9481 17.5923 89.9031 17.6585 89.8309 17.7302C89.8027 17.7583 89.8027 17.7583 89.7738 17.7871C89.7443 17.8159 89.7443 17.8159 89.7142 17.8453C89.6858 17.8738 89.6858 17.8738 89.6569 17.9026C89.5613 17.9972 89.4641 18.0884 89.3616 18.1757C89.1663 18.3446 88.988 18.5314 88.8066 18.715C88.3556 19.1715 88.3556 19.1715 88.1349 19.3547C88.0179 19.2994 87.9327 19.2303 87.835 19.1449C87.2807 18.6744 86.6306 18.3776 85.9278 18.2032C85.9057 18.1975 85.8835 18.1917 85.8607 18.186C84.697 17.9 83.3384 18.1354 82.3166 18.7371C82.1444 18.8442 81.9882 18.9677 81.8335 19.0989C81.7943 19.1308 81.7943 19.1308 81.7543 19.1635C80.9307 19.8582 80.4748 21.0043 80.368 22.056C80.2808 23.283 80.5048 24.5484 81.2989 25.5217C81.3685 25.6008 81.4403 25.6766 81.5137 25.752C81.5494 25.7914 81.5494 25.7914 81.5859 25.8314C82.352 26.6467 83.5325 26.956 84.6164 26.9995C84.6442 27.0008 84.672 27.0021 84.7007 27.0034C85.8851 27.0325 87.1074 26.5805 88.0069 25.816C88.0299 25.7965 88.0528 25.7773 88.0764 25.7572C88.1281 25.7133 88.1795 25.6686 88.2308 25.6241C88.3614 25.6759 88.4485 25.7693 88.5447 25.8678C88.5606 25.8838 88.5764 25.8998 88.5927 25.9161C88.6785 26.0028 88.76 26.0917 88.839 26.1845C89.0191 26.3924 89.2189 26.5824 89.4143 26.7756C90.0872 27.4413 90.0872 27.4413 90.1181 27.6073C89.5154 28.1865 88.8311 28.6651 88.0709 29.0147C88.0343 29.0316 87.9976 29.0486 87.9598 29.0662C87.0837 29.4564 86.118 29.6598 85.1601 29.6864C85.1236 29.6873 85.1236 29.6874 85.0863 29.6886C83.1816 29.7344 81.1722 29.2699 79.7529 27.9294C79.6993 27.876 79.6467 27.8219 79.5945 27.7672C79.5681 27.7406 79.5417 27.7144 79.5145 27.6872C79.4881 27.6607 79.4618 27.6345 79.4346 27.6073C79.4186 27.5926 79.4026 27.5775 79.3862 27.5622C79.0708 27.2625 78.8263 26.8911 78.6029 26.5197C78.5899 26.498 78.5768 26.4765 78.5634 26.4542C78.1051 25.6836 77.84 24.8382 77.6753 23.9608C77.6673 23.9199 77.6673 23.9199 77.6592 23.878C77.4963 23.0111 77.502 22.0106 77.6753 21.146C77.6816 21.1134 77.688 21.0807 77.6946 21.0472C78.0609 19.2162 79.0286 17.5715 80.5895 16.5153C80.7547 16.4078 80.9272 16.3132 81.1011 16.2204C81.1563 16.191 81.211 16.1609 81.2657 16.1305C82.6254 15.4067 84.4127 15.1703 85.9278 15.4204Z" fill="#FEFEFE"/>
<path d="M138.975 20.3044C139.081 20.3994 139.158 20.4889 139.249 20.6022C139.281 20.2749 139.312 19.9477 139.345 19.6106C140.168 19.6106 140.992 19.6106 141.84 19.6106C141.84 22.83 141.84 26.0495 141.84 29.3665C141.038 29.3665 140.235 29.3665 139.409 29.3665C139.339 29.0184 139.34 28.6644 139.345 28.3109C139.316 28.3339 139.287 28.357 139.257 28.3809C139.232 28.4005 139.232 28.4005 139.207 28.4203C139.149 28.4715 139.149 28.4715 139.097 28.545C138.587 29.1537 137.702 29.4586 136.946 29.5904C136.914 29.5961 136.882 29.6022 136.848 29.6083C135.579 29.75 134.134 29.4739 133.11 28.6794C132.977 28.5719 132.849 28.459 132.724 28.3429C132.699 28.3208 132.675 28.2991 132.65 28.2764C131.729 27.4009 131.322 26.0568 131.281 24.8151C131.255 23.2759 131.561 21.8535 132.648 20.7074C134.215 19.1039 137.254 18.7952 138.975 20.3044ZM134.835 22.2974C134.801 22.3221 134.801 22.3221 134.766 22.3473C134.264 22.7462 133.997 23.4051 133.907 24.0247C133.854 24.951 133.985 25.7421 134.598 26.4685C135.016 26.9198 135.63 27.2182 136.244 27.2624C137.006 27.2892 137.692 27.1879 138.289 26.6796C138.307 26.6668 138.325 26.654 138.343 26.6409C138.845 26.2602 139.098 25.5716 139.204 24.9741C139.301 24.1044 139.103 23.3184 138.573 22.6243C138.123 22.0882 137.467 21.8279 136.784 21.7636C136.07 21.707 135.411 21.8727 134.835 22.2974Z" fill="#FEFEFE"/>
<path d="M163.851 20.4881C163.904 20.5364 163.955 20.585 164.007 20.6339C164.043 20.6669 164.043 20.6669 164.08 20.7005C165.008 21.5798 165.349 22.952 165.386 24.1899C165.404 25.2077 165.404 25.2077 165.319 25.4639C162.87 25.4639 160.421 25.4639 157.898 25.4639C158.151 26.1382 158.431 26.5936 159.081 26.9014C160.082 27.3351 161.192 27.2609 162.194 26.8745C162.53 26.7376 162.801 26.5581 163.08 26.3275C163.111 26.3064 163.143 26.2853 163.176 26.2635C163.725 26.8124 164.273 27.3613 164.839 27.9268C164.012 28.8912 162.832 29.3387 161.608 29.5582C161.573 29.5646 161.573 29.5646 161.538 29.5713C160.381 29.7769 159.064 29.6151 157.994 29.1423C157.972 29.1327 157.95 29.1231 157.928 29.1135C156.821 28.619 156.009 27.7007 155.563 26.5834C155.046 25.1555 155.056 23.4714 155.689 22.0816C155.861 21.7173 156.07 21.3894 156.331 21.0817C156.344 21.0654 156.358 21.0491 156.372 21.0322C157.26 19.9945 158.532 19.4725 159.876 19.3644C161.285 19.2697 162.766 19.5301 163.851 20.4881ZM158.407 22.4818C158.242 22.6743 157.994 22.9949 157.994 23.2568C159.567 23.2568 161.139 23.2568 162.76 23.2568C162.629 22.7319 162.407 22.2969 161.928 22.0093C160.795 21.4096 159.314 21.5494 158.407 22.4818Z" fill="#FEFEFE"/>
<path d="M97.8906 19.9304C97.9112 19.9403 97.9317 19.9502 97.9529 19.9608C98.3751 20.1684 98.7324 20.4387 99.0741 20.762C99.1025 20.7883 99.1307 20.8145 99.1599 20.8414C100.056 21.6992 100.573 22.9838 100.609 24.2166C100.61 24.2367 100.611 24.2569 100.611 24.278C100.651 25.6688 100.248 27.0525 99.2811 28.0802C98.2945 29.1073 97.0059 29.5593 95.595 29.5922C94.1753 29.6034 92.9075 29.162 91.8772 28.1829C91.8569 28.1647 91.8366 28.1464 91.8157 28.1276C90.9099 27.2866 90.5337 25.9426 90.4758 24.7504C90.4237 23.3107 90.8666 21.9455 91.8461 20.8788C92.5205 20.1681 93.3896 19.7282 94.3401 19.5146C94.3747 19.5066 94.3747 19.5066 94.4099 19.4986C95.5604 19.251 96.8388 19.4129 97.8906 19.9304ZM93.9243 22.3934C93.8818 22.433 93.8818 22.433 93.8384 22.4733C93.814 22.4999 93.7896 22.5261 93.7644 22.5533C93.7478 22.5699 93.7312 22.5869 93.7142 22.6041C93.2265 23.1214 93.013 23.873 93.024 24.5726C93.064 25.3479 93.3107 26.0603 93.8843 26.6057C94.4599 27.1014 95.1393 27.2019 95.8755 27.1593C96.4849 27.0915 97.0067 26.7829 97.4056 26.3219C97.8956 25.6835 98.074 24.8643 97.9767 24.072C97.8655 23.3734 97.516 22.6988 96.9382 22.2747C96.0408 21.6468 94.75 21.6234 93.9243 22.3934Z" fill="#FEFEFE"/>
<path d="M114.421 20.3842C115.321 21.1637 115.771 22.2192 115.931 23.3848C115.934 23.4066 115.937 23.428 115.94 23.4504C115.972 23.7216 115.967 23.9938 115.967 24.2667C115.967 24.323 115.967 24.3796 115.967 24.4359C115.967 24.5885 115.967 24.7407 115.966 24.8933C115.966 25.0529 115.966 25.2125 115.966 25.3721C115.966 25.6741 115.966 25.976 115.965 26.2777C115.965 26.6858 115.965 27.0943 115.965 27.5024C115.964 28.145 115.964 28.7877 115.963 29.4303C115.119 29.4303 114.274 29.4303 113.404 29.4303C113.403 28.834 113.403 28.834 113.402 28.226C113.401 27.9736 113.4 27.7209 113.399 27.4685C113.397 27.0684 113.396 26.6679 113.396 26.2678C113.395 25.976 113.394 25.6843 113.393 25.3926C113.392 25.2384 113.392 25.0843 113.392 24.9301C113.392 24.7845 113.391 24.639 113.39 24.4935C113.39 24.4404 113.39 24.3873 113.39 24.3345C113.392 23.6081 113.222 22.9354 112.73 22.382C112.302 21.9694 111.697 21.8303 111.12 21.8408C110.574 21.8639 110.049 22.107 109.662 22.4892C109.123 23.0909 108.987 23.8176 108.983 24.6019C108.983 24.654 108.983 24.7062 108.982 24.758C108.982 24.8987 108.981 25.0395 108.98 25.1802C108.98 25.3274 108.979 25.4748 108.978 25.622C108.976 25.9006 108.975 26.1792 108.973 26.4574C108.972 26.8342 108.97 27.2107 108.967 27.5872C108.964 28.1802 108.961 28.7733 108.958 29.3663C108.103 29.3663 107.248 29.3663 106.367 29.3663C106.367 26.1469 106.367 22.9274 106.367 19.6104C107.138 19.6104 107.908 19.6104 108.702 19.6104C108.744 19.9376 108.787 20.2649 108.83 20.602C108.846 20.6653 108.846 20.6653 108.862 20.7299C108.883 20.7101 108.903 20.6903 108.925 20.6701C109.146 20.4625 109.376 20.2879 109.63 20.1222C109.667 20.0966 109.667 20.0966 109.705 20.0707C111.092 19.1642 113.165 19.3299 114.421 20.3842Z" fill="#FEFEFE"/>
<path d="M101.952 19.5464C102.807 19.5464 103.662 19.5464 104.543 19.5464C104.543 22.7764 104.543 26.0064 104.543 29.3343C103.688 29.3343 102.833 29.3343 101.952 29.3343C101.952 26.1043 101.952 22.8743 101.952 19.5464Z" fill="#FEFEFE"/>
<path d="M104.138 15.8102C104.489 16.0789 104.701 16.4081 104.761 16.8501C104.795 17.359 104.687 17.7672 104.367 18.168C104.157 18.4018 103.822 18.5646 103.51 18.594C103.009 18.617 102.603 18.5704 102.209 18.2351C101.962 18.0096 101.782 17.7019 101.755 17.3625C101.742 16.8095 101.778 16.385 102.173 15.9641C102.69 15.4792 103.548 15.4261 104.138 15.8102Z" fill="#FEFEFE"/>
<path d="M50.8466 8.00278C49.9997 8.05293 49.4906 8.10494 48.9334 8.19598C48.872 8.20525 48.7679 8.22198 48.7012 8.23312C48.1513 8.31858 47.319 8.51549 46.6948 8.7031C46.3679 8.80341 46.1357 8.87586 46.0539 8.90745C46.0131 8.9223 45.9165 8.95761 45.8403 8.98546C45.7121 9.0319 45.3611 9.16381 45.2738 9.1991C45.1122 9.26412 44.5958 9.48702 44.475 9.54275C44.2966 9.62449 43.5165 10.0146 43.4905 10.035C43.4812 10.0425 43.4254 10.074 43.3698 10.1038C41.6141 11.0604 39.8717 12.4945 38.5788 14.0475C38.473 14.1757 38.3689 14.3002 38.3467 14.3262C38.146 14.5621 37.7095 15.1602 37.4197 15.5986C37.0872 16.1002 36.8717 16.4587 36.5949 16.9733C36.5039 17.1423 36.1249 17.9058 36.1249 17.9207C36.1249 17.9244 36.0915 17.9987 36.0506 18.086C36.0097 18.1733 35.9763 18.2495 35.9763 18.2551C35.9763 18.2588 35.9522 18.3164 35.9243 18.3795C35.8946 18.4445 35.8221 18.621 35.7645 18.7752C35.7051 18.9275 35.6512 19.0706 35.6419 19.091C35.6345 19.1114 35.6178 19.1579 35.6048 19.1932C35.5918 19.2285 35.5751 19.2749 35.5676 19.2953C35.5398 19.3585 35.3893 19.8248 35.328 20.0291C35.2964 20.1368 35.2611 20.2484 35.2518 20.2799C35.2147 20.4006 35.0531 21.023 35.0271 21.153C35.0159 21.203 34.9992 21.2793 34.9899 21.3202C34.9806 21.361 34.9658 21.4317 34.9565 21.4781C34.9472 21.5244 34.9286 21.6248 34.9119 21.701C34.8227 22.1394 34.7707 22.4756 34.6945 23.1128C34.6853 23.189 34.6685 23.3691 34.6574 23.5122C34.6462 23.6552 34.6295 23.8633 34.6202 23.9747C34.5979 24.231 34.5979 25.7543 34.6202 26.0015C34.6295 26.1035 34.6462 26.3078 34.6574 26.4566C34.6685 26.6051 34.6853 26.7928 34.6964 26.8746C34.7577 27.389 34.7521 27.3556 34.8227 27.7847C34.8617 28.0206 34.9063 28.2639 34.9379 28.4164C34.9936 28.6856 35.1069 29.1706 35.1608 29.3636C35.1812 29.4343 35.2054 29.5235 35.2147 29.5587C35.3001 29.8782 35.5695 30.7198 35.6419 30.8869C35.6494 30.9075 35.7014 31.0375 35.7553 31.1749C35.8073 31.3123 35.8723 31.4703 35.8946 31.5241C35.9187 31.578 35.9392 31.6263 35.9392 31.63C35.9392 31.6337 35.9596 31.6821 35.9837 31.7359C36.0079 31.7898 36.0543 31.8976 36.0878 31.9736C36.2215 32.282 36.5893 33.0065 36.7751 33.3316C37.3993 34.4202 38.0996 35.3973 38.9002 36.3019C39.2365 36.681 39.9757 37.4146 40.3603 37.751C41.2687 38.546 42.3239 39.2947 43.2769 39.8186C43.3325 39.8501 43.405 39.889 43.4347 39.9076C43.5498 39.9764 44.1833 40.2959 44.4099 40.4018C44.6794 40.5262 44.7499 40.5577 44.8613 40.6043C44.9246 40.6303 45.0212 40.6729 45.075 40.6972C45.1289 40.7213 45.179 40.7417 45.1864 40.7417C45.1957 40.7417 45.2367 40.7584 45.2793 40.7788C45.3203 40.7994 45.3667 40.8161 45.3815 40.8161C45.3945 40.8161 45.413 40.8216 45.4204 40.8291C45.426 40.8365 45.4596 40.8513 45.4929 40.8643C46.0651 41.0742 46.6001 41.2526 46.9085 41.3363C47.1872 41.4123 47.5308 41.5015 47.6145 41.52C47.6553 41.5293 47.8057 41.5629 47.9488 41.5944C48.0918 41.6259 48.2554 41.6613 48.311 41.6725C48.3668 41.6836 48.4336 41.6966 48.4595 41.7021C48.5432 41.7188 48.885 41.7746 49.0541 41.7988C49.2677 41.8284 49.5984 41.8729 49.7043 41.8824C50.1241 41.9269 50.4455 41.951 50.7166 41.9603C50.8913 41.9658 51.0491 41.9788 51.0695 41.9883C51.092 41.9994 51.3093 42.0031 51.6082 41.9976C52.5575 41.9825 53.4714 41.9083 54.2368 41.7821C54.2926 41.7728 54.4022 41.7559 54.4784 41.7448C54.5544 41.7337 54.6511 41.717 54.692 41.7077C54.7328 41.6984 54.8128 41.6836 54.8684 41.6725C55.0839 41.6315 55.5019 41.5386 55.7788 41.4681C56.1836 41.3641 56.2579 41.3437 56.5311 41.26C56.6648 41.2172 56.8226 41.169 56.884 41.1504C57.3113 41.0186 58.0171 40.7454 58.5187 40.5188C58.5799 40.491 58.6673 40.4537 58.7138 40.4333C58.8123 40.3925 59.6965 39.9486 59.7262 39.9263C59.7354 39.9168 59.7913 39.8853 59.8469 39.8556C59.9973 39.7739 60.1905 39.6606 60.5379 39.4506C60.7684 39.3132 61.3423 38.923 61.6582 38.6927C63.4099 37.409 64.9424 35.7465 66.0848 33.887C66.4953 33.2183 66.917 32.412 67.1939 31.76C67.2069 31.7284 67.2329 31.6672 67.2533 31.6207C67.2737 31.5743 67.3388 31.4163 67.3962 31.2678C67.5394 30.913 67.5301 30.9334 67.5561 30.8591C67.5691 30.8238 67.5858 30.7773 67.595 30.7569C67.6154 30.705 67.8441 30.0138 67.8719 29.9116C67.8849 29.8653 67.9016 29.8078 67.9109 29.7816C67.9201 29.7557 67.9387 29.6887 67.9537 29.6331C67.9685 29.5773 67.9945 29.4808 68.0112 29.4194C68.0689 29.2058 68.1523 28.8807 68.1673 28.8064C68.2155 28.5835 68.3029 28.1432 68.3177 28.0635C68.4366 27.3834 68.5017 26.8783 68.5406 26.3451C68.5499 26.1964 68.5666 25.9586 68.5777 25.8157C68.602 25.4683 68.602 24.4856 68.5777 24.1624C68.5685 24.0192 68.5499 23.7815 68.5406 23.633C68.5221 23.3765 68.5091 23.2372 68.4644 22.8621C68.444 22.6911 68.3307 21.9628 68.301 21.8124C68.2918 21.7661 68.2751 21.6787 68.2619 21.6173C68.2174 21.3907 68.1729 21.1938 68.1004 20.9022C68.0149 20.5623 67.9704 20.4025 67.9164 20.2149C67.8905 20.1276 67.8626 20.031 67.8552 20.0012C67.8385 19.9344 67.6175 19.273 67.595 19.221C67.5858 19.2006 67.5691 19.1542 67.5561 19.1189C67.5431 19.0836 67.5264 19.0371 67.519 19.0167C67.5116 18.9963 67.465 18.8792 67.4168 18.7566C67.3684 18.634 67.3147 18.4984 67.2943 18.4557C67.2755 18.4111 67.2588 18.3721 67.2588 18.3665C67.2588 18.3628 67.2384 18.3127 67.2125 18.2551C67.1865 18.1993 67.1455 18.1065 67.1196 18.0507C67.0936 17.9931 67.073 17.9448 67.073 17.9393C67.073 17.9244 66.7016 17.1739 66.6142 17.0104C66.4453 16.6984 66.3077 16.4532 66.2724 16.403C66.252 16.377 66.2372 16.351 66.2372 16.3454C66.2372 16.3306 66.0087 15.9609 65.9047 15.8067C65.8563 15.7324 65.8118 15.6637 65.8081 15.6544C65.797 15.6284 65.5164 15.216 65.3808 15.0321C64.5114 13.8339 63.4154 12.6784 62.2803 11.7608C61.6786 11.2722 60.7814 10.6536 60.1868 10.3118C60.1534 10.2914 60.0939 10.2579 60.0568 10.2375C60.0179 10.2152 59.9398 10.1725 59.884 10.1409C59.8284 10.1112 59.7744 10.0796 59.7633 10.0722C59.754 10.0647 59.5739 9.97002 59.364 9.86227C58.3999 9.36628 57.378 8.95761 56.3731 8.66967C56.2153 8.62323 56.061 8.57865 56.0295 8.56936C55.9774 8.5545 55.6766 8.47834 55.3886 8.41145C55.2252 8.37245 54.8257 8.28885 54.7106 8.27027C54.6603 8.26285 54.547 8.24242 54.4599 8.22756C54.3725 8.21269 54.2349 8.1904 54.1533 8.17925C54.0715 8.16625 53.9545 8.14953 53.8931 8.14025C53.8319 8.13096 53.6945 8.11424 53.5868 8.10309C53.479 8.09194 53.3173 8.07524 53.2244 8.06409C52.8175 8.02136 52.5056 8.00835 51.757 8.00278C51.3186 7.99907 50.908 7.99907 50.8466 8.00278ZM52.2491 9.2827C52.5501 9.29755 52.8474 9.31426 52.9086 9.31984C52.97 9.32541 53.1074 9.33842 53.2151 9.34957C53.7242 9.39601 54.5713 9.52975 54.9706 9.62635C55.0116 9.63564 55.1006 9.65608 55.1712 9.67278C56.1428 9.89386 57.0921 10.2134 58.0636 10.6425C58.2215 10.7131 58.9942 11.0957 59.0945 11.1533C59.1559 11.1886 59.2525 11.2444 59.3082 11.2741C60.0642 11.6865 60.9726 12.3143 61.7416 12.959C63.3802 14.3317 64.7584 16.0816 65.7059 17.995C65.8452 18.2755 66.0143 18.634 66.0143 18.647C66.0143 18.6507 66.0384 18.7065 66.0681 18.7696C66.0961 18.8346 66.1684 19.0074 66.2279 19.156C66.2854 19.3046 66.3412 19.4421 66.3487 19.4625C66.3987 19.5851 66.4397 19.7077 66.553 20.0477C66.6216 20.2576 66.6886 20.4657 66.7016 20.5121C66.7145 20.5586 66.7312 20.6161 66.7387 20.6421C66.8818 21.1066 67.0637 21.922 67.1492 22.4719C67.1585 22.5333 67.177 22.6651 67.1939 22.7654C67.2942 23.4267 67.3517 24.2459 67.3517 25.0169C67.3517 25.9809 67.2718 26.8577 67.0936 27.8684C67.06 28.0559 67.0341 28.1823 66.9616 28.5185C66.943 28.6096 66.852 28.9644 66.8037 29.1407C66.7238 29.4269 66.7201 29.4436 66.6682 29.6145C66.6031 29.83 66.3987 30.4318 66.3487 30.5525C66.3412 30.5731 66.2854 30.7105 66.2279 30.8591C65.992 31.4536 65.6334 32.2023 65.3456 32.7074C65.3213 32.7484 65.2935 32.7985 65.2823 32.8189C64.9647 33.391 64.3534 34.2865 63.8798 34.8716C63.0401 35.9101 62.024 36.8853 60.9894 37.6488C60.8667 37.7397 60.7367 37.8345 60.7014 37.8625C60.6085 37.9329 59.9991 38.3324 59.8005 38.4531C59.6166 38.5646 59.6036 38.572 59.336 38.7263C59.1224 38.8489 58.4332 39.2018 58.24 39.2872C58.1695 39.3206 58.0431 39.3764 57.9615 39.4135C57.4116 39.6661 56.3342 40.047 55.6951 40.2141C55.5929 40.2401 55.4796 40.2699 55.4444 40.2792C55.409 40.2885 55.3459 40.3033 55.3049 40.3126C55.2641 40.3219 55.1304 40.3515 55.0079 40.3777C54.6511 40.4574 54.2275 40.5355 53.9582 40.5728C53.882 40.5839 53.7613 40.6006 53.6888 40.6117C53.4584 40.6432 52.9329 40.6935 52.5186 40.7232C52.1581 40.7473 51.0732 40.7473 50.7259 40.7232C50.1408 40.6803 49.5333 40.6191 49.2677 40.5746C48.3017 40.4129 47.8112 40.3015 46.9921 40.0581C46.6726 39.9615 45.8347 39.6624 45.6063 39.5621C45.571 39.5472 45.5152 39.5231 45.4837 39.5083C44.2614 38.9918 43.0781 38.299 42.0043 37.4741C40.1319 36.0345 38.525 34.0729 37.4977 31.9736C37.377 31.7284 37.2209 31.3978 37.2209 31.3885C37.2209 31.383 37.2005 31.3366 37.1764 31.2826C36.9479 30.781 36.6116 29.8337 36.45 29.2336C36.3255 28.7711 36.1974 28.2324 36.1621 28.0169C36.1547 27.9706 36.1268 27.8125 36.1008 27.664C36.0748 27.5153 36.0451 27.3185 36.032 27.2275C36.0209 27.1346 36.0042 27.0138 35.9949 26.958C35.98 26.8651 35.954 26.6051 35.902 25.9902C35.8779 25.7042 35.8779 24.2943 35.902 24.0137C35.9615 23.3412 35.98 23.148 35.9949 23.0477C36.0042 22.9865 36.0209 22.8695 36.032 22.7877C36.1324 22.0706 36.2791 21.374 36.4797 20.6701C36.6283 20.148 36.9311 19.2842 37.0723 18.9758C37.0928 18.9312 37.1095 18.8922 37.1095 18.8866C37.1095 18.8588 37.429 18.1715 37.5702 17.8928C38.7405 15.6005 40.4049 13.6686 42.506 12.1676C42.857 11.9168 43.5072 11.5026 43.8174 11.3298C44.1648 11.1366 44.2707 11.0809 44.5492 10.9397C45.0156 10.7056 45.2849 10.5849 45.7847 10.3843C46.1561 10.2357 46.5908 10.0759 46.7414 10.035C46.7729 10.0276 46.9233 9.98116 47.0757 9.93471C47.2298 9.88642 47.5049 9.81026 47.6886 9.76382C47.8726 9.71737 48.0529 9.67278 48.0881 9.66164C48.285 9.60777 49.1841 9.44802 49.5928 9.39601C49.9939 9.34399 50.4993 9.30312 51.0975 9.27526C51.5656 9.25297 51.6585 9.25297 52.2491 9.2827Z" fill="white"/>
<path d="M50.7084 10.2206C50.6525 10.2299 50.5448 10.2355 50.4706 10.2374C50.3962 10.2392 50.2792 10.2467 50.2104 10.2578C50.1418 10.2671 49.969 10.2894 49.826 10.3042C49.5454 10.3377 48.73 10.4696 48.5256 10.516C48.4848 10.5253 48.4105 10.542 48.3584 10.5513C48.2154 10.581 47.5393 10.7594 47.3963 10.804C47.3534 10.817 47.2809 10.8392 47.2346 10.8522C47.0656 10.9006 46.7237 11.0176 46.3281 11.1625C46.276 11.1829 46.2259 11.2052 46.2185 11.2108C46.2129 11.2182 46.1963 11.2238 46.1831 11.2238C46.1682 11.2238 46.1126 11.2442 46.0568 11.2702C46.0012 11.2962 45.9509 11.3167 45.9453 11.3167C45.9398 11.3167 45.8916 11.3371 45.8376 11.3612C45.715 11.417 45.572 11.4801 45.4884 11.5154C45.351 11.5749 44.7101 11.8944 44.5595 11.978C44.4723 12.0263 44.3683 12.0839 44.3273 12.1043C44.2865 12.1266 44.151 12.2065 44.0247 12.2826C43.9001 12.3588 43.7812 12.4294 43.7645 12.4405C43.7163 12.4665 43.2927 12.7489 43.1291 12.8622C42.858 13.048 42.3545 13.4325 42.1446 13.6108C41.6932 13.9954 41.4648 14.2053 41.1137 14.5582C40.5898 15.0821 40.0938 15.6635 39.635 16.2858C39.5439 16.4084 38.97 17.2722 38.9142 17.3725C38.8994 17.3985 38.8158 17.5397 38.7303 17.6883C38.5278 18.0394 38.147 18.8029 38.0114 19.128C37.9984 19.1577 37.9706 19.2209 37.952 19.2673C37.9315 19.3138 37.8665 19.4754 37.8089 19.6296C37.7495 19.7819 37.6938 19.9249 37.6845 19.9454C37.6659 19.9881 37.4467 20.6624 37.391 20.8556C37.352 20.9856 37.3297 21.0674 37.2925 21.2085C37.2814 21.2495 37.2665 21.3033 37.2591 21.3292C37.2517 21.3554 37.2368 21.4166 37.2256 21.4687C37.2145 21.5187 37.1866 21.6413 37.1662 21.7379C37.0956 22.0445 37.077 22.1337 37.0547 22.2581C37.0436 22.3251 37.0269 22.4159 37.0176 22.4625C37.0083 22.5088 36.9916 22.6129 36.9804 22.6947C36.9693 22.7764 36.9526 22.8972 36.9433 22.9639C36.8987 23.2686 36.869 23.5603 36.83 24.0601C36.8058 24.3702 36.8188 25.8508 36.8486 26.2055C36.9154 27.0119 37.0585 27.8998 37.2238 28.5277C37.2479 28.6186 37.2684 28.7022 37.2962 28.8248C37.3092 28.875 37.3241 28.9381 37.3334 28.9642C37.3408 28.9902 37.3575 29.0477 37.3705 29.0942C37.3835 29.1406 37.4003 29.1983 37.4077 29.2242C37.417 29.2502 37.4541 29.3709 37.4913 29.4937C37.5303 29.6163 37.5675 29.7333 37.5767 29.7537C37.5842 29.7741 37.6046 29.8281 37.6195 29.8744C37.6919 30.0918 37.8721 30.5654 37.9576 30.7605C37.9724 30.7939 37.9947 30.8497 38.0096 30.8812C38.0337 30.9407 38.0523 30.9778 38.1953 31.2955C38.2659 31.4477 38.4517 31.8194 38.5408 31.9828C38.5687 32.033 38.6244 32.1333 38.6635 32.2057C38.7006 32.2763 38.7786 32.41 38.8325 32.5011C38.8864 32.5921 38.931 32.6702 38.931 32.6739C38.931 32.6962 39.555 33.6193 39.7112 33.8311C40.0975 34.3494 40.4022 34.7098 40.8591 35.1873C41.5 35.856 42.1057 36.4003 42.7112 36.848C43.0921 37.1304 43.1162 37.1471 43.2779 37.2585C43.4691 37.3867 43.9818 37.7136 43.9948 37.7136C44.0004 37.7136 44.0414 37.7377 44.0859 37.7694C44.1306 37.7991 44.1714 37.8251 44.1769 37.8251C44.1825 37.8251 44.2568 37.8659 44.3422 37.918C44.502 38.0109 45.2284 38.3823 45.4624 38.4882C45.6761 38.5848 46.12 38.7725 46.1349 38.7725C46.1441 38.7725 46.1849 38.7892 46.2278 38.8096C46.2686 38.83 46.3133 38.8467 46.3244 38.8467C46.3337 38.8467 46.3578 38.8543 46.3763 38.8654C46.4433 38.9025 46.9336 39.0679 47.4297 39.2202C47.476 39.235 47.7714 39.3149 48.0333 39.3836C48.0947 39.4004 48.1802 39.4208 48.3547 39.4579C48.3975 39.4672 48.4698 39.4839 48.5164 39.4932C48.5889 39.51 48.6816 39.5286 48.8656 39.5638C49.8297 39.7496 50.792 39.8257 51.9529 39.8053C52.2949 39.7997 52.6719 39.7849 52.7889 39.7756C53.1548 39.7404 53.3703 39.72 53.4949 39.7012C53.7771 39.6623 54.0299 39.6233 54.1078 39.6083C54.1543 39.5991 54.2454 39.5824 54.3121 39.5712C54.5927 39.523 54.8416 39.4728 55.0367 39.4227C55.0719 39.4134 55.1889 39.3836 55.2967 39.3576C55.4751 39.3131 55.7983 39.2239 55.9376 39.1794C56.0937 39.131 56.4726 39.0066 56.5878 38.9658C56.7866 38.8932 56.9184 38.8448 56.965 38.8263C56.9872 38.817 57.0262 38.8003 57.0521 38.7911C57.0783 38.7799 57.1172 38.7651 57.1413 38.7558C57.2064 38.7297 57.5445 38.5867 57.6374 38.5459C57.9829 38.3935 58.6238 38.0702 58.8782 37.9198C58.9322 37.8883 58.9785 37.8622 58.9822 37.8622C58.9989 37.8622 59.5749 37.5055 59.7643 37.3811C60.0374 37.199 60.3011 37.0152 60.4144 36.9279C60.4666 36.8888 60.5706 36.809 60.6466 36.7513C60.8158 36.625 61.2449 36.2703 61.4734 36.0696C61.6404 35.9229 62.4393 35.1315 62.5972 34.9551C63.3495 34.121 64.0815 33.0993 64.5662 32.2057C64.5942 32.1537 64.6517 32.0497 64.6946 31.9735C64.8301 31.7246 65.133 31.0948 65.2333 30.8497C65.2722 30.7568 65.2889 30.7141 65.3167 30.6509C65.4859 30.2683 65.7681 29.436 65.9057 28.927C65.9168 28.8806 65.9354 28.8174 65.9428 28.7877C65.9595 28.73 66.0543 28.3345 66.0988 28.1375C66.1323 27.9816 66.1787 27.7436 66.2197 27.5003C66.2735 27.1771 66.2753 27.1548 66.3311 26.6979C66.4444 25.7727 66.4519 24.4816 66.3497 23.4934C66.3161 23.1609 66.3013 23.0439 66.2382 22.6296C66.2141 22.4699 66.175 22.2451 66.1268 22.0074C66.1193 21.9664 66.0895 21.8364 66.0617 21.7194C66.0339 21.6024 66.0042 21.4761 65.9968 21.4407C65.9873 21.4054 65.9632 21.3088 65.9409 21.2272C65.9187 21.1454 65.8946 21.0488 65.8853 21.0136C65.8555 20.8964 65.8351 20.8222 65.7681 20.6141C65.6437 20.224 65.6047 20.1126 65.588 20.081C65.5769 20.0624 65.5695 20.0345 65.5695 20.0197C65.5695 20.0048 65.5621 19.9769 65.5526 19.9584C65.5434 19.9417 65.4877 19.8005 65.4282 19.6481C65.3707 19.494 65.3056 19.3323 65.2852 19.2859C65.2667 19.2395 65.2388 19.1763 65.2257 19.1466C65.0289 18.6822 64.7279 18.084 64.4791 17.6512C64.3415 17.4153 64.3025 17.3484 64.2319 17.2332C63.9123 16.7149 63.5261 16.1744 63.0765 15.6171C62.5749 14.9985 61.7111 14.1273 61.1038 13.6294C61.0535 13.5885 60.9828 13.5291 60.9458 13.4994C60.8677 13.4325 60.7136 13.3117 60.4423 13.1056C60.2474 12.9588 59.7086 12.5891 59.5135 12.4702C59.1773 12.2659 58.9359 12.121 58.8541 12.0783C58.8038 12.0504 58.6942 11.991 58.6126 11.9464C58.5309 11.9 58.3395 11.8015 58.1854 11.7272C57.7266 11.5024 57.5853 11.4393 57.1636 11.2721C56.9909 11.2015 56.8311 11.1383 56.8107 11.1309C56.6547 11.0677 56.049 10.8653 55.8725 10.8151C55.8261 10.8021 55.7686 10.7854 55.7425 10.7779C55.6347 10.7445 55.2726 10.6479 55.1203 10.6126C55.0701 10.5996 54.9976 10.5829 54.9623 10.5736C54.9271 10.5643 54.8731 10.5513 54.8416 10.5457C54.8119 10.5402 54.7524 10.5272 54.7116 10.5179C54.5443 10.4826 54.0521 10.3953 53.7734 10.3507C53.5116 10.3098 53.034 10.2597 52.5567 10.2206C52.2854 10.2002 50.8662 10.2002 50.7084 10.2206ZM50.8532 14.0195C50.855 14.9483 50.8625 15.7137 50.8717 15.7211C50.8793 15.7285 50.935 15.7267 50.9964 15.7174C51.0576 15.7081 51.195 15.697 51.3027 15.6914C51.4105 15.6858 51.5759 15.6765 51.6688 15.6709L51.8414 15.6598L51.8451 13.9954L51.8507 12.3291H52.6774H53.5041L53.5097 14.0307L53.5134 15.7341L53.6768 15.7545C53.766 15.7675 53.909 15.7843 53.9963 15.7954C54.3158 15.8344 54.6558 15.8939 54.9901 15.9719C55.4285 16.0741 56.166 16.3248 56.2404 16.3954C56.259 16.414 56.2645 16.6499 56.2627 17.5286C56.2627 18.1397 56.2571 18.6469 56.2515 18.6562C56.2478 18.6636 56.1234 18.6116 55.9784 18.5373C55.5363 18.3106 55.0497 18.1119 54.628 17.9856C54.5517 17.9633 54.4683 17.9373 54.4421 17.9298C54.3976 17.9168 54.3103 17.8927 54.1692 17.8555C54.0037 17.8147 53.7437 17.7627 53.4669 17.7181C52.2967 17.5323 51.1801 17.575 50.1233 17.8462C49.8297 17.9224 49.6904 17.9689 49.3336 18.1119C47.7974 18.7268 46.497 20.0494 45.8524 21.6543C45.8024 21.7771 45.7558 21.8941 45.7465 21.9145C45.7391 21.9349 45.7132 22.0093 45.6909 22.0816C45.6687 22.1522 45.6444 22.2284 45.6369 22.2488C45.5832 22.3844 45.4476 22.9491 45.3973 23.2371C45.3454 23.5362 45.3454 23.5381 45.2803 24.0787C45.2488 24.3479 45.2488 25.7671 45.2803 26.0199C45.3454 26.5269 45.3714 26.7035 45.3936 26.8279C45.4569 27.153 45.4587 27.1623 45.5348 27.4503C45.5813 27.6229 45.6798 27.9424 45.7113 28.0261C45.7206 28.0465 45.7558 28.1375 45.7912 28.2304C45.8561 28.3957 45.99 28.6985 46.0308 28.7692C46.042 28.7896 46.0846 28.8695 46.1256 28.9455C46.2686 29.215 46.5288 29.6033 46.7591 29.893C46.9262 30.1047 47.517 30.6824 47.7269 30.8423C48.5127 31.4403 49.3598 31.8138 50.3089 31.9809C50.7901 32.0664 51.1115 32.0924 51.6743 32.0924C52.226 32.0905 52.6719 32.0608 53.1698 31.9902C53.4168 31.9549 53.87 31.8639 54.0892 31.8083C54.5109 31.6987 54.6335 31.6595 55.0552 31.4999C55.4155 31.3624 56.0101 31.0763 56.2182 30.9407C56.2423 30.924 56.2701 30.9166 56.2812 30.924C56.2942 30.9315 56.2998 31.264 56.2998 31.9475V32.9599L56.0175 33.0956C55.8614 33.1698 55.6757 33.2534 55.6032 33.2831C55.5326 33.3111 55.4565 33.3408 55.4359 33.3482C55.3599 33.3797 55.1185 33.4634 55.0645 33.4782C55.0348 33.4856 54.9716 33.5042 54.9252 33.521C54.8323 33.5526 54.5554 33.6288 54.4143 33.6622C54.3643 33.6751 54.2917 33.6918 54.2565 33.703C54.1245 33.7365 53.8645 33.7866 53.5971 33.8293L53.5227 33.8404L53.5134 35.6145L53.5041 37.3885L52.6904 37.3978C52.189 37.4034 51.8694 37.3997 51.8583 37.3885C51.8489 37.3793 51.8414 36.7254 51.8414 35.685V33.9984H51.5722C51.4236 33.9984 51.2211 33.9891 51.1226 33.978C51.0242 33.9669 50.9238 33.9631 50.9016 33.9687L50.8569 33.9798L50.8532 35.6757L50.8476 37.37H50.0211H49.1944L49.1851 35.5587L49.1758 33.7495L49.1107 33.7326C49.044 33.7159 48.9418 33.69 48.8415 33.6622C48.7411 33.6343 48.2469 33.4782 48.2098 33.4615C48.1894 33.4522 48.1021 33.417 48.0147 33.3853C47.7826 33.2961 47.1808 32.999 46.9466 32.8558C46.3615 32.5011 45.9212 32.1463 45.4233 31.6373C44.9645 31.1655 44.5801 30.6676 44.2995 30.181C44.0321 29.7185 43.8407 29.3301 43.707 28.9735C43.6827 28.9121 43.6567 28.8454 43.6475 28.8248C43.6197 28.7599 43.4672 28.2898 43.4357 28.1746C43.419 28.1134 43.3967 28.0335 43.3856 27.9983C43.3763 27.9628 43.3613 27.8998 43.3521 27.8588C43.3428 27.818 43.3261 27.7473 43.315 27.701C43.1329 26.9245 43.0121 25.6855 43.0438 24.907C43.0698 24.2774 43.0735 24.1957 43.0921 23.995C43.1106 23.8036 43.1683 23.3652 43.2054 23.1312C43.2221 23.0309 43.2425 22.9176 43.276 22.7447C43.3094 22.5795 43.3168 22.5461 43.3354 22.4718C43.3465 22.431 43.3632 22.3659 43.3726 22.3269C43.4079 22.1838 43.4264 22.1133 43.4915 21.8959C43.562 21.6599 43.6234 21.4742 43.6493 21.4129C43.6567 21.3925 43.6734 21.3461 43.6864 21.3107C43.7144 21.2291 43.7293 21.1937 43.7775 21.0841C43.7997 21.0358 43.8166 20.9911 43.8166 20.9874C43.8166 20.9596 44.1137 20.3465 44.2214 20.1497C44.7956 19.1094 45.6742 18.0952 46.6122 17.3874C46.7925 17.2518 47.2327 16.9583 47.3738 16.8784C47.4463 16.8394 47.53 16.7911 47.5597 16.7744C47.6693 16.7094 48.1931 16.4512 48.3213 16.3973C48.3938 16.3694 48.4848 16.3304 48.5256 16.3118C48.6334 16.2654 48.9659 16.1447 49.0922 16.1038L49.1758 16.0778L49.1795 14.222C49.1832 13.2021 49.1888 12.3551 49.1944 12.3421C49.1999 12.3235 49.3765 12.3198 50.0248 12.3235L50.8476 12.3291L50.8532 14.0195ZM53.2812 19.4624C53.6026 19.4828 54.2044 19.5608 54.3698 19.6036C54.4069 19.6129 54.4588 19.6203 54.485 19.6203C54.5109 19.6203 54.5517 19.6277 54.576 19.637C54.6001 19.6463 54.6688 19.6649 54.7301 19.676C54.8564 19.702 55.2223 19.806 55.4174 19.8711L55.5474 19.9138L55.5532 21.0674C55.555 21.7583 55.5493 22.221 55.54 22.221C55.5307 22.221 55.4118 22.1634 55.2744 22.0946C55.1389 22.0241 54.9772 21.9479 54.916 21.9256C54.8546 21.9015 54.7876 21.8754 54.7672 21.8661C54.7005 21.8383 54.3976 21.7417 54.275 21.7101C54.026 21.6469 54.0299 21.6487 53.7178 21.5913C53.623 21.5746 53.4557 21.5542 53.0954 21.5187C52.6978 21.4779 52.122 21.4965 51.7393 21.5616C51.3437 21.6302 50.9183 21.7919 50.6006 21.9926C50.0916 22.3158 49.6439 22.8414 49.3913 23.4136C49.3691 23.4619 49.3524 23.514 49.3524 23.5288C49.3524 23.5436 49.3448 23.5603 49.3355 23.5659C49.3262 23.5715 49.3151 23.5956 49.3095 23.6178C49.304 23.6421 49.278 23.7313 49.252 23.8185C49.0384 24.5059 49.0273 25.5387 49.224 26.3022C49.4583 27.2088 49.9745 27.8645 50.7362 28.2304C50.8979 28.3085 51.1801 28.4107 51.2934 28.4329C51.3252 28.4385 51.403 28.4552 51.47 28.47C51.717 28.524 52.0031 28.5425 52.3952 28.5314C52.9207 28.5166 53.2458 28.4589 53.5227 28.3289L53.5691 28.3085V27.27V26.2335L52.4972 26.2298L51.4236 26.2241V25.2395V24.255H53.7271H56.0305L56.0361 27.0137L56.0398 29.7741L55.7909 29.8985C55.6533 29.9673 55.5363 30.023 55.5307 30.023C55.5251 30.023 55.4788 30.0398 55.4304 30.0621C55.3822 30.0843 55.3263 30.1085 55.306 30.1177C55.2223 30.155 54.9067 30.2646 54.7765 30.3017C54.7005 30.3239 54.6168 30.3499 54.5909 30.3573C54.5647 30.3668 54.4701 30.3909 54.3772 30.4131C54.2862 30.4335 54.1803 30.4595 54.1451 30.4688C54.0837 30.4838 53.6193 30.5617 53.3647 30.599C53.0565 30.6435 52.696 30.662 52.1202 30.662C51.4123 30.662 51.1783 30.6435 50.634 30.5394C50.3145 30.4782 49.9022 30.3723 49.7889 30.3202C49.7683 30.311 49.7127 30.2906 49.6643 30.2757C49.3077 30.1606 48.6798 29.8075 48.3213 29.5215C47.9406 29.2168 47.4946 28.7059 47.242 28.2861C47.058 27.9797 46.8333 27.4818 46.7665 27.2366C46.7572 27.2012 46.7424 27.1456 46.7329 27.1159C46.694 26.9857 46.6736 26.906 46.6569 26.8316C46.5918 26.5343 46.5844 26.4806 46.5306 26.0755C46.4989 25.8304 46.4915 25.6798 46.4915 25.221C46.4915 24.6007 46.5156 24.3498 46.6196 23.8185C46.6532 23.6477 46.668 23.5863 46.7348 23.3578C46.7461 23.3207 46.7591 23.2668 46.7646 23.2371C46.7702 23.2093 46.7813 23.1813 46.7906 23.1757C46.7999 23.1701 46.8073 23.1535 46.8073 23.1368C46.8073 23.0568 47.0879 22.4402 47.2475 22.1708C47.476 21.7845 47.6804 21.5187 48.0333 21.1566C48.4867 20.6885 48.8952 20.3875 49.4544 20.1033C49.6087 20.0271 49.7702 19.9491 49.8167 19.9305C49.8631 19.9119 49.9171 19.8878 49.9375 19.8785C50.0118 19.8451 50.6006 19.6574 50.634 19.6574C50.6546 19.6574 50.688 19.65 50.7121 19.6407C50.7362 19.6314 50.805 19.6147 50.8662 19.6017C50.9276 19.5906 51.0112 19.5738 51.052 19.5645C51.2582 19.5218 51.641 19.4754 51.9158 19.4605C52.0439 19.4549 52.1517 19.4438 52.1572 19.4401C52.1665 19.4289 53.0509 19.4475 53.2812 19.4624Z" fill="white"/>
</svg>
