<svg width="200" height="50" viewBox="0 0 200 50" fill="none" xmlns="http://www.w3.org/2000/svg">
<g clip-path="url(#clip0_2237_10009)">
<path d="M73.3783 20.7602C73.5636 21.0452 73.6491 21.3445 73.6491 21.6723C73.6491 22.0713 73.5351 22.4276 73.2928 22.6984C73.0505 22.9834 72.737 23.1259 72.338 23.1259C71.9959 23.1259 71.7109 23.0119 71.4686 22.7981C71.2263 22.5844 71.1123 22.2993 71.1123 21.9288C71.1123 21.43 71.3689 21.0024 71.8962 20.6746C71.7964 20.5321 71.6254 20.4466 71.4116 20.4466C70.7988 20.4466 70.2572 20.6746 69.7727 21.1449C69.2881 21.6153 68.9033 22.1853 68.6183 22.8694C68.3333 23.5535 68.1907 24.1948 68.1907 24.7934V29.6817C68.1907 30.3943 68.3903 30.8931 68.8036 31.1639C69.2026 31.4346 69.8154 31.5771 70.642 31.5771V32.0617C68.7465 32.0047 67.5637 31.9762 67.0934 31.9762C66.6801 31.9762 65.7822 32.0047 64.3713 32.0617V31.5771C64.7989 31.5771 65.1551 31.5344 65.3974 31.4346C65.6539 31.3349 65.825 31.1639 65.9532 30.9358C66.0672 30.6935 66.1243 30.3658 66.1243 29.9382V22.6984C66.1243 21.9858 65.996 21.4727 65.7395 21.1449C65.4829 20.8172 65.0269 20.6604 64.3713 20.6604V20.1758C64.8559 20.2186 65.3262 20.2471 65.7965 20.2471C66.7656 20.2471 67.5779 20.1473 68.1907 19.9336V22.8124C68.3618 22.3278 68.6183 21.8718 68.9318 21.4157C69.2596 20.9597 69.6444 20.5891 70.1005 20.3041C70.5565 20.0048 71.0268 19.8623 71.5256 19.8623C71.9247 19.8623 72.2952 19.9478 72.6087 20.1046C72.9365 20.2613 73.1931 20.4751 73.3783 20.7602ZM81.6728 20.1758V20.6319C82.2714 20.6746 82.7132 20.7744 82.9839 20.9454C83.2547 21.1164 83.3972 21.3872 83.3972 21.7435C83.3972 22 83.3117 22.3563 83.155 22.7981L80.6039 29.4822L77.8248 22.5844C77.6253 22.0998 77.5256 21.7293 77.5256 21.4442C77.5256 21.202 77.5968 21.0167 77.7393 20.9027C77.8819 20.7887 78.0529 20.7174 78.2666 20.6889C78.4804 20.6604 78.7654 20.6461 79.1502 20.6461V20.1758C77.8106 20.2756 76.813 20.3184 76.1574 20.3184C75.3736 20.3184 74.6182 20.2756 73.8914 20.1758V20.6604C74.1479 20.6604 74.4187 20.7459 74.6752 20.9027C74.9318 21.0737 75.1883 21.4157 75.4591 21.943L79.6491 32.0047L78.8225 34.1139C78.3664 35.3111 77.7108 35.9096 76.8557 35.9096C76.7987 35.9096 76.756 35.8954 76.7132 35.8811C77.1265 35.6531 77.326 35.2968 77.326 34.8408C77.326 34.4987 77.212 34.228 76.9983 34.0427C76.7702 33.8574 76.4994 33.7577 76.1574 33.7577C75.7726 33.7577 75.4733 33.8717 75.2596 34.0854C75.0458 34.3135 74.9318 34.5985 74.9318 34.969C74.9318 35.4108 75.0743 35.7386 75.3736 35.9952C75.6729 36.2374 76.0434 36.3657 76.4994 36.3657C77.269 36.3657 77.8676 36.1662 78.3094 35.7671C78.6799 35.4393 79.0077 34.8978 79.2928 34.1424L80.0766 32.133L83.8675 22.2566C84.0813 21.6865 84.3093 21.2875 84.5374 21.0452C84.7796 20.8029 85.0504 20.6604 85.364 20.6319V20.1758C84.8794 20.2186 84.2951 20.2471 83.611 20.2471C83.1265 20.2328 82.4851 20.2186 81.6728 20.1758ZM97.3353 22.4846C97.7059 23.354 97.8912 24.3801 97.8912 25.5772C97.8912 26.7601 97.7059 27.8575 97.3211 28.8978C96.9363 29.9382 96.3662 30.7648 95.5681 31.4061C94.77 32.0475 93.7867 32.3752 92.6038 32.3752C92.0195 32.3752 91.4922 32.2612 91.0076 32.0332C90.5373 31.8052 90.1668 31.5059 89.896 31.1211V34.0712C89.896 34.6983 90.0813 35.1258 90.4518 35.3681C90.8223 35.6104 91.3782 35.7386 92.1192 35.7386V36.2232C91.9197 36.2089 91.4922 36.1947 90.8081 36.1662C90.124 36.1377 89.4542 36.1234 88.7986 36.1234C88.314 36.1234 87.801 36.1377 87.2879 36.1662C86.7749 36.1947 86.4471 36.2089 86.3046 36.2232V35.7386C86.8746 35.7386 87.2594 35.6389 87.4875 35.4251C87.7155 35.2113 87.8295 34.8408 87.8295 34.2992V22.6984C87.8295 21.9858 87.7012 21.4727 87.4447 21.1449C87.1882 20.8172 86.7321 20.6604 86.0765 20.6604V20.1758C86.5611 20.2186 87.0314 20.2471 87.5017 20.2471C88.4708 20.2471 89.2832 20.1473 89.896 19.9336V22.3706C90.238 21.5725 90.7368 20.9597 91.3782 20.5321C92.0195 20.0903 92.7606 19.8766 93.5872 19.8766C94.3995 19.8766 95.1406 20.1046 95.7819 20.5464C96.4517 20.9597 96.9648 21.6153 97.3353 22.4846ZM95.6536 25.8907C95.6536 22.3278 94.7558 20.5464 92.9743 20.5464C92.276 20.5464 91.6489 20.8029 91.0931 21.3017C90.5373 21.8005 90.1383 22.5274 89.9102 23.468V30.3658C90.1383 30.8218 90.4518 31.1924 90.8651 31.4489C91.2784 31.7197 91.7772 31.8479 92.3473 31.8479C94.5563 31.8479 95.6536 29.867 95.6536 25.8907ZM106.072 30.9643C105.73 31.3491 105.331 31.5344 104.846 31.5344C104.361 31.5344 103.991 31.3776 103.749 31.0783C103.506 30.7791 103.378 30.266 103.378 29.5819V20.6604H106.784V20.1901H103.378V16.3421C102.865 16.5417 102.167 16.6414 101.312 16.6699V20.1901H99.0883V20.6461H101.312V28.3705C101.312 29.2114 101.383 29.867 101.511 30.3515C101.639 30.8503 101.882 31.2636 102.209 31.5914C102.466 31.8479 102.765 32.0475 103.107 32.1757C103.449 32.304 103.877 32.361 104.39 32.361C106.015 32.361 107.012 31.2921 107.383 29.1686L106.927 29.0546C106.699 29.9525 106.414 30.5938 106.072 30.9643ZM118.485 22.5844C118.941 23.525 119.169 24.6936 119.169 26.133C119.169 27.5582 118.941 28.7411 118.485 29.6674C118.029 30.5938 117.416 31.2779 116.632 31.7197C115.848 32.1615 114.95 32.3752 113.938 32.3752C112.927 32.3752 112.029 32.1615 111.245 31.7197C110.461 31.2779 109.848 30.5938 109.392 29.6674C108.936 28.7411 108.708 27.5582 108.708 26.133C108.708 24.7079 108.936 23.525 109.392 22.5844C109.848 21.658 110.461 20.9597 111.245 20.5179C112.029 20.0761 112.927 19.8481 113.938 19.8481C114.95 19.8481 115.848 20.0761 116.632 20.5179C117.402 20.9597 118.029 21.658 118.485 22.5844ZM116.917 26.133C116.917 24.152 116.646 22.6841 116.105 21.7435C115.563 20.8029 114.836 20.3326 113.91 20.3326C112.984 20.3326 112.257 20.8029 111.715 21.7435C111.174 22.6841 110.903 24.152 110.903 26.133C110.903 28.114 111.174 29.5677 111.715 30.5083C112.257 31.4489 112.984 31.9192 113.91 31.9192C114.836 31.9192 115.563 31.4489 116.105 30.5083C116.646 29.5534 116.917 28.0997 116.917 26.133ZM12.3956 28.6983C12.1818 28.9406 11.9253 29.0546 11.626 29.0546C11.3267 29.0546 11.0987 28.9548 10.9419 28.7696C10.7851 28.5843 10.7139 28.2708 10.7139 27.8432V22.2993H12.8374V22.0143H10.7139V19.62C10.3861 19.7483 9.95855 19.8053 9.43124 19.8195V22.0143H8.04883V22.2993H9.43124V27.1021C9.43124 27.6152 9.47399 28.0285 9.5595 28.342C9.64501 28.6556 9.78753 28.9121 9.98705 29.1116C10.1581 29.2684 10.3291 29.3966 10.5429 29.4679C10.7566 29.5392 11.0132 29.5819 11.341 29.5819C12.3528 29.5819 12.9656 28.9263 13.2079 27.6009L12.9229 27.5297C12.7804 28.0712 12.5951 28.4703 12.3956 28.6983ZM20.291 28.6698C20.2197 28.5273 20.177 28.3135 20.177 28.0427V24.2233C20.177 23.7387 20.1342 23.354 20.063 23.0689C19.9917 22.7839 19.8634 22.5416 19.6782 22.3421C19.3361 21.9858 18.8231 21.8005 18.1532 21.8005C17.6259 21.8005 17.1414 21.9288 16.7138 22.1996C16.2863 22.4704 15.9585 22.8979 15.7162 23.5107V18.1521C15.3457 18.2946 14.8469 18.3516 14.2198 18.3516C13.9348 18.3516 13.6355 18.3374 13.3362 18.3089V18.6082C13.7495 18.6082 14.0203 18.7079 14.1913 18.9074C14.3481 19.107 14.4336 19.4205 14.4336 19.8623V28.0285C14.4336 28.2993 14.3908 28.4988 14.3195 28.6556C14.2483 28.7981 14.1343 28.9121 13.9775 28.9691C13.8207 29.0261 13.607 29.0546 13.3362 29.0546V29.3539C14.2055 29.3111 14.7899 29.2969 15.0606 29.2969C15.3314 29.2969 15.8587 29.3111 16.6568 29.3539V29.0546C16.4145 29.0546 16.2293 29.0261 16.101 28.9691C15.9727 28.9263 15.873 28.8123 15.816 28.6698C15.759 28.5273 15.7162 28.3135 15.7162 28.0427V24.8504C15.7162 24.3516 15.8017 23.9098 15.9727 23.5107C16.1438 23.1117 16.386 22.8124 16.6853 22.5844C16.9989 22.3706 17.3409 22.2566 17.7257 22.2566C18.0535 22.2566 18.2958 22.3278 18.4668 22.4704C18.6378 22.6129 18.7518 22.7981 18.8088 23.0404C18.8658 23.2684 18.8943 23.5677 18.8943 23.9098V28.0427C18.8943 28.3135 18.8658 28.513 18.7946 28.6698C18.7233 28.8123 18.6378 28.9263 18.4953 28.9834C18.3528 29.0404 18.1675 29.0689 17.9395 29.0689V29.3681C18.7376 29.3254 19.2791 29.3111 19.5499 29.3111C19.8064 29.3111 20.3765 29.3254 21.2743 29.3681V29.0689C21.0036 29.0689 20.7898 29.0404 20.633 28.9834C20.4763 28.9263 20.3622 28.8123 20.291 28.6698ZM27.8158 27.5439L28.1009 27.6579C27.9869 27.9857 27.8158 28.3135 27.5593 28.5986C27.317 28.8978 27.0178 29.1259 26.6472 29.3111C26.2767 29.4964 25.8776 29.5819 25.4216 29.5819C24.7375 29.5819 24.1532 29.4252 23.6544 29.1116C23.1556 28.7981 22.785 28.3705 22.5142 27.8005C22.2577 27.2447 22.1294 26.5891 22.1294 25.8622C22.1294 25.0356 22.2577 24.3088 22.5285 23.696C22.7993 23.0832 23.1698 22.6129 23.6544 22.2851C24.1389 21.9573 24.709 21.7863 25.3646 21.7863C26.2197 21.7863 26.8895 22.0428 27.3455 22.5701C27.8158 23.0974 28.0439 23.8813 28.0439 24.9359H23.5689C23.5404 25.1782 23.5261 25.4917 23.5261 25.848C23.5261 26.4751 23.6259 27.0309 23.8396 27.5012C24.0534 27.9715 24.3242 28.3278 24.652 28.5843C24.994 28.8408 25.3361 28.9691 25.7209 28.9691C26.6757 28.9691 27.374 28.4988 27.8158 27.5439ZM23.5546 24.6794H26.6757C26.69 24.2091 26.6472 23.7673 26.5617 23.3682C26.4619 22.9692 26.3052 22.6556 26.0914 22.4276C25.8776 22.1996 25.6211 22.0856 25.3218 22.0856C25.0225 22.0856 24.7517 22.1853 24.5095 22.3706C24.2672 22.5559 24.0534 22.8551 23.8824 23.2399C23.7114 23.6105 23.5974 24.095 23.5546 24.6794ZM131.468 30.9073C131.354 30.665 131.297 30.3373 131.297 29.9097V23.753C131.297 22.9692 131.24 22.3563 131.112 21.886C130.983 21.4157 130.784 21.0309 130.499 20.7174C129.943 20.1473 129.131 19.8481 128.048 19.8481C127.178 19.8481 126.409 20.0618 125.725 20.5036C125.041 20.9454 124.499 21.6438 124.114 22.6271V19.9193C123.487 20.1331 122.689 20.2328 121.72 20.2328C121.25 20.2328 120.765 20.2043 120.295 20.1616V20.6461C120.95 20.6461 121.406 20.8029 121.663 21.1307C121.919 21.4585 122.048 21.9715 122.048 22.6841V29.8955C122.048 30.323 121.991 30.6508 121.877 30.8931C121.763 31.1353 121.577 31.3064 121.321 31.3919C121.064 31.4916 120.722 31.5344 120.295 31.5344V32.0189C121.706 31.9619 122.632 31.9334 123.06 31.9334C123.501 31.9334 124.356 31.9619 125.653 32.0189V31.5344C125.269 31.5344 124.969 31.4916 124.755 31.3919C124.542 31.2921 124.371 31.1211 124.271 30.8931C124.171 30.6508 124.114 30.323 124.114 29.8955V24.7934C124.114 24.0095 124.257 23.2969 124.513 22.6556C124.784 22.0143 125.169 21.5155 125.653 21.1449C126.152 20.7744 126.708 20.5891 127.335 20.5891C127.862 20.5891 128.261 20.7031 128.532 20.9312C128.803 21.1592 128.988 21.4727 129.074 21.8433C129.159 22.2138 129.202 22.6841 129.202 23.2399V29.9097C129.202 30.3373 129.145 30.665 129.045 30.9073C128.945 31.1496 128.789 31.3206 128.575 31.4061C128.361 31.5059 128.062 31.5486 127.677 31.5486V32.0332C128.974 31.9762 129.829 31.9477 130.257 31.9477C130.698 31.9477 131.611 31.9762 133.021 32.0332V31.5486C132.58 31.5486 132.238 31.5059 131.995 31.4061C131.767 31.3206 131.582 31.1496 131.468 30.9073ZM144.266 22.5844C144.722 23.525 144.95 24.6936 144.95 26.133C144.95 27.5582 144.722 28.7411 144.266 29.6674C143.81 30.5938 143.197 31.2779 142.413 31.7197C141.629 32.1615 140.732 32.3752 139.72 32.3752C138.708 32.3752 137.81 32.1615 137.026 31.7197C136.242 31.2779 135.629 30.5938 135.173 29.6674C134.717 28.7411 134.489 27.5582 134.489 26.133C134.489 24.7079 134.717 23.525 135.173 22.5844C135.629 21.658 136.242 20.9597 137.026 20.5179C137.81 20.0761 138.708 19.8481 139.72 19.8481C140.732 19.8481 141.629 20.0761 142.413 20.5179C143.197 20.9597 143.81 21.658 144.266 22.5844ZM142.713 26.133C142.713 24.152 142.442 22.6841 141.9 21.7435C141.359 20.8029 140.632 20.3326 139.705 20.3326C138.779 20.3326 138.052 20.8029 137.511 21.7435C136.969 22.6841 136.698 24.152 136.698 26.133C136.698 28.114 136.969 29.5677 137.511 30.5083C138.052 31.4489 138.779 31.9192 139.705 31.9192C140.632 31.9192 141.359 31.4489 141.9 30.5083C142.442 29.5534 142.713 28.0997 142.713 26.133ZM164.575 30.9073C164.461 30.665 164.404 30.3373 164.404 29.9097V23.753C164.404 22.9977 164.347 22.3848 164.233 21.9003C164.118 21.43 163.919 21.0309 163.648 20.7174C163.092 20.1473 162.294 19.8481 161.254 19.8481C160.427 19.8481 159.672 20.0618 159.002 20.4894C158.332 20.9169 157.791 21.6153 157.42 22.5844C157.335 21.772 157.092 21.1449 156.708 20.7317C156.152 20.1616 155.354 19.8623 154.313 19.8623C153.515 19.8623 152.774 20.0903 152.104 20.5464C151.435 21.0024 150.907 21.7008 150.522 22.6414V19.9336C149.895 20.1473 149.097 20.2471 148.128 20.2471C147.658 20.2471 147.173 20.2186 146.703 20.1758V20.6604C147.359 20.6604 147.815 20.8172 148.071 21.1449C148.328 21.4727 148.456 21.9858 148.456 22.6984V29.9097C148.456 30.3373 148.399 30.665 148.285 30.9073C148.171 31.1496 147.986 31.3206 147.729 31.4061C147.473 31.5059 147.131 31.5486 146.703 31.5486V32.0332C148.114 31.9762 149.04 31.9477 149.468 31.9477C149.91 31.9477 150.765 31.9762 152.062 32.0332V31.5486C151.677 31.5486 151.378 31.5059 151.164 31.4061C150.95 31.3064 150.793 31.1353 150.679 30.9073C150.579 30.665 150.522 30.3373 150.522 29.9097V24.7934C150.522 24.0238 150.665 23.3112 150.936 22.6699C151.207 22.0286 151.577 21.5155 152.047 21.1449C152.518 20.7744 153.059 20.5891 153.644 20.5891C154.157 20.5891 154.541 20.7031 154.798 20.9312C155.054 21.1592 155.211 21.4585 155.282 21.8148C155.354 22.1853 155.382 22.6556 155.382 23.2399V29.9097C155.382 30.3373 155.339 30.665 155.24 30.9073C155.14 31.1496 154.983 31.3206 154.769 31.4061C154.556 31.5059 154.256 31.5486 153.872 31.5486V32.0332C155.154 31.9762 156.024 31.9477 156.465 31.9477C156.893 31.9477 157.819 31.9762 159.216 32.0332V31.5486C158.788 31.5486 158.446 31.5059 158.19 31.4061C157.948 31.3064 157.762 31.1353 157.648 30.9073C157.534 30.665 157.477 30.3373 157.477 29.9097V24.7649C157.477 23.9953 157.606 23.2827 157.876 22.6556C158.147 22.0286 158.518 21.5155 158.988 21.1449C159.458 20.7744 159.986 20.5891 160.57 20.5891C161.097 20.5891 161.482 20.7031 161.738 20.9312C161.995 21.1592 162.152 21.4585 162.223 21.8148C162.294 22.1853 162.323 22.6556 162.323 23.2399V29.9097C162.323 30.3373 162.266 30.665 162.166 30.9073C162.066 31.1496 161.91 31.3206 161.696 31.4061C161.482 31.5059 161.183 31.5486 160.798 31.5486V32.0332C162.095 31.9762 162.95 31.9477 163.377 31.9477C163.805 31.9477 164.731 31.9762 166.142 32.0332V31.5486C165.7 31.5486 165.358 31.5059 165.116 31.4061C164.874 31.3206 164.689 31.1496 164.575 30.9073ZM171.173 30.9073C171.059 30.665 171.002 30.3373 171.002 29.9097V19.9193C170.375 20.1331 169.577 20.2328 168.608 20.2328C168.137 20.2328 167.653 20.2043 167.183 20.1616V20.6461C167.838 20.6461 168.294 20.8029 168.551 21.1307C168.807 21.4585 168.936 21.9715 168.936 22.6841V29.8955C168.936 30.323 168.879 30.6508 168.765 30.8931C168.651 31.1353 168.465 31.3064 168.209 31.3919C167.952 31.4916 167.61 31.5344 167.183 31.5344V32.0189C168.594 31.9619 169.52 31.9334 169.976 31.9334C170.432 31.9334 171.358 31.9619 172.769 32.0189V31.5344C172.327 31.5344 171.985 31.4916 171.743 31.3919C171.472 31.3206 171.287 31.1496 171.173 30.9073ZM169.078 17.1545C169.306 17.2828 169.548 17.354 169.819 17.354C170.076 17.354 170.332 17.297 170.546 17.1545C170.774 17.0262 170.959 16.841 171.088 16.6129C171.216 16.3849 171.287 16.1426 171.287 15.8718C171.287 15.6153 171.216 15.3588 171.088 15.145C170.959 14.917 170.774 14.746 170.546 14.6034C170.318 14.4752 170.076 14.4039 169.819 14.4039C169.563 14.4039 169.306 14.4752 169.078 14.6034C168.85 14.746 168.665 14.917 168.537 15.145C168.408 15.373 168.337 15.6153 168.337 15.8718C168.337 16.1284 168.408 16.3849 168.537 16.6129C168.665 16.8552 168.85 17.0262 169.078 17.1545ZM181.021 26.3325C180.593 25.9763 180.023 25.563 179.311 25.1069C179.097 24.9644 178.726 24.7364 178.213 24.4086C177.7 24.0808 177.259 23.753 176.902 23.3967C176.546 23.0404 176.361 22.5986 176.361 22.0571C176.361 21.5012 176.532 21.0737 176.888 20.7602C177.244 20.4466 177.7 20.2899 178.256 20.2899C179.211 20.2899 179.924 20.6176 180.422 21.2875C180.907 21.943 181.235 22.7839 181.406 23.7958H181.919C181.919 21.9288 181.947 20.6319 182.004 19.8766H181.477C181.406 20.5464 181.235 20.8884 180.964 20.8884C180.864 20.8884 180.722 20.8314 180.565 20.7031C180.294 20.4894 179.938 20.2899 179.51 20.1188C179.083 19.9478 178.598 19.8623 178.057 19.8623C177.43 19.8623 176.859 19.9763 176.332 20.1901C175.819 20.4039 175.406 20.7459 175.107 21.1877C174.793 21.6295 174.65 22.1853 174.65 22.8409C174.65 23.4395 174.793 23.9668 175.064 24.4086C175.335 24.8504 175.677 25.2352 176.076 25.5345C176.475 25.848 177.059 26.2328 177.814 26.7173C178.441 27.1021 178.926 27.4299 179.268 27.7007C179.61 27.9715 179.895 28.2708 180.109 28.5986C180.323 28.9406 180.422 29.3111 180.422 29.7244C180.422 30.2375 180.323 30.665 180.123 30.9928C179.924 31.3206 179.667 31.5486 179.354 31.7054C179.04 31.8479 178.712 31.9192 178.384 31.9192C177.643 31.9192 177.059 31.7482 176.631 31.4061C176.19 31.0641 175.876 30.5795 175.662 29.9667C175.449 29.3539 175.292 28.5701 175.178 27.6152H174.65C174.65 29.8099 174.622 31.3349 174.565 32.2185H175.092C175.178 31.6342 175.335 31.3491 175.563 31.3491C175.648 31.3491 175.719 31.3776 175.776 31.4346C176.104 31.6912 176.418 31.9049 176.717 32.0475C177.244 32.2612 177.857 32.3752 178.541 32.3752C179.254 32.3752 179.909 32.247 180.508 32.0047C181.106 31.7482 181.591 31.3919 181.947 30.9073C182.304 30.4228 182.489 29.8384 182.489 29.1544C182.489 28.5558 182.361 28.0285 182.09 27.5724C181.805 27.1021 181.449 26.6888 181.021 26.3325ZM191.496 29.0831C191.268 29.9667 190.983 30.5938 190.641 30.9786C190.299 31.3634 189.9 31.5486 189.415 31.5486C188.931 31.5486 188.56 31.3919 188.318 31.0926C188.076 30.7933 187.947 30.2803 187.947 29.5962V20.6604H191.353V20.1901H187.947V16.3421C187.434 16.5417 186.736 16.6414 185.881 16.6699V20.1901H183.658V20.6461H185.881V28.3705C185.881 29.2114 185.952 29.867 186.08 30.3515C186.209 30.8503 186.451 31.2636 186.779 31.5914C187.035 31.8479 187.349 32.0475 187.676 32.1757C188.019 32.304 188.446 32.361 188.959 32.361C190.584 32.361 191.581 31.2921 191.952 29.1686L191.496 29.0831ZM62.1765 32.2185C59.882 35.7956 55.9343 38.2184 51.4166 38.4037C43.6352 38.703 37.2077 32.2755 37.5212 24.4941C37.7065 19.6628 40.4713 15.487 44.476 13.2923C44.647 13.1925 44.8038 13.4206 44.6613 13.5488C41.5544 16.3849 39.8585 20.7602 40.7848 25.4774C41.1696 27.4584 42.039 29.2684 43.2504 30.7933C43.6209 30.1092 44.3477 29.2541 44.362 28.1283C44.3905 24.9786 44.3905 21.8433 44.3763 18.6937C44.3763 18.1664 44.5188 17.7958 44.9321 17.4538C47.2551 15.5441 49.5496 13.6058 51.8726 11.7104C52.0436 11.5678 52.4427 11.5393 52.6422 11.6534C54.2099 12.537 60.3096 14.6034 60.9794 14.6747C61.0934 14.689 61.2929 14.86 61.0649 15.0595C61.0649 15.0595 59.255 16.8695 58.2716 17.8671C58.1006 18.0381 57.8868 17.9953 57.7158 17.9383C56.7182 17.5963 55.1932 16.9692 53.8393 16.4277V24.5083H54.8512V25.5202H53.7966V35.5391C56.9462 35.3823 59.8108 34.0854 61.9343 32.0332C62.0768 31.8764 62.2763 32.0475 62.1765 32.2185ZM50.1054 25.4917H48.2527C47.8964 26.9881 47.1268 28.228 45.9154 29.3539C45.5164 29.7244 44.5045 30.6935 44.0057 31.1781C43.8917 31.2921 43.8774 31.4774 43.9772 31.6057C44.02 31.6484 44.0627 31.6912 44.1055 31.7339C44.191 31.8194 44.2765 31.9049 44.3477 31.9762C44.4903 32.1187 44.647 32.2612 44.8038 32.3895C44.8893 32.4608 44.9748 32.532 45.0603 32.6033C45.1601 32.6888 45.2599 32.7743 45.3596 32.8455C46.2147 33.5011 47.1981 34.0712 48.1814 34.4987C48.7515 34.741 49.3501 34.9405 49.9629 35.0973C50.0342 35.083 50.1054 35.0118 50.1054 34.9263V25.4917ZM50.1197 15.1878C50.1197 15.031 49.9629 14.9597 49.8204 15.0452C49.8204 15.0452 49.5496 15.2163 49.4071 15.2875C48.6945 15.7151 48.4237 16.3849 48.4522 17.24L48.4807 23.2257C48.495 23.6675 48.4665 24.0665 48.4095 24.4798H50.0912L50.1197 15.1878ZM52.7562 25.4917H51.1315C51.1315 28.5986 51.1315 31.6912 51.1173 34.5272C51.1173 35.0973 51.2455 35.3538 51.8014 35.4536C52.1291 35.4821 52.4427 35.5106 52.7562 35.5248V25.4917ZM52.7562 15.9859C52.4427 15.8576 52.1434 15.7578 51.8869 15.6581C51.8299 15.6438 51.6873 15.5868 51.6303 15.5726C51.2313 15.4443 51.1173 15.6296 51.1173 15.8433C51.1173 15.9859 51.1173 16.1141 51.1173 16.2424C51.1173 18.8219 51.1173 21.6295 51.1173 24.4656H52.742V15.9859H52.7562Z" fill="white"/>
</g>
<defs>
<clipPath id="clip0_2237_10009">
<rect width="183.903" height="26.8358" fill="white" transform="translate(8.04883 11.582)"/>
</clipPath>
</defs>
</svg>
