<svg width="200" height="50" viewBox="0 0 200 50" fill="none" xmlns="http://www.w3.org/2000/svg">
<g clip-path="url(#clip0_2993_1929)">
<path fill-rule="evenodd" clip-rule="evenodd" d="M124.481 27.2032C123.62 27.2032 122.923 27.8995 122.923 28.7589C122.923 29.618 123.62 30.3144 124.481 30.3144C125.342 30.3144 126.04 29.618 126.04 28.7589C126.04 27.8995 125.342 27.2032 124.481 27.2032ZM174.751 26.0197C174.586 25.6514 174.348 25.3321 174.04 25.0614C173.731 24.7909 173.362 24.5653 172.933 24.3851C172.503 24.2047 172.018 24.0546 171.475 23.9342C170.602 23.7239 169.957 23.5246 169.543 23.3368C169.129 23.149 168.922 22.8897 168.922 22.5589C168.922 22.2883 169.047 22.0594 169.295 21.871C169.543 21.6835 169.984 21.5893 170.617 21.5893C171.25 21.5893 171.799 21.676 172.266 21.8488C172.732 22.0216 173.11 22.2134 173.395 22.4237L174.774 20.5523C174.247 20.1616 173.656 19.8687 173 19.6732C172.345 19.4779 171.55 19.38 170.617 19.38C170.089 19.38 169.566 19.4554 169.047 19.6054C168.527 19.756 168.06 19.97 167.646 20.248C167.232 20.5261 166.897 20.872 166.641 21.2852C166.384 21.6985 166.257 22.1681 166.257 22.6942C166.257 23.2053 166.366 23.645 166.584 24.0131C166.802 24.3817 167.081 24.6973 167.42 24.9601C167.759 25.223 168.124 25.4299 168.516 25.5799C168.907 25.7305 169.284 25.8506 169.645 25.9405C170.233 26.0761 170.7 26.2039 171.046 26.3239C171.392 26.4443 171.664 26.5645 171.859 26.6846C172.055 26.8052 172.183 26.929 172.243 27.0568C172.303 27.1844 172.334 27.3238 172.334 27.4738C172.334 27.8199 172.16 28.0675 171.814 28.2178C171.468 28.3681 171.008 28.4433 170.436 28.4433C169.789 28.4433 169.212 28.3345 168.708 28.1165C168.203 27.8985 167.785 27.6241 167.454 27.2934L165.85 29.0296C166.332 29.5704 166.972 29.9803 167.77 30.2581C168.568 30.5361 169.465 30.6753 170.458 30.6753C171.076 30.6753 171.66 30.5965 172.21 30.4385C172.759 30.2808 173.241 30.0591 173.656 29.7733C174.07 29.4881 174.397 29.1386 174.638 28.7251C174.879 28.3117 175 27.8498 175 27.3386C175 26.8277 174.916 26.388 174.751 26.0197ZM163.184 19.7406L161.173 27.0904L158.914 19.7406H156.678L154.441 27.0904L152.408 19.7406H149.471L153.063 30.3144H155.548L157.649 23.9342L159.818 30.3144H162.394L165.985 19.7406H163.184ZM146.918 23.9117C146.918 23.6411 146.865 23.3704 146.76 23.1C146.655 22.8296 146.5 22.5854 146.297 22.3671C146.094 22.1496 145.834 21.9692 145.517 21.826C145.201 21.6835 144.84 21.612 144.433 21.612C143.996 21.612 143.608 21.6835 143.269 21.826C142.93 21.9692 142.648 22.1496 142.423 22.3671C142.196 22.5854 142.023 22.8296 141.903 23.1C141.782 23.3704 141.722 23.6411 141.722 23.9117H146.918ZM149.38 23.2352C149.561 23.9567 149.652 24.6934 149.652 25.4447V25.8279H141.745C141.745 26.2189 141.831 26.5719 142.004 26.8875C142.177 27.2035 142.403 27.4738 142.682 27.6993C142.961 27.9247 143.277 28.0975 143.631 28.2178C143.985 28.3382 144.335 28.3983 144.682 28.3983C145.193 28.3983 145.642 28.3496 146.026 28.2517C146.41 28.1541 146.737 28.0414 147.008 27.9133C147.28 27.7858 147.502 27.6505 147.675 27.5074C147.848 27.3651 147.98 27.2484 148.07 27.1582L149.516 28.7814C149.471 28.8264 149.347 28.9504 149.143 29.1534C148.94 29.3563 148.646 29.5704 148.262 29.7961C147.878 30.0215 147.388 30.2245 146.794 30.4046C146.199 30.5851 145.487 30.6753 144.659 30.6753C143.815 30.6753 143.047 30.5324 142.354 30.247C141.661 29.9614 141.07 29.5669 140.581 29.0632C140.092 28.5599 139.715 27.9551 139.452 27.2484C139.188 26.542 139.057 25.7604 139.057 24.9034C139.057 24.1221 139.188 23.3968 139.452 22.728C139.715 22.0594 140.084 21.4768 140.558 20.9807C141.033 20.4846 141.598 20.0941 142.253 19.8083C142.908 19.5231 143.635 19.38 144.433 19.38C145.397 19.38 146.214 19.5567 146.884 19.9096C147.554 20.2631 148.093 20.7253 148.5 21.2963C148.906 21.8676 149.2 22.5137 149.38 23.2352ZM133.815 19.5154C133.393 19.5154 133.017 19.5604 132.685 19.6507C132.354 19.7406 132.056 19.8573 131.793 19.9999C131.53 20.143 131.303 20.297 131.115 20.4621C130.927 20.6278 130.765 20.7854 130.63 20.9355L130.562 19.7406H128.009V30.3144H130.675V24.588C130.675 24.1975 130.738 23.8327 130.867 23.4945C130.994 23.1564 131.172 22.8598 131.398 22.6039C131.623 22.3486 131.895 22.1496 132.211 22.0065C132.527 21.8638 132.866 21.7924 133.228 21.7924C133.815 21.7924 134.293 21.9766 134.662 22.3446C135.031 22.7132 135.216 23.2352 135.216 23.9117V30.3144H137.881V23.8893C137.881 22.5515 137.535 21.4882 136.843 20.6989C136.15 19.9096 135.14 19.5154 133.815 19.5154ZM119.108 25.0164C119.108 24.6409 119.047 24.2536 118.927 23.8552C118.807 23.4572 118.622 23.0965 118.374 22.773C118.125 22.45 117.812 22.1869 117.436 21.984C117.059 21.781 116.615 21.6795 116.104 21.6795C115.591 21.6795 115.147 21.781 114.77 21.984C114.394 22.1869 114.081 22.45 113.833 22.773C113.584 23.0965 113.4 23.4572 113.279 23.8552C113.158 24.2536 113.098 24.6409 113.098 25.0164C113.098 25.4074 113.158 25.798 113.279 26.1888C113.4 26.5795 113.584 26.9404 113.833 27.2709C114.081 27.6016 114.394 27.8683 114.77 28.0713C115.147 28.2742 115.591 28.3756 116.104 28.3756C116.615 28.3756 117.059 28.2742 117.436 28.0713C117.812 27.8683 118.125 27.6016 118.374 27.2709C118.622 26.9404 118.807 26.5795 118.927 26.1888C119.047 25.798 119.108 25.4074 119.108 25.0164ZM121.378 22.8407C121.657 23.5246 121.796 24.2499 121.796 25.0164C121.796 25.7829 121.657 26.5084 121.378 27.1921C121.099 27.8763 120.712 28.4771 120.215 28.9954C119.718 29.5143 119.119 29.9239 118.419 30.2245C117.718 30.5248 116.947 30.6753 116.104 30.6753C115.259 30.6753 114.488 30.5248 113.788 30.2245C113.087 29.9239 112.489 29.5143 111.991 28.9954C111.494 28.4771 111.106 27.8763 110.828 27.1921C110.549 26.5084 110.41 25.7829 110.41 25.0164C110.41 24.2499 110.549 23.5246 110.828 22.8407C111.106 22.157 111.494 21.5593 111.991 21.0484C112.489 20.5375 113.087 20.1319 113.788 19.8308C114.488 19.5305 115.259 19.38 116.104 19.38C116.947 19.38 117.718 19.5305 118.419 19.8308C119.119 20.1319 119.718 20.5375 120.215 21.0484C120.712 21.5593 121.099 22.157 121.378 22.8407ZM108.46 28.2178C108.212 28.3382 107.877 28.3983 107.455 28.3983C107.003 28.3983 106.675 28.2369 106.472 27.9133C106.269 27.5905 106.168 27.1283 106.168 26.5269V21.9052H109.014V19.7406H106.168V16.3137H103.501V19.7406H101.694V21.9052H103.501V26.7073C103.501 27.2934 103.561 27.831 103.682 28.3192C103.803 28.8079 104.002 29.2249 104.281 29.5704C104.56 29.9164 104.925 30.1831 105.376 30.371C105.829 30.5589 106.378 30.6528 107.026 30.6528C107.659 30.6528 108.231 30.5589 108.743 30.371C109.255 30.1831 109.774 29.8712 110.302 29.4352L109.172 27.7892C108.946 27.9551 108.709 28.0975 108.46 28.2178ZM98.5088 25.0841C98.5088 24.633 98.4597 24.2126 98.3619 23.8216C98.2638 23.4307 98.1055 23.0887 97.8873 22.7955C97.6689 22.5026 97.3865 22.2697 97.0403 22.0967C96.6935 21.9239 96.2645 21.8374 95.7525 21.8374C95.3458 21.8374 94.9767 21.9239 94.6454 22.0967C94.314 22.2697 94.0316 22.4912 93.7983 22.7619C93.5647 23.0323 93.3839 23.3294 93.2561 23.6522C93.1281 23.9758 93.0642 24.2875 93.0642 24.588V27.7217C93.5912 28.1581 94.3893 28.3756 95.4588 28.3756C95.9408 28.3756 96.3698 28.2819 96.7465 28.0937C97.1227 27.9059 97.443 27.658 97.7068 27.3497C97.9701 27.0421 98.1699 26.6925 98.3055 26.3014C98.4409 25.9107 98.5088 25.5048 98.5088 25.0841ZM100.903 23.0323C101.099 23.6938 101.197 24.3777 101.197 25.0841C101.197 25.9107 101.077 26.6171 100.836 27.2035C100.594 27.7892 100.294 28.3006 99.932 28.7364C99.3294 29.458 98.6703 29.9614 97.9552 30.247C97.2396 30.5324 96.5055 30.6753 95.7525 30.6753C95.4057 30.6753 95.1085 30.6599 94.8601 30.6301C94.6117 30.5999 94.3858 30.5589 94.1824 30.5062C93.9791 30.4533 93.7906 30.3935 93.6177 30.3258C93.4443 30.2581 93.2595 30.1869 93.0642 30.1117V34.8237H90.4208V19.7406H92.9963L93.0642 20.9355C93.1996 20.7854 93.369 20.6278 93.5724 20.4621C93.7758 20.297 94.0164 20.1465 94.2954 20.0113C94.5738 19.876 94.89 19.7631 95.244 19.6732C95.598 19.5829 95.9933 19.5379 96.4302 19.5379C97.2436 19.5379 97.9476 19.6956 98.5428 20.0113C99.1374 20.3269 99.6306 20.7439 100.022 21.2625C100.414 21.781 100.708 22.3711 100.903 23.0323ZM84.0954 26.9777L81.0681 19.7406H77.9955L82.7623 30.2245L82.4235 31.0812C82.1671 31.7125 81.9226 32.1778 81.6894 32.479C81.4555 32.7793 81.1583 32.9298 80.7969 32.9298C80.5257 32.9298 80.2998 32.8735 80.119 32.7607C79.9384 32.648 79.7724 32.5316 79.6221 32.4112L78.4248 34.2823C78.7257 34.5379 79.076 34.7369 79.4752 34.88C79.874 35.0227 80.3751 35.0944 80.9778 35.0944C81.6702 35.0944 82.2426 34.9438 82.6947 34.6432C83.1465 34.3424 83.5267 33.9556 83.8356 33.4822C84.1439 33.0086 84.404 32.4937 84.615 31.9379C84.8256 31.3815 85.0363 30.8407 85.2476 30.3144L89.6755 19.7406H86.7612L84.0954 26.9777ZM76.2789 19.5379C75.8417 19.5379 75.454 19.5906 75.1152 19.6956C74.7764 19.8009 74.4786 19.929 74.2228 20.079C73.9667 20.2293 73.7445 20.3944 73.5565 20.5751C73.368 20.7553 73.2137 20.9209 73.0933 21.0709L73.0254 19.7406H70.4726V30.3144H73.1384V24.6105C73.1384 24.22 73.2097 23.8665 73.3532 23.5509C73.4961 23.2352 73.6881 22.9648 73.9293 22.7391C74.1698 22.5137 74.4561 22.3412 74.7875 22.2208C75.1189 22.1007 75.4654 22.0404 75.8268 22.0404C76.0827 22.0404 76.3048 22.0555 76.4934 22.0853C76.6813 22.1158 76.8661 22.1681 77.0469 22.2433L77.5891 19.7406C77.3781 19.6657 77.171 19.6131 76.9677 19.5829C76.7643 19.553 76.5347 19.5379 76.2789 19.5379ZM62.5206 23.7763C62.3997 24.1822 62.3397 24.5957 62.3397 25.0164C62.3397 25.4223 62.3997 25.8207 62.5206 26.2112C62.6409 26.6023 62.8254 26.9552 63.0739 27.2709C63.3226 27.5866 63.6349 27.8422 64.0116 28.0374C64.3878 28.2329 64.8322 28.3306 65.3445 28.3306C65.8715 28.3306 66.3533 28.2289 66.7905 28.0263C67.2271 27.8233 67.5959 27.5492 67.8974 27.2035L69.4788 28.9166C68.9817 29.4429 68.3945 29.8636 67.7166 30.1792C67.0389 30.4948 66.2483 30.6528 65.3445 30.6528C64.4409 30.6528 63.6349 30.5173 62.927 30.247C62.2191 29.9763 61.6242 29.5931 61.1424 29.0971C60.6602 28.6012 60.2913 28.0075 60.0353 27.3159C59.7792 26.6248 59.6514 25.8583 59.6514 25.0164C59.6514 24.2499 59.7903 23.5246 60.0692 22.8407C60.3478 22.157 60.7357 21.5593 61.2328 21.0484C61.7297 20.5375 62.3283 20.1319 63.0288 19.8308C63.7293 19.5305 64.5008 19.38 65.3445 19.38C66.2029 19.38 66.9858 19.5342 67.694 19.8422C68.4019 20.1505 69.0042 20.5674 69.5014 21.0934L67.8069 22.8068C67.5055 22.4613 67.1518 22.1906 66.7451 21.9951C66.3384 21.8001 65.8715 21.7022 65.3445 21.7022C64.8322 21.7022 64.3878 21.7964 64.0116 21.984C63.6349 22.1721 63.3226 22.4163 63.0739 22.7167C62.8254 23.0177 62.6409 23.3704 62.5206 23.7763Z" fill="white"/>
<path d="M40.0312 10C48.3325 10.0002 55.0615 16.7158 55.0615 25C55.0615 33.2842 48.3325 39.9998 40.0312 40C31.7298 40 25 33.2844 25 25C25 16.7156 31.7298 10 40.0312 10ZM42.9053 12.7002C38.5115 11.7419 34.2059 12.9746 31.0928 16.0811C28.7051 18.4638 27.3897 21.6323 27.3896 25.002C27.3894 28.3714 28.705 31.54 31.0928 33.9229C33.4805 36.3055 36.655 37.6175 40.0312 37.6172C43.4075 37.6172 46.5823 36.3052 48.9697 33.9229C51.3575 31.54 52.6728 28.3717 52.6729 25.002C52.6729 21.6537 51.3017 18.3812 48.9111 16.0234C48.7248 15.8401 48.4235 15.8411 48.2393 16.0273C48.0551 16.2133 48.0567 16.5136 48.2432 16.6973C50.4546 18.8782 51.7236 21.9053 51.7236 25.002C51.7236 28.1185 50.5073 31.049 48.2988 33.2529C46.0906 35.4569 43.1541 36.6702 40.0312 36.6699C36.9084 36.6702 33.9719 35.4569 31.7637 33.2529C29.5551 31.0492 28.3386 28.1184 28.3389 25.002C28.3389 21.8852 29.5555 18.9549 31.7637 16.751C34.6436 13.8773 38.6309 12.739 42.7021 13.626C42.9585 13.6823 43.2116 13.5201 43.2676 13.2646C43.3235 13.0088 43.1614 12.756 42.9053 12.7002ZM47.0088 18.0381C43.161 14.1986 36.8995 14.1985 33.0518 18.0381C30.6805 20.405 29.6809 23.7748 30.377 27.0527C30.4313 27.3088 30.6837 27.4725 30.9395 27.4189C31.1958 27.3647 31.36 27.1126 31.3057 26.8564C30.6764 23.8932 31.5802 20.8471 33.7236 18.708C37.2013 15.2375 42.8602 15.2375 46.3379 18.708C49.8157 22.1788 49.8156 27.8254 46.3379 31.2959C44.6514 32.9792 42.4147 33.9033 40.0322 33.9033C40.0059 33.9033 39.9794 33.9036 39.9531 33.9033C37.5415 33.8824 35.2898 32.9159 33.6123 31.1826C33.4301 30.9943 33.1289 30.9901 32.9404 31.1719C32.7521 31.3536 32.7477 31.6539 32.9297 31.8418C34.785 33.7589 37.2763 34.8276 39.9443 34.8506C39.974 34.8508 40.0035 34.8506 40.0332 34.8506C42.6687 34.8505 45.1429 33.8279 47.0088 31.9658C50.8566 28.126 50.8566 21.8782 47.0088 18.0381ZM40.0312 18.2822C36.3185 18.2822 33.2981 21.2967 33.2979 25.002C33.2979 28.7072 36.3184 31.7217 40.0312 31.7217C42.2605 31.7216 44.3417 30.6234 45.5986 28.7832C45.943 28.279 45.813 27.5908 45.3076 27.2471C44.8023 26.9031 44.113 27.0335 43.7686 27.5381C42.9245 28.7738 41.5274 29.5116 40.0312 29.5117C37.5398 29.5117 35.5127 27.4883 35.5127 25.002C35.5129 22.5156 37.54 20.4932 40.0312 20.4932C41.5275 20.4933 42.9245 21.231 43.7686 22.4668C44.113 22.971 44.8023 23.1015 45.3076 22.7578C45.8131 22.4139 45.9429 21.7263 45.5986 21.2217C44.3417 19.3813 42.2606 18.2823 40.0312 18.2822ZM31.7109 28.4141C31.1865 28.4141 30.7617 28.838 30.7617 29.3613C30.7617 29.8844 31.1865 30.3086 31.7109 30.3086C32.2354 30.3086 32.6602 29.8845 32.6602 29.3613C32.6601 28.838 32.2353 28.4141 31.7109 28.4141ZM45.8936 13.4131C45.3693 13.4133 44.9443 13.8381 44.9443 14.3613C44.9446 14.884 45.3694 15.3074 45.8936 15.3076C46.4175 15.3076 46.8425 14.8842 46.8428 14.3613C46.8428 13.838 46.4177 13.4131 45.8936 13.4131Z" fill="white"/>
</g>
<defs>
<clipPath id="clip0_2993_1929">
<rect width="150" height="30" fill="white" transform="translate(25 10)"/>
</clipPath>
</defs>
</svg>
