<svg width="200" height="50" viewBox="0 0 200 50" fill="none" xmlns="http://www.w3.org/2000/svg">
<g clip-path="url(#clip0_3000_1847)">
<mask id="mask0_3000_1847" style="mask-type:luminance" maskUnits="userSpaceOnUse" x="4" y="11" width="192" height="28">
<path d="M195.764 11H4V38.9104H195.764V11Z" fill="white"/>
</mask>
<g mask="url(#mask0_3000_1847)">
<path d="M139.836 14.606C140.943 14.606 142.05 14.606 143.192 14.606C143.385 14.9942 143.578 15.3824 143.777 15.7824C144.314 16.861 144.314 16.861 144.856 17.937C144.882 17.9876 144.907 18.0383 144.934 18.0905C145.107 18.4299 145.298 18.7547 145.499 19.0774C145.52 19.0321 145.542 18.9868 145.564 18.9402C146.043 17.9453 146.532 16.9575 147.037 15.9762C147.268 15.524 147.498 15.0719 147.736 14.606C148.866 14.606 149.997 14.606 151.162 14.606C151.162 18.3187 151.162 22.0314 151.162 25.8566C150.308 25.8566 149.454 25.8566 148.575 25.8566C148.552 23.5957 148.528 21.3347 148.505 19.0053C147.578 20.9158 147.578 20.9158 146.678 22.8399C146.635 22.9324 146.592 23.0245 146.547 23.1161C145.855 23.1161 145.163 23.1161 144.45 23.1161C144.086 22.4284 143.746 21.7337 143.422 21.0247C143.122 20.3697 142.807 19.7261 142.492 19.0774C142.469 21.3146 142.447 23.5517 142.423 25.8566C141.569 25.8566 140.716 25.8566 139.836 25.8566C139.836 22.1439 139.836 18.4312 139.836 14.606Z" fill="white"/>
<path d="M29.4506 22.9252C29.4507 22.9232 29.4507 22.9212 29.4507 22.9193C29.4998 22.9239 29.559 22.9266 29.6299 22.9266C29.7527 22.9956 29.88 23.056 30.0072 23.1157C30.5525 23.6474 30.7533 24.4562 30.7905 25.2049C30.8247 27.2138 30.38 29.1475 29.5878 30.9768C29.5659 31.0274 29.5442 31.078 29.5217 31.1301C29.0279 32.2573 28.3502 33.2933 27.5603 34.2222C27.5079 34.2841 27.4555 34.3462 27.4014 34.4101C27.2468 34.59 27.0899 34.7672 26.9312 34.9433C26.8885 34.9913 26.8458 35.0394 26.8017 35.0888C26.1853 35.7544 25.4365 36.3122 24.6941 36.8185C24.5959 36.8858 24.5959 36.8858 24.4958 36.9546C23.0245 37.9276 21.381 38.5404 19.6605 38.8379C19.5895 38.8505 19.5185 38.8631 19.4453 38.8761C19.1002 38.9187 18.76 38.9244 18.4127 38.9271C18.3395 38.9277 18.2663 38.9283 18.1908 38.9289C18.0357 38.9299 17.8805 38.9307 17.7252 38.9313C17.5696 38.9321 17.4139 38.9335 17.2582 38.9356C13.7102 38.9846 10.479 37.5731 7.93579 35.0339C6.70407 33.783 5.80588 32.306 5.11478 30.6792C5.08804 30.6169 5.0613 30.5546 5.03375 30.4903C4.86609 30.0818 4.70249 29.6654 4.81169 29.2177C4.96982 28.9214 5.11423 28.7102 5.39881 28.5247H5.53843C5.59947 28.6585 5.67028 28.7878 5.75092 28.9112C7.51286 28.9734 9.01887 27.974 10.3902 26.9244C10.553 26.7992 10.7161 26.6743 10.8805 26.5511C11.8454 25.832 12.7897 25.0929 13.6552 24.2479C13.9671 23.9422 14.2739 23.6307 14.6208 23.3669C14.9109 23.1818 15.2043 23.1378 15.5384 23.2136C15.8437 23.5286 15.9118 23.9559 15.9125 24.3847C15.9115 24.44 15.9105 24.4937 15.9095 24.5474C15.9089 24.7316 15.908 24.9159 15.9058 25.1002C15.9042 25.2318 15.9032 25.3634 15.9024 25.4949C15.9011 25.8416 15.8991 26.1883 15.8961 26.535C15.8911 27.1002 15.8865 27.6656 15.8837 28.2308C15.8828 28.4298 15.8817 28.6287 15.8796 28.8277C15.8782 28.9531 15.8771 29.0786 15.8764 29.2041C15.876 29.264 15.8757 29.3223 15.8754 29.3805C15.8689 29.8042 15.91 30.1621 16.0277 30.5699C16.1813 30.875 16.3477 31.0821 16.649 31.2412C17.1739 31.4184 17.7006 31.2862 18.195 31.0747C18.2298 31.039 18.2645 31.0033 18.265 31.0027C18.265 31.0027 18.5316 30.7978 18.6887 30.6587C18.7347 30.6086 18.7795 30.5599 18.8242 30.5113C18.8702 30.4618 18.9149 30.4137 18.9597 30.3657C19.0598 30.2571 19.1615 30.1498 19.2641 30.0437C19.3883 29.9158 19.5123 29.7876 19.636 29.6591C19.7727 29.5172 19.9095 29.3752 20.0464 29.2335C20.1211 29.1561 20.1958 29.0787 20.2704 29.0013C20.7298 28.5235 21.1912 28.0531 21.6796 27.6064C21.7699 27.5239 21.8597 27.441 21.9487 27.3571C23.8351 25.5482 26.4594 22.925 29.1971 22.9117C29.2833 22.9163 29.3669 22.9208 29.4506 22.9252ZM11.2625 12.433C16.0114 10.019 21.9064 10.6058 25.9489 14.2126C26.1641 14.4111 26.3733 14.6157 26.5817 14.8219C26.6192 14.8587 26.6569 14.8956 26.6956 14.9335C28.0241 16.2401 29.8554 18.514 29.9767 20.4788C29.9122 20.8998 29.6855 21.1821 29.378 21.457H29.2388C29.2388 21.4568 29.2388 21.4566 29.2388 21.4566H29.1688C29.0322 21.2142 28.9469 21.1405 28.686 21.0545C27.1809 20.9559 27.1808 20.9559 23.7255 23.6053C23.6754 23.6438 23.6267 23.6811 23.5781 23.7185C23.2477 23.9708 22.9182 24.224 22.5911 24.4807C22.5464 24.5158 22.5029 24.5499 22.4595 24.584C21.987 24.9524 21.5275 25.3253 21.0962 25.7447C20.7229 26.1097 20.3526 26.5361 19.8729 26.7475C19.5735 26.8101 19.3443 26.8077 19.0776 26.6484C18.7142 25.6677 18.7142 25.6677 18.7472 24.602C18.7501 24.4766 18.7526 24.3511 18.7547 24.2257C18.7596 23.8952 18.7654 23.5648 18.7721 23.2343C18.7832 22.6945 18.7928 22.1547 18.8018 21.6148C18.805 21.425 18.8083 21.2351 18.8122 21.0452C18.8147 20.9256 18.8171 20.806 18.8193 20.6863C18.8203 20.6295 18.8214 20.5743 18.8224 20.5192C18.8268 20.3349 18.8274 20.1528 18.8242 19.9683C18.7364 19.5018 18.5574 19.1358 18.1819 18.8505C17.2822 18.2887 16.3983 18.9814 15.7683 19.6435C15.4195 20.0175 15.0743 20.3938 14.6929 20.7329C14.4612 20.938 14.2442 21.1534 14.0298 21.3777C12.0536 23.4552 9.74378 25.7597 7.0623 26.8225C6.99675 26.846 6.93314 26.8689 6.86953 26.8918C6.37654 27.069 5.94053 27.1301 5.41809 27.1158C5.36489 27.1131 5.31318 27.1107 5.26154 27.1082C5.25868 27.1874 5.25879 27.2666 5.26177 27.3455C5.25495 27.2604 5.25349 27.1735 5.25898 27.0823C5.21139 27.0808 5.1638 27.0793 5.11478 27.0778C4.79721 26.9733 4.61711 26.7787 4.42005 26.5054C3.49631 24.6557 4.05523 22.1943 4.62976 20.303C5.74907 16.8934 8.153 14.0565 11.2625 12.433Z" fill="white"/>
<path d="M100.337 14.6065C101.756 14.5998 101.756 14.5998 103.204 14.593C103.5 14.591 103.796 14.589 104.101 14.587C104.469 14.586 104.469 14.586 104.643 14.5858C104.761 14.5855 104.88 14.5848 104.998 14.5836C106.149 14.5734 107.413 14.5876 108.333 15.4026C108.938 16.0516 109.1 16.806 109.091 17.6826C109.05 18.3446 108.8 18.9487 108.328 19.4098C108.23 19.4936 108.129 19.5745 108.027 19.6549C108.005 19.7024 107.981 19.7501 107.958 19.7991C108.044 19.8192 108.044 19.8192 108.132 19.8397C108.726 20.0912 109.086 20.5831 109.356 21.1694C109.656 21.9257 109.698 22.8979 109.428 23.6719C109.063 24.507 108.553 25.0979 107.748 25.4966C107.082 25.7529 106.449 25.8687 105.742 25.8654C105.682 25.8654 105.623 25.8654 105.561 25.8654C105.37 25.8653 105.178 25.8648 104.987 25.8642C104.868 25.8641 104.749 25.864 104.63 25.864C104.191 25.8636 103.752 25.8626 103.313 25.8617C102.331 25.8602 101.349 25.8587 100.337 25.8572C100.337 22.1445 100.337 18.4317 100.337 14.6065ZM103.063 16.8422C103.063 17.5562 103.063 18.2702 103.063 19.0058C103.422 19.0125 103.78 19.0182 104.138 19.0216C104.259 19.0231 104.381 19.025 104.503 19.0276C104.679 19.0311 104.854 19.0327 105.03 19.0339C105.111 19.0362 105.111 19.0362 105.192 19.0385C105.583 19.0386 105.885 18.9455 106.209 18.7173C106.449 18.4004 106.455 18.0699 106.443 17.6806C106.408 17.4038 106.328 17.2578 106.14 17.0586C105.76 16.8518 105.462 16.8123 105.037 16.8211C104.952 16.8215 104.952 16.8215 104.865 16.822C104.685 16.8232 104.506 16.8259 104.327 16.8287C104.204 16.8298 104.081 16.8307 103.959 16.8316C103.661 16.8338 103.362 16.8381 103.063 16.8422ZM103.063 21.0251C103.063 21.9058 103.063 22.7863 103.063 23.6935C103.667 23.6981 103.667 23.6981 104.283 23.7026C104.471 23.7046 104.471 23.7046 104.663 23.7066C104.765 23.707 104.867 23.7074 104.969 23.7076C105.045 23.7087 105.045 23.7087 105.123 23.7099C105.674 23.7101 106.199 23.641 106.629 23.2609C106.925 22.8637 106.882 22.3682 106.839 21.8906C106.71 21.4913 106.492 21.2852 106.135 21.0903C105.844 20.9979 105.571 21.0074 105.269 21.011C105.206 21.0113 105.142 21.0114 105.078 21.0117C104.877 21.0125 104.676 21.0143 104.475 21.0161C104.339 21.0168 104.202 21.0175 104.065 21.0181C103.731 21.0195 103.397 21.0224 103.063 21.0251Z" fill="white"/>
<path d="M36.7178 14.606C37.7328 14.606 38.748 14.606 39.7938 14.606C40.4336 15.266 40.4336 15.266 40.6272 15.7931C40.7468 16.0836 40.9304 16.3101 41.1221 16.5532C41.428 16.9641 41.7148 17.3861 41.996 17.8153C42.3079 18.2915 42.6287 18.7577 42.9696 19.2124C43.3548 19.7304 43.6978 20.2672 44.0583 20.8083C44.0814 18.7615 44.1045 16.7147 44.1282 14.606C44.9126 14.606 45.6971 14.606 46.5052 14.606C46.5052 18.3187 46.5052 22.0314 46.5052 25.8566C45.7439 25.8566 44.9826 25.8566 44.1981 25.8566C43.8576 25.4175 43.5258 24.9839 43.2107 24.5269C42.8905 24.0661 42.5675 23.608 42.2407 23.1522C41.9234 22.7093 41.6087 22.2648 41.2969 21.8179C40.9789 21.3624 40.6584 20.9087 40.3356 20.4567C40.2977 20.4036 40.2598 20.3505 40.2207 20.2958C39.8944 19.8397 39.5643 19.3867 39.2345 18.9332C39.2115 21.2179 39.1884 23.5026 39.1646 25.8566C38.3572 25.8566 37.5497 25.8566 36.7178 25.8566C36.7178 22.1439 36.7178 18.4312 36.7178 14.606Z" fill="white"/>
<path d="M74.7743 15.9412C75.2642 16.4174 75.6537 16.9313 75.9376 17.5631C75.6232 17.728 75.3083 17.8923 74.9934 18.0561C74.8862 18.1119 74.7791 18.1679 74.6721 18.224C74.5184 18.3046 74.3644 18.3846 74.2103 18.4646C74.1625 18.4898 74.1146 18.5151 74.0654 18.5411C73.8603 18.6468 73.7232 18.717 73.4907 18.717C73.4007 18.6111 73.4007 18.6111 73.3072 18.4646C72.7976 17.7324 72.1607 17.3012 71.3001 17.1487C70.4083 17.061 69.5679 17.3416 68.8767 17.9237C68.3424 18.4293 67.9951 19.1168 67.9512 19.8667C67.9274 20.888 68.1026 21.6884 68.7912 22.4627C69.4705 23.1276 70.2473 23.2969 71.151 23.2803C71.8738 23.2482 72.5395 22.9784 73.0713 22.4672C73.166 22.3241 73.2594 22.1799 73.3509 22.0345C73.273 22.0349 73.195 22.0353 73.1146 22.0357C72.8263 22.0369 72.538 22.0378 72.2496 22.0384C72.1247 22.0388 71.9997 22.0393 71.8747 22.04C71.6954 22.0408 71.5162 22.0412 71.337 22.0415C71.2526 22.0421 71.2526 22.0421 71.1665 22.0427C71.0324 22.0427 70.8984 22.039 70.7643 22.0345C70.7412 22.0107 70.7182 21.9869 70.6943 21.9624C70.6943 21.2246 70.6943 20.4868 70.6943 19.7267C72.6092 19.7267 74.5241 19.7267 76.4969 19.7267C76.4969 21.5492 76.1554 23.0464 74.919 24.3925C73.9242 25.3659 72.6358 26.0117 71.2537 26.0732C71.202 26.0761 71.1504 26.079 71.0971 26.082C69.5704 26.1258 68.2004 25.5905 67.0591 24.5587C67.0109 24.516 66.9627 24.4732 66.9132 24.4291C65.9191 23.4806 65.2901 22.0248 65.2143 20.6386C65.1893 19.8128 65.2694 19.0681 65.521 18.2843C65.542 18.2173 65.563 18.1502 65.5847 18.0812C65.8617 17.2905 66.353 16.6425 66.9192 16.0486C66.9672 15.9981 67.0153 15.9476 67.0648 15.8956C69.2409 13.759 72.578 14.0233 74.7743 15.9412Z" fill="white"/>
<path d="M164.374 14.606C171.076 14.606 171.076 14.606 172.414 15.6878C172.484 15.7434 172.552 15.7989 172.624 15.8562C173.562 16.6711 173.982 18.0438 174.144 19.2577C174.282 21.081 174.011 22.9529 172.847 24.3892C172.053 25.2677 171.038 25.7115 169.897 25.8566C169.709 25.8628 169.523 25.8659 169.334 25.8648C169.253 25.8648 169.253 25.8648 169.169 25.8649C168.993 25.8648 168.817 25.8643 168.641 25.8637C168.532 25.8636 168.423 25.8635 168.313 25.8635C167.911 25.8631 167.508 25.8621 167.105 25.8612C166.204 25.8597 165.302 25.8582 164.374 25.8566C164.374 22.1439 164.374 18.4312 164.374 14.606ZM167.101 16.9859C167.101 19.1517 167.101 21.3174 167.101 23.5489C169.012 23.6564 169.012 23.6564 170.648 22.8772C171.403 21.9478 171.501 20.8984 171.435 19.7265C171.352 18.8893 171.131 18.1063 170.518 17.5243C169.537 16.737 168.29 16.9859 167.101 16.9859Z" fill="white"/>
<path d="M96.282 15.544C97.5158 16.5283 98.2506 17.9331 98.4819 19.5185C98.6454 21.0565 98.2043 22.6231 97.2783 23.8396C96.3306 25.0252 94.9758 25.8286 93.4853 26.0014C91.8059 26.1045 90.3262 25.7173 89.0323 24.5643C87.9296 23.546 87.2226 22.1231 87.1239 20.5924C87.12 20.5371 87.1169 20.4818 87.1131 20.4248C87.0599 18.9084 87.585 17.4606 88.548 16.3238C88.6545 16.2069 88.7624 16.0911 88.8719 15.9767C88.9197 15.9263 88.9675 15.8758 89.0169 15.8238C91.0155 13.8614 94.113 13.9763 96.282 15.544ZM90.4804 18.1048C89.8543 18.9063 89.7016 19.7276 89.7802 20.7367C89.9445 21.5897 90.4141 22.3327 91.1088 22.8281C91.92 23.3041 92.6556 23.464 93.5786 23.2887C94.4345 23.026 95.0714 22.4691 95.5133 21.6742C95.8888 20.8946 95.9227 19.955 95.6875 19.1229C95.3521 18.2368 94.7522 17.608 93.9225 17.2118C92.6695 16.7165 91.3849 17.1109 90.4804 18.1048Z" fill="white"/>
<path d="M153.61 14.606C156.286 14.606 158.962 14.606 161.72 14.606C161.72 15.3675 161.72 16.1291 161.72 16.9138C159.92 16.9138 158.12 16.9138 156.267 16.9138C156.267 17.6278 156.267 18.3418 156.267 19.0774C157.858 19.0774 159.451 19.0774 161.091 19.0774C161.091 19.8866 161.091 20.6958 161.091 21.5294C159.498 21.5294 157.907 21.5294 156.267 21.5294C156.267 22.1721 156.267 22.8147 156.267 23.4767C158.228 23.4767 160.188 23.4767 162.209 23.4767C162.209 24.2621 162.209 25.0475 162.209 25.8566C159.371 25.8566 156.534 25.8566 153.61 25.8566C153.61 22.1439 153.61 18.4312 153.61 14.606Z" fill="white"/>
<path d="M185.347 14.606C186.224 14.606 187.101 14.606 188.004 14.606C188.568 15.8538 188.568 15.8538 188.793 16.3647C188.818 16.4233 188.844 16.4819 188.87 16.5423C188.953 16.7307 189.036 16.9192 189.118 17.1076C189.147 17.1734 189.176 17.2392 189.206 17.307C189.625 18.2634 190.04 19.2213 190.453 20.1809C190.907 21.2385 191.366 22.2938 191.828 23.3484C191.876 23.4602 191.925 23.5719 191.974 23.6838C192.107 23.9886 192.241 24.2928 192.376 24.5965C192.405 24.6624 192.434 24.7284 192.465 24.7963C192.521 24.9237 192.578 25.051 192.635 25.1782C192.66 25.2355 192.685 25.2928 192.711 25.3518C192.734 25.4024 192.756 25.4529 192.78 25.505C192.828 25.6403 192.828 25.6403 192.828 25.8566C191.951 25.8566 191.074 25.8566 190.171 25.8566C189.968 25.4082 189.968 25.4082 189.76 24.9507C189.718 24.8574 189.676 24.7641 189.632 24.6679C189.598 24.593 189.564 24.5182 189.53 24.441C189.495 24.3651 189.46 24.2892 189.425 24.211C189.332 23.9815 189.332 23.9815 189.193 23.4767C187.509 23.5005 185.824 23.5243 184.089 23.5489C183.743 24.2866 183.397 25.0244 183.04 25.7846C182.97 25.8566 182.97 25.8566 182.732 25.8648C182.625 25.8648 182.519 25.8644 182.413 25.8637C182.357 25.8636 182.302 25.8635 182.244 25.8634C182.066 25.863 181.887 25.8621 181.708 25.8612C181.587 25.8608 181.466 25.8604 181.345 25.8602C181.048 25.8594 180.751 25.8581 180.454 25.8566C180.563 25.493 180.705 25.1534 180.858 24.8078C180.897 24.7182 180.897 24.7182 180.938 24.6268C181.024 24.4312 181.11 24.2357 181.197 24.0401C181.257 23.9031 181.317 23.766 181.377 23.629C181.77 22.7355 182.167 21.8433 182.563 20.9515C182.936 20.1111 183.302 19.2672 183.664 18.4218C184.212 17.1436 184.78 15.875 185.347 14.606ZM186.676 17.3465C186.644 17.424 186.611 17.5014 186.577 17.5812C186.456 17.8711 186.334 18.161 186.213 18.4509C186.161 18.5759 186.108 18.7009 186.056 18.8259C185.98 19.0066 185.905 19.1872 185.829 19.3679C185.806 19.4228 185.783 19.4779 185.759 19.5346C185.737 19.588 185.714 19.6413 185.691 19.6963C185.67 19.7484 185.648 19.8005 185.626 19.8542C185.577 19.9672 185.528 20.0799 185.478 20.192C185.44 20.2783 185.44 20.2783 185.401 20.3664C185.377 20.4183 185.354 20.4702 185.329 20.5237C185.265 20.6727 185.265 20.6727 185.277 20.8804C186.223 20.8804 187.169 20.8804 188.144 20.8804C187.985 20.3792 187.985 20.3792 187.801 19.8928C187.777 19.8351 187.754 19.7774 187.729 19.7179C187.705 19.6582 187.679 19.5985 187.654 19.5369C187.614 19.4422 187.614 19.4422 187.574 19.3456C187.493 19.1464 187.409 18.9474 187.327 18.7483C187.27 18.6123 187.214 18.4763 187.158 18.3403C187.021 18.0089 186.883 17.6777 186.745 17.3465C186.722 17.3465 186.7 17.3465 186.676 17.3465Z" fill="white"/>
<path d="M115.507 14.606C116.384 14.606 117.261 14.606 118.164 14.606C118.241 14.7964 118.319 14.9867 118.4 15.1829C118.772 16.0857 119.165 16.9791 119.557 17.8735C119.933 18.7347 120.307 19.5974 120.678 20.4612C120.95 21.094 121.223 21.726 121.499 22.3569C121.542 22.4526 121.542 22.4526 121.584 22.5502C121.718 22.8577 121.853 23.165 121.988 23.4723C122.334 24.2617 122.664 25.057 122.987 25.8566C122.088 25.8566 121.188 25.8566 120.261 25.8566C119.811 24.7839 119.811 24.7839 119.669 24.4456C119.632 24.3572 119.595 24.2688 119.558 24.1804C119.538 24.1345 119.519 24.0885 119.499 24.0411C119.395 23.7929 119.395 23.7929 119.282 23.5489C117.598 23.5489 115.914 23.5489 114.179 23.5489C113.629 24.691 113.629 24.691 113.13 25.8566C112.276 25.8566 111.423 25.8566 110.543 25.8566C110.972 24.8213 111.42 23.7982 111.88 22.7781C112.306 21.8367 112.724 20.8931 113.13 19.9428C113.74 18.5153 114.378 17.1014 115.018 15.6878C115.26 15.1523 115.26 15.1523 115.507 14.606ZM116.766 17.4186C116.588 17.8303 116.412 18.2422 116.235 18.6542C116.176 18.7942 116.116 18.9342 116.055 19.0741C115.968 19.2758 115.882 19.4776 115.796 19.6794C115.769 19.7415 115.742 19.8035 115.715 19.8675C115.677 19.9563 115.677 19.9563 115.638 20.0468C115.605 20.1239 115.605 20.1239 115.571 20.2026C115.489 20.4234 115.43 20.6528 115.367 20.8804C116.336 20.8804 117.305 20.8804 118.303 20.8804C117.859 19.7164 117.386 18.5667 116.905 17.4186C116.859 17.4186 116.813 17.4186 116.766 17.4186Z" fill="white"/>
<path d="M57.4115 15.8322C57.4527 15.8644 57.4939 15.8966 57.5363 15.9297C57.9914 16.2954 58.4521 16.8649 58.6699 17.4189C58.6699 17.4903 58.6699 17.5617 58.6699 17.6352C58.3768 17.7917 58.0833 17.9471 57.7892 18.1014C57.6892 18.154 57.5894 18.207 57.4897 18.2603C57.3464 18.3368 57.2026 18.4122 57.0587 18.4874C57.0143 18.5115 56.9699 18.5355 56.924 18.5603C56.7437 18.6534 56.6128 18.7205 56.4087 18.7027C56.252 18.6244 56.192 18.5282 56.0963 18.379C55.6693 17.7652 55.0677 17.3419 54.3354 17.2025C53.4136 17.1277 52.6089 17.3052 51.8886 17.9237C51.3031 18.4899 50.9713 19.1892 50.9098 20.0152C50.9006 20.9185 51.1529 21.6591 51.7488 22.323C52.3173 22.9174 52.9846 23.1856 53.7893 23.2155C54.6329 23.1993 55.3018 22.9238 55.8869 22.3052C56.1056 22.0594 56.2996 21.8362 56.4328 21.5297C56.7177 21.5738 56.9348 21.6702 57.1889 21.8089C57.2654 21.8503 57.3419 21.8917 57.4206 21.9344C57.4998 21.9778 57.579 22.0213 57.6606 22.0661C57.818 22.1516 57.9753 22.2372 58.1327 22.3227C58.2023 22.3608 58.2718 22.3989 58.3435 22.4381C58.498 22.5219 58.6531 22.6039 58.8097 22.6836C58.5749 23.2309 58.2823 23.6761 57.9009 24.126C57.8645 24.1704 57.8281 24.2149 57.7905 24.2606C56.9819 25.175 55.7006 25.7682 54.5214 25.8788C54.2871 25.8883 54.0543 25.8907 53.8199 25.8885C53.7373 25.8878 53.6547 25.8873 53.5697 25.8866C52.2882 25.8611 51.1867 25.4218 50.2108 24.5587C50.1696 24.5266 50.1284 24.4944 50.0859 24.4612C48.9929 23.5828 48.42 22.1122 48.2533 20.7364C48.1625 19.1684 48.5413 17.7747 49.5116 16.5534C49.5684 16.4773 49.5684 16.4773 49.6263 16.3996C50.4989 15.2853 51.8558 14.667 53.2081 14.4755C54.7596 14.3693 56.2207 14.7793 57.4115 15.8322Z" fill="white"/>
<path d="M124.246 14.606C125.146 14.606 126.046 14.606 126.973 14.606C126.973 17.5333 126.973 20.4607 126.973 23.4767C128.749 23.4767 130.525 23.4767 132.356 23.4767C132.356 24.2383 132.356 24.9998 132.356 25.7846C129.679 25.7846 127.003 25.7846 124.246 25.7846C124.246 22.0956 124.246 18.4067 124.246 14.606Z" fill="white"/>
<path d="M77.9648 14.606C78.8645 14.606 79.7643 14.606 80.6913 14.606C80.6913 17.5333 80.6913 20.4607 80.6913 23.4767C82.4674 23.4767 84.244 23.4767 86.0746 23.4767C86.0746 24.2383 86.0746 24.9998 86.0746 25.7846C83.3981 25.7846 80.7221 25.7846 77.9648 25.7846C77.9648 22.0956 77.9648 18.4067 77.9648 14.606Z" fill="white"/>
<path d="M176.259 14.606C177.159 14.606 178.059 14.606 178.985 14.606C178.985 18.3187 178.985 22.0314 178.985 25.8566C178.086 25.8566 177.186 25.8566 176.259 25.8566C176.259 22.1439 176.259 18.4312 176.259 14.606Z" fill="white"/>
<path d="M96.9111 30.0395C97.4532 30.0336 97.9953 30.0276 98.5543 30.0215C98.724 30.0188 98.8944 30.0162 99.0694 30.0135C99.2059 30.0126 99.3424 30.0119 99.4781 30.0114C99.5475 30.0099 99.6176 30.0083 99.6894 30.0068C100.247 30.0066 100.618 30.1266 101.027 30.5218C101.262 30.8989 101.362 31.2662 101.276 31.7118C101.161 32.0994 100.897 32.3615 100.616 32.6358C100.667 32.6507 100.717 32.6656 100.77 32.6809C101.093 32.8441 101.26 33.0474 101.376 33.3922C101.484 33.8743 101.471 34.2844 101.245 34.7273C100.971 35.0807 100.618 35.2595 100.197 35.3764C99.9384 35.4041 99.6832 35.4017 99.4233 35.3975C99.3277 35.3972 99.3277 35.3972 99.2298 35.3968C98.9931 35.3957 98.7563 35.3927 98.5189 35.3899C97.9883 35.3855 97.4578 35.381 96.9111 35.3764C96.9111 33.6152 96.9111 31.854 96.9111 30.0395ZM98.03 30.9771C98.03 31.3816 98.03 31.7863 98.03 32.2031C98.2891 32.209 98.5482 32.2133 98.8072 32.2166C98.9175 32.2193 98.9175 32.2193 99.0293 32.2221C99.4226 32.226 99.7225 32.227 100.057 31.9867C100.167 31.7611 100.176 31.51 100.127 31.2656C99.9754 31.0656 99.8952 30.9849 99.6493 30.9443C99.5745 30.9458 99.4997 30.9473 99.4226 30.9489C99.3007 30.9503 99.3007 30.9503 99.1766 30.9517C99.0925 30.9541 99.0077 30.9565 98.9214 30.9591C98.8358 30.9603 98.7502 30.9616 98.6623 30.963C98.4518 30.9664 98.2405 30.9716 98.03 30.9771ZM98.03 33.0685C98.03 33.5208 98.03 33.9729 98.03 34.4388C98.3253 34.4447 98.6214 34.449 98.9167 34.4523C99.0424 34.4551 99.0424 34.4551 99.1704 34.4578C99.2922 34.4589 99.2922 34.4589 99.4156 34.4599C99.5274 34.4616 99.5274 34.4616 99.6408 34.4634C99.8775 34.4353 100.007 34.3673 100.197 34.2224C100.318 33.9736 100.302 33.7012 100.267 33.4291C100.113 33.2105 100.026 33.1539 99.7773 33.0685C99.6431 33.0626 99.5089 33.0608 99.3748 33.0615C99.2575 33.0619 99.2575 33.0619 99.138 33.0622C99.0563 33.0628 98.9746 33.0635 98.8905 33.064C98.808 33.0643 98.7255 33.0647 98.6407 33.065C98.4371 33.0658 98.2335 33.0672 98.03 33.0685Z" fill="white"/>
<path d="M36.5791 30.0398C36.8329 30.0398 37.0866 30.0398 37.3481 30.0398C37.377 30.149 37.4059 30.2581 37.4357 30.3706C37.5433 30.7763 37.6509 31.1819 37.7586 31.5875C37.8051 31.7629 37.8516 31.9384 37.8981 32.1139C37.965 32.3663 38.0321 32.6187 38.0991 32.8711C38.1198 32.9493 38.1405 33.0275 38.1618 33.1081C38.1813 33.1818 38.2009 33.2553 38.2211 33.3311C38.2382 33.3956 38.2553 33.4599 38.2729 33.5263C38.3319 33.7361 38.3997 33.9433 38.4666 34.1506C38.9511 32.1158 38.9511 32.1158 39.4454 30.0398C39.7453 30.0398 40.0452 30.0398 40.3543 30.0398C40.5177 30.5248 40.649 31.0112 40.7679 31.5096C40.7863 31.5854 40.8046 31.6614 40.8235 31.7396C40.8814 31.9798 40.939 32.2201 40.9966 32.4604C41.036 32.6241 41.0754 32.788 41.1149 32.9518C41.2112 33.3514 41.3072 33.751 41.4029 34.1506C41.5664 33.666 41.7032 33.1766 41.8319 32.6809C41.8518 32.6051 41.8717 32.5291 41.8922 32.4509C41.955 32.2107 42.0176 31.9704 42.0802 31.7301C42.123 31.5664 42.1658 31.4025 42.2086 31.2387C42.3131 30.8391 42.4174 30.4395 42.5215 30.0398C42.7752 30.0398 43.029 30.0398 43.2905 30.0398C43.1602 30.5218 43.0298 31.0036 42.8992 31.4854C42.855 31.6484 42.8109 31.8115 42.7668 31.9746C42.4595 33.111 42.1449 34.2449 41.8224 35.3767C41.5455 35.3767 41.2687 35.3767 40.9835 35.3767C40.8334 34.9262 40.7032 34.4753 40.5874 34.0143C40.5709 33.9488 40.5543 33.8834 40.5372 33.816C40.5024 33.6788 40.4678 33.5415 40.4331 33.4043C40.3803 33.1946 40.3272 32.985 40.274 32.7753C40.2401 32.6414 40.2062 32.5075 40.1724 32.3736C40.1565 32.3112 40.1407 32.2489 40.1245 32.1846C40.0538 31.9035 39.9854 31.6239 39.9348 31.338C39.7718 31.8168 39.6411 32.2999 39.521 32.7919C39.5027 32.8663 39.4844 32.9406 39.4655 33.0171C39.4076 33.2522 39.3501 33.4873 39.2925 33.7224C39.2531 33.8828 39.2136 34.0432 39.1741 34.2035C39.0779 34.5945 38.982 34.9856 38.8861 35.3767C38.5862 35.3767 38.2863 35.3767 37.9773 35.3767C37.805 34.7555 37.6329 34.1342 37.4614 33.5128C37.3816 33.2242 37.3018 32.9356 37.2218 32.6472C37.1445 32.3686 37.0674 32.0899 36.9906 31.8111C36.9613 31.705 36.9319 31.599 36.9024 31.4929C36.8609 31.3439 36.8198 31.1947 36.7789 31.0456C36.7554 30.9609 36.732 30.8761 36.7078 30.7888C36.6478 30.5398 36.6099 30.2943 36.5791 30.0398Z" fill="white"/>
<path d="M49.8623 30.0398C51.2234 30.0398 52.5845 30.0398 53.987 30.0398C53.987 30.3492 53.987 30.6586 53.987 30.9774C52.9949 30.9774 52.0029 30.9774 50.9808 30.9774C50.9808 31.382 50.9808 31.7865 50.9808 32.2034C51.8575 32.2034 52.7342 32.2034 53.6375 32.2034C53.6375 32.489 53.6375 32.7746 53.6375 33.0689C52.7607 33.0689 51.8841 33.0689 50.9808 33.0689C50.9808 33.521 50.9808 33.9732 50.9808 34.4391C51.9728 34.4391 52.9649 34.4391 53.987 34.4391C53.987 34.7486 53.987 35.0579 53.987 35.3767C52.6258 35.3767 51.2647 35.3767 49.8623 35.3767C49.8623 33.6155 49.8623 31.8544 49.8623 30.0398Z" fill="white"/>
<path d="M141.023 29.7515C141.37 29.7515 141.716 29.7515 142.072 29.7515C142.095 30.3227 142.118 30.8939 142.142 31.4824C142.303 31.3872 142.465 31.2919 142.631 31.1939C142.829 31.1644 142.99 31.1488 143.186 31.1533C143.236 31.1541 143.284 31.1549 143.335 31.1558C143.742 31.1733 144.026 31.2487 144.309 31.5545C144.84 32.2188 144.874 33.0371 144.799 33.8623C144.706 34.4018 144.567 34.8533 144.153 35.2157C143.742 35.5116 143.256 35.5028 142.771 35.449C142.474 35.3551 142.223 35.2442 142.002 35.0163C141.979 35.1353 141.956 35.2543 141.933 35.3768C141.633 35.3768 141.333 35.3768 141.023 35.3768C141.023 33.5205 141.023 31.6641 141.023 29.7515ZM142.212 32.4199C142.009 32.9272 141.96 33.5704 142.164 34.0877C142.339 34.3983 142.339 34.3983 142.637 34.5559C142.898 34.5862 143.074 34.6025 143.322 34.5024C143.616 34.2346 143.712 33.9716 143.75 33.5739C143.772 33.1015 143.775 32.6264 143.47 32.2441C143.243 32.0605 143.07 32.0302 142.778 32.0346C142.517 32.0786 142.386 32.2236 142.212 32.4199Z" fill="white"/>
<path d="M116.905 29.7515C117.251 29.7515 117.597 29.7515 117.953 29.7515C117.953 31.6079 117.953 33.4642 117.953 35.3768C117.653 35.3768 117.353 35.3768 117.045 35.3768C117.045 35.2578 117.045 35.1388 117.045 35.0163C117.008 35.0415 116.97 35.0666 116.932 35.0926C116.883 35.1254 116.834 35.1582 116.783 35.1921C116.734 35.2247 116.685 35.2573 116.635 35.2909C116.22 35.5294 115.653 35.5304 115.203 35.4022C114.79 35.2103 114.499 34.9135 114.316 34.4872C114.074 33.7135 114.055 32.7343 114.388 31.9872C114.547 31.6777 114.749 31.404 115.058 31.2415C115.299 31.1735 115.537 31.1625 115.787 31.1578C115.834 31.1565 115.881 31.1551 115.93 31.1538C116.338 31.159 116.443 31.2516 116.835 31.4824C116.858 30.9112 116.881 30.34 116.905 29.7515ZM115.436 32.2757C115.161 32.6876 115.188 33.2669 115.248 33.7449C115.294 33.9949 115.345 34.1865 115.476 34.4032C115.732 34.5655 115.978 34.5979 116.275 34.5835C116.538 34.4719 116.689 34.3281 116.835 34.0787C116.979 33.6203 116.991 33.0031 116.813 32.5551C116.679 32.32 116.581 32.1808 116.346 32.0593C115.975 32.0343 115.735 32.0223 115.436 32.2757Z" fill="white"/>
<path d="M126.692 30.0399C127.085 30.0399 127.477 30.0399 127.881 30.0399C127.942 30.2208 128.004 30.4018 128.067 30.5881C128.128 30.767 128.189 30.9457 128.25 31.1245C128.292 31.247 128.333 31.3696 128.375 31.4921C128.416 31.6112 128.456 31.7302 128.497 31.8492C128.537 31.9669 128.577 32.0846 128.617 32.2023C128.709 32.4732 128.802 32.7437 128.898 33.0134C128.922 33.0832 128.922 33.0832 128.947 33.1544C128.991 33.2781 129.035 33.4016 129.08 33.5251C129.139 33.718 129.139 33.718 129.139 33.9344C129.185 33.9344 129.232 33.9344 129.279 33.9344C129.297 33.8428 129.316 33.7513 129.334 33.657C129.417 33.2718 129.535 32.9032 129.66 32.5303C129.683 32.461 129.705 32.3916 129.729 32.3202C129.777 32.1749 129.825 32.0297 129.874 31.8846C129.948 31.6614 130.022 31.4381 130.095 31.2146C130.142 31.0732 130.189 30.9319 130.236 30.7904C130.259 30.7234 130.28 30.6564 130.303 30.5874C130.324 30.5259 130.344 30.4645 130.366 30.4012C130.384 30.347 130.401 30.2927 130.421 30.2368C130.468 30.1121 130.468 30.1121 130.538 30.0399C130.726 30.0347 130.913 30.0332 131.101 30.0354C131.154 30.0357 131.207 30.0361 131.262 30.0364C131.393 30.0372 131.525 30.0386 131.656 30.0399C131.51 30.5625 131.343 31.0739 131.163 31.5848C131.136 31.6615 131.109 31.7381 131.081 31.817C130.997 32.0601 130.911 32.3031 130.826 32.5461C130.769 32.708 130.712 32.8698 130.656 33.0318C130.573 33.2663 130.492 33.5007 130.409 33.7352C130.218 34.2818 130.027 34.8291 129.838 35.3768C129.423 35.3768 129.008 35.3768 128.58 35.3768C128.331 34.7697 128.098 34.1589 127.878 33.5402C127.846 33.4511 127.814 33.362 127.781 33.2701C127.714 33.0832 127.647 32.8964 127.581 32.7095C127.495 32.4707 127.41 32.232 127.324 31.9932C127.242 31.7637 127.16 31.5342 127.078 31.3045C127.032 31.1765 127.032 31.1765 126.985 31.0459C126.957 30.9665 126.928 30.887 126.9 30.8051C126.874 30.7355 126.85 30.6659 126.824 30.5941C126.763 30.4005 126.763 30.4005 126.692 30.0399Z" fill="white"/>
<path d="M67.4954 31.1716C67.5527 31.1694 67.6102 31.1674 67.6693 31.1652C68.084 31.1608 68.3895 31.2434 68.7363 31.4826C69.1069 31.865 69.172 32.2812 69.1847 32.8072C69.1861 32.8562 69.1874 32.9053 69.1888 32.9557C69.1929 33.1107 69.1962 33.2658 69.1994 33.4208C69.2021 33.5265 69.2048 33.6322 69.2076 33.738C69.2143 33.9958 69.2202 34.2537 69.2256 34.5116C69.4333 34.5473 69.4333 34.5473 69.6451 34.5837C69.6451 34.8455 69.6451 35.1073 69.6451 35.3771C69.2434 35.4806 68.843 35.5289 68.4566 35.3545C68.3168 35.2328 68.3168 35.2328 68.177 35.0164C68.1265 35.061 68.0761 35.1056 68.024 35.1516C67.5544 35.5177 67.069 35.5016 66.4991 35.4491C66.1769 35.3642 65.954 35.2196 65.7651 34.9353C65.5784 34.5372 65.6041 34.1118 65.7345 33.7002C66.0844 33.1879 66.4304 33.008 67.0273 32.8858C67.3887 32.8364 67.7434 32.8346 68.1071 32.8528C68.0873 32.7475 68.0668 32.6424 68.0459 32.5373C68.0345 32.4787 68.0232 32.4202 68.0115 32.3598C67.9766 32.1903 67.9766 32.1903 67.8274 32.0595C67.6801 32.0392 67.6801 32.0392 67.5172 32.046C67.4625 32.0465 67.4078 32.047 67.3514 32.0474C67.1858 32.054 67.1858 32.054 66.9885 32.1317C66.9424 32.2506 66.8962 32.3696 66.8487 32.4923C66.5257 32.4923 66.2027 32.4923 65.8699 32.4923C65.8699 31.8963 65.8699 31.8963 66.1496 31.5547C66.5964 31.1993 66.9514 31.178 67.4954 31.1716ZM66.7996 33.8949C66.6935 34.006 66.6934 34.006 66.6827 34.1871C66.714 34.4022 66.7552 34.4514 66.9186 34.5837C67.2393 34.6537 67.4962 34.6098 67.7881 34.462C67.9778 34.2855 68.0471 34.1882 68.1071 33.9347C68.1188 33.7393 68.1188 33.7393 68.1071 33.574C67.6336 33.5435 67.1796 33.5613 66.7996 33.8949Z" fill="white"/>
<path d="M106.922 31.1716C107.008 31.1684 107.008 31.1684 107.097 31.1652C107.513 31.1608 107.82 31.2424 108.167 31.4826C108.465 31.79 108.576 32.105 108.603 32.5369C108.602 32.6313 108.601 32.7257 108.601 32.823C108.6 32.8736 108.6 32.9242 108.6 32.9764C108.599 33.1365 108.598 33.2967 108.595 33.4568C108.595 33.566 108.595 33.6753 108.594 33.7845C108.592 34.0509 108.59 34.3173 108.587 34.5838C108.748 34.5838 108.91 34.5838 109.076 34.5838C109.076 34.8218 109.076 35.0597 109.076 35.3049C108.733 35.4821 108.475 35.4908 108.097 35.4491C107.84 35.3328 107.765 35.2595 107.608 35.0164C107.557 35.061 107.507 35.1056 107.455 35.1516C106.986 35.5171 106.5 35.5035 105.93 35.4491C105.597 35.3484 105.332 35.194 105.161 34.8722C105.035 34.4828 105.042 34.0835 105.17 33.6957C105.506 33.1987 105.92 33.0177 106.472 32.8754C106.827 32.8402 107.182 32.8475 107.538 32.8528C107.518 32.7475 107.498 32.6424 107.477 32.5373C107.466 32.4787 107.454 32.4202 107.443 32.3598C107.408 32.1903 107.408 32.1903 107.258 32.0595C107.111 32.0393 107.111 32.0393 106.948 32.046C106.894 32.0465 106.839 32.047 106.782 32.0474C106.617 32.054 106.617 32.054 106.419 32.1317C106.373 32.2506 106.328 32.3696 106.28 32.4923C105.957 32.4923 105.634 32.4923 105.301 32.4923C105.301 31.8876 105.301 31.8876 105.58 31.5547C106.02 31.2314 106.401 31.1777 106.922 31.1716ZM106.28 33.7904C106.129 34.0235 106.107 34.097 106.14 34.3674C106.251 34.5176 106.314 34.5767 106.496 34.6125C106.949 34.6081 106.949 34.6081 107.328 34.3674C107.476 34.0782 107.538 33.9026 107.538 33.5741C107.088 33.552 106.688 33.5742 106.28 33.7904Z" fill="white"/>
<path d="M58.9465 31.1715C59.0005 31.1704 59.0546 31.1692 59.1102 31.168C59.5684 31.1676 59.8946 31.2636 60.2573 31.5682C60.7613 32.2005 60.7685 32.7384 60.7685 33.574C59.8918 33.574 59.0152 33.574 58.1119 33.574C58.2499 34.2553 58.2499 34.2553 58.5314 34.5116C58.8341 34.6055 59.0988 34.6022 59.4009 34.5116C59.6365 34.3511 59.6365 34.3511 59.7199 33.8625C60.0659 33.8625 60.412 33.8625 60.7685 33.8625C60.7366 34.4057 60.6512 34.7114 60.2617 35.102C59.6708 35.5038 59.0762 35.511 58.3916 35.4491C57.9607 35.3534 57.6258 35.176 57.3627 34.8044C57.0884 34.3499 57.026 33.8563 57.0327 33.3306C57.0333 33.2708 57.0339 33.2111 57.0346 33.1495C57.0496 32.6008 57.1149 32.1178 57.4713 31.6884C57.9191 31.254 58.3492 31.1689 58.9465 31.1715ZM58.3216 32.2037C58.2525 32.4179 58.1832 32.6321 58.1119 32.8528C58.6194 32.8528 59.127 32.8528 59.6499 32.8528C59.6499 32.4084 59.6482 32.3545 59.3703 32.0594C59.0156 31.8766 58.6261 31.9681 58.3216 32.2037Z" fill="white"/>
<path d="M74.6698 31.1668C74.7233 31.1651 74.7767 31.1632 74.8317 31.1614C75.3439 31.1588 75.7315 31.3299 76.0986 31.6987C76.5135 32.2432 76.4962 32.9122 76.4962 33.5738C75.6196 33.5738 74.7429 33.5738 73.8397 33.5738C73.93 34.1635 73.93 34.1635 74.0887 34.4032C74.4002 34.601 74.7337 34.6077 75.0893 34.552C75.3255 34.3727 75.3628 34.1477 75.4476 33.8623C75.7937 33.8623 76.1397 33.8623 76.4962 33.8623C76.4546 34.3602 76.3839 34.6994 76.0287 35.0657C75.4465 35.5166 74.8155 35.5023 74.1193 35.4489C73.6976 35.3694 73.3441 35.1371 73.0707 34.7998C72.6668 34.1145 72.6417 33.2208 72.8057 32.4537C72.9562 31.9678 73.2276 31.626 73.6299 31.3381C73.9801 31.1861 74.2961 31.1675 74.6698 31.1668ZM73.9795 32.2756C73.868 32.4898 73.8397 32.6091 73.8397 32.8526C74.3472 32.8526 74.8547 32.8526 75.3777 32.8526C75.3587 32.3263 75.3587 32.3264 75.2117 32.1359C74.7817 31.8459 74.3487 31.9479 73.9795 32.2756Z" fill="white"/>
<path d="M154.447 31.2659C154.793 31.2659 155.14 31.2659 155.496 31.2659C155.696 31.7219 155.884 32.1808 156.064 32.6451C156.088 32.7068 156.113 32.7684 156.137 32.8319C156.27 33.1719 156.385 33.5078 156.475 33.8622C156.632 33.6195 156.702 33.3803 156.781 33.104C156.804 33.0253 156.804 33.0253 156.828 32.9449C156.876 32.7775 156.925 32.6099 156.973 32.4423C157.006 32.3286 157.039 32.2149 157.072 32.1013C157.153 31.8229 157.233 31.5444 157.314 31.2659C157.683 31.2659 158.052 31.2659 158.432 31.2659C158.065 32.4227 157.696 33.579 157.292 34.7231C157.266 34.8006 157.239 34.878 157.211 34.9578C156.973 35.6231 156.705 36.2628 156.125 36.6748C155.881 36.759 155.684 36.7565 155.427 36.7559C155.339 36.7562 155.253 36.7563 155.164 36.7565C154.937 36.7469 154.937 36.7469 154.727 36.6748C154.727 36.4368 154.727 36.1988 154.727 35.9536C154.779 35.9474 154.83 35.9412 154.883 35.9347C155.211 35.8861 155.446 35.8444 155.723 35.6516C155.857 35.4303 155.857 35.348 155.814 35.0985C155.733 34.7696 155.602 34.4587 155.478 34.145C155.449 34.0694 155.42 33.9938 155.39 33.9158C155.296 33.6754 155.201 33.4352 155.107 33.195C155.012 32.9538 154.918 32.7126 154.824 32.4711C154.766 32.3211 154.707 32.1713 154.649 32.0215C154.622 31.9539 154.595 31.8862 154.568 31.8165C154.545 31.7571 154.521 31.6976 154.497 31.6362C154.447 31.4822 154.447 31.4822 154.447 31.2659Z" fill="white"/>
<path d="M111.934 31.1668C111.983 31.1651 112.032 31.1632 112.082 31.1614C112.443 31.1593 112.645 31.247 112.922 31.4823C113.159 31.8056 113.281 32.0495 113.279 32.4539C113.279 32.5189 113.279 32.5838 113.279 32.6507C113.279 32.7206 113.278 32.7905 113.278 32.8625C113.278 32.9342 113.278 33.0059 113.278 33.0798C113.278 33.3091 113.277 33.5384 113.276 33.7676C113.275 33.923 113.275 34.0783 113.275 34.2337C113.274 34.6147 113.273 34.9957 113.272 35.3768C112.925 35.3768 112.579 35.3768 112.223 35.3768C112.221 35.2442 112.221 35.2442 112.219 35.1088C112.214 34.781 112.207 34.4532 112.201 34.1254C112.198 33.9834 112.196 33.8415 112.194 33.6995C112.19 33.4956 112.186 33.2917 112.182 33.0878C112.181 33.0243 112.18 32.9607 112.18 32.8953C112.178 32.8361 112.177 32.7769 112.175 32.7159C112.174 32.6639 112.174 32.6118 112.173 32.5582C112.16 32.3964 112.16 32.3964 112.013 32.2035C111.697 32.0946 111.446 32.1024 111.143 32.2441C110.842 32.5406 110.809 32.8665 110.798 33.2865C110.797 33.3659 110.797 33.3659 110.796 33.447C110.794 33.5024 110.793 33.5579 110.792 33.615C110.788 33.7905 110.784 33.9661 110.781 34.1417C110.779 34.2614 110.776 34.381 110.772 34.5007C110.766 34.7927 110.76 35.0848 110.755 35.3768C110.409 35.3768 110.063 35.3768 109.706 35.3768C109.706 34.0202 109.706 32.6636 109.706 31.2659C110.006 31.2659 110.306 31.2659 110.615 31.2659C110.661 31.3849 110.707 31.5039 110.755 31.6266C110.806 31.582 110.859 31.5373 110.912 31.4914C111.254 31.2188 111.504 31.1676 111.934 31.1668Z" fill="white"/>
<path d="M123.777 31.3907C124.051 31.6013 124.215 31.7997 124.307 32.1491C124.316 32.3475 124.316 32.3475 124.245 32.4917C124.087 32.5014 123.929 32.5084 123.77 32.5142C123.637 32.5205 123.637 32.5205 123.501 32.527C123.424 32.5153 123.346 32.5037 123.267 32.4917C123.14 32.3145 123.14 32.3145 123.057 32.1311C122.895 32.0472 122.793 32.0471 122.612 32.0455C122.558 32.0444 122.504 32.0434 122.448 32.0424C122.273 32.0606 122.16 32.1129 122.009 32.2032C122.025 32.3449 122.025 32.3449 122.079 32.4917C122.267 32.5794 122.441 32.6464 122.638 32.7081C122.69 32.7251 122.742 32.742 122.796 32.7595C123.12 32.8646 123.12 32.8646 123.445 32.9659C123.851 33.0983 124.101 33.2678 124.336 33.6465C124.447 33.9688 124.438 34.3315 124.343 34.6576C124.172 35.0121 123.892 35.2161 123.547 35.3765C122.909 35.5564 122.053 35.5528 121.451 35.2574C121.173 35.0668 120.969 34.8177 120.82 34.5111C120.82 34.3445 120.82 34.1779 120.82 34.0063C121.167 34.0063 121.512 34.0063 121.869 34.0063C121.915 34.149 121.961 34.2918 122.009 34.439C122.352 34.6429 122.75 34.5978 123.127 34.5111C123.174 34.4635 123.219 34.4158 123.267 34.3668C123.245 34.1791 123.245 34.1791 123.197 34.0063C123.097 33.9722 123.097 33.9722 122.995 33.9375C122.807 33.8735 122.619 33.8085 122.431 33.7431C122.262 33.6842 122.093 33.6285 121.922 33.5752C121.484 33.4317 121.203 33.2644 120.96 32.8523C120.843 32.4891 120.853 32.2245 120.995 31.8697C121.191 31.5487 121.508 31.3319 121.86 31.2265C122.448 31.0963 123.245 31.0847 123.777 31.3907Z" fill="white"/>
<path d="M136.192 31.1579C136.274 31.1584 136.274 31.1584 136.358 31.159C136.809 31.1728 137.17 31.2589 137.529 31.5546C137.81 31.8716 137.82 32.0744 137.809 32.4921C137.65 32.5018 137.491 32.5088 137.332 32.5146C137.2 32.5209 137.2 32.5209 137.065 32.5273C136.987 32.5157 136.91 32.5041 136.83 32.4921C136.707 32.3149 136.707 32.3149 136.621 32.1315C136.308 32.024 135.995 32.0137 135.681 32.1134C135.542 32.2283 135.537 32.3163 135.502 32.4921C135.806 32.6005 136.109 32.7036 136.42 32.7879C137.577 33.1059 137.577 33.1059 137.909 33.673C138.005 34.1364 137.981 34.4775 137.757 34.8895C137.51 35.2458 137.157 35.3509 136.76 35.449C136.564 35.4698 136.372 35.4731 136.175 35.4715C136.122 35.4712 136.07 35.4709 136.016 35.4707C135.469 35.4591 134.989 35.3645 134.593 34.9442C134.371 34.5893 134.383 34.4614 134.383 34.0066C134.729 34.0066 135.075 34.0066 135.432 34.0066C135.478 34.1494 135.524 34.2922 135.572 34.4394C135.916 34.6433 136.313 34.5982 136.69 34.5114C136.736 34.4639 136.783 34.4162 136.83 34.3672C136.808 34.1795 136.808 34.1795 136.76 34.0066C136.712 33.9918 136.665 33.977 136.615 33.9617C136.395 33.8926 136.176 33.8211 135.956 33.7497C135.881 33.7264 135.806 33.7031 135.728 33.6791C135.243 33.5191 134.856 33.3325 134.523 32.9248C134.406 32.5622 134.411 32.2512 134.536 31.8971C134.918 31.2987 135.537 31.1522 136.192 31.1579Z" fill="white"/>
<path d="M61.2568 31.266C61.626 31.266 61.9951 31.266 62.3754 31.266C62.4712 31.5417 62.5669 31.8174 62.6626 32.0931C62.6951 32.1867 62.7275 32.2801 62.76 32.3737C62.9402 32.8921 63.118 33.4109 63.2842 33.9344C63.3093 33.8562 63.3344 33.7779 63.3601 33.6972C63.4528 33.4078 63.5458 33.1184 63.6388 32.8291C63.6791 32.7037 63.7193 32.5783 63.7595 32.4528C63.8171 32.2729 63.8749 32.0929 63.9328 31.9131C63.9508 31.8567 63.9688 31.8003 63.9873 31.7422C64.1152 31.3463 64.1152 31.3463 64.193 31.266C64.37 31.2607 64.545 31.2593 64.7218 31.2615C64.7963 31.262 64.7963 31.262 64.8724 31.2625C64.9955 31.2634 65.1186 31.2646 65.2417 31.266C65.0991 31.7792 64.9341 32.2804 64.754 32.7808C64.7281 32.8532 64.7022 32.9257 64.6754 33.0003C64.6212 33.1519 64.5667 33.3035 64.5123 33.455C64.4285 33.688 64.3452 33.9211 64.2619 34.1543C64.2089 34.302 64.156 34.4496 64.103 34.5974C64.078 34.6673 64.053 34.7372 64.0273 34.8093C64.0041 34.8733 63.9811 34.9374 63.9573 35.0034C63.9267 35.0883 63.9267 35.0883 63.8956 35.1749C63.8435 35.3047 63.8435 35.3047 63.7736 35.3768C63.5967 35.3821 63.4217 35.3835 63.2449 35.3814C63.1952 35.381 63.1455 35.3807 63.0943 35.3803C62.9712 35.3795 62.848 35.3782 62.725 35.3768C62.4142 34.6378 62.1429 33.884 61.8712 33.1291C61.7935 32.9136 61.7155 32.6983 61.6374 32.483C61.588 32.3461 61.5386 32.2092 61.4892 32.0723C61.4659 32.0079 61.4425 31.9436 61.4185 31.8772C61.3972 31.818 61.3759 31.7586 61.354 31.6975C61.3352 31.6454 61.3164 31.5932 61.2969 31.5395C61.2568 31.4102 61.2568 31.4102 61.2568 31.266Z" fill="white"/>
<path d="M45.304 31.1668C45.3846 31.1641 45.3846 31.1641 45.4669 31.1614C45.8691 31.1593 46.1719 31.2465 46.5056 31.4823C47.0598 32.0794 47.0649 32.6924 47.0649 33.5017C46.119 33.5017 45.1731 33.5017 44.1985 33.5017C44.2874 34.2425 44.2874 34.2425 44.6879 34.7278C45.0646 34.8964 45.3446 34.8846 45.7366 34.7998C46.0287 34.6659 46.1564 34.5179 46.2959 34.2229C46.3189 34.1277 46.342 34.0325 46.3657 33.9344C46.5964 33.9344 46.8271 33.9344 47.0649 33.9344C46.9808 34.4114 46.9082 34.8103 46.5127 35.1202C45.9541 35.4961 45.4115 35.4978 44.7579 35.4489C44.3504 35.3507 44.0465 35.1454 43.7944 34.8007C43.3857 34.1048 43.403 33.1745 43.5429 32.394C43.7047 31.8568 44.0125 31.5151 44.4924 31.2544C44.7648 31.17 45.021 31.1673 45.304 31.1668ZM44.3427 32.1449C44.2351 32.4137 44.2351 32.4137 44.1985 32.9968C44.9137 32.9968 45.6289 32.9968 46.3657 32.9968C46.3231 32.3695 46.3231 32.3695 46.0162 31.915C45.4275 31.5713 44.8011 31.611 44.3427 32.1449Z" fill="white"/>
<path d="M85.224 31.1668C85.3042 31.1641 85.3042 31.1641 85.3867 31.1614C85.8532 31.159 86.2041 31.2939 86.5642 31.6007C86.595 31.6389 86.6258 31.6773 86.6567 31.7167C86.6883 31.7543 86.7199 31.7918 86.7523 31.8305C87.0337 32.3073 87.0877 32.7347 87.0808 33.2808C87.0815 33.3416 87.0823 33.4023 87.0831 33.4649C87.0808 34.0631 86.959 34.6093 86.5487 35.0517C86.0861 35.4587 85.598 35.495 85.0043 35.4765C84.5524 35.4279 84.153 35.3113 83.843 34.9531C83.3495 34.181 83.304 33.292 83.4621 32.3925C83.6263 31.8565 83.9324 31.5151 84.4121 31.2544C84.6842 31.17 84.941 31.1673 85.224 31.1668ZM84.4329 32.0159C84.0874 32.4161 84.1021 32.7944 84.0967 33.3033C84.0944 33.3626 84.0921 33.4218 84.0905 33.4828C84.0859 33.9076 84.1615 34.2308 84.3982 34.5835C84.6866 34.8413 84.9256 34.9374 85.3065 34.9441C85.6435 34.8819 85.9164 34.7852 86.1455 34.5158C86.3922 34.1269 86.3722 33.756 86.3776 33.3033C86.3791 33.2407 86.3814 33.178 86.3837 33.1135C86.3876 32.6765 86.3159 32.3519 86.0761 31.9872C85.6319 31.5697 84.8647 31.6012 84.4329 32.0159Z" fill="white"/>
<path d="M152.489 30.1121C152.789 30.1121 153.088 30.1121 153.398 30.1121C153.398 30.4928 153.398 30.8736 153.398 31.2659C153.605 31.2659 153.813 31.2659 154.027 31.2659C154.027 31.5515 154.027 31.8372 154.027 32.1314C153.819 32.1314 153.612 32.1314 153.398 32.1314C153.421 32.9168 153.444 33.7022 153.468 34.5113C153.652 34.5351 153.836 34.559 154.027 34.5835C154.027 34.8453 154.027 35.107 154.027 35.3768C153.779 35.4406 153.585 35.463 153.332 35.4669C153.261 35.4688 153.189 35.4706 153.116 35.4725C152.87 35.4445 152.752 35.3924 152.559 35.2326C152.338 34.8718 152.32 34.5859 152.329 34.1738C152.329 34.0859 152.329 34.0859 152.33 33.9962C152.331 33.8103 152.334 33.6245 152.336 33.4386C152.337 33.312 152.338 33.1854 152.339 33.0588C152.341 32.7496 152.345 32.4405 152.349 32.1314C152.188 32.1314 152.026 32.1314 151.859 32.1314C151.859 31.8458 151.859 31.5602 151.859 31.2659C152.021 31.2659 152.182 31.2659 152.349 31.2659C152.395 30.8852 152.442 30.5044 152.489 30.1121Z" fill="white"/>
<path d="M70.556 30.1121C70.8559 30.1121 71.1558 30.1121 71.4648 30.1121C71.4648 30.4928 71.4648 30.8736 71.4648 31.2659C71.6725 31.2659 71.8801 31.2659 72.094 31.2659C72.094 31.5515 72.094 31.8372 72.094 32.1314C71.8864 32.1314 71.6787 32.1314 71.4648 32.1314C71.4879 32.9168 71.511 33.7022 71.5347 34.5113C71.7193 34.5351 71.9039 34.559 72.094 34.5835C72.094 34.8453 72.094 35.107 72.094 35.3768C71.699 35.4787 71.2136 35.5661 70.8323 35.3784C70.6358 35.2149 70.5021 35.042 70.4162 34.7998C70.4044 34.5933 70.3999 34.3942 70.4025 34.188C70.4028 34.0997 70.4028 34.0997 70.4031 34.0097C70.4039 33.8223 70.4057 33.635 70.4075 33.4476C70.4081 33.3204 70.4088 33.1931 70.4093 33.0658C70.4108 32.7543 70.4133 32.4429 70.4162 32.1314C70.2547 32.1314 70.0932 32.1314 69.9268 32.1314C69.9268 31.8458 69.9268 31.5602 69.9268 31.2659C70.0883 31.2659 70.2498 31.2659 70.4162 31.2659C70.4623 30.8852 70.5085 30.5044 70.556 30.1121Z" fill="white"/>
<path d="M88.0323 31.2659C88.2397 31.2659 88.4479 31.2659 88.6615 31.2659C88.663 31.3531 88.6646 31.4405 88.6654 31.5304C88.6708 31.8554 88.6769 32.1804 88.6839 32.5054C88.6862 32.6458 88.6885 32.7863 88.6908 32.9268C88.6939 33.1291 88.6985 33.3313 88.7024 33.5336C88.7031 33.5961 88.7039 33.6585 88.7047 33.7229C88.7132 34.0587 88.7386 34.3427 88.8712 34.6555C89.1434 34.8597 89.458 34.8451 89.7803 34.7997C90.0302 34.708 90.2176 34.5779 90.3857 34.3622C90.516 34.0675 90.5129 33.8047 90.5152 33.4844C90.516 33.4208 90.5175 33.3574 90.519 33.2919C90.5229 33.0898 90.5252 32.8878 90.5275 32.6857C90.5298 32.5484 90.5322 32.411 90.5345 32.2737C90.5406 31.9377 90.5453 31.6018 90.5491 31.2659C90.7797 31.2659 91.0102 31.2659 91.2485 31.2659C91.2485 32.6224 91.2485 33.979 91.2485 35.3767C91.0634 35.3767 90.8791 35.3767 90.6887 35.3767C90.654 35.1625 90.654 35.1625 90.6193 34.944C90.5584 35.0004 90.4982 35.057 90.4358 35.1152C90.0518 35.4734 89.5883 35.4812 89.0948 35.4707C88.7772 35.4395 88.559 35.3689 88.3122 35.1603C88.0084 34.7378 87.9945 34.31 88.0053 33.8013C88.0053 33.7284 88.0061 33.6557 88.0061 33.5806C88.0076 33.3499 88.0115 33.1193 88.0146 32.8885C88.0161 32.7313 88.0176 32.5742 88.0184 32.417C88.0215 32.0332 88.0269 31.6495 88.0323 31.2659Z" fill="white"/>
<path d="M78.8057 30.04C79.0749 29.9894 79.3063 29.9786 79.5747 30.04C79.7818 30.221 79.9076 30.4445 80.0457 30.6837C80.1953 30.9373 80.3555 31.1836 80.5149 31.4308C80.6043 31.5698 80.693 31.7094 80.7809 31.8494C80.8421 31.9459 80.8421 31.946 80.9046 32.0444C80.9413 32.1028 80.978 32.1613 81.0158 32.2214C81.0478 32.2632 81.0797 32.3049 81.1124 32.3478C81.1586 32.3478 81.2049 32.3478 81.2527 32.3478C81.3722 32.1917 81.3722 32.1917 81.4964 31.9895C81.5442 31.9141 81.5927 31.8386 81.6421 31.7608C81.693 31.68 81.7439 31.5993 81.794 31.5185C81.9852 31.217 82.1772 30.9166 82.3708 30.617C82.4093 30.5563 82.4471 30.4957 82.4864 30.4332C82.7363 30.0545 82.7363 30.0545 83 29.9836C83.0663 29.9904 83.1326 29.9971 83.2012 30.0039C83.2691 30.0092 83.3362 30.0143 83.4063 30.0198C83.4819 30.0298 83.4819 30.0298 83.5598 30.04C83.3369 30.4719 83.0941 30.8742 82.8165 31.2705C82.781 31.3239 82.7447 31.3773 82.7077 31.4322C82.5327 31.6916 82.3561 31.9374 82.1479 32.1698C81.3761 33.0797 81.4979 34.2332 81.5318 35.3769C81.3013 35.3769 81.0707 35.3769 80.8331 35.3769C80.8346 35.3149 80.8362 35.2527 80.8377 35.1889C80.8958 33.5696 80.8958 33.5696 80.173 32.1922C79.9543 31.9257 79.7753 31.6283 79.5878 31.3381C79.5133 31.2253 79.4386 31.1126 79.3635 31.0001C79.3288 30.9477 79.2939 30.8952 79.258 30.8412C79.1586 30.6941 79.0563 30.5496 78.9534 30.4052C78.8057 30.1843 78.8057 30.1843 78.8057 30.04Z" fill="white"/>
<path d="M147.875 29.7515C148.221 29.7515 148.567 29.7515 148.924 29.7515C148.924 31.6079 148.924 33.4642 148.924 35.3768C148.577 35.3768 148.231 35.3768 147.875 35.3768C147.875 33.5205 147.875 31.6641 147.875 29.7515Z" fill="white"/>
<path d="M55.0352 29.7515C55.3812 29.7515 55.7273 29.7515 56.0838 29.7515C56.0838 31.6079 56.0838 33.4642 56.0838 35.3768C55.7378 35.3768 55.3917 35.3768 55.0352 35.3768C55.0352 33.5205 55.0352 31.6641 55.0352 29.7515Z" fill="white"/>
<path d="M104.26 31.1894C104.464 31.1916 104.464 31.1916 104.671 31.1939C104.671 31.5271 104.671 31.8603 104.671 32.2036C104.539 32.2199 104.406 32.2363 104.27 32.2532C103.927 32.3115 103.927 32.3115 103.644 32.51C103.473 32.8802 103.472 33.2676 103.461 33.6724C103.459 33.7214 103.458 33.7704 103.456 33.821C103.451 33.976 103.448 34.131 103.444 34.2861C103.441 34.3918 103.438 34.4975 103.435 34.6033C103.427 34.8611 103.42 35.119 103.413 35.3769C103.067 35.3769 102.72 35.3769 102.364 35.3769C102.364 34.0203 102.364 32.6637 102.364 31.266C102.664 31.266 102.964 31.266 103.273 31.266C103.319 31.385 103.365 31.504 103.413 31.6266C103.478 31.5396 103.478 31.5396 103.544 31.4508C103.774 31.1645 103.911 31.1855 104.26 31.1894Z" fill="white"/>
<path d="M150.043 31.2659C150.389 31.2659 150.735 31.2659 151.092 31.2659C151.092 32.6224 151.092 33.979 151.092 35.3767C150.745 35.3767 150.4 35.3767 150.043 35.3767C150.043 34.0201 150.043 32.6635 150.043 31.2659Z" fill="white"/>
<path d="M145.708 31.2659C146.054 31.2659 146.4 31.2659 146.757 31.2659C146.757 32.6224 146.757 33.979 146.757 35.3767C146.411 35.3767 146.065 35.3767 145.708 35.3767C145.708 34.0201 145.708 32.6635 145.708 31.2659Z" fill="white"/>
<path d="M138.857 31.2659C139.203 31.2659 139.549 31.2659 139.906 31.2659C139.906 32.6224 139.906 33.979 139.906 35.3767C139.56 35.3767 139.214 35.3767 138.857 35.3767C138.857 34.0201 138.857 32.6635 138.857 31.2659Z" fill="white"/>
<path d="M132.355 31.2659C132.702 31.2659 133.048 31.2659 133.404 31.2659C133.404 32.6224 133.404 33.979 133.404 35.3767C133.058 35.3767 132.712 35.3767 132.355 35.3767C132.355 34.0201 132.355 32.6635 132.355 31.2659Z" fill="white"/>
<path d="M94.3251 31.194C94.3251 31.3843 94.3251 31.5748 94.3251 31.7709C94.2727 31.7824 94.2202 31.7938 94.1663 31.8056C93.7321 31.9069 93.7322 31.9069 93.3721 32.1631C93.1878 32.5185 93.1924 32.8673 93.1839 33.264C93.1831 33.3244 93.1816 33.3849 93.1801 33.4471C93.1754 33.6396 93.1708 33.8321 93.1669 34.0247C93.1639 34.1554 93.1608 34.2861 93.1577 34.4168C93.1508 34.7369 93.143 35.0569 93.1361 35.3769C92.9055 35.3769 92.675 35.3769 92.4375 35.3769C92.4375 34.0203 92.4375 32.6637 92.4375 31.266C92.6218 31.266 92.8068 31.266 92.9965 31.266C93.0428 31.3613 93.0891 31.4565 93.1361 31.5546C93.1901 31.4951 93.2433 31.4356 93.298 31.3742C93.6011 31.1066 93.9473 31.1628 94.3251 31.194Z" fill="white"/>
<path d="M193.598 15.3467C193.848 15.34 193.848 15.34 194.104 15.3332C194.182 15.3303 194.182 15.3303 194.262 15.3272C194.477 15.3245 194.627 15.3365 194.818 15.4403C194.925 15.5631 194.925 15.5631 194.948 15.811C194.925 16.0679 194.925 16.0679 194.881 16.2096C194.848 16.4035 194.898 16.4846 194.991 16.6539C195.135 16.9212 195.135 16.9212 195.135 17.0776C194.773 17.1284 194.773 17.1284 194.576 17.0776C194.454 16.9384 194.379 16.8009 194.297 16.6339C194.236 16.4884 194.236 16.4884 194.087 16.4285C194.087 16.6427 194.087 16.8569 194.087 17.0776C193.925 17.0776 193.763 17.0776 193.598 17.0776C193.598 16.5064 193.598 15.9352 193.598 15.3467ZM194.087 15.7073C194.087 15.8263 194.087 15.9453 194.087 16.0679C194.179 16.0679 194.272 16.0679 194.366 16.0679C194.39 15.9965 194.413 15.9251 194.437 15.8516C194.39 15.804 194.344 15.7564 194.296 15.7073C194.227 15.7073 194.158 15.7073 194.087 15.7073Z" fill="white"/>
<path d="M119.212 30.0398C119.558 30.0398 119.905 30.0398 120.261 30.0398C120.267 30.2457 120.271 30.4514 120.274 30.6574C120.276 30.7151 120.278 30.7727 120.279 30.8321C120.285 31.3254 120.201 31.6596 119.885 32.0457C119.64 32.2562 119.462 32.3476 119.143 32.3476C119.12 32.1088 119.12 32.1088 119.143 31.8429C119.259 31.7702 119.376 31.6982 119.492 31.6265C119.566 31.4345 119.596 31.2545 119.632 31.0495C119.494 31.0495 119.355 31.0495 119.212 31.0495C119.212 30.7163 119.212 30.3831 119.212 30.0398Z" fill="white"/>
<path d="M150.043 29.7515C150.389 29.7515 150.735 29.7515 151.092 29.7515C151.092 30.0609 151.092 30.3702 151.092 30.6891C150.745 30.6891 150.4 30.6891 150.043 30.6891C150.043 30.3796 150.043 30.0703 150.043 29.7515Z" fill="white"/>
<path d="M145.708 29.7515C146.054 29.7515 146.4 29.7515 146.757 29.7515C146.757 30.0609 146.757 30.3702 146.757 30.6891C146.411 30.6891 146.065 30.6891 145.708 30.6891C145.708 30.3796 145.708 30.0703 145.708 29.7515Z" fill="white"/>
<path d="M138.857 29.7515C139.203 29.7515 139.549 29.7515 139.906 29.7515C139.906 30.0609 139.906 30.3702 139.906 30.6891C139.56 30.6891 139.214 30.6891 138.857 30.6891C138.857 30.3796 138.857 30.0703 138.857 29.7515Z" fill="white"/>
<path d="M132.355 29.7515C132.702 29.7515 133.048 29.7515 133.404 29.7515C133.404 30.0609 133.404 30.3702 133.404 30.6891C133.058 30.6891 132.712 30.6891 132.355 30.6891C132.355 30.3796 132.355 30.0703 132.355 29.7515Z" fill="white"/>
</g>
<path d="M17.6339 38.9825C19.2169 38.9825 20.5002 38.7726 20.5002 38.5137C20.5002 38.2548 19.2169 38.0449 17.6339 38.0449C16.0509 38.0449 14.7676 38.2548 14.7676 38.5137C14.7676 38.7726 16.0509 38.9825 17.6339 38.9825Z" fill="white"/>
<path d="M194.333 14.5344C195.239 14.5344 195.975 15.2932 195.975 16.2292C195.975 17.1652 195.239 17.924 194.333 17.924C193.425 17.924 192.689 17.1652 192.689 16.2292C192.689 15.2932 193.425 14.5344 194.333 14.5344ZM194.332 14.9672C193.656 14.9672 193.108 15.5322 193.108 16.2293C193.108 16.9263 193.656 17.4914 194.332 17.4914C195.007 17.4914 195.556 16.9263 195.556 16.2293C195.556 15.5322 195.007 14.9672 194.332 14.9672Z" fill="white"/>
</g>
<defs>
<clipPath id="clip0_3000_1847">
<rect width="192" height="28" fill="white" transform="translate(4 11)"/>
</clipPath>
</defs>
</svg>
