<svg width="201" height="50" viewBox="0 0 201 50" fill="none" xmlns="http://www.w3.org/2000/svg">
<path d="M52.1878 7.91843C48.8408 8.79633 46.166 11.4986 45.2881 14.8731C44.904 16.3545 44.904 18.371 45.2881 19.7838C46.0699 22.6096 47.7846 24.7221 50.3086 25.9703C55.4663 28.5217 61.4881 26.1761 63.6829 20.7715L64.0807 19.7838L64.0944 20.5383C64.1081 24.434 67.8941 27.5478 71.7486 26.8619C74.3823 26.3956 76.5771 24.338 77.2081 21.7454C77.359 21.0733 77.3727 21.2516 77.3864 23.8579L77.4001 26.7111H79.1834H80.9666V20.3325V13.954H79.1834H77.4001L77.3864 16.7935C77.3864 19.5507 77.3727 19.6192 77.1807 18.8922C76.8377 17.6165 76.3027 16.67 75.3563 15.7235C73.2987 13.666 70.4043 13.1447 67.8118 14.3655C66.4126 15.0377 64.9723 16.5877 64.4922 17.9595L64.3139 18.4807H62.3112H60.3084L60.1301 19.1666C59.7049 20.8126 58.0588 22.4724 56.3167 23.0074C53.5458 23.8579 50.8024 22.5959 49.513 19.8799C49.1015 19.002 49.074 18.8785 49.074 17.3147C49.074 15.751 49.1015 15.6275 49.513 14.7359C50.1028 13.5151 51.1453 12.4177 52.2839 11.8553C53.1206 11.4438 53.2715 11.4163 54.6295 11.4163C56.0287 11.4163 56.1247 11.43 57.126 11.9239C57.8942 12.3079 58.388 12.6783 59.0053 13.3505L59.8558 14.2558L60.9806 13.4876C61.5979 13.0624 62.2837 12.5823 62.4895 12.404L62.8873 12.0885L62.3523 11.4163C60.9943 9.70167 59.0602 8.43969 57.0163 7.91843C55.6171 7.56178 53.5596 7.56178 52.1878 7.91843ZM72.2562 17.7263C73.9022 18.6865 74.1766 21.1556 72.7911 22.5547C72.1053 23.2406 71.3508 23.4875 70.2809 23.3778C69.2658 23.268 68.5251 22.7468 68.045 21.7866C67.1533 20.0308 67.9901 17.9595 69.8008 17.3833C70.4592 17.1776 71.5977 17.3285 72.2562 17.7263Z" fill="white"/>
<path d="M78.2784 7.91847C78.1275 7.97334 77.812 8.24769 77.5651 8.52203C76.454 9.79773 77.4554 11.6907 79.2249 11.6633C79.9793 11.6496 80.4457 11.3752 80.9395 10.6619C81.7626 9.44109 80.7475 7.76758 79.1837 7.79502C78.8408 7.79502 78.443 7.84989 78.2784 7.91847Z" fill="white"/>
<path d="M135.535 8.12445C135.205 8.34392 134.958 8.67314 134.808 9.08466C134.574 9.6745 134.574 9.72937 134.794 10.3192C135.342 11.7321 136.975 12.1299 138.155 11.1285C139.183 10.2643 138.978 8.61827 137.757 7.98728C137.126 7.65806 136.124 7.72665 135.535 8.12445Z" fill="white"/>
<path d="M95.2324 17.3012V26.7112H97.1528H99.0733V25.2709V23.8306H100.692C101.57 23.8306 102.708 23.7345 103.216 23.6248C105.932 23.0487 108.168 21.0048 109.018 18.3162C110.39 13.9816 108.442 9.98986 104.176 8.35751C103.271 8.00086 103.175 8.00086 99.2516 7.946L95.2324 7.89113V17.3012ZM103.161 11.8417C104.368 12.4453 105.109 13.5289 105.383 15.079C105.671 16.7113 105.164 18.3162 104.066 19.2902C103.188 20.0583 102.475 20.2641 100.623 20.2641H99.0733V15.8746V11.485H100.76C102.297 11.485 102.516 11.5125 103.161 11.8417Z" fill="white"/>
<path d="M130.759 11.3618V14.7911L130.389 14.5304C128.866 13.4879 126.672 13.4605 124.847 14.4619C123.956 14.942 122.803 16.1079 122.296 17.0407L121.884 17.8089L121.391 16.9858C119.964 14.6813 117.193 13.3645 114.642 13.7897C109.168 14.695 107.097 21.4714 111.185 25.1476C113.393 27.1229 116.535 27.5207 119.306 26.1489C120.087 25.7649 121.432 24.6538 121.432 24.3931C121.432 24.3383 120.801 23.8033 120.046 23.2135C118.867 22.3081 118.633 22.1709 118.524 22.363C118.249 22.8705 117.179 23.3232 116.151 23.3918C115.561 23.4329 115.122 23.3918 115.067 23.3095C115.026 23.2409 116.507 22.0886 118.359 20.7581C121.006 18.8514 121.72 18.3987 121.665 18.6456C121.102 20.8815 121.802 23.4741 123.407 25.1201C124.642 26.3959 126.535 27.1091 128.194 26.9308C129.031 26.8485 130.087 26.4507 130.513 26.0666C130.746 25.8609 130.759 25.8746 130.759 26.2724V26.7113H132.543H134.326V17.315V7.91873H132.543H130.759V11.3618ZM116.356 17.3836C116.631 17.4522 116.96 17.6031 117.097 17.6991C117.33 17.8774 117.166 18.0146 115.218 19.4138C114.038 20.2642 112.982 20.9913 112.872 21.0324C112.694 21.101 112.653 20.9913 112.653 20.374C112.653 18.3301 114.477 16.8624 116.356 17.3836ZM128.88 17.3973C130.087 17.7266 130.924 18.9748 130.91 20.4289C130.91 22.0475 129.909 23.2135 128.4 23.3781C126.548 23.5701 125.149 22.2807 125.135 20.3603C125.135 18.9885 125.657 18.1381 126.85 17.5757C127.604 17.219 128.098 17.1779 128.88 17.3973Z" fill="white"/>
<path d="M87.2759 13.817C86.494 13.9541 85.9728 14.1599 85.4789 14.5166L85.0811 14.7909V14.3794V13.9541H83.2979H81.5146V20.3327V26.7112H83.2979H85.0811V23.1447C85.0811 19.3176 85.136 18.9472 85.8081 18.2339C86.2334 17.7813 87.029 17.3972 87.7423 17.3012C88.8534 17.1365 89.9645 17.7675 90.4446 18.8238C90.6778 19.3176 90.7052 19.784 90.7052 23.035V26.7112H92.5022H94.2854L94.2442 22.6234C94.2031 18.7552 94.1757 18.5083 93.8876 17.7675C92.7079 14.8183 90.1291 13.2683 87.2759 13.817Z" fill="white"/>
<path d="M143.448 13.8719C141.253 14.4206 139.634 16.0118 138.825 18.4123L138.455 19.5097V16.7251L138.441 13.9542H136.726H135.012V20.3327V26.7113H136.726H138.441L138.455 23.9267L138.468 21.1558L138.77 22.116C139.209 23.5014 139.607 24.201 140.444 25.0652C141.596 26.2723 143.201 26.9856 144.765 26.9856C145.56 26.9856 146.905 26.5741 147.481 26.1763L147.906 25.8745V26.286V26.7113H149.689H151.472V20.3327V13.9542H149.689H147.906V14.3657V14.791L147.33 14.448C146.644 14.0502 145.313 13.6799 144.614 13.6936C144.353 13.6936 143.832 13.7759 143.448 13.8719ZM145.999 17.3972C147.59 17.9322 148.413 19.7566 147.851 21.4713C147.412 22.7744 146.205 23.5289 144.778 23.378C142.542 23.1448 141.404 20.4699 142.707 18.5495C143.434 17.4933 144.82 17.0132 145.999 17.3972Z" fill="white"/>
<path d="M153.105 23.5973C152.186 24.2146 152.049 25.6275 152.858 26.4231C153.612 27.1775 154.943 27.1227 155.642 26.2859C155.931 25.943 155.999 25.7235 155.999 25.1062C155.999 24.4066 155.958 24.3106 155.464 23.8168C154.984 23.3367 154.861 23.2818 154.257 23.2818C153.763 23.2818 153.434 23.3779 153.105 23.5973Z" fill="white"/>
<path d="M48.5938 35.696V42.3489H102.022H155.451V35.696V29.0432H102.022H48.5938V35.696ZM70.9254 32.9526L73.7649 35.3394L73.806 33.0212L73.8335 30.6892H74.7937H75.7539V34.9416C75.7539 37.2735 75.7127 39.1939 75.6579 39.1939C75.5893 39.1939 74.2861 38.1377 72.7361 36.8483L69.9241 34.4889L69.8829 36.7797L69.8555 39.0567H68.8953H67.9351V34.8044C67.9351 32.4587 67.9625 30.552 68.0036 30.552C68.0448 30.552 69.3617 31.6357 70.9254 32.9526ZM95.4519 31.0322C96.0966 31.3476 97.1528 32.3079 97.1528 32.5822C97.1528 32.7057 96.0143 33.5698 95.8497 33.5698C95.7948 33.5698 95.5616 33.3778 95.3284 33.1446C94.2722 32.0884 92.7496 32.0747 91.7756 33.1035C91.2955 33.6247 91.1172 34.1185 91.1172 34.9553C91.1172 36.6288 92.4615 37.7124 94.1076 37.3695C94.8209 37.2323 95.7125 36.423 95.8497 35.7783L95.9457 35.3531H96.9059H97.8661L97.7701 35.792C97.4957 37.054 96.4532 38.2886 95.2187 38.851C94.4642 39.1802 94.2584 39.2213 93.2571 39.1665C91.9814 39.0979 91.2681 38.7961 90.4451 37.9731C88.6207 36.1487 88.8401 33.0074 90.9114 31.43C92.1597 30.4835 93.9978 30.3189 95.4519 31.0322ZM115.369 33.2818L118.003 35.4903V33.0897V30.6892H118.895H119.786V34.9416C119.786 37.2735 119.745 39.1939 119.704 39.1939C119.663 39.1939 118.373 38.1377 116.823 36.862C115.287 35.5726 113.998 34.53 113.956 34.53C113.915 34.53 113.888 35.5451 113.888 36.7934V39.0567H112.996H112.105V34.777V30.5109L112.42 30.7852C112.585 30.9361 113.915 32.0609 115.369 33.2818ZM142.557 30.8401C143.16 31.1145 143.654 31.4711 143.654 31.6357C143.654 31.6906 143.339 31.9649 142.968 32.2393C142.324 32.7331 142.255 32.7468 141.981 32.541C141.528 32.2393 141.089 32.2804 140.842 32.6645C140.664 32.9251 140.65 33.0623 140.774 33.2818C140.856 33.4464 140.938 33.5698 140.966 33.5698C141.377 33.5698 142.749 33.9402 143.147 34.1597C144.134 34.7084 144.587 35.9429 144.272 37.1638C143.833 38.9058 141.802 39.7014 140.019 38.8647C139.402 38.5766 138.73 38.0142 138.867 37.9182C140.143 36.9717 140.321 36.8757 140.513 37.0815C141.089 37.6576 142.296 37.493 142.475 36.8208C142.584 36.3819 142.379 35.8195 142.049 35.6549C141.912 35.5863 141.446 35.4628 141.007 35.3668C138.551 34.8318 138.167 31.8278 140.431 30.8127C141.144 30.4835 141.789 30.4972 142.557 30.8401ZM63.5455 31.5123V32.3353H62.1738H60.8021V33.0897V33.8442H62.3796H63.9571V34.6672V35.4903H62.3796H60.8021V37.2735V39.0567H59.9105H59.0189V34.873V30.6892H61.2822H63.5455V31.5123ZM66.7005 34.873V39.0567H65.7403H64.7801V34.873V30.6892H65.7403H66.7005V34.873ZM82.6125 31.5123V32.3353H81.5151H80.4178V35.696V39.0567H79.4575H78.4973V35.696V32.3353H77.4685H76.4398V31.5123V30.6892H79.5261H82.6125V31.5123ZM87.8251 31.5123V32.3353H86.4533H85.0816V33.0897V33.8442H86.6591H88.2366V34.6672V35.4903H86.6591H85.0816V36.4505V37.4107H86.7963H88.5109V38.2337V39.0567H85.9046H83.2984V34.873V30.6892H85.5617H87.8251V31.5123ZM100.692 32.2941L100.733 33.8442H102.503H104.272L104.313 32.2941L104.354 30.7578L105.287 30.7167L106.206 30.6755V34.873V39.0567H105.246H104.286V37.2735V35.4903H102.503H100.719V37.2735V39.0567H99.7591H98.7989V34.873V30.6755L99.7316 30.7167L100.651 30.7578L100.692 32.2941ZM125.685 31.5123V32.3353H124.313H122.941V33.0897V33.8442H124.519H126.096V34.6672V35.4903H124.519H122.941V36.4505V37.4107H124.656H126.371V38.2337V39.0567H123.764H121.158V34.873V30.6892H123.421H125.685V31.5123ZM129.855 33.1446L131.076 35.5451L131.432 34.8181L131.789 34.0911L130.938 32.4725C130.458 31.5808 130.074 30.8127 130.074 30.7715C130.074 30.7304 130.527 30.6892 131.089 30.6892H132.118L133.311 33.0212C133.97 34.2969 134.56 35.3531 134.601 35.3531C134.642 35.3531 135.191 34.2969 135.794 33.0212L136.919 30.6892H137.811C138.332 30.6892 138.716 30.7441 138.716 30.8264C138.716 31.1419 134.573 39.2213 134.464 39.1116C134.395 39.043 133.984 38.3023 133.545 37.4518L132.735 35.9155L131.926 37.5478C131.473 38.4532 131.076 39.1939 131.034 39.1939C130.952 39.1939 130.335 38.0279 127.468 32.5685L126.48 30.6755L127.55 30.7167L128.634 30.7578L129.855 33.1446Z" fill="white"/>
</svg>
