<svg width="200" height="50" viewBox="0 0 200 50" fill="none" xmlns="http://www.w3.org/2000/svg">
<g clip-path="url(#clip0_2237_9995)">
<path d="M43.1835 10.4451C43.0833 10.5587 43.0699 10.8261 43.0699 12.9255C43.0699 15.0248 43.0632 15.573 42.6689 15.7736C42.5085 15.8538 42.1208 15.8739 40.3964 15.8739C38.6721 15.8739 38.2844 15.8939 38.124 15.9742C37.6963 16.1948 37.723 15.6265 37.723 25.0334C37.723 34.4402 37.723 33.5911 37.8567 33.7248C37.9903 33.8586 38.0772 33.8586 40.2962 33.8586H42.602L42.8159 34.0524L43.0365 34.2463L43.0699 36.9006C43.0966 39.1537 43.1167 39.5548 43.2036 39.6083C43.2637 39.6484 44.4668 39.6752 46.1243 39.6752C48.8646 39.6752 48.9582 39.6685 49.0852 39.5414C49.2121 39.4144 49.2188 39.3208 49.2188 36.5997C49.2188 33.8786 49.2121 33.785 49.0852 33.658C48.9582 33.531 48.8646 33.5243 46.7392 33.5243H44.5269L44.2997 33.297L44.0724 33.0696V16.9436L44.2663 16.7297L44.4601 16.509L46.7459 16.4756C48.9114 16.4422 49.0317 16.4355 49.1253 16.3151C49.2055 16.2082 49.2188 15.6934 49.2188 13.3868C49.2188 11.0802 49.2121 10.5855 49.0852 10.4584C48.9582 10.3314 48.8646 10.3247 46.1243 10.3247C43.384 10.3247 43.2838 10.3314 43.1835 10.4451Z" fill="white"/>
<path d="M82.015 10.4451C81.9147 10.5587 81.9014 10.8596 81.9014 13.4202C81.9014 15.9809 81.9147 16.275 82.0083 16.3686C82.0952 16.4622 82.396 16.4756 84.2807 16.4756C86.1655 16.4756 86.7403 16.4823 86.9408 16.9035C87.0344 17.1107 87.0478 17.8595 87.0478 25.0467C87.0478 32.2339 87.0478 32.9627 86.9141 33.1766C86.8406 33.297 86.7002 33.424 86.6066 33.4574C86.5131 33.4975 85.5172 33.5243 84.2807 33.5243C82.2756 33.5243 82.1152 33.531 82.015 33.6446C81.9147 33.7583 81.9014 34.0591 81.9014 36.6198C81.9014 39.1804 81.9147 39.4746 82.0083 39.5682C82.1019 39.6618 82.4561 39.6752 84.9491 39.6752C87.4421 39.6752 87.7896 39.6685 87.9166 39.5414C88.0436 39.4144 88.0503 39.3208 88.0503 36.8471C88.0503 34.3734 88.0637 34.2798 88.1706 34.1527C88.3979 33.8652 88.4847 33.8586 90.8441 33.8586C93.2034 33.8586 93.1165 33.8519 93.2168 33.7382C93.3237 33.6246 93.3304 32.9226 93.3304 25.0133C93.3304 17.1041 93.3103 16.3686 93.2569 16.255C93.0898 15.8873 92.9962 15.8739 90.6569 15.8739H88.5048L88.2776 15.6466L88.0503 15.4193V13.0057C88.0503 10.6791 88.0436 10.5855 87.9166 10.4584C87.7896 10.3314 87.6961 10.3247 84.9558 10.3247C82.2155 10.3247 82.1152 10.3314 82.015 10.4451Z" fill="white"/>
<path d="M107.868 16.4357C107.541 16.4892 107.133 16.5561 106.966 16.5962C103.083 17.5322 100.536 20.8951 100.536 25.1071C100.536 26.0759 100.61 26.685 100.857 27.6143C101.579 30.3488 103.577 32.4815 106.197 33.3239C107.307 33.6783 107.881 33.7585 109.238 33.7518C110.615 33.7518 111.324 33.6382 112.426 33.2504C115.16 32.2943 117.112 29.9744 117.613 27.0727C117.666 26.7786 117.686 26.5178 117.66 26.4844C117.64 26.4577 116.69 26.4443 115.561 26.451L113.502 26.471L113.315 26.9791C112.674 28.7375 111.203 29.7136 109.191 29.7136C107.855 29.7069 106.926 29.3526 106.09 28.5169C105.255 27.6811 104.887 26.8387 104.767 25.6353C104.553 23.556 105.469 21.7041 107.12 20.8884C107.788 20.5608 108.403 20.4204 109.225 20.4204C111.156 20.4204 112.654 21.4166 113.248 23.1148L113.369 23.4624L115.514 23.4825C116.697 23.4892 117.66 23.4825 117.66 23.4691C117.66 23.2685 117.406 22.2189 117.245 21.7709C116.269 19.003 114.004 17.1043 110.969 16.5093C110.207 16.3622 108.63 16.3221 107.868 16.4357Z" fill="white"/>
<path d="M189.307 16.4355C187.255 16.7363 185.584 17.5587 184.248 18.9359C183.091 20.126 182.303 21.7172 181.975 23.5157C181.808 24.4383 181.828 26.0028 182.015 26.9053C182.383 28.637 183.044 29.9541 184.141 31.1174C185.344 32.3944 186.787 33.1833 188.692 33.6045C189.574 33.7984 191.64 33.8184 192.542 33.6379C194.32 33.2769 195.75 32.5548 196.92 31.4249C198.203 30.1881 198.985 28.7239 199.373 26.8719C199.56 25.976 199.546 24.1709 199.346 23.2482C198.677 20.1461 196.739 17.8863 193.899 16.8834C192.569 16.4154 190.711 16.2349 189.307 16.4355ZM191.76 20.5205C192.522 20.6609 193.404 21.1155 193.932 21.6437C196.178 23.85 195.63 27.8614 192.896 29.2119C192.154 29.5796 191.566 29.7134 190.677 29.7134C189.287 29.7134 188.298 29.3189 187.402 28.4163C186.466 27.4803 186.079 26.4908 186.079 25.0668C186.079 23.6427 186.466 22.6532 187.402 21.7172C188.264 20.8414 189.274 20.4402 190.624 20.4269C190.958 20.4202 191.473 20.467 191.76 20.5205Z" fill="white"/>
<path d="M0.495117 25.0669V33.3974L5.69498 33.3773L10.8882 33.3573L11.356 33.1968C12.8598 32.6954 14.0027 31.6791 14.5174 30.3821C15.1456 28.8109 14.885 27.0259 13.8624 25.8893C13.5148 25.5015 12.8197 24.9934 12.3786 24.8129C12.2383 24.7527 12.1246 24.6925 12.1246 24.6725C12.1246 24.6524 12.285 24.5521 12.4789 24.4452C13.2274 24.0173 13.8423 23.2952 14.1765 22.4528C14.5107 21.6104 14.3636 21.9179 14.357 21.0889C14.357 20.2666 14.3369 20.1395 14.1698 19.6849C13.702 18.448 12.793 17.5521 11.5432 17.0975C10.5673 16.7432 10.5406 16.7432 5.33406 16.7432H0.495117V25.0669ZM9.39103 20.6075C9.84551 20.8415 10.1329 21.2694 10.1663 21.7775C10.2198 22.4461 9.69179 23.1414 9.01006 23.2952C8.8697 23.3286 7.82706 23.3621 6.69752 23.3621H4.63897V20.4203H9.03679L9.39103 20.6075ZM9.68511 26.8587C9.99924 26.9991 10.3535 27.3267 10.5005 27.6075C10.6475 27.8816 10.6409 28.4833 10.4871 28.7775C10.3267 29.0984 10.0059 29.4327 9.68511 29.5999C9.42444 29.7403 9.33087 29.747 7.03171 29.767L4.63897 29.7871V26.6982L7.03171 26.7183C9.1571 26.7384 9.4445 26.7517 9.68511 26.8587Z" fill="white"/>
<path d="M16.7363 25.0669V33.3907H29.7694V29.3792H20.8802V26.8386H28.5663V23.0946H20.8802V20.7546H29.7694V16.7432H16.7363V25.0669Z" fill="white"/>
<path d="M119.396 25.0669V33.3907H123.54V28.0421H126.548C129.876 28.0421 129.903 28.0488 130.157 28.4566C130.284 28.6639 130.291 28.7909 130.291 31.0306V33.3907H134.441L134.421 30.362C134.388 27.0927 134.388 27.0726 134 26.2971C133.78 25.8692 133.185 25.3477 132.697 25.1538C132.476 25.0736 132.296 24.98 132.296 24.96C132.296 24.9399 132.43 24.8062 132.59 24.6725C132.998 24.3382 133.452 23.6295 133.673 22.9943C133.933 22.2389 133.98 21.022 133.78 20.2264C133.305 18.3611 131.882 17.2245 129.529 16.8435C129.034 16.7632 128.025 16.7432 124.162 16.7432H119.396V25.0669ZM128.533 20.8549C128.987 20.9886 129.375 21.2895 129.602 21.6706C129.763 21.9514 129.79 22.0583 129.79 22.5263C129.79 22.9943 129.763 23.108 129.589 23.4155C129.482 23.6094 129.275 23.8568 129.128 23.9705C128.62 24.3382 128.426 24.3649 125.866 24.3649H123.54V20.7546H125.866C127.738 20.7546 128.259 20.7747 128.533 20.8549Z" fill="white"/>
<path d="M133.74 16.8234C133.773 16.8702 135.25 19.2704 137.021 22.1453L140.25 27.3869V33.3907H144.393V27.3L147.541 22.172C149.279 19.3506 150.736 16.9772 150.796 16.8903L150.89 16.7432H146.298L144.333 20.0526C143.257 21.8711 142.355 23.3621 142.335 23.3621C142.315 23.3621 141.412 21.8778 140.343 20.066L138.398 16.7766L136.046 16.7565C134.161 16.7432 133.7 16.7565 133.74 16.8234Z" fill="white"/>
<path d="M151.746 25.067V33.3908H155.89V28.5904L158.55 28.5637C161.13 28.5302 161.223 28.5236 161.838 28.3631C163.061 28.0355 163.85 27.5675 164.692 26.6783C165.113 26.237 165.3 25.9696 165.575 25.4281C166.096 24.3717 166.209 23.8836 166.209 22.5933C166.203 21.6239 166.189 21.4701 166.029 20.9352C165.401 18.876 163.997 17.5188 161.872 16.897C161.511 16.7901 161.003 16.7767 156.612 16.7566L151.746 16.7366V25.067ZM160.943 20.9352C161.35 21.1559 161.618 21.4032 161.825 21.7509C161.985 22.025 162.005 22.1253 162.005 22.6601C162.005 23.195 161.979 23.3087 161.852 23.5427C161.651 23.9238 161.324 24.238 160.929 24.4386C160.602 24.599 160.589 24.599 158.249 24.6191L155.89 24.6391V20.748L158.283 20.7681C160.595 20.7881 160.675 20.7948 160.943 20.9352Z" fill="white"/>
<path d="M166.797 18.7288L166.817 20.7212L169.51 20.7412L172.197 20.7546V33.3907H176.341V20.7546L179.034 20.7412L181.721 20.7212L181.741 18.7288L181.755 16.7432H166.783L166.797 18.7288Z" fill="white"/>
<path d="M52.4538 17.2045C52.3402 17.2714 52.2132 17.4318 52.1664 17.5522C52.113 17.7059 52.0929 19.8721 52.0929 25.3143C52.0929 33.5913 52.0729 33.2102 52.4873 33.4241C52.6677 33.5177 52.9885 33.5244 54.9669 33.5111L57.2393 33.491L57.4198 33.3038L57.6069 33.1233V17.4786L57.4198 17.2981L57.2393 17.1109L54.9468 17.0909C52.788 17.0775 52.6477 17.0842 52.4538 17.2045Z" fill="white"/>
<path d="M61.8978 17.1978C61.7909 17.3114 61.7842 17.9198 61.7842 25.1873V33.0564L61.978 33.2703L62.1718 33.491L64.4309 33.511C66.0483 33.5244 66.7434 33.5043 66.8771 33.4508C67.2848 33.2837 67.2648 33.5578 67.2648 28.0554C67.2648 22.5531 67.2714 22.8272 67.492 22.6801C67.7126 22.533 68.9691 22.6266 70.6935 22.6266H73.8147V27.8482C73.8147 31.298 73.8348 33.1099 73.8815 33.1968C74.0486 33.511 74.189 33.5244 76.7087 33.5244C79.2285 33.5244 79.0814 33.5177 79.1817 33.404C79.2886 33.2904 79.2953 32.789 79.2953 27.5206C79.2953 22.2522 79.2819 21.7575 79.1883 21.6639C79.1015 21.5703 78.7673 21.5569 76.5951 21.5569H74.1088L73.4471 19.7116C73.0795 18.6954 72.7253 17.7728 72.6651 17.6725C72.5983 17.5655 72.4245 17.3984 72.2708 17.2981L71.9834 17.1109L66.9974 17.0908C62.2119 17.0774 62.0047 17.0774 61.8978 17.1978Z" fill="white"/>
</g>
<defs>
<clipPath id="clip0_2237_9995">
<rect width="199.01" height="29.3505" fill="white" transform="translate(0.495117 10.3247)"/>
</clipPath>
</defs>
</svg>
