<svg width="200" height="50" viewBox="0 0 200 50" fill="none" xmlns="http://www.w3.org/2000/svg">
<g clip-path="url(#clip0_2270_1744)">
<path d="M163.968 12.3796C163.967 14.3913 163.961 16.4021 163.939 18.4138C163.935 18.8115 163.929 19.0641 163.868 19.2282C163.763 19.5134 163.495 19.5323 162.793 19.5712C153.837 20.0689 146.299 26.8355 144.955 35.5791C144.845 36.2883 144.736 37.0006 144.754 37.7171C144.76 37.9844 144.703 38.1243 144.553 38.1896C144.468 38.2274 144.353 38.2411 144.202 38.2401C140.595 38.2295 136.986 38.2432 133.379 38.2453C107.377 38.2548 81.3753 38.2622 55.3746 38.2716C49.1186 38.2737 42.8626 38.2716 36.6066 38.2948C36.075 38.2969 35.9757 38.1464 35.9768 37.655C35.9928 29.206 35.9949 20.757 35.9746 12.308C35.9735 11.7661 36.1219 11.6536 36.6504 11.6536C57.7649 11.6672 78.8794 11.6651 99.9928 11.6651C121.106 11.6651 142.15 11.6651 163.228 11.6672C163.581 11.6672 163.769 11.6494 163.868 11.6851C164.011 11.7356 163.969 11.8966 163.968 12.3796Z" stroke="white" stroke-width="2" stroke-miterlimit="10"/>
<path d="M101.745 25.6339C101.452 23.9547 100.034 22.6226 98.3473 22.3995C97.0438 22.227 95.7969 22.2943 94.6557 23.0277C94.5361 23.1055 94.3002 23.3012 94.2681 22.973C94.219 22.4711 93.8678 22.47 93.5112 22.4511C93.1557 22.4321 92.797 22.4521 92.4458 22.409C92.0401 22.3585 91.9312 22.4921 91.9579 22.8898C92.0807 24.6533 92.0967 26.4199 92.1148 28.1876C92.1148 29.9542 92.1223 31.7208 92.1074 33.4874C92.1052 33.8283 92.1543 34.0072 92.5622 33.9683C93.0564 33.9209 93.5571 33.9146 94.0535 33.922C94.3845 33.9272 94.4752 33.7946 94.4763 33.4874C94.4784 32.6299 94.5062 31.7734 94.5318 30.9159C94.551 30.2698 94.5585 30.2825 95.1468 30.5287C96.3947 31.0506 97.6972 31.079 98.9366 30.615C101.175 29.7764 102.151 27.9614 101.745 25.6339ZM98.5416 28.7316C98.073 29.1566 97.4943 29.205 97.0097 29.2334C96.4001 29.2366 95.9218 29.1335 95.4681 28.9062C94.9354 28.64 94.6119 28.2307 94.5617 27.6415C94.5051 26.9786 94.4731 26.3136 94.5991 25.655C94.7635 24.7985 95.3934 24.1462 96.2688 24.0515C97.8434 23.881 98.6238 24.2377 99.1469 25.2941C99.7064 26.4252 99.432 27.9266 98.5416 28.7316Z" fill="white"/>
<path d="M109.894 26.9795C109.894 26.5587 109.895 26.2883 109.894 26.0178C109.882 23.9187 109.879 21.8207 109.848 19.7227C109.842 19.3554 109.938 19.2176 110.315 19.2607C110.768 19.3123 111.374 19.0682 111.636 19.3691C111.858 19.6248 111.707 20.2024 111.705 20.637C111.696 23.7672 111.674 26.8975 111.679 30.0288C111.679 30.4517 111.607 30.6064 111.118 30.6569C110.309 30.74 109.804 30.5128 109.376 29.8078C108.01 27.5593 106.582 25.3466 105.174 23.1222C105.078 22.9697 105.021 22.7782 104.779 22.6477C104.779 23.621 104.779 24.5395 104.779 25.4591C104.779 27.0511 104.769 28.642 104.786 30.2339C104.791 30.5927 104.713 30.7221 104.318 30.6874C103.384 30.6043 103.382 30.6232 103.377 29.6857C103.358 26.3808 103.345 23.0749 103.308 19.77C103.303 19.3512 103.425 19.2797 103.836 19.2534C104.658 19.1997 105.145 19.4996 105.572 20.2077C106.842 22.3089 108.198 24.3596 109.522 26.4303C109.613 26.5713 109.709 26.7091 109.893 26.9816L109.894 26.9795Z" fill="white"/>
<path d="M126.862 25.5235C126.567 26.3642 126.277 27.1786 125.997 27.9961C125.737 28.7569 125.482 29.5186 125.237 30.2846C125.164 30.514 125.062 30.6108 124.794 30.6182C123.402 30.6592 123.404 30.6687 123.018 29.3871C122.367 27.2301 121.725 25.069 121.051 22.9183C120.906 22.4532 120.984 22.3038 121.492 22.2902C122.895 22.2533 122.894 22.2365 123.253 23.5738C123.556 24.7039 123.86 25.8339 124.169 26.9629C124.227 27.1775 124.304 27.388 124.418 27.7436C124.827 26.4589 125.188 25.3204 125.551 24.183C125.721 23.6506 125.907 23.1224 126.059 22.5848C126.124 22.3543 126.241 22.2954 126.47 22.2849C127.77 22.2218 127.767 22.2165 128.154 23.437C128.53 24.6197 128.908 25.8002 129.288 26.9818C129.339 27.1418 129.404 27.2975 129.519 27.6089C129.651 27.1986 129.741 26.9303 129.821 26.6599C130.204 25.352 130.601 24.0483 130.953 22.7321C131.051 22.3649 131.214 22.2523 131.577 22.2838C131.947 22.3165 132.322 22.3091 132.695 22.3049C132.994 22.3017 133.053 22.4006 132.958 22.6858C132.115 25.2036 131.283 27.7268 130.452 30.2488C130.371 30.4961 130.216 30.6013 129.96 30.6476C129.045 30.816 128.695 30.6403 128.409 29.7975C127.987 28.5569 127.582 27.3112 127.162 26.0696C127.102 25.8939 127.088 25.6908 126.865 25.5235H126.862Z" fill="white"/>
<path d="M46.0691 19.3155C46.8431 19.3839 47.6352 19.3323 48.3868 19.5922C48.9676 19.7921 49.0444 19.9531 48.8416 20.5328C48.8299 20.5654 48.8106 20.596 48.7978 20.6286C48.4776 21.4745 48.4797 21.464 47.6054 21.2683C46.6702 21.0589 45.7318 20.8422 44.7624 21.0442C44.155 21.1715 43.6532 21.4356 43.5016 22.0901C43.3863 22.5867 43.6777 23.0781 44.2948 23.4484C44.8766 23.7977 45.5321 23.9682 46.1684 24.186C46.9776 24.4627 47.7548 24.7984 48.4285 25.3308C49.9626 26.5439 49.9914 28.4536 48.4989 29.7163C47.6278 30.4528 46.589 30.78 45.4723 30.8768C44.0781 30.9978 42.7052 30.8768 41.3814 30.3949C40.7707 30.1729 40.7344 30.0866 40.9501 29.4606C40.9618 29.428 40.9704 29.3932 40.9821 29.3606C41.2885 28.501 41.3483 28.4589 42.1938 28.7661C43.2699 29.1576 44.3781 29.2259 45.5012 29.1218C46.5431 29.026 47.1057 28.4126 47.0769 27.5025C47.0662 27.1752 46.9242 26.9396 46.6926 26.7302C46.2506 26.3335 45.7222 26.0915 45.1691 25.8905C44.3033 25.577 43.4333 25.2729 42.6219 24.8341C40.6811 23.7841 40.5305 21.464 42.3155 20.1804C43.4418 19.3712 44.724 19.2102 46.0691 19.3144V19.3155Z" fill="white"/>
<path d="M89.8452 26.6598C89.8452 27.9014 89.8324 29.1429 89.8538 30.3835C89.8602 30.7296 89.7588 30.8475 89.4097 30.817C89.0926 30.7896 88.7691 30.7928 88.451 30.8159C88.0175 30.8464 87.6567 30.8475 87.6023 30.2709C87.5681 29.911 87.3204 30.1836 87.2307 30.2414C86.1493 30.9338 84.9557 30.9695 83.7376 30.837C82.3252 30.6823 81.1701 29.4481 81.0815 28.0603C80.9748 26.3852 80.9096 24.7091 80.9353 23.0298C80.9427 22.5679 81.1338 22.4048 81.5737 22.4248C82.1566 22.4511 82.8868 22.2301 83.2807 22.5668C83.664 22.893 83.4024 23.6201 83.4248 24.1693C83.4729 25.3046 83.491 26.4409 83.5167 27.5773C83.5401 28.5927 84.2084 29.2208 85.26 29.2103C86.476 29.1987 87.2233 28.5001 87.2606 27.3185C87.3065 25.8686 87.3546 24.4176 87.3653 22.9666C87.3685 22.5679 87.4848 22.449 87.8788 22.4784C88.3378 22.5121 88.8043 22.5174 89.2634 22.4784C89.7289 22.4374 89.8239 22.6226 89.8153 23.0424C89.7897 24.2482 89.8057 25.4551 89.8057 26.6619C89.8185 26.6619 89.8314 26.6619 89.8442 26.6619L89.8452 26.6598Z" fill="white"/>
<path d="M65.3997 30.4738C65.1809 28.6325 65.2535 26.7744 65.0869 24.9289C64.9834 23.7862 64.0621 22.7561 62.9059 22.5173C62.2269 22.3773 61.5362 22.3321 60.6288 22.3005C59.9284 22.2374 59.1053 22.5709 58.2641 22.8497C57.7036 23.036 57.7495 23.3485 57.9331 23.7746C58.2406 24.4901 58.2651 24.5111 58.8523 24.3112C59.7982 23.9903 60.7547 23.7399 61.7679 23.9819C62.2098 24.0871 62.5472 24.3165 62.7116 24.7458C62.8194 25.0278 62.7575 25.2266 62.4084 25.2582C62.0903 25.2876 61.7732 25.3213 61.4561 25.3571C60.2476 25.4928 59.0637 25.7148 58.0698 26.4682C56.6008 27.5814 56.7439 29.5132 58.3356 30.4265C59.7598 31.243 61.1604 30.9873 62.5643 30.3907C62.828 30.2781 63.113 30.0582 63.1824 30.5854C63.2027 30.7379 63.3735 30.7905 63.5176 30.7937C64.0503 30.8032 64.5831 30.8021 65.1158 30.8032C65.341 30.8042 65.4264 30.7022 65.3997 30.4738ZM60.3565 29.2954C59.9178 29.1818 59.5612 28.9587 59.4726 28.4915C59.3914 28.0549 59.6092 27.715 59.9306 27.4362C60.2935 27.1195 60.7537 27.0448 61.2063 26.9627C61.5714 26.8964 61.9419 26.8617 62.4895 26.7881C62.7917 26.707 62.8995 26.9648 62.8995 27.3646C62.8984 28.6672 61.6419 29.6268 60.3565 29.2954Z" fill="white"/>
<path d="M115.523 27.0037C116.267 27.0469 117.015 27.0153 117.761 27.0153H119.414C120.618 27.0153 120.748 26.8659 120.59 25.6717C120.574 25.5496 120.566 25.4275 120.543 25.3076C120.277 23.884 119.682 22.6361 118.136 22.2847C116.594 21.9343 115.095 22.1237 114.078 23.5378C113.062 24.952 112.779 26.5134 113.377 28.1653C113.853 29.4805 114.727 30.4422 116.195 30.6611C117.179 30.8073 118.183 30.7663 119.163 30.5538C120.16 30.337 120.244 30.156 119.979 29.1807C119.875 28.7966 119.731 28.663 119.318 28.8229C118.506 29.1375 117.658 29.1638 116.802 29.0249C116.001 28.8955 115.323 28.2895 115.127 27.5256C115.038 27.1847 115.041 26.9753 115.523 27.0037ZM115.127 25.154C115.45 24.5321 115.754 23.9019 116.566 23.7356C117.523 23.5389 118.375 24.0292 118.611 24.952C118.677 25.214 118.596 25.3392 118.319 25.3834L116.726 25.4002C116.266 25.4002 115.804 25.4044 115.344 25.397C115.197 25.3949 115.023 25.3528 115.127 25.154Z" fill="white"/>
<path d="M77.2345 26.3411C77.2345 26.9703 77.2121 27.5995 77.2409 28.2276C77.2719 28.9094 77.7117 29.264 78.4024 29.2188C79.6622 29.1367 79.6547 29.1357 79.6002 30.3636C79.5896 30.5982 79.5202 30.6918 79.2896 30.7529C78.3576 30.9991 77.4331 31.0085 76.5117 30.715C75.4709 30.3835 74.9552 29.7554 74.9061 28.6801C74.8442 27.3185 74.8047 25.956 74.793 24.5944C74.7897 24.1936 74.6627 24.0968 74.273 24.1041C73.3154 24.122 73.3154 24.1041 73.3154 23.1929C73.3154 22.6732 73.5738 22.4133 74.0905 22.4133C74.5503 22.4133 74.7873 22.1818 74.8015 21.7188C74.8243 21.0104 75.1944 20.573 75.9118 20.4068C76.7708 20.2076 77.2003 20.5358 77.2003 21.3916C77.2003 22.0734 77.5544 22.4143 78.2626 22.4143H78.4227C79.7625 22.4143 79.7465 22.4143 79.7273 23.7274C79.7219 24.0757 79.5874 24.1294 79.2874 24.1189C78.7558 24.101 78.2209 24.141 77.6903 24.1052C77.274 24.0768 77.1736 24.2335 77.1929 24.6134C77.2217 25.1889 77.2003 25.7666 77.2003 26.3432C77.2121 26.3432 77.2227 26.3432 77.2345 26.3432V26.3411Z" fill="white"/>
<path d="M51.5878 26.5851C51.5878 25.9033 51.5761 25.2204 51.5932 24.5397C51.6006 24.2388 51.5344 24.1072 51.1853 24.103C50.137 24.0894 50.169 24.0715 50.1242 23.0224C50.1018 22.5069 50.2544 22.3238 50.7647 22.4101C50.9024 22.4332 51.0498 22.4017 51.1907 22.4164C51.4757 22.4458 51.6348 22.3606 51.59 22.0481C51.5803 21.9797 51.5814 21.9071 51.59 21.8387C51.6391 21.4347 51.3786 20.8413 51.7191 20.6614C52.2946 20.3562 52.9938 20.2457 53.6707 20.2163C53.96 20.2037 53.9867 20.4541 53.9899 20.6687C53.9984 21.1411 54.0069 21.6136 53.992 22.085C53.9845 22.3354 54.071 22.4185 54.3251 22.4174C54.893 22.4174 55.462 22.4532 56.03 22.4543C56.3257 22.4543 56.4634 22.5163 56.4677 22.8615C56.4805 24.0736 56.4965 24.0736 55.2592 24.0936C54.4172 24.1076 53.9966 24.5313 53.9973 25.3646C53.9995 26.2916 53.9899 27.2185 54.0198 28.1445C54.0475 29.0293 54.3753 29.2924 55.2667 29.2135C56.315 29.1209 56.3844 29.1966 56.3609 30.2614C56.3545 30.554 56.2414 30.736 55.9595 30.7907C55.0062 30.9759 54.0496 31.0327 53.1262 30.6718C52.1985 30.3098 51.6732 29.6301 51.6465 28.6295C51.6284 27.9488 51.6433 27.2669 51.6433 26.5851C51.6252 26.5851 51.607 26.5851 51.59 26.5851H51.5878Z" fill="white"/>
<path d="M136.522 22.1691C137.111 22.1765 137.689 22.2101 138.236 22.47C138.581 22.6342 138.726 22.853 138.569 23.2192C138.549 23.2676 138.54 23.3202 138.524 23.3696C138.348 23.9427 137.971 24.1244 137.394 23.9147C136.987 23.7674 136.569 23.7021 136.137 23.7747C135.815 23.8294 135.57 23.9967 135.493 24.3219C135.411 24.6701 135.553 24.9447 135.868 25.1142C136.382 25.3898 136.907 25.6444 137.42 25.9222C138.665 26.5977 139.046 27.3048 138.881 28.6074C138.751 29.627 138.034 30.3288 136.79 30.6328C135.698 30.9001 134.643 30.757 133.611 30.3477C133.303 30.2256 133.151 30.0647 133.307 29.7101C133.459 29.3629 133.39 28.8504 133.718 28.6684C134.038 28.4916 134.384 28.881 134.731 28.9883C135.214 29.1377 135.703 29.2061 136.201 29.124C136.544 29.0672 136.857 28.9262 136.968 28.5611C137.085 28.1739 136.908 27.8845 136.609 27.6467C136.317 27.4132 135.977 27.2617 135.648 27.0901C135.256 26.886 134.858 26.6893 134.496 26.4399C133.622 25.8391 133.278 25.0016 133.511 24.1388C133.785 23.1234 134.736 22.288 135.723 22.2038C135.988 22.1817 136.255 22.1786 136.522 22.167V22.1691Z" fill="white"/>
<path d="M69.5668 23.2171C70.3654 22.6699 71.1095 22.3227 71.9699 22.289C72.7962 22.2575 72.8987 22.3522 72.8934 23.1508C72.8934 23.1687 72.8934 23.1855 72.8934 23.2034C72.8827 24.1135 72.8827 24.1177 71.9827 24.1482C71.0742 24.1798 69.9682 24.7259 69.9511 26.0053C69.9319 27.4205 69.8316 28.8347 69.8113 30.2498C69.8049 30.6718 69.664 30.7907 69.2679 30.7791C68.8067 30.7665 68.3423 30.777 67.8833 30.818C67.516 30.8517 67.4423 30.7096 67.4445 30.3782C67.4541 28.6821 67.4381 26.986 67.4381 25.2909C67.4381 24.5039 67.4306 23.7147 67.3238 22.9351C67.2598 22.4732 67.4253 22.3553 67.8619 22.41C68.2131 22.4542 68.5708 22.4458 68.9263 22.4532C69.3576 22.4616 69.664 22.591 69.569 23.2171H69.5668Z" fill="white"/>
<path d="M162.924 19.3282C153.744 19.8364 146.018 26.7481 144.64 35.6801C144.526 36.404 144.415 37.1321 144.434 37.8644C144.44 38.1369 144.381 38.28 144.228 38.3474H164.025V18.9778C163.918 19.2692 163.642 19.2882 162.923 19.3282H162.924ZM159.539 27.7182C159.897 27.7551 160.172 27.8908 160.17 28.2643C160.167 28.6315 159.945 28.8672 159.56 28.8799C159.171 28.8935 159.016 28.6305 158.985 28.3001C158.949 27.9118 159.222 27.7814 159.539 27.7172V27.7182ZM150.164 33.4884C149.794 33.4716 149.527 33.1286 149.554 32.6919C149.579 32.2689 149.829 32.0406 150.243 32.0185C150.608 31.9996 150.9 32.3731 150.887 32.795C150.875 33.2138 150.57 33.5084 150.164 33.4895V33.4884ZM153.868 28.5337C153.742 28.5484 153.607 28.5421 153.491 28.5852C153.241 28.6768 153.132 28.8883 153.131 29.1345C153.129 29.3523 153.293 29.4375 153.495 29.4512C153.749 29.468 153.9 29.5701 153.895 29.8468C153.89 30.1193 153.793 30.2929 153.487 30.2961C153.197 30.3003 153.141 30.475 153.136 30.7233C153.126 31.4019 153.093 32.0785 153.077 32.7571C153.062 33.3653 153.067 33.3664 152.39 33.3664C151.91 33.4989 151.821 33.2222 151.843 32.7571C151.871 32.1521 151.849 31.544 151.82 30.939C151.808 30.6686 151.819 30.3939 151.533 30.1803C151.346 30.0394 151.335 29.6827 151.54 29.5627C151.852 29.3775 151.836 29.1113 151.906 28.8441C152.132 27.9792 152.876 27.5047 153.802 27.5909C154.094 27.6183 154.175 27.7551 154.163 28.0065C154.155 28.2338 154.214 28.4948 153.865 28.5358L153.868 28.5337ZM158.179 29.9468C157.734 31.2304 157.29 32.513 156.681 33.7336C156.394 34.307 155.988 34.7836 155.357 35.0246C155.17 35.0961 154.926 35.2708 154.808 34.9615C154.709 34.6995 154.477 34.4017 154.801 34.1323C155.114 33.8724 155.639 33.7157 155.663 33.3095C155.685 32.935 155.409 32.5425 155.26 32.1606C154.96 31.3946 154.668 30.6254 154.349 29.8679C154.218 29.5585 154.271 29.468 154.618 29.4596C155.511 29.4365 155.513 29.4217 155.765 30.2572C155.935 30.819 156.095 31.3861 156.299 32.0848C156.64 31.302 156.769 30.6023 156.95 29.9173C157.056 29.5122 157.853 29.2692 158.164 29.549C158.299 29.6711 158.222 29.8226 158.179 29.9489V29.9468ZM160.19 29.8773C160.147 30.3908 160.18 30.9106 160.18 31.4272C160.18 31.9438 160.165 32.4615 160.187 32.977C160.198 33.278 160.105 33.38 159.791 33.3727C158.758 33.3464 158.974 33.4453 158.961 32.6046C158.948 31.6955 158.987 30.7854 158.948 29.8773C158.924 29.3049 159.312 29.4764 159.601 29.4638C159.894 29.4501 160.234 29.3607 160.19 29.8773Z" fill="white"/>
</g>
<defs>
<clipPath id="clip0_2270_1744">
<rect width="128" height="27" fill="white" transform="translate(36 11.5)"/>
</clipPath>
</defs>
</svg>
