<svg width="200" height="50" viewBox="0 0 200 50" fill="none" xmlns="http://www.w3.org/2000/svg">
<path d="M11.0862 32.3902C12.8167 31.3817 13.0055 29.3333 13.0055 26.7175C13.0055 26.686 13.0055 26.6545 13.0055 26.6545C12.7538 26.6545 12.4706 26.6545 12.2189 26.6545C10.9603 26.6545 10.331 27.3478 10.4254 28.4508H9.82762C9.51298 27.8836 9.35566 27.2533 9.35566 26.6229C9.35566 24.1648 11.0233 23.4084 13.0055 23.0933C13.0055 22.8411 13.0055 22.589 13.0055 22.3369C13.0055 20.4775 13.8236 19.7526 14.9563 19.0278L17.4419 17.389H13.0684C10.5198 17.389 10.5198 14.3005 11.0862 12.126L11.7784 12.1575C11.9672 13.166 12.8482 13.5442 14.0753 13.5442H22.665C29.2724 13.5442 31.6008 18.0193 31.6008 24.0387C31.6008 27.3163 30.6883 30.4678 29.5241 32.8314L21.6581 37.1805C20.0849 36.046 18.2285 35.4157 16.2148 35.4157C13.9179 35.4157 11.6211 36.3296 9.92201 37.8738H9.04102C10.331 35.3842 12.565 33.2726 15.5855 32.4217C16.8126 31.2242 18.1656 30.0581 18.1656 27.6945V22.0217C18.1656 20.0363 18.5432 18.492 19.55 17.389H18.5746C17.6307 18.2714 17.0644 19.1538 17.0644 20.8872V23.3454V26.5599C17.0644 30.4678 14.2955 32.4217 11.3694 33.1466L11.0862 32.3902ZM21.5952 32.3272C23.0425 32.7054 24.3955 33.3672 25.5597 34.2496C26.6294 31.6338 27.3216 28.7345 27.3216 25.2993L21.5952 28.2302C21.5952 29.5854 21.5952 30.972 21.5952 32.3272ZM21.5952 17.4205C21.5952 19.532 21.5952 21.6436 21.5952 23.7866L26.7868 21.1393C26.2519 19.5005 25.2765 18.2399 23.7033 17.7042C23.0425 17.452 22.3189 17.4205 21.5952 17.4205ZM20.7142 32.1381C20.7142 27.2848 20.7142 22.4314 20.7142 17.5781C19.4242 18.492 19.0466 19.9102 19.0466 22.0533V27.726C19.0466 29.7114 18.1656 31.0036 17.1588 32.0751C17.6622 32.012 18.1971 31.9805 18.732 31.9805C19.3927 31.9805 20.0534 32.0436 20.7142 32.1381ZM21.5952 24.7951C21.5952 25.5829 21.5952 26.4024 21.5952 27.2217L27.3216 24.3224C27.2587 23.5029 27.1958 22.7466 27.0385 22.0533L21.5952 24.7951ZM42.3144 32.926L42.912 33.6193L38.1925 37.0229L34.7314 34.3126L33.6931 35.069L33.2212 34.4702L35.2034 33.1151V24.7951L34.1336 23.4399L32.938 24.1963L32.4975 23.5975L36.7137 20.7296L39.0106 23.2193L41.2129 20.6981H41.5277C41.8424 21.1708 42.3772 21.486 42.9436 21.486C43.6043 21.486 44.1078 21.1393 44.3594 20.6981H45.3034C44.9574 24.606 43.1323 25.1102 42.1884 25.1102C41.4961 25.1102 40.395 24.7951 39.3567 23.8181V33.1151L40.6153 34.092L42.3144 32.926ZM51.0967 32.0436L54.7151 34.4702V25.3938L51.0967 22.9987V32.0436ZM45.9679 34.7538L45.4332 34.0605L47.0378 32.7684C47.0378 30.0581 47.0378 27.3478 47.0378 24.6375L54.1172 20.572L58.6481 24.0387V32.6424L51.6946 36.8969L47.2894 33.6824L45.9679 34.7538ZM65.9561 32.0436L69.5746 34.4702V25.3938L65.9561 22.9987V32.0436ZM60.8273 34.7538L60.2926 34.0605L61.8972 32.7684C61.8972 30.0581 61.8972 27.3478 61.8972 24.6375L68.9766 20.572L73.5075 24.0387V32.6424L66.554 36.8969L62.1488 33.6824L60.8273 34.7538ZM90.5695 34.5333L87.1082 37.3381L83.9933 34.6278L85.3148 33.3987V25.646L83.1437 23.6605L81.7594 24.4799V33.3987L83.1125 34.6278L80.0919 37.3381L76.4734 34.4702L77.7005 33.3987V25.0472L76.4734 23.692L75.2779 24.4484L74.8372 23.8181L79.2108 20.8242L81.5078 23.4084L85.6295 20.8242L88.776 23.5029L93.0865 20.8242L96.3587 23.629L97.397 22.8096L97.9633 23.4714L96.3902 24.7636V32.6738L97.8689 34.1551L99.222 33.1466V34.3126L94.5652 37.3381L91.4502 34.6278L92.7717 33.3987V25.646L90.6007 23.6605L88.9332 24.669V33.0836L90.5695 34.5333ZM102.824 32.3902C104.554 31.3817 104.743 29.3333 104.743 26.7175C104.743 26.686 104.743 26.6545 104.743 26.6545C104.491 26.6545 104.208 26.6545 103.956 26.6545C102.698 26.6545 102.068 27.3478 102.163 28.4508H101.565C101.251 27.8836 101.093 27.2533 101.093 26.6229C101.093 24.1648 102.761 23.4084 104.743 23.0933C104.743 22.8411 104.743 22.589 104.743 22.3369C104.743 20.4775 105.561 19.7526 106.694 19.0278L109.179 17.389H104.806C102.257 17.389 102.257 14.3005 102.824 12.126L103.516 12.1575C103.705 13.166 104.586 13.5442 105.813 13.5442H114.402C121.01 13.5442 123.338 18.0193 123.338 24.0387C123.338 27.3163 122.426 30.4678 121.262 32.8314L113.396 37.1805C111.822 36.046 109.966 35.4157 107.952 35.4157C105.655 35.4157 103.358 36.3296 101.659 37.8738H100.779C102.068 35.3842 104.302 33.2726 107.323 32.4217C108.55 31.2242 109.903 30.0581 109.903 27.6945V22.0217C109.903 20.0363 110.281 18.492 111.287 17.389H110.312C109.368 18.2714 108.802 19.1538 108.802 20.8872V23.3454V26.5599C108.802 30.4678 106.033 32.4217 103.107 33.1466L102.824 32.3902ZM113.333 32.3272C114.78 32.7054 116.133 33.3672 117.297 34.2496C118.367 31.6338 119.059 28.7345 119.059 25.2993L113.333 28.2302C113.333 29.5854 113.333 30.972 113.333 32.3272ZM113.333 17.4205C113.333 19.532 113.333 21.6436 113.333 23.7866L118.524 21.1393C117.989 19.5005 117.014 18.2399 115.441 17.7042C114.78 17.452 114.056 17.4205 113.333 17.4205ZM112.452 32.1381C112.452 27.2848 112.452 22.4314 112.452 17.5781C111.162 18.492 110.784 19.9102 110.784 22.0533V27.726C110.784 29.7114 109.903 31.0036 108.896 32.0751C109.4 32.012 109.935 31.9805 110.469 31.9805C111.13 31.9805 111.791 32.0436 112.452 32.1381ZM113.333 24.7951C113.333 25.5829 113.333 26.4024 113.333 27.2217L119.059 24.3224C118.996 23.5029 118.933 22.7466 118.776 22.0533L113.333 24.7951ZM134.052 32.926L134.649 33.6193L129.93 37.0229L126.469 34.3126L125.431 35.069L124.959 34.4702L126.941 33.1151V24.7951L125.871 23.4399L124.675 24.1963L124.235 23.5975L128.451 20.7296L130.748 23.2193L132.95 20.6981H133.265C133.58 21.1708 134.115 21.486 134.681 21.486C135.342 21.486 135.845 21.1393 136.097 20.6981H137.041C136.695 24.606 134.87 25.1102 133.926 25.1102C133.234 25.1102 132.132 24.7951 131.094 23.8181V33.1151L132.353 34.092L134.052 32.926ZM142.834 32.0436L146.453 34.4702V25.3938L142.834 22.9987V32.0436ZM137.705 34.7538L137.171 34.0605L138.775 32.7684C138.775 30.0581 138.775 27.3478 138.775 24.6375L145.855 20.572L150.386 24.0387V32.6424L143.432 36.8969L139.027 33.6824L137.705 34.7538ZM157.694 32.0436L161.312 34.4702V25.3938L157.694 22.9987V32.0436ZM152.565 34.7538L152.03 34.0605L153.635 32.7684C153.635 30.0581 153.635 27.3478 153.635 24.6375L160.714 20.572L165.245 24.0387V32.6424L158.291 36.8969L153.886 33.6824L152.565 34.7538ZM182.307 34.5333L178.846 37.3381L175.731 34.6278L177.052 33.3987V25.646L174.881 23.6605L173.497 24.4799V33.3987L174.85 34.6278L171.829 37.3381L168.211 34.4702L169.438 33.3987V25.0472L168.211 23.692L167.015 24.4484L166.575 23.8181L170.948 20.8242L173.245 23.4084L177.367 20.8242L180.513 23.5029L184.824 20.8242L188.096 23.629L189.134 22.8096L189.701 23.4714L188.128 24.7636V32.6738L189.606 34.1551L190.959 33.1466V34.3126L186.303 37.3381L183.188 34.6278L184.509 33.3987V25.646L182.338 23.6605L180.671 24.669V33.0836L182.307 34.5333Z" fill="white"/>
</svg>
