<svg width="200" height="50" viewBox="0 0 200 50" fill="none" xmlns="http://www.w3.org/2000/svg">
<g clip-path="url(#clip0_2627_17878)">
<path d="M60.876 33.0517V17.551H68.4655C69.5835 17.551 70.5618 17.7312 71.4003 18.0945C72.2388 18.4436 72.8863 18.9364 73.3426 19.5755C73.7989 20.2147 74.0271 20.9553 74.0271 21.7972C74.0271 22.5518 73.8132 23.2191 73.3882 23.7992C72.9604 24.3792 72.4185 24.779 71.7568 24.9958V25.2126C72.5497 25.4295 73.1972 25.8659 73.6991 26.5191C74.2125 27.1724 74.4721 27.9355 74.4721 28.8055C74.4721 29.6756 74.2382 30.4105 73.7676 31.0469C73.297 31.686 72.6267 32.1788 71.7597 32.5279C70.8926 32.8771 69.8858 33.0517 68.7364 33.0517H60.8817H60.876ZM67.8266 23.909C68.5482 23.909 69.1357 23.7428 69.5921 23.4078C70.0484 23.0727 70.2766 22.6391 70.2766 22.1013C70.2766 21.5635 70.0484 21.1298 69.5921 20.7948C69.1357 20.4597 68.5482 20.2936 67.8266 20.2936H64.541V23.909H67.8266ZM67.9806 30.3091C68.7735 30.3091 69.4295 30.1289 69.9429 29.7657C70.4563 29.3884 70.7158 28.9097 70.7158 28.3297C70.7158 27.7496 70.4591 27.2991 69.9429 26.9359C69.4295 26.5586 68.7735 26.3699 67.9806 26.3699H64.5381V30.3091H67.9806ZM77.5267 20.3611C76.9534 20.3611 76.4828 20.1866 76.1149 19.8374C75.747 19.4742 75.5644 19.018 75.5644 18.4661C75.5644 17.9143 75.747 17.4637 76.1149 17.1174C76.4828 16.7542 76.9534 16.574 77.5267 16.574C78.1 16.574 78.5706 16.7542 78.9385 17.1174C79.3064 17.4666 79.4889 17.9171 79.4889 18.4661C79.4889 19.0152 79.3064 19.4742 78.9385 19.8374C78.5706 20.1866 78.1 20.3611 77.5267 20.3611ZM79.1581 33.0517H75.8924V21.9042H79.1581V33.0517ZM85.698 33.4008C84.5657 33.4008 83.6616 33.0376 82.9856 32.3111C82.3097 31.5847 81.9703 30.6358 81.9703 29.4588V24.2553H80.3817V21.9042H82.0587L82.6976 18.376H85.2559L85.2331 21.9042H87.8143V24.2553H85.2331V29.3293C85.2331 29.8079 85.3643 30.1937 85.6296 30.4837C85.9091 30.7596 86.277 30.8976 86.7333 30.8976C87.0727 30.8976 87.4606 30.8469 87.9027 30.7456V33.0545C87.5947 33.1558 87.2325 33.2347 86.8218 33.2938C86.411 33.367 86.0346 33.4036 85.6952 33.4036L85.698 33.4008ZM94.6252 33.4008C93.433 33.4008 92.3748 33.153 91.4479 32.6603C90.521 32.1675 89.7937 31.4692 89.2632 30.571C88.7469 29.67 88.4902 28.6394 88.4902 27.4793C88.4902 26.3192 88.7469 25.2718 89.2632 24.3876C89.7766 23.4866 90.4981 22.7911 91.4251 22.2984C92.352 21.8056 93.4187 21.5578 94.6223 21.5578C95.6377 21.5578 96.5561 21.738 97.3803 22.1013C98.2188 22.4504 98.9034 22.9516 99.431 23.6049C99.9615 24.2581 100.284 25.0212 100.401 25.8912L97.3575 26.2826C97.2092 25.6744 96.8783 25.1789 96.365 24.8016C95.8658 24.4102 95.2983 24.2131 94.6651 24.2131C93.8266 24.2131 93.1278 24.5172 92.5688 25.1282C92.024 25.7364 91.7531 26.522 91.7531 27.4793C91.7531 28.4367 92.024 29.2223 92.5688 29.8305C93.1135 30.4415 93.8038 30.7456 94.6423 30.7456C95.2897 30.7456 95.863 30.5569 96.3621 30.1796C96.8612 29.7882 97.1921 29.2955 97.3546 28.6985L100.421 29.0674C100.289 29.9375 99.9501 30.7005 99.4053 31.3538C98.8748 32.007 98.1903 32.5139 97.3546 32.8771C96.5304 33.2262 95.6206 33.4008 94.6195 33.4008H94.6252ZM107.605 33.4008C106.356 33.4008 105.261 33.1615 104.32 32.6828C103.378 32.19 102.642 31.5002 102.115 30.6132C101.599 29.7122 101.342 28.6676 101.342 27.4793C101.342 26.2911 101.599 25.2521 102.115 24.3651C102.645 23.4641 103.378 22.777 104.32 22.2955C105.261 21.8028 106.356 21.555 107.605 21.555C108.854 21.555 109.93 21.8028 110.871 22.2955C111.826 22.7742 112.562 23.4641 113.076 24.3651C113.606 25.2493 113.871 26.2883 113.871 27.4793C113.871 28.6704 113.606 29.715 113.076 30.6132C112.562 31.4974 111.826 32.1872 110.871 32.6828C109.93 33.1615 108.84 33.4008 107.605 33.4008ZM107.605 30.6583C108.472 30.6583 109.185 30.3598 109.744 29.7657C110.303 29.1716 110.583 28.4085 110.583 27.4793C110.583 26.5501 110.303 25.7955 109.744 25.2155C109.185 24.6213 108.472 24.3229 107.605 24.3229C106.738 24.3229 106.002 24.6213 105.443 25.2155C104.884 25.7955 104.605 26.5501 104.605 27.4793C104.605 28.4085 104.884 29.1716 105.443 29.7657C106.002 30.3598 106.724 30.6583 107.605 30.6583ZM116.932 20.3611C116.358 20.3611 115.888 20.1866 115.52 19.8374C115.152 19.4742 114.969 19.018 114.969 18.4661C114.969 17.9143 115.152 17.4637 115.52 17.1174C115.888 16.7542 116.358 16.574 116.932 16.574C117.505 16.574 117.976 16.7542 118.343 17.1174C118.711 17.4666 118.894 17.9171 118.894 18.4661C118.894 19.0152 118.709 19.4742 118.343 19.8374C117.976 20.1866 117.505 20.3611 116.932 20.3611ZM118.563 33.0517H115.297V21.9042H118.563V33.0517ZM120.514 33.0517V21.9042H123.78V23.4725H123.999C124.838 22.2111 125.933 21.5775 127.285 21.5775C128.123 21.5775 128.865 21.7803 129.512 22.1857C130.16 22.5771 130.659 23.129 131.013 23.8414C131.366 24.5369 131.543 25.3281 131.543 26.2151V33.0517H128.277V26.674C128.277 25.9785 128.086 25.4182 127.704 24.9987C127.322 24.5622 126.806 24.3454 126.158 24.3454C125.511 24.3454 124.932 24.5763 124.461 25.0409C124.005 25.5055 123.777 26.0855 123.777 26.7838V33.0545H120.511L120.514 33.0517ZM134.62 33.3135C134.061 33.3135 133.599 33.1474 133.232 32.8123C132.878 32.4632 132.701 32.0211 132.701 31.4833C132.701 30.9455 132.878 30.5119 133.232 30.1768C133.599 29.8276 134.061 29.6531 134.62 29.6531C135.18 29.6531 135.636 29.8276 135.99 30.1768C136.343 30.5119 136.52 30.9455 136.52 31.4833C136.52 32.0211 136.343 32.4632 135.99 32.8123C135.636 33.1474 135.18 33.3135 134.62 33.3135ZM143.214 33.4008C142.022 33.4008 140.964 33.153 140.037 32.6603C139.11 32.1675 138.382 31.4692 137.852 30.571C137.339 29.67 137.079 28.6394 137.079 27.4793C137.079 26.3192 137.336 25.2718 137.852 24.3876C138.365 23.4866 139.087 22.7911 140.014 22.2984C140.941 21.8056 142.008 21.5578 143.214 21.5578C144.229 21.5578 145.148 21.738 145.972 22.1013C146.81 22.4504 147.495 22.9516 148.023 23.6049C148.553 24.2581 148.875 25.0212 148.992 25.8912L145.949 26.2826C145.801 25.6744 145.47 25.1789 144.957 24.8016C144.457 24.4102 143.89 24.2131 143.257 24.2131C142.418 24.2131 141.719 24.5172 141.16 25.1282C140.616 25.7364 140.345 26.522 140.345 27.4793C140.345 28.4367 140.616 29.2223 141.16 29.8305C141.705 30.4415 142.395 30.7456 143.234 30.7456C143.881 30.7456 144.455 30.5569 144.954 30.1796C145.453 29.7882 145.784 29.2955 145.946 28.6985L149.012 29.0674C148.881 29.9375 148.542 30.7005 147.997 31.3538C147.466 32.007 146.785 32.5139 145.946 32.8771C145.122 33.2262 144.212 33.4008 143.211 33.4008H143.214ZM156.194 33.4008C154.945 33.4008 153.847 33.1615 152.908 32.6828C151.967 32.19 151.231 31.5002 150.701 30.6132C150.187 29.7122 149.928 28.6676 149.928 27.4793C149.928 26.2911 150.185 25.2521 150.701 24.3651C151.231 23.4641 151.964 22.777 152.908 22.2955C153.85 21.8028 154.945 21.555 156.194 21.555C157.443 21.555 158.518 21.8028 159.46 22.2955C160.415 22.7742 161.151 23.4641 161.667 24.3651C162.198 25.2493 162.46 26.2883 162.46 27.4793C162.46 28.6704 162.195 29.715 161.667 30.6132C161.151 31.4974 160.418 32.1872 159.46 32.6828C158.518 33.1615 157.429 33.4008 156.194 33.4008ZM156.194 30.6583C157.061 30.6583 157.774 30.3598 158.333 29.7657C158.892 29.1716 159.172 28.4085 159.172 27.4793C159.172 26.5501 158.892 25.7955 158.333 25.2155C157.774 24.6213 157.061 24.3229 156.194 24.3229C155.327 24.3229 154.591 24.6213 154.032 25.2155C153.473 25.7955 153.194 26.5501 153.194 27.4793C153.194 28.4085 153.473 29.1716 154.032 29.7657C154.591 30.3598 155.313 30.6583 156.194 30.6583ZM163.755 33.0517V21.9042H166.998V23.5598H167.217C167.54 22.9488 167.99 22.4645 168.564 22.1013C169.137 21.738 169.776 21.5578 170.483 21.5578C171.19 21.5578 171.903 21.7549 172.534 22.1463C173.181 22.5236 173.652 23.0305 173.946 23.6696H174.165C174.519 23.0164 174.995 22.5095 175.6 22.1463C176.219 21.769 176.923 21.5804 177.716 21.5804C178.509 21.5804 179.276 21.7775 179.924 22.1688C180.571 22.5461 181.079 23.084 181.447 23.7794C181.815 24.4749 181.997 25.2661 181.997 26.1531V33.0545H178.731V26.6965C178.731 26.0151 178.532 25.4548 178.135 25.0212C177.739 24.5707 177.231 24.3398 176.612 24.3257C175.979 24.3257 175.457 24.551 175.047 25.0015C174.65 25.4379 174.45 26.0039 174.45 26.6994V33.0573H171.162V26.6994C171.162 25.9729 170.979 25.4013 170.611 24.9789C170.244 24.5425 169.75 24.3257 169.134 24.3257C168.518 24.3257 167.973 24.5425 167.591 24.9789C167.209 25.4154 167.018 25.987 167.018 26.6994V33.0573H163.752L163.755 33.0517Z" fill="white"/>
<path d="M39.0969 29.1236C38.4152 31.8239 33.8119 30.3653 32.3174 29.9993L33.5267 25.2153C35.0212 25.5814 39.8071 26.3078 39.0969 29.1236Z" fill="white"/>
<path d="M39.7786 22.1209C39.1569 24.5762 35.3236 23.3288 34.0801 23.0219L35.1781 18.6829C36.4217 18.9898 40.4261 19.5586 39.7786 22.1209Z" fill="white"/>
<path d="M44.7815 8H25.6722C21.434 8 18 11.3901 18 15.5715V34.4285C18 38.6099 21.434 42 25.6722 42H44.7815C49.0169 42 52.4508 38.6099 52.4508 34.4285V15.5715C52.4508 11.3901 49.0169 8 44.7815 8ZM44.1283 22.1575C43.8402 24.0863 42.7564 25.0211 41.319 25.3477C43.2955 26.3642 44.2994 27.9213 43.3411 30.6216C42.1518 33.9723 39.3282 34.2567 35.5719 33.5556L34.6621 37.1598L32.4603 36.6163L33.3587 33.06C32.7854 32.9193 32.2036 32.77 31.6018 32.6095L30.7005 36.1827L28.4987 35.6393L29.4114 32.0267L24.9734 30.9229L26.0658 28.4366L27.6687 28.828C28.2905 28.9829 28.6071 28.5915 28.6784 28.3127L31.1511 18.5308C31.2624 18.0888 31.0171 17.489 30.1244 17.2694L28.5243 16.878L29.1119 14.555C29.1119 14.555 33.0307 15.5236 33.5526 15.6419L34.4568 12.0716L36.6586 12.615L35.7744 16.1149C36.3648 16.2473 36.9581 16.3824 37.5371 16.5232L38.4155 13.0486L40.6173 13.5892L39.7132 17.1624C42.494 18.1085 44.5248 19.5248 44.1283 22.1575Z" fill="white"/>
</g>
<defs>
<clipPath id="clip0_2627_17878">
<rect width="164" height="34" fill="white" transform="translate(18 8)"/>
</clipPath>
</defs>
</svg>
