<svg width="200" height="50" viewBox="0 0 200 50" fill="none" xmlns="http://www.w3.org/2000/svg">
<path d="M137.915 17.5676C138.619 17.5676 139.271 17.6828 139.87 17.9144C140.487 18.146 141.015 18.4664 141.456 18.8767C141.914 19.2685 142.266 19.7317 142.512 20.2665C142.758 20.8012 142.881 21.3704 142.881 21.9766C142.881 22.6529 142.811 23.2592 142.67 23.7939C142.528 24.3286 142.291 24.8448 141.956 25.3438C141.621 25.8428 141.173 26.3498 140.609 26.8673C140.063 27.3835 139.384 27.9633 138.574 28.6039C138.099 28.9785 137.615 29.3345 137.121 29.672C136.646 30.0109 136.171 30.3577 135.694 30.7137C135.236 31.0698 134.788 31.4523 134.347 31.8626C133.906 32.2544 133.493 32.6991 133.105 33.1981H140.977L140.184 36.5111H128.007C128.166 35.3886 128.438 34.4186 128.826 33.5992C129.214 32.7798 129.689 32.0413 130.253 31.3821C130.834 30.7058 131.485 30.0824 132.208 29.5119C132.931 28.9241 133.714 28.3008 134.56 27.6416C135.351 27.0182 136.021 26.4835 136.568 26.0387C137.132 25.5755 137.58 25.1572 137.915 24.7826C138.267 24.3908 138.523 24.0255 138.682 23.6867C138.84 23.3478 138.918 22.9918 138.918 22.6185C138.918 22.1553 138.752 21.7727 138.417 21.4696C138.099 21.1493 137.686 20.9892 137.175 20.9892C136.454 20.9892 135.748 21.1493 135.062 21.4696C134.375 21.7727 133.627 22.236 132.817 22.8594L131.469 19.9475C132.526 19.0752 133.582 18.4597 134.639 18.1037C135.696 17.7476 136.788 17.5689 137.915 17.5689V17.5676Z" fill="white"/>
<path d="M147.99 33.4641C148.553 33.4641 149.072 33.2948 149.549 32.9559C150.024 32.6171 150.438 32.1723 150.79 31.6204C151.16 31.0684 151.477 30.4451 151.742 29.7502C152.024 29.0381 152.253 28.3166 152.429 27.586C152.605 26.8554 152.737 26.1433 152.825 25.4484C152.913 24.7535 152.957 24.1394 152.957 23.6046C152.957 22.6966 152.817 22.0282 152.535 21.6007C152.27 21.1731 151.857 20.96 151.293 20.96C150.729 20.96 150.184 21.1295 149.709 21.4683C149.234 21.8072 148.81 22.2519 148.441 22.8038C148.072 23.3558 147.746 23.9885 147.464 24.7006C147.199 25.4127 146.98 26.134 146.804 26.8647C146.628 27.5953 146.495 28.3074 146.408 29.0023C146.319 29.6972 146.276 30.3114 146.276 30.8461C146.276 31.7726 146.417 32.4397 146.698 32.8501C146.98 33.2603 147.411 33.4641 147.992 33.4641H147.99ZM147.382 36.8844C146.519 36.8844 145.789 36.7334 145.189 36.4303C144.591 36.1101 144.097 35.6919 143.71 35.1744C143.341 34.6581 143.067 34.0783 142.891 33.4377C142.732 32.7786 142.654 32.1022 142.654 31.4073C142.654 29.3768 142.874 27.5159 143.315 25.823C143.773 24.1314 144.397 22.6701 145.19 21.4418C146 20.2122 146.969 19.2605 148.097 18.5828C149.225 17.9065 150.474 17.5676 151.848 17.5676C152.711 17.5676 153.441 17.7278 154.04 18.0481C154.638 18.3512 155.122 18.7602 155.493 19.2777C155.881 19.7939 156.154 20.3816 156.312 21.0408C156.488 21.6814 156.577 22.3498 156.577 23.0447C156.577 25.0751 156.348 26.9361 155.89 28.6291C155.449 30.3206 154.825 31.7818 154.015 33.0102C153.223 34.2398 152.262 35.1915 151.136 35.8691C150.008 36.5455 148.759 36.8844 147.385 36.8844H147.382Z" fill="white"/>
<path d="M165.301 17.5676C166.005 17.5676 166.657 17.6828 167.256 17.9144C167.872 18.146 168.402 18.4664 168.84 18.8767C169.299 19.2685 169.651 19.7317 169.898 20.2665C170.144 20.8012 170.267 21.3704 170.267 21.9766C170.267 22.6529 170.197 23.2592 170.056 23.7939C169.913 24.3286 169.677 24.8448 169.343 25.3438C169.007 25.8428 168.558 26.3498 167.995 26.8673C167.45 27.3835 166.77 27.9633 165.961 28.6039C165.485 28.9785 165.001 29.3345 164.507 29.672C164.032 30.0109 163.556 30.3577 163.08 30.7137C162.622 31.0698 162.174 31.4523 161.733 31.8626C161.292 32.2544 160.879 32.6991 160.491 33.1981H168.362L167.57 36.5111H155.392C155.55 35.3886 155.823 34.4186 156.211 33.5992C156.599 32.7798 157.074 32.0413 157.638 31.3821C158.219 30.7058 158.87 30.0824 159.593 29.5119C160.315 28.9241 161.099 28.3008 161.943 27.6416C162.736 27.0182 163.405 26.4835 163.951 26.0387C164.515 25.5755 164.964 25.1572 165.299 24.7826C165.651 24.3908 165.906 24.0255 166.065 23.6867C166.224 23.3478 166.303 22.9918 166.303 22.6185C166.303 22.1553 166.135 21.7727 165.802 21.4696C165.484 21.1493 165.071 20.9892 164.56 20.9892C163.838 20.9892 163.133 21.1493 162.446 21.4696C161.759 21.7727 161.01 22.236 160.2 22.8594L158.853 19.9475C159.909 19.0752 160.967 18.4597 162.023 18.1037C163.08 17.7476 164.171 17.5689 165.299 17.5689L165.301 17.5676Z" fill="white"/>
<path d="M38.1922 27.9023C36.6198 34.3298 30.2308 38.241 23.9239 36.6381C17.6183 35.0365 13.7799 28.5257 15.3523 22.0996C16.9248 15.6709 23.3124 11.7596 29.6193 13.3612C35.9262 14.9641 39.7646 21.4749 38.1922 27.9023ZM31.9634 23.2909C32.1977 21.6946 31.0051 20.8356 29.3745 20.2638L29.9039 18.101L28.6121 17.7728L28.0972 19.8786C27.757 19.7926 27.4089 19.7105 27.0621 19.6298L27.581 17.5107L26.2905 17.1824L25.7611 19.3439C25.4804 19.279 25.2038 19.2142 24.9365 19.1467V19.14L23.1562 18.6874L22.8121 20.093C22.8121 20.093 23.7704 20.3167 23.7505 20.3313C24.2733 20.465 24.3686 20.8171 24.3528 21.0963L23.7505 23.5596C23.7863 23.5689 23.8339 23.5821 23.8842 23.6033C23.8418 23.5927 23.7955 23.5808 23.7479 23.5689L22.9034 27.0195C22.8399 27.181 22.6771 27.4245 22.3118 27.3319C22.325 27.3504 21.3733 27.0936 21.3733 27.0936L20.7327 28.5999L22.4137 29.0275C22.7261 29.1068 23.0331 29.1915 23.3349 29.2697L22.8002 31.4575L24.0907 31.7858L24.6201 29.6218C24.9722 29.7196 25.315 29.8096 25.6499 29.8943L25.1218 32.0479L26.4136 32.3761L26.9483 30.1935C29.1508 30.6184 30.8078 30.4463 31.5041 28.4172C32.0654 26.7826 31.4764 25.8402 30.3169 25.2247C31.1613 25.0261 31.7966 24.461 31.9661 23.2922L31.9634 23.2909ZM29.0118 27.5079C28.6121 29.1425 25.9119 28.2585 25.0357 28.0373L25.7452 25.14C26.6214 25.3623 29.4287 25.8031 29.0118 27.5079ZM29.4115 23.2671C29.0475 24.7535 26.7988 23.999 26.0695 23.8137L26.7127 21.185C27.442 21.3703 29.7901 21.7158 29.4115 23.2671Z" fill="white"/>
<path d="M49.4996 20.2643C50.4539 20.2643 51.2785 20.439 51.972 20.7805C52.6683 21.126 53.2441 21.5919 53.7047 22.1769C54.16 22.7659 54.4975 23.4529 54.7173 24.2418C54.9343 25.032 55.0428 25.883 55.0428 26.7924C55.0428 28.1901 54.7913 29.511 54.2844 30.7552C53.7774 32.0021 53.0892 33.0836 52.213 34.006C51.3381 34.9273 50.3044 35.654 49.1131 36.19C47.9233 36.7274 46.6301 36.9948 45.2416 36.9948C45.0616 36.9948 44.7466 36.9895 44.3005 36.9802C43.8545 36.971 43.3423 36.9233 42.7679 36.8452C42.1907 36.7631 41.5793 36.6413 40.9347 36.4785C40.29 36.3184 39.6772 36.0947 39.1016 35.8115L44.2556 13.7376L48.8736 13.0083L47.0271 20.8414C47.4229 20.6601 47.8213 20.5198 48.2185 20.4165C48.6168 20.3159 49.043 20.263 49.4996 20.263V20.2643ZM45.6268 33.2635C46.3217 33.2635 46.9782 33.0887 47.5923 32.7472C48.2104 32.4044 48.7425 31.9426 49.1885 31.3654C49.6346 30.7871 49.988 30.1345 50.2462 29.4065C50.5042 28.6785 50.6339 27.9174 50.6339 27.1272C50.6339 26.1557 50.4738 25.3986 50.1574 24.8506C49.8397 24.3053 49.2521 24.0313 48.3997 24.0313C48.1204 24.0313 47.7591 24.0856 47.313 24.1822C46.8644 24.2854 46.4633 24.4999 46.1045 24.8215L44.139 33.1405C44.2582 33.1616 44.3627 33.1814 44.4514 33.2013C44.5388 33.2224 44.6355 33.237 44.732 33.2462C44.834 33.2582 44.9504 33.2635 45.0921 33.2635C45.2337 33.2635 45.4098 33.2635 45.6268 33.2635Z" fill="white"/>
<path d="M59.831 36.5721H55.4209L59.1455 20.6015H63.5861L59.831 36.5721ZM61.9766 18.6558C61.3611 18.6558 60.8026 18.4692 60.3075 18.0946C59.8085 17.7227 59.561 17.1495 59.561 16.3792C59.561 15.9543 59.6457 15.5572 59.8138 15.1813C59.9846 14.8068 60.2069 14.4838 60.4849 14.2098C60.7628 13.9371 61.0858 13.7201 61.4524 13.5559C61.8205 13.3945 62.2135 13.3137 62.6318 13.3137C63.2472 13.3137 63.8019 13.5004 64.2995 13.8749C64.7946 14.2508 65.0447 14.824 65.0447 15.5903C65.0447 16.0165 64.96 16.4163 64.7906 16.7909C64.6225 17.1654 64.4001 17.4884 64.1207 17.7624C63.8442 18.035 63.5185 18.2521 63.1532 18.4136C62.784 18.5777 62.3935 18.6545 61.9766 18.6545V18.6558Z" fill="white"/>
<path d="M67.4495 16.6226L72.0687 15.8933L70.9344 20.6014H75.8821L74.9886 24.3048H70.0715L68.7612 29.8918C68.6407 30.3577 68.5718 30.7918 68.552 31.1968C68.5308 31.6033 68.5812 31.9514 68.7002 32.2452C68.8181 32.539 69.0325 32.7667 69.3409 32.9268C69.6479 33.0896 70.0886 33.1717 70.6658 33.1717C71.141 33.1717 71.6055 33.1255 72.0529 33.0341C72.4989 32.9441 72.9503 32.8183 73.4069 32.6554L73.7352 36.1181C73.1395 36.3404 72.4936 36.5324 71.7987 36.6939C71.1026 36.8579 70.2779 36.9361 69.325 36.9361C67.955 36.9361 66.8922 36.7283 66.1364 36.3152C65.3806 35.8997 64.846 35.3318 64.527 34.6118C64.2119 33.8956 64.0703 33.0698 64.1101 32.1393C64.151 31.2061 64.2887 30.2266 64.527 29.193L67.4481 16.6226H67.4495Z" fill="white"/>
<path d="M75.6885 30.1953C75.6885 28.8202 75.9069 27.5229 76.3436 26.3079C76.779 25.0928 77.4078 24.0299 78.2231 23.1167C79.0344 22.2087 80.0245 21.4899 81.1893 20.9618C82.3474 20.4364 83.6459 20.1716 85.0754 20.1716C85.9701 20.1716 86.7695 20.2577 87.4737 20.4311C88.1804 20.6058 88.8198 20.8308 89.3982 21.114L87.8774 24.6388C87.4804 24.4747 87.0674 24.3304 86.6411 24.1981C86.2149 24.0644 85.6935 23.9995 85.0767 23.9995C83.6048 23.9995 82.4413 24.517 81.5745 25.5468C80.7114 26.5779 80.2773 27.9664 80.2773 29.7083C80.2773 30.7406 80.4957 31.5745 80.9339 32.2139C81.3707 32.8518 82.1767 33.1694 83.3468 33.1694C83.9238 33.1694 84.4824 33.1085 85.0157 32.9882C85.5531 32.8663 86.0283 32.7141 86.4465 32.5328L86.7762 36.1449C86.2175 36.366 85.6035 36.5645 84.9284 36.7392C84.252 36.9073 83.4474 36.9948 82.5142 36.9948C81.2819 36.9948 80.239 36.8107 79.3853 36.4493C78.5315 36.0814 77.8261 35.5943 77.2714 34.9761C76.7129 34.3568 76.3118 33.6341 76.0644 32.8041C75.8155 31.9743 75.6897 31.1033 75.6897 30.1939L75.6885 30.1953Z" fill="white"/>
<path d="M95.2788 36.9955C94.2266 36.9955 93.3119 36.8315 92.5364 36.5085C91.7633 36.1856 91.1227 35.7315 90.6158 35.1425C90.1088 34.5574 89.7289 33.8627 89.4682 33.0632C89.2075 32.2637 89.083 31.3781 89.083 30.4093C89.083 29.1929 89.275 27.9765 89.6627 26.7641C90.0479 25.549 90.6211 24.457 91.3781 23.4855C92.13 22.5127 93.0565 21.7185 94.1471 21.099C95.2378 20.4836 96.4912 20.1738 97.8996 20.1738C98.9332 20.1738 99.8426 20.338 100.629 20.6609C101.411 20.9839 102.057 21.4419 102.565 22.0269C103.07 22.6159 103.452 23.3068 103.71 24.1076C103.969 24.9057 104.098 25.7926 104.098 26.7641C104.098 27.9765 103.909 29.1929 103.533 30.4093C103.157 31.6204 102.6 32.715 101.864 33.6878C101.129 34.6581 100.21 35.4536 99.1079 36.0704C98.0067 36.6871 96.7295 36.9969 95.2788 36.9969V36.9955ZM97.4825 24.0004C96.8287 24.0004 96.2517 24.1936 95.7567 24.5762C95.2602 24.9626 94.8433 25.4484 94.5058 26.0348C94.1657 26.6238 93.9142 27.2657 93.7434 27.9633C93.5754 28.6622 93.4919 29.3239 93.4919 29.9513C93.4919 30.9652 93.6521 31.7541 93.9671 32.322C94.2874 32.8871 94.8605 33.1717 95.6958 33.1717C96.3522 33.1717 96.9266 32.9797 97.4244 32.5933C97.9181 32.2094 98.3363 31.7237 98.6751 31.1359C99.0126 30.5509 99.2668 29.9063 99.4375 29.2075C99.6043 28.51 99.689 27.8455 99.689 27.2194C99.689 26.2082 99.5289 25.418 99.2112 24.8501C98.8935 24.285 98.3164 24.0004 97.4825 24.0004Z" fill="white"/>
<path d="M108.903 36.5721H104.489L108.214 20.6015H112.656L108.903 36.5721ZM111.046 18.6558C110.431 18.6558 109.874 18.4692 109.379 18.0946C108.882 17.7227 108.632 17.1495 108.632 16.3792C108.632 15.9543 108.718 15.5572 108.886 15.1813C109.054 14.8068 109.278 14.4838 109.557 14.2098C109.834 13.9371 110.16 13.7201 110.525 13.5559C110.891 13.3945 111.283 13.3137 111.7 13.3137C112.317 13.3137 112.874 13.5004 113.371 13.8749C113.867 14.2508 114.118 14.824 114.118 15.5903C114.118 16.0165 114.03 16.4163 113.863 16.7909C113.696 17.1654 113.472 17.4884 113.195 17.7624C112.915 18.035 112.594 18.2521 112.227 18.4136C111.858 18.5777 111.466 18.6545 111.048 18.6545L111.046 18.6558Z" fill="white"/>
<path d="M115.837 21.3285C116.171 21.2292 116.545 21.1088 116.952 20.9778C117.36 20.8467 117.817 20.7263 118.325 20.6164C118.829 20.5039 119.397 20.4126 120.022 20.3411C120.648 20.2683 121.359 20.2339 122.15 20.2339C124.476 20.2339 126.08 20.9235 126.964 22.3C127.848 23.6766 128.002 25.5601 127.427 27.9479L125.398 36.5712H120.959L122.925 28.1292C123.045 27.6024 123.139 27.0928 123.209 26.5951C123.279 26.1014 123.275 25.6673 123.193 25.2901C123.115 24.9181 122.93 24.6137 122.644 24.3781C122.353 24.1465 121.913 24.03 121.316 24.03C120.719 24.03 120.157 24.0935 119.56 24.214L116.669 36.5712H112.229L115.835 21.3285H115.837Z" fill="white"/>
<path d="M170.822 32.1174C171.44 32.4933 172.103 32.7792 172.81 32.975C173.516 33.1723 174.197 33.2702 174.85 33.2702C176.123 33.2702 177.095 33.0293 177.767 32.5463C178.438 32.063 178.775 31.3126 178.775 30.2935C178.775 29.8646 178.659 29.4794 178.43 29.1405C178.201 28.7831 177.829 28.488 177.316 28.255C176.805 28.0049 176.114 27.8169 175.249 27.6912C174.401 27.5483 173.36 27.4768 172.121 27.4768C172.704 25.8143 173.261 24.1413 173.791 22.4616C174.322 20.7634 174.789 19.1632 175.194 17.6609H185L184.205 20.9871H177.659C177.483 21.6304 177.289 22.2829 177.076 22.9447C176.881 23.588 176.705 24.1333 176.547 24.5807C177.606 24.6707 178.515 24.8759 179.275 25.1975C180.052 25.5019 180.69 25.8951 181.185 26.3782C181.696 26.8613 182.077 27.4159 182.324 28.0406C182.572 28.6482 182.695 29.3006 182.695 29.9983C182.695 31.0002 182.526 31.9108 182.191 32.7341C181.874 33.5561 181.388 34.2536 180.734 34.8268C180.08 35.3985 179.268 35.8459 178.297 36.1676C177.325 36.4721 176.202 36.6229 174.93 36.6229C174.56 36.6229 174.135 36.5964 173.659 36.5422C173.182 36.4879 172.687 36.4085 172.174 36.3013C171.68 36.2112 171.185 36.0869 170.69 35.9254C170.214 35.764 169.772 35.5773 169.365 35.3615L170.824 32.116L170.822 32.1174Z" fill="white"/>
</svg>
