<svg width="200" height="50" viewBox="0 0 200 50" fill="none" xmlns="http://www.w3.org/2000/svg">
<path d="M177 22.6484L165.222 46.4993H23L35.0727 22.6484H177ZM37.4283 39.1379H43.7591C44.4864 39.1379 45.7437 37.9218 45.9115 37.1592C46.3886 34.992 44.6748 34.674 44.5217 33.9437C44.4363 33.5286 45.9145 32.548 45.2166 30.6105C44.9016 29.736 43.4322 28.832 42.5813 28.832H37.4283V39.1379ZM53.4761 28.832C51.836 28.5405 49.4686 29.0469 47.7342 28.832V39.1379H48.912C48.9768 36.1875 48.0493 34.8359 51.73 35.2923C53.7146 35.5397 53.6204 39.8004 56.2764 39.135L53.9237 35.1804C54.3889 34.5739 55.1957 34.6033 55.6551 33.9526C56.9772 32.0828 55.6992 29.2266 53.482 28.832H53.4761ZM65.696 28.832H58.0402V39.1379H65.696V37.9601H59.218V34.7211H65.1071V33.5433H59.6597C58.8411 33.5433 59.3299 30.0098 59.5124 30.0098H65.696V28.832ZM72.1269 28.8821L70.3749 29.0146L66.2849 39.1379C68.4963 39.7681 67.7631 37.5066 68.7819 36.4849C69.1882 36.0785 72.8395 36.0432 73.4519 36.2405C74.5768 36.6027 74.0673 40.0066 76.2934 39.1379L72.1269 28.8821ZM78.9465 28.832C78.5607 28.7348 77.4742 28.885 77.4742 29.2737V39.1379H78.9494C79.0849 39.0054 78.7963 36.476 79.0024 35.8047C79.0672 35.5897 80.7368 34.144 80.8604 34.141C81.4493 34.1322 84.1083 38.7905 84.6 39.0731C85.0005 39.3028 85.8102 39.0643 86.3049 39.135L82.1796 33.0957C82.1766 32.3007 85.557 29.8331 86.0134 28.832L84.2496 28.9822L78.9465 33.8377V28.832ZM88.9579 39.1379V29.2737C88.9579 28.885 87.8714 28.7348 87.4857 28.832V39.1379H88.9579ZM98.675 36.7823L92.7859 28.9792L91.0191 28.832V38.6962C91.0191 39.0849 92.1057 39.2351 92.4914 39.1379V31.1876C94.6792 33.5904 96.4989 36.4378 98.4394 39.0761L100.147 39.1379V28.832C99.7615 28.7348 98.675 28.885 98.675 29.2737V36.7823ZM111.631 33.5433H106.92C106.505 35.4455 108.024 34.5444 109.437 34.7064C111.822 34.9802 109.458 37.8158 107.355 37.966C101.625 38.3782 101.899 29.6123 107.355 29.9921C109.287 30.1276 109.746 32.1093 111.628 31.7736C109.808 27.1654 102.423 27.9575 101.911 33.0986C101.399 38.2398 106.054 41.3787 110.306 37.9601C110.668 38.1044 110.324 38.9583 110.453 39.1379C110.488 39.185 111.59 39.1821 111.628 39.1379C111.811 38.923 111.666 34.3619 111.628 33.5433H111.631ZM120.17 28.832V39.1379H121.642V31.1876L127.532 38.9907L129.298 39.1379V29.2737C129.298 28.885 128.212 28.7348 127.826 28.832V36.7823C125.576 34.4266 123.798 31.5439 121.878 28.8938C121.651 28.7672 120.232 28.7702 120.17 28.832ZM139.31 28.832H131.654V38.9907C131.654 39.7357 133.382 39.135 133.851 39.1232C135.667 39.0761 137.499 39.1909 139.313 39.135V37.9572H133.276C132.629 37.9572 132.629 34.7182 133.276 34.7182H138.429V33.2429C137.787 33.773 133.117 33.5286 132.973 33.2694C132.676 32.7482 132.699 30.0039 133.276 30.0039H139.313V28.8261L139.31 28.832ZM144.018 36.7823C143.618 36.744 143.538 36.3671 143.417 36.0609C142.985 34.9626 141.627 29.2943 141.082 28.9733C140.714 28.7584 140.299 28.8261 139.902 28.832C140.458 30.0952 142.466 38.761 142.873 39.1055C143.002 39.2174 144.436 39.2557 144.642 38.9613C145.537 37.7039 146.215 32.8866 146.969 31.1847C147.369 31.223 147.448 31.5999 147.569 31.9061C148.087 33.2164 149.15 38.1279 149.757 38.8464C150.134 39.291 151.138 39.4 151.465 38.7699C151.662 38.393 151.824 37.6863 151.977 37.2269C152.333 36.1551 154.645 29.1677 154.324 28.829C153.938 28.8791 153.376 28.6406 153.117 29.0057C152.41 30.001 151.109 36.532 150.788 36.7793C150.399 36.744 150.302 36.3642 150.184 36.0609C149.666 34.7447 148.615 29.8479 147.999 29.1176C147.716 28.7819 146.704 28.6612 146.412 28.8673C146.073 29.1029 144.38 35.7723 144.015 36.7764L144.018 36.7823ZM163.161 31.7765C163.396 27.7072 155.263 27.666 155.252 31.6293C155.24 34.9802 162.23 34.2941 162.274 36.3318C162.318 38.3694 158.449 38.3753 157.28 37.5125C156.462 36.9089 156.438 35.5308 154.922 35.8989C154.904 40.4954 163.367 40.463 163.752 36.6056C164.029 33.8495 160.087 33.6375 158.293 32.9661C154.091 31.3908 159.038 28.4875 161.417 30.7312C162.071 31.3466 161.812 32.0887 163.164 31.7765H163.161Z" fill="white"/>
<path d="M84.3939 3.80337C87.9421 4.41878 88.4073 10.9056 84.2467 11.1677C83.7284 11.7566 87.7094 16.2588 87.1912 16.7594C85.822 18.0815 83.2337 11.7537 82.6271 11.7537H78.0631V16.3177C78.0631 16.8713 76.5908 16.8713 76.5908 16.3177V3.80337C78.9406 4.08899 82.1619 3.41763 84.3939 3.80337ZM83.805 4.98119C82.1796 4.68379 79.7857 5.19909 78.0631 4.98119V10.2814H83.805C84.0729 10.2814 85.2507 9.57174 85.4451 9.2714C86.3608 7.86685 85.5158 5.29626 83.805 4.98119Z" fill="white"/>
<path d="M138.22 10.1461C138.22 13.8179 135.243 16.7919 131.575 16.7919C127.906 16.7919 124.929 13.815 124.929 10.1461C124.929 6.47718 127.903 3.50024 131.575 3.50024C135.246 3.50024 138.22 6.47718 138.22 10.1461ZM135.382 6.26223C133.497 4.27466 129.487 4.3365 127.673 6.44774C123.995 10.7232 128.212 17.2719 133.724 15.1518C137.019 13.8857 137.699 8.70621 135.382 6.26223Z" fill="white"/>
<path d="M103.681 12.0482V16.3178C103.681 16.8714 102.209 16.8714 102.209 16.3178V3.80347H109.718C110.357 3.80347 111.855 5.16679 112.153 5.78515C112.842 7.20442 112.709 9.74557 111.49 10.8792C111.134 11.209 109.211 12.0512 108.834 12.0512H103.681V12.0482ZM103.681 10.5759C106.882 10.6702 112.132 11.7538 110.978 6.66263C110.831 6.01482 109.623 4.98129 109.129 4.98129H103.681V10.5759Z" fill="white"/>
<path d="M74.2354 12.9345C70.961 19.81 61.4855 17.101 62.1657 9.25082C62.734 2.67858 71.8326 1.57438 73.991 6.84807C74.1353 7.19847 74.2913 7.52237 73.7878 7.62837C72.7955 7.84038 72.4009 6.53006 71.8503 6.03537C69.2797 3.72979 64.433 4.887 63.6968 8.42929C62.7487 12.9933 65.9848 16.9862 70.6106 15.0486C72.3774 14.3096 72.3273 12.6106 74.2324 12.9315L74.2354 12.9345Z" fill="white"/>
<path d="M93.6698 11.3121L88.6641 3.80641C89.2795 3.78874 89.7477 3.67096 90.2777 4.10381C91.0786 4.7575 93.9083 9.98407 94.403 9.98407C95.9253 8.70614 97.162 5.23157 98.5283 4.10381C99.0112 3.70629 99.9034 3.62973 100.436 3.95069C99.924 5.00778 95.1362 10.8586 95.1362 11.3121V16.3178C95.1362 16.8714 93.6639 16.8714 93.6639 16.3178V11.3121H93.6698Z" fill="white"/>
<path d="M123.998 3.80347C124.175 3.98308 123.862 4.98129 123.556 4.98129H119.287V16.3178C119.287 16.8714 117.814 16.8714 117.814 16.3178V4.98129H113.397V3.80347H123.998Z" fill="white"/>
<path d="M38.9004 37.9604V34.7214H43.4644C43.8826 34.7214 44.5981 35.9905 44.5068 36.6207C44.4361 37.1065 43.5263 37.9604 43.17 37.9604H38.9004Z" fill="white"/>
<path d="M38.9004 33.5464V30.0099C40.6848 30.0541 44.3802 29.3769 43.9091 32.2066C43.6146 33.9704 40.2107 33.4963 38.9004 33.5464Z" fill="white"/>
<path d="M49.3945 30.0512C51.1524 29.477 55.8166 30.0512 54.5828 32.8779C53.9498 34.3237 50.0629 34.5858 49.1884 34.0028C48.7615 33.7171 48.626 30.2985 49.3945 30.0482V30.0512Z" fill="white"/>
<path d="M73.0579 35.0157H69.5273L71.0026 30.6018C71.6945 30.8403 73.2375 34.8478 73.0608 35.0157H73.0579Z" fill="white"/>
</svg>
