<svg width="200" height="50" viewBox="0 0 200 50" fill="none" xmlns="http://www.w3.org/2000/svg">
<path d="M45.8824 7.8772C45.6978 8.49688 46.1765 16.4839 45.7466 16.4839H28.6878V33.5161H45.8824V42.1229H20V7.8772H45.8824Z" fill="white"/>
<path d="M180.001 26.7213V27.5367H172.398C171.943 30.3461 175.241 32.4534 176.786 29.6195L176.968 29.5298L179.593 29.711L179.816 29.846C178.238 34.0941 171.309 34.2291 169.605 30.0145C168.3 26.7874 169.029 21.8807 172.902 20.9285C176.342 20.0833 179.174 21.6017 179.794 25.1603L180 26.7204L180.001 26.7213ZM176.924 25.5436C176.858 21.8191 172.375 21.7738 172.399 25.5436H176.924Z" fill="white"/>
<path d="M140.815 21.1043L137.704 21.454C137.037 19.6547 135.548 19.4037 133.798 19.5614C132.376 19.69 130.941 20.8026 132.013 22.2603C133.292 23.9988 138.95 23.2369 140.651 26.0246C141.735 27.8012 141.412 30.3732 139.771 31.7014C136.865 34.0569 128.222 33.69 127.782 28.7144L130.891 28.2723C131.588 30.4222 133.689 30.7302 135.69 30.5146C137.139 30.3587 138.63 29.3857 137.831 27.7604C136.726 25.5145 129.201 26.83 128.548 22.4677C128.05 19.1455 130.044 17.5972 133.09 17.2204C136.142 16.8435 140.437 17.2883 140.816 21.1033L140.815 21.1043Z" fill="white"/>
<path d="M96.8328 20.923L96.9242 22.734C98.1785 20.3377 102.019 19.9581 103.757 22.0092C105.538 24.1111 105.539 29.1519 103.967 31.3715C102.296 33.7298 98.3242 33.6691 96.9242 31.0707L97.0138 37.5022H93.8464L93.7559 20.923H96.8328ZM98.9812 22.9378C95.7242 23.486 96.3984 32.7894 100.48 30.5978C102.417 29.5578 102.675 22.3154 98.9812 22.9378Z" fill="white"/>
<path d="M70.3167 21.5563L67.4769 22.2747C66.2624 19.1029 61.2307 18.8492 59.7547 21.9005C59.0099 23.4398 58.9764 25.9991 59.5221 27.6054C60.8497 31.5147 66.3674 31.3507 67.657 27.5284L70.4923 28.5386C68.9402 34.0967 60.0362 34.5207 57.1004 30.0298C55.2923 27.2639 55.3185 22.098 57.4633 19.516C60.4941 15.8677 69.1511 16.2255 70.3167 21.5563Z" fill="white"/>
<path d="M160.996 30.9793V32.7006C160.996 32.7849 159.465 32.9715 159.326 32.977C157.737 33.0377 156.707 32.504 156.561 30.799C154.388 34.4138 148.362 33.7869 148.971 28.7705C149.197 26.9042 151.081 25.6341 152.896 25.6341H156.109V24.1392C156.109 23.6346 155.477 22.9424 154.956 22.8473C153.586 22.5991 152.943 23.1508 152.705 24.4618L149.541 24.2806C149.728 20.9375 153.849 20.2417 156.47 20.9692C160.327 22.0392 159.077 26.1315 159.274 29.1248C159.362 30.4801 159.35 31.1795 160.997 30.9784L160.996 30.9793ZM156.109 27.3554H154.616C153.307 27.3554 152.164 27.7885 152.212 29.3033C152.275 31.3045 154.53 31.1532 155.515 29.8858C155.646 29.7164 156.11 28.8285 156.11 28.67V27.3563L156.109 27.3554Z" fill="white"/>
<path d="M119.349 20.769C123.981 20.2906 126.62 22.859 126.339 27.4949C126.075 31.83 122.404 33.8476 118.371 32.8374C112.653 31.4042 112.808 21.4448 119.349 20.7699V20.769ZM119.98 22.9424C116.123 23.3782 117.082 32.9742 121.602 30.5444C123.664 29.4355 123.948 22.4939 119.98 22.9424Z" fill="white"/>
<path d="M83.2136 20.9231C83.6624 21.0835 85.7882 28.9826 86.2 29.9837L88.8697 20.9231H92.2181L87.4652 33.6049C86.5312 35.7393 85.5312 37.4272 82.9457 37.5069C82.7575 37.5123 80.905 37.4235 80.905 37.3212V35.0562C82.9837 35.5464 84.0643 34.5697 84.6045 32.6536L80.0452 21.2855L80 20.9231H83.2127H83.2136Z" fill="white"/>
<path d="M110.861 18.2051V20.923H113.032V23.0973H110.861V29.8468C110.861 30.8914 112.504 30.9068 113.213 30.7075V32.7006C113.213 32.8265 110.917 33.072 110.726 33.0711C109.23 33.0603 107.693 32.2576 107.693 30.5716V23.0973H106.245V20.923H107.874L108.779 18.2051H110.861Z" fill="white"/>
<path d="M165.611 18.2051V20.923H167.783V23.0973H165.611V29.8468C165.611 30.8914 167.255 30.9068 167.964 30.7075V32.7006C167.964 32.8265 165.668 33.072 165.477 33.0711C163.981 33.0603 162.444 32.2576 162.444 30.5716V23.0973H160.996V20.923H162.625L163.53 18.2051H165.611Z" fill="white"/>
<path d="M146.788 16.5745H143.62V32.8819H146.788V16.5745Z" fill="white"/>
<path d="M79.5474 20.8326V23.5505C78.3311 23.2307 77.0877 23.2071 76.3628 24.3939C76.1972 24.6657 75.837 25.675 75.837 25.9513V32.7461L75.7013 32.882H72.6696L72.5791 20.9232H75.5655L75.7918 23.189C76.333 21.3073 77.514 20.318 79.5474 20.8326Z" fill="white"/>
</svg>
