<svg width="35" height="36" viewBox="0 0 35 36" fill="none" xmlns="http://www.w3.org/2000/svg">
<g clip-path="url(#clip0_1905_5549)">
<path d="M27.2127 0.5H7.78536C3.48508 0.5 -0.000976562 3.98606 -0.000976562 8.28633V27.7137C-0.000976562 32.0139 3.48508 35.5 7.78536 35.5H27.2127C31.513 35.5 34.999 32.0139 34.999 27.7137V8.28633C34.999 3.98606 31.513 0.5 27.2127 0.5Z" fill="url(#paint0_linear_1905_5549)"/>
<path d="M16.4303 31.1414C15.3861 30.7681 15.1621 30.2606 14.7339 27.2868C14.2358 23.8299 14.1273 21.6903 14.4154 21.0124C14.7981 20.1141 15.8364 19.6043 17.2889 19.5984C18.7298 19.5926 19.7774 20.1071 20.1624 21.0124C20.4518 21.6891 20.3433 23.8299 19.8451 27.2868C19.5068 29.7018 19.3201 30.3119 18.8534 30.7226C18.2118 31.2908 17.3018 31.4483 16.4384 31.1426L16.4303 31.1414ZM11.9701 27.5948C8.36509 25.8214 6.05509 22.8208 5.21509 18.8284C5.00509 17.7983 4.97009 15.3401 5.16843 14.3951C5.69343 11.8576 6.69676 9.87312 8.36509 8.11845C10.7684 5.58445 13.8601 4.24512 17.3018 4.24512C20.7084 4.24512 23.7884 5.55995 26.1334 8.01812C27.9184 9.87312 28.9218 11.8366 29.4351 14.4231C29.6101 15.2841 29.6101 17.6314 29.4468 18.5998C28.9101 21.6611 27.2068 24.4494 24.7218 26.3231C23.8351 26.9928 21.6651 28.1618 21.3151 28.1618C21.1868 28.1618 21.1751 28.0288 21.2334 27.4909C21.3384 26.6276 21.4434 26.4479 21.9334 26.2426C22.7151 25.9159 24.0451 24.9686 24.8618 24.1496C26.2734 22.7496 27.3118 20.9179 27.7901 18.9929C28.0934 17.7913 28.0584 15.1196 27.7201 13.8829C26.6584 9.95128 23.4501 6.89462 19.5184 6.07795C18.3751 5.84462 16.2984 5.84462 15.1434 6.07795C11.1651 6.89462 7.87509 10.1029 6.87176 14.1396C6.60343 15.2363 6.60343 17.9079 6.87176 19.0046C7.53676 21.6763 9.26343 24.1263 11.5268 25.5846C11.9701 25.8763 12.5068 26.1796 12.7284 26.2729C13.2184 26.4829 13.3234 26.6579 13.4168 27.5213C13.4751 28.0463 13.4634 28.1979 13.3351 28.1979C13.2534 28.1979 12.6584 27.9413 12.0284 27.6379L11.9701 27.5948ZM12.0168 22.8488C10.8034 21.8804 9.73009 20.1631 9.28676 18.4784C9.01843 17.4611 9.01843 15.5268 9.29843 14.5118C10.0334 11.7724 12.0518 9.64912 14.8518 8.65162C15.8084 8.31328 17.9318 8.23745 19.1101 8.49762C23.1701 9.40178 26.0518 13.4676 25.4918 17.5008C25.2701 19.1259 24.7101 20.4606 23.7184 21.7008C23.2284 22.3273 22.0384 23.3784 21.8284 23.3784C21.7934 23.3784 21.7584 22.9818 21.7584 22.4988V21.6168L22.3651 20.8934C24.6518 18.1541 24.4884 14.3274 21.9918 11.8168C21.0234 10.8391 19.9034 10.2651 18.4568 10.0003C17.5234 9.82762 17.3251 9.82762 16.3451 9.98862C14.8576 10.2313 13.7049 10.8076 12.6818 11.8203C10.1734 14.3053 10.0101 18.1518 12.2968 20.8934L12.8988 21.6168V22.5034C12.8988 22.9934 12.8603 23.3901 12.8124 23.3901C12.7658 23.3901 12.4274 23.1568 12.0658 22.8651L12.0168 22.8488ZM16.0651 18.0853C15.0268 17.6023 14.4668 16.6911 14.4551 15.5034C14.4551 14.4359 15.0501 13.5049 16.0768 12.9601C16.7301 12.6171 17.8851 12.6171 18.5384 12.9624C19.2501 13.3323 19.8334 14.0498 20.0551 14.7988C20.7318 17.0994 18.2934 19.1154 16.0884 18.0853H16.0651Z" fill="#0C0318"/>
<path d="M17.4858 18.5378C19.0928 18.5378 20.3955 17.2351 20.3955 15.6282C20.3955 14.0212 19.0928 12.7185 17.4858 12.7185C15.8789 12.7185 14.5762 14.0212 14.5762 15.6282C14.5762 17.2351 15.8789 18.5378 17.4858 18.5378Z" fill="#0C0318"/>
<path d="M17.7646 19.6648C17.9664 19.6916 18.3678 19.7441 18.7388 19.8631C19.1121 19.9798 19.4504 20.163 19.7141 20.3508C19.9708 20.5375 20.1574 20.7311 20.2741 20.9668C20.3908 21.2025 20.4491 21.4825 20.4841 21.941C20.5074 22.4006 20.5074 23.0376 20.4024 24.2276C20.2974 25.4141 20.0874 27.1536 19.9241 28.2678C19.7608 29.3878 19.6441 29.8778 19.4924 30.2394C19.3408 30.6128 19.1424 30.8578 18.9208 31.0328C18.6991 31.2078 18.4424 31.3128 18.1974 31.3711C17.9524 31.4294 17.7308 31.4294 17.5208 31.4294C17.3108 31.4294 17.1124 31.4294 16.8441 31.3711C16.5758 31.3128 16.2258 31.2078 15.9691 30.9978C15.7008 30.7878 15.5258 30.4844 15.3858 30.0878C15.2458 29.6911 15.1408 29.2128 15.0008 28.2561C14.8608 27.2994 14.6741 25.8761 14.5574 24.7911C14.4408 23.7061 14.3941 22.9595 14.3848 22.4578C14.3731 21.9561 14.3964 21.7076 14.4548 21.4661C14.5131 21.2328 14.6064 21.0111 14.7348 20.8245C14.8631 20.6378 15.0311 20.4745 15.2014 20.3461C15.3683 20.2178 15.5398 20.1245 15.7451 20.0521C15.9481 19.9705 16.1919 19.9005 16.4918 19.8421C16.7951 19.7838 17.1451 19.7255 17.3248 19.7021C17.5044 19.6753 17.5044 19.6753 17.7051 19.7021L17.7646 19.6648Z" fill="#0C0318"/>
</g>
<defs>
<linearGradient id="paint0_linear_1905_5549" x1="17.499" y1="0.5" x2="17.499" y2="35.5" gradientUnits="userSpaceOnUse">
<stop offset="0.0885417" stop-color="white" stop-opacity="0.3"/>
<stop offset="1" stop-color="white"/>
</linearGradient>
<clipPath id="clip0_1905_5549">
<rect width="35" height="35" fill="white" transform="translate(-0.000976562 0.5)"/>
</clipPath>
</defs>
</svg>
