<svg width="40" height="40" viewBox="0 0 40 40" fill="none" xmlns="http://www.w3.org/2000/svg">
<g clip-path="url(#clip0_1905_5548)">
<path d="M19.9984 0.065918C8.98671 0.065918 0.0595703 8.99282 0.0595703 20.0045C0.0595703 31.0166 8.98671 39.9428 19.9984 39.9428C31.0112 39.9428 39.9374 31.0166 39.9374 20.0045C39.9374 8.99353 31.0112 0.0668703 19.9981 0.0668703L19.9984 0.065918ZM29.1422 28.8231C28.785 29.4088 28.0184 29.5945 27.4327 29.235C22.7512 26.3754 16.8579 25.7278 9.91743 27.3135C9.24862 27.4659 8.58195 27.0469 8.42957 26.3778C8.27648 25.7088 8.69386 25.0421 9.36433 24.8897C16.9596 23.1538 23.4746 23.9016 28.7303 27.1135C29.316 27.4731 29.5017 28.2373 29.1422 28.8231ZM31.5827 23.3933C31.1327 24.1254 30.1755 24.3564 29.4446 23.9064C24.085 20.6114 15.9153 19.6573 9.576 21.5816C8.75386 21.83 7.88552 21.3666 7.636 20.5459C7.38838 19.7238 7.85195 18.8571 8.67267 18.6071C15.9139 16.41 24.916 17.4742 31.0708 21.2564C31.8017 21.7064 32.0327 22.6635 31.5827 23.3935V23.3933ZM31.7922 17.74C25.366 13.9231 14.7636 13.5721 8.62814 15.4342C7.6429 15.7331 6.601 15.1769 6.30243 14.1916C6.00386 13.2059 6.55957 12.1647 7.54552 11.8652C14.5886 9.72711 26.297 10.1402 33.6955 14.5323C34.5836 15.0583 34.8741 16.2028 34.3479 17.0878C33.8241 17.974 32.6765 18.2662 31.7931 17.74H31.7922Z" fill="url(#paint0_linear_1905_5548)"/>
</g>
<defs>
<linearGradient id="paint0_linear_1905_5548" x1="19.9985" y1="0.065918" x2="19.9985" y2="39.9428" gradientUnits="userSpaceOnUse">
<stop offset="0.0885417" stop-color="white" stop-opacity="0.3"/>
<stop offset="1" stop-color="white"/>
</linearGradient>
<clipPath id="clip0_1905_5548">
<rect width="40" height="40" fill="white" transform="translate(-0.000976562)"/>
</clipPath>
</defs>
</svg>
