<svg width="45" height="32" viewBox="0 0 45 32" fill="none" xmlns="http://www.w3.org/2000/svg">
<path d="M17.9997 22.7499L29.677 16L17.9997 9.25009V22.7499ZM44.0092 5.13266C44.3017 6.19014 44.5042 7.60761 44.6392 9.40758C44.7967 11.2076 44.8642 12.76 44.8642 14.11L44.9992 16C44.9992 20.9274 44.6392 24.5498 44.0092 26.8673C43.4467 28.8922 42.1418 30.1972 40.1168 30.7597C39.0593 31.0522 37.1244 31.2547 34.1544 31.3897C31.2295 31.5472 28.552 31.6147 26.077 31.6147L22.4996 31.7497C13.0723 31.7497 7.19987 31.3897 4.88241 30.7597C2.85745 30.1972 1.55247 28.8922 0.989983 26.8673C0.697488 25.8098 0.494992 24.3923 0.359994 22.5924C0.202497 20.7924 0.134998 19.2399 0.134998 17.8899L0 16C0 11.0726 0.359994 7.45012 0.989983 5.13266C1.55247 3.10769 2.85745 1.80272 4.88241 1.24023C5.9399 0.947732 7.87486 0.745235 10.8448 0.610238C13.7698 0.45274 16.4472 0.385242 18.9222 0.385242L22.4996 0.250244C31.9269 0.250244 37.7993 0.610238 40.1168 1.24023C42.1418 1.80272 43.4467 3.10769 44.0092 5.13266Z" fill="url(#paint0_linear_1905_5547)"/>
<defs>
<linearGradient id="paint0_linear_1905_5547" x1="2.81245" y1="-22.39" x2="12.8609" y2="26.8271" gradientUnits="userSpaceOnUse">
<stop stop-color="white"/>
<stop offset="1" stop-color="#A3A3A3"/>
</linearGradient>
</defs>
</svg>
