<svg width="228" height="116" viewBox="0 0 228 116" fill="none" xmlns="http://www.w3.org/2000/svg">
<path d="M20.8104 33.3887C22.1105 33.3887 22.7605 34.0193 22.7605 35.2804V112.68C22.7605 113.346 22.5283 113.905 22.0733 114.346C21.6183 114.788 21.0425 115.013 20.3554 115.013H0.835938C2.136 114.788 3.25033 114.067 4.16965 112.842C5.08898 111.617 5.544 110.302 5.544 108.887V42.2889C5.544 40.8836 5.08898 39.5594 4.16965 38.3343C3.25033 37.1091 2.136 36.3885 0.835938 36.1633L20.4668 33.3797H20.8104V33.3887ZM31.0251 33.3887C34.1638 33.0914 37.3026 33.4788 40.4413 34.5598C43.58 35.6408 46.3937 37.3253 48.8824 39.6225C51.371 41.9286 53.3954 44.7482 54.9648 48.0903C56.5341 51.4323 57.3142 55.1798 57.3142 59.3416C57.3142 63.5035 56.7198 67.0437 55.5312 70.1966C54.3426 73.3495 52.7732 76.0971 50.8232 78.4392C48.8731 80.7814 46.6723 82.7632 44.2207 84.3937C41.7692 86.0242 39.2805 87.4205 36.7547 88.5736C34.2288 89.7266 31.7773 90.6725 29.4093 91.4112C27.0321 92.1499 25.0077 92.7805 23.3269 93.3029C25.3142 92.258 27.3293 90.8887 29.3536 89.1861C31.378 87.4836 33.1981 85.3306 34.8046 82.7272C36.4111 80.1328 37.7297 77.0069 38.7605 73.3766C39.7912 69.7372 40.3113 65.3952 40.3113 60.3506C40.3113 56.9364 39.9491 53.6844 39.2248 50.6036C38.5005 47.5227 37.5254 44.8112 36.2997 42.4781C35.0739 40.1359 33.6438 38.2802 31.9909 36.9109C30.3472 35.5417 28.5643 34.8481 26.6514 34.8481C25.4256 34.8481 24.3206 35.0733 23.3269 35.5147C25.3977 34.4787 27.9607 33.7671 31.0158 33.3977L31.0251 33.3887Z" fill="white"/>
<path d="M70.977 83.0614C70.977 84.2505 71.7199 85.3225 73.215 86.2864C74.71 87.2503 76.558 87.7367 78.7866 87.7367C81.3125 87.7367 83.6061 87.4395 85.6769 86.8449C82.9932 87.7367 80.1238 88.3133 77.0687 88.5745C74.0043 88.8358 71.1906 88.5205 68.6276 87.6286C66.0646 86.7368 63.9381 85.1784 62.2573 82.9533C60.5765 80.7283 59.7315 77.5393 59.7315 73.3775V42.3079C59.7315 40.9026 59.2765 39.5783 58.3572 38.3532C57.4378 37.1281 56.3235 36.4074 55.0234 36.1822L74.6543 33.3987H74.9979C76.2979 33.3987 76.948 34.0292 76.948 35.2904V71.8191C76.948 73.2334 76.6415 74.4225 76.0286 75.3864C75.4158 76.3502 74.7286 77.2241 73.9578 78.0078C73.1871 78.7915 72.4999 79.5662 71.887 80.3499C71.2742 81.1336 70.9677 82.0435 70.9677 83.0794L70.977 83.0614ZM107.137 79.7193C107.137 81.0526 107.592 82.3588 108.512 83.6199C109.431 84.8811 110.536 85.6288 111.836 85.845L92.2051 88.6286H91.8615C91.3229 88.6286 90.8679 88.4394 90.4871 88.07C90.1064 87.7007 89.9114 87.2503 89.9114 86.7368V42.2989C89.9114 40.8936 89.4564 39.5693 88.5371 38.3442C87.6177 37.1191 86.5127 36.3984 85.2126 36.1732L104.843 33.3896H105.187C106.487 33.3896 107.137 34.0202 107.137 35.2814V79.7193Z" fill="white"/>
<path d="M132.846 85.8441C133.765 87.1053 134.87 87.853 136.179 88.0692H109.547C110.847 87.844 111.961 87.1053 112.881 85.8441C113.8 84.583 114.255 83.2858 114.255 81.9435V19.0205C114.255 17.6873 113.8 16.3901 112.881 15.1199C111.961 13.8588 110.847 13.1111 109.547 12.8949L129.178 10.1113H129.521C130.134 10.1113 130.608 10.3005 130.961 10.6699C131.304 11.0392 131.481 11.5256 131.481 12.1202V81.9435C131.481 83.2768 131.936 84.583 132.855 85.8441H132.846Z" fill="white"/>
<path d="M177.158 73.0345C177.306 75.2595 176.833 77.3224 175.718 79.2142C174.604 81.1059 173.035 82.7454 171.01 84.1147C168.986 85.493 166.627 86.583 163.953 87.4027C161.269 88.2225 158.446 88.6279 155.456 88.6279C157.527 88.6279 159.282 87.8081 160.74 86.1776C162.188 84.5471 162.922 82.7274 162.922 80.7186C162.922 78.8629 162.216 77.0612 160.795 75.3136C159.375 73.566 157.582 71.8274 155.4 70.0798C153.218 68.3322 150.887 66.5395 148.398 64.6748C145.91 62.8191 143.579 60.8913 141.397 58.8824C139.215 56.8736 137.413 54.7657 136.002 52.5316C134.581 50.3066 133.875 47.8923 133.875 45.2889C133.875 43.0639 134.488 41.1361 135.714 39.4966C136.939 37.8661 138.49 36.5058 140.366 35.4338C142.242 34.3618 144.331 33.5601 146.625 33.0376C148.919 32.5151 151.138 32.2539 153.283 32.2539H155.177C155.753 32.2539 156.347 32.326 156.96 32.4791C154.889 32.1818 153.116 32.6503 151.621 33.8754C150.126 35.1005 149.383 36.9382 149.383 39.3885C149.383 41.3883 150.033 43.253 151.333 44.9556C152.633 46.6672 154.277 48.3337 156.273 49.9642C158.26 51.5947 160.424 53.2523 162.755 54.9188C165.086 56.5853 167.286 58.3329 169.357 60.1526C171.428 61.9723 173.183 63.9361 174.641 66.0531C176.09 68.17 176.935 70.4941 177.167 73.0165L177.158 73.0345ZM146.281 84.1688C146.43 85.2137 147.098 86.1596 148.287 87.0064C149.476 87.8622 151.138 88.3576 153.283 88.5107C150.599 88.3576 148.101 87.8802 145.761 87.0604C143.43 86.2407 141.378 85.2047 139.623 83.9435C137.859 82.6824 136.466 81.214 135.435 79.5475C134.404 77.881 133.884 76.0793 133.884 74.1425C133.884 71.7643 134.748 69.7465 136.466 68.0709C138.184 66.4044 140.273 65.5666 142.725 65.5666C143.95 65.5666 145.111 65.7918 146.226 66.2332C147.331 66.6746 148.296 67.2872 149.095 68.0709C149.903 68.8546 150.534 69.7645 150.989 70.8004C151.444 71.8454 151.676 72.9534 151.676 74.1425C151.676 75.4757 151.389 76.7279 150.813 77.8719C150.237 79.025 149.457 80.0069 148.464 80.8267C147.851 81.3492 147.312 81.8806 146.857 82.4392C146.402 82.9977 146.207 83.5742 146.281 84.1688ZM173.369 51.874C173.062 50.2435 172.58 48.4058 171.939 46.3609C171.289 44.316 170.369 42.3702 169.181 40.5145C167.992 38.6588 166.497 37.0103 164.705 35.56C162.903 34.1096 160.703 33.1277 158.102 32.6052C159.328 32.8304 160.452 33.0917 161.492 33.389C162.523 33.6862 163.498 33.9835 164.417 34.2808C165.336 34.578 166.237 34.8033 167.11 34.9474C167.992 35.1005 168.93 35.1366 169.924 35.0555C170.537 34.9834 171.205 34.8303 171.93 34.6141C172.654 34.3889 173.137 34.1276 173.36 33.8304V51.874H173.369Z" fill="white"/>
<path d="M211.137 81.4931C213.356 81.4931 215.538 80.9526 217.683 79.8806C219.829 78.8086 221.704 77.3042 223.311 75.3674C221.017 79.3761 217.916 82.5921 214.015 84.9973C210.115 87.4115 205.825 88.6186 201.154 88.6186C197.551 88.6186 194.171 87.88 190.995 86.3936C187.819 84.9072 185.043 82.9074 182.675 80.376C180.297 77.8537 178.431 74.881 177.047 71.4668C175.673 68.0527 174.977 64.3773 174.977 60.4407C174.977 56.504 175.664 52.9277 177.047 49.4685C178.422 46.0184 180.297 43.0276 182.675 40.5053C185.043 37.983 187.819 35.9741 190.995 34.4877C194.171 33.0014 197.56 32.2627 201.154 32.2627C200.393 32.4158 199.492 33.1005 198.452 34.3256C197.421 35.5507 196.446 37.1632 195.527 39.1721C194.607 41.1719 193.827 43.496 193.177 46.1355C192.527 48.7749 192.202 51.5765 192.202 54.5402C192.202 58.2516 192.704 61.7469 193.697 65.0079C194.691 68.2779 196.047 71.1335 197.774 73.5838C199.492 76.034 201.507 77.9618 203.801 79.3761C206.094 80.7904 208.546 81.4931 211.146 81.4931H211.137ZM209.762 51.3153C209.762 49.0902 209.567 46.9192 209.187 44.8023C208.806 42.6853 208.304 40.7755 207.692 39.064C207.079 37.3614 206.336 35.9111 205.454 34.722C204.571 33.5329 203.634 32.7131 202.64 32.2717C205.546 32.4969 208.267 33.1995 210.793 34.3886C213.319 35.5777 215.575 37.1362 217.563 39.064C219.55 40.9917 221.212 43.2618 222.559 45.8562C223.896 48.4596 224.871 51.2792 225.484 54.324H206.54C207.385 54.324 208.128 54.0268 208.778 53.4322C209.428 52.8377 209.753 52.135 209.753 51.3153H209.762Z" fill="white"/>
<path d="M119.614 93.123H122.734C123.393 93.123 123.876 93.2762 124.174 93.5735C124.471 93.8797 124.629 94.2491 124.629 94.6905C124.629 95.0688 124.536 95.4112 124.359 95.6994C124.174 95.9877 123.96 96.2129 123.709 96.384C123.458 96.5462 123.226 96.6543 123.022 96.6993L123.003 96.7624C123.171 96.7804 123.366 96.8345 123.579 96.9336C123.793 97.0326 123.979 97.1858 124.146 97.402C124.313 97.6182 124.387 97.8794 124.387 98.2037C124.387 98.6271 124.266 99.0325 124.034 99.4198C123.802 99.8072 123.468 100.113 123.041 100.348C122.613 100.582 122.131 100.699 121.601 100.699H118.305L119.633 93.1321L119.614 93.123ZM121.471 99.9063C122.066 99.9063 122.539 99.7532 122.901 99.4559C123.254 99.1496 123.44 98.7442 123.44 98.2308C123.44 97.8524 123.301 97.5912 123.022 97.429C122.743 97.2669 122.391 97.1858 121.973 97.1858H119.846L119.363 99.9063H121.481H121.471ZM121.861 96.4471C122.214 96.4471 122.521 96.3841 122.799 96.2489C123.078 96.1138 123.291 95.9336 123.449 95.6904C123.607 95.4562 123.681 95.1859 123.681 94.8887C123.681 94.5464 123.551 94.3031 123.301 94.15C123.05 93.9969 122.716 93.9158 122.326 93.9158H120.422L119.967 96.4471H121.871H121.861Z" fill="white"/>
<path d="M129.699 100.708L130.182 97.9603L128.492 93.1318H129.542L130.814 96.9153H130.888L133.488 93.1318H134.537L131.157 97.9603L130.674 100.699H129.709L129.699 100.708Z" fill="white"/>
<path d="M148.772 98.2856C148.428 98.9973 147.964 99.5648 147.379 99.9972L148.215 101.303H147.286L146.71 100.394C146.19 100.646 145.624 100.772 145.002 100.772C144.055 100.772 143.34 100.502 142.838 99.9701C142.337 99.4387 142.086 98.718 142.086 97.8172C142.086 96.9163 142.272 96.0966 142.652 95.3579C143.024 94.6192 143.544 94.0337 144.203 93.6103C144.862 93.1779 145.587 92.9707 146.385 92.9707C147.323 92.9707 148.038 93.241 148.54 93.7724C149.041 94.3129 149.292 95.0336 149.292 95.9434C149.292 96.7902 149.125 97.5739 148.781 98.2856H148.772ZM146.255 99.6639L145.048 97.7811H145.977L146.915 99.2405C147.333 98.8982 147.658 98.4387 147.899 97.8802C148.141 97.3217 148.261 96.7182 148.261 96.0605C148.261 95.3669 148.085 94.8174 147.732 94.421C147.379 94.0157 146.878 93.8175 146.237 93.8175C145.661 93.8175 145.141 93.9886 144.667 94.331C144.194 94.6733 143.813 95.1417 143.535 95.7272C143.256 96.3218 143.117 96.9614 143.117 97.664C143.117 98.3667 143.293 98.8891 143.646 99.2945C143.999 99.6999 144.5 99.8981 145.16 99.8981C145.531 99.8981 145.903 99.817 146.265 99.6639H146.255Z" fill="white"/>
<path d="M153.339 100.149C152.903 99.7169 152.68 99.1043 152.68 98.3026C152.68 98.0324 152.708 97.7261 152.773 97.3657L153.515 93.1318H154.463L153.72 97.3387C153.664 97.654 153.645 97.9152 153.645 98.1044C153.645 98.6089 153.775 99.0323 154.035 99.3836C154.295 99.7259 154.76 99.9061 155.419 99.9061C156.264 99.9061 156.877 99.6358 157.248 99.1043C157.62 98.5729 157.871 97.9873 157.991 97.3387L158.734 93.1318H159.681L158.939 97.3657C158.744 98.4647 158.335 99.3025 157.694 99.8971C157.053 100.492 156.255 100.789 155.271 100.789C154.425 100.789 153.785 100.573 153.339 100.149Z" fill="white"/>
<path d="M168.322 96.1676C168.136 96.537 167.858 96.8523 167.496 97.1045C167.133 97.3567 166.697 97.5369 166.196 97.627L167.709 100.699H166.651L165.183 97.681H163.781L163.261 100.699H162.305L163.633 93.1318H166.288C167.096 93.1318 167.691 93.312 168.062 93.6633C168.434 94.0237 168.629 94.4651 168.629 94.9966C168.629 95.4109 168.536 95.7983 168.341 96.1676H168.322ZM167.078 96.3928C167.468 96.0685 167.663 95.6452 167.663 95.1047C167.663 94.6903 167.505 94.393 167.189 94.2218C166.873 94.0507 166.474 93.9696 166.001 93.9696H164.431L163.92 96.8793H165.49C166.158 96.8793 166.688 96.7171 167.078 96.4019V96.3928Z" fill="white"/>
<path d="M176.345 98.4918H173.17L171.953 100.699H170.969L175.222 93.1318H176.132L177.757 100.699H176.773L176.327 98.4918H176.345ZM176.197 97.7441L175.51 94.3209H175.463L173.578 97.7441H176.197Z" fill="white"/>
<path d="M182.689 93.123H183.766L186.877 99.1946H186.914L187.991 93.123H188.938L187.61 100.69H186.515L183.404 94.6995H183.357L182.299 100.69H181.352L182.679 93.123H182.689Z" fill="white"/>
<path d="M193.015 93.123H193.981L192.653 100.69H191.688L193.015 93.123Z" fill="white"/>
<path d="M197.784 100.149C197.348 99.7169 197.125 99.1043 197.125 98.3026C197.125 98.0324 197.153 97.7261 197.218 97.3657L197.961 93.1318H198.908L198.165 97.3387C198.109 97.654 198.091 97.9152 198.091 98.1044C198.091 98.6089 198.221 99.0323 198.481 99.3836C198.741 99.7259 199.205 99.9061 199.864 99.9061C200.709 99.9061 201.322 99.6358 201.694 99.1043C202.065 98.5729 202.316 97.9873 202.437 97.3387L203.18 93.1318H204.127L203.384 97.3657C203.189 98.4647 202.78 99.3025 202.14 99.8971C201.499 100.492 200.7 100.789 199.716 100.789C198.871 100.789 198.23 100.573 197.784 100.149Z" fill="white"/>
<path d="M208.056 93.123H209.467L210.758 98.9154H210.795L214.138 93.123H215.55L214.222 100.69H213.275L214.352 94.5644H214.306L210.805 100.69H210.117L208.79 94.5644H208.743L207.666 100.69H206.719L208.047 93.123H208.056Z" fill="white"/>
<path d="M227.163 12.7061C218.099 14.3276 216.753 15.6338 215.081 24.4259C213.41 15.6338 212.063 14.3276 203 12.7061C212.063 11.0846 213.41 9.77843 215.081 0.986328C216.753 9.77843 218.099 11.0846 227.163 12.7061Z" fill="url(#paint0_linear_1735_1364)"/>
<defs>
<linearGradient id="paint0_linear_1735_1364" x1="203" y1="12.7061" x2="227.163" y2="12.7061" gradientUnits="userSpaceOnUse">
<stop stop-color="#C1202B"/>
<stop offset="0.32" stop-color="#D32635"/>
<stop offset="0.68" stop-color="#E02A3C"/>
<stop offset="1" stop-color="#E52C3F"/>
</linearGradient>
</defs>
</svg>
