<svg width="284" height="120" viewBox="0 0 284 120" fill="none" xmlns="http://www.w3.org/2000/svg">
<path d="M0.973633 102.6V101.08H11.8968V102.6H7.30369V114.836H5.56677V102.6H0.973633ZM14.9528 101.08V106.198H14.9914C15.7634 105.172 16.8184 104.658 18.1565 104.658C19.2115 104.658 20.0349 104.934 20.6267 105.486C21.2186 106.037 21.5145 106.826 21.5145 107.852V114.836H19.9513V107.987C19.9513 107.346 19.7518 106.852 19.353 106.505C18.9541 106.146 18.4009 105.967 17.6933 105.967C16.8956 105.967 16.2394 106.223 15.7248 106.736C15.2102 107.249 14.9528 107.91 14.9528 108.718V114.836H13.3896V101.08H14.9528ZM27.8507 115.105C26.3711 115.105 25.1939 114.612 24.319 113.624C23.457 112.623 23.026 111.373 23.026 109.872C23.026 108.397 23.4634 107.16 24.3383 106.159C25.2261 105.146 26.3647 104.639 27.7542 104.639C29.2209 104.639 30.3532 105.152 31.1508 106.178C31.9485 107.191 32.3474 108.545 32.3474 110.238H24.6278C24.6921 111.29 25.0009 112.149 25.5541 112.816C26.1202 113.47 26.8858 113.797 27.8507 113.797C29.3432 113.797 30.2631 113.117 30.6104 111.757H32.1351C31.9035 112.822 31.4146 113.649 30.6683 114.24C29.9221 114.817 28.9829 115.105 27.8507 115.105ZM29.8385 106.717C29.3367 106.153 28.642 105.87 27.7542 105.87C26.8664 105.87 26.1588 106.165 25.6313 106.755C25.1167 107.346 24.795 108.115 24.6664 109.064H30.6683C30.6169 108.064 30.3403 107.281 29.8385 106.717ZM43.1236 115.105C41.1808 115.105 39.6176 114.438 38.4339 113.104C37.2502 111.771 36.6584 110.052 36.6584 107.948C36.6584 105.87 37.2438 104.158 38.4146 102.811C39.5983 101.452 41.1936 100.772 43.2007 100.772C44.7704 100.772 46.0377 101.176 47.0026 101.984C47.9674 102.792 48.5467 103.85 48.7395 105.158H47.0411C46.874 104.286 46.4494 103.587 45.7675 103.061C45.0984 102.535 44.23 102.273 43.1621 102.273C41.6825 102.273 40.5246 102.805 39.6883 103.869C38.852 104.921 38.4339 106.281 38.4339 107.948C38.4339 109.641 38.8649 111.007 39.7269 112.046C40.6018 113.072 41.7533 113.586 43.1814 113.586C44.4166 113.586 45.3687 113.226 46.0377 112.508C46.7196 111.79 47.1055 110.886 47.1958 109.795H48.9134C48.9003 110.475 48.7395 111.174 48.4306 111.892C48.1348 112.598 47.7422 113.188 47.2536 113.662C46.2628 114.624 44.8862 115.105 43.1236 115.105ZM58.3889 113.605C57.5139 114.605 56.3496 115.105 54.8958 115.105C53.4419 115.105 52.2711 114.605 51.3834 113.605C50.5084 112.604 50.0711 111.36 50.0711 109.872C50.0711 108.384 50.5084 107.14 51.3834 106.14C52.2711 105.139 53.4419 104.639 54.8958 104.639C56.3496 104.639 57.5139 105.139 58.3889 106.14C59.2635 107.14 59.7012 108.384 59.7012 109.872C59.7012 111.36 59.2635 112.604 58.3889 113.605ZM52.5025 112.7C53.0686 113.431 53.8665 113.797 54.8958 113.797C55.9251 113.797 56.7159 113.431 57.2694 112.7C57.8228 111.956 58.0993 111.014 58.0993 109.872C58.0993 108.718 57.8162 107.775 57.2501 107.044C56.6966 106.3 55.9119 105.928 54.8958 105.928C53.8665 105.928 53.0686 106.3 52.5025 107.044C51.9491 107.788 51.6726 108.731 51.6726 109.872C51.6726 111.014 51.9491 111.956 52.5025 112.7ZM62.8233 104.889V106.198H62.8619C63.634 105.172 64.6886 104.658 66.0268 104.658C67.0819 104.658 67.9052 104.934 68.4972 105.486C69.0887 106.037 69.385 106.826 69.385 107.852V114.836H67.8215V107.987C67.8215 107.346 67.6222 106.852 67.2234 106.505C66.8247 106.146 66.2713 105.967 65.5637 105.967C64.7662 105.967 64.1098 106.223 63.5954 106.736C63.0805 107.249 62.8233 107.91 62.8233 108.718V114.836H61.2599V104.889H62.8233ZM73.7376 114.836L70.2445 104.889H71.9236L73.9887 111.2L74.6451 113.297H74.6836C74.9281 112.476 75.1468 111.777 75.3396 111.2L77.4432 104.889H79.0645L75.4745 114.836H73.7376ZM84.2399 115.105C82.7602 115.105 81.5829 114.612 80.7078 113.624C79.8459 112.623 79.4152 111.373 79.4152 109.872C79.4152 108.397 79.8525 107.16 80.7276 106.159C81.6153 105.146 82.7536 104.639 84.1431 104.639C85.6101 104.639 86.7423 105.152 87.5398 106.178C88.3377 107.191 88.7365 108.545 88.7365 110.238H81.0167C81.0811 111.29 81.3901 112.149 81.943 112.816C82.5091 113.47 83.2746 113.797 84.2399 113.797C85.7324 113.797 86.6521 113.117 86.9995 111.757H88.5239C88.2926 112.822 87.8036 113.649 87.0574 114.24C86.3112 114.817 85.3722 115.105 84.2399 115.105ZM86.2275 106.717C85.7258 106.153 85.0308 105.87 84.1431 105.87C83.2553 105.87 82.5477 106.165 82.0201 106.755C81.5057 107.346 81.1841 108.115 81.0553 109.064H87.0574C87.0061 108.064 86.7292 107.281 86.2275 106.717ZM91.828 104.889V106.544H91.8666C92.1882 106.018 92.6067 105.595 93.1211 105.274C93.6359 104.94 94.2082 104.774 94.8387 104.774C95.0705 104.774 95.2826 104.812 95.4758 104.889V106.39H95.418C95.2247 106.326 94.9934 106.294 94.723 106.294C93.9251 106.294 93.2433 106.576 92.6772 107.14C92.1111 107.692 91.828 108.416 91.828 109.314V114.836H90.2651V104.889H91.828ZM100.479 118.145C99.205 118.145 98.2016 117.901 97.468 117.414C96.7477 116.94 96.3424 116.266 96.2521 115.394H97.6999C97.8414 116.407 98.7545 116.914 100.44 116.914C102.344 116.914 103.296 116.061 103.296 114.355V112.95H103.258C102.859 113.464 102.434 113.848 101.984 114.105C101.534 114.361 100.974 114.49 100.305 114.49C99.0183 114.49 97.9697 114.028 97.1591 113.104C96.349 112.181 95.9437 111.001 95.9437 109.564C95.9437 108.064 96.349 106.871 97.1591 105.986C97.9829 105.101 98.999 104.658 100.208 104.658C101.521 104.658 102.537 105.158 103.258 106.159H103.296V104.889H104.86V114.297C104.86 115.567 104.467 116.523 103.682 117.164C102.911 117.818 101.842 118.145 100.479 118.145ZM100.382 113.182C102.402 113.182 103.412 111.95 103.412 109.487C103.412 107.14 102.396 105.967 100.363 105.967C99.4495 105.967 98.7484 106.294 98.2594 106.948C97.7836 107.602 97.5452 108.48 97.5452 109.583C97.5452 110.687 97.7897 111.565 98.2787 112.219C98.7677 112.861 99.4687 113.182 100.382 113.182ZM111.247 115.105C109.767 115.105 108.59 114.612 107.715 113.624C106.853 112.623 106.422 111.373 106.422 109.872C106.422 108.397 106.86 107.16 107.734 106.159C108.622 105.146 109.761 104.639 111.15 104.639C112.617 104.639 113.749 105.152 114.547 106.178C115.345 107.191 115.744 108.545 115.744 110.238H108.024C108.088 111.29 108.397 112.149 108.95 112.816C109.516 113.47 110.282 113.797 111.247 113.797C112.739 113.797 113.659 113.117 114.007 111.757H115.531C115.3 112.822 114.811 113.649 114.065 114.24C113.318 114.817 112.379 115.105 111.247 115.105ZM113.235 106.717C112.733 106.153 112.038 105.87 111.15 105.87C110.263 105.87 109.555 106.165 109.027 106.755C108.513 107.346 108.191 108.115 108.063 109.064H114.065C114.013 108.064 113.736 107.281 113.235 106.717ZM118.835 104.889V106.198H118.874C119.646 105.172 120.701 104.658 122.039 104.658C123.094 104.658 123.917 104.934 124.509 105.486C125.101 106.037 125.397 106.826 125.397 107.852V114.836H123.834V107.987C123.834 107.346 123.634 106.852 123.235 106.505C122.837 106.146 122.283 105.967 121.576 105.967C120.778 105.967 120.122 106.223 119.607 106.736C119.092 107.249 118.835 107.91 118.835 108.718V114.836H117.272V104.889H118.835ZM131.733 115.105C130.279 115.105 129.109 114.605 128.221 113.605C127.346 112.604 126.909 111.36 126.909 109.872C126.909 108.384 127.346 107.14 128.221 106.14C129.109 105.139 130.279 104.639 131.733 104.639C132.904 104.639 133.862 104.953 134.609 105.582C135.355 106.198 135.818 107.038 135.998 108.102H134.416C134.3 107.422 134.01 106.89 133.547 106.505C133.084 106.12 132.479 105.928 131.733 105.928C130.704 105.928 129.906 106.3 129.34 107.044C128.787 107.788 128.51 108.731 128.51 109.872C128.51 111.014 128.787 111.956 129.34 112.7C129.906 113.431 130.704 113.797 131.733 113.797C132.531 113.797 133.168 113.586 133.644 113.162C134.12 112.726 134.39 112.117 134.454 111.334H135.998C135.895 112.527 135.471 113.457 134.725 114.124C133.979 114.778 132.981 115.105 131.733 115.105ZM141.741 115.105C140.261 115.105 139.084 114.612 138.209 113.624C137.347 112.623 136.916 111.373 136.916 109.872C136.916 108.397 137.354 107.16 138.228 106.159C139.116 105.146 140.255 104.639 141.644 104.639C143.111 104.639 144.243 105.152 145.041 106.178C145.838 107.191 146.238 108.545 146.238 110.238H138.518C138.582 111.29 138.891 112.149 139.444 112.816C140.01 113.47 140.776 113.797 141.741 113.797C143.233 113.797 144.153 113.117 144.501 111.757H146.025C145.794 112.822 145.305 113.649 144.558 114.24C143.812 114.817 142.873 115.105 141.741 115.105ZM143.729 106.717C143.227 106.153 142.532 105.87 141.644 105.87C140.756 105.87 140.049 106.165 139.521 106.755C139.007 107.346 138.685 108.115 138.556 109.064H144.558C144.507 108.064 144.23 107.281 143.729 106.717ZM151.07 114.836V101.08H156.917C158.371 101.08 159.477 101.477 160.237 102.273C160.828 102.888 161.124 103.671 161.124 104.62C161.124 106.082 160.384 107.044 158.905 107.506V107.564C159.728 107.756 160.398 108.141 160.912 108.718C161.427 109.282 161.684 110.007 161.684 110.892C161.684 111.944 161.349 112.822 160.681 113.527C159.87 114.4 158.718 114.836 157.226 114.836H151.07ZM152.806 113.278H157.148C158.101 113.278 158.821 113.047 159.31 112.585C159.722 112.149 159.928 111.616 159.928 110.988C159.928 110.154 159.664 109.52 159.136 109.083C158.609 108.647 157.908 108.429 157.033 108.429H152.806V113.278ZM152.806 106.967H156.705C157.541 106.967 158.197 106.768 158.673 106.371C159.149 105.973 159.388 105.421 159.388 104.716C159.388 104.049 159.168 103.53 158.731 103.158C158.307 102.773 157.708 102.58 156.936 102.58H152.806V106.967ZM164.821 104.889V106.544H164.86C165.181 106.018 165.599 105.595 166.114 105.274C166.629 104.94 167.201 104.774 167.832 104.774C168.063 104.774 168.276 104.812 168.469 104.889V106.39H168.411C168.217 106.326 167.986 106.294 167.716 106.294C166.918 106.294 166.236 106.576 165.67 107.14C165.104 107.692 164.821 108.416 164.821 109.314V114.836H163.258V104.889H164.821ZM173.761 115.105C172.281 115.105 171.104 114.612 170.229 113.624C169.368 112.623 168.936 111.373 168.936 109.872C168.936 108.397 169.374 107.16 170.249 106.159C171.136 105.146 172.275 104.639 173.665 104.639C175.131 104.639 176.263 105.152 177.061 106.178C177.859 107.191 178.258 108.545 178.258 110.238H170.538C170.603 111.29 170.911 112.149 171.465 112.816C172.031 113.47 172.796 113.797 173.761 113.797C175.253 113.797 176.174 113.117 176.521 111.757H178.046C177.814 112.822 177.325 113.649 176.579 114.24C175.833 114.817 174.893 115.105 173.761 115.105ZM175.749 106.717C175.247 106.153 174.552 105.87 173.665 105.87C172.777 105.87 172.069 106.165 171.542 106.755C171.027 107.346 170.705 108.115 170.577 109.064H176.579C176.527 108.064 176.251 107.281 175.749 106.717ZM187.622 114.932C186.631 114.932 186.059 114.438 185.904 113.451H185.885C185.061 114.502 183.955 115.028 182.566 115.028C181.575 115.028 180.764 114.791 180.134 114.316C179.503 113.842 179.188 113.156 179.188 112.258C179.188 111.796 179.259 111.398 179.4 111.065C179.555 110.719 179.748 110.443 179.979 110.238C180.211 110.02 180.526 109.834 180.925 109.68C181.336 109.513 181.729 109.391 182.102 109.314C182.475 109.224 182.952 109.135 183.53 109.045C183.903 108.994 184.167 108.955 184.322 108.93C184.489 108.891 184.701 108.84 184.958 108.775C185.216 108.698 185.396 108.615 185.499 108.525C185.602 108.435 185.698 108.314 185.788 108.16C185.879 108.006 185.923 107.827 185.923 107.621C185.923 107.057 185.724 106.627 185.325 106.332C184.939 106.024 184.392 105.87 183.685 105.87C182.077 105.87 181.247 106.601 181.195 108.064H179.69C179.716 107.05 180.063 106.236 180.732 105.62C181.414 105.005 182.392 104.697 183.665 104.697C186.123 104.697 187.352 105.749 187.352 107.852V112.585C187.352 113.021 187.422 113.329 187.564 113.508C187.718 113.688 188.001 113.733 188.413 113.643H188.471V114.778C188.214 114.881 187.93 114.932 187.622 114.932ZM182.913 113.835C183.878 113.835 184.624 113.56 185.152 113.008C185.679 112.444 185.942 111.828 185.942 111.161V109.468C185.467 109.763 184.708 110.007 183.665 110.199C183.279 110.276 182.977 110.34 182.758 110.392C182.54 110.43 182.289 110.507 182.006 110.623C181.722 110.725 181.51 110.841 181.369 110.969C181.227 111.097 181.105 111.27 181.002 111.488C180.899 111.694 180.848 111.937 180.848 112.219C180.848 113.297 181.536 113.835 182.913 113.835ZM196.186 114.836L192.654 109.468L191.188 110.853V114.836H189.624V101.08H191.188V109.141L195.568 104.889H197.556L193.735 108.468L198.019 114.836H196.186ZM198.43 106.159V104.889H199.8V103.292C199.8 102.472 200.025 101.881 200.475 101.522C200.925 101.15 201.582 100.965 202.444 100.965C202.688 100.965 202.952 100.977 203.235 101.003V102.33C203.055 102.317 202.887 102.311 202.733 102.311C202.232 102.311 201.878 102.388 201.672 102.542C201.466 102.696 201.363 102.972 201.363 103.369V104.889H203.216V106.159H201.363V114.836H199.8V106.159H198.43ZM212.292 114.932C211.301 114.932 210.729 114.438 210.574 113.451H210.555C209.732 114.502 208.625 115.028 207.235 115.028C206.245 115.028 205.434 114.791 204.804 114.316C204.174 113.842 203.858 113.156 203.858 112.258C203.858 111.796 203.929 111.398 204.071 111.065C204.225 110.719 204.418 110.443 204.649 110.238C204.881 110.02 205.196 109.834 205.595 109.68C206.007 109.513 206.399 109.391 206.772 109.314C207.146 109.224 207.621 109.135 208.2 109.045C208.574 108.994 208.837 108.955 208.992 108.93C209.159 108.891 209.371 108.84 209.629 108.775C209.886 108.698 210.066 108.615 210.169 108.525C210.272 108.435 210.368 108.314 210.459 108.16C210.548 108.006 210.594 107.827 210.594 107.621C210.594 107.057 210.394 106.627 209.995 106.332C209.609 106.024 209.063 105.87 208.355 105.87C206.746 105.87 205.917 106.601 205.865 108.064H204.36C204.386 107.05 204.733 106.236 205.402 105.62C206.084 105.005 207.062 104.697 208.336 104.697C210.793 104.697 212.022 105.749 212.022 107.852V112.585C212.022 113.021 212.093 113.329 212.234 113.508C212.388 113.688 212.671 113.733 213.083 113.643H213.141V114.778C212.884 114.881 212.601 114.932 212.292 114.932ZM207.583 113.835C208.548 113.835 209.294 113.56 209.822 113.008C210.349 112.444 210.613 111.828 210.613 111.161V109.468C210.137 109.763 209.378 110.007 208.336 110.199C207.95 110.276 207.647 110.34 207.429 110.392C207.21 110.43 206.959 110.507 206.676 110.623C206.393 110.725 206.181 110.841 206.039 110.969C205.898 111.097 205.775 111.27 205.673 111.488C205.57 111.694 205.518 111.937 205.518 112.219C205.518 113.297 206.206 113.835 207.583 113.835ZM218.077 115.125C216.713 115.125 215.652 114.823 214.893 114.22C214.146 113.605 213.735 112.732 213.657 111.604H215.259C215.439 113.079 216.392 113.816 218.116 113.816C218.901 113.816 219.479 113.669 219.853 113.374C220.238 113.066 220.432 112.668 220.432 112.181C220.432 111.655 220.245 111.277 219.872 111.046C219.499 110.815 218.817 110.597 217.826 110.392C217.414 110.302 217.087 110.231 216.842 110.18C216.61 110.116 216.327 110.032 215.993 109.93C215.658 109.815 215.394 109.693 215.202 109.564C215.021 109.423 214.835 109.257 214.642 109.064C214.449 108.872 214.307 108.634 214.217 108.352C214.14 108.07 214.101 107.756 214.101 107.409C214.101 106.563 214.41 105.896 215.028 105.409C215.658 104.921 216.546 104.677 217.691 104.677C220.058 104.677 221.364 105.716 221.609 107.794H220.007C219.93 107.14 219.705 106.665 219.331 106.371C218.958 106.063 218.399 105.909 217.652 105.909C216.97 105.909 216.462 106.043 216.128 106.313C215.806 106.569 215.645 106.909 215.645 107.332C215.645 107.82 215.838 108.166 216.224 108.372C216.61 108.564 217.311 108.763 218.328 108.968C218.945 109.096 219.428 109.218 219.775 109.334C220.136 109.436 220.509 109.603 220.895 109.834C221.281 110.052 221.564 110.347 221.744 110.719C221.924 111.09 222.014 111.553 222.014 112.104C222.014 113.079 221.654 113.829 220.933 114.355C220.213 114.868 219.261 115.125 218.077 115.125ZM222.685 106.159V104.889H224.133V101.753H225.696V104.889H227.626V106.159H225.696V112.623C225.696 113.239 226.03 113.547 226.699 113.547C226.982 113.547 227.259 113.502 227.529 113.412H227.587V114.759C227.162 114.849 226.744 114.894 226.333 114.894C224.866 114.894 224.133 114.252 224.133 112.97V106.159H222.685ZM237.561 115.105C235.708 115.105 234.28 114.65 233.277 113.739C232.286 112.829 231.752 111.642 231.675 110.18H233.373C233.605 112.54 235.027 113.72 237.638 113.72C238.629 113.72 239.42 113.502 240.012 113.066C240.617 112.617 240.919 111.975 240.919 111.142C240.919 110.77 240.849 110.443 240.707 110.161C240.565 109.879 240.391 109.648 240.186 109.468C239.993 109.289 239.697 109.122 239.298 108.968C238.899 108.814 238.526 108.692 238.179 108.602C237.844 108.513 237.381 108.404 236.789 108.275C236.082 108.121 235.496 107.968 235.033 107.813C234.57 107.647 234.107 107.422 233.643 107.14C233.18 106.858 232.833 106.499 232.601 106.063C232.383 105.614 232.273 105.075 232.273 104.447C232.273 103.318 232.698 102.433 233.547 101.791C234.409 101.137 235.548 100.81 236.963 100.81C240.063 100.81 241.807 102.24 242.193 105.101H240.552C240.424 104.126 240.057 103.395 239.453 102.907C238.848 102.407 238.031 102.157 237.001 102.157C236.049 102.157 235.29 102.35 234.724 102.735C234.171 103.119 233.894 103.664 233.894 104.37C233.894 104.677 233.952 104.953 234.068 105.197C234.197 105.428 234.357 105.627 234.551 105.794C234.756 105.947 235.02 106.088 235.342 106.217C235.676 106.345 236.005 106.454 236.326 106.544C236.648 106.621 237.04 106.704 237.503 106.794C238.146 106.922 238.674 107.044 239.086 107.16C239.498 107.262 239.954 107.422 240.456 107.64C240.958 107.858 241.344 108.109 241.614 108.391C241.897 108.673 242.135 109.045 242.328 109.507C242.534 109.956 242.637 110.482 242.637 111.084C242.637 112.341 242.167 113.329 241.228 114.047C240.302 114.753 239.079 115.105 237.561 115.105ZM248.658 115.105C247.178 115.105 246.001 114.612 245.126 113.624C244.264 112.623 243.833 111.373 243.833 109.872C243.833 108.397 244.27 107.16 245.145 106.159C246.033 105.146 247.171 104.639 248.561 104.639C250.028 104.639 251.16 105.152 251.957 106.178C252.755 107.191 253.154 108.545 253.154 110.238H245.435C245.499 111.29 245.808 112.149 246.361 112.816C246.927 113.47 247.693 113.797 248.658 113.797C250.15 113.797 251.07 113.117 251.417 111.757H252.942C252.71 112.822 252.221 113.649 251.475 114.24C250.729 114.817 249.79 115.105 248.658 115.105ZM250.645 106.717C250.143 106.153 249.449 105.87 248.561 105.87C247.673 105.87 246.966 106.165 246.438 106.755C245.923 107.346 245.602 108.115 245.473 109.064H251.475C251.424 108.064 251.147 107.281 250.645 106.717ZM256.246 104.889V106.544H256.285C256.606 106.018 257.024 105.595 257.539 105.274C258.054 104.94 258.626 104.774 259.256 104.774C259.488 104.774 259.7 104.812 259.893 104.889V106.39H259.836C259.642 106.326 259.411 106.294 259.141 106.294C258.343 106.294 257.661 106.576 257.095 107.14C256.529 107.692 256.246 108.416 256.246 109.314V114.836H254.683V104.889H256.246ZM261.298 114.836V104.889H262.861V114.836H261.298ZM261.298 103.004V101.08H262.861V103.004H261.298ZM269.257 115.105C267.777 115.105 266.6 114.612 265.725 113.624C264.863 112.623 264.432 111.373 264.432 109.872C264.432 108.397 264.87 107.16 265.745 106.159C266.632 105.146 267.771 104.639 269.161 104.639C270.627 104.639 271.759 105.152 272.557 106.178C273.355 107.191 273.754 108.545 273.754 110.238H266.034C266.098 111.29 266.407 112.149 266.961 112.816C267.526 113.47 268.292 113.797 269.257 113.797C270.749 113.797 271.669 113.117 272.017 111.757H273.541C273.31 112.822 272.821 113.649 272.074 114.24C271.328 114.817 270.389 115.105 269.257 115.105ZM271.245 106.717C270.743 106.153 270.048 105.87 269.161 105.87C268.273 105.87 267.565 106.165 267.038 106.755C266.523 107.346 266.201 108.115 266.072 109.064H272.074C272.023 108.064 271.746 107.281 271.245 106.717ZM279.065 115.125C277.701 115.125 276.64 114.823 275.88 114.22C275.134 113.605 274.723 112.732 274.645 111.604H276.247C276.427 113.079 277.379 113.816 279.103 113.816C279.888 113.816 280.467 113.669 280.84 113.374C281.226 113.066 281.419 112.668 281.419 112.181C281.419 111.655 281.233 111.277 280.86 111.046C280.486 110.815 279.805 110.597 278.814 110.392C278.402 110.302 278.074 110.231 277.83 110.18C277.598 110.116 277.315 110.032 276.98 109.93C276.646 109.815 276.382 109.693 276.189 109.564C276.009 109.423 275.822 109.257 275.63 109.064C275.436 108.872 275.295 108.634 275.205 108.352C275.128 108.07 275.089 107.756 275.089 107.409C275.089 106.563 275.398 105.896 276.016 105.409C276.646 104.921 277.533 104.677 278.679 104.677C281.046 104.677 282.352 105.716 282.597 107.794H280.995C280.917 107.14 280.692 106.665 280.319 106.371C279.946 106.063 279.387 105.909 278.64 105.909C277.958 105.909 277.45 106.043 277.115 106.313C276.794 106.569 276.633 106.909 276.633 107.332C276.633 107.82 276.826 108.166 277.212 108.372C277.598 108.564 278.299 108.763 279.316 108.968C279.933 109.096 280.416 109.218 280.763 109.334C281.123 109.436 281.496 109.603 281.882 109.834C282.268 110.052 282.551 110.347 282.731 110.719C282.912 111.09 283.002 111.553 283.002 112.104C283.002 113.079 282.641 113.829 281.921 114.355C281.201 114.868 280.248 115.125 279.065 115.125Z" fill="white"/>
<path d="M202.435 46.7701H182.84V31.9969H197.097C199.696 31.9969 200.188 31.7869 200.188 30.5966C200.188 29.6164 199.836 29.4063 198.081 29.4063H193.726C185.86 29.4063 181.576 24.7153 181.576 15.6834C181.576 4.97109 187.616 0 197.799 0H218.518V14.5631H204.191C202.997 14.5631 202.646 15.1233 202.646 15.8934C202.646 16.8036 203.208 17.1537 204.753 17.1537H207.421C216.341 17.1537 219.782 21.0045 219.782 31.2968C219.782 42.9893 215.358 46.7701 202.435 46.7701Z" fill="white"/>
<path d="M163.374 46.7701L161.197 31.2968H158.879L160.775 46.7701H141.883V0H163.093C175.945 0 180.159 5.39114 180.159 15.3333C180.159 21.2146 178.684 25.6255 174.962 28.3561L175.945 32.9071H180.018V46.7701H163.374ZM158.949 19.4642H160.705C162.32 19.4642 162.601 18.694 162.601 16.8736C162.601 15.1933 162.391 14.4931 160.845 14.4931H158.949V19.4642Z" fill="white"/>
<path d="M110.402 46.7701V0H139.408V14.7032H125.853V17.2937H136.88V29.8965H125.853V32.0669H139.408V46.7701H110.402Z" fill="white"/>
<path d="M78.4455 46.7701V31.8569L68.332 0H87.084L87.5754 15.8934H89.4016L89.893 0H108.645L96.7057 31.8569V46.7701H78.4455Z" fill="white"/>
<path d="M32.6016 46.7701L41.3805 0H65.4699L74.319 46.7701H55.0757L54.9351 35.9177H52.1261L51.9855 46.7701H32.6016ZM52.4769 13.933L52.3368 23.6651H54.7245L54.5839 13.933H52.4769Z" fill="white"/>
<path d="M0.801758 46.7701V0H19.0619V32.487H31.5632V46.7701H0.801758Z" fill="white"/>
<path d="M207.198 81.9825C198.625 81.9825 193.81 78.6145 193.81 72.0464V71.7937H200.145V72.5517C200.145 75.1617 201.455 76.2145 207.198 76.2145C212.266 76.2145 213.448 75.4565 213.448 73.5619C213.448 71.8359 212.477 71.204 209.563 70.6987L201.623 69.562C196.556 68.7623 193.557 66.2362 193.557 61.6467C193.557 57.3947 197.02 52.9317 206.522 52.9317C215.222 52.9317 219.277 56.9315 219.277 62.8678V63.1205H212.9V62.5308C212.9 59.8364 211.506 58.6997 205.889 58.6997C201.328 58.6997 199.934 59.5837 199.934 61.394C199.934 63.0361 200.863 63.6258 203.228 64.0467L211.168 65.31C217.503 66.3201 219.783 69.3937 219.783 73.267C219.783 77.8565 216.194 81.9825 207.198 81.9825Z" fill="white"/>
<path d="M191.497 81.562H167.551V53.3531H191.497V59.0372H173.886V64.5525H190.863V70.1944H173.886V75.8784H191.497V81.562Z" fill="white"/>
<path d="M154.763 81.5621H148.428V59.0372H137.912V53.3531H165.279V59.0372H154.763V81.5621Z" fill="white"/>
<path d="M126.224 81.5621H119.889V59.0372H109.373V53.3531H136.74V59.0372H126.224V81.5621Z" fill="white"/>
<path d="M82.2159 81.5621H75.1211L87.4953 53.3531H96.533L108.992 81.5621H101.728L99.0669 75.331H84.9191L82.2159 81.5621ZM90.0292 63.5002L87.3684 69.6469H96.6176L93.9568 63.5002L92.2255 59.1216H91.761L90.0292 63.5002Z" fill="white"/>
<path d="M74.4731 81.5621H51.2871V53.3531H57.6221V75.8785H74.4731V81.5621Z" fill="white"/>
<path d="M18.4386 94.8516C6.69384 94.8516 0 91.1508 0 82.9608C0 76.9552 3.89461 73.6791 9.79739 73.012V72.3445C4.38143 71.738 1.64304 68.1586 1.64304 63.6694C1.64304 56.2683 7.54579 52.9312 17.6474 52.9312H25.0107V61.2427H16.3695C12.4749 61.2427 10.771 62.1525 10.771 65.4891C10.771 68.7047 12.7792 69.6145 16.3087 69.6145H28.1142V63.8512H37.1205V69.6145H43.3884V77.0766H37.1205V79.6242C37.1205 88.9669 32.2522 94.8516 18.4386 94.8516ZM18.7428 86.5401C26.3495 86.5401 28.1142 85.327 28.1142 80.1098V77.0766H14.9091C11.3796 77.0766 9.2497 78.2292 9.2497 81.8081C9.2497 85.2661 11.3187 86.5401 18.7428 86.5401Z" fill="white"/>
<path d="M254.497 47.7806C263.491 47.7806 272.484 47.7825 281.475 47.7788C282.816 47.7788 283.201 48.322 282.643 49.5792C281.333 52.5314 279.981 55.4635 278.668 58.4119C276.065 64.2553 273.473 70.1039 270.883 75.9549C270.47 76.8858 270.647 77.2064 271.656 77.2378C273.22 77.2861 274.799 77.401 276.349 77.2547C278.288 77.071 279.065 79.3481 278.505 80.8261C278.384 81.1491 277.81 81.4885 277.439 81.4936C273.727 81.5475 270.013 81.5274 266.3 81.5475C265.544 81.5513 265.502 80.9911 265.392 80.4961C264.896 78.2616 264.176 76.1142 263.01 74.1375C261.733 71.9733 260.117 70.132 257.809 69.0619C254.425 67.493 251.155 68.1699 248.313 70.9589C245.867 73.3603 244.527 76.372 243.659 79.6303C243.037 81.9685 243.367 81.5049 241.296 81.5363C238.26 81.5827 235.221 81.555 232.185 81.5311C230.488 81.518 229.72 80.1717 230.488 78.5972C230.897 77.7572 231.524 77.2678 232.517 77.2805C234.112 77.303 235.709 77.2678 237.304 77.2547C238.437 77.2453 238.621 76.98 238.15 75.9192C236.179 71.482 234.197 67.0481 232.212 62.6156C230.239 58.2099 228.252 53.8092 226.285 49.3992C225.68 48.0441 225.916 47.7117 227.429 47.7174C235.346 47.7399 243.264 47.7656 251.181 47.79C252.286 47.7933 253.392 47.79 254.497 47.79C254.497 47.7881 254.497 47.7863 254.497 47.7844V47.7806Z" fill="white"/>
<path d="M261.982 43.5923C261.69 43.3865 261.237 43.2314 261.12 42.9386C260.986 42.6093 261.068 42.117 261.215 41.764C261.383 41.3666 261.778 41.0722 261.988 40.686C262.592 39.5763 262.51 38.4682 261.847 37.4044C261.322 36.5607 260.731 35.7534 260.262 34.8796C259.132 32.7742 259.96 29.7966 261.951 28.6411C262.341 28.4147 262.763 28.1598 263.144 28.6157C263.506 29.0479 263.623 29.5054 263.236 30.0404C262.029 31.7104 262.187 33.3631 263.358 34.9888C263.741 35.5207 264.112 36.0637 264.435 36.6335C265.914 39.2375 264.322 42.2199 262.643 43.2852C262.473 43.3945 262.275 43.4593 261.982 43.5939V43.5923Z" fill="white"/>
<path d="M255.248 29.5147C255.198 29.6268 255.137 29.8975 254.982 30.1025C253.709 31.7842 254.017 33.3858 255.173 34.9922C255.774 35.8266 256.341 36.6931 256.818 37.5948C257.726 39.3133 256.495 42.4477 254.261 43.5384C253.955 43.6873 253.281 43.516 252.994 43.2709C252.538 42.8817 252.613 42.3019 252.973 41.8119C253.246 41.4403 253.597 41.1087 253.815 40.7132C254.43 39.5968 254.278 38.4981 253.583 37.4555C253.041 36.6435 252.427 35.8699 251.932 35.0338C250.628 32.8397 251.511 29.6797 253.697 28.5665C254.608 28.1037 255.246 28.432 255.25 29.5131L255.248 29.5147Z" fill="white"/>
<path d="M247.626 29.5315C247.569 29.6468 247.483 29.8966 247.339 30.108C246.212 31.7496 246.382 33.3432 247.451 34.9415C247.982 35.7327 248.526 36.5319 248.923 37.3919C249.823 39.3378 248.518 42.6178 246.582 43.4939C246.025 43.7454 245.647 43.4891 245.34 43.0999C244.958 42.6131 245.08 42.1165 245.422 41.6361C245.741 41.186 246.086 40.7392 246.318 40.2427C246.778 39.2594 246.518 38.3208 245.975 37.4448C245.582 36.8138 245.186 36.1827 244.76 35.5742C243.415 33.6507 243.76 30.4155 245.609 28.9661C245.818 28.8027 246.027 28.6362 246.259 28.5145C247.016 28.1157 247.634 28.5176 247.626 29.533V29.5315Z" fill="white"/>
<path d="M283.731 9.45398H225.235C225.094 9.45398 224.979 9.56807 224.979 9.70881V14.4514C224.979 14.5921 225.094 14.7062 225.235 14.7062H283.731C283.872 14.7062 283.986 14.5921 283.986 14.4514V9.70881C283.986 9.56807 283.872 9.45398 283.731 9.45398Z" fill="white"/>
<path d="M283.731 0H225.235C225.094 0 224.979 0.11409 224.979 0.254827V4.99742C224.979 5.13816 225.094 5.25225 225.235 5.25225H283.731C283.872 5.25225 283.986 5.13816 283.986 4.99742V0.254827C283.986 0.11409 283.872 0 283.731 0Z" fill="white"/>
<path d="M283.731 18.9085H225.235C225.094 18.9085 224.979 19.0226 224.979 19.1633V23.9059C224.979 24.0467 225.094 24.1608 225.235 24.1608H283.731C283.872 24.1608 283.986 24.0467 283.986 23.9059V19.1633C283.986 19.0226 283.872 18.9085 283.731 18.9085Z" fill="white"/>
<path d="M268.589 64.8703H241.303V81.5616H268.589V64.8703Z" fill="white"/>
<path d="M283.988 88.8581H52.834V92.6115H283.988V88.8581Z" fill="white"/>
</svg>
