<svg width="207" height="54" viewBox="0 0 207 54" fill="none" xmlns="http://www.w3.org/2000/svg">
<rect x="0.886719" width="205.783" height="53.871" rx="8.77719" fill="#1D0C39"/>
<g clip-path="url(#clip0_1590_6749)">
<path d="M40.9102 38.8599H57.8694V34.3993H46.0333V28.9229H55.8379V24.4623H46.0333V19.3834H57.9136V14.9227H40.9102V38.8599ZM78.2735 29.9829L67.144 14.9227H59.5035L61.8884 17.9701V38.9483H66.9673V23.2257L78.4501 38.8599H83.3524V14.9227H78.2293L78.2735 29.9829ZM33.1814 26.538C35.4338 26.1405 37.2888 24.0206 37.2888 21.0616C37.2888 17.8818 34.9922 14.9227 30.3549 14.9227H15.5156L17.8563 17.8818V38.8599H30.8849C35.478 38.8599 37.9071 35.9892 37.9071 32.3677C37.7746 29.4529 35.7872 26.8913 33.1814 26.538ZM22.9353 19.4275H29.3391C31.0615 19.4275 32.1657 20.4433 32.1657 21.9449C32.1657 23.4465 31.0615 24.4623 29.3391 24.4623H22.9353V19.4275ZM29.56 34.4435H22.9353V28.9229H29.56C31.5032 28.9229 32.6073 30.1595 32.6073 31.6611C32.6073 33.3835 31.459 34.3993 29.56 34.4435ZM158.3 29.9829H160.95V32.8094C159.58 33.9135 157.858 34.576 156.047 34.6201C151.763 34.6201 148.76 31.352 148.76 26.9797C148.76 22.6074 151.807 19.3392 156.047 19.3392C158.255 19.3392 160.331 20.4875 161.524 22.3866L165.587 20.1342C163.864 17.3518 160.817 14.9227 156.003 14.9227C149.246 14.9227 143.593 19.6042 143.593 26.8913C143.593 34.1785 149.158 38.8599 156.003 38.8599C159.757 38.9483 163.334 37.3142 165.808 34.5318V25.6989H154.855L158.3 29.9829ZM135.246 29.9829L124.116 14.9227H116.52L118.861 17.9701V38.9483H123.984V23.2257L135.467 38.8599H140.325V14.9227H135.246V29.9829ZM182.767 14.9227H172.918L175.259 17.9701L174.861 19.1184L167.221 38.9041H173.006L174.508 34.841H184.798L186.3 38.9041H192.086L182.767 14.9227ZM175.789 30.3803L179.543 20.09L183.297 30.3803H175.789ZM108.394 14.9227H113.517V38.9483H108.394V14.9227ZM104.331 19.03V14.9227H86.3114V19.3834H97.6175L86.3114 34.7526V38.8599H104.551V34.3993H92.9803L104.331 19.03Z" fill="white"/>
</g>
<defs>
<clipPath id="clip0_1590_6749">
<rect width="176.526" height="24.0255" fill="white" transform="translate(15.5156 14.9227)"/>
</clipPath>
</defs>
</svg>
