<svg width="197" height="55" viewBox="0 0 197 55" fill="none" xmlns="http://www.w3.org/2000/svg">
<rect y="0.742035" width="196.661" height="53.871" rx="4.04033" fill="#1D0C39"/>
<g clip-path="url(#clip0_1590_6799)">
<path d="M22.2382 27.6784L18.4672 31.4494L14.6289 27.6784L18.4672 23.8401L22.2382 27.6784ZM31.4636 18.453L37.9955 24.9849L41.8338 21.1466L31.4636 10.8438L21.1608 21.1466L24.9991 24.9849L31.4636 18.453ZM44.46 23.8401L40.689 27.6784L44.5273 31.5168L48.2983 27.6784L44.46 23.8401ZM31.4636 36.9039L24.9317 30.372L21.0934 34.2103L31.4636 44.5131L41.7664 34.2103L37.9955 30.372L31.4636 36.9039ZM31.4636 31.4494L35.3019 27.6111L31.4636 23.8401L27.6253 27.6784L31.4636 31.4494ZM71.5975 31.8534C71.5975 29.2946 70.2507 28.0825 68.1632 27.2744C69.51 26.5337 70.5874 25.3889 70.5874 23.3014V23.2341C70.5874 20.3385 68.2306 18.453 64.5269 18.453H55.9076V36.9039H64.6616C68.8366 36.9039 71.5975 35.2204 71.5975 31.8534ZM66.4798 23.9748C66.4798 25.3889 65.335 25.9276 63.5842 25.9276H59.8132V22.022H63.8535C65.537 22.022 66.4798 22.6954 66.4798 23.9748ZM67.5572 31.3147C67.5572 32.6615 66.4798 33.3349 64.729 33.3349H59.8806V29.2946H64.5943C66.6144 29.2946 67.5572 30.0353 67.5572 31.3147ZM80.0822 36.9039V18.453H75.9745V36.9039H80.0822ZM101.9 36.9039V18.453H97.8596V29.8333L89.2403 18.453H85.4693V36.9039H89.5096V25.1869L98.4657 36.9039H101.9ZM124.391 36.9039L116.445 18.3184H112.674L104.728 36.9039H108.903L110.587 32.7289H118.398L120.081 36.9039H124.391ZM116.984 29.1599H112.068L114.56 23.1667L116.984 29.1599ZM143.785 36.9039V18.453H139.744V29.8333L131.125 18.453H127.354V36.9039H131.394V25.1869L140.35 36.9039H143.785ZM164.727 33.941L162.101 31.3147C160.619 32.6615 159.34 33.4696 157.252 33.4696C154.088 33.4696 151.865 30.8434 151.865 27.6784V27.6111C151.865 24.4462 154.088 21.8873 157.252 21.8873C159.071 21.8873 160.552 22.6954 161.966 23.9748L164.592 21.0119C162.909 19.3284 160.821 18.1837 157.32 18.1837C151.663 18.1837 147.69 22.4934 147.69 27.7458V27.6784C147.69 32.9982 151.731 37.1732 157.185 37.1732C160.687 37.2405 162.842 35.9611 164.727 33.941ZM182.033 36.9039V33.2676H172V29.3619H180.686V25.7256H172V21.9546H181.898V18.3184H167.959V36.7692L182.033 36.9039Z" fill="white"/>
</g>
<defs>
<clipPath id="clip0_1590_6799">
<rect width="167.404" height="33.6694" fill="white" transform="translate(14.6289 10.8429)"/>
</clipPath>
</defs>
</svg>
