<svg width="280" height="54" viewBox="0 0 280 54" fill="none" xmlns="http://www.w3.org/2000/svg">
<rect width="279.882" height="53.871" rx="8.77719" fill="#1D0C39"/>
<g clip-path="url(#clip0_1590_6722)">
<path fill-rule="evenodd" clip-rule="evenodd" d="M14.6289 16.3705H23.6441C28.6584 16.3705 31.2803 18.9631 31.2803 22.1468C31.2803 24.3446 30.041 25.8374 28.3224 26.6269V26.6838C30.5202 27.4733 31.7595 29.2194 31.7595 31.4448C31.7595 34.6285 29.3084 37.4175 24.0113 37.4175H14.6289V16.3705ZM23.3631 24.71C24.8559 24.71 25.5334 23.9499 25.5334 23.1034C25.5334 22.257 24.8577 21.4693 23.3631 21.4693H20.7155V24.71H23.3631ZM23.4476 32.3169C25.0248 32.3169 25.7868 31.5568 25.7868 30.5708C25.7868 29.5848 24.9973 28.8247 23.477 28.8247H20.7155V32.3187H23.4476V32.3169ZM33.054 28.8522V16.3705H39.1957V28.7953C39.1957 31.1345 40.3506 32.3738 42.3225 32.3738C44.2945 32.3738 45.5338 31.1345 45.5338 28.7678V16.3705H51.7049V28.8522C51.7049 34.1493 48.1557 37.9537 42.3225 37.9537C36.4893 37.9537 33.0521 34.1493 33.0521 28.8522H33.054ZM67.3428 17.3841V22.7931C66.019 21.8641 63.7643 21.216 61.9337 21.216C60.272 21.216 59.4256 21.7521 59.4256 22.4553C59.4256 23.1585 60.3547 23.5257 62.0181 24.117C64.8365 25.1029 68.6666 26.4267 68.6666 30.9068C68.6666 34.9076 65.6517 37.8655 60.3547 37.8655C57.6226 37.8655 55.1145 37.076 53.5648 36.035V30.3431C55.0869 31.5825 57.3967 32.5684 59.6221 32.5684C61.5095 32.5684 62.3835 31.8634 62.3835 31.0757C62.3835 30.0622 60.9459 29.6105 59.2273 28.9899C56.9726 28.1729 53.3959 26.7077 53.3959 22.6224C53.3959 18.9319 56.2987 15.917 61.482 15.917C63.7643 15.917 65.8207 16.5082 67.3428 17.3822V17.3841ZM70.2438 16.3705H76.3855V37.4175H70.2438V16.3705ZM98.222 37.4175H92.3612L84.7819 26.1201H84.7543V37.4175H78.9229V16.3705H84.7837L92.363 27.4715H92.3906V16.3705H98.222V37.4175ZM100.758 16.3705H115.296V21.8365H106.899V24.3722H114.449V29.3314H106.899V31.9515H115.296V37.4175H100.758V16.3705ZM130.708 17.3841V22.7931C129.384 21.8641 127.129 21.216 125.299 21.216C123.637 21.216 122.791 21.7521 122.791 22.4553C122.791 23.1585 123.72 23.5257 125.383 24.117C128.201 25.1029 132.032 26.4267 132.032 30.9068C132.032 34.9076 129.017 37.8655 123.72 37.8655C120.988 37.8655 118.479 37.076 116.93 36.035V30.3431C118.452 31.5825 120.762 32.5684 122.987 32.5684C124.875 32.5684 125.748 31.8634 125.748 31.0757C125.748 30.0622 124.311 29.6105 122.592 28.9899C120.338 28.1729 116.761 26.7077 116.761 22.6224C116.761 18.9319 119.664 15.917 124.847 15.917C127.129 15.917 129.186 16.5082 130.708 17.3822V17.3841ZM146.964 17.3841V22.7931C145.641 21.8641 143.386 21.216 141.555 21.216C139.894 21.216 139.047 21.7521 139.047 22.4553C139.047 23.1585 139.976 23.5257 141.64 24.117C144.458 25.1029 148.288 26.4267 148.288 30.9068C148.288 34.9076 145.273 37.8655 139.976 37.8655C137.244 37.8655 134.736 37.076 133.186 36.035V30.3431C134.709 31.5825 137.018 32.5684 139.244 32.5684C141.131 32.5684 142.005 31.8634 142.005 31.0757C142.005 30.0622 140.567 29.6105 138.849 28.9899C136.594 28.1729 133.018 26.7077 133.018 22.6224C133.018 18.9319 135.92 15.917 141.104 15.917C143.386 15.917 145.442 16.5082 146.964 17.3822V17.3841ZM155.405 37.4579H161.547V16.4128H155.405V37.4598V37.4579ZM183.379 16.4128H177.548V27.5137H177.52L169.941 16.4128H164.08V37.4598H169.912V26.1624H169.939L177.519 37.4598H183.379V16.4128ZM193.265 15.9611C188.08 15.9611 185.179 18.9759 185.179 22.6665C185.179 26.7517 188.757 28.2169 191.01 29.034C192.729 29.6546 194.166 30.1044 194.166 31.1198C194.166 31.9093 193.292 32.6125 191.405 32.6125C189.18 32.6125 186.868 31.6265 185.348 30.3872V36.079C186.897 37.1219 189.405 37.9096 192.137 37.9096C197.435 37.9096 200.449 34.9517 200.449 30.9509C200.449 26.4708 196.618 25.147 193.801 24.161C192.139 23.5698 191.208 23.232 191.208 22.4994C191.208 21.7668 192.053 21.26 193.717 21.26C195.547 21.26 197.802 21.9082 199.126 22.8372V17.4263C197.604 16.5523 195.547 15.9611 193.265 15.9611ZM201.883 37.4579H208.025V16.4128H201.883V37.4598V37.4579ZM216.702 31.9075H217.887C221.07 31.9075 223.127 30.1044 223.127 26.9482C223.127 23.792 221.07 21.9614 217.887 21.9614H216.702V31.9075ZM229.325 26.9482C229.325 33.2882 224.535 37.4579 217.661 37.4579H210.561V16.4128H217.661C224.535 16.4128 229.325 20.61 229.325 26.95V26.9482ZM230.991 37.4579H245.529V31.9919H237.132V29.3718H244.682V24.4126H237.132V21.8769H245.529V16.4128H230.991V37.4598V37.4579ZM255.196 26.357C256.745 26.357 257.957 25.6244 257.957 24.1592C257.957 22.694 256.745 21.9614 255.168 21.9614H253.872V26.357H255.196ZM265.254 37.4579H258.012L254.012 30.949H253.87V37.4579H247.729V16.4128H255.223C260.493 16.4128 264.154 18.7519 264.154 23.7387C264.154 25.7107 263.28 28.5841 259.786 30.0493L265.252 37.4598L265.254 37.4579Z" fill="white"/>
</g>
<defs>
<clipPath id="clip0_1590_6722">
<rect width="250.625" height="22.033" fill="white" transform="translate(14.6289 15.919)"/>
</clipPath>
</defs>
</svg>
