<svg width="164" height="54" viewBox="0 0 164 54" fill="none" xmlns="http://www.w3.org/2000/svg">
<rect width="163.575" height="53.871" rx="8.77719" fill="#1D0C39"/>
<path d="M31.0842 19.5674C30.5711 18.2863 29.3212 16.9027 26.9801 17.0928C23.9979 17.417 23.0686 20.2749 23.5193 21.9799C22.3316 21.1756 20.312 20.822 18.5491 22.332C16.2731 24.6135 17.4905 27.6991 18.7417 28.4392C17.3628 28.3116 15.1833 29.2433 14.7012 31.6808C14.1883 34.7071 16.4953 36.4713 18.7417 36.4713H43.6523C46.25 36.4713 47.6912 34.224 47.5296 32.1046C47.2747 29.3386 44.7436 28.2773 43.3629 28.5047C44.5164 27.8611 46.057 24.8379 43.7144 22.4613C41.8549 20.6925 39.4843 21.3361 38.6508 22.1075C39.1001 20.6299 38.3633 17.5756 35.3473 17.0925C35.1388 17.0691 34.938 17.0566 34.7467 17.0566C32.4444 17.057 31.4091 18.74 31.0842 19.5674Z" fill="white"/>
<path d="M20.2842 24.3203C20.7533 23.9359 21.2144 23.8786 21.5488 23.9609C21.8719 24.0405 22.2846 24.3012 22.5498 24.9854L22.5645 25.0234L22.5811 25.0625L24.373 29.168L20.6738 26.6309L20.6621 26.6221L20.6494 26.6143L20.4346 26.4551C19.9825 26.0805 19.8749 25.6933 19.8711 25.3779C19.8658 24.939 20.0665 24.5327 20.2842 24.3203Z" fill="white" stroke="white" stroke-width="4"/>
<path d="M27.3242 19.6934C27.6538 19.657 28.0615 19.7749 28.3408 20.0361C28.5559 20.2372 28.8267 20.6445 28.7139 21.5146L28.0586 26.1377L26.1494 21.6357C26.0178 21.2604 26.0165 20.9867 26.0488 20.7959C26.0833 20.5927 26.1697 20.4066 26.3027 20.2383C26.4403 20.0642 26.6199 19.9207 26.8047 19.8232C26.895 19.7756 26.9759 19.7439 27.041 19.7256C27.0728 19.7167 27.0986 19.7119 27.1172 19.709C27.1348 19.7062 27.1445 19.7051 27.1455 19.7051L27.2354 19.7041L27.3242 19.6934Z" fill="white" stroke="white" stroke-width="4"/>
<path d="M34.8018 19.6621C34.8168 19.6621 34.8452 19.663 34.9141 19.668L34.9502 19.6709L34.9863 19.6719C35.1828 19.6791 35.5964 19.8432 35.8965 20.2588C36.1433 20.6006 36.2592 21.0396 36.0479 21.6006L34.124 26.1807L33.709 23.3975C33.8172 23.3381 33.978 23.2447 34.1426 23.1104L35.165 22.2754L34.7998 21.0068C34.6424 20.4612 34.3161 20.1024 34.0332 19.8809C34.222 19.7635 34.446 19.689 34.6709 19.668L34.8018 19.6621Z" fill="white" stroke="white" stroke-width="4"/>
<path d="M40.8828 23.9551H40.8838C41.0885 23.9551 41.3031 24.0024 41.4941 24.085C41.6925 24.1708 41.802 24.2667 41.835 24.3037L41.873 24.3467L41.9141 24.3877C42.1406 24.6146 42.3141 25.0055 42.3008 25.4062C42.2899 25.7317 42.1547 26.1597 41.5693 26.5771L37.8398 29.1504L39.5596 25.1455L39.5654 25.1299L39.5713 25.1152C39.8108 24.5311 40.0812 24.2652 40.2646 24.1396C40.4035 24.0446 40.5533 23.988 40.7158 23.9658L40.8828 23.9551Z" fill="white" stroke="white" stroke-width="4"/>
<path d="M43.585 31.0742C44.0965 31.0754 44.6491 31.4661 44.8467 32.0488C44.9828 32.5144 44.8929 33.0013 44.6523 33.3633C44.4212 33.7109 44.0956 33.8926 43.7148 33.8926H39.1367L42.7803 31.3467C43.1115 31.1307 43.3835 31.0746 43.585 31.0742Z" fill="white" stroke="white" stroke-width="4"/>
<path d="M18.1592 31.1016C18.467 31.0025 18.9354 31.0041 19.5068 31.3672L23.126 33.8945H18.71C18.2093 33.8945 17.7942 33.6691 17.54 33.3369C17.3107 33.0371 17.1613 32.5796 17.3125 31.96C17.5332 31.4418 17.8649 31.1963 18.1592 31.1016Z" fill="white" stroke="white" stroke-width="4"/>
<path d="M51.8242 28.0039C51.8242 31.1279 54.3785 36.8145 64.1317 36.8145C73.1239 36.8145 75.9639 32.689 75.9639 30.7974H69.0023C69.0023 30.7974 68.6717 33.2965 64.7446 33.2965C60.815 33.2965 59.7523 30.017 59.7523 28.1207C59.7523 26.2315 60.815 23.1291 64.7446 23.1291C68.6717 23.1291 69.0023 25.3049 69.0023 25.3049H75.9639C75.9639 23.4111 73.8802 19.3438 64.1317 19.3438C54.3785 19.3438 51.8242 25.3999 51.8242 28.0039Z" fill="white"/>
<path d="M124.809 28.0039C124.809 31.1279 127.365 36.8145 137.116 36.8145C146.107 36.8145 148.948 32.689 148.948 30.7974H141.992C141.992 30.7974 141.659 33.2965 137.731 33.2965C133.802 33.2965 132.738 30.017 132.738 28.1207C132.738 26.2315 133.802 23.1291 137.731 23.1291C141.659 23.1291 141.992 25.3049 141.992 25.3049H148.948C148.948 23.4111 146.867 19.3438 137.116 19.3438C127.366 19.3438 124.809 25.3999 124.809 28.0039Z" fill="white"/>
<path d="M94.9789 19.625V30.2103L86.8708 19.625H77.75V36.3913H84.0029V25.6843L91.969 36.3913H101.232V19.625H94.9789Z" fill="white"/>
<path d="M115.002 32.3858V32.4079H109.79V29.3294H115.002V29.3394C116.115 29.3394 117.014 30.0231 117.014 30.865C117.014 31.7048 116.115 32.3858 115.002 32.3858ZM109.838 22.8859H114.86V22.893C115.711 22.893 116.401 23.4526 116.401 24.1413C116.401 24.8327 115.711 25.3874 114.86 25.3874V25.3949H109.838V22.8859ZM120.121 27.4777C121.26 27.4777 123.641 26.1563 123.641 23.5963C123.641 19.951 116.85 19.625 115.808 19.625H103.297V36.3913H115.808C121.826 36.3913 124.243 34.491 124.243 31.3177C124.243 28.1443 120.121 27.4777 120.121 27.4777Z" fill="white"/>
</svg>
