<svg width="132" height="54" viewBox="0 0 132 54" fill="none" xmlns="http://www.w3.org/2000/svg">
<rect x="0.140625" width="131.748" height="53.871" rx="8.77719" fill="#1D0C39"/>
<path d="M29.6478 32.3932L25.3773 34.2551V34.0672C24.5574 34.2722 23.635 34.3918 22.7809 34.443C18.7496 34.4088 15.5724 32.2907 15.5211 29.7968V28.8743C16.8364 30.7875 19.5354 32.0857 22.7809 32.0345C23.8741 32.0857 25.0015 31.9149 25.941 31.6587L26.3168 30.7363C25.2065 31.0779 23.9766 31.3 22.7809 31.3C18.7496 31.3 15.5724 29.1989 15.5211 26.6537V25.9021C16.8364 27.6786 19.5354 28.9598 22.7809 28.8743C24.2499 28.9598 25.6677 28.6523 26.8805 28.1227L27.0684 27.2003C25.8898 27.8153 24.3695 28.174 22.798 28.1227C18.7667 28.174 15.5895 26.0729 15.5382 23.4765V22.7249C16.8535 24.5356 19.5524 25.8338 22.798 25.885C24.6428 25.8338 26.3852 25.3384 27.82 24.5868L28.0079 23.4765C26.7097 24.4331 24.8136 25.0651 22.798 25.1505C18.7667 25.0651 15.5895 22.947 15.5382 20.3164C15.5724 17.8053 18.7667 15.7043 22.798 15.6701C25.1894 15.7043 27.4272 16.5413 28.7425 17.9078L28.8791 18.1299H29.8186L29.682 17.9078C28.3667 16.1143 25.719 14.9356 22.798 14.9356C18.3225 14.9185 14.7695 17.3612 14.7695 20.2993V20.4872V29.9676C14.9233 32.8373 18.3909 35.1775 22.7638 35.1775C25.6506 35.1946 28.2642 34.0501 29.6478 32.3932Z" fill="white"/>
<path d="M27.9043 38.9355L29.4075 32.5469L25.0858 34.4259L27.7164 23.3569H22.6602L23.9755 17.9078H40.1178L38.8025 23.3569H33.5413L32.4139 26.3633L38.2388 23.9206L27.9043 38.9355ZM30.5349 31.2487L29.7833 35.0067L35.984 25.6288L30.9107 27.8836L33.1655 22.6224H38.2388L39.1783 18.6765H24.5221L23.5826 22.6224H28.6559L26.2132 33.1277L30.5349 31.2487Z" fill="white"/>
<path d="M50.831 21.5804C50.8481 22.1783 50.6601 22.6395 50.2843 22.9811C49.9085 23.3228 49.3961 23.4936 48.7299 23.4936C48.0637 23.4936 47.5171 23.2715 47.1071 22.8445C46.6972 22.4174 46.4922 21.8537 46.4922 21.1705V20.0601C46.4922 19.3769 46.6972 18.8132 47.0901 18.3861C47.5 17.9591 48.0296 17.737 48.6787 17.737C49.3619 17.737 49.8915 17.9078 50.2843 18.2324C50.6772 18.574 50.8651 19.0352 50.848 19.6331V19.6502H49.7548C49.7548 19.2915 49.6694 19.0182 49.4986 18.8473C49.3278 18.6765 49.0545 18.5911 48.6957 18.5911C48.3541 18.5911 48.0979 18.7278 47.91 19.0011C47.7221 19.2744 47.6196 19.616 47.6196 20.0431V21.1705C47.6196 21.5975 47.7221 21.9562 47.91 22.2295C48.115 22.5028 48.3883 22.6395 48.747 22.6395C49.0886 22.6395 49.3278 22.5541 49.4986 22.3833C49.6694 22.2124 49.7548 21.9391 49.7548 21.5804H50.831ZM57.0146 21.1192C57.0146 21.8025 56.7925 22.3833 56.3655 22.8274C55.9384 23.2715 55.3747 23.4936 54.6744 23.4936C53.974 23.4936 53.4274 23.2715 52.9833 22.8274C52.5562 22.3833 52.3342 21.8025 52.3342 21.1192V20.1114C52.3342 19.4281 52.5562 18.8644 52.9833 18.4032C53.4103 17.9591 53.974 17.7199 54.6573 17.7199C55.3576 17.7199 55.9213 17.942 56.3484 18.4032C56.7925 18.8473 56.9975 19.4281 56.9975 20.1114V21.1192H57.0146ZM55.8872 20.0943C55.8872 19.6502 55.7847 19.3085 55.5626 19.0182C55.3406 18.7448 55.0502 18.5911 54.6573 18.5911C54.2815 18.5911 53.974 18.7278 53.769 19.0182C53.5641 19.2915 53.4445 19.6502 53.4445 20.0943V21.1021C53.4445 21.5463 53.547 21.905 53.769 22.1954C53.974 22.4687 54.2815 22.6224 54.6573 22.6224C55.0502 22.6224 55.3406 22.4858 55.5626 22.1954C55.7847 21.9221 55.8872 21.5463 55.8872 21.1021V20.0943ZM59.9185 23.4082H58.7911V17.8053H59.9185V23.4082ZM66.3925 23.4082H65.2651L63.0103 19.6331H62.9932V23.4082H61.8658V17.8053H62.9932L65.248 21.5804H65.2651V17.8053H66.3925V23.4082ZM72.0466 18.6765H70.4409V23.4082H69.3135V18.6765H67.742V17.8053H72.0466V18.6765ZM76.6928 20.9484H74.6088V22.5541H77.0857V23.4082H73.4985V17.8053H77.0857V18.6765H74.6259V20.0772H76.7099V20.9484H76.6928ZM79.8188 22.5541H82.3298V23.4082H78.6914V17.8053H79.8188V22.5541ZM87.1127 20.9484H85.0288V22.5541H87.5056V23.4082H83.9184V17.8053H87.5056V18.6765H85.0458V20.0772H87.1298V20.9484H87.1127ZM93.4159 22.6566C93.2451 22.8786 92.9889 23.0836 92.6302 23.2544C92.2885 23.4253 91.8444 23.5107 91.2978 23.5107C90.6145 23.5107 90.0679 23.3057 89.6408 22.8786C89.2138 22.4516 88.9917 21.905 88.9917 21.2217V20.0431C88.9917 19.3598 89.1967 18.8132 89.6238 18.3861C90.0337 17.9591 90.5803 17.737 91.2295 17.737C91.9127 17.737 92.4423 17.9078 92.801 18.2324C93.1597 18.5569 93.3476 18.984 93.3305 19.5306V19.5477H92.2714C92.2714 19.2573 92.186 19.0182 92.0152 18.8473C91.8444 18.6765 91.5882 18.5911 91.2636 18.5911C90.922 18.5911 90.6487 18.7278 90.4266 18.984C90.2216 19.2573 90.1191 19.5989 90.1191 20.0089V21.1875C90.1191 21.6146 90.2216 21.9562 90.4437 22.2295C90.6658 22.5028 90.9562 22.6224 91.3149 22.6224C91.5882 22.6224 91.7931 22.5882 91.9469 22.537C92.1006 22.4858 92.2202 22.4174 92.3056 22.332V21.2388H91.2295V20.453H93.433V22.6566H93.4159ZM96.3198 21.1705V23.4082H95.1924V17.8053H97.1398C97.7718 17.8053 98.2842 17.9591 98.643 18.2495C99.0017 18.5399 99.1896 18.9498 99.1896 19.4623C99.1896 19.7527 99.1213 19.9918 98.9675 20.2139C98.8138 20.4189 98.5917 20.5897 98.3013 20.7263C98.6259 20.8288 98.865 20.9826 99.0188 21.2217C99.1554 21.4438 99.2408 21.7342 99.2408 22.0758V22.4858C99.2408 22.6395 99.2579 22.8103 99.3092 22.9811C99.3433 23.1519 99.4287 23.2715 99.5312 23.3569V23.4423H98.3697C98.2672 23.3569 98.1988 23.2203 98.1647 23.0324C98.1305 22.8445 98.1134 22.6566 98.1134 22.4858V22.0929C98.1134 21.8196 98.0451 21.5975 97.8914 21.4438C97.7376 21.29 97.5156 21.2046 97.2422 21.2046H96.3198V21.1705ZM96.3198 20.3164H97.1227C97.4302 20.3164 97.6693 20.248 97.823 20.1114C97.9768 19.9747 98.0622 19.7868 98.0622 19.5135C98.0622 19.2573 97.9768 19.0523 97.823 18.8986C97.6693 18.7448 97.4472 18.6765 97.1398 18.6765H96.3198V20.3164ZM103.955 22.2124H102.145L101.769 23.4253H100.59L102.486 17.8224H103.631L105.51 23.4253H104.331L103.955 22.2124ZM102.418 21.3242H103.682L103.067 19.3427H103.05L102.418 21.3242ZM108.004 21.3754V23.4082H106.876V17.8053H109.029C109.678 17.8053 110.173 17.9762 110.549 18.3007C110.925 18.6253 111.096 19.0694 111.096 19.5989C111.096 20.1285 110.908 20.5726 110.549 20.8972C110.173 21.2217 109.678 21.3925 109.029 21.3925H108.004V21.3754ZM108.004 20.5214H109.029C109.336 20.5214 109.575 20.4359 109.746 20.2651C109.9 20.0943 109.985 19.8722 109.985 19.616C109.985 19.3427 109.9 19.1206 109.746 18.9498C109.592 18.779 109.353 18.6936 109.029 18.6936H108.004V20.5214ZM117.262 23.4082H116.135V21.085H113.846V23.4082H112.718V17.8053H113.846V20.2139H116.135V17.8053H117.262V23.4082Z" fill="white"/>
<path d="M48.5386 32.5641H47.8383V28.8744H46.5742V28.2765H49.8027V28.8744H48.5386V32.5641ZM53.2361 32.5641H52.5358V30.5655C52.5358 30.3093 52.4845 30.1214 52.382 30.0018C52.2795 29.8822 52.1258 29.8139 51.9037 29.8139C51.6134 29.8139 51.4084 29.8993 51.2717 30.0701C51.1351 30.2409 51.0667 30.5313 51.0667 30.9413V32.547H50.3835V27.9862H51.0667V29.1477C51.0667 29.3356 51.0497 29.5235 51.0326 29.7456H51.0838C51.1692 29.5918 51.3059 29.4723 51.4767 29.3869C51.6475 29.3014 51.8354 29.2502 52.0575 29.2502C52.8432 29.2502 53.2361 29.6431 53.2361 30.4459V32.5641ZM55.6105 32.6153C55.098 32.6153 54.7052 32.4616 54.4319 32.1712C54.1415 31.8808 54.0048 31.4708 54.0048 30.9584C54.0048 30.4288 54.1415 30.0189 54.3977 29.7114C54.6539 29.4039 55.0297 29.2502 55.4909 29.2502C55.918 29.2502 56.2596 29.3869 56.4988 29.6431C56.755 29.8993 56.8746 30.258 56.8746 30.7192V31.095H54.7052C54.7222 31.4025 54.8077 31.6587 54.9614 31.8125C55.1151 31.9833 55.3543 32.0687 55.6447 32.0687C55.8326 32.0687 56.0205 32.0516 56.1742 32.0175C56.345 31.9833 56.5158 31.915 56.7037 31.8296V32.3933C56.5329 32.4787 56.3621 32.5299 56.1913 32.5641C56.0375 32.5982 55.8326 32.6153 55.6105 32.6153ZM55.4909 29.7797C55.2689 29.7797 55.098 29.8481 54.9614 29.9847C54.8247 30.1214 54.7564 30.3264 54.7222 30.5997H56.1913C56.1913 30.3264 56.123 30.1214 56.0034 29.9847C55.8838 29.8481 55.713 29.7797 55.4909 29.7797ZM60.8375 29.831H60.0518V32.5641H59.3514V29.831H58.8219V29.5064L59.3514 29.3014V29.0965C59.3514 28.7207 59.4368 28.4303 59.6247 28.2424C59.8126 28.0545 60.0859 27.9691 60.4446 27.9691C60.6838 27.9691 60.9229 28.0032 61.1621 28.0886L60.9742 28.6182C60.8034 28.5669 60.6496 28.5328 60.4788 28.5328C60.3251 28.5328 60.2055 28.584 60.1372 28.6694C60.0688 28.7719 60.0347 28.9086 60.0347 29.0965V29.3014H60.8204V29.831H60.8375ZM63.6902 32.5641L63.5877 32.137H63.5535C63.451 32.2908 63.3144 32.4103 63.1436 32.4957C62.9728 32.5812 62.7678 32.6324 62.5457 32.6324C62.1528 32.6324 61.8624 32.5299 61.6575 32.342C61.4525 32.1541 61.3671 31.8466 61.3671 31.4538V29.3185H62.0674V31.3171C62.0674 31.5733 62.1187 31.7441 62.2212 31.8808C62.3237 32.0004 62.4774 32.0687 62.6995 32.0687C62.9898 32.0687 63.1948 31.9833 63.3315 31.8125C63.4681 31.6417 63.5365 31.3513 63.5365 30.9413V29.3185H64.2368V32.5641H63.6902ZM66.4233 32.0516C66.5941 32.0516 66.7649 32.0175 66.9357 31.9662V32.4787C66.8674 32.5128 66.7649 32.547 66.6453 32.5641C66.5258 32.5812 66.4062 32.5982 66.2695 32.5982C65.6204 32.5982 65.2959 32.2566 65.2959 31.5733V29.831H64.8518V29.5235L65.33 29.2673L65.5692 28.584H65.9962V29.3014H66.9187V29.831H65.9962V31.5733C65.9962 31.7441 66.0304 31.8637 66.1158 31.9491C66.1671 32.0175 66.2866 32.0516 66.4233 32.0516ZM69.8567 32.5641L69.7542 32.137H69.7201C69.6176 32.2908 69.4809 32.4103 69.3101 32.4957C69.1393 32.5812 68.9343 32.6324 68.7122 32.6324C68.3194 32.6324 68.029 32.5299 67.824 32.342C67.6361 32.1541 67.5336 31.8466 67.5336 31.4538V29.3185H68.234V31.3171C68.234 31.5733 68.2852 31.7441 68.3877 31.8808C68.4902 32.0004 68.6439 32.0687 68.866 32.0687C69.1564 32.0687 69.3614 31.9833 69.498 31.8125C69.6347 31.6417 69.703 31.3513 69.703 30.9413V29.3185H70.4033V32.5641H69.8567ZM73.0339 29.2502C73.1706 29.2502 73.2902 29.2673 73.3756 29.2844L73.3073 29.9335C73.2048 29.9164 73.1023 29.8993 72.9998 29.8993C72.7265 29.8993 72.5044 29.9847 72.3336 30.1726C72.1628 30.3605 72.0774 30.5826 72.0774 30.873V32.5641H71.3941V29.3185H71.9407L72.0261 29.8822H72.0603C72.1628 29.6943 72.3165 29.5406 72.4873 29.421C72.6411 29.3185 72.829 29.2502 73.0339 29.2502ZM75.2717 32.6153C74.7592 32.6153 74.3663 32.4616 74.093 32.1712C73.8026 31.8808 73.666 31.4708 73.666 30.9584C73.666 30.4288 73.8026 30.0189 74.0589 29.7114C74.3151 29.4039 74.6909 29.2502 75.1521 29.2502C75.5791 29.2502 75.9208 29.3869 76.1599 29.6431C76.4161 29.8993 76.5357 30.258 76.5357 30.7192V31.095H74.3663C74.3834 31.4025 74.4688 31.6587 74.6226 31.8125C74.7763 31.9833 75.0154 32.0687 75.3058 32.0687C75.4937 32.0687 75.6816 32.0516 75.8354 32.0175C76.0062 31.9833 76.177 31.915 76.3649 31.8296V32.3933C76.1941 32.4787 76.0233 32.5299 75.8524 32.5641C75.6816 32.5982 75.4937 32.6153 75.2717 32.6153ZM75.1521 29.7797C74.93 29.7797 74.7592 29.8481 74.6226 29.9847C74.4859 30.1214 74.4176 30.3264 74.3834 30.5997H75.8524C75.8524 30.3264 75.7841 30.1214 75.6645 29.9847C75.5279 29.8481 75.3571 29.7797 75.1521 29.7797ZM81.7457 30.9242C81.7457 31.4538 81.609 31.8637 81.3357 32.1712C81.0624 32.4616 80.6866 32.6153 80.2083 32.6153C79.9008 32.6153 79.6446 32.547 79.4055 32.4103C79.1663 32.2737 78.9955 32.0687 78.8759 31.8125C78.7564 31.5562 78.688 31.2659 78.688 30.9242C78.688 30.3947 78.8247 29.9847 79.098 29.6943C79.3713 29.4039 79.7471 29.2502 80.2425 29.2502C80.7037 29.2502 81.0795 29.4039 81.3528 29.7114C81.6261 30.0189 81.7457 30.4118 81.7457 30.9242ZM79.3884 30.9242C79.3884 31.6758 79.6617 32.0516 80.2254 32.0516C80.772 32.0516 81.0453 31.6758 81.0453 30.9242C81.0453 30.1897 80.772 29.8139 80.2254 29.8139C79.935 29.8139 79.73 29.9164 79.5934 30.1043C79.4567 30.2922 79.3884 30.5655 79.3884 30.9242ZM84.1713 29.831H83.3855V32.5641H82.6852V29.831H82.1556V29.5064L82.6852 29.3014V29.0965C82.6852 28.7207 82.7706 28.4303 82.9585 28.2424C83.1464 28.0545 83.4197 27.9691 83.7784 27.9691C84.0176 27.9691 84.2567 28.0032 84.4958 28.0886L84.3079 28.6182C84.1371 28.5669 83.9834 28.5328 83.8126 28.5328C83.6588 28.5328 83.5393 28.584 83.4709 28.6694C83.4026 28.7548 83.3684 28.9086 83.3684 29.0965V29.3014H84.1542V29.831H84.1713ZM89.0225 32.5641H88.3222V30.5655C88.3222 30.3093 88.2709 30.1385 88.1855 30.0018C88.1001 29.8822 87.9464 29.8139 87.7414 29.8139C87.4681 29.8139 87.2802 29.8993 87.1606 30.0701C87.041 30.2409 86.9727 30.5313 86.9727 30.9413V32.5641H86.2894V29.3185H86.836L86.9385 29.7456H86.9727C87.0581 29.5918 87.1948 29.4723 87.3656 29.3869C87.5364 29.3014 87.7243 29.2673 87.9293 29.2673C88.4247 29.2673 88.7663 29.4381 88.92 29.7797H88.9713C89.0738 29.626 89.2104 29.4893 89.3812 29.4039C89.5521 29.3185 89.757 29.2673 89.9791 29.2673C90.372 29.2673 90.6453 29.3698 90.8332 29.5577C91.004 29.7456 91.1065 30.053 91.1065 30.4459V32.5641H90.4232V30.5655C90.4232 30.3093 90.372 30.1385 90.2866 30.0018C90.1841 29.8822 90.0474 29.8139 89.8424 29.8139C89.5691 29.8139 89.3812 29.8993 89.2617 30.0701C89.1421 30.2409 89.0738 30.4972 89.0738 30.8388V32.5641H89.0225ZM94.8987 30.9242C94.8987 31.4538 94.762 31.8637 94.4887 32.1712C94.2154 32.4616 93.8396 32.6153 93.3613 32.6153C93.0538 32.6153 92.7976 32.547 92.5585 32.4103C92.3193 32.2737 92.1485 32.0687 92.0289 31.8125C91.9093 31.5562 91.841 31.2659 91.841 30.9242C91.841 30.3947 91.9777 29.9847 92.251 29.6943C92.5243 29.4039 92.9001 29.2502 93.3955 29.2502C93.8567 29.2502 94.2325 29.4039 94.5058 29.7114C94.762 30.0189 94.8987 30.4118 94.8987 30.9242ZM92.5414 30.9242C92.5414 31.6758 92.8147 32.0516 93.3784 32.0516C93.925 32.0516 94.1983 31.6758 94.1983 30.9242C94.1983 30.1897 93.925 29.8139 93.3784 29.8139C93.088 29.8139 92.883 29.9164 92.7464 30.1043C92.6097 30.2922 92.5414 30.5655 92.5414 30.9242ZM98.5542 32.5641H97.8538V30.5655C97.8538 30.3093 97.8026 30.1214 97.7001 30.0018C97.5976 29.8822 97.4439 29.8139 97.2218 29.8139C96.9314 29.8139 96.7093 29.8993 96.5898 30.0701C96.4702 30.2409 96.3848 30.5313 96.3848 30.9413V32.5641H95.7015V29.3185H96.2481L96.3506 29.7456H96.3848C96.4873 29.5918 96.6239 29.4723 96.7947 29.3869C96.9656 29.3014 97.1705 29.2673 97.3926 29.2673C98.1784 29.2673 98.5542 29.6602 98.5542 30.463V32.5641ZM100.929 32.6153C100.416 32.6153 100.023 32.4616 99.7499 32.1712C99.4595 31.8808 99.3229 31.4708 99.3229 30.9584C99.3229 30.4288 99.4595 30.0189 99.7157 29.7114C99.972 29.4039 100.348 29.2502 100.809 29.2502C101.236 29.2502 101.578 29.3869 101.817 29.6431C102.073 29.8993 102.193 30.258 102.193 30.7192V31.095H100.023C100.04 31.4025 100.126 31.6587 100.279 31.8125C100.433 31.9833 100.672 32.0687 100.963 32.0687C101.151 32.0687 101.339 32.0516 101.492 32.0175C101.646 31.9833 101.834 31.915 102.022 31.8296V32.3933C101.851 32.4787 101.68 32.5299 101.509 32.5641C101.339 32.5982 101.151 32.6153 100.929 32.6153ZM100.792 29.7797C100.57 29.7797 100.399 29.8481 100.262 29.9847C100.126 30.1214 100.057 30.3264 100.023 30.5997H101.492C101.492 30.3264 101.424 30.1214 101.304 29.9847C101.185 29.8481 101.014 29.7797 100.792 29.7797ZM102.363 29.3185H103.115L103.781 31.1634C103.884 31.4196 103.952 31.6758 103.986 31.8979H104.003C104.02 31.7954 104.055 31.6587 104.106 31.505C104.157 31.3513 104.396 30.6167 104.857 29.3185H105.609L104.225 32.9911C103.969 33.6573 103.559 33.9989 102.961 33.9989C102.808 33.9989 102.654 33.9819 102.517 33.9477V33.4011C102.62 33.4182 102.739 33.4352 102.876 33.4352C103.2 33.4352 103.44 33.2473 103.576 32.8545L103.696 32.547L102.363 29.3185Z" fill="white"/>
</svg>
