<svg width="259" height="54" viewBox="0 0 259 54" fill="none" xmlns="http://www.w3.org/2000/svg">
<g clip-path="url(#clip0_14_125)">
<path d="M249.53 0H8.78C3.93094 0 0 3.93094 0 8.78V45.09C0 49.9391 3.93094 53.87 8.78 53.87H249.53C254.379 53.87 258.31 49.9391 258.31 45.09V8.78C258.31 3.93094 254.379 0 249.53 0Z" fill="#1D0C39"/>
<path d="M48.3 18.0699C48.45 18.0699 48.75 19.8299 48.76 20.0299C48.88 21.9199 48.5 23.6699 47.52 25.2799C46.54 26.8899 44.88 28.0299 43.67 29.4699L49.65 35.4599C51.43 37.3799 52.23 39.9299 51.9 42.5499C51.88 42.7199 51.61 44.0799 51.49 44.0799L39.27 31.8299C38.24 30.4999 38.19 28.5899 39.15 27.2099L48.29 18.0799L48.3 18.0699Z" fill="white"/>
<path d="M27.53 21.5099C28.06 24.3799 31.4 25.6799 33.76 23.8799C35.43 22.5999 36.9 20.5199 38.53 19.1599C40.56 17.4699 43.32 19.7599 42.06 22.0599C40.5 23.6999 38.88 25.5199 37.2 27.0299C33.1 30.7099 26.74 29.8399 23.99 25.0699L27.53 21.5099Z" fill="white"/>
<path d="M43.92 20.25C43.71 18.66 42.48 17.32 40.91 16.98C39.49 16.67 38.31 17.08 37.25 18.02C35.74 19.36 34.4 21.16 32.87 22.45C30.78 24.21 28.03 21.65 29.57 19.45C31.27 17.89 32.82 16.01 34.54 14.48C38.61 10.86 44.94 11.84 47.64 16.54L47.61 16.59L43.92 20.25Z" fill="white"/>
<path d="M23.22 23.4C22.44 20.81 22.86 18.03 24.44 15.83C26.57 12.87 30.38 11.58 33.88 12.67L23.22 23.4Z" fill="white"/>
<path d="M147.26 38.55H142.46V15.21H154.41C160.1 15.11 164.01 21.2 161.02 26.22C158.12 31.06 152.15 29.47 147.43 29.74L147.26 29.82V38.56V38.55ZM147.26 19.45V25.7L147.43 25.78C149.52 25.68 151.71 25.9 153.78 25.78C158.11 25.52 158.14 20 154.26 19.44C152.14 19.14 149.59 19.56 147.43 19.38L147.26 19.46V19.45Z" fill="white"/>
<path d="M74.59 14.89C77.12 14.74 79.57 15.24 81.81 16.42C83.1 17.1 84.38 18.06 85.26 19.22L82 22.48C80.84 21 79.18 19.9 77.33 19.49C73.32 18.6 69.36 20.87 68.35 24.87C66.97 30.33 71.35 35.13 76.9 34.33C78.94 34.04 80.65 32.94 82 31.43L85.13 34.6C83.14 36.99 79.87 38.56 76.77 38.84C68.55 39.58 61.82 32.89 63.34 24.6C64.34 19.16 69.12 15.21 74.6 14.88L74.59 14.89Z" fill="white"/>
<path d="M96.21 20.89C102.4 20.44 107.37 25.26 106.29 31.54C104.94 39.43 94.09 41.47 89.54 35.13C85.45 29.43 89.24 21.4 96.21 20.89ZM97.13 24.81C93.46 24.83 91.31 28.93 92.83 32.13C94.32 35.27 98.43 35.93 100.72 33.25C103.42 30.11 101.4 24.8 97.12 24.82L97.13 24.81Z" fill="white"/>
<path d="M136.98 38.55H132.42V27.87C132.42 27.52 132.11 26.74 131.93 26.43C130.51 24.04 126.7 24.39 125.25 26.57V38.55H120.69V21.17H125.25V22.53C127.69 20.53 131.65 20.25 134.25 22.08C135.86 23.22 136.81 25 136.98 26.96V38.56V38.55Z" fill="white"/>
<path d="M219.24 38.55H214.73V37.39C214.43 37.53 214.16 37.74 213.86 37.9C210.11 39.87 203.56 38.93 203.34 33.79C203.09 27.98 210.58 27.52 214.63 28.9L214.73 28.85V27.4C214.73 26.33 213.94 25.36 212.98 24.98C210.7 24.08 207.82 25.2 205.71 26.12L204.07 22.75C204.07 22.63 205.98 21.94 206.22 21.85C211.32 20.1 219.03 20.06 219.24 27.15V38.55ZM214.72 34.47V31.95C214.69 31.86 214.38 31.76 214.27 31.72C212.57 31.1 207.67 30.65 207.7 33.44C207.72 35.64 210.86 35.75 212.42 35.44C213.24 35.27 214.02 34.92 214.73 34.48L214.72 34.47Z" fill="white"/>
<path d="M197.22 26C197.17 26.03 197.1 25.99 197.05 25.97C196.48 25.75 195.85 25.31 195.24 25.06C193.73 24.45 190.95 23.84 189.59 24.99C188.91 25.56 188.86 26.57 189.59 27.11C190.51 27.79 193.89 28 195.19 28.25C198.1 28.81 200.46 30.54 200.02 33.82C199.41 38.35 193.85 39.22 190.17 38.73C188.14 38.46 186.12 37.75 184.49 36.51L186.73 33.46C186.81 33.44 187.87 34.11 188.06 34.21C189.8 35.13 191.81 35.69 193.78 35.27C194.79 35.06 196.07 34.41 195.69 33.16C195.45 32.37 194.51 32.11 193.79 31.96C190.78 31.36 186.12 31.56 185.16 27.8C184.27 24.32 186.59 21.79 189.86 21.12C193.13 20.45 196.65 21.23 199.36 23.06L197.22 25.98V26Z" fill="white"/>
<path d="M235.47 21.1699V25.1899C233.04 24.1399 230.15 24.8599 228.93 27.2999V38.5599H224.37V21.1799H228.93V23.0199C230.44 21.0799 233.15 20.2399 235.47 21.1799V21.1699Z" fill="white"/>
<path d="M115.46 21.17H110.9V38.55H115.46V21.17Z" fill="white"/>
<path d="M113.16 19.14C114.602 19.14 115.77 17.9714 115.77 16.53C115.77 15.0885 114.602 13.92 113.16 13.92C111.719 13.92 110.55 15.0885 110.55 16.53C110.55 17.9714 111.719 19.14 113.16 19.14Z" fill="white"/>
<path d="M180.85 38.55H176.34V37.39C176.04 37.53 175.77 37.74 175.47 37.9C171.72 39.87 165.17 38.93 164.95 33.79C164.7 27.98 172.19 27.52 176.24 28.9L176.34 28.85V27.4C176.34 26.33 175.55 25.36 174.59 24.98C172.31 24.08 169.43 25.2 167.32 26.12L165.68 22.75C165.68 22.63 167.59 21.94 167.83 21.85C172.93 20.1 180.64 20.06 180.85 27.15V38.55ZM176.33 34.47V31.95C176.3 31.86 175.99 31.76 175.88 31.72C174.18 31.1 169.28 30.65 169.31 33.44C169.33 35.64 172.47 35.75 174.03 35.44C174.85 35.27 175.63 34.92 176.34 34.48L176.33 34.47Z" fill="white"/>
</g>
<defs>
<clipPath id="clip0_14_125">
<rect width="258.31" height="53.87" fill="white"/>
</clipPath>
</defs>
</svg>
