<svg width="300" height="55" viewBox="0 0 300 55" fill="none" xmlns="http://www.w3.org/2000/svg">
<g clip-path="url(#clip0_1590_6793)">
<rect x="0.601562" y="0.871033" width="298.892" height="53.871" rx="8.77719" fill="#1D0C39"/>
<path d="M59.2073 32.1399C58.4347 32.6121 57.5334 32.6979 56.8467 32.3116C55.9883 31.7966 55.4732 30.6377 55.4732 29.0497V24.1997C55.4732 21.882 54.5719 20.208 53.0268 19.7788C50.4086 19.0063 48.4343 22.2253 47.7046 23.4271L43.0692 30.8523V21.7103C43.0263 19.6072 42.3396 18.3625 41.0519 17.9762C40.1935 17.7187 38.9059 17.8474 37.6612 19.7359L27.3174 36.3032C25.944 33.6851 25.2143 30.7665 25.2143 27.805C25.2143 17.8045 33.2404 9.69254 43.0692 9.69254C52.898 9.69254 60.9241 17.8045 60.9241 27.805V27.8479V27.8908C61.0099 29.8222 60.4091 31.3674 59.2073 32.1399ZM64.8728 27.805V27.762V27.7191C64.8299 15.5726 55.044 5.65802 43.0692 5.65802C31.0515 5.65802 21.2656 15.5726 21.2656 27.805C21.2656 39.9944 31.0515 49.9519 43.0692 49.9519C48.6059 49.9519 53.8422 47.8488 57.8768 44.0289C58.6922 43.2563 58.7352 42.0116 57.9626 41.1962C57.233 40.3807 55.9883 40.3377 55.1728 41.0674C55.1728 41.0674 55.1728 41.0674 55.1298 41.1103C51.8679 44.2006 47.49 45.9603 42.9834 45.9603C37.7042 45.9603 32.9829 43.6426 29.721 39.9514L39.0347 25.0151V31.9253C39.0347 35.2302 40.3223 36.3032 41.3953 36.6037C42.4683 36.9041 44.0993 36.6895 45.859 33.8997L50.9666 25.616C51.1383 25.3585 51.267 25.101 51.4387 24.9293V29.1355C51.4387 32.2258 52.6834 34.7152 54.8294 35.9169C56.7608 37.0329 59.2073 36.9041 61.2246 35.6594C63.7139 34.0284 65.0445 31.1957 64.8728 27.805ZM95.2605 20.251C95.7755 20.5514 96.2476 21.2811 96.2476 21.9249C96.2476 22.955 95.3892 23.8134 94.4021 23.8134C94.1445 23.8134 93.9299 23.7275 93.7153 23.6846C92.5565 22.8262 91.0972 22.2682 89.552 22.2682C85.9038 22.2682 83.4144 25.2297 83.4144 28.9209C83.4144 32.6121 85.9467 35.5306 89.552 35.5306C91.3547 35.5306 92.9857 34.801 94.1875 33.6422C94.4879 33.4275 94.8742 33.2988 95.2605 33.2988C96.2476 33.2988 97.0202 34.0714 97.0202 35.0585C97.0202 35.7023 96.6339 36.2603 96.1618 36.5607C94.4021 38.063 92.0414 39.0501 89.595 39.0501C84.0153 39.0501 79.4657 34.4576 79.4657 28.7921C79.4657 23.1266 84.0153 18.5342 89.595 18.5342C91.6551 18.4912 93.6295 19.135 95.2605 20.251ZM105.476 24.543C109.295 24.543 112.472 27.7621 112.472 31.7537C112.472 35.7023 109.253 39.093 105.476 39.093C101.484 39.093 98.1791 35.7453 98.1791 31.7537C98.1791 27.7621 101.484 24.543 105.476 24.543ZM105.433 35.5306C107.107 35.5306 108.523 33.9426 108.523 31.7966C108.523 29.6505 107.107 28.2771 105.433 28.2771C103.63 28.2771 102.128 29.6076 102.128 31.7966C102.128 33.8997 103.63 35.5306 105.433 35.5306ZM114.875 36.8612V26.732C114.875 25.616 115.734 24.7147 116.849 24.7147C117.922 24.7147 118.824 25.616 118.824 26.732V36.8612C118.824 37.9771 117.922 38.8784 116.849 38.8784C115.776 38.8784 114.875 37.9342 114.875 36.8612ZM114.575 20.8948C114.575 19.5642 115.605 18.5342 116.849 18.5342C118.137 18.5342 119.167 19.6072 119.167 20.8948C119.167 22.1824 118.137 23.2125 116.849 23.2125C115.562 23.1696 114.575 22.1395 114.575 20.8948ZM126.378 31.3674V36.8612C126.378 37.9771 125.476 38.8784 124.403 38.8784C123.33 38.8784 122.429 37.9771 122.429 36.8612V26.2598C122.429 25.4014 123.116 24.7147 123.974 24.7147C124.833 24.7147 125.476 25.4443 125.476 26.2598C127.065 24.7576 128.481 24.543 129.811 24.543C133.76 24.543 135.52 27.5045 135.52 30.8952V36.8612C135.52 37.9771 134.618 38.8784 133.545 38.8784C132.472 38.8784 131.571 37.9771 131.571 36.8612V31.3674C131.571 29.6505 131.357 28.1912 128.867 28.1912C127.107 28.1912 126.378 29.6505 126.378 31.3674ZM148.31 33.4705C147.838 33.4705 147.538 33.2559 147.28 32.9554L142.688 27.9766V36.8612C142.688 37.9771 141.786 38.8784 140.713 38.8784C139.64 38.8784 138.739 37.9771 138.739 36.8612V19.2638C138.868 18.9634 139.168 18.7488 139.469 18.7488C139.812 18.7488 140.112 19.0492 140.327 19.2638L147.666 27.5045C147.881 27.762 148.138 27.8908 148.31 27.8908C148.439 27.8908 148.739 27.762 148.954 27.5045L156.293 19.2638C156.508 19.0492 156.765 18.7488 157.152 18.7488C157.495 18.7488 157.796 18.9634 157.881 19.2638V36.8612C157.881 37.9771 157.023 38.8784 155.907 38.8784C154.834 38.8784 153.933 37.9771 153.933 36.8612V27.9766L149.34 32.9554C148.997 33.2559 148.696 33.4705 148.31 33.4705ZM167.281 35.5306C169.041 35.5306 170.543 33.9426 170.543 31.7966C170.543 29.6505 168.998 28.2342 167.281 28.2342C165.564 28.2342 164.148 29.6935 164.148 31.7966C164.148 33.8567 165.521 35.5306 167.281 35.5306ZM171.487 37.3333L171.401 36.8612C170.629 38.3634 168.182 39.0501 166.637 39.0501C162.946 39.0501 160.199 35.7023 160.199 31.7107C160.199 27.7621 162.989 24.5001 166.852 24.5001C167.496 24.5001 169.727 24.6718 171.444 26.689L171.53 26.2169C171.53 25.3585 172.174 24.6718 173.032 24.6718C173.891 24.6718 174.577 25.4014 174.577 26.2169V37.2904C174.577 38.1488 173.891 38.8355 173.032 38.8355C172.131 38.8784 171.487 38.1488 171.487 37.3333ZM185.436 28.1912H185.007C182.518 28.32 182.046 29.7364 182.046 31.3674V36.8612C182.046 37.9771 181.144 38.8784 180.071 38.8784C178.998 38.8784 178.097 37.9771 178.097 36.8612V26.2598C178.097 25.4014 178.784 24.7147 179.642 24.7147C180.5 24.7147 181.144 25.4443 181.144 26.2598C182.604 24.8864 183.805 24.5859 185.007 24.543H185.393C186.338 24.543 187.196 25.3585 187.196 26.3886C187.239 27.3328 186.381 28.1912 185.436 28.1912ZM200.673 35.9169C200.845 36.2174 200.973 36.5178 200.973 36.8612C200.973 37.8913 200.029 38.8355 198.999 38.8355C198.312 38.8355 197.712 38.3205 197.239 37.7196L192.69 32.4404V36.8183C192.69 37.9342 191.789 38.8355 190.716 38.8355C189.643 38.8355 188.741 37.9342 188.741 36.8183V20.7231C188.741 19.6072 189.6 18.7058 190.716 18.7058C191.831 18.7058 192.69 19.6072 192.69 20.7231V30.7665L197.239 25.7448C197.712 25.2297 198.27 24.6718 198.956 24.6718C199.943 24.6718 200.845 25.5731 200.845 26.6032C200.845 26.9036 200.759 27.247 200.587 27.5045L196.982 31.4532L200.673 35.9169ZM208.399 28.2342C207.326 28.2342 205.566 28.7921 205.566 30.466H211.274C211.231 28.7921 209.429 28.2342 208.399 28.2342ZM213.549 32.9983H205.566C205.566 35.359 207.841 35.7452 208.828 35.7452C209.558 35.7452 210.588 35.6165 211.403 35.2302C211.661 35.0585 212.047 34.9298 212.433 34.9298C213.292 34.9298 214.021 35.6594 214.021 36.5607C214.021 37.1616 213.635 37.6767 213.163 37.9771C211.961 38.8784 210.373 39.093 208.871 39.093C204.879 39.093 201.574 36.947 201.574 31.9253C201.574 27.9767 203.592 24.543 208.313 24.543C212.133 24.543 215.008 27.0324 215.094 31.4532C215.094 32.2687 214.408 32.9983 213.549 32.9983ZM224.537 39.0501H223.464C220.459 39.0501 218.7 37.7196 218.7 33.0413V28.1912H217.67C216.725 28.1912 215.91 27.3328 215.91 26.3886C215.91 25.3585 216.768 24.543 217.67 24.543H218.7V20.8089C218.7 19.693 219.558 18.7917 220.674 18.7917C221.747 18.7917 222.648 19.693 222.648 20.8089V24.543H224.279C225.224 24.543 226.039 25.3585 226.039 26.3886C226.039 27.3328 225.181 28.1912 224.279 28.1912H222.648V32.2687C222.648 34.9727 222.777 35.5306 223.979 35.5306H224.537C225.481 35.5306 226.297 36.3032 226.297 37.2904C226.297 38.2346 225.481 39.0501 224.537 39.0501ZM243.636 20.251C244.151 20.5514 244.624 21.2811 244.624 21.9249C244.624 22.955 243.765 23.8134 242.778 23.8134C242.52 23.8134 242.306 23.7275 242.091 23.6846C240.932 22.8262 239.473 22.2682 237.928 22.2682C234.28 22.2682 231.79 25.2297 231.79 28.9209C231.79 32.6121 234.323 35.5306 237.928 35.5306C239.731 35.5306 241.362 34.801 242.563 33.6422C242.864 33.4275 243.25 33.2988 243.636 33.2988C244.624 33.2988 245.396 34.0714 245.396 35.0585C245.396 35.7023 245.01 36.2603 244.538 36.5607C242.778 38.063 240.417 39.0501 237.971 39.0501C232.391 39.0501 227.842 34.4576 227.842 28.7921C227.842 23.1266 232.391 18.5342 237.971 18.5342C240.031 18.4912 242.048 19.135 243.636 20.251ZM253.637 35.5306C255.397 35.5306 256.899 33.9426 256.899 31.7966C256.899 29.6505 255.354 28.2342 253.637 28.2342C251.877 28.2342 250.504 29.6935 250.504 31.7966C250.504 33.8567 251.92 35.5306 253.637 35.5306ZM257.843 37.3333L257.757 36.8612C256.985 38.3634 254.538 39.0501 252.993 39.0501C249.302 39.0501 246.555 35.7023 246.555 31.7107C246.555 27.7621 249.345 24.5001 253.208 24.5001C253.851 24.5001 256.083 24.6718 257.8 26.689L257.886 26.2169C257.886 25.3585 258.53 24.6718 259.388 24.6718C260.247 24.6718 260.933 25.4014 260.933 26.2169V37.2904C260.933 38.1488 260.247 38.8355 259.388 38.8355C258.487 38.8784 257.843 38.1488 257.843 37.3333ZM271.706 35.5306C273.466 35.5306 274.84 33.8567 274.84 31.7966C274.84 29.6505 273.423 28.2342 271.706 28.2342C269.947 28.2342 268.444 29.6505 268.444 31.7966C268.444 33.9426 269.947 35.5306 271.706 35.5306ZM268.444 37.8913V42.913C268.444 44.0289 267.543 44.9302 266.47 44.9302C265.397 44.9302 264.496 44.0289 264.496 42.913V26.2598C264.496 25.4014 265.182 24.7147 266.041 24.7147C266.899 24.7147 267.543 25.4443 267.543 26.4315C269.002 24.9293 270.805 24.543 272.179 24.543C275.998 24.543 278.831 27.7621 278.831 31.7537C278.831 35.7023 276.127 39.093 272.393 39.093C271.234 39.0501 269.517 38.7068 268.444 37.8913Z" fill="white"/>
</g>
<defs>
<clipPath id="clip0_1590_6793">
<rect x="0.601562" y="0.871033" width="298.892" height="53.871" rx="8.77719" fill="white"/>
</clipPath>
</defs>
</svg>
