<svg width="217" height="55" viewBox="0 0 217 55" fill="none" xmlns="http://www.w3.org/2000/svg">
<rect y="0.871033" width="216.831" height="53.871" rx="8.77719" fill="#1D0C39"/>
<g clip-path="url(#clip0_1590_6755)">
<path d="M44.2628 7.61057C33.2057 7.61057 24.2422 16.6551 24.2422 27.8122C24.2422 38.9693 33.2057 48.0138 44.2628 48.0138C55.32 48.0138 64.2835 38.9693 64.2835 27.8122C64.2835 16.6551 55.32 7.61057 44.2628 7.61057ZM43.8586 22.4059L39.0861 19.9009V35.6735L43.8586 33.1781V38.5114L37.8181 41.6686C37.4787 41.8456 37.1088 41.9341 36.7389 41.9341C36.3156 41.9341 35.8923 41.8187 35.5186 41.5897C34.8188 41.1607 34.3917 40.393 34.3917 39.5676V16.0799C34.3917 15.2602 34.8112 14.4984 35.5014 14.0674C36.1917 13.6364 37.0535 13.5941 37.7819 13.9596L43.8567 17.0803V22.4039L43.8586 22.4059ZM60.2851 29.9266L47.2049 36.7644V18.8331L50.229 20.4492C51.3501 20.9879 51.8726 22.1153 51.8726 22.985V28.9916L58.1267 25.7228C59.2764 25.1206 60.6931 25.5746 61.2899 26.7367C61.8867 27.8969 61.4367 29.3264 60.2851 29.9286V29.9266Z" fill="white"/>
<path d="M108.03 31.263C107.549 32.3924 106.882 33.3851 106.024 34.2375C105.166 35.0917 104.144 35.7651 102.956 36.2615C101.768 36.7579 100.475 37.006 99.0817 37.006C97.6879 37.006 96.4084 36.7636 95.2415 36.2788C94.0765 35.794 93.064 35.1321 92.2079 34.2894C91.3499 33.4486 90.6883 32.4616 90.2192 31.3323C89.7502 30.2029 89.5156 28.9927 89.5156 27.6998C89.5156 26.4069 89.7502 25.1987 90.2192 24.0674C90.6883 22.938 91.3556 21.9452 92.2251 21.0929C93.0926 20.2406 94.1166 19.5711 95.293 19.0862C96.4695 18.6014 97.7546 18.359 99.1503 18.359C100.546 18.359 101.829 18.6014 103.008 19.0862C104.184 19.5711 105.202 20.2329 106.058 21.0756C106.916 21.9183 107.578 22.9034 108.047 24.0328C108.516 25.1621 108.751 26.3742 108.751 27.6652C108.751 28.9562 108.51 30.1336 108.03 31.263ZM103.591 25.6585C103.351 25.0351 103.013 24.4945 102.581 24.0328C102.146 23.571 101.631 23.2016 101.038 22.9265C100.443 22.6494 99.7929 22.5109 99.0836 22.5109C98.3743 22.5109 97.6955 22.6494 97.112 22.9265C96.5286 23.2035 96.0328 23.5672 95.621 24.0154C95.2091 24.4656 94.8888 25.0082 94.6619 25.6412C94.4331 26.2761 94.3187 26.9379 94.3187 27.6306C94.3187 28.3232 94.4388 29.0197 94.679 29.6546C94.9193 30.2895 95.2568 30.8436 95.6896 31.315C96.1243 31.7883 96.6373 32.1577 97.2322 32.4212C97.8271 32.6867 98.4658 32.8195 99.1522 32.8195C99.8386 32.8195 100.512 32.681 101.107 32.4039C101.702 32.1269 102.209 31.7594 102.632 31.2976C103.055 30.8359 103.379 30.2895 103.608 29.6546C103.837 29.0197 103.951 28.3578 103.951 27.6652C103.951 26.9726 103.831 26.2819 103.591 25.6585Z" fill="white"/>
<path d="M111.456 11.5748C112.026 11.09 112.724 10.8475 113.547 10.8475C114.371 10.8475 115.073 11.09 115.656 11.5748C116.24 12.0596 116.529 12.7503 116.529 13.6508C116.529 14.5512 116.238 15.1784 115.656 15.6748C115.073 16.1711 114.371 16.4193 113.547 16.4193C112.724 16.4193 112.028 16.1711 111.456 15.6748C110.884 15.1784 110.598 14.505 110.598 13.6508C110.598 12.7523 110.884 12.0596 111.456 11.5748ZM116.015 36.5863H111.147V18.7704H116.015V36.5863Z" fill="white"/>
<path d="M132.679 18.8265C133.434 19.1382 134.078 19.5768 134.616 20.1406C135.153 20.7062 135.575 21.4085 135.884 22.2512C136.193 23.0939 136.347 24.0443 136.347 25.1044V36.5885H131.445V26.6609C131.445 25.9471 131.353 25.3468 131.17 24.862C130.987 24.3771 130.753 23.9789 130.467 23.6691C130.181 23.3574 129.838 23.1266 129.439 22.9765C129.039 22.8264 128.632 22.7514 128.223 22.7514C127.813 22.7514 127.393 22.8207 126.972 22.9592C126.548 23.0977 126.171 23.3228 125.841 23.6345C125.509 23.9462 125.235 24.3502 125.017 24.8447C124.8 25.341 124.691 25.9471 124.691 26.6609V36.5885H119.789V18.7746L124.726 21.1622C125.32 20.4003 126.062 19.7442 126.955 19.1901C127.845 18.636 128.92 18.359 130.177 18.359C131.09 18.359 131.925 18.5148 132.68 18.8265H132.679Z" fill="white"/>
<path d="M145.395 36.5885H140.527V11.3018H145.395V36.5904V36.5885Z" fill="white"/>
<path d="M149.889 11.6176C150.459 11.1328 151.157 10.8904 151.981 10.8904C152.805 10.8904 153.506 11.1328 154.09 11.6176C154.673 12.1025 154.963 12.7932 154.963 13.6936C154.963 14.594 154.671 15.2212 154.09 15.7176C153.506 16.214 152.805 16.4622 151.981 16.4622C151.157 16.4622 150.461 16.214 149.889 15.7176C149.317 15.2212 149.031 14.5478 149.031 13.6936C149.031 12.7951 149.317 12.1025 149.889 11.6176ZM154.448 36.6292H149.58V18.8133H154.448V36.6292Z" fill="white"/>
<path d="M168.127 36.8613H163.568L156.402 18.9761H161.579L165.9 31.049L170.253 18.9761H175.327L168.127 36.8613Z" fill="white"/>
<path d="M187.526 32.4682C188.088 32.2142 188.622 31.9141 189.127 31.5677C189.633 31.2214 190.102 30.8424 190.533 30.4307C190.963 30.0189 191.33 29.5995 191.627 29.1724L192.588 33.2435C192.178 33.6976 191.736 34.1131 191.261 34.4864C190.786 34.8616 190.281 35.1906 189.749 35.4715C189.217 35.7543 188.681 36.0006 188.143 36.2122C187.606 36.4238 187.058 36.597 186.504 36.7297C185.192 37.0453 183.943 37.1068 182.759 36.9183C181.575 36.7297 180.488 36.3257 179.496 35.71C178.505 35.0944 177.662 34.2844 176.966 33.2781C176.27 32.2719 175.767 31.1079 175.454 29.7823C175.153 28.5029 175.082 27.2638 175.246 26.0633C175.408 24.8627 175.773 23.7622 176.335 22.7617C176.898 21.7613 177.658 20.9032 178.617 20.1856C179.576 19.4698 180.69 18.9581 181.956 18.6541C183.291 18.3328 184.528 18.302 185.67 18.5617C186.813 18.8215 187.838 19.2851 188.748 19.9566C189.657 20.6261 190.433 21.4727 191.072 22.4924C191.713 23.5121 192.21 24.6318 192.569 25.8497L181.151 31.8294C181.693 32.4335 182.355 32.851 183.138 33.0761C183.92 33.3032 184.799 33.2993 185.779 33.0646C186.38 32.9203 186.961 32.7221 187.524 32.4682H187.526ZM180.009 28.6202L187.337 24.7261C186.864 23.8199 186.218 23.1465 185.398 22.7021C184.576 22.2596 183.666 22.1576 182.665 22.3981C181.975 22.5636 181.416 22.8579 180.987 23.2812C180.558 23.7045 180.242 24.2009 180.036 24.7723C179.83 25.3437 179.727 25.9498 179.725 26.5904C179.723 27.2311 179.794 27.8545 179.937 28.4605L180.009 28.6202Z" fill="white"/>
<path d="M80.6938 37.0461C78.8596 37.0461 77.2255 36.6478 75.7916 35.8532C74.3578 35.0586 73.2404 33.9562 72.4415 32.544C71.6426 31.1318 71.2422 29.5253 71.2422 27.7225C71.2422 25.9198 71.6426 24.2825 72.4415 22.8837C73.2404 21.485 74.3463 20.3864 75.7554 19.5918C77.1664 18.7972 78.789 18.399 80.6214 18.399C82.4538 18.399 83.9944 18.8377 85.453 19.715C86.9098 20.5923 87.968 21.8621 88.6277 23.5225L84.2537 25.0886C83.9238 24.3998 83.4128 23.8496 82.7207 23.434C82.0266 23.0184 81.2563 22.8106 80.4116 22.8106C79.567 22.8106 78.7776 23.0184 78.1198 23.434C77.4619 23.8496 76.9433 24.4248 76.5677 25.1598C76.1921 25.8948 76.0033 26.749 76.0033 27.7225C76.0033 28.696 76.1921 29.5426 76.5677 30.266C76.9433 30.9894 77.4734 31.5647 78.1541 31.9918C78.8348 32.4189 79.6108 32.6325 80.4822 32.6325C81.3536 32.6325 82.0972 32.4074 82.7912 31.9572C83.4853 31.507 83.9963 30.9125 84.3262 30.1775L88.7345 31.7436C88.0519 33.4271 86.988 34.7334 85.5427 35.6589C84.0974 36.5843 82.4804 37.0461 80.6938 37.0461Z" fill="white"/>
</g>
<defs>
<clipPath id="clip0_1590_6755">
<rect width="168.347" height="40.4033" fill="white" transform="translate(24.2422 7.60492)"/>
</clipPath>
</defs>
</svg>
