<svg width="248" height="54" viewBox="0 0 248 54" fill="none" xmlns="http://www.w3.org/2000/svg">
<rect x="0.140625" width="247.721" height="53.871" rx="8.77719" fill="#1D0C39"/>
<path d="M29.6478 32.3932L25.3773 34.2551V34.0672C24.5574 34.2722 23.635 34.3918 22.7809 34.443C18.7496 34.4088 15.5724 32.2907 15.5211 29.7968V28.8743C16.8364 30.7875 19.5354 32.0857 22.7809 32.0345C23.8741 32.0857 25.0015 31.9149 25.941 31.6587L26.3168 30.7363C25.2065 31.0779 23.9766 31.3 22.7809 31.3C18.7496 31.3 15.5724 29.1989 15.5211 26.6537V25.9021C16.8364 27.6786 19.5354 28.9598 22.7809 28.8743C24.2499 28.9598 25.6677 28.6523 26.8805 28.1227L27.0684 27.2003C25.8898 27.8153 24.3695 28.174 22.798 28.1227C18.7667 28.174 15.5895 26.0729 15.5382 23.4765V22.7249C16.8535 24.5356 19.5524 25.8338 22.798 25.885C24.6428 25.8338 26.3852 25.3384 27.82 24.5868L28.0079 23.4765C26.7097 24.4331 24.8136 25.0651 22.798 25.1505C18.7667 25.0651 15.5895 22.947 15.5382 20.3164C15.5724 17.8053 18.7667 15.7043 22.798 15.6701C25.1894 15.7043 27.4272 16.5413 28.7425 17.9078L28.8791 18.1299H29.8186L29.682 17.9078C28.3667 16.1143 25.719 14.9356 22.798 14.9356C18.3225 14.9185 14.7695 17.3612 14.7695 20.2993V20.4872V29.9676C14.9233 32.8373 18.3909 35.1775 22.7638 35.1775C25.6506 35.1946 28.2642 34.0501 29.6478 32.3932Z" fill="white"/>
<path d="M27.9043 38.9355L29.4075 32.5469L25.0858 34.4259L27.7164 23.3569H22.6602L23.9755 17.9078H40.1178L38.8025 23.3569H33.5413L32.4139 26.3633L38.2388 23.9206L27.9043 38.9355ZM30.5349 31.2487L29.7833 35.0067L35.984 25.6288L30.9107 27.8836L33.1655 22.6224H38.2388L39.1783 18.6765H24.5221L23.5826 22.6224H28.6559L26.2132 33.1277L30.5349 31.2487Z" fill="white"/>
<path d="M57.941 27.9067C57.9861 29.4842 57.4902 30.7012 56.4986 31.6027C55.507 32.5042 54.1548 32.9549 52.3969 32.9549C50.639 32.9549 49.1966 32.369 48.1149 31.2421C47.0331 30.1153 46.4922 28.6278 46.4922 26.8249V23.8951C46.4922 22.0921 47.0331 20.6047 48.0698 19.4778C49.1516 18.351 50.5488 17.765 52.2617 17.765C54.0646 17.765 55.4619 18.2158 56.4986 19.0722C57.5353 19.9736 58.0311 21.1906 57.9861 22.7682V22.8133H55.1013C55.1013 21.8667 54.876 21.1456 54.4252 20.6948C53.9745 20.2441 53.2533 20.0187 52.3067 20.0187C51.4053 20.0187 50.7291 20.3793 50.2333 21.1005C49.7375 21.8217 49.4671 22.7231 49.4671 23.85V26.8249C49.4671 27.9517 49.7375 28.8983 50.2333 29.6195C50.7742 30.3406 51.4954 30.7012 52.442 30.7012C53.3434 30.7012 53.9745 30.4759 54.4252 30.0251C54.876 29.5744 55.1013 28.8532 55.1013 27.9067H57.941ZM74.2578 26.6896C74.2578 28.4926 73.6718 30.0251 72.545 31.197C71.4181 32.369 69.9307 32.9549 68.0826 32.9549C66.2346 32.9549 64.7922 32.369 63.6203 31.197C62.4935 30.0251 61.9075 28.4926 61.9075 26.6896V24.0303C61.9075 22.2273 62.4935 20.7399 63.6203 19.5229C64.7472 18.351 66.2346 17.7199 68.0376 17.7199C69.8856 17.7199 71.373 18.3059 72.4999 19.5229C73.6718 20.6948 74.2127 22.2273 74.2127 24.0303V26.6896H74.2578ZM71.2829 23.9852C71.2829 22.8133 71.0124 21.9118 70.4265 21.1456C69.8405 20.4244 69.0743 20.0187 68.0376 20.0187C67.0459 20.0187 66.2346 20.3793 65.6937 21.1456C65.1528 21.8667 64.8373 22.8133 64.8373 23.9852V26.6446C64.8373 27.8165 65.1077 28.763 65.6937 29.5293C66.2346 30.2505 67.0459 30.6561 68.0376 30.6561C69.0743 30.6561 69.8405 30.2956 70.4265 29.5293C71.0124 28.8081 71.2829 27.8165 71.2829 26.6446V23.9852ZM81.9203 32.7296H78.9455V17.9453H81.9203V32.7296ZM99.0034 32.7296H96.0285L90.0787 22.7682H90.0337V32.7296H87.0588V17.9453H90.0337L95.9834 27.9067H96.0285V17.9453H99.0034V32.7296ZM113.923 20.2441H109.686V32.7296H106.711V20.2441H102.564V17.9453H113.923V20.2441ZM126.183 26.2389H120.684V30.4759H127.22V32.7296H117.754V17.9453H127.22V20.2441H120.729V23.9401H126.228V26.2389H126.183ZM134.432 30.4759H141.057V32.7296H131.457V17.9453H134.432V30.4759ZM153.678 26.2389H148.179V30.4759H154.715V32.7296H145.249V17.9453H154.715V20.2441H148.224V23.9401H153.723V26.2389H153.678ZM170.31 30.7463C169.86 31.3323 169.184 31.8732 168.237 32.3239C167.336 32.7746 166.164 33 164.721 33C162.918 33 161.476 32.4591 160.349 31.3323C159.222 30.2054 158.636 28.7631 158.636 26.9601V23.85C158.636 22.047 159.177 20.6047 160.304 19.4778C161.386 18.351 162.828 17.765 164.541 17.765C166.344 17.765 167.741 18.2158 168.688 19.0722C169.634 19.9286 170.13 21.0554 170.085 22.4978V22.5428H167.29C167.29 21.7766 167.065 21.1456 166.614 20.6948C166.164 20.2441 165.488 20.0187 164.631 20.0187C163.73 20.0187 163.008 20.3793 162.422 21.0554C161.882 21.7766 161.611 22.6781 161.611 23.7598V26.8699C161.611 27.9968 161.882 28.8983 162.468 29.6195C163.054 30.3406 163.82 30.6561 164.766 30.6561C165.488 30.6561 166.028 30.566 166.434 30.4308C166.84 30.2956 167.155 30.1153 167.381 29.8899V27.0052H164.541V24.9318H170.355V30.7463H170.31ZM177.973 26.8249V32.7296H174.998V17.9453H180.137C181.804 17.9453 183.157 18.351 184.103 19.1172C185.05 19.8835 185.545 20.9653 185.545 22.3175C185.545 23.0837 185.365 23.7148 184.959 24.3007C184.554 24.8416 183.968 25.2924 183.202 25.653C184.058 25.9234 184.689 26.3291 185.095 26.9601C185.455 27.5461 185.681 28.3123 185.681 29.2138V30.2956C185.681 30.7012 185.726 31.152 185.861 31.6027C185.951 32.0534 186.176 32.369 186.447 32.5943V32.8197H183.382C183.111 32.5943 182.931 32.2337 182.841 31.7379C182.751 31.2421 182.706 30.7463 182.706 30.2956V29.2589C182.706 28.5377 182.525 27.9517 182.12 27.5461C181.714 27.1404 181.128 26.915 180.407 26.915H177.973V26.8249ZM177.973 24.5712H180.091C180.903 24.5712 181.534 24.3909 181.94 24.0303C182.345 23.6697 182.571 23.1739 182.571 22.4527C182.571 21.7766 182.345 21.2357 181.94 20.83C181.534 20.4244 180.948 20.2441 180.137 20.2441H177.973V24.5712ZM198.121 29.5744H193.343L192.352 32.7746H189.242L194.245 17.9904H197.265L202.223 32.7746H199.113L198.121 29.5744ZM194.064 27.2305H197.4L195.777 22.002H195.732L194.064 27.2305ZM208.804 27.3658V32.7296H205.829V17.9453H211.508C213.221 17.9453 214.528 18.396 215.52 19.2525C216.511 20.1089 216.962 21.2808 216.962 22.6781C216.962 24.0754 216.466 25.2473 215.52 26.1037C214.528 26.9601 213.221 27.4108 211.508 27.4108H208.804V27.3658ZM208.804 25.1121H211.508C212.319 25.1121 212.95 24.8867 213.401 24.436C213.807 23.9852 214.032 23.3993 214.032 22.7231C214.032 22.002 213.807 21.416 213.401 20.9653C212.995 20.5145 212.364 20.2891 211.508 20.2891H208.804V25.1121ZM233.234 32.7296H230.259V26.5995H224.219V32.7296H221.244V17.9453H224.219V24.3007H230.259V17.9453H233.234V32.7296Z" fill="white"/>
</svg>
