<svg width="190" height="55" viewBox="0 0 190 55" fill="none" xmlns="http://www.w3.org/2000/svg">
<rect x="-0.0078125" y="0.742035" width="189.04" height="53.871" rx="8.77719" fill="#1D0C39"/>
<path d="M35.6357 6.54159C27.1109 6.59487 19.4119 11.763 16.1885 19.6752C12.965 27.5873 14.8032 36.6715 20.8771 42.6922C26.9511 48.7129 36.0353 50.4711 43.9208 47.1677C51.8063 43.8644 56.8945 36.1387 56.8679 27.5873C56.8146 15.9189 47.3307 6.51495 35.6357 6.54159ZM43.3081 45.7025C36.0087 48.7661 27.6171 47.1145 21.996 41.5733C16.375 36.0055 14.67 27.6139 17.6537 20.3145C20.6374 12.9885 27.7503 8.21991 35.6357 8.16663C46.4516 8.11335 55.2428 16.798 55.2961 27.5873C55.3228 35.4994 50.6075 42.6389 43.3081 45.7025Z" fill="white"/>
<path d="M80.6578 24.9869C80.2316 23.2819 79.1393 22.0565 76.9815 22.0565C73.8113 22.0565 72.506 24.8537 72.506 27.6775C72.506 30.5014 73.838 33.2986 76.9815 33.2986C79.2725 33.2986 80.5246 31.5936 80.7378 29.4358H83.2686C83.0554 32.9789 80.5513 35.4032 76.9815 35.4032C72.5592 35.4032 69.9219 31.8867 69.9219 27.6775C69.9219 23.4684 72.5592 19.9519 76.9815 19.9519C80.3115 19.9785 82.9222 21.8167 83.2419 24.9869H80.6578ZM84.8137 29.7022C84.8137 26.4254 86.7851 24.0811 90.195 24.0811C93.6049 24.0811 95.5763 26.4254 95.5763 29.7022C95.5763 32.9789 93.6049 35.3499 90.195 35.3499C86.7851 35.3499 84.8137 32.9789 84.8137 29.7022ZM93.232 29.7022C93.232 27.864 92.2996 25.9459 90.195 25.9459C88.0904 25.9459 87.158 27.864 87.158 29.7022C87.158 31.5403 88.0904 33.4851 90.195 33.4851C92.2996 33.4851 93.232 31.567 93.232 29.7022ZM97.6009 20.2982H99.9453V22.536H97.6009V20.2982ZM97.6009 24.3742H99.9453V35.0568H97.6009V24.3742ZM102.529 24.3742H104.767V25.9459L104.82 25.9992C105.513 24.827 106.765 24.0811 108.15 24.1078C110.468 24.1078 111.933 25.3598 111.933 27.7308V35.0568H109.589V28.3435C109.536 26.6652 108.896 25.9459 107.511 25.9459C105.939 25.9459 104.927 27.1714 104.927 28.7431V35.0568H102.583V24.3742H102.529ZM127.598 35.0568H125.946L125.546 33.3252C124.161 34.897 122.909 35.4032 121.097 35.4032C116.675 35.4032 114.038 31.8867 114.038 27.6775C114.038 23.4684 116.675 19.9519 121.097 19.9519C124.321 19.9519 127.038 21.6569 127.411 24.9869H124.88C124.641 23.0422 122.936 22.0565 121.071 22.0565C117.901 22.0565 116.595 24.8537 116.595 27.6775C116.595 30.5014 117.927 33.2986 121.071 33.2986C123.708 33.3519 125.173 31.7535 125.2 29.2493H121.284V27.2779H127.571L127.598 35.0568ZM131.913 30.3149C131.913 31.9932 132.819 33.4851 134.79 33.4851C136.149 33.4851 136.975 32.899 137.401 31.7002H139.639C139.133 34.0445 137.135 35.3499 134.79 35.3499C131.434 35.3499 129.569 33.0056 129.569 29.7288C129.569 26.6919 131.567 24.0811 134.737 24.0811C138.094 24.0811 140.172 27.1181 139.772 30.3149H131.913ZM137.401 28.7698C137.321 27.2779 136.309 25.9459 134.711 25.9459C133.112 25.9459 131.967 27.1714 131.887 28.7698H137.401ZM148.777 27.9439C148.59 26.6386 147.631 25.9459 146.326 25.9459C145.1 25.9459 143.395 26.5853 143.395 29.8354C143.395 31.6203 144.168 33.4851 146.219 33.4851C147.578 33.4851 148.537 32.5793 148.75 31.0342H151.094C150.668 33.8048 148.963 35.3232 146.192 35.3232C142.836 35.3232 140.998 32.9523 140.998 29.8087C140.998 26.6652 142.756 24.0545 146.272 24.0545C148.75 24.0545 150.854 25.3066 151.094 27.9173H148.777V27.9439ZM153.119 20.2982H155.463V28.6899L159.726 24.3742H162.629L158.527 28.2902L163.002 35.0568H160.125L156.848 29.862L155.437 31.2207V35.0568H153.092V20.2982H153.119ZM163.642 29.7022C163.642 26.4254 165.613 24.0811 169.023 24.0811C172.433 24.0811 174.404 26.4254 174.404 29.7022C174.404 32.9789 172.433 35.3499 169.023 35.3499C165.613 35.3499 163.642 32.9789 163.642 29.7022ZM172.087 29.7022C172.087 27.864 171.154 25.9459 169.05 25.9459C166.945 25.9459 166.013 27.864 166.013 29.7022C166.013 31.5403 166.945 33.4851 169.05 33.4851C171.154 33.4851 172.087 31.567 172.087 29.7022Z" fill="white"/>
<path d="M35.8203 17.2488C36.8058 17.3287 40.375 18.4742 41.2806 19.1136C40.5082 16.9025 37.9512 16.6094 35.8203 17.2488Z" fill="white"/>
<path d="M35.6349 22.8962C35.6349 23.9619 34.9956 24.9475 33.9835 25.3471C32.9979 25.7467 31.8526 25.5336 31.0802 24.7611C30.3077 23.9885 30.0947 22.8696 30.4942 21.8573C30.8937 20.8716 31.8792 20.2056 32.9447 20.2056C34.4363 20.2322 35.6349 21.431 35.6349 22.8962Z" fill="white"/>
<path d="M45.6456 20.6859C44.2339 20.2863 42.7689 19.7003 41.2773 19.1142C41.1974 18.7412 40.8511 18.2883 40.1852 17.7023C39.2264 16.8498 37.3885 16.8764 35.817 17.2494C34.0857 16.8498 32.3544 16.6899 30.7029 17.0895C23.253 19.1461 22.2408 22.8251 21.9957 27.2447C21.6282 31.6617 21.3831 35.0023 19.6758 38.8012C23.1917 44.4489 31.5819 48.7912 39.1997 46.9264C39.1997 46.9184 39.1997 46.9078 39.1971 46.8998C39.1971 46.8998 39.1971 46.8998 39.1997 46.8998C39.1997 46.8998 39.1997 46.8945 39.1944 46.8891C38.3953 41.1748 43.3869 35.5991 46.1783 32.7539C46.8308 32.0852 47.8244 31.1875 48.7459 30.2391C52.4004 26.8185 53.1195 22.7266 45.6456 20.6859ZM46.4979 25.8008C46.9507 25.8275 47.3236 26.1738 47.3236 26.6267C47.3236 27.346 46.4446 27.7189 45.9385 27.2128C45.4325 26.7066 45.7787 25.8275 46.4979 25.8008ZM34.4053 26.3603C32.9936 26.9464 31.3688 26.6267 30.2768 25.5344C29.1847 24.4422 28.8651 22.8171 29.4511 21.4052C30.0371 19.9933 31.4221 19.0609 32.9403 19.0609C33.9525 19.0609 34.9114 19.4605 35.6039 20.1531C36.3497 20.8991 36.7492 21.8581 36.7492 22.8704C36.7492 24.3889 35.817 25.7742 34.4053 26.3603ZM47.0306 30.5161C45.8586 31.0756 44.66 31.5018 43.4082 31.8481C42.1563 32.1678 40.8511 32.4076 39.546 32.301C38.2142 32.1945 36.8824 31.7416 36.0034 30.7559L36.0567 30.7026C37.1221 31.3953 38.374 31.635 39.5993 31.6883C40.8511 31.7149 42.103 31.635 43.3283 31.3953C44.5535 31.1289 45.7787 30.7559 46.9507 30.2764C48.0481 29.8262 49.1242 29.304 50.0884 28.5821C50.1443 28.5341 50.2003 28.4862 50.2535 28.4382H50.2802C50.2162 28.4888 50.1523 28.5341 50.0884 28.5821C49.1668 29.3866 48.112 29.9887 47.0306 30.5161Z" fill="white"/>
</svg>
