<svg width="259" height="54" viewBox="0 0 259 54" fill="none" xmlns="http://www.w3.org/2000/svg">
<g clip-path="url(#clip0_14_97)">
<path d="M249.53 0H8.78C3.93094 0 0 3.93094 0 8.78V45.09C0 49.9391 3.93094 53.87 8.78 53.87H249.53C254.379 53.87 258.31 49.9391 258.31 45.09V8.78C258.31 3.93094 254.379 0 249.53 0Z" fill="#1D0C39"/>
<path d="M36.24 9.94C36.92 10.43 36.36 11.72 37.04 12.25C37.42 12.55 38 12.44 38.4 12.32C38.4 11.63 38.4 10.94 38.4 10.26C39.1 10.26 39.79 10.26 40.49 10.26C40.47 10.56 40.47 11 40.56 11.52C40.65 12.08 40.82 12.55 40.78 12.56C40.75 12.57 40.61 12.38 40.65 12.31C40.79 12.06 43.96 13.6 46.78 15.04C46.17 15.67 45.25 16.65 44.14 17.85C42.1 20.06 42.2 20.11 41.89 20.23C39.94 21.01 35.52 17.59 31.76 21.89C30.02 23.88 29.92 26.2 29.9 26.82C29.89 27.41 29.87 29.27 31.05 31.12C32.71 33.72 35.86 34.93 38.6 34.64C39.3 34.57 42 34.28 43.41 32.12C43.91 31.35 44.09 30.57 44.17 30.06C45.97 32.04 47.76 34.03 49.56 36.01C48.12 39.12 42.85 40.14 41.2 41.52C40 42.53 41.38 44.6 38.77 43.93L37.38 41.86C36.69 42.2 36.48 43.79 35.99 43.93C33.4 44.66 34.68 42.63 34.13 42.01C33.89 41.75 29.24 40.32 27.63 39.1C19.78 33.17 19.93 19.82 28.44 14.47C30.1 13.42 32.86 13.04 33.84 12.36C34.55 11.87 33.97 10.59 34.73 10.05C35.15 9.75 35.86 9.61 36.28 9.91L36.24 9.94Z" fill="white"/>
<path d="M47.91 17.18L49.93 18.51C50.46 19.25 50.28 19.79 49.93 20.55C49.58 21.31 39.13 31.58 38.4 31.94C36.65 32.83 33.66 28.09 32.15 27.09L34.58 24.7L37.37 27.42L47.92 17.18H47.91Z" fill="white"/>
<path d="M74.4 35.93C72.11 38.28 69.07 39.45 65.29 39.45C61.51 39.45 58.48 38.27 56.2 35.93C53.92 33.58 52.78 30.58 52.78 26.93C52.78 23.28 53.92 20.28 56.2 17.93C58.48 15.58 61.51 14.41 65.29 14.41C69.07 14.41 72.11 15.59 74.4 17.93C76.69 20.28 77.84 23.28 77.84 26.93C77.84 30.58 76.69 33.58 74.4 35.93ZM65.33 34.62C67.32 34.62 68.83 33.91 69.89 32.49C70.94 31.07 71.47 29.22 71.47 26.93C71.47 24.64 70.94 22.79 69.89 21.36C68.84 19.93 67.32 19.21 65.33 19.21C63.34 19.21 61.85 19.93 60.77 21.36C59.69 22.79 59.16 24.65 59.16 26.93C59.16 29.21 59.7 31.04 60.77 32.47C61.85 33.9 63.36 34.62 65.33 34.62Z" fill="white"/>
<path d="M80.32 38.8899V14.8799H86.6V38.8799H80.32V38.8899Z" fill="white"/>
<path d="M90.07 38.89V14.88H96.38L103.9 26.93L105.64 29.98H105.71C105.66 28.06 105.64 26.81 105.64 26.25V14.87H111.77V38.87H105.46L98.01 26.99L96.2 23.77H96.13C96.18 25.83 96.2 27.14 96.2 27.7V38.88H90.07V38.89Z" fill="white"/>
<path d="M121.49 38.8899V19.9199H114.12V14.8799H135.21V19.9199H127.76V38.8899H121.48H121.49Z" fill="white"/>
<path d="M137.55 38.8899V14.8799H149.68C152.28 14.8799 154.41 15.4899 156.06 16.7099C157.71 17.9299 158.54 19.6299 158.54 21.7999C158.54 24.7099 157.07 26.6499 154.14 27.6099V27.7099C156.27 28.3799 157.5 29.8499 157.83 32.1099C157.97 32.8899 158.07 33.8599 158.13 35.0099C158.19 36.1599 158.27 37.0199 158.36 37.5899C158.45 38.1599 158.63 38.4899 158.89 38.5799V38.8799H152.79C152.6 38.7699 152.45 38.4399 152.35 37.9099C152.25 37.3799 152.16 36.6099 152.08 35.6299C152.01 34.6499 151.93 33.8699 151.83 33.3099C151.5 31.0299 150.09 29.8899 147.61 29.8899H143.82V38.8899H137.54H137.55ZM143.82 25.4899H148.54C149.77 25.4899 150.7 25.2299 151.34 24.7199C151.98 24.2099 152.3 23.4899 152.3 22.5699C152.3 21.6499 151.99 20.9499 151.38 20.3999C150.77 19.8499 149.87 19.5799 148.69 19.5799H143.83V25.4899H143.82Z" fill="white"/>
<path d="M171.97 39.3199C168.47 39.3199 165.82 38.5499 164.03 36.9999C162.23 35.4599 161.34 33.2599 161.34 30.4199V14.8799H167.62V30.6199C167.62 33.2399 169.07 34.5499 171.98 34.5499C173.37 34.5499 174.44 34.1899 175.17 33.4599C175.9 32.7299 176.27 31.7499 176.27 30.5199V14.8799H182.55V30.4199C182.55 33.2399 181.66 35.4299 179.87 36.9799C178.09 38.5399 175.46 39.3099 171.98 39.3099L171.97 39.3199Z" fill="white"/>
<path d="M196.11 39.4599C192.68 39.4599 189.96 38.76 187.94 37.36C185.92 35.96 184.87 33.95 184.8 31.33H191.11C191.37 33.61 193.02 34.75 196.07 34.75C197.2 34.75 198.17 34.54 198.96 34.13C199.75 33.72 200.15 33.08 200.15 32.2299C200.15 31.65 199.9 31.16 199.41 30.77C198.91 30.38 198.41 30.1 197.9 29.95C197.39 29.79 196.43 29.55 195.01 29.21C194.94 29.1899 194.89 29.17 194.87 29.16C194.85 29.15 194.81 29.14 194.76 29.13C194.71 29.12 194.67 29.11 194.62 29.11C193.53 28.86 192.64 28.65 191.94 28.46C191.24 28.27 190.45 27.98 189.56 27.59C188.67 27.2 187.97 26.77 187.45 26.3C186.93 25.83 186.49 25.21 186.12 24.44C185.75 23.67 185.57 22.8 185.57 21.84C185.57 19.38 186.5 17.53 188.35 16.3C190.21 15.07 192.63 14.45 195.64 14.45C198.65 14.45 200.88 15.08 202.71 16.33C204.54 17.58 205.52 19.42 205.63 21.84H199.5C199.38 20.92 198.97 20.21 198.26 19.71C197.55 19.21 196.61 18.95 195.42 18.95C194.33 18.95 193.45 19.16 192.78 19.57C192.11 19.98 191.77 20.53 191.77 21.2C191.77 21.96 192.17 22.52 192.98 22.86C193.78 23.21 195.3 23.62 197.52 24.09C198.91 24.4 200.06 24.71 200.96 25.01C201.86 25.31 202.77 25.74 203.71 26.3C204.64 26.86 205.34 27.58 205.8 28.46C206.26 29.34 206.49 30.4 206.49 31.63C206.49 34.07 205.52 35.9799 203.57 37.3699C201.62 38.7599 199.13 39.45 196.11 39.45V39.4599Z" fill="white"/>
<path d="M214.41 38.8899V19.9199H207.04V14.8799H228.13V19.9199H220.68V38.8899H214.4H214.41Z" fill="white"/>
</g>
<defs>
<clipPath id="clip0_14_97">
<rect width="258.31" height="53.87" fill="white"/>
</clipPath>
</defs>
</svg>
