<svg width="245" height="55" viewBox="0 0 245 55" fill="none" xmlns="http://www.w3.org/2000/svg">
<rect x="0.472656" y="0.871033" width="244.129" height="53.871" rx="8.77719" fill="#1D0C39"/>
<g clip-path="url(#clip0_1590_6787)">
<path d="M52.3647 17.4426V21.5045H51.0851C47.0996 21.5045 44.537 24.3074 44.537 28.5125V38.0417H40.125V17.7228H44.537V22.9083C45.2501 19.8253 47.2428 17.3026 51.0851 17.3026C51.5116 17.3026 51.9382 17.3026 52.3647 17.4426ZM76.5721 17.7116L67.9453 38.029L64.692 45.3155H60.4487L63.8437 37.7488L55.357 17.71H59.742L65.8237 32.7033L72.047 17.5716H76.5721V17.7116ZM101.868 27.8074C101.868 34.8107 96.778 38.3123 91.9712 38.3123C88.2961 38.3123 85.611 36.3514 84.9043 34.6706H84.7611V45.3155H80.3809V17.7228H84.7626V20.9443H84.9043C85.611 19.4036 88.2961 17.3026 91.9712 17.3026C96.9196 17.3026 101.868 20.8042 101.868 27.8074ZM97.6263 27.8074C97.6263 23.4654 94.3746 21.2244 91.1245 21.2244C87.8727 21.2244 84.621 23.4654 84.621 27.8074C84.621 32.1494 87.8727 34.3905 91.1245 34.3905C94.5162 34.3905 97.6263 32.1494 97.6263 27.8074ZM111.921 21.1225V32.1701C111.921 33.2891 112.486 34.2679 114.178 34.2679C114.601 34.2679 115.306 34.1278 116.011 33.8477V37.2045C115.306 37.7632 113.895 38.0433 112.768 38.0433C109.664 38.0433 107.409 36.5058 107.409 32.8704V21.1225H104.585V17.6289H107.407V12.4544H111.778V17.6273H115.868V21.1241H111.919L111.921 21.1225ZM119.546 27.8074C119.546 20.9443 124.886 17.3026 130.083 17.3026C135.423 17.3026 140.763 20.9443 140.763 27.8074C140.763 34.6706 135.423 38.3123 130.083 38.3123C124.886 38.3123 119.546 34.6706 119.546 27.8074ZM136.407 27.8074C136.407 23.6055 133.456 21.2244 130.085 21.2244C126.712 21.2244 123.763 23.6055 123.763 27.8074C123.763 32.0094 126.852 34.3905 130.085 34.3905C133.316 34.3905 136.407 32.0094 136.407 27.8074ZM157.354 17.4426V21.5045H156.073C152.088 21.5045 149.525 24.3074 149.525 28.5125V38.0417H145.115V17.7228H149.527V22.9083C150.238 19.8253 152.229 17.3026 156.073 17.3026C156.5 17.3026 156.926 17.3026 157.354 17.4426ZM205.223 26.1267V38.0417H200.849V26.8286C200.849 23.3238 198.874 21.3613 195.91 21.3613C192.947 21.3613 190.83 23.3238 190.83 26.8286V38.0417H186.456V17.8565H190.83V20.9411C191.96 19.1186 194.075 17.5763 197.321 17.5763C201.696 17.4363 205.223 20.0991 205.223 26.1267ZM217.633 29.7763L214.794 32.8593V38.0433H210.391V10.2993H214.794V27.2535L223.455 17.726H228.709L220.331 26.8333L229.703 38.0433H224.733L217.633 29.7763ZM182.104 27.6467V17.1864H177.723V20.4286H177.581C176.874 18.7367 174.188 16.7646 170.514 16.7646C165.707 16.7646 160.617 20.2869 160.617 27.3331C160.617 34.3793 165.706 37.9016 170.512 38.0433C171.023 38.0433 171.515 38.0019 171.985 37.9271C172.87 37.3843 173.847 36.5169 175.014 35.2006C174.318 35.0956 173.756 35.0208 173.279 34.9555C171.6 34.7295 170.909 34.6356 168.889 33.9162C167.861 33.5501 166.043 31.9234 165.499 30.3954C165.093 29.528 164.857 28.5078 164.857 27.3331C164.857 22.9641 168.109 20.7103 171.361 20.7103C174.613 20.7103 177.864 22.9641 177.864 27.3315L177.863 27.4716C179.458 27.5257 180.949 27.591 182.104 27.6467Z" fill="white"/>
<path d="M175.358 39.6594L174.501 38.8286L178.213 34.8081L174.215 31.0646L175.073 30.2337L179.927 34.8081L175.358 39.6594Z" fill="white" stroke="white" stroke-width="0.805372" stroke-miterlimit="10"/>
<path d="M23.9225 34.2243C22.9261 33.8454 21.8963 33.2772 21.161 32.4337C20.064 31.144 19.4644 29.5046 19.4706 27.8115C19.4706 23.6096 22.4311 21.2269 25.8117 21.2269C27.5037 21.2269 29.194 21.7872 30.3225 23.0477C30.6567 23.382 30.9273 23.7274 31.1437 24.0791L31.9364 23.7799C33.0346 23.3661 34.1313 22.9506 35.2295 22.5273C33.3195 19.0941 29.5664 17.3051 25.8117 17.3051C20.4574 17.3051 15.1016 20.9468 15.1016 27.8099C15.1016 34.5633 20.284 38.1986 25.5507 38.3148C26.4739 37.5349 27.5243 36.4764 28.3074 35.6854L28.8502 35.1379C27.0357 35.1379 25.2212 34.8339 23.9225 34.2243Z" fill="white"/>
<path d="M29.0295 40.1953L28.1716 39.3645L31.8849 35.344L27.8867 31.6004L28.743 30.768L33.5975 35.344L29.0295 40.1953Z" fill="white" stroke="white" stroke-width="0.805372" stroke-miterlimit="10"/>
</g>
<defs>
<clipPath id="clip0_1590_6787">
<rect width="214.872" height="35.0162" fill="white" transform="translate(15.1016 10.2985)"/>
</clipPath>
</defs>
</svg>
