<svg width="59" height="55" viewBox="0 0 59 55" fill="none" xmlns="http://www.w3.org/2000/svg">
<rect x="0.660156" y="0.742035" width="58.213" height="53.871" rx="8.77719" fill="#1D0C39"/>
<g clip-path="url(#clip0_1590_6803)">
<path fill-rule="evenodd" clip-rule="evenodd" d="M16.1016 37.9459C16.1016 39.3832 17.1218 40.4613 18.6353 40.4613C19.8989 40.4613 20.5813 39.6477 20.5813 39.6477L19.9732 38.7798C19.9732 38.7798 19.4191 39.3765 18.6894 39.3765C17.7975 39.3765 17.3245 38.6374 17.3245 37.9187C17.3245 37.2204 17.7637 36.5356 18.6894 36.5356C19.3583 36.5356 19.8989 37.0306 19.8989 37.0306L20.4461 36.1356C20.4461 36.1356 19.8313 35.4508 18.6353 35.4508C17.1826 35.4508 16.1016 36.5356 16.1016 37.9459ZM21.2975 40.3799H22.4799V38.7459H23.034L23.8921 40.3799H25.2097L24.2705 38.6849C24.1556 38.4815 24.088 38.3934 24.088 38.3934V38.3798C24.5678 38.1357 24.811 37.573 24.811 37.0577C24.811 36.3526 24.4664 35.8576 23.9191 35.6474C23.7097 35.5661 23.4732 35.5322 22.9799 35.5322H21.2975V40.3799ZM22.4799 37.7289V36.5492H22.8786C23.4732 36.5492 23.6083 36.7661 23.6083 37.1323C23.6083 37.5187 23.3718 37.7289 22.9934 37.7289H22.4799ZM26.9259 40.3799H28.1083V38.3934L29.7029 35.5322H28.3583L27.8178 36.6983C27.6624 37.0306 27.5272 37.3967 27.5272 37.3967H27.5137C27.5137 37.3967 27.3786 37.0306 27.2232 36.6983L26.6759 35.5322H25.3313L26.9259 38.3934V40.3799ZM30.2434 40.3799H31.4259V38.8815H32.2502C33.1894 38.8815 33.8245 38.1764 33.8245 37.2001C33.8245 36.2237 33.1894 35.5322 32.2502 35.5322H30.2434V40.3799ZM31.4259 37.8645V36.5492H32.0272C32.4191 36.5492 32.6218 36.8136 32.6218 37.2001C32.6218 37.5865 32.4191 37.8645 32.0069 37.8645H31.4259ZM35.4529 40.3799H36.6353V36.5492H38.1015V35.5322H33.9867V36.5492H35.4529V40.3799ZM38.365 37.9255C38.365 39.3493 39.4326 40.4613 40.8921 40.4613C42.3515 40.4613 43.4191 39.3493 43.4191 37.9255C43.4191 36.5356 42.3515 35.4508 40.8921 35.4508C39.4326 35.4508 38.365 36.5356 38.365 37.9255ZM39.588 37.9255C39.588 37.1323 40.1691 36.5356 40.8921 36.5356C41.615 36.5356 42.1961 37.1323 42.1961 37.9255C42.1961 38.7527 41.615 39.3765 40.8921 39.3765C40.1691 39.3765 39.588 38.7527 39.588 37.9255Z" fill="white"/>
<path fill-rule="evenodd" clip-rule="evenodd" d="M19.5686 43.3925C19.9962 43.7573 20.2099 44.3177 20.2099 45.0736C20.2099 45.8295 19.9904 46.3826 19.5512 46.7328C19.112 47.083 18.4415 47.2582 17.5399 47.2582H16.7284V48.9655H15.3672V42.8452H17.5224C18.459 42.8452 19.141 43.0276 19.5686 43.3925ZM18.5695 45.8003C18.7324 45.6164 18.8138 45.3479 18.8138 44.9948C18.8138 44.6416 18.7077 44.3906 18.4953 44.2418C18.283 44.0929 17.9529 44.0185 17.505 44.0185H16.7284V46.0761H17.6446C18.0983 46.0761 18.4066 45.9842 18.5695 45.8003ZM25.6111 48.9655L25.044 47.6434H22.4874L21.9202 48.9655H20.4717L23.1069 42.8452H24.4245L27.0596 48.9655H25.6111ZM23.77 44.6664L23.0022 46.4439H24.5292L23.77 44.6664ZM32.3823 42.8452H33.7435V48.9655H32.3823L29.4766 45.1305V48.9655H28.1154V42.8452H29.3894L32.3823 46.7853V42.8452ZM35.5933 42.8452H36.9545V48.9655H35.5933V42.8452ZM41.6053 47.7572C42.2743 47.7572 42.8211 47.4916 43.2458 46.9605L44.1183 47.8623C43.4261 48.6445 42.6103 49.0356 41.6708 49.0356C40.7313 49.0356 39.9576 48.7379 39.3498 48.1425C38.7419 47.5471 38.4379 46.7956 38.4379 45.8879C38.4379 44.9802 38.7477 44.2228 39.3672 43.6157C39.9867 43.0087 40.7444 42.7051 41.6402 42.7051C42.6408 42.7051 43.4785 43.0875 44.1532 43.8521L43.3069 44.8153C42.8764 44.2783 42.3412 44.0098 41.7013 44.0098C41.1894 44.0098 40.7517 44.1776 40.3881 44.5132C40.0245 44.8489 39.8428 45.3012 39.8428 45.8704C39.8428 46.4395 40.0144 46.8962 40.3576 47.2406C40.7008 47.585 41.1167 47.7572 41.6053 47.7572Z" fill="white"/>
<path fill-rule="evenodd" clip-rule="evenodd" d="M27.5896 30.6765C28.2988 30.8033 29.0289 30.8695 29.7745 30.8695C33.0779 30.8695 36.078 29.5706 38.2919 27.4557C36.4511 27.1535 33.9714 26.7127 33.9684 26.5309C33.964 26.2857 39.0696 25.4798 40.0733 25.3238C40.2228 25.0973 40.3651 24.8656 40.4998 24.6291C38.6959 24.3296 36.4494 23.922 36.4465 23.7489C36.4431 23.5581 39.5319 23.0281 41.3766 22.7286C41.8497 21.4197 42.1076 20.0077 42.1076 18.5356C42.1076 11.7238 36.5859 6.20169 29.7745 6.20169C26.4693 6.20169 23.4678 7.50192 21.2535 9.61882C23.1017 9.92485 25.6342 10.3758 25.6311 10.5485C25.6266 10.8153 20.2924 11.6392 19.4637 11.7656C19.3177 11.9875 19.1787 12.2144 19.047 12.446C20.8618 12.7497 23.1559 13.1661 23.153 13.3305C23.1495 13.5355 20.0002 14.0693 18.165 14.363C17.6966 15.6662 17.4414 17.0711 17.4414 18.5356C17.4414 20.0308 17.7075 21.4639 18.1948 22.79C18.5612 22.6202 18.9692 22.3715 19.4041 22.1276C18.5965 22.031 18.1678 21.8638 18.1678 21.8638C19.4093 21.5787 21.4714 20.7969 21.4714 20.7969C21.5759 20.7237 21.6804 20.6505 21.7772 20.6218C22.6056 20.0806 23.293 19.5604 23.8392 19.0611C24.5213 19.0898 25.4048 19.0165 26.1966 18.423C25.6609 18.6035 24.3932 18.5174 24.3932 18.5174C23.149 18.298 22.5922 17.5584 22.7412 17.493C24.4165 16.8263 25.8853 16.0315 25.8853 16.0315C26.2093 15.4931 27.495 13.6581 29.105 13.6213C29.6095 13.6186 30.0564 13.4225 30.438 13.0774L32.7351 10.9626C32.7351 10.9626 34.008 11.2787 34.0527 12.8443C34.1052 14.3655 32.9474 15.2151 33.1069 15.6097C33.2743 15.96 34.96 14.9744 34.96 14.9744C34.96 14.9744 35.3392 16.4615 34.6074 16.9739C33.8756 17.4863 32.2189 20.1263 31.7775 22.1102C31.6678 22.7323 31.5293 23.2576 31.3909 23.783C31.4092 24.1986 31.2867 26.1929 30.5732 27.1208L30.4529 26.504C29.7866 27.9442 28.9974 29.0421 28.135 30.0354C27.9322 30.2732 27.7518 30.4857 27.5896 30.6765ZM28.8189 15.2594L29.1167 14.3498L29.6604 14.1249C29.4253 15.458 28.8189 15.2594 28.8189 15.2594Z" fill="white"/>
</g>
<defs>
<clipPath id="clip0_1590_6803">
<rect width="28.9557" height="43.0968" fill="white" transform="translate(15.2891 6.12915)"/>
</clipPath>
</defs>
</svg>
