<svg width="159" height="54" viewBox="0 0 159 54" fill="none" xmlns="http://www.w3.org/2000/svg">
<g clip-path="url(#clip0_14_111)">
<path d="M149.61 0H8.78C3.93094 0 0 3.93094 0 8.78V45.09C0 49.9391 3.93094 53.87 8.78 53.87H149.61C154.459 53.87 158.39 49.9391 158.39 45.09V8.78C158.39 3.93094 154.459 0 149.61 0Z" fill="#1D0C39"/>
<path d="M23.5976 14.43V9.16454H24.2352V11.7767H24.2969L26.6622 9.16454H27.4952L25.2842 11.5402L27.4952 14.43H26.7239L24.8934 11.9824L24.2352 12.7228V14.43H23.5976ZM32.5158 11.7973C32.5158 12.3526 32.4155 12.8325 32.215 13.237C32.0145 13.6415 31.7394 13.9535 31.3897 14.1729C31.04 14.3923 30.6407 14.502 30.1916 14.502C29.7425 14.502 29.3432 14.3923 28.9935 14.1729C28.6438 13.9535 28.3687 13.6415 28.1682 13.237C27.9677 12.8325 27.8674 12.3526 27.8674 11.7973C27.8674 11.2419 27.9677 10.762 28.1682 10.3575C28.3687 9.95299 28.6438 9.64103 28.9935 9.42164C29.3432 9.20225 29.7425 9.09255 30.1916 9.09255C30.6407 9.09255 31.04 9.20225 31.3897 9.42164C31.7394 9.64103 32.0145 9.95299 32.215 10.3575C32.4155 10.762 32.5158 11.2419 32.5158 11.7973ZM31.8988 11.7973C31.8988 11.3413 31.8225 10.9565 31.6699 10.6429C31.5191 10.3292 31.3143 10.0918 31.0555 9.9307C30.7984 9.76959 30.5104 9.68903 30.1916 9.68903C29.8728 9.68903 29.584 9.76959 29.3252 9.9307C29.0681 10.0918 28.8632 10.3292 28.7107 10.6429C28.5599 10.9565 28.4844 11.3413 28.4844 11.7973C28.4844 12.2532 28.5599 12.638 28.7107 12.9517C28.8632 13.2653 29.0681 13.5027 29.3252 13.6638C29.584 13.8249 29.8728 13.9055 30.1916 13.9055C30.5104 13.9055 30.7984 13.8249 31.0555 13.6638C31.3143 13.5027 31.5191 13.2653 31.6699 12.9517C31.8225 12.638 31.8988 12.2532 31.8988 11.7973ZM33.5879 14.43V9.16454H35.3671C35.7784 9.16454 36.1161 9.23481 36.3801 9.37536C36.644 9.5142 36.8394 9.70531 36.9662 9.9487C37.0931 10.1921 37.1565 10.4689 37.1565 10.7791C37.1565 11.0894 37.0931 11.3645 36.9662 11.6044C36.8394 11.8444 36.6449 12.0329 36.3826 12.1701C36.1204 12.3055 35.7853 12.3732 35.3774 12.3732H33.9376V11.7973H35.3568C35.6379 11.7973 35.8641 11.7561 36.0355 11.6739C36.2087 11.5916 36.3338 11.475 36.4109 11.3242C36.4898 11.1716 36.5292 10.99 36.5292 10.7791C36.5292 10.5683 36.4898 10.3841 36.4109 10.2264C36.3321 10.0687 36.2061 9.94699 36.033 9.86129C35.8599 9.77387 35.631 9.73016 35.3465 9.73016H34.2255V14.43H33.5879ZM36.0664 12.0647L37.3622 14.43H36.6217L35.3465 12.0647H36.0664ZM38.219 14.43V9.16454H41.3968V9.73016H38.8566V11.5093H41.2322V12.0749H38.8566V13.8644H41.4379V14.43H38.219ZM42.762 14.43H42.0935L44.0269 9.16454H44.6851L46.6185 14.43H45.95L44.3766 9.99755H44.3354L42.762 14.43ZM43.0088 12.3732H45.7032V12.9388H43.0088V12.3732Z" fill="white"/>
<path d="M31.06 36.1H22.93V35.12C23.16 35.1 23.49 35.07 23.92 35.04C24.35 35 24.66 34.95 24.84 34.87C25.12 34.75 25.32 34.59 25.45 34.38C25.58 34.17 25.64 33.88 25.64 33.51V19.28C25.64 18.96 25.59 18.69 25.5 18.47C25.41 18.25 25.19 18.07 24.84 17.92C24.59 17.81 24.27 17.71 23.88 17.61C23.49 17.51 23.18 17.46 22.93 17.44V16.46H31.06V17.44C30.8 17.44 30.48 17.48 30.12 17.54C29.76 17.6 29.44 17.68 29.17 17.77C28.85 17.88 28.63 18.06 28.52 18.31C28.41 18.56 28.35 18.84 28.35 19.14V33.36C28.35 33.66 28.41 33.93 28.53 34.17C28.65 34.41 28.86 34.59 29.16 34.73C29.34 34.8 29.63 34.88 30.03 34.97C30.43 35.06 30.77 35.11 31.05 35.12V36.1H31.06Z" fill="white"/>
<path d="M48.08 21.78H47.2C46.17 18.55 45.14 17.14 41.57 17.53V33.24C41.42 34.78 43.34 34.99 44.47 35.11V36.09H35.95V35.11C37.08 35.01 39.03 35.01 38.86 33.37V17.53C35.28 17.14 34.28 18.56 33.24 21.78H32.35V16.45H48.08V21.78Z" fill="white"/>
<path d="M70.63 21.78H69.75C69.67 21.45 69.54 21.05 69.34 20.6C69.14 20.14 68.92 19.71 68.67 19.31C68.41 18.89 68.14 18.51 67.84 18.2C67.54 17.89 67.25 17.7 66.97 17.65C66.71 17.61 66.38 17.59 65.98 17.57C65.58 17.55 65.21 17.54 64.87 17.54H64.13V33.25C64.13 33.55 64.19 33.83 64.31 34.09C64.43 34.34 64.64 34.54 64.93 34.68C65.08 34.74 65.4 34.83 65.89 34.94C66.38 35.05 66.76 35.11 67.03 35.12V36.1H58.51V35.12C58.75 35.1 59.11 35.06 59.6 35.01C60.09 34.96 60.42 34.89 60.61 34.8C60.89 34.68 61.1 34.51 61.23 34.28C61.36 34.05 61.43 33.75 61.43 33.37V17.53H60.69C60.43 17.53 60.1 17.53 59.71 17.55C59.32 17.57 58.95 17.59 58.59 17.64C58.31 17.68 58.02 17.86 57.72 18.19C57.42 18.52 57.14 18.89 56.89 19.3C56.64 19.71 56.41 20.16 56.22 20.62C56.02 21.09 55.89 21.47 55.81 21.78H54.92V16.45H70.65V21.78H70.63Z" fill="white"/>
<path d="M80.04 36.1H71.91V35.12C72.14 35.1 72.47 35.07 72.9 35.04C73.33 35 73.64 34.95 73.82 34.87C74.1 34.75 74.3 34.59 74.43 34.38C74.56 34.17 74.62 33.88 74.62 33.51V19.28C74.62 18.96 74.57 18.69 74.48 18.47C74.39 18.25 74.17 18.07 73.82 17.92C73.57 17.81 73.25 17.71 72.86 17.61C72.47 17.51 72.16 17.46 71.91 17.44V16.46H80.04V17.44C79.78 17.44 79.46 17.48 79.1 17.54C78.74 17.6 78.42 17.68 78.15 17.77C77.83 17.88 77.61 18.06 77.5 18.31C77.39 18.56 77.33 18.84 77.33 19.14V33.36C77.33 33.66 77.39 33.93 77.51 34.17C77.63 34.41 77.84 34.59 78.14 34.73C78.32 34.8 78.61 34.88 79.01 34.97C79.41 35.06 79.75 35.11 80.03 35.12V36.1H80.04Z" fill="white"/>
<path d="M104.1 36.1H96.12V35.12C96.41 35.12 96.78 35.08 97.23 35.02C97.68 34.96 97.99 34.89 98.16 34.78C98.42 34.6 98.62 34.4 98.74 34.18C98.86 33.95 98.92 33.67 98.92 33.33V19.04H98.73L92.57 35.78H91.93L86.07 18.7H85.9V30.43C85.9 31.57 85.97 32.43 86.1 33.02C86.23 33.61 86.43 34.04 86.7 34.29C86.89 34.48 87.27 34.67 87.86 34.84C88.45 35.02 88.83 35.11 89 35.12V36.1H81.71V35.12C82.09 35.08 82.49 35.01 82.91 34.91C83.33 34.81 83.65 34.66 83.88 34.45C84.18 34.19 84.38 33.79 84.49 33.26C84.6 32.72 84.66 31.83 84.66 30.57V20.52C84.66 19.94 84.6 19.46 84.47 19.09C84.34 18.72 84.16 18.42 83.92 18.19C83.66 17.94 83.33 17.76 82.95 17.64C82.57 17.52 82.19 17.45 81.82 17.43V16.45H87.97L93.14 31.2L97.55 18.86C97.71 18.41 97.85 17.93 97.96 17.44C98.07 16.95 98.14 16.62 98.14 16.45H104.03V17.43C103.79 17.43 103.49 17.48 103.12 17.55C102.75 17.62 102.48 17.69 102.31 17.76C102.02 17.87 101.83 18.06 101.72 18.31C101.62 18.57 101.57 18.85 101.57 19.15V33.31C101.57 33.63 101.62 33.91 101.72 34.13C101.82 34.35 102.02 34.55 102.31 34.71C102.46 34.8 102.73 34.89 103.12 34.97C103.51 35.05 103.82 35.09 104.05 35.1V36.08L104.1 36.1Z" fill="white"/>
<path d="M121.79 30.31L121.45 36.1H106.47V35.12C106.72 35.1 107.06 35.06 107.49 35C107.91 34.94 108.19 34.88 108.32 34.81C108.59 34.67 108.78 34.49 108.89 34.27C109 34.05 109.05 33.77 109.05 33.43V19.31C109.05 19.01 109 18.74 108.91 18.5C108.82 18.26 108.62 18.07 108.32 17.93C108.09 17.81 107.78 17.7 107.4 17.61C107.01 17.52 106.71 17.46 106.48 17.44V16.46H120.45V21.19H119.5C119.33 20.49 118.96 19.74 118.4 18.95C117.84 18.16 117.3 17.73 116.79 17.66C116.53 17.62 116.21 17.6 115.85 17.58C115.49 17.56 115.07 17.55 114.6 17.55H111.76V25.36H113.8C114.45 25.36 114.93 25.29 115.23 25.16C115.53 25.03 115.8 24.8 116.02 24.49C116.21 24.22 116.37 23.86 116.5 23.42C116.63 22.97 116.72 22.55 116.76 22.15H117.71V29.85H116.76C116.73 29.41 116.63 28.94 116.49 28.44C116.34 27.95 116.19 27.59 116.03 27.37C115.77 27.01 115.47 26.77 115.13 26.66C114.79 26.55 114.35 26.49 113.8 26.49H111.76V32.38C111.76 32.97 111.8 33.44 111.87 33.78C111.94 34.12 112.09 34.38 112.32 34.55C112.54 34.73 112.84 34.84 113.22 34.89C113.6 34.94 114.14 34.97 114.85 34.97H115.96C116.42 34.97 116.8 34.95 117.12 34.91C117.44 34.87 117.78 34.81 118.12 34.71C118.46 34.61 118.71 34.48 118.85 34.32C119.24 33.88 119.65 33.21 120.08 32.31C120.51 31.41 120.78 30.75 120.9 30.32H121.82L121.79 30.31Z" fill="white"/>
<path d="M134.94 27.08C135.32 27.54 135.6 28.05 135.79 28.6C135.97 29.15 136.06 29.79 136.06 30.52C136.06 32.26 135.47 33.69 134.29 34.81C133.11 35.94 131.65 36.5 129.9 36.5C129.09 36.5 128.29 36.36 127.48 36.09C126.67 35.82 125.98 35.49 125.39 35.1L124.84 36.11H123.82L123.64 29.38H124.67C124.88 30.21 125.13 30.96 125.41 31.63C125.69 32.3 126.07 32.92 126.54 33.51C126.98 34.05 127.5 34.49 128.09 34.81C128.68 35.13 129.36 35.29 130.14 35.29C130.73 35.29 131.24 35.21 131.67 35.04C132.1 34.87 132.46 34.64 132.73 34.33C133 34.03 133.2 33.67 133.33 33.26C133.46 32.85 133.53 32.38 133.53 31.84C133.53 31.05 133.33 30.32 132.92 29.64C132.51 28.96 131.91 28.45 131.1 28.09C130.55 27.85 129.92 27.59 129.2 27.3C128.49 27.01 127.87 26.74 127.36 26.48C126.34 25.98 125.55 25.33 124.99 24.52C124.43 23.71 124.14 22.66 124.14 21.36C124.14 20.61 124.28 19.92 124.56 19.27C124.84 18.62 125.24 18.05 125.76 17.54C126.25 17.06 126.83 16.68 127.5 16.41C128.17 16.14 128.87 16 129.6 16C130.43 16 131.18 16.14 131.83 16.42C132.48 16.7 133.09 17.02 133.63 17.39L134.15 16.45H135.17L135.27 22.97H134.24C134.05 22.22 133.84 21.51 133.61 20.82C133.38 20.14 133.07 19.52 132.7 18.96C132.34 18.42 131.89 18 131.36 17.68C130.83 17.36 130.19 17.2 129.43 17.2C128.62 17.2 127.94 17.48 127.37 18.04C126.8 18.6 126.52 19.29 126.52 20.1C126.52 20.91 126.7 21.65 127.07 22.21C127.43 22.77 127.96 23.23 128.66 23.59C129.28 23.91 129.89 24.19 130.49 24.43C131.09 24.67 131.67 24.92 132.23 25.18C132.74 25.42 133.23 25.69 133.7 26C134.17 26.31 134.58 26.66 134.93 27.07L134.94 27.08Z" fill="white"/>
<path d="M24.7222 45.1014C24.3699 45.1014 24.0393 45.0459 23.7304 44.9348C23.4263 44.819 23.156 44.6573 22.9195 44.4498C22.6878 44.2374 22.5068 43.9864 22.3765 43.6968C22.2462 43.4024 22.181 43.0766 22.181 42.7194C22.181 42.3912 22.2437 42.0775 22.3692 41.7782C22.4947 41.4741 22.6757 41.2038 22.9122 40.9673C23.1536 40.7308 23.4432 40.5426 23.781 40.4026C24.1237 40.2626 24.5075 40.1926 24.9322 40.1926C25.0336 40.1926 25.1494 40.1999 25.2797 40.2144C25.41 40.2288 25.5428 40.2481 25.6779 40.2723C25.8179 40.2964 25.9482 40.3254 26.0689 40.3592C26.1944 40.3881 26.3006 40.4195 26.3874 40.4533C26.4309 40.4726 26.4671 40.4967 26.496 40.5257C26.525 40.5546 26.5419 40.5957 26.5467 40.6488C26.5709 40.8225 26.5902 40.9866 26.6046 41.1411C26.6239 41.2907 26.6336 41.4186 26.6336 41.5248C26.6336 41.5731 26.6215 41.6093 26.5974 41.6334C26.5781 41.6575 26.5491 41.6696 26.5105 41.6696C26.4526 41.6696 26.4092 41.6575 26.3802 41.6334C26.3561 41.6044 26.3319 41.5682 26.3078 41.5248C26.2644 41.4283 26.2113 41.3269 26.1485 41.2207C26.0858 41.1097 26.0134 41.0132 25.9313 40.9311C25.8686 40.8684 25.7986 40.8129 25.7214 40.7646C25.6441 40.7115 25.5524 40.6705 25.4462 40.6415C25.3401 40.6077 25.2121 40.5908 25.0625 40.5908C24.8067 40.5908 24.5799 40.6439 24.382 40.7501C24.1889 40.8515 24.0272 40.9939 23.8969 41.1773C23.7666 41.3559 23.6676 41.561 23.6 41.7927C23.5373 42.0195 23.5059 42.2585 23.5059 42.5094C23.5059 42.8328 23.5301 43.1297 23.5783 43.4C23.6314 43.6654 23.7111 43.8947 23.8172 44.0878C23.9283 44.2808 24.0682 44.4305 24.2372 44.5366C24.4061 44.638 24.6088 44.6887 24.8453 44.6887C24.9322 44.6887 25.0094 44.6718 25.077 44.638C25.1494 44.5994 25.2097 44.5632 25.258 44.5294C25.3063 44.4956 25.3425 44.4377 25.3666 44.3556C25.3956 44.2736 25.4125 44.1819 25.4173 44.0805C25.4221 44.0371 25.4245 43.9743 25.4245 43.8923C25.4245 43.8054 25.4245 43.7209 25.4245 43.6389C25.4293 43.552 25.4318 43.4868 25.4318 43.4434C25.4318 43.3903 25.4173 43.342 25.3883 43.2986C25.3642 43.2503 25.3159 43.2117 25.2435 43.1828C25.1953 43.1635 25.147 43.1466 25.0987 43.1321C25.0553 43.1128 25.0094 43.0983 24.9612 43.0886C24.9177 43.0742 24.8743 43.0621 24.8308 43.0524C24.7874 43.0428 24.7464 43.0235 24.7078 42.9945C24.6691 42.9656 24.6498 42.9294 24.6498 42.8859C24.6498 42.8521 24.6667 42.8256 24.7005 42.8063C24.7343 42.787 24.7705 42.7773 24.8091 42.7773C24.9153 42.7773 25.0384 42.7797 25.1784 42.7846C25.3232 42.7894 25.4655 42.7966 25.6055 42.8063C25.7455 42.8111 25.8637 42.8135 25.9603 42.8135C26.1003 42.8135 26.2547 42.8087 26.4236 42.799C26.5974 42.7894 26.7591 42.7846 26.9087 42.7846C26.9473 42.7846 26.9763 42.7942 26.9956 42.8135C27.0149 42.828 27.0246 42.8545 27.0246 42.8932C27.0246 42.9414 27.0125 42.9776 26.9884 43.0018C26.9642 43.0211 26.9304 43.0355 26.887 43.0452C26.7422 43.0838 26.6433 43.1297 26.5902 43.1828C26.5419 43.231 26.5081 43.3034 26.4888 43.4C26.4695 43.5061 26.455 43.6003 26.4454 43.6823C26.4405 43.7595 26.4381 43.8464 26.4381 43.943V44.1891C26.4381 44.2133 26.4478 44.2374 26.4671 44.2615C26.4912 44.2857 26.5153 44.3098 26.5395 44.3339C26.5636 44.3581 26.5805 44.3846 26.5902 44.4136C26.6046 44.4377 26.6119 44.4642 26.6119 44.4932C26.6119 44.527 26.5998 44.5608 26.5757 44.5946C26.5515 44.6235 26.5129 44.6428 26.4598 44.6525C26.4212 44.6573 26.3537 44.6839 26.2571 44.7321C26.1654 44.7756 26.0472 44.8262 25.9024 44.8842C25.7576 44.9421 25.5862 44.9928 25.3883 45.0362C25.1904 45.0796 24.9684 45.1014 24.7222 45.1014ZM29.977 45.0217C29.9287 45.0217 29.8925 45.0121 29.8684 44.9928C29.8443 44.9735 29.8322 44.9469 29.8322 44.9131C29.8322 44.8745 29.8467 44.8455 29.8756 44.8262C29.9046 44.8021 29.9456 44.7804 29.9987 44.7611C30.0711 44.7369 30.1339 44.7128 30.187 44.6887C30.2401 44.6597 30.2666 44.5921 30.2666 44.486V41.047C30.2666 40.9166 30.2497 40.8032 30.2159 40.7067C30.187 40.6101 30.1122 40.5498 29.9915 40.5257C29.9384 40.516 29.9118 40.4774 29.9118 40.4098C29.9118 40.3471 29.936 40.3109 29.9842 40.3012C30.1049 40.2771 30.2425 40.2409 30.3969 40.1926C30.5562 40.1395 30.7058 40.0865 30.8458 40.0334C30.9906 39.9803 31.0992 39.9417 31.1716 39.9175C31.215 39.903 31.2488 39.8958 31.273 39.8958C31.3068 39.8958 31.3285 39.9055 31.3381 39.9248C31.3478 39.9441 31.3526 39.9658 31.3526 39.9899C31.3526 40.0237 31.3478 40.0816 31.3381 40.1637C31.3285 40.2409 31.3212 40.3133 31.3164 40.3809V44.4715C31.3164 44.5777 31.343 44.6452 31.396 44.6742C31.4491 44.6983 31.5119 44.7225 31.5843 44.7466C31.6374 44.7659 31.6784 44.7876 31.7074 44.8118C31.7363 44.8311 31.7508 44.86 31.7508 44.8986C31.7508 44.9324 31.7387 44.959 31.7146 44.9783C31.6905 44.9976 31.6543 45.0072 31.606 45.0072C31.5095 45.0072 31.4129 45.0048 31.3164 45C31.2199 44.9952 31.1258 44.9928 31.034 44.9928C30.9423 44.9879 30.853 44.9855 30.7662 44.9855C30.6841 44.9855 30.5996 44.9879 30.5128 44.9928C30.4307 44.9976 30.3438 45.0024 30.2521 45.0072C30.1652 45.0169 30.0735 45.0217 29.977 45.0217ZM35.9746 45.1014C35.6801 45.1014 35.4147 45.0362 35.1782 44.9059C34.9417 44.7756 34.7534 44.5946 34.6134 44.3629C34.4735 44.1312 34.4035 43.8681 34.4035 43.5737C34.4035 43.3372 34.4469 43.1152 34.5338 42.9076C34.6255 42.6953 34.7486 42.5094 34.903 42.3502C35.0623 42.1909 35.2457 42.0654 35.4533 41.9737C35.6657 41.882 35.8925 41.8361 36.1338 41.8361C36.4379 41.8361 36.7106 41.9061 36.952 42.0461C37.1981 42.1861 37.3936 42.3719 37.5384 42.6036C37.6832 42.8352 37.7556 43.0886 37.7556 43.3638C37.7556 43.6775 37.688 43.9671 37.5529 44.2326C37.4226 44.498 37.2247 44.7104 36.9592 44.8697C36.6986 45.0241 36.3703 45.1014 35.9746 45.1014ZM36.1121 44.7611C36.199 44.7611 36.2738 44.7442 36.3366 44.7104C36.3993 44.6718 36.4524 44.6187 36.4958 44.5511C36.5538 44.4546 36.5948 44.3219 36.6189 44.1529C36.6431 43.984 36.6551 43.7789 36.6551 43.5375C36.6551 43.2672 36.6286 43.0307 36.5755 42.828C36.5224 42.6253 36.4476 42.466 36.351 42.3502C36.2593 42.2343 36.1507 42.1764 36.0252 42.1764C35.9625 42.1764 35.9046 42.1885 35.8515 42.2126C35.7984 42.2319 35.7525 42.2609 35.7139 42.2995C35.6319 42.3864 35.5739 42.5215 35.5402 42.7049C35.5112 42.8835 35.4967 43.1128 35.4967 43.3927C35.4967 43.6196 35.5233 43.8392 35.5764 44.0516C35.6295 44.2591 35.7019 44.4305 35.7936 44.5656C35.8901 44.6959 35.9963 44.7611 36.1121 44.7611ZM42.2416 45.1014C42.0919 45.1014 41.9568 45.0893 41.8361 45.0652C41.7155 45.041 41.6069 45.0145 41.5103 44.9855C41.4428 44.9662 41.38 44.9517 41.3221 44.9421C41.269 44.9276 41.2207 44.9204 41.1773 44.9204C41.129 44.9204 41.0808 44.93 41.0325 44.9493C40.9842 44.9638 40.9408 44.9855 40.9022 45.0145C40.8539 45.0483 40.8153 45.0652 40.7863 45.0652C40.7381 45.0652 40.7019 45.0555 40.6777 45.0362C40.6584 45.0169 40.6488 44.9952 40.6488 44.971C40.6488 44.9276 40.6632 44.8407 40.6922 44.7104C40.7212 44.5801 40.7332 44.4111 40.7284 44.2036L40.6922 41.047C40.6922 40.9166 40.6777 40.8032 40.6488 40.7067C40.6198 40.6053 40.545 40.545 40.4243 40.5257C40.4002 40.5209 40.3785 40.5088 40.3592 40.4895C40.3447 40.4702 40.3374 40.4436 40.3374 40.4098C40.3374 40.3809 40.3447 40.3567 40.3592 40.3374C40.3736 40.3181 40.393 40.3061 40.4171 40.3012C40.5329 40.2771 40.6632 40.2433 40.808 40.1999C40.9577 40.1516 41.1025 40.1009 41.2424 40.0478C41.3824 39.9947 41.4934 39.9537 41.5755 39.9248C41.6238 39.9055 41.66 39.8958 41.6841 39.8958C41.7179 39.8958 41.7396 39.9055 41.7492 39.9248C41.7637 39.9441 41.771 39.9658 41.771 39.9899C41.771 40.0237 41.7637 40.0816 41.7492 40.1637C41.7396 40.2409 41.7348 40.3133 41.7348 40.3809L41.7275 41.9447C41.7275 42.0026 41.7324 42.0509 41.742 42.0895C41.7565 42.1233 41.7734 42.1402 41.7927 42.1402C41.9423 42.0437 42.0944 41.9713 42.2488 41.923C42.4033 41.8699 42.5505 41.8434 42.6904 41.8434C42.9463 41.8434 43.1755 41.9109 43.3782 42.0461C43.581 42.1764 43.7402 42.355 43.8561 42.5818C43.9768 42.8087 44.0371 43.0669 44.0371 43.3565C44.0371 43.6992 43.9599 44.0033 43.8054 44.2688C43.6558 44.5294 43.4458 44.7345 43.1755 44.8842C42.9101 45.029 42.5987 45.1014 42.2416 45.1014ZM42.3574 44.7756C42.4781 44.7756 42.5794 44.7201 42.6615 44.609C42.7435 44.4932 42.8063 44.3436 42.8497 44.1602C42.898 43.9719 42.9221 43.7692 42.9221 43.552C42.9221 43.3589 42.898 43.1635 42.8497 42.9656C42.8063 42.7677 42.7339 42.6036 42.6325 42.4732C42.536 42.3381 42.4081 42.2705 42.2488 42.2705C42.1861 42.2705 42.0992 42.2802 41.9882 42.2995C41.882 42.3188 41.7951 42.3526 41.7275 42.4008V43.9719C41.7275 44.1264 41.7565 44.2663 41.8144 44.3918C41.8772 44.5125 41.9568 44.6066 42.0533 44.6742C42.1499 44.7418 42.2512 44.7756 42.3574 44.7756ZM47.6777 45.1014C47.5378 45.1014 47.4099 45.07 47.294 45.0072C47.1782 44.9493 47.0865 44.8697 47.0189 44.7683C46.9513 44.6621 46.9175 44.5463 46.9175 44.4208C46.9175 44.2519 46.9706 44.1095 47.0768 43.9936C47.1878 43.8778 47.3471 43.774 47.5547 43.6823L48.1773 43.4072C48.2738 43.3638 48.3342 43.3251 48.3583 43.2914C48.3824 43.2527 48.3945 43.1876 48.3945 43.0959L48.4017 42.6977C48.4066 42.5577 48.3848 42.4515 48.3366 42.3791C48.2883 42.3019 48.2135 42.2633 48.1121 42.2633C48.0542 42.2633 47.9939 42.2778 47.9311 42.3067C47.8684 42.3309 47.8225 42.3598 47.7936 42.3936C47.7791 42.4129 47.7694 42.4346 47.7646 42.4588C47.7598 42.4829 47.7574 42.507 47.7574 42.5312C47.7574 42.5601 47.7598 42.5987 47.7646 42.647C47.7694 42.6904 47.7719 42.7266 47.7719 42.7556C47.7719 42.7894 47.7308 42.8304 47.6488 42.8787C47.5667 42.9221 47.4726 42.9631 47.3664 43.0018C47.2602 43.0355 47.1685 43.0524 47.0913 43.0524C47.0527 43.0524 47.0189 43.038 46.9899 43.009C46.9658 42.9752 46.9537 42.9342 46.9537 42.8859C46.9537 42.8087 46.9803 42.7339 47.0334 42.6615C47.0865 42.5891 47.1758 42.5022 47.3013 42.4008C47.4316 42.2947 47.574 42.2005 47.7284 42.1185C47.8829 42.0364 48.0349 41.9713 48.1845 41.923C48.3342 41.8699 48.4621 41.8434 48.5683 41.8434C48.8434 41.8434 49.063 41.9327 49.2271 42.1112C49.3912 42.285 49.4684 42.5191 49.4588 42.8135L49.4226 44.2181C49.4177 44.3291 49.4346 44.4256 49.4733 44.5077C49.5167 44.5849 49.5698 44.6235 49.6325 44.6235C49.7194 44.6235 49.7966 44.5921 49.8642 44.5294C49.8787 44.5149 49.8932 44.5077 49.9077 44.5077C49.9318 44.5077 49.9511 44.5173 49.9656 44.5366C49.9849 44.5511 49.9945 44.5704 49.9945 44.5946C49.9945 44.6525 49.9463 44.7297 49.8497 44.8262C49.758 44.9179 49.6591 44.9855 49.5529 45.029C49.4467 45.0772 49.3357 45.1014 49.2199 45.1014C48.9399 45.1014 48.7058 44.9614 48.5176 44.6814H48.5031C48.3438 44.8311 48.2014 44.9373 48.0759 45C47.9504 45.0676 47.8177 45.1014 47.6777 45.1014ZM48.1266 44.6018C48.1701 44.6018 48.2063 44.5946 48.2352 44.5801C48.2642 44.5656 48.2907 44.5415 48.3149 44.5077C48.3293 44.4884 48.339 44.4642 48.3438 44.4353C48.3535 44.4063 48.3583 44.3749 48.3583 44.3412L48.38 43.7837C48.38 43.7402 48.3728 43.7137 48.3583 43.704C48.3438 43.6896 48.3269 43.6823 48.3076 43.6823C48.298 43.6823 48.2859 43.6847 48.2714 43.6896C48.2618 43.6896 48.2497 43.6944 48.2352 43.704C48.1194 43.7668 48.0301 43.8319 47.9673 43.8995C47.9094 43.9623 47.8805 44.0781 47.8805 44.247C47.8805 44.387 47.907 44.4811 47.9601 44.5294C48.018 44.5777 48.0735 44.6018 48.1266 44.6018ZM52.7477 45.0217C52.6994 45.0217 52.6632 45.0121 52.6391 44.9928C52.6149 44.9735 52.6029 44.9469 52.6029 44.9131C52.6029 44.8745 52.6173 44.8455 52.6463 44.8262C52.6753 44.8021 52.7163 44.7804 52.7694 44.7611C52.8418 44.7369 52.9045 44.7128 52.9576 44.6887C53.0107 44.6597 53.0373 44.5921 53.0373 44.486V41.047C53.0373 40.9166 53.0204 40.8032 52.9866 40.7067C52.9576 40.6101 52.8828 40.5498 52.7621 40.5257C52.709 40.516 52.6825 40.4774 52.6825 40.4098C52.6825 40.3471 52.7066 40.3109 52.7549 40.3012C52.8756 40.2771 53.0131 40.2409 53.1676 40.1926C53.3269 40.1395 53.4765 40.0865 53.6165 40.0334C53.7613 39.9803 53.8699 39.9417 53.9423 39.9175C53.9857 39.903 54.0195 39.8958 54.0436 39.8958C54.0774 39.8958 54.0991 39.9055 54.1088 39.9248C54.1184 39.9441 54.1233 39.9658 54.1233 39.9899C54.1233 40.0237 54.1184 40.0816 54.1088 40.1637C54.0991 40.2409 54.0919 40.3133 54.0871 40.3809V44.4715C54.0871 44.5777 54.1136 44.6452 54.1667 44.6742C54.2198 44.6983 54.2825 44.7225 54.3549 44.7466C54.408 44.7659 54.4491 44.7876 54.478 44.8118C54.507 44.8311 54.5215 44.86 54.5215 44.8986C54.5215 44.9324 54.5094 44.959 54.4853 44.9783C54.4611 44.9976 54.4249 45.0072 54.3767 45.0072C54.2801 45.0072 54.1836 45.0048 54.0871 45C53.9905 44.9952 53.8964 44.9928 53.8047 44.9928C53.713 44.9879 53.6237 44.9855 53.5368 44.9855C53.4548 44.9855 53.3703 44.9879 53.2834 44.9928C53.2014 44.9976 53.1145 45.0024 53.0228 45.0072C52.9359 45.0169 52.8442 45.0217 52.7477 45.0217ZM66.4171 45.1376C66.3495 45.1376 66.2433 45.0989 66.0985 45.0217C65.9585 44.9493 65.8089 44.8166 65.6496 44.6235C65.5145 44.4787 65.3793 44.3363 65.2442 44.1964C65.1139 44.0516 64.9811 43.9092 64.846 43.7692C64.7108 43.6244 64.5757 43.482 64.4405 43.342C64.3054 43.1972 64.1702 43.0549 64.0351 42.9149C63.9048 42.7749 63.772 42.6349 63.6369 42.495C63.5018 42.3502 63.3666 42.2078 63.2315 42.0678C63.1011 41.923 62.9684 41.7782 62.8333 41.6334C62.8284 41.6237 62.8164 41.6093 62.7971 41.59C62.7778 41.5707 62.7633 41.561 62.7536 41.561C62.7343 41.561 62.7198 41.5779 62.7102 41.6117C62.7054 41.6455 62.7029 41.6744 62.7029 41.6986C62.7029 41.9158 62.7054 42.174 62.7102 42.4732C62.7198 42.7725 62.7271 43.0742 62.7319 43.3782C62.7416 43.6775 62.7464 43.9454 62.7464 44.1819C62.7464 44.346 62.7971 44.4715 62.8984 44.5584C63.0046 44.6404 63.1542 44.7056 63.3473 44.7538C63.3907 44.7635 63.4342 44.7804 63.4776 44.8045C63.5211 44.8238 63.5428 44.8576 63.5428 44.9059C63.5428 44.9397 63.5235 44.9662 63.4849 44.9855C63.4462 45.0048 63.4076 45.0145 63.369 45.0145C63.2387 45.0145 63.1301 45.0121 63.0432 45.0072C62.9563 45.0024 62.8743 45 62.7971 45C62.7247 44.9952 62.6378 44.9928 62.5364 44.9928C62.4254 44.9928 62.3168 44.9952 62.2106 45C62.1093 45.0048 62.0248 45.0097 61.9572 45.0145C61.8945 45.0193 61.8631 45.0217 61.8631 45.0217C61.8341 45.0217 61.7979 45.0121 61.7545 44.9928C61.7159 44.9735 61.6966 44.9469 61.6966 44.9131C61.6966 44.8697 61.7135 44.8383 61.7473 44.819C61.7859 44.7949 61.8269 44.7731 61.8703 44.7538C61.9814 44.7104 62.0658 44.638 62.1237 44.5366C62.1865 44.4353 62.2227 44.3122 62.2323 44.1674C62.2516 43.9888 62.271 43.7523 62.2903 43.4579C62.3144 43.1635 62.3361 42.8328 62.3554 42.466C62.3747 42.0992 62.3844 41.7179 62.3844 41.3221C62.3844 41.0711 62.3216 40.8901 62.1961 40.7791C62.0706 40.6681 61.9186 40.5788 61.74 40.5112C61.6966 40.5015 61.6531 40.4847 61.6097 40.4605C61.5663 40.4316 61.5445 40.3954 61.5445 40.3519C61.5445 40.3085 61.5614 40.2795 61.5952 40.265C61.6338 40.2457 61.6797 40.2361 61.7328 40.2361C61.81 40.2361 61.9041 40.2385 62.0151 40.2433C62.131 40.2481 62.2541 40.253 62.3844 40.2578C62.5195 40.2578 62.6571 40.2602 62.7971 40.265C62.937 40.2699 63.0722 40.2723 63.2025 40.2723C63.2411 40.2723 63.2701 40.2795 63.2894 40.294C63.3135 40.3037 63.3328 40.3205 63.3473 40.3447C63.4728 40.4847 63.5983 40.627 63.7238 40.7718C63.8541 40.9118 63.982 41.0518 64.1075 41.1918C64.2378 41.3317 64.3657 41.4717 64.4912 41.6117C64.6215 41.7517 64.7494 41.894 64.8749 42.0388C65.0004 42.1788 65.1259 42.3188 65.2514 42.4588C65.3817 42.5987 65.5096 42.7411 65.6351 42.8859C65.7655 43.0259 65.8934 43.1659 66.0189 43.3058C66.0333 43.3251 66.0502 43.3445 66.0695 43.3638C66.0888 43.3831 66.1057 43.3927 66.1202 43.3927C66.1588 43.3927 66.1781 43.3589 66.1781 43.2914C66.1781 43.1224 66.1781 42.939 66.1781 42.7411C66.1781 42.5384 66.1781 42.3333 66.1781 42.1257C66.1781 41.9133 66.1757 41.7106 66.1709 41.5176C66.1709 41.3197 66.1661 41.1459 66.1564 40.9963C66.1516 40.8563 66.1009 40.7549 66.0044 40.6922C65.9127 40.6295 65.7751 40.5739 65.5917 40.5257C65.5483 40.516 65.5096 40.5015 65.4759 40.4822C65.4421 40.4581 65.4252 40.4219 65.4252 40.3736C65.4252 40.3399 65.4421 40.3133 65.4759 40.294C65.5096 40.2747 65.5434 40.265 65.5772 40.265C65.7075 40.265 65.8137 40.2675 65.8958 40.2723C65.9778 40.2723 66.0526 40.2747 66.1202 40.2795C66.1878 40.2795 66.2626 40.2795 66.3447 40.2795C66.4412 40.2795 66.5232 40.2795 66.5908 40.2795C66.6584 40.2747 66.7308 40.2699 66.808 40.265C66.8901 40.2602 66.9914 40.2578 67.1121 40.2578C67.1652 40.2578 67.2062 40.2675 67.2352 40.2868C67.269 40.3061 67.2859 40.3326 67.2859 40.3664C67.2859 40.4436 67.2255 40.4943 67.1049 40.5184C66.9408 40.5522 66.8201 40.6005 66.7429 40.6632C66.6656 40.726 66.627 40.8298 66.627 40.9746C66.627 41.1821 66.6246 41.3897 66.6198 41.5972C66.615 41.7999 66.6077 42.0002 66.5981 42.1981C66.5884 42.396 66.5788 42.5891 66.5691 42.7773C66.5594 42.9607 66.5522 43.1369 66.5474 43.3058C66.5426 43.4748 66.5401 43.6292 66.5401 43.7692C66.5401 43.8802 66.5474 44.0081 66.5619 44.1529C66.5763 44.2929 66.5908 44.4232 66.6053 44.5439C66.6198 44.6597 66.627 44.7394 66.627 44.7828C66.627 44.9131 66.6077 45.0048 66.5691 45.0579C66.5353 45.111 66.4846 45.1376 66.4171 45.1376ZM71.2042 45.1014C70.9435 45.1014 70.7094 45.0314 70.5019 44.8914C70.2943 44.7514 70.1302 44.5632 70.0096 44.3267C69.8889 44.0853 69.8286 43.8151 69.8286 43.5158C69.8286 43.2069 69.901 42.9269 70.0458 42.676C70.1906 42.4201 70.386 42.2174 70.6322 42.0678C70.8784 41.9182 71.1511 41.8434 71.4503 41.8434C71.6579 41.8434 71.8461 41.8892 72.015 41.9809C72.184 42.0726 72.3191 42.1957 72.4205 42.3502C72.5218 42.4998 72.5725 42.6711 72.5725 42.8642C72.5725 43.0524 72.4977 43.1466 72.3481 43.1466H70.9146C70.847 43.1466 70.7963 43.1659 70.7625 43.2045C70.7336 43.2431 70.7191 43.3083 70.7191 43.4C70.7191 43.5737 70.7577 43.733 70.8349 43.8778C70.9122 44.0178 71.0183 44.1288 71.1535 44.2108C71.2886 44.2929 71.4455 44.3339 71.6241 44.3339C71.7641 44.3339 71.892 44.3074 72.0078 44.2543C72.1285 44.2012 72.2491 44.1288 72.3698 44.0371C72.3843 44.0274 72.4012 44.0178 72.4205 44.0081C72.4398 43.9936 72.4567 43.9864 72.4712 43.9864C72.5243 43.9864 72.5508 44.0178 72.5508 44.0805C72.5508 44.124 72.5363 44.1891 72.5074 44.276C72.4639 44.4063 72.3843 44.5366 72.2684 44.667C72.1526 44.7925 72.003 44.8962 71.8196 44.9783C71.641 45.0603 71.4358 45.1014 71.2042 45.1014ZM70.9146 42.828H71.2983C71.4383 42.828 71.53 42.8256 71.5734 42.8208C71.6217 42.8159 71.6651 42.8063 71.7037 42.7918C71.7279 42.7821 71.7472 42.7556 71.7616 42.7122C71.7761 42.6687 71.7834 42.6229 71.7834 42.5746C71.7834 42.4491 71.7423 42.3477 71.6603 42.2705C71.5831 42.1885 71.4817 42.1474 71.3562 42.1474C71.2597 42.1474 71.168 42.1764 71.0811 42.2343C70.999 42.2874 70.9315 42.3574 70.8784 42.4443C70.8253 42.5312 70.8011 42.6229 70.806 42.7194C70.806 42.7918 70.8422 42.828 70.9146 42.828ZM76.889 45.2317C76.8649 45.2317 76.8384 45.2244 76.8094 45.21C76.7853 45.2003 76.7684 45.181 76.7587 45.152L75.7017 42.5818C75.6582 42.4708 75.6076 42.3791 75.5496 42.3067C75.4965 42.2295 75.4241 42.174 75.3324 42.1402C75.2842 42.1209 75.2504 42.1016 75.2311 42.0823C75.2118 42.0581 75.2021 42.0244 75.2021 41.9809C75.2021 41.9423 75.2238 41.9182 75.2673 41.9085C75.3107 41.8989 75.3493 41.894 75.3831 41.894C75.5038 41.894 75.5979 41.8989 75.6655 41.9085C75.7379 41.9133 75.8055 41.9206 75.8682 41.9302C75.9358 41.9351 76.0227 41.9375 76.1288 41.9375C76.235 41.9375 76.3219 41.9351 76.3895 41.9302C76.4619 41.9206 76.5343 41.9133 76.6067 41.9085C76.6839 41.8989 76.7804 41.894 76.8963 41.894C76.9301 41.894 76.9663 41.9013 77.0049 41.9158C77.0483 41.9302 77.07 41.9568 77.07 41.9954C77.07 42.0388 77.0531 42.0678 77.0194 42.0823C76.9856 42.0968 76.9494 42.1137 76.9108 42.133C76.8577 42.1523 76.8191 42.1836 76.7949 42.2271C76.7708 42.2657 76.7587 42.3284 76.7587 42.4153C76.7587 42.507 76.7756 42.5987 76.8094 42.6904L77.2004 43.7475C77.2004 43.7523 77.2052 43.7547 77.2148 43.7547C77.2245 43.7547 77.2293 43.7523 77.2293 43.7475L77.7072 42.618C77.7168 42.5939 77.7241 42.5674 77.7289 42.5384C77.7385 42.5046 77.7434 42.4708 77.7434 42.437C77.7434 42.3936 77.7192 42.3429 77.671 42.285C77.6275 42.2271 77.5648 42.1812 77.4827 42.1474C77.4345 42.1281 77.4007 42.1088 77.3814 42.0895C77.3621 42.0654 77.3524 42.0316 77.3524 41.9882C77.3524 41.9495 77.3741 41.9254 77.4176 41.9158C77.4658 41.9061 77.5117 41.9013 77.5551 41.9013C77.6854 41.9013 77.8109 41.9061 77.9316 41.9158C78.0571 41.9254 78.1512 41.9302 78.214 41.9302C78.3395 41.9302 78.4577 41.9254 78.5687 41.9158C78.6797 41.9061 78.8101 41.9013 78.9597 41.9013C78.9935 41.9013 79.0297 41.9085 79.0683 41.923C79.1117 41.9375 79.1334 41.964 79.1334 42.0026C79.1334 42.0461 79.1165 42.075 79.0828 42.0895C79.049 42.104 79.0128 42.1209 78.9742 42.1402C78.9211 42.1595 78.88 42.1861 78.8511 42.2198C78.8221 42.2536 78.8076 42.3043 78.8076 42.3719C78.8076 42.4346 78.8149 42.495 78.8294 42.5529C78.8438 42.606 78.8583 42.6518 78.8728 42.6904L79.2782 43.762C79.2782 43.7668 79.2831 43.7692 79.2927 43.7692C79.3024 43.7692 79.3072 43.7668 79.3072 43.762L79.6764 42.7773C79.6957 42.7242 79.7102 42.6735 79.7199 42.6253C79.7295 42.5722 79.7319 42.5215 79.7271 42.4732C79.7271 42.4008 79.7102 42.3357 79.6764 42.2778C79.6427 42.2198 79.592 42.1788 79.5244 42.1547C79.4858 42.1402 79.4496 42.1257 79.4158 42.1112C79.382 42.0919 79.3651 42.0606 79.3651 42.0171C79.3651 41.9785 79.3844 41.952 79.423 41.9375C79.4665 41.923 79.5051 41.9158 79.5389 41.9158C79.6837 41.9206 79.785 41.9254 79.843 41.9302C79.9057 41.9302 79.9685 41.9302 80.0312 41.9302C80.0698 41.9302 80.106 41.9302 80.1398 41.9302C80.1784 41.9302 80.2267 41.9302 80.2846 41.9302C80.3425 41.9254 80.4173 41.9206 80.509 41.9158C80.5428 41.9158 80.5814 41.9206 80.6249 41.9302C80.6683 41.9399 80.69 41.964 80.69 42.0026C80.69 42.0461 80.6804 42.0799 80.6611 42.104C80.6418 42.1233 80.608 42.1426 80.5597 42.1619C80.468 42.1957 80.386 42.2512 80.3136 42.3284C80.2412 42.4008 80.1832 42.4925 80.1398 42.6036L79.1117 45.152C79.0924 45.1955 79.049 45.2172 78.9814 45.2172C78.9235 45.2172 78.8825 45.1955 78.8583 45.152L77.9171 43.0307C77.9171 43.0259 77.9123 43.0235 77.9026 43.0235C77.893 43.0235 77.8882 43.0259 77.8882 43.0307L77.0266 45.152C77.0025 45.2051 76.9566 45.2317 76.889 45.2317ZM84.4102 45.1014C84.2461 45.1014 84.0868 45.0821 83.9324 45.0434C83.7827 45.0097 83.6428 44.9493 83.5125 44.8624C83.4642 44.7852 83.4304 44.667 83.4111 44.5077C83.3918 44.3436 83.3845 44.1674 83.3894 43.9792C83.3894 43.9164 83.4401 43.885 83.5414 43.885C83.5849 43.885 83.6211 43.8995 83.65 43.9285C83.6838 43.9574 83.7055 43.984 83.7152 44.0081C83.8117 44.2012 83.9179 44.3749 84.0337 44.5294C84.1496 44.679 84.2968 44.7538 84.4754 44.7538C84.6009 44.7538 84.6926 44.7152 84.7505 44.638C84.8132 44.5608 84.8446 44.4763 84.8446 44.3846C84.8446 44.2591 84.7939 44.1553 84.6926 44.0733C84.5912 43.9912 84.4802 43.9212 84.3595 43.8633C84.2244 43.7957 84.0917 43.7185 83.9613 43.6316C83.831 43.5399 83.7224 43.4265 83.6355 43.2914C83.5487 43.1562 83.5052 42.9921 83.5052 42.799C83.5052 42.6011 83.5583 42.4322 83.6645 42.2922C83.7755 42.1474 83.9227 42.0364 84.1061 41.9592C84.2895 41.8771 84.4899 41.8361 84.7071 41.8361C84.8712 41.8361 85.0232 41.8554 85.1632 41.894C85.308 41.9278 85.4069 41.9616 85.46 41.9954C85.4986 42.0437 85.5276 42.1378 85.5469 42.2778C85.571 42.4129 85.5831 42.5674 85.5831 42.7411C85.5831 42.7942 85.5348 42.8208 85.4383 42.8208C85.4045 42.8208 85.3683 42.8087 85.3297 42.7846C85.2911 42.7556 85.2669 42.7291 85.2573 42.7049C85.1945 42.5119 85.1125 42.3671 85.0111 42.2705C84.9146 42.174 84.8084 42.1257 84.6926 42.1257C84.5864 42.1257 84.4899 42.1595 84.403 42.2271C84.3209 42.2947 84.2799 42.3839 84.2799 42.495C84.2799 42.5915 84.3282 42.6808 84.4247 42.7628C84.5261 42.8401 84.6419 42.9125 84.7722 42.98C85.0908 43.1441 85.3176 43.3034 85.4528 43.4579C85.5879 43.6123 85.6555 43.8199 85.6555 44.0805C85.6555 44.4039 85.5517 44.6549 85.3442 44.8335C85.1366 45.0121 84.8253 45.1014 84.4102 45.1014ZM97.6325 45.1376C97.5649 45.1376 97.4587 45.0989 97.3139 45.0217C97.174 44.9493 97.0243 44.8166 96.865 44.6235C96.7299 44.4787 96.5948 44.3363 96.4596 44.1964C96.3293 44.0516 96.1966 43.9092 96.0614 43.7692C95.9263 43.6244 95.7911 43.482 95.656 43.342C95.5208 43.1972 95.3857 43.0549 95.2505 42.9149C95.1202 42.7749 94.9875 42.6349 94.8523 42.495C94.7172 42.3502 94.582 42.2078 94.4469 42.0678C94.3166 41.923 94.1838 41.7782 94.0487 41.6334C94.0439 41.6237 94.0318 41.6093 94.0125 41.59C93.9932 41.5707 93.9787 41.561 93.969 41.561C93.9497 41.561 93.9353 41.5779 93.9256 41.6117C93.9208 41.6455 93.9184 41.6744 93.9184 41.6986C93.9184 41.9158 93.9208 42.174 93.9256 42.4732C93.9353 42.7725 93.9425 43.0742 93.9473 43.3782C93.957 43.6775 93.9618 43.9454 93.9618 44.1819C93.9618 44.346 94.0125 44.4715 94.1138 44.5584C94.22 44.6404 94.3697 44.7056 94.5627 44.7538C94.6062 44.7635 94.6496 44.7804 94.693 44.8045C94.7365 44.8238 94.7582 44.8576 94.7582 44.9059C94.7582 44.9397 94.7389 44.9662 94.7003 44.9855C94.6617 45.0048 94.6231 45.0145 94.5844 45.0145C94.4541 45.0145 94.3455 45.0121 94.2586 45.0072C94.1718 45.0024 94.0897 45 94.0125 45C93.9401 44.9952 93.8532 44.9928 93.7518 44.9928C93.6408 44.9928 93.5322 44.9952 93.426 45C93.3247 45.0048 93.2402 45.0097 93.1726 45.0145C93.1099 45.0193 93.0785 45.0217 93.0785 45.0217C93.0496 45.0217 93.0134 45.0121 92.9699 44.9928C92.9313 44.9735 92.912 44.9469 92.912 44.9131C92.912 44.8697 92.9289 44.8383 92.9627 44.819C93.0013 44.7949 93.0423 44.7731 93.0858 44.7538C93.1968 44.7104 93.2812 44.638 93.3392 44.5366C93.4019 44.4353 93.4381 44.3122 93.4478 44.1674C93.4671 43.9888 93.4864 43.7523 93.5057 43.4579C93.5298 43.1635 93.5515 42.8328 93.5708 42.466C93.5902 42.0992 93.5998 41.7179 93.5998 41.3221C93.5998 41.0711 93.5371 40.8901 93.4116 40.7791C93.2861 40.6681 93.134 40.5788 92.9554 40.5112C92.912 40.5015 92.8686 40.4847 92.8251 40.4605C92.7817 40.4316 92.76 40.3954 92.76 40.3519C92.76 40.3085 92.7769 40.2795 92.8106 40.265C92.8493 40.2457 92.8951 40.2361 92.9482 40.2361C93.0254 40.2361 93.1196 40.2385 93.2306 40.2433C93.3464 40.2481 93.4695 40.253 93.5998 40.2578C93.735 40.2578 93.8725 40.2602 94.0125 40.265C94.1525 40.2699 94.2876 40.2723 94.4179 40.2723C94.4565 40.2723 94.4855 40.2795 94.5048 40.294C94.5289 40.3037 94.5482 40.3205 94.5627 40.3447C94.6882 40.4847 94.8137 40.627 94.9392 40.7718C95.0695 40.9118 95.1974 41.0518 95.3229 41.1918C95.4532 41.3317 95.5812 41.4717 95.7066 41.6117C95.837 41.7517 95.9649 41.894 96.0904 42.0388C96.2159 42.1788 96.3414 42.3188 96.4668 42.4588C96.5972 42.5987 96.7251 42.7411 96.8506 42.8859C96.9809 43.0259 97.1088 43.1659 97.2343 43.3058C97.2488 43.3251 97.2657 43.3445 97.285 43.3638C97.3043 43.3831 97.3212 43.3927 97.3356 43.3927C97.3743 43.3927 97.3936 43.3589 97.3936 43.2914C97.3936 43.1224 97.3936 42.939 97.3936 42.7411C97.3936 42.5384 97.3936 42.3333 97.3936 42.1257C97.3936 41.9133 97.3912 41.7106 97.3863 41.5176C97.3863 41.3197 97.3815 41.1459 97.3718 40.9963C97.367 40.8563 97.3163 40.7549 97.2198 40.6922C97.1281 40.6295 96.9905 40.5739 96.8071 40.5257C96.7637 40.516 96.7251 40.5015 96.6913 40.4822C96.6575 40.4581 96.6406 40.4219 96.6406 40.3736C96.6406 40.3399 96.6575 40.3133 96.6913 40.294C96.7251 40.2747 96.7589 40.265 96.7926 40.265C96.923 40.265 97.0292 40.2675 97.1112 40.2723C97.1933 40.2723 97.2681 40.2747 97.3356 40.2795C97.4032 40.2795 97.478 40.2795 97.5601 40.2795C97.6566 40.2795 97.7387 40.2795 97.8062 40.2795C97.8738 40.2747 97.9462 40.2699 98.0234 40.265C98.1055 40.2602 98.2069 40.2578 98.3275 40.2578C98.3806 40.2578 98.4216 40.2675 98.4506 40.2868C98.4844 40.3061 98.5013 40.3326 98.5013 40.3664C98.5013 40.4436 98.441 40.4943 98.3203 40.5184C98.1562 40.5522 98.0355 40.6005 97.9583 40.6632C97.8811 40.726 97.8424 40.8298 97.8424 40.9746C97.8424 41.1821 97.84 41.3897 97.8352 41.5972C97.8304 41.7999 97.8231 42.0002 97.8135 42.1981C97.8038 42.396 97.7942 42.5891 97.7845 42.7773C97.7749 42.9607 97.7676 43.1369 97.7628 43.3058C97.758 43.4748 97.7556 43.6292 97.7556 43.7692C97.7556 43.8802 97.7628 44.0081 97.7773 44.1529C97.7918 44.2929 97.8062 44.4232 97.8207 44.5439C97.8352 44.6597 97.8424 44.7394 97.8424 44.7828C97.8424 44.9131 97.8231 45.0048 97.7845 45.0579C97.7507 45.111 97.7001 45.1376 97.6325 45.1376ZM102.42 45.1014C102.159 45.1014 101.925 45.0314 101.717 44.8914C101.51 44.7514 101.346 44.5632 101.225 44.3267C101.104 44.0853 101.044 43.8151 101.044 43.5158C101.044 43.2069 101.116 42.9269 101.261 42.676C101.406 42.4201 101.601 42.2174 101.848 42.0678C102.094 41.9182 102.367 41.8434 102.666 41.8434C102.873 41.8434 103.062 41.8892 103.23 41.9809C103.399 42.0726 103.535 42.1957 103.636 42.3502C103.737 42.4998 103.788 42.6711 103.788 42.8642C103.788 43.0524 103.713 43.1466 103.564 43.1466H102.13C102.062 43.1466 102.012 43.1659 101.978 43.2045C101.949 43.2431 101.935 43.3083 101.935 43.4C101.935 43.5737 101.973 43.733 102.05 43.8778C102.128 44.0178 102.234 44.1288 102.369 44.2108C102.504 44.2929 102.661 44.3339 102.84 44.3339C102.979 44.3339 103.107 44.3074 103.223 44.2543C103.344 44.2012 103.465 44.1288 103.585 44.0371C103.6 44.0274 103.617 44.0178 103.636 44.0081C103.655 43.9936 103.672 43.9864 103.687 43.9864C103.74 43.9864 103.766 44.0178 103.766 44.0805C103.766 44.124 103.752 44.1891 103.723 44.276C103.679 44.4063 103.6 44.5366 103.484 44.667C103.368 44.7925 103.218 44.8962 103.035 44.9783C102.856 45.0603 102.651 45.1014 102.42 45.1014ZM102.13 42.828H102.514C102.654 42.828 102.745 42.8256 102.789 42.8208C102.837 42.8159 102.881 42.8063 102.919 42.7918C102.943 42.7821 102.963 42.7556 102.977 42.7122C102.992 42.6687 102.999 42.6229 102.999 42.5746C102.999 42.4491 102.958 42.3477 102.876 42.2705C102.798 42.1885 102.697 42.1474 102.572 42.1474C102.475 42.1474 102.383 42.1764 102.297 42.2343C102.214 42.2874 102.147 42.3574 102.094 42.4443C102.041 42.5312 102.017 42.6229 102.021 42.7194C102.021 42.7918 102.058 42.828 102.13 42.828ZM108.124 45.1014C107.786 45.1014 107.535 45.0193 107.371 44.8552C107.207 44.6911 107.125 44.4594 107.125 44.1602V42.495C107.125 42.4515 107.108 42.4201 107.074 42.4008C107.04 42.3815 106.982 42.3695 106.9 42.3646H106.791C106.758 42.3646 106.729 42.3357 106.705 42.2778C106.68 42.215 106.668 42.1595 106.668 42.1112C106.668 42.1016 106.671 42.0895 106.676 42.075C106.68 42.0606 106.693 42.0509 106.712 42.0461C106.833 42.0075 106.965 41.9399 107.11 41.8434C107.255 41.7468 107.395 41.6455 107.53 41.5393C107.665 41.4283 107.774 41.339 107.856 41.2714C107.894 41.2424 107.926 41.2183 107.95 41.199C107.979 41.1797 108.013 41.17 108.051 41.17C108.1 41.17 108.133 41.1797 108.153 41.199C108.172 41.2183 108.177 41.2617 108.167 41.3293L108.116 41.7782C108.112 41.8409 108.126 41.8844 108.16 41.9085C108.194 41.9278 108.239 41.9375 108.297 41.9375H109.166C109.176 41.9375 109.188 41.9544 109.202 41.9882C109.217 42.0219 109.224 42.0509 109.224 42.075C109.224 42.1523 109.214 42.2247 109.195 42.2922C109.176 42.355 109.154 42.3864 109.13 42.3864H108.464C108.358 42.3864 108.283 42.4008 108.239 42.4298C108.196 42.4588 108.174 42.5046 108.174 42.5674V43.9212C108.174 44.1481 108.215 44.317 108.297 44.428C108.384 44.5342 108.498 44.5873 108.638 44.5873C108.773 44.5873 108.872 44.5728 108.935 44.5439C108.997 44.5149 109.055 44.4908 109.108 44.4715C109.128 44.4618 109.144 44.457 109.159 44.457C109.183 44.457 109.202 44.4739 109.217 44.5077C109.231 44.5366 109.239 44.5728 109.239 44.6163C109.239 44.6452 109.186 44.7007 109.079 44.7828C108.973 44.86 108.836 44.9324 108.667 45C108.498 45.0676 108.317 45.1014 108.124 45.1014ZM113.551 45.2317C113.527 45.2317 113.501 45.2244 113.472 45.21C113.448 45.2003 113.431 45.181 113.421 45.152L112.364 42.5818C112.321 42.4708 112.27 42.3791 112.212 42.3067C112.159 42.2295 112.087 42.174 111.995 42.1402C111.947 42.1209 111.913 42.1016 111.893 42.0823C111.874 42.0581 111.865 42.0244 111.865 41.9809C111.865 41.9423 111.886 41.9182 111.93 41.9085C111.973 41.8989 112.012 41.894 112.046 41.894C112.166 41.894 112.26 41.8989 112.328 41.9085C112.4 41.9133 112.468 41.9206 112.531 41.9302C112.598 41.9351 112.685 41.9375 112.791 41.9375C112.897 41.9375 112.984 41.9351 113.052 41.9302C113.124 41.9206 113.197 41.9133 113.269 41.9085C113.346 41.8989 113.443 41.894 113.559 41.894C113.592 41.894 113.629 41.9013 113.667 41.9158C113.711 41.9302 113.732 41.9568 113.732 41.9954C113.732 42.0388 113.716 42.0678 113.682 42.0823C113.648 42.0968 113.612 42.1137 113.573 42.133C113.52 42.1523 113.481 42.1836 113.457 42.2271C113.433 42.2657 113.421 42.3284 113.421 42.4153C113.421 42.507 113.438 42.5987 113.472 42.6904L113.863 43.7475C113.863 43.7523 113.868 43.7547 113.877 43.7547C113.887 43.7547 113.892 43.7523 113.892 43.7475L114.37 42.618C114.379 42.5939 114.386 42.5674 114.391 42.5384C114.401 42.5046 114.406 42.4708 114.406 42.437C114.406 42.3936 114.382 42.3429 114.333 42.285C114.29 42.2271 114.227 42.1812 114.145 42.1474C114.097 42.1281 114.063 42.1088 114.044 42.0895C114.024 42.0654 114.015 42.0316 114.015 41.9882C114.015 41.9495 114.037 41.9254 114.08 41.9158C114.128 41.9061 114.174 41.9013 114.218 41.9013C114.348 41.9013 114.473 41.9061 114.594 41.9158C114.719 41.9254 114.814 41.9302 114.876 41.9302C115.002 41.9302 115.12 41.9254 115.231 41.9158C115.342 41.9061 115.472 41.9013 115.622 41.9013C115.656 41.9013 115.692 41.9085 115.731 41.923C115.774 41.9375 115.796 41.964 115.796 42.0026C115.796 42.0461 115.779 42.075 115.745 42.0895C115.711 42.104 115.675 42.1209 115.637 42.1402C115.583 42.1595 115.542 42.1861 115.513 42.2198C115.485 42.2536 115.47 42.3043 115.47 42.3719C115.47 42.4346 115.477 42.495 115.492 42.5529C115.506 42.606 115.521 42.6518 115.535 42.6904L115.941 43.762C115.941 43.7668 115.945 43.7692 115.955 43.7692C115.965 43.7692 115.97 43.7668 115.97 43.762L116.339 42.7773C116.358 42.7242 116.373 42.6735 116.382 42.6253C116.392 42.5722 116.394 42.5215 116.39 42.4732C116.39 42.4008 116.373 42.3357 116.339 42.2778C116.305 42.2198 116.254 42.1788 116.187 42.1547C116.148 42.1402 116.112 42.1257 116.078 42.1112C116.044 42.0919 116.028 42.0606 116.028 42.0171C116.028 41.9785 116.047 41.952 116.085 41.9375C116.129 41.923 116.167 41.9158 116.201 41.9158C116.346 41.9206 116.447 41.9254 116.505 41.9302C116.568 41.9302 116.631 41.9302 116.694 41.9302C116.732 41.9302 116.768 41.9302 116.802 41.9302C116.841 41.9302 116.889 41.9302 116.947 41.9302C117.005 41.9254 117.08 41.9206 117.171 41.9158C117.205 41.9158 117.244 41.9206 117.287 41.9302C117.331 41.9399 117.352 41.964 117.352 42.0026C117.352 42.0461 117.343 42.0799 117.323 42.104C117.304 42.1233 117.27 42.1426 117.222 42.1619C117.13 42.1957 117.048 42.2512 116.976 42.3284C116.904 42.4008 116.846 42.4925 116.802 42.6036L115.774 45.152C115.755 45.1955 115.711 45.2172 115.644 45.2172C115.586 45.2172 115.545 45.1955 115.521 45.152L114.58 43.0307C114.58 43.0259 114.575 43.0235 114.565 43.0235C114.555 43.0235 114.551 43.0259 114.551 43.0307L113.689 45.152C113.665 45.2051 113.619 45.2317 113.551 45.2317ZM121.523 45.1014C121.228 45.1014 120.963 45.0362 120.726 44.9059C120.49 44.7756 120.301 44.5946 120.161 44.3629C120.021 44.1312 119.951 43.8681 119.951 43.5737C119.951 43.3372 119.995 43.1152 120.082 42.9076C120.173 42.6953 120.297 42.5094 120.451 42.3502C120.61 42.1909 120.794 42.0654 121.001 41.9737C121.214 41.882 121.44 41.8361 121.682 41.8361C121.986 41.8361 122.259 41.9061 122.5 42.0461C122.746 42.1861 122.942 42.3719 123.086 42.6036C123.231 42.8352 123.304 43.0886 123.304 43.3638C123.304 43.6775 123.236 43.9671 123.101 44.2326C122.971 44.498 122.773 44.7104 122.507 44.8697C122.247 45.0241 121.918 45.1014 121.523 45.1014ZM121.66 44.7611C121.747 44.7611 121.822 44.7442 121.885 44.7104C121.947 44.6718 122 44.6187 122.044 44.5511C122.102 44.4546 122.143 44.3219 122.167 44.1529C122.191 43.984 122.203 43.7789 122.203 43.5375C122.203 43.2672 122.177 43.0307 122.123 42.828C122.07 42.6253 121.996 42.466 121.899 42.3502C121.807 42.2343 121.699 42.1764 121.573 42.1764C121.51 42.1764 121.453 42.1885 121.399 42.2126C121.346 42.2319 121.3 42.2609 121.262 42.2995C121.18 42.3864 121.122 42.5215 121.088 42.7049C121.059 42.8835 121.045 43.1128 121.045 43.3927C121.045 43.6196 121.071 43.8392 121.124 44.0516C121.177 44.2591 121.25 44.4305 121.342 44.5656C121.438 44.6959 121.544 44.7611 121.66 44.7611ZM126.278 45.0217C126.245 45.0217 126.211 45.0121 126.177 44.9928C126.148 44.9735 126.134 44.9469 126.134 44.9131C126.134 44.8745 126.148 44.8431 126.177 44.819C126.211 44.7949 126.252 44.7756 126.3 44.7611C126.411 44.7273 126.483 44.6935 126.517 44.6597C126.551 44.6211 126.568 44.5632 126.568 44.486V42.799C126.568 42.7025 126.556 42.6253 126.532 42.5674C126.508 42.5094 126.455 42.4684 126.372 42.4443C126.348 42.4346 126.324 42.4226 126.3 42.4081C126.281 42.3888 126.271 42.355 126.271 42.3067C126.271 42.2343 126.302 42.1909 126.365 42.1764C126.524 42.1378 126.701 42.0895 126.894 42.0316C127.092 41.9689 127.263 41.9037 127.408 41.8361C127.432 41.8216 127.463 41.8047 127.502 41.7854C127.541 41.7661 127.569 41.7565 127.589 41.7565C127.637 41.7565 127.661 41.7854 127.661 41.8434C127.661 41.8675 127.659 41.9182 127.654 41.9954C127.654 42.0726 127.652 42.1523 127.647 42.2343C127.642 42.3115 127.639 42.3743 127.639 42.4226C127.639 42.4708 127.649 42.495 127.668 42.495C127.741 42.3936 127.825 42.2922 127.922 42.1909C128.023 42.0895 128.132 42.0051 128.248 41.9375C128.368 41.8699 128.489 41.8361 128.61 41.8361C128.788 41.8361 128.914 41.8699 128.986 41.9375C129.058 42.0051 129.095 42.0919 129.095 42.1981C129.095 42.2753 129.073 42.3622 129.03 42.4588C128.986 42.5505 128.931 42.6301 128.863 42.6977C128.795 42.7653 128.723 42.799 128.646 42.799C128.598 42.799 128.547 42.787 128.494 42.7628C128.446 42.7387 128.395 42.7146 128.342 42.6904C128.293 42.6663 128.245 42.6446 128.197 42.6253C128.149 42.6011 128.105 42.5891 128.067 42.5891C127.941 42.5891 127.835 42.6373 127.748 42.7339C127.661 42.8256 127.618 43.0114 127.618 43.2914V44.4063C127.618 44.5125 127.647 44.5897 127.705 44.638C127.763 44.6863 127.859 44.7297 127.994 44.7683C128.047 44.7828 128.086 44.8021 128.11 44.8262C128.139 44.8455 128.153 44.8745 128.153 44.9131C128.153 44.9855 128.115 45.0217 128.038 45.0217C127.893 45.0217 127.734 45.0145 127.56 45C127.386 44.9903 127.236 44.9855 127.111 44.9855C127.029 44.9855 126.942 44.9879 126.85 44.9928C126.759 44.9976 126.664 45.0024 126.568 45.0072C126.471 45.0169 126.375 45.0217 126.278 45.0217ZM131.901 45.0217C131.805 45.0217 131.756 44.9855 131.756 44.9131C131.756 44.8745 131.771 44.8455 131.8 44.8262C131.829 44.8021 131.87 44.7804 131.923 44.7611C131.995 44.7369 132.058 44.7128 132.111 44.6887C132.164 44.6597 132.191 44.5921 132.191 44.486V41.047C132.191 40.9166 132.174 40.8032 132.14 40.7067C132.111 40.6101 132.036 40.5498 131.916 40.5257C131.863 40.516 131.836 40.4774 131.836 40.4098C131.836 40.3471 131.86 40.3109 131.908 40.3012C132.029 40.2771 132.167 40.2409 132.321 40.1926C132.476 40.1395 132.623 40.0865 132.763 40.0334C132.908 39.9803 133.016 39.9417 133.089 39.9175C133.132 39.903 133.166 39.8958 133.19 39.8958C133.224 39.8958 133.245 39.9055 133.255 39.9248C133.265 39.9441 133.27 39.9658 133.27 39.9899C133.27 40.0237 133.265 40.0816 133.255 40.1637C133.245 40.2409 133.238 40.3133 133.233 40.3809L133.241 43.161C133.241 43.2238 133.262 43.2552 133.306 43.2552C133.32 43.2552 133.335 43.2503 133.349 43.2407C133.369 43.231 133.383 43.2238 133.393 43.219C133.566 43.0645 133.723 42.9076 133.863 42.7484C134.008 42.5843 134.105 42.4636 134.153 42.3864C134.172 42.3574 134.187 42.3333 134.196 42.314C134.211 42.2898 134.218 42.2705 134.218 42.256C134.218 42.2319 134.199 42.2078 134.16 42.1836C134.121 42.1547 134.061 42.1354 133.979 42.1257C133.921 42.1161 133.892 42.0871 133.892 42.0388C133.892 41.9954 133.909 41.9689 133.943 41.9592C133.982 41.9447 134.018 41.9375 134.051 41.9375H134.406C134.493 41.9375 134.611 41.9351 134.761 41.9302C134.915 41.9206 135.065 41.9109 135.21 41.9013C135.36 41.8868 135.466 41.8771 135.528 41.8723C135.582 41.8723 135.608 41.9013 135.608 41.9592C135.608 41.9978 135.594 42.0316 135.565 42.0606C135.536 42.0847 135.495 42.1016 135.442 42.1112C135.36 42.1305 135.261 42.1643 135.145 42.2126C135.029 42.2609 134.908 42.3212 134.783 42.3936C134.691 42.4419 134.599 42.4974 134.508 42.5601C134.416 42.618 134.329 42.6784 134.247 42.7411C134.17 42.8039 134.1 42.8666 134.037 42.9294C134.013 42.9535 134.001 42.98 134.001 43.009C134.001 43.0283 134.006 43.0452 134.015 43.0597C134.03 43.0693 134.042 43.0814 134.051 43.0959C134.167 43.2455 134.274 43.3927 134.37 43.5375C134.467 43.6775 134.566 43.8151 134.667 43.9502C134.768 44.0853 134.882 44.2253 135.007 44.3701C135.089 44.4618 135.188 44.5463 135.304 44.6235C135.425 44.6959 135.524 44.7466 135.601 44.7756C135.639 44.79 135.68 44.8069 135.724 44.8262C135.772 44.8455 135.796 44.8745 135.796 44.9131C135.796 44.9855 135.743 45.0217 135.637 45.0217C135.323 45.0217 135.022 45.0169 134.732 45.0072C134.447 45.0024 134.184 45 133.943 45C133.846 45 133.798 44.9638 133.798 44.8914C133.798 44.8528 133.813 44.8238 133.842 44.8045C133.87 44.7804 133.912 44.7587 133.965 44.7394C134.003 44.7249 134.027 44.7104 134.037 44.6959C134.051 44.6766 134.061 44.6573 134.066 44.638C134.066 44.6139 134.056 44.5897 134.037 44.5656C134.023 44.5366 134.001 44.5029 133.972 44.4642L133.313 43.5013C133.303 43.4917 133.294 43.4868 133.284 43.4868C133.255 43.4965 133.241 43.5158 133.241 43.5448C133.241 43.6172 133.241 43.692 133.241 43.7692C133.241 43.8416 133.241 43.914 133.241 43.9864C133.241 44.0636 133.241 44.1481 133.241 44.2398C133.241 44.3267 133.241 44.4111 133.241 44.4932C133.241 44.5704 133.255 44.6283 133.284 44.667C133.318 44.7007 133.373 44.7297 133.451 44.7538C133.489 44.7683 133.523 44.7876 133.552 44.8118C133.581 44.8359 133.595 44.8673 133.595 44.9059C133.595 44.9397 133.583 44.9686 133.559 44.9928C133.54 45.0121 133.511 45.0217 133.472 45.0217C133.376 45.0217 133.284 45.0169 133.197 45.0072C133.11 45.0024 133.026 44.9976 132.944 44.9928C132.862 44.9879 132.777 44.9855 132.69 44.9855C132.608 44.9855 132.524 44.9879 132.437 44.9928C132.355 44.9976 132.268 45.0024 132.176 45.0072C132.089 45.0169 131.998 45.0217 131.901 45.0217Z" fill="white"/>
</g>
<defs>
<clipPath id="clip0_14_111">
<rect width="158.39" height="53.87" fill="white"/>
</clipPath>
</defs>
</svg>
