<svg width="199" height="54" viewBox="0 0 199 54" fill="none" xmlns="http://www.w3.org/2000/svg">
<rect x="0.882812" width="197.257" height="53.871" rx="8.77719" fill="#1D0C39"/>
<g clip-path="url(#clip0_1590_6726)">
<path d="M56.1862 24.9848L55.8972 26.4057H55.8249C55.4637 25.611 54.4522 24.5032 52.2126 24.5032C48.6002 24.5032 44.9155 27.2968 44.0967 31.7039C43.3983 35.5571 45.2527 38.9527 49.5394 38.9527C51.1048 38.9527 52.911 38.3507 53.8502 37.0261H53.9224L53.6575 38.4711H57.6552L60.1598 24.9848H56.1862ZM54.8857 31.7039C54.6208 33.0284 53.3685 35.1718 50.8639 35.1718C48.4075 35.1718 47.9018 33.0043 48.1185 31.752C48.4075 30.2107 49.7802 28.2841 52.1162 28.2841C54.4041 28.3082 55.1747 30.1144 54.8857 31.7039Z" fill="white"/>
<path d="M62.4265 24.9848H66.1833L65.9184 26.4057H65.9907C66.4723 25.7555 67.4116 24.5032 69.7235 24.5032L68.9769 28.5972C67.0744 28.6213 65.7017 29.0066 65.3405 31.0777L63.9677 38.4711H59.9219L62.4265 24.9848Z" fill="white"/>
<path d="M72.4412 19.7107H76.4871L74.5845 29.8736H74.6568L79.3288 24.9848H84.0731L77.9079 30.9091L81.4481 38.4711H76.8724L74.2715 31.9688H74.1992L73.0192 38.4711H68.9492L72.4412 19.7107Z" fill="white"/>
<path d="M90.5527 24.5032C86.4586 24.5032 82.8222 28.0192 82.1479 31.7761C81.4013 35.7738 84.0986 38.9286 87.9758 38.9286C89.3486 38.9286 90.7694 38.5192 92.0217 37.7004C93.2981 36.9298 94.4781 35.7738 95.3933 34.2566H91.2752C90.6008 34.955 89.8302 35.5089 88.5779 35.5089C87.0125 35.5089 85.8325 34.5697 85.9047 32.9562H96.0194C96.1398 32.6431 96.2121 32.4023 96.3084 31.8965C97.0791 27.7784 94.6708 24.5032 90.5527 24.5032ZM86.4586 30.2348C86.7717 29.4401 87.8795 27.9229 89.9747 27.9229C92.0699 27.9229 92.5756 29.4401 92.5756 30.2348H86.4586Z" fill="white"/>
<path d="M38.7514 19.7107L31.623 30.4034H31.5748V19.7107H28.131L15.5117 38.4711H20.4005L27.4808 27.7784H27.553V38.4711H31.0209L38.1012 27.7784H38.1734V38.4711H42.2193V19.7107H38.7514Z" fill="white"/>
<path d="M106.542 24.9848H103.989L104.736 20.9871H101.196L100.907 22.5284C100.594 24.2864 99.4858 24.8163 98.0168 24.9848H97.9927L97.3906 28.0433H99.3895L97.4629 38.4711H101.485L103.411 28.0433H105.988L106.542 24.9848Z" fill="white"/>
<path d="M168.964 33.3656C167.64 36.424 164.485 38.9286 160.848 38.9286C156.754 38.9286 154.226 35.7016 154.948 31.6798C155.695 27.7302 159.355 24.5032 163.401 24.5032C166.965 24.5032 169.422 26.8873 169.494 30.1867H165.4C165.135 29.2474 164.533 28.2841 162.823 28.2841C160.92 28.1878 159.355 29.7532 158.994 31.7039C158.633 33.6786 159.644 35.1477 161.571 35.1477C163.232 35.1477 164.244 34.1844 164.822 33.3415L168.964 33.3656ZM135.537 14.9183L127.687 19.7107H129.902L122.798 30.4034H122.726V19.7107H119.258L112.153 30.4034H112.081V19.7107H108.035V38.4711H111.551L118.656 27.7784H118.728V38.4711H122.196L134.767 19.7107H136.766L135.537 14.9183ZM143.196 38.4711H139.198L139.463 37.0261H139.391C138.451 38.3506 136.645 38.9527 135.08 38.9527C130.793 38.9527 128.939 35.5812 129.637 31.7039C130.432 27.2967 134.141 24.5032 137.753 24.5032C139.969 24.5032 141.004 25.5869 141.365 26.4057H141.438L141.727 24.9848H145.724L143.196 38.4711ZM136.404 35.1958C138.909 35.1958 140.161 33.0284 140.426 31.7279C140.715 30.1144 139.945 28.3082 137.657 28.3082C135.345 28.3082 133.948 30.2348 133.659 31.7761C133.442 33.0284 133.948 35.1958 136.404 35.1958ZM155.791 24.9848H153.262L154.009 20.9871H150.469L150.18 22.5284C149.867 24.2864 148.759 24.8162 147.29 24.9848H147.242L146.664 28.0433H148.662L146.736 38.4711H150.758L152.684 28.0433H155.261L155.791 24.9848ZM172.769 19.7107H176.791L175.563 26.4057H175.635C176.502 25.1534 177.658 24.5032 179.44 24.5032C180.716 24.5032 182.185 24.9848 182.86 26.0204C183.727 27.3449 183.63 28.525 183.173 30.9332L181.8 38.4711H177.778L179.127 31.1259C179.247 30.4756 179.633 28.2841 177.489 28.2841C175.226 28.2841 174.84 30.3071 174.72 30.9814L173.347 38.447H169.325L172.769 19.7107Z" fill="white"/>
</g>
<defs>
<clipPath id="clip0_1590_6726">
<rect width="168" height="24.0344" fill="white" transform="translate(15.5117 14.9183)"/>
</clipPath>
</defs>
</svg>
