<svg width="291" height="55" viewBox="0 0 291 55" fill="none" xmlns="http://www.w3.org/2000/svg">
<g clip-path="url(#clip0_1590_6767)">
<rect x="0.832031" y="0.871033" width="289.641" height="53.871" rx="8.77719" fill="#1D0C39"/>
<g clip-path="url(#clip1_1590_6767)">
<path d="M97.7347 16.9677V16.7236L95.8861 14.691H95.6646L93.8203 16.7236V16.9677L95.7754 19.1223L97.7347 16.9677Z" fill="white"/>
<path d="M133.629 46.4029L135.699 48.5576L137.654 46.2762L135.588 44.2483L133.629 46.4029Z" fill="white"/>
<path d="M140.059 44.2483L138.215 46.2762V46.525L140.059 48.5576H140.281L142.24 46.4029L140.281 44.2483H140.059Z" fill="white"/>
<path d="M258.818 44.2502L256.863 46.4048L258.933 48.6815C261.353 45.9072 261.591 46.8695 258.823 44.2455L258.818 44.2502Z" fill="white"/>
<path d="M154.485 38.4578C153.587 40.9035 150.094 43.0769 149.395 40.2416C148.991 38.5939 149.472 26.5393 149.285 23.4927C151.338 23.0984 152.13 24.1828 151.968 23.1219C151.772 21.8592 149.434 22.5164 149.285 22.2582C149.084 19.7092 149.642 11.992 149.059 10.1894C148.569 8.66853 146.456 7.26497 144.978 7.41987C146.367 12.1751 145.438 17.3293 145.707 22.2582C144.016 22.6102 143.726 21.6996 143.807 22.5023C143.935 23.8073 145.6 23.3003 145.707 23.4881V36.5426C144.361 33.1017 137.077 31.0645 136.315 28.1682C136.025 27.065 136.251 23.5115 137.49 23.1782C139.978 22.5164 139.791 27.3232 138.888 28.5343C138.457 29.1117 137.069 29.5342 138.832 29.4591C140.097 29.4074 142.704 28.4216 143.138 26.9336C144.906 20.8828 133.091 20.0801 132.405 26.3186C131.574 33.8857 143.304 33.482 142.022 39.1291C141.179 42.8375 133.725 42.5605 134.977 37.5283C135.357 35.998 137.069 35.8478 136.877 35.5568C134.177 35.308 130.399 36.0121 131.174 39.8661C130.011 41.5372 127.843 43.1144 127.485 39.8661C127.161 36.9369 127.728 24.7367 127.485 20.2819C123.179 20.9391 124.103 23.0515 123.571 25.2061C122.378 30.0317 117.246 32.9327 116.245 37.8288C115.376 36.0121 112.692 35.2704 110.933 35.5521C110.746 35.8384 111.785 35.7727 112.386 36.782C113.621 38.8521 112.965 42.2882 110.094 41.5231C107.53 40.8424 108.957 35.1578 108.586 32.9656C112.82 32.7684 117.552 33.4116 116.189 26.9289C114.626 19.4886 105.669 20.3336 105.009 28.7784C104.83 31.0785 104.851 37.5424 105.681 39.4952C107.735 44.3349 115.078 44.072 116.475 39.805C117.74 43.2459 122.864 44.4992 124.525 40.9129C126.105 44.2035 129.87 43.49 131.906 41.0349C134.556 44.0955 144.961 43.9688 145.775 38.9413C147.675 46.5271 155.439 41.4621 155.337 39.4952C155.32 39.1995 154.677 38.716 154.498 38.4484L154.485 38.4578ZM110.648 22.9435C112.905 22.6055 113.114 29.8487 112.718 31.0081C112.296 32.2427 109.651 31.4729 108.637 31.6841C108.39 29.966 108.557 23.2533 110.652 22.9388L110.648 22.9435ZM122.612 41.4151C120.048 42.9642 118.57 38.0823 121.437 32.238C122.165 30.75 123.298 29.4825 123.839 27.8677C123.724 30.3556 124.602 40.2134 122.608 41.4151H122.612Z" fill="white"/>
<path d="M110.814 16.8457L108.859 14.691H108.633L106.789 16.7236V16.9677L108.748 19.1223L110.814 16.8457Z" fill="white"/>
<path d="M113.56 14.6923L111.605 16.971L113.673 19.1252L115.628 16.8464L113.56 14.6923Z" fill="white"/>
<path d="M93.1464 35.5655C93.0399 35.7298 94.7905 36.3635 95.0461 38.152C95.685 42.5551 91.3575 42.358 90.7952 40.0015C90.4545 38.5792 90.9784 34.8473 90.7952 32.9837C94.897 32.7208 99.3864 33.5423 98.3982 27.3178C97.1545 19.4785 87.9755 20.6192 87.2174 27.9328C87.1577 28.5242 87.1535 36.8001 87.2174 37.415C87.2813 38.0299 87.6476 38.7669 87.7753 39.3866C86.7531 41.2126 84.2273 43.2827 83.861 39.7574C83.4776 36.0537 84.1506 20.6943 83.861 15.2491L85.7053 15.4322C85.3688 12.5312 83.4265 9.16543 81.6802 6.93569C80.9561 8.02944 80.4109 9.46116 80.2831 10.8131C79.8359 15.5401 80.6239 33.4484 80.2831 40.0015C79.4653 41.1469 77.3442 42.8368 76.816 40.4944C76.3858 38.5839 76.9097 19.3096 76.7052 15.1223C76.7436 15.0191 78.2258 15.6481 78.7199 15.3664C77.8723 12.2777 76.5136 9.31095 74.5245 6.931C72.0625 10.5831 73.5192 18.5162 73.1274 23.3747C70.8614 20.976 66.8831 21.3187 65.9716 24.9754C65.5968 26.487 65.7076 36.0678 65.7459 38.5228C65.7459 38.5839 65.9887 39.3819 65.9716 39.7527C65.32 40.9638 62.9603 42.8603 62.3938 40.6164C61.8102 38.3069 62.3767 19.5818 62.168 15.1223L64.1231 15.4322C63.7142 12.4326 61.8571 9.28278 60.098 6.93569C57.6062 10.2075 58.9224 18.4083 58.5902 23.2527C55.7406 20.6849 51.788 21.6238 51.3194 25.9612C51.2129 26.947 51.2726 36.6733 51.3194 38.8937C51.3194 38.9547 51.6005 39.7058 51.5452 40.1236C50.2503 41.9543 48.3038 43.1372 47.9673 39.8795C47.8906 39.1378 47.8906 25.7359 47.9673 24.9754C48.1675 22.9663 49.6327 21.9805 47.5754 22.45C46.5575 22.6847 44.7983 24.0929 44.5002 25.2195C44.1168 26.6606 44.5555 37.3258 44.3894 40.1236C43.7505 41.0624 41.7273 42.6537 41.1481 40.8605C40.3984 38.5557 41.5612 27.5056 40.4751 24.3558C39.2782 20.8821 34.9336 21.2201 33.264 24.046C31.7391 21.1121 28.6383 21.2436 26.5555 23.431L26.4447 19.9808C25.0732 20.2859 23.5867 20.915 22.9222 22.3842C22.5857 24.1352 23.2587 40.9779 22.9222 44.921C22.7093 47.4042 21.3037 48.4088 23.0883 48.0614C24.3917 47.8079 26.0656 46.3903 26.3851 44.921C26.7982 43.0246 26.3042 29.3973 26.4958 25.7077C27.1646 23.9662 29.3794 22.1542 29.963 23.985C30.2526 24.8909 30.3207 38.8655 30.1887 40.6117C30.0694 42.1561 29.3198 44.0338 29.4604 44.123C31.3856 44.0714 33.494 42.588 33.7666 40.3676C34.0094 38.3773 33.6643 28.9045 33.6558 25.8345C34.0818 24.3323 36.7141 21.6238 37.2337 24.4778C37.698 27.0221 36.9867 36.8752 37.4594 39.5039C38.1963 43.6301 42.2683 43.9587 44.7856 41.5365C46.5276 44.1136 50.31 43.6536 52.167 41.4144C53.9986 43.9352 57.4912 43.3531 59.1013 40.7995C60.8136 43.9352 64.3318 43.555 66.4828 41.1704C68.3015 44.0526 71.8538 43.3391 73.6385 40.7995C75.3082 44.0197 78.8264 43.4658 81.02 41.1704C82.6598 44.2685 86.7616 43.1795 88.5122 40.6775C91.0891 44.8834 100.017 43.1513 98.5217 38.0299C98.0149 36.2978 94.6713 35.1853 93.1549 35.5655H93.1464ZM92.8695 22.9429C94.9779 22.7786 95.2079 29.2988 94.9396 30.7634C94.6457 32.3453 91.9155 31.4581 90.8591 31.6881C90.6291 30.0029 90.6163 23.1212 92.8738 22.9429H92.8695ZM54.9016 39.6307C54.8291 38.9125 54.8291 25.9377 54.9016 25.2195C54.9654 24.5999 55.1997 23.2949 55.8514 23.1869C56.8651 23.0227 58.3005 24.6985 58.5902 25.7124L58.7009 38.889C57.9726 41.0624 55.2934 43.4799 54.8973 39.626L54.9016 39.6307ZM73.1316 39.011C72.9272 40.2315 69.7454 44.2075 69.328 39.1331C69.2514 38.1942 69.2514 26.6513 69.328 25.7077C69.3877 24.9707 69.524 23.2808 70.3886 23.1823C71.3725 23.0696 72.957 24.8581 73.1274 25.8298C73.2424 26.4776 73.2339 38.3585 73.1274 39.0063L73.1316 39.011Z" fill="white"/>
<path d="M49.0906 17.4606L46.4626 14.691L43.9453 17.4606L46.3476 20.2302C46.7437 20.3194 48.6008 17.8643 49.0864 17.4606H49.0906Z" fill="white"/>
<path d="M90.853 14.6895L88.8984 16.9682L90.9661 19.1223L92.9206 16.8436L90.853 14.6895Z" fill="white"/>
<path d="M259.994 29.0367C258.878 27.2435 259.615 23.4835 260.722 23.1878C262.886 22.6104 262.924 26.0418 262.567 27.558C262.205 29.1118 260.829 29.1588 261.28 29.4686C261.544 29.647 265.91 29.1775 266.481 26.5723C267.729 20.8641 256.305 20.2163 255.632 26.3282C254.832 33.6135 265.676 33.529 265.361 38.519C265.109 42.4996 257.941 43.0019 258.09 38.2749C258.158 36.0968 260.505 35.7588 260.045 35.5053C254.725 35.3175 254.661 37.8712 254.342 37.843C253.234 35.9325 251.019 35.4302 249.086 35.5053C248.826 35.8949 249.695 35.8339 250.261 36.5521C251.492 38.1199 251.347 41.7814 248.753 41.6641C245.337 41.5091 247.131 35.3879 246.683 32.9798C250.917 32.6982 255.343 33.5807 254.286 27.1919C253.004 19.4324 243.834 20.6388 243.106 28.0556C243.046 28.68 243.046 36.7352 243.106 37.2938C243.195 38.1246 243.629 38.9367 243.779 39.7582C243.272 40.7017 241.197 42.4855 240.422 41.2369C239.498 39.7441 240.269 28.5579 239.975 25.84C239.468 21.1599 234.936 20.7421 232.317 23.6853L232.261 20.052C232.125 19.7939 229.378 20.775 228.683 22.3897V40.3685C227.708 41.4763 225.838 43.0535 225.327 40.6126C225.169 39.8521 225.093 26.1733 225.216 24.9715C225.404 23.1173 227.15 21.4415 224.156 22.6949C222.729 23.291 221.694 24.8073 221.528 26.4502C221.281 28.8959 221.741 38.7677 221.638 39.5047C220.595 41.3589 218.197 43.1521 217.835 39.7488C217.456 36.1813 218.12 20.6013 217.835 15.2405L219.849 15.3626C219.015 12.2597 217.622 9.34932 215.654 6.92712C214.896 7.99739 214.38 9.45728 214.257 10.8045C213.848 15.1701 214.483 33.5525 214.368 39.7441C213 41.6687 211.015 43.0254 210.679 39.5C210.291 35.4255 210.973 20.8829 210.679 15.2358L212.634 15.4189C212.025 12.3113 210.449 9.29768 208.498 6.92242C206.075 10.3022 207.472 18.4748 207.101 23.3661C204.835 20.9862 200.865 21.2725 199.945 24.9669C199.485 26.8117 199.681 37.0731 199.945 39.8709C199.179 41.0867 196.921 42.9925 196.368 40.6079C195.95 38.8053 196.453 23.8403 196.257 20.2868C196.031 19.8971 193.139 20.9862 192.568 22.6245C192.666 29.4545 186.145 32.2241 185.021 37.8336C184.096 35.9512 181.519 35.3081 179.709 35.5569C179.526 35.8339 180.455 35.8339 181.051 36.6648C182.137 38.181 182.026 41.4387 179.875 41.6547C175.957 42.0443 177.771 35.4349 177.358 32.9704C181.63 32.7733 186.307 33.4352 184.961 26.9337C183.419 19.4794 174.432 20.4041 173.78 28.6565C173.712 29.5155 173.712 35.9982 173.78 36.7868C173.989 39.1527 175.386 39.8568 173.388 41.1571C172.536 41.711 171.463 42.0631 171.097 40.7252C170.428 38.2983 171.327 27.4829 170.649 24.8401C169.746 21.3195 165.841 21.0237 163.604 23.2394V15.2358L165.619 15.3579C164.793 12.255 163.387 9.34462 161.424 6.92242C160.555 8.0725 160.269 9.49484 160.027 10.9266V44.7951C159.839 45.18 159.899 45.9123 159.801 46.3958C159.605 47.3675 158.123 48.9776 160.976 47.8134C161.948 47.4144 163.247 46.0437 163.494 44.9171C163.928 42.908 163.396 29.1494 163.604 25.5818C163.89 24.4505 166.113 22.2208 166.961 23.7323C167.783 25.211 166.923 36.4676 167.408 39.3733C168.162 43.9032 172.847 43.9595 175.292 41.035C177.677 43.9971 184.245 43.8046 185.246 39.6784C186.315 43.2272 191.478 44.4571 193.296 41.035C194.902 44.0487 198.438 43.5417 200.452 41.2791C202.522 43.9877 205.7 43.3774 207.608 40.7862C209.342 44.0534 212.621 43.3915 214.989 41.2791C216.544 43.8797 220.169 43.3587 221.924 41.2791C223.248 43.8375 226.686 43.7436 228.632 42.1429C229.284 47.3299 226.707 48.5504 228.969 48.0528C230.247 47.7759 232.044 46.2597 232.265 44.7904C232.559 42.8517 231.98 27.2764 232.265 25.6991C232.512 24.3425 235.111 22.3428 235.954 23.6055C237.296 25.6147 235.23 38.4251 237.407 41.5843C239.153 44.1238 242.944 42.9737 244.618 40.9083C246.713 44.0158 253.175 43.7295 254.457 40.0446C256.433 44.5228 268.342 43.9454 269.049 38.9978C269.871 33.2756 261.979 32.2147 259.99 29.0226L259.994 29.0367ZM248.753 22.9437C250.875 22.7043 251.092 29.3184 250.824 30.7642C250.53 32.3461 247.799 31.4589 246.743 31.6889C246.483 29.9615 246.581 23.1925 248.758 22.9437H248.753ZM179.534 22.9437C181.63 22.8075 181.903 29.9286 181.49 31.0083C181.042 32.1865 178.402 31.5058 177.409 31.6842C177.141 29.9662 177.337 23.0845 179.534 22.939V22.9437ZM192.227 40.1244C191.235 42.8845 187.879 42.1898 188.76 36.308C189.22 33.238 191.329 30.8487 192.509 28.1166C192.428 30.7501 192.943 38.1481 192.227 40.1244ZM207.097 39.0118C206.914 40.1197 205.091 42.1382 204.022 41.5373C203.506 41.2463 203.344 39.6362 203.293 39.0118C203.161 37.3783 203.242 25.056 203.519 24.1078C203.621 23.7605 204 23.2112 204.358 23.1831C205.414 23.0986 206.926 24.8683 207.097 25.9526C207.199 26.5957 207.203 38.364 207.097 39.0071V39.0118Z" fill="white"/>
<path d="M179.593 16.8457L177.634 14.691H177.412L175.453 16.8457L177.523 19.1223L179.593 16.8457Z" fill="white"/>
<path d="M182.33 14.6923L180.375 16.971L182.443 19.1252L184.397 16.8464L182.33 14.6923Z" fill="white"/>
<path d="M226.333 17.4606L223.705 14.691L221.188 17.4606L223.705 20.3569L226.333 17.4606Z" fill="white"/>
<path d="M246.744 14.6952L244.789 16.9739L246.857 19.128L248.811 16.8493L246.744 14.6952Z" fill="white"/>
<path d="M253.732 16.8457L251.777 14.691H251.551L249.707 16.7236V16.9677L251.666 19.1223L253.732 16.8457Z" fill="white"/>
<path d="M261.449 46.2762V46.525L263.404 48.6796L265.474 46.4029L263.404 44.2483L261.449 46.2762Z" fill="white"/>
</g>
</g>
<defs>
<clipPath id="clip0_1590_6767">
<rect x="0.832031" y="0.871033" width="289.641" height="53.871" rx="8.77719" fill="white"/>
</clipPath>
<clipPath id="clip1_1590_6767">
<rect width="246.915" height="41.75" fill="white" transform="translate(22.1953 6.93152)"/>
</clipPath>
</defs>
</svg>
