<svg width="163" height="54" viewBox="0 0 163 54" fill="none" xmlns="http://www.w3.org/2000/svg">
<path d="M154.183 0H8.77719C3.92968 0 0 3.92968 0 8.77719V45.0938C0 49.9413 3.92968 53.871 8.77719 53.871H154.183C159.03 53.871 162.96 49.9413 162.96 45.0938V8.77719C162.96 3.92968 159.03 0 154.183 0Z" fill="#1D0C39"/>
<path d="M103.365 14.2758V39.5952H107.136V14.2758H103.365ZM62.8273 13.8718C55.42 13.8718 49.6962 19.2589 49.6962 26.9355C49.6962 35.0162 55.42 39.9993 62.8273 39.9993C70.2345 39.9993 75.9583 34.9488 75.9583 26.9355C75.9583 19.6629 70.2345 13.8718 62.8273 13.8718ZM72.1874 26.9355C72.1874 32.6593 68.0124 36.4303 62.8273 36.4303C57.6422 36.4303 53.5345 32.6593 53.5345 26.9355C53.5345 21.3464 57.7095 17.4408 62.8946 17.4408C68.0797 17.4408 72.1874 21.3464 72.1874 26.9355ZM24.2422 13.4678V39.5952H28.0805V22.3565L48.2148 40.4033V35.0162L24.2422 13.4678ZM78.8539 26.9355L92.9277 39.5952H98.5842L84.443 26.9355L98.5168 14.2758H92.9277L78.8539 26.9355ZM138.718 39.5952H134.543L131.513 34.0061H117.708L114.678 39.5952H110.436L115.486 30.2351H129.493L122.49 17.2387L124.577 13.4678L138.718 39.5952Z" fill="white"/>
</svg>
