<svg width="91" height="54" viewBox="0 0 91 54" fill="none" xmlns="http://www.w3.org/2000/svg">
<g clip-path="url(#clip0_14_147)">
<path d="M81.63 0H8.78C3.93094 0 0 3.93094 0 8.78V45.09C0 49.9391 3.93094 53.87 8.78 53.87H81.63C86.4791 53.87 90.41 49.9391 90.41 45.09V8.78C90.41 3.93094 86.4791 0 81.63 0Z" fill="#1D0C39"/>
<path d="M45.14 6.80447L45.24 17.2045L45.02 17.3445C44.54 17.3645 43.8 17.5245 43.43 17.1945C43.12 16.9245 41.71 13.3945 41.22 12.5945C39.61 9.93447 37.05 7.85447 33.76 8.06447C30.47 8.27447 27.42 11.3945 29.19 14.7845C31.5 19.2245 43.01 18.3145 46.12 24.7045C48.23 29.0445 46.44 34.3145 42.39 36.7445C36.98 39.9745 29.91 39.1545 24.45 36.5245L24.19 36.6045C23.45 37.9945 22.63 38.1045 21.14 37.9545L20.96 26.6745C21.48 26.7245 22.26 26.5145 22.68 26.8345C22.87 26.9845 24.02 29.6545 24.33 30.1945C26.66 34.2445 30.34 37.4145 35.32 36.4745C39.75 35.6345 41.58 30.5545 37.66 27.7745C32.33 24.0045 22.1 25.3745 21.66 15.8445C21.22 6.31447 34.84 3.69447 41.66 8.02447C42.88 6.95447 43.36 6.55447 45.12 6.79447L45.14 6.80447Z" fill="white"/>
<path d="M67.33 6.80444L67.31 8.39444C65.59 8.79444 62.79 8.39444 62.67 10.8244L62.72 34.2444C63.07 36.1644 65.87 35.9144 67.31 36.3744L67.33 37.9644H50.14L50.16 36.3744C50.49 35.8444 54.54 36.9144 54.8 34.1244L54.78 10.6744C54.51 8.94444 51.51 8.75444 50.15 8.40444L50.13 6.81444H67.32L67.33 6.80444Z" fill="white"/>
<path d="M19.632 48.5125C19.408 48.5125 19.2 48.4778 19.008 48.4085C18.8213 48.3445 18.6533 48.2511 18.504 48.1285C18.4827 48.1071 18.4613 48.0831 18.44 48.0565C18.424 48.0298 18.4107 48.0005 18.4 47.9685C18.3733 47.8618 18.3547 47.7231 18.344 47.5525C18.3387 47.3818 18.3307 47.2405 18.32 47.1285C18.32 47.0911 18.336 47.0645 18.368 47.0485C18.4 47.0271 18.4373 47.0165 18.48 47.0165C18.5067 47.0165 18.5333 47.0245 18.56 47.0405C18.5867 47.0511 18.6027 47.0725 18.608 47.1045C18.7147 47.5151 18.872 47.8085 19.08 47.9845C19.2933 48.1605 19.5147 48.2485 19.744 48.2485C19.9307 48.2485 20.096 48.2085 20.24 48.1285C20.384 48.0485 20.496 47.9365 20.576 47.7925C20.6613 47.6431 20.704 47.4698 20.704 47.2725C20.704 47.0538 20.6667 46.8778 20.592 46.7445C20.5227 46.6058 20.4213 46.4858 20.288 46.3845C20.1547 46.2831 19.992 46.1738 19.8 46.0565C19.592 45.9231 19.3867 45.7898 19.184 45.6565C18.9813 45.5178 18.8133 45.3605 18.68 45.1845C18.5467 45.0031 18.48 44.7845 18.48 44.5285C18.48 44.2565 18.5413 44.0111 18.664 43.7925C18.7867 43.5738 18.9707 43.4005 19.216 43.2725C19.4667 43.1391 19.7787 43.0725 20.152 43.0725C20.344 43.0725 20.5093 43.0938 20.648 43.1365C20.792 43.1738 20.9067 43.2111 20.992 43.2485C21.0347 43.2645 21.0693 43.2911 21.096 43.3285C21.128 43.3658 21.1493 43.4058 21.16 43.4485C21.192 43.5605 21.2267 43.6885 21.264 43.8325C21.3013 43.9765 21.32 44.1125 21.32 44.2405C21.32 44.2991 21.28 44.3285 21.2 44.3285C21.152 44.3285 21.104 44.3178 21.056 44.2965C21.0133 44.2751 20.9867 44.2485 20.976 44.2165C20.864 43.9338 20.7333 43.7178 20.584 43.5685C20.4347 43.4191 20.2453 43.3445 20.016 43.3445C19.856 43.3445 19.7067 43.3738 19.568 43.4325C19.4293 43.4911 19.3147 43.5871 19.224 43.7205C19.1387 43.8538 19.096 44.0325 19.096 44.2565C19.096 44.4165 19.1467 44.5631 19.248 44.6965C19.3547 44.8245 19.4933 44.9471 19.664 45.0645C19.8347 45.1818 20.0187 45.3018 20.216 45.4245C20.4027 45.5365 20.584 45.6591 20.76 45.7925C20.9413 45.9258 21.088 46.0858 21.2 46.2725C21.3173 46.4538 21.376 46.6778 21.376 46.9445C21.376 47.2591 21.304 47.5365 21.16 47.7765C21.016 48.0111 20.8133 48.1925 20.552 48.3205C20.2907 48.4485 19.984 48.5125 19.632 48.5125ZM23.2308 48.4965C22.9694 48.4965 22.7641 48.4165 22.6148 48.2565C22.4708 48.0965 22.3988 47.8591 22.3988 47.5445V45.6885C22.3988 45.6458 22.3828 45.6165 22.3508 45.6005C22.3188 45.5791 22.2494 45.5685 22.1428 45.5685H22.0948C22.0681 45.5685 22.0441 45.5525 22.0228 45.5205C22.0068 45.4831 21.9988 45.4458 21.9988 45.4085C21.9988 45.3978 22.0068 45.3818 22.0228 45.3605C22.0388 45.3391 22.0494 45.3258 22.0548 45.3205C22.1614 45.2458 22.2574 45.1711 22.3428 45.0965C22.4334 45.0218 22.5134 44.9498 22.5828 44.8805C22.6574 44.8058 22.7188 44.7391 22.7668 44.6805C22.7934 44.6538 22.8148 44.6325 22.8308 44.6165C22.8521 44.5951 22.8761 44.5845 22.9028 44.5845C22.9294 44.5845 22.9534 44.5898 22.9748 44.6005C23.0014 44.6111 23.0121 44.6351 23.0068 44.6725L22.9668 45.0325C22.9614 45.0911 22.9748 45.1311 23.0068 45.1525C23.0388 45.1738 23.0894 45.1845 23.1588 45.1845H24.0707C24.0921 45.1845 24.1108 45.2031 24.1268 45.2405C24.1428 45.2725 24.1508 45.3125 24.1508 45.3605C24.1508 45.4085 24.1428 45.4565 24.1268 45.5045C24.1108 45.5471 24.0921 45.5685 24.0707 45.5685H23.2788C23.1454 45.5685 23.0574 45.5791 23.0148 45.6005C22.9774 45.6218 22.9588 45.6858 22.9588 45.7925V47.3685C22.9588 47.5818 23.0041 47.7498 23.0948 47.8725C23.1854 47.9951 23.3161 48.0565 23.4868 48.0565C23.6414 48.0565 23.7614 48.0458 23.8468 48.0245C23.9321 47.9978 24.0094 47.9605 24.0788 47.9125C24.0894 47.9018 24.1001 47.8965 24.1108 47.8965C24.1321 47.8965 24.1454 47.9098 24.1508 47.9365C24.1614 47.9578 24.1668 47.9818 24.1668 48.0085C24.1668 48.0351 24.1214 48.0885 24.0308 48.1685C23.9454 48.2485 23.8308 48.3231 23.6868 48.3925C23.5481 48.4618 23.3961 48.4965 23.2308 48.4965ZM24.6264 48.4085C24.573 48.4085 24.533 48.4005 24.5064 48.3845C24.4797 48.3738 24.4664 48.3525 24.4664 48.3205C24.4664 48.2778 24.4824 48.2511 24.5144 48.2405C24.5464 48.2245 24.5917 48.2085 24.6504 48.1925C24.7517 48.1658 24.8264 48.1285 24.8744 48.0805C24.9277 48.0271 24.9544 47.9631 24.9544 47.8885V46.1685C24.9544 46.0245 24.933 45.8991 24.8904 45.7925C24.8477 45.6858 24.7597 45.6191 24.6264 45.5925C24.605 45.5871 24.5864 45.5738 24.5704 45.5525C24.5544 45.5311 24.5464 45.5098 24.5464 45.4885C24.5464 45.4351 24.5704 45.4031 24.6184 45.3925C24.757 45.3498 24.901 45.2885 25.0504 45.2085C25.205 45.1231 25.325 45.0538 25.4104 45.0005C25.4424 44.9791 25.4664 44.9658 25.4824 44.9605C25.5037 44.9498 25.5197 44.9445 25.5304 44.9445C25.557 44.9445 25.5704 44.9631 25.5704 45.0005C25.5704 45.0165 25.5677 45.0565 25.5624 45.1205C25.5624 45.1845 25.5597 45.2591 25.5544 45.3445C25.5544 45.4298 25.5517 45.5151 25.5464 45.6005C25.5464 45.6111 25.5517 45.6165 25.5624 45.6165C25.6477 45.5098 25.741 45.4165 25.8424 45.3365C25.949 45.2565 26.0557 45.1925 26.1624 45.1445C26.2744 45.0965 26.381 45.0725 26.4824 45.0725C26.5944 45.0725 26.685 45.0965 26.7544 45.1445C26.829 45.1925 26.8664 45.2538 26.8664 45.3285C26.8664 45.3818 26.8504 45.4405 26.8184 45.5045C26.7917 45.5685 26.7544 45.6245 26.7064 45.6725C26.6584 45.7205 26.6077 45.7445 26.5544 45.7445C26.5224 45.7445 26.4877 45.7391 26.4504 45.7285C26.413 45.7125 26.373 45.6938 26.3304 45.6725C26.2877 45.6565 26.245 45.6405 26.2024 45.6245C26.1597 45.6085 26.117 45.6005 26.0744 45.6005C25.9464 45.6005 25.821 45.6458 25.6984 45.7365C25.581 45.8271 25.5224 46.0058 25.5224 46.2725V47.8885C25.5224 47.9578 25.5597 48.0165 25.6344 48.0645C25.709 48.1071 25.813 48.1498 25.9464 48.1925C26.005 48.2085 26.0504 48.2245 26.0824 48.2405C26.1144 48.2565 26.1304 48.2831 26.1304 48.3205C26.1304 48.3791 26.077 48.4085 25.9704 48.4085C25.8104 48.4085 25.6877 48.4005 25.6024 48.3845C25.5224 48.3738 25.413 48.3685 25.2744 48.3685C25.1837 48.3685 25.109 48.3711 25.0504 48.3765C24.997 48.3818 24.9384 48.3871 24.8744 48.3925C24.8157 48.4031 24.733 48.4085 24.6264 48.4085ZM28.6103 48.5045C28.3169 48.5045 28.0609 48.4325 27.8423 48.2885C27.6236 48.1445 27.4529 47.9418 27.3303 47.6805C27.2076 47.4138 27.1463 47.1071 27.1463 46.7605C27.1463 46.4511 27.2156 46.1711 27.3543 45.9205C27.4983 45.6645 27.6876 45.4591 27.9223 45.3045C28.1569 45.1498 28.4129 45.0725 28.6903 45.0725C28.9036 45.0725 29.0929 45.1151 29.2582 45.2005C29.4236 45.2858 29.5516 45.4058 29.6423 45.5605C29.7383 45.7098 29.7863 45.8831 29.7863 46.0805C29.7863 46.2458 29.7063 46.3285 29.5463 46.3285H27.8583C27.7836 46.3285 27.7303 46.3498 27.6983 46.3925C27.6716 46.4298 27.6583 46.5071 27.6583 46.6245C27.6583 46.8805 27.7143 47.1151 27.8263 47.3285C27.9383 47.5365 28.0876 47.7045 28.2743 47.8325C28.4609 47.9551 28.6663 48.0165 28.8903 48.0165C29.0503 48.0165 29.1943 47.9871 29.3223 47.9285C29.4556 47.8645 29.5729 47.7738 29.6743 47.6565C29.6956 47.6298 29.7116 47.6138 29.7223 47.6085C29.7329 47.5978 29.7463 47.5925 29.7623 47.5925C29.8049 47.5925 29.8263 47.6191 29.8263 47.6725C29.8263 47.7738 29.7783 47.8858 29.6823 48.0085C29.6023 48.1098 29.5063 48.1978 29.3943 48.2725C29.2823 48.3471 29.1596 48.4031 29.0263 48.4405C28.8929 48.4831 28.7543 48.5045 28.6103 48.5045ZM27.8743 46.0805H28.6023C28.7303 46.0805 28.8396 46.0778 28.9303 46.0725C29.0209 46.0671 29.1089 46.0565 29.1943 46.0405C29.2209 46.0351 29.2369 46.0191 29.2423 45.9925C29.2529 45.9605 29.2582 45.9178 29.2582 45.8645C29.2582 45.7098 29.1889 45.5791 29.0503 45.4725C28.9169 45.3605 28.7569 45.3045 28.5703 45.3045C28.4476 45.3045 28.3249 45.3418 28.2023 45.4165C28.0796 45.4858 27.9783 45.5738 27.8983 45.6805C27.8183 45.7871 27.7783 45.8938 27.7783 46.0005C27.7783 46.0538 27.8103 46.0805 27.8743 46.0805ZM31.6493 48.5045C31.356 48.5045 31.1 48.4325 30.8813 48.2885C30.6626 48.1445 30.492 47.9418 30.3693 47.6805C30.2466 47.4138 30.1853 47.1071 30.1853 46.7605C30.1853 46.4511 30.2546 46.1711 30.3933 45.9205C30.5373 45.6645 30.7266 45.4591 30.9613 45.3045C31.196 45.1498 31.452 45.0725 31.7293 45.0725C31.9426 45.0725 32.132 45.1151 32.2973 45.2005C32.4626 45.2858 32.5906 45.4058 32.6813 45.5605C32.7773 45.7098 32.8253 45.8831 32.8253 46.0805C32.8253 46.2458 32.7453 46.3285 32.5853 46.3285H30.8973C30.8226 46.3285 30.7693 46.3498 30.7373 46.3925C30.7106 46.4298 30.6973 46.5071 30.6973 46.6245C30.6973 46.8805 30.7533 47.1151 30.8653 47.3285C30.9773 47.5365 31.1266 47.7045 31.3133 47.8325C31.5 47.9551 31.7053 48.0165 31.9293 48.0165C32.0893 48.0165 32.2333 47.9871 32.3613 47.9285C32.4946 47.8645 32.612 47.7738 32.7133 47.6565C32.7346 47.6298 32.7506 47.6138 32.7613 47.6085C32.772 47.5978 32.7853 47.5925 32.8013 47.5925C32.844 47.5925 32.8653 47.6191 32.8653 47.6725C32.8653 47.7738 32.8173 47.8858 32.7213 48.0085C32.6413 48.1098 32.5453 48.1978 32.4333 48.2725C32.3213 48.3471 32.1986 48.4031 32.0653 48.4405C31.932 48.4831 31.7933 48.5045 31.6493 48.5045ZM30.9133 46.0805H31.6413C31.7693 46.0805 31.8786 46.0778 31.9693 46.0725C32.06 46.0671 32.148 46.0565 32.2333 46.0405C32.26 46.0351 32.276 46.0191 32.2813 45.9925C32.292 45.9605 32.2973 45.9178 32.2973 45.8645C32.2973 45.7098 32.228 45.5791 32.0893 45.4725C31.956 45.3605 31.796 45.3045 31.6093 45.3045C31.4866 45.3045 31.364 45.3418 31.2413 45.4165C31.1186 45.4858 31.0173 45.5738 30.9373 45.6805C30.8573 45.7871 30.8173 45.8938 30.8173 46.0005C30.8173 46.0538 30.8493 46.0805 30.9133 46.0805ZM34.5745 48.4965C34.3132 48.4965 34.1078 48.4165 33.9585 48.2565C33.8145 48.0965 33.7425 47.8591 33.7425 47.5445V45.6885C33.7425 45.6458 33.7265 45.6165 33.6945 45.6005C33.6625 45.5791 33.5932 45.5685 33.4865 45.5685H33.4385C33.4118 45.5685 33.3878 45.5525 33.3665 45.5205C33.3505 45.4831 33.3425 45.4458 33.3425 45.4085C33.3425 45.3978 33.3505 45.3818 33.3665 45.3605C33.3825 45.3391 33.3932 45.3258 33.3985 45.3205C33.5052 45.2458 33.6012 45.1711 33.6865 45.0965C33.7772 45.0218 33.8572 44.9498 33.9265 44.8805C34.0012 44.8058 34.0625 44.7391 34.1105 44.6805C34.1372 44.6538 34.1585 44.6325 34.1745 44.6165C34.1958 44.5951 34.2198 44.5845 34.2465 44.5845C34.2732 44.5845 34.2972 44.5898 34.3185 44.6005C34.3452 44.6111 34.3558 44.6351 34.3505 44.6725L34.3105 45.0325C34.3052 45.0911 34.3185 45.1311 34.3505 45.1525C34.3825 45.1738 34.4332 45.1845 34.5025 45.1845H35.4145C35.4358 45.1845 35.4545 45.2031 35.4705 45.2405C35.4865 45.2725 35.4945 45.3125 35.4945 45.3605C35.4945 45.4085 35.4865 45.4565 35.4705 45.5045C35.4545 45.5471 35.4358 45.5685 35.4145 45.5685H34.6225C34.4892 45.5685 34.4012 45.5791 34.3585 45.6005C34.3212 45.6218 34.3025 45.6858 34.3025 45.7925V47.3685C34.3025 47.5818 34.3478 47.7498 34.4385 47.8725C34.5292 47.9951 34.6598 48.0565 34.8305 48.0565C34.9852 48.0565 35.1052 48.0458 35.1905 48.0245C35.2758 47.9978 35.3532 47.9605 35.4225 47.9125C35.4332 47.9018 35.4438 47.8965 35.4545 47.8965C35.4758 47.8965 35.4892 47.9098 35.4945 47.9365C35.5052 47.9578 35.5105 47.9818 35.5105 48.0085C35.5105 48.0351 35.4652 48.0885 35.3745 48.1685C35.2892 48.2485 35.1745 48.3231 35.0305 48.3925C34.8918 48.4618 34.7398 48.4965 34.5745 48.4965ZM35.9621 48.4245C35.8928 48.4245 35.8368 48.4165 35.7941 48.4005C35.7515 48.3898 35.7301 48.3685 35.7301 48.3365C35.7301 48.2725 35.8181 48.2245 35.9941 48.1925C36.1968 48.1551 36.3515 48.0938 36.4581 48.0085C36.5648 47.9231 36.6181 47.7871 36.6181 47.6005V43.9845C36.6181 43.7978 36.5781 43.6645 36.4981 43.5845C36.4235 43.5045 36.2848 43.4458 36.0821 43.4085C35.9061 43.3765 35.8181 43.3231 35.8181 43.2485C35.8181 43.2165 35.8395 43.1951 35.8821 43.1845C35.9248 43.1685 35.9808 43.1605 36.0501 43.1605C36.1941 43.1605 36.3115 43.1631 36.4021 43.1685C36.4981 43.1738 36.5888 43.1791 36.6741 43.1845C36.7595 43.1845 36.8635 43.1845 36.9861 43.1845C37.1035 43.1845 37.1995 43.1845 37.2741 43.1845C37.3488 43.1791 37.4288 43.1738 37.5141 43.1685C37.5995 43.1631 37.7141 43.1605 37.8581 43.1605C37.9275 43.1605 37.9835 43.1685 38.0261 43.1845C38.0688 43.1951 38.0901 43.2165 38.0901 43.2485C38.0901 43.2858 38.0688 43.3178 38.0261 43.3445C37.9835 43.3711 37.9168 43.3925 37.8261 43.4085C37.6288 43.4458 37.4848 43.5045 37.3941 43.5845C37.3035 43.6645 37.2581 43.7978 37.2581 43.9845V47.6005C37.2581 47.7871 37.3141 47.9231 37.4261 48.0085C37.5381 48.0938 37.6928 48.1551 37.8901 48.1925C37.9808 48.2085 38.0475 48.2271 38.0901 48.2485C38.1328 48.2698 38.1541 48.2991 38.1541 48.3365C38.1541 48.3685 38.1328 48.3898 38.0901 48.4005C38.0475 48.4165 37.9915 48.4245 37.9221 48.4245C37.7781 48.4245 37.6581 48.4191 37.5621 48.4085C37.4715 48.4031 37.3835 48.3978 37.2981 48.3925C37.2128 48.3871 37.1088 48.3845 36.9861 48.3845C36.8528 48.3845 36.7355 48.3871 36.6341 48.3925C36.5381 48.3978 36.4368 48.4031 36.3301 48.4085C36.2288 48.4191 36.1061 48.4245 35.9621 48.4245ZM38.6489 48.4085C38.6009 48.4085 38.5609 48.4005 38.5289 48.3845C38.5022 48.3738 38.4889 48.3525 38.4889 48.3205C38.4889 48.2778 38.5049 48.2511 38.5369 48.2405C38.5689 48.2245 38.6142 48.2085 38.6729 48.1925C38.7529 48.1711 38.8302 48.1418 38.9049 48.1045C38.9795 48.0671 39.0169 47.9951 39.0169 47.8885V46.1685C39.0169 46.0245 39.0009 45.9018 38.9689 45.8005C38.9422 45.6991 38.8595 45.6298 38.7209 45.5925C38.6995 45.5818 38.6809 45.5711 38.6649 45.5605C38.6489 45.5445 38.6409 45.5205 38.6409 45.4885C38.6409 45.4298 38.6649 45.3978 38.7129 45.3925C38.8995 45.3445 39.0515 45.2858 39.1689 45.2165C39.2862 45.1471 39.4009 45.0698 39.5129 44.9845C39.5289 44.9738 39.5422 44.9658 39.5529 44.9605C39.5689 44.9498 39.5849 44.9445 39.6009 44.9445C39.6115 44.9445 39.6195 44.9498 39.6249 44.9605C39.6355 44.9711 39.6409 44.9845 39.6409 45.0005C39.6409 45.0378 39.6329 45.1151 39.6169 45.2325C39.6062 45.3445 39.6009 45.4378 39.6009 45.5125C39.6009 45.5338 39.6009 45.5551 39.6009 45.5765C39.6062 45.5925 39.6115 45.6031 39.6169 45.6085C39.8035 45.4325 40.0009 45.2991 40.2089 45.2085C40.4222 45.1178 40.6542 45.0725 40.9049 45.0725C41.1662 45.0725 41.3822 45.1791 41.5529 45.3925C41.7235 45.6058 41.8089 45.8698 41.8089 46.1845V47.8885C41.8089 47.9951 41.8462 48.0671 41.9209 48.1045C41.9955 48.1365 42.0729 48.1658 42.1529 48.1925C42.1955 48.2085 42.2355 48.2271 42.2729 48.2485C42.3155 48.2645 42.3369 48.2938 42.3369 48.3365C42.3369 48.3685 42.3182 48.3871 42.2809 48.3925C42.2435 48.4031 42.2089 48.4085 42.1769 48.4085C42.0702 48.4085 41.9875 48.4031 41.9289 48.3925C41.8702 48.3871 41.8142 48.3818 41.7609 48.3765C41.7075 48.3711 41.6329 48.3685 41.5369 48.3685C41.4462 48.3685 41.3715 48.3711 41.3129 48.3765C41.2542 48.3818 41.1929 48.3871 41.1289 48.3925C41.0702 48.4031 40.9875 48.4085 40.8809 48.4085C40.8542 48.4085 40.8195 48.4031 40.7769 48.3925C40.7395 48.3871 40.7209 48.3685 40.7209 48.3365C40.7209 48.2938 40.7395 48.2645 40.7769 48.2485C40.8195 48.2271 40.8622 48.2085 40.9049 48.1925C40.9849 48.1658 41.0622 48.1365 41.1369 48.1045C41.2115 48.0671 41.2489 47.9951 41.2489 47.8885V46.2085C41.2489 45.9738 41.1822 45.7925 41.0489 45.6645C40.9209 45.5311 40.7475 45.4618 40.5289 45.4565C40.3369 45.4565 40.1689 45.4885 40.0249 45.5525C39.8809 45.6111 39.7529 45.6858 39.6409 45.7765C39.6195 45.7978 39.6035 45.8271 39.5929 45.8645C39.5822 45.8965 39.5769 45.9285 39.5769 45.9605V47.8885C39.5769 47.9951 39.6142 48.0671 39.6889 48.1045C39.7635 48.1418 39.8409 48.1711 39.9209 48.1925C40.0435 48.2245 40.1049 48.2671 40.1049 48.3205C40.1049 48.3525 40.0915 48.3738 40.0649 48.3845C40.0382 48.4005 39.9982 48.4085 39.9449 48.4085C39.8382 48.4085 39.7529 48.4031 39.6889 48.3925C39.6302 48.3871 39.5742 48.3818 39.5209 48.3765C39.4675 48.3711 39.3929 48.3685 39.2969 48.3685C39.2062 48.3685 39.1315 48.3711 39.0729 48.3765C39.0195 48.3818 38.9609 48.3871 38.8969 48.3925C38.8382 48.4031 38.7555 48.4085 38.6489 48.4085ZM43.6754 48.4965C43.5101 48.4965 43.3554 48.4698 43.2114 48.4165C43.0674 48.3685 42.9448 48.2991 42.8434 48.2085C42.8168 48.1498 42.7954 48.0511 42.7794 47.9125C42.7688 47.7738 42.7608 47.6591 42.7554 47.5685C42.7554 47.5205 42.7901 47.4965 42.8594 47.4965C42.8808 47.4965 42.8994 47.5018 42.9154 47.5125C42.9368 47.5178 42.9501 47.5311 42.9554 47.5525C43.0248 47.8138 43.1341 48.0005 43.2834 48.1125C43.4381 48.2245 43.5928 48.2805 43.7474 48.2805C43.9021 48.2805 44.0328 48.2298 44.1394 48.1285C44.2514 48.0218 44.3074 47.8911 44.3074 47.7365C44.3074 47.5925 44.2594 47.4698 44.1634 47.3685C44.0674 47.2618 43.8994 47.1338 43.6594 46.9845C43.4781 46.8725 43.3314 46.7658 43.2194 46.6645C43.1074 46.5631 43.0248 46.4591 42.9714 46.3525C42.9234 46.2458 42.8994 46.1258 42.8994 45.9925C42.8994 45.8218 42.9394 45.6671 43.0194 45.5285C43.0994 45.3898 43.2194 45.2805 43.3794 45.2005C43.5394 45.1151 43.7394 45.0725 43.9794 45.0725C44.1394 45.0725 44.2728 45.0885 44.3794 45.1205C44.4861 45.1525 44.5661 45.1871 44.6194 45.2245C44.6621 45.2831 44.6968 45.3765 44.7234 45.5045C44.7554 45.6271 44.7714 45.7445 44.7714 45.8565C44.7714 45.8938 44.7448 45.9125 44.6914 45.9125C44.6594 45.9125 44.6274 45.9071 44.5954 45.8965C44.5688 45.8805 44.5501 45.8618 44.5394 45.8405C44.4701 45.6645 44.3821 45.5311 44.2754 45.4405C44.1741 45.3445 44.0461 45.2965 43.8914 45.2965C43.7581 45.2965 43.6381 45.3365 43.5314 45.4165C43.4301 45.4965 43.3794 45.6138 43.3794 45.7685C43.3794 45.8911 43.4168 46.0005 43.4914 46.0965C43.5714 46.1925 43.7181 46.3018 43.9314 46.4245C44.2408 46.6005 44.4701 46.7658 44.6194 46.9205C44.7741 47.0698 44.8514 47.2698 44.8514 47.5205C44.8514 47.8085 44.7421 48.0431 44.5234 48.2245C44.3048 48.4058 44.0221 48.4965 43.6754 48.4965ZM45.4614 48.4085C45.4134 48.4085 45.3734 48.4005 45.3414 48.3845C45.3147 48.3738 45.3014 48.3525 45.3014 48.3205C45.3014 48.2778 45.32 48.2485 45.3574 48.2325C45.4 48.2165 45.4427 48.2031 45.4854 48.1925C45.5974 48.1658 45.6827 48.1338 45.7414 48.0965C45.8 48.0538 45.8294 47.9845 45.8294 47.8885V46.1525C45.8294 46.0085 45.8027 45.8805 45.7494 45.7685C45.7014 45.6565 45.608 45.5898 45.4694 45.5685C45.4427 45.5631 45.4214 45.5525 45.4054 45.5365C45.3947 45.5205 45.3894 45.4965 45.3894 45.4645C45.3894 45.4058 45.4134 45.3738 45.4614 45.3685C45.6747 45.3205 45.8507 45.2565 45.9894 45.1765C46.128 45.0911 46.232 45.0218 46.3014 44.9685C46.3494 44.9311 46.3867 44.9125 46.4134 44.9125C46.4454 44.9125 46.4614 44.9258 46.4614 44.9525C46.4614 44.9951 46.4534 45.0805 46.4374 45.2085C46.4267 45.3311 46.416 45.4698 46.4054 45.6245C46.3947 45.7738 46.3894 45.9098 46.3894 46.0325V47.8885C46.3894 47.9791 46.4187 48.0458 46.4774 48.0885C46.5414 48.1311 46.6267 48.1658 46.7334 48.1925C46.776 48.2031 46.816 48.2165 46.8534 48.2325C46.896 48.2485 46.9174 48.2778 46.9174 48.3205C46.9174 48.3791 46.864 48.4085 46.7574 48.4085C46.656 48.4085 46.5734 48.4031 46.5094 48.3925C46.4507 48.3871 46.392 48.3818 46.3334 48.3765C46.28 48.3711 46.2054 48.3685 46.1094 48.3685C46.0187 48.3685 45.944 48.3711 45.8854 48.3765C45.8267 48.3818 45.768 48.3871 45.7094 48.3925C45.6507 48.4031 45.568 48.4085 45.4614 48.4085ZM46.1014 44.2565C45.9894 44.2565 45.8934 44.2191 45.8134 44.1445C45.7387 44.0645 45.7014 43.9685 45.7014 43.8565C45.7014 43.7391 45.7387 43.6431 45.8134 43.5685C45.8934 43.4885 45.9894 43.4485 46.1014 43.4485C46.2187 43.4485 46.3147 43.4885 46.3894 43.5685C46.4694 43.6431 46.5094 43.7391 46.5094 43.8565C46.5094 43.9685 46.4694 44.0645 46.3894 44.1445C46.3147 44.2191 46.2187 44.2565 46.1014 44.2565ZM49.9263 48.5365C49.9156 48.5365 49.897 48.5258 49.8703 48.5045C49.849 48.4831 49.8383 48.4671 49.8383 48.4565C49.8383 48.4031 49.8436 48.3285 49.8543 48.2325C49.8703 48.1311 49.8783 48.0458 49.8783 47.9765V47.9285C49.7983 48.0511 49.6703 48.1765 49.4943 48.3045C49.3183 48.4325 49.097 48.4965 48.8303 48.4965C48.5263 48.4965 48.2623 48.4165 48.0383 48.2565C47.8196 48.0965 47.649 47.8911 47.5263 47.6405C47.409 47.3898 47.3503 47.1311 47.3503 46.8645C47.3503 46.5551 47.4223 46.2645 47.5663 45.9925C47.7103 45.7205 47.9156 45.4991 48.1823 45.3285C48.4543 45.1578 48.777 45.0725 49.1503 45.0725C49.257 45.0725 49.3636 45.0831 49.4703 45.1045C49.5823 45.1205 49.6676 45.1391 49.7263 45.1605C49.7743 45.1765 49.809 45.1845 49.8303 45.1845C49.8676 45.1845 49.8863 45.1205 49.8863 44.9925V43.8565C49.8863 43.6378 49.8516 43.4911 49.7823 43.4165C49.713 43.3418 49.6143 43.2938 49.4863 43.2725C49.4383 43.2618 49.4143 43.2271 49.4143 43.1685C49.4143 43.1205 49.4356 43.0885 49.4783 43.0725C49.713 43.0138 49.897 42.9578 50.0303 42.9045C50.1636 42.8511 50.2676 42.8085 50.3423 42.7765C50.3636 42.7658 50.3823 42.7605 50.3983 42.7605C50.4196 42.7551 50.4356 42.7525 50.4463 42.7525C50.4783 42.7525 50.497 42.7685 50.5023 42.8005C50.5023 42.8325 50.497 42.8885 50.4863 42.9685C50.481 43.0431 50.473 43.1551 50.4623 43.3045C50.4516 43.4538 50.4463 43.6485 50.4463 43.8885V47.5045C50.4463 47.6858 50.4596 47.8191 50.4863 47.9045C50.513 47.9845 50.5556 48.0245 50.6143 48.0245C50.641 48.0245 50.6863 48.0218 50.7503 48.0165C50.8196 48.0111 50.889 48.0058 50.9583 48.0005C51.0543 47.9951 51.1023 48.0191 51.1023 48.0725C51.1023 48.1098 51.089 48.1445 51.0623 48.1765C51.041 48.2031 51.017 48.2165 50.9903 48.2165C50.841 48.2378 50.6943 48.2698 50.5503 48.3125C50.4063 48.3498 50.241 48.4085 50.0543 48.4885C50.0116 48.5098 49.9823 48.5231 49.9663 48.5285C49.9556 48.5338 49.9423 48.5365 49.9263 48.5365ZM49.1183 48.0805C49.257 48.0805 49.393 48.0458 49.5263 47.9765C49.6596 47.9018 49.777 47.8058 49.8783 47.6885L49.8863 46.2485C49.8863 46.1045 49.8436 45.9631 49.7583 45.8245C49.6783 45.6858 49.5636 45.5738 49.4143 45.4885C49.2703 45.3978 49.0996 45.3525 48.9023 45.3525C48.7796 45.3525 48.641 45.3898 48.4863 45.4645C48.3316 45.5391 48.1983 45.6725 48.0863 45.8645C47.9743 46.0511 47.9183 46.3231 47.9183 46.6805C47.9183 46.9845 47.9636 47.2298 48.0543 47.4165C48.145 47.5978 48.2543 47.7365 48.3823 47.8325C48.5156 47.9285 48.649 47.9951 48.7823 48.0325C48.921 48.0645 49.033 48.0805 49.1183 48.0805ZM52.8212 48.5045C52.5279 48.5045 52.2719 48.4325 52.0532 48.2885C51.8345 48.1445 51.6639 47.9418 51.5412 47.6805C51.4185 47.4138 51.3572 47.1071 51.3572 46.7605C51.3572 46.4511 51.4265 46.1711 51.5652 45.9205C51.7092 45.6645 51.8985 45.4591 52.1332 45.3045C52.3679 45.1498 52.6239 45.0725 52.9012 45.0725C53.1145 45.0725 53.3039 45.1151 53.4692 45.2005C53.6345 45.2858 53.7625 45.4058 53.8532 45.5605C53.9492 45.7098 53.9972 45.8831 53.9972 46.0805C53.9972 46.2458 53.9172 46.3285 53.7572 46.3285H52.0692C51.9945 46.3285 51.9412 46.3498 51.9092 46.3925C51.8825 46.4298 51.8692 46.5071 51.8692 46.6245C51.8692 46.8805 51.9252 47.1151 52.0372 47.3285C52.1492 47.5365 52.2985 47.7045 52.4852 47.8325C52.6719 47.9551 52.8772 48.0165 53.1012 48.0165C53.2612 48.0165 53.4052 47.9871 53.5332 47.9285C53.6665 47.8645 53.7839 47.7738 53.8852 47.6565C53.9065 47.6298 53.9225 47.6138 53.9332 47.6085C53.9439 47.5978 53.9572 47.5925 53.9732 47.5925C54.0159 47.5925 54.0372 47.6191 54.0372 47.6725C54.0372 47.7738 53.9892 47.8858 53.8932 48.0085C53.8132 48.1098 53.7172 48.1978 53.6052 48.2725C53.4932 48.3471 53.3705 48.4031 53.2372 48.4405C53.1039 48.4831 52.9652 48.5045 52.8212 48.5045ZM52.0852 46.0805H52.8132C52.9412 46.0805 53.0505 46.0778 53.1412 46.0725C53.2319 46.0671 53.3199 46.0565 53.4052 46.0405C53.4319 46.0351 53.4479 46.0191 53.4532 45.9925C53.4639 45.9605 53.4692 45.9178 53.4692 45.8645C53.4692 45.7098 53.3999 45.5791 53.2612 45.4725C53.1279 45.3605 52.9679 45.3045 52.7812 45.3045C52.6585 45.3045 52.5359 45.3418 52.4132 45.4165C52.2905 45.4858 52.1892 45.5738 52.1092 45.6805C52.0292 45.7871 51.9892 45.8938 51.9892 46.0005C51.9892 46.0538 52.0212 46.0805 52.0852 46.0805ZM54.6264 48.4085C54.573 48.4085 54.533 48.4005 54.5064 48.3845C54.4797 48.3738 54.4664 48.3525 54.4664 48.3205C54.4664 48.2778 54.4824 48.2511 54.5144 48.2405C54.5464 48.2245 54.5917 48.2085 54.6504 48.1925C54.7517 48.1658 54.8264 48.1285 54.8744 48.0805C54.9277 48.0271 54.9544 47.9631 54.9544 47.8885V46.1685C54.9544 46.0245 54.933 45.8991 54.8904 45.7925C54.8477 45.6858 54.7597 45.6191 54.6264 45.5925C54.605 45.5871 54.5864 45.5738 54.5704 45.5525C54.5544 45.5311 54.5464 45.5098 54.5464 45.4885C54.5464 45.4351 54.5704 45.4031 54.6184 45.3925C54.757 45.3498 54.901 45.2885 55.0504 45.2085C55.205 45.1231 55.325 45.0538 55.4104 45.0005C55.4424 44.9791 55.4664 44.9658 55.4824 44.9605C55.5037 44.9498 55.5197 44.9445 55.5304 44.9445C55.557 44.9445 55.5704 44.9631 55.5704 45.0005C55.5704 45.0165 55.5677 45.0565 55.5624 45.1205C55.5624 45.1845 55.5597 45.2591 55.5544 45.3445C55.5544 45.4298 55.5517 45.5151 55.5464 45.6005C55.5464 45.6111 55.5517 45.6165 55.5624 45.6165C55.6477 45.5098 55.741 45.4165 55.8424 45.3365C55.949 45.2565 56.0557 45.1925 56.1624 45.1445C56.2744 45.0965 56.381 45.0725 56.4824 45.0725C56.5944 45.0725 56.685 45.0965 56.7544 45.1445C56.829 45.1925 56.8664 45.2538 56.8664 45.3285C56.8664 45.3818 56.8504 45.4405 56.8184 45.5045C56.7917 45.5685 56.7544 45.6245 56.7064 45.6725C56.6584 45.7205 56.6077 45.7445 56.5544 45.7445C56.5224 45.7445 56.4877 45.7391 56.4504 45.7285C56.413 45.7125 56.373 45.6938 56.3304 45.6725C56.2877 45.6565 56.245 45.6405 56.2024 45.6245C56.1597 45.6085 56.117 45.6005 56.0744 45.6005C55.9464 45.6005 55.821 45.6458 55.6984 45.7365C55.581 45.8271 55.5224 46.0058 55.5224 46.2725V47.8885C55.5224 47.9578 55.5597 48.0165 55.6344 48.0645C55.709 48.1071 55.813 48.1498 55.9464 48.1925C56.005 48.2085 56.0504 48.2245 56.0824 48.2405C56.1144 48.2565 56.1304 48.2831 56.1304 48.3205C56.1304 48.3791 56.077 48.4085 55.9704 48.4085C55.8104 48.4085 55.6877 48.4005 55.6024 48.3845C55.5224 48.3738 55.413 48.3685 55.2744 48.3685C55.1837 48.3685 55.109 48.3711 55.0504 48.3765C54.997 48.3818 54.9384 48.3871 54.8744 48.3925C54.8157 48.4031 54.733 48.4085 54.6264 48.4085ZM57.8263 48.4965C57.7089 48.4965 57.6049 48.4538 57.5143 48.3685C57.4289 48.2778 57.3863 48.1738 57.3863 48.0565C57.3863 47.9338 57.4289 47.8298 57.5143 47.7445C57.6049 47.6591 57.7089 47.6165 57.8263 47.6165C57.9489 47.6165 58.0529 47.6591 58.1383 47.7445C58.2236 47.8298 58.2663 47.9338 58.2663 48.0565C58.2663 48.1738 58.2236 48.2778 58.1383 48.3685C58.0529 48.4538 57.9489 48.4965 57.8263 48.4965ZM60.2509 48.5045C59.9842 48.5045 59.7415 48.4378 59.5229 48.3045C59.3095 48.1658 59.1389 47.9791 59.0109 47.7445C58.8882 47.5045 58.8269 47.2378 58.8269 46.9445C58.8269 46.5978 58.9015 46.2831 59.0509 46.0005C59.2055 45.7178 59.4109 45.4938 59.6669 45.3285C59.9229 45.1578 60.2055 45.0725 60.5149 45.0725C60.8615 45.0725 61.1655 45.1658 61.4269 45.3525C61.4909 45.4005 61.5229 45.4511 61.5229 45.5045C61.5229 45.5471 61.5042 45.5951 61.4669 45.6485C61.4295 45.7018 61.3842 45.7471 61.3309 45.7845C61.2775 45.8165 61.2269 45.8325 61.1789 45.8325C61.1522 45.8325 61.1255 45.8245 61.0989 45.8085C61.0722 45.7871 61.0429 45.7658 61.0109 45.7445C60.8935 45.6538 60.7629 45.5685 60.6189 45.4885C60.4749 45.4085 60.3549 45.3685 60.2589 45.3685C59.9975 45.3685 59.7842 45.4911 59.6189 45.7365C59.4589 45.9765 59.3789 46.2938 59.3789 46.6885C59.3789 46.9391 59.4322 47.1658 59.5389 47.3685C59.6509 47.5711 59.7975 47.7311 59.9789 47.8485C60.1655 47.9658 60.3709 48.0245 60.5949 48.0245C60.7495 48.0245 60.8829 48.0005 60.9949 47.9525C61.1069 47.8991 61.2269 47.8085 61.3549 47.6805C61.3655 47.6698 61.3789 47.6618 61.3949 47.6565C61.4109 47.6458 61.4242 47.6405 61.4349 47.6405C61.4935 47.6405 61.5229 47.6778 61.5229 47.7525C61.5229 47.7845 61.5122 47.8218 61.4909 47.8645C61.4749 47.9018 61.4455 47.9471 61.4029 48.0005C61.3175 48.1071 61.2162 48.2005 61.0989 48.2805C60.9815 48.3551 60.8509 48.4111 60.7069 48.4485C60.5682 48.4858 60.4162 48.5045 60.2509 48.5045ZM63.5204 48.4965C63.2218 48.4965 62.9524 48.4271 62.7124 48.2885C62.4724 48.1498 62.2804 47.9605 62.1364 47.7205C61.9978 47.4751 61.9284 47.1978 61.9284 46.8885C61.9284 46.6645 61.9711 46.4458 62.0564 46.2325C62.1471 46.0191 62.2724 45.8245 62.4324 45.6485C62.5924 45.4725 62.7791 45.3338 62.9924 45.2325C63.2058 45.1258 63.4351 45.0725 63.6804 45.0725C63.9898 45.0725 64.2671 45.1471 64.5124 45.2965C64.7631 45.4458 64.9604 45.6431 65.1044 45.8885C65.2538 46.1285 65.3284 46.3925 65.3284 46.6805C65.3284 46.9898 65.2591 47.2831 65.1204 47.5605C64.9871 47.8378 64.7871 48.0645 64.5204 48.2405C64.2538 48.4111 63.9204 48.4965 63.5204 48.4965ZM63.6884 48.2565C63.8698 48.2565 64.0324 48.2218 64.1764 48.1525C64.3204 48.0831 64.4324 47.9711 64.5124 47.8165C64.5764 47.6938 64.6191 47.5445 64.6404 47.3685C64.6618 47.1925 64.6724 47.0271 64.6724 46.8725C64.6724 46.6165 64.6244 46.3711 64.5284 46.1365C64.4378 45.8965 64.3071 45.7018 64.1364 45.5525C63.9711 45.3978 63.7738 45.3205 63.5444 45.3205C63.4004 45.3205 63.2698 45.3445 63.1524 45.3925C63.0404 45.4351 62.9364 45.5178 62.8404 45.6405C62.7338 45.7738 62.6644 45.9365 62.6324 46.1285C62.6004 46.3205 62.5844 46.5125 62.5844 46.7045C62.5844 46.9658 62.6324 47.2165 62.7284 47.4565C62.8244 47.6911 62.9551 47.8831 63.1204 48.0325C63.2858 48.1818 63.4751 48.2565 63.6884 48.2565ZM65.9614 48.4085C65.9187 48.4085 65.8814 48.4031 65.8494 48.3925C65.8174 48.3818 65.8014 48.3578 65.8014 48.3205C65.8014 48.2831 65.8174 48.2565 65.8494 48.2405C65.8867 48.2245 65.932 48.2085 65.9854 48.1925C66.06 48.1658 66.1347 48.1365 66.2094 48.1045C66.2894 48.0671 66.3294 47.9951 66.3294 47.8885V46.1685C66.3294 46.0245 66.3134 45.8991 66.2814 45.7925C66.2494 45.6805 66.164 45.6138 66.0254 45.5925C66.004 45.5871 65.9854 45.5765 65.9694 45.5605C65.9587 45.5445 65.9534 45.5205 65.9534 45.4885C65.9534 45.4351 65.9747 45.4031 66.0174 45.3925C66.1614 45.3551 66.276 45.3178 66.3614 45.2805C66.4467 45.2378 66.5214 45.1925 66.5854 45.1445C66.6547 45.0911 66.7374 45.0351 66.8334 44.9765C66.844 44.9711 66.8547 44.9658 66.8654 44.9605C66.876 44.9498 66.8894 44.9445 66.9054 44.9445C66.9374 44.9445 66.9534 44.9631 66.9534 45.0005C66.9534 45.0378 66.9454 45.1151 66.9294 45.2325C66.9187 45.3445 66.9134 45.4378 66.9134 45.5125C66.9134 45.5658 66.9187 45.5978 66.9294 45.6085H66.9454C67.068 45.4911 67.228 45.3738 67.4254 45.2565C67.628 45.1338 67.884 45.0725 68.1934 45.0725C68.3854 45.0725 68.5454 45.1151 68.6734 45.2005C68.8014 45.2805 68.908 45.4218 68.9934 45.6245H69.0174C69.188 45.4698 69.3827 45.3391 69.6014 45.2325C69.82 45.1258 70.06 45.0725 70.3214 45.0725C70.4974 45.0725 70.644 45.1258 70.7614 45.2325C70.8787 45.3391 70.9667 45.4778 71.0254 45.6485C71.0894 45.8191 71.1214 45.9978 71.1214 46.1845V47.8885C71.1214 47.9951 71.1587 48.0671 71.2334 48.1045C71.308 48.1365 71.3854 48.1658 71.4654 48.1925C71.5187 48.2085 71.5614 48.2245 71.5934 48.2405C71.6307 48.2565 71.6494 48.2831 71.6494 48.3205C71.6494 48.3525 71.636 48.3738 71.6094 48.3845C71.588 48.4005 71.548 48.4085 71.4894 48.4085C71.3827 48.4085 71.3 48.4031 71.2414 48.3925C71.1827 48.3871 71.1267 48.3818 71.0734 48.3765C71.0254 48.3711 70.9534 48.3685 70.8574 48.3685C70.7667 48.3685 70.692 48.3711 70.6334 48.3765C70.5747 48.3818 70.5134 48.3871 70.4494 48.3925C70.3854 48.4031 70.3 48.4085 70.1934 48.4085C70.1454 48.4085 70.1054 48.4005 70.0734 48.3845C70.0467 48.3738 70.0334 48.3525 70.0334 48.3205C70.0334 48.2778 70.0494 48.2485 70.0814 48.2325C70.1187 48.2165 70.164 48.2031 70.2174 48.1925C70.3027 48.1711 70.38 48.1418 70.4494 48.1045C70.524 48.0671 70.5614 47.9951 70.5614 47.8885V46.2085C70.5614 46.0805 70.532 45.9605 70.4734 45.8485C70.4147 45.7311 70.3374 45.6351 70.2414 45.5605C70.1454 45.4858 70.0387 45.4485 69.9214 45.4485C69.788 45.4485 69.6627 45.4645 69.5454 45.4965C69.4334 45.5285 69.3267 45.5845 69.2254 45.6645C69.076 45.7818 69.0014 45.9738 69.0014 46.2405V47.8885C69.0014 47.9951 69.0414 48.0671 69.1214 48.1045C69.2014 48.1418 69.2814 48.1711 69.3614 48.1925C69.4147 48.2031 69.4574 48.2191 69.4894 48.2405C69.5267 48.2565 69.5454 48.2831 69.5454 48.3205C69.5454 48.3525 69.532 48.3738 69.5054 48.3845C69.4787 48.4005 69.4387 48.4085 69.3854 48.4085C69.2787 48.4085 69.1934 48.4031 69.1294 48.3925C69.0707 48.3871 69.012 48.3818 68.9534 48.3765C68.9 48.3711 68.8254 48.3685 68.7294 48.3685C68.6387 48.3685 68.564 48.3711 68.5054 48.3765C68.4467 48.3818 68.3854 48.3871 68.3214 48.3925C68.2574 48.4031 68.172 48.4085 68.0654 48.4085C68.0227 48.4085 67.9854 48.4005 67.9534 48.3845C67.9214 48.3738 67.9054 48.3525 67.9054 48.3205C67.9054 48.2778 67.924 48.2511 67.9614 48.2405C68.004 48.2245 68.0467 48.2085 68.0894 48.1925C68.1694 48.1658 68.2467 48.1365 68.3214 48.1045C68.4014 48.0671 68.4414 47.9951 68.4414 47.8885V46.2085C68.4414 46.0805 68.412 45.9605 68.3534 45.8485C68.2947 45.7311 68.2174 45.6351 68.1214 45.5605C68.0254 45.4858 67.9187 45.4485 67.8014 45.4485C67.668 45.4485 67.5427 45.4645 67.4254 45.4965C67.3134 45.5285 67.2067 45.5845 67.1054 45.6645C66.9614 45.7711 66.8894 45.9631 66.8894 46.2405V47.8885C66.8894 47.9951 66.9267 48.0671 67.0014 48.1045C67.076 48.1365 67.1534 48.1658 67.2334 48.1925C67.276 48.2085 67.316 48.2245 67.3534 48.2405C67.396 48.2511 67.4174 48.2778 67.4174 48.3205C67.4174 48.3525 67.4014 48.3738 67.3694 48.3845C67.3427 48.4005 67.3054 48.4085 67.2574 48.4085C67.1507 48.4085 67.0654 48.4031 67.0014 48.3925C66.9427 48.3871 66.8867 48.3818 66.8334 48.3765C66.78 48.3711 66.7054 48.3685 66.6094 48.3685C66.5187 48.3685 66.444 48.3711 66.3854 48.3765C66.332 48.3818 66.2734 48.3871 66.2094 48.3925C66.1507 48.4031 66.068 48.4085 65.9614 48.4085Z" fill="white"/>
</g>
<defs>
<clipPath id="clip0_14_147">
<rect width="90.41" height="53.87" fill="white"/>
</clipPath>
</defs>
</svg>
