<svg width="155" height="54" viewBox="0 0 155 54" fill="none" xmlns="http://www.w3.org/2000/svg">
<rect width="154.037" height="53.871" rx="8.77719" fill="#1D0C39"/>
<g clip-path="url(#clip0_1631_6258)">
<path d="M119.895 18.3301V35.5801H128.395C130.77 35.5801 132.145 35.2051 133.145 34.3301C134.395 33.2051 135.02 31.2051 135.02 26.9551C135.02 22.7051 134.395 20.7051 133.145 19.5801C132.145 18.7051 130.77 18.3301 128.395 18.3301H119.895ZM131.52 26.9551C131.52 30.7051 131.27 31.5801 130.52 32.0801C130.02 32.4551 129.395 32.5801 128.145 32.5801H123.395V21.2051H128.145C129.395 21.2051 130.02 21.2051 130.52 21.7051C131.27 22.3301 131.52 23.2051 131.52 26.9551ZM139.395 39.3931H114.457V14.4551H139.395V39.3931ZM94.0825 21.2051V18.3301H108.833V23.8301H105.707V21.2051H99.7065V25.3301H104.457V28.0801H99.7065V32.7051H105.833V29.7051H108.957V35.5801H94.0835V32.7051H96.4575V21.2051H94.0825ZM80.7075 31.0801C80.7075 32.9551 80.8315 34.3301 81.0815 35.4551H84.4575C84.3315 34.5801 84.2075 32.9551 84.2075 30.8301C84.0815 28.3301 83.3315 27.9551 81.5815 27.5801C83.5815 27.2051 84.4575 26.3301 84.4575 23.2051C84.4575 20.7051 84.0815 19.7051 83.3315 19.0801C82.8315 18.5801 81.9575 18.3301 80.5815 18.3301H70.0815V35.5801H73.5815V28.8301H78.4575C79.4575 28.8301 79.8315 28.9551 80.2075 29.2051C80.5835 29.4551 80.7075 29.8301 80.7075 31.0801ZM73.5815 26.0801V21.3301H79.2075C79.9575 21.3301 80.2075 21.4551 80.3315 21.5801C80.5815 21.8301 80.8315 22.2051 80.8315 23.7051C80.8315 25.2051 80.5815 25.7051 80.3315 25.9551C80.2075 26.0801 79.9575 26.2051 79.2075 26.2051L73.5815 26.0801ZM89.4575 39.3931H64.4575V14.4551H89.3945V39.3931H89.4575ZM57.9575 32.7051V35.5801H46.0815V32.7051H50.3315V21.2051H46.0815V18.3301H57.9565V21.2051H53.7065V32.7051H57.9575ZM37.8945 18.3301H34.6445L32.2695 31.9551L29.5195 19.3301C29.3945 18.4551 29.0195 18.3301 28.2695 18.3301H26.5195C25.7695 18.3301 25.3945 18.5801 25.2695 19.3301L22.5195 31.9551L20.1445 18.3301H16.6445L20.0195 34.7051C20.1445 35.4551 20.3945 35.5801 21.2695 35.5801H23.6445C24.3945 35.5801 24.6445 35.4551 24.8945 34.7051L27.5195 22.8301L30.1445 34.7051C30.2695 35.4551 30.5195 35.5801 31.3945 35.5801H33.6445C34.3945 35.5801 34.7695 35.4551 34.8945 34.7051L37.8945 18.3301ZM39.6445 39.3931H14.6445V14.4551H39.5825V39.3931H39.6445Z" fill="white"/>
</g>
<defs>
<clipPath id="clip0_1631_6258">
<rect width="124.78" height="24.98" fill="white" transform="translate(14.6289 14.4453)"/>
</clipPath>
</defs>
</svg>
