<svg width="24" height="24" viewBox="0 0 24 24" fill="none" xmlns="http://www.w3.org/2000/svg">
<path d="M11.5113 2.79348C11.6218 2.40386 12.3134 2.40153 12.4265 2.79039C12.9428 4.56609 13.9004 7.19078 15.3483 8.62898C16.7963 10.0672 19.4274 11.0069 21.2065 11.5113C21.5961 11.6218 21.5985 12.3134 21.2096 12.4265C19.4339 12.9428 16.8092 13.9004 15.371 15.3483C13.9328 16.7963 12.9931 19.4274 12.4887 21.2065C12.3782 21.5961 11.6866 21.5985 11.5735 21.2096C11.0572 19.4339 10.0996 16.8092 8.65168 15.371C7.20373 13.9328 4.57263 12.993 2.79348 12.4887C2.40386 12.3782 2.40153 11.6866 2.79039 11.5735C4.56609 11.0572 7.19078 10.0996 8.62898 8.65168C10.0672 7.20373 11.007 4.57263 11.5113 2.79348Z" fill="white"/>
<path opacity="0.5" d="M4.31997 1.10812C4.36066 0.964581 4.61545 0.96372 4.65711 1.10698C4.84737 1.76119 5.20014 2.72818 5.73359 3.25804C6.26705 3.78791 7.2364 4.13414 7.89188 4.31997C8.03542 4.36066 8.03628 4.61545 7.89302 4.65711C7.23881 4.84736 6.27182 5.20014 5.74196 5.73359C5.21209 6.26705 4.86586 7.2364 4.68003 7.89188C4.63934 8.03542 4.38455 8.03628 4.34289 7.89302C4.15264 7.23881 3.79986 6.27182 3.26641 5.74196C2.73295 5.21209 1.7636 4.86586 1.10812 4.68003C0.964581 4.63934 0.963721 4.38455 1.10698 4.34289C1.76119 4.15263 2.72818 3.79986 3.25805 3.26641C3.78791 2.73295 4.13414 1.7636 4.31997 1.10812Z" fill="white"/>
</svg>
