<svg width="25" height="24" viewBox="0 0 25 24" fill="none" xmlns="http://www.w3.org/2000/svg">
<path fill-rule="evenodd" clip-rule="evenodd" d="M3.87752 5.08241C3.5 5.62028 3.5 7.21907 3.5 10.4167V11.9914C3.5 17.6294 7.73896 20.3655 10.3986 21.5273C11.12 21.8424 11.4807 22 12.5 22V2C11.6886 2 10.905 2.26824 9.33772 2.80472L8.76491 3.00079C5.75832 4.02996 4.25503 4.54454 3.87752 5.08241Z" fill="white"/>
<path opacity="0.5" d="M21.5 11.9914V10.4167C21.5 7.21907 21.5 5.62028 21.1225 5.08241C20.745 4.54454 19.2417 4.02996 16.2351 3.00079L15.6623 2.80472C14.095 2.26824 13.3114 2 12.5 2V22C13.5193 22 13.88 21.8424 14.6014 21.5273C17.261 20.3655 21.5 17.6294 21.5 11.9914Z" fill="white"/>
</svg>
