<svg width="326" height="167" viewBox="0 0 326 167" fill="none" xmlns="http://www.w3.org/2000/svg">
<g filter="url(#filter0_d_1068_187)">
<path d="M69.8143 55.3887C71.1144 55.3887 71.7644 56.0193 71.7644 57.2804V134.68C71.7644 135.346 71.5322 135.905 71.0772 136.346C70.6222 136.788 70.0464 137.013 69.3593 137.013H49.8398C51.1399 136.788 52.2542 136.067 53.1736 134.842C54.0929 133.617 54.5479 132.302 54.5479 130.887V64.2889C54.5479 62.8836 54.0929 61.5594 53.1736 60.3343C52.2542 59.1091 51.1399 58.3885 49.8398 58.1633L69.4707 55.3797H69.8143V55.3887ZM80.029 55.3887C83.1678 55.0914 86.3065 55.4788 89.4452 56.5598C92.5839 57.6408 95.3976 59.3253 97.8863 61.6225C100.375 63.9286 102.399 66.7482 103.969 70.0903C105.538 73.4323 106.318 77.1798 106.318 81.3416C106.318 85.5035 105.724 89.0437 104.535 92.1966C103.347 95.3495 101.777 98.0971 99.8271 100.439C97.877 102.781 95.6762 104.763 93.2246 106.394C90.7731 108.024 88.2844 109.421 85.7586 110.574C83.2328 111.727 80.7812 112.673 78.4132 113.411C76.036 114.15 74.0116 114.78 72.3308 115.303C74.3181 114.258 76.3332 112.889 78.3575 111.186C80.3819 109.484 82.202 107.331 83.8085 104.727C85.415 102.133 86.7336 99.0069 87.7644 95.3766C88.7951 91.7372 89.3152 87.3952 89.3152 82.3506C89.3152 78.9364 88.953 75.6844 88.2287 72.6036C87.5044 69.5227 86.5293 66.8112 85.3036 64.4781C84.0778 62.1359 82.6477 60.2802 80.9948 58.9109C79.3511 57.5417 77.5682 56.8481 75.6553 56.8481C74.4295 56.8481 73.3245 57.0733 72.3308 57.5147C74.4016 56.4787 76.9646 55.7671 80.0198 55.3977L80.029 55.3887Z" fill="white"/>
<path d="M119.981 105.061C119.981 106.251 120.724 107.323 122.219 108.286C123.714 109.25 125.562 109.737 127.791 109.737C130.316 109.737 132.61 109.439 134.681 108.845C131.997 109.737 129.128 110.313 126.073 110.575C123.008 110.836 120.194 110.52 117.632 109.629C115.069 108.737 112.942 107.178 111.261 104.953C109.58 102.728 108.735 99.5393 108.735 95.3775V64.3079C108.735 62.9026 108.28 61.5783 107.361 60.3532C106.442 59.1281 105.327 58.4074 104.027 58.1822L123.658 55.3987H124.002C125.302 55.3987 125.952 56.0292 125.952 57.2904V93.8191C125.952 95.2334 125.645 96.4225 125.033 97.3864C124.42 98.3502 123.732 99.2241 122.962 100.008C122.191 100.791 121.504 101.566 120.891 102.35C120.278 103.134 119.972 104.043 119.972 105.079L119.981 105.061ZM156.141 101.719C156.141 103.053 156.596 104.359 157.515 105.62C158.435 106.881 159.54 107.629 160.84 107.845L141.209 110.629H140.865C140.327 110.629 139.872 110.439 139.491 110.07C139.11 109.701 138.915 109.25 138.915 108.737V64.2989C138.915 62.8936 138.46 61.5693 137.541 60.3442C136.622 59.1191 135.517 58.3984 134.217 58.1732L153.847 55.3896H154.191C155.491 55.3896 156.141 56.0202 156.141 57.2814V101.719Z" fill="white"/>
<path d="M181.854 107.844C182.773 109.105 183.878 109.853 185.187 110.069H158.555C159.855 109.844 160.969 109.105 161.888 107.844C162.808 106.583 163.263 105.286 163.263 103.944V41.0205C163.263 39.6873 162.808 38.3901 161.888 37.1199C160.969 35.8588 159.855 35.1111 158.555 34.8949L178.186 32.1113H178.529C179.142 32.1113 179.616 32.3005 179.968 32.6699C180.312 33.0392 180.489 33.5256 180.489 34.1202V103.944C180.489 105.277 180.944 106.583 181.863 107.844H181.854Z" fill="white"/>
<path d="M226.165 95.0345C226.314 97.2595 225.84 99.3224 224.726 101.214C223.612 103.106 222.042 104.745 220.018 106.115C217.994 107.493 215.635 108.583 212.961 109.403C210.277 110.222 207.454 110.628 204.464 110.628C206.535 110.628 208.29 109.808 209.748 108.178C211.196 106.547 211.93 104.727 211.93 102.719C211.93 100.863 211.224 99.0612 209.803 97.3136C208.383 95.566 206.59 93.8274 204.408 92.0798C202.226 90.3322 199.895 88.5395 197.406 86.6748C194.918 84.8191 192.587 82.8913 190.405 80.8824C188.222 78.8736 186.421 76.7657 185.009 74.5316C183.589 72.3066 182.883 69.8923 182.883 67.2889C182.883 65.0639 183.496 63.1361 184.721 61.4966C185.947 59.8661 187.498 58.5058 189.374 57.4338C191.25 56.3618 193.339 55.5601 195.633 55.0376C197.926 54.5151 200.146 54.2539 202.291 54.2539H204.185C204.761 54.2539 205.355 54.326 205.968 54.4791C203.897 54.1818 202.124 54.6503 200.629 55.8754C199.134 57.1005 198.391 58.9382 198.391 61.3885C198.391 63.3883 199.041 65.253 200.341 66.9556C201.641 68.6672 203.284 70.3337 205.281 71.9642C207.268 73.5947 209.432 75.2523 211.763 76.9188C214.093 78.5853 216.294 80.3329 218.365 82.1526C220.436 83.9723 222.191 85.9361 223.649 88.0531C225.098 90.17 225.943 92.4941 226.175 95.0165L226.165 95.0345ZM195.289 106.169C195.438 107.214 196.106 108.16 197.295 109.006C198.484 109.862 200.146 110.358 202.291 110.511C199.607 110.358 197.109 109.88 194.769 109.06C192.438 108.241 190.386 107.205 188.631 105.944C186.867 104.682 185.474 103.214 184.443 101.547C183.412 99.881 182.892 98.0793 182.892 96.1425C182.892 93.7643 183.756 91.7465 185.474 90.0709C187.192 88.4044 189.281 87.5666 191.732 87.5666C192.958 87.5666 194.119 87.7918 195.233 88.2332C196.338 88.6746 197.304 89.2872 198.103 90.0709C198.911 90.8546 199.542 91.7645 199.997 92.8004C200.452 93.8454 200.684 94.9534 200.684 96.1425C200.684 97.4757 200.396 98.7279 199.821 99.8719C199.245 101.025 198.465 102.007 197.471 102.827C196.858 103.349 196.32 103.881 195.865 104.439C195.41 104.998 195.215 105.574 195.289 106.169ZM222.377 73.874C222.07 72.2435 221.587 70.4058 220.947 68.3609C220.297 66.316 219.377 64.3702 218.189 62.5145C217 60.6588 215.505 59.0103 213.713 57.56C211.911 56.1096 209.71 55.1277 207.11 54.6052C208.336 54.8304 209.46 55.0917 210.5 55.389C211.531 55.6862 212.506 55.9835 213.425 56.2808C214.344 56.578 215.245 56.8033 216.118 56.9474C217 57.1005 217.938 57.1366 218.932 57.0555C219.544 56.9834 220.213 56.8303 220.937 56.6141C221.662 56.3889 222.145 56.1276 222.367 55.8304V73.874H222.377Z" fill="white"/>
<path d="M260.145 103.493C262.364 103.493 264.546 102.953 266.691 101.881C268.836 100.809 270.712 99.3042 272.319 97.3674C270.025 101.376 266.923 104.592 263.023 106.997C259.123 109.412 254.833 110.619 250.162 110.619C246.559 110.619 243.179 109.88 240.003 108.394C236.827 106.907 234.051 104.907 231.683 102.376C229.305 99.8537 227.439 96.881 226.055 93.4668C224.681 90.0527 223.984 86.3773 223.984 82.4407C223.984 78.504 224.672 74.9277 226.055 71.4685C227.43 68.0184 229.305 65.0276 231.683 62.5053C234.051 59.983 236.827 57.9741 240.003 56.4877C243.179 55.0014 246.568 54.2627 250.162 54.2627C249.401 54.4158 248.5 55.1005 247.46 56.3256C246.429 57.5507 245.454 59.1632 244.535 61.1721C243.615 63.1719 242.835 65.496 242.185 68.1355C241.535 70.7749 241.21 73.5765 241.21 76.5402C241.21 80.2516 241.712 83.7469 242.705 87.0079C243.699 90.2779 245.055 93.1335 246.782 95.5838C248.5 98.034 250.515 99.9618 252.808 101.376C255.102 102.79 257.554 103.493 260.154 103.493H260.145ZM258.77 73.3153C258.77 71.0902 258.575 68.9192 258.194 66.8023C257.814 64.6853 257.312 62.7755 256.699 61.064C256.086 59.3614 255.344 57.9111 254.461 56.722C253.579 55.5329 252.641 54.7131 251.648 54.2717C254.554 54.4969 257.275 55.1995 259.801 56.3886C262.327 57.5777 264.583 59.1362 266.571 61.064C268.558 62.9917 270.22 65.2618 271.566 67.8562C272.904 70.4596 273.879 73.2792 274.492 76.324H255.548C256.393 76.324 257.136 76.0268 257.786 75.4322C258.436 74.8377 258.761 74.135 258.761 73.3153H258.77Z" fill="white"/>
<path d="M168.618 115.123H171.738C172.397 115.123 172.88 115.276 173.177 115.573C173.475 115.88 173.632 116.249 173.632 116.69C173.632 117.069 173.54 117.411 173.363 117.699C173.177 117.988 172.964 118.213 172.713 118.384C172.462 118.546 172.23 118.654 172.026 118.699L172.007 118.762C172.175 118.78 172.37 118.834 172.583 118.934C172.797 119.033 172.982 119.186 173.15 119.402C173.317 119.618 173.391 119.879 173.391 120.204C173.391 120.627 173.27 121.032 173.038 121.42C172.806 121.807 172.472 122.113 172.045 122.348C171.617 122.582 171.134 122.699 170.605 122.699H167.309L168.637 115.132L168.618 115.123ZM170.475 121.906C171.069 121.906 171.543 121.753 171.905 121.456C172.258 121.15 172.444 120.744 172.444 120.231C172.444 119.852 172.305 119.591 172.026 119.429C171.747 119.267 171.394 119.186 170.977 119.186H168.85L168.367 121.906H170.484H170.475ZM170.865 118.447C171.218 118.447 171.525 118.384 171.803 118.249C172.082 118.114 172.295 117.934 172.453 117.69C172.611 117.456 172.685 117.186 172.685 116.889C172.685 116.546 172.555 116.303 172.305 116.15C172.054 115.997 171.72 115.916 171.329 115.916H169.426L168.971 118.447H170.874H170.865Z" fill="white"/>
<path d="M178.703 122.708L179.186 119.96L177.496 115.132H178.545L179.818 118.915H179.892L182.492 115.132H183.541L180.161 119.96L179.678 122.699H178.713L178.703 122.708Z" fill="white"/>
<path d="M197.776 120.286C197.432 120.997 196.968 121.565 196.383 121.997L197.219 123.303H196.29L195.714 122.394C195.194 122.646 194.628 122.772 194.006 122.772C193.059 122.772 192.343 122.502 191.842 121.97C191.341 121.439 191.09 120.718 191.09 119.817C191.09 118.916 191.276 118.097 191.656 117.358C192.028 116.619 192.548 116.034 193.207 115.61C193.866 115.178 194.591 114.971 195.389 114.971C196.327 114.971 197.042 115.241 197.544 115.772C198.045 116.313 198.296 117.034 198.296 117.943C198.296 118.79 198.129 119.574 197.785 120.286H197.776ZM195.259 121.664L194.052 119.781H194.981L195.919 121.24C196.337 120.898 196.662 120.439 196.903 119.88C197.144 119.322 197.265 118.718 197.265 118.061C197.265 117.367 197.089 116.817 196.736 116.421C196.383 116.016 195.881 115.817 195.241 115.817C194.665 115.817 194.145 115.989 193.671 116.331C193.198 116.673 192.817 117.142 192.538 117.727C192.26 118.322 192.121 118.961 192.121 119.664C192.121 120.367 192.297 120.889 192.65 121.295C193.003 121.7 193.504 121.898 194.164 121.898C194.535 121.898 194.906 121.817 195.269 121.664H195.259Z" fill="white"/>
<path d="M202.343 122.149C201.906 121.717 201.684 121.104 201.684 120.303C201.684 120.032 201.711 119.726 201.776 119.366L202.519 115.132H203.467L202.724 119.339C202.668 119.654 202.649 119.915 202.649 120.104C202.649 120.609 202.779 121.032 203.039 121.384C203.299 121.726 203.764 121.906 204.423 121.906C205.268 121.906 205.881 121.636 206.252 121.104C206.624 120.573 206.875 119.987 206.995 119.339L207.738 115.132H208.685L207.942 119.366C207.747 120.465 207.339 121.303 206.698 121.897C206.057 122.492 205.259 122.789 204.274 122.789C203.429 122.789 202.789 122.573 202.343 122.149Z" fill="white"/>
<path d="M217.326 118.168C217.14 118.537 216.862 118.852 216.5 119.105C216.137 119.357 215.701 119.537 215.199 119.627L216.713 122.699H215.655L214.187 119.681H212.785L212.265 122.699H211.309L212.637 115.132H215.292C216.1 115.132 216.695 115.312 217.066 115.663C217.437 116.024 217.632 116.465 217.632 116.997C217.632 117.411 217.54 117.798 217.345 118.168H217.326ZM216.082 118.393C216.472 118.069 216.667 117.645 216.667 117.105C216.667 116.69 216.509 116.393 216.193 116.222C215.877 116.051 215.478 115.97 215.004 115.97H213.435L212.924 118.879H214.494C215.162 118.879 215.692 118.717 216.082 118.402V118.393Z" fill="white"/>
<path d="M225.349 120.492H222.173L220.957 122.699H219.973L224.226 115.132H225.136L226.761 122.699H225.776L225.331 120.492H225.349ZM225.201 119.744L224.514 116.321H224.467L222.582 119.744H225.201Z" fill="white"/>
<path d="M231.693 115.123H232.77L235.881 121.195H235.918L236.995 115.123H237.942L236.614 122.69H235.519L232.408 116.699H232.361L231.303 122.69H230.355L231.683 115.123H231.693Z" fill="white"/>
<path d="M242.015 115.123H242.981L241.653 122.69H240.688L242.015 115.123Z" fill="white"/>
<path d="M246.792 122.149C246.356 121.717 246.133 121.104 246.133 120.303C246.133 120.032 246.161 119.726 246.226 119.366L246.969 115.132H247.916L247.173 119.339C247.117 119.654 247.099 119.915 247.099 120.104C247.099 120.609 247.229 121.032 247.489 121.384C247.749 121.726 248.213 121.906 248.872 121.906C249.717 121.906 250.33 121.636 250.702 121.104C251.073 120.573 251.324 119.987 251.444 119.339L252.187 115.132H253.135L252.392 119.366C252.197 120.465 251.788 121.303 251.147 121.897C250.507 122.492 249.708 122.789 248.724 122.789C247.879 122.789 247.238 122.573 246.792 122.149Z" fill="white"/>
<path d="M257.06 115.123H258.471L259.762 120.915H259.799L263.142 115.123H264.554L263.226 122.69H262.279L263.356 116.564H263.309L259.809 122.69H259.121L257.793 116.564H257.747L256.67 122.69H255.723L257.051 115.123H257.06Z" fill="white"/>
<path d="M276.163 34.7061C267.099 36.3276 265.753 37.6338 264.081 46.4259C262.41 37.6338 261.063 36.3276 252 34.7061C261.063 33.0846 262.41 31.7784 264.081 22.9863C265.753 31.7784 267.099 33.0846 276.163 34.7061Z" fill="url(#paint0_linear_1068_187)"/>
</g>
<defs>
<filter id="filter0_d_1068_187" x="23.6428" y="0.0639243" width="278.718" height="166.42" filterUnits="userSpaceOnUse" color-interpolation-filters="sRGB">
<feFlood flood-opacity="0" result="BackgroundImageFix"/>
<feColorMatrix in="SourceAlpha" type="matrix" values="0 0 0 0 0 0 0 0 0 0 0 0 0 0 0 0 0 0 127 0" result="hardAlpha"/>
<feOffset dy="3.27463"/>
<feGaussianBlur stdDeviation="13.0985"/>
<feComposite in2="hardAlpha" operator="out"/>
<feColorMatrix type="matrix" values="0 0 0 0 0 0 0 0 0 0 0 0 0 0 0 0 0 0 0.1 0"/>
<feBlend mode="normal" in2="BackgroundImageFix" result="effect1_dropShadow_1068_187"/>
<feBlend mode="normal" in="SourceGraphic" in2="effect1_dropShadow_1068_187" result="shape"/>
</filter>
<linearGradient id="paint0_linear_1068_187" x1="252" y1="34.7061" x2="276.163" y2="34.7061" gradientUnits="userSpaceOnUse">
<stop stop-color="#C1202B"/>
<stop offset="0.32" stop-color="#D32635"/>
<stop offset="0.68" stop-color="#E02A3C"/>
<stop offset="1" stop-color="#E52C3F"/>
</linearGradient>
</defs>
</svg>
