<svg width="18" height="15" viewBox="0 0 18 15" fill="none" xmlns="http://www.w3.org/2000/svg">
<path d="M14.9326 1.91045C13.8268 1.39498 12.6296 1.02085 11.3825 0.804688C11.3606 0.805 11.3397 0.813965 11.3243 0.82963C11.1747 1.10399 11.0001 1.46149 10.8837 1.73585C9.5609 1.53644 8.21572 1.53644 6.89295 1.73585C6.77656 1.45318 6.60196 1.10399 6.444 0.82963C6.43568 0.813002 6.41074 0.804688 6.3858 0.804688C5.1387 1.02085 3.9498 1.39498 2.83573 1.91045C2.82742 1.91045 2.8191 1.91876 2.81079 1.92707C0.549387 5.31086 -0.0741615 8.6032 0.233456 11.8623C0.233456 11.8789 0.24177 11.8955 0.258398 11.9038C1.75491 13.0013 3.19323 13.6664 4.61492 14.1071C4.63986 14.1154 4.66481 14.1071 4.67312 14.0904C5.00568 13.6332 5.30498 13.1509 5.56272 12.6438C5.57934 12.6105 5.56272 12.5773 5.52946 12.569C5.05556 12.3861 4.60661 12.1699 4.16597 11.9205C4.13271 11.9038 4.13271 11.854 4.15765 11.829C4.24911 11.7625 4.34056 11.6877 4.43201 11.6212C4.44864 11.6045 4.47358 11.6045 4.49021 11.6129C7.35022 12.9182 10.4347 12.9182 13.2615 11.6129C13.2781 11.6045 13.303 11.6045 13.3197 11.6212C13.4111 11.696 13.5026 11.7625 13.594 11.8373C13.6273 11.8623 13.6273 11.9122 13.5857 11.9288C13.1534 12.1865 12.6961 12.3944 12.2222 12.5773C12.189 12.5856 12.1806 12.6272 12.189 12.6521C12.455 13.1593 12.7543 13.6415 13.0786 14.0987C13.1035 14.1071 13.1284 14.1154 13.1534 14.1071C14.5834 13.6664 16.0217 13.0013 17.5182 11.9038C17.5348 11.8955 17.5432 11.8789 17.5432 11.8623C17.909 8.09605 16.9362 4.82865 14.9658 1.92707C14.9575 1.91876 14.9492 1.91045 14.9326 1.91045ZM5.99504 9.87524C5.1387 9.87524 4.4237 9.08541 4.4237 8.11267C4.4237 7.13994 5.12208 6.35011 5.99504 6.35011C6.87632 6.35011 7.5747 7.14825 7.56638 8.11267C7.56638 9.08541 6.86801 9.87524 5.99504 9.87524ZM11.7899 9.87524C10.9335 9.87524 10.2185 9.08541 10.2185 8.11267C10.2185 7.13994 10.9169 6.35011 11.7899 6.35011C12.6712 6.35011 13.3695 7.14825 13.3612 8.11267C13.3612 9.08541 12.6712 9.87524 11.7899 9.87524Z" fill="url(#paint0_linear_871_1124)"/>
<defs>
<linearGradient id="paint0_linear_871_1124" x1="1.25134" y1="-8.75886" x2="5.83863" y2="11.878" gradientUnits="userSpaceOnUse">
<stop stop-color="white"/>
<stop offset="1" stop-color="#A3A3A3"/>
</linearGradient>
</defs>
</svg>
