<svg width="17" height="17" viewBox="0 0 17 17" fill="none" xmlns="http://www.w3.org/2000/svg">
<path d="M9.39201 0.310547C10.3086 0.312991 10.7739 0.31788 11.1755 0.329287L11.3336 0.33499C11.5161 0.341508 11.6962 0.349656 11.9137 0.359433C12.7806 0.400172 13.3722 0.537053 13.8912 0.738302C14.4289 0.945254 14.8819 1.22554 15.335 1.67773C15.7494 2.0849 16.07 2.57763 16.2744 3.12151C16.4756 3.64052 16.6125 4.23204 16.6533 5.09977C16.663 5.3165 16.6712 5.49657 16.6777 5.67989L16.6826 5.83796C16.6948 6.23882 16.6997 6.70406 16.7013 7.62068L16.7021 8.2285V9.29585C16.7041 9.89014 16.6979 10.4844 16.6834 11.0786L16.6785 11.2366C16.672 11.42 16.6638 11.6 16.6541 11.8167C16.6133 12.6845 16.4748 13.2752 16.2744 13.795C16.07 14.3389 15.7494 14.8316 15.335 15.2388C14.9278 15.6533 14.4351 15.9739 13.8912 16.1782C13.3722 16.3795 12.7806 16.5163 11.9137 16.5571L11.3336 16.5815L11.1755 16.5864C10.7739 16.5978 10.3086 16.6035 9.39201 16.6052L8.78419 16.606H7.71766C7.12309 16.6081 6.52852 16.6018 5.93412 16.5872L5.77606 16.5823C5.58264 16.575 5.38926 16.5666 5.19594 16.5571C4.32902 16.5163 3.7375 16.3795 3.21767 16.1782C2.67408 15.9738 2.18165 15.6532 1.77471 15.2388C1.35995 14.8317 1.03906 14.339 0.834469 13.795C0.63322 13.276 0.496338 12.6845 0.4556 11.8167L0.431157 11.2366L0.427083 11.0786C0.412063 10.4844 0.405273 9.89015 0.406713 9.29585V7.62068C0.404458 7.02638 0.410434 6.43208 0.424638 5.83796L0.430342 5.67989C0.43686 5.49657 0.445008 5.3165 0.454785 5.09977C0.495524 4.23204 0.632405 3.64133 0.833654 3.12151C1.03873 2.5774 1.36018 2.08466 1.77553 1.67773C2.18223 1.26346 2.67438 0.942869 3.21767 0.738302C3.7375 0.537053 4.32821 0.400172 5.19594 0.359433C5.41267 0.349656 5.59355 0.341508 5.77606 0.33499L5.93412 0.330101C6.52825 0.315625 7.12254 0.309378 7.71684 0.311362L9.39201 0.310547ZM8.55443 4.3844C7.47397 4.3844 6.43777 4.81361 5.67378 5.57761C4.90978 6.34161 4.48057 7.37781 4.48057 8.45826C4.48057 9.53871 4.90978 10.5749 5.67378 11.3389C6.43777 12.1029 7.47397 12.5321 8.55443 12.5321C9.63488 12.5321 10.6711 12.1029 11.4351 11.3389C12.1991 10.5749 12.6283 9.53871 12.6283 8.45826C12.6283 7.37781 12.1991 6.34161 11.4351 5.57761C10.6711 4.81361 9.63488 4.3844 8.55443 4.3844ZM8.55443 6.01395C8.87542 6.01389 9.19328 6.07706 9.48986 6.19985C9.78644 6.32264 10.0559 6.50264 10.2829 6.72958C10.51 6.95652 10.69 7.22595 10.8129 7.52249C10.9358 7.81902 10.9991 8.13686 10.9991 8.45785C10.9992 8.77884 10.936 9.0967 10.8132 9.39328C10.6905 9.68986 10.5105 9.95935 10.2835 10.1864C10.0566 10.4134 9.78715 10.5935 9.49061 10.7164C9.19407 10.8392 8.87624 10.9025 8.55524 10.9026C7.90697 10.9026 7.28525 10.6451 6.82685 10.1867C6.36845 9.72825 6.11093 9.10653 6.11093 8.45826C6.11093 7.80999 6.36845 7.18827 6.82685 6.72987C7.28525 6.27147 7.90697 6.01395 8.55524 6.01395M12.8328 3.16225C12.5627 3.16225 12.3036 3.26955 12.1126 3.46055C11.9216 3.65155 11.8143 3.9106 11.8143 4.18071C11.8143 4.45082 11.9216 4.70987 12.1126 4.90087C12.3036 5.09187 12.5627 5.19917 12.8328 5.19917C13.1029 5.19917 13.362 5.09187 13.553 4.90087C13.744 4.70987 13.8513 4.45082 13.8513 4.18071C13.8513 3.9106 13.744 3.65155 13.553 3.46055C13.362 3.26955 13.1029 3.16225 12.8328 3.16225Z" fill="url(#paint0_linear_871_1122)"/>
<defs>
<linearGradient id="paint0_linear_871_1122" x1="1.42477" y1="-11.4021" x2="8.55403" y2="13.0418" gradientUnits="userSpaceOnUse">
<stop stop-color="white"/>
<stop offset="1" stop-color="#A3A3A3"/>
</linearGradient>
</defs>
</svg>
