<svg width="17" height="17" viewBox="0 0 17 17" fill="none" xmlns="http://www.w3.org/2000/svg">
<path d="M14.2839 0.730469C14.747 0.730469 15.191 0.914415 15.5185 1.24184C15.8459 1.56927 16.0298 2.01336 16.0298 2.47641V14.698C16.0298 15.161 15.8459 15.6051 15.5185 15.9325C15.191 16.26 14.747 16.4439 14.2839 16.4439H2.06234C1.59929 16.4439 1.15521 16.26 0.82778 15.9325C0.500353 15.6051 0.316406 15.161 0.316406 14.698V2.47641C0.316406 2.01336 0.500353 1.56927 0.82778 1.24184C1.15521 0.914415 1.59929 0.730469 2.06234 0.730469H14.2839ZM13.8474 14.2615V9.63475C13.8474 8.87998 13.5476 8.15612 13.0139 7.62241C12.4802 7.08871 11.7563 6.78887 11.0015 6.78887C10.2595 6.78887 9.39528 7.24282 8.97626 7.92373V6.95474H6.54068V14.2615H8.97626V9.95775C8.97626 9.28556 9.5175 8.73559 10.1897 8.73559C10.5138 8.73559 10.8247 8.86436 11.0539 9.09356C11.2831 9.32275 11.4118 9.63361 11.4118 9.95775V14.2615H13.8474ZM3.70353 5.58418C4.09249 5.58418 4.46552 5.42966 4.74056 5.15462C5.0156 4.87958 5.17011 4.50655 5.17011 4.11759C5.17011 3.30573 4.51539 2.64227 3.70353 2.64227C3.31225 2.64227 2.93699 2.79771 2.66032 3.07438C2.38364 3.35106 2.22821 3.72631 2.22821 4.11759C2.22821 4.92945 2.89166 5.58418 3.70353 5.58418ZM4.91695 14.2615V6.95474H2.49883V14.2615H4.91695Z" fill="url(#paint0_linear_871_1116)"/>
<defs>
<linearGradient id="paint0_linear_871_1116" x1="1.2985" y1="-10.5636" x2="8.17313" y2="13.0066" gradientUnits="userSpaceOnUse">
<stop stop-color="white"/>
<stop offset="1" stop-color="#A3A3A3"/>
</linearGradient>
</defs>
</svg>
