<svg width="38" height="31" viewBox="0 0 38 31" fill="none" xmlns="http://www.w3.org/2000/svg">
<path d="M4.50192 6.324C4.5258 6.08809 4.49491 5.84976 4.41173 5.62829C4.32855 5.40681 4.19543 5.20841 4.02312 5.04912L0.473917 0.656813V0H11.4901L20.0059 19.1909L27.4919 0H37.9951V0.656813L34.9608 3.6425C34.8319 3.74345 34.7325 3.87835 34.6732 4.03268C34.614 4.187 34.5971 4.35489 34.6245 4.51825V26.4779C34.5971 26.6412 34.614 26.8091 34.6732 26.9634C34.7325 27.1178 34.8319 27.2527 34.9608 27.3536L37.9248 30.3412V31H23.0212V30.3432L26.0916 27.2819C26.3937 26.9719 26.3937 26.8809 26.3937 26.4081V8.65675L17.8589 30.9264H16.7075L6.77052 8.65675V23.5833C6.68882 24.2091 6.89212 24.8426 7.32152 25.296L11.3134 30.2715V30.9264H-0.00488281V30.2715L3.98512 25.296C4.19623 25.0714 4.35291 24.7995 4.44264 24.5021C4.53237 24.2047 4.55267 23.8901 4.50192 23.5833V6.324Z" fill="url(#paint0_linear_3105_10642)"/>
<defs>
<linearGradient id="paint0_linear_3105_10642" x1="2.37012" y1="-22.2812" x2="13.7322" y2="25.471" gradientUnits="userSpaceOnUse">
<stop stop-color="white"/>
<stop offset="1" stop-color="#A3A3A3"/>
</linearGradient>
</defs>
</svg>
