<svg width="18" height="19" viewBox="0 0 18 19" fill="none" xmlns="http://www.w3.org/2000/svg">
<path d="M7.67124 10.3688C7.67124 9.87123 7.26095 9.46094 6.76336 9.46094C6.26576 9.46094 5.85547 9.87123 5.85547 10.3688C5.85547 10.6096 5.95112 10.8405 6.12138 11.0108C6.29165 11.1811 6.52257 11.2767 6.76336 11.2767C7.00414 11.2767 7.23507 11.1811 7.40533 11.0108C7.57559 10.8405 7.67124 10.6096 7.67124 10.3688ZM10.587 12.4378C10.1941 12.8306 9.35607 12.9703 8.76246 12.9703C8.16884 12.9703 7.33079 12.8306 6.93795 12.4378C6.91672 12.415 6.89103 12.3969 6.8625 12.3845C6.83397 12.3721 6.80319 12.3657 6.77209 12.3657C6.74098 12.3657 6.7102 12.3721 6.68167 12.3845C6.65314 12.3969 6.62746 12.415 6.60622 12.4378C6.58349 12.459 6.56537 12.4847 6.55297 12.5132C6.54058 12.5417 6.53419 12.5725 6.53419 12.6036C6.53419 12.6347 6.54058 12.6655 6.55297 12.694C6.56537 12.7226 6.58349 12.7483 6.60622 12.7695C7.22603 13.3893 8.41327 13.4417 8.76246 13.4417C9.11164 13.4417 10.2989 13.3893 10.9187 12.7695C10.9414 12.7483 10.9595 12.7226 10.9719 12.694C10.9843 12.6655 10.9907 12.6347 10.9907 12.6036C10.9907 12.5725 10.9843 12.5417 10.9719 12.5132C10.9595 12.4847 10.9414 12.459 10.9187 12.4378C10.8314 12.3505 10.683 12.3505 10.587 12.4378ZM10.7616 9.46094C10.264 9.46094 9.85367 9.87123 9.85367 10.3688C9.85367 10.8664 10.264 11.2767 10.7616 11.2767C11.2591 11.2767 11.6694 10.8664 11.6694 10.3688C11.6694 9.87123 11.2679 9.46094 10.7616 9.46094Z" fill="url(#paint0_linear_871_1117)"/>
<path d="M8.76094 0.730469C3.94215 0.730469 0.03125 4.64137 0.03125 9.46016C0.03125 14.2789 3.94215 18.1898 8.76094 18.1898C13.5797 18.1898 17.4906 14.2789 17.4906 9.46016C17.4906 4.64137 13.5797 0.730469 8.76094 0.730469ZM13.8242 10.6212C13.8416 10.7434 13.8503 10.8744 13.8503 11.0053C13.8503 12.9608 11.5719 14.5496 8.76094 14.5496C5.94998 14.5496 3.67153 12.9608 3.67153 11.0053C3.67153 10.8744 3.68026 10.7434 3.69772 10.6212C3.25251 10.4204 2.94697 9.97521 2.94697 9.46016C2.94567 9.20983 3.01838 8.9647 3.15595 8.75556C3.29352 8.54642 3.48982 8.38259 3.7202 8.28466C3.95058 8.18672 4.20477 8.15905 4.45082 8.20511C4.69688 8.25117 4.92384 8.36891 5.1032 8.54354C5.9849 7.90627 7.20706 7.50471 8.56016 7.46106L9.20615 4.4144C9.21488 4.35329 9.2498 4.30091 9.30218 4.27472C9.35456 4.2398 9.41567 4.23107 9.47677 4.2398L11.5894 4.69375C11.661 4.54847 11.7702 4.425 11.9057 4.33616C12.0411 4.24732 12.1979 4.19633 12.3597 4.18849C12.5215 4.18065 12.6824 4.21625 12.8258 4.29158C12.9692 4.36691 13.0899 4.47924 13.1752 4.61691C13.2606 4.75459 13.3076 4.91259 13.3113 5.07454C13.315 5.23648 13.2753 5.39647 13.1963 5.53791C13.1173 5.67934 13.002 5.79707 12.8622 5.87889C12.7224 5.96071 12.5632 6.00363 12.4012 6.0032C11.9124 6.0032 11.5195 5.6191 11.4933 5.13896L9.59899 4.7374L9.02283 7.46106C10.3585 7.50471 11.5544 7.915 12.4274 8.54354C12.5612 8.41575 12.7214 8.31874 12.8966 8.2593C13.0718 8.19986 13.2579 8.17943 13.4419 8.19943C13.6258 8.21943 13.8032 8.27938 13.9616 8.37509C14.1199 8.47079 14.2555 8.59995 14.3587 8.75351C14.462 8.90707 14.5304 9.08134 14.5592 9.26412C14.5881 9.44689 14.5767 9.63377 14.5257 9.81166C14.4748 9.98956 14.3857 10.1542 14.2645 10.294C14.1433 10.4339 13.993 10.5455 13.8242 10.6212Z" fill="url(#paint1_linear_871_1117)"/>
<defs>
<linearGradient id="paint0_linear_871_1117" x1="6.21884" y1="6.59978" x2="7.46309" y2="12.8304" gradientUnits="userSpaceOnUse">
<stop stop-color="white"/>
<stop offset="1" stop-color="#A3A3A3"/>
</linearGradient>
<linearGradient id="paint1_linear_871_1117" x1="1.12246" y1="-11.8185" x2="8.76094" y2="14.3706" gradientUnits="userSpaceOnUse">
<stop stop-color="white"/>
<stop offset="1" stop-color="#A3A3A3"/>
</linearGradient>
</defs>
</svg>
