<svg width="18" height="19" viewBox="0 0 18 19" fill="none" xmlns="http://www.w3.org/2000/svg">
<path d="M9.21797 0.730469C4.39918 0.730469 0.488281 4.64137 0.488281 9.46016C0.488281 14.2789 4.39918 18.1898 9.21797 18.1898C14.0368 18.1898 17.9477 14.2789 17.9477 9.46016C17.9477 4.64137 14.0368 0.730469 9.21797 0.730469ZM13.2685 6.66666C13.1376 8.04595 12.5702 11.3981 12.2821 12.9433C12.1599 13.598 11.9154 13.8163 11.6885 13.8425C11.1822 13.8861 10.798 13.5107 10.3092 13.1877C9.54097 12.6814 9.10449 12.3671 8.36246 11.8783C7.49822 11.3109 8.05692 10.9966 8.55451 10.4903C8.68546 10.3593 10.9203 8.3253 10.9639 8.14197C10.97 8.11421 10.9692 8.08538 10.9616 8.058C10.954 8.03062 10.9398 8.0055 10.9203 7.98484C10.8679 7.94119 10.798 7.95865 10.7369 7.96738C10.6584 7.98484 9.43621 8.7967 7.05301 10.403C6.70382 10.6387 6.38955 10.7609 6.1102 10.7522C5.79593 10.7434 5.20231 10.5776 4.7571 10.4292C4.20713 10.2546 3.77937 10.1585 3.81429 9.85299C3.83175 9.69586 4.04999 9.53872 4.46029 9.37286C7.00936 8.26419 8.70292 7.5309 9.5497 7.18171C11.9766 6.16907 12.4741 5.99447 12.8059 5.99447C12.8757 5.99447 13.0416 6.01193 13.1463 6.09923C13.2336 6.16906 13.2598 6.26509 13.2685 6.33493C13.2598 6.38731 13.2773 6.54444 13.2685 6.66666Z" fill="url(#paint0_linear_871_1120)"/>
<defs>
<linearGradient id="paint0_linear_871_1120" x1="1.57949" y1="-11.8185" x2="9.21797" y2="14.3706" gradientUnits="userSpaceOnUse">
<stop stop-color="white"/>
<stop offset="1" stop-color="#A3A3A3"/>
</linearGradient>
</defs>
</svg>
