<svg width="19" height="13" viewBox="0 0 19 13" fill="none" xmlns="http://www.w3.org/2000/svg">
<path d="M7.68688 9.07735L12.2176 6.45844L7.68688 3.83953V9.07735ZM17.7784 2.242C17.8919 2.65229 17.9705 3.20226 18.0228 3.90064C18.0839 4.59901 18.1101 5.20136 18.1101 5.72514L18.1625 6.45844C18.1625 8.37024 18.0228 9.77572 17.7784 10.6749C17.5602 11.4606 17.0538 11.9669 16.2682 12.1851C15.8579 12.2986 15.1071 12.3772 13.9548 12.4295C12.8199 12.4907 11.7811 12.5168 10.8208 12.5168L9.43281 12.5692C5.77507 12.5692 3.49663 12.4295 2.59747 12.1851C1.8118 11.9669 1.30547 11.4606 1.08723 10.6749C0.973745 10.2646 0.895178 9.71461 0.8428 9.01624C0.781692 8.31786 0.755503 7.71551 0.755503 7.19173L0.703125 6.45844C0.703125 4.54664 0.8428 3.14116 1.08723 2.242C1.30547 1.45633 1.8118 0.950005 2.59747 0.731763C3.00776 0.618277 3.75852 0.539709 4.91084 0.487331C6.0457 0.426223 7.08453 0.400034 8.04479 0.400034L9.43281 0.347656C13.0906 0.347656 15.369 0.487331 16.2682 0.731763C17.0538 0.950005 17.5602 1.45633 17.7784 2.242Z" fill="url(#paint0_linear_871_1123)"/>
<defs>
<linearGradient id="paint0_linear_871_1123" x1="1.79434" y1="-8.43659" x2="5.69308" y2="10.6593" gradientUnits="userSpaceOnUse">
<stop stop-color="white"/>
<stop offset="1" stop-color="#A3A3A3"/>
</linearGradient>
</defs>
</svg>
